<?xml version="1.0" encoding="utf-8"?>
<!-- Generator: Adobe Illustrator 19.2.0, SVG Export Plug-In . SVG Version: 6.00 Build 0)  -->
<svg version="1.1" id="Layer_1" xmlns="http://www.w3.org/2000/svg" xmlns:xlink="http://www.w3.org/1999/xlink" x="0px" y="0px"
	 width="127px" height="250px" viewBox="0 0 127 250" style="enable-background:new 0 0 127 250;" xml:space="preserve">
<circle cx="63.4" cy="214" r="11"/>
<g>
	<path style="fill:#FFFFFF;" d="M66.3,213.6c0,0.8-0.1,1.6-0.3,2.2c-0.2,0.6-0.4,1.1-0.8,1.5s-0.7,0.7-1.1,0.9s-0.9,0.3-1.4,0.3
		c-0.2,0-0.3,0-0.5,0s-0.3,0-0.5-0.1s-0.3-0.1-0.4-0.1s-0.2-0.1-0.3-0.1V217c0.1,0.1,0.2,0.1,0.3,0.2c0.1,0.1,0.3,0.1,0.4,0.1
		s0.3,0.1,0.4,0.1s0.3,0,0.4,0c0.3,0,0.6-0.1,0.9-0.2c0.3-0.1,0.5-0.3,0.7-0.6s0.3-0.6,0.4-0.9c0.1-0.3,0.2-0.8,0.2-1.3l0,0
		c-0.1,0.1-0.2,0.2-0.3,0.4s-0.2,0.2-0.4,0.3s-0.3,0.2-0.5,0.2c-0.2,0.1-0.4,0.1-0.6,0.1c-0.4,0-0.7-0.1-1-0.2
		c-0.3-0.1-0.6-0.3-0.8-0.5s-0.4-0.5-0.5-0.8s-0.2-0.7-0.2-1.1s0.1-0.8,0.2-1.2s0.3-0.7,0.6-0.9s0.6-0.4,0.9-0.6s0.7-0.2,1.1-0.2
		c0.4,0,0.7,0.1,1.1,0.2s0.6,0.4,0.9,0.7s0.5,0.7,0.6,1.2S66.3,212.9,66.3,213.6z M64.8,212.7c0-0.3,0-0.5-0.1-0.8s-0.2-0.4-0.3-0.6
		c-0.1-0.2-0.3-0.3-0.4-0.4c-0.2-0.1-0.4-0.1-0.6-0.1c-0.2,0-0.4,0-0.5,0.1s-0.3,0.2-0.4,0.3s-0.2,0.3-0.3,0.5s-0.2,0.5-0.2,0.7
		c0,0.3,0,0.5,0.1,0.7s0.2,0.4,0.3,0.5s0.3,0.2,0.5,0.3s0.4,0.1,0.6,0.1c0.2,0,0.4,0,0.5-0.1c0.1-0.1,0.3-0.2,0.4-0.3
		s0.2-0.3,0.3-0.4S64.8,212.9,64.8,212.7z"/>
</g>
<g>
	
		<line style="fill:none;stroke:#DFDFDE;stroke-width:4;stroke-linecap:round;stroke-linejoin:round;stroke-miterlimit:10;" x1="62.5" y1="-86.7" x2="63.5" y2="172.2"/>
	
		<circle style="fill:none;stroke:#DFDFDE;stroke-width:4;stroke-linecap:round;stroke-linejoin:round;stroke-miterlimit:10;" cx="63.5" cy="177.7" r="5"/>
</g>
<g>
	<path d="M12.3,242.5h-1.6v-6.1c0-0.5,0-1.1,0.1-1.8h0c-0.1,0.4-0.2,0.7-0.3,0.9l-2.8,7.1H6.7l-2.8-7c-0.1-0.2-0.2-0.5-0.3-0.9h0
		c0,0.4,0.1,1,0.1,1.9v6.1H2.2v-9.5h2.2l2.5,6.3c0.2,0.5,0.3,0.8,0.4,1.1h0c0.2-0.5,0.3-0.9,0.4-1.1l2.5-6.3h2.1V242.5z"/>
	<path d="M22.4,242.5h-1.7l-0.9-2.4h-3.7l-0.8,2.4h-1.7l3.5-9.5h1.8L22.4,242.5z M19.4,238.8l-1.3-3.8c0-0.1-0.1-0.3-0.1-0.6h0
		c0,0.3-0.1,0.4-0.1,0.6l-1.3,3.8H19.4z"/>
	<path d="M31.7,242.5H30l-4.5-6.9c-0.1-0.2-0.2-0.4-0.3-0.5h0c0,0.2,0.1,0.6,0.1,1.3v6.2h-1.5v-9.5h1.8l4.4,6.8
		c0.2,0.3,0.3,0.5,0.4,0.6h0c0-0.3-0.1-0.7-0.1-1.3v-6.1h1.5V242.5z"/>
	<path d="M41.8,242.5h-1.7l-0.9-2.4h-3.7l-0.8,2.4H33l3.5-9.5h1.8L41.8,242.5z M38.8,238.8l-1.3-3.8c0-0.1-0.1-0.3-0.1-0.6h0
		c0,0.3-0.1,0.4-0.1,0.6l-1.3,3.8H38.8z"/>
	<path d="M50.3,241.9c-1,0.5-2.1,0.8-3.3,0.8c-1.4,0-2.5-0.4-3.4-1.3c-0.9-0.9-1.3-2-1.3-3.5c0-1.5,0.5-2.7,1.4-3.6
		c0.9-0.9,2.1-1.4,3.6-1.4c1.1,0,1.9,0.2,2.6,0.5v1.6c-0.7-0.5-1.6-0.7-2.6-0.7c-1,0-1.8,0.3-2.5,1c-0.6,0.7-1,1.5-1,2.6
		c0,1.1,0.3,1.9,0.8,2.6s1.3,0.9,2.3,0.9c0.7,0,1.2-0.1,1.7-0.4v-2.2h-2v-1.3h3.6V241.9z"/>
	<path d="M57.7,242.5h-5.3v-9.5h5.1v1.3H54v2.7h3.3v1.3H54v2.8h3.7V242.5z"/>
	<path d="M69.5,242.5H68v-6.1c0-0.5,0-1.1,0.1-1.8h0c-0.1,0.4-0.2,0.7-0.3,0.9l-2.8,7.1h-1.1l-2.8-7c-0.1-0.2-0.2-0.5-0.3-0.9h0
		c0,0.4,0.1,1,0.1,1.9v6.1h-1.5v-9.5h2.2l2.5,6.3c0.2,0.5,0.3,0.8,0.4,1.1h0c0.2-0.5,0.3-0.9,0.4-1.1l2.5-6.3h2.1V242.5z"/>
	<path d="M77.2,242.5h-5.3v-9.5h5.1v1.3h-3.5v2.7h3.3v1.3h-3.3v2.8h3.7V242.5z"/>
	<path d="M86.9,242.5h-1.7l-4.5-6.9c-0.1-0.2-0.2-0.4-0.3-0.5h0c0,0.2,0.1,0.6,0.1,1.3v6.2h-1.5v-9.5h1.8l4.4,6.8
		c0.2,0.3,0.3,0.5,0.4,0.6h0c0-0.3-0.1-0.7-0.1-1.3v-6.1h1.5V242.5z"/>
	<path d="M95.3,234.4h-2.7v8.1H91v-8.1h-2.7v-1.3h7V234.4z"/>
	<path d="M106.4,234.4h-2.7v8.1h-1.6v-8.1h-2.7v-1.3h7V234.4z"/>
	<path d="M109.4,242.5h-1.6v-9.5h1.6V242.5z"/>
	<path d="M117,242.5h-5.3v-9.5h5.1v1.3h-3.5v2.7h3.3v1.3h-3.3v2.8h3.7V242.5z"/>
	<path d="M126,242.5h-1.8l-1.5-2.5c-0.1-0.2-0.3-0.4-0.4-0.6s-0.3-0.3-0.4-0.4s-0.3-0.2-0.4-0.2c-0.2,0-0.3-0.1-0.5-0.1h-0.6v3.8
		h-1.6v-9.5h3.1c0.4,0,0.9,0.1,1.2,0.2c0.4,0.1,0.7,0.3,1,0.5c0.3,0.2,0.5,0.5,0.6,0.8c0.2,0.3,0.2,0.7,0.2,1.1c0,0.3,0,0.6-0.1,0.9
		c-0.1,0.3-0.2,0.5-0.4,0.7s-0.4,0.4-0.7,0.6c-0.3,0.2-0.5,0.3-0.9,0.4v0c0.2,0.1,0.3,0.2,0.4,0.3c0.1,0.1,0.2,0.2,0.4,0.4
		c0.1,0.1,0.2,0.3,0.3,0.4s0.2,0.3,0.4,0.5L126,242.5z M120.3,234.4v3.1h1.3c0.2,0,0.5,0,0.7-0.1c0.2-0.1,0.4-0.2,0.5-0.3
		c0.1-0.1,0.3-0.3,0.3-0.5c0.1-0.2,0.1-0.4,0.1-0.7c0-0.5-0.1-0.8-0.4-1.1c-0.3-0.3-0.7-0.4-1.2-0.4H120.3z"/>
</g>
</svg>
