<svg id="Layer_1" xmlns="http://www.w3.org/2000/svg" width="160" height="475" viewBox="0 0 160 475"><g fill="none" stroke="#dfdfde" stroke-width="4" stroke-linecap="round" stroke-linejoin="round" stroke-miterlimit="10"><path d="M79.4-83v260.9"/><circle cx="79.4" cy="183.4" r="5"/></g><g fill="#FFF" stroke="#000" stroke-width="3" stroke-linecap="round" stroke-linejoin="round"><path d="M136.1 279.1c-5.3 32.8-36.1 55.1-68.9 49.9S12 292.8 17.3 260c1.3-8.4 4.4-16.1 8.7-22.8 7.5-11.7 18.8-20.4 31.9-24.8 8.9-2.9 18.5-3.8 28.4-2.3 32.7 5.3 55 36.2 49.8 69z"/><path d="M125.3 277.4c-4.3 26.9-29.6 45.1-56.4 40.8S23.7 288.6 28 261.8c1.1-6.9 3.6-13.2 7.1-18.7 6.1-9.6 15.4-16.7 26.1-20.3 7.3-2.4 15.2-3.1 23.2-1.8 27 4.2 45.2 29.5 40.9 56.4z"/></g><g fill="#686868"><path d="M6.3 364.2c-1.4 0-2.5-.5-3.4-1.4-.8-.9-1.3-2.1-1.3-3.6 0-1.6.4-2.8 1.3-3.8s2-1.4 3.5-1.4c1.4 0 2.5.5 3.3 1.4.8.9 1.3 2.1 1.3 3.6 0 1.6-.4 2.9-1.3 3.8s-2 1.4-3.4 1.4zm0-8.7c-.9 0-1.6.3-2.2 1-.6.7-.8 1.6-.8 2.6 0 1.1.3 2 .8 2.6s1.3 1 2.1 1c.9 0 1.7-.3 2.2-1s.8-1.5.8-2.7c0-1.2-.3-2.1-.8-2.7-.4-.5-1.1-.8-2.1-.8zM14.4 360.4v3.6h-1.6v-9.8h3c1.1 0 2 .3 2.6.8s.9 1.3.9 2.2-.3 1.7-1 2.3-1.5.9-2.6.9h-1.3zm0-4.9v3.6h1.1c.7 0 1.2-.2 1.6-.5s.5-.8.5-1.4c0-1.2-.7-1.7-2-1.7h-1.2zM26.5 364H21v-9.8h5.3v1.4h-3.7v2.8H26v1.4h-3.4v2.9h3.9v1.3zM35.8 364h-1.9l-1.6-2.6c-.1-.2-.3-.4-.4-.6-.1-.2-.3-.3-.4-.4-.1-.1-.3-.2-.5-.2s-.3-.1-.6-.1h-.7v4h-1.6v-9.8h3.2c.5 0 .9.1 1.3.2s.7.3 1 .5c.3.2.5.5.7.8.2.3.2.7.2 1.2 0 .3-.1.7-.2 1-.1.3-.2.5-.4.8-.2.2-.4.4-.7.6-.3.2-.6.3-.9.4.2.1.3.2.5.3.1.1.3.2.4.4s.2.3.4.4c.1.2.2.3.4.6l1.8 2.5zm-6-8.5v3.2h1.4c.3 0 .5 0 .7-.1l.6-.3c.2-.1.3-.3.4-.5s.1-.4.1-.7c0-.5-.1-.8-.4-1.1s-.7-.4-1.3-.4h-1.5zM45 364h-1.8l-.9-2.5h-3.9l-.8 2.5h-1.8l3.7-9.8h1.8L45 364zm-3.1-3.8l-1.4-3.9c0-.1-.1-.3-.1-.6 0 .3-.1.5-.1.6l-1.3 3.9h2.9zM51.6 355.6h-2.8v8.4h-1.6v-8.4h-2.8v-1.4h7.3v1.4zM54.7 364H53v-9.8h1.7v9.8zM61.2 364.2c-1.4 0-2.5-.5-3.4-1.4-.8-.9-1.3-2.1-1.3-3.6 0-1.6.4-2.8 1.3-3.8s2-1.4 3.5-1.4c1.4 0 2.5.5 3.3 1.4.8.9 1.3 2.1 1.3 3.6 0 1.6-.4 2.9-1.3 3.8s-2 1.4-3.4 1.4zm.1-8.7c-.9 0-1.6.3-2.2 1-.6.7-.8 1.6-.8 2.6 0 1.1.3 2 .8 2.6s1.3 1 2.1 1c.9 0 1.7-.3 2.2-1s.8-1.5.8-2.7c0-1.2-.3-2.1-.8-2.7-.5-.5-1.2-.8-2.1-.8zM76 364h-1.8l-4.7-7.2-.3-.6c0 .2.1.7.1 1.3v6.4h-1.6v-9.8h1.9l4.5 7c.2.3.3.5.4.6 0-.3-.1-.7-.1-1.3v-6.3H76v9.9zM86.5 364h-1.8l-.9-2.5H80l-.8 2.5h-1.8l3.7-9.8h1.8l3.6 9.8zm-3.1-3.8l-1.4-3.9c0-.1-.1-.3-.1-.6 0 .3-.1.5-.1.6l-1.3 3.9h2.9zM93.3 364h-5.4v-9.8h1.6v8.4h3.8v1.4zM100.2 364h-1.7v-9.8h1.7v9.8zM111 364h-1.8l-4.7-7.2-.3-.6c0 .2.1.7.1 1.3v6.4h-1.6v-9.8h1.9l4.5 7c.2.3.3.5.4.6 0-.3-.1-.7-.1-1.3v-6.3h1.6v9.9zM112.9 363.6v-1.7c.2.1.3.3.5.4.2.1.4.2.7.3.2.1.5.1.7.2s.4.1.6.1c.7 0 1.2-.1 1.5-.3.3-.2.5-.6.5-1 0-.2-.1-.4-.2-.6-.1-.2-.3-.3-.5-.5s-.4-.3-.7-.4c-.3-.1-.6-.3-.9-.4-.3-.2-.6-.4-.9-.5s-.5-.4-.7-.6c-.2-.2-.4-.5-.5-.7-.1-.3-.2-.6-.2-1 0-.5.1-.9.3-1.2.2-.3.5-.6.8-.8.3-.2.7-.4 1.2-.5.4-.1.9-.2 1.3-.2 1 0 1.8.1 2.2.3v1.6c-.6-.4-1.3-.6-2.1-.6-.2 0-.5 0-.7.1-.2 0-.5.1-.6.2-.2.1-.3.2-.5.4s-.2.4-.2.6c0 .2 0 .4.1.6s.2.3.4.4c.2.1.4.3.6.4.3.1.5.3.9.4.3.2.7.4 1 .6.3.2.6.4.8.6.2.2.4.5.5.8.1.3.2.6.2 1 0 .5-.1.9-.3 1.3s-.5.6-.8.8c-.3.2-.7.4-1.2.5s-.9.1-1.4.1h-.6c-.2 0-.5-.1-.7-.1-.3 0-.5-.1-.7-.2s-.2-.3-.4-.4zM122.7 364H121v-9.8h1.7v9.8zM132.7 363.3c-1 .6-2.2.8-3.4.8-1.4 0-2.6-.5-3.5-1.4s-1.3-2.1-1.3-3.6.5-2.8 1.5-3.7c1-1 2.2-1.5 3.7-1.5 1.1 0 2 .2 2.7.5v1.7c-.8-.5-1.6-.8-2.7-.8-1 0-1.9.3-2.6 1-.7.7-1 1.6-1 2.7s.3 2 .9 2.7c.6.6 1.4 1 2.3 1 .7 0 1.3-.1 1.8-.4V360H129v-1.4h3.7v4.7zM142.7 364h-1.6v-4.3h-4.6v4.3h-1.6v-9.8h1.6v4.1h4.6v-4.1h1.6v9.8zM151.4 355.6h-2.8v8.4H147v-8.4h-2.8v-1.4h7.3v1.4zM152.4 363.6v-1.7c.2.1.3.3.5.4.2.1.4.2.7.3.2.1.5.1.7.2s.4.1.6.1c.7 0 1.2-.1 1.5-.3.3-.2.5-.6.5-1 0-.2-.1-.4-.2-.6-.1-.2-.3-.3-.5-.5s-.4-.3-.7-.4c-.3-.1-.6-.3-.9-.4-.3-.2-.6-.4-.9-.5s-.5-.4-.7-.6c-.2-.2-.4-.5-.5-.7-.1-.3-.2-.6-.2-1 0-.5.1-.9.3-1.2.2-.3.5-.6.8-.8.3-.2.7-.4 1.2-.5.4-.1.9-.2 1.3-.2 1 0 1.8.1 2.2.3v1.6c-.6-.4-1.3-.6-2.1-.6-.2 0-.5 0-.7.1-.2 0-.5.1-.6.2-.2.1-.3.2-.5.4s-.2.4-.2.6c0 .2 0 .4.1.6s.2.3.4.4c.2.1.4.3.6.4.3.1.5.3.9.4.3.2.7.4 1 .6.3.2.6.4.8.6.2.2.4.5.5.8.1.3.2.6.2 1 0 .5-.1.9-.3 1.3s-.5.6-.8.8c-.3.2-.7.4-1.2.5s-.9.1-1.4.1h-.6c-.2 0-.5-.1-.7-.1-.3 0-.5-.1-.7-.2s-.2-.3-.4-.4z"/></g><path d="M57.1 275.5h3.5V272h-3.5v3.5zm0-10.6h3.5v-3.2c-1.2.7-2.5 1.4-3.5 2.3v.9zm5.3 21.2H66v-3.5h-3.5v3.5h-.1zm0 10.6H66v-3.5h-3.5v3.5h-.1zm0-15.9H66v-3.5h-3.5v3.5h-.1zm0 10.6H66v-3.5h-3.5v3.5h-.1zm-5.3-5.3h3.5v-3.5h-3.5v3.5zm0 5.3h3.5v-3.5h-3.5v3.5zm-5.3-10.6h3.5v-3.5h-3.5v3.5zm0 5.3h3.5v-3.5h-3.5v3.5zm0-10.6h3.5V272h-3.5v3.5zm.4-5.3h3.2v-3.5h-.9c-.9 1-1.6 2.2-2.3 3.5zm4.9 23.9c1.1.9 2.3 1.6 3.5 2.3v-3.2h-3.5v.9zm0-23.9h3.5v-3.5h-3.5v3.5zm26.6 21.2h.9c.9-1.1 1.6-2.3 2.3-3.5h-3.2v3.5zm-5.3-5.3h3.5v-3.5h-3.5v3.5zm0 10.3c1.2-.7 2.5-1.4 3.5-2.3v-.9h-3.5v3.2zm0-5h3.5v-3.5h-3.5v3.5zm-16-15.9H66V272h-3.5v3.5h-.1zm23.9-31.8c-10.3 0-18.6 8.3-18.6 18.6v18.6h18.6c10.3 0 18.6-8.3 18.6-18.6s-8.3-18.6-18.6-18.6zm-6.2 26.5h-3.5v-10.6h3.5v10.6zm7.1 0h-3.5v-7.1h3.5v7.1zm7.1 0h-3.5V256h3.5v14.2zm-10.6 15.9h3.5v-3.5h-3.5v3.5zm-21.3-21.2H66v-3.5h-3.5v3.5h-.1zM73 291.4h3.5v-3.5H73v3.5zm-5.3 0h3.5v-3.5h-3.5v3.5zm0-5.3h3.5v-3.5h-3.5v3.5zm5.3 10.6h3.5v-3.5H73v3.5z"/></svg>