<?xml version="1.0" encoding="utf-8"?>
<!-- Generator: Adobe Illustrator 19.2.0, SVG Export Plug-In . SVG Version: 6.00 Build 0)  -->
<svg version="1.1" id="Layer_1" xmlns="http://www.w3.org/2000/svg" xmlns:xlink="http://www.w3.org/1999/xlink" x="0px" y="0px"
	 width="55px" height="350px" viewBox="0 0 55 350" style="enable-background:new 0 0 55 350;" xml:space="preserve">
<path style="fill:#010101;" d="M46,307.8c-6.7-8.5-19.1-10-27.6-3.3c-2.5,2-4.4,4.5-5.7,7.2l0,0l-0.1,0.3c-0.2,0.5-0.5,1.1-0.7,1.7
	L0,344l31.8-4.3c0.9-0.1,1.8-0.2,2.7-0.4h0.1l0,0c2.8-0.6,5.6-1.8,8-3.8C51.2,328.7,52.7,316.4,46,307.8z"/>
<g>
	<path style="fill:#FFFFFF;" d="M23.2,313c0-0.7,2.3-1.3,5.2-1.3s5.2,0.6,5.2,1.3s-2.3,1.3-5.2,1.3S23.2,313.8,23.2,313L23.2,313z
		 M27.8,330.6V318c0-1.6,2.5-2.3,6-2.3c0.8,0,1.6,0,2.3,0.1V313c0-1.3-3.5-2.4-7.8-2.4s-7.8,1.1-7.8,2.4v16.2c0,1.4,3.5,2.5,7.8,2.5
		h0.5C28.2,331.3,27.8,331,27.8,330.6L27.8,330.6z"/>
	<path style="fill:#FFFFFF;" d="M34.1,319.7c-2.1,0-3.8-0.4-3.8-1c0-0.5,1.7-1,3.8-1s3.8,0.4,3.8,1S36.2,319.7,34.1,319.7
		L34.1,319.7z M37.4,325l-6.9,5.7l2.7-4.4h-2.3l6.9-5.7l-2.7,4.4H37.4L37.4,325L37.4,325z M34.1,316.7c-3.1,0-5.4,0.8-5.4,1.7V330
		c0,1,2.3,1.8,5.4,1.8s5.6-0.8,5.6-1.8v-11.6C39.7,317.5,37.2,316.7,34.1,316.7L34.1,316.7z"/>
</g>
<line style="fill:none;stroke:#DFDFDE;stroke-width:4;stroke-linecap:round;stroke-linejoin:round;stroke-miterlimit:10;" x1="39.7" y1="-10.4" x2="40.7" y2="278.5"/>
<circle style="fill:none;stroke:#DFDFDE;stroke-width:4;stroke-linecap:round;stroke-linejoin:round;stroke-miterlimit:10;" cx="40.7" cy="284" r="5"/>
</svg>
