<svg id="Layer_1" xmlns="http://www.w3.org/2000/svg" width="127" height="250" viewBox="0 0 127 250"><circle cx="63.4" cy="214" r="11"/><path d="M66.3 213.6c0 .8-.1 1.6-.3 2.2-.2.6-.4 1.1-.8 1.5s-.7.7-1.1.9-.9.3-1.4.3h-.5c-.2 0-.3 0-.5-.1s-.3-.1-.4-.1-.2-.1-.3-.1V217c.1.1.2.1.3.2.1.1.3.1.4.1s.3.1.4.1h.4c.3 0 .6-.1.9-.2.3-.1.5-.3.7-.6s.3-.6.4-.9c.1-.3.2-.8.2-1.3-.1.1-.2.2-.3.4s-.2.2-.4.3-.3.2-.5.2c-.2.1-.4.1-.6.1-.4 0-.7-.1-1-.2-.3-.1-.6-.3-.8-.5s-.4-.5-.5-.8-.2-.7-.2-1.1.1-.8.2-1.2.3-.7.6-.9l.9-.6c.3-.2.7-.2 1.1-.2.4 0 .7.1 1.1.2s.6.4.9.7.5.7.6 1.2.5.9.5 1.6zm-1.5-.9c0-.3 0-.5-.1-.8s-.2-.4-.3-.6c-.1-.2-.3-.3-.4-.4-.2-.1-.4-.1-.6-.1-.2 0-.4 0-.5.1s-.3.2-.4.3-.2.3-.3.5-.2.5-.2.7c0 .3 0 .5.1.7s.2.4.3.5.3.2.5.3.4.1.6.1c.2 0 .4 0 .5-.1.1-.1.3-.2.4-.3s.2-.3.3-.4.1-.3.1-.5z" fill="#FFF"/><g fill="none" stroke="#dfdfde" stroke-width="4" stroke-linecap="round" stroke-linejoin="round" stroke-miterlimit="10"><path d="M62.5-86.7l1 258.9"/><circle cx="63.5" cy="177.7" r="5"/></g><path d="M12.3 242.5h-1.6v-6.1c0-.5 0-1.1.1-1.8-.1.4-.2.7-.3.9l-2.8 7.1h-1l-2.8-7c-.1-.2-.2-.5-.3-.9 0 .4.1 1 .1 1.9v6.1H2.2v-9.5h2.2l2.5 6.3c.2.5.3.8.4 1.1.2-.5.3-.9.4-1.1l2.5-6.3h2.1v9.3zM22.4 242.5h-1.7l-.9-2.4h-3.7l-.8 2.4h-1.7l3.5-9.5h1.8l3.5 9.5zm-3-3.7l-1.3-3.8c0-.1-.1-.3-.1-.6 0 .3-.1.4-.1.6l-1.3 3.8h2.8zM31.7 242.5H30l-4.5-6.9c-.1-.2-.2-.4-.3-.5 0 .2.1.6.1 1.3v6.2h-1.5v-9.5h1.8l4.4 6.8c.2.3.3.5.4.6 0-.3-.1-.7-.1-1.3v-6.1h1.5v9.4zM41.8 242.5h-1.7l-.9-2.4h-3.7l-.8 2.4H33l3.5-9.5h1.8l3.5 9.5zm-3-3.7l-1.3-3.8c0-.1-.1-.3-.1-.6 0 .3-.1.4-.1.6l-1.3 3.8h2.8zM50.3 241.9c-1 .5-2.1.8-3.3.8-1.4 0-2.5-.4-3.4-1.3-.9-.9-1.3-2-1.3-3.5s.5-2.7 1.4-3.6c.9-.9 2.1-1.4 3.6-1.4 1.1 0 1.9.2 2.6.5v1.6c-.7-.5-1.6-.7-2.6-.7s-1.8.3-2.5 1c-.6.7-1 1.5-1 2.6s.3 1.9.8 2.6 1.3.9 2.3.9c.7 0 1.2-.1 1.7-.4v-2.2h-2v-1.3h3.6v4.4zM57.7 242.5h-5.3V233h5.1v1.3H54v2.7h3.3v1.3H54v2.8h3.7v1.4zM69.5 242.5H68v-6.1c0-.5 0-1.1.1-1.8-.1.4-.2.7-.3.9l-2.8 7.1h-1.1l-2.8-7c-.1-.2-.2-.5-.3-.9 0 .4.1 1 .1 1.9v6.1h-1.5v-9.5h2.2l2.5 6.3c.2.5.3.8.4 1.1.2-.5.3-.9.4-1.1l2.5-6.3h2.1v9.3zM77.2 242.5h-5.3V233H77v1.3h-3.5v2.7h3.3v1.3h-3.3v2.8h3.7v1.4zM86.9 242.5h-1.7l-4.5-6.9c-.1-.2-.2-.4-.3-.5 0 .2.1.6.1 1.3v6.2H79v-9.5h1.8l4.4 6.8c.2.3.3.5.4.6 0-.3-.1-.7-.1-1.3v-6.1H87v9.4zM95.3 234.4h-2.7v8.1H91v-8.1h-2.7v-1.3h7v1.3zM106.4 234.4h-2.7v8.1h-1.6v-8.1h-2.7v-1.3h7v1.3zM109.4 242.5h-1.6V233h1.6v9.5zM117 242.5h-5.3V233h5.1v1.3h-3.5v2.7h3.3v1.3h-3.3v2.8h3.7v1.4zM126 242.5h-1.8l-1.5-2.5c-.1-.2-.3-.4-.4-.6s-.3-.3-.4-.4-.3-.2-.4-.2c-.2 0-.3-.1-.5-.1h-.6v3.8h-1.6V233h3.1c.4 0 .9.1 1.2.2.4.1.7.3 1 .5.3.2.5.5.6.8.2.3.2.7.2 1.1 0 .3 0 .6-.1.9-.1.3-.2.5-.4.7s-.4.4-.7.6c-.3.2-.5.3-.9.4.2.1.3.2.4.3l.4.4c.1.1.2.3.3.4s.2.3.4.5l1.7 2.7zm-5.7-8.1v3.1h1.3c.2 0 .5 0 .7-.1.2-.1.4-.2.5-.3.1-.1.3-.3.3-.5.1-.2.1-.4.1-.7 0-.5-.1-.8-.4-1.1-.3-.3-.7-.4-1.2-.4h-1.3z"/></svg>