<?xml version="1.0" encoding="utf-8"?>
<!-- Generator: Adobe Illustrator 19.2.0, SVG Export Plug-In . SVG Version: 6.00 Build 0)  -->
<svg version="1.1" id="Layer_1" xmlns="http://www.w3.org/2000/svg" xmlns:xlink="http://www.w3.org/1999/xlink" x="0px" y="0px"
	 width="55px" height="284px" viewBox="0 0 55 284" style="enable-background:new 0 0 55 284;" xml:space="preserve">
<g>
	
		<line style="fill:none;stroke:#DFDFDE;stroke-width:4;stroke-linecap:round;stroke-linejoin:round;stroke-miterlimit:10;" x1="40.7" y1="-41" x2="41.7" y2="217.9"/>
	
		<circle style="fill:none;stroke:#DFDFDE;stroke-width:4;stroke-linecap:round;stroke-linejoin:round;stroke-miterlimit:10;" cx="41.7" cy="223.4" r="5"/>
</g>
<g>
	<path d="M40.6,240.5c-8.1-7.3-20.5-6.6-27.8,1.5c-2.1,2.3-3.5,5-4.3,7.8l0,0l0,0.1c-0.2,0.8-0.4,1.7-0.5,2.5L1.6,284l30.7-9.8
		c0.8-0.2,1.6-0.4,2.4-0.7l0.2-0.1l0,0c2.7-1.1,5.2-2.8,7.3-5.1C49.4,260.2,48.7,247.8,40.6,240.5z"/>
	<g>
		<path style="fill:#FFFFFF;" d="M19.6,258.5h1.2v-1.2h-1.2V258.5L19.6,258.5L19.6,258.5z M19.6,254.9h1.2v-1.1
			c-0.4,0.2-0.8,0.5-1.2,0.8V254.9L19.6,254.9L19.6,254.9z M21.4,262.1h1.2v-1.2h-1.2V262.1L21.4,262.1L21.4,262.1z M21.4,265.7h1.2
			v-1.2h-1.2V265.7L21.4,265.7L21.4,265.7z M21.4,260.3h1.2v-1.2h-1.2V260.3L21.4,260.3L21.4,260.3z M21.4,263.9h1.2v-1.2h-1.2
			V263.9L21.4,263.9L21.4,263.9z M19.6,262.1h1.2v-1.2h-1.2V262.1L19.6,262.1L19.6,262.1z M19.6,263.9h1.2v-1.2h-1.2V263.9
			L19.6,263.9L19.6,263.9z M17.8,260.3H19v-1.2h-1.2V260.3L17.8,260.3L17.8,260.3z M17.8,262.1H19v-1.2h-1.2V262.1L17.8,262.1
			L17.8,262.1z M17.8,258.5H19v-1.2h-1.2V258.5L17.8,258.5L17.8,258.5z M17.9,256.7H19v-1.2h-0.3C18.4,255.9,18.2,256.3,17.9,256.7
			L17.9,256.7z M19.6,264.8c0.4,0.3,0.8,0.5,1.2,0.8v-1.1h-1.2V264.8L19.6,264.8L19.6,264.8z M19.6,256.7h1.2v-1.2h-1.2V256.7
			L19.6,256.7L19.6,256.7z M28.5,263.9h0.3c0.3-0.4,0.5-0.8,0.8-1.2h-1.1V263.9L28.5,263.9L28.5,263.9z M26.7,262.1h1.2v-1.2h-1.2
			V262.1L26.7,262.1L26.7,262.1z M26.7,265.6c0.4-0.2,0.8-0.5,1.2-0.8v-0.3h-1.2V265.6L26.7,265.6L26.7,265.6z M26.7,263.9h1.2v-1.2
			h-1.2V263.9L26.7,263.9L26.7,263.9z M21.4,258.5h1.2v-1.2h-1.2V258.5L21.4,258.5L21.4,258.5z M29.4,247.8c-3.5,0-6.3,2.8-6.3,6.3
			c0,1.8,0,6.3,0,6.3s4.7,0,6.3,0c3.5,0,6.3-2.8,6.3-6.3C35.7,250.6,32.9,247.8,29.4,247.8L29.4,247.8z M27.3,256.7h-1.2v-3.6h1.2
			V256.7L27.3,256.7L27.3,256.7z M29.7,256.7h-1.2v-2.4h1.2V256.7L29.7,256.7L29.7,256.7z M32.1,256.7h-1.2V252h1.2V256.7
			L32.1,256.7L32.1,256.7z M28.5,262.1h1.2v-1.2h-1.2V262.1L28.5,262.1L28.5,262.1z M21.4,254.9h1.2v-1.2h-1.2V254.9L21.4,254.9
			L21.4,254.9z M25,263.9h1.2v-1.2H25V263.9L25,263.9L25,263.9z M23.2,263.9h1.2v-1.2h-1.2V263.9L23.2,263.9L23.2,263.9z
			 M23.2,262.1h1.2v-1.2h-1.2V262.1L23.2,262.1L23.2,262.1z M25,265.7h1.2v-1.2H25V265.7L25,265.7L25,265.7z"/>
	</g>
</g>
</svg>
