<svg id="Layer_1" xmlns="http://www.w3.org/2000/svg" width="315" height="275" viewBox="0 0 315 275"><text transform="translate(405.667 415.667)" font-family="MyriadPro-Regular" font-size="12">1ebbee</text><g fill="none" stroke="#dfdfde" stroke-width="4" stroke-linecap="round" stroke-linejoin="round" stroke-miterlimit="10"><path d="M69.9 263h10.9"/><circle cx="85.8" cy="263" r="5"/></g><path d="M113 263.7l1.5 7.2-3.3.7-4.2-19.9 6-1.3c2.3-.5 4.2-.3 5.7.5s2.4 2.2 2.8 4.1.1 3.7-1 5.2-2.7 2.5-5 3l-2.5.5zm-2.1-10l1.5 7.3 2.1-.4c1.4-.3 2.4-.8 3-1.7.6-.8.8-1.8.5-3-.5-2.3-2.1-3.2-4.8-2.7l-2.3.5zM143.2 265.7l-3.9.7-4.1-4.8c-.4-.4-.7-.8-1.1-1.1-.3-.3-.7-.5-1-.7-.3-.2-.7-.3-1-.3h-1.2l-1.3.2 1.4 8.2-3.3.6-3.4-20.1 6.6-1.1c.9-.2 1.8-.2 2.7-.1.8.1 1.6.3 2.2.7.6.4 1.2.8 1.7 1.5.4.6.7 1.4.9 2.3.1.7.1 1.4 0 2-.1.6-.3 1.2-.6 1.7s-.7 1-1.2 1.4c-.5.4-1.1.8-1.7 1.1v.1c.4.1.8.3 1.1.5l.9.6c.3.2.6.5.9.8l1 1 4.4 4.8zm-15.1-15.3l1.1 6.5 2.8-.5c.5-.1 1-.2 1.4-.5.4-.2.7-.5 1-.9.3-.4.5-.8.6-1.2.1-.5.1-1 0-1.5-.2-1-.6-1.7-1.3-2.1-.7-.4-1.6-.6-2.8-.4l-2.8.6zM153.4 264.8c-2.9.3-5.4-.3-7.3-2-2-1.7-3.1-4-3.5-7.1-.4-3.3.2-6 1.8-8.1 1.6-2.1 3.9-3.4 6.9-3.8 2.8-.3 5.2.3 7.2 2s3.1 4 3.5 7.1c.4 3.3-.2 6-1.7 8.1-1.7 2.2-4 3.4-6.9 3.8zm-2-18c-1.9.2-3.3 1.1-4.3 2.6s-1.4 3.4-1.1 5.7c.3 2.2 1 4 2.3 5.2 1.3 1.2 2.8 1.7 4.7 1.5 1.9-.2 3.4-1.1 4.3-2.5 1-1.4 1.3-3.3 1-5.7-.3-2.4-1.1-4.2-2.3-5.4-1.1-1.1-2.7-1.6-4.6-1.4zM166.6 263l-1.3-20.3 5.9-.4c7.5-.5 11.4 2.6 11.9 9.2.2 3.1-.7 5.7-2.6 7.8-2 2-4.7 3.2-8.2 3.4l-5.7.3zm2.2-17.7l.9 14.6 2.7-.2c2.4-.2 4.2-.9 5.4-2.3 1.2-1.4 1.8-3.3 1.6-5.7-.3-4.8-2.9-7-7.8-6.7l-2.8.3zM202.7 253.4c.1 5.7-2.6 8.6-8 8.7-5.2.1-7.8-2.6-7.9-8.1l-.2-12.5 3.4-.1.2 11.8c.1 4 1.6 6 4.8 5.9 3 0 4.5-2 4.4-5.8l-.2-12 3.4-.1.1 12.2zM221.5 261.7c-1.6.7-3.5 1-5.8.9-3-.1-5.3-1.2-7-3.1s-2.5-4.4-2.3-7.5c.2-3.3 1.3-5.8 3.4-7.7s4.7-2.8 7.7-2.7c2 .1 3.6.4 4.9 1.1l-.2 3.3c-1.3-.9-2.8-1.4-4.5-1.4-2.2-.1-4 .5-5.5 1.9-1.4 1.3-2.2 3.2-2.3 5.5-.1 2.2.5 4.1 1.7 5.4 1.2 1.4 2.9 2.1 4.9 2.2 1.9.1 3.6-.3 5.1-1.1l-.1 3.2zM239.7 246.6l-5.8-.5-1.6 17.4-3.4-.3 1.6-17.4-5.8-.5.3-2.9 15 1.4-.3 2.8zM244.4 264.8l-3.5-.4 2.5-20.2 3.4.4-2.4 20.2zM257.4 267c-2.9-.5-5.1-1.8-6.5-3.9-1.4-2.2-1.9-4.7-1.4-7.8.5-3.2 1.8-5.7 3.9-7.3 2.1-1.6 4.6-2.2 7.7-1.7 2.8.5 4.9 1.7 6.4 3.9 1.4 2.1 1.9 4.7 1.4 7.7-.5 3.3-1.8 5.7-3.9 7.4-2.2 1.6-4.7 2.2-7.6 1.7zm3-17.8c-1.8-.3-3.4.2-4.8 1.3s-2.2 2.9-2.6 5.2c-.4 2.2-.1 4.1.8 5.7.9 1.5 2.3 2.5 4.1 2.8 1.9.3 3.5-.1 4.9-1.2 1.3-1.1 2.2-2.9 2.5-5.2.4-2.4.1-4.3-.7-5.8-.9-1.6-2.3-2.5-4.2-2.8zM287.5 272.5l-3.6-.8-6.4-16.7c-.2-.4-.3-.8-.4-1.3h-.1c0 .4-.2 1.4-.5 2.8l-2.7 13.1-3.2-.7 4.2-19.9 3.8.8 6.2 16.2c.3.7.4 1.1.5 1.4h.1c0-.5.2-1.5.4-2.7l2.7-12.8 3.2.7-4.2 19.9z"/><path fill="none" stroke="#dfdfde" stroke-width="4" stroke-linecap="round" stroke-linejoin="round" stroke-miterlimit="10" d="M69.9 263V-8"/></svg>