<?xml version="1.0" encoding="utf-8"?>
<!-- Generator: Adobe Illustrator 19.2.0, SVG Export Plug-In . SVG Version: 6.00 Build 0)  -->
<svg version="1.1" id="Layer_1" xmlns="http://www.w3.org/2000/svg" xmlns:xlink="http://www.w3.org/1999/xlink" x="0px" y="0px"
	 width="194px" height="350px" viewBox="0 0 194 350" style="enable-background:new 0 0 194 350;" xml:space="preserve">
<g>
	<path d="M81.2,330.9h-1.8l-0.9-2.5h-3.8l-0.8,2.5h-1.8l3.7-9.8h1.8L81.2,330.9z M78.1,327.1l-1.4-3.9c0-0.1-0.1-0.3-0.1-0.6l0,0
		c0,0.3-0.1,0.5-0.1,0.6l-1.3,3.9H78.1z"/>
	<path d="M84.2,327.3v3.5h-1.6V321h3c1.1,0,2,0.3,2.6,0.8s0.9,1.3,0.9,2.2s-0.3,1.7-1,2.3c-0.6,0.6-1.5,0.9-2.6,0.9L84.2,327.3
		L84.2,327.3z M84.2,322.4v3.6h1c0.7,0,1.2-0.2,1.6-0.5s0.5-0.8,0.5-1.4c0-1.1-0.7-1.7-2-1.7C85.3,322.4,84.2,322.4,84.2,322.4z"/>
	<path d="M92.3,327.3v3.5h-1.6V321h3c1.1,0,2,0.3,2.6,0.8s0.9,1.3,0.9,2.2s-0.3,1.7-1,2.3c-0.6,0.6-1.5,0.9-2.6,0.9L92.3,327.3
		L92.3,327.3z M92.3,322.4v3.6h1c0.7,0,1.2-0.2,1.6-0.5s0.5-0.8,0.5-1.4c0-1.1-0.7-1.7-2-1.7H92.3z"/>
	<path d="M104.2,330.9h-5.4v-9.8h1.6v8.4h3.8V330.9z"/>
	<path d="M107.3,330.9h-1.7v-9.8h1.7V330.9z"/>
	<path d="M116.5,330.5c-0.7,0.4-1.6,0.6-2.7,0.6c-1.4,0-2.5-0.4-3.4-1.3s-1.3-2.1-1.3-3.5c0-1.6,0.5-2.8,1.4-3.8s2.2-1.4,3.6-1.4
		c0.9,0,1.7,0.1,2.3,0.4v1.6c-0.7-0.4-1.4-0.6-2.2-0.6c-1.1,0-1.9,0.3-2.6,1s-1,1.6-1,2.7s0.3,1.9,0.9,2.6c0.6,0.6,1.4,1,2.4,1
		c0.9,0,1.7-0.2,2.4-0.7v1.4L116.5,330.5L116.5,330.5z"/>
	<path d="M126.4,330.9h-1.8l-0.9-2.5h-3.8l-0.8,2.5h-1.8l3.7-9.8h1.8L126.4,330.9z M123.3,327.1l-1.4-3.9c0-0.1-0.1-0.3-0.1-0.6l0,0
		c0,0.3-0.1,0.5-0.1,0.6l-1.3,3.9H123.3z"/>
	<path d="M133,322.5h-2.8v8.4h-1.6v-8.4h-2.8v-1.4h7.2L133,322.5L133,322.5z"/>
	<path d="M136.1,330.9h-1.7v-9.8h1.7V330.9z"/>
	<path d="M142.5,331c-1.4,0-2.5-0.5-3.4-1.4c-0.8-0.9-1.3-2.1-1.3-3.6c0-1.6,0.4-2.8,1.3-3.8c0.9-0.9,2-1.4,3.5-1.4
		c1.4,0,2.5,0.5,3.3,1.4s1.3,2.1,1.3,3.6c0,1.6-0.4,2.8-1.3,3.8C145.1,330.6,143.9,331,142.5,331z M142.6,322.4
		c-0.9,0-1.6,0.3-2.2,1c-0.6,0.7-0.8,1.5-0.8,2.6s0.3,2,0.8,2.6c0.5,0.7,1.3,1,2.1,1c0.9,0,1.7-0.3,2.2-0.9s0.8-1.5,0.8-2.6
		c0-1.2-0.3-2.1-0.8-2.7C144.2,322.8,143.5,322.4,142.6,322.4z"/>
	<path d="M157.3,330.9h-1.8l-4.7-7.2c-0.1-0.2-0.2-0.4-0.3-0.6l0,0c0,0.2,0.1,0.7,0.1,1.3v6.4H149V321h1.9l4.5,7
		c0.2,0.3,0.3,0.5,0.4,0.6l0,0c0-0.3-0.1-0.7-0.1-1.3V321h1.6L157.3,330.9L157.3,330.9z"/>
	<path d="M169.8,322.5H167v8.4h-1.6v-8.4h-2.8v-1.4h7.2L169.8,322.5L169.8,322.5z"/>
	<path d="M172.9,330.9h-1.7v-9.8h1.7V330.9z"/>
	<path d="M180.7,330.9h-5.5v-9.8h5.3v1.4h-3.6v2.8h3.4v1.4h-3.4v2.9h3.9L180.7,330.9L180.7,330.9L180.7,330.9z"/>
	<path d="M190,330.9h-1.9l-1.6-2.6c-0.1-0.2-0.3-0.4-0.4-0.6s-0.3-0.3-0.4-0.4c-0.1-0.1-0.3-0.2-0.5-0.2s-0.3-0.1-0.6-0.1h-0.7v4
		h-1.6v-9.8h3.2c0.5,0,0.9,0.1,1.3,0.2c0.4,0.1,0.7,0.3,1,0.5s0.5,0.5,0.7,0.8s0.2,0.7,0.2,1.2c0,0.3-0.1,0.7-0.2,0.9
		c-0.1,0.3-0.2,0.5-0.4,0.8s-0.4,0.4-0.7,0.6s-0.6,0.3-0.9,0.4l0,0c0.2,0.1,0.3,0.2,0.5,0.3c0.1,0.1,0.3,0.2,0.4,0.4
		c0.1,0.2,0.2,0.3,0.3,0.4c0.1,0.2,0.2,0.3,0.4,0.6L190,330.9z M184.1,322.4v3.2h1.3c0.2,0,0.5,0,0.7-0.1s0.4-0.2,0.5-0.3
		c0.2-0.1,0.3-0.3,0.4-0.5c0.1-0.2,0.1-0.4,0.1-0.7c0-0.5-0.1-0.8-0.4-1.1c-0.3-0.3-0.7-0.4-1.3-0.4L184.1,322.4L184.1,322.4z"/>
</g>
<g>
	
		<line style="fill:none;stroke:#DFDFDE;stroke-width:4;stroke-linecap:round;stroke-linejoin:round;stroke-miterlimit:10;" x1="5.9" y1="-10" x2="5.9" y2="324.2"/>
</g>
<g>
	
		<line style="fill:none;stroke:#DFDFDE;stroke-width:4;stroke-linecap:round;stroke-linejoin:round;stroke-miterlimit:10;" x1="6.1" y1="324.2" x2="51.2" y2="324.2"/>
	
		<circle style="fill:none;stroke:#DFDFDE;stroke-width:4;stroke-linecap:round;stroke-linejoin:round;stroke-miterlimit:10;" cx="56.2" cy="324.2" r="5"/>
</g>
<g>
	<path d="M130.5,294.9c-6.1,0-11,4.9-11,11s4.9,11,11,11s11-4.9,11-11S136.6,294.9,130.5,294.9z M133,302.6c-0.4,0.6-0.7,1.3-1,1.9
		s-0.6,1.3-0.8,1.9s-0.5,1.3-0.7,1.9s-0.3,1.3-0.4,2h-1.4c0.1-0.6,0.2-1.2,0.4-1.8s0.4-1.2,0.6-1.8s0.5-1.2,0.8-1.8s0.6-1.2,0.9-1.8
		h-4v-1.2h5.6V302.6z"/>
	<path style="fill:#FFFFFF;" d="M127.4,303.1h4c-0.3,0.6-0.6,1.2-0.9,1.8s-0.6,1.2-0.8,1.8s-0.4,1.2-0.6,1.8s-0.3,1.2-0.4,1.8h1.4
		c0.1-0.7,0.2-1.3,0.4-2s0.4-1.3,0.7-1.9s0.5-1.3,0.8-1.9s0.6-1.3,1-1.9v-0.7h-5.6V303.1z"/>
</g>
</svg>
