<?xml version="1.0" encoding="utf-8"?>
<!-- Generator: Adobe Illustrator 19.2.0, SVG Export Plug-In . SVG Version: 6.00 Build 0)  -->
<svg version="1.1" id="Layer_1" xmlns="http://www.w3.org/2000/svg" xmlns:xlink="http://www.w3.org/1999/xlink" x="0px" y="0px"
	 width="230px" height="250px" viewBox="0 0 230 250" style="enable-background:new 0 0 230 250;" xml:space="preserve">
<g>
	
		<line style="fill:none;stroke:#DFDFDE;stroke-width:4;stroke-linecap:round;stroke-linejoin:round;stroke-miterlimit:10;" x1="114.5" y1="-86.7" x2="115.5" y2="172.2"/>
	
		<circle style="fill:none;stroke:#DFDFDE;stroke-width:4;stroke-linecap:round;stroke-linejoin:round;stroke-miterlimit:10;" cx="115.5" cy="177.7" r="5"/>
</g>
<g>
	<path d="M117.5,210.7c-1,0-1.5,1.1-1.5,3.4c0,2.1,0.5,3.2,1.5,3.2s1.5-1.1,1.5-3.2C119,211.8,118.5,210.7,117.5,210.7z"/>
	<path d="M115.5,203c-6.1,0-11,4.9-11,11s4.9,11,11,11s11-4.9,11-11S121.6,203,115.5,203z M112.9,218.2h-1.4v-6.9
		c-0.2,0.2-0.5,0.3-0.8,0.4c-0.3,0.1-0.6,0.2-1,0.3v-1.2c0.2-0.1,0.4-0.2,0.7-0.2c0.3,0,0.4-0.2,0.6-0.3s0.4-0.2,0.6-0.3
		s0.4-0.3,0.6-0.4h0.6v8.6H112.9z M119.6,217.2c-0.5,0.7-1.3,1.1-2.2,1.1c-0.9,0-1.6-0.4-2-1.1s-0.7-1.7-0.7-3.1
		c0-1.5,0.3-2.6,0.8-3.4s1.3-1.1,2.2-1.1c1.8,0,2.8,1.4,2.8,4.3C120.3,215.4,120.1,216.4,119.6,217.2z"/>
	<path style="fill:#FFFFFF;" d="M111.7,210c-0.2,0.1-0.4,0.2-0.6,0.3s-0.4,0.2-0.6,0.3s-0.4,0.2-0.7,0.2v1.2c0.4-0.1,0.7-0.2,1-0.3
		c0.3-0.1,0.5-0.3,0.8-0.4v6.9h1.4v-8.6h-0.6C112.1,209.7,111.9,209.9,111.7,210z"/>
	<path style="fill:#FFFFFF;" d="M117.6,209.6c-1,0-1.7,0.4-2.2,1.1s-0.8,1.9-0.8,3.4c0,1.4,0.2,2.4,0.7,3.1s1.2,1.1,2,1.1
		c0.9,0,1.7-0.4,2.2-1.1s0.8-1.8,0.8-3.3C120.3,211.1,119.4,209.6,117.6,209.6z M117.5,217.2c-1,0-1.5-1.1-1.5-3.2
		c0-2.2,0.5-3.4,1.5-3.4s1.4,1.1,1.4,3.3C119,216.2,118.5,217.2,117.5,217.2z"/>
</g>
<g>
	<path d="M7.4,241.6c-1.4,0-2.5-0.5-3.4-1.4s-1.3-2.1-1.3-3.6c0-1.6,0.4-2.8,1.3-3.8s2-1.4,3.5-1.4c1.4,0,2.5,0.5,3.3,1.4
		s1.3,2.1,1.3,3.6c0,1.6-0.4,2.9-1.3,3.8S8.9,241.6,7.4,241.6z M7.5,232.9c-0.9,0-1.6,0.3-2.2,1s-0.8,1.6-0.8,2.6
		c0,1.1,0.3,2,0.8,2.6s1.3,1,2.1,1c0.9,0,1.7-0.3,2.2-1s0.8-1.5,0.8-2.7c0-1.2-0.3-2.1-0.8-2.7S8.4,232.9,7.5,232.9z"/>
	<path d="M15.6,237.9v3.6H14v-9.8h3c1.1,0,2,0.3,2.6,0.8s0.9,1.3,0.9,2.2s-0.3,1.7-1,2.3s-1.5,0.9-2.6,0.9H15.6z M15.6,233v3.6h1.1
		c0.7,0,1.2-0.2,1.6-0.5s0.5-0.8,0.5-1.4c0-1.2-0.7-1.7-2-1.7H15.6z"/>
	<path d="M27.6,241.4h-5.5v-9.8h5.3v1.4h-3.7v2.8h3.4v1.4h-3.4v2.9h3.9V241.4z"/>
	<path d="M37,241.4h-1.9l-1.6-2.6c-0.1-0.2-0.3-0.4-0.4-0.6c-0.1-0.2-0.3-0.3-0.4-0.4s-0.3-0.2-0.5-0.2s-0.3-0.1-0.6-0.1H31v4h-1.6
		v-9.8h3.2c0.5,0,0.9,0.1,1.3,0.2s0.7,0.3,1,0.5c0.3,0.2,0.5,0.5,0.7,0.8c0.2,0.3,0.2,0.7,0.2,1.2c0,0.3-0.1,0.7-0.2,1
		c-0.1,0.3-0.2,0.5-0.4,0.8c-0.2,0.2-0.4,0.4-0.7,0.6s-0.6,0.3-0.9,0.4v0c0.2,0.1,0.3,0.2,0.5,0.3c0.1,0.1,0.3,0.2,0.4,0.4
		s0.2,0.3,0.4,0.4c0.1,0.2,0.2,0.3,0.4,0.6L37,241.4z M31,233v3.2h1.4c0.3,0,0.5,0,0.7-0.1s0.4-0.2,0.6-0.3s0.3-0.3,0.4-0.5
		s0.1-0.4,0.1-0.7c0-0.5-0.1-0.8-0.4-1.1s-0.7-0.4-1.3-0.4H31z"/>
	<path d="M46.2,241.4h-1.8l-0.9-2.5h-3.9l-0.8,2.5H37l3.7-9.8h1.8L46.2,241.4z M43.1,237.6l-1.4-3.9c0-0.1-0.1-0.3-0.1-0.6h0
		c0,0.3-0.1,0.5-0.1,0.6l-1.3,3.9H43.1z"/>
	<path d="M52.8,233H50v8.4h-1.6V233h-2.8v-1.4h7.3V233z"/>
	<path d="M55.9,241.4h-1.7v-9.8h1.7V241.4z"/>
	<path d="M62.4,241.6c-1.4,0-2.5-0.5-3.4-1.4s-1.3-2.1-1.3-3.6c0-1.6,0.4-2.8,1.3-3.8s2-1.4,3.5-1.4c1.4,0,2.5,0.5,3.3,1.4
		s1.3,2.1,1.3,3.6c0,1.6-0.4,2.9-1.3,3.8S63.8,241.6,62.4,241.6z M62.4,232.9c-0.9,0-1.6,0.3-2.2,1s-0.8,1.6-0.8,2.6
		c0,1.1,0.3,2,0.8,2.6s1.3,1,2.1,1c0.9,0,1.7-0.3,2.2-1s0.8-1.5,0.8-2.7c0-1.2-0.3-2.1-0.8-2.7S63.4,232.9,62.4,232.9z"/>
	<path d="M77.2,241.4h-1.8l-4.7-7.2c-0.1-0.2-0.2-0.4-0.3-0.6h0c0,0.2,0.1,0.7,0.1,1.3v6.4h-1.6v-9.8h1.9l4.5,7
		c0.2,0.3,0.3,0.5,0.4,0.6h0c0-0.3-0.1-0.7-0.1-1.3v-6.3h1.6V241.4z"/>
	<path d="M87.7,241.4h-1.8l-0.9-2.5h-3.9l-0.8,2.5h-1.8l3.7-9.8H84L87.7,241.4z M84.6,237.6l-1.4-3.9c0-0.1-0.1-0.3-0.1-0.6h0
		c0,0.3-0.1,0.5-0.1,0.6l-1.3,3.9H84.6z"/>
	<path d="M94.5,241.4H89v-9.8h1.6v8.4h3.8V241.4z"/>
	<path d="M110.3,241.4h-1.6v-6.3c0-0.5,0-1.2,0.1-1.9h0c-0.1,0.4-0.2,0.7-0.3,0.9l-2.9,7.3h-1.1l-2.9-7.3c-0.1-0.2-0.2-0.5-0.3-1h0
		c0,0.4,0.1,1,0.1,1.9v6.3h-1.5v-9.8h2.3l2.6,6.5c0.2,0.5,0.3,0.9,0.4,1.1h0c0.2-0.5,0.3-0.9,0.4-1.1l2.6-6.5h2.2V241.4z"/>
	<path d="M120.7,241.4h-1.8l-0.9-2.5h-3.9l-0.8,2.5h-1.8l3.7-9.8h1.8L120.7,241.4z M117.6,237.6l-1.4-3.9c0-0.1-0.1-0.3-0.1-0.6h0
		c0,0.3-0.1,0.5-0.1,0.6l-1.3,3.9H117.6z"/>
	<path d="M130.4,241.4h-1.8l-4.7-7.2c-0.1-0.2-0.2-0.4-0.3-0.6h0c0,0.2,0.1,0.7,0.1,1.3v6.4h-1.6v-9.8h1.9l4.5,7
		c0.2,0.3,0.3,0.5,0.4,0.6h0c0-0.3-0.1-0.7-0.1-1.3v-6.3h1.6V241.4z"/>
	<path d="M140.9,241.4h-1.8l-0.9-2.5h-3.9l-0.8,2.5h-1.8l3.7-9.8h1.8L140.9,241.4z M137.8,237.6l-1.4-3.9c0-0.1-0.1-0.3-0.1-0.6h0
		c0,0.3-0.1,0.5-0.1,0.6l-1.3,3.9H137.8z"/>
	<path d="M149.7,240.8c-1,0.6-2.2,0.8-3.4,0.8c-1.4,0-2.6-0.5-3.5-1.4s-1.3-2.1-1.3-3.6c0-1.5,0.5-2.8,1.5-3.7c1-1,2.2-1.5,3.7-1.5
		c1.1,0,2,0.2,2.7,0.5v1.7c-0.8-0.5-1.6-0.8-2.7-0.8c-1,0-1.9,0.3-2.6,1c-0.7,0.7-1,1.6-1,2.7c0,1.1,0.3,2,0.9,2.7
		c0.6,0.6,1.4,1,2.3,1c0.7,0,1.3-0.1,1.8-0.4v-2.3H146v-1.4h3.7V240.8z"/>
	<path d="M157.3,241.4h-5.5v-9.8h5.3v1.4h-3.7v2.8h3.4v1.4h-3.4v2.9h3.9V241.4z"/>
	<path d="M169.6,241.4H168v-6.3c0-0.5,0-1.2,0.1-1.9h0c-0.1,0.4-0.2,0.7-0.3,0.9l-2.9,7.3h-1.1l-2.9-7.3c-0.1-0.2-0.2-0.5-0.3-1h0
		c0,0.4,0.1,1,0.1,1.9v6.3H159v-9.8h2.3l2.6,6.5c0.2,0.5,0.3,0.9,0.4,1.1h0c0.2-0.5,0.3-0.9,0.4-1.1l2.6-6.5h2.2V241.4z"/>
	<path d="M177.5,241.4H172v-9.8h5.3v1.4h-3.7v2.8h3.4v1.4h-3.4v2.9h3.9V241.4z"/>
	<path d="M187.5,241.4h-1.8l-4.7-7.2c-0.1-0.2-0.2-0.4-0.3-0.6h0c0,0.2,0.1,0.7,0.1,1.3v6.4h-1.6v-9.8h1.9l4.5,7
		c0.2,0.3,0.3,0.5,0.4,0.6h0c0-0.3-0.1-0.7-0.1-1.3v-6.3h1.6V241.4z"/>
	<path d="M196.3,233h-2.8v8.4h-1.6V233H189v-1.4h7.3V233z"/>
	<path d="M207.8,233H205v8.4h-1.6V233h-2.8v-1.4h7.3V233z"/>
	<path d="M210.9,241.4h-1.7v-9.8h1.7V241.4z"/>
	<path d="M218.9,241.4h-5.5v-9.8h5.3v1.4H215v2.8h3.4v1.4H215v2.9h3.9V241.4z"/>
	<path d="M228.2,241.4h-1.9l-1.6-2.6c-0.1-0.2-0.3-0.4-0.4-0.6c-0.1-0.2-0.3-0.3-0.4-0.4c-0.1-0.1-0.3-0.2-0.5-0.2s-0.3-0.1-0.6-0.1
		h-0.7v4h-1.6v-9.8h3.2c0.5,0,0.9,0.1,1.3,0.2s0.7,0.3,1,0.5c0.3,0.2,0.5,0.5,0.7,0.8c0.2,0.3,0.2,0.7,0.2,1.2c0,0.3-0.1,0.7-0.2,1
		c-0.1,0.3-0.2,0.5-0.4,0.8c-0.2,0.2-0.4,0.4-0.7,0.6c-0.3,0.2-0.6,0.3-0.9,0.4v0c0.2,0.1,0.3,0.2,0.5,0.3c0.1,0.1,0.3,0.2,0.4,0.4
		s0.2,0.3,0.4,0.4c0.1,0.2,0.2,0.3,0.4,0.6L228.2,241.4z M222.2,233v3.2h1.4c0.3,0,0.5,0,0.7-0.1c0.2-0.1,0.4-0.2,0.6-0.3
		s0.3-0.3,0.4-0.5s0.1-0.4,0.1-0.7c0-0.5-0.1-0.8-0.4-1.1s-0.7-0.4-1.3-0.4H222.2z"/>
</g>
</svg>
