<svg id="Layer_1" xmlns="http://www.w3.org/2000/svg" width="56" height="475" viewBox="0 0 56 475"><g fill="#FFF"><path d="M30.7 446.7c.1-.4.2-.9.2-1.3 0-2.9-2.3-5.2-5.1-5.2-2.1 0-3.9 1.3-4.7 3.2-.6-.8-1.6-1.3-2.7-1.3-2 0-3.6 1.7-3.6 3.7 0 .3 0 .7.1 1-1.6.6-2.7 2-2.7 3.9 0 2.4 1.9 4.2 4.2 4.2h13c2.4 0 4.2-1.8 4.2-4.2 0-2-1.2-3.5-2.9-4zm-2.9 1.8c-.4 1.5-1.7 2.6-3.3 2.6-.3 0-.6 0-.8-.1-.3-.1-.6-.2-.8-.3l-2.3 2.4c-.2.2-.4.3-.7.3s-.5-.1-.7-.3c-.2-.2-.3-.4-.3-.7s.1-.5.3-.7l2.3-2.4c-.4-.7-.5-1.6-.3-2.4.4-1.5 1.7-2.6 3.3-2.6.3 0 .6 0 .8.1.9.2 1.6.8 2.1 1.5.5.8.7 1.7.4 2.6z"/><path d="M25.1 445.6h-.5c-.9 0-1.8.6-2 1.6-.1.6 0 1.2.3 1.7.1.2.3.4.6.6.2.1.4.3.7.3h.5c.9 0 1.8-.6 2-1.6.1-.6 0-1.1-.3-1.6s-.8-.8-1.3-1z"/></g><g fill="#FFF"><path d="M27.5 454.8v-.4l1.4-.8c-.1-.5-.2-.9-.4-1.3h-1.6c-.1-.2-.3-.5-.4-.7l.8-1.4c-.3-.4-.6-.7-1-1l-.8.5-.3.5-.7 1.1c1 .8 1.7 2.1 1.7 3.5 0 2.4-2 4.4-4.4 4.4s-4.4-2-4.4-4.4c0-2.2 1.6-4 3.7-4.3l.3-1.4-.8-1.4c-.5.1-.9.2-1.3.4v1.6c-.2.1-.5.2-.7.4l-1.4-.8c-.4.3-.7.6-1 1l.8 1.4c-.2.2-.3.5-.4.7H15c-.2.4-.3.9-.4 1.3l1.4.8v.8l-1.4.8c.1.5.2.9.4 1.3h1.6c.1.3.3.5.4.7l-.8 1.4c.3.4.6.7 1 1l1.4-.8c.2.2.5.3.7.4v1.6c.4.2.9.3 1.3.4l.8-1.4h.8l.8 1.4c.5-.1.9-.2 1.3-.4v-1.6c.2-.1.5-.3.7-.4l1.4.8c.3-.3.7-.6 1-1l-.8-1.4c.1-.2.3-.5.4-.7h1.6c.2-.4.3-.9.4-1.3l-1.4-.8c-.1-.2-.1-.3-.1-.5z"/><path d="M13.4 461.5c-.5 0-1-.4-1-1s.4-1 1-1c.5 0 1 .4 1 1s-.4 1-1 1zm1.9-3.3l-.8.4-.5-.2-.3-.8H13v.1l-.2.7-.5.2-.8-.4-.5.5v.1l.4.7-.2.5-.8.3v.7h.1l.7.2.2.5-.4.8.5.5h.1l.7-.4.5.2.3.8h.7v-.1l.2-.7.5-.2.8.4.5-.5v-.1l-.3-.7.2-.5.8-.3v-.7h-.1l-.7-.2-.2-.5.3-.7c-.1-.1-.1-.2-.2-.3l-.3-.3zM15.6 458.4c.1.1.1.2.2.3v-.1l-.2-.2zM22.7 446.8l-.3.8-.5 1.5-.2.7-.2.6-1.3 4.2c0 .1 0 .2.1.2h1.3v.1l-1.3 3.1c0 .1 0 .1 0 0l4-4.5c.1-.1 0-.1-.1-.1h-1.5c-.1 0-.1-.1-.1-.1l1.2-2.2.3-.5.3-.6.7-1.3.4-.8c-.6-.6-1.6-1-2.8-1.1z"/></g><path d="M54.2 447.1c-4.5-9.9-16.2-14.2-26.1-9.7-3.1 1.4-5.7 3.6-7.6 6.2l-.1.2c-.1.2-.2.3-.3.5L1.2 471.5l33 3.4h.5l.8.1c3 .1 6.1-.4 9.1-1.8 9.8-4.5 14.1-16.2 9.6-26.1z"/><g fill="#FFF"><path d="M27.2 453.8h20L42 449v2.4H27.6v-1.9c0-.9.4-1.7 1.4-1.7h14.8c.9 0 1.8.8 1.8 1.7v.9l1.8 1.5v-2.4c0-1.9-1.7-3.5-3.6-3.5H29c-1.9 0-3.2 1.6-3.2 3.5v4.3h1.4zM45.3 455H25.4l5.1 4.7v-2.9h15v2.4c0 .9-.9 1.8-1.8 1.8H28.9c-.9 0-1.4-.9-1.4-1.8v-.9l-1.8-1.5v2.4c0 1.9 1.3 3 3.2 3h3.3l7.3 5.2-.6-5.2h4.8c1.9 0 3.6-1.1 3.6-3V455h-2z"/></g><g fill="none" stroke="#dfdfde" stroke-width="4" stroke-linecap="round" stroke-linejoin="round" stroke-miterlimit="10"><path d="M47.8-10l1 419.9"/><circle cx="48.8" cy="415.4" r="5"/></g></svg>