<?xml version="1.0" encoding="utf-8"?>
<!-- Generator: Adobe Illustrator 19.2.0, SVG Export Plug-In . SVG Version: 6.00 Build 0)  -->
<svg version="1.1" id="Layer_1" xmlns="http://www.w3.org/2000/svg" xmlns:xlink="http://www.w3.org/1999/xlink" x="0px" y="0px"
	 width="393px" height="622px" viewBox="0 0 393 622" style="enable-background:new 0 0 393 622;" xml:space="preserve">
<g id="Layer_1_1_">
	<g>
		<g>
			<path d="M31.6,601.1h-1.8l-0.9-2.5h-3.8l-0.8,2.5h-1.8l3.7-9.8H28L31.6,601.1z M28.5,597.4l-1.4-3.9c0-0.1-0.1-0.3-0.1-0.6l0,0
				c0,0.3-0.1,0.5-0.1,0.6l-1.3,3.9H28.5z"/>
			<path d="M39.8,592.1l-5.3,7.7h5.3v1.4h-7.5v-0.7l5.4-7.6h-5v-1.4h7.2L39.8,592.1L39.8,592.1z"/>
			<path d="M48.9,597.1c0,2.7-1.3,4.1-3.9,4.1c-2.5,0-3.7-1.3-3.7-4v-6h1.6v5.6c0,1.9,0.7,2.9,2.2,2.9c1.4,0,2.1-0.9,2.1-2.8v-5.7
				h1.6L48.9,597.1L48.9,597.1z"/>
			<path d="M58.7,601.1h-1.9l-1.6-2.6c-0.1-0.2-0.3-0.4-0.4-0.6c-0.1-0.2-0.3-0.3-0.4-0.4c-0.1-0.1-0.3-0.2-0.5-0.2
				s-0.3-0.1-0.6-0.1h-0.7v4H51v-9.8h3.2c0.5,0,0.9,0.1,1.3,0.2c0.4,0.1,0.7,0.3,1,0.5s0.5,0.5,0.7,0.8s0.2,0.7,0.2,1.2
				c0,0.3-0.1,0.7-0.2,0.9c-0.1,0.3-0.2,0.5-0.4,0.8c-0.2,0.2-0.4,0.4-0.7,0.6s-0.6,0.3-0.9,0.4l0,0c0.2,0.1,0.3,0.2,0.5,0.3
				c0.1,0.1,0.3,0.2,0.4,0.4c0.1,0.1,0.2,0.3,0.3,0.4c0.1,0.2,0.2,0.3,0.4,0.6L58.7,601.1z M52.8,592.6v3.2h1.3c0.2,0,0.5,0,0.7-0.1
				c0.2-0.1,0.4-0.2,0.5-0.3c0.2-0.1,0.3-0.3,0.4-0.5c0.1-0.2,0.1-0.4,0.1-0.7c0-0.5-0.1-0.8-0.4-1.1c-0.3-0.3-0.7-0.4-1.3-0.4
				L52.8,592.6L52.8,592.6z"/>
			<path d="M65.3,601.1h-5.5v-9.8h5.3v1.4h-3.6v2.8h3.4v1.4h-3.4v2.9h3.9L65.3,601.1L65.3,601.1L65.3,601.1z"/>
			<path d="M76.3,601.1h-5.4v-9.8h1.6v8.4h3.8V601.1L76.3,601.1z"/>
			<path d="M81.3,601.4c-1.4,0-2.5-0.5-3.4-1.4c-0.8-0.9-1.3-2.1-1.3-3.6c0-1.6,0.4-2.8,1.3-3.8c0.9-0.9,2-1.4,3.5-1.4
				c1.4,0,2.5,0.5,3.3,1.4c0.8,0.9,1.3,2.1,1.3,3.6c0,1.6-0.4,2.8-1.3,3.8C83.8,600.9,82.7,601.4,81.3,601.4z M81.3,592.6
				c-0.9,0-1.6,0.3-2.2,1s-0.8,1.5-0.8,2.6c0,1.1,0.3,2,0.8,2.6c0.5,0.7,1.3,1,2.1,1c0.9,0,1.7-0.3,2.2-0.9c0.5-0.6,0.8-1.5,0.8-2.6
				c0-1.2-0.3-2.1-0.8-2.7C82.9,593,82.3,592.6,81.3,592.6z"/>
			<path d="M95.6,601.1h-1.8l-0.9-2.5h-3.8l-0.8,2.5h-1.8l3.7-9.8H92L95.6,601.1z M92.5,597.4l-1.4-3.9c0-0.1-0.1-0.3-0.1-0.6l0,0
				c0,0.3-0.1,0.5-0.1,0.6l-1.3,3.9H92.5z"/>
			<path d="M96.9,601.1v-9.8h2.8c3.6,0,5.4,1.6,5.4,4.8c0,1.5-0.5,2.7-1.5,3.6c-1,0.9-2.3,1.4-4,1.4H96.9z M98.5,592.6v7h1.3
				c1.1,0,2-0.3,2.7-0.9c0.6-0.6,0.9-1.5,0.9-2.7c0-2.3-1.2-3.4-3.5-3.4H98.5z"/>
			<path d="M30.5,617.9V608h3.1c0.9,0,1.7,0.2,2.2,0.6c0.6,0.4,0.8,0.9,0.8,1.6c0,0.6-0.2,1-0.5,1.4c-0.3,0.4-0.7,0.7-1.3,0.9l0,0
				c0.7,0.1,1.2,0.3,1.6,0.7s0.6,1,0.6,1.6c0,0.8-0.3,1.5-1,2s-1.5,0.8-2.5,0.8h-3L30.5,617.9L30.5,617.9z M32.1,609.5v2.8h1
				c0.6,0,1-0.1,1.3-0.4s0.5-0.6,0.5-1.1c0-0.8-0.6-1.3-1.7-1.3H32.1z M32.1,613.5v3.1h1.4c0.6,0,1.1-0.1,1.4-0.4
				c0.3-0.3,0.5-0.7,0.5-1.2c0-1-0.7-1.5-2.1-1.5H32.1L32.1,613.5z"/>
			<path d="M46.9,617.9h-1.8l-0.9-2.5h-3.8l-0.8,2.5h-1.8l3.7-9.8h1.8L46.9,617.9z M43.8,614l-1.4-3.9c0-0.1-0.1-0.3-0.1-0.6l0,0
				c0,0.3-0.1,0.5-0.1,0.6l-1.3,3.9H43.8z"/>
			<path d="M53.6,617.9h-5.4V608h1.6v8.4h3.8L53.6,617.9L53.6,617.9z"/>
			<path d="M63.4,617.9h-1.8l-0.9-2.5h-3.8l-0.8,2.5h-1.8L58,608h1.8L63.4,617.9z M60.3,614l-1.4-3.9c0-0.1-0.1-0.3-0.1-0.6l0,0
				c0,0.3-0.1,0.5-0.1,0.6l-1.3,3.9H60.3z"/>
			<path d="M73,617.9h-1.8l-4.7-7.2c-0.1-0.2-0.2-0.4-0.3-0.6l0,0c0,0.2,0.1,0.7,0.1,1.3v6.4h-1.6V608h1.9l4.5,7
				c0.2,0.3,0.3,0.5,0.4,0.6l0,0c0-0.3-0.1-0.7-0.1-1.3V608H73V617.9L73,617.9z"/>
			<path d="M82.2,617.5c-0.7,0.4-1.6,0.6-2.7,0.6c-1.4,0-2.5-0.4-3.4-1.3c-0.9-0.9-1.3-2.1-1.3-3.5c0-1.6,0.5-2.8,1.4-3.8
				s2.2-1.4,3.6-1.4c0.9,0,1.7,0.1,2.3,0.4v1.6c-0.7-0.4-1.4-0.6-2.2-0.6c-1.1,0-1.9,0.3-2.6,1s-1,1.6-1,2.7c0,1.1,0.3,1.9,0.9,2.6
				c0.6,0.6,1.4,1,2.4,1c0.9,0,1.7-0.2,2.4-0.7v1.4L82.2,617.5L82.2,617.5z"/>
			<path d="M89.6,617.9h-5.5V608h5.3v1.4h-3.7v2.8h3.4v1.4h-3.4v2.9h3.9C89.6,616.5,89.6,617.9,89.6,617.9z"/>
			<path d="M98.8,617.9h-1.9l-1.6-2.6c-0.1-0.2-0.3-0.4-0.4-0.6s-0.3-0.3-0.4-0.4c-0.1-0.1-0.3-0.2-0.5-0.2s-0.3-0.1-0.6-0.1h-0.7v4
				h-1.6v-9.8h3.2c0.5,0,0.9,0.1,1.3,0.2c0.4,0.1,0.7,0.3,1,0.5s0.5,0.5,0.7,0.8s0.2,0.7,0.2,1.2c0,0.3-0.1,0.7-0.2,0.9
				c-0.1,0.3-0.2,0.5-0.4,0.8c-0.2,0.2-0.4,0.4-0.7,0.6s-0.6,0.3-0.9,0.4l0,0c0.2,0.1,0.3,0.2,0.5,0.3c0.1,0.1,0.3,0.2,0.4,0.4
				c0.1,0.1,0.2,0.3,0.3,0.4c0.1,0.2,0.2,0.3,0.4,0.6L98.8,617.9z M92.9,609.5v3.2h1.3c0.2,0,0.5,0,0.7-0.1c0.2-0.1,0.4-0.2,0.5-0.3
				c0.2-0.1,0.3-0.3,0.4-0.5s0.1-0.4,0.1-0.7c0-0.5-0.1-0.8-0.4-1.1c-0.3-0.3-0.7-0.4-1.3-0.4L92.9,609.5L92.9,609.5z"/>
		</g>
		<path d="M88.8,578.5l-4.5-28.4c-0.1-1.2-1.1-1.3-1.4-1.3H45.4c-0.3,0-1.3,0.1-1.4,1.3l-5,28.4l0,0c0,0,0,0,0,0.1v0.2l0,0
			c0,0.2,0,0.3,0,0.5c0,2.1,1.7,2.6,2.1,2.6l0,0h45.6c0.4,0,2.1-0.5,2.1-2.6C88.8,579,88.8,578.6,88.8,578.5L88.8,578.5z
			 M73.9,571.1h-5.5c-0.4,0-0.8-0.4-0.8-0.8c0-0.4,0.4-0.8,0.8-0.8H71l-6.2-6.2v12.4l1.9-1.9c0.3-0.3,0.8-0.3,1.1,0
			c0.3,0.3,0.3,0.8,0,1.1l-3.9,3.9L60,575c-0.2-0.2-0.2-0.4-0.2-0.6s0.1-0.4,0.2-0.6c0.3-0.3,0.8-0.3,1.1,0l2,2v-12.4l-6.2,6.2h2.8
			c0.4,0,0.8,0.4,0.8,0.8c0,0.4-0.4,0.8-0.8,0.8h-5.5v-5.5c0-0.4,0.4-0.8,0.8-0.8s0.8,0.4,0.8,0.8v2.8l7.3-7.3v-3.9
			c-1-0.3-1.7-1.3-1.7-2.4c0-1.4,1.1-2.5,2.5-2.5s2.5,1.1,2.5,2.5c0,1.1-0.7,2.1-1.7,2.4v3.9l7.5,7.5v-3c0-0.4,0.4-0.8,0.8-0.8
			s0.8,0.4,0.8,0.8L73.9,571.1L73.9,571.1L73.9,571.1L73.9,571.1z"/>
	</g>
</g>
<g id="Layer_2">
</g>
<g>
	
		<line style="fill:none;stroke:#DEDEDE;stroke-width:4;stroke-linecap:round;stroke-linejoin:round;stroke-miterlimit:10;" x1="264.1" y1="0" x2="264.1" y2="569.1"/>
</g>
<g>
	
		<circle style="fill:none;stroke:#DEDEDE;stroke-width:4;stroke-linecap:round;stroke-linejoin:round;stroke-miterlimit:10;" cx="121.8" cy="569.4" r="5"/>
</g>
<line style="fill:none;stroke:#DEDEDE;stroke-width:4;stroke-linecap:round;stroke-linejoin:round;stroke-miterlimit:10;" x1="264.1" y1="569.1" x2="127.3" y2="569.4"/>
</svg>
