<svg id="Layer_1" xmlns="http://www.w3.org/2000/svg" width="55" height="325" viewBox="0 0 55 325"><path d="M21.6 316l2.1.6 31.3 8.1-8.4-32.3c-.8-3.3-2.6-6.4-5.1-9-7.7-7.7-20.1-7.7-27.8 0-7.7 7.7-7.7 20.1 0 27.8 2.2 2.2 4.9 3.8 7.7 4.7l.2.1z"/><g fill="#FFF"><path d="M28.2 300.9h-2.4v4.9h-2l3.2 4.3 3.2-4.3h-2zM24.1 293.6h5.7v1.7h-5.7zM24.1 296.1h5.7v1.6h-5.7zM24.1 298.5h5.7v1.6h-5.7z"/><path d="M27.5 287.2h-6.7c-.2 0-.7 0-.7.8l-.1 12.7h2.4v-11.1h3.2v3.2H28v-5c.2-.6-.3-.6-.5-.6z"/><path d="M22.5 298.4h-2.4v5.7c0 .2.7.8.9.8h4v-2.4h-2.4l-.1-4.1zM35.6 297.7h-.7c-.4-4.9-2.7-7.2-6-7.9v2.3c2.4.8 3.3 3.2 3.4 6.3l-.1 1.6 3.2-.1c.9 0 1.5.2 1.5 1.1v1.4H29v2.4h9.6c.2 0 .9-.7.9-.8v-3c-.1-2-1.8-3.3-3.9-3.3z"/></g><g fill="none" stroke="#dfdfde" stroke-width="4" stroke-linecap="round" stroke-linejoin="round" stroke-miterlimit="10"><path d="M16.9 0l1 258.9"/><circle cx="17.9" cy="264.4" r="5"/></g></svg>