<svg id="Layer_1" xmlns="http://www.w3.org/2000/svg" width="230" height="250" viewBox="0 0 230 250"><g fill="none" stroke="#dfdfde" stroke-width="4" stroke-linecap="round" stroke-linejoin="round" stroke-miterlimit="10"><path d="M114.5-86.7l1 258.9"/><circle cx="115.5" cy="177.7" r="5"/></g><path d="M117.5 210.7c-1 0-1.5 1.1-1.5 3.4 0 2.1.5 3.2 1.5 3.2s1.5-1.1 1.5-3.2c0-2.3-.5-3.4-1.5-3.4z"/><path d="M115.5 203c-6.1 0-11 4.9-11 11s4.9 11 11 11 11-4.9 11-11-4.9-11-11-11zm-2.6 15.2h-1.4v-6.9c-.2.2-.5.3-.8.4-.3.1-.6.2-1 .3v-1.2c.2-.1.4-.2.7-.2.3 0 .4-.2.6-.3l.6-.3c.2-.1.4-.3.6-.4h.6v8.6h.1zm6.7-1c-.5.7-1.3 1.1-2.2 1.1-.9 0-1.6-.4-2-1.1s-.7-1.7-.7-3.1c0-1.5.3-2.6.8-3.4s1.3-1.1 2.2-1.1c1.8 0 2.8 1.4 2.8 4.3-.2 1.5-.4 2.5-.9 3.3z"/><path d="M111.7 210l-.6.3-.6.3c-.2.1-.4.2-.7.2v1.2c.4-.1.7-.2 1-.3.3-.1.5-.3.8-.4v6.9h1.4v-8.6h-.6c-.3.1-.5.3-.7.4zM117.6 209.6c-1 0-1.7.4-2.2 1.1s-.8 1.9-.8 3.4c0 1.4.2 2.4.7 3.1s1.2 1.1 2 1.1c.9 0 1.7-.4 2.2-1.1s.8-1.8.8-3.3c0-2.8-.9-4.3-2.7-4.3zm-.1 7.6c-1 0-1.5-1.1-1.5-3.2 0-2.2.5-3.4 1.5-3.4s1.4 1.1 1.4 3.3c.1 2.3-.4 3.3-1.4 3.3z" fill="#FFF"/><g><path d="M7.4 241.6c-1.4 0-2.5-.5-3.4-1.4s-1.3-2.1-1.3-3.6c0-1.6.4-2.8 1.3-3.8s2-1.4 3.5-1.4c1.4 0 2.5.5 3.3 1.4s1.3 2.1 1.3 3.6c0 1.6-.4 2.9-1.3 3.8s-1.9 1.4-3.4 1.4zm.1-8.7c-.9 0-1.6.3-2.2 1s-.8 1.6-.8 2.6c0 1.1.3 2 .8 2.6s1.3 1 2.1 1c.9 0 1.7-.3 2.2-1s.8-1.5.8-2.7c0-1.2-.3-2.1-.8-2.7s-1.2-.8-2.1-.8zM15.6 237.9v3.6H14v-9.8h3c1.1 0 2 .3 2.6.8s.9 1.3.9 2.2-.3 1.7-1 2.3-1.5.9-2.6.9h-1.3zm0-4.9v3.6h1.1c.7 0 1.2-.2 1.6-.5s.5-.8.5-1.4c0-1.2-.7-1.7-2-1.7h-1.2zM27.6 241.4h-5.5v-9.8h5.3v1.4h-3.7v2.8h3.4v1.4h-3.4v2.9h3.9v1.3zM37 241.4h-1.9l-1.6-2.6c-.1-.2-.3-.4-.4-.6-.1-.2-.3-.3-.4-.4s-.3-.2-.5-.2-.3-.1-.6-.1H31v4h-1.6v-9.8h3.2c.5 0 .9.1 1.3.2s.7.3 1 .5c.3.2.5.5.7.8.2.3.2.7.2 1.2 0 .3-.1.7-.2 1-.1.3-.2.5-.4.8-.2.2-.4.4-.7.6s-.6.3-.9.4c.2.1.3.2.5.3.1.1.3.2.4.4s.2.3.4.4c.1.2.2.3.4.6l1.7 2.5zm-6-8.4v3.2h1.4c.3 0 .5 0 .7-.1l.6-.3c.2-.1.3-.3.4-.5s.1-.4.1-.7c0-.5-.1-.8-.4-1.1s-.7-.4-1.3-.4H31zM46.2 241.4h-1.8l-.9-2.5h-3.9l-.8 2.5H37l3.7-9.8h1.8l3.7 9.8zm-3.1-3.8l-1.4-3.9c0-.1-.1-.3-.1-.6 0 .3-.1.5-.1.6l-1.3 3.9h2.9zM52.8 233H50v8.4h-1.6V233h-2.8v-1.4h7.3v1.4zM55.9 241.4h-1.7v-9.8h1.7v9.8zM62.4 241.6c-1.4 0-2.5-.5-3.4-1.4s-1.3-2.1-1.3-3.6c0-1.6.4-2.8 1.3-3.8s2-1.4 3.5-1.4c1.4 0 2.5.5 3.3 1.4s1.3 2.1 1.3 3.6c0 1.6-.4 2.9-1.3 3.8s-2 1.4-3.4 1.4zm0-8.7c-.9 0-1.6.3-2.2 1s-.8 1.6-.8 2.6c0 1.1.3 2 .8 2.6s1.3 1 2.1 1c.9 0 1.7-.3 2.2-1s.8-1.5.8-2.7c0-1.2-.3-2.1-.8-2.7s-1.1-.8-2.1-.8zM77.2 241.4h-1.8l-4.7-7.2-.3-.6c0 .2.1.7.1 1.3v6.4h-1.6v-9.8h1.9l4.5 7c.2.3.3.5.4.6 0-.3-.1-.7-.1-1.3v-6.3h1.6v9.9zM87.7 241.4h-1.8l-.9-2.5h-3.9l-.8 2.5h-1.8l3.7-9.8H84l3.7 9.8zm-3.1-3.8l-1.4-3.9c0-.1-.1-.3-.1-.6 0 .3-.1.5-.1.6l-1.3 3.9h2.9zM94.5 241.4H89v-9.8h1.6v8.4h3.8v1.4zM110.3 241.4h-1.6v-6.3c0-.5 0-1.2.1-1.9-.1.4-.2.7-.3.9l-2.9 7.3h-1.1l-2.9-7.3c-.1-.2-.2-.5-.3-1 0 .4.1 1 .1 1.9v6.3h-1.5v-9.8h2.3l2.6 6.5c.2.5.3.9.4 1.1.2-.5.3-.9.4-1.1l2.6-6.5h2.2v9.9zM120.7 241.4h-1.8l-.9-2.5h-3.9l-.8 2.5h-1.8l3.7-9.8h1.8l3.7 9.8zm-3.1-3.8l-1.4-3.9c0-.1-.1-.3-.1-.6 0 .3-.1.5-.1.6l-1.3 3.9h2.9zM130.4 241.4h-1.8l-4.7-7.2-.3-.6c0 .2.1.7.1 1.3v6.4h-1.6v-9.8h1.9l4.5 7c.2.3.3.5.4.6 0-.3-.1-.7-.1-1.3v-6.3h1.6v9.9zM140.9 241.4h-1.8l-.9-2.5h-3.9l-.8 2.5h-1.8l3.7-9.8h1.8l3.7 9.8zm-3.1-3.8l-1.4-3.9c0-.1-.1-.3-.1-.6 0 .3-.1.5-.1.6l-1.3 3.9h2.9zM149.7 240.8c-1 .6-2.2.8-3.4.8-1.4 0-2.6-.5-3.5-1.4s-1.3-2.1-1.3-3.6.5-2.8 1.5-3.7c1-1 2.2-1.5 3.7-1.5 1.1 0 2 .2 2.7.5v1.7c-.8-.5-1.6-.8-2.7-.8-1 0-1.9.3-2.6 1-.7.7-1 1.6-1 2.7s.3 2 .9 2.7c.6.6 1.4 1 2.3 1 .7 0 1.3-.1 1.8-.4v-2.3H146v-1.4h3.7v4.7zM157.3 241.4h-5.5v-9.8h5.3v1.4h-3.7v2.8h3.4v1.4h-3.4v2.9h3.9v1.3zM169.6 241.4H168v-6.3c0-.5 0-1.2.1-1.9-.1.4-.2.7-.3.9l-2.9 7.3h-1.1l-2.9-7.3c-.1-.2-.2-.5-.3-1 0 .4.1 1 .1 1.9v6.3H159v-9.8h2.3l2.6 6.5c.2.5.3.9.4 1.1.2-.5.3-.9.4-1.1l2.6-6.5h2.2v9.9zM177.5 241.4H172v-9.8h5.3v1.4h-3.7v2.8h3.4v1.4h-3.4v2.9h3.9v1.3zM187.5 241.4h-1.8l-4.7-7.2-.3-.6c0 .2.1.7.1 1.3v6.4h-1.6v-9.8h1.9l4.5 7c.2.3.3.5.4.6 0-.3-.1-.7-.1-1.3v-6.3h1.6v9.9zM196.3 233h-2.8v8.4h-1.6V233H189v-1.4h7.3v1.4zM207.8 233H205v8.4h-1.6V233h-2.8v-1.4h7.3v1.4zM210.9 241.4h-1.7v-9.8h1.7v9.8zM218.9 241.4h-5.5v-9.8h5.3v1.4H215v2.8h3.4v1.4H215v2.9h3.9v1.3zM228.2 241.4h-1.9l-1.6-2.6c-.1-.2-.3-.4-.4-.6-.1-.2-.3-.3-.4-.4-.1-.1-.3-.2-.5-.2s-.3-.1-.6-.1h-.7v4h-1.6v-9.8h3.2c.5 0 .9.1 1.3.2s.7.3 1 .5c.3.2.5.5.7.8.2.3.2.7.2 1.2 0 .3-.1.7-.2 1-.1.3-.2.5-.4.8-.2.2-.4.4-.7.6-.3.2-.6.3-.9.4.2.1.3.2.5.3.1.1.3.2.4.4s.2.3.4.4c.1.2.2.3.4.6l1.8 2.5zm-6-8.4v3.2h1.4c.3 0 .5 0 .7-.1l.6-.3c.2-.1.3-.3.4-.5s.1-.4.1-.7c0-.5-.1-.8-.4-1.1s-.7-.4-1.3-.4h-1.5z"/></g></svg>