<?xml version="1.0" encoding="utf-8"?>
<!-- Generator: Adobe Illustrator 19.2.0, SVG Export Plug-In . SVG Version: 6.00 Build 0)  -->
<svg version="1.1" id="Layer_1" xmlns="http://www.w3.org/2000/svg" xmlns:xlink="http://www.w3.org/1999/xlink" x="0px" y="0px"
	 width="217px" height="475px" viewBox="0 0 217 475" style="enable-background:new 0 0 217 475;" xml:space="preserve">
<g>
	<g>
		<path style="fill:#FFFFFF;stroke:#000000;stroke-width:3;stroke-linecap:round;stroke-linejoin:round;" d="M196.9,275.1
			c-5.3,32.8-36.1,55.1-68.9,49.9s-55.2-36.2-49.9-69c1.3-8.4,4.4-16.1,8.7-22.8c7.5-11.7,18.8-20.4,31.9-24.8
			c8.9-2.9,18.5-3.8,28.4-2.3C179.8,211.4,202.1,242.3,196.9,275.1z"/>
		<path style="fill:#FFFFFF;stroke:#000000;stroke-width:3;stroke-linecap:round;stroke-linejoin:round;" d="M186.1,273.3
			c-4.3,26.9-29.6,45.1-56.4,40.8c-26.9-4.3-45.1-29.6-40.8-56.4c1.1-6.9,3.6-13.2,7.1-18.7c6.1-9.6,15.4-16.7,26.1-20.3
			c7.3-2.4,15.2-3.1,23.2-1.8C172.1,221.2,190.4,246.5,186.1,273.3z"/>
	</g>
	<g>
		<g>
			<path d="M128.6,283.2c0-0.3,0-0.5,0-0.8l2.7-1.5c-0.1-0.9-0.4-1.8-0.7-2.6l-3.1,0.1c-0.2-0.5-0.5-1-0.8-1.4l1.6-2.7
				c-0.6-0.7-1.2-1.3-1.9-1.9l-1.6,0.9l-0.7,1l-1.4,2.1c2,1.6,3.3,4.1,3.3,6.8c0,4.8-3.9,8.6-8.6,8.6c-4.8,0-8.6-3.9-8.6-8.6
				c0-4.3,3.1-7.8,7.2-8.5l0.7-2.7l-1.5-2.7c-0.9,0.1-1.8,0.4-2.6,0.7v3.1c-0.5,0.2-1,0.5-1.4,0.8l-2.7-1.6
				c-0.7,0.6-1.3,1.2-1.9,1.9l1.6,2.7c-0.3,0.4-0.5,0.9-0.8,1.4l-3.1-0.1c-0.3,0.8-0.5,1.7-0.7,2.6l2.7,1.5c0,0.3,0,0.5,0,0.8
				s0,0.5,0,0.8l-2.7,1.5c0.2,0.9,0.4,1.8,0.7,2.6l3.1-0.1c0.2,0.5,0.5,1,0.8,1.4l-1.6,2.7c0.6,0.7,1.2,1.3,1.9,1.9l2.7-1.6
				c0.4,0.3,0.9,0.6,1.4,0.8v3.1c0.8,0.3,1.7,0.5,2.6,0.7l1.5-2.7c0.3,0,0.5,0,0.8,0s0.5,0,0.8,0l1.5,2.7c0.9-0.1,1.8-0.4,2.6-0.7
				v-3.1c0.5-0.2,1-0.5,1.4-0.8l2.7,1.6c0.7-0.6,1.3-1.2,1.9-1.9l-1.6-2.7c0.3-0.4,0.6-0.9,0.8-1.4l3.1,0.1c0.3-0.8,0.5-1.7,0.7-2.6
				l-2.7-1.5C128.6,283.7,128.6,283.4,128.6,283.2z"/>
			<path d="M114.6,283.1h2.4c0.1,0,0.1,0,0.2,0.1s0.1,0.1,0,0.2l-2.5,6c-0.1,0.2,0,0.2,0.1,0.1l7.9-8.9c0.1-0.1,0.1-0.2-0.1-0.2H120
				h-0.5c-0.2,0-0.3-0.1-0.2-0.3l2.4-4.4l2.7-4.8l0.8-1.5c-1.8-1.1-3.9-1.8-6.1-2l-0.5,1.6l-1.7,5.4l-2.6,8.3
				C114.3,283,114.4,283.1,114.6,283.1z"/>
		</g>
		<g>
			<polygon points="154.2,288 148.5,275.9 145.3,282.3 142,278.8 140.6,281.6 138.6,281.6 138.6,280.1 139.7,280.1 141.6,276.2 
				144.9,279.7 148.6,272.5 154.5,285 161.3,275.1 163.9,283.1 164.8,283.1 164.8,284.6 162.8,284.6 160.8,278.5 			"/>
			<path d="M165.9,270.9v18.7h-28.4v-18.7H165.9L165.9,270.9L165.9,270.9z M167.8,267.9h-32.2c-0.6,0-1.1,0.5-1.1,1.1v22.4
				c0,0.6,0.5,1.1,1.1,1.1h32.2c0.6,0,1.1-0.5,1.1-1.1V269C168.9,268.4,168.4,267.9,167.8,267.9L167.8,267.9z"/>
		</g>
		<path d="M167.6,247.4h-1.4v-2.5c0-5.4-3.4-8.1-7.4-8.1h-0.7c-4.1,0-7.4,2.7-7.4,8.1v2.5h-1.4c-0.6,0-1.4,0.8-1.4,1.4v13.6
			c0,0.6,0.8,1.4,1.4,1.4h18.2c0.6,0,1.4-0.8,1.4-1.4v-13.6C168.9,248.2,168.1,247.4,167.6,247.4L167.6,247.4z M159.5,255.5v5.6h-2
			v-5.6c-0.8-0.4-1.4-1.2-1.4-2.1c0-1.3,1.1-2.4,2.4-2.4s2.4,1.1,2.4,2.4C160.8,254.2,160.3,255,159.5,255.5L159.5,255.5z
			 M163.7,247.4h-10.4v-2.5c0-3.4,1.8-5.7,4.8-5.7h0.7c3.1,0,4.8,2.3,4.8,5.7L163.7,247.4L163.7,247.4L163.7,247.4z"/>
		<polygon points="130.2,234.8 130.2,235.5 132.4,235.5 132.4,234.8 132.4,233.4 130.2,233.4 		"/>
		<path d="M141.9,234.8h-1.4v24.8h-18.3v-24.8h-1.4c-1.2,0-2.2,1-2.2,2.2v24.8c0,1.2,1,2.2,2.2,2.2h21.1c1.2,0,2.2-1,2.2-2.2V237
			C144.1,235.8,143.1,234.8,141.9,234.8z"/>
		<path d="M139,235.6c0-0.3-0.1-0.5-0.1-0.8c-0.3-0.8-1.1-1.4-2-1.4h-2.6v-0.9c0-1.2-1-2.1-2.1-2.1h-1.7c-1.2,0-2.1,1-2.1,2.1v0.9
			h-2.6c-0.9,0-1.7,0.6-2,1.4c-0.1,0.2-0.1,0.5-0.1,0.8v2.1H139V235.6z M132.4,234.8v0.7h-2.2v-0.7v-1.5h2.2V234.8z"/>
		<path d="M129.4,257.4l9.6-12.3c0.2-0.2,0.1-0.5-0.1-0.6l-1.6-1.3c-0.2-0.2-0.5-0.1-0.6,0.1l-7.2,9.6l-3.7-4
			c-0.2-0.2-0.4-0.2-0.6-0.1l-1.6,1.4c-0.2,0.2-0.2,0.4,0,0.6L129.4,257.4z"/>
	</g>
</g>
<g>
	<path d="M89.8,360.6c-1.4,0-2.5-0.5-3.4-1.4c-0.8-0.9-1.3-2.1-1.3-3.6c0-1.6,0.4-2.8,1.3-3.8s2-1.4,3.5-1.4c1.4,0,2.5,0.5,3.3,1.4
		s1.3,2.1,1.3,3.6c0,1.6-0.4,2.9-1.3,3.8S91.3,360.6,89.8,360.6z M89.9,351.9c-0.9,0-1.6,0.3-2.2,1s-0.8,1.6-0.8,2.6
		c0,1.1,0.3,2,0.8,2.6s1.3,1,2.1,1c0.9,0,1.7-0.3,2.2-1s0.8-1.5,0.8-2.7s-0.3-2.1-0.8-2.7C91.6,352.2,90.8,351.9,89.9,351.9z"/>
	<path d="M106.9,360.4h-1.6v-6.3c0-0.5,0-1.2,0.1-1.9l0,0c-0.1,0.4-0.2,0.7-0.3,0.9l-2.9,7.3H101l-2.9-7.3c-0.1-0.2-0.2-0.5-0.3-1
		l0,0c0,0.4,0.1,1,0.1,1.9v6.3h-1.5v-9.8h2.3l2.6,6.5c0.2,0.5,0.3,0.9,0.4,1.1l0,0c0.2-0.5,0.3-0.9,0.4-1.1l2.6-6.5h2.2
		C106.9,350.5,106.9,360.4,106.9,360.4z"/>
	<path d="M108.9,360v-1.7c0.2,0.1,0.3,0.3,0.5,0.4s0.4,0.2,0.7,0.3c0.2,0.1,0.5,0.1,0.7,0.2s0.4,0.1,0.6,0.1c0.7,0,1.2-0.1,1.5-0.3
		c0.3-0.2,0.5-0.6,0.5-1c0-0.2-0.1-0.4-0.2-0.6s-0.3-0.3-0.5-0.5s-0.4-0.3-0.7-0.4s-0.6-0.3-0.9-0.4c-0.3-0.2-0.6-0.4-0.9-0.5
		s-0.5-0.4-0.7-0.6s-0.4-0.5-0.5-0.7c-0.1-0.3-0.2-0.6-0.2-1c0-0.5,0.1-0.9,0.3-1.2c0.2-0.3,0.5-0.6,0.8-0.8
		c0.3-0.2,0.7-0.4,1.2-0.5c0.4-0.1,0.9-0.2,1.3-0.2c1,0,1.8,0.1,2.2,0.3v1.6c-0.6-0.4-1.3-0.6-2.1-0.6c-0.2,0-0.5,0-0.7,0.1
		c-0.2,0-0.5,0.1-0.6,0.2c-0.2,0.1-0.3,0.2-0.5,0.4s-0.2,0.4-0.2,0.6s0,0.4,0.1,0.6s0.2,0.3,0.4,0.4c0.2,0.1,0.4,0.3,0.6,0.4
		c0.3,0.1,0.5,0.3,0.9,0.4c0.3,0.2,0.7,0.4,1,0.6s0.6,0.4,0.8,0.6s0.4,0.5,0.5,0.8s0.2,0.6,0.2,1c0,0.5-0.1,0.9-0.3,1.3
		s-0.5,0.6-0.8,0.8c-0.3,0.2-0.7,0.4-1.2,0.5s-0.9,0.1-1.4,0.1c-0.2,0-0.4,0-0.6,0s-0.5-0.1-0.7-0.1c-0.3,0-0.5-0.1-0.7-0.2
		S109,360.1,108.9,360z"/>
	<path d="M126.1,352h-3.7v2.9h3.4v1.4h-3.4v4.1h-1.6v-9.8h5.3C126.1,350.6,126.1,352,126.1,352z"/>
	<path d="M131.9,360.6c-1.4,0-2.5-0.5-3.4-1.4c-0.8-0.9-1.3-2.1-1.3-3.6c0-1.6,0.4-2.8,1.3-3.8c0.9-1,2-1.4,3.5-1.4
		c1.4,0,2.5,0.5,3.3,1.4s1.3,2.1,1.3,3.6c0,1.6-0.4,2.9-1.3,3.8S133.3,360.6,131.9,360.6z M131.9,351.9c-0.9,0-1.6,0.3-2.2,1
		c-0.6,0.7-0.8,1.6-0.8,2.6c0,1.1,0.3,2,0.8,2.6s1.3,1,2.1,1c0.9,0,1.7-0.3,2.2-1s0.8-1.5,0.8-2.7s-0.3-2.1-0.8-2.7
		C133.6,352.2,132.9,351.9,131.9,351.9z"/>
	<path d="M146,360.4h-1.9l-1.6-2.6c-0.1-0.2-0.3-0.4-0.4-0.6c-0.1-0.2-0.3-0.3-0.4-0.4s-0.3-0.2-0.5-0.2s-0.3-0.1-0.6-0.1H140v4
		h-1.6v-9.8h3.2c0.5,0,0.9,0.1,1.3,0.2c0.4,0.1,0.7,0.3,1,0.5s0.5,0.5,0.7,0.8s0.2,0.7,0.2,1.2c0,0.3-0.1,0.7-0.2,1
		c-0.1,0.3-0.3,0.5-0.4,0.8c-0.2,0.2-0.4,0.4-0.7,0.6s-0.6,0.3-0.9,0.4l0,0c0.2,0.1,0.3,0.2,0.5,0.3c0.1,0.1,0.3,0.2,0.4,0.4
		c0.1,0.1,0.2,0.3,0.4,0.4c0.1,0.2,0.2,0.3,0.4,0.6L146,360.4z M140,352v3.2h1.4c0.3,0,0.5,0,0.7-0.1s0.4-0.2,0.6-0.3
		c0.2-0.1,0.3-0.3,0.4-0.5c0.1-0.2,0.1-0.4,0.1-0.7c0-0.5-0.1-0.8-0.4-1.1c-0.3-0.3-0.7-0.4-1.3-0.4H140V352z"/>
	<path d="M156.4,360.4H151v-9.8h1.6v8.4h3.8L156.4,360.4L156.4,360.4z"/>
	<path d="M159.5,360.4h-1.7v-9.8h1.7V360.4z"/>
	<path d="M170.2,360.4h-1.8l-4.7-7.2c-0.1-0.2-0.2-0.4-0.3-0.6l0,0c0,0.2,0.1,0.7,0.1,1.3v6.4h-1.6v-9.8h1.9l4.5,7
		c0.2,0.3,0.3,0.5,0.4,0.6l0,0c0-0.3-0.1-0.7-0.1-1.3v-6.3h1.6L170.2,360.4L170.2,360.4z"/>
	<path d="M180.2,356.5c0,2.8-1.3,4.1-3.9,4.1c-2.5,0-3.7-1.3-3.7-4v-6h1.6v5.7c0,1.9,0.7,2.9,2.2,2.9c1.4,0,2.2-0.9,2.2-2.8v-5.8
		h1.6C180.2,350.6,180.2,356.5,180.2,356.5z"/>
	<path d="M189.8,360.4h-1.9l-2-3.6c-0.1-0.1-0.1-0.3-0.2-0.5l0,0c0,0.1-0.1,0.3-0.2,0.5l-2.1,3.6h-2l3.2-4.9l-3-4.9h2l1.8,3.3
		c0.1,0.2,0.2,0.4,0.3,0.7l0,0c0.1-0.3,0.2-0.5,0.3-0.7l1.8-3.3h1.8l-3,4.9L189.8,360.4z"/>
</g>
<g>
	
		<line style="fill:none;stroke:#DFDFDE;stroke-width:4;stroke-linecap:round;stroke-linejoin:round;stroke-miterlimit:10;" x1="13.6" y1="1" x2="13.6" y2="267.4"/>
</g>
<g>
	
		<line style="fill:none;stroke:#DFDFDE;stroke-width:4;stroke-linecap:round;stroke-linejoin:round;stroke-miterlimit:10;" x1="13.6" y1="267.4" x2="52.9" y2="267.4"/>
	
		<circle style="fill:none;stroke:#DFDFDE;stroke-width:4;stroke-linecap:round;stroke-linejoin:round;stroke-miterlimit:10;" cx="58.4" cy="267.4" r="5"/>
</g>
</svg>
