<svg id="Layer_1" xmlns="http://www.w3.org/2000/svg" width="230" height="256" viewBox="0 0 230 256"><path d="M59.5 242l-1.7.6-1.6-2.1-3.6 1.2v2.6l-1.7.6.4-10.4 1.7-.6 6.5 8.1zm-4.2-2.7l-2.5-3.3c-.1-.1-.2-.3-.3-.5 0 .3.1.5.1.6v4.1l2.7-.9zM64.8 231l-3 8.9 5.1-1.5.4 1.3-7.3 2.1-.2-.7 3-8.8-4.8 1.3-.3-1.3 6.9-2 .2.7zM75 233.6c.7 2.7-.2 4.3-2.7 4.9-2.4.6-3.9-.3-4.6-2.9l-1.5-5.8 1.6-.4 1.4 5.5c.5 1.9 1.4 2.6 2.9 2.2 1.4-.4 1.8-1.4 1.4-3.2l-1.5-5.6 1.6-.4 1.4 5.7zM85.5 235.3l-1.8.4-2.1-2.2-.5-.5c-.2-.1-.3-.2-.5-.3s-.3-.1-.5-.1h-.6l-.6.1.9 3.9-1.6.3-2.1-9.5 3.1-.7c.4-.1.9-.1 1.3-.1s.8.1 1.1.3c.3.2.6.4.8.7.2.3.4.6.5 1.1.1.3.1.7.1 1s-.1.6-.3.8c-.2.2-.3.5-.5.7s-.5.4-.8.6c.2.1.4.1.5.2.2.1.3.2.4.3s.3.2.4.3l.5.5 2.3 2.2zm-7.6-7l.7 3.1 1.3-.3c.2-.1.5-.1.6-.3.2-.1.3-.3.5-.4.2-.1.2-.4.2-.6v-.7c-.1-.5-.3-.8-.7-1-.3-.2-.8-.2-1.3-.1l-1.3.3zM91.9 234.1l-5.4 1-1.8-9.6 5.2-1 .3 1.4-3.6.7.5 2.7 3.3-.6.3 1.3-3.3.6.5 2.8 3.8-.7.2 1.4zM103.5 222.5l-2.2 10.1-1.8.2-4.7-9.2 1.8-.2 3.4 7c.1.2.2.5.3.8 0-.3 0-.5.1-.9l1.5-7.6 1.6-.2zM107.7 231.9l-1.7.2-1-9.7 1.7-.2 1 9.7zM117.6 231.1l-1.9.1-1.7-2.5c-.2-.2-.3-.4-.5-.6-.1-.2-.3-.3-.4-.4-.1-.1-.3-.2-.5-.2H111.3l.3 3.9-1.6.1-.7-9.7 3.2-.2c.5 0 .9 0 1.3.1s.7.2 1 .4.5.5.7.8.3.7.3 1.1c0 .3 0 .7-.1 1s-.2.6-.4.8l-.6.6c-.3.2-.5.3-.9.4.2.1.3.2.5.3.1.1.3.2.4.3l.4.4c.1.2.3.3.4.5l2.1 2.8zm-6.6-8l.2 3.2 1.3-.1c.2 0 .5-.1.7-.2.2-.1.4-.2.5-.4s.3-.3.3-.6c.1-.2.1-.5.1-.7 0-.5-.2-.8-.5-1.1-.3-.2-.7-.3-1.3-.3l-1.3.2zM124.2 222.5l-2.8.1.3 8.4-1.6.1-.3-8.4-2.8.1v-1.4l7.2-.3v1.4zM133.4 227c0 2.7-1.4 4.1-4 4-2.5 0-3.7-1.4-3.7-4l.1-6h1.6l-.1 5.6c0 1.9.7 2.9 2.2 2.9 1.4 0 2.2-.9 2.2-2.7l.1-5.7h1.6v5.9zM143.3 231.4l-1.8-.1-.7-2.5-3.8-.2-1 2.4-1.8-.1 4.2-9.5 1.8.1 3.1 9.9zm-2.9-3.9l-1.1-4c0-.1-.1-.3-.1-.6-.1.3-.1.5-.2.6l-1.6 3.8 3 .2zM149.9 232.1l-5.4-.5.9-9.7 1.6.2-.8 8.3 3.8.4-.1 1.3zM163.1 233.9l-1.7-.3-3.5-7.8c-.1-.2-.2-.4-.2-.6 0 .2 0 .7-.1 1.3l-.9 6.3-1.5-.2 1.4-9.6 1.9.3 3.4 7.6c.1.3.2.5.3.6 0-.3 0-.7.1-1.3l.9-6.2 1.5.2-1.6 9.7zM170.8 235.3l-5.4-1 1.8-9.6 5.2 1-.3 1.3-3.6-.7-.5 2.7 3.3.6-.3 1.3-3.3-.6-.5 2.8 3.8.7-.2 1.5zM180.4 228.8l-2.7-.6-1.8 8.2-1.6-.3 1.8-8.2-2.7-.6.3-1.3 7 1.6-.3 1.2zM194.3 231l-5.1 8.7-1.8-.5v-7.1c0-.3 0-.6.1-1-.1.3-.2.6-.4.9l-3.6 6.1-1.8-.5-.1-10.1 1.7.5-.1 7.4c0 .3 0 .6-.1.9.1-.2.2-.5.4-.9l3.8-6.4 1.6.4-.1 7.4c0 .3 0 .5-.1.9.1-.2.2-.5.4-.8l3.5-6.5 1.7.6zM196.8 242.2c-1.3-.4-2.3-1.2-2.8-2.3s-.6-2.4-.1-3.8c.5-1.5 1.3-2.6 2.4-3.2s2.4-.7 3.8-.3c1.3.4 2.2 1.2 2.8 2.3.5 1.1.6 2.4.1 3.8-.5 1.5-1.3 2.6-2.4 3.2-1.2.7-2.4.8-3.8.3zm2.7-8.2c-.9-.3-1.6-.2-2.4.3s-1.3 1.2-1.6 2.3c-.3 1-.3 1.9 0 2.7s.9 1.3 1.7 1.6c.9.3 1.7.2 2.4-.2s1.2-1.2 1.6-2.3c.3-1.1.4-2 .1-2.8s-1-1.3-1.8-1.6zM210.1 246.6l-1.8-.6-.6-3c-.1-.3-.1-.5-.2-.7-.1-.2-.2-.4-.2-.5s-.2-.3-.3-.4c-.1-.1-.3-.2-.5-.3l-.6-.2-1.3 3.7-1.5-.5 3.2-9.2 3 1.1c.4.2.8.3 1.1.6.3.2.6.5.8.8s.3.6.4 1c0 .4 0 .8-.2 1.2-.1.3-.3.6-.5.8s-.4.4-.7.6c-.3.1-.5.3-.8.3s-.6.1-1 0c.1.2.2.3.3.5s.2.3.2.5c.1.2.1.3.2.5s.1.4.2.7l.8 3.1zm-2.8-10l-1.1 3 1.3.4c.2.1.5.1.7.1s.4 0 .6-.1c.2-.1.4-.2.5-.4.2-.2.3-.4.4-.6.2-.4.1-.8-.1-1.2-.2-.3-.5-.6-1.1-.8l-1.2-.4zM217.9 249.6l-2-.8-1.5-5.4c-.1-.2-.1-.3-.1-.4l-1.7 4.5-1.5-.6 3.5-9.1 1.5.6-1.7 4.3c.1-.1.2-.1.3-.2l4.6-2.8 1.8.7-5.3 3 2.1 6.2z"/><circle cx="129.4" cy="205.3" r="11"/><g><path d="M127 209.2v-1.3c.6.3 1.1.6 1.7.6.6 0 1-.1 1.4-.4.4-.3.6-.7.6-1.2 0-.4-.2-.9-.6-1.1-.3-.2-.9-.4-1.6-.4-.2 0-.7 0-1.4.1l.3-4.4h4.2v1.2h-3.1l-.1 2.1h.8c.9 0 1.6.2 2.1.7.4.4.8 1.1.8 1.9 0 .9-.3 1.6-.9 2-.6.6-1.3.8-2.3.8-.9-.3-1.6-.4-1.9-.6z" fill="#FFF"/></g><g fill="none" stroke="#dfdfde" stroke-width="4" stroke-linecap="round" stroke-linejoin="round" stroke-miterlimit="10"><path d="M26-15.4l1 258.9"/><circle cx="27" cy="249" r="5"/></g></svg>