<svg id="Layer_1" xmlns="http://www.w3.org/2000/svg" width="55" height="350" viewBox="0 0 55 350"><path d="M46 307.8c-6.7-8.5-19.1-10-27.6-3.3-2.5 2-4.4 4.5-5.7 7.2l-.1.3c-.2.5-.5 1.1-.7 1.7L0 344l31.8-4.3c.9-.1 1.8-.2 2.7-.4h.1c2.8-.6 5.6-1.8 8-3.8 8.6-6.8 10.1-19.1 3.4-27.7z" fill="#010101"/><g fill="#FFF"><path d="M23.2 313c0-.7 2.3-1.3 5.2-1.3s5.2.6 5.2 1.3-2.3 1.3-5.2 1.3-5.2-.5-5.2-1.3zm4.6 17.6V318c0-1.6 2.5-2.3 6-2.3.8 0 1.6 0 2.3.1V313c0-1.3-3.5-2.4-7.8-2.4s-7.8 1.1-7.8 2.4v16.2c0 1.4 3.5 2.5 7.8 2.5h.5c-.6-.4-1-.7-1-1.1z"/><path d="M34.1 319.7c-2.1 0-3.8-.4-3.8-1 0-.5 1.7-1 3.8-1s3.8.4 3.8 1-1.7 1-3.8 1zm3.3 5.3l-6.9 5.7 2.7-4.4h-2.3l6.9-5.7-2.7 4.4h2.3zm-3.3-8.3c-3.1 0-5.4.8-5.4 1.7V330c0 1 2.3 1.8 5.4 1.8s5.6-.8 5.6-1.8v-11.6c0-.9-2.5-1.7-5.6-1.7z"/></g><path fill="none" stroke="#dfdfde" stroke-width="4" stroke-linecap="round" stroke-linejoin="round" stroke-miterlimit="10" d="M39.7-10.4l1 288.9"/><circle cx="40.7" cy="284" r="5" fill="none" stroke="#dfdfde" stroke-width="4" stroke-linecap="round" stroke-linejoin="round" stroke-miterlimit="10"/></svg>