<svg id="Layer_1" xmlns="http://www.w3.org/2000/svg" width="480" height="355.6" viewBox="0 0 480 355.6"><path d="M240.4 47c-37.5 1-72.7 16.1-99.3 42.8-27.6 27.6-42.9 64.4-42.9 103.5s15.2 75.9 42.9 103.5c27.6 27.6 67.1 42.9 103.5 42.9 39.1 0 75.9-15.2 103.5-42.9 27.6-27.6 42.9-64.4 42.9-103.5s-15.2-75.9-42.9-103.5c-26.2-26.2-60.5-41.2-97.2-42.7l-10.5-.1z" fill="#FFF"/><path fill="none" d="M246.8 138.8h8.5V149h-8.5z"/><path d="M256.8 138v11.6c0 .4-.3.7-.7.7h-9.3v8.3h66.4v-92h-66.4v70.7h9.3c.4 0 .7.3.7.7zM227.1 149.7V138c0-.4.3-.7.7-.7h9.4V66.6h-66.4v92.1h66.4v-8.3h-9.4c-.4 0-.7-.3-.7-.7z" fill="none"/><path fill="none" d="M228.6 138.8h8.7V149h-8.7zM246.8 117.6h7.1v10.2h-7.1zM230 117.6h7.2v10.2H230z"/><path d="M361.1 74.6c-2.6 0-4.6.9-4.6 1.8v8.4c0 .9 2.1 1.8 4.6 1.8 2.6 0 4.6-.8 4.6-1.8v-8.4c0-.9-2.1-1.8-4.6-1.8zm-4.5 10.6c0-.1 0-.1 0 0zm3.2-5.3c-.3 0-.4-.1-.4.2v.6c0 .5-.1.8-.4.9.3.1.4.5.4 1.1v.8c0 .2 0 .2.1.3s.2.1.3.1v.6c-.5 0-.8-.1-1-.3-.2-.2-.3-.5-.3-1v-.8c0-.4-.2-.4-.4-.4v-.9c.3 0 .4 0 .4-.4v-.6c0-.4.1-.7.3-.8.2-.2.5-.2 1-.2v.8zm4.5 1.6v.7c-.3 0-.4 0-.4.4v.8c0 .5-.1.8-.3 1-.2.2-.5.3-1.1.3v-.6c.1 0 .3 0 .3-.1.1-.1.1-.1.1-.3v-.8c0-.6.1-.9.4-1.1-.3-.1-.4-.4-.4-.9v-.6c0-.3-.2-.2-.4-.2v-.7c.5 0 .8.1 1 .2.2.2.3.4.3.8v.6c0 .4.1.3.4.3v.2h.1zm-3.2-4.3c-1.8 0-3.3-.4-3.3-1s1.5-1 3.3-1 3.3.4 3.3 1-1.5 1-3.3 1z" fill="#FFF"/><g fill="#FFF"><path d="M372 94c0-.4 1.2-.7 2.8-.7s2.8.3 2.8.7c0 .4-1.2.7-2.8.7s-2.8-.3-2.8-.7zm2.4 9.3v-6.7c0-.8 1.3-1.2 3.2-1.2.4 0 .8 0 1.2.1V94c0-.7-1.8-1.3-4.1-1.3s-4.1.6-4.1 1.3v8.6c0 .7 1.8 1.3 4.1 1.3h.3c-.4-.2-.6-.4-.6-.6z"/><path d="M377.8 97.6c-1.1 0-2-.2-2-.5s.9-.5 2-.5 2 .2 2 .5c0 .2-.9.5-2 .5zm1.7 2.7l-3.7 3 1.4-2.3H376l3.7-3-1.4 2.3h1.2zm-1.7-4.3c-1.6 0-2.9.4-2.9.9v6.2c0 .5 1.2 1 2.9 1 1.6 0 3-.4 3-.9V97c-.1-.6-1.4-1-3-1z"/></g><g fill="#FFF"><path d="M382.4 116.2H393l-2.8-2.5v1.3h-7.7v-1c0-.5.2-.9.7-.9h7.8c.5 0 1 .4 1 .9v.5l1 .8V114c0-1-.9-1.9-1.9-1.9h-7.9c-1 0-1.7.8-1.7 1.9v2.3h.9v-.1zM392 116.9h-10.6l2.7 2.5v-1.5h8v1.3c0 .5-.5 1-1 1h-7.8c-.5 0-.7-.5-.7-1v-.5l-1-.8v1.3c0 1 .7 1.6 1.7 1.6h1.7l3.9 2.8-.3-2.8h2.6c1 0 1.9-.6 1.9-1.6V117H392v-.1z"/></g><g fill="#010101"><path d="M219.2 231.8v-5.2h1.5c1.9 0 2.9.8 2.9 2.5 0 .8-.3 1.4-.8 1.9s-1.2.7-2.1.7h-1.5v.1zm.9-4.4v3.7h.7c.6 0 1.1-.2 1.4-.5.3-.3.5-.8.5-1.4 0-1.2-.6-1.8-1.9-1.8h-.7zM228.6 231.8h-.9l-.5-1.3h-2l-.4 1.3h-.9l1.9-5.2h1l1.8 5.2zm-1.6-2l-.7-2.1c0-.1 0-.2-.1-.3 0 .1 0 .2-.1.3l-.7 2.1h1.6zM232.1 227.4h-1.5v4.4h-.9v-4.4h-1.5v-.7h3.8l.1.7zM236.6 231.8h-.9l-.5-1.3h-2l-.4 1.3h-.9l1.9-5.2h1l1.8 5.2zm-1.6-2l-.7-2.1c0-.1 0-.2-.1-.3 0 .1 0 .2-.1.3l-.7 2.1h1.6zM237.3 231.8v-5.2h1.6c.5 0 .9.1 1.2.3s.4.5.4.9c0 .3-.1.5-.2.8-.2.2-.4.4-.7.5.4 0 .6.2.9.4.2.2.3.5.3.9s-.2.8-.5 1.1-.8.4-1.3.4l-1.7-.1zm.9-4.5v1.5h.6c.3 0 .5-.1.7-.2.2-.1.3-.3.3-.6 0-.4-.3-.7-.9-.7h-.7zm0 2.2v1.6h.7c.3 0 .6-.1.7-.2.2-.1.3-.4.3-.6 0-.5-.4-.8-1.1-.8h-.6zM246 231.8h-.9l-.5-1.3h-2l-.4 1.3h-.9l1.9-5.2h1l1.8 5.2zm-1.6-2l-.7-2.1c0-.1 0-.2-.1-.3 0 .1 0 .2-.1.3l-.7 2.1h1.6zM246.5 231.6v-.9c.1.1.2.1.3.2.1.1.2.1.3.1s.2.1.4.1h.3c.4 0 .6-.1.8-.2.2-.1.3-.3.3-.5 0-.1 0-.2-.1-.3s-.1-.2-.2-.2c-.1-.1-.2-.1-.4-.2-.1-.1-.3-.1-.5-.2s-.3-.2-.5-.3-.3-.2-.4-.3c-.1-.1-.2-.2-.3-.4-.1-.1-.1-.3-.1-.5s.1-.5.2-.6c.1-.2.3-.3.4-.4l.6-.3c.2-.1.5-.1.7-.1.5 0 .9.1 1.2.2v.8c-.3-.2-.7-.3-1.1-.3h-.4c-.1 0-.2.1-.3.1-.1.1-.2.1-.2.2-.1.1-.1.2-.1.3s0 .2.1.3c0 .1.1.2.2.2.1.1.2.1.3.2.1.1.3.1.5.2s.4.2.5.3c.2.1.3.2.4.3.1.1.2.3.3.4.1.2.1.3.1.5 0 .3-.1.5-.2.7-.1.2-.2.3-.4.4-.2.1-.4.2-.6.2-.2 0-.5.1-.7.1h-.3c-.1 0-.3 0-.4-.1-.1 0-.3-.1-.4-.1-.1.2-.2.2-.3.1zM253.7 231.8h-2.9v-5.2h2.8v.7h-1.9v1.5h1.8v.7h-1.8v1.5h2v.8zM260 227.4h-1.5v4.4h-.9v-4.4h-1.5v-.7h3.8v.7h.1zM261.6 231.8h-.9v-5.2h.9v5.2zM265.8 231.8h-2.9v-5.2h2.8v.7h-1.9v1.5h1.8v.7h-1.8v1.5h2v.8zM270.7 231.8h-1l-.8-1.4c-.1-.1-.1-.2-.2-.3s-.1-.2-.2-.2c-.1-.1-.2-.1-.2-.1h-.6v2.1h-.9v-5.2h1.7c.2 0 .5 0 .7.1s.4.1.5.3c.2.1.3.3.4.4.1.2.1.4.1.6 0 .2 0 .4-.1.5-.1.2-.1.3-.2.4-.1.1-.2.2-.4.3-.1.1-.3.1-.5.2.1.1.2.1.2.2l.2.2.2.2c.1.1.1.2.2.3l.9 1.4zm-3.1-4.5v1.7h.7c.1 0 .3 0 .4-.1.1 0 .2-.1.3-.2.1-.1.1-.2.2-.3 0-.1.1-.2.1-.4s-.1-.4-.2-.6c-.2-.1-.4-.2-.7-.2h-.8v.1z"/></g><path d="M244.4 213.4c-2.9 0-5.3 2.4-5.3 5.3s2.4 5.3 5.3 5.3 5.3-2.4 5.3-5.3c0-3-2.4-5.3-5.3-5.3zm1.6 3.6c-.2.3-.3.6-.5.9s-.3.6-.4.9l-.3.9c-.1.3-.2.6-.2 1h-.7c0-.3.1-.6.2-.9l.3-.9c.1-.3.2-.6.4-.9.1-.3.3-.6.5-.9h-2v-.6h2.8v.5h-.1z" fill="#010101"/><path d="M245.7 53c-2.6 0-4.8-1.9-5.2-4.4-77.9 2.2-140.6 66.3-140.6 144.7 0 79.8 64.9 144.8 144.8 144.8s144.8-64.9 144.8-144.8c0-77.7-61.6-141.4-138.5-144.6-.6 2.4-2.8 4.3-5.3 4.3z" fill="none"/><g fill="#686969"><path d="M219 103.1v1.9h-.9v-5.2h1.6c.6 0 1.1.1 1.4.4s.5.7.5 1.2-.2.9-.5 1.2c-.3.3-.8.5-1.4.5h-.7zm0-2.6v1.9h.6c.4 0 .6-.1.8-.3s.3-.4.3-.7c0-.6-.4-.9-1.1-.9h-.6zM226.2 105h-.9l-.5-1.3h-2l-.4 1.3h-.9l1.9-5.2h1l1.8 5.2zm-1.6-2l-.7-2.1c0-.1 0-.2-.1-.3 0 .1 0 .2-.1.3l-.7 2.1h1.6zM231.2 105h-.9l-.5-1.3h-2l-.4 1.3h-.9l1.9-5.2h1l1.8 5.2zm-1.7-2l-.7-2.1c0-.1 0-.2-.1-.3 0 .1 0 .2-.1.3l-.7 2.1h1.6zM231.6 104.8v-.9c.1.1.2.1.3.2s.2.1.3.1.2.1.4.1h.3c.4 0 .6-.1.8-.2s.3-.3.3-.5c0-.1 0-.2-.1-.3-.1-.1-.1-.2-.2-.2-.1-.1-.2-.1-.4-.2-.1-.1-.3-.1-.5-.2s-.3-.2-.5-.3c-.2-.1-.3-.2-.4-.3-.1-.1-.2-.2-.3-.4-.1-.1-.1-.3-.1-.5s.1-.5.2-.6l.4-.4.6-.3c.2-.1.5-.1.7-.1.5 0 .9.1 1.2.2v.8c-.3-.2-.7-.3-1.1-.3h-.4c-.1 0-.2.1-.3.1-.1.1-.2.1-.2.2-.1.1-.1.2-.1.3 0 .1 0 .2.1.3s.1.2.2.2c.1.1.2.1.3.2s.3.1.5.2.4.2.5.3c.2.1.3.2.4.3.1.1.2.3.3.4.1.2.1.3.1.5 0 .3-.1.5-.2.7-.1.2-.2.3-.4.4s-.4.2-.6.2c-.2 0-.5.1-.7.1h-.3c-.1 0-.3 0-.4-.1-.1 0-.3-.1-.4-.1-.1.2-.2.1-.3.1zM240.1 105.1c-.7 0-1.3-.2-1.8-.7s-.7-1.1-.7-1.9.2-1.5.7-2 1.1-.7 1.9-.7c.7 0 1.3.2 1.8.7.4.5.7 1.1.7 1.9s-.2 1.5-.7 2c-.6.4-1.2.7-1.9.7zm0-4.6c-.5 0-.9.2-1.2.5s-.4.8-.4 1.4.1 1 .4 1.4c.3.4.7.5 1.1.5.5 0 .9-.2 1.2-.5s.4-.8.4-1.4-.1-1.1-.4-1.4-.6-.5-1.1-.5zM247.6 99.8l-1.9 5.2h-1l-1.8-5.2h.9l1.3 3.9c0 .1.1.3.1.4 0-.1.1-.3.1-.4l1.3-3.9h1zM251.2 105h-2.9v-5.2h2.8v.7h-1.9v1.5h1.8v.7h-1.8v1.5h2v.8zM256.1 105h-1l-.8-1.4c-.1-.1-.1-.2-.2-.3-.1-.1-.1-.2-.2-.2-.1-.1-.2-.1-.2-.1h-.6v2.1h-.9v-5.2h1.7c.2 0 .5 0 .7.1s.4.1.5.3c.2.1.3.3.4.4.1.2.1.4.1.6s0 .4-.1.5c-.1.2-.1.3-.2.4-.1.1-.2.2-.4.3-.1.1-.3.1-.5.2.1.1.2.1.2.2l.2.2.2.2c.1.1.1.2.2.3l.9 1.4zm-3.2-4.5v1.7h.7c.1 0 .3 0 .4-.1.1 0 .2-.1.3-.2s.1-.2.2-.3c0-.1.1-.2.1-.4s-.1-.4-.2-.6c-.2-.1-.4-.2-.7-.2l-.8.1zM259.6 105h-.9v-5.2h.9v5.2zM265.1 105h-.9l-.5-1.3h-2l-.4 1.3h-.9l1.9-5.2h1l1.8 5.2zm-1.6-2l-.7-2.1c0-.1 0-.2-.1-.3 0 .1 0 .2-.1.3l-.7 2.1h1.6zM270.1 105h-.9l-.5-1.3h-2l-.4 1.3h-.9l1.9-5.2h1l1.8 5.2zm-1.6-2l-.7-2.1c0-.1 0-.2-.1-.3 0 .1 0 .2-.1.3l-.7 2.1h1.6zM270.6 104.8v-.9c.1.1.2.1.3.2.1.1.2.1.3.1.1 0 .2.1.4.1h.3c.4 0 .6-.1.8-.2s.3-.3.3-.5c0-.1 0-.2-.1-.3-.1-.1-.1-.2-.2-.2-.1-.1-.2-.1-.4-.2-.1-.1-.3-.1-.5-.2s-.3-.2-.5-.3c-.2-.1-.3-.2-.4-.3-.1-.1-.2-.2-.3-.4-.1-.1-.1-.3-.1-.5s.1-.5.2-.6c.1-.2.3-.3.4-.4l.6-.3c.2-.1.5-.1.7-.1.5 0 .9.1 1.2.2v.8c-.3-.2-.7-.3-1.1-.3h-.4c-.1 0-.2.1-.3.1-.1.1-.2.1-.2.2-.1.1-.1.2-.1.3 0 .1 0 .2.1.3s.1.2.2.2c.1.1.2.1.3.2.1.1.3.1.5.2s.4.2.5.3c.2.1.3.2.4.3.1.1.2.3.3.4.1.2.1.3.1.5 0 .3-.1.5-.2.7s-.2.3-.4.4-.4.2-.6.2-.5.1-.7.1h-.3c-.1 0-.3 0-.4-.1-.1 0-.3-.1-.4-.1-.2.2-.3.1-.3.1z"/></g><g fill="#686969"><path d="M273.7 186.6v-4.1h1.2c1.5 0 2.3.7 2.3 2 0 .6-.2 1.2-.6 1.5-.4.4-1 .6-1.7.6h-1.2zm.7-3.5v3h.5c.5 0 .9-.1 1.1-.4.3-.3.4-.6.4-1.1 0-1-.5-1.5-1.5-1.5h-.5zM279.6 186.7c-.6 0-1.1-.2-1.4-.6-.4-.4-.5-.9-.5-1.5 0-.7.2-1.2.5-1.6.4-.4.9-.6 1.5-.6s1 .2 1.4.6c.4.4.5.9.5 1.5 0 .7-.2 1.2-.5 1.6-.4.4-.9.6-1.5.6zm.1-3.7c-.4 0-.7.1-.9.4-.2.3-.4.7-.4 1.1 0 .5.1.8.3 1.1.2.3.5.4.9.4s.7-.1.9-.4c.2-.3.3-.6.3-1.1s-.1-.9-.3-1.1c-.2-.2-.5-.4-.8-.4zM285.3 186.5c-.3.2-.7.2-1.2.2-.6 0-1.1-.2-1.4-.6-.4-.4-.5-.9-.5-1.5 0-.7.2-1.2.6-1.6.4-.4.9-.6 1.5-.6.4 0 .7.1 1 .2v.7c-.3-.2-.6-.2-.9-.2-.4 0-.8.1-1.1.4-.3.3-.4.7-.4 1.1 0 .5.1.8.4 1.1s.6.4 1 .4.7-.1 1-.3v.7zM289.2 186.6h-.9l-1.4-1.9-.1-.1v2h-.7v-4.1h.7v1.9l.1-.1 1.4-1.8h.8l-1.6 2 1.7 2.1zM292 186.6h-2.3v-4.1h2.2v.6h-1.5v1.2h1.4v.6h-1.4v1.2h1.6v.5zM295.9 186.6h-.8l-.7-1.1c-.1-.1-.1-.2-.2-.3l-.2-.2c-.1 0-.1-.1-.2-.1h-.5v1.7h-.7v-4.1h1.4c.2 0 .4 0 .5.1.2 0 .3.1.4.2l.3.3c.1.1.1.3.1.5 0 .1 0 .3-.1.4 0 .1-.1.2-.2.3s-.2.2-.3.2c-.1.1-.2.1-.4.2.1 0 .1.1.2.1l.2.2c0 .1.1.1.1.2s.1.1.2.2l.9 1.2zm-2.5-3.6v1.3H294.3c.1 0 .2-.1.2-.1l.2-.2c0-.1.1-.2.1-.3 0-.2-.1-.4-.2-.5s-.3-.2-.5-.2h-.7zM301.3 182.5l-1.5 4.1h-.8l-1.5-4.1h.8l1 3.1c0 .1.1.2.1.3 0-.1 0-.2.1-.4l1-3.1.8.1zM306.3 186.6h-.7v-2.7-.8c0 .2-.1.3-.1.4l-1.2 3.1h-.5l-1.2-3.1c0-.1-.1-.2-.1-.4v3.5h-.6v-4.1h1l1.1 2.8c.1.2.1.4.2.5.1-.2.1-.4.2-.5l1.1-2.7h.9l-.1 4zM277 193.7h-2.3v-4.1h2.2v.6h-1.5v1.2h1.4v.6h-1.4v1.2h1.6v.5zM280.9 193.7h-.9l-.8-1.5s-.1-.1-.1-.2c0 0 0 .1-.1.2l-.9 1.5h-.8l1.4-2.1-1.2-2.1h.8l.7 1.4c0 .1.1.2.1.3.1-.1.1-.2.1-.3l.8-1.4h.8l-1.3 2.1 1.4 2.1zM284.2 190.2H283v3.6h-.7v-3.6h-1.2v-.6h3.1v.6zM287.1 193.7h-2.3v-4.1h2.2v.6h-1.5v1.2h1.4v.6h-1.4v1.2h1.6v.5zM291.4 193.7h-.8l-2-3c-.1-.1-.1-.2-.1-.2V193.8h-.7v-4.1h.8l1.9 3c.1.1.1.2.2.3V189.7h.7v4zM292.2 193.6v-.7l.2.2c.1 0 .2.1.3.1.1 0 .2.1.3.1h.3c.3 0 .5 0 .6-.1s.2-.2.2-.4c0-.1 0-.2-.1-.3 0-.1-.1-.1-.2-.2s-.2-.1-.3-.2c-.1-.1-.2-.1-.4-.2-.1-.1-.3-.2-.4-.2l-.3-.3c-.1-.1-.2-.2-.2-.3-.1-.1-.1-.3-.1-.4 0-.2 0-.4.1-.5s.2-.3.3-.4c.1-.1.3-.2.5-.2s.4-.1.6-.1c.4 0 .7 0 .9.1v.7c-.2-.2-.5-.3-.9-.3h-.3c-.1 0-.2.1-.3.1-.1 0-.1.1-.2.2 0 .1-.1.2-.1.3s0 .2.1.2c0 .1.1.1.2.2s.2.1.3.2c.1.1.2.1.4.2.1.1.3.2.4.2l.3.3c.1.1.2.2.2.3.1.1.1.3.1.4 0 .2 0 .4-.1.5s-.2.3-.3.4c-.1.1-.3.2-.5.2s-.4.1-.6.1h-.6c-.1 0-.2 0-.3-.1 0-.1 0-.1-.1-.1zM296.3 193.7h-.7v-4.1h.7v4.1zM299 193.8c-.6 0-1.1-.2-1.4-.6-.4-.4-.5-.9-.5-1.5 0-.7.2-1.2.5-1.6.4-.4.9-.6 1.5-.6s1 .2 1.4.6c.4.4.5.9.5 1.5 0 .7-.2 1.2-.5 1.6-.4.4-.9.6-1.5.6zm.1-3.7c-.4 0-.7.1-.9.4-.2.3-.4.7-.4 1.1 0 .5.1.8.3 1.1.2.3.5.4.9.4s.7-.1.9-.4c.2-.3.3-.6.3-1.1s-.1-.9-.3-1.1c-.1-.3-.4-.4-.8-.4zM305.3 193.7h-.8l-2-3c-.1-.1-.1-.2-.1-.2V193.8h-.7v-4.1h.8l1.9 3c.1.1.1.2.2.3V189.7h.7v4z"/></g><g fill="#686969"><path d="M183.3 186.6v-4.1h1.2c1.5 0 2.3.7 2.3 2 0 .6-.2 1.2-.6 1.5-.4.4-1 .6-1.7.6h-1.2zm.7-3.5v3h.5c.5 0 .9-.1 1.1-.4.3-.3.4-.6.4-1.1 0-1-.5-1.5-1.5-1.5h-.5zM189.3 186.7c-.6 0-1.1-.2-1.4-.6-.4-.4-.5-.9-.5-1.5 0-.7.2-1.2.5-1.6.4-.4.9-.6 1.5-.6s1 .2 1.4.6c.4.4.5.9.5 1.5 0 .7-.2 1.2-.5 1.6-.4.4-.9.6-1.5.6zm0-3.7c-.4 0-.7.1-.9.4-.2.3-.4.7-.4 1.1 0 .5.1.8.3 1.1s.5.4.9.4.7-.1.9-.4c.2-.3.3-.6.3-1.1s-.1-.9-.3-1.1c-.1-.2-.4-.4-.8-.4zM194.9 186.5c-.3.2-.7.2-1.2.2-.6 0-1.1-.2-1.4-.6-.4-.4-.5-.9-.5-1.5 0-.7.2-1.2.6-1.6.4-.4.9-.6 1.5-.6.4 0 .7.1 1 .2v.7c-.3-.2-.6-.2-.9-.2-.4 0-.8.1-1.1.4-.3.3-.4.7-.4 1.1 0 .5.1.8.4 1.1.3.3.6.4 1 .4s.7-.1 1-.3v.7zM198.8 186.6h-.9l-1.4-1.9-.1-.1v2h-.7v-4.1h.7v1.9l.1-.1 1.4-1.8h.8l-1.6 2 1.7 2.1zM201.6 186.6h-2.3v-4.1h2.2v.6H200v1.2h1.4v.6H200v1.2h1.6v.5zM205.6 186.6h-.8l-.7-1.1c-.1-.1-.1-.2-.2-.3l-.2-.2c-.1 0-.1-.1-.2-.1h-.5v1.7h-.7v-4.1h1.4c.2 0 .4 0 .5.1.2 0 .3.1.4.2l.3.3c.1.1.1.3.1.5 0 .1 0 .3-.1.4 0 .1-.1.2-.2.3-.1.1-.2.2-.3.2-.1.1-.2.1-.4.2.1 0 .1.1.2.1l.2.2c0 .1.1.1.1.2s.1.1.2.2l.9 1.2zm-2.5-3.6v1.3H204c.1 0 .2-.1.2-.1l.2-.2c0-.1.1-.2.1-.3 0-.2-.1-.4-.2-.5-.1-.1-.3-.2-.5-.2h-.7zM210.9 182.5l-1.5 4.1h-.8l-1.5-4.1h.8l1 3.1c0 .1.1.2.1.3 0-.1 0-.2.1-.4l1-3.1.8.1zM215.9 186.6h-.7v-2.7-.8c0 .2-.1.3-.1.4l-1.2 3.1h-.5l-1.2-3.1c0-.1-.1-.2-.1-.4v3.5h-.6v-4.1h1l1.1 2.8c.1.2.1.4.2.5.1-.2.1-.4.2-.5l1.1-2.7h.9l-.1 4zM186.6 193.7h-2.3v-4.1h2.2v.6H185v1.2h1.4v.6H185v1.2h1.6v.5zM190.5 193.7h-.8l-.8-1.5s-.1-.1-.1-.2c0 0 0 .1-.1.2l-.9 1.5h-.8l1.4-2.1-1.2-2.1h.8l.7 1.4c0 .1.1.2.1.3.1-.1.1-.2.1-.3l.8-1.4h.8l-1.3 2.1 1.3 2.1zM193.8 190.2h-1.2v3.6h-.7v-3.6h-1.2v-.6h3.1v.6zM196.8 193.7h-2.3v-4.1h2.2v.6h-1.5v1.2h1.4v.6h-1.4v1.2h1.6v.5zM201 193.7h-.8l-2-3c-.1-.1-.1-.2-.1-.2V193.8h-.7v-4.1h.8l1.9 3c.1.1.1.2.2.3V189.7h.7v4zM201.8 193.6v-.7l.2.2c.1 0 .2.1.3.1s.2.1.3.1h.3c.3 0 .5 0 .6-.1s.2-.2.2-.4c0-.1 0-.2-.1-.3 0-.1-.1-.1-.2-.2s-.2-.1-.3-.2c-.1-.1-.2-.1-.4-.2-.1-.1-.3-.2-.4-.2l-.3-.3c-.1-.1-.2-.2-.2-.3-.1-.1-.1-.3-.1-.4 0-.2 0-.4.1-.5s.2-.3.3-.4c.1-.1.3-.2.5-.2s.4-.1.6-.1c.4 0 .7 0 .9.1v.7c-.2-.2-.5-.3-.9-.3h-.3c-.1 0-.2.1-.3.1s-.1.1-.2.2c0 .1-.1.2-.1.3s0 .2.1.2c0 .1.1.1.2.2s.2.1.3.2c.1.1.2.1.4.2.1.1.3.2.4.2s.2.2.3.3.2.2.2.3c.1.1.1.3.1.4 0 .2 0 .4-.1.5s-.2.3-.3.4c-.1.1-.3.2-.5.2s-.4.1-.6.1h-.6c-.1 0-.2 0-.3-.1.1-.1 0-.1-.1-.1zM206 193.7h-.7v-4.1h.7v4.1zM208.7 193.8c-.6 0-1.1-.2-1.4-.6-.4-.4-.5-.9-.5-1.5 0-.7.2-1.2.5-1.6.4-.4.9-.6 1.5-.6s1 .2 1.4.6c.4.4.5.9.5 1.5 0 .7-.2 1.2-.5 1.6s-.9.6-1.5.6zm0-3.7c-.4 0-.7.1-.9.4-.2.3-.4.7-.4 1.1 0 .5.1.8.3 1.1s.5.4.9.4.7-.1.9-.4c.2-.3.3-.6.3-1.1s-.1-.9-.3-1.1c-.1-.3-.4-.4-.8-.4zM215 193.7h-.8l-2-3c-.1-.1-.1-.2-.1-.2V193.8h-.7v-4.1h.8l1.9 3c.1.1.1.2.2.3V189.7h.7v4z"/></g><g fill="#686969"><path d="M269.2 212.2h-.8l-.4-1.1h-1.6l-.4 1.1h-.8l1.6-4.1h.8l1.6 4.1zm-1.3-1.6l-.6-1.7c0-.1 0-.1-.1-.3 0 .1 0 .2-.1.3l-.6 1.7h1.4zM272.7 208.4l-2.3 3.3h2.2v.6h-3.2v-.3l2.3-3.2h-2.1v-.6h3.1v.2zM276.6 210.5c0 1.2-.6 1.7-1.7 1.7s-1.6-.6-1.6-1.7V208h.7v2.4c0 .8.3 1.2.9 1.2s.9-.4.9-1.2V208h.7v2.5h.1zM280.7 212.2h-.8l-.7-1.1c-.1-.1-.1-.2-.2-.3l-.2-.2c-.1 0-.1-.1-.2-.1h-.5v1.7h-.7v-4.1h1.4c.2 0 .4 0 .5.1.2 0 .3.1.4.2l.3.3c.1.1.1.3.1.5 0 .1 0 .3-.1.4 0 .1-.1.2-.2.3s-.2.2-.3.2-.2.1-.4.2c.1 0 .1.1.2.1l.2.2c0 .1.1.1.1.2s.1.1.2.2l.9 1.2zm-2.5-3.6v1.3H279.1c.1 0 .2-.1.2-.1l.2-.2c0-.1.1-.2.1-.3 0-.2-.1-.4-.2-.5s-.3-.2-.5-.2h-.7zM283.5 212.2h-2.3v-4.1h2.2v.6h-1.5v1.2h1.4v.6h-1.4v1.2h1.6v.5zM289.2 208.1l-1.5 4.1h-.8l-1.5-4.1h.8l1 3.1c0 .1.1.2.1.3 0-.1 0-.2.1-.4l1-3.1.8.1zM294.2 212.2h-.7v-2.7-.8c0 .2-.1.3-.1.4l-1.2 3.1h-.5l-1.2-3.1c0-.1-.1-.2-.1-.4v3.5h-.6v-4.1h1l1.1 2.8c.1.2.1.4.2.5.1-.2.1-.4.2-.5l1.1-2.7h.9l-.1 4zM296.8 212.2v-4.1h1.3c.4 0 .7.1 1 .3.2.2.4.4.4.7 0 .2-.1.4-.2.6-.1.2-.3.3-.6.4.3 0 .5.1.7.3s.3.4.3.7c0 .4-.1.6-.4.9-.3.2-.6.3-1.1.3l-1.4-.1zm.7-3.6v1.2h.4c.2 0 .4-.1.6-.2.1-.1.2-.3.2-.5 0-.4-.2-.5-.7-.5h-.5zm0 1.8v1.3h.6c.3 0 .5-.1.6-.2.1-.1.2-.3.2-.5 0-.4-.3-.6-.9-.6h-.5z"/></g><g fill="#686969"><path d="M193.1 212.2h-.8l-.4-1.1h-1.6l-.4 1.1h-.8l1.6-4.1h.8l1.6 4.1zm-1.3-1.6l-.6-1.7c0-.1 0-.1-.1-.3 0 .1 0 .2-.1.3l-.6 1.7h1.4zM196.6 208.4l-2.3 3.3h2.2v.6h-3.2v-.3l2.3-3.2h-2.1v-.6h3.1v.2zM200.4 210.5c0 1.2-.6 1.7-1.7 1.7s-1.6-.6-1.6-1.7V208h.7v2.4c0 .8.3 1.2.9 1.2.6 0 .9-.4.9-1.2V208h.7v2.5h.1zM204.6 212.2h-.8l-.7-1.1c-.1-.1-.1-.2-.2-.3l-.2-.2c-.1 0-.1-.1-.2-.1h-.5v1.7h-.7v-4.1h1.4c.2 0 .4 0 .5.1.2 0 .3.1.4.2l.3.3c.1.1.1.3.1.5 0 .1 0 .3-.1.4 0 .1-.1.2-.2.3-.1.1-.2.2-.3.2s-.2.1-.4.2c.1 0 .1.1.2.1l.2.2c0 .1.1.1.1.2s.1.1.2.2l.9 1.2zm-2.5-3.6v1.3H203c.1 0 .2-.1.2-.1l.2-.2c0-.1.1-.2.1-.3 0-.2-.1-.4-.2-.5-.1-.1-.3-.2-.5-.2h-.7zM207.4 212.2h-2.3v-4.1h2.2v.6h-1.5v1.2h1.4v.6h-1.4v1.2h1.6v.5zM213 208.1l-1.5 4.1h-.8l-1.5-4.1h.8l1 3.1c0 .1.1.2.1.3 0-.1 0-.2.1-.4l1-3.1.8.1zM218 212.2h-.7v-2.7-.8c0 .2-.1.3-.1.4l-1.2 3.1h-.5l-1.2-3.1c0-.1-.1-.2-.1-.4v3.5h-.6v-4.1h1l1.1 2.8c.1.2.1.4.2.5.1-.2.1-.4.2-.5l1.1-2.7h.9l-.1 4zM224.1 212.2h-.8l-.4-1.1h-1.6l-.4 1.1h-.8l1.6-4.1h.8l1.6 4.1zm-1.4-1.6l-.6-1.7c0-.1 0-.1-.1-.3 0 .1 0 .2-.1.3l-.6 1.7h1.4z"/></g><g fill="#686969"><path d="M239.3 169.4h-.7v-4.1h.7v4.1zM243.7 169.4h-.7l-.4-1.1H241l-.4 1.1h-.8l1.6-4.1h.8l1.5 4.1zm-1.3-1.6l-.6-1.7c0-.1 0-.1-.1-.3 0 .1 0 .2-.1.3l-.6 1.7h1.4zM247.7 169.4h-.7l-.4-1.1H245l-.4 1.1h-.8l1.6-4.1h.8l1.5 4.1zm-1.3-1.6l-.6-1.7c0-.1 0-.1-.1-.3 0 .1 0 .2-.1.3l-.6 1.7h1.4zM248.1 169.2v-.7l.2.2c.1 0 .2.1.3.1s.2.1.3.1h.3c.3 0 .5 0 .6-.1s.2-.2.2-.4c0-.1 0-.2-.1-.3 0-.1-.1-.1-.2-.2s-.2-.1-.3-.2c-.1-.1-.2-.1-.4-.2-.1-.1-.3-.2-.4-.2l-.3-.3c-.1-.1-.2-.2-.2-.3-.1-.1-.1-.3-.1-.4 0-.2 0-.4.1-.5s.2-.3.3-.4c.1-.1.3-.2.5-.2s.4-.1.6-.1c.4 0 .7 0 .9.1v.7c-.2-.2-.5-.3-.9-.3h-.3c-.1 0-.2.1-.3.1s-.1.1-.2.2c0 .1-.1.2-.1.3s0 .2.1.2.1.1.2.2.2.1.3.2c.1.1.2.1.4.2.1.1.3.2.4.2l.3.3c.1.1.2.2.2.3.1.1.1.3.1.4 0 .2 0 .4-.1.5s-.2.3-.3.4c-.1.1-.3.2-.5.2s-.4.1-.6.1h-.6c-.1 0-.2 0-.3-.1 0 0-.1 0-.1-.1z"/></g><g fill="#686969"><path d="M233.9 190v-.7l.2.2c.1 0 .2.1.3.1s.2.1.3.1h.3c.3 0 .5 0 .6-.1s.2-.2.2-.4c0-.1 0-.2-.1-.3 0-.1-.1-.1-.2-.2s-.2-.1-.3-.2c-.1-.1-.2-.1-.4-.2-.1-.1-.3-.2-.4-.2l-.3-.3c-.1-.1-.2-.2-.2-.3-.1-.1-.1-.3-.1-.4 0-.2 0-.4.1-.5s.2-.3.3-.4c.1-.1.3-.2.5-.2s.4-.1.6-.1c.4 0 .7 0 .9.1v.7c-.2-.2-.5-.3-.9-.3h-.3c-.1 0-.2.1-.3.1s-.1.1-.2.2c0 .1-.1.2-.1.3s0 .2.1.2c0 .1.1.1.2.2s.2.1.3.2c.1.1.2.1.4.2.1.1.3.2.4.2l.3.3c.1.1.2.2.2.3.1.1.1.3.1.4 0 .2 0 .4-.1.5s-.2.3-.3.4c-.1.1-.3.2-.5.2s-.4.1-.6.1h-.6c-.1 0-.2 0-.3-.1.1 0 0 0-.1-.1zM242.5 186.1l-1.1 4.1h-.8l-.8-2.9c0-.1-.1-.3-.1-.4 0 .1 0 .3-.1.4l-.8 2.9h-.8l-1.2-4.1h.8l.8 3c0 .1.1.3.1.4 0-.1 0-.2.1-.4l.8-3h.7l.8 3.1c0 .1 0 .2.1.4 0-.1 0-.2.1-.4l.7-3h.7v-.1zM246.3 190.2h-.8l-.4-1.1h-1.6l-.4 1.1h-.8l1.6-4.1h.8l1.6 4.1zm-1.4-1.6l-.6-1.7c0-.1 0-.1-.1-.3 0 .1 0 .2-.1.3l-.6 1.7h1.4zM250 190.2h-.8l-.7-1.1c-.1-.1-.1-.2-.2-.3l-.2-.2c-.1 0-.1-.1-.2-.1h-.5v1.7h-.7v-4.1h1.4c.2 0 .4 0 .5.1.2 0 .3.1.4.2l.3.3c.1.1.1.3.1.5 0 .1 0 .3-.1.4 0 .1-.1.2-.2.3-.1.1-.2.2-.3.2-.1.1-.2.1-.4.2.1 0 .1.1.2.1l.2.2c0 .1.1.1.1.2s.1.1.2.2l.9 1.2zm-2.5-3.6v1.3H248.4c.1 0 .2-.1.2-.1l.2-.2c0-.1.1-.2.1-.3 0-.2-.1-.4-.2-.5-.1-.1-.3-.2-.5-.2h-.7zM255 190.2h-.7v-2.7-.8c0 .2-.1.3-.1.4l-1.2 3.1h-.5l-1.2-3.1c0-.1-.1-.2-.1-.4v3.5h-.6v-4.1h1l1.1 2.8c.1.2.1.4.2.5.1-.2.1-.4.2-.5l1.1-2.7h.9l-.1 4z"/></g><g fill="#686969"><path d="M211.5 283v1.5h-.7v-4.2h1.3c.5 0 .9.1 1.1.3.3.2.4.5.4.9s-.1.7-.4 1c-.3.3-.6.4-1.1.4h-.6v.1zm0-2.1v1.5h.4c.3 0 .5-.1.7-.2s.2-.3.2-.6c0-.5-.3-.7-.9-.7h-.4zM216 282.1c-.1-.1-.2-.1-.4-.1s-.4.1-.5.3c-.1.2-.2.4-.2.7v1.4h-.7v-3h.7v.6c.1-.2.2-.4.3-.5s.3-.2.5-.2c.1 0 .2 0 .3.1v.7zM216.8 280.9c-.1 0-.2 0-.3-.1s-.1-.2-.1-.3c0-.1 0-.2.1-.3.1-.1.2-.1.3-.1s.2 0 .3.1.1.2.1.3c0 .1 0 .2-.1.3-.1 0-.2.1-.3.1zm.3 3.6h-.7v-3h.7v3zM222.5 284.5h-.7v-1.6c0-.3 0-.5-.1-.7-.1-.1-.2-.2-.4-.2s-.3.1-.4.3c-.1.2-.2.4-.2.6v1.6h-.7v-1.7c0-.6-.2-.8-.6-.8-.2 0-.3.1-.4.2-.1.2-.2.4-.2.6v1.6h-.8v-3h.7v.5c.2-.4.5-.5.9-.5.2 0 .4.1.5.2.2.1.3.3.3.4.2-.4.6-.6 1-.6.7 0 1 .4 1 1.2v1.9h.1zM225.6 284.5h-.7v-.5c-.2.4-.5.5-.9.5-.3 0-.5-.1-.7-.2-.2-.2-.2-.4-.2-.6 0-.6.3-.9 1-1l.9-.1c0-.4-.2-.6-.6-.6-.4 0-.7.1-1 .4v-.6c.3-.2.7-.3 1.1-.3.8 0 1.1.4 1.1 1.1v1.9zm-.7-1.5l-.6.1c-.2 0-.3.1-.4.1-.1.1-.1.2-.1.4 0 .1 0 .2.1.3s.2.1.4.1.4-.1.5-.2.2-.3.2-.5l-.1-.3zM228.1 282.1c-.1-.1-.2-.1-.4-.1s-.4.1-.5.3c-.1.2-.2.4-.2.7v1.4h-.7v-3h.7v.6c.1-.2.2-.4.3-.5s.3-.2.5-.2c.1 0 .2 0 .3.1v.7zM231.4 281.5l-1.3 3.5c-.3.6-.7.9-1.2.9h-.4v-.6c.1 0 .2.1.3.1.3 0 .4-.1.6-.4l.2-.5-1.2-3h.7l.7 2.2s0 .1.1.2c0 0 0-.1.1-.2l.7-2.2h.7zM206.9 291.6v-4.2h1.2c1.5 0 2.3.7 2.3 2 0 .6-.2 1.2-.6 1.6-.4.4-1 .6-1.7.6h-1.2zm.7-3.6v3h.6c.5 0 .9-.1 1.1-.4.3-.3.4-.6.4-1.1 0-1-.5-1.5-1.5-1.5h-.6zM213.4 291.6h-.7v-.5c-.2.4-.5.5-.9.5-.3 0-.5-.1-.7-.2-.2-.2-.2-.4-.2-.6 0-.6.3-.9 1-1l.9-.1c0-.4-.2-.6-.6-.6-.4 0-.7.1-1 .4v-.6c.3-.2.7-.3 1.1-.3.8 0 1.1.4 1.1 1.1v1.9zm-.6-1.5l-.6.1c-.2 0-.3.1-.4.1-.1.1-.1.2-.1.4 0 .1 0 .2.1.3.1.1.2.1.4.1s.4-.1.5-.2.2-.3.2-.5l-.1-.3zM215.8 291.6c-.1.1-.3.1-.5.1-.6 0-.9-.3-.9-.8v-1.7h-.5v-.5h.5v-.7l.7-.2v.9h.7v.5h-.7v1.5c0 .2 0 .3.1.4s.2.1.3.1.2 0 .3-.1v.5zM218.7 291.6h-.7v-.5c-.2.4-.5.5-.9.5-.3 0-.5-.1-.7-.2-.2-.2-.2-.4-.2-.6 0-.6.3-.9 1-1l.9-.1c0-.4-.2-.6-.6-.6-.4 0-.7.1-1 .4v-.6c.3-.2.7-.3 1.1-.3.8 0 1.1.4 1.1 1.1v1.9zm-.7-1.5l-.6.1c-.2 0-.3.1-.4.1-.1.1-.1.2-.1.4 0 .1 0 .2.1.3.1.1.2.1.4.1s.4-.1.5-.2.2-.3.2-.5l-.1-.3zM220.2 291.2v.4h-.7v-4.4h.7v2c.2-.4.6-.6 1-.6s.7.1.9.4.3.6.3 1.1-.1.9-.4 1.2c-.2.3-.6.4-1 .4-.3 0-.6-.2-.8-.5zm0-1.2v.4c0 .2.1.4.2.6.1.2.3.2.5.2.3 0 .4-.1.6-.3.1-.2.2-.5.2-.8s-.1-.5-.2-.7c-.1-.2-.3-.2-.5-.2s-.4.1-.6.3c-.2 0-.2.2-.2.5zM225.3 291.6h-.7v-.5c-.2.4-.5.5-.9.5-.3 0-.5-.1-.7-.2-.2-.2-.2-.4-.2-.6 0-.6.3-.9 1-1l.9-.1c0-.4-.2-.6-.6-.6-.4 0-.7.1-1 .4v-.6c.3-.2.7-.3 1.1-.3.8 0 1.1.4 1.1 1.1v1.9zm-.6-1.5l-.6.1c-.2 0-.3.1-.4.1-.1.1-.1.2-.1.4 0 .1 0 .2.1.3.1.1.2.1.4.1s.4-.1.5-.2.2-.3.2-.5l-.1-.3zM225.9 291.5v-.6c.3.2.5.3.8.3.4 0 .6-.1.6-.4 0-.1 0-.1-.1-.2l-.1-.1c-.1 0-.1-.1-.2-.1s-.2-.1-.3-.1-.2-.1-.3-.2-.2-.1-.2-.2c-.1-.1-.1-.1-.1-.2v-.3c0-.1 0-.3.1-.4l.3-.3c.1-.1.2-.1.4-.2.1 0 .3-.1.5-.1.3 0 .5 0 .7.1v.6c-.2-.1-.4-.2-.7-.2h-.2c-.1 0-.1 0-.2.1l-.1.1V289.4l.1.1c.1 0 .1.1.2.1s.2.1.3.1c.1.1.2.1.3.2s.2.1.3.2l.2.2c0 .1.1.2.1.3 0 .2 0 .3-.1.4l-.3.3c-.1.1-.3.1-.4.2-.2 0-.3.1-.5.1-.5.1-.8 0-1.1-.1zM231.2 290.3h-2c0 .3.1.5.3.6s.4.2.7.2.6-.1.9-.3v.5c-.3.2-.6.3-1.1.3-.4 0-.8-.1-1-.4s-.4-.7-.4-1.1c0-.5.1-.8.4-1.1.3-.3.6-.4 1-.4s.7.1.9.4.3.6.3 1.1v.2zm-.6-.5c0-.2-.1-.4-.2-.6-.1-.1-.3-.2-.5-.2s-.4.1-.5.2-.2.3-.2.6h1.4z"/></g><g fill="#686969"><path d="M257.4 284.3v-.7l.2.2c.1 0 .2.1.3.1.1 0 .2.1.3.1h.3c.3 0 .5 0 .7-.1.1-.1.2-.2.2-.4 0-.1 0-.2-.1-.3 0-.1-.1-.1-.2-.2s-.2-.1-.3-.2c-.1-.1-.2-.1-.4-.2-.1-.1-.3-.2-.4-.2l-.3-.3c-.1-.1-.2-.2-.2-.3-.1-.1-.1-.3-.1-.4 0-.2 0-.4.1-.5s.2-.3.3-.4c.1-.1.3-.2.5-.2s.4-.1.6-.1c.4 0 .8 0 1 .1v.7c-.2-.2-.5-.3-.9-.3h-.3c-.1 0-.2.1-.3.1-.1 0-.1.1-.2.2s-.1.2-.1.3c0 .1 0 .2.1.2 0 .1.1.1.2.2s.2.1.3.2c.1.1.2.1.4.2.1.1.3.2.4.2l.3.3c.1.1.2.2.2.3.1.1.1.3.1.4 0 .2 0 .4-.1.5s-.2.3-.3.4c-.1.1-.3.2-.5.2s-.4.1-.6.1h-.6c-.1 0-.2 0-.3-.1-.1 0-.2-.1-.3-.1zM263.3 283.2h-2c0 .3.1.5.3.6.2.1.4.2.7.2.3 0 .6-.1.9-.3v.5c-.3.2-.6.3-1.1.3-.4 0-.8-.1-1-.4s-.4-.7-.4-1.1c0-.5.1-.8.4-1.1.3-.3.6-.4 1-.4s.7.1.9.4c.2.3.3.6.3 1.1v.2zm-.6-.5c0-.2-.1-.4-.2-.6-.1-.1-.3-.2-.5-.2s-.4.1-.5.2-.2.3-.2.6h1.4zM266.1 284.3c-.2.1-.5.2-.8.2-.4 0-.8-.1-1.1-.4-.3-.3-.4-.6-.4-1.1s.1-.9.4-1.2c.3-.3.7-.4 1.2-.4.3 0 .5 0 .7.1v.6c-.2-.2-.4-.2-.7-.2-.3 0-.5.1-.7.3-.2.2-.3.4-.3.8 0 .3.1.6.3.7s.4.3.7.3c.2 0 .5-.1.7-.3v.6zM268.1 284.5c-.5 0-.8-.1-1.1-.4-.3-.3-.4-.6-.4-1.1s.1-.9.4-1.2c.3-.3.7-.4 1.2-.4s.8.1 1.1.4c.3.3.4.7.4 1.1 0 .5-.1.9-.4 1.1-.4.4-.7.5-1.2.5zm0-2.5c-.3 0-.5.1-.6.3-.2.2-.2.4-.2.8 0 .3.1.6.2.7.2.2.4.3.6.3.3 0 .5-.1.6-.3.1-.2.2-.4.2-.8 0-.3-.1-.6-.2-.8-.1-.2-.3-.2-.6-.2zM273 284.5h-.7v-1.7c0-.6-.2-.8-.6-.8-.2 0-.4.1-.5.2-.1.2-.2.3-.2.6v1.7h-.7v-3h.7v.5c.2-.4.5-.6 1-.6.3 0 .6.1.7.3.2.2.3.5.3.9v1.9zM276.5 284.5h-.7v-.5c-.2.4-.6.6-1 .6s-.7-.1-.9-.4c-.2-.3-.3-.6-.3-1.1s.1-.9.4-1.2c.2-.3.6-.4 1-.4s.7.2.9.5v-1.8h.7v4.3h-.1zm-.7-1.4v-.4c0-.2-.1-.4-.2-.5s-.3-.2-.5-.2c-.3 0-.5.1-.6.3-.1.2-.2.4-.2.8 0 .3.1.5.2.7s.3.3.6.3c.2 0 .4-.1.6-.3.1-.2.1-.4.1-.7zM279.7 284.5h-.7v-.5c-.2.4-.5.5-.9.5-.3 0-.5-.1-.7-.2-.2-.2-.2-.4-.2-.6 0-.6.3-.9 1-1l.9-.1c0-.4-.2-.6-.6-.6s-.7.1-1 .4v-.6c.3-.2.7-.3 1.1-.3.8 0 1.1.4 1.1 1.1v1.9zm-.7-1.5l-.6.1c-.2 0-.3.1-.4.1s-.1.2-.1.4c0 .1 0 .2.1.3.1.1.2.1.4.1s.4-.1.5-.2.2-.3.2-.5v-.3h-.1zM282.2 282.1c-.1-.1-.2-.1-.4-.1s-.4.1-.5.3-.2.4-.2.7v1.4h-.7v-3h.7v.6c.1-.2.2-.4.3-.5.1-.1.3-.2.5-.2.1 0 .2 0 .3.1v.7zM285.5 281.5l-1.3 3.5c-.3.6-.7.9-1.2.9h-.4v-.6c.1 0 .2.1.3.1.3 0 .4-.1.6-.4l.2-.5-1.2-3h.7l.7 2.2s0 .1.1.2c0 0 0-.1.1-.2l.7-2.2h.7zM257.6 291.6v-4.2h1.2c1.5 0 2.3.7 2.3 2 0 .6-.2 1.2-.6 1.6s-1 .6-1.7.6h-1.2zm.7-3.6v3h.6c.5 0 .9-.1 1.1-.4.3-.3.4-.6.4-1.1 0-1-.5-1.5-1.5-1.5h-.6zM264.1 291.6h-.7v-.5c-.2.4-.5.5-.9.5-.3 0-.5-.1-.7-.2-.2-.2-.2-.4-.2-.6 0-.6.3-.9 1-1l.9-.1c0-.4-.2-.6-.6-.6s-.7.1-1 .4v-.6c.3-.2.7-.3 1.1-.3.8 0 1.1.4 1.1 1.1v1.9zm-.6-1.5l-.6.1c-.2 0-.3.1-.4.1-.1.1-.1.2-.1.4 0 .1 0 .2.1.3.1.1.2.1.4.1s.4-.1.5-.2.2-.3.2-.5v-.3h-.1zM266.5 291.6c-.1.1-.3.1-.5.1-.6 0-.9-.3-.9-.8v-1.7h-.5v-.5h.5v-.7l.7-.2v.9h.7v.5h-.7v1.5c0 .2 0 .3.1.4s.2.1.3.1c.1 0 .2 0 .3-.1v.5zM269.4 291.6h-.7v-.5c-.2.4-.5.5-.9.5-.3 0-.5-.1-.7-.2-.2-.2-.2-.4-.2-.6 0-.6.3-.9 1-1l.9-.1c0-.4-.2-.6-.6-.6s-.7.1-1 .4v-.6c.3-.2.7-.3 1.1-.3.8 0 1.1.4 1.1 1.1v1.9zm-.7-1.5l-.6.1c-.2 0-.3.1-.4.1-.1.1-.1.2-.1.4 0 .1 0 .2.1.3.1.1.2.1.4.1s.4-.1.5-.2.2-.3.2-.5v-.3h-.1zM270.9 291.2v.4h-.7v-4.4h.7v2c.2-.4.6-.6 1-.6s.7.1.9.4c.2.3.3.6.3 1.1s-.1.9-.4 1.2c-.2.3-.6.4-1 .4-.3 0-.6-.2-.8-.5zm0-1.2v.4c0 .2.1.4.2.6s.3.2.5.2c.3 0 .4-.1.6-.3.1-.2.2-.5.2-.8s-.1-.5-.2-.7-.3-.2-.5-.2-.4.1-.6.3c-.1 0-.2.2-.2.5zM276 291.6h-.7v-.5c-.2.4-.5.5-.9.5-.3 0-.5-.1-.7-.2-.2-.2-.2-.4-.2-.6 0-.6.3-.9 1-1l.9-.1c0-.4-.2-.6-.6-.6s-.7.1-1 .4v-.6c.3-.2.7-.3 1.1-.3.8 0 1.1.4 1.1 1.1v1.9zm-.6-1.5l-.6.1c-.2 0-.3.1-.4.1-.1.1-.1.2-.1.4 0 .1 0 .2.1.3.1.1.2.1.4.1s.4-.1.5-.2.2-.3.2-.5v-.3h-.1zM276.7 291.5v-.6c.3.2.5.3.8.3.4 0 .6-.1.6-.4 0-.1 0-.1-.1-.2l-.1-.1c-.1 0-.1-.1-.2-.1s-.2-.1-.3-.1c-.1 0-.2-.1-.3-.2-.1-.1-.2-.1-.2-.2-.1-.1-.1-.1-.1-.2v-.3c0-.1 0-.3.1-.4l.3-.3c.1-.1.2-.1.4-.2.1 0 .3-.1.5-.1.3 0 .5 0 .7.1v.6c-.2-.1-.4-.2-.7-.2h-.2c-.1 0-.1 0-.2.1l-.1.1V289.4l.1.1c.1 0 .1.1.2.1s.2.1.3.1c.1.1.2.1.3.2.1.1.2.1.3.2l.2.2c0 .1.1.2.1.3 0 .2 0 .3-.1.4l-.3.3c-.1.1-.3.1-.4.2-.2 0-.3.1-.5.1-.6.1-.9 0-1.1-.1zM281.9 290.3h-2c0 .3.1.5.3.6.2.1.4.2.7.2.3 0 .6-.1.9-.3v.5c-.3.2-.6.3-1.1.3-.4 0-.8-.1-1-.4s-.4-.7-.4-1.1c0-.5.1-.8.4-1.1.3-.3.6-.4 1-.4s.7.1.9.4c.2.3.3.6.3 1.1v.2zm-.6-.5c0-.2-.1-.4-.2-.6s-.3-.2-.5-.2-.4.1-.5.2-.2.3-.2.6h1.4z"/></g><g fill="#686969"><path d="M196.1 273.6h-.7v-2.7-.8c0 .2-.1.3-.1.4l-1.2 3.1h-.5l-1.2-3.1c0-.1-.1-.2-.1-.4v3.5h-.6v-4.2h1l1.1 2.8c.1.2.1.4.2.5.1-.2.1-.4.2-.5l1.1-2.8h.9l-.1 4.2zM200.5 273.6h-.8l-.4-1.1h-1.6l-.4 1.1h-.8l1.6-4.2h.8l1.6 4.2zm-1.3-1.7l-.6-1.7c0-.1 0-.1-.1-.3 0 .1 0 .2-.1.3l-.6 1.7h1.4zM204.3 273.6h-.8l-.7-1.1c-.1-.1-.1-.2-.2-.3l-.2-.2c-.1 0-.1-.1-.2-.1h-.5v1.7h-.7v-4.2h1.4c.2 0 .4 0 .5.1.2 0 .3.1.4.2.1.1.2.2.3.4.1.1.1.3.1.5 0 .1 0 .3-.1.4 0 .1-.1.2-.2.3-.1.1-.2.2-.3.2s-.2.1-.4.2c.1 0 .1.1.2.1l.2.2c.1.1.1.1.1.2s.1.1.2.2l.9 1.2zm-2.5-3.6v1.4H202.7c.1 0 .2-.1.2-.1l.2-.2c0-.1.1-.2.1-.3 0-.2-.1-.4-.2-.5-.1-.1-.3-.2-.5-.2l-.7-.1zM205.5 273.6h-.7v-4.2h.7v4.2zM210 273.6h-.8l-.4-1.1h-1.6l-.4 1.1h-.8l1.6-4.2h.8l1.6 4.2zm-1.4-1.7l-.6-1.7c0-.1 0-.1-.1-.3 0 .1 0 .2-.1.3l-.6 1.7h1.4zM212.2 273.6v-4.2h1.2c1.5 0 2.3.7 2.3 2 0 .6-.2 1.2-.6 1.6-.4.4-1 .6-1.7.6h-1.2zm.7-3.6v3h.6c.5 0 .9-.1 1.1-.4.3-.3.4-.6.4-1.1 0-1-.5-1.5-1.5-1.5h-.6zM216.4 273.6v-4.2h1.3c.4 0 .7.1 1 .3.2.2.4.4.4.7 0 .2-.1.4-.2.6-.1.2-.3.3-.6.4.3 0 .5.1.7.3s.3.4.3.7c0 .4-.1.6-.4.9-.3.2-.6.3-1.1.3h-1.4zm.7-3.7v1.2h.4c.2 0 .4-.1.6-.2.1-.1.2-.3.2-.5 0-.4-.2-.5-.7-.5h-.5zm0 1.8v1.3h.6c.3 0 .5-.1.6-.2s.2-.3.2-.5c0-.4-.3-.6-.9-.6h-.5z"/></g><g fill="#686969"><path d="M273.9 273.6h-.7v-2.7-.8c0 .2-.1.3-.1.4l-1.2 3.1h-.5l-1.2-3.1c0-.1-.1-.2-.1-.4v3.5h-.6v-4.2h1l1.1 2.8c.1.2.1.4.2.5.1-.2.1-.4.2-.5l1.1-2.8h.9l-.1 4.2zM278.4 273.6h-.8l-.4-1.1h-1.6l-.4 1.1h-.8l1.6-4.2h.8l1.6 4.2zm-1.4-1.7l-.6-1.7c0-.1 0-.1-.1-.3 0 .1 0 .2-.1.3l-.6 1.7h1.4zM282.2 273.6h-.8l-.7-1.1c-.1-.1-.1-.2-.2-.3l-.2-.2c-.1 0-.1-.1-.2-.1h-.5v1.7h-.7v-4.2h1.4c.2 0 .4 0 .5.1.2 0 .3.1.4.2s.2.2.3.4c.1.1.1.3.1.5 0 .1 0 .3-.1.4 0 .1-.1.2-.2.3s-.2.2-.3.2c-.1.1-.2.1-.4.2.1 0 .1.1.2.1l.2.2c.1.1.1.1.1.2s.1.1.2.2l.9 1.2zm-2.6-3.6v1.4H280.5c.1 0 .2-.1.2-.1l.2-.2c0-.1.1-.2.1-.3 0-.2-.1-.4-.2-.5s-.3-.2-.5-.2l-.7-.1zM283.4 273.6h-.7v-4.2h.7v4.2zM287.8 273.6h-.8l-.4-1.1H285l-.4 1.1h-.8l1.6-4.2h.8l1.6 4.2zm-1.3-1.7l-.6-1.7c0-.1 0-.1-.1-.3 0 .1 0 .2-.1.3l-.6 1.7h1.4zM290 273.6v-4.2h1.2c1.5 0 2.3.7 2.3 2 0 .6-.2 1.2-.6 1.6s-1 .6-1.7.6H290zm.7-3.6v3h.6c.5 0 .9-.1 1.1-.4.3-.3.4-.6.4-1.1 0-1-.5-1.5-1.5-1.5h-.6zM294.3 273.6v-4.2h1.3c.4 0 .7.1 1 .3.2.2.4.4.4.7 0 .2-.1.4-.2.6s-.3.3-.6.4c.3 0 .5.1.7.3s.3.4.3.7c0 .4-.1.6-.4.9-.3.2-.6.3-1.1.3h-1.4zm.7-3.7v1.2h.4c.2 0 .4-.1.6-.2.1-.1.2-.3.2-.5 0-.4-.2-.5-.7-.5h-.5zm0 1.8v1.3h.6c.3 0 .5-.1.6-.2s.2-.3.2-.5c0-.4-.3-.6-.9-.6h-.5z"/></g><g fill="#686969"><path d="M170.2 261v-4.8h1.4c1.8 0 2.6.8 2.6 2.3 0 .7-.2 1.3-.7 1.8-.5.4-1.1.7-2 .7h-1.3zm.8-4.1v3.4h.6c.6 0 1-.2 1.3-.5s.5-.7.5-1.3c0-1.1-.6-1.7-1.7-1.7h-.7v.1zM175.1 261v-4.8h1.5c.5 0 .8.1 1.1.3.3.2.4.5.4.8s-.1.5-.2.7c-.2.2-.4.3-.6.4.3 0 .6.2.8.4.2.2.3.5.3.8 0 .4-.2.7-.5 1s-.7.4-1.2.4h-1.6zm.8-4.1v1.4h.5c.3 0 .5-.1.6-.2.2-.1.2-.3.2-.6 0-.4-.3-.6-.8-.6h-.5zm0 2v1.5h.7c.3 0 .5-.1.7-.2s.2-.3.2-.6c0-.5-.3-.7-1-.7h-.6zM180.7 256.2v4.9h-.8v-3.9c-.1.1-.3.2-.5.3-.2.1-.3.1-.5.2v-.7c.1 0 .3-.1.4-.1.1 0 .2-.1.4-.2.1-.1.2-.1.4-.2.1-.1.2-.2.4-.2l.2-.1z"/></g><g fill="#686969"><path d="M260.7 261v-4.8h1.4c1.8 0 2.6.8 2.6 2.3 0 .7-.2 1.3-.7 1.8-.5.4-1.1.7-2 .7h-1.3zm.8-4.1v3.4h.6c.6 0 1-.2 1.3-.5s.5-.7.5-1.3c0-1.1-.6-1.7-1.7-1.7h-.7v.1zM265.6 261v-4.8h1.5c.5 0 .8.1 1.1.3.3.2.4.5.4.8s-.1.5-.2.7c-.2.2-.4.3-.6.4.3 0 .6.2.8.4.2.2.3.5.3.8 0 .4-.2.7-.5 1s-.7.4-1.2.4h-1.6zm.8-4.1v1.4h.5c.3 0 .5-.1.6-.2.2-.1.2-.3.2-.6 0-.4-.3-.6-.8-.6h-.5zm0 2v1.5h.7c.3 0 .5-.1.7-.2s.2-.3.2-.6c0-.5-.3-.7-1-.7h-.6zM271.2 256.2v4.9h-.8v-3.9c-.1.1-.3.2-.5.3-.2.1-.3.1-.5.2v-.7c.1 0 .3-.1.4-.1s.2-.1.4-.2c.1-.1.2-.1.4-.2.1-.1.2-.2.4-.2l.2-.1z"/></g><g fill="#686969"><path d="M193.7 261v-4.8h1.4c1.8 0 2.6.8 2.6 2.3 0 .7-.2 1.3-.7 1.8-.5.4-1.1.7-2 .7h-1.3zm.8-4.1v3.4h.6c.6 0 1-.2 1.3-.5s.5-.7.5-1.3c0-1.1-.6-1.7-1.7-1.7h-.7v.1zM198.6 261v-4.8h1.5c.5 0 .8.1 1.1.3.3.2.4.5.4.8s-.1.5-.2.7c-.2.2-.4.3-.6.4.3 0 .6.2.8.4.2.2.3.5.3.8 0 .4-.2.7-.5 1s-.7.4-1.2.4h-1.6zm.8-4.1v1.4h.5c.3 0 .5-.1.6-.2.2-.1.2-.3.2-.6 0-.4-.3-.6-.8-.6h-.5zm0 2v1.5h.7c.3 0 .5-.1.7-.2s.2-.3.2-.6c0-.5-.3-.7-1-.7h-.6zM205.4 261h-3v-.4c0-.2 0-.3.1-.4 0-.1.1-.3.2-.4.1-.1.2-.2.2-.3l.3-.3.3-.3.3-.3.3-.3c.1-.1.2-.2.2-.3.1-.1.1-.2.1-.3v-.3c0-.1 0-.2-.1-.3 0-.1-.1-.2-.2-.2s-.2-.1-.2-.1h-.3c-.2 0-.4 0-.6.1-.2.1-.4.2-.6.4v-.7c.1-.1.2-.1.3-.2s.2-.1.3-.1.2-.1.3-.1h.4c.2 0 .4 0 .6.1.2.1.3.1.4.2.1.1.2.2.3.4.1.2.1.4.1.6s0 .4-.1.5c0 .2-.1.3-.2.4s-.2.3-.3.4-.3.2-.4.4c-.1.1-.3.2-.4.3l-.3.3c-.1.1-.2.2-.2.3-.1.1-.1.2-.1.3h2.2l.1.6z"/></g><g fill="#686969"><path d="M283.3 261v-4.8h1.4c1.8 0 2.6.8 2.6 2.3 0 .7-.2 1.3-.7 1.8-.5.4-1.1.7-2 .7h-1.3zm.7-4.1v3.4h.6c.6 0 1-.2 1.3-.5s.5-.7.5-1.3c0-1.1-.6-1.7-1.7-1.7h-.7v.1zM288.1 261v-4.8h1.5c.5 0 .8.1 1.1.3.3.2.4.5.4.8s-.1.5-.2.7c-.2.2-.4.3-.6.4.3 0 .6.2.8.4.2.2.3.5.3.8 0 .4-.2.7-.5 1s-.7.4-1.2.4h-1.6zm.8-4.1v1.4h.5c.3 0 .5-.1.6-.2.2-.1.2-.3.2-.6 0-.4-.3-.6-.8-.6h-.5zm0 2v1.5h.7c.3 0 .5-.1.7-.2s.2-.3.2-.6c0-.5-.3-.7-1-.7h-.6zM295 261h-3v-.4c0-.2 0-.3.1-.4 0-.1.1-.3.2-.4s.2-.2.2-.3.2-.2.3-.3l.3-.3.3-.3.3-.3c.1-.1.2-.2.2-.3.1-.1.1-.2.1-.3v-.3c0-.1 0-.2-.1-.3s-.1-.2-.2-.2-.2-.1-.2-.1h-.3c-.2 0-.4 0-.6.1s-.4.2-.6.4v-.7c.1-.1.2-.1.3-.2.1-.1.2-.1.3-.1.1 0 .2-.1.3-.1h.4c.2 0 .4 0 .6.1s.3.1.4.2.2.2.3.4c.1.2.1.4.1.6s0 .4-.1.5c0 .2-.1.3-.2.4s-.2.3-.3.4c-.1.1-.3.2-.4.4-.1.1-.3.2-.4.3l-.3.3c-.1.1-.2.2-.2.3-.1.1-.1.2-.1.3h2.2v.6h.1z"/></g><g fill="#686969"><path d="M216.6 261v-4.8h1.4c1.8 0 2.6.8 2.6 2.3 0 .7-.2 1.3-.7 1.8-.5.4-1.1.7-2 .7h-1.3zm.8-4.1v3.4h.6c.6 0 1-.2 1.3-.5s.5-.7.5-1.3c0-1.1-.6-1.7-1.7-1.7h-.7v.1zM221.5 261v-4.8h1.5c.5 0 .8.1 1.1.3.3.2.4.5.4.8s-.1.5-.2.7c-.2.2-.4.3-.6.4.3 0 .6.2.8.4.2.2.3.5.3.8 0 .4-.2.7-.5 1s-.7.4-1.2.4h-1.6zm.8-4.1v1.4h.5c.3 0 .5-.1.6-.2.2-.1.2-.3.2-.6 0-.4-.3-.6-.8-.6h-.5zm0 2v1.5h.7c.3 0 .5-.1.7-.2s.2-.3.2-.6c0-.5-.3-.7-1-.7h-.6zM225.4 260.9v-.7c.3.2.7.4 1.1.4.3 0 .6-.1.8-.2s.3-.3.3-.6c0-.5-.4-.8-1.2-.8h-.4v-.6h.4c.7 0 1.1-.3 1.1-.8s-.3-.7-.9-.7c-.3 0-.6.1-.9.3v-.7c.3-.2.7-.3 1.1-.3.4 0 .8.1 1 .3.3.2.4.5.4.8 0 .6-.3 1-1 1.2.3 0 .6.2.8.4.2.2.3.5.3.8 0 .4-.2.8-.5 1-.3.3-.7.4-1.3.4-.4 0-.8-.1-1.1-.2z"/></g><g fill="#686969"><path d="M306.3 261v-4.8h1.4c1.8 0 2.6.8 2.6 2.3 0 .7-.2 1.3-.7 1.8-.5.4-1.1.7-2 .7h-1.3zm.8-4.1v3.4h.6c.6 0 1-.2 1.3-.5s.5-.7.5-1.3c0-1.1-.6-1.7-1.7-1.7h-.7v.1zM311.2 261v-4.8h1.5c.5 0 .8.1 1.1.3.3.2.4.5.4.8s-.1.5-.2.7c-.2.2-.4.3-.6.4.3 0 .6.2.8.4.2.2.3.5.3.8 0 .4-.2.7-.5 1s-.7.4-1.2.4h-1.6zm.8-4.1v1.4h.5c.3 0 .5-.1.6-.2.2-.1.2-.3.2-.6 0-.4-.3-.6-.8-.6h-.5zm0 2v1.5h.7c.3 0 .5-.1.7-.2s.2-.3.2-.6c0-.5-.3-.7-1-.7h-.6zM315.1 260.9v-.7c.3.2.7.4 1.1.4.3 0 .6-.1.8-.2.2-.1.3-.3.3-.6 0-.5-.4-.8-1.2-.8h-.4v-.6h.4c.7 0 1.1-.3 1.1-.8s-.3-.7-.9-.7c-.3 0-.6.1-.9.3v-.7c.3-.2.7-.3 1.1-.3s.8.1 1 .3c.3.2.4.5.4.8 0 .6-.3 1-1 1.2.3 0 .6.2.8.4s.3.5.3.8c0 .4-.2.8-.5 1-.3.3-.7.4-1.3.4-.4 0-.8-.1-1.1-.2z"/></g><g fill="#010101"><path d="M219.4 96.6h-.9l-.5-1.3h-2l-.4 1.3h-.9l1.9-5.2h1l1.8 5.2zm-1.6-2l-.7-2.1c0-.1 0-.2-.1-.3 0 .1 0 .2-.1.3l-.7 2.1h1.6zM221 94.7v1.9h-.9v-5.2h1.6c.6 0 1.1.1 1.4.4s.5.7.5 1.2-.2.9-.5 1.2c-.3.3-.8.5-1.4.5h-.7zm0-2.6V94h.6c.4 0 .6-.1.8-.3s.3-.4.3-.7c0-.6-.4-.9-1.1-.9h-.6zM225.3 94.7v1.9h-.9v-5.2h1.6c.6 0 1.1.1 1.4.4s.5.7.5 1.2-.2.9-.5 1.2c-.3.3-.8.5-1.4.5h-.7zm0-2.6V94h.6c.4 0 .6-.1.8-.3s.3-.4.3-.7c0-.6-.4-.9-1.1-.9h-.6zM231.7 96.6h-2.9v-5.2h.9v4.5h2v.7zM233.3 96.6h-.9v-5.2h.9v5.2zM238.2 96.4c-.4.2-.9.3-1.5.3-.8 0-1.4-.2-1.8-.7-.5-.5-.7-1.1-.7-1.9s.3-1.5.8-2 1.2-.8 1.9-.8c.5 0 .9.1 1.2.2v.9c-.3-.2-.7-.3-1.2-.3-.6 0-1 .2-1.4.5-.3.4-.5.8-.5 1.4s.2 1 .5 1.4c.3.3.8.5 1.3.5s.9-.1 1.3-.3l.1.8zM243.4 96.6h-.9l-.5-1.3h-2l-.4 1.3h-.9l1.9-5.2h1l1.8 5.2zm-1.6-2l-.7-2.1c0-.1 0-.2-.1-.3 0 .1 0 .2-.1.3l-.7 2.1h1.6zM246.9 92.2h-1.5v4.4h-.9v-4.4H243v-.7h3.8l.1.7zM248.5 96.6h-.9v-5.2h.9v5.2zM252 96.7c-.7 0-1.3-.2-1.8-.7s-.7-1.1-.7-1.9.2-1.5.7-2 1.1-.7 1.9-.7c.7 0 1.3.2 1.8.7.4.5.7 1.1.7 1.9s-.2 1.5-.7 2c-.6.4-1.2.7-1.9.7zm0-4.6c-.5 0-.9.2-1.2.5-.3.4-.4.8-.4 1.4s.1 1 .4 1.4c.3.4.7.5 1.1.5.5 0 .9-.2 1.2-.5s.4-.8.4-1.4-.1-1.1-.4-1.4c-.2-.3-.6-.5-1.1-.5zM259.8 96.6h-.9l-2.5-3.8c-.1-.1-.1-.2-.2-.3v4.1h-.8v-5.2h1l2.4 3.7c.1.2.2.3.2.3v-4h.8v5.2zM266.4 92.2h-1.5v4.4h-.9v-4.4h-1.5v-.7h3.8v.7h.1zM268.1 96.6h-.9v-5.2h.9v5.2zM272.2 96.6h-2.9v-5.2h2.8v.7h-1.9v1.5h1.8v.7h-1.8v1.5h2v.8zM277.2 96.6h-1l-.8-1.4c-.1-.1-.1-.2-.2-.3-.1-.1-.1-.2-.2-.2-.1-.1-.2-.1-.2-.1h-.8v2.1h-.9v-5.2h1.7c.2 0 .5 0 .7.1s.4.1.5.3c.2.1.3.3.4.4.1.2.1.4.1.6s0 .4-.1.5c-.1.2-.1.3-.2.4s-.2.2-.4.3c-.1.1-.3.1-.5.2.1.1.2.1.2.2l.2.2.2.2c.1.1.1.2.2.3l1.1 1.4zm-3.2-4.5v1.7h.7c.1 0 .3 0 .4-.1.1 0 .2-.1.3-.2.1-.1.1-.2.2-.3 0-.1.1-.2.1-.4s-.1-.4-.2-.6c-.2-.1-.4-.2-.7-.2l-.8.1z"/></g><g fill="#010101"><path d="M245.7 78.1c-2.9 0-5.3 2.4-5.3 5.3s2.4 5.3 5.3 5.3 5.3-2.4 5.3-5.3c-.1-3-2.4-5.3-5.3-5.3zm1.3 6.6c-.1.2-.2.3-.3.4s-.3.2-.4.3c-.2.1-.3.1-.5.1s-.4 0-.6-.1c-.2-.1-.3-.2-.5-.4l-.3-.6c-.1-.2-.1-.5-.1-.8 0-.4 0-.7.1-1s.2-.5.4-.7.3-.4.6-.5c.2-.1.4-.2.7-.2h.4c.1 0 .2 0 .3.1v.7c-.1 0-.2-.1-.3-.1s-.2-.1-.4-.1-.3 0-.4.1c-.1.1-.3.2-.4.3-.1.1-.2.3-.2.5-.1.2-.1.4-.1.6.1-.1.2-.2.4-.3.2-.1.3-.1.5-.1s.3 0 .5.1c.1.1.3.1.4.3.1.1.2.2.2.4.1.2.1.3.1.5s-.1.4-.1.5z"/><path d="M246.2 83.6l-.2-.2c-.1 0-.2-.1-.3-.1s-.2 0-.3.1c-.1 0-.2.1-.2.2-.1.1-.1.1-.1.2v.6c0 .1.1.2.1.3.1.1.1.2.2.2.1.1.2.1.3.1s.2 0 .3-.1.2-.1.2-.2c.1-.1.1-.2.1-.3v-.3-.3s0-.1-.1-.2z"/></g><path d="M230.4 188.7h-3.9c-.3 0-.5-.2-.5-.5s.2-.5.5-.5h3.9c.3 0 .5.2.5.5s-.2.5-.5.5z" fill="#686969"/><path d="M227.5 189.9c-.1 0-.3-.1-.4-.2l-1.2-1.2c-.1-.1-.2-.2-.2-.4 0-.1.1-.3.2-.4l1.2-1.2c.2-.2.5-.2.8 0s.2.5 0 .8l-.8.8.8.8c.2.2.2.5 0 .8-.2.2-.3.2-.4.2zM262.5 188.7h-3.9c-.3 0-.5-.2-.5-.5s.2-.5.5-.5h3.9c.3 0 .5.2.5.5s-.2.5-.5.5z" fill="#686969"/><path d="M261.5 189.9c-.1 0-.3-.1-.4-.2-.2-.2-.2-.5 0-.8l.8-.8-.8-.8c-.2-.2-.2-.5 0-.8s.5-.2.8 0l1.2 1.2c.1.1.2.2.2.4s-.1.3-.2.4l-1.2 1.2c-.1.2-.3.2-.4.2z" fill="#686969"/><g fill="#686969"><path d="M183.4 133.8h-.7l-.3-.9H181l-.3.9h-.7l1.3-3.6h.7l1.4 3.6zm-1.1-1.4l-.5-1.4v-.2c0 .1 0 .2-.1.2l-.5 1.4h1.1zM184.5 132.5v1.3h-.6v-3.6h1.1c.4 0 .7.1 1 .3s.3.5.3.8-.1.6-.4.9c-.2.2-.6.3-1 .3h-.4zm0-1.8v1.3h.4c.3 0 .5-.1.6-.2.1-.1.2-.3.2-.5 0-.4-.2-.6-.7-.6h-.5zM187.5 132.5v1.3h-.6v-3.6h1.1c.4 0 .7.1 1 .3s.3.5.3.8-.1.6-.4.9-.6.3-1 .3h-.4zm0-1.8v1.3h.4c.3 0 .5-.1.6-.2.1-.1.2-.3.2-.5 0-.4-.2-.6-.7-.6h-.5zM196.1 133.8h-.7l-.3-.9h-1.4l-.3.9h-.7l1.3-3.6h.7l1.4 3.6zm-1.1-1.4l-.5-1.4v-.2c0 .1 0 .2-.1.2l-.5 1.4h1.1zM197.2 132.5v1.3h-.6v-3.6h1.1c.4 0 .7.1 1 .3s.3.5.3.8-.1.6-.4.9c-.2.2-.6.3-1 .3h-.4zm0-1.8v1.3h.4c.3 0 .5-.1.6-.2.1-.1.2-.3.2-.5 0-.4-.2-.6-.7-.6h-.5zM200.2 132.5v1.3h-.6v-3.6h1.1c.4 0 .7.1 1 .3s.3.5.3.8-.1.6-.4.9c-.2.2-.6.3-1 .3h-.4zm0-1.8v1.3h.4c.3 0 .5-.1.6-.2.1-.1.2-.3.2-.5 0-.4-.2-.6-.7-.6h-.5zM179.7 153.9v-3.6h1.1c.3 0 .6.1.8.2.2.2.3.4.3.6 0 .2-.1.4-.2.5-.1.2-.3.3-.5.3.2 0 .4.1.6.3s.2.4.2.6c0 .3-.1.6-.4.7-.2.2-.5.3-.9.3l-1 .1zm.6-3.2v1h.4c.2 0 .4 0 .5-.1s.2-.2.2-.4c0-.3-.2-.5-.6-.5h-.5zm0 1.5v1.1h.5c.2 0 .4-.1.5-.2s.2-.2.2-.4c0-.4-.3-.6-.8-.6l-.4.1zM183.4 153.9h-.6v-3.6h.6v3.6zM187.3 153.9h-.7l-1.7-2.6c0-.1-.1-.1-.1-.2v2.9h-.6v-3.6h.7l1.7 2.6c.1.1.1.2.1.2v-2.8h.6v3.5zM188 153.7v-.6c.1.1.1.1.2.1s.2.1.2.1.2 0 .3.1h.2c.3 0 .4 0 .6-.1.1-.1.2-.2.2-.4 0-.1 0-.2-.1-.2s-.1-.1-.2-.2-.2-.1-.3-.1-.2-.1-.3-.1c-.1-.1-.2-.1-.3-.2-.1-.1-.2-.1-.3-.2-.1-.1-.1-.2-.2-.3 0-.1-.1-.2-.1-.4s0-.3.1-.4l.3-.3c.1-.1.3-.1.4-.2.2 0 .3-.1.5-.1.4 0 .7 0 .8.1v.6c-.2-.1-.5-.2-.8-.2h-.3c-.1 0-.2 0-.2.1s-.1.1-.2.1c0 .1-.1.1-.1.2s0 .1.1.2c0 .1.1.1.1.2.1 0 .1.1.2.1s.2.1.3.1c.1.1.2.1.4.2.1.1.2.2.3.2.1.1.2.2.2.3s.1.2.1.4 0 .3-.1.5-.2.2-.3.3-.3.1-.4.2c-.2 0-.3.1-.5.1h-.5c-.1 0-.2 0-.3-.1.2 0 .1-.1 0-.1zM192.7 150.2l-1.7 4.2h-.5l1.7-4.2h.5zM195.1 153.9h-2v-3.6h.6v3.1h1.4v.5zM196.3 153.9h-.6v-3.6h.6v3.6zM197.1 153.9v-3.6h1.1c.3 0 .6.1.8.2.2.2.3.4.3.6 0 .2-.1.4-.2.5-.1.2-.3.3-.5.3.2 0 .4.1.6.3s.2.4.2.6c0 .3-.1.6-.4.7-.2.2-.5.3-.9.3l-1 .1zm.6-3.2v1h.4c.2 0 .4 0 .5-.1s.2-.2.2-.4c0-.3-.2-.5-.6-.5h-.5zm0 1.5v1.1h.5c.2 0 .4-.1.5-.2s.2-.2.2-.4c0-.4-.3-.6-.8-.6l-.4.1zM200.1 153.7v-.6c.1.1.1.1.2.1s.2.1.2.1.2 0 .3.1h.2c.3 0 .4 0 .6-.1.1-.1.2-.2.2-.4 0-.1 0-.2-.1-.2 0-.1-.1-.1-.2-.2s-.2-.1-.3-.1-.2-.1-.3-.1c-.1-.1-.2-.1-.3-.2-.1-.1-.2-.1-.3-.2-.1-.1-.1-.2-.2-.3s-.1-.2-.1-.4 0-.3.1-.4l.3-.3c.1-.1.3-.1.4-.2s.3-.1.5-.1c.4 0 .7 0 .8.1v.6c-.2-.1-.5-.2-.8-.2h-.3c-.1 0-.2 0-.2.1s-.1.1-.2.1c0 .1-.1.1-.1.2s0 .1.1.2c0 .1.1.1.1.2.1 0 .1.1.2.1s.2.1.3.1c.1.1.2.1.4.2.1.1.2.2.3.2s.2.2.2.3.1.2.1.4 0 .3-.1.5-.2.2-.3.3-.3.1-.4.2c-.2 0-.3.1-.5.1h-.5c-.1 0-.2 0-.3-.1.1 0 0-.1 0-.1z"/><g><path d="M214.6 133.8h-.7l-.3-.9h-1.4l-.3.9h-.7l1.3-3.6h.7l1.4 3.6zm-1.1-1.4l-.5-1.4v-.2c0 .1 0 .2-.1.2l-.5 1.4h1.1zM215.7 132.5v1.3h-.6v-3.6h1.1c.4 0 .7.1 1 .3s.3.5.3.8-.1.6-.4.9c-.2.2-.6.3-1 .3h-.4zm0-1.8v1.3h.4c.3 0 .5-.1.6-.2.1-.1.2-.3.2-.5 0-.4-.2-.6-.7-.6h-.5zM218.7 132.5v1.3h-.6v-3.6h1.1c.4 0 .7.1 1 .3s.3.5.3.8-.1.6-.4.9c-.2.2-.6.3-1 .3h-.4zm0-1.8v1.3h.4c.3 0 .5-.1.6-.2.1-.1.2-.3.2-.5 0-.4-.2-.6-.7-.6h-.5z"/></g><g><path d="M227.3 133.8h-.7l-.3-.9h-1.4l-.3.9h-.6l1.3-3.6h.7l1.3 3.6zm-1.1-1.4l-.5-1.4v-.2c0 .1 0 .2-.1.2l-.5 1.4h1.1zM228.4 132.5v1.3h-.6v-3.6h1.1c.4 0 .7.1 1 .3s.3.5.3.8-.1.6-.4.9c-.2.2-.6.3-1 .3h-.4zm0-1.8v1.3h.4c.3 0 .5-.1.6-.2.1-.1.2-.3.2-.5 0-.4-.2-.6-.7-.6h-.5zM231.4 132.5v1.3h-.6v-3.6h1.1c.4 0 .7.1 1 .3s.3.5.3.8-.1.6-.4.9c-.2.2-.6.3-1 .3h-.4zm0-1.8v1.3h.4c.3 0 .5-.1.6-.2.1-.1.2-.3.2-.5 0-.4-.2-.6-.7-.6h-.5z"/></g><g><path d="M210.9 153.9v-3.6h1.1c.3 0 .6.1.8.2.2.2.3.4.3.6 0 .2-.1.4-.2.5-.1.2-.3.3-.5.3.2 0 .4.1.6.3.1.2.2.4.2.6 0 .3-.1.6-.4.7-.2.2-.5.3-.9.3l-1 .1zm.5-3.2v1h.4c.2 0 .4 0 .5-.1s.2-.2.2-.4c0-.3-.2-.5-.6-.5h-.5zm0 1.5v1.1h.5c.2 0 .4-.1.5-.2.1-.1.2-.2.2-.4 0-.4-.3-.6-.8-.6l-.4.1zM214.6 153.9h-.6v-3.6h.6v3.6zM218.5 153.9h-.7l-1.7-2.6c0-.1-.1-.1-.1-.2v2.9h-.6v-3.6h.7l1.7 2.6c.1.1.1.2.1.2v-2.8h.6v3.5zM219.2 153.7v-.6c.1.1.1.1.2.1s.2.1.2.1.2 0 .3.1h.2c.3 0 .4 0 .6-.1.1-.1.2-.2.2-.4 0-.1 0-.2-.1-.2 0-.1-.1-.1-.2-.2s-.2-.1-.3-.1-.2-.1-.3-.1c-.1-.1-.2-.1-.3-.2-.1-.1-.2-.1-.3-.2-.1-.1-.1-.2-.2-.3s-.1-.2-.1-.4 0-.3.1-.4l.3-.3c.1-.1.3-.1.4-.2s.3-.1.5-.1c.4 0 .7 0 .8.1v.6c-.2-.1-.5-.2-.8-.2h-.3c-.1 0-.2 0-.2.1s-.1.1-.2.1c0 .1-.1.1-.1.2s0 .1.1.2c0 .1.1.1.1.2.1 0 .1.1.2.1s.2.1.3.1c.1.1.2.1.4.2.1.1.2.2.3.2s.2.2.2.3.1.2.1.4 0 .3-.1.5-.2.2-.3.3-.3.1-.4.2c-.2 0-.3.1-.5.1h-.5c-.1 0-.2 0-.3-.1.2 0 .1-.1 0-.1zM223.9 150.2l-1.7 4.2h-.5l1.7-4.2h.5zM226.3 153.9h-2v-3.6h.6v3.1h1.4v.5zM227.5 153.9h-.6v-3.6h.6v3.6zM228.3 153.9v-3.6h1.1c.3 0 .6.1.8.2.2.2.3.4.3.6 0 .2-.1.4-.2.5-.1.2-.3.3-.5.3.2 0 .4.1.6.3s.2.4.2.6c0 .3-.1.6-.4.7-.2.2-.5.3-.9.3l-1 .1zm.6-3.2v1h.4c.2 0 .4 0 .5-.1s.2-.2.2-.4c0-.3-.2-.5-.6-.5h-.5zm0 1.5v1.1h.5c.2 0 .4-.1.5-.2s.2-.2.2-.4c0-.4-.3-.6-.8-.6l-.4.1zM231.3 153.7v-.6c.1.1.1.1.2.1s.2.1.2.1c.1 0 .2 0 .3.1h.2c.3 0 .4 0 .6-.1.1-.1.2-.2.2-.4 0-.1 0-.2-.1-.2s-.1-.1-.2-.2-.2-.1-.3-.1-.2-.1-.3-.1c-.1-.1-.2-.1-.3-.2s-.2-.1-.3-.2c-.1-.1-.1-.2-.2-.3 0-.1-.1-.2-.1-.4s0-.3.1-.4l.3-.3c.1-.1.3-.1.4-.2.2 0 .3-.1.5-.1.4 0 .7 0 .8.1v.6c-.2-.1-.5-.2-.8-.2h-.3c-.1 0-.2 0-.2.1-.1 0-.1.1-.2.1 0 .1-.1.1-.1.2s0 .1.1.2c0 .1.1.1.1.2.1 0 .1.1.2.1s.2.1.3.1c.1.1.2.1.4.2.1.1.2.2.3.2.1.1.2.2.2.3s.1.2.1.4 0 .3-.1.5l-.3.3c-.1.1-.3.1-.4.2-.2 0-.3.1-.5.1h-.5c-.1 0-.2 0-.3-.1.1 0 0-.1 0-.1z"/></g><g><path d="M259.3 133.8h-.7l-.3-.9h-1.4l-.3.9h-.7l1.3-3.6h.7l1.4 3.6zm-1.1-1.4l-.5-1.4v-.2c0 .1 0 .2-.1.2l-.5 1.4h1.1zM260.4 132.5v1.3h-.6v-3.6h1.1c.4 0 .7.1 1 .3s.3.5.3.8-.1.6-.4.9-.6.3-1 .3h-.4zm0-1.8v1.3h.4c.3 0 .5-.1.6-.2.1-.1.2-.3.2-.5 0-.4-.2-.6-.7-.6h-.5zM263.4 132.5v1.3h-.6v-3.6h1.1c.4 0 .7.1 1 .3s.3.5.3.8-.1.6-.4.9c-.2.2-.6.3-1 .3h-.4zm0-1.8v1.3h.4c.3 0 .5-.1.6-.2.1-.1.2-.3.2-.5 0-.4-.2-.6-.7-.6h-.5z"/></g><g><path d="M272 133.8h-.7l-.3-.9h-1.4l-.3.9h-.7l1.3-3.6h.7l1.4 3.6zm-1.1-1.4l-.5-1.4v-.2c0 .1 0 .2-.1.2l-.5 1.4h1.1zM273.1 132.5v1.3h-.6v-3.6h1.1c.4 0 .7.1 1 .3s.3.5.3.8-.1.6-.4.9-.6.3-1 .3h-.4zm0-1.8v1.3h.4c.3 0 .5-.1.6-.2.1-.1.2-.3.2-.5 0-.4-.2-.6-.7-.6h-.5zM276.1 132.5v1.3h-.6v-3.6h1.1c.4 0 .7.1 1 .3s.3.5.3.8-.1.6-.4.9c-.2.2-.6.3-1 .3h-.4zm0-1.8v1.3h.4c.3 0 .5-.1.6-.2.1-.1.2-.3.2-.5 0-.4-.2-.6-.7-.6h-.5z"/></g><g><path d="M255.6 153.9v-3.6h1.1c.3 0 .6.1.8.2.2.2.3.4.3.6 0 .2-.1.4-.2.5-.1.2-.3.3-.5.3.2 0 .4.1.6.3.1.2.2.4.2.6 0 .3-.1.6-.4.7-.2.2-.5.3-.9.3l-1 .1zm.6-3.2v1h.4c.2 0 .4 0 .5-.1s.2-.2.2-.4c0-.3-.2-.5-.6-.5h-.5zm0 1.5v1.1h.5c.2 0 .4-.1.5-.2s.2-.2.2-.4c0-.4-.3-.6-.8-.6l-.4.1zM259.3 153.9h-.6v-3.6h.6v3.6zM263.3 153.9h-.7l-1.7-2.6c0-.1-.1-.1-.1-.2v2.9h-.6v-3.6h.7l1.7 2.6c.1.1.1.2.1.2v-2.8h.6v3.5zM264 153.7v-.6c.1.1.1.1.2.1s.2.1.2.1c.1 0 .2 0 .3.1h.2c.3 0 .4 0 .6-.1.1-.1.2-.2.2-.4 0-.1 0-.2-.1-.2s-.1-.1-.2-.2-.2-.1-.3-.1c-.1 0-.2-.1-.3-.1-.1-.1-.2-.1-.3-.2s-.2-.1-.3-.2c-.1-.1-.1-.2-.2-.3 0-.1-.1-.2-.1-.4s0-.3.1-.4l.3-.3c.1-.1.3-.1.4-.2s.3-.1.5-.1c.4 0 .7 0 .8.1v.6c-.2-.1-.5-.2-.8-.2h-.3c-.1 0-.2 0-.2.1-.1 0-.1.1-.2.1 0 .1-.1.1-.1.2s0 .1.1.2c0 .1.1.1.1.2.1 0 .1.1.2.1s.2.1.3.1c.1.1.2.1.4.2.1.1.2.2.3.2s.2.2.2.3.1.2.1.4 0 .3-.1.5l-.3.3c-.1.1-.3.1-.4.2s-.3.1-.5.1h-.5c-.1 0-.2 0-.3-.1.1 0 .1-.1 0-.1zM268.7 150.2l-1.7 4.2h-.5l1.7-4.2h.5zM271.1 153.9h-2v-3.6h.6v3.1h1.4v.5zM272.2 153.9h-.6v-3.6h.6v3.6zM273.1 153.9v-3.6h1.1c.3 0 .6.1.8.2.2.2.3.4.3.6 0 .2-.1.4-.2.5-.1.2-.3.3-.5.3.2 0 .4.1.6.3.1.2.2.4.2.6 0 .3-.1.6-.4.7-.2.2-.5.3-.9.3l-1 .1zm.6-3.2v1h.4c.2 0 .4 0 .5-.1s.2-.2.2-.4c0-.3-.2-.5-.6-.5h-.5zm0 1.5v1.1h.5c.2 0 .4-.1.5-.2s.2-.2.2-.4c0-.4-.3-.6-.8-.6l-.4.1zM276 153.7v-.6c.1.1.1.1.2.1s.2.1.2.1c.1 0 .2 0 .3.1h.2c.3 0 .4 0 .6-.1.1-.1.2-.2.2-.4 0-.1 0-.2-.1-.2s-.1-.1-.2-.2-.2-.1-.3-.1c-.1 0-.2-.1-.3-.1-.1-.1-.2-.1-.3-.2-.1-.1-.2-.1-.3-.2-.1-.1-.1-.2-.2-.3 0-.1-.1-.2-.1-.4s0-.3.1-.4l.3-.3c.1-.1.3-.1.4-.2s.3-.1.5-.1c.4 0 .7 0 .8.1v.6c-.2-.1-.5-.2-.8-.2h-.3c-.1 0-.2 0-.2.1-.1 0-.1.1-.2.1 0 .1-.1.1-.1.2s0 .1.1.2c0 .1.1.1.1.2.1 0 .1.1.2.1s.2.1.3.1c.1.1.2.1.4.2.1.1.2.2.3.2s.2.2.2.3.1.2.1.4 0 .3-.1.5l-.3.3c-.1.1-.3.1-.4.2s-.3.1-.5.1h-.5c-.1 0-.2 0-.3-.1.2 0 .1-.1 0-.1z"/></g><g><path d="M290.5 133.8h-.7l-.3-.9h-1.4l-.3.9h-.7l1.3-3.6h.7l1.4 3.6zm-1.2-1.4l-.5-1.4v-.2c0 .1 0 .2-.1.2l-.5 1.4h1.1zM291.6 132.5v1.3h-.6v-3.6h1.1c.4 0 .7.1 1 .3s.3.5.3.8-.1.6-.4.9c-.2.2-.6.3-1 .3h-.4zm0-1.8v1.3h.4c.3 0 .5-.1.6-.2.1-.1.2-.3.2-.5 0-.4-.2-.6-.7-.6h-.5zM294.6 132.5v1.3h-.6v-3.6h1.1c.4 0 .7.1 1 .3s.3.5.3.8-.1.6-.4.9-.6.3-1 .3h-.4zm0-1.8v1.3h.4c.3 0 .5-.1.6-.2.1-.1.2-.3.2-.5 0-.4-.2-.6-.7-.6h-.5z"/></g><g><path d="M303.2 133.8h-.7l-.3-.9h-1.4l-.3.9h-.7l1.3-3.6h.7l1.4 3.6zm-1.2-1.4l-.5-1.4v-.2c0 .1 0 .2-.1.2l-.5 1.4h1.1zM304.3 132.5v1.3h-.6v-3.6h1.1c.4 0 .7.1 1 .3s.3.5.3.8-.1.6-.4.9c-.2.2-.6.3-1 .3h-.4zm0-1.8v1.3h.4c.3 0 .5-.1.6-.2.1-.1.2-.3.2-.5 0-.4-.2-.6-.7-.6h-.5zM307.3 132.5v1.3h-.6v-3.6h1.1c.4 0 .7.1 1 .3.2.2.3.5.3.8s-.1.6-.4.9-.6.3-1 .3h-.4zm0-1.8v1.3h.4c.3 0 .5-.1.6-.2.1-.1.2-.3.2-.5 0-.4-.2-.6-.7-.6h-.5z"/></g><g><path d="M286.8 153.9v-3.6h1.1c.3 0 .6.1.8.2.2.2.3.4.3.6 0 .2-.1.4-.2.5-.1.2-.3.3-.5.3.2 0 .4.1.6.3.1.2.2.4.2.6 0 .3-.1.6-.4.7-.2.2-.5.3-.9.3l-1 .1zm.6-3.2v1h.4c.2 0 .4 0 .5-.1s.2-.2.2-.4c0-.3-.2-.5-.6-.5h-.5zm0 1.5v1.1h.5c.2 0 .4-.1.5-.2s.2-.2.2-.4c0-.4-.3-.6-.8-.6l-.4.1zM290.5 153.9h-.6v-3.6h.6v3.6zM294.5 153.9h-.7l-1.7-2.6c0-.1-.1-.1-.1-.2v2.9h-.6v-3.6h.7l1.7 2.6c.1.1.1.2.1.2v-2.8h.6v3.5zM295.2 153.7v-.6c.1.1.1.1.2.1s.2.1.2.1.2 0 .3.1h.2c.3 0 .4 0 .6-.1.1-.1.2-.2.2-.4 0-.1 0-.2-.1-.2s-.1-.1-.2-.2-.2-.1-.3-.1c-.1 0-.2-.1-.3-.1-.1-.1-.2-.1-.3-.2s-.2-.1-.3-.2c-.1-.1-.1-.2-.2-.3s-.1-.2-.1-.4 0-.3.1-.4l.3-.3c.1-.1.3-.1.4-.2.2 0 .3-.1.5-.1.4 0 .7 0 .8.1v.6c-.2-.1-.5-.2-.8-.2h-.3c-.1 0-.2 0-.2.1s-.1.1-.2.1c0 .1-.1.1-.1.2s0 .1.1.2c0 .1.1.1.1.2.1 0 .1.1.2.1s.2.1.3.1c.1.1.2.1.4.2.1.1.2.2.3.2.1.1.2.2.2.3s.1.2.1.4 0 .3-.1.5l-.3.3c-.1.1-.3.1-.4.2-.2 0-.3.1-.5.1h-.5c-.1 0-.2 0-.3-.1.1 0 0-.1 0-.1zM299.9 150.2l-1.7 4.2h-.5l1.7-4.2h.5zM302.3 153.9h-2v-3.6h.6v3.1h1.4v.5zM303.4 153.9h-.6v-3.6h.6v3.6zM304.3 153.9v-3.6h1.1c.3 0 .6.1.8.2.2.2.3.4.3.6 0 .2-.1.4-.2.5-.1.2-.3.3-.5.3.2 0 .4.1.6.3.1.2.2.4.2.6 0 .3-.1.6-.4.7-.2.2-.5.3-.9.3l-1 .1zm.6-3.2v1h.4c.2 0 .4 0 .5-.1s.2-.2.2-.4c0-.3-.2-.5-.6-.5h-.5zm0 1.5v1.1h.5c.2 0 .4-.1.5-.2.1-.1.2-.2.2-.4 0-.4-.3-.6-.8-.6l-.4.1zM307.2 153.7v-.6c.1.1.1.1.2.1s.2.1.2.1c.1 0 .2 0 .3.1h.2c.3 0 .4 0 .6-.1.1-.1.2-.2.2-.4 0-.1 0-.2-.1-.2s-.1-.1-.2-.2-.2-.1-.3-.1c-.1 0-.2-.1-.3-.1-.1-.1-.2-.1-.3-.2s-.2-.1-.3-.2c-.1-.1-.1-.2-.2-.3 0-.1-.1-.2-.1-.4s0-.3.1-.4l.3-.3c.1-.1.3-.1.4-.2s.3-.1.5-.1c.4 0 .7 0 .8.1v.6c-.2-.1-.5-.2-.8-.2h-.3c-.1 0-.2 0-.2.1-.1 0-.1.1-.2.1 0 .1-.1.1-.1.2s0 .1.1.2c0 .1.1.1.1.2.1 0 .1.1.2.1s.2.1.3.1c.1.1.2.1.4.2.1.1.2.2.3.2s.2.2.2.3.1.2.1.4 0 .3-.1.5l-.3.3c-.1.1-.3.1-.4.2-.2 0-.3.1-.5.1h-.5c-.1 0-.2 0-.3-.1.2 0 .1-.1 0-.1z"/></g></g><path d="M222.7 277h-34.4c-.4 0-.8-.4-.8-.8v-9.7c0-.4.4-.8.8-.8h34.4c.4 0 .8.4.8.8v9.7c0 .4-.4.8-.8.8zm-33.7-1.6h32.8v-8.2H189v8.2z" fill="#686969"/><path d="M368 72.5c-4.3-3.9-10.9-3.5-14.7.8-1.1 1.2-1.9 2.7-2.3 4.1v.1c-.1.4-.2.9-.3 1.3l-3.4 16.7 16.3-5.2c.4-.1.8-.2 1.2-.4h.1c1.4-.6 2.8-1.5 3.9-2.7 3.9-4.2 3.5-10.8-.8-14.7zM384.1 91.3c-3.6-4.5-10.1-5.3-14.7-1.8-1.3 1.1-2.3 2.4-3 3.8l-.1.1-.3.9-6.3 16.1 16.9-2.3c.5 0 1-.1 1.4-.2h.1c1.5-.3 3-1 4.3-2 4.5-3.5 5.2-10.1 1.7-14.6zM396.7 112.7c-2.4-5.2-8.6-7.5-13.8-5.1-1.7.8-3 1.9-4 3.3l-.1.1c-.1.1-.1.2-.2.2l-10.1 14.4 17.5 1.8h.7c1.6.1 3.3-.2 4.8-.9 5.3-2.4 7.6-8.6 5.2-13.8z" fill="#010101"/><path d="M348.1 89.8c-26.2-26.2-60.5-41.2-97.2-42.7v.7c0 .3 0 .6-.1.9 77 3.3 138.5 66.9 138.5 144.6 0 79.8-64.9 144.8-144.8 144.8s-144.7-65-144.7-144.8c0-78.4 62.7-142.5 140.6-144.7 0-.3-.1-.6-.1-.9 0-.2 0-.5.1-.7-37.5 1-72.7 16.1-99.3 42.8-27.6 27.6-42.9 64.4-42.9 103.5s15.2 75.9 42.9 103.5c27.6 27.6 67.1 42.9 103.5 42.9 39.1 0 75.9-15.2 103.5-42.9 27.6-27.6 42.9-64.4 42.9-103.5s-15.3-75.9-42.9-103.5z" fill="#010101"/><g fill="#010101"><path d="M246.5 49.3c-.3.2-.7.4-1.1.4-.4 0-.7-.1-.9-.2v-.6c.3.2.5.3.8.3s.5-.1.7-.2c.1-.1.2-.3.2-.4h-1.6c-1.4 0-2.8 0-4.1.1.4 2.5 2.6 4.4 5.2 4.4s4.7-1.9 5.2-4.3c-1.3-.1-2.6-.1-3.9-.1-.1.2-.3.4-.5.6zM244.7 45.5h2v.6h-1.5l-.1.9c1.9 0 3.8.1 5.7.1-.3-2.6-2.5-4.6-5.2-4.6s-4.9 2-5.2 4.5c1.4 0 2.8-.1 4.1-.1l.2-1.4z"/><path d="M240.5 48.6c1.4 0 2.8-.1 4.1-.1h1.6v-.1c0-.2-.1-.4-.3-.5s-.4-.2-.7-.2h-.7l.1-.8c-1.4 0-2.8 0-4.1.1 0 .2-.1.5-.1.7 0 .3 0 .6.1.9zM245.2 47.1h.4c.4 0 .8.1 1 .3s.4.5.4.9v.2c1.3 0 2.6.1 3.9.1.1-.3.1-.6.1-.9V47c-1.9-.1-3.8-.1-5.7-.1l-.1.2z"/></g><g fill="#010101"><path d="M208.5 67.2l-.9.3-.9-1.1-1.9.6v1.4l-.9.3.2-5.5.9-.3 3.5 4.3zm-2.2-1.4L205 64c0-.1-.1-.2-.2-.3v2.5l1.5-.4zM211.4 61.3l-1.6 4.7 2.7-.8.2.7-3.8 1.1-.1-.4 1.6-4.7-2.5.7-.2-.7 3.7-1.1v.5zM216.8 62.7c.4 1.4-.1 2.3-1.5 2.6-1.3.3-2.1-.2-2.4-1.5l-.8-3.1.8-.2.7 2.9c.3 1 .8 1.4 1.5 1.2s1-.8.7-1.7L215 60l.8-.2 1 2.9zM222.4 63.6l-1 .2-1.1-1.2-.3-.3c-.1-.1-.2-.1-.3-.2-.1 0-.2-.1-.3-.1h-.3l-.3.1.5 2.1-.8.2-1.1-5.1 1.6-.3c.2-.1.5-.1.7-.1s.4.1.6.1c.2.1.3.2.4.4.1.2.2.3.3.6v.5c0 .2-.1.3-.1.4-.1.1-.2.3-.3.4-.1.1-.3.2-.4.3.1 0 .2.1.3.1s.2.1.2.1c.1.1.2.1.2.2.1.1.2.2.3.2l1.2 1.4zm-4.1-3.7l.4 1.6.7-.2c.1 0 .2-.1.3-.1.1-.1.2-.1.2-.2s.1-.2.1-.3v-.4c-.1-.2-.2-.4-.4-.5s-.4-.1-.7-.1l-.6.2zM225.8 63l-2.9.5-.9-5.1 2.7-.5.1.7-1.9.4.3 1.4 1.7-.3.1.7-1.7.3.3 1.5 2-.4.2.8zM231.9 56.8l-1.2 5.4-1 .1-2.5-4.9.9-.1 1.8 3.7c.1.1.1.3.2.4v-.5l.9-3.9.9-.2zM234.2 61.8l-.9.1-.5-5.1.9-.1.5 5.1zM239.4 61.4l-1 .1-.9-1.3c-.1-.1-.2-.2-.2-.3s-.2-.2-.2-.2c-.1-.1-.2-.1-.2-.1h-.6l.2 2.1-.9.1-.4-5.2 1.7-.1h.7c.2 0 .4.1.6.2.2.1.3.2.4.4.1.2.2.4.2.6v.5c0 .1-.1.3-.2.4l-.3.3c-.1.1-.3.2-.5.2.1 0 .2.1.3.2l.2.2.2.2c.1.1.1.2.2.3l.7 1.4zm-3.5-4.2l.1 1.7.7-.1c.1 0 .3 0 .4-.1.1 0 .2-.1.3-.2.1-.1.1-.2.2-.3 0-.1.1-.2 0-.4 0-.2-.1-.4-.3-.6-.2-.1-.4-.2-.7-.2l-.7.2zM242.9 56.8l-1.5.1.2 4.4h-.9l-.2-4.4-1.5.1v-.7l3.8-.1.1.6zM247.8 59.2c0 1.5-.7 2.2-2.1 2.1-1.3 0-2-.7-1.9-2.1V56h.9v3c0 1 .4 1.5 1.2 1.5s1.1-.5 1.2-1.5v-3h.9l-.2 3.2zM253 61.6l-.9-.1-.4-1.3-2-.1-.5 1.3-.9-.1 2.2-5.1 1 .1 1.5 5.3zm-1.5-2.1l-.6-2.1c0-.1 0-.2-.1-.3 0 .1-.1.2-.1.3l-.8 2 1.6.1zM256.5 61.9l-2.9-.3.5-5.2.9.1-.4 4.4 2 .2-.1.8zM263.6 62.9l-.9-.1-1.9-4.1c0-.1-.1-.2-.1-.3 0 .1 0 .3-.1.7l-.5 3.4-.8-.1.8-5.1 1 .1 1.8 4c.1.2.1.3.1.3 0-.1 0-.4.1-.7l.5-3.3.8.1-.8 5.1zM267.7 63.6l-2.9-.5 1-5.1 2.7.5-.1.7-1.9-.4-.3 1.4 1.7.3-.1.7-1.7-.3-.3 1.5 2 .4-.1.8zM272.7 60.2l-1.5-.3-1 4.3-.8-.2 1-4.3-1.4-.3.2-.7 3.7.8-.2.7zM280.2 61.4l-2.7 4.6-.9-.3v-3.8c0-.2 0-.3.1-.5-.1.2-.1.3-.2.5l-1.9 3.3-1-.3-.1-5.4.9.2-.1 3.9c0 .2 0 .3-.1.5 0-.1.1-.3.2-.5l2-3.4.9.2v4.4c0-.1.1-.3.2-.4l1.9-3.4.8.4zM281.5 67.3c-.7-.2-1.2-.6-1.5-1.2s-.3-1.3-.1-2c.3-.8.7-1.4 1.3-1.7.6-.3 1.3-.4 2-.2s1.2.6 1.5 1.2.3 1.3.1 2c-.3.8-.7 1.4-1.3 1.7-.7.4-1.3.4-2 .2zm1.4-4.4c-.5-.1-.9-.1-1.3.2s-.7.6-.8 1.2c-.2.5-.2 1 0 1.5s.5.7.9.8c.5.1.9.1 1.3-.1s.7-.6.8-1.2c.2-.6.2-1.1 0-1.5-.2-.4-.5-.7-.9-.9zM288.5 69.6l-.9-.3-.3-1.6c0-.1-.1-.3-.1-.4s-.1-.2-.1-.3l-.2-.2c-.1-.1-.2-.1-.3-.1l-.3-.1-.7 2-.8-.3 1.7-4.9 1.6.6.6.3c.2.1.3.3.4.4.1.2.2.3.2.5s0 .4-.1.6-.1.3-.2.4-.2.2-.4.3c-.1.1-.3.1-.4.2s-.3 0-.5 0c.1.1.1.2.2.2 0 .1.1.2.1.3 0 .1.1.2.1.3s.1.2.1.3l.3 1.8zm-1.5-5.2l-.6 1.6.7.2c.1 0 .2.1.4.1.1 0 .2 0 .3-.1s.2-.1.3-.2c.1-.1.1-.2.2-.3.1-.2.1-.4 0-.6s-.3-.3-.6-.4l-.7-.3zM292.7 71.2l-1-.4-.8-2.9v-.2l-.9 2.4-.8-.3 1.9-4.8.8.3-.9 2.3s.1-.1.2-.1l2.4-1.5 1 .4-2.8 1.6.9 3.2z"/></g><path d="M300.8 277h-34.4c-.4 0-.8-.4-.8-.8v-9.7c0-.4.4-.8.8-.8h34.4c.4 0 .8.4.8.8v9.7c0 .4-.4.8-.8.8zm-33.7-1.6H300v-8.2h-32.8v8.2h-.1z" fill="#686969"/><g fill="#686969"><path d="M231.1 183.1h8.7v-1.5h-9.4c-.4 0-.7.3-.7.7V194c0 .4.3.7.7.7h9.4v-1.5h-8.7v-10.1zM257.9 183.1v10.2h-8.5v1.5h9.3c.4 0 .7-.3.7-.7v-11.6c0-.4-.3-.7-.7-.7h-9.3v1.5h8.5v-.2zM247.9 173.6h1.5v8.1h-1.5z"/><path d="M316.5 109.4h-67.8c-.4 0-.7.3-.7.7v50.3h1.5v-49.5h66.4V203h-66.4v-8.3H248v9c0 .4.3.7.7.7h67.8c.4 0 .7-.3.7-.7v-93.6c0-.3-.3-.7-.7-.7zM239.8 173.6h1.5v8.1h-1.5z"/><path d="M240.6 109.4h-67.8c-.4 0-.7.3-.7.7v93.6c0 .4.3.7.7.7h67.8c.4 0 .7-.3.7-.7v-9h-1.5v8.3h-66.4v-92.1h66.4v49.5h1.5v-50.3c0-.3-.3-.7-.7-.7z"/><path d="M232.6 172.1v-10.2h7.2v-1.5h-7.9c-.4 0-.7.3-.7.7v11.6c0 .4.3.7.7.7h7.9v-1.5h-7.2v.2zM239.8 172.1h1.5v1.5h-1.5zM239.8 160.4h1.5v1.5h-1.5zM256.5 161.9v10.2h-7.1v1.5h7.8c.4 0 .7-.3.7-.7v-11.6c0-.4-.3-.7-.7-.7h-7.8v1.5h7.1v-.2z"/><path d="M247.9 160.4h1.5v1.5h-1.5zM247.9 172.1h1.5v1.5h-1.5zM247.9 181.6h1.5v1.5h-1.5zM247.9 193.3h1.5v1.5h-1.5zM239.8 193.3h1.5v1.5h-1.5zM239.8 181.6h1.5v1.5h-1.5z"/></g><path d="M238.6 306c-17-.3-38.6-8.8-57.9-22.8S149 253 147.4 239.8c-.1-1 .2-1.9.9-2.7.9-1 2.4-1.6 3.9-1.6h86.3c1.4 0 2.5.9 2.5 2.1v66.3c0 .5-.2 1-.6 1.4-.4.4-1.1.7-1.8.7zm-86.3-69c-1.1 0-2.1.4-2.7 1.1-.3.3-.6.8-.5 1.5 3.2 27.2 54.2 64.1 89.5 64.8.3 0 .6-.1.8-.3.1-.1.1-.2.1-.2v-66.3c0-.2-.4-.5-.9-.5h-86.3v-.1zM251.1 306c-.7 0-1.4-.3-1.9-.7-.4-.4-.6-.9-.6-1.4v-66.3c0-1.2 1.1-2.1 2.5-2.1h86.3c1.5 0 3 .6 3.9 1.6.7.8 1 1.7.9 2.7-1.5 13.2-14 29.5-33.3 43.4-19.1 13.9-40.7 22.5-57.8 22.8.1 0 .1 0 0 0zm0-69c-.5 0-.9.3-.9.5v66.3c0 .1 0 .2.1.2.2.2.5.3.8.3 35.3-.7 86.4-37.6 89.5-64.8.1-.7-.2-1.2-.5-1.5-.6-.7-1.6-1.1-2.7-1.1h-86.3v.1z" fill="#686969"/><path d="M175.5 244c-1.8 0-3.3-.4-3.3-1 0-.5 1.5-1 3.3-1s3.3.4 3.3 1-1.5 1-3.3 1zm-4.6 5.7v1.8c0 .8 1.7 1.8 3.9 1.9h1.5c2.2-.1 3.9-.9 3.9-1.7v-8.4c0-.9-2.1-1.8-4.6-1.8s-4.6.8-4.6 1.8l-.1 6.4zM199.4 244c-1.8 0-3.3-.4-3.3-1 0-.5 1.5-1 3.3-1s3.3.4 3.3 1c-.1.6-1.5 1-3.3 1zm-4.6 5.7v1.8c0 .8 1.7 1.8 3.9 1.9h1.5c2.2-.1 3.9-.9 3.9-1.7v-8.4c0-.9-2.1-1.8-4.6-1.8s-4.6.8-4.6 1.8l-.1 6.4zM222.4 244c-1.8 0-3.3-.4-3.3-1 0-.5 1.5-1 3.3-1s3.3.4 3.3 1-1.5 1-3.3 1zm-4.6 5.7v1.8c0 .8 1.7 1.8 3.9 1.9h1.5c2.2-.1 3.9-.9 3.9-1.7v-8.4c0-.9-2.1-1.8-4.6-1.8s-4.6.8-4.6 1.8l-.1 6.4zM312.1 244c-1.8 0-3.3-.4-3.3-1 0-.5 1.5-1 3.3-1s3.3.4 3.3 1-1.5 1-3.3 1zm-4.6 5.7v1.8c0 .8 1.7 1.8 3.9 1.9h1.5c2.2-.1 3.9-.9 3.9-1.7v-8.4c0-.9-2.1-1.8-4.6-1.8s-4.6.8-4.6 1.8l-.1 6.4zM266 244c-1.8 0-3.3-.4-3.3-1 0-.5 1.5-1 3.3-1s3.3.4 3.3 1-1.5 1-3.3 1zm-4.6 5.7v1.8c0 .8 1.7 1.8 3.9 1.9h1.5c2.2-.1 3.9-.9 3.9-1.7v-8.4c0-.9-2.1-1.8-4.6-1.8s-4.6.8-4.6 1.8l-.1 6.4zM289.1 244c-1.8 0-3.3-.4-3.3-1 0-.5 1.5-1 3.3-1s3.3.4 3.3 1c-.1.6-1.5 1-3.3 1zm-4.6 5.7v1.8c0 .8 1.7 1.8 3.9 1.9h1.5c2.2-.1 3.9-.9 3.9-1.7v-8.4c0-.9-2.1-1.8-4.6-1.8s-4.6.8-4.6 1.8l-.1 6.4z" fill="#686969"/><path d="M244.6 319.8c-33.5 0-65-13-88.7-36.7s-36.7-55.2-36.7-88.7 13-65 36.7-88.7S211.1 69 244.6 69s65 13 88.7 36.7c23.7 23.7 36.7 55.2 36.7 88.7s-13 65-36.7 88.7c-23.7 23.6-55.2 36.7-88.7 36.7zm0-249.3c-68.3 0-123.8 55.6-123.8 123.8s55.6 123.8 123.8 123.8 123.8-55.6 123.8-123.8S312.9 70.5 244.6 70.5z" fill="#010101"/><path d="M310.5 198.6h-41.4c-.4 0-.8-.4-.8-.8v-19.2c0-.4.4-.8.8-.8h41.4c.4 0 .8.4.8.8v19.2c0 .4-.3.8-.8.8zm-40.6-1.6h39.8v-17.6h-39.8V197zM220.7 198.6h-42.1c-.4 0-.8-.4-.8-.8v-19.2c0-.4.4-.8.8-.8h42.1c.4 0 .8.4.8.8v19.2c0 .4-.4.8-.8.8zm-41.3-1.6h40.5v-17.6h-40.5V197z" fill="#686969"/><path d="M230.8 167.9h-3.5c-.6 0-1.1-.5-1.1-1.1s.5-1.1 1.1-1.1h3.5c.6 0 1.1.5 1.1 1.1s-.5 1.1-1.1 1.1zM220.7 167.9H214c-.6 0-1.1-.5-1.1-1.1s.5-1.1 1.1-1.1h6.7c.6 0 1.1.5 1.1 1.1s-.5 1.1-1.1 1.1zm-13.3 0h-6.7c-.6 0-1.1-.5-1.1-1.1s.5-1.1 1.1-1.1h6.7c.6 0 1.1.5 1.1 1.1s-.5 1.1-1.1 1.1zm-13.4 0h-6.7c-.6 0-1.1-.5-1.1-1.1s.5-1.1 1.1-1.1h6.7c.6 0 1.1.5 1.1 1.1s-.5 1.1-1.1 1.1zm-13.3 0H174c-.6 0-1.1-.5-1.1-1.1s.5-1.1 1.1-1.1h6.7c.6 0 1.1.5 1.1 1.1s-.5 1.1-1.1 1.1zm-13.3 0h-6.7c-.6 0-1.1-.5-1.1-1.1s.5-1.1 1.1-1.1h6.7c.6 0 1.1.5 1.1 1.1s-.5 1.1-1.1 1.1zm-13.3 0h-6.7c-.6 0-1.1-.5-1.1-1.1s.5-1.1 1.1-1.1h6.7c.6 0 1.1.5 1.1 1.1s-.5 1.1-1.1 1.1zm-13.3 0h-6.7c-.6 0-1.1-.5-1.1-1.1s.5-1.1 1.1-1.1h6.7c.6 0 1.1.5 1.1 1.1s-.6 1.1-1.1 1.1zM127.4 167.9H124c-.6 0-1.1-.5-1.1-1.1s.5-1.1 1.1-1.1h3.5c.6 0 1.1.5 1.1 1.1s-.6 1.1-1.2 1.1zM365.1 167.9h-3.5c-.6 0-1.1-.5-1.1-1.1s.5-1.1 1.1-1.1h3.5c.6 0 1.1.5 1.1 1.1s-.5 1.1-1.1 1.1zM355 167.9h-6.7c-.6 0-1.1-.5-1.1-1.1s.5-1.1 1.1-1.1h6.7c.6 0 1.1.5 1.1 1.1s-.5 1.1-1.1 1.1zm-13.3 0H335c-.6 0-1.1-.5-1.1-1.1s.5-1.1 1.1-1.1h6.7c.6 0 1.1.5 1.1 1.1s-.5 1.1-1.1 1.1zm-13.3 0h-6.7c-.6 0-1.1-.5-1.1-1.1s.5-1.1 1.1-1.1h6.7c.6 0 1.1.5 1.1 1.1s-.5 1.1-1.1 1.1zm-13.3 0h-6.7c-.6 0-1.1-.5-1.1-1.1s.5-1.1 1.1-1.1h6.7c.6 0 1.1.5 1.1 1.1s-.6 1.1-1.1 1.1zm-13.4 0H295c-.6 0-1.1-.5-1.1-1.1s.5-1.1 1.1-1.1h6.7c.6 0 1.1.5 1.1 1.1s-.5 1.1-1.1 1.1zm-13.3 0h-6.7c-.6 0-1.1-.5-1.1-1.1s.5-1.1 1.1-1.1h6.7c.6 0 1.1.5 1.1 1.1s-.5 1.1-1.1 1.1zm-13.3 0h-6.7c-.6 0-1.1-.5-1.1-1.1s.5-1.1 1.1-1.1h6.7c.6 0 1.1.5 1.1 1.1s-.5 1.1-1.1 1.1zM261.8 167.9h-3.5c-.6 0-1.1-.5-1.1-1.1s.5-1.1 1.1-1.1h3.5c.6 0 1.1.5 1.1 1.1s-.5 1.1-1.1 1.1z" fill="#010101"/><path d="M203.9 116.4v39.7h-25.7v-39.7h25.7m0-2h-25.7c-1.1 0-2 .9-2 2v39.7c0 1.1.9 2 2 2h25.7c1.1 0 2-.9 2-2v-39.7c0-1.1-.9-2-2-2zM235.1 116.4v39.7h-25.7v-39.7h25.7m0-2h-25.7c-1.1 0-2 .9-2 2v39.7c0 1.1.9 2 2 2h25.7c1.1 0 2-.9 2-2v-39.7c0-1.1-.9-2-2-2zM279.8 116.4v39.7h-25.7v-39.7h25.7m0-2h-25.7c-1.1 0-2 .9-2 2v39.7c0 1.1.9 2 2 2h25.7c1.1 0 2-.9 2-2v-39.7c0-1.1-.9-2-2-2zM311 116.4v39.7h-25.7v-39.7H311m0-2h-25.7c-1.1 0-2 .9-2 2v39.7c0 1.1.9 2 2 2H311c1.1 0 2-.9 2-2v-39.7c0-1.1-.9-2-2-2z" fill="#686969"/><path d="M189.1 127.7h-8.9c-.2 0-.4-.1-.5-.3-.1-.2-.1-.4 0-.5l4.5-7.7c.2-.3.7-.3.9 0l4.5 7.7c.1.2.1.4 0 .5-.1.2-.3.3-.5.3zm-7.9-1h7.1l-3.5-6.1-3.6 6.1zM201.9 127.7H193c-.2 0-.4-.1-.5-.3-.1-.2-.1-.4 0-.5l4.5-7.7c.2-.3.7-.3.9 0l4.5 7.7c.1.2.1.4 0 .5-.2.2-.3.3-.5.3zm-8-1h7.1l-3.5-6.1-3.6 6.1zM201.9 147.6h-21.6c-.3 0-.5-.2-.5-.5v-8.6c0-.3.2-.5.5-.5h21.6c.3 0 .5.2.5.5v8.6c0 .3-.2.5-.5.5zm-21.1-1h20.6V139h-20.6v7.6zM220.3 127.7h-8.9c-.2 0-.4-.1-.5-.3-.1-.2-.1-.4 0-.5l4.5-7.7c.2-.3.7-.3.9 0l4.5 7.7c.1.2.1.4 0 .5-.1.2-.3.3-.5.3zm-8-1h7.1l-3.5-6.1-3.6 6.1zM233 127.7h-8.9c-.2 0-.4-.1-.5-.3-.1-.2-.1-.4 0-.5l4.5-7.7c.2-.3.7-.3.9 0l4.5 7.7c.1.2.1.4 0 .5-.1.2-.3.3-.5.3zm-8-1h7.1l-3.5-6.1-3.6 6.1zM233 147.6h-21.6c-.3 0-.5-.2-.5-.5v-8.6c0-.3.2-.5.5-.5H233c.3 0 .5.2.5.5v8.6c.1.3-.2.5-.5.5zm-21.1-1h20.6V139h-20.6v7.6zM265 127.7h-8.9c-.2 0-.4-.1-.5-.3-.1-.2-.1-.4 0-.5l4.5-7.7c.2-.3.7-.3.9 0l4.5 7.7c.1.2.1.4 0 .5-.1.2-.3.3-.5.3zm-8-1h7.1l-3.5-6.1-3.6 6.1zM277.7 127.7h-8.9c-.2 0-.4-.1-.5-.3-.1-.2-.1-.4 0-.5l4.5-7.7c.2-.3.7-.3.9 0l4.5 7.7c.1.2.1.4 0 .5-.1.2-.3.3-.5.3zm-7.9-1h7.1l-3.5-6.1-3.6 6.1zM277.7 147.6h-21.6c-.3 0-.5-.2-.5-.5v-8.6c0-.3.2-.5.5-.5h21.6c.3 0 .5.2.5.5v8.6c.1.3-.2.5-.5.5zm-21.1-1h20.6V139h-20.6v7.6zM296.2 127.7h-8.9c-.2 0-.4-.1-.5-.3-.1-.2-.1-.4 0-.5l4.5-7.7c.2-.3.7-.3.9 0l4.5 7.7c.1.2.1.4 0 .5-.1.2-.3.3-.5.3zm-8-1h7.1l-3.5-6.1-3.6 6.1zM308.9 127.7H300c-.2 0-.4-.1-.5-.3-.1-.2-.1-.4 0-.5l4.5-7.7c.2-.3.7-.3.9 0l4.5 7.7c.1.2.1.4 0 .5-.1.2-.3.3-.5.3zm-8-1h7.1l-3.5-6.1-3.6 6.1z" fill="#686969"/><g><path d="M308.9 147.6h-21.6c-.3 0-.5-.2-.5-.5v-8.6c0-.3.2-.5.5-.5h21.6c.3 0 .5.2.5.5v8.6c0 .3-.2.5-.5.5zm-21.1-1h20.6V139h-20.6v7.6z" fill="#686969"/></g><g fill="#010101"><path d="M194.3 35.4l-2.4-10.9 3.2-.7c4-.9 6.4.5 7.2 4 .4 1.7.1 3.2-.8 4.4-.9 1.3-2.3 2.1-4.2 2.5l-3 .7zm-.3-9.8l1.7 7.9 1.4-.3c1.3-.3 2.2-.8 2.7-1.7.6-.9.7-1.9.4-3.2-.6-2.6-2.2-3.5-4.8-3l-1.4.3zM211.6 31.9l-6.2 1.1-2-11 5.9-1.1.3 1.6-4.1.7.6 3.1 3.8-.7.3 1.5-3.8.7.6 3.3 4.4-.8.2 1.6zM220.6 19.4L218.2 31l-2.1.3-5.4-10.6 2-.3 3.9 8 .3.9c0-.3 0-.6.1-1l1.7-8.8 1.9-.1zM229.8 29.8l-6.3.6-1.1-11.2 6-.6.1 1.6-4.2.4.3 3.2 3.8-.4.1 1.6-3.8.4.3 3.3 4.4-.4.4 1.5zM237.9 29.3l-6.2.3-.7-11.2 1.9-.1.5 9.6 4.3-.2.2 1.6zM243.5 29.4c-1.6 0-2.9-.5-3.9-1.5s-1.5-2.4-1.5-4.1c0-1.8.4-3.2 1.4-4.3s2.3-1.6 4-1.7c1.6 0 2.8.5 3.8 1.5s1.5 2.4 1.5 4.1c0 1.8-.4 3.3-1.4 4.4-.9 1-2.2 1.5-3.9 1.6zm-.1-10c-1 0-1.9.4-2.5 1.2-.6.8-.9 1.8-.9 3s.3 2.2 1 3c.6.8 1.5 1.1 2.5 1.1 1.1 0 1.9-.4 2.5-1.1s.9-1.8.9-3.1-.3-2.4-1-3.1c-.6-.6-1.4-1-2.5-1zM252.8 25.3l-.2 4.1-1.8-.1.5-11.2 3.4.2c1.3.1 2.3.4 2.9 1 .7.6 1 1.5.9 2.6 0 1.1-.5 2-1.2 2.6s-1.8 1-3 .9l-1.5-.1zm.3-5.7l-.2 4.1 1.2.1c.8 0 1.4-.1 1.8-.5s.7-.9.7-1.5c.1-1.3-.7-2-2.2-2.1l-1.3-.1zM272 30.9l-1.8-.2.7-7.2c.1-.6.2-1.3.3-2.2-.2.5-.3.8-.4 1l-4.2 8-1.3-.1-2.5-8.6c-.1-.3-.1-.6-.2-1.1 0 .4-.1 1.2-.2 2.2l-.7 7.2-1.7-.2 1.2-11.1 2.6.3 2.2 7.7c.2.6.3 1 .3 1.3.3-.6.5-1 .6-1.3l3.7-7.1 2.5.3-1.1 11.1zM280.8 32.3l-6.2-1 1.7-11.1 6 .9-.2 1.6-4.1-.6-.5 3.1 3.8.6-.2 1.6-3.8-.6-.5 3.3 4.4.7-.4 1.5zM291.9 34.4l-2-.4-3.6-9.1c-.1-.2-.2-.5-.2-.7 0 .2-.1.8-.2 1.5l-1.4 7.2-1.8-.4 2.2-11 2.1.4 3.5 8.9c.1.4.2.6.3.8 0-.3.1-.8.2-1.5l1.4-7.1 1.8.3-2.3 11.1zM303.8 27.4l-3.1-.8-2.3 9.4-1.8-.4 2.3-9.4-3.1-.8.4-1.5 8.1 2-.5 1.5z"/></g><g><g fill="#FFF"><path d="M100.3 136v-.2l.7-.5c0-.2-.2-.5-.3-.7l-.8.1c-.1-.1-.1-.3-.2-.4l.3-.7c-.2-.2-.3-.4-.6-.4l-.4.3-.2.3-.3.6c.6.3 1 1 1.1 1.8.1 1.3-.8 2.4-2 2.5-1.3.1-2.4-.8-2.5-2-.1-1.2.6-2.2 1.6-2.5l.1-.7-.5-.7c-.2 0-.5.2-.7.3l.1.8c-.1.1-.3.1-.4.2l-.7-.3c-.2.2-.4.3-.4.6l.5.7c-.1.1-.1.2-.2.4l-.8.1c-.1.2 0 .5-.1.7l.7.3v.4l-.7.5c0 .2.2.5.3.7l.8-.1c.1.1.1.3.2.4l-.3.7c.2.2.3.4.6.4l.7-.5c.1.1.2.2.4.2l.1.8c.2.1.5 0 .7.1l.3-.7h.4l.5.7c.2 0 .5-.2.7-.3l-.1-.8c.1-.1.3-.1.4-.2l.7.3c.2-.2.4-.3.4-.6l-.5-.7c.1-.1.2-.2.2-.4l.8-.1c.1-.2 0-.5.1-.7l-.7-.3v-.4z"/><path d="M93.3 140.2c-.3 0-.5-.1-.6-.4 0-.3.1-.5.4-.6.3 0 .5.1.6.4.1.4-.2.6-.4.6zm.8-1.9l-.4.2-.3-.1-.2-.4h-.4v.1l-.1.4-.3.1-.4-.2-.3.3.2.4-.1.3-.4.2v.4h.1l.4.1.1.3-.2.4.3.3.4-.2.3.1.2.4h.4v-.1l.1-.4.2-.1.4.2.3-.3-.2-.4.1-.3.4-.2v-.4h-.1l-.4-.1-.1-.3.2-.4c0-.1-.1-.1-.1-.2l-.1-.1zM94.3 138.5c0 .1.1.1.1.2l-.1-.2zM97.4 132l-.1.4-.1.8-.1.4-.1.3-.5 2.3s0 .1.1.1l.7-.1v.1l-.5 1.7s0 .1 0 0l1.8-2.6v-.1l-.7.1h-.1s-.1 0 0-.1l.6-1.3.2-.3.2-.3.3-.7.2-.4c-.8-.2-1.3-.3-1.9-.3z"/></g><path d="M116 142l-11.8-12.7c-1.3-1.5-2.9-2.5-4.9-3.1-5.5-1.6-11.3 1.5-13 7-1.6 5.5 1.5 11.3 7 13 1.7.5 3.3.6 4.9.3L116 142z" fill="#010101"/><g fill="#FFF"><path d="M101.4 135.2v-.2l.7-.5c0-.2-.2-.5-.3-.7l-.8.2c-.1-.1-.1-.3-.2-.4l.3-.7c-.2-.2-.3-.4-.6-.4l-.4.3-.2.3-.3.6c.5.3 1 1 1.1 1.7.1 1.3-.8 2.4-2 2.5s-2.4-.8-2.5-2c-.1-1.1.6-2.2 1.6-2.5l.1-.7-.5-.7c-.2 0-.5.2-.7.3l.1.8c-.1.1-.3.1-.4.2l-.7-.3c-.2.1-.4.3-.4.6l.5.7c-.1.1-.1.2-.2.4l-.8.1c-.1.2 0 .5-.1.7l.7.3v.4l-.7.5c0 .2.2.5.3.7l.8-.1c.1.1.1.3.2.4l-.3.7c.2.2.3.4.6.4l.7-.5c.1.1.2.2.4.2l.1.8c.2.1.5 0 .7.1l.3-.7h.4l.5.7c.2 0 .5-.2.7-.3l-.1-.8c.1-.1.3-.1.4-.2l.7.3c.2-.2.4-.3.4-.6l-.5-.7c.1-.1.1-.2.2-.4l.8-.1c.1-.2 0-.5.1-.7l-.7-.3c.1-.2.1-.3 0-.4z"/><path d="M94.5 139.5c-.3 0-.5-.1-.6-.4 0-.3.1-.5.4-.6.3 0 .5.1.6.4 0 .4-.1.6-.4.6zm.8-1.8l-.4.2-.2-.1-.2-.4h-.4v.1l-.1.5-.2.1-.4-.2-.3.3.2.4-.1.2-.4.2v.4h.1l.4.1.1.2-.2.4.3.3.4-.2.2.1.2.4h.4v-.1l.1-.4.2-.1.4.2.3-.3-.2-.4.1-.3.4-.2v-.4h-.1l-.4-.1-.1-.2.2-.4c0-.1-.1-.1-.1-.2l-.2-.1z"/><path d="M95.4 137.8c0 .1.1.1.1.2l-.1-.2zM98.5 131.3l-.1.4-.1.8-.1.4-.1.3-.5 2.3s0 .1.1.1l.6-.1v.1l-.5 1.7s0 .1 0 0l1.8-2.6v-.1l-.7.1h-.1s-.1 0 0-.1l.6-1.3.2-.3.2-.3.3-.7.2-.4c-.7-.1-1.2-.2-1.8-.3z"/></g></g><g><g fill="#FFF"><path d="M110.7 108.7c.1-.2.1-.5 0-.7-.1-1.5-1.4-2.7-2.9-2.6-1.1.1-2 .9-2.4 1.9-.3-.4-1-.6-1.5-.6-1 .1-1.8 1-1.7 2.1 0 .2 0 .4.1.5-.9.4-1.4 1.2-1.3 2.1.1 1.3 1.2 2.1 2.5 2l6.9-.5c1.3-.1 2.1-1.1 2-2.4 0-.8-.8-1.6-1.7-1.8zm-1.4 1c-.1.8-.8 1.5-1.6 1.5h-.4c-.1 0-.3-.1-.4-.2l-1.1 1.4c-.1.1-.2.2-.4.2-.1 0-.3 0-.4-.2-.1-.1-.2-.2-.2-.4s0-.3.2-.4l1.1-1.4c-.2-.4-.4-.8-.3-1.3.1-.8.8-1.5 1.6-1.5h.4c.5.1.9.3 1.2.7.2.7.3 1.2.3 1.6z"/><path d="M107.7 108.3h-.3c-.5 0-1 .4-1 .9-.1.3 0 .6.3.9l.3.3c.1.1.2.1.4.2h.3c.5 0 1-.4 1-.9.1-.3 0-.6-.2-.8s-.5-.5-.8-.6z"/></g><path d="M106.4 119.9H124.6l-8.4-15.1c-.8-1.7-2.3-3.2-4-4.4-4.9-2.9-11.3-1.2-14.3 3.7s-1.2 11.3 3.7 14.3c1.5.9 3 1.3 4.6 1.4l.2.1z" fill="#010101"/><g fill="#FFF"><path d="M111.7 108.3c.1-.2.1-.4 0-.7-.1-1.5-1.4-2.6-2.8-2.5-1.1.1-1.9.9-2.3 1.9-.3-.4-1-.6-1.4-.6-1 .1-1.8 1-1.7 2 0 .2 0 .4.1.5-.9.4-1.3 1.2-1.2 2.1.1 1.3 1.2 2.1 2.4 2l6.8-.5c1.2-.1 2.1-1.1 2-2.4-.3-.8-1-1.5-1.9-1.8zm-1.4 1.1c-.1.8-.8 1.4-1.6 1.4h-.4c-.1 0-.3-.1-.4-.2l-1.1 1.3c-.1.1-.2.2-.4.2-.1 0-.3 0-.4-.2-.1-.1-.2-.2-.2-.4 0-.1 0-.3.2-.4l1.1-1.3c-.2-.4-.4-.8-.3-1.3.1-.8.8-1.4 1.6-1.4h.4c.4.1.9.3 1.2.7.2.7.3 1.1.3 1.6z"/><path d="M108.7 108h-.3c-.5 0-.9.4-1 .9-.1.3 0 .6.3.9l.3.3c.1.1.2.1.4.2h.3c.5 0 .9-.4 1-.9.1-.3 0-.6-.2-.8-.2-.3-.5-.5-.8-.6z"/></g></g><g><path d="M123.1 95.3c.4.1.7.3 1.1.4l16 6.2-2.4-17.5c-.2-1.7-1-3.5-2.1-5.1-3.6-4.6-10.1-5.3-14.7-1.7-4.6 3.6-5.3 10.1-1.7 14.7 1 1.4 2.3 2.4 3.8 3z" fill="#010101"/><g fill="#FFF"><path d="M128.5 87.8l-1.3-.1-.3 2.5-1-.1 1.4 2.5 1.9-2.1-1-.1.3-2.6zM126.7 83.8l3 .3-.1.9-3-.3zM126.6 85.1l3 .3-.1.9-3-.3zM126.4 86.4l3 .3-.1.8-3-.3z"/><path d="M128.9 80.7l-3.5-.4c-.1 0-.4 0-.4.4l-.8 6.7 1.3.2.7-5.8 1.7.2-.2 1.7 1.3.2.3-2.7c-.1-.4-.3-.5-.4-.5z"/><path d="M125.6 86.3l-1.3-.2-.4 3c0 .1.4.4.4.5l2.1.2.2-1.3-1.3-.2.3-2zM132.5 86.7h-.4c.1-2.5-.9-3.9-2.6-4.4l-.1 1.2c1.2.5 1.5 1.9 1.4 3.5l-.1.8 1.7.2c.5.1.8.2.7.7l-.1.7-4.2-.5-.2 1.3 5 .6c.1 0 .5-.2.5-.3l.2-1.6c.1-1.4-.8-2.1-1.8-2.2z"/></g></g><g fill="#FFF"><path d="M361 74.7c-2.4 0-4.4.8-4.4 1.7v8c0 .9 2 1.7 4.4 1.7s4.4-.8 4.4-1.7v-8c0-.8-1.9-1.7-4.4-1.7zm-4.3 10.1c0-.1 0 0 0 0zm3.1-5c-.3 0-.4-.1-.4.2v.6c0 .5-.1.8-.4.8.3.1.4.5.4 1v.7c0 .2 0 .2.1.3s.2.1.3.1v.6c-.5 0-.8-.1-1-.3s-.3-.5-.3-.9v-.8c0-.4-.2-.4-.4-.4v-.8c.3 0 .4 0 .4-.4v-.6c0-.4.1-.7.3-.8.2-.2.5-.2 1-.2v.9zm4.3 1.5v.7c-.3 0-.4 0-.4.4v.8c0 .5-.1.8-.3 1-.2.2-.5.3-1 .3v-.6c.1 0 .3 0 .3-.1.1-.1.1-.1.1-.3v-.7c0-.6.1-.9.4-1-.3-.1-.4-.4-.4-.9v-.6c0-.3-.2-.2-.4-.2v-.7c.5 0 .8.1 1 .2.2.2.3.4.3.8v.6c0 .4.1.3.4.3zm-3.1-4.1c-1.7 0-3.1-.4-3.1-.9s1.4-.9 3.1-.9 3.1.4 3.1.9c.1.5-1.3.9-3.1.9zM372.1 93.2c0-.4 1.2-.7 2.7-.7s2.7.3 2.7.7c0 .4-1.2.7-2.7.7-1.5 0-2.7-.3-2.7-.7zm2.4 8.9v-6.4c0-.8 1.2-1.2 3.1-1.2.4 0 .8 0 1.2.1v-1.4c0-.7-1.8-1.2-3.9-1.2-2.2 0-3.9.6-3.9 1.2v8.2c0 .7 1.8 1.2 3.9 1.2h.3c-.5-.1-.7-.3-.7-.5z"/><path d="M377.7 96.6c-1.1 0-1.9-.2-1.9-.5s.9-.5 1.9-.5c1.1 0 1.9.2 1.9.5s-.8.5-1.9.5zm1.7 2.7l-3.5 2.9 1.3-2.2H376l3.5-2.9-1.3 2.2h1.2zm-1.7-4.2c-1.6 0-2.7.4-2.7.9v5.9c0 .5 1.2.9 2.7.9 1.6 0 2.8-.4 2.8-.9V96c0-.5-1.2-.9-2.8-.9z"/><g><path d="M382.6 116.1h10.1l-2.6-2.4v1.2h-7.3v-1c0-.5.2-.9.7-.9h7.5c.5 0 .9.4.9.9v.4l.9.8v-1.2c0-1-.9-1.8-1.8-1.8h-7.5c-1 0-1.6.8-1.6 1.8v2.2h.7zM391.8 116.7h-10.1l2.6 2.4v-1.4h7.6v1.2c0 .5-.5.9-.9.9h-7.5c-.5 0-.7-.5-.7-.9v-.4l-.9-.8v1.2c0 1 .6 1.5 1.6 1.5h1.7l3.7 2.6-.3-2.6h2.4c1 0 1.8-.6 1.8-1.5v-2.1l-1-.1z"/></g></g></svg>