<?xml version="1.0" encoding="utf-8"?>
<!-- Generator: Adobe Illustrator 19.2.0, SVG Export Plug-In . SVG Version: 6.00 Build 0)  -->
<svg version="1.1" id="Layer_1" xmlns="http://www.w3.org/2000/svg" xmlns:xlink="http://www.w3.org/1999/xlink" x="0px" y="0px"
	 width="194px" height="135px" viewBox="0 0 194 135" style="enable-background:new 0 0 194 135;" xml:space="preserve">
<text transform="matrix(1 0 0 1 306 275)" style="font-family:'MyriadPro-Regular'; font-size:12px;">1ebbee</text>
<g>
	
		<line style="fill:none;stroke:#DFDFDE;stroke-width:4;stroke-linecap:round;stroke-linejoin:round;stroke-miterlimit:10;" x1="97.8" y1="-1.7" x2="97.8" y2="69.2"/>
	
		<circle style="fill:none;stroke:#DFDFDE;stroke-width:4;stroke-linecap:round;stroke-linejoin:round;stroke-miterlimit:10;" cx="97.8" cy="74.2" r="5"/>
</g>
<g>
	<path d="M23.9,127.7v-9.8H27c0.9,0,1.7,0.2,2.3,0.6c0.6,0.4,0.8,1,0.8,1.6c0,0.6-0.2,1-0.5,1.4s-0.8,0.7-1.3,0.9v0
		c0.7,0.1,1.2,0.3,1.6,0.7c0.4,0.4,0.6,1,0.6,1.6c0,0.8-0.3,1.5-1,2s-1.5,0.8-2.5,0.8H23.9z M25.5,119.2v2.8h1.1
		c0.6,0,1-0.1,1.3-0.4c0.3-0.3,0.5-0.6,0.5-1.1c0-0.8-0.6-1.3-1.7-1.3H25.5z M25.5,123.3v3.1h1.4c0.6,0,1.1-0.1,1.4-0.4
		c0.3-0.3,0.5-0.7,0.5-1.2c0-1-0.7-1.5-2.1-1.5H25.5z"/>
	<path d="M39.8,123.8c0,2.8-1.3,4.1-3.9,4.1c-2.5,0-3.7-1.3-3.7-4v-6h1.6v5.7c0,1.9,0.7,2.9,2.2,2.9c1.4,0,2.2-0.9,2.2-2.8v-5.8h1.6
		V123.8z"/>
	<path d="M43.8,127.7h-1.7v-9.8h1.7V127.7z"/>
	<path d="M51.7,127.7h-5.4v-9.8h1.6v8.4h3.8V127.7z"/>
	<path d="M53.1,127.7v-9.8h2.8c3.6,0,5.4,1.6,5.4,4.8c0,1.5-0.5,2.7-1.5,3.6c-1,0.9-2.3,1.4-4,1.4H53.1z M54.7,119.3v7H56
		c1.1,0,2-0.3,2.7-0.9c0.6-0.6,1-1.5,1-2.7c0-2.3-1.2-3.4-3.6-3.4H54.7z"/>
	<path d="M72.5,127.7H67v-9.8h5.3v1.4h-3.7v2.8H72v1.4h-3.4v2.9h3.9V127.7z"/>
	<path d="M82.5,127.7h-1.8l-4.7-7.2c-0.1-0.2-0.2-0.4-0.3-0.6h0c0,0.2,0.1,0.7,0.1,1.3v6.4h-1.6v-9.8h1.9l4.5,7
		c0.2,0.3,0.3,0.5,0.4,0.6h0c0-0.3-0.1-0.7-0.1-1.3v-6.3h1.6V127.7z"/>
	<path d="M92.6,117.9l-3.5,9.8h-1.8l-3.5-9.8h1.8l2.4,7.4c0.1,0.2,0.1,0.5,0.2,0.8h0c0-0.3,0.1-0.5,0.2-0.8l2.5-7.4H92.6z"/>
	<path d="M95.6,127.7h-1.7v-9.8h1.7V127.7z"/>
	<path d="M105.6,127.7h-1.9l-1.6-2.6c-0.1-0.2-0.3-0.4-0.4-0.6c-0.1-0.2-0.3-0.3-0.4-0.4c-0.1-0.1-0.3-0.2-0.5-0.2s-0.3-0.1-0.6-0.1
		h-0.7v4H98v-9.8h3.2c0.5,0,0.9,0.1,1.3,0.2s0.7,0.3,1,0.5c0.3,0.2,0.5,0.5,0.7,0.8c0.2,0.3,0.2,0.7,0.2,1.2c0,0.3-0.1,0.7-0.2,1
		c-0.1,0.3-0.2,0.5-0.4,0.8c-0.2,0.2-0.4,0.4-0.7,0.6c-0.3,0.2-0.6,0.3-0.9,0.4v0c0.2,0.1,0.3,0.2,0.5,0.3c0.1,0.1,0.3,0.2,0.4,0.4
		s0.2,0.3,0.4,0.4c0.1,0.2,0.2,0.3,0.4,0.6L105.6,127.7z M99.6,119.2v3.2h1.4c0.3,0,0.5,0,0.7-0.1c0.2-0.1,0.4-0.2,0.6-0.3
		s0.3-0.3,0.4-0.5s0.1-0.4,0.1-0.7c0-0.5-0.1-0.8-0.4-1.1s-0.7-0.4-1.3-0.4H99.6z"/>
	<path d="M110.6,127.9c-1.4,0-2.5-0.5-3.4-1.4c-0.8-0.9-1.3-2.1-1.3-3.6c0-1.6,0.4-2.8,1.3-3.8s2-1.4,3.5-1.4c1.4,0,2.5,0.5,3.3,1.4
		c0.8,0.9,1.3,2.1,1.3,3.6c0,1.6-0.4,2.9-1.3,3.8S112.1,127.9,110.6,127.9z M110.7,119.2c-0.9,0-1.6,0.3-2.2,1
		c-0.6,0.7-0.8,1.6-0.8,2.6c0,1.1,0.3,2,0.8,2.6s1.3,1,2.1,1c0.9,0,1.7-0.3,2.2-1s0.8-1.5,0.8-2.7c0-1.2-0.3-2.1-0.8-2.7
		C112.4,119.5,111.6,119.2,110.7,119.2z"/>
	<path d="M125.5,127.7h-1.8l-4.7-7.2c-0.1-0.2-0.2-0.4-0.3-0.6h0c0,0.2,0.1,0.7,0.1,1.3v6.4h-1.6v-9.8h1.9l4.5,7
		c0.2,0.3,0.3,0.5,0.4,0.6h0c0-0.3-0.1-0.7-0.1-1.3v-6.3h1.6V127.7z"/>
	<path d="M138.4,127.7h-1.6v-6.3c0-0.5,0-1.2,0.1-1.9h0c-0.1,0.4-0.2,0.7-0.3,0.9l-2.9,7.3h-1.1l-2.9-7.3c-0.1-0.2-0.2-0.5-0.3-1h0
		c0,0.4,0.1,1,0.1,1.9v6.3h-1.5v-9.8h2.3l2.6,6.5c0.2,0.5,0.3,0.9,0.4,1.1h0c0.2-0.5,0.3-0.9,0.4-1.1l2.6-6.5h2.2V127.7z"/>
	<path d="M146.4,127.7h-5.5v-9.8h5.3v1.4h-3.7v2.8h3.4v1.4h-3.4v2.9h3.9V127.7z"/>
	<path d="M156.4,127.7h-1.8l-4.7-7.2c-0.1-0.2-0.2-0.4-0.3-0.6h0c0,0.2,0.1,0.7,0.1,1.3v6.4h-1.6v-9.8h1.9l4.5,7
		c0.2,0.3,0.3,0.5,0.4,0.6h0c0-0.3-0.1-0.7-0.1-1.3v-6.3h1.6V127.7z"/>
	<path d="M165.1,119.3h-2.8v8.4h-1.6v-8.4h-2.8v-1.4h7.3V119.3z"/>
	<path d="M166.1,127.3v-1.7c0.2,0.1,0.3,0.3,0.5,0.4c0.2,0.1,0.4,0.2,0.7,0.3c0.2,0.1,0.5,0.1,0.7,0.2s0.4,0.1,0.6,0.1
		c0.7,0,1.2-0.1,1.5-0.3c0.3-0.2,0.5-0.6,0.5-1c0-0.2-0.1-0.4-0.2-0.6c-0.1-0.2-0.3-0.3-0.5-0.5s-0.4-0.3-0.7-0.4
		c-0.3-0.1-0.6-0.3-0.9-0.4c-0.3-0.2-0.6-0.4-0.9-0.5s-0.5-0.4-0.7-0.6c-0.2-0.2-0.4-0.5-0.5-0.7c-0.1-0.3-0.2-0.6-0.2-1
		c0-0.5,0.1-0.9,0.3-1.2c0.2-0.3,0.5-0.6,0.8-0.8c0.3-0.2,0.7-0.4,1.2-0.5c0.4-0.1,0.9-0.2,1.3-0.2c1,0,1.8,0.1,2.2,0.3v1.6
		c-0.6-0.4-1.3-0.6-2.1-0.6c-0.2,0-0.5,0-0.7,0.1c-0.2,0-0.5,0.1-0.6,0.2c-0.2,0.1-0.3,0.2-0.5,0.4s-0.2,0.4-0.2,0.6
		c0,0.2,0,0.4,0.1,0.6s0.2,0.3,0.4,0.4c0.2,0.1,0.4,0.3,0.6,0.4c0.3,0.1,0.5,0.3,0.9,0.4c0.3,0.2,0.7,0.4,1,0.6
		c0.3,0.2,0.6,0.4,0.8,0.6c0.2,0.2,0.4,0.5,0.5,0.8c0.1,0.3,0.2,0.6,0.2,1c0,0.5-0.1,0.9-0.3,1.3s-0.5,0.6-0.8,0.8
		c-0.3,0.2-0.7,0.4-1.2,0.5s-0.9,0.1-1.4,0.1c-0.2,0-0.4,0-0.6,0c-0.2,0-0.5-0.1-0.7-0.1c-0.3,0-0.5-0.1-0.7-0.2
		S166.3,127.4,166.1,127.3z"/>
</g>
<g>
	<path d="M97.8,91.6c-6.1,0-11,4.9-11,11s4.9,11,11,11s11-4.9,11-11S103.9,91.6,97.8,91.6z M99.3,106.4c-0.6,0.5-1.3,0.8-2.3,0.8
		c-0.8,0-1.4-0.1-1.8-0.3v-1.3c0.6,0.4,1.1,0.6,1.7,0.6c0.6,0,1-0.1,1.4-0.4s0.5-0.7,0.5-1.2c0-0.5-0.2-0.8-0.5-1.1
		s-0.9-0.4-1.5-0.4c-0.2,0-0.7,0-1.4,0.1l0.3-4.4h4.1v1.2h-3l-0.1,2.1c0.3,0,0.5,0,0.7,0c0.9,0,1.6,0.2,2.1,0.7s0.7,1.1,0.7,1.9
		C100.1,105.2,99.8,105.9,99.3,106.4z"/>
	<path style="fill:#FFFFFF;" d="M97.3,101.8c-0.2,0-0.5,0-0.7,0l0.1-2.1h3v-1.2h-4.1l-0.3,4.4c0.7,0,1.2-0.1,1.4-0.1
		c0.7,0,1.2,0.1,1.5,0.4s0.5,0.6,0.5,1.1c0,0.5-0.2,0.9-0.5,1.2s-0.8,0.4-1.4,0.4c-0.6,0-1.1-0.2-1.7-0.6v1.3c0.4,0.2,1,0.3,1.8,0.3
		c1,0,1.7-0.3,2.3-0.8s0.8-1.2,0.8-2c0-0.8-0.2-1.4-0.7-1.9S98.2,101.8,97.3,101.8z"/>
</g>
</svg>
