<?xml version="1.0" encoding="utf-8"?>
<!-- Generator: Adobe Illustrator 19.2.0, SVG Export Plug-In . SVG Version: 6.00 Build 0)  -->
<svg version="1.1" id="Layer_1" xmlns="http://www.w3.org/2000/svg" xmlns:xlink="http://www.w3.org/1999/xlink" x="0px" y="0px"
	 width="315px" height="275px" viewBox="0 0 315 275" style="enable-background:new 0 0 315 275;" xml:space="preserve">
<text transform="matrix(1 0 0 1 405.6667 415.6667)" style="font-family:'MyriadPro-Regular'; font-size:12px;">1ebbee</text>
<g>
	
		<line style="fill:none;stroke:#DFDFDE;stroke-width:4;stroke-linecap:round;stroke-linejoin:round;stroke-miterlimit:10;" x1="69.9" y1="263" x2="80.8" y2="263"/>
	
		<circle style="fill:none;stroke:#DFDFDE;stroke-width:4;stroke-linecap:round;stroke-linejoin:round;stroke-miterlimit:10;" cx="85.8" cy="263" r="5"/>
</g>
<g>
	<path d="M113,263.7l1.5,7.2l-3.3,0.7l-4.2-19.9l6-1.3c2.3-0.5,4.2-0.3,5.7,0.5c1.5,0.8,2.4,2.2,2.8,4.1s0.1,3.7-1,5.2s-2.7,2.5-5,3
		L113,263.7z M110.9,253.7l1.5,7.3l2.1-0.4c1.4-0.3,2.4-0.8,3-1.7c0.6-0.8,0.8-1.8,0.5-3c-0.5-2.3-2.1-3.2-4.8-2.7L110.9,253.7z"/>
	<path d="M143.2,265.7l-3.9,0.7l-4.1-4.8c-0.4-0.4-0.7-0.8-1.1-1.1c-0.3-0.3-0.7-0.5-1-0.7c-0.3-0.2-0.7-0.3-1-0.3
		c-0.4,0-0.7,0-1.2,0l-1.3,0.2l1.4,8.2l-3.3,0.6l-3.4-20.1l6.6-1.1c0.9-0.2,1.8-0.2,2.7-0.1c0.8,0.1,1.6,0.3,2.2,0.7
		c0.6,0.4,1.2,0.8,1.7,1.5c0.4,0.6,0.7,1.4,0.9,2.3c0.1,0.7,0.1,1.4,0,2c-0.1,0.6-0.3,1.2-0.6,1.7c-0.3,0.5-0.7,1-1.2,1.4
		c-0.5,0.4-1.1,0.8-1.7,1.1v0.1c0.4,0.1,0.8,0.3,1.1,0.5c0.3,0.2,0.6,0.4,0.9,0.6s0.6,0.5,0.9,0.8c0.3,0.3,0.6,0.6,1,1L143.2,265.7z
		 M128.1,250.4l1.1,6.5l2.8-0.5c0.5-0.1,1-0.2,1.4-0.5c0.4-0.2,0.7-0.5,1-0.9c0.3-0.4,0.5-0.8,0.6-1.2c0.1-0.5,0.1-1,0-1.5
		c-0.2-1-0.6-1.7-1.3-2.1c-0.7-0.4-1.6-0.6-2.8-0.4L128.1,250.4z"/>
	<path d="M153.4,264.8c-2.9,0.3-5.4-0.3-7.3-2c-2-1.7-3.1-4-3.5-7.1c-0.4-3.3,0.2-6,1.8-8.1c1.6-2.1,3.9-3.4,6.9-3.8
		c2.8-0.3,5.2,0.3,7.2,2s3.1,4,3.5,7.1c0.4,3.3-0.2,6-1.7,8.1C158.6,263.2,156.3,264.4,153.4,264.8z M151.4,246.8
		c-1.9,0.2-3.3,1.1-4.3,2.6c-1,1.5-1.4,3.4-1.1,5.7c0.3,2.2,1,4,2.3,5.2c1.3,1.2,2.8,1.7,4.7,1.5c1.9-0.2,3.4-1.1,4.3-2.5
		c1-1.4,1.3-3.3,1-5.7c-0.3-2.4-1.1-4.2-2.3-5.4C154.9,247.1,153.3,246.6,151.4,246.8z"/>
	<path d="M166.6,263l-1.3-20.3l5.9-0.4c7.5-0.5,11.4,2.6,11.9,9.2c0.2,3.1-0.7,5.7-2.6,7.8c-2,2-4.7,3.2-8.2,3.4L166.6,263z
		 M168.8,245.3l0.9,14.6l2.7-0.2c2.4-0.2,4.2-0.9,5.4-2.3c1.2-1.4,1.8-3.3,1.6-5.7c-0.3-4.8-2.9-7-7.8-6.7L168.8,245.3z"/>
	<path d="M202.7,253.4c0.1,5.7-2.6,8.6-8,8.7c-5.2,0.1-7.8-2.6-7.9-8.1l-0.2-12.5l3.4-0.1l0.2,11.8c0.1,4,1.6,6,4.8,5.9
		c3,0,4.5-2,4.4-5.8l-0.2-12l3.4-0.1L202.7,253.4z"/>
	<path d="M221.5,261.7c-1.6,0.7-3.5,1-5.8,0.9c-3-0.1-5.3-1.2-7-3.1s-2.5-4.4-2.3-7.5c0.2-3.3,1.3-5.8,3.4-7.7s4.7-2.8,7.7-2.7
		c2,0.1,3.6,0.4,4.9,1.1l-0.2,3.3c-1.3-0.9-2.8-1.4-4.5-1.4c-2.2-0.1-4,0.5-5.5,1.9c-1.4,1.3-2.2,3.2-2.3,5.5
		c-0.1,2.2,0.5,4.1,1.7,5.4c1.2,1.4,2.9,2.1,4.9,2.2c1.9,0.1,3.6-0.3,5.1-1.1L221.5,261.7z"/>
	<path d="M239.7,246.6l-5.8-0.5l-1.6,17.4l-3.4-0.3l1.6-17.4l-5.8-0.5l0.3-2.9l15,1.4L239.7,246.6z"/>
	<path d="M244.4,264.8l-3.5-0.4l2.5-20.2l3.4,0.4L244.4,264.8z"/>
	<path d="M257.4,267c-2.9-0.5-5.1-1.8-6.5-3.9c-1.4-2.2-1.9-4.7-1.4-7.8c0.5-3.2,1.8-5.7,3.9-7.3c2.1-1.6,4.6-2.2,7.7-1.7
		c2.8,0.5,4.9,1.7,6.4,3.9c1.4,2.1,1.9,4.7,1.4,7.7c-0.5,3.3-1.8,5.7-3.9,7.4C262.8,266.9,260.3,267.5,257.4,267z M260.4,249.2
		c-1.8-0.3-3.4,0.2-4.8,1.3c-1.4,1.1-2.2,2.9-2.6,5.2c-0.4,2.2-0.1,4.1,0.8,5.7c0.9,1.5,2.3,2.5,4.1,2.8c1.9,0.3,3.5-0.1,4.9-1.2
		c1.3-1.1,2.2-2.9,2.5-5.2c0.4-2.4,0.1-4.3-0.7-5.8C263.7,250.4,262.3,249.5,260.4,249.2z"/>
	<path d="M287.5,272.5l-3.6-0.8l-6.4-16.7c-0.2-0.4-0.3-0.8-0.4-1.3H277c0,0.4-0.2,1.4-0.5,2.8l-2.7,13.1l-3.2-0.7l4.2-19.9l3.8,0.8
		l6.2,16.2c0.3,0.7,0.4,1.1,0.5,1.4h0.1c0-0.5,0.2-1.5,0.4-2.7l2.7-12.8l3.2,0.7L287.5,272.5z"/>
</g>
<line style="fill:none;stroke:#DFDFDE;stroke-width:4;stroke-linecap:round;stroke-linejoin:round;stroke-miterlimit:10;" x1="69.9" y1="263" x2="69.9" y2="-8"/>
</svg>
