<?xml version="1.0" encoding="utf-8"?>
<!-- Generator: Adobe Illustrator 19.2.0, SVG Export Plug-In . SVG Version: 6.00 Build 0)  -->
<svg version="1.1" id="Layer_1" xmlns="http://www.w3.org/2000/svg" xmlns:xlink="http://www.w3.org/1999/xlink" x="0px" y="0px"
	 width="960px" height="615.8px" viewBox="0 0 960 615.8" style="enable-background:new 0 0 960 615.8;" xml:space="preserve">
<circle style="fill:#FFFFFF;" cx="459.1" cy="342.5" r="273.3"/>
<path style="fill:#FFFFFF;" d="M582,310.2c-3.4,0-6.2-0.8-6.2-1.9c0-1,2.8-1.8,6.2-1.8s6.1,0.8,6.1,1.8
	C588.1,309.4,585.4,310.2,582,310.2L582,310.2z M573.3,321v3.4c0,1.6,3.1,3.3,7.3,3.6h2.8c4.1-0.3,7.3-1.7,7.3-3.3v-15.9
	c0-1.8-3.9-3.4-8.7-3.4s-8.6,1.6-8.6,3.4L573.3,321L573.3,321L573.3,321L573.3,321z"/>
<g>
	<path style="fill:#FFFFFF;" d="M434.7,250.4v-1.3c0.1,0.1,0.3,0.2,0.4,0.3c0.2,0.1,0.3,0.2,0.5,0.2c0.2,0.1,0.4,0.1,0.6,0.1
		s0.4,0,0.5,0c0.5,0,0.9-0.1,1.2-0.3c0.3-0.2,0.4-0.4,0.4-0.8c0-0.2,0-0.3-0.1-0.5s-0.2-0.3-0.4-0.4c-0.2-0.1-0.3-0.2-0.6-0.3
		s-0.4-0.2-0.7-0.3c-0.3-0.1-0.5-0.3-0.7-0.4c-0.2-0.1-0.4-0.3-0.6-0.5s-0.3-0.4-0.4-0.6c-0.1-0.2-0.1-0.5-0.1-0.8
		c0-0.4,0.1-0.7,0.2-1c0.2-0.3,0.4-0.5,0.7-0.7c0.3-0.2,0.6-0.3,0.9-0.4c0.3-0.1,0.7-0.1,1.1-0.1c0.8,0,1.4,0.1,1.8,0.3v1.3
		c-0.4-0.3-1-0.5-1.7-0.5c-0.2,0-0.4,0-0.6,0.1s-0.4,0.1-0.5,0.2c-0.2,0.1-0.3,0.2-0.4,0.3s-0.1,0.3-0.1,0.5s0,0.3,0.1,0.5
		s0.2,0.2,0.3,0.3c0.1,0.1,0.3,0.2,0.5,0.3s0.4,0.2,0.7,0.3c0.3,0.1,0.5,0.3,0.8,0.4c0.2,0.2,0.5,0.3,0.6,0.5
		c0.2,0.2,0.3,0.4,0.4,0.6c0.1,0.2,0.2,0.5,0.2,0.8c0,0.4-0.1,0.7-0.2,1c-0.2,0.3-0.4,0.5-0.6,0.7c-0.3,0.2-0.6,0.3-0.9,0.4
		s-0.7,0.1-1.1,0.1c-0.1,0-0.3,0-0.5,0s-0.4,0-0.6-0.1s-0.4-0.1-0.6-0.1C435,250.6,434.8,250.5,434.7,250.4z"/>
	<path style="fill:#FFFFFF;" d="M450.8,242.9l-2.1,7.8h-1.5l-1.5-5.5c-0.1-0.2-0.1-0.5-0.1-0.8l0,0c0,0.3-0.1,0.5-0.1,0.8l-1.5,5.5
		h-1.5l-2.2-7.8h1.4l1.4,5.7c0.1,0.2,0.1,0.5,0.1,0.8l0,0c0-0.2,0.1-0.4,0.2-0.8l1.6-5.7h1.3l1.5,5.8c0.1,0.2,0.1,0.4,0.1,0.7l0,0
		c0-0.2,0.1-0.4,0.1-0.7l1.4-5.7h1.4L450.8,242.9L450.8,242.9z"/>
	<path style="fill:#FFFFFF;" d="M457.9,250.7h-1.4l-0.7-2h-3.1l-0.7,2h-1.4l2.9-7.8h1.5L457.9,250.7z M455.4,247.7l-1.1-3.1
		c0-0.1-0.1-0.3-0.1-0.5l0,0c0,0.2-0.1,0.4-0.1,0.5l-1.1,3.1H455.4z"/>
	<path style="fill:#FFFFFF;" d="M465,250.7h-1.5l-1.2-2.1c-0.1-0.2-0.2-0.4-0.3-0.5c-0.1-0.1-0.2-0.2-0.3-0.3
		c-0.1-0.1-0.2-0.2-0.4-0.2c-0.1,0-0.3-0.1-0.4-0.1h-0.5v3.2H459v-7.8h2.6c0.4,0,0.7,0,1,0.1s0.6,0.2,0.8,0.4s0.4,0.4,0.5,0.7
		s0.2,0.6,0.2,0.9c0,0.3,0,0.5-0.1,0.8s-0.2,0.4-0.3,0.6s-0.3,0.3-0.5,0.5c-0.2,0.1-0.5,0.2-0.7,0.3l0,0c0.1,0.1,0.3,0.2,0.4,0.3
		s0.2,0.2,0.3,0.3c0.1,0.1,0.2,0.2,0.3,0.3s0.2,0.3,0.3,0.4L465,250.7z M460.3,244v2.5h1.1c0.2,0,0.4,0,0.6-0.1s0.3-0.2,0.4-0.3
		s0.2-0.3,0.3-0.4c0.1-0.2,0.1-0.4,0.1-0.6c0-0.4-0.1-0.7-0.4-0.9c-0.2-0.2-0.6-0.3-1-0.3h-1.1V244z"/>
	<path style="fill:#FFFFFF;" d="M474.3,250.7H473v-5c0-0.4,0-0.9,0.1-1.5l0,0c-0.1,0.3-0.2,0.6-0.2,0.7l-2.3,5.8h-0.9l-2.3-5.8
		c-0.1-0.2-0.1-0.4-0.2-0.8l0,0c0,0.3,0,0.8,0,1.5v5H466v-7.8h1.8l2.1,5.2c0.2,0.4,0.3,0.7,0.3,0.9l0,0c0.1-0.4,0.2-0.7,0.3-0.9
		l2.1-5.2h1.8L474.3,250.7L474.3,250.7z"/>
</g>
<rect x="463.8" y="237.3" style="fill:none;" width="16.1" height="19.2"/>
<path style="fill:none;" d="M482.7,235.9v21.9c0,0.8-0.6,1.4-1.4,1.4h-17.5v15.6h125V101.3h-125v133.2h17.5
	C482.1,234.5,482.7,235.2,482.7,235.9z"/>
<rect x="448.6" y="237.3" style="fill:none;" width="12.5" height="19.2"/>
<path style="fill:none;" d="M426.6,257.9V236c0-0.8,0.6-1.4,1.4-1.4h17.7V101.3h-125v173.5h125v-15.6H428
	C427.3,259.3,426.6,258.6,426.6,257.9z"/>
<rect x="429.4" y="237.3" style="fill:none;" width="16.3" height="19.2"/>
<rect x="463.8" y="197.4" style="fill:none;" width="13.3" height="19.2"/>
<rect x="432.2" y="197.4" style="fill:none;" width="13.6" height="19.2"/>
<path style="fill:none;" d="M461.6,75.7c-4.9,0-9-3.6-9.8-8.3C305,71.6,186.9,192.3,186.9,340c0,150.4,122.4,272.8,272.8,272.8
	S732.4,490.4,732.4,340c0-146.5-116.1-266.3-261-272.5C470.5,72.2,466.5,75.7,461.6,75.7z"/>
<path style="fill:#010101;" d="M654.6,145c-49.3-49.3-114-77.6-183.2-80.5c0.1,0.4,0.1,0.8,0.1,1.2c0,0.6-0.1,1.2-0.2,1.8
	c145,6.2,261,126,261,272.5c0,150.4-122.4,272.8-272.8,272.8S186.9,490.4,186.9,340c0-147.8,118.1-268.5,264.9-272.6
	c-0.1-0.5-0.1-1.1-0.1-1.6s0-0.9,0.1-1.4c-70.7,2-136.9,30.4-187.1,80.6c-52.1,52.1-80.8,121.3-80.8,195s28.7,142.9,80.8,195
	s121.3,80.8,195,80.8s142.9-28.7,195-80.8s80.8-121.3,80.8-195S706.7,197.1,654.6,145z"/>
<g>
	<path style="fill:#686969;" d="M411.4,170.1v3.5h-1.6v-9.8h3c1.1,0,2,0.3,2.6,0.8s0.9,1.3,0.9,2.2s-0.3,1.7-1,2.3
		c-0.6,0.6-1.5,0.9-2.6,0.9h-1.3V170.1z M411.4,165.3v3.6h1c0.7,0,1.2-0.2,1.6-0.5s0.5-0.8,0.5-1.4c0-1.1-0.7-1.7-2-1.7L411.4,165.3
		L411.4,165.3z"/>
	<path style="fill:#686969;" d="M425,173.7h-1.8l-0.9-2.5h-3.8l-0.8,2.5h-1.8l3.7-9.8h1.8L425,173.7z M421.9,169.9l-1.4-3.9
		c0-0.1-0.1-0.3-0.1-0.6l0,0c0,0.3-0.1,0.5-0.1,0.6l-1.3,3.9H421.9z"/>
	<path style="fill:#686969;" d="M434.3,173.7h-1.8l-0.9-2.5h-3.8l-0.8,2.5h-1.8l3.7-9.8h1.8L434.3,173.7z M431.2,169.9l-1.4-3.9
		c0-0.1-0.1-0.3-0.1-0.6l0,0c0,0.3-0.1,0.5-0.1,0.6l-1.3,3.9H431.2z"/>
	<path style="fill:#686969;" d="M435.2,173.3v-1.7c0.1,0.1,0.3,0.3,0.5,0.4c0.2,0.1,0.4,0.2,0.7,0.3c0.2,0.1,0.5,0.1,0.7,0.2
		c0.2,0,0.4,0.1,0.6,0.1c0.7,0,1.2-0.1,1.5-0.3s0.5-0.6,0.5-1c0-0.2-0.1-0.4-0.2-0.6s-0.3-0.3-0.5-0.5s-0.4-0.3-0.7-0.4
		c-0.3-0.1-0.6-0.3-0.9-0.4c-0.3-0.2-0.6-0.4-0.9-0.5c-0.3-0.2-0.5-0.4-0.7-0.6s-0.4-0.5-0.5-0.7s-0.2-0.6-0.2-1
		c0-0.5,0.1-0.9,0.3-1.2s0.5-0.6,0.8-0.8s0.7-0.4,1.2-0.5s0.9-0.2,1.3-0.2c1,0,1.8,0.1,2.2,0.3v1.6c-0.6-0.4-1.3-0.6-2.1-0.6
		c-0.2,0-0.5,0-0.7,0.1c-0.2,0-0.5,0.1-0.6,0.2s-0.3,0.2-0.5,0.4s-0.2,0.4-0.2,0.6c0,0.2,0,0.4,0.1,0.6c0.1,0.2,0.2,0.3,0.4,0.4
		c0.2,0.1,0.4,0.3,0.6,0.4c0.3,0.1,0.5,0.3,0.9,0.4c0.3,0.2,0.7,0.4,1,0.6c0.3,0.2,0.6,0.4,0.8,0.6c0.2,0.2,0.4,0.5,0.5,0.8
		s0.2,0.6,0.2,1c0,0.5-0.1,0.9-0.3,1.3c-0.2,0.3-0.5,0.6-0.8,0.8s-0.7,0.4-1.2,0.5c-0.4,0.1-0.9,0.1-1.4,0.1c-0.2,0-0.4,0-0.6,0
		s-0.5-0.1-0.7-0.1s-0.5-0.1-0.7-0.2C435.5,173.5,435.3,173.4,435.2,173.3z"/>
	<path style="fill:#686969;" d="M451.1,173.8c-1.4,0-2.5-0.5-3.4-1.4c-0.8-0.9-1.3-2.1-1.3-3.6c0-1.6,0.4-2.8,1.3-3.8
		c0.9-0.9,2-1.4,3.5-1.4c1.4,0,2.5,0.5,3.3,1.4s1.3,2.1,1.3,3.6c0,1.6-0.4,2.8-1.3,3.8C453.7,173.4,452.5,173.8,451.1,173.8z
		 M451.2,165.2c-0.9,0-1.6,0.3-2.2,1s-0.8,1.5-0.8,2.6s0.3,2,0.8,2.6c0.5,0.7,1.3,1,2.1,1c0.9,0,1.7-0.3,2.2-0.9
		c0.5-0.6,0.8-1.5,0.8-2.6c0-1.2-0.3-2.1-0.8-2.7S452.1,165.2,451.2,165.2z"/>
	<path style="fill:#686969;" d="M465.2,163.9l-3.5,9.8h-1.8l-3.4-9.8h1.8l2.4,7.4c0.1,0.2,0.1,0.5,0.2,0.8l0,0
		c0-0.3,0.1-0.5,0.2-0.8l2.5-7.4H465.2z"/>
	<path style="fill:#686969;" d="M472,173.7h-5.5v-9.8h5.3v1.4h-3.6v2.8h3.4v1.4h-3.4v2.9h3.9L472,173.7L472,173.7z"/>
	<path style="fill:#686969;" d="M481.3,173.7h-1.9l-1.6-2.6c-0.1-0.2-0.3-0.4-0.4-0.6s-0.3-0.3-0.4-0.4c-0.1-0.1-0.3-0.2-0.5-0.2
		s-0.3-0.1-0.6-0.1h-0.7v4h-1.6V164h3.2c0.5,0,0.9,0.1,1.3,0.2s0.7,0.3,1,0.5s0.5,0.5,0.7,0.8s0.2,0.7,0.2,1.2
		c0,0.3-0.1,0.7-0.2,0.9c-0.1,0.3-0.2,0.5-0.4,0.8s-0.4,0.4-0.7,0.6c-0.3,0.2-0.6,0.3-0.9,0.4l0,0c0.2,0.1,0.3,0.2,0.5,0.3
		c0.1,0.1,0.3,0.2,0.4,0.4s0.2,0.3,0.3,0.4c0.1,0.2,0.2,0.3,0.4,0.6L481.3,173.7z M475.3,165.2v3.2h1.3c0.2,0,0.5,0,0.7-0.1
		s0.4-0.2,0.5-0.3c0.2-0.1,0.3-0.3,0.4-0.5s0.1-0.4,0.1-0.7c0-0.5-0.1-0.8-0.4-1.1s-0.7-0.4-1.3-0.4L475.3,165.2L475.3,165.2z"/>
	<path style="fill:#686969;" d="M487.9,173.7h-1.7v-9.8h1.7V173.7z"/>
	<path style="fill:#686969;" d="M498.3,173.7h-1.8l-0.9-2.5h-3.8l-0.8,2.5h-1.8l3.7-9.8h1.8L498.3,173.7z M495.2,169.9l-1.4-3.9
		c0-0.1-0.1-0.3-0.1-0.6l0,0c0,0.3-0.1,0.5-0.1,0.6l-1.3,3.9H495.2z"/>
	<path style="fill:#686969;" d="M507.7,173.7h-1.8l-0.9-2.5h-3.8l-0.8,2.5h-1.8l3.7-9.8h1.8L507.7,173.7z M504.6,169.9l-1.4-3.9
		c0-0.1-0.1-0.3-0.1-0.6l0,0c0,0.3-0.1,0.5-0.1,0.6l-1.3,3.9H504.6z"/>
	<path style="fill:#686969;" d="M508.5,173.3v-1.7c0.1,0.1,0.3,0.3,0.5,0.4s0.4,0.2,0.7,0.3s0.5,0.1,0.7,0.2c0.2,0,0.4,0.1,0.6,0.1
		c0.7,0,1.2-0.1,1.5-0.3s0.5-0.6,0.5-1c0-0.2-0.1-0.4-0.2-0.6s-0.3-0.3-0.5-0.5s-0.4-0.3-0.7-0.4c-0.3-0.1-0.6-0.3-0.9-0.4
		c-0.3-0.2-0.6-0.4-0.9-0.5s-0.5-0.4-0.7-0.6s-0.4-0.5-0.5-0.7c-0.1-0.3-0.2-0.6-0.2-1c0-0.5,0.1-0.9,0.3-1.2s0.5-0.6,0.8-0.8
		s0.7-0.4,1.2-0.5c0.4-0.1,0.9-0.2,1.3-0.2c1,0,1.8,0.1,2.2,0.3v1.6c-0.6-0.4-1.3-0.6-2.1-0.6c-0.2,0-0.5,0-0.7,0.1
		c-0.2,0-0.5,0.1-0.6,0.2c-0.2,0.1-0.3,0.2-0.5,0.4c-0.1,0.2-0.2,0.4-0.2,0.6c0,0.2,0,0.4,0.1,0.6c0.1,0.2,0.2,0.3,0.4,0.4
		c0.2,0.1,0.4,0.3,0.6,0.4c0.3,0.1,0.5,0.3,0.9,0.4c0.3,0.2,0.7,0.4,1,0.6c0.3,0.2,0.6,0.4,0.8,0.6c0.2,0.2,0.4,0.5,0.5,0.8
		s0.2,0.6,0.2,1c0,0.5-0.1,0.9-0.3,1.3s-0.5,0.6-0.8,0.8s-0.7,0.4-1.2,0.5c-0.4,0.1-0.9,0.1-1.4,0.1c-0.2,0-0.4,0-0.6,0
		s-0.5-0.1-0.7-0.1c-0.3,0-0.5-0.1-0.7-0.2C508.9,173.5,508.7,173.4,508.5,173.3z"/>
</g>
<g>
	<path style="fill:#686969;" d="M514.4,327.5v-7.8h2.3c2.9,0,4.3,1.3,4.3,3.8c0,1.2-0.4,2.2-1.2,2.9c-0.8,0.7-1.9,1.1-3.2,1.1H514.4
		z M515.7,320.8v5.6h1c0.9,0,1.6-0.3,2.1-0.8s0.8-1.2,0.8-2.1c0-1.8-0.9-2.7-2.8-2.7H515.7z"/>
	<path style="fill:#686969;" d="M525.6,327.6c-1.1,0-2-0.4-2.7-1.1s-1-1.7-1-2.8c0-1.3,0.3-2.3,1-3s1.6-1.1,2.8-1.1
		c1.1,0,2,0.4,2.6,1.1c0.7,0.7,1,1.7,1,2.8c0,1.3-0.3,2.3-1,3C527.7,327.2,526.8,327.6,525.6,327.6z M525.7,320.7
		c-0.7,0-1.3,0.3-1.7,0.8s-0.7,1.2-0.7,2.1s0.2,1.6,0.7,2.1c0.4,0.5,1,0.8,1.7,0.8s1.3-0.3,1.8-0.8c0.4-0.5,0.6-1.2,0.6-2.1
		s-0.2-1.7-0.6-2.2C527,320.9,526.4,320.7,525.7,320.7z"/>
	<path style="fill:#686969;" d="M536.3,327.2c-0.6,0.3-1.3,0.5-2.2,0.5c-1.1,0-2-0.4-2.7-1.1s-1-1.7-1-2.8c0-1.2,0.4-2.3,1.2-3
		c0.8-0.8,1.7-1.2,2.9-1.2c0.8,0,1.4,0.1,1.9,0.3v1.3c-0.5-0.3-1.1-0.5-1.7-0.5c-0.8,0-1.5,0.3-2.1,0.8c-0.5,0.5-0.8,1.3-0.8,2.2
		c0,0.9,0.2,1.5,0.7,2.1s1.1,0.8,1.9,0.8c0.7,0,1.4-0.2,1.9-0.5L536.3,327.2L536.3,327.2z"/>
	<path style="fill:#686969;" d="M543.6,327.5H542l-2.7-3.6c-0.1-0.1-0.2-0.2-0.2-0.3l0,0v3.8h-1.3v-7.8h1.3v3.7l0,0
		c0-0.1,0.1-0.2,0.2-0.3l2.6-3.4h1.6l-3.1,3.7L543.6,327.5z"/>
	<path style="fill:#686969;" d="M548.9,327.5h-4.4v-7.8h4.2v1.1h-2.9v2.2h2.7v1.1h-2.7v2.3h3.1L548.9,327.5L548.9,327.5z"/>
	<path style="fill:#686969;" d="M556.3,327.5h-1.5l-1.2-2.1c-0.1-0.2-0.2-0.4-0.3-0.5s-0.2-0.2-0.3-0.3c-0.1-0.1-0.2-0.2-0.4-0.2
		s-0.3-0.1-0.4-0.1h-0.5v3.2h-1.3v-7.8h2.6c0.4,0,0.7,0,1,0.1s0.6,0.2,0.8,0.4s0.4,0.4,0.5,0.7s0.2,0.6,0.2,0.9s0,0.5-0.1,0.8
		c-0.1,0.2-0.2,0.4-0.3,0.6s-0.3,0.3-0.5,0.5c-0.2,0.1-0.5,0.2-0.7,0.3l0,0c0.1,0.1,0.3,0.2,0.4,0.3c0.1,0.1,0.2,0.2,0.3,0.3
		c0.1,0.1,0.2,0.2,0.3,0.3c0.1,0.1,0.2,0.3,0.3,0.4L556.3,327.5z M551.6,320.7v2.5h1.1c0.2,0,0.4,0,0.6-0.1c0.2-0.1,0.3-0.2,0.4-0.3
		c0.1-0.1,0.2-0.3,0.3-0.4s0.1-0.4,0.1-0.6c0-0.4-0.1-0.7-0.4-0.9c-0.2-0.2-0.6-0.3-1-0.3L551.6,320.7L551.6,320.7z"/>
	<path style="fill:#686969;" d="M566.4,319.7l-2.8,7.8h-1.4l-2.8-7.8h1.4l1.9,5.9c0.1,0.2,0.1,0.4,0.1,0.7l0,0
		c0-0.2,0.1-0.4,0.2-0.7l2-5.9H566.4z"/>
	<path style="fill:#686969;" d="M575.8,327.5h-1.3v-5c0-0.4,0-0.9,0.1-1.5l0,0c-0.1,0.3-0.2,0.6-0.2,0.7l-2.3,5.8h-0.9l-2.3-5.8
		c-0.1-0.2-0.1-0.4-0.2-0.8l0,0c0,0.3,0,0.8,0,1.5v5h-1.2v-7.8h1.8l2.1,5.2c0.2,0.4,0.3,0.7,0.3,0.9l0,0c0.1-0.4,0.2-0.7,0.3-0.9
		l2.1-5.2h1.8L575.8,327.5L575.8,327.5z"/>
	<path style="fill:#686969;" d="M520.6,340.8h-4.4V333h4.2v1.1h-2.9v2.2h2.7v1.1h-2.7v2.3h3.1L520.6,340.8L520.6,340.8z"/>
	<path style="fill:#686969;" d="M527.9,340.8h-1.5l-1.6-2.9c0-0.1-0.1-0.2-0.2-0.4l0,0c0,0.1-0.1,0.2-0.2,0.4l-1.6,2.9h-1.6l2.6-3.9
		l-2.4-3.9h1.6l1.4,2.6c0.1,0.2,0.2,0.3,0.2,0.5l0,0c0.1-0.2,0.2-0.4,0.3-0.5l1.5-2.6h1.5l-2.4,3.9L527.9,340.8z"/>
	<path style="fill:#686969;" d="M534.2,334.1H532v6.7h-1.3v-6.7h-2.2V333h5.8L534.2,334.1L534.2,334.1z"/>
	<path style="fill:#686969;" d="M539.7,340.8h-4.4V333h4.2v1.1h-2.9v2.2h2.7v1.1h-2.7v2.3h3.1L539.7,340.8L539.7,340.8z"/>
	<path style="fill:#686969;" d="M547.7,340.8h-1.4l-3.7-5.7c-0.1-0.1-0.2-0.3-0.2-0.5l0,0c0,0.2,0,0.5,0,1.1v5.1h-1.3V333h1.5
		l3.6,5.6c0.2,0.2,0.3,0.4,0.3,0.5l0,0c0-0.2-0.1-0.6-0.1-1v-5h1.2v7.7L547.7,340.8L547.7,340.8z"/>
	<path style="fill:#686969;" d="M549.3,340.5v-1.3c0.1,0.1,0.3,0.2,0.4,0.3c0.2,0.1,0.3,0.2,0.5,0.2s0.4,0.1,0.6,0.1s0.4,0,0.5,0
		c0.5,0,0.9-0.1,1.2-0.3c0.3-0.2,0.4-0.4,0.4-0.8c0-0.2,0-0.3-0.1-0.5c-0.1-0.1-0.2-0.3-0.4-0.4s-0.3-0.2-0.6-0.3
		c-0.2-0.1-0.4-0.2-0.7-0.3c-0.3-0.1-0.5-0.3-0.7-0.4s-0.4-0.3-0.6-0.5c-0.2-0.2-0.3-0.4-0.4-0.6c-0.1-0.2-0.1-0.5-0.1-0.8
		c0-0.4,0.1-0.7,0.2-1c0.2-0.3,0.4-0.5,0.7-0.7s0.6-0.3,0.9-0.4c0.3-0.1,0.7-0.1,1.1-0.1c0.8,0,1.4,0.1,1.8,0.3v1.3
		c-0.4-0.3-1-0.5-1.7-0.5c-0.2,0-0.4,0-0.6,0.1c-0.2,0-0.4,0.1-0.5,0.2c-0.2,0.1-0.3,0.2-0.4,0.3c-0.1,0.1-0.1,0.3-0.1,0.5
		s0,0.3,0.1,0.5s0.2,0.2,0.3,0.3c0.1,0.1,0.3,0.2,0.5,0.3c0.2,0.1,0.4,0.2,0.7,0.3c0.3,0.1,0.5,0.3,0.8,0.4c0.2,0.2,0.5,0.3,0.6,0.5
		c0.2,0.2,0.3,0.4,0.4,0.6c0.1,0.2,0.2,0.5,0.2,0.8c0,0.4-0.1,0.7-0.2,1c-0.2,0.3-0.4,0.5-0.6,0.7c-0.3,0.2-0.6,0.3-0.9,0.4
		s-0.7,0.1-1.1,0.1c-0.1,0-0.3,0-0.5,0s-0.4,0-0.6-0.1s-0.4-0.1-0.6-0.1C549.6,340.7,549.4,340.6,549.3,340.5z"/>
	<path style="fill:#686969;" d="M557.1,340.8h-1.3V333h1.3V340.8z"/>
	<path style="fill:#686969;" d="M562.2,341c-1.1,0-2-0.4-2.7-1.1s-1-1.7-1-2.8c0-1.3,0.3-2.3,1-3s1.6-1.1,2.8-1.1
		c1.1,0,2,0.4,2.6,1.1c0.7,0.7,1,1.7,1,2.8c0,1.3-0.3,2.3-1,3C564.3,340.6,563.3,341,562.2,341z M562.3,334.1
		c-0.7,0-1.3,0.3-1.7,0.8s-0.7,1.2-0.7,2.1s0.2,1.6,0.7,2.1c0.4,0.5,1,0.8,1.7,0.8s1.3-0.3,1.8-0.8c0.4-0.5,0.6-1.2,0.6-2.1
		s-0.2-1.7-0.6-2.2C563.6,334.3,563,334.1,562.3,334.1z"/>
	<path style="fill:#686969;" d="M574,340.8h-1.4l-3.7-5.7c-0.1-0.1-0.2-0.3-0.2-0.5l0,0c0,0.2,0,0.5,0,1.1v5.1h-1.3V333h1.5l3.6,5.6
		c0.2,0.2,0.3,0.4,0.3,0.5l0,0c0-0.2-0.1-0.6-0.1-1v-5h1.2v7.7L574,340.8L574,340.8z"/>
</g>
<rect x="353.4" y="477.9" style="fill:none;stroke:#686969;stroke-width:3;stroke-linecap:round;stroke-linejoin:round;stroke-miterlimit:10;" width="64.9" height="18.4"/>
<rect x="500.5" y="477.9" style="fill:none;stroke:#686969;stroke-width:3;stroke-linecap:round;stroke-linejoin:round;stroke-miterlimit:10;" width="64.9" height="18.4"/>
<g>
	<path style="fill:#686969;" d="M344.2,327.5v-7.8h2.3c2.9,0,4.3,1.3,4.3,3.8c0,1.2-0.4,2.2-1.2,2.9c-0.8,0.7-1.9,1.1-3.2,1.1H344.2
		z M345.5,320.8v5.6h1c0.9,0,1.6-0.3,2.1-0.8s0.8-1.2,0.8-2.1c0-1.8-0.9-2.7-2.8-2.7H345.5z"/>
	<path style="fill:#686969;" d="M355.4,327.6c-1.1,0-2-0.4-2.7-1.1s-1-1.7-1-2.8c0-1.3,0.3-2.3,1-3s1.6-1.1,2.8-1.1
		c1.1,0,2,0.4,2.6,1.1c0.7,0.7,1,1.7,1,2.8c0,1.3-0.3,2.3-1,3C357.4,327.2,356.5,327.6,355.4,327.6z M355.4,320.7
		c-0.7,0-1.3,0.3-1.7,0.8c-0.4,0.5-0.7,1.2-0.7,2.1s0.2,1.6,0.7,2.1c0.4,0.5,1,0.8,1.7,0.8s1.3-0.3,1.8-0.8c0.4-0.5,0.6-1.2,0.6-2.1
		s-0.2-1.7-0.6-2.2S356.2,320.7,355.4,320.7z"/>
	<path style="fill:#686969;" d="M366,327.2c-0.6,0.3-1.3,0.5-2.2,0.5c-1.1,0-2-0.4-2.7-1.1s-1-1.7-1-2.8c0-1.2,0.4-2.3,1.2-3
		c0.8-0.8,1.7-1.2,2.9-1.2c0.8,0,1.4,0.1,1.9,0.3v1.3c-0.5-0.3-1.1-0.5-1.7-0.5c-0.8,0-1.5,0.3-2.1,0.8c-0.5,0.5-0.8,1.3-0.8,2.2
		c0,0.9,0.2,1.5,0.7,2.1c0.5,0.5,1.1,0.8,1.9,0.8c0.7,0,1.4-0.2,1.9-0.5L366,327.2L366,327.2z"/>
	<path style="fill:#686969;" d="M373.4,327.5h-1.7l-2.7-3.6c-0.1-0.1-0.2-0.2-0.2-0.3l0,0v3.8h-1.3v-7.8h1.3v3.7l0,0
		c0-0.1,0.1-0.2,0.2-0.3l2.6-3.4h1.6l-3.1,3.7L373.4,327.5z"/>
	<path style="fill:#686969;" d="M378.7,327.5h-4.4v-7.8h4.2v1.1h-2.9v2.2h2.7v1.1h-2.7v2.3h3.1L378.7,327.5L378.7,327.5z"/>
	<path style="fill:#686969;" d="M386.1,327.5h-1.5l-1.2-2.1c-0.1-0.2-0.2-0.4-0.3-0.5c-0.1-0.1-0.2-0.2-0.3-0.3s-0.2-0.2-0.4-0.2
		c-0.1,0-0.3-0.1-0.4-0.1h-0.5v3.2h-1.3v-7.8h2.6c0.4,0,0.7,0,1,0.1s0.6,0.2,0.8,0.4s0.4,0.4,0.5,0.7s0.2,0.6,0.2,0.9s0,0.5-0.1,0.8
		c-0.1,0.2-0.2,0.4-0.3,0.6s-0.3,0.3-0.5,0.5s-0.5,0.2-0.7,0.3l0,0c0.1,0.1,0.3,0.2,0.4,0.3c0.1,0.1,0.2,0.2,0.3,0.3
		c0.1,0.1,0.2,0.2,0.3,0.3c0.1,0.1,0.2,0.3,0.3,0.4L386.1,327.5z M381.4,320.7v2.5h1.1c0.2,0,0.4,0,0.6-0.1s0.3-0.2,0.4-0.3
		c0.1-0.1,0.2-0.3,0.3-0.4c0.1-0.2,0.1-0.4,0.1-0.6c0-0.4-0.1-0.7-0.4-0.9c-0.2-0.2-0.6-0.3-1-0.3L381.4,320.7L381.4,320.7z"/>
	<path style="fill:#686969;" d="M396.2,319.7l-2.8,7.8H392l-2.8-7.8h1.4l1.9,5.9c0.1,0.2,0.1,0.4,0.1,0.7l0,0c0-0.2,0.1-0.4,0.2-0.7
		l2-5.9H396.2z"/>
	<path style="fill:#686969;" d="M405.6,327.5h-1.3v-5c0-0.4,0-0.9,0.1-1.5l0,0c-0.1,0.3-0.2,0.6-0.2,0.7l-2.3,5.8H401l-2.3-5.8
		c-0.1-0.2-0.1-0.4-0.2-0.8l0,0c0,0.3,0,0.8,0,1.5v5h-1.2v-7.8h1.8l2.1,5.2c0.2,0.4,0.3,0.7,0.3,0.9l0,0c0.1-0.4,0.2-0.7,0.3-0.9
		l2.1-5.2h1.8L405.6,327.5L405.6,327.5z"/>
	<path style="fill:#686969;" d="M350.4,340.8H346V333h4.2v1.1h-2.9v2.2h2.7v1.1h-2.7v2.3h3.1L350.4,340.8L350.4,340.8z"/>
	<path style="fill:#686969;" d="M357.7,340.8h-1.5l-1.6-2.9c0-0.1-0.1-0.2-0.2-0.4l0,0c0,0.1-0.1,0.2-0.2,0.4l-1.6,2.9H351l2.6-3.9
		l-2.4-3.9h1.6l1.4,2.6c0.1,0.2,0.2,0.3,0.2,0.5l0,0c0.1-0.2,0.2-0.4,0.3-0.5l1.5-2.6h1.5l-2.4,3.9L357.7,340.8z"/>
	<path style="fill:#686969;" d="M364,334.1h-2.2v6.7h-1.3v-6.7h-2.2V333h5.8L364,334.1L364,334.1z"/>
	<path style="fill:#686969;" d="M369.5,340.8h-4.4V333h4.2v1.1h-2.9v2.2h2.7v1.1h-2.7v2.3h3.1L369.5,340.8L369.5,340.8z"/>
	<path style="fill:#686969;" d="M377.5,340.8h-1.4l-3.7-5.7c-0.1-0.1-0.2-0.3-0.2-0.5l0,0c0,0.2,0,0.5,0,1.1v5.1h-1.3V333h1.5
		l3.6,5.6c0.2,0.2,0.3,0.4,0.3,0.5l0,0c0-0.2-0.1-0.6-0.1-1v-5h1.2v7.7L377.5,340.8L377.5,340.8z"/>
	<path style="fill:#686969;" d="M379.1,340.5v-1.3c0.1,0.1,0.3,0.2,0.4,0.3c0.2,0.1,0.3,0.2,0.5,0.2c0.2,0.1,0.4,0.1,0.6,0.1
		s0.4,0,0.5,0c0.5,0,0.9-0.1,1.2-0.3c0.3-0.2,0.4-0.4,0.4-0.8c0-0.2,0-0.3-0.1-0.5s-0.2-0.3-0.4-0.4c-0.2-0.1-0.3-0.2-0.6-0.3
		s-0.4-0.2-0.7-0.3c-0.3-0.1-0.5-0.3-0.7-0.4s-0.4-0.3-0.6-0.5s-0.3-0.4-0.4-0.6s-0.1-0.5-0.1-0.8c0-0.4,0.1-0.7,0.2-1
		c0.2-0.3,0.4-0.5,0.7-0.7c0.3-0.2,0.6-0.3,0.9-0.4s0.7-0.1,1.1-0.1c0.8,0,1.4,0.1,1.8,0.3v1.3c-0.4-0.3-1-0.5-1.7-0.5
		c-0.2,0-0.4,0-0.6,0.1s-0.4,0.1-0.5,0.2c-0.2,0.1-0.3,0.2-0.4,0.3c-0.1,0.1-0.1,0.3-0.1,0.5s0,0.3,0.1,0.5s0.2,0.2,0.3,0.3
		c0.1,0.1,0.3,0.2,0.5,0.3c0.2,0.1,0.4,0.2,0.7,0.3c0.3,0.1,0.5,0.3,0.8,0.4c0.2,0.2,0.5,0.3,0.6,0.5c0.2,0.2,0.3,0.4,0.4,0.6
		s0.2,0.5,0.2,0.8c0,0.4-0.1,0.7-0.2,1c-0.2,0.3-0.4,0.5-0.6,0.7c-0.3,0.2-0.6,0.3-0.9,0.4s-0.7,0.1-1.1,0.1c-0.1,0-0.3,0-0.5,0
		s-0.4,0-0.6-0.1s-0.4-0.1-0.6-0.1C379.3,340.7,379.2,340.6,379.1,340.5z"/>
	<path style="fill:#686969;" d="M386.8,340.8h-1.3V333h1.3V340.8z"/>
	<path style="fill:#686969;" d="M392,341c-1.1,0-2-0.4-2.7-1.1s-1-1.7-1-2.8c0-1.3,0.3-2.3,1-3s1.6-1.1,2.8-1.1c1.1,0,2,0.4,2.6,1.1
		c0.7,0.7,1,1.7,1,2.8c0,1.3-0.3,2.3-1,3C394,340.6,393.1,341,392,341z M392,334.1c-0.7,0-1.3,0.3-1.7,0.8c-0.4,0.5-0.7,1.2-0.7,2.1
		s0.2,1.6,0.7,2.1c0.4,0.5,1,0.8,1.7,0.8s1.3-0.3,1.8-0.8c0.4-0.5,0.6-1.2,0.6-2.1s-0.2-1.7-0.6-2.2S392.8,334.1,392,334.1z"/>
	<path style="fill:#686969;" d="M403.8,340.8h-1.4l-3.7-5.7c-0.1-0.1-0.2-0.3-0.2-0.5l0,0c0,0.2,0,0.5,0,1.1v5.1h-1.3V333h1.5
		l3.6,5.6c0.2,0.2,0.3,0.4,0.3,0.5l0,0c0-0.2-0.1-0.6-0.1-1v-5h1.2v7.7L403.8,340.8L403.8,340.8z"/>
</g>
<g>
	<path style="fill:#686969;" d="M506,375.7h-1.4l-0.7-2h-3.1l-0.7,2h-1.4l2.9-7.8h1.5L506,375.7z M503.6,372.6l-1.1-3.1
		c0-0.1-0.1-0.3-0.1-0.5l0,0c0,0.2-0.1,0.4-0.1,0.5l-1.1,3.1H503.6z"/>
	<path style="fill:#686969;" d="M512.6,368.4l-4.3,6.1h4.2v1.1h-6V375l4.3-6.1h-4v-1.1h5.8V368.4z"/>
	<path style="fill:#686969;" d="M519.9,372.5c0,2.2-1,3.3-3.1,3.3c-2,0-3-1.1-3-3.2v-4.8h1.3v4.5c0,1.5,0.6,2.3,1.8,2.3
		c1.1,0,1.7-0.7,1.7-2.2v-4.6h1.3V372.5z"/>
	<path style="fill:#686969;" d="M527.7,375.7h-1.5l-1.2-2.1c-0.1-0.2-0.2-0.4-0.3-0.5s-0.2-0.2-0.3-0.3c-0.1-0.1-0.2-0.2-0.4-0.2
		s-0.3-0.1-0.4-0.1H523v3.2h-1.3v-7.8h2.6c0.4,0,0.7,0,1,0.1s0.6,0.2,0.8,0.4s0.4,0.4,0.5,0.7s0.2,0.6,0.2,0.9s0,0.5-0.1,0.8
		c-0.1,0.2-0.2,0.4-0.3,0.6s-0.3,0.3-0.5,0.5c-0.2,0.1-0.5,0.2-0.7,0.3l0,0c0.1,0.1,0.3,0.2,0.4,0.3c0.1,0.1,0.2,0.2,0.3,0.3
		c0.1,0.1,0.2,0.2,0.3,0.3c0.1,0.1,0.2,0.3,0.3,0.4L527.7,375.7z M523,368.9v2.5h1.1c0.2,0,0.4,0,0.6-0.1c0.2-0.1,0.3-0.2,0.4-0.3
		c0.1-0.1,0.2-0.3,0.3-0.4s0.1-0.4,0.1-0.6c0-0.4-0.1-0.7-0.4-0.9c-0.2-0.2-0.6-0.3-1-0.3L523,368.9L523,368.9z"/>
	<path style="fill:#686969;" d="M533,375.7h-4.4v-7.8h4.2v1.1h-2.9v2.2h2.7v1.1h-2.7v2.3h3.1L533,375.7L533,375.7z"/>
	<path style="fill:#686969;" d="M543.6,367.9l-2.8,7.8h-1.4l-2.8-7.8h1.4l1.9,5.9c0.1,0.2,0.1,0.4,0.1,0.7l0,0
		c0-0.2,0.1-0.4,0.2-0.7l2-5.9H543.6z"/>
	<path style="fill:#686969;" d="M553,375.7h-1.3v-5c0-0.4,0-0.9,0.1-1.5l0,0c-0.1,0.3-0.2,0.6-0.2,0.7l-2.3,5.8h-0.9l-2.3-5.8
		c-0.1-0.2-0.1-0.4-0.2-0.8l0,0c0,0.3,0,0.8,0,1.5v5h-1.2v-7.8h1.8l2.1,5.2c0.2,0.4,0.3,0.7,0.3,0.9l0,0c0.1-0.4,0.2-0.7,0.3-0.9
		l2.1-5.2h1.8L553,375.7L553,375.7z"/>
	<path style="fill:#686969;" d="M558,375.7v-7.8h2.5c0.8,0,1.4,0.2,1.8,0.5s0.7,0.8,0.7,1.3c0,0.4-0.1,0.8-0.4,1.2
		c-0.3,0.3-0.6,0.6-1,0.7l0,0c0.5,0.1,1,0.3,1.3,0.6c0.3,0.3,0.5,0.8,0.5,1.3c0,0.7-0.3,1.2-0.8,1.6s-1.2,0.6-2,0.6L558,375.7
		L558,375.7z M559.3,368.9v2.2h0.8c0.4,0,0.8-0.1,1.1-0.3s0.4-0.5,0.4-0.9c0-0.7-0.4-1-1.3-1L559.3,368.9L559.3,368.9z M559.3,372.2
		v2.5h1.1c0.5,0,0.9-0.1,1.1-0.3c0.3-0.2,0.4-0.5,0.4-0.9c0-0.8-0.6-1.2-1.7-1.2h-0.9L559.3,372.2L559.3,372.2z"/>
</g>
<g>
	<path style="fill:#686969;" d="M362.6,375.7h-1.4l-0.7-2h-3.1l-0.7,2h-1.4l2.9-7.8h1.5L362.6,375.7z M360.1,372.6l-1.1-3.1
		c0-0.1-0.1-0.3-0.1-0.5l0,0c0,0.2-0.1,0.4-0.1,0.5l-1.1,3.1H360.1z"/>
	<path style="fill:#686969;" d="M369.2,368.4l-4.3,6.1h4.2v1.1h-6V375l4.3-6.1h-4v-1.1h5.8V368.4z"/>
	<path style="fill:#686969;" d="M376.4,372.5c0,2.2-1,3.3-3.1,3.3c-2,0-3-1.1-3-3.2v-4.8h1.3v4.5c0,1.5,0.6,2.3,1.8,2.3
		c1.1,0,1.7-0.7,1.7-2.2v-4.6h1.3L376.4,372.5L376.4,372.5z"/>
	<path style="fill:#686969;" d="M384.3,375.7h-1.5l-1.2-2.1c-0.1-0.2-0.2-0.4-0.3-0.5c-0.1-0.1-0.2-0.2-0.3-0.3s-0.2-0.2-0.4-0.2
		c-0.1,0-0.3-0.1-0.4-0.1h-0.5v3.2h-1.3v-7.8h2.6c0.4,0,0.7,0,1,0.1s0.6,0.2,0.8,0.4s0.4,0.4,0.5,0.7s0.2,0.6,0.2,0.9s0,0.5-0.1,0.8
		c-0.1,0.2-0.2,0.4-0.3,0.6s-0.3,0.3-0.5,0.5s-0.5,0.2-0.7,0.3l0,0c0.1,0.1,0.3,0.2,0.4,0.3c0.1,0.1,0.2,0.2,0.3,0.3
		c0.1,0.1,0.2,0.2,0.3,0.3c0.1,0.1,0.2,0.3,0.3,0.4L384.3,375.7z M379.5,368.9v2.5h1.1c0.2,0,0.4,0,0.6-0.1s0.3-0.2,0.4-0.3
		c0.1-0.1,0.2-0.3,0.3-0.4c0.1-0.2,0.1-0.4,0.1-0.6c0-0.4-0.1-0.7-0.4-0.9c-0.2-0.2-0.6-0.3-1-0.3L379.5,368.9L379.5,368.9z"/>
	<path style="fill:#686969;" d="M389.6,375.7h-4.4v-7.8h4.2v1.1h-2.9v2.2h2.7v1.1h-2.7v2.3h3.1L389.6,375.7L389.6,375.7z"/>
	<path style="fill:#686969;" d="M400.1,367.9l-2.8,7.8h-1.4l-2.8-7.8h1.4l1.9,5.9c0.1,0.2,0.1,0.4,0.1,0.7l0,0
		c0-0.2,0.1-0.4,0.2-0.7l2-5.9H400.1z"/>
	<path style="fill:#686969;" d="M409.5,375.7h-1.3v-5c0-0.4,0-0.9,0.1-1.5l0,0c-0.1,0.3-0.2,0.6-0.2,0.7l-2.3,5.8h-0.9l-2.3-5.8
		c-0.1-0.2-0.1-0.4-0.2-0.8l0,0c0,0.3,0,0.8,0,1.5v5h-1.2v-7.8h1.8l2.1,5.2c0.2,0.4,0.3,0.7,0.3,0.9l0,0c0.1-0.4,0.2-0.7,0.3-0.9
		l2.1-5.2h1.8L409.5,375.7L409.5,375.7z"/>
	<path style="fill:#686969;" d="M420.9,375.7h-1.4l-0.7-2h-3.1l-0.7,2h-1.4l2.9-7.8h1.5L420.9,375.7z M418.5,372.6l-1.1-3.1
		c0-0.1-0.1-0.3-0.1-0.5l0,0c0,0.2-0.1,0.4-0.1,0.5l-1.1,3.1H418.5z"/>
</g>
<g>
	<path style="fill:#686969;" d="M434.3,320.9h16.3v-2.8h-17.7c-0.8,0-1.4,0.6-1.4,1.4v21.9c0,0.8,0.6,1.4,1.4,1.4h17.7V340h-16.3
		V320.9z"/>
	<path style="fill:#686969;" d="M484.8,320.9V340h-16.1v2.8h17.5c0.8,0,1.4-0.6,1.4-1.4v-21.9c0-0.8-0.6-1.4-1.4-1.4h-17.5v2.8
		H484.8z"/>
	<rect x="465.9" y="302.9" style="fill:#686969;" width="2.8" height="15.2"/>
	<path style="fill:#686969;" d="M595.1,182.1H467.3c-0.8,0-1.4,0.6-1.4,1.4v94.7h2.8v-93.3h125v173.5h-125v-15.6h-2.8v16.9
		c0,0.8,0.6,1.4,1.4,1.4h127.8c0.8,0,1.4-0.6,1.4-1.4V183.5C596.5,182.7,595.9,182.1,595.1,182.1z"/>
	<rect x="450.6" y="302.9" style="fill:#686969;" width="2.8" height="15.2"/>
	<path style="fill:#686969;" d="M452,182.1H324.2c-0.8,0-1.4,0.6-1.4,1.4v176.3c0,0.8,0.6,1.4,1.4,1.4H452c0.8,0,1.4-0.6,1.4-1.4
		v-16.9h-2.8v15.6h-125V184.9h125v93.3h2.8v-94.7C453.4,182.7,452.8,182.1,452,182.1z"/>
	<path style="fill:#686969;" d="M437.1,300.1V281h13.6v-2.8h-14.9c-0.8,0-1.4,0.6-1.4,1.4v21.9c0,0.8,0.6,1.4,1.4,1.4h14.9v-2.8
		H437.1z"/>
	<rect x="450.6" y="300.1" style="fill:#686969;" width="2.8" height="2.8"/>
	<rect x="450.6" y="278.2" style="fill:#686969;" width="2.8" height="2.8"/>
	<path style="fill:#686969;" d="M482,281v19.2h-13.3v2.8h14.7c0.8,0,1.4-0.6,1.4-1.4v-21.9c0-0.8-0.6-1.4-1.4-1.4h-14.7v2.8H482V281
		z"/>
	<rect x="465.9" y="278.2" style="fill:#686969;" width="2.8" height="2.8"/>
	<rect x="465.9" y="300.1" style="fill:#686969;" width="2.8" height="2.8"/>
	<rect x="465.9" y="318.1" style="fill:#686969;" width="2.8" height="2.8"/>
	<rect x="465.9" y="340" style="fill:#686969;" width="2.8" height="2.8"/>
	<rect x="450.6" y="340" style="fill:#686969;" width="2.8" height="2.8"/>
	<rect x="450.6" y="318.1" style="fill:#686969;" width="2.8" height="2.8"/>
</g>
<g>
	<path style="fill:#686969;" d="M449.7,295h-1.3v-7.8h1.3V295z"/>
	<path style="fill:#686969;" d="M458,295h-1.4l-0.7-2h-3.1l-0.7,2h-1.4l2.9-7.8h1.5L458,295z M455.6,292l-1.1-3.1
		c0-0.1-0.1-0.3-0.1-0.5l0,0c0,0.2-0.1,0.4-0.1,0.5l-1.1,3.1H455.6z"/>
	<path style="fill:#686969;" d="M465.5,295h-1.4l-0.7-2h-3.1l-0.7,2h-1.4l2.9-7.8h1.5L465.5,295z M463,292l-1.1-3.1
		c0-0.1-0.1-0.3-0.1-0.5l0,0c0,0.2-0.1,0.4-0.1,0.5l-1.1,3.1H463z"/>
	<path style="fill:#686969;" d="M466.2,294.7v-1.3c0.1,0.1,0.3,0.2,0.4,0.3c0.2,0.1,0.3,0.2,0.5,0.2s0.4,0.1,0.6,0.1s0.4,0,0.5,0
		c0.5,0,0.9-0.1,1.2-0.3c0.3-0.2,0.4-0.4,0.4-0.8c0-0.2,0-0.3-0.1-0.5c-0.1-0.1-0.2-0.3-0.4-0.4s-0.3-0.2-0.6-0.3
		c-0.2-0.1-0.4-0.2-0.7-0.3c-0.3-0.1-0.5-0.3-0.7-0.4s-0.4-0.3-0.6-0.5s-0.3-0.4-0.4-0.6s-0.1-0.5-0.1-0.8c0-0.4,0.1-0.7,0.2-1
		c0.2-0.3,0.4-0.5,0.7-0.7c0.3-0.2,0.6-0.3,0.9-0.4s0.7-0.1,1.1-0.1c0.8,0,1.4,0.1,1.8,0.3v1.3c-0.4-0.3-1-0.5-1.7-0.5
		c-0.2,0-0.4,0-0.6,0.1c-0.2,0-0.4,0.1-0.5,0.2c-0.2,0.1-0.3,0.2-0.4,0.3c-0.1,0.1-0.1,0.3-0.1,0.5s0,0.3,0.1,0.5s0.2,0.2,0.3,0.3
		c0.1,0.1,0.3,0.2,0.5,0.3c0.2,0.1,0.4,0.2,0.7,0.3c0.3,0.1,0.5,0.3,0.8,0.4c0.2,0.2,0.5,0.3,0.6,0.5c0.2,0.2,0.3,0.4,0.4,0.6
		s0.2,0.5,0.2,0.8c0,0.4-0.1,0.7-0.2,1c-0.2,0.3-0.4,0.5-0.6,0.7c-0.3,0.2-0.6,0.3-0.9,0.4s-0.7,0.1-1.1,0.1c-0.1,0-0.3,0-0.5,0
		s-0.4,0-0.6-0.1s-0.4-0.1-0.6-0.1C466.5,294.9,466.3,294.8,466.2,294.7z"/>
</g>
<g>
	<path style="fill:#686969;" d="M439.6,333.9v-1.3c0.1,0.1,0.3,0.2,0.4,0.3c0.2,0.1,0.3,0.2,0.5,0.2c0.2,0.1,0.4,0.1,0.6,0.1
		s0.4,0,0.5,0c0.5,0,0.9-0.1,1.2-0.3c0.3-0.2,0.4-0.4,0.4-0.8c0-0.2,0-0.3-0.1-0.5s-0.2-0.3-0.4-0.4c-0.2-0.1-0.3-0.2-0.6-0.3
		s-0.4-0.2-0.7-0.3c-0.3-0.1-0.5-0.3-0.7-0.4s-0.4-0.3-0.6-0.5s-0.3-0.4-0.4-0.6s-0.1-0.5-0.1-0.8c0-0.4,0.1-0.7,0.2-1
		c0.2-0.3,0.4-0.5,0.7-0.7c0.3-0.2,0.6-0.3,0.9-0.4s0.7-0.1,1.1-0.1c0.8,0,1.4,0.1,1.8,0.3v1.3c-0.4-0.3-1-0.5-1.7-0.5
		c-0.2,0-0.4,0-0.6,0.1s-0.4,0.1-0.5,0.2c-0.2,0.1-0.3,0.2-0.4,0.3c-0.1,0.1-0.1,0.3-0.1,0.5s0,0.3,0.1,0.5s0.2,0.2,0.3,0.3
		c0.1,0.1,0.3,0.2,0.5,0.3c0.2,0.1,0.4,0.2,0.7,0.3c0.3,0.1,0.5,0.3,0.8,0.4c0.2,0.2,0.5,0.3,0.6,0.5c0.2,0.2,0.3,0.4,0.4,0.6
		s0.2,0.5,0.2,0.8c0,0.4-0.1,0.7-0.2,1c-0.2,0.3-0.4,0.5-0.6,0.7c-0.3,0.2-0.6,0.3-0.9,0.4s-0.7,0.1-1.1,0.1c-0.1,0-0.3,0-0.5,0
		s-0.4,0-0.6-0.1s-0.4-0.1-0.6-0.1C439.8,334.1,439.7,334,439.6,333.9z"/>
	<path style="fill:#686969;" d="M455.7,326.5l-2.1,7.8h-1.5l-1.5-5.5c-0.1-0.2-0.1-0.5-0.1-0.8l0,0c0,0.3-0.1,0.5-0.1,0.8l-1.5,5.5
		h-1.5l-2.2-7.8h1.4l1.4,5.7c0.1,0.2,0.1,0.5,0.1,0.8l0,0c0-0.2,0.1-0.4,0.2-0.8l1.6-5.7h1.3l1.5,5.8c0.1,0.2,0.1,0.4,0.1,0.7l0,0
		c0-0.2,0.1-0.4,0.1-0.7l1.4-5.7L455.7,326.5L455.7,326.5z"/>
	<path style="fill:#686969;" d="M462.8,334.3h-1.4l-0.7-2h-3.1l-0.7,2h-1.4l2.9-7.8h1.5L462.8,334.3z M460.3,331.2l-1.1-3.1
		c0-0.1-0.1-0.3-0.1-0.5l0,0c0,0.2-0.1,0.4-0.1,0.5l-1.1,3.1H460.3z"/>
	<path style="fill:#686969;" d="M469.9,334.3h-1.5l-1.2-2.1c-0.1-0.2-0.2-0.4-0.3-0.5c-0.1-0.1-0.2-0.2-0.3-0.3
		c-0.1-0.1-0.2-0.2-0.4-0.2c-0.1,0-0.3-0.1-0.4-0.1h-0.5v3.2H464v-7.8h2.6c0.4,0,0.7,0,1,0.1s0.6,0.2,0.8,0.4s0.4,0.4,0.5,0.7
		s0.2,0.6,0.2,0.9s0,0.5-0.1,0.8s-0.2,0.4-0.3,0.6s-0.3,0.3-0.5,0.5c-0.2,0.1-0.5,0.2-0.7,0.3l0,0c0.1,0.1,0.3,0.2,0.4,0.3
		c0.1,0.1,0.2,0.2,0.3,0.3c0.1,0.1,0.2,0.2,0.3,0.3s0.2,0.3,0.3,0.4L469.9,334.3z M465.1,327.5v2.5h1.1c0.2,0,0.4,0,0.6-0.1
		s0.3-0.2,0.4-0.3s0.2-0.3,0.3-0.4c0.1-0.2,0.1-0.4,0.1-0.6c0-0.4-0.1-0.7-0.4-0.9c-0.2-0.2-0.6-0.3-1-0.3L465.1,327.5L465.1,327.5z
		"/>
	<path style="fill:#686969;" d="M479.1,334.3h-1.3v-5c0-0.4,0-0.9,0.1-1.5l0,0c-0.1,0.3-0.2,0.6-0.2,0.7l-2.3,5.8h-0.9l-2.3-5.8
		c-0.1-0.2-0.1-0.4-0.2-0.8l0,0c0,0.3,0,0.8,0,1.5v5h-1.2v-7.8h1.8l2.1,5.2c0.2,0.4,0.3,0.7,0.3,0.9l0,0c0.1-0.4,0.2-0.7,0.3-0.9
		l2.1-5.2h1.8L479.1,334.3L479.1,334.3z"/>
</g>
<path style="fill:none;stroke:#686969;stroke-width:3;stroke-linecap:round;stroke-linejoin:round;stroke-miterlimit:10;" d="
	M448.3,420.9H285.7c-4.5,0-8,3-7.6,6.5c6.1,52.2,102.8,122.2,170.1,123.4c1.8,0,3.2-1.1,3.2-2.5v-125
	C451.5,422,450.1,420.9,448.3,420.9z"/>
<path style="fill:none;stroke:#686969;stroke-width:3;stroke-linecap:round;stroke-linejoin:round;stroke-miterlimit:10;" d="
	M471.9,420.9h162.7c4.5,0,8,3,7.6,6.5c-6.1,52.2-102.8,122.2-170.1,123.4c-1.8,0-3.2-1.1-3.2-2.5v-125
	C468.8,422,470.2,420.9,471.9,420.9z"/>
<g>
	<path style="fill:#686969;" d="M397.3,509v2.8H396V504h2.4c0.9,0,1.6,0.2,2.1,0.6s0.7,1,0.7,1.8s-0.3,1.4-0.8,1.9s-1.2,0.7-2.1,0.7
		H397.3z M397.3,505v2.9h0.8c0.6,0,1-0.1,1.3-0.4s0.4-0.6,0.4-1.1c0-0.9-0.5-1.4-1.6-1.4H397.3z"/>
	<path style="fill:#686969;" d="M405.7,507.4c-0.2-0.1-0.4-0.2-0.7-0.2c-0.4,0-0.7,0.2-0.9,0.5s-0.4,0.8-0.4,1.4v2.7h-1.3v-5.6h1.3
		v1.2l0,0c0.1-0.4,0.3-0.7,0.6-0.9c0.3-0.2,0.5-0.3,0.9-0.3c0.2,0,0.4,0,0.5,0.1V507.4z"/>
	<path style="fill:#686969;" d="M407.3,505c-0.2,0-0.4-0.1-0.5-0.2s-0.2-0.3-0.2-0.5s0.1-0.4,0.2-0.5s0.3-0.2,0.5-0.2
		s0.4,0.1,0.5,0.2s0.2,0.3,0.2,0.5s-0.1,0.4-0.2,0.5C407.6,505,407.5,505,407.3,505z M407.9,511.8h-1.3v-5.6h1.3V511.8z"/>
	<path style="fill:#686969;" d="M417.9,511.8h-1.3v-3.1c0-0.6-0.1-1-0.3-1.3s-0.4-0.4-0.8-0.4c-0.3,0-0.6,0.2-0.8,0.5
		c-0.2,0.3-0.3,0.7-0.3,1.2v3h-1.3v-3.2c0-1-0.4-1.6-1.1-1.6c-0.3,0-0.6,0.2-0.8,0.5c-0.2,0.3-0.3,0.7-0.3,1.2v3h-1.3V506h1.3v0.9
		l0,0c0.4-0.7,1-1,1.8-1c0.4,0,0.7,0.1,1,0.3c0.3,0.2,0.5,0.5,0.6,0.8c0.4-0.8,1-1.2,1.9-1.2c1.2,0,1.9,0.8,1.9,2.3v3.7L417.9,511.8
		L417.9,511.8z"/>
	<path style="fill:#686969;" d="M423.8,511.8h-1.2v-0.9l0,0c-0.4,0.7-1,1-1.7,1c-0.6,0-1-0.2-1.3-0.4c-0.3-0.3-0.5-0.7-0.5-1.2
		c0-1.1,0.6-1.7,1.8-1.9l1.7-0.2c0-0.8-0.4-1.2-1.1-1.2s-1.3,0.2-1.8,0.7v-1.1c0.6-0.4,1.3-0.5,2-0.5c1.4,0,2.1,0.7,2.1,2.1V511.8z
		 M422.6,509.1l-1.2,0.2c-0.4,0-0.6,0.1-0.8,0.3c-0.2,0.1-0.3,0.4-0.3,0.7c0,0.2,0.1,0.4,0.3,0.6c0.2,0.2,0.4,0.2,0.7,0.2
		c0.4,0,0.7-0.1,1-0.4s0.4-0.6,0.4-1v-0.6L422.6,509.1L422.6,509.1z"/>
	<path style="fill:#686969;" d="M428.6,507.4c-0.2-0.1-0.4-0.2-0.7-0.2c-0.4,0-0.7,0.2-0.9,0.5s-0.4,0.8-0.4,1.4v2.7h-1.3v-5.6h1.3
		v1.2l0,0c0.1-0.4,0.3-0.7,0.6-0.9c0.3-0.2,0.5-0.3,0.9-0.3c0.2,0,0.4,0,0.5,0.1V507.4z"/>
	<path style="fill:#686969;" d="M434.8,506.2l-2.5,6.5c-0.5,1.2-1.3,1.7-2.2,1.7c-0.3,0-0.5,0-0.7-0.1v-1.1c0.2,0.1,0.4,0.1,0.5,0.1
		c0.5,0,0.8-0.2,1.1-0.7l0.4-0.9l-2.2-5.6h1.4l1.3,4.1c0,0.1,0,0.2,0.1,0.4l0,0c0-0.1,0.1-0.2,0.1-0.4l1.4-4.1L434.8,506.2
		L434.8,506.2L434.8,506.2z"/>
	<path style="fill:#686969;" d="M388.7,525.3v-7.9h2.3c2.9,0,4.3,1.3,4.3,3.8c0,1.2-0.4,2.2-1.2,2.9c-0.8,0.7-1.9,1.1-3.2,1.1h-2.2
		L388.7,525.3L388.7,525.3z M390,518.5v5.6h1c0.9,0,1.6-0.3,2.1-0.8s0.8-1.2,0.8-2.1c0-1.8-1-2.8-2.9-2.8L390,518.5L390,518.5z"/>
	<path style="fill:#686969;" d="M400.9,525.3h-1.2v-0.9l0,0c-0.4,0.7-1,1-1.7,1c-0.6,0-1-0.2-1.3-0.4c-0.3-0.3-0.5-0.7-0.5-1.2
		c0-1.1,0.6-1.7,1.8-1.9l1.7-0.2c0-0.8-0.4-1.2-1.1-1.2s-1.3,0.2-1.8,0.7v-1.1c0.6-0.4,1.3-0.5,2-0.5c1.4,0,2.1,0.7,2.1,2.1V525.3z
		 M399.7,522.5l-1.2,0.2c-0.4,0-0.6,0.1-0.8,0.3c-0.2,0.1-0.3,0.4-0.3,0.7c0,0.2,0.1,0.4,0.3,0.6c0.2,0.2,0.4,0.2,0.7,0.2
		c0.4,0,0.7-0.1,1-0.4s0.4-0.6,0.4-1v-0.6H399.7L399.7,522.5z"/>
	<path style="fill:#686969;" d="M405.4,525.2c-0.2,0.1-0.6,0.2-1,0.2c-1.1,0-1.6-0.5-1.6-1.6v-3.2h-0.9v-1h0.9v-1.3l1.3-0.4v1.7h1.3
		v1h-1.3v2.8c0,0.3,0.1,0.6,0.2,0.7s0.3,0.2,0.6,0.2c0.2,0,0.4-0.1,0.6-0.2v1.1H405.4L405.4,525.2z"/>
	<path style="fill:#686969;" d="M410.8,525.3h-1.2v-0.9l0,0c-0.4,0.7-1,1-1.7,1c-0.6,0-1-0.2-1.3-0.4c-0.3-0.3-0.5-0.7-0.5-1.2
		c0-1.1,0.6-1.7,1.8-1.9l1.7-0.2c0-0.8-0.4-1.2-1.1-1.2s-1.3,0.2-1.8,0.7v-1.1c0.6-0.4,1.3-0.5,2-0.5c1.4,0,2.1,0.7,2.1,2.1V525.3z
		 M409.6,522.5l-1.2,0.2c-0.4,0-0.6,0.1-0.8,0.3c-0.2,0.1-0.3,0.4-0.3,0.7c0,0.2,0.1,0.4,0.3,0.6c0.2,0.2,0.4,0.2,0.7,0.2
		c0.4,0,0.7-0.1,1-0.4s0.4-0.6,0.4-1v-0.6H409.6L409.6,522.5z"/>
	<path style="fill:#686969;" d="M413.7,524.5L413.7,524.5v0.8h-1.3V517h1.3v3.7l0,0c0.4-0.7,1.1-1.1,1.9-1.1c0.7,0,1.3,0.3,1.7,0.8
		c0.4,0.5,0.6,1.2,0.6,2c0,0.9-0.2,1.7-0.7,2.3s-1.1,0.8-1.8,0.8C414.6,525.4,414,525.1,413.7,524.5z M413.6,522.2v0.7
		c0,0.4,0.1,0.8,0.4,1c0.3,0.3,0.6,0.4,1,0.4c0.5,0,0.8-0.2,1.1-0.6s0.4-0.9,0.4-1.5s-0.1-1-0.4-1.3s-0.6-0.5-1-0.5
		c-0.5,0-0.8,0.2-1.1,0.5C413.8,521.4,413.6,521.8,413.6,522.2z"/>
	<path style="fill:#686969;" d="M423.3,525.3h-1.2v-0.9l0,0c-0.4,0.7-1,1-1.7,1c-0.6,0-1-0.2-1.3-0.4c-0.3-0.3-0.5-0.7-0.5-1.2
		c0-1.1,0.6-1.7,1.8-1.9l1.7-0.2c0-0.8-0.4-1.2-1.1-1.2s-1.3,0.2-1.8,0.7v-1.1c0.6-0.4,1.3-0.5,2-0.5c1.4,0,2.1,0.7,2.1,2.1V525.3z
		 M422.1,522.5l-1.2,0.2c-0.4,0-0.6,0.1-0.8,0.3c-0.2,0.1-0.3,0.4-0.3,0.7c0,0.2,0.1,0.4,0.3,0.6c0.2,0.2,0.4,0.2,0.7,0.2
		c0.4,0,0.7-0.1,1-0.4s0.4-0.6,0.4-1v-0.6H422.1L422.1,522.5z"/>
	<path style="fill:#686969;" d="M424.5,525.1v-1.2c0.5,0.4,1,0.5,1.6,0.5c0.8,0,1.2-0.2,1.2-0.7c0-0.1,0-0.2-0.1-0.3
		s-0.2-0.2-0.3-0.2c-0.1-0.1-0.2-0.1-0.4-0.2c-0.2-0.1-0.3-0.1-0.5-0.2c-0.2-0.1-0.4-0.2-0.6-0.3s-0.3-0.2-0.5-0.3
		c-0.1-0.1-0.2-0.3-0.3-0.4s-0.1-0.4-0.1-0.6c0-0.3,0.1-0.5,0.2-0.7s0.3-0.4,0.5-0.5s0.5-0.2,0.7-0.3c0.3-0.1,0.6-0.1,0.8-0.1
		c0.5,0,1,0.1,1.4,0.2v1.1c-0.4-0.3-0.8-0.4-1.4-0.4c-0.2,0-0.3,0-0.4,0s-0.2,0.1-0.3,0.1c-0.1,0.1-0.2,0.1-0.2,0.2
		c-0.1,0.1-0.1,0.2-0.1,0.3s0,0.2,0.1,0.3s0.1,0.2,0.2,0.2s0.2,0.1,0.4,0.2c0.1,0.1,0.3,0.1,0.5,0.2c0.2,0.1,0.5,0.2,0.6,0.3
		s0.4,0.2,0.5,0.3s0.2,0.3,0.3,0.4s0.1,0.4,0.1,0.6c0,0.3-0.1,0.5-0.2,0.7s-0.3,0.4-0.5,0.5s-0.5,0.2-0.8,0.3s-0.6,0.1-0.9,0.1
		C425.5,525.4,424.9,525.3,424.5,525.1z"/>
	<path style="fill:#686969;" d="M434.4,522.8h-3.8c0,0.5,0.2,0.9,0.5,1.2s0.7,0.4,1.3,0.4c0.6,0,1.1-0.2,1.6-0.5v1
		c-0.5,0.3-1.2,0.5-2,0.5s-1.5-0.3-1.9-0.8c-0.5-0.5-0.7-1.2-0.7-2.2c0-0.9,0.3-1.6,0.8-2.1s1.2-0.8,1.9-0.8c0.8,0,1.4,0.2,1.8,0.7
		s0.6,1.2,0.6,2.1L434.4,522.8L434.4,522.8z M433.2,521.9c0-0.5-0.1-0.8-0.3-1.1s-0.5-0.4-0.9-0.4s-0.7,0.1-0.9,0.4s-0.4,0.6-0.5,1
		L433.2,521.9L433.2,521.9L433.2,521.9z"/>
</g>
<g>
	<path style="fill:#686969;" d="M483.8,511.5v-1.3c0.1,0.1,0.3,0.2,0.4,0.3c0.2,0.1,0.3,0.2,0.5,0.2c0.2,0.1,0.4,0.1,0.6,0.1
		s0.4,0,0.5,0c0.5,0,1-0.1,1.2-0.3c0.3-0.2,0.4-0.4,0.4-0.8c0-0.2,0-0.3-0.1-0.5c-0.1-0.1-0.2-0.3-0.4-0.4c-0.2-0.1-0.3-0.2-0.6-0.3
		c-0.2-0.1-0.4-0.2-0.7-0.3c-0.3-0.1-0.5-0.3-0.7-0.4s-0.4-0.3-0.6-0.5s-0.3-0.4-0.4-0.6s-0.1-0.5-0.1-0.8c0-0.4,0.1-0.7,0.2-1
		c0.2-0.3,0.4-0.5,0.7-0.7c0.3-0.2,0.6-0.3,0.9-0.4s0.7-0.1,1.1-0.1c0.8,0,1.4,0.1,1.8,0.3v1.3c-0.4-0.3-1-0.5-1.7-0.5
		c-0.2,0-0.4,0-0.6,0.1c-0.2,0-0.4,0.1-0.5,0.2c-0.2,0.1-0.3,0.2-0.4,0.3c-0.1,0.1-0.1,0.3-0.1,0.5s0,0.3,0.1,0.5
		c0.1,0.1,0.2,0.2,0.3,0.4c0.1,0.1,0.3,0.2,0.5,0.3s0.4,0.2,0.7,0.3c0.3,0.1,0.5,0.3,0.8,0.4c0.2,0.2,0.5,0.3,0.6,0.5
		c0.2,0.2,0.3,0.4,0.4,0.6s0.2,0.5,0.2,0.8c0,0.4-0.1,0.7-0.2,1c-0.2,0.3-0.4,0.5-0.7,0.7c-0.3,0.2-0.6,0.3-0.9,0.4
		c-0.4,0.1-0.7,0.1-1.1,0.1c-0.1,0-0.3,0-0.5,0s-0.4,0-0.6-0.1s-0.4-0.1-0.6-0.1C484.1,511.6,484,511.6,483.8,511.5z"/>
	<path style="fill:#686969;" d="M494.9,509.4h-3.8c0,0.5,0.2,0.9,0.5,1.2c0.3,0.3,0.7,0.4,1.3,0.4s1.1-0.2,1.7-0.5v1
		c-0.5,0.3-1.2,0.5-2,0.5s-1.5-0.3-1.9-0.8S490,510,490,509c0-0.9,0.3-1.6,0.8-2.1s1.2-0.8,1.9-0.8s1.4,0.2,1.8,0.7s0.6,1.2,0.6,2.1
		v0.5L494.9,509.4L494.9,509.4z M493.7,508.5c0-0.5-0.1-0.8-0.3-1.1c-0.2-0.3-0.5-0.4-0.9-0.4s-0.7,0.1-0.9,0.4s-0.4,0.6-0.5,1h2.6
		L493.7,508.5L493.7,508.5z"/>
	<path style="fill:#686969;" d="M500.2,511.6c-0.4,0.3-1,0.4-1.6,0.4c-0.8,0-1.5-0.3-2-0.8s-0.8-1.2-0.8-2c0-0.9,0.3-1.7,0.8-2.2
		c0.5-0.6,1.3-0.8,2.2-0.8c0.5,0,1,0.1,1.4,0.3v1.2c-0.4-0.3-0.8-0.4-1.3-0.4s-1,0.2-1.3,0.5s-0.5,0.8-0.5,1.4s0.2,1,0.5,1.4
		c0.3,0.3,0.8,0.5,1.3,0.5s0.9-0.2,1.3-0.5V511.6L500.2,511.6z"/>
	<path style="fill:#686969;" d="M503.9,511.9c-0.9,0-1.6-0.3-2.1-0.8s-0.8-1.2-0.8-2.1s0.3-1.7,0.8-2.2s1.3-0.8,2.2-0.8
		s1.6,0.3,2,0.8c0.5,0.5,0.7,1.2,0.7,2.1s-0.3,1.6-0.8,2.2S504.8,511.9,503.9,511.9z M504,507.1c-0.5,0-0.9,0.2-1.2,0.5
		s-0.4,0.8-0.4,1.4s0.1,1.1,0.4,1.4s0.7,0.5,1.2,0.5s0.9-0.2,1.2-0.5s0.4-0.8,0.4-1.4s-0.1-1.1-0.4-1.4
		C504.8,507.3,504.5,507.1,504,507.1z"/>
	<path style="fill:#686969;" d="M513.1,511.8h-1.3v-3.2c0-1-0.4-1.6-1.1-1.6c-0.4,0-0.7,0.1-1,0.4s-0.4,0.7-0.4,1.1v3.2H508v-5.6
		h1.3v0.9l0,0c0.4-0.7,1-1.1,1.8-1.1c0.6,0,1.1,0.2,1.4,0.6s0.5,1,0.5,1.7L513.1,511.8L513.1,511.8z"/>
	<path style="fill:#686969;" d="M519.8,511.8h-1.3v-1l0,0c-0.4,0.7-1,1.1-1.9,1.1c-0.7,0-1.2-0.3-1.7-0.8c-0.4-0.5-0.6-1.2-0.6-2.1
		s0.2-1.7,0.7-2.2c0.5-0.6,1.1-0.8,1.8-0.8c0.8,0,1.3,0.3,1.7,0.9l0,0v-3.5h1.3V511.8z M518.5,509.2v-0.7c0-0.4-0.1-0.7-0.4-1
		c-0.3-0.3-0.6-0.4-1-0.4c-0.5,0-0.8,0.2-1.1,0.5c-0.3,0.4-0.4,0.8-0.4,1.5c0,0.6,0.1,1,0.4,1.4c0.3,0.3,0.6,0.5,1.1,0.5
		c0.4,0,0.8-0.2,1.1-0.5C518.4,510.1,518.5,509.7,518.5,509.2z"/>
	<path style="fill:#686969;" d="M525.7,511.8h-1.2v-0.9l0,0c-0.4,0.7-1,1-1.7,1c-0.6,0-1-0.2-1.3-0.4c-0.3-0.3-0.5-0.7-0.5-1.2
		c0-1.1,0.6-1.7,1.8-1.9l1.7-0.2c0-0.8-0.4-1.2-1.1-1.2c-0.7,0-1.3,0.2-1.8,0.7v-1.1c0.6-0.4,1.3-0.5,2-0.5c1.4,0,2.1,0.7,2.1,2.1
		V511.8z M524.5,509.1l-1.2,0.2c-0.4,0-0.6,0.1-0.8,0.3c-0.2,0.1-0.3,0.4-0.3,0.7c0,0.2,0.1,0.4,0.3,0.6s0.4,0.2,0.7,0.2
		c0.4,0,0.7-0.1,1-0.4s0.4-0.6,0.4-1v-0.6L524.5,509.1L524.5,509.1z"/>
	<path style="fill:#686969;" d="M530.5,507.4c-0.2-0.1-0.4-0.2-0.7-0.2c-0.4,0-0.7,0.2-0.9,0.5s-0.4,0.8-0.4,1.4v2.7h-1.3v-5.6h1.3
		v1.2l0,0c0.1-0.4,0.3-0.7,0.6-0.9s0.5-0.3,0.9-0.3c0.2,0,0.4,0,0.5,0.1L530.5,507.4L530.5,507.4z"/>
	<path style="fill:#686969;" d="M536.7,506.2l-2.5,6.5c-0.5,1.2-1.3,1.7-2.2,1.7c-0.3,0-0.5,0-0.7-0.1v-1.1c0.2,0.1,0.4,0.1,0.5,0.1
		c0.5,0,0.8-0.2,1.1-0.7l0.4-0.9l-2.2-5.6h1.4l1.3,4.1c0,0.1,0,0.2,0.1,0.4l0,0c0-0.1,0.1-0.2,0.1-0.4l1.4-4.1L536.7,506.2
		L536.7,506.2L536.7,506.2z"/>
	<path style="fill:#686969;" d="M484.2,525.3v-7.9h2.3c2.9,0,4.3,1.3,4.3,3.8c0,1.2-0.4,2.2-1.2,2.9c-0.8,0.7-1.9,1.1-3.2,1.1h-2.2
		L484.2,525.3L484.2,525.3z M485.5,518.5v5.6h1c0.9,0,1.6-0.3,2.1-0.8s0.8-1.2,0.8-2.1c0-1.8-1-2.8-2.9-2.8L485.5,518.5L485.5,518.5
		z"/>
	<path style="fill:#686969;" d="M496.4,525.3h-1.2v-0.9l0,0c-0.4,0.7-1,1-1.7,1c-0.6,0-1-0.2-1.3-0.4c-0.3-0.3-0.5-0.7-0.5-1.2
		c0-1.1,0.6-1.7,1.8-1.9l1.7-0.2c0-0.8-0.4-1.2-1.1-1.2s-1.3,0.2-1.8,0.7v-1.1c0.6-0.4,1.3-0.5,2-0.5c1.4,0,2.1,0.7,2.1,2.1V525.3z
		 M495.2,522.5l-1.2,0.2c-0.4,0-0.6,0.1-0.8,0.3c-0.2,0.1-0.3,0.4-0.3,0.7c0,0.2,0.1,0.4,0.3,0.6c0.2,0.2,0.4,0.2,0.7,0.2
		c0.4,0,0.7-0.1,1-0.4s0.4-0.6,0.4-1v-0.6H495.2L495.2,522.5z"/>
	<path style="fill:#686969;" d="M500.9,525.2c-0.2,0.1-0.6,0.2-1,0.2c-1.1,0-1.6-0.5-1.6-1.6v-3.2h-0.9v-1h0.9v-1.3l1.3-0.4v1.7h1.3
		v1h-1.3v2.8c0,0.3,0.1,0.6,0.2,0.7s0.3,0.2,0.6,0.2c0.2,0,0.4-0.1,0.6-0.2L500.9,525.2L500.9,525.2z"/>
	<path style="fill:#686969;" d="M506.3,525.3h-1.2v-0.9l0,0c-0.4,0.7-1,1-1.7,1c-0.6,0-1-0.2-1.3-0.4c-0.3-0.3-0.5-0.7-0.5-1.2
		c0-1.1,0.6-1.7,1.8-1.9l1.7-0.2c0-0.8-0.4-1.2-1.1-1.2s-1.3,0.2-1.8,0.7v-1.1c0.6-0.4,1.3-0.5,2-0.5c1.4,0,2.1,0.7,2.1,2.1V525.3z
		 M505.1,522.5l-1.2,0.2c-0.4,0-0.6,0.1-0.8,0.3c-0.2,0.1-0.3,0.4-0.3,0.7c0,0.2,0.1,0.4,0.3,0.6c0.2,0.2,0.4,0.2,0.7,0.2
		c0.4,0,0.7-0.1,1-0.4s0.4-0.6,0.4-1v-0.6H505.1L505.1,522.5z"/>
	<path style="fill:#686969;" d="M509.2,524.5L509.2,524.5v0.8h-1.3V517h1.3v3.7l0,0c0.4-0.7,1.1-1.1,1.9-1.1c0.7,0,1.3,0.3,1.7,0.8
		s0.6,1.2,0.6,2c0,0.9-0.2,1.7-0.7,2.3s-1.1,0.8-1.8,0.8C510.1,525.4,509.6,525.1,509.2,524.5z M509.1,522.2v0.7
		c0,0.4,0.1,0.8,0.4,1c0.3,0.3,0.6,0.4,1,0.4c0.5,0,0.8-0.2,1.1-0.6s0.4-0.9,0.4-1.5s-0.1-1-0.4-1.3s-0.6-0.5-1-0.5
		c-0.5,0-0.8,0.2-1.1,0.5S509.1,521.8,509.1,522.2z"/>
	<path style="fill:#686969;" d="M518.8,525.3h-1.2v-0.9l0,0c-0.4,0.7-1,1-1.7,1c-0.6,0-1-0.2-1.3-0.4c-0.3-0.3-0.5-0.7-0.5-1.2
		c0-1.1,0.6-1.7,1.8-1.9l1.7-0.2c0-0.8-0.4-1.2-1.1-1.2c-0.7,0-1.3,0.2-1.8,0.7v-1.1c0.6-0.4,1.3-0.5,2-0.5c1.4,0,2.1,0.7,2.1,2.1
		V525.3z M517.6,522.5l-1.2,0.2c-0.4,0-0.6,0.1-0.8,0.3c-0.2,0.1-0.3,0.4-0.3,0.7c0,0.2,0.1,0.4,0.3,0.6c0.2,0.2,0.4,0.2,0.7,0.2
		c0.4,0,0.7-0.1,1-0.4s0.4-0.6,0.4-1v-0.6H517.6L517.6,522.5z"/>
	<path style="fill:#686969;" d="M520,525.1v-1.2c0.5,0.4,1,0.5,1.6,0.5c0.8,0,1.2-0.2,1.2-0.7c0-0.1,0-0.2-0.1-0.3s-0.2-0.2-0.3-0.2
		c-0.1-0.1-0.2-0.1-0.4-0.2c-0.2-0.1-0.3-0.1-0.5-0.2c-0.2-0.1-0.4-0.2-0.6-0.3c-0.2-0.1-0.3-0.2-0.5-0.3s-0.2-0.3-0.3-0.4
		s-0.1-0.4-0.1-0.6c0-0.3,0.1-0.5,0.2-0.7c0.1-0.2,0.3-0.4,0.5-0.5s0.5-0.2,0.7-0.3c0.3-0.1,0.6-0.1,0.8-0.1c0.5,0,1,0.1,1.4,0.2
		v1.1c-0.4-0.3-0.8-0.4-1.4-0.4c-0.2,0-0.3,0-0.4,0c-0.1,0-0.2,0.1-0.3,0.1c-0.1,0.1-0.2,0.1-0.2,0.2c0,0.1-0.1,0.2-0.1,0.3
		s0,0.2,0.1,0.3s0.1,0.2,0.2,0.2c0.1,0.1,0.2,0.1,0.4,0.2c0.1,0.1,0.3,0.1,0.5,0.2c0.2,0.1,0.5,0.2,0.6,0.3s0.4,0.2,0.5,0.3
		s0.2,0.3,0.3,0.4c0.1,0.2,0.1,0.4,0.1,0.6c0,0.3-0.1,0.5-0.2,0.7c-0.1,0.2-0.3,0.4-0.5,0.5s-0.5,0.2-0.8,0.3s-0.6,0.1-0.9,0.1
		C521,525.4,520.5,525.3,520,525.1z"/>
	<path style="fill:#686969;" d="M530,522.8h-3.8c0,0.5,0.2,0.9,0.5,1.2s0.7,0.4,1.3,0.4s1.1-0.2,1.6-0.5v1c-0.5,0.3-1.2,0.5-2,0.5
		s-1.5-0.3-1.9-0.8c-0.5-0.5-0.7-1.2-0.7-2.2c0-0.9,0.3-1.6,0.8-2.1s1.2-0.8,1.9-0.8c0.8,0,1.4,0.2,1.8,0.7s0.6,1.2,0.6,2.1
		L530,522.8L530,522.8z M528.7,521.9c0-0.5-0.1-0.8-0.3-1.1s-0.5-0.4-0.9-0.4s-0.7,0.1-0.9,0.4s-0.4,0.6-0.5,1L528.7,521.9
		L528.7,521.9L528.7,521.9z"/>
</g>
<g>
	<path style="fill:#686969;" d="M368.2,490.2h-1.3v-5.1c0-0.4,0-0.9,0.1-1.5l0,0c-0.1,0.3-0.2,0.6-0.2,0.7l-2.3,5.9h-0.9l-2.4-5.8
		c-0.1-0.2-0.1-0.4-0.2-0.8l0,0c0,0.3,0,0.8,0,1.5v5.1h-1.2v-7.9h1.8l2.1,5.2c0.2,0.4,0.3,0.7,0.3,0.9l0,0c0.1-0.4,0.2-0.7,0.3-0.9
		l2.1-5.2h1.8L368.2,490.2L368.2,490.2z"/>
	<path style="fill:#686969;" d="M376.6,490.2h-1.4l-0.7-2h-3.1l-0.7,2h-1.4l2.9-7.9h1.5L376.6,490.2z M374.1,487.2L373,484
		c0-0.1-0.1-0.3-0.1-0.5l0,0c0,0.2-0.1,0.4-0.1,0.5l-1.1,3.1h2.4L374.1,487.2L374.1,487.2z"/>
	<path style="fill:#686969;" d="M383.7,490.2h-1.5l-1.3-2.1c-0.1-0.2-0.2-0.4-0.3-0.5c-0.1-0.1-0.2-0.3-0.3-0.3
		c-0.1-0.1-0.2-0.2-0.4-0.2s-0.3-0.1-0.4-0.1H379v3.2h-1.3v-7.9h2.6c0.4,0,0.7,0,1,0.1s0.6,0.2,0.8,0.4c0.2,0.2,0.4,0.4,0.5,0.7
		c0.1,0.3,0.2,0.6,0.2,0.9s0,0.5-0.1,0.8c-0.1,0.2-0.2,0.4-0.4,0.6s-0.3,0.3-0.5,0.5s-0.5,0.2-0.7,0.3l0,0c0.1,0.1,0.3,0.2,0.4,0.3
		c0.1,0.1,0.2,0.2,0.3,0.3c0.1,0.1,0.2,0.2,0.3,0.3s0.2,0.3,0.3,0.5L383.7,490.2z M379,483.4v2.6h1.1c0.2,0,0.4,0,0.6-0.1
		s0.3-0.2,0.4-0.3c0.1-0.1,0.2-0.3,0.3-0.4s0.1-0.4,0.1-0.6c0-0.4-0.1-0.7-0.4-0.9c-0.2-0.2-0.6-0.3-1-0.3L379,483.4L379,483.4z"/>
	<path style="fill:#686969;" d="M386,490.2h-1.3v-7.9h1.3V490.2z"/>
	<path style="fill:#686969;" d="M394.4,490.2H393l-0.7-2h-3.1l-0.7,2H387l2.9-7.9h1.5L394.4,490.2z M391.9,487.2l-1.1-3.1
		c0-0.1-0.1-0.3-0.1-0.5l0,0c0,0.2-0.1,0.4-0.1,0.5l-1.1,3.1H391.9z"/>
	<path style="fill:#686969;" d="M398.5,490.2v-7.9h2.3c2.9,0,4.3,1.3,4.3,3.8c0,1.2-0.4,2.2-1.2,2.9c-0.8,0.7-1.9,1.1-3.2,1.1h-2.2
		L398.5,490.2L398.5,490.2z M399.8,483.5v5.6h1c0.9,0,1.6-0.3,2.1-0.8s0.8-1.2,0.8-2.1c0-1.8-1-2.8-2.9-2.8L399.8,483.5L399.8,483.5
		z"/>
	<path style="fill:#686969;" d="M406.6,490.2v-7.9h2.5c0.8,0,1.4,0.2,1.8,0.5s0.7,0.8,0.7,1.3c0,0.4-0.1,0.8-0.4,1.2s-0.6,0.6-1,0.7
		l0,0c0.5,0.1,1,0.3,1.3,0.6s0.5,0.8,0.5,1.3c0,0.7-0.3,1.2-0.8,1.6s-1.2,0.6-2,0.6L406.6,490.2L406.6,490.2z M407.9,483.4v2.2h0.8
		c0.5,0,0.8-0.1,1.1-0.3s0.4-0.5,0.4-0.9c0-0.7-0.4-1-1.3-1L407.9,483.4L407.9,483.4z M407.9,486.7v2.5h1.1c0.5,0,0.9-0.1,1.1-0.3
		s0.4-0.5,0.4-0.9c0-0.8-0.6-1.2-1.7-1.2h-0.9V486.7z"/>
</g>
<g>
	<path style="fill:#686969;" d="M514.9,490.2h-1.3v-5.1c0-0.4,0-0.9,0.1-1.5l0,0c-0.1,0.3-0.2,0.6-0.2,0.7l-2.3,5.9h-0.9l-2.3-5.8
		c-0.1-0.2-0.1-0.4-0.2-0.8l0,0c0,0.3,0,0.8,0,1.5v5.1h-1.2v-7.9h1.8l2.1,5.2c0.2,0.4,0.3,0.7,0.3,0.9l0,0c0.1-0.4,0.2-0.7,0.3-0.9
		l2.1-5.2h1.8L514.9,490.2L514.9,490.2z"/>
	<path style="fill:#686969;" d="M523.2,490.2h-1.4l-0.7-2H518l-0.7,2h-1.4l2.9-7.9h1.5L523.2,490.2z M520.8,487.2l-1.1-3.1
		c0-0.1-0.1-0.3-0.1-0.5l0,0c0,0.2-0.1,0.4-0.1,0.5l-1.1,3.1H520.8z"/>
	<path style="fill:#686969;" d="M530.4,490.2h-1.5l-1.3-2.1c-0.1-0.2-0.2-0.4-0.3-0.5s-0.2-0.3-0.3-0.3c-0.1-0.1-0.2-0.2-0.4-0.2
		c-0.1,0-0.3-0.1-0.4-0.1h-0.5v3.2h-1.3v-7.9h2.6c0.4,0,0.7,0,1,0.1s0.6,0.2,0.8,0.4c0.2,0.2,0.4,0.4,0.5,0.7
		c0.1,0.3,0.2,0.6,0.2,0.9s0,0.5-0.1,0.8c-0.1,0.2-0.2,0.4-0.3,0.6c-0.2,0.2-0.3,0.3-0.5,0.5c-0.2,0.1-0.5,0.2-0.7,0.3l0,0
		c0.1,0.1,0.3,0.2,0.4,0.3s0.2,0.2,0.3,0.3c0.1,0.1,0.2,0.2,0.3,0.3c0.1,0.1,0.2,0.3,0.3,0.5L530.4,490.2z M525.6,483.4v2.6h1.1
		c0.2,0,0.4,0,0.6-0.1c0.2-0.1,0.3-0.2,0.4-0.3c0.1-0.1,0.2-0.3,0.3-0.4c0.1-0.2,0.1-0.4,0.1-0.6c0-0.4-0.1-0.7-0.4-0.9
		c-0.2-0.2-0.6-0.3-1-0.3L525.6,483.4L525.6,483.4z"/>
	<path style="fill:#686969;" d="M532.6,490.2h-1.3v-7.9h1.3V490.2z"/>
	<path style="fill:#686969;" d="M541,490.2h-1.4l-0.7-2h-3.1l-0.7,2h-1.4l2.9-7.9h1.5L541,490.2z M538.6,487.2l-1.1-3.1
		c0-0.1-0.1-0.3-0.1-0.5l0,0c0,0.2-0.1,0.4-0.1,0.5l-1.1,3.1H538.6z"/>
	<path style="fill:#686969;" d="M545.2,490.2v-7.9h2.3c2.9,0,4.3,1.3,4.3,3.8c0,1.2-0.4,2.2-1.2,2.9c-0.8,0.7-1.9,1.1-3.2,1.1h-2.2
		L545.2,490.2L545.2,490.2z M546.5,483.5v5.6h1c0.9,0,1.6-0.3,2.1-0.8s0.8-1.2,0.8-2.1c0-1.8-1-2.8-2.9-2.8L546.5,483.5L546.5,483.5
		z"/>
	<path style="fill:#686969;" d="M553.2,490.2v-7.9h2.5c0.8,0,1.4,0.2,1.8,0.5c0.4,0.3,0.7,0.8,0.7,1.3c0,0.4-0.1,0.8-0.4,1.2
		s-0.6,0.6-1,0.7l0,0c0.5,0.1,1,0.3,1.3,0.6c0.3,0.3,0.5,0.8,0.5,1.3c0,0.7-0.3,1.2-0.8,1.6s-1.2,0.6-2,0.6L553.2,490.2L553.2,490.2
		z M554.5,483.4v2.2h0.8c0.5,0,0.8-0.1,1.1-0.3s0.4-0.5,0.4-0.9c0-0.7-0.4-1-1.3-1L554.5,483.4L554.5,483.4z M554.5,486.7v2.5h1.1
		c0.5,0,0.9-0.1,1.1-0.3c0.3-0.2,0.4-0.5,0.4-0.9c0-0.8-0.6-1.2-1.7-1.2h-0.9L554.5,486.7L554.5,486.7z"/>
</g>
<g>
	<path style="fill:#686969;" d="M319.5,467.7v-9h2.6c3.3,0,5,1.5,5,4.4c0,1.4-0.5,2.5-1.4,3.3s-2.2,1.3-3.7,1.3L319.5,467.7
		L319.5,467.7z M321,459.9v6.5h1.2c1,0,1.9-0.3,2.4-0.9s0.9-1.4,0.9-2.4c0-2.1-1.1-3.1-3.3-3.1H321V459.9z"/>
	<path style="fill:#686969;" d="M328.7,467.7v-9h2.8c0.9,0,1.6,0.2,2.1,0.6s0.8,0.9,0.8,1.5c0,0.5-0.1,1-0.4,1.3
		c-0.3,0.4-0.7,0.6-1.2,0.8l0,0c0.6,0.1,1.1,0.3,1.5,0.7c0.4,0.4,0.6,0.9,0.6,1.5c0,0.8-0.3,1.4-0.9,1.9s-1.4,0.7-2.3,0.7H328.7z
		 M330.2,459.9v2.6h1c0.5,0,0.9-0.1,1.2-0.4c0.3-0.2,0.4-0.6,0.4-1c0-0.8-0.5-1.2-1.5-1.2H330.2z M330.2,463.6v2.8h1.3
		c0.6,0,1-0.1,1.3-0.4s0.5-0.6,0.5-1.1c0-0.9-0.6-1.4-1.9-1.4h-1.2L330.2,463.6L330.2,463.6z"/>
	<path style="fill:#686969;" d="M339.2,458.5v9.2h-1.5v-7.4c-0.3,0.2-0.5,0.3-0.8,0.5c-0.3,0.1-0.6,0.2-1,0.3v-1.2
		c0.2-0.1,0.5-0.2,0.7-0.3s0.4-0.2,0.7-0.3c0.2-0.1,0.4-0.2,0.7-0.4c0.2-0.1,0.5-0.3,0.7-0.5L339.2,458.5L339.2,458.5z"/>
</g>
<g>
	<path style="fill:#686969;" d="M490,467.7v-9h2.6c3.3,0,5,1.5,5,4.4c0,1.4-0.5,2.5-1.4,3.3s-2.2,1.3-3.7,1.3L490,467.7L490,467.7z
		 M491.5,459.9v6.5h1.2c1,0,1.9-0.3,2.4-0.9s0.9-1.4,0.9-2.4c0-2.1-1.1-3.1-3.3-3.1h-1.2V459.9L491.5,459.9z"/>
	<path style="fill:#686969;" d="M499.2,467.7v-9h2.8c0.9,0,1.6,0.2,2.1,0.6s0.8,0.9,0.8,1.5c0,0.5-0.1,1-0.4,1.3
		c-0.3,0.4-0.7,0.6-1.2,0.8l0,0c0.6,0.1,1.1,0.3,1.5,0.7c0.4,0.4,0.6,0.9,0.6,1.5c0,0.8-0.3,1.4-0.9,1.9s-1.4,0.7-2.3,0.7H499.2z
		 M500.7,459.9v2.6h1c0.5,0,0.9-0.1,1.2-0.4c0.3-0.2,0.4-0.6,0.4-1c0-0.8-0.5-1.2-1.5-1.2H500.7z M500.7,463.6v2.8h1.3
		c0.6,0,1-0.1,1.3-0.4s0.5-0.6,0.5-1.1c0-0.9-0.6-1.4-1.9-1.4h-1.2L500.7,463.6L500.7,463.6z"/>
	<path style="fill:#686969;" d="M509.7,458.5v9.2h-1.5v-7.4c-0.3,0.2-0.5,0.3-0.8,0.5c-0.3,0.1-0.6,0.2-1,0.3v-1.2
		c0.2-0.1,0.5-0.2,0.7-0.3c0.2-0.1,0.4-0.2,0.7-0.3c0.2-0.1,0.4-0.2,0.7-0.4s0.5-0.3,0.7-0.5L509.7,458.5L509.7,458.5z"/>
</g>
<g>
	<path style="fill:#686969;" d="M363.8,467.7v-9h2.6c3.3,0,5,1.5,5,4.4c0,1.4-0.5,2.5-1.4,3.3s-2.2,1.3-3.7,1.3L363.8,467.7
		L363.8,467.7z M365.3,459.9v6.5h1.2c1,0,1.9-0.3,2.4-0.9s0.9-1.4,0.9-2.4c0-2.1-1.1-3.1-3.3-3.1h-1.2V459.9z"/>
	<path style="fill:#686969;" d="M373,467.7v-9h2.8c0.9,0,1.6,0.2,2.1,0.6s0.8,0.9,0.8,1.5c0,0.5-0.1,1-0.4,1.3
		c-0.3,0.4-0.7,0.6-1.2,0.8l0,0c0.6,0.1,1.1,0.3,1.5,0.7c0.4,0.4,0.6,0.9,0.6,1.5c0,0.8-0.3,1.4-0.9,1.9s-1.4,0.7-2.3,0.7H373z
		 M374.5,459.9v2.6h1c0.5,0,0.9-0.1,1.2-0.4c0.3-0.2,0.4-0.6,0.4-1c0-0.8-0.5-1.2-1.5-1.2H374.5z M374.5,463.6v2.8h1.3
		c0.6,0,1-0.1,1.3-0.4s0.5-0.6,0.5-1.1c0-0.9-0.6-1.4-1.9-1.4h-1.2L374.5,463.6L374.5,463.6z"/>
	<path style="fill:#686969;" d="M385.9,467.7h-5.6V467c0-0.3,0-0.5,0.1-0.8c0.1-0.2,0.2-0.5,0.3-0.7c0.1-0.2,0.3-0.4,0.5-0.6
		s0.4-0.4,0.6-0.6s0.4-0.4,0.6-0.5s0.4-0.3,0.6-0.5s0.4-0.3,0.5-0.5c0.2-0.2,0.3-0.3,0.4-0.5s0.2-0.3,0.3-0.5s0.1-0.4,0.1-0.6
		s0-0.4-0.1-0.6s-0.2-0.3-0.3-0.4s-0.3-0.2-0.5-0.3c-0.2-0.1-0.4-0.1-0.6-0.1c-0.4,0-0.7,0.1-1.1,0.3s-0.7,0.4-1.1,0.8v-1.4
		c0.2-0.1,0.4-0.3,0.6-0.4s0.4-0.2,0.6-0.3c0.2-0.1,0.4-0.1,0.6-0.2c0.2,0,0.5,0,0.7,0c0.4,0,0.8,0.1,1.1,0.2
		c0.3,0.1,0.6,0.3,0.8,0.5c0.2,0.2,0.4,0.5,0.5,0.8s0.2,0.7,0.2,1.1s0,0.7-0.1,1s-0.2,0.6-0.4,0.8c-0.2,0.3-0.4,0.5-0.6,0.7
		s-0.5,0.5-0.8,0.7c-0.2,0.2-0.5,0.4-0.7,0.6s-0.5,0.4-0.6,0.5c-0.2,0.2-0.3,0.4-0.5,0.5c-0.1,0.2-0.2,0.4-0.2,0.5l0,0h4.1V467.7z"
		/>
</g>
<g>
	<path style="fill:#686969;" d="M532.5,467.7v-9h2.6c3.3,0,5,1.5,5,4.4c0,1.4-0.5,2.5-1.4,3.3s-2.2,1.3-3.7,1.3L532.5,467.7
		L532.5,467.7z M534,459.9v6.5h1.2c1,0,1.9-0.3,2.4-0.9s0.9-1.4,0.9-2.4c0-2.1-1.1-3.1-3.3-3.1H534V459.9z"/>
	<path style="fill:#686969;" d="M541.7,467.7v-9h2.8c0.9,0,1.6,0.2,2.1,0.6s0.8,0.9,0.8,1.5c0,0.5-0.1,1-0.4,1.3
		c-0.3,0.4-0.7,0.6-1.2,0.8l0,0c0.6,0.1,1.1,0.3,1.5,0.7c0.4,0.4,0.6,0.9,0.6,1.5c0,0.8-0.3,1.4-0.9,1.9c-0.6,0.5-1.4,0.7-2.3,0.7
		H541.7z M543.2,459.9v2.6h1c0.5,0,0.9-0.1,1.2-0.4c0.3-0.2,0.4-0.6,0.4-1c0-0.8-0.5-1.2-1.5-1.2H543.2z M543.2,463.6v2.8h1.3
		c0.6,0,1-0.1,1.3-0.4s0.5-0.6,0.5-1.1c0-0.9-0.6-1.4-1.9-1.4h-1.2L543.2,463.6L543.2,463.6z"/>
	<path style="fill:#686969;" d="M554.6,467.7H549V467c0-0.3,0-0.5,0.1-0.8c0.1-0.2,0.2-0.5,0.3-0.7s0.3-0.4,0.5-0.6s0.4-0.4,0.6-0.6
		s0.4-0.4,0.6-0.5s0.4-0.3,0.6-0.5c0.2-0.2,0.4-0.3,0.5-0.5c0.2-0.2,0.3-0.3,0.4-0.5c0.1-0.2,0.2-0.3,0.3-0.5s0.1-0.4,0.1-0.6
		s0-0.4-0.1-0.6s-0.2-0.3-0.3-0.4s-0.3-0.2-0.5-0.3c-0.2-0.1-0.4-0.1-0.6-0.1c-0.4,0-0.7,0.1-1.1,0.3c-0.4,0.2-0.7,0.4-1.1,0.8v-1.4
		c0.2-0.1,0.4-0.3,0.6-0.4c0.2-0.1,0.4-0.2,0.6-0.3c0.2-0.1,0.4-0.1,0.6-0.2c0.2,0,0.5,0,0.7,0c0.4,0,0.8,0.1,1.1,0.2
		s0.6,0.3,0.8,0.5s0.4,0.5,0.5,0.8s0.2,0.7,0.2,1.1s0,0.7-0.1,1s-0.2,0.6-0.4,0.8c-0.2,0.3-0.4,0.5-0.6,0.7
		c-0.2,0.2-0.5,0.5-0.8,0.7c-0.2,0.2-0.5,0.4-0.7,0.6s-0.5,0.4-0.6,0.5c-0.2,0.2-0.3,0.4-0.5,0.5c-0.1,0.2-0.2,0.4-0.2,0.5l0,0h4.1
		L554.6,467.7L554.6,467.7z"/>
</g>
<g>
	<path style="fill:#686969;" d="M406.9,467.7v-9h2.6c3.3,0,5,1.5,5,4.4c0,1.4-0.5,2.5-1.4,3.3s-2.2,1.3-3.7,1.3L406.9,467.7
		L406.9,467.7z M408.4,459.9v6.5h1.2c1,0,1.9-0.3,2.4-0.9s0.9-1.4,0.9-2.4c0-2.1-1.1-3.1-3.3-3.1h-1.2V459.9z"/>
	<path style="fill:#686969;" d="M416.1,467.7v-9h2.8c0.9,0,1.6,0.2,2.1,0.6s0.8,0.9,0.8,1.5c0,0.5-0.1,1-0.4,1.3
		c-0.3,0.4-0.7,0.6-1.2,0.8l0,0c0.6,0.1,1.1,0.3,1.5,0.7c0.4,0.4,0.6,0.9,0.6,1.5c0,0.8-0.3,1.4-0.9,1.9s-1.4,0.7-2.3,0.7H416.1z
		 M417.6,459.9v2.6h1c0.5,0,0.9-0.1,1.2-0.4c0.3-0.2,0.4-0.6,0.4-1c0-0.8-0.5-1.2-1.5-1.2H417.6z M417.6,463.6v2.8h1.3
		c0.6,0,1-0.1,1.3-0.4s0.5-0.6,0.5-1.1c0-0.9-0.6-1.4-1.9-1.4h-1.2L417.6,463.6L417.6,463.6z"/>
	<path style="fill:#686969;" d="M423.5,467.3V466c0.6,0.5,1.2,0.7,2,0.7c0.6,0,1.1-0.1,1.4-0.4c0.4-0.3,0.5-0.6,0.5-1.1
		c0-1-0.8-1.5-2.3-1.5h-0.7v-1.2h0.7c1.4,0,2.1-0.5,2.1-1.4s-0.5-1.3-1.6-1.3c-0.6,0-1.2,0.2-1.7,0.6V459c0.6-0.3,1.3-0.5,2.2-0.5
		c0.8,0,1.4,0.2,1.9,0.6s0.7,0.9,0.7,1.5c0,1.2-0.6,1.9-1.8,2.3l0,0c0.6,0.1,1.2,0.3,1.5,0.7c0.4,0.4,0.6,0.9,0.6,1.5
		c0,0.8-0.3,1.5-0.9,2s-1.4,0.7-2.4,0.7C424.8,467.8,424.1,467.7,423.5,467.3z"/>
</g>
<path style="fill:#686969;" d="M329.4,435.6c-3.4,0-6.2-0.8-6.2-1.9c0-1,2.8-1.8,6.2-1.8c3.4,0,6.1,0.8,6.1,1.8
	C335.6,434.8,332.8,435.6,329.4,435.6L329.4,435.6z M320.8,446.3v3.4c0,1.6,3.1,3.3,7.3,3.6h2.8c4.1-0.3,7.3-1.7,7.3-3.3v-15.9
	c0-1.8-3.9-3.4-8.7-3.4c-4.8,0-8.6,1.6-8.6,3.4L320.8,446.3L320.8,446.3L320.8,446.3L320.8,446.3z"/>
<path style="fill:#686969;" d="M374.5,435.6c-3.4,0-6.2-0.8-6.2-1.9c0-1,2.8-1.8,6.2-1.8c3.4,0,6.1,0.8,6.1,1.8
	C380.6,434.8,377.9,435.6,374.5,435.6L374.5,435.6z M365.8,446.3v3.4c0,1.6,3.1,3.3,7.3,3.6h2.8c4.1-0.3,7.3-1.7,7.3-3.3v-15.9
	c0-1.8-3.9-3.4-8.7-3.4c-4.8,0-8.6,1.6-8.6,3.4L365.8,446.3L365.8,446.3L365.8,446.3L365.8,446.3z"/>
<path style="fill:#686969;" d="M417.9,435.6c-3.4,0-6.2-0.8-6.2-1.9c0-1,2.8-1.8,6.2-1.8c3.4,0,6.1,0.8,6.1,1.8
	C424,434.8,421.3,435.6,417.9,435.6L417.9,435.6z M409.2,446.3v3.4c0,1.6,3.1,3.3,7.3,3.6h2.8c4.1-0.3,7.3-1.7,7.3-3.3v-15.9
	c0-1.8-3.9-3.4-8.7-3.4c-4.8,0-8.6,1.6-8.6,3.4L409.2,446.3L409.2,446.3L409.2,446.3L409.2,446.3z"/>
<g>
	<path style="fill:#686969;" d="M575.9,467.7v-9h2.6c3.3,0,5,1.5,5,4.4c0,1.4-0.5,2.5-1.4,3.3s-2.2,1.3-3.7,1.3L575.9,467.7
		L575.9,467.7z M577.4,459.9v6.5h1.2c1,0,1.9-0.3,2.4-0.9s0.9-1.4,0.9-2.4c0-2.1-1.1-3.1-3.3-3.1h-1.2L577.4,459.9L577.4,459.9z"/>
	<path style="fill:#686969;" d="M585.1,467.7v-9h2.8c0.9,0,1.6,0.2,2.1,0.6s0.8,0.9,0.8,1.5c0,0.5-0.1,1-0.4,1.3
		c-0.3,0.4-0.7,0.6-1.2,0.8l0,0c0.6,0.1,1.1,0.3,1.5,0.7c0.4,0.4,0.6,0.9,0.6,1.5c0,0.8-0.3,1.4-0.9,1.9c-0.6,0.5-1.4,0.7-2.3,0.7
		H585.1z M586.6,459.9v2.6h1c0.5,0,0.9-0.1,1.2-0.4c0.3-0.2,0.4-0.6,0.4-1c0-0.8-0.5-1.2-1.5-1.2H586.6z M586.6,463.6v2.8h1.3
		c0.6,0,1-0.1,1.3-0.4s0.5-0.6,0.5-1.1c0-0.9-0.6-1.4-1.9-1.4h-1.2L586.6,463.6L586.6,463.6z"/>
	<path style="fill:#686969;" d="M592.5,467.3V466c0.6,0.5,1.2,0.7,2,0.7c0.6,0,1.1-0.1,1.4-0.4s0.5-0.6,0.5-1.1c0-1-0.8-1.5-2.3-1.5
		h-0.7v-1.2h0.7c1.4,0,2.1-0.5,2.1-1.4s-0.5-1.3-1.6-1.3c-0.6,0-1.2,0.2-1.7,0.6V459c0.6-0.3,1.3-0.5,2.2-0.5c0.8,0,1.4,0.2,1.9,0.6
		s0.7,0.9,0.7,1.5c0,1.2-0.6,1.9-1.8,2.3l0,0c0.6,0.1,1.2,0.3,1.5,0.7c0.4,0.4,0.6,0.9,0.6,1.5c0,0.8-0.3,1.5-0.9,2
		s-1.4,0.7-2.4,0.7C593.7,467.8,593,467.7,592.5,467.3z"/>
</g>
<path style="fill:#686969;" d="M586.8,435.6c-3.4,0-6.2-0.8-6.2-1.9c0-1,2.8-1.8,6.2-1.8s6.1,0.8,6.1,1.8
	C593,434.8,590.2,435.6,586.8,435.6L586.8,435.6z M578.2,446.3v3.4c0,1.6,3.1,3.3,7.3,3.6h2.8c4.1-0.3,7.3-1.7,7.3-3.3v-15.9
	c0-1.8-3.9-3.4-8.7-3.4s-8.6,1.6-8.6,3.4L578.2,446.3L578.2,446.3L578.2,446.3L578.2,446.3z"/>
<path style="fill:#686969;" d="M500,435.6c-3.4,0-6.2-0.8-6.2-1.9c0-1,2.8-1.8,6.2-1.8s6.1,0.8,6.1,1.8
	C506.1,434.8,503.4,435.6,500,435.6L500,435.6z M491.3,446.3v3.4c0,1.6,3.1,3.3,7.3,3.6h2.8c4.1-0.3,7.3-1.7,7.3-3.3v-15.9
	c0-1.8-3.9-3.4-8.7-3.4s-8.6,1.6-8.6,3.4L491.3,446.3L491.3,446.3L491.3,446.3L491.3,446.3z"/>
<path style="fill:#686969;" d="M543.4,435.6c-3.4,0-6.2-0.8-6.2-1.9c0-1,2.8-1.8,6.2-1.8s6.1,0.8,6.1,1.8
	C549.5,434.8,546.8,435.6,543.4,435.6L543.4,435.6z M534.7,446.3v3.4c0,1.6,3.1,3.3,7.3,3.6h2.8c4.1-0.3,7.3-1.7,7.3-3.3v-15.9
	c0-1.8-3.9-3.4-8.7-3.4s-8.6,1.6-8.6,3.4L534.7,446.3L534.7,446.3L534.7,446.3L534.7,446.3z"/>
<circle style="fill:none;stroke:#010101;stroke-width:3;stroke-linecap:round;stroke-linejoin:round;stroke-miterlimit:10;" cx="459.7" cy="342.1" r="234.8"/>
<rect x="505.9" y="312.4" style="fill:none;stroke:#686969;stroke-width:3;stroke-linecap:round;stroke-linejoin:round;stroke-miterlimit:10;" width="77.9" height="36.1"/>
<rect x="335.2" y="312.4" style="fill:none;stroke:#686969;stroke-width:3;stroke-linecap:round;stroke-linejoin:round;stroke-miterlimit:10;" width="79.3" height="36.1"/>
<g>
	<g>
		
			<line style="fill:none;stroke:#010101;stroke-width:4;stroke-linecap:round;stroke-linejoin:round;" x1="433.7" y1="290.2" x2="427.2" y2="290.2"/>
		
			<line style="fill:none;stroke:#010101;stroke-width:4;stroke-linecap:round;stroke-linejoin:round;stroke-dasharray:12.5509,12.5509;" x1="414.6" y1="290.2" x2="245.2" y2="290.2"/>
		
			<line style="fill:none;stroke:#010101;stroke-width:4;stroke-linecap:round;stroke-linejoin:round;" x1="238.9" y1="290.2" x2="232.4" y2="290.2"/>
	</g>
</g>
<g>
	<g>
		
			<line style="fill:none;stroke:#010101;stroke-width:4;stroke-linecap:round;stroke-linejoin:round;" x1="686.7" y1="290.2" x2="680.2" y2="290.2"/>
		
			<line style="fill:none;stroke:#010101;stroke-width:4;stroke-linecap:round;stroke-linejoin:round;stroke-dasharray:12.5469,12.5469;" x1="667.7" y1="290.2" x2="498.3" y2="290.2"/>
		
			<line style="fill:none;stroke:#010101;stroke-width:4;stroke-linecap:round;stroke-linejoin:round;" x1="492" y1="290.2" x2="485.5" y2="290.2"/>
	</g>
</g>
<g>
	
		<line style="fill:none;stroke:#686969;stroke-width:2;stroke-linecap:round;stroke-linejoin:round;stroke-miterlimit:10;" x1="432.9" y1="330.5" x2="425.5" y2="330.5"/>
	
		<polyline style="fill:none;stroke:#686969;stroke-width:2;stroke-linecap:round;stroke-linejoin:round;stroke-miterlimit:10;" points="
		427.4,332.7 425.2,330.5 427.4,328.2 	"/>
</g>
<g>
	
		<line style="fill:none;stroke:#686969;stroke-width:2;stroke-linecap:round;stroke-linejoin:round;stroke-miterlimit:10;" x1="486" y1="330.5" x2="493.4" y2="330.5"/>
	
		<polyline style="fill:none;stroke:#686969;stroke-width:2;stroke-linecap:round;stroke-linejoin:round;stroke-miterlimit:10;" points="
		491.5,328.2 493.7,330.5 491.5,332.7 	"/>
</g>
<g>
	<path style="fill:#686969;" d="M382.9,195.3V270h-48.4v-74.8h48.4 M382.9,193.3h-48.4c-1.1,0-2,0.9-2,2V270c0,1.1,0.9,2,2,2h48.4
		c1.1,0,2-0.9,2-2v-74.8C384.9,194.1,384,193.3,382.9,193.3L382.9,193.3z"/>
</g>
<g>
	<path style="fill:#686969;" d="M441.7,195.3V270h-48.4v-74.8h48.4 M441.7,193.3h-48.4c-1.1,0-2,0.9-2,2V270c0,1.1,0.9,2,2,2h48.4
		c1.1,0,2-0.9,2-2v-74.8C443.7,194.1,442.8,193.3,441.7,193.3L441.7,193.3z"/>
</g>
<g>
	<path style="fill:#686969;" d="M526,195.3V270h-48.4v-74.8H526 M526,193.3h-48.4c-1.1,0-2,0.9-2,2V270c0,1.1,0.9,2,2,2H526
		c1.1,0,2-0.9,2-2v-74.8C528,194.1,527.1,193.3,526,193.3L526,193.3z"/>
</g>
<g>
	<path style="fill:#686969;" d="M584.8,195.3V270h-48.4v-74.8h48.4 M584.8,193.3h-48.4c-1.1,0-2,0.9-2,2V270c0,1.1,0.9,2,2,2h48.4
		c1.1,0,2-0.9,2-2v-74.8C586.8,194.1,585.9,193.3,584.8,193.3L584.8,193.3z"/>
</g>
<polygon style="fill:none;stroke:#686969;stroke-width:2;stroke-linecap:round;stroke-linejoin:round;stroke-miterlimit:10;" points="
	338.4,215.5 346.8,201 355.2,215.5 "/>
<polygon style="fill:none;stroke:#686969;stroke-width:2;stroke-linecap:round;stroke-linejoin:round;stroke-miterlimit:10;" points="
	362.4,215.5 370.7,201 379.1,215.5 "/>
<rect x="338.4" y="236.8" style="fill:none;stroke:#686969;stroke-width:2;stroke-linecap:round;stroke-linejoin:round;stroke-miterlimit:10;" width="40.7" height="16.2"/>
<polygon style="fill:none;stroke:#686969;stroke-width:2;stroke-linecap:round;stroke-linejoin:round;stroke-miterlimit:10;" points="
	397.1,215.5 405.5,201 413.9,215.5 "/>
<polygon style="fill:none;stroke:#686969;stroke-width:2;stroke-linecap:round;stroke-linejoin:round;stroke-miterlimit:10;" points="
	421.1,215.5 429.5,201 437.9,215.5 "/>
<rect x="397.1" y="236.8" style="fill:none;stroke:#686969;stroke-width:2;stroke-linecap:round;stroke-linejoin:round;stroke-miterlimit:10;" width="40.7" height="16.2"/>
<polygon style="fill:none;stroke:#686969;stroke-width:2;stroke-linecap:round;stroke-linejoin:round;stroke-miterlimit:10;" points="
	481.3,215.5 489.7,201 498.1,215.5 "/>
<polygon style="fill:none;stroke:#686969;stroke-width:2;stroke-linecap:round;stroke-linejoin:round;stroke-miterlimit:10;" points="
	505.3,215.5 513.7,201 522.1,215.5 "/>
<rect x="481.3" y="236.8" style="fill:none;stroke:#686969;stroke-width:2;stroke-linecap:round;stroke-linejoin:round;stroke-miterlimit:10;" width="40.7" height="16.2"/>
<polygon style="fill:none;stroke:#686969;stroke-width:2;stroke-linecap:round;stroke-linejoin:round;stroke-miterlimit:10;" points="
	540,215.5 548.4,201 556.8,215.5 "/>
<polygon style="fill:none;stroke:#686969;stroke-width:2;stroke-linecap:round;stroke-linejoin:round;stroke-miterlimit:10;" points="
	564,215.5 572.4,201 580.8,215.5 "/>
<rect x="540" y="236.8" style="fill:none;stroke:#686969;stroke-width:2;stroke-linecap:round;stroke-linejoin:round;stroke-miterlimit:10;" width="40.7" height="16.2"/>
<g>
	<g>
		<path style="fill:#686969;" d="M344.4,227.9h-1.2l-0.6-1.7h-2.7l-0.6,1.7h-1.2l2.5-6.8h1.3L344.4,227.9z M342.2,225.3l-0.9-2.7
			c0-0.1-0.1-0.2-0.1-0.4l0,0c0,0.2-0.1,0.3-0.1,0.4l-0.9,2.7H342.2z"/>
		<path style="fill:#686969;" d="M346.4,225.5v2.5h-1.1v-6.8h2.1c0.8,0,1.4,0.2,1.8,0.5c0.4,0.4,0.6,0.9,0.6,1.5s-0.2,1.2-0.7,1.6
			s-1.1,0.6-1.8,0.6L346.4,225.5L346.4,225.5z M346.4,222.1v2.5h0.7c0.5,0,0.8-0.1,1.1-0.3s0.4-0.5,0.4-0.9c0-0.8-0.5-1.2-1.4-1.2
			h-0.8L346.4,222.1L346.4,222.1z"/>
		<path style="fill:#686969;" d="M352.1,225.5v2.5H351v-6.8h2.1c0.8,0,1.4,0.2,1.8,0.5c0.4,0.4,0.6,0.9,0.6,1.5s-0.2,1.2-0.7,1.6
			s-1.1,0.6-1.8,0.6L352.1,225.5L352.1,225.5z M352.1,222.1v2.5h0.7c0.5,0,0.8-0.1,1.1-0.3c0.3-0.2,0.4-0.5,0.4-0.9
			c0-0.8-0.5-1.2-1.4-1.2h-0.8L352.1,222.1L352.1,222.1z"/>
	</g>
	<g>
		<path style="fill:#686969;" d="M368.4,227.9h-1.2l-0.6-1.7h-2.7l-0.6,1.7H362l2.5-6.8h1.3L368.4,227.9z M366.2,225.3l-0.9-2.7
			c0-0.1-0.1-0.2-0.1-0.4l0,0c0,0.2-0.1,0.3-0.1,0.4l-0.9,2.7H366.2z"/>
		<path style="fill:#686969;" d="M370.4,225.5v2.5h-1.1v-6.8h2.1c0.8,0,1.4,0.2,1.8,0.5c0.4,0.4,0.6,0.9,0.6,1.5s-0.2,1.2-0.7,1.6
			s-1.1,0.6-1.8,0.6L370.4,225.5L370.4,225.5z M370.4,222.1v2.5h0.7c0.5,0,0.8-0.1,1.1-0.3c0.3-0.2,0.4-0.5,0.4-0.9
			c0-0.8-0.5-1.2-1.4-1.2h-0.8L370.4,222.1L370.4,222.1z"/>
		<path style="fill:#686969;" d="M376.1,225.5v2.5H375v-6.8h2.1c0.8,0,1.4,0.2,1.8,0.5c0.4,0.4,0.6,0.9,0.6,1.5s-0.2,1.2-0.7,1.6
			s-1.1,0.6-1.8,0.6L376.1,225.5L376.1,225.5z M376.1,222.1v2.5h0.7c0.5,0,0.8-0.1,1.1-0.3c0.3-0.2,0.4-0.5,0.4-0.9
			c0-0.8-0.5-1.2-1.4-1.2h-0.8L376.1,222.1L376.1,222.1z"/>
	</g>
	<g>
		<path style="fill:#686969;" d="M337.3,265.8V259h2.2c0.7,0,1.2,0.1,1.6,0.4s0.6,0.7,0.6,1.1s-0.1,0.7-0.3,1s-0.5,0.5-0.9,0.6l0,0
			c0.5,0.1,0.8,0.2,1.1,0.5c0.3,0.3,0.4,0.7,0.4,1.1c0,0.6-0.2,1.1-0.7,1.4c-0.5,0.4-1,0.5-1.7,0.5h-2.3L337.3,265.8L337.3,265.8z
			 M338.4,259.9v1.9h0.7c0.4,0,0.7-0.1,0.9-0.3c0.2-0.2,0.3-0.4,0.3-0.8c0-0.6-0.4-0.9-1.2-0.9L338.4,259.9L338.4,259.9L338.4,259.9
			z M338.4,262.7v2.1h1c0.4,0,0.7-0.1,1-0.3c0.2-0.2,0.3-0.5,0.3-0.8c0-0.7-0.5-1.1-1.5-1.1L338.4,262.7L338.4,262.7z"/>
		<path style="fill:#686969;" d="M344.3,265.8h-1.2V259h1.2V265.8z"/>
		<path style="fill:#686969;" d="M351.7,265.8h-1.2l-3.2-5c-0.1-0.1-0.1-0.3-0.2-0.4l0,0c0,0.1,0,0.5,0,0.9v4.4H346V259h1.3l3.1,4.9
			c0.1,0.2,0.2,0.3,0.3,0.4l0,0c0-0.2,0-0.5,0-0.9V259h1.1L351.7,265.8L351.7,265.8z"/>
		<path style="fill:#686969;" d="M353.1,265.5v-1.2c0.1,0.1,0.2,0.2,0.4,0.3c0.1,0.1,0.3,0.1,0.5,0.2s0.3,0.1,0.5,0.1s0.3,0,0.4,0
			c0.5,0,0.8-0.1,1.1-0.2c0.2-0.2,0.3-0.4,0.3-0.7c0-0.2,0-0.3-0.1-0.4s-0.2-0.2-0.3-0.3s-0.3-0.2-0.5-0.3c-0.2-0.1-0.4-0.2-0.6-0.3
			s-0.4-0.2-0.6-0.4c-0.2-0.1-0.4-0.3-0.5-0.4c-0.1-0.2-0.3-0.3-0.3-0.5c-0.1-0.2-0.1-0.4-0.1-0.7c0-0.3,0.1-0.6,0.2-0.8
			s0.3-0.4,0.6-0.6c0.2-0.2,0.5-0.3,0.8-0.3c0.3-0.1,0.6-0.1,0.9-0.1c0.7,0,1.2,0.1,1.6,0.2v1.1c-0.4-0.3-0.9-0.4-1.5-0.4
			c-0.2,0-0.3,0-0.5,0s-0.3,0.1-0.4,0.2s-0.2,0.2-0.3,0.3c-0.1,0.1-0.1,0.3-0.1,0.4c0,0.2,0,0.3,0.1,0.4s0.2,0.2,0.3,0.3
			c0.1,0.1,0.3,0.2,0.4,0.3c0.2,0.1,0.4,0.2,0.6,0.3c0.2,0.1,0.5,0.3,0.7,0.4s0.4,0.3,0.6,0.4c0.2,0.2,0.3,0.3,0.4,0.5
			s0.1,0.4,0.1,0.7s-0.1,0.6-0.2,0.9s-0.3,0.4-0.6,0.6c-0.2,0.1-0.5,0.3-0.8,0.3c-0.3,0.1-0.6,0.1-1,0.1c-0.1,0-0.3,0-0.4,0
			c-0.2,0-0.3,0-0.5-0.1c-0.2,0-0.3-0.1-0.5-0.1C353.3,265.6,353.2,265.5,353.1,265.5z"/>
		<path style="fill:#686969;" d="M361.9,259l-3.3,7.9h-1l3.3-7.9H361.9z"/>
		<path style="fill:#686969;" d="M366.4,265.8h-3.8V259h1.1v5.8h2.6L366.4,265.8L366.4,265.8z"/>
		<path style="fill:#686969;" d="M368.6,265.8h-1.2V259h1.2V265.8z"/>
		<path style="fill:#686969;" d="M370.2,265.8V259h2.2c0.7,0,1.2,0.1,1.6,0.4s0.6,0.7,0.6,1.1s-0.1,0.7-0.3,1
			c-0.2,0.3-0.5,0.5-0.9,0.6l0,0c0.5,0.1,0.8,0.2,1.1,0.5c0.3,0.3,0.4,0.7,0.4,1.1c0,0.6-0.2,1.1-0.7,1.4c-0.5,0.4-1,0.5-1.7,0.5
			h-2.3L370.2,265.8L370.2,265.8z M371.4,259.9v1.9h0.7c0.4,0,0.7-0.1,0.9-0.3c0.2-0.2,0.3-0.4,0.3-0.8c0-0.6-0.4-0.9-1.2-0.9
			L371.4,259.9L371.4,259.9L371.4,259.9z M371.4,262.7v2.1h1c0.4,0,0.7-0.1,1-0.3c0.2-0.2,0.3-0.5,0.3-0.8c0-0.7-0.5-1.1-1.5-1.1
			L371.4,262.7L371.4,262.7z"/>
		<path style="fill:#686969;" d="M375.8,265.5v-1.2c0.1,0.1,0.2,0.2,0.4,0.3c0.1,0.1,0.3,0.1,0.5,0.2s0.3,0.1,0.5,0.1s0.3,0,0.4,0
			c0.5,0,0.8-0.1,1.1-0.2c0.2-0.2,0.3-0.4,0.3-0.7c0-0.2,0-0.3-0.1-0.4s-0.2-0.2-0.3-0.3s-0.3-0.2-0.5-0.3c-0.2-0.1-0.4-0.2-0.6-0.3
			s-0.4-0.2-0.6-0.4c-0.2-0.1-0.4-0.3-0.5-0.4c-0.1-0.2-0.3-0.3-0.3-0.5c-0.1-0.2-0.1-0.4-0.1-0.7c0-0.3,0.1-0.6,0.2-0.8
			s0.3-0.4,0.6-0.6c0.2-0.2,0.5-0.3,0.8-0.3c0.3-0.1,0.6-0.1,0.9-0.1c0.7,0,1.2,0.1,1.6,0.2v1.1c-0.4-0.3-0.9-0.4-1.5-0.4
			c-0.2,0-0.3,0-0.5,0s-0.3,0.1-0.4,0.2s-0.2,0.2-0.3,0.3s-0.1,0.3-0.1,0.4c0,0.2,0,0.3,0.1,0.4s0.2,0.2,0.3,0.3
			c0.1,0.1,0.3,0.2,0.4,0.3s0.4,0.2,0.6,0.3c0.2,0.1,0.5,0.3,0.7,0.4s0.4,0.3,0.6,0.4c0.2,0.2,0.3,0.3,0.4,0.5s0.1,0.4,0.1,0.7
			s-0.1,0.6-0.2,0.9c-0.1,0.2-0.3,0.4-0.6,0.6c-0.2,0.1-0.5,0.3-0.8,0.3c-0.3,0.1-0.6,0.1-1,0.1c-0.1,0-0.3,0-0.4,0
			c-0.2,0-0.3,0-0.5-0.1c-0.2,0-0.3-0.1-0.5-0.1C376,265.6,375.9,265.5,375.8,265.5z"/>
	</g>
	<g>
		<path style="fill:#686969;" d="M403.1,227.9h-1.2l-0.6-1.7h-2.7l-0.6,1.7h-1.2l2.5-6.8h1.3L403.1,227.9z M401,225.3l-0.9-2.7
			c0-0.1-0.1-0.2-0.1-0.4l0,0c0,0.2-0.1,0.3-0.1,0.4l-0.9,2.7H401z"/>
		<path style="fill:#686969;" d="M405.2,225.5v2.5H404v-6.8h2.1c0.8,0,1.4,0.2,1.8,0.5c0.4,0.4,0.6,0.9,0.6,1.5s-0.2,1.2-0.7,1.6
			s-1.1,0.6-1.8,0.6L405.2,225.5L405.2,225.5z M405.2,222.1v2.5h0.7c0.5,0,0.8-0.1,1.1-0.3c0.3-0.2,0.4-0.5,0.4-0.9
			c0-0.8-0.5-1.2-1.4-1.2h-0.8L405.2,222.1L405.2,222.1z"/>
		<path style="fill:#686969;" d="M410.8,225.5v2.5h-1.1v-6.8h2.1c0.8,0,1.4,0.2,1.8,0.5c0.4,0.4,0.6,0.9,0.6,1.5s-0.2,1.2-0.7,1.6
			s-1.1,0.6-1.8,0.6L410.8,225.5L410.8,225.5z M410.8,222.1v2.5h0.7c0.5,0,0.8-0.1,1.1-0.3s0.4-0.5,0.4-0.9c0-0.8-0.5-1.2-1.4-1.2
			h-0.8L410.8,222.1L410.8,222.1z"/>
	</g>
	<g>
		<path style="fill:#686969;" d="M427.1,227.9h-1.2l-0.6-1.7h-2.7l-0.6,1.7h-1.2l2.5-6.8h1.3L427.1,227.9z M424.9,225.3l-0.9-2.7
			c0-0.1-0.1-0.2-0.1-0.4l0,0c0,0.2-0.1,0.3-0.1,0.4l-0.9,2.7H424.9z"/>
		<path style="fill:#686969;" d="M429.1,225.5v2.5H428v-6.8h2.1c0.8,0,1.4,0.2,1.8,0.5c0.4,0.4,0.6,0.9,0.6,1.5s-0.2,1.2-0.7,1.6
			s-1.1,0.6-1.8,0.6L429.1,225.5L429.1,225.5z M429.1,222.1v2.5h0.7c0.5,0,0.8-0.1,1.1-0.3c0.3-0.2,0.4-0.5,0.4-0.9
			c0-0.8-0.5-1.2-1.4-1.2h-0.8L429.1,222.1L429.1,222.1z"/>
		<path style="fill:#686969;" d="M434.8,225.5v2.5h-1.1v-6.8h2.1c0.8,0,1.4,0.2,1.8,0.5c0.4,0.4,0.6,0.9,0.6,1.5s-0.2,1.2-0.7,1.6
			s-1.1,0.6-1.8,0.6L434.8,225.5L434.8,225.5z M434.8,222.1v2.5h0.7c0.5,0,0.8-0.1,1.1-0.3c0.3-0.2,0.4-0.5,0.4-0.9
			c0-0.8-0.5-1.2-1.4-1.2h-0.8L434.8,222.1L434.8,222.1z"/>
	</g>
	<g>
		<path style="fill:#686969;" d="M396.1,265.8V259h2.2c0.7,0,1.2,0.1,1.6,0.4s0.6,0.7,0.6,1.1s-0.1,0.7-0.3,1
			c-0.2,0.3-0.5,0.5-0.9,0.6l0,0c0.5,0.1,0.8,0.2,1.1,0.5c0.3,0.3,0.4,0.7,0.4,1.1c0,0.6-0.2,1.1-0.7,1.4c-0.5,0.4-1,0.5-1.7,0.5
			h-2.3L396.1,265.8L396.1,265.8z M397.2,259.9v1.9h0.7c0.4,0,0.7-0.1,0.9-0.3c0.2-0.2,0.3-0.4,0.3-0.8c0-0.6-0.4-0.9-1.2-0.9
			L397.2,259.9L397.2,259.9L397.2,259.9z M397.2,262.7v2.1h1c0.4,0,0.7-0.1,1-0.3c0.2-0.2,0.3-0.5,0.3-0.8c0-0.7-0.5-1.1-1.5-1.1
			L397.2,262.7L397.2,262.7z"/>
		<path style="fill:#686969;" d="M403.1,265.8h-1.2V259h1.2V265.8z"/>
		<path style="fill:#686969;" d="M410.5,265.8h-1.2l-3.2-5c-0.1-0.1-0.1-0.3-0.2-0.4l0,0c0,0.1,0,0.5,0,0.9v4.4h-1.1V259h1.3
			l3.1,4.9c0.1,0.2,0.2,0.3,0.3,0.4l0,0c0-0.2,0-0.5,0-0.9V259h1.1L410.5,265.8L410.5,265.8z"/>
		<path style="fill:#686969;" d="M411.9,265.5v-1.2c0.1,0.1,0.2,0.2,0.4,0.3c0.1,0.1,0.3,0.1,0.5,0.2s0.3,0.1,0.5,0.1s0.3,0,0.4,0
			c0.5,0,0.8-0.1,1.1-0.2c0.2-0.2,0.3-0.4,0.3-0.7c0-0.2,0-0.3-0.1-0.4s-0.2-0.2-0.3-0.3s-0.3-0.2-0.5-0.3c-0.2-0.1-0.4-0.2-0.6-0.3
			s-0.4-0.2-0.6-0.4c-0.2-0.1-0.4-0.3-0.5-0.4c-0.1-0.2-0.3-0.3-0.3-0.5c-0.1-0.2-0.1-0.4-0.1-0.7c0-0.3,0.1-0.6,0.2-0.8
			s0.3-0.4,0.6-0.6c0.2-0.2,0.5-0.3,0.8-0.3c0.3-0.1,0.6-0.1,0.9-0.1c0.7,0,1.2,0.1,1.6,0.2v1.1c-0.4-0.3-0.9-0.4-1.5-0.4
			c-0.2,0-0.3,0-0.5,0s-0.3,0.1-0.4,0.2s-0.2,0.2-0.3,0.3s-0.1,0.3-0.1,0.4c0,0.2,0,0.3,0.1,0.4s0.2,0.2,0.3,0.3
			c0.1,0.1,0.3,0.2,0.4,0.3s0.4,0.2,0.6,0.3c0.2,0.1,0.5,0.3,0.7,0.4s0.4,0.3,0.6,0.4c0.2,0.2,0.3,0.3,0.4,0.5s0.1,0.4,0.1,0.7
			s-0.1,0.6-0.2,0.9c-0.1,0.2-0.3,0.4-0.6,0.6c-0.2,0.1-0.5,0.3-0.8,0.3c-0.3,0.1-0.6,0.1-1,0.1c-0.1,0-0.3,0-0.4,0
			c-0.2,0-0.3,0-0.5-0.1c-0.2,0-0.3-0.1-0.5-0.1C412.1,265.6,412,265.5,411.9,265.5z"/>
		<path style="fill:#686969;" d="M420.7,259l-3.3,7.9h-1l3.3-7.9H420.7z"/>
		<path style="fill:#686969;" d="M425.2,265.8h-3.8V259h1.1v5.8h2.6L425.2,265.8L425.2,265.8z"/>
		<path style="fill:#686969;" d="M427.3,265.8h-1.2V259h1.2V265.8z"/>
		<path style="fill:#686969;" d="M429,265.8V259h2.2c0.7,0,1.2,0.1,1.6,0.4s0.6,0.7,0.6,1.1s-0.1,0.7-0.3,1s-0.5,0.5-0.9,0.6l0,0
			c0.5,0.1,0.8,0.2,1.1,0.5c0.3,0.3,0.4,0.7,0.4,1.1c0,0.6-0.2,1.1-0.7,1.4c-0.5,0.4-1,0.5-1.7,0.5H429V265.8z M430.1,259.9v1.9h0.7
			c0.4,0,0.7-0.1,0.9-0.3c0.2-0.2,0.3-0.4,0.3-0.8c0-0.6-0.4-0.9-1.2-0.9L430.1,259.9L430.1,259.9L430.1,259.9z M430.1,262.7v2.1h1
			c0.4,0,0.7-0.1,1-0.3c0.2-0.2,0.3-0.5,0.3-0.8c0-0.7-0.5-1.1-1.5-1.1L430.1,262.7L430.1,262.7z"/>
		<path style="fill:#686969;" d="M434.6,265.5v-1.2c0.1,0.1,0.2,0.2,0.4,0.3c0.1,0.1,0.3,0.1,0.5,0.2s0.3,0.1,0.5,0.1s0.3,0,0.4,0
			c0.5,0,0.8-0.1,1.1-0.2c0.2-0.2,0.3-0.4,0.3-0.7c0-0.2,0-0.3-0.1-0.4s-0.2-0.2-0.3-0.3s-0.3-0.2-0.5-0.3c-0.2-0.1-0.4-0.2-0.6-0.3
			s-0.4-0.2-0.6-0.4c-0.2-0.1-0.4-0.3-0.5-0.4c-0.1-0.2-0.3-0.3-0.3-0.5c-0.1-0.2-0.1-0.4-0.1-0.7c0-0.3,0.1-0.6,0.2-0.8
			s0.3-0.4,0.6-0.6c0.2-0.2,0.5-0.3,0.8-0.3c0.3-0.1,0.6-0.1,0.9-0.1c0.7,0,1.2,0.1,1.6,0.2v1.1c-0.4-0.3-0.9-0.4-1.5-0.4
			c-0.2,0-0.3,0-0.5,0s-0.3,0.1-0.4,0.2s-0.2,0.2-0.3,0.3s-0.1,0.3-0.1,0.4c0,0.2,0,0.3,0.1,0.4s0.2,0.2,0.3,0.3
			c0.1,0.1,0.3,0.2,0.4,0.3c0.2,0.1,0.4,0.2,0.6,0.3c0.2,0.1,0.5,0.3,0.7,0.4s0.4,0.3,0.6,0.4c0.2,0.2,0.3,0.3,0.4,0.5
			s0.1,0.4,0.1,0.7s-0.1,0.6-0.2,0.9s-0.3,0.4-0.6,0.6c-0.2,0.1-0.5,0.3-0.8,0.3c-0.3,0.1-0.6,0.1-1,0.1c-0.1,0-0.3,0-0.4,0
			c-0.2,0-0.3,0-0.5-0.1c-0.2,0-0.3-0.1-0.5-0.1C434.8,265.6,434.6,265.5,434.6,265.5z"/>
	</g>
	<g>
		<path style="fill:#686969;" d="M487.3,227.9h-1.2l-0.6-1.7h-2.7l-0.6,1.7H481l2.5-6.8h1.3L487.3,227.9z M485.2,225.3l-0.9-2.7
			c0-0.1-0.1-0.2-0.1-0.4l0,0c0,0.2-0.1,0.3-0.1,0.4l-0.9,2.7H485.2z"/>
		<path style="fill:#686969;" d="M489.4,225.5v2.5h-1.1v-6.8h2.1c0.8,0,1.4,0.2,1.8,0.5c0.4,0.4,0.6,0.9,0.6,1.5s-0.2,1.2-0.7,1.6
			c-0.4,0.4-1.1,0.6-1.8,0.6L489.4,225.5L489.4,225.5z M489.4,222.1v2.5h0.7c0.5,0,0.8-0.1,1.1-0.3s0.4-0.5,0.4-0.9
			c0-0.8-0.5-1.2-1.4-1.2h-0.8L489.4,222.1L489.4,222.1z"/>
		<path style="fill:#686969;" d="M495,225.5v2.5h-1.1v-6.8h2.1c0.8,0,1.4,0.2,1.8,0.5c0.4,0.4,0.6,0.9,0.6,1.5s-0.2,1.2-0.7,1.6
			c-0.4,0.4-1.1,0.6-1.8,0.6L495,225.5L495,225.5z M495,222.1v2.5h0.7c0.5,0,0.8-0.1,1.1-0.3s0.4-0.5,0.4-0.9c0-0.8-0.5-1.2-1.4-1.2
			H495V222.1z"/>
	</g>
	<g>
		<path style="fill:#686969;" d="M511.3,227.9h-1.2l-0.6-1.7h-2.7l-0.6,1.7H505l2.5-6.8h1.3L511.3,227.9z M509.2,225.3l-0.9-2.7
			c0-0.1-0.1-0.2-0.1-0.4l0,0c0,0.2-0.1,0.3-0.1,0.4l-0.9,2.7H509.2z"/>
		<path style="fill:#686969;" d="M513.4,225.5v2.5h-1.1v-6.8h2.1c0.8,0,1.4,0.2,1.8,0.5c0.4,0.4,0.6,0.9,0.6,1.5s-0.2,1.2-0.7,1.6
			c-0.4,0.4-1.1,0.6-1.8,0.6L513.4,225.5L513.4,225.5z M513.4,222.1v2.5h0.7c0.5,0,0.8-0.1,1.1-0.3s0.4-0.5,0.4-0.9
			c0-0.8-0.5-1.2-1.4-1.2h-0.8V222.1z"/>
		<path style="fill:#686969;" d="M519,225.5v2.5h-1.1v-6.8h2.1c0.8,0,1.4,0.2,1.8,0.5c0.4,0.4,0.6,0.9,0.6,1.5s-0.2,1.2-0.7,1.6
			c-0.4,0.4-1.1,0.6-1.8,0.6L519,225.5L519,225.5z M519,222.1v2.5h0.7c0.5,0,0.8-0.1,1.1-0.3s0.4-0.5,0.4-0.9c0-0.8-0.5-1.2-1.4-1.2
			H519V222.1z"/>
	</g>
	<g>
		<path style="fill:#686969;" d="M480.4,265.8V259h2.2c0.7,0,1.2,0.1,1.6,0.4s0.6,0.7,0.6,1.1s-0.1,0.7-0.3,1s-0.5,0.5-0.9,0.6l0,0
			c0.5,0.1,0.8,0.2,1.1,0.5c0.3,0.3,0.4,0.7,0.4,1.1c0,0.6-0.2,1.1-0.7,1.4c-0.5,0.4-1,0.5-1.7,0.5h-2.3L480.4,265.8L480.4,265.8z
			 M481.5,259.9v1.9h0.7c0.4,0,0.7-0.1,0.9-0.3c0.2-0.2,0.3-0.4,0.3-0.8c0-0.6-0.4-0.9-1.2-0.9L481.5,259.9L481.5,259.9L481.5,259.9
			z M481.5,262.7v2.1h1c0.4,0,0.7-0.1,1-0.3c0.2-0.2,0.3-0.5,0.3-0.8c0-0.7-0.5-1.1-1.5-1.1L481.5,262.7L481.5,262.7z"/>
		<path style="fill:#686969;" d="M487.4,265.8h-1.2V259h1.2V265.8z"/>
		<path style="fill:#686969;" d="M494.8,265.8h-1.2l-3.2-5c-0.1-0.1-0.1-0.3-0.2-0.4l0,0c0,0.1,0,0.5,0,0.9v4.4h-1.1V259h1.3
			l3.1,4.9c0.1,0.2,0.2,0.3,0.3,0.4l0,0c0-0.2,0-0.5,0-0.9V259h1.1L494.8,265.8L494.8,265.8z"/>
		<path style="fill:#686969;" d="M496.2,265.5v-1.2c0.1,0.1,0.2,0.2,0.4,0.3c0.1,0.1,0.3,0.1,0.5,0.2s0.3,0.1,0.5,0.1s0.3,0,0.4,0
			c0.5,0,0.8-0.1,1.1-0.2c0.2-0.2,0.3-0.4,0.3-0.7c0-0.2,0-0.3-0.1-0.4s-0.2-0.2-0.3-0.3s-0.3-0.2-0.5-0.3c-0.2-0.1-0.4-0.2-0.6-0.3
			c-0.2-0.1-0.4-0.2-0.6-0.4c-0.2-0.1-0.4-0.3-0.5-0.4c-0.1-0.2-0.3-0.3-0.3-0.5c-0.1-0.2-0.1-0.4-0.1-0.7c0-0.3,0.1-0.6,0.2-0.8
			c0.1-0.2,0.3-0.4,0.6-0.6c0.2-0.2,0.5-0.3,0.8-0.3c0.3-0.1,0.6-0.1,0.9-0.1c0.7,0,1.2,0.1,1.6,0.2v1.1c-0.4-0.3-0.9-0.4-1.5-0.4
			c-0.2,0-0.3,0-0.5,0s-0.3,0.1-0.4,0.2s-0.2,0.2-0.3,0.3s-0.1,0.3-0.1,0.4c0,0.2,0,0.3,0.1,0.4s0.2,0.2,0.3,0.3
			c0.1,0.1,0.3,0.2,0.4,0.3s0.4,0.2,0.6,0.3c0.2,0.1,0.5,0.3,0.7,0.4s0.4,0.3,0.6,0.4c0.2,0.2,0.3,0.3,0.4,0.5s0.1,0.4,0.1,0.7
			s-0.1,0.6-0.2,0.9c-0.1,0.2-0.3,0.4-0.6,0.6c-0.2,0.1-0.5,0.3-0.8,0.3c-0.3,0.1-0.6,0.1-1,0.1c-0.1,0-0.3,0-0.4,0
			c-0.2,0-0.3,0-0.5-0.1c-0.2,0-0.3-0.1-0.5-0.1C496.4,265.6,496.3,265.5,496.2,265.5z"/>
		<path style="fill:#686969;" d="M505,259l-3.3,7.9h-1l3.3-7.9H505z"/>
		<path style="fill:#686969;" d="M509.5,265.8h-3.8V259h1.1v5.8h2.6L509.5,265.8L509.5,265.8z"/>
		<path style="fill:#686969;" d="M511.7,265.8h-1.2V259h1.2V265.8z"/>
		<path style="fill:#686969;" d="M513.3,265.8V259h2.2c0.7,0,1.2,0.1,1.6,0.4c0.4,0.3,0.6,0.7,0.6,1.1s-0.1,0.7-0.3,1
			s-0.5,0.5-0.9,0.6l0,0c0.5,0.1,0.8,0.2,1.1,0.5s0.4,0.7,0.4,1.1c0,0.6-0.2,1.1-0.7,1.4c-0.5,0.4-1,0.5-1.7,0.5h-2.3L513.3,265.8
			L513.3,265.8z M514.5,259.9v1.9h0.7c0.4,0,0.7-0.1,0.9-0.3c0.2-0.2,0.3-0.4,0.3-0.8c0-0.6-0.4-0.9-1.2-0.9L514.5,259.9
			L514.5,259.9z M514.5,262.7v2.1h1c0.4,0,0.7-0.1,1-0.3c0.2-0.2,0.3-0.5,0.3-0.8c0-0.7-0.5-1.1-1.5-1.1L514.5,262.7L514.5,262.7z"
			/>
		<path style="fill:#686969;" d="M518.9,265.5v-1.2c0.1,0.1,0.2,0.2,0.4,0.3c0.1,0.1,0.3,0.1,0.5,0.2s0.3,0.1,0.5,0.1s0.3,0,0.4,0
			c0.5,0,0.8-0.1,1.1-0.2c0.2-0.2,0.3-0.4,0.3-0.7c0-0.2,0-0.3-0.1-0.4s-0.2-0.2-0.3-0.3s-0.3-0.2-0.5-0.3c-0.2-0.1-0.4-0.2-0.6-0.3
			c-0.2-0.1-0.4-0.2-0.6-0.4c-0.2-0.1-0.4-0.3-0.5-0.4c-0.1-0.2-0.3-0.3-0.3-0.5s-0.1-0.4-0.1-0.7c0-0.3,0.1-0.6,0.2-0.8
			c0.1-0.2,0.3-0.4,0.6-0.6c0.2-0.2,0.5-0.3,0.8-0.3c0.3-0.1,0.6-0.1,0.9-0.1c0.7,0,1.2,0.1,1.6,0.2v1.1c-0.4-0.3-0.9-0.4-1.5-0.4
			c-0.2,0-0.3,0-0.5,0s-0.3,0.1-0.4,0.2c-0.1,0.1-0.2,0.2-0.3,0.3s-0.1,0.3-0.1,0.4c0,0.2,0,0.3,0.1,0.4s0.2,0.2,0.3,0.3
			c0.1,0.1,0.3,0.2,0.4,0.3s0.4,0.2,0.6,0.3c0.2,0.1,0.5,0.3,0.7,0.4s0.4,0.3,0.6,0.4c0.2,0.2,0.3,0.3,0.4,0.5
			c0.1,0.2,0.1,0.4,0.1,0.7s-0.1,0.6-0.2,0.9s-0.3,0.4-0.6,0.6c-0.2,0.1-0.5,0.3-0.8,0.3c-0.3,0.1-0.6,0.1-1,0.1c-0.1,0-0.3,0-0.4,0
			c-0.2,0-0.3,0-0.5-0.1c-0.2,0-0.3-0.1-0.5-0.1C519.1,265.6,519,265.5,518.9,265.5z"/>
	</g>
	<g>
		<path style="fill:#686969;" d="M546,227.9h-1.2l-0.6-1.7h-2.7l-0.6,1.7h-1.2l2.5-6.8h1.3L546,227.9z M543.9,225.3l-0.9-2.7
			c0-0.1-0.1-0.2-0.1-0.4l0,0c0,0.2-0.1,0.3-0.1,0.4l-0.9,2.7H543.9z"/>
		<path style="fill:#686969;" d="M548.1,225.5v2.5H547v-6.8h2.1c0.8,0,1.4,0.2,1.8,0.5c0.4,0.4,0.6,0.9,0.6,1.5s-0.2,1.2-0.7,1.6
			c-0.4,0.4-1.1,0.6-1.8,0.6L548.1,225.5L548.1,225.5z M548.1,222.1v2.5h0.7c0.5,0,0.8-0.1,1.1-0.3s0.4-0.5,0.4-0.9
			c0-0.8-0.5-1.2-1.4-1.2h-0.8V222.1z"/>
		<path style="fill:#686969;" d="M553.8,225.5v2.5h-1.1v-6.8h2.1c0.8,0,1.4,0.2,1.8,0.5c0.4,0.4,0.6,0.9,0.6,1.5s-0.2,1.2-0.7,1.6
			c-0.4,0.4-1.1,0.6-1.8,0.6L553.8,225.5L553.8,225.5z M553.8,222.1v2.5h0.7c0.5,0,0.8-0.1,1.1-0.3s0.4-0.5,0.4-0.9
			c0-0.8-0.5-1.2-1.4-1.2h-0.8V222.1z"/>
	</g>
	<g>
		<path style="fill:#686969;" d="M570,227.9h-1.2l-0.6-1.7h-2.7l-0.6,1.7h-1.2l2.5-6.8h1.3L570,227.9z M567.9,225.3l-0.9-2.7
			c0-0.1-0.1-0.2-0.1-0.4l0,0c0,0.2-0.1,0.3-0.1,0.4l-0.9,2.7H567.9z"/>
		<path style="fill:#686969;" d="M572.1,225.5v2.5H571v-6.8h2.1c0.8,0,1.4,0.2,1.8,0.5c0.4,0.4,0.6,0.9,0.6,1.5s-0.2,1.2-0.7,1.6
			c-0.4,0.4-1.1,0.6-1.8,0.6L572.1,225.5L572.1,225.5z M572.1,222.1v2.5h0.7c0.5,0,0.8-0.1,1.1-0.3s0.4-0.5,0.4-0.9
			c0-0.8-0.5-1.2-1.4-1.2h-0.8V222.1z"/>
		<path style="fill:#686969;" d="M577.7,225.5v2.5h-1.1v-6.8h2.1c0.8,0,1.4,0.2,1.8,0.5c0.4,0.4,0.6,0.9,0.6,1.5s-0.2,1.2-0.7,1.6
			c-0.4,0.4-1.1,0.6-1.8,0.6L577.7,225.5L577.7,225.5z M577.7,222.1v2.5h0.7c0.5,0,0.8-0.1,1.1-0.3s0.4-0.5,0.4-0.9
			c0-0.8-0.5-1.2-1.4-1.2h-0.8V222.1z"/>
	</g>
	<g>
		<path style="fill:#686969;" d="M539.2,265.8V259h2.2c0.7,0,1.2,0.1,1.6,0.4c0.4,0.3,0.6,0.7,0.6,1.1s-0.1,0.7-0.3,1
			s-0.5,0.5-0.9,0.6l0,0c0.5,0.1,0.8,0.2,1.1,0.5s0.4,0.7,0.4,1.1c0,0.6-0.2,1.1-0.7,1.4c-0.5,0.4-1,0.5-1.7,0.5h-2.3L539.2,265.8
			L539.2,265.8z M540.3,259.9v1.9h0.7c0.4,0,0.7-0.1,0.9-0.3c0.2-0.2,0.3-0.4,0.3-0.8c0-0.6-0.4-0.9-1.2-0.9L540.3,259.9
			L540.3,259.9z M540.3,262.7v2.1h1c0.4,0,0.7-0.1,1-0.3c0.2-0.2,0.3-0.5,0.3-0.8c0-0.7-0.5-1.1-1.5-1.1L540.3,262.7L540.3,262.7z"
			/>
		<path style="fill:#686969;" d="M546.2,265.8H545V259h1.2V265.8z"/>
		<path style="fill:#686969;" d="M553.6,265.8h-1.2l-3.2-5c-0.1-0.1-0.1-0.3-0.2-0.4l0,0c0,0.1,0,0.5,0,0.9v4.4h-1.1V259h1.3
			l3.1,4.9c0.1,0.2,0.2,0.3,0.3,0.4l0,0c0-0.2,0-0.5,0-0.9V259h1.1L553.6,265.8L553.6,265.8z"/>
		<path style="fill:#686969;" d="M555,265.5v-1.2c0.1,0.1,0.2,0.2,0.4,0.3c0.1,0.1,0.3,0.1,0.5,0.2s0.3,0.1,0.5,0.1s0.3,0,0.4,0
			c0.5,0,0.8-0.1,1.1-0.2c0.2-0.2,0.3-0.4,0.3-0.7c0-0.2,0-0.3-0.1-0.4s-0.2-0.2-0.3-0.3s-0.3-0.2-0.5-0.3c-0.2-0.1-0.4-0.2-0.6-0.3
			c-0.2-0.1-0.4-0.2-0.6-0.4c-0.2-0.1-0.4-0.3-0.5-0.4c-0.1-0.2-0.3-0.3-0.3-0.5c-0.1-0.2-0.1-0.4-0.1-0.7c0-0.3,0.1-0.6,0.2-0.8
			c0.1-0.2,0.3-0.4,0.6-0.6c0.2-0.2,0.5-0.3,0.8-0.3c0.3-0.1,0.6-0.1,0.9-0.1c0.7,0,1.2,0.1,1.6,0.2v1.1c-0.4-0.3-0.9-0.4-1.5-0.4
			c-0.2,0-0.3,0-0.5,0s-0.3,0.1-0.4,0.2c-0.1,0.1-0.2,0.2-0.3,0.3s-0.1,0.3-0.1,0.4c0,0.2,0,0.3,0.1,0.4s0.2,0.2,0.3,0.3
			c0.1,0.1,0.3,0.2,0.4,0.3s0.4,0.2,0.6,0.3c0.2,0.1,0.5,0.3,0.7,0.4s0.4,0.3,0.6,0.4c0.2,0.2,0.3,0.3,0.4,0.5
			c0.1,0.2,0.1,0.4,0.1,0.7s-0.1,0.6-0.2,0.9c-0.1,0.2-0.3,0.4-0.6,0.6c-0.2,0.1-0.5,0.3-0.8,0.3c-0.3,0.1-0.6,0.1-1,0.1
			c-0.1,0-0.3,0-0.4,0c-0.2,0-0.3,0-0.5-0.1c-0.2,0-0.3-0.1-0.5-0.1C555.2,265.6,555.1,265.5,555,265.5z"/>
		<path style="fill:#686969;" d="M563.8,259l-3.3,7.9h-1l3.3-7.9H563.8z"/>
		<path style="fill:#686969;" d="M568.3,265.8h-3.8V259h1.1v5.8h2.6v1H568.3z"/>
		<path style="fill:#686969;" d="M570.4,265.8h-1.2V259h1.2V265.8z"/>
		<path style="fill:#686969;" d="M572.1,265.8V259h2.2c0.7,0,1.2,0.1,1.6,0.4c0.4,0.3,0.6,0.7,0.6,1.1s-0.1,0.7-0.3,1
			s-0.5,0.5-0.9,0.6l0,0c0.5,0.1,0.8,0.2,1.1,0.5s0.4,0.7,0.4,1.1c0,0.6-0.2,1.1-0.7,1.4c-0.5,0.4-1,0.5-1.7,0.5h-2.3L572.1,265.8
			L572.1,265.8z M573.2,259.9v1.9h0.7c0.4,0,0.7-0.1,0.9-0.3c0.2-0.2,0.3-0.4,0.3-0.8c0-0.6-0.4-0.9-1.2-0.9L573.2,259.9
			L573.2,259.9z M573.2,262.7v2.1h1c0.4,0,0.7-0.1,1-0.3c0.2-0.2,0.3-0.5,0.3-0.8c0-0.7-0.5-1.1-1.5-1.1L573.2,262.7L573.2,262.7z"
			/>
		<path style="fill:#686969;" d="M577.7,265.5v-1.2c0.1,0.1,0.2,0.2,0.4,0.3c0.1,0.1,0.3,0.1,0.5,0.2s0.3,0.1,0.5,0.1s0.3,0,0.4,0
			c0.5,0,0.8-0.1,1.1-0.2c0.2-0.2,0.3-0.4,0.3-0.7c0-0.2,0-0.3-0.1-0.4s-0.2-0.2-0.3-0.3s-0.3-0.2-0.5-0.3c-0.2-0.1-0.4-0.2-0.6-0.3
			c-0.2-0.1-0.4-0.2-0.6-0.4c-0.2-0.1-0.4-0.3-0.5-0.4c-0.1-0.2-0.3-0.3-0.3-0.5s-0.1-0.4-0.1-0.7c0-0.3,0.1-0.6,0.2-0.8
			c0.1-0.2,0.3-0.4,0.6-0.6c0.2-0.2,0.5-0.3,0.8-0.3c0.3-0.1,0.6-0.1,0.9-0.1c0.7,0,1.2,0.1,1.6,0.2v1.1c-0.4-0.3-0.9-0.4-1.5-0.4
			c-0.2,0-0.3,0-0.5,0s-0.3,0.1-0.4,0.2c-0.1,0.1-0.2,0.2-0.3,0.3s-0.1,0.3-0.1,0.4c0,0.2,0,0.3,0.1,0.4s0.2,0.2,0.3,0.3
			c0.1,0.1,0.3,0.2,0.4,0.3c0.2,0.1,0.4,0.2,0.6,0.3c0.2,0.1,0.5,0.3,0.7,0.4s0.4,0.3,0.6,0.4c0.2,0.2,0.3,0.3,0.4,0.5
			c0.1,0.2,0.1,0.4,0.1,0.7s-0.1,0.6-0.2,0.9s-0.3,0.4-0.6,0.6c-0.2,0.1-0.5,0.3-0.8,0.3c-0.3,0.1-0.6,0.1-1,0.1c-0.1,0-0.3,0-0.4,0
			c-0.2,0-0.3,0-0.5-0.1c-0.2,0-0.3-0.1-0.5-0.1C577.9,265.6,577.7,265.5,577.7,265.5z"/>
	</g>
</g>
<g>
	<polygon style="fill:#FFFFFF;" points="234.5,139.6 232.2,139.6 232.2,144.4 230.2,144.4 233.4,148.8 236.6,144.4 234.5,144.4 	"/>
	<polygon style="fill:#FFFFFF;" points="230.5,132.3 236.2,132.3 236.2,133.9 230.5,133.9 	"/>
	<polygon style="fill:#FFFFFF;" points="230.5,134.7 236.2,134.7 236.2,136.4 230.5,136.4 	"/>
	<polygon style="fill:#FFFFFF;" points="230.5,137.1 236.2,137.1 236.2,138.8 230.5,138.8 	"/>
	<path style="fill:#FFFFFF;" d="M233.9,125.9h-6.7c-0.2,0-0.7,0-0.7,0.8l-0.1,12.7h2.4v-11.1h3.2v3.2h2.4v-5
		C234.5,125.9,234.1,125.9,233.9,125.9L233.9,125.9z"/>
	<path style="fill:#FFFFFF;" d="M228.9,137.1h-2.4v5.7c0,0.2,0.7,0.8,0.9,0.8h4v-2.4H229L228.9,137.1L228.9,137.1L228.9,137.1z"/>
	<path style="fill:#FFFFFF;" d="M242,136.4h-0.7c-0.4-4.9-2.7-7.2-6-7.9v2.3c2.4,0.8,3.3,3.2,3.4,6.3l-0.1,1.6l3.2-0.1
		c0.9,0,1.5,0.2,1.5,1.1v1.4h-8.1v2.4h9.6c0.2,0,0.9-0.7,0.9-0.8v-3.1C245.8,137.7,244.1,136.4,242,136.4L242,136.4z"/>
</g>
</svg>
