<?xml version="1.0" encoding="utf-8"?>
<!-- Generator: Adobe Illustrator 19.2.0, SVG Export Plug-In . SVG Version: 6.00 Build 0)  -->
<svg version="1.1" id="Layer_1" xmlns="http://www.w3.org/2000/svg" xmlns:xlink="http://www.w3.org/1999/xlink" x="0px" y="0px"
	 width="960px" height="792px" viewBox="0 0 960 792" style="enable-background:new 0 0 960 792;" xml:space="preserve">
<g>
	<polygon style="fill:#21BBEE;" points="137.1,489.2 143.7,479.2 142.4,478.4 136.7,487.1 128,481.4 127.1,482.6 137.1,489.2 
		137.1,489.2 	"/>
	<polygon style="fill:#21BBEE;" points="130.9,458.7 140.8,465.2 140,466.5 131.3,460.7 125.6,469.4 124.3,468.6 130.9,458.7 
		130.9,458.7 	"/>
	<path style="fill:#21BBEE;" d="M133.2,470.3c-1,0.2-2-0.5-2.2-1.5c-0.2-1.1,0.5-2,1.5-2.2c1-0.2,2,0.5,2.2,1.5
		C134.9,469,134.3,470,133.2,470.3L133.2,470.3z"/>
	<path style="fill:#21BBEE;" d="M134.4,475.8c1-0.2,1.7-1.2,1.5-2.2c-0.2-1-1.2-1.7-2.2-1.5c-1,0.2-1.7,1.2-1.5,2.2
		C132.4,475.4,133.4,476,134.4,475.8L134.4,475.8z"/>
	<path style="fill:#21BBEE;" d="M135.5,481.4c1-0.2,1.7-1.2,1.5-2.2c-0.2-1-1.2-1.7-2.2-1.5c-1,0.2-1.7,1.2-1.5,2.2
		C133.5,480.9,134.5,481.6,135.5,481.4L135.5,481.4z"/>
</g>
<circle style="fill:none;stroke:#21BBEE;stroke-width:3;stroke-linecap:round;stroke-linejoin:round;stroke-miterlimit:10;" cx="516.6" cy="403.8" r="368.5"/>
<g>
	<path style="fill:#21BBEE;" d="M135.2,426l0.2,2.4l-3.2,1.5l0.4,5.2l3.4,0.9l0.2,2.4l-13.5-3.8l-0.2-2.5L135.2,426z M130.5,430.6
		l-5.1,2.3c-0.2,0.1-0.4,0.1-0.8,0.2l0,0c0.4,0,0.6,0.1,0.8,0.1l5.4,1.4L130.5,430.6z"/>
	<path style="fill:#21BBEE;" d="M122.5,415.5l10.7,6.7l-0.4-7.1l1.8-0.1l0.5,10.2l-1,0.1l-10.6-6.7l0.3,6.7l-1.9,0.1l-0.5-9.7
		L122.5,415.5z"/>
	<path style="fill:#21BBEE;" d="M129.1,403c3.7-0.1,5.6,1.7,5.6,5.1c0.1,3.4-1.7,5.1-5.2,5.1l-8,0.1l0-2.2l7.6-0.1
		c2.6,0,3.9-1.1,3.8-3.1c0-1.9-1.3-2.9-3.8-2.8l-7.7,0.1l0-2.2L129.1,403z"/>
	<path style="fill:#21BBEE;" d="M134.6,389.7l0,2.5l-3.6,2c-0.3,0.2-0.6,0.4-0.8,0.5c-0.2,0.2-0.4,0.4-0.6,0.5
		c-0.2,0.2-0.3,0.4-0.3,0.6c-0.1,0.2-0.1,0.5-0.1,0.7l0,0.9l5.3,0.1l0,2.2l-13.2-0.2l0.1-4.3c0-0.6,0.1-1.2,0.2-1.7
		c0.2-0.5,0.4-1,0.7-1.3c0.3-0.4,0.7-0.7,1.1-0.9c0.4-0.2,1-0.3,1.6-0.3c0.5,0,0.9,0.1,1.3,0.2s0.7,0.3,1,0.6
		c0.3,0.3,0.6,0.6,0.8,0.9c0.2,0.4,0.4,0.8,0.5,1.2h0c0.1-0.2,0.3-0.4,0.5-0.6c0.2-0.2,0.3-0.3,0.5-0.5c0.2-0.2,0.4-0.3,0.6-0.5
		s0.5-0.3,0.8-0.5L134.6,389.7z M123.1,397.5l4.3,0.1l0-1.8c0-0.3,0-0.6-0.1-0.9c-0.1-0.3-0.2-0.5-0.4-0.7c-0.2-0.2-0.4-0.4-0.7-0.5
		c-0.3-0.1-0.6-0.2-0.9-0.2c-0.6,0-1.1,0.2-1.5,0.6s-0.5,1-0.6,1.7L123.1,397.5z"/>
	<path style="fill:#21BBEE;" d="M135.1,380.9l-0.3,7.4l-13.1-0.6l0.3-7.1l1.9,0.1l-0.2,4.9l3.7,0.2l0.2-4.5l1.8,0.1l-0.2,4.5
		l3.9,0.2l0.2-5.2L135.1,380.9z"/>
	<path style="fill:#21BBEE;" d="M123.4,362.1L136,368l-0.2,2.4l-13.5,3.5l0.2-2.4l10.2-2.3c0.3-0.1,0.7-0.1,1.1-0.1l0,0
		c-0.3-0.1-0.7-0.2-1.1-0.4l-9.6-4.2L123.4,362.1z"/>
	<path style="fill:#21BBEE;" d="M136.9,359.4l-0.3,2.2l-13.1-1.5l0.3-2.2L136.9,359.4z"/>
	<path style="fill:#21BBEE;" d="M138.7,346.2l-0.3,2.5l-3.8,1.6c-0.3,0.1-0.6,0.3-0.9,0.4c-0.3,0.1-0.5,0.3-0.6,0.5
		s-0.3,0.4-0.4,0.6c-0.1,0.2-0.2,0.5-0.2,0.7l-0.1,0.9l5.3,0.7l-0.3,2.2l-13-1.8l0.6-4.3c0.1-0.6,0.2-1.2,0.4-1.7
		c0.2-0.5,0.5-0.9,0.8-1.3c0.3-0.3,0.8-0.6,1.2-0.7c0.5-0.2,1-0.2,1.6-0.1c0.5,0.1,0.9,0.2,1.2,0.4c0.4,0.2,0.7,0.4,0.9,0.7
		c0.3,0.3,0.5,0.6,0.6,1c0.2,0.4,0.3,0.8,0.3,1.3l0,0c0.2-0.2,0.3-0.4,0.5-0.6s0.4-0.3,0.6-0.4s0.4-0.3,0.6-0.4
		c0.2-0.1,0.5-0.3,0.8-0.4L138.7,346.2z M126.3,352.6l4.2,0.6l0.2-1.8c0-0.3,0-0.6,0-0.9c-0.1-0.3-0.2-0.6-0.3-0.8
		c-0.2-0.2-0.4-0.4-0.6-0.6c-0.3-0.2-0.6-0.3-0.9-0.3c-0.6-0.1-1.1,0-1.5,0.4c-0.4,0.3-0.7,0.9-0.8,1.6L126.3,352.6z"/>
	<path style="fill:#21BBEE;" d="M129.1,335l-0.6,3.7l11.1,1.9l-0.4,2.2l-11.1-1.8l-0.6,3.7l-1.8-0.3l1.6-9.6L129.1,335z"/>
	<path style="fill:#21BBEE;" d="M137.3,324.1c3.6,0.7,5.1,2.8,4.4,6.2c-0.7,3.3-2.7,4.6-6.2,3.9l-7.9-1.6l0.4-2.1l7.4,1.5
		c2.5,0.5,4-0.2,4.4-2.2c0.4-1.9-0.7-3.1-3.1-3.6l-7.6-1.5l0.4-2.1L137.3,324.1z"/>
	<path style="fill:#21BBEE;" d="M145.5,312.1l-0.5,2.3l-3.5,0.4l-1.2,5l3,1.9l-0.5,2.3l-11.7-7.8l0.6-2.4L145.5,312.1z M139.6,315
		l-5.5,0.6c-0.2,0-0.5,0-0.8,0l0,0c0.3,0.1,0.6,0.3,0.8,0.4l4.7,3L139.6,315z"/>
	<path style="fill:#21BBEE;" d="M147.9,303.5l-1.9,7l-12.7-3.4l0.6-2.1l10.9,2.9l1.3-4.9L147.9,303.5z"/>
	<path style="fill:#21BBEE;" d="M153.1,286.1l-0.7,2.3l-11.1,3.1c-0.3,0.1-0.6,0.1-0.8,0.1l0,0.1c0.3,0,0.9,0.2,1.7,0.5l8.2,2.6
		l-0.6,2l-12.5-3.9l0.8-2.4l10.8-3c0.5-0.1,0.8-0.2,0.9-0.2l0,0c-0.4,0-0.9-0.2-1.7-0.4l-8.1-2.5l0.6-2L153.1,286.1z"/>
	<path style="fill:#21BBEE;" d="M156.6,276.2l-2.4,7l-12.4-4.3l2.3-6.7l1.7,0.6l-1.6,4.6l3.5,1.2l1.5-4.3l1.7,0.6l-1.5,4.3l3.7,1.3
		l1.7-4.9L156.6,276.2z"/>
	<path style="fill:#21BBEE;" d="M149.8,262.1l-1.3,3.5l10.6,4l-0.8,2l-10.6-4l-1.3,3.5l-1.7-0.7l3.5-9.1L149.8,262.1z"/>
	<path style="fill:#21BBEE;" d="M155.5,243.9l10.7,8.5l-1,2.3l-9.4-1.3c-0.4-0.1-0.8-0.2-1.3-0.3l0,0c0.4,0.2,0.7,0.4,1.1,0.7
		l7.5,5.9l-1,2.3l-13.5-1.8l0.9-2.2l9.8,1.6c0.4,0.1,0.8,0.2,1.2,0.3l0,0c-0.3-0.1-0.6-0.4-1.1-0.7l-7.8-6.3l0.9-2.1l9.9,1.5
		c0.3,0.1,0.7,0.1,1.2,0.3l0,0c-0.3-0.1-0.6-0.4-1-0.7l-8-5.9L155.5,243.9z"/>
	<path style="fill:#21BBEE;" d="M170.9,242.8c-0.8,1.7-2,2.8-3.6,3.3c-1.6,0.5-3.3,0.3-5.1-0.5c-1.9-0.9-3.2-2.2-3.8-3.8
		c-0.6-1.6-0.5-3.3,0.3-5.1c0.8-1.7,2-2.7,3.6-3.2c1.6-0.5,3.3-0.3,5.1,0.5c1.9,0.9,3.2,2.2,3.8,3.8
		C171.8,239.4,171.7,241,170.9,242.8z M160.4,237.6c-0.5,1.1-0.5,2.2-0.1,3.2c0.5,1.1,1.4,1.9,2.7,2.6c1.3,0.6,2.5,0.8,3.7,0.5
		s1.9-0.9,2.5-2c0.5-1.1,0.6-2.2,0.1-3.2c-0.5-1-1.4-1.9-2.7-2.5c-1.4-0.7-2.7-0.9-3.7-0.6C161.7,235.8,160.9,236.5,160.4,237.6z"/>
	<path style="fill:#21BBEE;" d="M179.2,225.9l-1.2,2.3l-4.1,0.2c-0.4,0-0.7,0.1-1,0.1c-0.3,0.1-0.5,0.1-0.8,0.2
		c-0.2,0.1-0.4,0.2-0.6,0.4c-0.2,0.2-0.3,0.4-0.4,0.6l-0.4,0.8l4.7,2.5l-1,1.9l-11.7-6.1l2-3.8c0.3-0.5,0.6-1,1-1.4
		c0.4-0.4,0.8-0.7,1.2-0.9c0.4-0.2,0.9-0.3,1.4-0.3c0.5,0,1,0.2,1.5,0.4c0.4,0.2,0.8,0.5,1,0.8s0.5,0.6,0.6,1
		c0.2,0.4,0.2,0.8,0.3,1.2c0,0.4,0,0.8-0.1,1.3l0,0c0.2-0.1,0.5-0.3,0.7-0.3c0.2-0.1,0.5-0.2,0.7-0.2c0.2-0.1,0.5-0.1,0.7-0.1
		s0.6-0.1,0.9-0.1L179.2,225.9z M165.4,227.7l3.8,2l0.8-1.6c0.2-0.3,0.3-0.6,0.3-0.9c0-0.3,0-0.6-0.1-0.9c-0.1-0.3-0.2-0.5-0.4-0.8
		c-0.2-0.2-0.4-0.4-0.8-0.6c-0.6-0.3-1.1-0.3-1.6-0.2s-0.9,0.6-1.3,1.3L165.4,227.7z"/>
	<path style="fill:#21BBEE;" d="M184.8,216l-1.4,2.5l-7.5,1c-0.3,0-0.5,0.1-0.6,0l0,0l5.6,3.2l-1.1,1.9l-11.5-6.4l1.1-1.9l5.4,3l0,0
		c-0.1-0.1-0.2-0.3-0.2-0.5l-2.8-6.7l1.3-2.3l3,7.6L184.8,216z"/>
</g>
</svg>
