<svg id="Layer_1" xmlns="http://www.w3.org/2000/svg" width="480" height="1275" viewBox="0 0 480 1275"><path d="M190.4 966c-37.5 1-72.7 16.1-99.3 42.8-27.6 27.6-42.9 64.4-42.9 103.5 0 39.1 15.2 75.9 42.9 103.5 27.6 27.6 67.1 42.9 103.5 42.9 39.1 0 75.9-15.2 103.5-42.9 27.6-27.6 42.9-64.4 42.9-103.5 0-39.1-15.2-75.9-42.9-103.5-26.2-26.2-60.5-41.2-97.2-42.7l-10.5-.1z" fill="#FFF"/><path d="M195.7 972c-2.6 0-4.8-1.9-5.2-4.4-77.9 2.2-140.6 66.3-140.6 144.7 0 79.8 64.9 144.8 144.8 144.8s144.8-64.9 144.8-144.8c0-77.7-61.6-141.4-138.5-144.6-.6 2.4-2.8 4.3-5.3 4.3z" fill="none"/><path d="M298.1 1008.8c-26.2-26.2-60.5-41.2-97.2-42.7v.7c0 .3 0 .6-.1.9 77 3.3 138.5 66.9 138.5 144.6 0 79.8-64.9 144.8-144.8 144.8s-144.7-65-144.7-144.8c0-78.4 62.7-142.5 140.6-144.7 0-.3-.1-.6-.1-.9 0-.2 0-.5.1-.7-37.5 1-72.7 16.1-99.3 42.8-27.6 27.6-42.9 64.4-42.9 103.5s15.2 75.9 42.9 103.5c27.6 27.6 67.1 42.9 103.5 42.9 39.1 0 75.9-15.2 103.5-42.9 27.6-27.6 42.9-64.4 42.9-103.5s-15.3-75.9-42.9-103.5z" fill="#010101"/><path d="M194.6 1238.8c-33.5 0-65-13-88.7-36.7s-36.7-55.2-36.7-88.7 13-65 36.7-88.7c23.7-23.7 55.2-36.7 88.7-36.7s65 13 88.7 36.7c23.7 23.7 36.7 55.2 36.7 88.7s-13 65-36.7 88.7c-23.7 23.6-55.2 36.7-88.7 36.7zm0-249.3c-68.3 0-123.8 55.6-123.8 123.8 0 68.2 55.6 123.8 123.8 123.8s123.8-55.6 123.8-123.8c0-68.2-55.5-123.8-123.8-123.8z" fill="#010101"/><g fill="#FFF"><path d="M50.3 1055v-.2l.7-.5c0-.2-.2-.5-.3-.7l-.8.1c-.1-.1-.1-.3-.2-.4l.3-.7c-.2-.2-.3-.4-.6-.4l-.4.3-.2.3-.3.6c.6.3 1 1 1.1 1.8.1 1.3-.8 2.4-2 2.5-1.3.1-2.4-.8-2.5-2-.1-1.2.6-2.2 1.6-2.5l.1-.7-.5-.7c-.2 0-.5.2-.7.3l.1.8c-.1.1-.3.1-.4.2l-.7-.3c-.2.2-.4.3-.4.6l.5.7c-.1.1-.1.2-.2.4l-.8.1c-.1.2 0 .5-.1.7l.7.3v.4l-.7.5c0 .2.2.5.3.7l.8-.1c.1.1.1.3.2.4l-.3.7c.2.2.3.4.6.4l.7-.5c.1.1.2.2.4.2l.1.8c.2.1.5 0 .7.1l.3-.7h.4l.5.7c.2 0 .5-.2.7-.3l-.1-.8c.1-.1.3-.1.4-.2l.7.3c.2-.2.4-.3.4-.6l-.5-.7c.1-.1.2-.2.2-.4l.8-.1c.1-.2 0-.5.1-.7l-.7-.3v-.4z"/><path d="M43.3 1059.2c-.3 0-.5-.1-.6-.4 0-.3.1-.5.4-.6.3 0 .5.1.6.4.1.4-.2.6-.4.6zm.8-1.9l-.4.2-.3-.1-.2-.4h-.4v.1l-.1.4-.3.1-.4-.2-.3.3.2.4-.1.3-.4.2v.4h.1l.4.1.1.3-.2.4.3.3.4-.2.3.1.2.4h.4v-.1l.1-.4.2-.1.4.2.3-.3-.2-.4.1-.3.4-.2v-.4h-.1l-.4-.1-.1-.3.2-.4c0-.1-.1-.1-.2-.3zM44.3 1057.5c0 .1.1.1.1.2l-.1-.2zM47.4 1051l-.1.4-.1.8-.1.4-.1.3-.5 2.3s0 .1.1.1l.7-.1v.1l-.5 1.7s0 .1 0 0l1.8-2.6v-.1l-.7.1h-.1s-.1 0 0-.1l.6-1.3.2-.3.2-.3.3-.7.2-.4c-.8-.2-1.3-.3-1.9-.3z"/></g><path d="M66 1061l-11.8-12.7c-1.3-1.5-2.9-2.5-4.9-3.1-5.5-1.6-11.3 1.5-13 7-1.6 5.5 1.5 11.3 7 13 1.7.5 3.3.6 4.9.3L66 1061z" fill="#010101"/><g fill="#FFF"><path d="M51.4 1054.2v-.2l.7-.5c0-.2-.2-.5-.3-.7l-.8.2c-.1-.1-.1-.3-.2-.4l.3-.7c-.2-.2-.3-.4-.6-.4l-.4.3-.2.3-.3.6c.5.3 1 1 1.1 1.7.1 1.3-.8 2.4-2 2.5s-2.4-.8-2.5-2c-.1-1.1.6-2.2 1.6-2.5l.1-.7-.5-.7c-.2 0-.5.2-.7.3l.1.8c-.1.1-.3.1-.4.2l-.7-.3c-.2.1-.4.3-.4.6l.5.7c-.1.1-.1.2-.2.4l-.8.1c-.1.2 0 .5-.1.7l.7.3v.4l-.7.5c0 .2.2.5.3.7l.8-.1c.1.1.1.3.2.4l-.3.7c.2.2.3.4.6.4l.7-.5c.1.1.2.2.4.2l.1.8c.2.1.5 0 .7.1l.3-.7h.4l.5.7c.2 0 .5-.2.7-.3l-.1-.8c.1-.1.3-.1.4-.2l.7.3c.2-.2.4-.3.4-.6l-.5-.7c.1-.1.1-.2.2-.4l.8-.1c.1-.2 0-.5.1-.7l-.7-.3c.1-.2.1-.3 0-.4z"/><path d="M44.5 1058.5c-.3 0-.5-.1-.6-.4 0-.3.1-.5.4-.6.3 0 .5.1.6.4 0 .4-.1.6-.4.6zm.8-1.8l-.4.2-.2-.1-.2-.4h-.4v.1l-.1.5-.2.1-.4-.2-.3.3.2.4-.1.2-.4.2v.4h.1l.4.1.1.2-.2.4.3.3.4-.2.2.1.2.4h.4v-.1l.1-.4.2-.1.4.2.3-.3-.2-.4.1-.3.4-.2v-.4h-.1l-.4-.1-.1-.2.2-.4c0-.1-.1-.1-.1-.2l-.2-.1z"/><path d="M45.4 1056.8c0 .1.1.1.1.2l-.1-.2zM48.5 1050.3l-.1.4-.1.8-.1.4-.1.3-.5 2.3s0 .1.1.1l.6-.1v.1l-.5 1.7s0 .1 0 0l1.8-2.6v-.1l-.7.1h-.1s-.1 0 0-.1l.6-1.3.2-.3.2-.3.3-.7.2-.4c-.7-.1-1.2-.2-1.8-.3z"/></g><g fill="#FFF"><path d="M60.7 1027.7c.1-.2.1-.5 0-.7-.1-1.5-1.4-2.7-2.9-2.6-1.1.1-2 .9-2.4 1.9-.3-.4-1-.6-1.5-.6-1 .1-1.8 1-1.7 2.1 0 .2 0 .4.1.5-.9.4-1.4 1.2-1.3 2.1.1 1.3 1.2 2.1 2.5 2l6.9-.5c1.3-.1 2.1-1.1 2-2.4 0-.8-.8-1.6-1.7-1.8zm-1.4 1c-.1.8-.8 1.5-1.6 1.5h-.4c-.1 0-.3-.1-.4-.2l-1.1 1.4c-.1.1-.2.2-.4.2-.1 0-.3 0-.4-.2-.1-.1-.2-.2-.2-.4s0-.3.2-.4l1.1-1.4c-.2-.4-.4-.8-.3-1.3.1-.8.8-1.5 1.6-1.5h.4c.5.1.9.3 1.2.7.2.7.3 1.2.3 1.6z"/><path d="M57.7 1027.3h-.3c-.5 0-1 .4-1 .9-.1.3 0 .6.3.9l.3.3c.1.1.2.1.4.2h.3c.5 0 1-.4 1-.9.1-.3 0-.6-.2-.8-.2-.2-.5-.5-.8-.6z"/></g><path d="M56.4 1038.9H74.6l-8.4-15.1c-.8-1.7-2.3-3.2-4-4.4-4.9-2.9-11.3-1.2-14.3 3.7s-1.2 11.3 3.7 14.3c1.5.9 3 1.3 4.6 1.4l.2.1z" fill="#010101"/><g fill="#FFF"><path d="M61.7 1027.3c.1-.2.1-.4 0-.7-.1-1.5-1.4-2.6-2.8-2.5-1.1.1-1.9.9-2.3 1.9-.3-.4-1-.6-1.4-.6-1 .1-1.8 1-1.7 2 0 .2 0 .4.1.5-.9.4-1.3 1.2-1.2 2.1.1 1.3 1.2 2.1 2.4 2l6.8-.5c1.2-.1 2.1-1.1 2-2.4-.3-.8-1-1.5-1.9-1.8zm-1.4 1.1c-.1.8-.8 1.4-1.6 1.4h-.4c-.1 0-.3-.1-.4-.2l-1.1 1.3c-.1.1-.2.2-.4.2-.1 0-.3 0-.4-.2-.1-.1-.2-.2-.2-.4 0-.1 0-.3.2-.4l1.1-1.3c-.2-.4-.4-.8-.3-1.3.1-.8.8-1.4 1.6-1.4h.4c.4.1.9.3 1.2.7.2.7.3 1.1.3 1.6z"/><path d="M58.7 1027h-.3c-.5 0-.9.4-1 .9-.1.3 0 .6.3.9l.3.3c.1.1.2.1.4.2h.3c.5 0 .9-.4 1-.9.1-.3 0-.6-.2-.8-.2-.3-.5-.5-.8-.6z"/></g><path d="M73.1 1014.3c.4.1.7.3 1.1.4l16 6.2-2.4-17.5c-.2-1.7-1-3.5-2.1-5.1-3.6-4.6-10.1-5.3-14.7-1.7-4.6 3.6-5.3 10.1-1.7 14.7 1 1.4 2.3 2.4 3.8 3z" fill="#010101"/><g fill="#FFF"><path d="M78.5 1006.8l-1.3-.1-.3 2.5-1-.1 1.4 2.5 1.9-2.1-1-.1zM76.7 1002.8l3 .3-.1.9-3-.3zM76.6 1004.1l3 .3-.1.9-3-.3zM76.4 1005.4l3 .3-.1.8-3-.3z"/><path d="M78.9 999.7l-3.5-.4c-.1 0-.4 0-.4.4l-.8 6.7 1.3.2.7-5.8 1.7.2-.2 1.7 1.3.2.3-2.7c-.1-.4-.3-.5-.4-.5z"/><path d="M75.6 1005.3l-1.3-.2-.4 3c0 .1.4.4.4.5l2.1.2.2-1.3-1.3-.2.3-2zM82.5 1005.7h-.4c.1-2.5-.9-3.9-2.6-4.4l-.1 1.2c1.2.5 1.5 1.9 1.4 3.5l-.1.8 1.7.2c.5.1.8.2.7.7l-.1.7-4.2-.5-.2 1.3 5 .6c.1 0 .5-.2.5-.3l.2-1.6c.1-1.4-.8-2.1-1.8-2.2z"/></g><path fill="none" d="M197.1 1057.9h8.5v10.2h-8.5z"/><path d="M207.1 1057.2v11.6c0 .4-.3.7-.7.7h-9.3v8.3h66.4v-92.1h-66.4v70.7h9.3c.4 0 .7.4.7.8zM177.4 1068.8v-11.6c0-.4.3-.7.7-.7h9.4v-70.8h-66.4v92.1h66.4v-8.3h-9.4c-.4.1-.7-.3-.7-.7z" fill="none"/><path fill="none" d="M178.9 1057.9h8.7v10.2h-8.7zM197.1 1036.7h7.1v10.2h-7.1zM180.3 1036.7h7.2v10.2h-7.2z"/><path d="M311.4 993.8c-2.6 0-4.6.9-4.6 1.8v8.4c0 .9 2.1 1.8 4.6 1.8 2.6 0 4.6-.8 4.6-1.8v-8.4c0-1-2.1-1.8-4.6-1.8zm-4.5 10.5zm3.2-5.2c-.3 0-.4-.1-.4.2v.7c0 .5-.1.8-.4.9.3.1.4.5.4 1.1v.8c0 .2 0 .2.1.3.1.1.2.1.3.1v.6c-.5 0-.8-.1-1-.3s-.3-.5-.3-1v-.8c0-.4-.2-.4-.4-.4v-.9c.3 0 .4 0 .4-.4v-.6c0-.4.1-.7.3-.8.2-.2.5-.2 1-.2v.7zm4.5 1.6v.7c-.3 0-.4 0-.4.4v.8c0 .5-.1.8-.3 1-.2.2-.5.3-1.1.3v-.6c.1 0 .3 0 .3-.1.1-.1.1-.1.1-.3v-.9c0-.6.1-.9.4-1.1-.3-.1-.4-.4-.4-.9v-.6c0-.3-.2-.2-.4-.2v-.7c.5 0 .8.1 1 .2.2.2.3.4.3.8v.6c0 .4.1.3.4.3v.3h.1zm-3.2-4.3c-1.8 0-3.3-.4-3.3-1s1.5-1 3.3-1 3.3.4 3.3 1c0 .5-1.5 1-3.3 1z" fill="#FFF"/><g fill="#FFF"><path d="M322.2 1013.2c0-.4 1.2-.7 2.8-.7s2.8.3 2.8.7c0 .4-1.2.7-2.8.7s-2.8-.3-2.8-.7zm2.5 9.3v-6.7c0-.8 1.3-1.2 3.2-1.2.4 0 .8 0 1.2.1v-1.5c0-.7-1.8-1.3-4.1-1.3s-4.1.6-4.1 1.3v8.6c0 .7 1.8 1.3 4.1 1.3h.3c-.4-.2-.6-.4-.6-.6z"/><path d="M328.1 1016.7c-1.1 0-2-.2-2-.5s.9-.5 2-.5 2 .2 2 .5-.9.5-2 .5zm1.7 2.8l-3.7 3 1.4-2.3h-1.2l3.7-3-1.4 2.3h1.2zm-1.7-4.4c-1.6 0-2.9.4-2.9.9v6.2c0 .5 1.2 1 2.9 1 1.6 0 3-.4 3-.9v-6.3c-.1-.5-1.4-.9-3-.9z"/></g><g fill="#FFF"><path d="M332.7 1035.4h10.6l-2.8-2.5v1.3h-7.7v-1c0-.5.2-.9.7-.9h7.8c.5 0 1 .4 1 .9v.5l1 .8v-1.3c0-1-.9-1.9-1.9-1.9h-7.9c-1 0-1.7.8-1.7 1.9v2.3l.9-.1zM342.3 1036h-10.6l2.7 2.5v-1.5h8v1.3c0 .5-.5 1-1 1h-7.8c-.5 0-.7-.5-.7-1v-.5l-1-.8v1.3c0 1 .7 1.6 1.7 1.6h1.7l3.9 2.8-.3-2.8h2.6c1 0 1.9-.6 1.9-1.6v-2.3h-1.1z"/></g><g fill="#010101"><path d="M169.5 1151v-5.2h1.5c1.9 0 2.9.8 2.9 2.5 0 .8-.3 1.4-.8 1.9s-1.2.7-2.1.7l-1.5.1zm.8-4.5v3.7h.7c.6 0 1.1-.2 1.4-.5.3-.3.5-.8.5-1.4 0-1.2-.6-1.8-1.9-1.8h-.7zM178.9 1151h-.9l-.5-1.3h-2l-.5 1.3h-.9l1.9-5.2h1l1.9 5.2zm-1.6-2l-.7-2.1c0-.1 0-.2-.1-.3 0 .1 0 .2-.1.3l-.7 2.1h1.6zM182.4 1146.5h-1.5v4.4h-.9v-4.4h-1.5v-.7h3.8l.1.7zM186.9 1151h-.9l-.5-1.3h-2l-.5 1.3h-.9l1.9-5.2h1l1.9 5.2zm-1.6-2l-.7-2.1c0-.1 0-.2-.1-.3 0 .1 0 .2-.1.3l-.7 2.1h1.6zM187.6 1151v-5.2h1.6c.5 0 .9.1 1.2.3.3.2.4.5.4.9 0 .3-.1.5-.2.8-.2.2-.4.4-.7.5.4 0 .6.2.9.4.2.2.3.5.3.9s-.2.8-.5 1.1c-.3.3-.8.4-1.3.4l-1.7-.1zm.9-4.5v1.5h.6c.3 0 .5-.1.7-.2.2-.1.3-.3.3-.6 0-.4-.3-.7-.9-.7h-.7zm0 2.2v1.6h.7c.3 0 .6-.1.7-.2.2-.1.3-.4.3-.6 0-.5-.4-.8-1.1-.8h-.6zM196.3 1151h-.9l-.5-1.3h-2l-.4 1.3h-.9l1.9-5.2h1l1.8 5.2zm-1.6-2l-.7-2.1c0-.1 0-.2-.1-.3 0 .1 0 .2-.1.3l-.7 2.1h1.6zM196.8 1150.8v-.9c.1.1.2.1.3.2s.2.1.3.1.2.1.4.1h.3c.4 0 .6-.1.8-.2s.3-.3.3-.5c0-.1 0-.2-.1-.3-.1-.1-.1-.2-.2-.2-.1-.1-.2-.1-.4-.2-.1-.1-.3-.1-.5-.2s-.3-.2-.5-.3-.3-.2-.4-.3c-.1-.1-.2-.2-.3-.4-.1-.1-.1-.3-.1-.5s.1-.5.2-.6c.1-.2.3-.3.4-.4l.6-.3c.2-.1.5-.1.7-.1.5 0 .9.1 1.2.2v.8c-.3-.2-.7-.3-1.1-.3h-.4c-.1 0-.2.1-.3.1-.1.1-.2.1-.2.2-.1.1-.1.2-.1.3 0 .1 0 .2.1.3 0 .1.1.2.2.2.1.1.2.1.3.2s.3.1.5.2.4.2.5.3c.2.1.3.2.4.3.1.1.2.3.3.4.1.2.1.3.1.5 0 .3-.1.5-.2.7-.1.2-.2.3-.4.4s-.4.2-.6.2c-.2 0-.5.1-.7.1h-.3c-.1 0-.3 0-.4-.1-.1 0-.3-.1-.4-.1-.1.2-.2.1-.3.1zM204 1151h-2.9v-5.2h2.8v.7H202v1.5h1.8v.7H202v1.5h2v.8zM210.3 1146.5h-1.5v4.4h-.9v-4.4h-1.5v-.7h3.8v.7h.1zM211.9 1151h-.9v-5.2h.9v5.2zM216.1 1151h-2.9v-5.2h2.8v.7h-2v1.5h1.8v.7H214v1.5h2v.8h.1zM221 1151h-1l-.8-1.4c-.1-.1-.1-.2-.2-.3-.1-.1-.1-.2-.2-.2-.1-.1-.2-.1-.2-.1h-.6v2.1h-1v-5.2h1.7c.2 0 .5 0 .7.1s.4.1.5.3c.2.1.3.3.4.4.1.2.1.4.1.6 0 .2 0 .4-.1.5-.1.2-.1.3-.2.4-.1.1-.2.2-.4.3-.1.1-.3.1-.5.2.1.1.2.1.2.2l.2.2.2.2c.1.1.1.2.2.3l1 1.4zm-3.2-4.5v1.7h.7c.1 0 .3 0 .4-.1.1 0 .2-.1.3-.2.1-.1.1-.2.2-.3 0-.1.1-.2.1-.4s-.1-.4-.2-.6c-.2-.1-.4-.2-.7-.2l-.8.1z"/></g><path d="M194.7 1132.5c-2.9 0-5.3 2.4-5.3 5.3s2.4 5.3 5.3 5.3 5.3-2.4 5.3-5.3-2.4-5.3-5.3-5.3zm1.6 3.7c-.2.3-.3.6-.5.9-.2.3-.3.6-.4.9l-.3.9c-.1.3-.2.6-.2 1h-.7c0-.3.1-.6.2-.9l.3-.9c.1-.3.2-.6.4-.9.1-.3.3-.6.5-.9h-2v-.6h2.8v.5h-.1z" fill="#010101"/><g fill="#686969"><path d="M169.3 1022.3v1.9h-.9v-5.2h1.6c.6 0 1.1.1 1.4.4.3.3.5.7.5 1.2s-.2.9-.5 1.2-.8.5-1.4.5h-.7zm0-2.6v1.9h.6c.4 0 .6-.1.8-.3s.3-.4.3-.7c0-.6-.4-.9-1.1-.9h-.6zM176.5 1024.2h-.9l-.5-1.3h-2l-.4 1.3h-.9l1.9-5.2h1l1.8 5.2zm-1.6-2.1l-.7-2.1c0-.1 0-.2-.1-.3 0 .1 0 .2-.1.3l-.7 2.1h1.6zM181.5 1024.2h-.9l-.5-1.3h-2l-.4 1.3h-.9l1.9-5.2h1l1.8 5.2zm-1.7-2.1l-.7-2.1c0-.1 0-.2-.1-.3 0 .1 0 .2-.1.3l-.7 2.1h1.6zM181.9 1024v-.9c.1.1.2.1.3.2.1.1.2.1.3.1s.2.1.4.1h.3c.4 0 .6-.1.8-.2.2-.1.3-.3.3-.5 0-.1 0-.2-.1-.3s-.1-.2-.2-.2c-.1-.1-.2-.1-.4-.2-.1-.1-.3-.1-.5-.2s-.3-.2-.5-.3c-.2-.1-.3-.2-.4-.3-.1-.1-.2-.2-.3-.4-.1-.1-.1-.3-.1-.5s.1-.5.2-.6l.4-.4.6-.3c.2-.1.5-.1.7-.1.5 0 .9.1 1.2.2v.8c-.3-.2-.7-.3-1.1-.3h-.4c-.1 0-.2.1-.3.1-.1.1-.2.1-.2.2-.1.1-.1.2-.1.3 0 .1 0 .2.1.3.1.1.1.2.2.2.1.1.2.1.3.2.1.1.3.1.5.2s.4.2.5.3c.2.1.3.2.4.3.1.1.2.3.3.4.1.2.1.3.1.5 0 .3-.1.5-.2.7-.1.2-.2.3-.4.4s-.4.2-.6.2c-.2 0-.5.1-.7.1h-.3c-.1 0-.3 0-.4-.1-.1 0-.3-.1-.4-.1-.1.1-.2.1-.3.1zM190.4 1024.2c-.7 0-1.3-.2-1.8-.7s-.7-1.1-.7-1.9c0-.8.2-1.5.7-2s1.1-.7 1.9-.7c.7 0 1.3.2 1.8.7.4.5.7 1.1.7 1.9s-.2 1.5-.7 2c-.6.5-1.2.7-1.9.7zm0-4.6c-.5 0-.9.2-1.2.5-.3.4-.4.8-.4 1.4s.1 1 .4 1.4c.3.4.7.5 1.1.5.5 0 .9-.2 1.2-.5.3-.3.4-.8.4-1.4s-.1-1.1-.4-1.4c-.3-.3-.6-.5-1.1-.5zM197.9 1019l-1.9 5.2h-1l-1.8-5.2h.9l1.3 3.9c0 .1.1.3.1.4 0-.1.1-.3.1-.4l1.3-3.9h1zM201.5 1024.2h-2.9v-5.2h2.8v.7h-1.9v1.5h1.8v.7h-1.8v1.5h2v.8zM206.4 1024.2h-1l-.8-1.4c-.1-.1-.1-.2-.2-.3-.1-.1-.1-.2-.2-.2-.1-.1-.2-.1-.2-.1h-.6v2.1h-.9v-5.3h1.7c.2 0 .5 0 .7.1.2.1.4.1.5.3.2.1.3.3.4.4.1.2.1.4.1.6 0 .2 0 .4-.1.5-.1.2-.1.3-.2.4-.1.1-.2.2-.4.3-.1.1-.3.1-.5.2.1.1.2.1.2.2l.2.2.2.2c.1.1.1.2.2.3l.9 1.5zm-3.2-4.5v1.7h.7c.1 0 .3 0 .4-.1.1 0 .2-.1.3-.2.1-.1.1-.2.2-.3 0-.1.1-.2.1-.4s-.1-.4-.2-.6c-.2-.1-.4-.2-.7-.2h-.8v.1zM209.9 1024.2h-.9v-5.2h.9v5.2zM215.4 1024.2h-.9l-.5-1.3h-2l-.4 1.3h-.9l1.9-5.2h1l1.8 5.2zm-1.6-2.1l-.7-2.1c0-.1 0-.2-.1-.3 0 .1 0 .2-.1.3l-.7 2.1h1.6zM220.4 1024.2h-.9l-.5-1.3h-2l-.4 1.3h-.9l1.9-5.2h1l1.8 5.2zm-1.7-2.1l-.7-2.1c0-.1 0-.2-.1-.3 0 .1 0 .2-.1.3l-.7 2.1h1.6zM220.9 1024v-.9c.1.1.2.1.3.2.1.1.2.1.3.1.1 0 .2.1.4.1h.3c.4 0 .6-.1.8-.2.2-.1.3-.3.3-.5 0-.1 0-.2-.1-.3s-.1-.2-.2-.2c-.1-.1-.2-.1-.4-.2-.1-.1-.3-.1-.5-.2s-.3-.2-.5-.3c-.2-.1-.3-.2-.4-.3-.1-.1-.2-.2-.3-.4-.1-.1-.1-.3-.1-.5s.1-.5.2-.6c.1-.2.3-.3.4-.4l.6-.3c.2-.1.5-.1.7-.1.5 0 .9.1 1.2.2v.8c-.3-.2-.7-.3-1.1-.3h-.4c-.1 0-.2.1-.3.1-.1.1-.2.1-.2.2-.1.1-.1.2-.1.3 0 .1 0 .2.1.3.1.1.1.2.2.2.1.1.2.1.3.2.1.1.3.1.5.2s.4.2.5.3c.2.1.3.2.4.3.1.1.2.3.3.4.1.2.1.3.1.5 0 .3-.1.5-.2.7-.1.2-.2.3-.4.4s-.4.2-.6.2-.5.1-.7.1h-.3c-.1 0-.3 0-.4-.1-.1 0-.3-.1-.4-.1-.2.1-.3.1-.3.1z"/></g><g fill="#686969"><path d="M224 1105.8v-4.1h1.2c1.5 0 2.3.7 2.3 2 0 .6-.2 1.2-.6 1.5-.4.4-1 .6-1.7.6H224zm.6-3.6v3h.5c.5 0 .9-.1 1.1-.4.3-.3.4-.6.4-1.1 0-1-.5-1.5-1.5-1.5h-.5zM229.9 1105.8c-.6 0-1.1-.2-1.4-.6-.4-.4-.5-.9-.5-1.5 0-.7.2-1.2.5-1.6.4-.4.9-.6 1.5-.6s1 .2 1.4.6.5.9.5 1.5c0 .7-.2 1.2-.5 1.6-.4.5-.9.6-1.5.6zm0-3.6c-.4 0-.7.1-.9.4-.2.3-.4.7-.4 1.1 0 .5.1.8.3 1.1.2.3.5.4.9.4s.7-.1.9-.4c.2-.3.3-.6.3-1.1s-.1-.9-.3-1.1c-.1-.3-.4-.4-.8-.4zM235.6 1105.6c-.3.2-.7.2-1.2.2-.6 0-1.1-.2-1.4-.6-.4-.4-.5-.9-.5-1.5 0-.7.2-1.2.6-1.6s.9-.6 1.5-.6c.4 0 .7.1 1 .2v.7c-.3-.2-.6-.2-.9-.2-.4 0-.8.1-1.1.4-.3.3-.4.7-.4 1.1 0 .5.1.8.4 1.1.3.3.6.4 1 .4s.7-.1 1-.3v.7zM239.5 1105.8h-.9l-1.4-1.9-.1-.1v2h-.7v-4.1h.7v1.9l.1-.1 1.4-1.8h.8l-1.6 2 1.7 2.1zM242.3 1105.8H240v-4.1h2.2v.6h-1.5v1.2h1.4v.6h-1.4v1.2h1.6v.5zM246.2 1105.8h-.8l-.7-1.1c-.1-.1-.1-.2-.2-.3l-.2-.2c-.1 0-.1-.1-.2-.1h-.5v1.7h-.6v-4.1h1.4c.2 0 .4 0 .5.1.2 0 .3.1.4.2l.3.3c.1.1.1.3.1.5 0 .1 0 .3-.1.4 0 .1-.1.2-.2.3s-.2.2-.3.2c-.1.1-.2.1-.4.2.1 0 .1.1.2.1l.2.2c0 .1.1.1.1.2s.1.1.2.2l.8 1.2zm-2.5-3.6v1.3H244.6c.1 0 .2-.1.2-.1l.2-.2c0-.1.1-.2.1-.3 0-.2-.1-.4-.2-.5s-.3-.2-.5-.2h-.7zM251.6 1101.6l-1.5 4.1h-.8l-1.5-4.1h.8l1 3.1c0 .1.1.2.1.3 0-.1 0-.2.1-.4l1-3.1.8.1zM256.6 1105.8h-.7v-2.7-.8c0 .2-.1.3-.1.4l-1.2 3.1h-.5l-1.2-3.1c0-.1-.1-.2-.1-.4v3.5h-.6v-4.1h1l1.1 2.8c.1.2.1.4.2.5.1-.2.1-.4.2-.5l1.1-2.7h.9l-.1 4zM227.3 1112.9H225v-4.1h2.2v.6h-1.5v1.2h1.4v.6h-1.4v1.2h1.6v.5zM231.1 1112.9h-.8l-.8-1.5s-.1-.1-.1-.2c0 0 0 .1-.1.2l-.9 1.5h-.8l1.4-2.1-1.2-2.1h.8l.7 1.4c0 .1.1.2.1.3.1-.1.1-.2.1-.3l.8-1.4h.8l-1.3 2.1 1.3 2.1zM234.5 1109.3h-1.2v3.6h-.7v-3.6h-1.2v-.6h3.1v.6zM237.4 1112.9h-2.3v-4.1h2.2v.6h-1.5v1.2h1.4v.6h-1.4v1.2h1.6v.5zM241.7 1112.9h-.8l-2-3c-.1-.1-.1-.2-.1-.2V1113h-.7v-4.1h.8l1.9 3c.1.1.1.2.2.3V1108.9h.7v4zM242.5 1112.7v-.7l.2.2c.1 0 .2.1.3.1.1 0 .2.1.3.1h.3c.3 0 .5 0 .6-.1.1-.1.2-.2.2-.4 0-.1 0-.2-.1-.3 0-.1-.1-.1-.2-.2s-.2-.1-.3-.2c-.1-.1-.2-.1-.4-.2-.1-.1-.3-.2-.4-.2l-.3-.3c-.1-.1-.2-.2-.2-.3-.1-.1-.1-.3-.1-.4 0-.2 0-.4.1-.5.1-.1.2-.3.3-.4.1-.1.3-.2.5-.2s.4-.1.6-.1c.4 0 .7 0 .9.1v.7c-.2-.2-.5-.3-.9-.3h-.3c-.1 0-.2.1-.3.1-.1 0-.1.1-.2.2 0 .1-.1.2-.1.3 0 .1 0 .2.1.2 0 .1.1.1.2.2s.2.1.3.2c.1.1.2.1.4.2.1.1.3.2.4.2l.3.3c.1.1.2.2.2.3.1.1.1.3.1.4 0 .2 0 .4-.1.5-.1.1-.2.3-.3.4-.1.1-.3.2-.5.2s-.4.1-.6.1h-.6c-.1 0-.2 0-.3-.1l-.1-.1zM246.6 1112.9h-.7v-4.1h.7v4.1zM249.3 1112.9c-.6 0-1.1-.2-1.4-.6-.4-.4-.5-.9-.5-1.5 0-.7.2-1.2.5-1.6.4-.4.9-.6 1.5-.6s1 .2 1.4.6.5.9.5 1.5c0 .7-.2 1.2-.5 1.6-.4.4-.9.6-1.5.6zm.1-3.6c-.4 0-.7.1-.9.4-.2.3-.4.7-.4 1.1 0 .5.1.8.3 1.1.2.3.5.4.9.4s.7-.1.9-.4c.2-.3.3-.6.3-1.1s-.1-.9-.3-1.1c-.1-.3-.4-.4-.8-.4zM255.6 1112.9h-.8l-2-3c-.1-.1-.1-.2-.1-.2V1113h-.7v-4.1h.8l1.9 3c.1.1.1.2.2.3V1108.9h.7v4z"/></g><g fill="#686969"><path d="M133.6 1105.8v-4.1h1.2c1.5 0 2.3.7 2.3 2 0 .6-.2 1.2-.6 1.5-.4.4-1 .6-1.7.6h-1.2zm.7-3.6v3h.5c.5 0 .9-.1 1.1-.4.3-.3.4-.6.4-1.1 0-1-.5-1.5-1.5-1.5h-.5zM139.6 1105.8c-.6 0-1.1-.2-1.4-.6-.4-.4-.5-.9-.5-1.5 0-.7.2-1.2.5-1.6.4-.4.9-.6 1.5-.6s1 .2 1.4.6.5.9.5 1.5c0 .7-.2 1.2-.5 1.6-.5.5-.9.6-1.5.6zm0-3.6c-.4 0-.7.1-.9.4-.2.3-.4.7-.4 1.1 0 .5.1.8.3 1.1.2.3.5.4.9.4s.7-.1.9-.4c.2-.3.3-.6.3-1.1s-.1-.9-.3-1.1c-.1-.3-.4-.4-.8-.4zM145.2 1105.6c-.3.2-.7.2-1.2.2-.6 0-1.1-.2-1.4-.6-.4-.4-.5-.9-.5-1.5 0-.7.2-1.2.6-1.6.4-.4.9-.6 1.5-.6.4 0 .7.1 1 .2v.7c-.3-.2-.6-.2-.9-.2-.4 0-.8.1-1.1.4-.3.3-.4.7-.4 1.1 0 .5.1.8.4 1.1.3.3.6.4 1 .4s.7-.1 1-.3v.7zM149.1 1105.8h-.9l-1.4-1.9-.1-.1v2h-.7v-4.1h.7v1.9l.1-.1 1.4-1.8h.8l-1.6 2 1.7 2.1zM151.9 1105.8h-2.3v-4.1h2.2v.6h-1.5v1.2h1.4v.6h-1.4v1.2h1.6v.5zM155.9 1105.8h-.8l-.7-1.1c-.1-.1-.1-.2-.2-.3l-.2-.2c-.1 0-.1-.1-.2-.1h-.5v1.7h-.7v-4.1h1.4c.2 0 .4 0 .5.1.2 0 .3.1.4.2l.3.3c.1.1.1.3.1.5 0 .1 0 .3-.1.4 0 .1-.1.2-.2.3-.1.1-.2.2-.3.2-.1.1-.2.1-.4.2.1 0 .1.1.2.1l.2.2c0 .1.1.1.1.2s.1.1.2.2l.9 1.2zm-2.6-3.6v1.3H154.2c.1 0 .2-.1.2-.1l.2-.2c0-.1.1-.2.1-.3 0-.2-.1-.4-.2-.5-.1-.1-.3-.2-.5-.2h-.7zM161.2 1101.6l-1.5 4.1h-.7l-1.5-4.1h.8l1 3.1c0 .1.1.2.1.3 0-.1 0-.2.1-.4l1-3.1.7.1zM166.2 1105.8h-.7v-2.7-.8c0 .2-.1.3-.1.4l-1.2 3.1h-.5l-1.2-3.1c0-.1-.1-.2-.1-.4v3.5h-.6v-4.1h1l1.1 2.8c.1.2.1.4.2.5.1-.2.1-.4.2-.5l1.1-2.7h.9l-.1 4zM136.9 1112.9h-2.3v-4.1h2.2v.6h-1.5v1.2h1.4v.6h-1.4v1.2h1.6v.5zM140.8 1112.9h-.8l-.8-1.5s-.1-.1-.1-.2c0 0 0 .1-.1.2l-.9 1.5h-.8l1.4-2.1-1.2-2.1h.8l.7 1.4c0 .1.1.2.1.3.1-.1.1-.2.1-.3l.8-1.4h.8l-1.3 2.1 1.3 2.1zM144.1 1109.3h-1.2v3.6h-.7v-3.6H141v-.6h3.1v.6zM147 1112.9h-2.3v-4.1h2.2v.6h-1.5v1.2h1.4v.6h-1.4v1.2h1.6v.5zM151.3 1112.9h-.8l-2-3c-.1-.1-.1-.2-.1-.2V1113h-.7v-4.1h.8l1.9 3c.1.1.1.2.2.3V1108.9h.7v4zM152.1 1112.7v-.7l.2.2c.1 0 .2.1.3.1s.2.1.3.1h.3c.3 0 .5 0 .6-.1.1-.1.2-.2.2-.4 0-.1 0-.2-.1-.3 0-.1-.1-.1-.2-.2s-.2-.1-.3-.2c-.1-.1-.2-.1-.4-.2-.1-.1-.3-.2-.4-.2l-.3-.3c-.1-.1-.2-.2-.2-.3-.1-.1-.1-.3-.1-.4 0-.2 0-.4.1-.5.1-.1.2-.3.3-.4s.3-.2.5-.2.4-.1.6-.1c.4 0 .7 0 .9.1v.7c-.2-.2-.5-.3-.9-.3h-.3c-.1 0-.2.1-.3.1s-.1.1-.2.2c0 .1-.1.2-.1.3 0 .1 0 .2.1.2 0 .1.1.1.2.2s.2.1.3.2.2.1.4.2c.1.1.3.2.4.2l.3.3c.1.1.2.2.2.3.1.1.1.3.1.4 0 .2 0 .4-.1.5-.1.1-.2.3-.3.4s-.3.2-.5.2-.4.1-.6.1h-.6c-.1 0-.2 0-.3-.1.1 0 0-.1-.1-.1zM156.2 1112.9h-.7v-4.1h.7v4.1zM159 1112.9c-.6 0-1.1-.2-1.4-.6-.4-.4-.5-.9-.5-1.5 0-.7.2-1.2.5-1.6.4-.4.9-.6 1.5-.6s1 .2 1.4.6.5.9.5 1.5c0 .7-.2 1.2-.5 1.6-.4.4-.9.6-1.5.6zm0-3.6c-.4 0-.7.1-.9.4-.2.3-.4.7-.4 1.1 0 .5.1.8.3 1.1.2.3.5.4.9.4s.7-.1.9-.4c.2-.3.3-.6.3-1.1s-.1-.9-.3-1.1c-.1-.3-.4-.4-.8-.4zM165.2 1112.9h-.8l-2-3c-.1-.1-.1-.2-.1-.2V1113h-.7v-4.1h.8l1.9 3c.1.1.1.2.2.3V1108.9h.7v4z"/></g><g fill="#686969"><path d="M219.5 1131.4h-.8l-.4-1.1h-1.6l-.4 1.1h-.8l1.6-4.1h.8l1.6 4.1zm-1.3-1.6l-.6-1.7c0-.1 0-.1-.1-.3 0 .1 0 .2-.1.3l-.6 1.7h1.4zM223 1127.5l-2.3 3.3h2.2v.6h-3.2v-.3l2.3-3.2h-2v-.6h3.1v.2h-.1zM226.9 1129.7c0 1.2-.6 1.7-1.7 1.7s-1.6-.6-1.6-1.7v-2.5h.7v2.4c0 .8.3 1.2.9 1.2s.9-.4.9-1.2v-2.4h.7v2.5h.1zM231 1131.4h-.8l-.7-1.1c-.1-.1-.1-.2-.2-.3l-.2-.2c-.1 0-.1-.1-.2-.1h-.5v1.7h-.7v-4.1h1.4c.2 0 .4 0 .5.1.2 0 .3.1.4.2l.3.3c.1.1.1.3.1.5 0 .1 0 .3-.1.4 0 .1-.1.2-.2.3s-.2.2-.3.2-.2.1-.4.2c.1 0 .1.1.2.1l.2.2c0 .1.1.1.1.2s.1.1.2.2l.9 1.2zm-2.5-3.6v1.3H229.4c.1 0 .2-.1.2-.1l.2-.2c0-.1.1-.2.1-.3 0-.2-.1-.4-.2-.5s-.3-.2-.5-.2h-.7zM233.8 1131.4h-2.3v-4.1h2.2v.6h-1.5v1.2h1.4v.6h-1.4v1.2h1.6v.5zM239.4 1127.2l-1.5 4.1h-.8l-1.5-4.1h.8l1 3.1c0 .1.1.2.1.3 0-.1 0-.2.1-.4l1-3.1.8.1zM244.4 1131.4h-.7v-2.7-.8c0 .2-.1.3-.1.4l-1.2 3.1h-.4l-1.2-3.1c0-.1-.1-.2-.1-.4v3.5h-.7v-4.1h1l1.1 2.8c.1.2.1.4.2.5.1-.2.1-.4.2-.5l1.1-2.7h.9v4h-.1zM247.1 1131.4v-4.1h1.3c.4 0 .7.1 1 .3.2.2.4.4.4.7 0 .2-.1.4-.2.6-.1.2-.3.3-.6.4.3 0 .5.1.7.3.2.2.3.4.3.7 0 .4-.1.6-.4.9-.3.2-.6.3-1.1.3l-1.4-.1zm.7-3.6v1.2h.4c.2 0 .4-.1.6-.2.1-.1.2-.3.2-.5 0-.4-.2-.5-.7-.5h-.5zm0 1.7v1.3h.6c.3 0 .5-.1.6-.2s.2-.3.2-.5c0-.4-.3-.6-.9-.6h-.5z"/></g><g fill="#686969"><path d="M143.4 1131.4h-.8l-.4-1.1h-1.6l-.4 1.1h-.8l1.6-4.1h.8l1.6 4.1zm-1.3-1.6l-.6-1.7c0-.1 0-.1-.1-.3 0 .1 0 .2-.1.3l-.6 1.7h1.4zM146.9 1127.5l-2.3 3.3h2.2v.6h-3.2v-.3l2.3-3.2h-2.1v-.6h3.1v.2zM150.7 1129.7c0 1.2-.6 1.7-1.7 1.7s-1.6-.6-1.6-1.7v-2.5h.7v2.4c0 .8.3 1.2.9 1.2.6 0 .9-.4.9-1.2v-2.4h.7v2.5h.1zM154.9 1131.4h-.8l-.7-1.1c-.1-.1-.1-.2-.2-.3l-.2-.2c-.1 0-.1-.1-.2-.1h-.5v1.7h-.7v-4.1h1.4c.2 0 .4 0 .5.1.2 0 .3.1.4.2l.3.3c.1.1.1.3.1.5 0 .1 0 .3-.1.4 0 .1-.1.2-.2.3-.1.1-.2.2-.3.2s-.2.1-.4.2c.1 0 .1.1.2.1l.2.2c0 .1.1.1.1.2s.1.1.2.2l.9 1.2zm-2.5-3.6v1.3H153.3c.1 0 .2-.1.2-.1l.2-.2c0-.1.1-.2.1-.3 0-.2-.1-.4-.2-.5-.1-.1-.3-.2-.5-.2h-.7zM157.7 1131.4h-2.3v-4.1h2.2v.6h-1.5v1.2h1.4v.6h-1.4v1.2h1.6v.5zM163.3 1127.2l-1.5 4.1h-.8l-1.5-4.1h.8l1 3.1c0 .1.1.2.1.3 0-.1 0-.2.1-.4l1-3.1.8.1zM168.3 1131.4h-.7v-2.7-.8c0 .2-.1.3-.1.4l-1.2 3.1h-.5l-1.2-3.1c0-.1-.1-.2-.1-.4v3.5h-.6v-4.1h1l1.1 2.8c.1.2.1.4.2.5.1-.2.1-.4.2-.5l1.1-2.7h.9l-.1 4zM174.3 1131.4h-.8l-.4-1.1h-1.6l-.4 1.1h-.8l1.6-4.1h.8l1.6 4.1zm-1.3-1.6l-.6-1.7c0-.1 0-.1-.1-.3 0 .1 0 .2-.1.3l-.6 1.7h1.4z"/></g><g fill="#686969"><path d="M189.6 1088.5h-.7v-4.1h.7v4.1zM194 1088.5h-.8l-.4-1.1h-1.6l-.4 1.1h-.8l1.6-4.1h.8l1.6 4.1zm-1.3-1.6l-.6-1.7c0-.1 0-.1-.1-.3 0 .1 0 .2-.1.3l-.6 1.7h1.4z"/><path d="M198 1088.5h-.8l-.4-1.1h-1.6l-.4 1.1h-.8l1.6-4.1h.8l1.6 4.1zm-1.3-1.6l-.6-1.7c0-.1 0-.1-.1-.3 0 .1 0 .2-.1.3l-.6 1.7h1.4zM198.4 1088.4v-.7l.2.2c.1.1.2.1.3.1s.2.1.3.1h.3c.3 0 .5 0 .6-.1s.2-.2.2-.4c0-.1 0-.2-.1-.3 0-.1-.1-.1-.2-.2s-.2-.1-.3-.2-.2-.1-.4-.2c-.1-.1-.3-.2-.4-.2l-.3-.3c-.1-.1-.2-.2-.2-.3-.1-.1-.1-.3-.1-.4 0-.2 0-.4.1-.5s.2-.3.3-.4.3-.2.5-.2.4-.1.6-.1c.4 0 .7 0 .9.1v.7c-.2-.2-.5-.3-.9-.3h-.3c-.1 0-.2.1-.3.1s-.1.1-.2.2c0 .1-.1.2-.1.3s0 .2.1.2c0 .1.1.1.2.2s.2.1.3.2.2.1.4.2c.1.1.3.2.4.2l.3.3c.1.1.2.2.2.3.1.1.1.3.1.4 0 .2 0 .4-.1.5s-.2.3-.3.4c-.1.1-.3.2-.5.2s-.4.1-.6.1h-.6c-.1 0-.2 0-.4-.2.1 0 0 0 0 0z"/></g><g fill="#686969"><path d="M184.2 1109.2v-.7l.2.2c.1.1.2.1.3.1s.2.1.3.1h.3c.3 0 .5 0 .6-.1.1-.1.2-.2.2-.4 0-.1 0-.2-.1-.3 0-.1-.1-.1-.2-.2s-.2-.1-.3-.2c-.1-.1-.2-.1-.4-.2-.1-.1-.3-.2-.4-.2l-.3-.3c-.1-.1-.2-.2-.2-.3-.1-.1-.1-.3-.1-.4 0-.2 0-.4.1-.5.1-.1.2-.3.3-.4s.3-.2.5-.2.4-.1.6-.1c.4 0 .7 0 .9.1v.7c-.2-.2-.5-.3-.9-.3h-.3c-.1 0-.2.1-.3.1s-.1.1-.2.2c0 .1-.1.2-.1.3 0 .1 0 .2.1.2 0 .1.1.1.2.2s.2.1.3.2.2.1.4.2c.1.1.3.2.4.2l.3.3c.1.1.2.2.2.3.1.1.1.3.1.4 0 .2 0 .4-.1.5-.1.1-.2.3-.3.4s-.3.2-.5.2-.4.1-.6.1h-.6c-.1 0-.2 0-.3-.1.1 0 0-.1-.1-.1zM192.8 1105.2l-1.1 4.1h-.8l-.8-2.9c0-.1-.1-.3-.1-.4 0 .1 0 .3-.1.4l-.8 2.9h-.8l-1.2-4.1h.8l.8 3c0 .1.1.3.1.4 0-.1 0-.2.1-.4l.8-3h.7l.8 3.1c0 .1 0 .2.1.4 0-.1 0-.2.1-.4l.7-3h.7v-.1zM196.6 1109.4h-.8l-.4-1.1h-1.6l-.4 1.1h-.8l1.6-4.1h.8l1.6 4.1zm-1.4-1.7l-.6-1.7c0-.1 0-.1-.1-.3 0 .1 0 .2-.1.3l-.6 1.7h1.4zM200.3 1109.4h-.8l-.7-1.1c-.1-.1-.1-.2-.2-.3l-.2-.2c-.1 0-.1-.1-.2-.1h-.5v1.7h-.7v-4.1h1.4c.2 0 .4 0 .5.1.2 0 .3.1.4.2l.3.3c.1.1.1.3.1.5 0 .1 0 .3-.1.4 0 .1-.1.2-.2.3-.1.1-.2.2-.3.2-.1.1-.2.1-.4.2.1 0 .1.1.2.1l.2.2c0 .1.1.1.1.2s.1.1.2.2l.9 1.2zm-2.5-3.6v1.3H198.7c.1 0 .2-.1.2-.1l.2-.2c0-.1.1-.2.1-.3 0-.2-.1-.4-.2-.5-.1-.1-.3-.2-.5-.2h-.7zM205.2 1109.4h-.7v-2.7-.8c0 .2-.1.3-.1.4l-1.2 3.1h-.5l-1.2-3.1c0-.1-.1-.2-.1-.4v3.5h-.6v-4.1h1l1.1 2.8c.1.2.1.4.2.5.1-.2.1-.4.2-.5l1.1-2.7h.9l-.1 4z"/></g><g fill="#686969"><path d="M161.8 1202.1v1.5h-.7v-4.2h1.3c.5 0 .9.1 1.1.3.3.2.4.5.4.9s-.1.7-.4 1c-.3.3-.6.4-1.1.4l-.6.1zm0-2.1v1.5h.4c.3 0 .5-.1.7-.2.2-.1.2-.3.2-.6 0-.5-.3-.7-.9-.7h-.4zM166.3 1201.3c-.1-.1-.2-.1-.4-.1s-.4.1-.5.3-.2.4-.2.7v1.4h-.7v-3h.7v.6c.1-.2.2-.4.3-.5.1-.1.3-.2.5-.2.1 0 .2 0 .3.1v.7zM167.1 1200c-.1 0-.2 0-.3-.1s-.1-.2-.1-.3 0-.2.1-.3c.1-.1.2-.1.3-.1s.2 0 .3.1c.1.1.1.2.1.3s0 .2-.1.3-.2.1-.3.1zm.3 3.6h-.7v-3h.7v3zM172.8 1203.6h-.7v-1.6c0-.3 0-.5-.1-.7-.1-.1-.2-.2-.4-.2s-.3.1-.4.3c-.1.2-.2.4-.2.6v1.6h-.7v-1.7c0-.6-.2-.8-.6-.8-.2 0-.3.1-.4.2-.1.2-.2.4-.2.6v1.6h-.7v-3h.7v.5c.2-.4.5-.5.9-.5.2 0 .4.1.5.2.2.1.3.3.3.4.2-.4.6-.6 1-.6.7 0 1 .4 1 1.2v1.9zM175.9 1203.6h-.7v-.5c-.2.4-.5.5-.9.5-.3 0-.5-.1-.7-.2-.2-.2-.2-.4-.2-.6 0-.6.3-.9 1-1l.9-.1c0-.4-.2-.6-.6-.6-.4 0-.7.1-1 .4v-.6c.3-.2.7-.3 1.1-.3.8 0 1.1.4 1.1 1.1v1.9zm-.7-1.4l-.6.1c-.2 0-.3.1-.4.1-.1.1-.1.2-.1.4 0 .1 0 .2.1.3s.2.1.4.1.4-.1.5-.2.2-.3.2-.5l-.1-.3zM178.4 1201.3c-.1-.1-.2-.1-.4-.1s-.4.1-.5.3-.2.4-.2.7v1.4h-.7v-3h.7v.6c.1-.2.2-.4.3-.5.1-.1.3-.2.5-.2.1 0 .2 0 .3.1v.7zM181.7 1200.6l-1.3 3.5c-.3.6-.7.9-1.2.9h-.4v-.6c.1 0 .2.1.3.1.3 0 .4-.1.6-.4l.2-.5-1.2-3h.7l.7 2.2s0 .1.1.2c0 0 0-.1.1-.2l.7-2.2h.7zM157.2 1210.8v-4.2h1.2c1.5 0 2.3.7 2.3 2 0 .6-.2 1.2-.6 1.6-.4.4-1 .6-1.7.6h-1.2zm.7-3.6v3h.6c.5 0 .9-.1 1.1-.4.3-.3.4-.6.4-1.1 0-1-.5-1.5-1.5-1.5h-.6zM163.7 1210.8h-.7v-.5c-.2.4-.5.5-.9.5-.3 0-.5-.1-.7-.2-.2-.2-.2-.4-.2-.6 0-.6.3-.9 1-1l.9-.1c0-.4-.2-.6-.6-.6-.4 0-.7.1-1 .4v-.7c.3-.2.7-.3 1.1-.3.8 0 1.1.4 1.1 1.1v2zm-.6-1.5l-.6.1c-.2 0-.3.1-.4.1-.1.1-.1.2-.1.4 0 .1 0 .2.1.3.1.1.2.1.4.1s.4-.1.5-.2.2-.3.2-.5l-.1-.3zM166.1 1210.7c-.1.1-.3.1-.5.1-.6 0-.9-.3-.9-.8v-1.7h-.5v-.5h.5v-.7l.7-.2v.9h.7v.5h-.7v1.5c0 .2 0 .3.1.4.1.1.2.1.3.1s.2 0 .3-.1v.5zM169 1210.8h-.7v-.5c-.2.4-.5.5-.9.5-.3 0-.5-.1-.7-.2-.2-.2-.2-.4-.2-.6 0-.6.3-.9 1-1l.9-.1c0-.4-.2-.6-.6-.6-.4 0-.7.1-1 .4v-.7c.3-.2.7-.3 1.1-.3.8 0 1.1.4 1.1 1.1v2zm-.7-1.5l-.6.1c-.2 0-.3.1-.4.1-.1.1-.1.2-.1.4 0 .1 0 .2.1.3.1.1.2.1.4.1s.4-.1.5-.2.2-.3.2-.5l-.1-.3zM170.5 1210.3v.4h-.7v-4.4h.7v2c.2-.4.6-.6 1-.6s.7.1.9.4.3.6.3 1.1-.1.9-.4 1.2c-.3.3-.6.4-1 .4-.3 0-.6-.1-.8-.5zm0-1.1v.4c0 .2.1.4.2.6.1.2.3.2.5.2.3 0 .4-.1.6-.3.1-.2.2-.5.2-.8s-.1-.5-.2-.7c-.1-.2-.3-.2-.5-.2s-.4.1-.6.3c-.2 0-.2.2-.2.5zM175.6 1210.8h-.7v-.5c-.2.4-.5.5-.9.5-.3 0-.5-.1-.7-.2-.2-.2-.2-.4-.2-.6 0-.6.3-.9 1-1l.9-.1c0-.4-.2-.6-.6-.6-.4 0-.7.1-1 .4v-.7c.3-.2.7-.3 1.1-.3.8 0 1.1.4 1.1 1.1v2zm-.6-1.5l-.6.1c-.2 0-.3.1-.4.1-.1.1-.1.2-.1.4 0 .1 0 .2.1.3.1.1.2.1.4.1s.4-.1.5-.2.2-.3.2-.5l-.1-.3zM176.2 1210.7v-.7c.3.2.5.3.8.3.4 0 .6-.1.6-.4 0-.1 0-.1-.1-.2l-.1-.1c-.1 0-.1-.1-.2-.1s-.2-.1-.3-.1-.2-.1-.3-.2-.2-.1-.2-.2c-.1-.1-.1-.1-.1-.2v-.3c0-.1 0-.3.1-.4l.3-.3c.1-.1.2-.1.4-.2.1 0 .3-.1.5-.1.3 0 .5 0 .7.1v.6c-.2-.1-.4-.2-.7-.2h-.2c-.1 0-.1 0-.2.1l-.1.1V1208.5l.1.1c.1 0 .1.1.2.1s.2.1.3.1c.1.1.2.1.3.2s.2.1.3.2l.2.2c0 .1.1.2.1.3 0 .2 0 .3-.1.4l-.3.3c-.1.1-.3.1-.4.2-.2 0-.3.1-.5.1-.5.1-.8.1-1.1 0zM181.5 1209.5h-2c0 .3.1.5.3.6s.4.2.7.2.6-.1.9-.3v.5c-.3.2-.6.3-1.1.3-.4 0-.8-.1-1-.4s-.4-.7-.4-1.1c0-.5.1-.8.4-1.1.3-.3.6-.4 1-.4s.7.1.9.4c.2.3.3.6.3 1.1v.2zm-.6-.5c0-.2-.1-.4-.2-.6-.1-.1-.3-.2-.5-.2s-.4.1-.5.2-.2.3-.2.6h1.4z"/></g><g fill="#686969"><path d="M207.7 1203.5v-.7l.2.2c.1 0 .2.1.3.1.1 0 .2.1.3.1h.3c.3 0 .5 0 .7-.1.1-.1.2-.2.2-.4 0-.1 0-.2-.1-.3 0-.1-.1-.1-.2-.2s-.2-.1-.3-.2c-.1-.1-.2-.1-.4-.2-.1-.1-.3-.2-.4-.2l-.3-.3c-.1-.1-.2-.2-.2-.3-.1-.1-.1-.3-.1-.4 0-.2 0-.4.1-.5s.2-.3.3-.4c.1-.1.3-.2.5-.2s.4-.1.6-.1c.4 0 .8 0 1 .1v.7c-.2-.2-.5-.3-.9-.3h-.3c-.1 0-.2.1-.3.1-.1 0-.1.1-.2.2s-.1.2-.1.3c0 .1 0 .2.1.2 0 .1.1.1.2.2s.2.1.3.2c.1.1.2.1.4.2.1.1.3.2.4.2l.3.3c.1.1.2.2.2.3.1.1.1.3.1.4 0 .2 0 .4-.1.5-.1.1-.2.3-.3.4-.1.1-.3.2-.5.2s-.4.1-.6.1h-.6c-.1 0-.2 0-.3-.1-.1-.1-.2-.1-.3-.1zM213.6 1202.3h-2c0 .3.1.5.3.6.2.1.4.2.7.2.3 0 .6-.1.9-.3v.5c-.3.2-.6.3-1.1.3-.4 0-.8-.1-1-.4-.2-.3-.4-.7-.4-1.1 0-.5.1-.8.4-1.1s.6-.4 1-.4.7.1.9.4c.2.3.3.6.3 1.1v.2zm-.6-.5c0-.2-.1-.4-.2-.6-.1-.2-.3-.2-.5-.2s-.4.1-.5.2c-.1.1-.2.3-.2.6h1.4zM216.4 1203.5c-.2.1-.5.2-.8.2-.4 0-.8-.1-1.1-.4-.3-.3-.4-.6-.4-1.1s.1-.9.4-1.2.7-.4 1.2-.4c.3 0 .5 0 .7.1v.6c-.2-.2-.4-.2-.7-.2-.3 0-.5.1-.7.3-.2.2-.3.4-.3.8 0 .3.1.6.3.7s.4.3.7.3c.2 0 .5-.1.7-.3v.6zM218.4 1203.7c-.5 0-.8-.1-1.1-.4-.3-.3-.4-.6-.4-1.1s.1-.9.4-1.2.7-.4 1.2-.4.8.1 1.1.4c.3.3.4.7.4 1.1 0 .5-.1.9-.4 1.1-.4.3-.7.5-1.2.5zm0-2.6c-.3 0-.5.1-.6.3-.2.2-.2.4-.2.8 0 .3.1.6.2.7.2.2.4.3.6.3.3 0 .5-.1.6-.3.1-.2.2-.4.2-.8 0-.3-.1-.6-.2-.8s-.3-.2-.6-.2zM223.3 1203.6h-.7v-1.7c0-.6-.2-.8-.6-.8-.2 0-.4.1-.5.2-.1.2-.2.3-.2.6v1.7h-.7v-3h.7v.5c.2-.4.5-.6 1-.6.3 0 .6.1.7.3.2.2.3.5.3.9v1.9zM226.8 1203.6h-.7v-.5c-.2.4-.6.6-1 .6s-.7-.1-.9-.4c-.2-.3-.3-.6-.3-1.1s.1-.9.4-1.2c.2-.3.6-.4 1-.4s.7.2.9.5v-1.8h.7v4.3h-.1zm-.7-1.3v-.4c0-.2-.1-.4-.2-.5s-.3-.2-.5-.2c-.3 0-.5.1-.6.3s-.2.4-.2.8c0 .3.1.5.2.7.1.2.3.3.6.3.2 0 .4-.1.6-.3.1-.3.1-.5.1-.7zM230 1203.6h-.7v-.5c-.2.4-.5.5-.9.5-.3 0-.5-.1-.7-.2-.2-.2-.2-.4-.2-.6 0-.6.3-.9 1-1l.9-.1c0-.4-.2-.6-.6-.6s-.7.1-1 .4v-.6c.3-.2.7-.3 1.1-.3.8 0 1.1.4 1.1 1.1v1.9zm-.7-1.4l-.6.1c-.2 0-.3.1-.4.1s-.1.2-.1.4c0 .1 0 .2.1.3s.2.1.4.1.4-.1.5-.2.2-.3.2-.5v-.3h-.1zM232.5 1201.3c-.1-.1-.2-.1-.4-.1s-.4.1-.5.3-.2.4-.2.7v1.4h-.7v-3h.7v.6c.1-.2.2-.4.3-.5.1-.1.3-.2.5-.2.1 0 .2 0 .3.1v.7zM235.8 1200.6l-1.3 3.5c-.3.6-.7.9-1.2.9h-.4v-.6c.1 0 .2.1.3.1.3 0 .4-.1.6-.4l.2-.5-1.2-3h.7l.7 2.2s0 .1.1.2c0 0 0-.1.1-.2l.7-2.2h.7zM207.9 1210.8v-4.2h1.2c1.5 0 2.3.7 2.3 2 0 .6-.2 1.2-.6 1.6-.4.4-1 .6-1.7.6h-1.2zm.7-3.6v3h.6c.5 0 .9-.1 1.1-.4.3-.3.4-.6.4-1.1 0-1-.5-1.5-1.5-1.5h-.6zM214.4 1210.8h-.7v-.5c-.2.4-.5.5-.9.5-.3 0-.5-.1-.7-.2-.2-.2-.2-.4-.2-.6 0-.6.3-.9 1-1l.9-.1c0-.4-.2-.6-.6-.6s-.7.1-1 .4v-.7c.3-.2.7-.3 1.1-.3.8 0 1.1.4 1.1 1.1v2zm-.6-1.5l-.6.1c-.2 0-.3.1-.4.1-.1.1-.1.2-.1.4 0 .1 0 .2.1.3.1.1.2.1.4.1s.4-.1.5-.2.2-.3.2-.5v-.3h-.1zM216.8 1210.7c-.1.1-.3.1-.5.1-.6 0-.9-.3-.9-.8v-1.7h-.5v-.5h.5v-.7l.7-.2v.9h.7v.5h-.7v1.5c0 .2 0 .3.1.4.1.1.2.1.3.1.1 0 .2 0 .3-.1v.5zM219.7 1210.8h-.7v-.5c-.2.4-.5.5-.9.5-.3 0-.5-.1-.7-.2-.2-.2-.2-.4-.2-.6 0-.6.3-.9 1-1l.9-.1c0-.4-.2-.6-.6-.6s-.7.1-1 .4v-.7c.3-.2.7-.3 1.1-.3.8 0 1.1.4 1.1 1.1v2zm-.7-1.5l-.6.1c-.2 0-.3.1-.4.1-.1.1-.1.2-.1.4 0 .1 0 .2.1.3.1.1.2.1.4.1s.4-.1.5-.2.2-.3.2-.5v-.3h-.1zM221.2 1210.3v.4h-.7v-4.4h.7v2c.2-.4.6-.6 1-.6s.7.1.9.4c.2.3.3.6.3 1.1s-.1.9-.4 1.2c-.3.3-.6.4-1 .4-.3 0-.6-.1-.8-.5zm0-1.1v.4c0 .2.1.4.2.6.1.2.3.2.5.2.3 0 .4-.1.6-.3.2-.2.2-.5.2-.8s-.1-.5-.2-.7c-.1-.2-.3-.2-.5-.2s-.4.1-.6.3c-.2 0-.2.2-.2.5zM226.3 1210.8h-.7v-.5c-.2.4-.5.5-.9.5-.3 0-.5-.1-.7-.2-.2-.2-.2-.4-.2-.6 0-.6.3-.9 1-1l.9-.1c0-.4-.2-.6-.6-.6s-.7.1-1 .4v-.7c.3-.2.7-.3 1.1-.3.8 0 1.1.4 1.1 1.1v2zm-.6-1.5l-.6.1c-.2 0-.3.1-.4.1-.1.1-.1.2-.1.4 0 .1 0 .2.1.3.1.1.2.1.4.1s.4-.1.5-.2.2-.3.2-.5v-.3h-.1zM226.9 1210.7v-.7c.3.2.5.3.8.3.4 0 .6-.1.6-.4 0-.1 0-.1-.1-.2l-.1-.1c-.1 0-.1-.1-.2-.1s-.2-.1-.3-.1c-.1 0-.2-.1-.3-.2-.1-.1-.2-.1-.2-.2-.1-.1-.1-.1-.1-.2v-.3c0-.1 0-.3.1-.4l.3-.3c.1-.1.2-.1.4-.2.1 0 .3-.1.5-.1.3 0 .5 0 .7.1v.6c-.2-.1-.4-.2-.7-.2h-.2c-.1 0-.1 0-.2.1l-.1.1V1208.5l.1.1c.1 0 .1.1.2.1s.2.1.3.1c.1.1.2.1.3.2.1.1.2.1.3.2l.2.2c0 .1.1.2.1.3 0 .2 0 .3-.1.4l-.3.3c-.1.1-.3.1-.4.2-.2 0-.3.1-.5.1-.5.1-.8.1-1.1 0zM232.2 1209.5h-2c0 .3.1.5.3.6.2.1.4.2.7.2.3 0 .6-.1.9-.3v.5c-.3.2-.6.3-1.1.3-.4 0-.8-.1-1-.4s-.4-.7-.4-1.1c0-.5.1-.8.4-1.1.3-.3.6-.4 1-.4s.7.1.9.4c.2.3.3.6.3 1.1v.2zm-.6-.5c0-.2-.1-.4-.2-.6-.1-.2-.3-.2-.5-.2s-.4.1-.5.2-.2.3-.2.6h1.4z"/></g><g fill="#686969"><path d="M146.4 1192.7h-.7v-2.7-.8c0 .2-.1.3-.1.4l-1.2 3.1h-.5l-1.2-3.1c0-.1-.1-.2-.1-.4v3.5h-.6v-4.2h1l1.1 2.8c.1.2.1.4.2.5.1-.2.1-.4.2-.5l1.1-2.8h.9l-.1 4.2zM150.8 1192.7h-.8l-.4-1.1H148l-.4 1.1h-.8l1.6-4.2h.8l1.6 4.2zm-1.3-1.6l-.6-1.7c0-.1 0-.1-.1-.3 0 .1 0 .2-.1.3l-.6 1.7h1.4zM154.6 1192.7h-.8l-.7-1.1c-.1-.1-.1-.2-.2-.3l-.2-.2c-.1 0-.1-.1-.2-.1h-.5v1.7h-.7v-4.2h1.4c.2 0 .4 0 .5.1.2 0 .3.1.4.2.1.1.2.2.3.4.1.1.1.3.1.5 0 .1 0 .3-.1.4 0 .1-.1.2-.2.3-.1.1-.2.2-.3.2s-.2.1-.4.2c.1 0 .1.1.2.1l.2.2c.1.1.1.1.1.2s.1.1.2.2l.9 1.2zm-2.5-3.6v1.4H153c.1 0 .2-.1.2-.1l.2-.2c0-.1.1-.2.1-.3 0-.2-.1-.4-.2-.5-.1-.1-.3-.2-.5-.2l-.7-.1zM155.8 1192.7h-.7v-4.2h.7v4.2zM160.3 1192.7h-.8l-.4-1.1h-1.6l-.4 1.1h-.8l1.6-4.2h.8l1.6 4.2zm-1.4-1.6l-.6-1.7c0-.1 0-.1-.1-.3 0 .1 0 .2-.1.3l-.6 1.7h1.4zM162.5 1192.7v-4.2h1.2c1.5 0 2.3.7 2.3 2 0 .6-.2 1.2-.6 1.6-.4.4-1 .6-1.7.6h-1.2zm.7-3.6v3h.6c.5 0 .9-.1 1.1-.4.2-.3.4-.6.4-1.1 0-1-.5-1.5-1.5-1.5h-.6zM166.7 1192.7v-4.2h1.3c.4 0 .7.1 1 .3.2.2.4.4.4.7 0 .2-.1.4-.2.6-.1.2-.3.3-.6.4.3 0 .5.1.7.3.2.2.3.4.3.7 0 .4-.1.6-.4.9-.3.2-.6.3-1.1.3h-1.4zm.7-3.6v1.2h.4c.2 0 .4-.1.6-.2.1-.1.2-.3.2-.5 0-.4-.2-.5-.7-.5h-.5zm0 1.7v1.3h.6c.3 0 .5-.1.6-.2.1-.1.2-.3.2-.5 0-.4-.3-.6-.9-.6h-.5z"/></g><g fill="#686969"><path d="M224.2 1192.7h-.7v-2.7-.8c0 .2-.1.3-.1.4l-1.2 3.1h-.5l-1.2-3.1c0-.1-.1-.2-.1-.4v3.5h-.6v-4.2h1l1.1 2.8c.1.2.1.4.2.5.1-.2.1-.4.2-.5l1.1-2.8h.9l-.1 4.2zM228.7 1192.7h-.8l-.4-1.1h-1.6l-.4 1.1h-.8l1.6-4.2h.8l1.6 4.2zm-1.4-1.6l-.6-1.7c0-.1 0-.1-.1-.3 0 .1 0 .2-.1.3l-.6 1.7h1.4zM232.4 1192.7h-.8l-.7-1.1c-.1-.1-.1-.2-.2-.3l-.2-.2c-.1 0-.1-.1-.2-.1h-.5v1.7h-.7v-4.2h1.4c.2 0 .4 0 .5.1.2 0 .3.1.4.2.1.1.2.2.3.4.1.1.1.3.1.5 0 .1 0 .3-.1.4 0 .1-.1.2-.2.3s-.2.2-.3.2c-.1.1-.2.1-.4.2.1 0 .1.1.2.1l.2.2c.1.1.1.1.1.2s.1.1.2.2l.9 1.2zm-2.5-3.6v1.4H230.8c.1 0 .2-.1.2-.1l.2-.2c0-.1.1-.2.1-.3 0-.2-.1-.4-.2-.5s-.3-.2-.5-.2l-.7-.1zM233.6 1192.7h-.7v-4.2h.7v4.2zM238.1 1192.7h-.8l-.4-1.1h-1.6l-.4 1.1h-.8l1.6-4.2h.8l1.6 4.2zm-1.3-1.6l-.6-1.7c0-.1 0-.1-.1-.3 0 .1 0 .2-.1.3l-.6 1.7h1.4zM240.3 1192.7v-4.2h1.2c1.5 0 2.3.7 2.3 2 0 .6-.2 1.2-.6 1.6s-1 .6-1.7.6h-1.2zm.7-3.6v3h.6c.5 0 .9-.1 1.1-.4.3-.3.4-.6.4-1.1 0-1-.5-1.5-1.5-1.5h-.6zM244.6 1192.7v-4.2h1.3c.4 0 .7.1 1 .3.2.2.4.4.4.7 0 .2-.1.4-.2.6-.1.2-.3.3-.6.4.3 0 .5.1.7.3.2.2.3.4.3.7 0 .4-.1.6-.4.9-.3.2-.6.3-1.1.3h-1.4zm.7-3.6v1.2h.4c.2 0 .4-.1.6-.2.1-.1.2-.3.2-.5 0-.4-.2-.5-.7-.5h-.5zm0 1.7v1.3h.6c.3 0 .5-.1.6-.2.1-.1.2-.3.2-.5 0-.4-.3-.6-.9-.6h-.5z"/></g><g fill="#686969"><path d="M120.5 1180.2v-4.8h1.4c1.8 0 2.6.8 2.6 2.3 0 .7-.2 1.3-.7 1.8-.5.4-1.1.7-2 .7h-1.3zm.8-4.1v3.4h.6c.6 0 1-.2 1.3-.5s.5-.7.5-1.3c0-1.1-.6-1.7-1.7-1.7l-.7.1zM125.4 1180.2v-4.8h1.5c.5 0 .8.1 1.1.3.3.2.4.5.4.8s-.1.5-.2.7c-.2.2-.4.3-.6.4.3 0 .6.2.8.4s.3.5.3.8c0 .4-.2.7-.5 1-.3.3-.7.4-1.2.4h-1.6zm.8-4.1v1.4h.5c.3 0 .5-.1.6-.2.2-.1.2-.3.2-.6 0-.4-.3-.6-.8-.6h-.5zm0 2v1.5h.7c.3 0 .5-.1.7-.2s.2-.3.2-.6c0-.5-.3-.7-1-.7h-.6zM131 1175.3v4.9h-.8v-3.9c-.1.1-.3.2-.5.3s-.3.1-.5.2v-.8c.1 0 .3-.1.4-.1.1 0 .2-.1.4-.2.1-.1.2-.1.4-.2.1-.1.2-.2.4-.2h.2z"/></g><g fill="#686969"><path d="M211 1180.2v-4.8h1.4c1.8 0 2.6.8 2.6 2.3 0 .7-.2 1.3-.7 1.8-.5.4-1.1.7-2 .7H211zm.8-4.1v3.4h.6c.6 0 1-.2 1.3-.5s.5-.7.5-1.3c0-1.1-.6-1.7-1.7-1.7l-.7.1zM215.9 1180.2v-4.8h1.5c.5 0 .8.1 1.1.3.3.2.4.5.4.8s-.1.5-.2.7c-.2.2-.4.3-.6.4.3 0 .6.2.8.4.2.2.3.5.3.8 0 .4-.2.7-.5 1-.3.3-.7.4-1.2.4h-1.6zm.8-4.1v1.4h.5c.3 0 .5-.1.6-.2.2-.1.2-.3.2-.6 0-.4-.3-.6-.8-.6h-.5zm0 2v1.5h.7c.3 0 .5-.1.7-.2s.2-.3.2-.6c0-.5-.3-.7-1-.7h-.6zM221.5 1175.3v4.9h-.8v-3.9c-.1.1-.3.2-.5.3s-.3.1-.5.2v-.8c.1 0 .3-.1.4-.1s.2-.1.4-.2c.1-.1.2-.1.4-.2.1-.1.2-.2.4-.2h.2z"/></g><g fill="#686969"><path d="M144 1180.2v-4.8h1.4c1.8 0 2.6.8 2.6 2.3 0 .7-.2 1.3-.7 1.8-.5.4-1.1.7-2 .7H144zm.8-4.1v3.4h.6c.6 0 1-.2 1.3-.5s.5-.7.5-1.3c0-1.1-.6-1.7-1.7-1.7l-.7.1zM148.9 1180.2v-4.8h1.5c.5 0 .8.1 1.1.3.3.2.4.5.4.8s-.1.5-.2.7c-.2.2-.4.3-.6.4.3 0 .6.2.8.4s.3.5.3.8c0 .4-.2.7-.5 1-.3.3-.7.4-1.2.4h-1.6zm.8-4.1v1.4h.5c.3 0 .5-.1.6-.2.2-.1.2-.3.2-.6 0-.4-.3-.6-.8-.6h-.5zm0 2v1.5h.7c.3 0 .5-.1.7-.2s.2-.3.2-.6c0-.5-.3-.7-1-.7h-.6zM155.7 1180.2h-3v-.4c0-.2 0-.3.1-.4 0-.1.1-.3.2-.4.1-.1.2-.2.2-.3l.3-.3.3-.3.3-.3.3-.3c.1-.1.2-.2.2-.3.1-.1.1-.2.1-.3v-.3c0-.1 0-.2-.1-.3 0-.1-.1-.2-.2-.2s-.2-.1-.2-.1h-.3c-.2 0-.4 0-.6.1-.2.1-.4.2-.6.4v-.7c.1-.1.2-.1.3-.2s.2-.1.3-.1.2-.1.3-.1h.4c.2 0 .4 0 .6.1.2.1.3.1.4.2.1.1.2.2.3.4s.1.4.1.6c0 .2 0 .4-.1.5 0 .2-.1.3-.2.4-.1.1-.2.3-.3.4s-.3.2-.4.4c-.1.1-.3.2-.4.3l-.3.3c-.1.1-.2.2-.2.3-.1.1-.1.2-.1.3h2.2l.1.6z"/></g><g fill="#686969"><path d="M233.6 1180.2v-4.8h1.4c1.8 0 2.6.8 2.6 2.3 0 .7-.2 1.3-.7 1.8-.5.4-1.1.7-2 .7h-1.3zm.7-4.1v3.4h.6c.6 0 1-.2 1.3-.5s.5-.7.5-1.3c0-1.1-.6-1.7-1.7-1.7l-.7.1zM238.4 1180.2v-4.8h1.5c.5 0 .8.1 1.1.3.3.2.4.5.4.8s-.1.5-.2.7c-.2.2-.4.3-.6.4.3 0 .6.2.8.4.2.2.3.5.3.8 0 .4-.2.7-.5 1-.3.3-.7.4-1.2.4h-1.6zm.8-4.1v1.4h.5c.3 0 .5-.1.6-.2.2-.1.2-.3.2-.6 0-.4-.3-.6-.8-.6h-.5zm0 2v1.5h.7c.3 0 .5-.1.7-.2s.2-.3.2-.6c0-.5-.3-.7-1-.7h-.6zM245.3 1180.2h-3v-.4c0-.2 0-.3.1-.4 0-.1.1-.3.2-.4.1-.1.2-.2.2-.3s.2-.2.3-.3l.3-.3.3-.3.3-.3c.1-.1.2-.2.2-.3.1-.1.1-.2.1-.3v-.3c0-.1 0-.2-.1-.3s-.1-.2-.2-.2-.2-.1-.2-.1h-.3c-.2 0-.4 0-.6.1-.2.1-.4.2-.6.4v-.7c.1-.1.2-.1.3-.2.1-.1.2-.1.3-.1s.2-.1.3-.1h.4c.2 0 .4 0 .6.1s.3.1.4.2.2.2.3.4c.1.2.1.4.1.6 0 .2 0 .4-.1.5 0 .2-.1.3-.2.4s-.2.3-.3.4c-.1.1-.3.2-.4.4-.1.1-.3.2-.4.3l-.3.3c-.1.1-.2.2-.2.3-.1.1-.1.2-.1.3h2.2v.6h.1z"/></g><g fill="#686969"><path d="M166.9 1180.2v-4.8h1.4c1.8 0 2.6.8 2.6 2.3 0 .7-.2 1.3-.7 1.8-.5.4-1.1.7-2 .7h-1.3zm.8-4.1v3.4h.6c.6 0 1-.2 1.3-.5s.5-.7.5-1.3c0-1.1-.6-1.7-1.7-1.7l-.7.1zM171.8 1180.2v-4.8h1.5c.5 0 .8.1 1.1.3.3.2.4.5.4.8s-.1.5-.2.7c-.2.2-.4.3-.6.4.3 0 .6.2.8.4s.3.5.3.8c0 .4-.2.7-.5 1-.3.3-.7.4-1.2.4h-1.6zm.8-4.1v1.4h.5c.3 0 .5-.1.6-.2.2-.1.2-.3.2-.6 0-.4-.3-.6-.8-.6h-.5zm0 2v1.5h.7c.3 0 .5-.1.7-.2s.2-.3.2-.6c0-.5-.3-.7-1-.7h-.6zM175.7 1180v-.7c.3.2.7.4 1.1.4.3 0 .6-.1.8-.2.2-.1.3-.3.3-.6 0-.5-.4-.8-1.2-.8h-.4v-.6h.4c.7 0 1.1-.3 1.1-.8s-.3-.7-.9-.7c-.3 0-.6.1-.9.3v-.7c.3-.2.7-.3 1.1-.3.4 0 .8.1 1 .3.3.2.4.5.4.8 0 .6-.3 1-1 1.2.3 0 .6.2.8.4.2.2.3.5.3.8 0 .4-.2.8-.5 1-.3.3-.7.4-1.3.4-.4.1-.8 0-1.1-.2z"/></g><g fill="#686969"><path d="M256.6 1180.2v-4.8h1.4c1.8 0 2.6.8 2.6 2.3 0 .7-.2 1.3-.7 1.8-.5.4-1.1.7-2 .7h-1.3zm.8-4.1v3.4h.6c.6 0 1-.2 1.3-.5s.5-.7.5-1.3c0-1.1-.6-1.7-1.7-1.7l-.7.1zM261.5 1180.2v-4.8h1.5c.5 0 .8.1 1.1.3.3.2.4.5.4.8s-.1.5-.2.7c-.2.2-.4.3-.6.4.3 0 .6.2.8.4.2.2.3.5.3.8 0 .4-.2.7-.5 1-.3.3-.7.4-1.2.4h-1.6zm.8-4.1v1.4h.5c.3 0 .5-.1.6-.2.2-.1.2-.3.2-.6 0-.4-.3-.6-.8-.6h-.5zm0 2v1.5h.7c.3 0 .5-.1.7-.2s.2-.3.2-.6c0-.5-.3-.7-1-.7h-.6zM265.4 1180v-.7c.3.2.7.4 1.1.4.3 0 .6-.1.8-.2.2-.1.3-.3.3-.6 0-.5-.4-.8-1.2-.8h-.4v-.6h.4c.7 0 1.1-.3 1.1-.8s-.3-.7-.9-.7c-.3 0-.6.1-.9.3v-.7c.3-.2.7-.3 1.1-.3s.8.1 1 .3c.3.2.4.5.4.8 0 .6-.3 1-1 1.2.3 0 .6.2.8.4.2.2.3.5.3.8 0 .4-.2.8-.5 1-.3.3-.7.4-1.3.4-.4.1-.8 0-1.1-.2z"/></g><g fill="#010101"><path d="M169.7 1015.8h-.9l-.5-1.3h-2l-.4 1.3h-.9l1.9-5.2h1l1.8 5.2zm-1.6-2.1l-.7-2.1c0-.1 0-.2-.1-.3 0 .1 0 .2-.1.3l-.7 2.1h1.6zM171.3 1013.9v1.9h-.9v-5.2h1.6c.6 0 1.1.1 1.4.4s.5.7.5 1.2-.2.9-.5 1.2c-.3.3-.8.5-1.4.5h-.7zm0-2.6v1.9h.6c.4 0 .6-.1.8-.3.2-.2.3-.4.3-.7 0-.6-.4-.9-1.1-.9h-.6zM175.6 1013.9v1.9h-.9v-5.2h1.6c.6 0 1.1.1 1.4.4s.5.7.5 1.2-.2.9-.5 1.2c-.3.3-.8.5-1.4.5h-.7zm0-2.6v1.9h.6c.4 0 .6-.1.8-.3.2-.2.3-.4.3-.7 0-.6-.4-.9-1.1-.9h-.6zM181.9 1015.8H179v-5.2h.9v4.4h2v.8zM183.6 1015.8h-.9v-5.2h.9v5.2zM188.5 1015.5c-.4.2-.9.3-1.5.3-.8 0-1.4-.2-1.8-.7s-.7-1.1-.7-1.9.3-1.5.8-2 1.2-.8 1.9-.8c.5 0 .9.1 1.2.2v.9c-.3-.2-.7-.3-1.2-.3-.6 0-1 .2-1.4.5-.3.4-.5.8-.5 1.4 0 .6.2 1 .5 1.4.3.3.8.5 1.3.5s.9-.1 1.3-.3l.1.8zM193.7 1015.8h-.9l-.5-1.3h-2l-.4 1.3h-.9l1.9-5.2h1l1.8 5.2zm-1.6-2.1l-.7-2.1c0-.1 0-.2-.1-.3 0 .1 0 .2-.1.3l-.7 2.1h1.6zM197.2 1011.3h-1.5v4.4h-.9v-4.4h-1.5v-.7h3.8l.1.7zM198.8 1015.8h-.8v-5.2h.9l-.1 5.2zM202.2 1015.8c-.7 0-1.3-.2-1.8-.7s-.7-1.1-.7-1.9.2-1.5.7-2 1.1-.7 1.9-.7c.7 0 1.3.2 1.8.7.4.5.7 1.1.7 1.9 0 .8-.2 1.5-.7 2-.5.5-1.1.7-1.9.7zm.1-4.5c-.5 0-.9.2-1.2.5-.3.4-.4.8-.4 1.4 0 .6.1 1 .4 1.4.3.4.7.5 1.1.5.5 0 .9-.2 1.2-.5.3-.3.4-.8.4-1.4 0-.6-.1-1.1-.4-1.4-.2-.4-.6-.5-1.1-.5zM210.1 1015.8h-.9l-2.5-3.8c-.1-.1-.1-.2-.2-.3v4.1h-.8v-5.2h1l2.4 3.7c.1.2.2.3.2.3v-4h.8v5.2zM216.7 1011.3h-1.5v4.4h-.9v-4.4h-1.5v-.7h3.8v.7h.1zM218.4 1015.8h-.9v-5.2h.9v5.2zM222.5 1015.8h-2.9v-5.2h2.8v.7h-1.9v1.5h1.8v.7h-1.8v1.5h2v.8zM227.5 1015.8h-1l-.8-1.4c-.1-.1-.1-.2-.2-.3-.1-.1-.1-.2-.2-.2-.1-.1-.2-.1-.2-.1h-.6v2.1h-.9v-5.2h1.7c.2 0 .5 0 .7.1.2.1.4.1.5.3.2.1.3.3.4.4.1.2.1.4.1.6 0 .2 0 .4-.1.5-.1.2-.1.3-.2.4s-.2.2-.4.3c-.1.1-.3.1-.5.2.1.1.2.1.2.2l.2.2.2.2c.1.1.1.2.2.3l.9 1.4zm-3.2-4.5v1.7h.7c.1 0 .3 0 .4-.1.1 0 .2-.1.3-.2.1-.1.1-.2.2-.3 0-.1.1-.2.1-.4s-.1-.4-.2-.6c-.2-.1-.4-.2-.7-.2l-.8.1z"/></g><g fill="#010101"><path d="M195.9 997.2c-2.9 0-5.3 2.4-5.3 5.3s2.4 5.3 5.3 5.3 5.3-2.4 5.3-5.3-2.3-5.3-5.3-5.3zm1.4 6.7c-.1.2-.2.3-.3.4-.1.1-.3.2-.4.3-.2.1-.3.1-.5.1s-.4 0-.6-.1c-.2-.1-.3-.2-.5-.4l-.3-.6c-.1-.2-.1-.5-.1-.8 0-.4 0-.7.1-1s.2-.5.4-.7c.2-.2.3-.4.6-.5.2-.1.4-.2.7-.2h.4c.1 0 .2 0 .3.1v.6c-.1 0-.2-.1-.3-.1s-.2-.1-.4-.1-.3 0-.4.1c-.1.1-.3.2-.4.3-.1.1-.2.3-.2.5-.1.2-.1.4-.1.6.1-.1.2-.2.4-.3.2-.1.3-.1.5-.1s.3 0 .5.1c.1.1.3.1.4.3.1.1.2.2.2.4.1.2.1.3.1.5s-.1.4-.1.6z"/><path d="M196.5 1002.8l-.2-.2c-.1 0-.2-.1-.3-.1s-.2 0-.3.1c-.1 0-.2.1-.2.2-.1.1-.1.1-.1.2v.6c0 .1.1.2.1.3.1.1.1.2.2.2.1.1.2.1.3.1s.2 0 .3-.1c.1-.1.2-.1.2-.2.1-.1.1-.2.1-.3v-.3-.3c0-.1 0-.1-.1-.2z"/></g><path d="M180.7 1107.9h-3.9c-.3 0-.5-.2-.5-.5s.2-.5.5-.5h3.9c.3 0 .5.2.5.5s-.2.5-.5.5z" fill="#686969"/><path d="M177.8 1109.1c-.1 0-.3-.1-.4-.2l-1.2-1.2c-.1-.1-.2-.2-.2-.4s.1-.3.2-.4l1.2-1.2c.2-.2.5-.2.8 0 .3.2.2.5 0 .8l-.8.8.8.8c.2.2.2.5 0 .8-.2.1-.3.2-.4.2zM212.8 1107.9h-3.9c-.3 0-.5-.2-.5-.5s.2-.5.5-.5h3.9c.3 0 .5.2.5.5s-.2.5-.5.5z" fill="#686969"/><path d="M211.8 1109.1c-.1 0-.3-.1-.4-.2-.2-.2-.2-.5 0-.8l.8-.8-.8-.8c-.2-.2-.2-.5 0-.8.2-.3.5-.2.8 0l1.2 1.2c.1.1.2.2.2.4 0 .1-.1.3-.2.4l-1.2 1.2c-.1.1-.3.2-.4.2z" fill="#686969"/><g fill="#686969"><path d="M133.7 1052.9h-.7l-.3-.9h-1.4l-.3.9h-.7l1.3-3.6h.7l1.4 3.6zm-1.1-1.4l-.5-1.4v-.2c0 .1 0 .2-.1.2l-.5 1.4h1.1zM134.8 1051.6v1.3h-.6v-3.6h1.1c.4 0 .7.1 1 .3.2.2.3.5.3.8 0 .3-.1.6-.4.9-.2.2-.6.3-1 .3h-.4zm0-1.8v1.3h.4c.3 0 .5-.1.6-.2s.2-.3.2-.5c0-.4-.2-.6-.7-.6h-.5zM137.8 1051.6v1.3h-.6v-3.6h1.1c.4 0 .7.1 1 .3.2.2.3.5.3.8 0 .3-.1.6-.4.9-.3.3-.6.3-1 .3h-.4zm0-1.8v1.3h.4c.3 0 .5-.1.6-.2s.2-.3.2-.5c0-.4-.2-.6-.7-.6h-.5zM146.4 1052.9h-.7l-.3-.9H144l-.3.9h-.7l1.3-3.6h.7l1.4 3.6zm-1.1-1.4l-.5-1.4v-.2c0 .1 0 .2-.1.2l-.5 1.4h1.1zM147.5 1051.6v1.3h-.6v-3.6h1.1c.4 0 .7.1 1 .3.2.2.3.5.3.8 0 .3-.1.6-.4.9-.2.2-.6.3-1 .3h-.4zm0-1.8v1.3h.4c.3 0 .5-.1.6-.2s.2-.3.2-.5c0-.4-.2-.6-.7-.6h-.5zM150.5 1051.6v1.3h-.6v-3.6h1.1c.4 0 .7.1 1 .3.2.2.3.5.3.8 0 .3-.1.6-.4.9-.2.2-.6.3-1 .3h-.4zm0-1.8v1.3h.4c.3 0 .5-.1.6-.2s.2-.3.2-.5c0-.4-.2-.6-.7-.6h-.5zM130 1073v-3.6h1.1c.3 0 .6.1.8.2s.3.4.3.6c0 .2-.1.4-.2.5-.1.2-.3.3-.5.3.2 0 .4.1.6.3.2.2.2.4.2.6 0 .3-.1.6-.4.7-.2.2-.5.3-.9.3l-1 .1zm.5-3.1v1h.4c.2 0 .4 0 .5-.1.1-.1.2-.2.2-.4 0-.3-.2-.5-.6-.5h-.5zm0 1.5v1.1h.5c.2 0 .4-.1.5-.2.1-.1.2-.2.2-.4 0-.4-.3-.6-.8-.6l-.4.1zM133.7 1073h-.6v-3.6h.6v3.6zM137.6 1073h-.6l-1.7-2.6c0-.1-.1-.1-.1-.2v2.9h-.6v-3.6h.7l1.7 2.6c.1.1.1.2.1.2v-2.8h.6l-.1 3.5zM138.3 1072.9v-.6c.1.1.1.1.2.1s.2.1.2.1.2 0 .3.1.2 0 .2 0c.3 0 .4 0 .6-.1.1-.1.2-.2.2-.4 0-.1 0-.2-.1-.2s-.1-.1-.2-.2-.2-.1-.3-.1-.2-.1-.3-.1c-.1-.1-.2-.1-.3-.2-.1-.1-.2-.1-.3-.2s-.1-.2-.2-.3c0-.1-.1-.2-.1-.4s0-.3.1-.4l.3-.3c.1-.1.3-.1.4-.2.2 0 .3-.1.5-.1.4 0 .7 0 .8.1v.6c-.2-.1-.5-.2-.8-.2h-.3c-.1 0-.2 0-.2.1-.1 0-.1.1-.2.1 0 .1-.1.1-.1.2s0 .1.1.2.1.1.1.2c.1 0 .1.1.2.1s.2.1.3.1c.1.1.2.1.4.2.1.1.2.2.3.2.1.1.2.2.2.3 0 .1.1.2.1.4s0 .3-.1.5-.2.2-.3.3-.3.1-.4.2c-.2 0-.3.1-.5.1h-.5c-.1 0-.2 0-.3-.2.2 0 .1 0 0 0zM143 1069.4l-1.7 4.2h-.5l1.7-4.2h.5zM145.4 1073h-2v-3.6h.6v3.1h1.4v.5zM146.6 1073h-.6v-3.6h.6v3.6zM147.4 1073v-3.6h1.1c.3 0 .6.1.8.2.2.2.3.4.3.6 0 .2-.1.4-.2.5-.1.2-.3.3-.5.3.2 0 .4.1.6.3.2.2.2.4.2.6 0 .3-.1.6-.4.7-.2.2-.5.3-.9.3l-1 .1zm.6-3.1v1h.4c.2 0 .4 0 .5-.1.1-.1.2-.2.2-.4 0-.3-.2-.5-.6-.5h-.5zm0 1.5v1.1h.5c.2 0 .4-.1.5-.2.1-.1.2-.2.2-.4 0-.4-.3-.6-.8-.6l-.4.1zM150.4 1072.9v-.6c.1.1.1.1.2.1s.2.1.2.1.2 0 .3.1.2 0 .2 0c.3 0 .4 0 .6-.1.1-.1.2-.2.2-.4 0-.1 0-.2-.1-.2 0-.1-.1-.1-.2-.2s-.2-.1-.3-.1-.2-.1-.3-.1c-.1-.1-.2-.1-.3-.2-.1-.1-.2-.1-.3-.2s-.1-.2-.2-.3c0-.1-.1-.2-.1-.4s0-.3.1-.4l.3-.3c.1-.1.3-.1.4-.2s.3-.1.5-.1c.4 0 .7 0 .8.1v.6c-.2-.1-.5-.2-.8-.2h-.3c-.1 0-.2 0-.2.1-.1 0-.1.1-.2.1 0 .1-.1.1-.1.2s0 .1.1.2.1.1.1.2c.1 0 .1.1.2.1s.2.1.3.1c.1.1.2.1.4.2.1.1.2.2.3.2s.2.2.2.3c0 .1.1.2.1.4s0 .3-.1.5-.2.2-.3.3-.3.1-.4.2c-.2 0-.3.1-.5.1h-.5c-.1 0-.2 0-.3-.2.1 0 0 0 0 0z"/><g><path d="M164.9 1052.9h-.7l-.3-.9h-1.4l-.3.9h-.7l1.3-3.6h.7l1.4 3.6zm-1.2-1.4l-.5-1.4v-.2c0 .1 0 .2-.1.2l-.5 1.4h1.1zM166 1051.6v1.3h-.6v-3.6h1.1c.4 0 .7.1 1 .3.2.2.3.5.3.8 0 .3-.1.6-.4.9-.2.2-.6.3-1 .3h-.4zm0-1.8v1.3h.4c.3 0 .5-.1.6-.2s.2-.3.2-.5c0-.4-.2-.6-.7-.6h-.5zM169 1051.6v1.3h-.6v-3.6h1.1c.4 0 .7.1 1 .3.2.2.3.5.3.8 0 .3-.1.6-.4.9-.2.2-.6.3-1 .3h-.4zm0-1.8v1.3h.4c.3 0 .5-.1.6-.2s.2-.3.2-.5c0-.4-.2-.6-.7-.6h-.5z"/></g><g><path d="M177.6 1052.9h-.6l-.3-.9h-1.4l-.3.9h-.7l1.3-3.6h.7l1.3 3.6zm-1.1-1.4l-.5-1.4v-.2c0 .1 0 .2-.1.2l-.5 1.4h1.1zM178.7 1051.6v1.3h-.6v-3.6h1.1c.4 0 .7.1 1 .3.2.2.3.5.3.8 0 .3-.1.6-.4.9-.2.2-.6.3-1 .3h-.4zm0-1.8v1.3h.4c.3 0 .5-.1.6-.2s.2-.3.2-.5c0-.4-.2-.6-.7-.6h-.5zM181.7 1051.6v1.3h-.6v-3.6h1.1c.4 0 .7.1 1 .3.2.2.3.5.3.8 0 .3-.1.6-.4.9-.2.2-.6.3-1 .3h-.4zm0-1.8v1.3h.4c.3 0 .5-.1.6-.2s.2-.3.2-.5c0-.4-.2-.6-.7-.6h-.5z"/></g><g><path d="M161.1 1073v-3.6h1.1c.3 0 .6.1.8.2.2.2.3.4.3.6 0 .2-.1.4-.2.5-.1.2-.3.3-.5.3.2 0 .4.1.6.3.1.2.2.4.2.6 0 .3-.1.6-.4.7-.2.2-.5.3-.9.3l-1 .1zm.6-3.1v1h.4c.2 0 .4 0 .5-.1.1-.1.2-.2.2-.4 0-.3-.2-.5-.6-.5h-.5zm0 1.5v1.1h.5c.2 0 .4-.1.5-.2.1-.1.2-.2.2-.4 0-.4-.3-.6-.8-.6l-.4.1zM164.9 1073h-.6v-3.6h.6v3.6zM168.8 1073h-.7l-1.7-2.6c0-.1-.1-.1-.1-.2v2.9h-.6v-3.6h.7l1.7 2.6c.1.1.1.2.1.2v-2.8h.6v3.5zM169.5 1072.9v-.6c.1.1.1.1.2.1s.2.1.2.1.2 0 .3.1.2 0 .2 0c.3 0 .4 0 .6-.1.1-.1.2-.2.2-.4 0-.1 0-.2-.1-.2 0-.1-.1-.1-.2-.2s-.2-.1-.3-.1-.2-.1-.3-.1c-.1-.1-.2-.1-.3-.2-.1-.1-.2-.1-.3-.2s-.1-.2-.2-.3c0-.1-.1-.2-.1-.4s0-.3.1-.4l.3-.3c.1-.1.3-.1.4-.2s.3-.1.5-.1c.4 0 .7 0 .8.1v.6c-.2-.1-.5-.2-.8-.2h-.3c-.1 0-.2 0-.2.1-.1 0-.1.1-.2.1 0 .1-.1.1-.1.2s0 .1.1.2c0 .1.1.1.1.2.1 0 .1.1.2.1s.2.1.3.1c.1.1.2.1.4.2.1.1.2.2.3.2s.2.2.2.3c0 .1.1.2.1.4s0 .3-.1.5-.2.2-.3.3-.3.1-.4.2c-.2 0-.3.1-.5.1h-.5c-.1 0-.2 0-.3-.2.1 0 .1 0 0 0zM174.2 1069.4l-1.7 4.2h-.5l1.7-4.2h.5zM176.6 1073h-2v-3.6h.6v3.1h1.4v.5zM177.7 1073h-.6v-3.6h.6v3.6zM178.6 1073v-3.6h1.1c.3 0 .6.1.8.2.2.2.3.4.3.6 0 .2-.1.4-.2.5-.1.2-.3.3-.5.3.2 0 .4.1.6.3.2.2.2.4.2.6 0 .3-.1.6-.4.7-.2.2-.5.3-.9.3l-1 .1zm.6-3.1v1h.4c.2 0 .4 0 .5-.1.1-.1.2-.2.2-.4 0-.3-.2-.5-.6-.5h-.5zm0 1.5v1.1h.5c.2 0 .4-.1.5-.2.1-.1.2-.2.2-.4 0-.4-.3-.6-.8-.6l-.4.1zM181.6 1072.9v-.6c.1.1.1.1.2.1s.2.1.2.1c.1 0 .2 0 .3.1s.2 0 .2 0c.3 0 .4 0 .6-.1.1-.1.2-.2.2-.4 0-.1 0-.2-.1-.2s-.1-.1-.2-.2-.2-.1-.3-.1-.2-.1-.3-.1c-.1-.1-.2-.1-.3-.2-.1-.1-.2-.1-.3-.2s-.1-.2-.2-.3c0-.1-.1-.2-.1-.4s0-.3.1-.4l.3-.3c.1-.1.3-.1.4-.2.2 0 .3-.1.5-.1.4 0 .7 0 .8.1v.6c-.2-.1-.5-.2-.8-.2h-.3c-.1 0-.2 0-.2.1-.1 0-.1.1-.2.1 0 .1-.1.1-.1.2s0 .1.1.2.1.1.1.2c.1 0 .1.1.2.1s.2.1.3.1c.1.1.2.1.4.2.1.1.2.2.3.2.1.1.2.2.2.3 0 .1.1.2.1.4s0 .3-.1.5l-.3.3c-.1.1-.3.1-.4.2-.2 0-.3.1-.5.1h-.5c-.1 0-.2 0-.3-.2.1 0 0 0 0 0z"/></g><g><path d="M209.6 1052.9h-.7l-.3-.9h-1.4l-.3.9h-.7l1.3-3.6h.7l1.4 3.6zm-1.1-1.4l-.5-1.4v-.2c0 .1 0 .2-.1.2l-.5 1.4h1.1zM210.7 1051.6v1.3h-.6v-3.6h1.1c.4 0 .7.1 1 .3.2.2.3.5.3.8 0 .3-.1.6-.4.9-.3.3-.6.3-1 .3h-.4zm0-1.8v1.3h.4c.3 0 .5-.1.6-.2s.2-.3.2-.5c0-.4-.2-.6-.7-.6h-.5zM213.7 1051.6v1.3h-.6v-3.6h1.1c.4 0 .7.1 1 .3.2.2.3.5.3.8 0 .3-.1.6-.4.9-.2.2-.6.3-1 .3h-.4zm0-1.8v1.3h.4c.3 0 .5-.1.6-.2s.2-.3.2-.5c0-.4-.2-.6-.7-.6h-.5z"/></g><g><path d="M222.3 1052.9h-.7l-.3-.9h-1.4l-.3.9h-.6l1.3-3.6h.7l1.3 3.6zm-1.1-1.4l-.5-1.4v-.2c0 .1 0 .2-.1.2l-.5 1.4h1.1zM223.4 1051.6v1.3h-.6v-3.6h1.1c.4 0 .7.1 1 .3.2.2.3.5.3.8 0 .3-.1.6-.4.9-.3.3-.6.3-1 .3h-.4zm0-1.8v1.3h.4c.3 0 .5-.1.6-.2s.2-.3.2-.5c0-.4-.2-.6-.7-.6h-.5zM226.4 1051.6v1.3h-.6v-3.6h1.1c.4 0 .7.1 1 .3.2.2.3.5.3.8 0 .3-.1.6-.4.9-.2.2-.6.3-1 .3h-.4zm0-1.8v1.3h.4c.3 0 .5-.1.6-.2s.2-.3.2-.5c0-.4-.2-.6-.7-.6h-.5z"/></g><g><path d="M205.9 1073v-3.6h1.1c.3 0 .6.1.8.2.2.2.3.4.3.6 0 .2-.1.4-.2.5-.1.2-.3.3-.5.3.2 0 .4.1.6.3.1.2.2.4.2.6 0 .3-.1.6-.4.7s-.5.3-.9.3l-1 .1zm.6-3.1v1h.4c.2 0 .4 0 .5-.1.1-.1.2-.2.2-.4 0-.3-.2-.5-.6-.5h-.5zm0 1.5v1.1h.5c.2 0 .4-.1.5-.2.1-.1.2-.2.2-.4 0-.4-.3-.6-.8-.6l-.4.1zM209.6 1073h-.6v-3.6h.6v3.6zM213.6 1073h-.7l-1.7-2.6c0-.1-.1-.1-.1-.2v2.9h-.6v-3.6h.7l1.7 2.6c.1.1.1.2.1.2v-2.8h.6v3.5zM214.3 1072.9v-.6c.1.1.1.1.2.1s.2.1.2.1c.1 0 .2 0 .3.1h.2c.3 0 .4 0 .6-.1s.2-.2.2-.4c0-.1 0-.2-.1-.2s-.1-.1-.2-.2-.2-.1-.3-.1c-.1 0-.2-.1-.3-.1-.1-.1-.2-.1-.3-.2-.1-.1-.2-.1-.3-.2s-.1-.2-.2-.3c0-.1-.1-.2-.1-.4s0-.3.1-.4l.3-.3c.1-.1.3-.1.4-.2s.3-.1.5-.1c.4 0 .7 0 .8.1v.6c-.2-.1-.5-.2-.8-.2h-.3c-.1 0-.2 0-.2.1-.1 0-.1.1-.2.1 0 .1-.1.1-.1.2s0 .1.1.2.1.1.1.2c.1 0 .1.1.2.1s.2.1.3.1c.1.1.2.1.4.2.1.1.2.2.3.2s.2.2.2.3c0 .1.1.2.1.4s0 .3-.1.5l-.3.3c-.1.1-.3.1-.4.2s-.3.1-.5.1h-.5c-.1 0-.2 0-.3-.2.1 0 0 0 0 0zM219 1069.4l-1.7 4.2h-.5l1.7-4.2h.5zM221.4 1073h-2v-3.6h.6v3.1h1.4v.5zM222.5 1073h-.6v-3.6h.6v3.6zM223.4 1073v-3.6h1.1c.3 0 .6.1.8.2s.3.4.3.6c0 .2-.1.4-.2.5-.1.2-.3.3-.5.3.2 0 .4.1.6.3.1.2.2.4.2.6 0 .3-.1.6-.4.7-.2.2-.5.3-.9.3l-1 .1zm.6-3.1v1h.4c.2 0 .4 0 .5-.1.1-.1.2-.2.2-.4 0-.3-.2-.5-.6-.5h-.5zm0 1.5v1.1h.5c.2 0 .4-.1.5-.2.1-.1.2-.2.2-.4 0-.4-.3-.6-.8-.6l-.4.1zM226.3 1072.9v-.6c.1.1.1.1.2.1s.2.1.2.1c.1 0 .2 0 .3.1h.2c.3 0 .4 0 .6-.1s.2-.2.2-.4c0-.1 0-.2-.1-.2s-.1-.1-.2-.2-.2-.1-.3-.1c-.1 0-.2-.1-.3-.1-.1-.1-.2-.1-.3-.2-.1-.1-.2-.1-.3-.2s-.1-.2-.2-.3c0-.1-.1-.2-.1-.4s0-.3.1-.4l.3-.3c.1-.1.3-.1.4-.2s.3-.1.5-.1c.4 0 .7 0 .8.1v.6c-.2-.1-.5-.2-.8-.2h-.3c-.1 0-.2 0-.2.1-.1 0-.1.1-.2.1 0 .1-.1.1-.1.2s0 .1.1.2.1.1.1.2c.1 0 .1.1.2.1s.2.1.3.1c.1.1.2.1.4.2s.2.2.3.2.2.2.2.3c0 .1.1.2.1.4s0 .3-.1.5l-.3.3c-.1.1-.3.1-.4.2s-.3.1-.5.1h-.5c-.1 0-.2 0-.3-.2.2 0 .1 0 0 0z"/></g><g><path d="M240.8 1052.9h-.7l-.3-.9h-1.4l-.3.9h-.7l1.3-3.6h.7l1.4 3.6zm-1.2-1.4l-.5-1.4v-.2c0 .1 0 .2-.1.2l-.5 1.4h1.1zM241.8 1051.6v1.3h-.6v-3.6h1.1c.4 0 .7.1 1 .3.2.2.3.5.3.8 0 .3-.1.6-.4.9-.2.2-.6.3-1 .3h-.4zm0-1.8v1.3h.4c.3 0 .5-.1.6-.2s.2-.3.2-.5c0-.4-.2-.6-.7-.6h-.5zM244.9 1051.6v1.3h-.6v-3.6h1.1c.4 0 .7.1 1 .3.2.2.3.5.3.8 0 .3-.1.6-.4.9-.3.3-.6.3-1 .3h-.4zm0-1.8v1.3h.4c.3 0 .5-.1.6-.2s.2-.3.2-.5c0-.4-.2-.6-.7-.6h-.5z"/></g><g><path d="M253.5 1052.9h-.7l-.3-.9h-1.4l-.3.9h-.7l1.3-3.6h.7l1.4 3.6zm-1.2-1.4l-.5-1.4v-.2c0 .1 0 .2-.1.2l-.5 1.4h1.1zM254.6 1051.6v1.3h-.6v-3.6h1.1c.4 0 .7.1 1 .3.2.2.3.5.3.8 0 .3-.1.6-.4.9-.2.2-.6.3-1 .3h-.4zm0-1.8v1.3h.4c.3 0 .5-.1.6-.2s.2-.3.2-.5c0-.4-.2-.6-.7-.6h-.5zM257.6 1051.6v1.3h-.6v-3.6h1.1c.4 0 .7.1 1 .3.2.2.3.5.3.8 0 .3-.1.6-.4.9-.3.3-.6.3-1 .3h-.4zm0-1.8v1.3h.4c.3 0 .5-.1.6-.2s.2-.3.2-.5c0-.4-.2-.6-.7-.6h-.5z"/></g><g><path d="M237.1 1073v-3.6h1.1c.3 0 .6.1.8.2.2.2.3.4.3.6 0 .2-.1.4-.2.5-.1.2-.3.3-.5.3.2 0 .4.1.6.3.1.2.2.4.2.6 0 .3-.1.6-.4.7-.2.2-.5.3-.9.3l-1 .1zm.6-3.1v1h.4c.2 0 .4 0 .5-.1.1-.1.2-.2.2-.4 0-.3-.2-.5-.6-.5h-.5zm0 1.5v1.1h.5c.2 0 .4-.1.5-.2.1-.1.2-.2.2-.4 0-.4-.3-.6-.8-.6l-.4.1zM240.8 1073h-.6v-3.6h.6v3.6zM244.8 1073h-.7l-1.7-2.6c0-.1-.1-.1-.1-.2v2.9h-.6v-3.6h.7l1.7 2.6c.1.1.1.2.1.2v-2.8h.6v3.5zM245.5 1072.9v-.6c.1.1.1.1.2.1s.2.1.2.1.2 0 .3.1h.2c.3 0 .4 0 .6-.1.1-.1.2-.2.2-.4 0-.1 0-.2-.1-.2s-.1-.1-.2-.2-.2-.1-.3-.1c-.1 0-.2-.1-.3-.1-.1-.1-.2-.1-.3-.2-.1-.1-.2-.1-.3-.2-.1-.1-.1-.2-.2-.3 0-.1-.1-.2-.1-.4s0-.3.1-.4l.3-.3c.1-.1.3-.1.4-.2.2 0 .3-.1.5-.1.4 0 .7 0 .8.1v.6c-.2-.1-.5-.2-.8-.2h-.3c-.1 0-.2 0-.2.1-.1 0-.1.1-.2.1 0 .1-.1.1-.1.2s0 .1.1.2.1.1.1.2c.1 0 .1.1.2.1s.2.1.3.1c.1.1.2.1.4.2s.2.2.3.2c.1.1.2.2.2.3 0 .1.1.2.1.4s0 .3-.1.5l-.3.3c-.1.1-.3.1-.4.2-.2 0-.3.1-.5.1h-.5c-.1 0-.2 0-.3-.2.1 0 0 0 0 0zM250.2 1069.4l-1.7 4.2h-.5l1.7-4.2h.5zM252.6 1073h-2v-3.6h.6v3.1h1.4v.5zM253.7 1073h-.6v-3.6h.6v3.6zM254.6 1073v-3.6h1.1c.3 0 .6.1.8.2.2.2.3.4.3.6 0 .2-.1.4-.2.5-.1.2-.3.3-.5.3.2 0 .4.1.6.3.1.2.2.4.2.6 0 .3-.1.6-.4.7s-.5.3-.9.3l-1 .1zm.6-3.1v1h.4c.2 0 .4 0 .5-.1.1-.1.2-.2.2-.4 0-.3-.2-.5-.6-.5h-.5zm0 1.5v1.1h.5c.2 0 .4-.1.5-.2.1-.1.2-.2.2-.4 0-.4-.3-.6-.8-.6l-.4.1zM257.5 1072.9v-.6c.1.1.1.1.2.1s.2.1.2.1c.1 0 .2 0 .3.1h.2c.3 0 .4 0 .6-.1.1-.1.2-.2.2-.4 0-.1 0-.2-.1-.2s-.1-.1-.2-.2-.2-.1-.3-.1c-.1 0-.2-.1-.3-.1-.1-.1-.2-.1-.3-.2-.1-.1-.2-.1-.3-.2-.1-.1-.1-.2-.2-.3 0-.1-.1-.2-.1-.4s0-.3.1-.4l.3-.3c.1-.1.3-.1.4-.2s.3-.1.5-.1c.4 0 .7 0 .8.1v.6c-.2-.1-.5-.2-.8-.2h-.3c-.1 0-.2 0-.2.1-.1 0-.1.1-.2.1 0 .1-.1.1-.1.2s0 .1.1.2.1.1.1.2c.1 0 .1.1.2.1s.2.1.3.1c.1.1.2.1.4.2.1.1.2.2.3.2s.2.2.2.3c0 .1.1.2.1.4s0 .3-.1.5l-.3.3c-.1.1-.3.1-.4.2-.2 0-.3.1-.5.1h-.5c-.1 0-.2 0-.3-.2.2 0 .1 0 0 0z"/></g></g><path d="M173 1196.2h-34.4c-.4 0-.8-.4-.8-.8v-9.7c0-.4.4-.8.8-.8H173c.4 0 .8.4.8.8v9.7c-.1.4-.4.8-.8.8zm-33.7-1.6h32.8v-8.2h-32.8v8.2z" fill="#686969"/><path d="M318.3 991.7c-4.3-3.9-10.9-3.5-14.7.8-1.1 1.2-1.9 2.7-2.3 4.1v.1c-.1.4-.2.9-.3 1.3l-3.4 16.7 16.3-5.2c.4-.1.8-.2 1.2-.4h.1c1.4-.6 2.8-1.5 3.9-2.7 3.9-4.3 3.5-10.9-.8-14.7zM334.4 1010.4c-3.6-4.5-10.1-5.3-14.7-1.8-1.3 1.1-2.3 2.4-3 3.8l-.1.1-.3.9-6.3 16.1 16.9-2.3c.5 0 1-.1 1.4-.2h.1c1.5-.3 3-1 4.3-2 4.4-3.5 5.2-10 1.7-14.6zM347 1031.9c-2.4-5.2-8.6-7.5-13.8-5.1-1.7.8-3 1.9-4 3.3l-.1.1c-.1.1-.1.2-.2.2l-10.1 14.4 17.5 1.8h.7c1.6.1 3.3-.2 4.8-.9 5.3-2.4 7.6-8.6 5.2-13.8z" fill="#010101"/><g fill="#010101"><path d="M196.8 968.5c-.3.2-.7.4-1.1.4-.4 0-.7-.1-.9-.2v-.7c.3.2.5.3.8.3s.5-.1.7-.2c.1-.1.2-.3.2-.4h-1.6c-1.4 0-2.8 0-4.1.1.4 2.5 2.6 4.4 5.2 4.4s4.7-1.9 5.2-4.3c-1.3-.1-2.6-.1-3.9-.1-.2.2-.3.5-.5.7zM195 964.6h2v.6h-1.5l-.1.9c1.9 0 3.8.1 5.7.1-.3-2.6-2.5-4.6-5.2-4.6s-4.9 2-5.2 4.5c1.4 0 2.8-.1 4.1-.1l.2-1.4z"/><path d="M190.8 967.7c1.4 0 2.8-.1 4.1-.1h1.6v-.1c0-.2-.1-.4-.3-.5s-.4-.2-.7-.2h-.7l.1-.8c-1.4 0-2.8 0-4.1.1 0 .2-.1.5-.1.7 0 .4 0 .6.1.9zM195.5 966.3h.4c.4 0 .8.1 1 .3.2.2.4.5.4.9v.2c1.3 0 2.6.1 3.9.1.1-.3.1-.6.1-.9v-.7c-1.9-.1-3.8-.1-5.7-.1l-.1.2z"/></g><g fill="#010101"><path d="M158.8 986.3l-.9.3-.9-1.1-1.9.6v1.4l-.9.3.2-5.5.9-.3 3.5 4.3zm-2.2-1.4l-1.3-1.7c0-.1-.1-.2-.2-.3v2.5l1.5-.5zM161.6 980.5l-1.6 4.7 2.7-.8.2.7-3.8 1.1-.1-.4 1.6-4.7-2.5.7-.2-.7 3.7-1.1v.5zM167.1 981.9c.4 1.4-.1 2.3-1.5 2.6-1.3.3-2.1-.2-2.4-1.5l-.8-3.1.8-.2.7 2.9c.3 1 .8 1.4 1.5 1.2s1-.8.7-1.7l-.8-2.9.8-.2 1 2.9zM172.6 982.8l-1 .2-1.1-1.2-.3-.3c-.1-.1-.2-.1-.3-.2-.1 0-.2-.1-.3-.1h-.3l-.3.1.5 2.1-.8.2-1.1-5.1 1.7-.4c.2-.1.5-.1.7-.1s.4.1.6.1c.2.1.3.2.4.4.1.2.2.3.3.6v.5c0 .2-.1.3-.1.4-.1.1-.2.3-.3.4-.1.1-.3.2-.4.3.1 0 .2.1.3.1s.2.1.2.1c.1.1.2.1.2.2.1.1.2.2.3.2l1.1 1.5zm-4-3.7l.4 1.6.7-.2c.1 0 .2-.1.3-.1.1-.1.2-.1.2-.2s.1-.2.1-.3v-.4c-.1-.2-.2-.4-.4-.5s-.4-.1-.7-.1l-.6.2zM176.1 982.1l-2.9.5-.9-5.1 2.7-.5.1.7-1.9.4.3 1.4 1.7-.3.1.7-1.7.3.3 1.5 2-.4.2.8zM182.2 976l-1.2 5.4-1 .1-2.5-4.9.9-.1 1.8 3.7c.1.1.1.3.2.4v-.5l.8-4.1h1zM184.5 981l-.9.1-.5-5.1.9-.1.5 5.1zM189.7 980.6l-1 .1-.9-1.3c-.1-.1-.2-.2-.2-.3 0-.1-.2-.2-.2-.2-.1-.1-.2-.1-.2-.1h-.6l.2 2.1-.9.1-.4-5.2 1.7-.1h.7c.2 0 .4.1.6.2.2.1.3.2.4.4.1.2.2.4.2.6v.5c0 .1-.1.3-.2.4l-.3.3c-.1.1-.3.2-.5.2.1 0 .2.1.3.2l.2.2.2.2c.1.1.1.2.2.3l.7 1.4zm-3.5-4.3l.1 1.7.7-.1c.1 0 .3 0 .4-.1.1 0 .2-.1.3-.2.1-.1.1-.2.2-.3 0-.1.1-.2 0-.4 0-.2-.1-.4-.3-.6-.2-.1-.4-.2-.7-.2l-.7.2zM193.2 976l-1.5.1.2 4.4h-.9l-.2-4.4-1.5.1v-.7l3.8-.1.1.6zM198.1 978.4c0 1.5-.7 2.2-2.1 2.1-1.3 0-2-.7-1.9-2.1v-3.2h.9v3c0 1 .4 1.5 1.2 1.5s1.1-.5 1.2-1.5v-3h.9l-.2 3.2zM203.3 980.7l-.9-.1-.4-1.3-2-.1-.5 1.3-.9-.1 2.2-5.1 1 .1 1.5 5.3zm-1.5-2.1l-.6-2.1c0-.1 0-.2-.1-.3 0 .1-.1.2-.1.3l-.8 2 1.6.1zM206.8 981.1l-2.9-.3.5-5.2.9.1-.4 4.4 2 .2-.1.8zM213.9 982l-.9-.1-1.9-4.1c0-.1-.1-.2-.1-.3 0 .1 0 .3-.1.7l-.5 3.4-.8-.1.8-5.1 1 .1 1.8 4c.1.2.1.3.1.3 0-.1 0-.4.1-.7l.5-3.3.8.1-.8 5.1zM217.9 982.8l-2.9-.5 1-5.1 2.7.5-.1.7-1.9-.4-.3 1.4 1.7.3-.1.7-1.7-.3-.3 1.5 2 .4-.1.8zM223 979.4l-1.5-.3-1 4.3-.8-.2 1-4.3-1.4-.3.2-.7 3.7.8-.2.7zM230.4 980.5l-2.7 4.6-.9-.3V981c0-.2 0-.3.1-.5-.1.2-.1.3-.2.5l-1.9 3.3-1-.3-.1-5.4.9.2-.1 3.9c0 .2 0 .3-.1.5 0-.1.1-.3.2-.5l2-3.4.9.2v4.4c0-.1.1-.3.2-.4l1.9-3.4.8.4zM231.7 986.5c-.7-.2-1.2-.6-1.5-1.2-.3-.6-.3-1.3-.1-2 .3-.8.7-1.4 1.3-1.7.6-.3 1.3-.4 2-.2s1.2.6 1.5 1.2c.3.6.3 1.3.1 2-.3.8-.7 1.4-1.3 1.7-.6.3-1.2.4-2 .2zm1.5-4.4c-.5-.1-.9-.1-1.3.2s-.7.6-.8 1.2c-.2.5-.2 1 0 1.5s.5.7.9.8c.5.1.9.1 1.3-.1s.7-.6.8-1.2c.2-.6.2-1.1 0-1.5-.2-.5-.5-.8-.9-.9zM238.8 988.8l-.9-.3-.3-1.6c0-.1-.1-.3-.1-.4s-.1-.2-.1-.3l-.2-.2c-.1-.1-.2-.1-.3-.1l-.3-.1-.7 2-.8-.3 1.7-4.9 1.6.6.6.3c.2.1.3.3.4.4.1.2.2.3.2.5s0 .4-.1.6-.1.3-.2.4c-.1.1-.2.2-.4.3-.1.1-.3.1-.4.2-.1.1-.3 0-.5 0 .1.1.1.2.2.2 0 .1.1.2.1.3 0 .1.1.2.1.3 0 .1.1.2.1.3l.3 1.8zm-1.5-5.3l-.6 1.6.7.2c.1 0 .2.1.4.1.1 0 .2 0 .3-.1.1-.1.2-.1.3-.2.1-.1.1-.2.2-.3.1-.2.1-.4 0-.6s-.3-.3-.6-.4l-.7-.3zM243 990.4l-1-.4-.8-2.9v-.2l-.9 2.4-.8-.3 1.9-4.8.8.3-.9 2.3s.1-.1.2-.1l2.4-1.5 1 .4-2.8 1.6.9 3.2z"/></g><path d="M251 1196.2h-34.4c-.4 0-.8-.4-.8-.8v-9.7c0-.4.4-.8.8-.8H251c.4 0 .8.4.8.8v9.7c0 .4-.3.8-.8.8zm-33.6-1.6h32.8v-8.2h-32.8v8.2z" fill="#686969"/><g fill="#686969"><path d="M181.4 1102.3h8.7v-1.5h-9.4c-.4 0-.7.3-.7.7v11.6c0 .4.3.7.7.7h9.4v-1.5h-8.7v-10zM208.2 1102.3v10.2h-8.5v1.5h9.3c.4 0 .7-.3.7-.7v-11.6c0-.4-.3-.7-.7-.7h-9.3v1.5h8.5v-.2zM198.2 1092.7h1.5v8.1h-1.5z"/><path d="M266.8 1028.6H199c-.4 0-.7.3-.7.7v50.3h1.5v-49.5h66.4v92.1h-66.4v-8.3h-1.5v9c0 .4.3.7.7.7h67.8c.4 0 .7-.3.7-.7v-93.6c0-.4-.3-.7-.7-.7zM190.1 1092.7h1.5v8.1h-1.5z"/><path d="M190.8 1028.6H123c-.4 0-.7.3-.7.7v93.6c0 .4.3.7.7.7h67.8c.4 0 .7-.3.7-.7v-9H190v8.3h-66.4v-92.1H190v49.5h1.5v-50.3c.1-.4-.2-.7-.7-.7z"/><path d="M182.9 1091.2V1081h7.2v-1.5h-7.9c-.4 0-.7.3-.7.7v11.8c0 .4.3.7.7.7h7.9v-1.5h-7.2zM190.1 1091.2h1.5v1.5h-1.5zM190.1 1079.6h1.5v1.5h-1.5zM206.8 1081.1v10.2h-7.1v1.5h7.8c.4 0 .7-.3.7-.7v-11.6c0-.4-.3-.7-.7-.7h-7.8v1.5h7.1v-.2zM198.2 1079.6h1.5v1.5h-1.5zM198.2 1091.2h1.5v1.5h-1.5zM198.2 1100.8h1.5v1.5h-1.5zM198.2 1112.4h1.5v1.5h-1.5zM190.1 1112.4h1.5v1.5h-1.5zM190.1 1100.8h1.5v1.5h-1.5z"/></g><path d="M188.9 1225.1s-.1 0 0 0c-17-.3-38.6-8.8-57.9-22.8s-31.7-30.2-33.3-43.4c-.1-1 .2-1.9.9-2.7.9-1 2.4-1.6 3.9-1.6h86.3c1.4 0 2.5.9 2.5 2.1v66.3c0 .5-.2 1-.6 1.4-.4.5-1.1.7-1.8.7zm-86.3-68.9c-1.1 0-2.1.4-2.7 1.1-.3.3-.6.8-.5 1.5 3.2 27.2 54.2 64.1 89.5 64.8.3 0 .6-.1.8-.3.1-.1.1-.2.1-.2v-66.3c0-.2-.4-.5-.9-.5h-86.3v-.1zM201.4 1225.1c-.7 0-1.4-.3-1.9-.7-.4-.4-.6-.9-.6-1.4v-66.3c0-1.2 1.1-2.1 2.5-2.1h86.3c1.5 0 3 .6 3.9 1.6.7.8 1 1.7.9 2.7-1.5 13.2-14 29.5-33.3 43.4-19.1 14-40.7 22.5-57.8 22.8.1 0 .1 0 0 0zm0-68.9c-.5 0-.9.3-.9.5v66.3c0 .1 0 .2.1.2.2.2.5.3.8.3 35.3-.7 86.4-37.6 89.5-64.8.1-.7-.2-1.2-.5-1.5-.6-.7-1.6-1.1-2.7-1.1l-86.3.1z" fill="#686969"/><path d="M125.8 1163.2c-1.8 0-3.3-.4-3.3-1 0-.5 1.5-1 3.3-1s3.3.4 3.3 1c-.1.5-1.5 1-3.3 1zm-4.6 5.7v1.8c0 .8 1.7 1.8 3.9 1.9h1.5c2.2-.1 3.9-.9 3.9-1.7v-8.4c0-.9-2.1-1.8-4.6-1.8s-4.6.8-4.6 1.8l-.1 6.4zM149.7 1163.2c-1.8 0-3.3-.4-3.3-1 0-.5 1.5-1 3.3-1s3.3.4 3.3 1c-.1.5-1.5 1-3.3 1zm-4.6 5.7v1.8c0 .8 1.7 1.8 3.9 1.9h1.5c2.2-.1 3.9-.9 3.9-1.7v-8.4c0-.9-2.1-1.8-4.6-1.8s-4.6.8-4.6 1.8l-.1 6.4zM172.7 1163.2c-1.8 0-3.3-.4-3.3-1 0-.5 1.5-1 3.3-1s3.3.4 3.3 1c0 .5-1.5 1-3.3 1zm-4.6 5.7v1.8c0 .8 1.7 1.8 3.9 1.9h1.5c2.2-.1 3.9-.9 3.9-1.7v-8.4c0-.9-2.1-1.8-4.6-1.8s-4.6.8-4.6 1.8l-.1 6.4zM262.4 1163.2c-1.8 0-3.3-.4-3.3-1 0-.5 1.5-1 3.3-1s3.3.4 3.3 1c0 .5-1.5 1-3.3 1zm-4.6 5.7v1.8c0 .8 1.7 1.8 3.9 1.9h1.5c2.2-.1 3.9-.9 3.9-1.7v-8.4c0-.9-2.1-1.8-4.6-1.8s-4.6.8-4.6 1.8l-.1 6.4zM216.3 1163.2c-1.8 0-3.3-.4-3.3-1 0-.5 1.5-1 3.3-1s3.3.4 3.3 1c0 .5-1.5 1-3.3 1zm-4.6 5.7v1.8c0 .8 1.7 1.8 3.9 1.9h1.5c2.2-.1 3.9-.9 3.9-1.7v-8.4c0-.9-2.1-1.8-4.6-1.8s-4.6.8-4.6 1.8l-.1 6.4zM239.4 1163.2c-1.8 0-3.3-.4-3.3-1 0-.5 1.5-1 3.3-1s3.3.4 3.3 1c-.1.5-1.5 1-3.3 1zm-4.6 5.7v1.8c0 .8 1.7 1.8 3.9 1.9h1.5c2.2-.1 3.9-.9 3.9-1.7v-8.4c0-.9-2.1-1.8-4.6-1.8s-4.6.8-4.6 1.8l-.1 6.4zM260.8 1117.7h-41.4c-.4 0-.8-.4-.8-.8v-19.2c0-.4.4-.8.8-.8h41.4c.4 0 .8.4.8.8v19.2c0 .5-.4.8-.8.8zm-40.6-1.6H260v-17.6h-39.8v17.6zM171 1117.7h-42.1c-.4 0-.8-.4-.8-.8v-19.2c0-.4.4-.8.8-.8H171c.4 0 .8.4.8.8v19.2c0 .5-.4.8-.8.8zm-41.3-1.6h40.5v-17.6h-40.5v17.6z" fill="#686969"/><path d="M181.1 1087.1h-3.5c-.6 0-1.1-.5-1.1-1.1s.5-1.1 1.1-1.1h3.5c.6 0 1.1.5 1.1 1.1s-.5 1.1-1.1 1.1zM171 1087.1h-6.7c-.6 0-1.1-.5-1.1-1.1s.5-1.1 1.1-1.1h6.7c.6 0 1.1.5 1.1 1.1s-.5 1.1-1.1 1.1zm-13.3 0H151c-.6 0-1.1-.5-1.1-1.1s.5-1.1 1.1-1.1h6.7c.6 0 1.1.5 1.1 1.1s-.5 1.1-1.1 1.1zm-13.4 0h-6.7c-.6 0-1.1-.5-1.1-1.1s.5-1.1 1.1-1.1h6.7c.6 0 1.1.5 1.1 1.1s-.5 1.1-1.1 1.1zm-13.3 0h-6.7c-.6 0-1.1-.5-1.1-1.1s.5-1.1 1.1-1.1h6.7c.6 0 1.1.5 1.1 1.1s-.5 1.1-1.1 1.1zm-13.3 0H111c-.6 0-1.1-.5-1.1-1.1s.5-1.1 1.1-1.1h6.7c.6 0 1.1.5 1.1 1.1s-.5 1.1-1.1 1.1zm-13.3 0h-6.7c-.6 0-1.1-.5-1.1-1.1s.5-1.1 1.1-1.1h6.7c.6 0 1.1.5 1.1 1.1s-.5 1.1-1.1 1.1zm-13.4 0h-6.7c-.6 0-1.1-.5-1.1-1.1s.5-1.1 1.1-1.1H91c.6 0 1.1.5 1.1 1.1s-.5 1.1-1.1 1.1zM77.7 1087.1h-3.5c-.6 0-1.1-.5-1.1-1.1s.5-1.1 1.1-1.1h3.5c.6 0 1.1.5 1.1 1.1s-.5 1.1-1.1 1.1zM315.4 1087.1H312c-.6 0-1.1-.5-1.1-1.1s.5-1.1 1.1-1.1h3.5c.6 0 1.1.5 1.1 1.1s-.6 1.1-1.2 1.1zM305.3 1087.1h-6.7c-.6 0-1.1-.5-1.1-1.1s.5-1.1 1.1-1.1h6.7c.6 0 1.1.5 1.1 1.1s-.5 1.1-1.1 1.1zm-13.3 0h-6.7c-.6 0-1.1-.5-1.1-1.1s.5-1.1 1.1-1.1h6.7c.6 0 1.1.5 1.1 1.1s-.5 1.1-1.1 1.1zm-13.3 0H272c-.6 0-1.1-.5-1.1-1.1s.5-1.1 1.1-1.1h6.7c.6 0 1.1.5 1.1 1.1s-.5 1.1-1.1 1.1zm-13.4 0h-6.7c-.6 0-1.1-.5-1.1-1.1s.5-1.1 1.1-1.1h6.7c.6 0 1.1.5 1.1 1.1s-.5 1.1-1.1 1.1zm-13.3 0h-6.7c-.6 0-1.1-.5-1.1-1.1s.5-1.1 1.1-1.1h6.7c.6 0 1.1.5 1.1 1.1s-.5 1.1-1.1 1.1zm-13.3 0H232c-.6 0-1.1-.5-1.1-1.1s.5-1.1 1.1-1.1h6.7c.6 0 1.1.5 1.1 1.1s-.5 1.1-1.1 1.1zm-13.3 0h-6.7c-.6 0-1.1-.5-1.1-1.1s.5-1.1 1.1-1.1h6.7c.6 0 1.1.5 1.1 1.1s-.5 1.1-1.1 1.1zM212.1 1087.1h-3.5c-.6 0-1.1-.5-1.1-1.1s.5-1.1 1.1-1.1h3.5c.6 0 1.1.5 1.1 1.1s-.5 1.1-1.1 1.1z" fill="#010101"/><path d="M154.2 1035.6v39.7h-25.7v-39.7h25.7m0-2h-25.7c-1.1 0-2 .9-2 2v39.7c0 1.1.9 2 2 2h25.7c1.1 0 2-.9 2-2v-39.7c0-1.1-.9-2-2-2zM185.4 1035.6v39.7h-25.7v-39.7h25.7m0-2h-25.7c-1.1 0-2 .9-2 2v39.7c0 1.1.9 2 2 2h25.7c1.1 0 2-.9 2-2v-39.7c0-1.1-.9-2-2-2zM230.1 1035.6v39.7h-25.7v-39.7h25.7m0-2h-25.7c-1.1 0-2 .9-2 2v39.7c0 1.1.9 2 2 2h25.7c1.1 0 2-.9 2-2v-39.7c0-1.1-.9-2-2-2zM261.3 1035.6v39.7h-25.7v-39.7h25.7m0-2h-25.7c-1.1 0-2 .9-2 2v39.7c0 1.1.9 2 2 2h25.7c1.1 0 2-.9 2-2v-39.7c0-1.1-.9-2-2-2z" fill="#686969"/><path d="M139.4 1046.9h-8.9c-.2 0-.4-.1-.5-.3-.1-.2-.1-.4 0-.5l4.5-7.7c.2-.3.7-.3.9 0l4.5 7.7c.1.2.1.4 0 .5-.1.2-.3.3-.5.3zm-7.9-1.1h7.1l-3.5-6.1-3.6 6.1zM152.2 1046.9h-8.9c-.2 0-.4-.1-.5-.3-.1-.2-.1-.4 0-.5l4.5-7.7c.2-.3.7-.3.9 0l4.5 7.7c.1.2.1.4 0 .5-.2.2-.3.3-.5.3zm-8-1.1h7.1l-3.5-6.1-3.6 6.1zM152.2 1066.8h-21.6c-.3 0-.5-.2-.5-.5v-8.6c0-.3.2-.5.5-.5h21.6c.3 0 .5.2.5.5v8.6c0 .3-.2.5-.5.5zm-21.1-1.1h20.6v-7.5h-20.6v7.5zM170.6 1046.9h-8.9c-.2 0-.4-.1-.5-.3-.1-.2-.1-.4 0-.5l4.5-7.7c.2-.3.7-.3.9 0l4.5 7.7c.1.2.1.4 0 .5-.1.2-.3.3-.5.3zm-8-1.1h7.1l-3.5-6.1-3.6 6.1zM183.3 1046.9h-8.9c-.2 0-.4-.1-.5-.3-.1-.2-.1-.4 0-.5l4.5-7.7c.2-.3.7-.3.9 0l4.5 7.7c.1.2.1.4 0 .5-.1.2-.3.3-.5.3zm-8-1.1h7.1l-3.5-6.1-3.6 6.1z" fill="#686969"/><g><path d="M183.3 1066.8h-21.6c-.3 0-.5-.2-.5-.5v-8.6c0-.3.2-.5.5-.5h21.6c.3 0 .5.2.5.5v8.6c.1.3-.2.5-.5.5zm-21.1-1.1h20.6v-7.5h-20.6v7.5z" fill="#686969"/></g><g><path d="M215.3 1046.9h-8.9c-.2 0-.4-.1-.5-.3-.1-.2-.1-.4 0-.5l4.5-7.7c.2-.3.7-.3.9 0l4.5 7.7c.1.2.1.4 0 .5-.1.2-.3.3-.5.3zm-8-1.1h7.1l-3.5-6.1-3.6 6.1z" fill="#686969"/></g><g><path d="M228 1046.9h-8.9c-.2 0-.4-.1-.5-.3-.1-.2-.1-.4 0-.5l4.5-7.7c.2-.3.7-.3.9 0l4.5 7.7c.1.2.1.4 0 .5-.1.2-.3.3-.5.3zm-8-1.1h7.1l-3.5-6.1-3.6 6.1z" fill="#686969"/></g><g><path d="M228 1066.8h-21.6c-.3 0-.5-.2-.5-.5v-8.6c0-.3.2-.5.5-.5H228c.3 0 .5.2.5.5v8.6c.1.3-.2.5-.5.5zm-21.1-1.1h20.6v-7.5h-20.6v7.5z" fill="#686969"/></g><g><path d="M246.5 1046.9h-8.9c-.2 0-.4-.1-.5-.3-.1-.2-.1-.4 0-.5l4.5-7.7c.2-.3.7-.3.9 0l4.5 7.7c.1.2.1.4 0 .5-.2.2-.3.3-.5.3zm-8-1.1h7.1l-3.5-6.1-3.6 6.1z" fill="#686969"/></g><g><path d="M259.2 1046.9h-8.9c-.2 0-.4-.1-.5-.3-.1-.2-.1-.4 0-.5l4.5-7.7c.2-.3.7-.3.9 0l4.5 7.7c.1.2.1.4 0 .5-.1.2-.3.3-.5.3zm-8-1.1h7.1l-3.5-6.1-3.6 6.1z" fill="#686969"/></g><g><path d="M259.2 1066.8h-21.6c-.3 0-.5-.2-.5-.5v-8.6c0-.3.2-.5.5-.5h21.6c.3 0 .5.2.5.5v8.6c0 .3-.2.5-.5.5zm-21.1-1.1h20.6v-7.5h-20.6v7.5z" fill="#686969"/></g><g fill="#010101"><path d="M187.7 938.8l-3.2.2.6 9.6-1.9.1-.6-9.6-3.2.2-.1-1.6 8.3-.5.1 1.6zM196 948.3l-6.3.1-.2-11.2 6-.1v1.6l-4.2.1v3.2l3.9-.1v1.6l-3.9.1.1 3.3 4.4-.1.2 1.5zM197.4 947.9l.1-1.9c.2.2.4.3.6.4.2.1.5.2.7.3.3.1.5.2.8.2.3.1.5.1.7.1.8 0 1.4-.1 1.8-.3.4-.3.6-.6.6-1.1 0-.3 0-.5-.2-.7-.1-.2-.3-.4-.5-.6s-.5-.3-.8-.5-.6-.3-1-.5-.7-.4-1-.6-.6-.5-.8-.7c-.2-.3-.4-.5-.5-.9-.1-.3-.2-.7-.2-1.1 0-.5.1-1 .4-1.4.3-.4.6-.7 1-.9s.8-.4 1.3-.5c.5-.1 1-.2 1.5-.1 1.2 0 2 .2 2.5.5l-.1 1.8c-.6-.5-1.4-.7-2.4-.8-.3 0-.6 0-.8.1-.3 0-.5.1-.7.2-.2.1-.4.3-.5.4-.1.2-.2.4-.2.7s0 .5.1.7.2.4.4.5c.2.2.4.3.7.5s.6.3 1 .5.7.4 1.1.7c.3.2.6.5.9.8s.5.6.6.9c.1.3.2.7.2 1.1 0 .6-.1 1-.4 1.4-.3.4-.6.7-1 .9s-.8.4-1.4.5c-.5.1-1 .1-1.6.1-.2 0-.4 0-.7-.1s-.6-.1-.8-.1c-.3-.1-.6-.1-.8-.2l-.6-.3zM214.4 939.5l-3.2-.2-.7 9.6-1.9-.1.7-9.6-3.2-.2.1-1.6 8.3.6-.1 1.5z"/></g><g fill="#FFF"><path d="M310.6 993.9c-2.4 0-4.4.8-4.4 1.7v8c0 .9 2 1.7 4.4 1.7s4.4-.8 4.4-1.7v-8c0-.9-2-1.7-4.4-1.7zm-4.3 10zm3.1-4.9c-.3 0-.4-.1-.4.2v.6c0 .5-.1.8-.4.8.3.1.4.5.4 1v.7c0 .2 0 .2.1.3.1.1.2.1.3.1v.6c-.5 0-.8-.1-1-.3s-.3-.5-.3-.9v-.8c0-.4-.2-.4-.4-.4v-.8c.3 0 .4 0 .4-.4v-.6c0-.4.1-.7.3-.8.2-.2.5-.2 1-.2v.9zm4.3 1.5v.7c-.3 0-.4 0-.4.4v.8c0 .5-.1.8-.3 1-.2.2-.5.3-1 .3v-.6c.1 0 .3 0 .3-.1.1-.1.1-.1.1-.3v-.7c0-.6.1-.9.4-1-.3-.1-.4-.4-.4-.9v-.6c0-.3-.2-.2-.4-.2v-.7c.5 0 .8.1 1 .2.2.2.3.4.3.8v.6c0 .4.1.3.4.3zm-3.1-4.2c-1.7 0-3.1-.4-3.1-.9s1.4-.9 3.1-.9 3.1.4 3.1.9c.1.6-1.3.9-3.1.9zM321.7 1012.4c0-.4 1.2-.7 2.7-.7s2.7.3 2.7.7c0 .4-1.2.7-2.7.7-1.5 0-2.7-.3-2.7-.7zm2.4 8.9v-6.4c0-.8 1.2-1.2 3.1-1.2.4 0 .8 0 1.2.1v-1.4c0-.7-1.8-1.2-3.9-1.2-2.2 0-3.9.6-3.9 1.2v8.2c0 .7 1.8 1.2 3.9 1.2h.3c-.5-.1-.7-.3-.7-.5z"/><path d="M327.3 1015.8c-1.1 0-1.9-.2-1.9-.5s.9-.5 1.9-.5c1.1 0 1.9.2 1.9.5s-.9.5-1.9.5zm1.6 2.6l-3.5 2.9 1.3-2.2h-1.2l3.5-2.9-1.3 2.2h1.2zm-1.6-4.2c-1.6 0-2.7.4-2.7.9v5.9c0 .5 1.2.9 2.7.9 1.6 0 2.8-.4 2.8-.9v-5.9c0-.5-1.3-.9-2.8-.9z"/><g><path d="M332.2 1035.2h10.1l-2.6-2.4v1.2h-7.3v-1c0-.5.2-.9.7-.9h7.5c.5 0 .9.4.9.9v.4l.9.8v-1.2c0-1-.9-1.8-1.8-1.8h-7.5c-1 0-1.6.8-1.6 1.8v2.2h.7zM341.4 1035.8h-10.1l2.6 2.4v-1.4h7.6v1.2c0 .5-.5.9-.9.9h-7.5c-.5 0-.7-.5-.7-.9v-.4l-.9-.8v1.2c0 1 .6 1.5 1.6 1.5h1.7l3.7 2.6-.3-2.6h2.4c1 0 1.8-.6 1.8-1.5v-2.1l-1-.1z"/></g></g><path fill="none" stroke="#dfdfde" stroke-width="4" stroke-linecap="round" stroke-linejoin="round" stroke-miterlimit="10" d="M389.2 1114V-12.9"/><g fill="none" stroke="#dfdfde" stroke-width="4" stroke-linecap="round" stroke-linejoin="round" stroke-miterlimit="10"><path d="M374 1114h15.2"/><circle cx="369" cy="1114" r="5"/></g></svg>