<?xml version="1.0" encoding="utf-8"?>
<!-- Generator: Adobe Illustrator 19.2.0, SVG Export Plug-In . SVG Version: 6.00 Build 0)  -->
<svg version="1.1" id="Layer_1" xmlns="http://www.w3.org/2000/svg" xmlns:xlink="http://www.w3.org/1999/xlink" x="0px" y="0px"
	 width="127px" height="250px" viewBox="0 0 127 250" style="enable-background:new 0 0 127 250;" xml:space="preserve">
<g>
	
		<line style="fill:none;stroke:#DFDFDE;stroke-width:4;stroke-linecap:round;stroke-linejoin:round;stroke-miterlimit:10;" x1="62.5" y1="-86.7" x2="63.5" y2="172.2"/>
	
		<circle style="fill:none;stroke:#DFDFDE;stroke-width:4;stroke-linecap:round;stroke-linejoin:round;stroke-miterlimit:10;" cx="63.5" cy="177.7" r="5"/>
</g>
<g>
	<path d="M12.3,242.5h-1.6v-6.1c0-0.5,0-1.1,0.1-1.8l0,0c-0.1,0.4-0.2,0.7-0.3,0.9l-2.8,7.1h-1l-2.8-7c-0.1-0.2-0.2-0.5-0.3-0.9l0,0
		c0,0.4,0.1,1,0.1,1.9v6.1H2.2v-9.5h2.2l2.5,6.3c0.2,0.5,0.3,0.8,0.4,1.1l0,0c0.2-0.5,0.3-0.9,0.4-1.1l2.5-6.3h2.1
		C12.3,233.2,12.3,242.5,12.3,242.5z"/>
	<path d="M22.4,242.5h-1.7l-0.9-2.4h-3.7l-0.8,2.4h-1.7l3.5-9.5h1.8L22.4,242.5z M19.4,238.8l-1.3-3.8c0-0.1-0.1-0.3-0.1-0.6l0,0
		c0,0.3-0.1,0.4-0.1,0.6l-1.3,3.8H19.4z"/>
	<path d="M31.7,242.5H30l-4.5-6.9c-0.1-0.2-0.2-0.4-0.3-0.5l0,0c0,0.2,0.1,0.6,0.1,1.3v6.2h-1.5v-9.5h1.8l4.4,6.8
		c0.2,0.3,0.3,0.5,0.4,0.6l0,0c0-0.3-0.1-0.7-0.1-1.3v-6.1h1.5L31.7,242.5L31.7,242.5z"/>
	<path d="M41.8,242.5h-1.7l-0.9-2.4h-3.7l-0.8,2.4H33l3.5-9.5h1.8L41.8,242.5z M38.8,238.8l-1.3-3.8c0-0.1-0.1-0.3-0.1-0.6l0,0
		c0,0.3-0.1,0.4-0.1,0.6l-1.3,3.8H38.8z"/>
	<path d="M50.3,241.9c-1,0.5-2.1,0.8-3.3,0.8c-1.4,0-2.5-0.4-3.4-1.3c-0.9-0.9-1.3-2-1.3-3.5s0.5-2.7,1.4-3.6
		c0.9-0.9,2.1-1.4,3.6-1.4c1.1,0,1.9,0.2,2.6,0.5v1.6c-0.7-0.5-1.6-0.7-2.6-0.7s-1.8,0.3-2.5,1c-0.6,0.7-1,1.5-1,2.6
		s0.3,1.9,0.8,2.6s1.3,0.9,2.3,0.9c0.7,0,1.2-0.1,1.7-0.4v-2.2h-2v-1.3h3.6v4.4H50.3z"/>
	<path d="M57.7,242.5h-5.3V233h5.1v1.3H54v2.7h3.3v1.3H54v2.8h3.7V242.5z"/>
	<path d="M69.5,242.5H68v-6.1c0-0.5,0-1.1,0.1-1.8l0,0c-0.1,0.4-0.2,0.7-0.3,0.9l-2.8,7.1h-1.1l-2.8-7c-0.1-0.2-0.2-0.5-0.3-0.9l0,0
		c0,0.4,0.1,1,0.1,1.9v6.1h-1.5v-9.5h2.2l2.5,6.3c0.2,0.5,0.3,0.8,0.4,1.1l0,0c0.2-0.5,0.3-0.9,0.4-1.1l2.5-6.3h2.1
		C69.5,233.2,69.5,242.5,69.5,242.5z"/>
	<path d="M77.2,242.5h-5.3V233H77v1.3h-3.5v2.7h3.3v1.3h-3.3v2.8h3.7C77.2,241.1,77.2,242.5,77.2,242.5z"/>
	<path d="M86.9,242.5h-1.7l-4.5-6.9c-0.1-0.2-0.2-0.4-0.3-0.5l0,0c0,0.2,0.1,0.6,0.1,1.3v6.2H79v-9.5h1.8l4.4,6.8
		c0.2,0.3,0.3,0.5,0.4,0.6l0,0c0-0.3-0.1-0.7-0.1-1.3v-6.1H87v9.4H86.9z"/>
	<path d="M95.3,234.4h-2.7v8.1H91v-8.1h-2.7v-1.3h7V234.4z"/>
	<path d="M106.4,234.4h-2.7v8.1h-1.6v-8.1h-2.7v-1.3h7C106.4,233.1,106.4,234.4,106.4,234.4z"/>
	<path d="M109.4,242.5h-1.6V233h1.6V242.5z"/>
	<path d="M117,242.5h-5.3V233h5.1v1.3h-3.5v2.7h3.3v1.3h-3.3v2.8h3.7C117,241.1,117,242.5,117,242.5z"/>
	<path d="M126,242.5h-1.8l-1.5-2.5c-0.1-0.2-0.3-0.4-0.4-0.6s-0.3-0.3-0.4-0.4s-0.3-0.2-0.4-0.2c-0.2,0-0.3-0.1-0.5-0.1h-0.6v3.8
		h-1.6V233h3.1c0.4,0,0.9,0.1,1.2,0.2c0.4,0.1,0.7,0.3,1,0.5s0.5,0.5,0.6,0.8c0.2,0.3,0.2,0.7,0.2,1.1c0,0.3,0,0.6-0.1,0.9
		c-0.1,0.3-0.2,0.5-0.4,0.7s-0.4,0.4-0.7,0.6c-0.3,0.2-0.5,0.3-0.9,0.4l0,0c0.2,0.1,0.3,0.2,0.4,0.3s0.2,0.2,0.4,0.4
		c0.1,0.1,0.2,0.3,0.3,0.4s0.2,0.3,0.4,0.5L126,242.5z M120.3,234.4v3.1h1.3c0.2,0,0.5,0,0.7-0.1s0.4-0.2,0.5-0.3s0.3-0.3,0.3-0.5
		c0.1-0.2,0.1-0.4,0.1-0.7c0-0.5-0.1-0.8-0.4-1.1s-0.7-0.4-1.2-0.4H120.3z"/>
</g>
<g>
	<path d="M65.4,210.7c-1,0-1.5,1.1-1.5,3.4c0,2.1,0.5,3.2,1.5,3.2c1,0,1.5-1.1,1.5-3.2C66.9,211.8,66.4,210.7,65.4,210.7z"/>
	<path d="M63.4,203c-6.1,0-11,4.9-11,11s4.9,11,11,11s11-4.9,11-11S69.5,203,63.4,203z M60.8,218.2h-1.4v-6.9
		c-0.2,0.2-0.5,0.3-0.8,0.4s-0.6,0.2-1,0.3v-1.2c0.2-0.1,0.4-0.2,0.7-0.2s0.4-0.2,0.6-0.3s0.4-0.2,0.6-0.3s0.4-0.3,0.6-0.4h0.6
		V218.2z M67.5,217.2c-0.5,0.7-1.3,1.1-2.2,1.1c-0.9,0-1.6-0.4-2-1.1s-0.7-1.7-0.7-3.1c0-1.5,0.3-2.6,0.8-3.4s1.3-1.1,2.2-1.1
		c1.8,0,2.8,1.4,2.8,4.3C68.2,215.4,68,216.4,67.5,217.2z"/>
	<path style="fill:#FFFFFF;" d="M59.6,210c-0.2,0.1-0.4,0.2-0.6,0.3s-0.4,0.2-0.6,0.3s-0.4,0.2-0.7,0.2v1.2c0.4-0.1,0.7-0.2,1-0.3
		s0.5-0.3,0.8-0.4v6.9h1.4v-8.6h-0.6C60,209.7,59.8,209.9,59.6,210z"/>
	<path style="fill:#FFFFFF;" d="M65.5,209.6c-1,0-1.7,0.4-2.2,1.1s-0.8,1.9-0.8,3.4c0,1.4,0.2,2.4,0.7,3.1s1.2,1.1,2,1.1
		c0.9,0,1.7-0.4,2.2-1.1s0.8-1.8,0.8-3.3C68.2,211.1,67.3,209.6,65.5,209.6z M65.4,217.2c-1,0-1.5-1.1-1.5-3.2
		c0-2.2,0.5-3.4,1.5-3.4c1,0,1.4,1.1,1.4,3.3C66.9,216.2,66.4,217.2,65.4,217.2z"/>
</g>
</svg>
