<?xml version="1.0" encoding="utf-8"?>
<!-- Generator: Adobe Illustrator 19.2.0, SVG Export Plug-In . SVG Version: 6.00 Build 0)  -->
<svg version="1.1" id="Layer_1" xmlns="http://www.w3.org/2000/svg" xmlns:xlink="http://www.w3.org/1999/xlink" x="0px" y="0px"
	 width="55px" height="325px" viewBox="0 0 55 325" style="enable-background:new 0 0 55 325;" xml:space="preserve">
<path d="M40.1,281.5c-8.1-7.3-20.5-6.6-27.8,1.5c-2.1,2.3-3.5,5-4.3,7.8l0,0v0.1c-0.2,0.8-0.4,1.7-0.5,2.5l-6.4,31.5l30.7-9.8
	c0.8-0.2,1.6-0.4,2.4-0.7l0.2-0.1l0,0c2.7-1.1,5.2-2.8,7.3-5.1C48.9,301.2,48.2,288.7,40.1,281.5z"/>
<path style="fill:#FFFFFF;" d="M27.1,285.4c-4.8,0-8.7,1.6-8.7,3.3v15.8c0,1.7,3.9,3.4,8.7,3.4s8.7-1.5,8.7-3.3v-15.8
	C35.8,287.1,31.8,285.4,27.1,285.4L27.1,285.4z M18.6,305.3v-0.2C18.6,305.2,18.6,305.2,18.6,305.3L18.6,305.3z M24.6,295.4
	c-0.6,0-0.8-0.2-0.8,0.5v1.2c0,0.9-0.1,1.5-0.8,1.7v0.1c0.6,0.3,0.8,1,0.8,2.1v1.4c0,0.5,0.1,0.5,0.2,0.6c0.1,0.2,0.3,0.2,0.6,0.2
	v1.2c-0.9,0-1.5-0.2-1.9-0.5s-0.6-1-0.6-1.9v-1.5c0-0.8-0.3-0.8-0.8-0.8V298c0.6,0,0.8,0,0.8-0.7v-1.2c0-0.8,0.2-1.3,0.6-1.5
	c0.4-0.3,1-0.5,1.9-0.5L24.6,295.4L24.6,295.4L24.6,295.4z M33.1,298.4v1.3c-0.6,0-0.8,0-0.8,0.8v1.5c0,0.9-0.2,1.5-0.6,1.9
	c-0.4,0.3-1,0.5-2,0.5v-1.2c0.3,0,0.5-0.1,0.6-0.2c0.1-0.2,0.2-0.2,0.2-0.6V301c0-1.1,0.2-1.7,0.8-2.1v-0.1
	c-0.6-0.2-0.8-0.8-0.8-1.7V296c0-0.6-0.3-0.5-0.8-0.5v-1.4c0.9,0,1.5,0.2,1.9,0.5s0.6,0.8,0.6,1.5v1.2c0,0.7,0.3,0.6,0.8,0.6
	L33.1,298.4L33.1,298.4L33.1,298.4z M27.1,290.3c-3.4,0-6.2-0.8-6.2-1.9c0-1,2.8-1.9,6.2-1.9s6.2,0.8,6.2,1.9
	C33.3,289.5,30.5,290.3,27.1,290.3L27.1,290.3z"/>
<g>
	
		<line style="fill:none;stroke:#DFDFDE;stroke-width:4;stroke-linecap:round;stroke-linejoin:round;stroke-miterlimit:10;" x1="40.7" y1="0" x2="41.7" y2="258.9"/>
	
		<circle style="fill:none;stroke:#DFDFDE;stroke-width:4;stroke-linecap:round;stroke-linejoin:round;stroke-miterlimit:10;" cx="41.7" cy="264.4" r="5"/>
</g>
</svg>
