<?xml version="1.0" encoding="utf-8"?>
<!-- Generator: Adobe Illustrator 19.2.0, SVG Export Plug-In . SVG Version: 6.00 Build 0)  -->
<svg version="1.1" id="Layer_1" xmlns="http://www.w3.org/2000/svg" xmlns:xlink="http://www.w3.org/1999/xlink" x="0px" y="0px"
	 width="56px" height="475px" viewBox="0 0 56 475" style="enable-background:new 0 0 56 475;" xml:space="preserve">
<g>
	<path style="fill:#FFFFFF;" d="M30.7,446.7c0.1-0.4,0.2-0.9,0.2-1.3c0-2.9-2.3-5.2-5.1-5.2c-2.1,0-3.9,1.3-4.7,3.2
		c-0.6-0.8-1.6-1.3-2.7-1.3c-2,0-3.6,1.7-3.6,3.7c0,0.3,0,0.7,0.1,1c-1.6,0.6-2.7,2-2.7,3.9c0,2.4,1.9,4.2,4.2,4.2h13
		c2.4,0,4.2-1.8,4.2-4.2C33.6,448.7,32.4,447.2,30.7,446.7L30.7,446.7z M27.8,448.5c-0.4,1.5-1.7,2.6-3.3,2.6c-0.3,0-0.6,0-0.8-0.1
		c-0.3-0.1-0.6-0.2-0.8-0.3l-2.3,2.4c-0.2,0.2-0.4,0.3-0.7,0.3s-0.5-0.1-0.7-0.3c-0.2-0.2-0.3-0.4-0.3-0.7s0.1-0.5,0.3-0.7l2.3-2.4
		c-0.4-0.7-0.5-1.6-0.3-2.4c0.4-1.5,1.7-2.6,3.3-2.6c0.3,0,0.6,0,0.8,0.1c0.9,0.2,1.6,0.8,2.1,1.5C27.9,446.7,28.1,447.6,27.8,448.5
		L27.8,448.5z"/>
	<path style="fill:#FFFFFF;" d="M25.1,445.6c-0.2,0-0.3,0-0.5,0c-0.9,0-1.8,0.6-2,1.6c-0.1,0.6,0,1.2,0.3,1.7
		c0.1,0.2,0.3,0.4,0.6,0.6c0.2,0.1,0.4,0.3,0.7,0.3c0.2,0,0.3,0,0.5,0c0.9,0,1.8-0.6,2-1.6c0.1-0.6,0-1.1-0.3-1.6
		S25.6,445.8,25.1,445.6L25.1,445.6z"/>
</g>
<path d="M55.7,469.4L36,443.1l0,0c-2.1-2.9-4.9-5.4-8.5-6.8c-10-4.2-21.5,0.5-25.7,10.6c-4.2,10,0.5,21.5,10.6,25.7
	c3,1.2,6.1,1.7,9.1,1.4v0.1L55.7,469.4z"/>
<g>
	<path style="fill:#FFFFFF;" d="M27.5,454.8c0-0.1,0-0.3,0-0.4l1.4-0.8c-0.1-0.5-0.2-0.9-0.4-1.3h-1.6c-0.1-0.2-0.3-0.5-0.4-0.7
		l0.8-1.4c-0.3-0.4-0.6-0.7-1-1l-0.8,0.5l-0.3,0.5l-0.7,1.1c1,0.8,1.7,2.1,1.7,3.5c0,2.4-2,4.4-4.4,4.4s-4.4-2-4.4-4.4
		c0-2.2,1.6-4,3.7-4.3l0.3-1.4l-0.8-1.4c-0.5,0.1-0.9,0.2-1.3,0.4v1.6c-0.2,0.1-0.5,0.2-0.7,0.4l-1.4-0.8c-0.4,0.3-0.7,0.6-1,1
		l0.8,1.4c-0.2,0.2-0.3,0.5-0.4,0.7H15c-0.2,0.4-0.3,0.9-0.4,1.3l1.4,0.8c0,0.1,0,0.3,0,0.4s0,0.3,0,0.4l-1.4,0.8
		c0.1,0.5,0.2,0.9,0.4,1.3h1.6c0.1,0.3,0.3,0.5,0.4,0.7l-0.8,1.4c0.3,0.4,0.6,0.7,1,1l1.4-0.8c0.2,0.2,0.5,0.3,0.7,0.4v1.6
		c0.4,0.2,0.9,0.3,1.3,0.4l0.8-1.4c0.1,0,0.3,0,0.4,0s0.3,0,0.4,0l0.8,1.4c0.5-0.1,0.9-0.2,1.3-0.4v-1.6c0.2-0.1,0.5-0.3,0.7-0.4
		l1.4,0.8c0.3-0.3,0.7-0.6,1-1l-0.8-1.4c0.1-0.2,0.3-0.5,0.4-0.7h1.6c0.2-0.4,0.3-0.9,0.4-1.3l-1.4-0.8
		C27.5,455.1,27.5,455,27.5,454.8L27.5,454.8z"/>
	<path style="fill:#FFFFFF;" d="M13.4,461.5c-0.5,0-1-0.4-1-1s0.4-1,1-1c0.5,0,1,0.4,1,1S14,461.5,13.4,461.5L13.4,461.5z
		 M15.3,458.2L15.3,458.2l-0.8,0.4l-0.5-0.2l-0.3-0.8H13v0.1l-0.2,0.7l-0.5,0.2l-0.8-0.4l-0.5,0.5v0.1l0.4,0.7l-0.2,0.5l-0.8,0.3
		v0.7h0.1l0.7,0.2l0.2,0.5l-0.4,0.8l0.5,0.5h0.1l0.7-0.4l0.5,0.2l0.3,0.8h0.7v-0.1l0.2-0.7l0.5-0.2l0.8,0.4l0.5-0.5v-0.1l-0.3-0.7
		l0.2-0.5l0.8-0.3v-0.7h-0.1l-0.7-0.2l-0.2-0.5l0.3-0.7c-0.1-0.1-0.1-0.2-0.2-0.3L15.3,458.2L15.3,458.2L15.3,458.2z"/>
	<path style="fill:#FFFFFF;" d="M15.6,458.4c0.1,0.1,0.1,0.2,0.2,0.3v-0.1L15.6,458.4L15.6,458.4L15.6,458.4z"/>
	<path style="fill:#FFFFFF;" d="M22.7,446.8l-0.3,0.8l-0.5,1.5l-0.2,0.7l-0.2,0.6l-1.3,4.2c0,0.1,0,0.2,0.1,0.2h1.2h0.1v0.1
		l-1.3,3.1c0,0.1,0,0.1,0,0l4-4.5c0.1-0.1,0-0.1-0.1-0.1h-1.3h-0.2c-0.1,0-0.1-0.1-0.1-0.1l1.2-2.2l0.3-0.5l0.3-0.6l0.7-1.3l0.4-0.8
		C24.9,447.3,23.9,446.9,22.7,446.8L22.7,446.8z"/>
</g>
<g>
	
		<line style="fill:none;stroke:#DFDFDE;stroke-width:4;stroke-linecap:round;stroke-linejoin:round;stroke-miterlimit:10;" x1="6" y1="-6" x2="7" y2="413.9"/>
	
		<circle style="fill:none;stroke:#DFDFDE;stroke-width:4;stroke-linecap:round;stroke-linejoin:round;stroke-miterlimit:10;" cx="7" cy="419.4" r="5"/>
</g>
</svg>
