<?xml version="1.0" encoding="utf-8"?>
<!-- Generator: Adobe Illustrator 19.2.0, SVG Export Plug-In . SVG Version: 6.00 Build 0)  -->
<svg version="1.1" id="Layer_2_1_" xmlns="http://www.w3.org/2000/svg" xmlns:xlink="http://www.w3.org/1999/xlink" x="0px" y="0px"
	 width="393px" height="622px" viewBox="0 0 393 622" style="enable-background:new 0 0 393 622;" xml:space="preserve">
<g>
	<g>
		<path d="M353.1,600.4v-9.9h2.8c3.6,0,5.4,1.6,5.4,4.8c0,1.5-0.5,2.7-1.5,3.6c-1,0.9-2.3,1.4-4,1.4L353.1,600.4L353.1,600.4
			L353.1,600.4z M354.7,592v7h1.3c1.1,0,2-0.3,2.7-0.9c0.6-0.6,0.9-1.5,0.9-2.7c0-2.3-1.2-3.4-3.5-3.4H354.7L354.7,592z"/>
		<path d="M371.4,600.4h-1.8l-4.7-7.2c-0.1-0.2-0.2-0.4-0.3-0.6l0,0c0,0.2,0.1,0.7,0.1,1.3v6.4h-1.6v-9.8h1.9l4.5,7
			c0.2,0.3,0.3,0.5,0.4,0.6l0,0c0-0.3-0.1-0.7-0.1-1.3v-6.3h1.6V600.4z"/>
		<path d="M373.4,600v-1.7c0.1,0.1,0.3,0.3,0.5,0.4c0.2,0.1,0.4,0.2,0.7,0.3c0.2,0.1,0.5,0.1,0.7,0.2c0.2,0,0.4,0.1,0.6,0.1
			c0.7,0,1.2-0.1,1.5-0.3c0.3-0.2,0.5-0.6,0.5-1c0-0.2-0.1-0.4-0.2-0.6s-0.3-0.3-0.5-0.5c-0.2-0.2-0.4-0.3-0.7-0.4
			c-0.3-0.1-0.6-0.3-0.9-0.4c-0.3-0.2-0.6-0.4-0.9-0.5c-0.3-0.2-0.5-0.4-0.7-0.6c-0.2-0.2-0.4-0.5-0.5-0.7c-0.1-0.2-0.2-0.6-0.2-1
			c0-0.5,0.1-0.9,0.3-1.2c0.2-0.3,0.5-0.6,0.8-0.8c0.3-0.2,0.7-0.4,1.2-0.5c0.5-0.1,0.9-0.2,1.3-0.2c1,0,1.8,0.1,2.2,0.3v1.6
			c-0.6-0.4-1.3-0.6-2.1-0.6c-0.2,0-0.5,0-0.7,0.1c-0.2,0-0.5,0.1-0.6,0.2c-0.1,0.1-0.3,0.2-0.5,0.4c-0.2,0.2-0.2,0.4-0.2,0.6
			s0,0.4,0.1,0.6c0.1,0.2,0.2,0.3,0.4,0.4c0.2,0.1,0.4,0.3,0.6,0.4c0.3,0.1,0.5,0.3,0.9,0.4c0.3,0.2,0.7,0.4,1,0.6
			c0.3,0.2,0.6,0.4,0.8,0.6c0.2,0.2,0.4,0.5,0.5,0.8c0.1,0.3,0.2,0.6,0.2,1c0,0.5-0.1,0.9-0.3,1.3c-0.2,0.3-0.5,0.6-0.8,0.8
			c-0.3,0.2-0.7,0.4-1.2,0.5c-0.4,0.1-0.9,0.1-1.4,0.1c-0.2,0-0.4,0-0.6,0c-0.2,0-0.5-0.1-0.7-0.1c-0.2,0-0.5-0.1-0.7-0.2
			C373.7,600.1,373.5,600,373.4,600z"/>
	</g>
	<g>
		<path d="M369.3,563.1c-1.3,0-2.5,0.8-3,2h-19.1c-3.2,0-5.9-2.6-5.9-5.9c0-3.2,2.6-5.9,5.9-5.9h2.7c0.1-0.7,0.3-1.3,0.6-1.9
			c0.1-0.2,0.2-0.4,0.4-0.7c1.3-2.3,3.8-3.9,6.8-3.9c2.6,0,4.8,1.3,6.3,3.2c0.8-0.4,1.7-0.7,2.6-0.9c-1.8-3-5.1-4.9-8.8-4.9
			c-4.3,0-8.1,2.7-9.6,6.5l0,0l0,0h-0.8c-4.7,0-8.5,3.8-8.5,8.5s3.8,8.5,8.5,8.5h19.1c0.5,1.2,1.7,2,3,2c1.8,0,3.3-1.4,3.3-3.3
			C372.8,564.5,371.1,563.1,369.3,563.1L369.3,563.1z"/>
		<path d="M379.8,556.6c-1.9-3.8-5.9-6.5-10.5-6.5c-5.6,0-10.3,3.9-11.4,9.1c-2.7,0.3-5.1,1.7-6.6,3.8h13.9c0.9-1.2,2.4-2,4.1-2
			c2.9,0,5.2,2.3,5.2,5.2s-2.3,5.2-5.2,5.2c-1.7,0-3.1-0.8-4.1-2h-15.5c0.6,4.4,4.4,7.8,9,7.8l0,0h20.9l0,0
			c5.7,0,10.4-4.7,10.4-10.4C390.1,561.2,385.5,556.6,379.8,556.6L379.8,556.6z"/>
	</g>
</g>
<g>
	<g>
		
			<line style="fill:none;stroke:#DEDEDE;stroke-width:4;stroke-linecap:round;stroke-linejoin:round;stroke-miterlimit:10;" x1="119.3" y1="569.2" x2="119.3" y2="0.3"/>
	</g>
	<g>
		
			<circle style="fill:none;stroke:#DEDEDE;stroke-width:4;stroke-linecap:round;stroke-linejoin:round;stroke-miterlimit:10;" cx="316.2" cy="569.4" r="5"/>
	</g>
	
		<line style="fill:none;stroke:#DEDEDE;stroke-width:4;stroke-linecap:round;stroke-linejoin:round;stroke-miterlimit:10;" x1="310.7" y1="569.4" x2="119.3" y2="569.2"/>
</g>
</svg>
