<?xml version="1.0" encoding="utf-8"?>
<!-- Generator: Adobe Illustrator 19.2.0, SVG Export Plug-In . SVG Version: 6.00 Build 0)  -->
<svg version="1.1" id="Layer_1" xmlns="http://www.w3.org/2000/svg" xmlns:xlink="http://www.w3.org/1999/xlink" x="0px" y="0px"
	 width="90px" height="171px" viewBox="0 0 90 171" style="enable-background:new 0 0 90 171;" xml:space="preserve">
<g>
	<path d="M1.7,168.1H0v-9.8h1.7V168.1z"/>
	<path d="M4.1,168.1v-9.8h2.8c3.6,0,5.4,1.6,5.4,4.8c0,1.5-0.5,2.7-1.5,3.6c-1,0.9-2.3,1.4-4,1.4H4.1z M5.7,159.7v7H7
		c1.1,0,2-0.3,2.7-0.9c0.6-0.6,0.9-1.5,0.9-2.7c0-2.3-1.2-3.4-3.5-3.4C7.1,159.7,5.7,159.7,5.7,159.7z"/>
	<path d="M19.6,168.1h-5.5v-9.8h5.3v1.4h-3.6v2.8h3.4v1.3h-3.4v2.9h3.9L19.6,168.1L19.6,168.1z"/>
	<path d="M29.6,168.1h-1.8l-4.7-7.2c-0.1-0.2-0.2-0.4-0.3-0.6l0,0c0,0.2,0.1,0.7,0.1,1.3v6.4h-1.6v-9.8h1.9l4.5,7
		c0.2,0.3,0.3,0.5,0.4,0.6l0,0c0-0.3-0.1-0.7-0.1-1.3v-6.3h1.6L29.6,168.1L29.6,168.1z"/>
	<path d="M38.2,159.7h-2.8v8.4h-1.6v-8.4H31v-1.4h7.2V159.7z"/>
	<path d="M41.3,168.1h-1.7v-9.8h1.7V168.1z"/>
	<path d="M50,159.7h-2.8v8.4h-1.6v-8.4h-2.8v-1.4H50V159.7z"/>
	<path d="M58.4,158.3l-3.2,6.2v3.5h-1.6v-3.5l-3.1-6.2h1.8l1.9,4.2c0,0,0.1,0.2,0.2,0.6l0,0c0-0.1,0.1-0.3,0.2-0.6l2-4.2H58.4z"/>
	<path d="M69.8,159.7H67v8.4h-1.6v-8.4h-2.8v-1.4h7.2V159.7L69.8,159.7z"/>
	<path d="M72.8,168.1h-1.7v-9.8h1.7V168.1z"/>
	<path d="M80.7,168.1h-5.5v-9.8h5.3v1.4h-3.6v2.8h3.4v1.3h-3.4v2.9h3.9L80.7,168.1L80.7,168.1z"/>
	<path d="M90,168.1h-1.9l-1.6-2.6c-0.1-0.2-0.3-0.4-0.4-0.6c-0.1-0.2-0.3-0.3-0.4-0.4s-0.3-0.2-0.5-0.2s-0.3-0.1-0.6-0.1h-0.7v4
		h-1.6v-9.8h3.2c0.5,0,0.9,0.1,1.3,0.2c0.4,0.1,0.7,0.3,1,0.5s0.5,0.5,0.7,0.8s0.2,0.7,0.2,1.2c0,0.3-0.1,0.7-0.2,0.9
		c-0.1,0.3-0.2,0.5-0.4,0.8c-0.2,0.2-0.4,0.4-0.7,0.6c-0.3,0.2-0.6,0.3-0.9,0.4l0,0c0.2,0.1,0.3,0.2,0.5,0.3
		c0.1,0.1,0.3,0.2,0.4,0.4c0.1,0.1,0.2,0.3,0.3,0.4c0.1,0.2,0.2,0.3,0.4,0.6L90,168.1z M84.1,159.7v3.1h1.3c0.2,0,0.5,0,0.7-0.1
		s0.4-0.2,0.5-0.3c0.2-0.1,0.3-0.3,0.4-0.5s0.1-0.4,0.1-0.7c0-0.5-0.1-0.8-0.4-1.1s-0.7-0.4-1.3-0.4H84.1z"/>
</g>
<g>
	<path d="M44,130c-5.5,0-9.9,4.4-9.9,9.9s4.4,9.9,9.9,9.9s9.9-4.4,9.9-9.9S49.5,130,44,130z M45.5,143.1c-0.5,0.4-1.2,0.6-2.1,0.6
		c-0.7,0.1-1.3-0.1-1.8-0.3v-1.2c0.5,0.4,1.1,0.6,1.7,0.6c0.5,0,0.9-0.1,1.2-0.4c0.3-0.2,0.5-0.6,0.5-1c0-0.9-0.7-1.3-2-1.3h-0.6v-1
		H43c1.2,0,1.8-0.4,1.8-1.3c0-0.8-0.5-1.2-1.4-1.2c-0.5,0-1,0.2-1.5,0.6v-1.1c0.5-0.3,1.2-0.4,1.9-0.4s1.2,0.2,1.7,0.5
		c0.4,0.3,0.6,0.8,0.6,1.3c0,1-0.5,1.7-1.6,2c0.6,0.1,1,0.3,1.3,0.6s0.5,0.8,0.5,1.3C46.3,142.1,46,142.7,45.5,143.1z"/>
</g>
<line style="fill:none;stroke:#DEDEDE;stroke-width:4;stroke-linecap:round;stroke-linejoin:round;stroke-miterlimit:10;" x1="43.1" y1="-176" x2="43.5" y2="89.9"/>
<circle style="fill:none;stroke:#DEDEDE;stroke-width:4;stroke-linecap:round;stroke-linejoin:round;stroke-miterlimit:10;" cx="43.5" cy="95.4" r="5"/>
</svg>
