<svg id="Layer_1" xmlns="http://www.w3.org/2000/svg" width="960" height="349" viewBox="0 0 960 349"><g fill="none" stroke="#686868" stroke-width="3" stroke-linecap="round" stroke-linejoin="round" stroke-miterlimit="10"><path d="M357.3 132.6v176M349.6 303.2l7.7 6.8 7.8-6.9"/></g><g fill="none" stroke="#686868" stroke-width="3" stroke-linecap="round" stroke-linejoin="round" stroke-miterlimit="10"><path d="M583.4 132.6v175.8M575.7 302.1l7.7 7.9 7.8-8"/></g><path fill="#00BCF2" d="M550.4 264.4c0-.1.1-.1.2-.2h-5.2c1.6.1 3.3.2 5 .2z"/><path fill="#DEDEDE" d="M263.5 211.4H209c-14.6 0-14.7 22.8 0 22.8h54.4c14.7 0 14.8-22.8.1-22.8zM576.6 206.1c2.2-2.6 3.5-6 3.5-9.7 0-8-6.2-14.6-14.1-15.2-4.1-41.5-39.2-74.1-81.8-74.1-45.3 0-82.2 36.9-82.2 82.2 0 .9 0 1.9.1 2.8-6.3-4-13.8-6.4-21.8-6.4-14.5 0-27.3 7.7-34.4 19.2h-32.3c-40.1 0-40.1 62.3 0 62.3h254.1c36.8 0 39.8-52.5 8.9-61.1z"/><path fill="#DEDEDE" d="M311.4 169.2h-18.7c-6 0-11.7 5.2-11.4 11.4.3 6.2 5 11.4 11.4 11.4h18.7c6 0 11.7-5.2 11.4-11.4-.3-6.2-5-11.4-11.4-11.4zM674.2 148.9h-70.7c-14.6 0-14.7 22.8 0 22.8h70.7c14.6 0 14.6-22.8 0-22.8z"/><path fill="none" stroke="#686868" stroke-width="3" stroke-linecap="round" stroke-linejoin="round" stroke-miterlimit="10" d="M468.2 67v93.3"/><path d="M438.6 201.9h-1.7v-9.8h1.7v9.8zM449.3 201.9h-1.8l-4.7-7.2-.3-.6c0 .2.1.7.1 1.3v6.4H441V192h1.9l4.5 7c.2.3.3.5.4.6 0-.3-.1-.7-.1-1.3V192h1.6v9.9zM457.9 193.5h-2.8v8.4h-1.6v-8.4h-2.8v-1.4h7.2v1.4zM464.8 201.9h-5.5v-9.8h5.3v1.4H461v2.8h3.4v1.4H461v2.9h3.9v1.3h-.1zM474.1 201.9h-1.9l-1.6-2.6c-.1-.2-.3-.4-.4-.6s-.3-.3-.4-.4-.3-.2-.5-.2-.3-.1-.6-.1h-.7v4h-1.6v-9.8h3.2c.5 0 .9.1 1.3.2s.7.3 1 .5.5.5.7.8.2.7.2 1.2c0 .3-.1.7-.2.9-.1.3-.2.5-.4.8-.2.2-.4.4-.7.6-.3.2-.6.3-.9.4.2.1.3.2.5.3.1.1.3.2.4.4.1.1.2.3.3.4.1.2.2.3.4.6l1.9 2.6zm-5.9-8.5v3.2h1.3c.2 0 .5 0 .7-.1s.4-.2.5-.3c.2-.1.3-.3.4-.5s.1-.4.1-.7c0-.5-.1-.8-.4-1.1s-.7-.4-1.3-.4l-1.3-.1zM483.5 201.9h-1.8l-4.7-7.2-.3-.6c0 .2.1.7.1 1.3v6.4h-1.6V192h1.9l4.5 7c.2.3.3.5.4.6 0-.3-.1-.7-.1-1.3V192h1.6v9.9zM491.4 201.9h-5.5v-9.8h5.3v1.4h-3.6v2.8h3.4v1.4h-3.4v2.9h3.9l-.1 1.3zM499.4 193.5h-2.8v8.4H495v-8.4h-2.8v-1.4h7.2v1.4z"/><g fill="none" stroke="#686868" stroke-width="3" stroke-linecap="round" stroke-linejoin="round" stroke-miterlimit="10"><path d="M468.2 229.4v106.4M461.5 329.9l6.6 6.6 6.7-6.7"/></g><path fill="none" stroke="#FFF" stroke-width="3" stroke-linecap="round" stroke-linejoin="round" stroke-miterlimit="10" d="M459.9 227.6s7.9 4 16.6 0M476.5 162.7s-7.9-4-16.6 0"/></svg>