<svg id="Layer_1" xmlns="http://www.w3.org/2000/svg" width="55" height="350" viewBox="0 0 55 350"><path d="M20.7 342c.7.1 1.4.1 2 .2l32.3 2.5-13.6-29.5c-1.4-3.4-3.7-6.5-7-8.8-8.9-6.2-21.2-4-27.4 4.9-6.2 8.9-4 21.2 4.9 27.4 2.6 1.8 5.5 2.9 8.5 3.3h.3z"/><g fill="#FFF"><path d="M30.2 321.7c.1-.4.2-.9.2-1.3 0-2.9-2.3-5.2-5.1-5.2-2.1 0-3.9 1.3-4.7 3.2-.6-.8-1.6-1.3-2.7-1.3-2 0-3.6 1.7-3.6 3.7 0 .3 0 .7.1 1-1.6.6-2.7 2-2.7 3.9 0 2.4 1.9 4.2 4.2 4.2h13c2.4 0 4.2-1.8 4.2-4.2 0-2-1.2-3.5-2.9-4zm-2.9 1.8c-.4 1.5-1.7 2.6-3.3 2.6-.3 0-.6 0-.8-.1-.3-.1-.6-.2-.8-.3l-2.3 2.4c-.2.2-.4.3-.7.3s-.5-.1-.7-.3c-.2-.2-.3-.4-.3-.7s.1-.5.3-.7l2.3-2.4c-.4-.7-.5-1.6-.3-2.4.4-1.5 1.7-2.6 3.3-2.6.3 0 .6 0 .8.1.9.2 1.6.8 2.1 1.5.5.8.7 1.7.4 2.6z"/><path d="M24.6 320.6h-.5c-.9 0-1.8.6-2 1.6-.1.6 0 1.2.3 1.7.1.2.3.4.6.6.2.1.4.3.7.3h.5c.9 0 1.8-.6 2-1.6.1-.6 0-1.1-.3-1.6s-.8-.8-1.3-1z"/></g><g fill="none" stroke="#dfdfde" stroke-width="4" stroke-linecap="round" stroke-linejoin="round" stroke-miterlimit="10"><path d="M13.9-5l1 288.9"/><circle cx="14.9" cy="289.4" r="5"/></g></svg>