<?xml version="1.0" encoding="utf-8"?>
<!-- Generator: Adobe Illustrator 19.2.0, SVG Export Plug-In . SVG Version: 6.00 Build 0)  -->
<svg version="1.1" id="Layer_1" xmlns="http://www.w3.org/2000/svg" xmlns:xlink="http://www.w3.org/1999/xlink" x="0px" y="0px"
	 width="230px" height="256px" viewBox="0 0 230 256" style="enable-background:new 0 0 230 256;" xml:space="preserve">
<g>
	<path d="M59.5,242l-1.7,0.6l-1.6-2.1l-3.6,1.2v2.6l-1.7,0.6l0.4-10.4l1.7-0.6L59.5,242z M55.3,239.3l-2.5-3.3
		c-0.1-0.1-0.2-0.3-0.3-0.5l0,0c0,0.3,0.1,0.5,0.1,0.6v4.1L55.3,239.3z"/>
	<path d="M64.8,231l-3,8.9l5.1-1.5l0.4,1.3l-7.3,2.1l-0.2-0.7l3-8.8l-4.8,1.3l-0.3-1.3l6.9-2L64.8,231z"/>
	<path d="M75,233.6c0.7,2.7-0.2,4.3-2.7,4.9c-2.4,0.6-3.9-0.3-4.6-2.9l-1.5-5.8l1.6-0.4l1.4,5.5c0.5,1.9,1.4,2.6,2.9,2.2
		c1.4-0.4,1.8-1.4,1.4-3.2l-1.5-5.6l1.6-0.4L75,233.6z"/>
	<path d="M85.5,235.3l-1.8,0.4l-2.1-2.2c-0.2-0.2-0.4-0.4-0.5-0.5c-0.2-0.1-0.3-0.2-0.5-0.3s-0.3-0.1-0.5-0.1s-0.4,0-0.6,0l-0.6,0.1
		l0.9,3.9l-1.6,0.3l-2.1-9.5l3.1-0.7c0.4-0.1,0.9-0.1,1.3-0.1s0.8,0.1,1.1,0.3c0.3,0.2,0.6,0.4,0.8,0.7c0.2,0.3,0.4,0.6,0.5,1.1
		c0.1,0.3,0.1,0.7,0.1,1s-0.1,0.6-0.3,0.8c-0.2,0.2-0.3,0.5-0.5,0.7s-0.5,0.4-0.8,0.6l0,0c0.2,0.1,0.4,0.1,0.5,0.2
		c0.2,0.1,0.3,0.2,0.4,0.3s0.3,0.2,0.4,0.3s0.3,0.3,0.5,0.5L85.5,235.3z M77.9,228.3l0.7,3.1l1.3-0.3c0.2-0.1,0.5-0.1,0.6-0.3
		c0.2-0.1,0.3-0.3,0.5-0.4c0.2-0.1,0.2-0.4,0.2-0.6c0-0.2,0-0.5,0-0.7c-0.1-0.5-0.3-0.8-0.7-1c-0.3-0.2-0.8-0.2-1.3-0.1L77.9,228.3z
		"/>
	<path d="M91.9,234.1l-5.4,1l-1.8-9.6l5.2-1l0.3,1.4l-3.6,0.7l0.5,2.7l3.3-0.6l0.3,1.3l-3.3,0.6l0.5,2.8l3.8-0.7L91.9,234.1z"/>
	<path d="M103.5,222.5l-2.2,10.1l-1.8,0.2l-4.7-9.2l1.8-0.2l3.4,7c0.1,0.2,0.2,0.5,0.3,0.8l0,0c0-0.3,0-0.5,0.1-0.9l1.5-7.6
		L103.5,222.5z"/>
	<path d="M107.7,231.9l-1.7,0.2l-1-9.7l1.7-0.2L107.7,231.9z"/>
	<path d="M117.6,231.1l-1.9,0.1l-1.7-2.5c-0.2-0.2-0.3-0.4-0.5-0.6c-0.1-0.2-0.3-0.3-0.4-0.4c-0.1-0.1-0.3-0.2-0.5-0.2s-0.4,0-0.6,0
		h-0.7l0.3,3.9l-1.6,0.1l-0.7-9.7l3.2-0.2c0.5,0,0.9,0,1.3,0.1s0.7,0.2,1,0.4s0.5,0.5,0.7,0.8s0.3,0.7,0.3,1.1c0,0.3,0,0.7-0.1,1
		s-0.2,0.6-0.4,0.8c-0.2,0.2-0.4,0.4-0.6,0.6c-0.3,0.2-0.5,0.3-0.9,0.4l0,0c0.2,0.1,0.3,0.2,0.5,0.3c0.1,0.1,0.3,0.2,0.4,0.3
		s0.3,0.3,0.4,0.4c0.1,0.2,0.3,0.3,0.4,0.5L117.6,231.1z M111,223.1l0.2,3.2l1.3-0.1c0.2,0,0.5-0.1,0.7-0.2c0.2-0.1,0.4-0.2,0.5-0.4
		s0.3-0.3,0.3-0.6c0.1-0.2,0.1-0.5,0.1-0.7c0-0.5-0.2-0.8-0.5-1.1c-0.3-0.2-0.7-0.3-1.3-0.3L111,223.1z"/>
	<path d="M124.2,222.5l-2.8,0.1l0.3,8.4l-1.6,0.1l-0.3-8.4l-2.8,0.1v-1.4l7.2-0.3L124.2,222.5z"/>
	<path d="M133.4,227c0,2.7-1.4,4.1-4,4c-2.5,0-3.7-1.4-3.7-4l0.1-6h1.6l-0.1,5.6c0,1.9,0.7,2.9,2.2,2.9c1.4,0,2.2-0.9,2.2-2.7
		l0.1-5.7h1.6L133.4,227L133.4,227z"/>
	<path d="M143.3,231.4l-1.8-0.1l-0.7-2.5l-3.8-0.2l-1,2.4l-1.8-0.1l4.2-9.5l1.8,0.1L143.3,231.4z M140.4,227.5l-1.1-4
		c0-0.1-0.1-0.3-0.1-0.6l0,0c-0.1,0.3-0.1,0.5-0.2,0.6l-1.6,3.8L140.4,227.5z"/>
	<path d="M149.9,232.1l-5.4-0.5l0.9-9.7l1.6,0.2l-0.8,8.3l3.8,0.4L149.9,232.1z"/>
	<path d="M163.1,233.9l-1.7-0.3l-3.5-7.8c-0.1-0.2-0.2-0.4-0.2-0.6l0,0c0,0.2,0,0.7-0.1,1.3l-0.9,6.3l-1.5-0.2l1.4-9.6l1.9,0.3
		l3.4,7.6c0.1,0.3,0.2,0.5,0.3,0.6l0,0c0-0.3,0-0.7,0.1-1.3l0.9-6.2l1.5,0.2L163.1,233.9z"/>
	<path d="M170.8,235.3l-5.4-1l1.8-9.6l5.2,1l-0.3,1.3l-3.6-0.7L168,229l3.3,0.6l-0.3,1.3l-3.3-0.6l-0.5,2.8l3.8,0.7L170.8,235.3z"/>
	<path d="M180.4,228.8l-2.7-0.6l-1.8,8.2l-1.6-0.3l1.8-8.2l-2.7-0.6l0.3-1.3l7,1.6L180.4,228.8z"/>
	<path d="M194.3,231l-5.1,8.7l-1.8-0.5v-7.1c0-0.3,0-0.6,0.1-1l0,0c-0.1,0.3-0.2,0.6-0.4,0.9l-3.6,6.1l-1.8-0.5l-0.1-10.1l1.7,0.5
		l-0.1,7.4c0,0.3,0,0.6-0.1,0.9l0,0c0.1-0.2,0.2-0.5,0.4-0.9l3.8-6.4l1.6,0.4l-0.1,7.4c0,0.3,0,0.5-0.1,0.9l0,0
		c0.1-0.2,0.2-0.5,0.4-0.8l3.5-6.5L194.3,231z"/>
	<path d="M196.8,242.2c-1.3-0.4-2.3-1.2-2.8-2.3s-0.6-2.4-0.1-3.8c0.5-1.5,1.3-2.6,2.4-3.2s2.4-0.7,3.8-0.3c1.3,0.4,2.2,1.2,2.8,2.3
		c0.5,1.1,0.6,2.4,0.1,3.8c-0.5,1.5-1.3,2.6-2.4,3.2C199.4,242.6,198.2,242.7,196.8,242.2z M199.5,234c-0.9-0.3-1.6-0.2-2.4,0.3
		s-1.3,1.2-1.6,2.3c-0.3,1-0.3,1.9,0,2.7s0.9,1.3,1.7,1.6c0.9,0.3,1.7,0.2,2.4-0.2s1.2-1.2,1.6-2.3c0.3-1.1,0.4-2,0.1-2.8
		S200.3,234.3,199.5,234z"/>
	<path d="M210.1,246.6l-1.8-0.6l-0.6-3c-0.1-0.3-0.1-0.5-0.2-0.7c-0.1-0.2-0.2-0.4-0.2-0.5s-0.2-0.3-0.3-0.4
		c-0.1-0.1-0.3-0.2-0.5-0.3l-0.6-0.2l-1.3,3.7l-1.5-0.5l3.2-9.2l3,1.1c0.4,0.2,0.8,0.3,1.1,0.6c0.3,0.2,0.6,0.5,0.8,0.8
		s0.3,0.6,0.4,1c0,0.4,0,0.8-0.2,1.2c-0.1,0.3-0.3,0.6-0.5,0.8s-0.4,0.4-0.7,0.6c-0.3,0.1-0.5,0.3-0.8,0.3s-0.6,0.1-1,0l0,0
		c0.1,0.2,0.2,0.3,0.3,0.5s0.2,0.3,0.2,0.5c0.1,0.2,0.1,0.3,0.2,0.5s0.1,0.4,0.2,0.7L210.1,246.6z M207.3,236.6l-1.1,3l1.3,0.4
		c0.2,0.1,0.5,0.1,0.7,0.1s0.4,0,0.6-0.1c0.2-0.1,0.4-0.2,0.5-0.4c0.2-0.2,0.3-0.4,0.4-0.6c0.2-0.4,0.1-0.8-0.1-1.2
		c-0.2-0.3-0.5-0.6-1.1-0.8L207.3,236.6z"/>
	<path d="M217.9,249.6l-2-0.8l-1.5-5.4c-0.1-0.2-0.1-0.3-0.1-0.4l0,0l-1.7,4.5l-1.5-0.6l3.5-9.1l1.5,0.6l-1.7,4.3l0,0
		c0.1-0.1,0.2-0.1,0.3-0.2l4.6-2.8l1.8,0.7l-5.3,3L217.9,249.6z"/>
</g>
<circle cx="129.4" cy="205.3" r="11"/>
<g>
	<path style="fill:#FFFFFF;" d="M127,209.2v-1.3c0.6,0.3,1.1,0.6,1.7,0.6c0.6,0,1-0.1,1.4-0.4c0.4-0.3,0.6-0.7,0.6-1.2
		c0-0.4-0.2-0.9-0.6-1.1c-0.3-0.2-0.9-0.4-1.6-0.4c-0.2,0-0.7,0-1.4,0.1l0.3-4.4h4.2v1.2h-3.1l-0.1,2.1c0.2,0,0.6,0,0.8,0
		c0.9,0,1.6,0.2,2.1,0.7c0.4,0.4,0.8,1.1,0.8,1.9c0,0.9-0.3,1.6-0.9,2c-0.6,0.6-1.3,0.8-2.3,0.8C128,209.5,127.3,209.4,127,209.2z"
		/>
</g>
</svg>
