<?xml version="1.0" encoding="utf-8"?>
<!-- Generator: Adobe Illustrator 19.2.0, SVG Export Plug-In . SVG Version: 6.00 Build 0)  -->
<svg version="1.1" id="Layer_1" xmlns="http://www.w3.org/2000/svg" xmlns:xlink="http://www.w3.org/1999/xlink" x="0px" y="0px"
	 width="56px" height="284px" viewBox="0 0 56 284" style="enable-background:new 0 0 56 284;" xml:space="preserve">
<g>
	<path style="fill:#FFFFFF;" d="M30.7,255.7c0.1-0.4,0.2-0.9,0.2-1.3c0-2.9-2.3-5.2-5.1-5.2c-2.1,0-3.9,1.3-4.7,3.2
		c-0.6-0.8-1.6-1.3-2.7-1.3c-2,0-3.6,1.7-3.6,3.7c0,0.3,0,0.7,0.1,1c-1.6,0.6-2.7,2-2.7,3.9c0,2.4,1.9,4.2,4.2,4.2h13
		c2.4,0,4.2-1.8,4.2-4.2C33.6,257.7,32.4,256.2,30.7,255.7L30.7,255.7z M27.8,257.5c-0.4,1.5-1.7,2.6-3.3,2.6c-0.3,0-0.6,0-0.8-0.1
		c-0.3-0.1-0.6-0.2-0.8-0.3l-2.3,2.4c-0.2,0.2-0.4,0.3-0.7,0.3s-0.5-0.1-0.7-0.3c-0.2-0.2-0.3-0.4-0.3-0.7s0.1-0.5,0.3-0.7l2.3-2.4
		c-0.4-0.7-0.5-1.6-0.3-2.4c0.4-1.5,1.7-2.6,3.3-2.6c0.3,0,0.6,0,0.8,0.1c0.9,0.2,1.6,0.8,2.1,1.5C27.9,255.7,28.1,256.6,27.8,257.5
		L27.8,257.5z"/>
	<path style="fill:#FFFFFF;" d="M25.1,254.6c-0.2,0-0.3,0-0.5,0c-0.9,0-1.8,0.6-2,1.6c-0.1,0.6,0,1.2,0.3,1.7
		c0.1,0.2,0.3,0.4,0.6,0.6c0.2,0.1,0.4,0.3,0.7,0.3c0.2,0,0.3,0,0.5,0c0.9,0,1.8-0.6,2-1.6c0.1-0.6,0-1.1-0.3-1.6
		S25.6,254.8,25.1,254.6L25.1,254.6z"/>
</g>
<g>
	
		<line style="fill:none;stroke:#DFDFDE;stroke-width:4;stroke-linecap:round;stroke-linejoin:round;stroke-miterlimit:10;" x1="19.2" y1="-49" x2="20.2" y2="209.9"/>
	
		<circle style="fill:none;stroke:#DFDFDE;stroke-width:4;stroke-linecap:round;stroke-linejoin:round;stroke-miterlimit:10;" cx="20.2" cy="215.4" r="5"/>
</g>
<path d="M23.9,266.7c0.7,0.3,1.3,0.6,2,0.8L56,279.3l-4.5-33.1c-0.5-3.4-1.8-6.7-4-9.5c-6.7-8.5-19.1-10-27.6-3.3
	c-8.5,6.7-10,19.1-3.3,27.6c1.9,2.5,4.4,4.3,7,5.6l0,0L23.9,266.7z"/>
<g>
	<polygon style="fill:#FFFFFF;" points="28.4,255.4 31.1,255.4 31.1,258.1 28.4,258.1 28.4,255.4 	"/>
	<polygon style="fill:#FFFFFF;" points="31.8,253.4 34.5,253.4 34.5,258 31.8,258 31.8,253.4 	"/>
	<polygon style="fill:#FFFFFF;" points="35.1,251.4 37.8,251.4 37.8,258.1 35.1,258.1 35.1,251.4 	"/>
	<path style="fill:#FFFFFF;" d="M35.9,239.8c0-0.1,0-0.2,0-0.3s0-0.3,0-0.3h3.3c0.3,0,0.5,0.3,0.5,0.5L35.9,239.8L35.9,239.8
		L35.9,239.8z M26.5,239.8c0-0.3,0.2-0.5,0.5-0.5h1.9c0,0,0,0.3,0,0.3s0,0.1,0,0.3L26.5,239.8L26.5,239.8L26.5,239.8z M27,262.1
		c-0.3,0-0.5-0.4-0.5-0.8v-1.2H31c-0.4,0.2-0.5,0.6-0.5,1.1c0,0.3,0.1,0.9,0.3,0.9H27L27,262.1L27,262.1z M34.7,262.1
		c0.1,0,0.3-0.5,0.3-0.9c0-0.5-0.1-0.9-0.4-1.1l5.2-0.1v1.3c0,0.3-0.3,0.8-0.6,0.8L34.7,262.1L34.7,262.1L34.7,262.1L34.7,262.1z"/>
	<path style="fill:#FFFFFF;" d="M31.8,261.5c-0.5-0.1-0.6,0.1-0.6-0.3c0-0.3,0.3-0.5,0.6-0.5h2.1c0.3,0.1,0.5,0.2,0.5,0.5
		c0,0.3-0.1,0.3-0.3,0.3H31.8L31.8,261.5L31.8,261.5z M27,259.4v-18.8h12.1v18.8H27L27,259.4L27,259.4z M30.8,240
		c-0.3,0-0.5,0-0.5-0.3c0-0.3,0.2-0.3,0.5-0.3h3.9c0.3,0,0.5,0,0.5,0.3c0,0.3-0.3,0.3-0.5,0.3H30.8L30.8,240L30.8,240z M39.2,238.7
		H26.9c-0.6,0-1.2,0.6-1.2,1.3v21.5c0,0.8,0.5,1.4,1.2,1.4h12.2c0.6,0,1.3-0.6,1.3-1.4v-21.5C40.5,239.2,39.9,238.7,39.2,238.7
		L39.2,238.7z"/>
	<path style="fill:#FFFFFF;" d="M36.3,242h-6.4c-0.8,0-2.1,0.6-2.1,1.4v5.1c0,0.8,1.3,1.4,2.1,1.4h1.2v2l2-2h3.2
		c0.8,0,2.1-0.6,2.1-1.4v-5.1C38.5,242.7,37.1,242,36.3,242L36.3,242z"/>
</g>
</svg>
