<svg id="Layer_1" xmlns="http://www.w3.org/2000/svg" width="480" height="1275" viewBox="0 0 480 1275"><path d="M290.4 967c-37.5 1-72.7 16.1-99.3 42.8-27.6 27.6-42.9 64.4-42.9 103.5 0 39.1 15.2 75.9 42.9 103.5 27.6 27.6 67.1 42.9 103.5 42.9 39.1 0 75.9-15.2 103.5-42.9 27.6-27.6 42.9-64.4 42.9-103.5 0-39.1-15.2-75.9-42.9-103.5-26.2-26.2-60.5-41.2-97.2-42.7l-10.5-.1z" fill="#FFF"/><path fill="none" d="M296.8 1058.8h8.5v10.2h-8.5z"/><path d="M306.8 1058v11.6c0 .4-.3.7-.7.7h-9.3v8.3h66.4v-92h-66.4v70.7h9.3c.4 0 .7.3.7.7zM277.1 1069.7V1058c0-.4.3-.7.7-.7h9.4v-70.7h-66.4v92.1h66.4v-8.3h-9.4c-.4 0-.7-.3-.7-.7z" fill="none"/><path fill="none" d="M278.6 1058.8h8.7v10.2h-8.7zM296.8 1037.6h7.1v10.2h-7.1zM280 1037.6h7.2v10.2H280z"/><path d="M411.1 994.6c-2.6 0-4.6.9-4.6 1.8v8.4c0 .9 2.1 1.8 4.6 1.8 2.6 0 4.6-.8 4.6-1.8v-8.4c0-.9-2.1-1.8-4.6-1.8zm-4.5 10.6c0-.1 0-.1 0 0zm3.2-5.3c-.3 0-.4-.1-.4.2v.6c0 .5-.1.8-.4.9.3.1.4.5.4 1.1v.8c0 .2 0 .2.1.3.1.1.2.1.3.1v.6c-.5 0-.8-.1-1-.3s-.3-.5-.3-1v-.8c0-.4-.2-.4-.4-.4v-.9c.3 0 .4 0 .4-.4v-.6c0-.4.1-.7.3-.8.2-.2.5-.2 1-.2v.8zm4.5 1.6v.7c-.3 0-.4 0-.4.4v.8c0 .5-.1.8-.3 1-.2.2-.5.3-1.1.3v-.6c.1 0 .3 0 .3-.1.1-.1.1-.1.1-.3v-.8c0-.6.1-.9.4-1.1-.3-.1-.4-.4-.4-.9v-.6c0-.3-.2-.2-.4-.2v-.7c.5 0 .8.1 1 .2.2.2.3.4.3.8v.6c0 .4.1.3.4.3v.2h.1zm-3.2-4.3c-1.8 0-3.3-.4-3.3-1s1.5-1 3.3-1 3.3.4 3.3 1-1.5 1-3.3 1z" fill="#FFF"/><g fill="#FFF"><path d="M422 1014c0-.4 1.2-.7 2.8-.7s2.8.3 2.8.7-1.2.7-2.8.7-2.8-.3-2.8-.7zm2.4 9.3v-6.7c0-.8 1.3-1.2 3.2-1.2.4 0 .8 0 1.2.1v-1.5c0-.7-1.8-1.3-4.1-1.3s-4.1.6-4.1 1.3v8.6c0 .7 1.8 1.3 4.1 1.3h.3c-.4-.2-.6-.4-.6-.6z"/><path d="M427.8 1017.6c-1.1 0-2-.2-2-.5s.9-.5 2-.5 2 .2 2 .5c0 .2-.9.5-2 .5zm1.7 2.7l-3.7 3 1.4-2.3H426l3.7-3-1.4 2.3h1.2zm-1.7-4.3c-1.6 0-2.9.4-2.9.9v6.2c0 .5 1.2 1 2.9 1 1.6 0 3-.4 3-.9v-6.2c-.1-.6-1.4-1-3-1z"/></g><g fill="#FFF"><path d="M432.4 1036.2H443l-2.8-2.5v1.3h-7.7v-1c0-.5.2-.9.7-.9h7.8c.5 0 1 .4 1 .9v.5l1 .8v-1.3c0-1-.9-1.9-1.9-1.9h-7.9c-1 0-1.7.8-1.7 1.9v2.3h.9v-.1zM442 1036.9h-10.6l2.7 2.5v-1.5h8v1.3c0 .5-.5 1-1 1h-7.8c-.5 0-.7-.5-.7-1v-.5l-1-.8v1.3c0 1 .7 1.6 1.7 1.6h1.7l3.9 2.8-.3-2.8h2.6c1 0 1.9-.6 1.9-1.6v-2.2l-1.1-.1z"/></g><g fill="#010101"><path d="M269.2 1151.8v-5.2h1.5c1.9 0 2.9.8 2.9 2.5 0 .8-.3 1.4-.8 1.9s-1.2.7-2.1.7h-1.5v.1zm.9-4.4v3.7h.7c.6 0 1.1-.2 1.4-.5.3-.3.5-.8.5-1.4 0-1.2-.6-1.8-1.9-1.8h-.7zM278.6 1151.8h-.9l-.5-1.3h-2l-.4 1.3h-.9l1.9-5.2h1l1.8 5.2zm-1.6-2l-.7-2.1c0-.1 0-.2-.1-.3 0 .1 0 .2-.1.3l-.7 2.1h1.6zM282.1 1147.4h-1.5v4.4h-.9v-4.4h-1.5v-.7h3.8l.1.7zM286.6 1151.8h-.9l-.5-1.3h-2l-.4 1.3h-.9l1.9-5.2h1l1.8 5.2zm-1.6-2l-.7-2.1c0-.1 0-.2-.1-.3 0 .1 0 .2-.1.3l-.7 2.1h1.6zM287.3 1151.8v-5.2h1.6c.5 0 .9.1 1.2.3.3.2.4.5.4.9 0 .3-.1.5-.2.8-.2.2-.4.4-.7.5.4 0 .6.2.9.4.2.2.3.5.3.9s-.2.8-.5 1.1c-.3.3-.8.4-1.3.4l-1.7-.1zm.9-4.5v1.5h.6c.3 0 .5-.1.7-.2s.3-.3.3-.6c0-.4-.3-.7-.9-.7h-.7zm0 2.2v1.6h.7c.3 0 .6-.1.7-.2.2-.1.3-.4.3-.6 0-.5-.4-.8-1.1-.8h-.6zM296 1151.8h-.9l-.5-1.3h-2l-.4 1.3h-.9l1.9-5.2h1l1.8 5.2zm-1.6-2l-.7-2.1c0-.1 0-.2-.1-.3 0 .1 0 .2-.1.3l-.7 2.1h1.6zM296.5 1151.6v-.9c.1.1.2.1.3.2.1.1.2.1.3.1s.2.1.4.1h.3c.4 0 .6-.1.8-.2s.3-.3.3-.5c0-.1 0-.2-.1-.3-.1-.1-.1-.2-.2-.2-.1-.1-.2-.1-.4-.2-.1-.1-.3-.1-.5-.2s-.3-.2-.5-.3c-.2-.1-.3-.2-.4-.3s-.2-.2-.3-.4c-.1-.1-.1-.3-.1-.5s.1-.5.2-.6c.1-.2.3-.3.4-.4l.6-.3c.2-.1.5-.1.7-.1.5 0 .9.1 1.2.2v.8c-.3-.2-.7-.3-1.1-.3h-.4c-.1 0-.2.1-.3.1-.1.1-.2.1-.2.2-.1.1-.1.2-.1.3s0 .2.1.3c0 .1.1.2.2.2.1.1.2.1.3.2.1.1.3.1.5.2s.4.2.5.3c.2.1.3.2.4.3s.2.3.3.4c.1.2.1.3.1.5 0 .3-.1.5-.2.7s-.2.3-.4.4-.4.2-.6.2c-.2 0-.5.1-.7.1h-.3c-.1 0-.3 0-.4-.1-.1 0-.3-.1-.4-.1-.1.2-.2.2-.3.1zM303.7 1151.8h-2.9v-5.2h2.8v.7h-1.9v1.5h1.8v.7h-1.8v1.5h2v.8zM310 1147.4h-1.5v4.4h-.9v-4.4h-1.5v-.7h3.8v.7h.1zM311.6 1151.8h-.9v-5.2h.9v5.2zM315.8 1151.8h-2.9v-5.2h2.8v.7h-1.9v1.5h1.8v.7h-1.8v1.5h2v.8zM320.7 1151.8h-1l-.8-1.4c-.1-.1-.1-.2-.2-.3s-.1-.2-.2-.2c-.1-.1-.2-.1-.2-.1h-.6v2.1h-.9v-5.2h1.7c.2 0 .5 0 .7.1.2.1.4.1.5.3.2.1.3.3.4.4.1.2.1.4.1.6 0 .2 0 .4-.1.5-.1.2-.1.3-.2.4s-.2.2-.4.3c-.1.1-.3.1-.5.2.1.1.2.1.2.2l.2.2.2.2c.1.1.1.2.2.3l.9 1.4zm-3.1-4.5v1.7h.7c.1 0 .3 0 .4-.1.1 0 .2-.1.3-.2.1-.1.1-.2.2-.3 0-.1.1-.2.1-.4s-.1-.4-.2-.6c-.2-.1-.4-.2-.7-.2h-.8v.1z"/></g><path d="M294.4 1133.4c-2.9 0-5.3 2.4-5.3 5.3s2.4 5.3 5.3 5.3 5.3-2.4 5.3-5.3c0-3-2.4-5.3-5.3-5.3zm1.6 3.6c-.2.3-.3.6-.5.9-.2.3-.3.6-.4.9l-.3.9c-.1.3-.2.6-.2 1h-.7c0-.3.1-.6.2-.9l.3-.9c.1-.3.2-.6.4-.9.1-.3.3-.6.5-.9h-2v-.6h2.8v.5h-.1z" fill="#010101"/><path d="M295.7 973c-2.6 0-4.8-1.9-5.2-4.4-77.9 2.2-140.6 66.3-140.6 144.7 0 79.8 64.9 144.8 144.8 144.8s144.8-64.9 144.8-144.8c0-77.7-61.6-141.4-138.5-144.6-.6 2.4-2.8 4.3-5.3 4.3z" fill="none"/><g fill="#686969"><path d="M269 1023.1v1.9h-.9v-5.2h1.6c.6 0 1.1.1 1.4.4s.5.7.5 1.2-.2.9-.5 1.2c-.3.3-.8.5-1.4.5h-.7zm0-2.6v1.9h.6c.4 0 .6-.1.8-.3.2-.2.3-.4.3-.7 0-.6-.4-.9-1.1-.9h-.6zM276.2 1025h-.9l-.5-1.3h-2l-.4 1.3h-.9l1.9-5.2h1l1.8 5.2zm-1.6-2l-.7-2.1c0-.1 0-.2-.1-.3 0 .1 0 .2-.1.3l-.7 2.1h1.6zM281.2 1025h-.9l-.5-1.3h-2l-.4 1.3h-.9l1.9-5.2h1l1.8 5.2zm-1.7-2l-.7-2.1c0-.1 0-.2-.1-.3 0 .1 0 .2-.1.3l-.7 2.1h1.6zM281.6 1024.8v-.9c.1.1.2.1.3.2.1.1.2.1.3.1s.2.1.4.1h.3c.4 0 .6-.1.8-.2s.3-.3.3-.5c0-.1 0-.2-.1-.3-.1-.1-.1-.2-.2-.2-.1-.1-.2-.1-.4-.2-.1-.1-.3-.1-.5-.2s-.3-.2-.5-.3c-.2-.1-.3-.2-.4-.3-.1-.1-.2-.2-.3-.4-.1-.1-.1-.3-.1-.5s.1-.5.2-.6l.4-.4.6-.3c.2-.1.5-.1.7-.1.5 0 .9.1 1.2.2v.8c-.3-.2-.7-.3-1.1-.3h-.4c-.1 0-.2.1-.3.1-.1.1-.2.1-.2.2-.1.1-.1.2-.1.3 0 .1 0 .2.1.3.1.1.1.2.2.2.1.1.2.1.3.2s.3.1.5.2.4.2.5.3c.2.1.3.2.4.3.1.1.2.3.3.4.1.2.1.3.1.5 0 .3-.1.5-.2.7-.1.2-.2.3-.4.4s-.4.2-.6.2-.5.1-.7.1h-.3c-.1 0-.3 0-.4-.1-.1 0-.3-.1-.4-.1-.1.2-.2.1-.3.1zM290.1 1025.1c-.7 0-1.3-.2-1.8-.7s-.7-1.1-.7-1.9.2-1.5.7-2 1.1-.7 1.9-.7c.7 0 1.3.2 1.8.7.4.5.7 1.1.7 1.9 0 .8-.2 1.5-.7 2-.6.4-1.2.7-1.9.7zm0-4.6c-.5 0-.9.2-1.2.5-.3.3-.4.8-.4 1.4 0 .6.1 1 .4 1.4s.7.5 1.1.5c.5 0 .9-.2 1.2-.5s.4-.8.4-1.4c0-.6-.1-1.1-.4-1.4s-.6-.5-1.1-.5zM297.6 1019.8l-1.9 5.2h-1l-1.8-5.2h.9l1.3 3.9c0 .1.1.3.1.4 0-.1.1-.3.1-.4l1.3-3.9h1zM301.2 1025h-2.9v-5.2h2.8v.7h-1.9v1.5h1.8v.7h-1.8v1.5h2v.8zM306.1 1025h-1l-.8-1.4c-.1-.1-.1-.2-.2-.3-.1-.1-.1-.2-.2-.2-.1-.1-.2-.1-.2-.1h-.6v2.1h-.9v-5.2h1.7c.2 0 .5 0 .7.1s.4.1.5.3c.2.1.3.3.4.4.1.2.1.4.1.6s0 .4-.1.5c-.1.2-.1.3-.2.4-.1.1-.2.2-.4.3-.1.1-.3.1-.5.2.1.1.2.1.2.2l.2.2.2.2c.1.1.1.2.2.3l.9 1.4zm-3.2-4.5v1.7h.7c.1 0 .3 0 .4-.1.1 0 .2-.1.3-.2.1-.1.1-.2.2-.3 0-.1.1-.2.1-.4s-.1-.4-.2-.6c-.2-.1-.4-.2-.7-.2l-.8.1zM309.6 1025h-.9v-5.2h.9v5.2zM315.1 1025h-.9l-.5-1.3h-2l-.4 1.3h-.9l1.9-5.2h1l1.8 5.2zm-1.6-2l-.7-2.1c0-.1 0-.2-.1-.3 0 .1 0 .2-.1.3l-.7 2.1h1.6zM320.1 1025h-.9l-.5-1.3h-2l-.4 1.3h-.9l1.9-5.2h1l1.8 5.2zm-1.6-2l-.7-2.1c0-.1 0-.2-.1-.3 0 .1 0 .2-.1.3l-.7 2.1h1.6zM320.6 1024.8v-.9c.1.1.2.1.3.2.1.1.2.1.3.1.1 0 .2.1.4.1h.3c.4 0 .6-.1.8-.2s.3-.3.3-.5c0-.1 0-.2-.1-.3-.1-.1-.1-.2-.2-.2-.1-.1-.2-.1-.4-.2-.1-.1-.3-.1-.5-.2s-.3-.2-.5-.3c-.2-.1-.3-.2-.4-.3-.1-.1-.2-.2-.3-.4-.1-.1-.1-.3-.1-.5s.1-.5.2-.6c.1-.2.3-.3.4-.4l.6-.3c.2-.1.5-.1.7-.1.5 0 .9.1 1.2.2v.8c-.3-.2-.7-.3-1.1-.3h-.4c-.1 0-.2.1-.3.1-.1.1-.2.1-.2.2-.1.1-.1.2-.1.3 0 .1 0 .2.1.3.1.1.1.2.2.2.1.1.2.1.3.2.1.1.3.1.5.2s.4.2.5.3c.2.1.3.2.4.3.1.1.2.3.3.4.1.2.1.3.1.5 0 .3-.1.5-.2.7-.1.2-.2.3-.4.4s-.4.2-.6.2-.5.1-.7.1h-.3c-.1 0-.3 0-.4-.1-.1 0-.3-.1-.4-.1-.2.2-.3.1-.3.1z"/></g><g fill="#686969"><path d="M323.7 1106.6v-4.1h1.2c1.5 0 2.3.7 2.3 2 0 .6-.2 1.2-.6 1.5-.4.4-1 .6-1.7.6h-1.2zm.7-3.5v3h.5c.5 0 .9-.1 1.1-.4.3-.3.4-.6.4-1.1 0-1-.5-1.5-1.5-1.5h-.5zM329.6 1106.7c-.6 0-1.1-.2-1.4-.6-.4-.4-.5-.9-.5-1.5 0-.7.2-1.2.5-1.6.4-.4.9-.6 1.5-.6s1 .2 1.4.6.5.9.5 1.5c0 .7-.2 1.2-.5 1.6-.4.4-.9.6-1.5.6zm.1-3.7c-.4 0-.7.1-.9.4-.2.3-.4.7-.4 1.1 0 .5.1.8.3 1.1.2.3.5.4.9.4s.7-.1.9-.4c.2-.3.3-.6.3-1.1s-.1-.9-.3-1.1c-.2-.2-.5-.4-.8-.4zM335.3 1106.5c-.3.2-.7.2-1.2.2-.6 0-1.1-.2-1.4-.6-.4-.4-.5-.9-.5-1.5 0-.7.2-1.2.6-1.6s.9-.6 1.5-.6c.4 0 .7.1 1 .2v.7c-.3-.2-.6-.2-.9-.2-.4 0-.8.1-1.1.4-.3.3-.4.7-.4 1.1 0 .5.1.8.4 1.1.3.3.6.4 1 .4s.7-.1 1-.3v.7zM339.2 1106.6h-.9l-1.4-1.9-.1-.1v2h-.7v-4.1h.7v1.9l.1-.1 1.4-1.8h.8l-1.6 2 1.7 2.1zM342 1106.6h-2.3v-4.1h2.2v.6h-1.5v1.2h1.4v.6h-1.4v1.2h1.6v.5zM345.9 1106.6h-.8l-.7-1.1c-.1-.1-.1-.2-.2-.3l-.2-.2c-.1 0-.1-.1-.2-.1h-.5v1.7h-.7v-4.1h1.4c.2 0 .4 0 .5.1.2 0 .3.1.4.2l.3.3c.1.1.1.3.1.5 0 .1 0 .3-.1.4 0 .1-.1.2-.2.3-.1.1-.2.2-.3.2-.1.1-.2.1-.4.2.1 0 .1.1.2.1l.2.2c0 .1.1.1.1.2s.1.1.2.2l.9 1.2zm-2.5-3.6v1.3H344.3c.1 0 .2-.1.2-.1l.2-.2c0-.1.1-.2.1-.3 0-.2-.1-.4-.2-.5-.1-.1-.3-.2-.5-.2h-.7zM351.3 1102.5l-1.5 4.1h-.8l-1.5-4.1h.8l1 3.1c0 .1.1.2.1.3 0-.1 0-.2.1-.4l1-3.1.8.1zM356.3 1106.6h-.7v-2.7-.8c0 .2-.1.3-.1.4l-1.2 3.1h-.5l-1.2-3.1c0-.1-.1-.2-.1-.4v3.5h-.6v-4.1h1l1.1 2.8c.1.2.1.4.2.5.1-.2.1-.4.2-.5l1.1-2.7h.9l-.1 4zM327 1113.7h-2.3v-4.1h2.2v.6h-1.5v1.2h1.4v.6h-1.4v1.2h1.6v.5zM330.9 1113.7h-.9l-.8-1.5s-.1-.1-.1-.2c0 0 0 .1-.1.2l-.9 1.5h-.8l1.4-2.1-1.2-2.1h.8l.7 1.4c0 .1.1.2.1.3.1-.1.1-.2.1-.3l.8-1.4h.8l-1.3 2.1 1.4 2.1zM334.2 1110.2H333v3.6h-.7v-3.6h-1.2v-.6h3.1v.6zM337.1 1113.7h-2.3v-4.1h2.2v.6h-1.5v1.2h1.4v.6h-1.4v1.2h1.6v.5zM341.4 1113.7h-.8l-2-3c-.1-.1-.1-.2-.1-.2V1113.8h-.7v-4.1h.8l1.9 3c.1.1.1.2.2.3V1109.7h.7v4zM342.2 1113.6v-.7l.2.2c.1 0 .2.1.3.1.1 0 .2.1.3.1h.3c.3 0 .5 0 .6-.1.1-.1.2-.2.2-.4 0-.1 0-.2-.1-.3 0-.1-.1-.1-.2-.2s-.2-.1-.3-.2c-.1-.1-.2-.1-.4-.2-.1-.1-.3-.2-.4-.2l-.3-.3c-.1-.1-.2-.2-.2-.3-.1-.1-.1-.3-.1-.4 0-.2 0-.4.1-.5.1-.1.2-.3.3-.4.1-.1.3-.2.5-.2s.4-.1.6-.1c.4 0 .7 0 .9.1v.7c-.2-.2-.5-.3-.9-.3h-.3c-.1 0-.2.1-.3.1-.1 0-.1.1-.2.2 0 .1-.1.2-.1.3 0 .1 0 .2.1.2 0 .1.1.1.2.2s.2.1.3.2c.1.1.2.1.4.2.1.1.3.2.4.2l.3.3c.1.1.2.2.2.3.1.1.1.3.1.4 0 .2 0 .4-.1.5-.1.1-.2.3-.3.4-.1.1-.3.2-.5.2s-.4.1-.6.1h-.6c-.1 0-.2 0-.3-.1 0-.1 0-.1-.1-.1zM346.3 1113.7h-.7v-4.1h.7v4.1zM349 1113.8c-.6 0-1.1-.2-1.4-.6-.4-.4-.5-.9-.5-1.5 0-.7.2-1.2.5-1.6.4-.4.9-.6 1.5-.6s1 .2 1.4.6.5.9.5 1.5c0 .7-.2 1.2-.5 1.6-.4.4-.9.6-1.5.6zm.1-3.7c-.4 0-.7.1-.9.4-.2.3-.4.7-.4 1.1 0 .5.1.8.3 1.1.2.3.5.4.9.4s.7-.1.9-.4c.2-.3.3-.6.3-1.1s-.1-.9-.3-1.1c-.1-.3-.4-.4-.8-.4zM355.3 1113.7h-.8l-2-3c-.1-.1-.1-.2-.1-.2V1113.8h-.7v-4.1h.8l1.9 3c.1.1.1.2.2.3V1109.7h.7v4z"/></g><g fill="#686969"><path d="M233.3 1106.6v-4.1h1.2c1.5 0 2.3.7 2.3 2 0 .6-.2 1.2-.6 1.5-.4.4-1 .6-1.7.6h-1.2zm.7-3.5v3h.5c.5 0 .9-.1 1.1-.4.3-.3.4-.6.4-1.1 0-1-.5-1.5-1.5-1.5h-.5zM239.3 1106.7c-.6 0-1.1-.2-1.4-.6-.4-.4-.5-.9-.5-1.5 0-.7.2-1.2.5-1.6.4-.4.9-.6 1.5-.6s1 .2 1.4.6.5.9.5 1.5c0 .7-.2 1.2-.5 1.6-.4.4-.9.6-1.5.6zm0-3.7c-.4 0-.7.1-.9.4-.2.3-.4.7-.4 1.1 0 .5.1.8.3 1.1.2.3.5.4.9.4s.7-.1.9-.4c.2-.3.3-.6.3-1.1s-.1-.9-.3-1.1c-.1-.2-.4-.4-.8-.4zM244.9 1106.5c-.3.2-.7.2-1.2.2-.6 0-1.1-.2-1.4-.6-.4-.4-.5-.9-.5-1.5 0-.7.2-1.2.6-1.6.4-.4.9-.6 1.5-.6.4 0 .7.1 1 .2v.7c-.3-.2-.6-.2-.9-.2-.4 0-.8.1-1.1.4-.3.3-.4.7-.4 1.1 0 .5.1.8.4 1.1.3.3.6.4 1 .4s.7-.1 1-.3v.7zM248.8 1106.6h-.9l-1.4-1.9-.1-.1v2h-.7v-4.1h.7v1.9l.1-.1 1.4-1.8h.8l-1.6 2 1.7 2.1zM251.6 1106.6h-2.3v-4.1h2.2v.6H250v1.2h1.4v.6H250v1.2h1.6v.5zM255.6 1106.6h-.8l-.7-1.1c-.1-.1-.1-.2-.2-.3l-.2-.2c-.1 0-.1-.1-.2-.1h-.5v1.7h-.7v-4.1h1.4c.2 0 .4 0 .5.1.2 0 .3.1.4.2l.3.3c.1.1.1.3.1.5 0 .1 0 .3-.1.4 0 .1-.1.2-.2.3-.1.1-.2.2-.3.2-.1.1-.2.1-.4.2.1 0 .1.1.2.1l.2.2c0 .1.1.1.1.2s.1.1.2.2l.9 1.2zm-2.5-3.6v1.3H254c.1 0 .2-.1.2-.1l.2-.2c0-.1.1-.2.1-.3 0-.2-.1-.4-.2-.5-.1-.1-.3-.2-.5-.2h-.7zM260.9 1102.5l-1.5 4.1h-.8l-1.5-4.1h.8l1 3.1c0 .1.1.2.1.3 0-.1 0-.2.1-.4l1-3.1.8.1zM265.9 1106.6h-.7v-2.7-.8c0 .2-.1.3-.1.4l-1.2 3.1h-.5l-1.2-3.1c0-.1-.1-.2-.1-.4v3.5h-.6v-4.1h1l1.1 2.8c.1.2.1.4.2.5.1-.2.1-.4.2-.5l1.1-2.7h.9l-.1 4zM236.6 1113.7h-2.3v-4.1h2.2v.6H235v1.2h1.4v.6H235v1.2h1.6v.5zM240.5 1113.7h-.8l-.8-1.5s-.1-.1-.1-.2c0 0 0 .1-.1.2l-.9 1.5h-.8l1.4-2.1-1.2-2.1h.8l.7 1.4c0 .1.1.2.1.3.1-.1.1-.2.1-.3l.8-1.4h.8l-1.3 2.1 1.3 2.1zM243.8 1110.2h-1.2v3.6h-.7v-3.6h-1.2v-.6h3.1v.6zM246.8 1113.7h-2.3v-4.1h2.2v.6h-1.5v1.2h1.4v.6h-1.4v1.2h1.6v.5zM251 1113.7h-.8l-2-3c-.1-.1-.1-.2-.1-.2V1113.8h-.7v-4.1h.8l1.9 3c.1.1.1.2.2.3V1109.7h.7v4zM251.8 1113.6v-.7l.2.2c.1 0 .2.1.3.1s.2.1.3.1h.3c.3 0 .5 0 .6-.1.1-.1.2-.2.2-.4 0-.1 0-.2-.1-.3 0-.1-.1-.1-.2-.2s-.2-.1-.3-.2-.2-.1-.4-.2c-.1-.1-.3-.2-.4-.2l-.3-.3c-.1-.1-.2-.2-.2-.3-.1-.1-.1-.3-.1-.4 0-.2 0-.4.1-.5.1-.1.2-.3.3-.4s.3-.2.5-.2.4-.1.6-.1c.4 0 .7 0 .9.1v.7c-.2-.2-.5-.3-.9-.3h-.3c-.1 0-.2.1-.3.1s-.1.1-.2.2c0 .1-.1.2-.1.3 0 .1 0 .2.1.2 0 .1.1.1.2.2s.2.1.3.2.2.1.4.2c.1.1.3.2.4.2s.2.2.3.3.2.2.2.3c.1.1.1.3.1.4 0 .2 0 .4-.1.5-.1.1-.2.3-.3.4s-.3.2-.5.2-.4.1-.6.1h-.6c-.1 0-.2 0-.4-.2.2 0 .1 0 0 0zM256 1113.7h-.7v-4.1h.7v4.1zM258.7 1113.8c-.6 0-1.1-.2-1.4-.6-.4-.4-.5-.9-.5-1.5 0-.7.2-1.2.5-1.6.4-.4.9-.6 1.5-.6s1 .2 1.4.6c.4.4.5.9.5 1.5 0 .7-.2 1.2-.5 1.6-.3.4-.9.6-1.5.6zm0-3.7c-.4 0-.7.1-.9.4-.2.3-.4.7-.4 1.1 0 .5.1.8.3 1.1.2.3.5.4.9.4s.7-.1.9-.4c.2-.3.3-.6.3-1.1s-.1-.9-.3-1.1c-.1-.3-.4-.4-.8-.4zM265 1113.7h-.8l-2-3c-.1-.1-.1-.2-.1-.2V1113.8h-.7v-4.1h.8l1.9 3c.1.1.1.2.2.3V1109.7h.7v4z"/></g><g fill="#686969"><path d="M319.2 1132.2h-.8l-.4-1.1h-1.6l-.4 1.1h-.8l1.6-4.1h.8l1.6 4.1zm-1.3-1.6l-.6-1.7c0-.1 0-.1-.1-.3 0 .1 0 .2-.1.3l-.6 1.7h1.4zM322.7 1128.4l-2.3 3.3h2.2v.6h-3.2v-.3l2.3-3.2h-2.1v-.6h3.1v.2zM326.6 1130.5c0 1.2-.6 1.7-1.7 1.7s-1.6-.6-1.6-1.7v-2.5h.7v2.4c0 .8.3 1.2.9 1.2s.9-.4.9-1.2v-2.4h.7v2.5h.1zM330.7 1132.2h-.8l-.7-1.1c-.1-.1-.1-.2-.2-.3l-.2-.2c-.1 0-.1-.1-.2-.1h-.5v1.7h-.7v-4.1h1.4c.2 0 .4 0 .5.1.2 0 .3.1.4.2l.3.3c.1.1.1.3.1.5 0 .1 0 .3-.1.4 0 .1-.1.2-.2.3-.1.1-.2.2-.3.2s-.2.1-.4.2c.1 0 .1.1.2.1l.2.2c0 .1.1.1.1.2s.1.1.2.2l.9 1.2zm-2.5-3.6v1.3H329.1c.1 0 .2-.1.2-.1l.2-.2c0-.1.1-.2.1-.3 0-.2-.1-.4-.2-.5-.1-.1-.3-.2-.5-.2h-.7zM333.5 1132.2h-2.3v-4.1h2.2v.6h-1.5v1.2h1.4v.6h-1.4v1.2h1.6v.5zM339.2 1128.1l-1.5 4.1h-.8l-1.5-4.1h.8l1 3.1c0 .1.1.2.1.3 0-.1 0-.2.1-.4l1-3.1.8.1zM344.2 1132.2h-.7v-2.7-.8c0 .2-.1.3-.1.4l-1.2 3.1h-.5l-1.2-3.1c0-.1-.1-.2-.1-.4v3.5h-.6v-4.1h1l1.1 2.8c.1.2.1.4.2.5.1-.2.1-.4.2-.5l1.1-2.7h.9l-.1 4zM346.8 1132.2v-4.1h1.3c.4 0 .7.1 1 .3.2.2.4.4.4.7 0 .2-.1.4-.2.6-.1.2-.3.3-.6.4.3 0 .5.1.7.3.2.2.3.4.3.7 0 .4-.1.6-.4.9-.3.2-.6.3-1.1.3l-1.4-.1zm.7-3.6v1.2h.4c.2 0 .4-.1.6-.2.1-.1.2-.3.2-.5 0-.4-.2-.5-.7-.5h-.5zm0 1.8v1.3h.6c.3 0 .5-.1.6-.2s.2-.3.2-.5c0-.4-.3-.6-.9-.6h-.5z"/></g><g fill="#686969"><path d="M243.1 1132.2h-.8l-.4-1.1h-1.6l-.4 1.1h-.8l1.6-4.1h.8l1.6 4.1zm-1.3-1.6l-.6-1.7c0-.1 0-.1-.1-.3 0 .1 0 .2-.1.3l-.6 1.7h1.4zM246.6 1128.4l-2.3 3.3h2.2v.6h-3.2v-.3l2.3-3.2h-2.1v-.6h3.1v.2zM250.4 1130.5c0 1.2-.6 1.7-1.7 1.7s-1.6-.6-1.6-1.7v-2.5h.7v2.4c0 .8.3 1.2.9 1.2.6 0 .9-.4.9-1.2v-2.4h.7v2.5h.1zM254.6 1132.2h-.8l-.7-1.1c-.1-.1-.1-.2-.2-.3l-.2-.2c-.1 0-.1-.1-.2-.1h-.5v1.7h-.7v-4.1h1.4c.2 0 .4 0 .5.1.2 0 .3.1.4.2l.3.3c.1.1.1.3.1.5 0 .1 0 .3-.1.4 0 .1-.1.2-.2.3-.1.1-.2.2-.3.2s-.2.1-.4.2c.1 0 .1.1.2.1l.2.2c0 .1.1.1.1.2s.1.1.2.2l.9 1.2zm-2.5-3.6v1.3H253c.1 0 .2-.1.2-.1l.2-.2c0-.1.1-.2.1-.3 0-.2-.1-.4-.2-.5-.1-.1-.3-.2-.5-.2h-.7zM257.4 1132.2h-2.3v-4.1h2.2v.6h-1.5v1.2h1.4v.6h-1.4v1.2h1.6v.5zM263 1128.1l-1.5 4.1h-.8l-1.5-4.1h.8l1 3.1c0 .1.1.2.1.3 0-.1 0-.2.1-.4l1-3.1.8.1zM268 1132.2h-.7v-2.7-.8c0 .2-.1.3-.1.4l-1.2 3.1h-.5l-1.2-3.1c0-.1-.1-.2-.1-.4v3.5h-.6v-4.1h1l1.1 2.8c.1.2.1.4.2.5.1-.2.1-.4.2-.5l1.1-2.7h.9l-.1 4zM274.1 1132.2h-.8l-.4-1.1h-1.6l-.4 1.1h-.8l1.6-4.1h.8l1.6 4.1zm-1.4-1.6l-.6-1.7c0-.1 0-.1-.1-.3 0 .1 0 .2-.1.3l-.6 1.7h1.4z"/></g><g fill="#686969"><path d="M289.3 1089.4h-.7v-4.1h.7v4.1zM293.7 1089.4h-.7l-.4-1.1H291l-.4 1.1h-.8l1.6-4.1h.8l1.5 4.1zm-1.3-1.6l-.6-1.7c0-.1 0-.1-.1-.3 0 .1 0 .2-.1.3l-.6 1.7h1.4zM297.7 1089.4h-.7l-.4-1.1H295l-.4 1.1h-.8l1.6-4.1h.8l1.5 4.1zm-1.3-1.6l-.6-1.7c0-.1 0-.1-.1-.3 0 .1 0 .2-.1.3l-.6 1.7h1.4zM298.1 1089.2v-.7l.2.2c.1 0 .2.1.3.1s.2.1.3.1h.3c.3 0 .5 0 .6-.1.1-.1.2-.2.2-.4 0-.1 0-.2-.1-.3 0-.1-.1-.1-.2-.2s-.2-.1-.3-.2c-.1-.1-.2-.1-.4-.2-.1-.1-.3-.2-.4-.2l-.3-.3c-.1-.1-.2-.2-.2-.3-.1-.1-.1-.3-.1-.4 0-.2 0-.4.1-.5.1-.1.2-.3.3-.4s.3-.2.5-.2.4-.1.6-.1c.4 0 .7 0 .9.1v.7c-.2-.2-.5-.3-.9-.3h-.3c-.1 0-.2.1-.3.1s-.1.1-.2.2c0 .1-.1.2-.1.3 0 .1 0 .2.1.2s.1.1.2.2.2.1.3.2c.1.1.2.1.4.2.1.1.3.2.4.2l.3.3c.1.1.2.2.2.3.1.1.1.3.1.4 0 .2 0 .4-.1.5-.1.1-.2.3-.3.4s-.3.2-.5.2-.4.1-.6.1h-.6c-.1 0-.2 0-.3-.1 0 0-.1 0-.1-.1z"/></g><g fill="#686969"><path d="M283.9 1110v-.7l.2.2c.1 0 .2.1.3.1s.2.1.3.1h.3c.3 0 .5 0 .6-.1s.2-.2.2-.4c0-.1 0-.2-.1-.3 0-.1-.1-.1-.2-.2s-.2-.1-.3-.2c-.1-.1-.2-.1-.4-.2-.1-.1-.3-.2-.4-.2l-.3-.3c-.1-.1-.2-.2-.2-.3-.1-.1-.1-.3-.1-.4 0-.2 0-.4.1-.5.1-.1.2-.3.3-.4.1-.1.3-.2.5-.2s.4-.1.6-.1c.4 0 .7 0 .9.1v.7c-.2-.2-.5-.3-.9-.3h-.3c-.1 0-.2.1-.3.1s-.1.1-.2.2c0 .1-.1.2-.1.3 0 .1 0 .2.1.2 0 .1.1.1.2.2s.2.1.3.2c.1.1.2.1.4.2.1.1.3.2.4.2l.3.3c.1.1.2.2.2.3.1.1.1.3.1.4 0 .2 0 .4-.1.5-.1.1-.2.3-.3.4s-.3.2-.5.2-.4.1-.6.1h-.6c-.1 0-.2 0-.3-.1.1 0 0 0-.1-.1zM292.5 1106.1l-1.1 4.1h-.8l-.8-2.9c0-.1-.1-.3-.1-.4 0 .1 0 .3-.1.4l-.8 2.9h-.8l-1.2-4.1h.8l.8 3c0 .1.1.3.1.4 0-.1 0-.2.1-.4l.8-3h.7l.8 3.1c0 .1 0 .2.1.4 0-.1 0-.2.1-.4l.7-3 .7-.1zM296.3 1110.2h-.8l-.4-1.1h-1.6l-.4 1.1h-.8l1.6-4.1h.8l1.6 4.1zm-1.4-1.6l-.6-1.7c0-.1 0-.1-.1-.3 0 .1 0 .2-.1.3l-.6 1.7h1.4zM300 1110.2h-.8l-.7-1.1c-.1-.1-.1-.2-.2-.3l-.2-.2c-.1 0-.1-.1-.2-.1h-.5v1.7h-.7v-4.1h1.4c.2 0 .4 0 .5.1.2 0 .3.1.4.2l.3.3c.1.1.1.3.1.5 0 .1 0 .3-.1.4 0 .1-.1.2-.2.3-.1.1-.2.2-.3.2-.1.1-.2.1-.4.2.1 0 .1.1.2.1l.2.2c0 .1.1.1.1.2s.1.1.2.2l.9 1.2zm-2.5-3.6v1.3H298.4c.1 0 .2-.1.2-.1l.2-.2c0-.1.1-.2.1-.3 0-.2-.1-.4-.2-.5-.1-.1-.3-.2-.5-.2h-.7zM305 1110.2h-.7v-2.7-.8c0 .2-.1.3-.1.4l-1.2 3.1h-.5l-1.2-3.1c0-.1-.1-.2-.1-.4v3.5h-.6v-4.1h1l1.1 2.8c.1.2.1.4.2.5.1-.2.1-.4.2-.5l1.1-2.7h.9l-.1 4z"/></g><g fill="#686969"><path d="M261.5 1203v1.5h-.7v-4.2h1.3c.5 0 .9.1 1.1.3.3.2.4.5.4.9s-.1.7-.4 1c-.3.3-.6.4-1.1.4h-.6v.1zm0-2.1v1.5h.4c.3 0 .5-.1.7-.2.2-.1.2-.3.2-.6 0-.5-.3-.7-.9-.7h-.4zM266 1202.1c-.1-.1-.2-.1-.4-.1s-.4.1-.5.3c-.1.2-.2.4-.2.7v1.4h-.7v-3h.7v.6c.1-.2.2-.4.3-.5s.3-.2.5-.2c.1 0 .2 0 .3.1v.7zM266.8 1200.9c-.1 0-.2 0-.3-.1-.1-.1-.1-.2-.1-.3s0-.2.1-.3c.1-.1.2-.1.3-.1.1 0 .2 0 .3.1.1.1.1.2.1.3s0 .2-.1.3c-.1 0-.2.1-.3.1zm.3 3.6h-.7v-3h.7v3zM272.5 1204.5h-.7v-1.6c0-.3 0-.5-.1-.7-.1-.1-.2-.2-.4-.2s-.3.1-.4.3c-.1.2-.2.4-.2.6v1.6h-.7v-1.7c0-.6-.2-.8-.6-.8-.2 0-.3.1-.4.2-.1.2-.2.4-.2.6v1.6h-.8v-3h.7v.5c.2-.4.5-.5.9-.5.2 0 .4.1.5.2.2.1.3.3.3.4.2-.4.6-.6 1-.6.7 0 1 .4 1 1.2v1.9h.1zM275.6 1204.5h-.7v-.5c-.2.4-.5.5-.9.5-.3 0-.5-.1-.7-.2-.2-.2-.2-.4-.2-.6 0-.6.3-.9 1-1l.9-.1c0-.4-.2-.6-.6-.6-.4 0-.7.1-1 .4v-.6c.3-.2.7-.3 1.1-.3.8 0 1.1.4 1.1 1.1v1.9zm-.7-1.5l-.6.1c-.2 0-.3.1-.4.1-.1.1-.1.2-.1.4 0 .1 0 .2.1.3s.2.1.4.1.4-.1.5-.2c.1-.1.2-.3.2-.5l-.1-.3zM278.1 1202.1c-.1-.1-.2-.1-.4-.1s-.4.1-.5.3c-.1.2-.2.4-.2.7v1.4h-.7v-3h.7v.6c.1-.2.2-.4.3-.5s.3-.2.5-.2c.1 0 .2 0 .3.1v.7zM281.4 1201.5l-1.3 3.5c-.3.6-.7.9-1.2.9h-.4v-.6c.1 0 .2.1.3.1.3 0 .4-.1.6-.4l.2-.5-1.2-3h.7l.7 2.2s0 .1.1.2c0 0 0-.1.1-.2l.7-2.2h.7zM256.9 1211.6v-4.2h1.2c1.5 0 2.3.7 2.3 2 0 .6-.2 1.2-.6 1.6-.4.4-1 .6-1.7.6h-1.2zm.7-3.6v3h.6c.5 0 .9-.1 1.1-.4.3-.3.4-.6.4-1.1 0-1-.5-1.5-1.5-1.5h-.6zM263.4 1211.6h-.7v-.5c-.2.4-.5.5-.9.5-.3 0-.5-.1-.7-.2-.2-.2-.2-.4-.2-.6 0-.6.3-.9 1-1l.9-.1c0-.4-.2-.6-.6-.6-.4 0-.7.1-1 .4v-.6c.3-.2.7-.3 1.1-.3.8 0 1.1.4 1.1 1.1v1.9zm-.6-1.5l-.6.1c-.2 0-.3.1-.4.1-.1.1-.1.2-.1.4 0 .1 0 .2.1.3.1.1.2.1.4.1s.4-.1.5-.2c.1-.1.2-.3.2-.5l-.1-.3zM265.8 1211.6c-.1.1-.3.1-.5.1-.6 0-.9-.3-.9-.8v-1.7h-.5v-.5h.5v-.7l.7-.2v.9h.7v.5h-.7v1.5c0 .2 0 .3.1.4s.2.1.3.1c.1 0 .2 0 .3-.1v.5zM268.7 1211.6h-.7v-.5c-.2.4-.5.5-.9.5-.3 0-.5-.1-.7-.2-.2-.2-.2-.4-.2-.6 0-.6.3-.9 1-1l.9-.1c0-.4-.2-.6-.6-.6-.4 0-.7.1-1 .4v-.6c.3-.2.7-.3 1.1-.3.8 0 1.1.4 1.1 1.1v1.9zm-.7-1.5l-.6.1c-.2 0-.3.1-.4.1-.1.1-.1.2-.1.4 0 .1 0 .2.1.3s.2.1.4.1.4-.1.5-.2.2-.3.2-.5l-.1-.3zM270.2 1211.2v.4h-.7v-4.4h.7v2c.2-.4.6-.6 1-.6s.7.1.9.4c.2.3.3.6.3 1.1s-.1.9-.4 1.2c-.2.3-.6.4-1 .4-.3 0-.6-.2-.8-.5zm0-1.2v.4c0 .2.1.4.2.6s.3.2.5.2c.3 0 .4-.1.6-.3.1-.2.2-.5.2-.8 0-.3-.1-.5-.2-.7-.1-.2-.3-.2-.5-.2s-.4.1-.6.3c-.2 0-.2.2-.2.5zM275.3 1211.6h-.7v-.5c-.2.4-.5.5-.9.5-.3 0-.5-.1-.7-.2-.2-.2-.2-.4-.2-.6 0-.6.3-.9 1-1l.9-.1c0-.4-.2-.6-.6-.6s-.7.1-1 .4v-.6c.3-.2.7-.3 1.1-.3.8 0 1.1.4 1.1 1.1v1.9zm-.6-1.5l-.6.1c-.2 0-.3.1-.4.1-.1.1-.1.2-.1.4 0 .1 0 .2.1.3.1.1.2.1.4.1s.4-.1.5-.2c.1-.1.2-.3.2-.5l-.1-.3zM275.9 1211.5v-.6c.3.2.5.3.8.3.4 0 .6-.1.6-.4 0-.1 0-.1-.1-.2l-.1-.1c-.1 0-.1-.1-.2-.1s-.2-.1-.3-.1c-.1 0-.2-.1-.3-.2s-.2-.1-.2-.2c-.1-.1-.1-.1-.1-.2v-.3c0-.1 0-.3.1-.4l.3-.3c.1-.1.2-.1.4-.2.1 0 .3-.1.5-.1.3 0 .5 0 .7.1v.6c-.2-.1-.4-.2-.7-.2h-.2c-.1 0-.1 0-.2.1l-.1.1V1209.4l.1.1c.1 0 .1.1.2.1s.2.1.3.1c.1.1.2.1.3.2.1.1.2.1.3.2l.2.2c0 .1.1.2.1.3 0 .2 0 .3-.1.4l-.3.3c-.1.1-.3.1-.4.2-.2 0-.3.1-.5.1-.5.1-.8 0-1.1-.1zM281.2 1210.3h-2c0 .3.1.5.3.6s.4.2.7.2c.3 0 .6-.1.9-.3v.5c-.3.2-.6.3-1.1.3-.4 0-.8-.1-1-.4-.2-.3-.4-.7-.4-1.1 0-.5.1-.8.4-1.1s.6-.4 1-.4.7.1.9.4c.2.3.3.6.3 1.1v.2zm-.6-.5c0-.2-.1-.4-.2-.6-.1-.1-.3-.2-.5-.2s-.4.1-.5.2c-.1.1-.2.3-.2.6h1.4z"/></g><g fill="#686969"><path d="M307.4 1204.3v-.7l.2.2c.1 0 .2.1.3.1.1 0 .2.1.3.1h.3c.3 0 .5 0 .7-.1.1-.1.2-.2.2-.4 0-.1 0-.2-.1-.3 0-.1-.1-.1-.2-.2s-.2-.1-.3-.2c-.1-.1-.2-.1-.4-.2-.1-.1-.3-.2-.4-.2l-.3-.3c-.1-.1-.2-.2-.2-.3-.1-.1-.1-.3-.1-.4 0-.2 0-.4.1-.5s.2-.3.3-.4c.1-.1.3-.2.5-.2s.4-.1.6-.1c.4 0 .8 0 1 .1v.7c-.2-.2-.5-.3-.9-.3h-.3c-.1 0-.2.1-.3.1-.1 0-.1.1-.2.2s-.1.2-.1.3 0 .2.1.2c0 .1.1.1.2.2s.2.1.3.2c.1.1.2.1.4.2.1.1.3.2.4.2l.3.3c.1.1.2.2.2.3.1.1.1.3.1.4 0 .2 0 .4-.1.5s-.2.3-.3.4c-.1.1-.3.2-.5.2s-.4.1-.6.1h-.6c-.1 0-.2 0-.3-.1-.1 0-.2-.1-.3-.1zM313.3 1203.2h-2c0 .3.1.5.3.6.2.1.4.2.7.2.3 0 .6-.1.9-.3v.5c-.3.2-.6.3-1.1.3-.4 0-.8-.1-1-.4-.2-.3-.4-.7-.4-1.1 0-.5.1-.8.4-1.1.3-.3.6-.4 1-.4s.7.1.9.4c.2.3.3.6.3 1.1v.2zm-.6-.5c0-.2-.1-.4-.2-.6-.1-.1-.3-.2-.5-.2s-.4.1-.5.2-.2.3-.2.6h1.4zM316.1 1204.3c-.2.1-.5.2-.8.2-.4 0-.8-.1-1.1-.4-.3-.3-.4-.6-.4-1.1s.1-.9.4-1.2c.3-.3.7-.4 1.2-.4.3 0 .5 0 .7.1v.6c-.2-.2-.4-.2-.7-.2-.3 0-.5.1-.7.3-.2.2-.3.4-.3.8 0 .3.1.6.3.7.2.1.4.3.7.3.2 0 .5-.1.7-.3v.6zM318.1 1204.5c-.5 0-.8-.1-1.1-.4-.3-.3-.4-.6-.4-1.1s.1-.9.4-1.2c.3-.3.7-.4 1.2-.4s.8.1 1.1.4c.3.3.4.7.4 1.1 0 .5-.1.9-.4 1.1-.4.4-.7.5-1.2.5zm0-2.5c-.3 0-.5.1-.6.3-.2.2-.2.4-.2.8 0 .3.1.6.2.7.2.2.4.3.6.3.3 0 .5-.1.6-.3.1-.2.2-.4.2-.8 0-.3-.1-.6-.2-.8-.1-.2-.3-.2-.6-.2zM323 1204.5h-.7v-1.7c0-.6-.2-.8-.6-.8-.2 0-.4.1-.5.2-.1.2-.2.3-.2.6v1.7h-.7v-3h.7v.5c.2-.4.5-.6 1-.6.3 0 .6.1.7.3.2.2.3.5.3.9v1.9zM326.5 1204.5h-.7v-.5c-.2.4-.6.6-1 .6s-.7-.1-.9-.4c-.2-.3-.3-.6-.3-1.1s.1-.9.4-1.2c.2-.3.6-.4 1-.4s.7.2.9.5v-1.8h.7v4.3h-.1zm-.7-1.4v-.4c0-.2-.1-.4-.2-.5-.1-.1-.3-.2-.5-.2-.3 0-.5.1-.6.3-.1.2-.2.4-.2.8 0 .3.1.5.2.7.1.2.3.3.6.3.2 0 .4-.1.6-.3.1-.2.1-.4.1-.7zM329.7 1204.5h-.7v-.5c-.2.4-.5.5-.9.5-.3 0-.5-.1-.7-.2-.2-.2-.2-.4-.2-.6 0-.6.3-.9 1-1l.9-.1c0-.4-.2-.6-.6-.6s-.7.1-1 .4v-.6c.3-.2.7-.3 1.1-.3.8 0 1.1.4 1.1 1.1v1.9zm-.7-1.5l-.6.1c-.2 0-.3.1-.4.1s-.1.2-.1.4c0 .1 0 .2.1.3s.2.1.4.1.4-.1.5-.2c.1-.1.2-.3.2-.5v-.3h-.1zM332.2 1202.1c-.1-.1-.2-.1-.4-.1s-.4.1-.5.3c-.1.2-.2.4-.2.7v1.4h-.7v-3h.7v.6c.1-.2.2-.4.3-.5.1-.1.3-.2.5-.2.1 0 .2 0 .3.1v.7zM335.5 1201.5l-1.3 3.5c-.3.6-.7.9-1.2.9h-.4v-.6c.1 0 .2.1.3.1.3 0 .4-.1.6-.4l.2-.5-1.2-3h.7l.7 2.2s0 .1.1.2c0 0 0-.1.1-.2l.7-2.2h.7zM307.6 1211.6v-4.2h1.2c1.5 0 2.3.7 2.3 2 0 .6-.2 1.2-.6 1.6s-1 .6-1.7.6h-1.2zm.7-3.6v3h.6c.5 0 .9-.1 1.1-.4.3-.3.4-.6.4-1.1 0-1-.5-1.5-1.5-1.5h-.6zM314.1 1211.6h-.7v-.5c-.2.4-.5.5-.9.5-.3 0-.5-.1-.7-.2-.2-.2-.2-.4-.2-.6 0-.6.3-.9 1-1l.9-.1c0-.4-.2-.6-.6-.6s-.7.1-1 .4v-.6c.3-.2.7-.3 1.1-.3.8 0 1.1.4 1.1 1.1v1.9zm-.6-1.5l-.6.1c-.2 0-.3.1-.4.1-.1.1-.1.2-.1.4 0 .1 0 .2.1.3s.2.1.4.1.4-.1.5-.2.2-.3.2-.5v-.3h-.1zM316.5 1211.6c-.1.1-.3.1-.5.1-.6 0-.9-.3-.9-.8v-1.7h-.5v-.5h.5v-.7l.7-.2v.9h.7v.5h-.7v1.5c0 .2 0 .3.1.4s.2.1.3.1c.1 0 .2 0 .3-.1v.5zM319.4 1211.6h-.7v-.5c-.2.4-.5.5-.9.5-.3 0-.5-.1-.7-.2-.2-.2-.2-.4-.2-.6 0-.6.3-.9 1-1l.9-.1c0-.4-.2-.6-.6-.6s-.7.1-1 .4v-.6c.3-.2.7-.3 1.1-.3.8 0 1.1.4 1.1 1.1v1.9zm-.7-1.5l-.6.1c-.2 0-.3.1-.4.1-.1.1-.1.2-.1.4 0 .1 0 .2.1.3s.2.1.4.1.4-.1.5-.2.2-.3.2-.5v-.3h-.1zM320.9 1211.2v.4h-.7v-4.4h.7v2c.2-.4.6-.6 1-.6s.7.1.9.4c.2.3.3.6.3 1.1s-.1.9-.4 1.2c-.2.3-.6.4-1 .4-.3 0-.6-.2-.8-.5zm0-1.2v.4c0 .2.1.4.2.6s.3.2.5.2c.3 0 .4-.1.6-.3.1-.2.2-.5.2-.8 0-.3-.1-.5-.2-.7s-.3-.2-.5-.2-.4.1-.6.3c-.1 0-.2.2-.2.5zM326 1211.6h-.7v-.5c-.2.4-.5.5-.9.5-.3 0-.5-.1-.7-.2-.2-.2-.2-.4-.2-.6 0-.6.3-.9 1-1l.9-.1c0-.4-.2-.6-.6-.6s-.7.1-1 .4v-.6c.3-.2.7-.3 1.1-.3.8 0 1.1.4 1.1 1.1v1.9zm-.6-1.5l-.6.1c-.2 0-.3.1-.4.1-.1.1-.1.2-.1.4 0 .1 0 .2.1.3s.2.1.4.1.4-.1.5-.2.2-.3.2-.5v-.3h-.1zM326.7 1211.5v-.6c.3.2.5.3.8.3.4 0 .6-.1.6-.4 0-.1 0-.1-.1-.2l-.1-.1c-.1 0-.1-.1-.2-.1s-.2-.1-.3-.1c-.1 0-.2-.1-.3-.2-.1-.1-.2-.1-.2-.2-.1-.1-.1-.1-.1-.2v-.3c0-.1 0-.3.1-.4l.3-.3c.1-.1.2-.1.4-.2.1 0 .3-.1.5-.1.3 0 .5 0 .7.1v.6c-.2-.1-.4-.2-.7-.2h-.2c-.1 0-.1 0-.2.1l-.1.1V1209.4l.1.1c.1 0 .1.1.2.1s.2.1.3.1c.1.1.2.1.3.2.1.1.2.1.3.2l.2.2c0 .1.1.2.1.3 0 .2 0 .3-.1.4l-.3.3c-.1.1-.3.1-.4.2-.2 0-.3.1-.5.1-.6.1-.9 0-1.1-.1zM331.9 1210.3h-2c0 .3.1.5.3.6.2.1.4.2.7.2.3 0 .6-.1.9-.3v.5c-.3.2-.6.3-1.1.3-.4 0-.8-.1-1-.4-.2-.3-.4-.7-.4-1.1 0-.5.1-.8.4-1.1s.6-.4 1-.4.7.1.9.4c.2.3.3.6.3 1.1v.2zm-.6-.5c0-.2-.1-.4-.2-.6-.1-.2-.3-.2-.5-.2s-.4.1-.5.2c-.1.1-.2.3-.2.6h1.4z"/></g><g fill="#686969"><path d="M246.1 1193.6h-.7v-2.7-.8c0 .2-.1.3-.1.4l-1.2 3.1h-.5l-1.2-3.1c0-.1-.1-.2-.1-.4v3.5h-.6v-4.2h1l1.1 2.8c.1.2.1.4.2.5.1-.2.1-.4.2-.5l1.1-2.8h.9l-.1 4.2zM250.5 1193.6h-.8l-.4-1.1h-1.6l-.4 1.1h-.8l1.6-4.2h.8l1.6 4.2zm-1.3-1.7l-.6-1.7c0-.1 0-.1-.1-.3 0 .1 0 .2-.1.3l-.6 1.7h1.4zM254.3 1193.6h-.8l-.7-1.1c-.1-.1-.1-.2-.2-.3l-.2-.2c-.1 0-.1-.1-.2-.1h-.5v1.7h-.7v-4.2h1.4c.2 0 .4 0 .5.1.2 0 .3.1.4.2.1.1.2.2.3.4.1.1.1.3.1.5 0 .1 0 .3-.1.4 0 .1-.1.2-.2.3-.1.1-.2.2-.3.2s-.2.1-.4.2c.1 0 .1.1.2.1l.2.2c.1.1.1.1.1.2s.1.1.2.2l.9 1.2zm-2.5-3.6v1.4H252.7c.1 0 .2-.1.2-.1l.2-.2c0-.1.1-.2.1-.3 0-.2-.1-.4-.2-.5-.1-.1-.3-.2-.5-.2l-.7-.1zM255.5 1193.6h-.7v-4.2h.7v4.2zM260 1193.6h-.8l-.4-1.1h-1.6l-.4 1.1h-.8l1.6-4.2h.8l1.6 4.2zm-1.4-1.7l-.6-1.7c0-.1 0-.1-.1-.3 0 .1 0 .2-.1.3l-.6 1.7h1.4zM262.2 1193.6v-4.2h1.2c1.5 0 2.3.7 2.3 2 0 .6-.2 1.2-.6 1.6-.4.4-1 .6-1.7.6h-1.2zm.7-3.6v3h.6c.5 0 .9-.1 1.1-.4.3-.3.4-.6.4-1.1 0-1-.5-1.5-1.5-1.5h-.6zM266.4 1193.6v-4.2h1.3c.4 0 .7.1 1 .3.2.2.4.4.4.7 0 .2-.1.4-.2.6s-.3.3-.6.4c.3 0 .5.1.7.3.2.2.3.4.3.7 0 .4-.1.6-.4.9-.3.2-.6.3-1.1.3h-1.4zm.7-3.7v1.2h.4c.2 0 .4-.1.6-.2.1-.1.2-.3.2-.5 0-.4-.2-.5-.7-.5h-.5zm0 1.8v1.3h.6c.3 0 .5-.1.6-.2.1-.1.2-.3.2-.5 0-.4-.3-.6-.9-.6h-.5z"/></g><g fill="#686969"><path d="M323.9 1193.6h-.7v-2.7-.8c0 .2-.1.3-.1.4l-1.2 3.1h-.5l-1.2-3.1c0-.1-.1-.2-.1-.4v3.5h-.6v-4.2h1l1.1 2.8c.1.2.1.4.2.5.1-.2.1-.4.2-.5l1.1-2.8h.9l-.1 4.2zM328.4 1193.6h-.8l-.4-1.1h-1.6l-.4 1.1h-.8l1.6-4.2h.8l1.6 4.2zm-1.4-1.7l-.6-1.7c0-.1 0-.1-.1-.3 0 .1 0 .2-.1.3l-.6 1.7h1.4zM332.2 1193.6h-.8l-.7-1.1c-.1-.1-.1-.2-.2-.3l-.2-.2c-.1 0-.1-.1-.2-.1h-.5v1.7h-.7v-4.2h1.4c.2 0 .4 0 .5.1.2 0 .3.1.4.2.1.1.2.2.3.4.1.1.1.3.1.5 0 .1 0 .3-.1.4 0 .1-.1.2-.2.3-.1.1-.2.2-.3.2-.1.1-.2.1-.4.2.1 0 .1.1.2.1l.2.2c.1.1.1.1.1.2s.1.1.2.2l.9 1.2zm-2.6-3.6v1.4H330.5c.1 0 .2-.1.2-.1l.2-.2c0-.1.1-.2.1-.3 0-.2-.1-.4-.2-.5-.1-.1-.3-.2-.5-.2l-.7-.1zM333.4 1193.6h-.7v-4.2h.7v4.2zM337.8 1193.6h-.8l-.4-1.1H335l-.4 1.1h-.8l1.6-4.2h.8l1.6 4.2zm-1.3-1.7l-.6-1.7c0-.1 0-.1-.1-.3 0 .1 0 .2-.1.3l-.6 1.7h1.4zM340 1193.6v-4.2h1.2c1.5 0 2.3.7 2.3 2 0 .6-.2 1.2-.6 1.6s-1 .6-1.7.6H340zm.7-3.6v3h.6c.5 0 .9-.1 1.1-.4.3-.3.4-.6.4-1.1 0-1-.5-1.5-1.5-1.5h-.6zM344.3 1193.6v-4.2h1.3c.4 0 .7.1 1 .3.2.2.4.4.4.7 0 .2-.1.4-.2.6s-.3.3-.6.4c.3 0 .5.1.7.3s.3.4.3.7c0 .4-.1.6-.4.9-.3.2-.6.3-1.1.3h-1.4zm.7-3.7v1.2h.4c.2 0 .4-.1.6-.2.1-.1.2-.3.2-.5 0-.4-.2-.5-.7-.5h-.5zm0 1.8v1.3h.6c.3 0 .5-.1.6-.2.1-.1.2-.3.2-.5 0-.4-.3-.6-.9-.6h-.5z"/></g><g fill="#686969"><path d="M220.2 1181v-4.8h1.4c1.8 0 2.6.8 2.6 2.3 0 .7-.2 1.3-.7 1.8-.5.4-1.1.7-2 .7h-1.3zm.8-4.1v3.4h.6c.6 0 1-.2 1.3-.5.3-.3.5-.7.5-1.3 0-1.1-.6-1.7-1.7-1.7l-.7.1zM225.1 1181v-4.8h1.5c.5 0 .8.1 1.1.3s.4.5.4.8c0 .3-.1.5-.2.7-.2.2-.4.3-.6.4.3 0 .6.2.8.4.2.2.3.5.3.8 0 .4-.2.7-.5 1s-.7.4-1.2.4h-1.6zm.8-4.1v1.4h.5c.3 0 .5-.1.6-.2.2-.1.2-.3.2-.6 0-.4-.3-.6-.8-.6h-.5zm0 2v1.5h.7c.3 0 .5-.1.7-.2.2-.1.2-.3.2-.6 0-.5-.3-.7-1-.7h-.6zM230.7 1176.2v4.9h-.8v-3.9c-.1.1-.3.2-.5.3s-.3.1-.5.2v-.7c.1 0 .3-.1.4-.1.1 0 .2-.1.4-.2.1-.1.2-.1.4-.2.1-.1.2-.2.4-.2l.2-.1z"/></g><g fill="#686969"><path d="M310.7 1181v-4.8h1.4c1.8 0 2.6.8 2.6 2.3 0 .7-.2 1.3-.7 1.8-.5.4-1.1.7-2 .7h-1.3zm.8-4.1v3.4h.6c.6 0 1-.2 1.3-.5.3-.3.5-.7.5-1.3 0-1.1-.6-1.7-1.7-1.7l-.7.1zM315.6 1181v-4.8h1.5c.5 0 .8.1 1.1.3.3.2.4.5.4.8 0 .3-.1.5-.2.7-.2.2-.4.3-.6.4.3 0 .6.2.8.4.2.2.3.5.3.8 0 .4-.2.7-.5 1s-.7.4-1.2.4h-1.6zm.8-4.1v1.4h.5c.3 0 .5-.1.6-.2.2-.1.2-.3.2-.6 0-.4-.3-.6-.8-.6h-.5zm0 2v1.5h.7c.3 0 .5-.1.7-.2.2-.1.2-.3.2-.6 0-.5-.3-.7-1-.7h-.6zM321.2 1176.2v4.9h-.8v-3.9c-.1.1-.3.2-.5.3s-.3.1-.5.2v-.7c.1 0 .3-.1.4-.1s.2-.1.4-.2c.1-.1.2-.1.4-.2.1-.1.2-.2.4-.2l.2-.1z"/></g><g fill="#686969"><path d="M243.7 1181v-4.8h1.4c1.8 0 2.6.8 2.6 2.3 0 .7-.2 1.3-.7 1.8-.5.4-1.1.7-2 .7h-1.3zm.8-4.1v3.4h.6c.6 0 1-.2 1.3-.5.3-.3.5-.7.5-1.3 0-1.1-.6-1.7-1.7-1.7l-.7.1zM248.6 1181v-4.8h1.5c.5 0 .8.1 1.1.3s.4.5.4.8c0 .3-.1.5-.2.7-.2.2-.4.3-.6.4.3 0 .6.2.8.4.2.2.3.5.3.8 0 .4-.2.7-.5 1s-.7.4-1.2.4h-1.6zm.8-4.1v1.4h.5c.3 0 .5-.1.6-.2.2-.1.2-.3.2-.6 0-.4-.3-.6-.8-.6h-.5zm0 2v1.5h.7c.3 0 .5-.1.7-.2.2-.1.2-.3.2-.6 0-.5-.3-.7-1-.7h-.6zM255.4 1181h-3v-.4c0-.2 0-.3.1-.4 0-.1.1-.3.2-.4.1-.1.2-.2.2-.3l.3-.3.3-.3.3-.3.3-.3c.1-.1.2-.2.2-.3.1-.1.1-.2.1-.3v-.3c0-.1 0-.2-.1-.3 0-.1-.1-.2-.2-.2s-.2-.1-.2-.1h-.3c-.2 0-.4 0-.6.1-.2.1-.4.2-.6.4v-.7c.1-.1.2-.1.3-.2.1-.1.2-.1.3-.1s.2-.1.3-.1h.4c.2 0 .4 0 .6.1.2.1.3.1.4.2.1.1.2.2.3.4.1.2.1.4.1.6 0 .2 0 .4-.1.5 0 .2-.1.3-.2.4-.1.1-.2.3-.3.4-.1.1-.3.2-.4.4-.1.1-.3.2-.4.3l-.3.3c-.1.1-.2.2-.2.3-.1.1-.1.2-.1.3h2.2l.1.6z"/></g><g fill="#686969"><path d="M333.3 1181v-4.8h1.4c1.8 0 2.6.8 2.6 2.3 0 .7-.2 1.3-.7 1.8-.5.4-1.1.7-2 .7h-1.3zm.7-4.1v3.4h.6c.6 0 1-.2 1.3-.5.3-.3.5-.7.5-1.3 0-1.1-.6-1.7-1.7-1.7l-.7.1zM338.1 1181v-4.8h1.5c.5 0 .8.1 1.1.3.3.2.4.5.4.8 0 .3-.1.5-.2.7-.2.2-.4.3-.6.4.3 0 .6.2.8.4.2.2.3.5.3.8 0 .4-.2.7-.5 1s-.7.4-1.2.4h-1.6zm.8-4.1v1.4h.5c.3 0 .5-.1.6-.2.2-.1.2-.3.2-.6 0-.4-.3-.6-.8-.6h-.5zm0 2v1.5h.7c.3 0 .5-.1.7-.2.2-.1.2-.3.2-.6 0-.5-.3-.7-1-.7h-.6zM345 1181h-3v-.4c0-.2 0-.3.1-.4 0-.1.1-.3.2-.4.1-.1.2-.2.2-.3s.2-.2.3-.3l.3-.3.3-.3.3-.3c.1-.1.2-.2.2-.3.1-.1.1-.2.1-.3v-.3c0-.1 0-.2-.1-.3s-.1-.2-.2-.2-.2-.1-.2-.1h-.3c-.2 0-.4 0-.6.1-.2.1-.4.2-.6.4v-.7c.1-.1.2-.1.3-.2.1-.1.2-.1.3-.1.1 0 .2-.1.3-.1h.4c.2 0 .4 0 .6.1.2.1.3.1.4.2s.2.2.3.4c.1.2.1.4.1.6 0 .2 0 .4-.1.5 0 .2-.1.3-.2.4-.1.1-.2.3-.3.4-.1.1-.3.2-.4.4-.1.1-.3.2-.4.3l-.3.3c-.1.1-.2.2-.2.3-.1.1-.1.2-.1.3h2.2v.6h.1z"/></g><g fill="#686969"><path d="M266.6 1181v-4.8h1.4c1.8 0 2.6.8 2.6 2.3 0 .7-.2 1.3-.7 1.8-.5.4-1.1.7-2 .7h-1.3zm.8-4.1v3.4h.6c.6 0 1-.2 1.3-.5.3-.3.5-.7.5-1.3 0-1.1-.6-1.7-1.7-1.7l-.7.1zM271.5 1181v-4.8h1.5c.5 0 .8.1 1.1.3s.4.5.4.8c0 .3-.1.5-.2.7-.2.2-.4.3-.6.4.3 0 .6.2.8.4.2.2.3.5.3.8 0 .4-.2.7-.5 1-.3.3-.7.4-1.2.4h-1.6zm.8-4.1v1.4h.5c.3 0 .5-.1.6-.2.2-.1.2-.3.2-.6 0-.4-.3-.6-.8-.6h-.5zm0 2v1.5h.7c.3 0 .5-.1.7-.2.2-.1.2-.3.2-.6 0-.5-.3-.7-1-.7h-.6zM275.4 1180.9v-.7c.3.2.7.4 1.1.4.3 0 .6-.1.8-.2.2-.1.3-.3.3-.6 0-.5-.4-.8-1.2-.8h-.4v-.6h.4c.7 0 1.1-.3 1.1-.8s-.3-.7-.9-.7c-.3 0-.6.1-.9.3v-.7c.3-.2.7-.3 1.1-.3s.8.1 1 .3c.3.2.4.5.4.8 0 .6-.3 1-1 1.2.3 0 .6.2.8.4.2.2.3.5.3.8 0 .4-.2.8-.5 1-.3.3-.7.4-1.3.4-.4 0-.8-.1-1.1-.2z"/></g><g fill="#686969"><path d="M356.3 1181v-4.8h1.4c1.8 0 2.6.8 2.6 2.3 0 .7-.2 1.3-.7 1.8-.5.4-1.1.7-2 .7h-1.3zm.8-4.1v3.4h.6c.6 0 1-.2 1.3-.5.3-.3.5-.7.5-1.3 0-1.1-.6-1.7-1.7-1.7l-.7.1zM361.2 1181v-4.8h1.5c.5 0 .8.1 1.1.3.3.2.4.5.4.8 0 .3-.1.5-.2.7-.2.2-.4.3-.6.4.3 0 .6.2.8.4.2.2.3.5.3.8 0 .4-.2.7-.5 1s-.7.4-1.2.4h-1.6zm.8-4.1v1.4h.5c.3 0 .5-.1.6-.2.2-.1.2-.3.2-.6 0-.4-.3-.6-.8-.6h-.5zm0 2v1.5h.7c.3 0 .5-.1.7-.2.2-.1.2-.3.2-.6 0-.5-.3-.7-1-.7h-.6zM365.1 1180.9v-.7c.3.2.7.4 1.1.4.3 0 .6-.1.8-.2.2-.1.3-.3.3-.6 0-.5-.4-.8-1.2-.8h-.4v-.6h.4c.7 0 1.1-.3 1.1-.8s-.3-.7-.9-.7c-.3 0-.6.1-.9.3v-.7c.3-.2.7-.3 1.1-.3s.8.1 1 .3c.3.2.4.5.4.8 0 .6-.3 1-1 1.2.3 0 .6.2.8.4s.3.5.3.8c0 .4-.2.8-.5 1-.3.3-.7.4-1.3.4-.4 0-.8-.1-1.1-.2z"/></g><g fill="#010101"><path d="M269.4 1016.6h-.9l-.5-1.3h-2l-.4 1.3h-.9l1.9-5.2h1l1.8 5.2zm-1.6-2l-.7-2.1c0-.1 0-.2-.1-.3 0 .1 0 .2-.1.3l-.7 2.1h1.6zM271 1014.7v1.9h-.9v-5.2h1.6c.6 0 1.1.1 1.4.4s.5.7.5 1.2-.2.9-.5 1.2-.8.5-1.4.5h-.7zm0-2.6v1.9h.6c.4 0 .6-.1.8-.3.2-.2.3-.4.3-.7 0-.6-.4-.9-1.1-.9h-.6zM275.3 1014.7v1.9h-.9v-5.2h1.6c.6 0 1.1.1 1.4.4s.5.7.5 1.2-.2.9-.5 1.2c-.3.3-.8.5-1.4.5h-.7zm0-2.6v1.9h.6c.4 0 .6-.1.8-.3s.3-.4.3-.7c0-.6-.4-.9-1.1-.9h-.6zM281.7 1016.6h-2.9v-5.2h.9v4.5h2v.7zM283.3 1016.6h-.9v-5.2h.9v5.2zM288.2 1016.4c-.4.2-.9.3-1.5.3-.8 0-1.4-.2-1.8-.7-.5-.5-.7-1.1-.7-1.9 0-.8.3-1.5.8-2s1.2-.8 1.9-.8c.5 0 .9.1 1.2.2v.9c-.3-.2-.7-.3-1.2-.3-.6 0-1 .2-1.4.5-.3.4-.5.8-.5 1.4s.2 1 .5 1.4c.3.3.8.5 1.3.5s.9-.1 1.3-.3l.1.8zM293.4 1016.6h-.9l-.5-1.3h-2l-.4 1.3h-.9l1.9-5.2h1l1.8 5.2zm-1.6-2l-.7-2.1c0-.1 0-.2-.1-.3 0 .1 0 .2-.1.3l-.7 2.1h1.6zM296.9 1012.2h-1.5v4.4h-.9v-4.4H293v-.7h3.8l.1.7zM298.5 1016.6h-.9v-5.2h.9v5.2zM302 1016.7c-.7 0-1.3-.2-1.8-.7s-.7-1.1-.7-1.9c0-.8.2-1.5.7-2s1.1-.7 1.9-.7c.7 0 1.3.2 1.8.7.4.5.7 1.1.7 1.9s-.2 1.5-.7 2c-.6.4-1.2.7-1.9.7zm0-4.6c-.5 0-.9.2-1.2.5-.3.4-.4.8-.4 1.4s.1 1 .4 1.4c.3.4.7.5 1.1.5.5 0 .9-.2 1.2-.5.3-.3.4-.8.4-1.4s-.1-1.1-.4-1.4c-.2-.3-.6-.5-1.1-.5zM309.8 1016.6h-.9l-2.5-3.8c-.1-.1-.1-.2-.2-.3v4.1h-.8v-5.2h1l2.4 3.7c.1.2.2.3.2.3v-4h.8v5.2zM316.4 1012.2h-1.5v4.4h-.9v-4.4h-1.5v-.7h3.8v.7h.1zM318.1 1016.6h-.9v-5.2h.9v5.2zM322.2 1016.6h-2.9v-5.2h2.8v.7h-1.9v1.5h1.8v.7h-1.8v1.5h2v.8zM327.2 1016.6h-1l-.8-1.4c-.1-.1-.1-.2-.2-.3-.1-.1-.1-.2-.2-.2-.1-.1-.2-.1-.2-.1h-.8v2.1h-.9v-5.2h1.7c.2 0 .5 0 .7.1.2.1.4.1.5.3.2.1.3.3.4.4.1.2.1.4.1.6 0 .2 0 .4-.1.5-.1.2-.1.3-.2.4-.1.1-.2.2-.4.3-.1.1-.3.1-.5.2.1.1.2.1.2.2l.2.2.2.2c.1.1.1.2.2.3l1.1 1.4zm-3.2-4.5v1.7h.7c.1 0 .3 0 .4-.1.1 0 .2-.1.3-.2.1-.1.1-.2.2-.3 0-.1.1-.2.1-.4s-.1-.4-.2-.6c-.2-.1-.4-.2-.7-.2l-.8.1z"/></g><g fill="#010101"><path d="M295.7 998.1c-2.9 0-5.3 2.4-5.3 5.3s2.4 5.3 5.3 5.3 5.3-2.4 5.3-5.3c-.1-3-2.4-5.3-5.3-5.3zm1.3 6.6c-.1.2-.2.3-.3.4-.1.1-.3.2-.4.3-.2.1-.3.1-.5.1s-.4 0-.6-.1c-.2-.1-.3-.2-.5-.4l-.3-.6c-.1-.2-.1-.5-.1-.8 0-.4 0-.7.1-1 .1-.3.2-.5.4-.7.2-.2.3-.4.6-.5.2-.1.4-.2.7-.2h.4c.1 0 .2 0 .3.1v.7c-.1 0-.2-.1-.3-.1-.1 0-.2-.1-.4-.1s-.3 0-.4.1c-.1.1-.3.2-.4.3-.1.1-.2.3-.2.5-.1.2-.1.4-.1.6.1-.1.2-.2.4-.3s.3-.1.5-.1.3 0 .5.1c.1.1.3.1.4.3.1.1.2.2.2.4.1.2.1.3.1.5s-.1.4-.1.5z"/><path d="M296.2 1003.6l-.2-.2c-.1 0-.2-.1-.3-.1-.1 0-.2 0-.3.1-.1 0-.2.1-.2.2-.1.1-.1.1-.1.2v.6c0 .1.1.2.1.3.1.1.1.2.2.2.1.1.2.1.3.1.1 0 .2 0 .3-.1.1-.1.2-.1.2-.2.1-.1.1-.2.1-.3v-.3-.3s0-.1-.1-.2z"/></g><path d="M280.4 1108.7h-3.9c-.3 0-.5-.2-.5-.5s.2-.5.5-.5h3.9c.3 0 .5.2.5.5s-.2.5-.5.5z" fill="#686969"/><path d="M277.5 1109.9c-.1 0-.3-.1-.4-.2l-1.2-1.2c-.1-.1-.2-.2-.2-.4 0-.1.1-.3.2-.4l1.2-1.2c.2-.2.5-.2.8 0 .3.2.2.5 0 .8l-.8.8.8.8c.2.2.2.5 0 .8-.2.2-.3.2-.4.2zM312.5 1108.7h-3.9c-.3 0-.5-.2-.5-.5s.2-.5.5-.5h3.9c.3 0 .5.2.5.5s-.2.5-.5.5z" fill="#686969"/><path d="M311.5 1109.9c-.1 0-.3-.1-.4-.2-.2-.2-.2-.5 0-.8l.8-.8-.8-.8c-.2-.2-.2-.5 0-.8s.5-.2.8 0l1.2 1.2c.1.1.2.2.2.4s-.1.3-.2.4l-1.2 1.2c-.1.2-.3.2-.4.2z" fill="#686969"/><g fill="#686969"><path d="M233.4 1053.8h-.7l-.3-.9H231l-.3.9h-.7l1.3-3.6h.7l1.4 3.6zm-1.1-1.4l-.5-1.4v-.2c0 .1 0 .2-.1.2l-.5 1.4h1.1zM234.5 1052.5v1.3h-.6v-3.6h1.1c.4 0 .7.1 1 .3s.3.5.3.8c0 .3-.1.6-.4.9-.2.2-.6.3-1 .3h-.4zm0-1.8v1.3h.4c.3 0 .5-.1.6-.2.1-.1.2-.3.2-.5 0-.4-.2-.6-.7-.6h-.5zM237.5 1052.5v1.3h-.6v-3.6h1.1c.4 0 .7.1 1 .3s.3.5.3.8c0 .3-.1.6-.4.9-.3.3-.6.3-1 .3h-.4zm0-1.8v1.3h.4c.3 0 .5-.1.6-.2.1-.1.2-.3.2-.5 0-.4-.2-.6-.7-.6h-.5zM246.1 1053.8h-.7l-.3-.9h-1.4l-.3.9h-.7l1.3-3.6h.7l1.4 3.6zm-1.1-1.4l-.5-1.4v-.2c0 .1 0 .2-.1.2l-.5 1.4h1.1zM247.2 1052.5v1.3h-.6v-3.6h1.1c.4 0 .7.1 1 .3s.3.5.3.8c0 .3-.1.6-.4.9-.2.2-.6.3-1 .3h-.4zm0-1.8v1.3h.4c.3 0 .5-.1.6-.2.1-.1.2-.3.2-.5 0-.4-.2-.6-.7-.6h-.5zM250.2 1052.5v1.3h-.6v-3.6h1.1c.4 0 .7.1 1 .3s.3.5.3.8c0 .3-.1.6-.4.9-.2.2-.6.3-1 .3h-.4zm0-1.8v1.3h.4c.3 0 .5-.1.6-.2.1-.1.2-.3.2-.5 0-.4-.2-.6-.7-.6h-.5zM229.7 1073.9v-3.6h1.1c.3 0 .6.1.8.2.2.2.3.4.3.6 0 .2-.1.4-.2.5-.1.2-.3.3-.5.3.2 0 .4.1.6.3.2.2.2.4.2.6 0 .3-.1.6-.4.7-.2.2-.5.3-.9.3l-1 .1zm.6-3.2v1h.4c.2 0 .4 0 .5-.1s.2-.2.2-.4c0-.3-.2-.5-.6-.5h-.5zm0 1.5v1.1h.5c.2 0 .4-.1.5-.2s.2-.2.2-.4c0-.4-.3-.6-.8-.6l-.4.1zM233.4 1073.9h-.6v-3.6h.6v3.6zM237.3 1073.9h-.7l-1.7-2.6c0-.1-.1-.1-.1-.2v2.9h-.6v-3.6h.7l1.7 2.6c.1.1.1.2.1.2v-2.8h.6v3.5zM238 1073.7v-.6c.1.1.1.1.2.1s.2.1.2.1.2 0 .3.1h.2c.3 0 .4 0 .6-.1.1-.1.2-.2.2-.4 0-.1 0-.2-.1-.2s-.1-.1-.2-.2-.2-.1-.3-.1-.2-.1-.3-.1c-.1-.1-.2-.1-.3-.2s-.2-.1-.3-.2-.1-.2-.2-.3c0-.1-.1-.2-.1-.4s0-.3.1-.4l.3-.3c.1-.1.3-.1.4-.2.2 0 .3-.1.5-.1.4 0 .7 0 .8.1v.6c-.2-.1-.5-.2-.8-.2h-.3c-.1 0-.2 0-.2.1s-.1.1-.2.1c0 .1-.1.1-.1.2s0 .1.1.2c0 .1.1.1.1.2.1 0 .1.1.2.1s.2.1.3.1c.1.1.2.1.4.2.1.1.2.2.3.2.1.1.2.2.2.3s.1.2.1.4 0 .3-.1.5-.2.2-.3.3c-.1.1-.3.1-.4.2-.2 0-.3.1-.5.1h-.5c-.1 0-.2 0-.3-.1.2 0 .1-.1 0-.1zM242.7 1070.2l-1.7 4.2h-.5l1.7-4.2h.5zM245.1 1073.9h-2v-3.6h.6v3.1h1.4v.5zM246.3 1073.9h-.6v-3.6h.6v3.6zM247.1 1073.9v-3.6h1.1c.3 0 .6.1.8.2.2.2.3.4.3.6 0 .2-.1.4-.2.5-.1.2-.3.3-.5.3.2 0 .4.1.6.3.2.2.2.4.2.6 0 .3-.1.6-.4.7-.2.2-.5.3-.9.3l-1 .1zm.6-3.2v1h.4c.2 0 .4 0 .5-.1s.2-.2.2-.4c0-.3-.2-.5-.6-.5h-.5zm0 1.5v1.1h.5c.2 0 .4-.1.5-.2s.2-.2.2-.4c0-.4-.3-.6-.8-.6l-.4.1zM250.1 1073.7v-.6c.1.1.1.1.2.1s.2.1.2.1.2 0 .3.1h.2c.3 0 .4 0 .6-.1.1-.1.2-.2.2-.4 0-.1 0-.2-.1-.2 0-.1-.1-.1-.2-.2s-.2-.1-.3-.1-.2-.1-.3-.1c-.1-.1-.2-.1-.3-.2s-.2-.1-.3-.2-.1-.2-.2-.3-.1-.2-.1-.4 0-.3.1-.4l.3-.3c.1-.1.3-.1.4-.2s.3-.1.5-.1c.4 0 .7 0 .8.1v.6c-.2-.1-.5-.2-.8-.2h-.3c-.1 0-.2 0-.2.1s-.1.1-.2.1c0 .1-.1.1-.1.2s0 .1.1.2c0 .1.1.1.1.2.1 0 .1.1.2.1s.2.1.3.1c.1.1.2.1.4.2.1.1.2.2.3.2s.2.2.2.3.1.2.1.4 0 .3-.1.5-.2.2-.3.3c-.1.1-.3.1-.4.2-.2 0-.3.1-.5.1h-.5c-.1 0-.2 0-.3-.1.1 0 0-.1 0-.1z"/><g><path d="M264.6 1053.8h-.7l-.3-.9h-1.4l-.3.9h-.7l1.3-3.6h.7l1.4 3.6zm-1.1-1.4l-.5-1.4v-.2c0 .1 0 .2-.1.2l-.5 1.4h1.1zM265.7 1052.5v1.3h-.6v-3.6h1.1c.4 0 .7.1 1 .3.3.2.3.5.3.8 0 .3-.1.6-.4.9-.2.2-.6.3-1 .3h-.4zm0-1.8v1.3h.4c.3 0 .5-.1.6-.2.1-.1.2-.3.2-.5 0-.4-.2-.6-.7-.6h-.5zM268.7 1052.5v1.3h-.6v-3.6h1.1c.4 0 .7.1 1 .3.3.2.3.5.3.8 0 .3-.1.6-.4.9-.2.2-.6.3-1 .3h-.4zm0-1.8v1.3h.4c.3 0 .5-.1.6-.2.1-.1.2-.3.2-.5 0-.4-.2-.6-.7-.6h-.5z"/></g><g><path d="M277.3 1053.8h-.7l-.3-.9h-1.4l-.3.9h-.6l1.3-3.6h.7l1.3 3.6zm-1.1-1.4l-.5-1.4v-.2c0 .1 0 .2-.1.2l-.5 1.4h1.1zM278.4 1052.5v1.3h-.6v-3.6h1.1c.4 0 .7.1 1 .3s.3.5.3.8c0 .3-.1.6-.4.9-.2.2-.6.3-1 .3h-.4zm0-1.8v1.3h.4c.3 0 .5-.1.6-.2.1-.1.2-.3.2-.5 0-.4-.2-.6-.7-.6h-.5zM281.4 1052.5v1.3h-.6v-3.6h1.1c.4 0 .7.1 1 .3s.3.5.3.8c0 .3-.1.6-.4.9-.2.2-.6.3-1 .3h-.4zm0-1.8v1.3h.4c.3 0 .5-.1.6-.2.1-.1.2-.3.2-.5 0-.4-.2-.6-.7-.6h-.5z"/></g><g><path d="M260.9 1073.9v-3.6h1.1c.3 0 .6.1.8.2.2.2.3.4.3.6 0 .2-.1.4-.2.5-.1.2-.3.3-.5.3.2 0 .4.1.6.3.1.2.2.4.2.6 0 .3-.1.6-.4.7-.2.2-.5.3-.9.3l-1 .1zm.5-3.2v1h.4c.2 0 .4 0 .5-.1s.2-.2.2-.4c0-.3-.2-.5-.6-.5h-.5zm0 1.5v1.1h.5c.2 0 .4-.1.5-.2s.2-.2.2-.4c0-.4-.3-.6-.8-.6l-.4.1zM264.6 1073.9h-.6v-3.6h.6v3.6zM268.5 1073.9h-.7l-1.7-2.6c0-.1-.1-.1-.1-.2v2.9h-.6v-3.6h.7l1.7 2.6c.1.1.1.2.1.2v-2.8h.6v3.5zM269.2 1073.7v-.6c.1.1.1.1.2.1s.2.1.2.1.2 0 .3.1h.2c.3 0 .4 0 .6-.1.1-.1.2-.2.2-.4 0-.1 0-.2-.1-.2 0-.1-.1-.1-.2-.2s-.2-.1-.3-.1-.2-.1-.3-.1c-.1-.1-.2-.1-.3-.2s-.2-.1-.3-.2c-.1-.1-.1-.2-.2-.3s-.1-.2-.1-.4 0-.3.1-.4l.3-.3c.1-.1.3-.1.4-.2.1-.1.3-.1.5-.1.4 0 .7 0 .8.1v.6c-.2-.1-.5-.2-.8-.2h-.3c-.1 0-.2 0-.2.1s-.1.1-.2.1c0 .1-.1.1-.1.2s0 .1.1.2c0 .1.1.1.1.2.1 0 .1.1.2.1s.2.1.3.1c.1.1.2.1.4.2.1.1.2.2.3.2.1 0 .2.2.2.3s.1.2.1.4 0 .3-.1.5-.2.2-.3.3c-.1.1-.3.1-.4.2-.2 0-.3.1-.5.1h-.5c-.1 0-.2 0-.3-.1.2 0 .1-.1 0-.1zM273.9 1070.2l-1.7 4.2h-.5l1.7-4.2h.5zM276.3 1073.9h-2v-3.6h.6v3.1h1.4v.5zM277.5 1073.9h-.6v-3.6h.6v3.6zM278.3 1073.9v-3.6h1.1c.3 0 .6.1.8.2.2.2.3.4.3.6 0 .2-.1.4-.2.5-.1.2-.3.3-.5.3.2 0 .4.1.6.3.2.2.2.4.2.6 0 .3-.1.6-.4.7-.2.2-.5.3-.9.3l-1 .1zm.6-3.2v1h.4c.2 0 .4 0 .5-.1s.2-.2.2-.4c0-.3-.2-.5-.6-.5h-.5zm0 1.5v1.1h.5c.2 0 .4-.1.5-.2s.2-.2.2-.4c0-.4-.3-.6-.8-.6l-.4.1zM281.3 1073.7v-.6c.1.1.1.1.2.1s.2.1.2.1c.1 0 .2 0 .3.1h.2c.3 0 .4 0 .6-.1.1-.1.2-.2.2-.4 0-.1 0-.2-.1-.2s-.1-.1-.2-.2-.2-.1-.3-.1-.2-.1-.3-.1c-.1-.1-.2-.1-.3-.2s-.2-.1-.3-.2c-.1-.1-.1-.2-.2-.3 0-.1-.1-.2-.1-.4s0-.3.1-.4l.3-.3c.1-.1.3-.1.4-.2.2 0 .3-.1.5-.1.4 0 .7 0 .8.1v.6c-.2-.1-.5-.2-.8-.2h-.3c-.1 0-.2 0-.2.1-.1 0-.1.1-.2.1 0 .1-.1.1-.1.2s0 .1.1.2c0 .1.1.1.1.2.1 0 .1.1.2.1s.2.1.3.1c.1.1.2.1.4.2.1.1.2.2.3.2.1.1.2.2.2.3s.1.2.1.4 0 .3-.1.5l-.3.3c-.1.1-.3.1-.4.2-.2 0-.3.1-.5.1h-.5c-.1 0-.2 0-.3-.1.1 0 0-.1 0-.1z"/></g><g><path d="M309.3 1053.8h-.7l-.3-.9h-1.4l-.3.9h-.7l1.3-3.6h.7l1.4 3.6zm-1.1-1.4l-.5-1.4v-.2c0 .1 0 .2-.1.2l-.5 1.4h1.1zM310.4 1052.5v1.3h-.6v-3.6h1.1c.4 0 .7.1 1 .3s.3.5.3.8c0 .3-.1.6-.4.9-.3.3-.6.3-1 .3h-.4zm0-1.8v1.3h.4c.3 0 .5-.1.6-.2.1-.1.2-.3.2-.5 0-.4-.2-.6-.7-.6h-.5zM313.4 1052.5v1.3h-.6v-3.6h1.1c.4 0 .7.1 1 .3s.3.5.3.8c0 .3-.1.6-.4.9-.2.2-.6.3-1 .3h-.4zm0-1.8v1.3h.4c.3 0 .5-.1.6-.2.1-.1.2-.3.2-.5 0-.4-.2-.6-.7-.6h-.5z"/></g><g><path d="M322 1053.8h-.7l-.3-.9h-1.4l-.3.9h-.7l1.3-3.6h.7l1.4 3.6zm-1.1-1.4l-.5-1.4v-.2c0 .1 0 .2-.1.2l-.5 1.4h1.1zM323.1 1052.5v1.3h-.6v-3.6h1.1c.4 0 .7.1 1 .3s.3.5.3.8c0 .3-.1.6-.4.9-.3.3-.6.3-1 .3h-.4zm0-1.8v1.3h.4c.3 0 .5-.1.6-.2.1-.1.2-.3.2-.5 0-.4-.2-.6-.7-.6h-.5zM326.1 1052.5v1.3h-.6v-3.6h1.1c.4 0 .7.1 1 .3s.3.5.3.8c0 .3-.1.6-.4.9-.2.2-.6.3-1 .3h-.4zm0-1.8v1.3h.4c.3 0 .5-.1.6-.2.1-.1.2-.3.2-.5 0-.4-.2-.6-.7-.6h-.5z"/></g><g><path d="M305.6 1073.9v-3.6h1.1c.3 0 .6.1.8.2.2.2.3.4.3.6 0 .2-.1.4-.2.5-.1.2-.3.3-.5.3.2 0 .4.1.6.3.1.2.2.4.2.6 0 .3-.1.6-.4.7-.2.2-.5.3-.9.3l-1 .1zm.6-3.2v1h.4c.2 0 .4 0 .5-.1s.2-.2.2-.4c0-.3-.2-.5-.6-.5h-.5zm0 1.5v1.1h.5c.2 0 .4-.1.5-.2s.2-.2.2-.4c0-.4-.3-.6-.8-.6l-.4.1zM309.3 1073.9h-.6v-3.6h.6v3.6zM313.3 1073.9h-.7l-1.7-2.6c0-.1-.1-.1-.1-.2v2.9h-.6v-3.6h.7l1.7 2.6c.1.1.1.2.1.2v-2.8h.6v3.5zM314 1073.7v-.6c.1.1.1.1.2.1s.2.1.2.1c.1 0 .2 0 .3.1h.2c.3 0 .4 0 .6-.1.1-.1.2-.2.2-.4 0-.1 0-.2-.1-.2s-.1-.1-.2-.2-.2-.1-.3-.1c-.1 0-.2-.1-.3-.1-.1-.1-.2-.1-.3-.2s-.2-.1-.3-.2c-.1-.1-.1-.2-.2-.3 0-.1-.1-.2-.1-.4s0-.3.1-.4l.3-.3c.1-.1.3-.1.4-.2s.3-.1.5-.1c.4 0 .7 0 .8.1v.6c-.2-.1-.5-.2-.8-.2h-.3c-.1 0-.2 0-.2.1-.1 0-.1.1-.2.1 0 .1-.1.1-.1.2s0 .1.1.2c0 .1.1.1.1.2.1 0 .1.1.2.1s.2.1.3.1c.1.1.2.1.4.2.1.1.2.2.3.2s.2.2.2.3.1.2.1.4 0 .3-.1.5l-.3.3c-.1.1-.3.1-.4.2s-.3.1-.5.1h-.5c-.1 0-.2 0-.3-.1.1 0 .1-.1 0-.1zM318.7 1070.2l-1.7 4.2h-.5l1.7-4.2h.5zM321.1 1073.9h-2v-3.6h.6v3.1h1.4v.5zM322.2 1073.9h-.6v-3.6h.6v3.6zM323.1 1073.9v-3.6h1.1c.3 0 .6.1.8.2.2.2.3.4.3.6 0 .2-.1.4-.2.5-.1.2-.3.3-.5.3.2 0 .4.1.6.3.1.2.2.4.2.6 0 .3-.1.6-.4.7-.2.2-.5.3-.9.3l-1 .1zm.6-3.2v1h.4c.2 0 .4 0 .5-.1s.2-.2.2-.4c0-.3-.2-.5-.6-.5h-.5zm0 1.5v1.1h.5c.2 0 .4-.1.5-.2s.2-.2.2-.4c0-.4-.3-.6-.8-.6l-.4.1zM326 1073.7v-.6c.1.1.1.1.2.1s.2.1.2.1c.1 0 .2 0 .3.1h.2c.3 0 .4 0 .6-.1.1-.1.2-.2.2-.4 0-.1 0-.2-.1-.2s-.1-.1-.2-.2-.2-.1-.3-.1c-.1 0-.2-.1-.3-.1-.1-.1-.2-.1-.3-.2-.1-.1-.2-.1-.3-.2-.1-.1-.1-.2-.2-.3 0-.1-.1-.2-.1-.4s0-.3.1-.4l.3-.3c.1-.1.3-.1.4-.2s.3-.1.5-.1c.4 0 .7 0 .8.1v.6c-.2-.1-.5-.2-.8-.2h-.3c-.1 0-.2 0-.2.1-.1 0-.1.1-.2.1 0 .1-.1.1-.1.2s0 .1.1.2c0 .1.1.1.1.2.1 0 .1.1.2.1s.2.1.3.1c.1.1.2.1.4.2.1.1.2.2.3.2s.2.2.2.3.1.2.1.4 0 .3-.1.5l-.3.3c-.1.1-.3.1-.4.2s-.3.1-.5.1h-.5c-.1 0-.2 0-.3-.1.2 0 .1-.1 0-.1z"/></g><g><path d="M340.5 1053.8h-.7l-.3-.9h-1.4l-.3.9h-.7l1.3-3.6h.7l1.4 3.6zm-1.2-1.4l-.5-1.4v-.2c0 .1 0 .2-.1.2l-.5 1.4h1.1zM341.6 1052.5v1.3h-.6v-3.6h1.1c.4 0 .7.1 1 .3s.3.5.3.8c0 .3-.1.6-.4.9-.2.2-.6.3-1 .3h-.4zm0-1.8v1.3h.4c.3 0 .5-.1.6-.2.1-.1.2-.3.2-.5 0-.4-.2-.6-.7-.6h-.5zM344.6 1052.5v1.3h-.6v-3.6h1.1c.4 0 .7.1 1 .3s.3.5.3.8c0 .3-.1.6-.4.9-.3.3-.6.3-1 .3h-.4zm0-1.8v1.3h.4c.3 0 .5-.1.6-.2.1-.1.2-.3.2-.5 0-.4-.2-.6-.7-.6h-.5z"/></g><g><path d="M353.2 1053.8h-.7l-.3-.9h-1.4l-.3.9h-.7l1.3-3.6h.7l1.4 3.6zm-1.2-1.4l-.5-1.4v-.2c0 .1 0 .2-.1.2l-.5 1.4h1.1zM354.3 1052.5v1.3h-.6v-3.6h1.1c.4 0 .7.1 1 .3s.3.5.3.8c0 .3-.1.6-.4.9-.2.2-.6.3-1 .3h-.4zm0-1.8v1.3h.4c.3 0 .5-.1.6-.2.1-.1.2-.3.2-.5 0-.4-.2-.6-.7-.6h-.5zM357.3 1052.5v1.3h-.6v-3.6h1.1c.4 0 .7.1 1 .3.2.2.3.5.3.8 0 .3-.1.6-.4.9-.3.3-.6.3-1 .3h-.4zm0-1.8v1.3h.4c.3 0 .5-.1.6-.2.1-.1.2-.3.2-.5 0-.4-.2-.6-.7-.6h-.5z"/></g><g><path d="M336.8 1073.9v-3.6h1.1c.3 0 .6.1.8.2.2.2.3.4.3.6 0 .2-.1.4-.2.5-.1.2-.3.3-.5.3.2 0 .4.1.6.3.1.2.2.4.2.6 0 .3-.1.6-.4.7-.2.2-.5.3-.9.3l-1 .1zm.6-3.2v1h.4c.2 0 .4 0 .5-.1s.2-.2.2-.4c0-.3-.2-.5-.6-.5h-.5zm0 1.5v1.1h.5c.2 0 .4-.1.5-.2s.2-.2.2-.4c0-.4-.3-.6-.8-.6l-.4.1zM340.5 1073.9h-.6v-3.6h.6v3.6zM344.5 1073.9h-.7l-1.7-2.6c0-.1-.1-.1-.1-.2v2.9h-.6v-3.6h.7l1.7 2.6c.1.1.1.2.1.2v-2.8h.6v3.5zM345.2 1073.7v-.6c.1.1.1.1.2.1s.2.1.2.1.2 0 .3.1h.2c.3 0 .4 0 .6-.1.1-.1.2-.2.2-.4 0-.1 0-.2-.1-.2s-.1-.1-.2-.2-.2-.1-.3-.1c-.1 0-.2-.1-.3-.1-.1-.1-.2-.1-.3-.2s-.2-.1-.3-.2c-.1-.1-.1-.2-.2-.3s-.1-.2-.1-.4 0-.3.1-.4l.3-.3c.1-.1.3-.1.4-.2.2 0 .3-.1.5-.1.4 0 .7 0 .8.1v.6c-.2-.1-.5-.2-.8-.2h-.3c-.1 0-.2 0-.2.1s-.1.1-.2.1c0 .1-.1.1-.1.2s0 .1.1.2c0 .1.1.1.1.2.1 0 .1.1.2.1s.2.1.3.1c.1.1.2.1.4.2.1.1.2.2.3.2.1.1.2.2.2.3s.1.2.1.4 0 .3-.1.5l-.3.3c-.1.1-.3.1-.4.2-.2 0-.3.1-.5.1h-.5c-.1 0-.2 0-.3-.1.1 0 0-.1 0-.1zM349.9 1070.2l-1.7 4.2h-.5l1.7-4.2h.5zM352.3 1073.9h-2v-3.6h.6v3.1h1.4v.5zM353.4 1073.9h-.6v-3.6h.6v3.6zM354.3 1073.9v-3.6h1.1c.3 0 .6.1.8.2.2.2.3.4.3.6 0 .2-.1.4-.2.5-.1.2-.3.3-.5.3.2 0 .4.1.6.3.1.2.2.4.2.6 0 .3-.1.6-.4.7-.2.2-.5.3-.9.3l-1 .1zm.6-3.2v1h.4c.2 0 .4 0 .5-.1s.2-.2.2-.4c0-.3-.2-.5-.6-.5h-.5zm0 1.5v1.1h.5c.2 0 .4-.1.5-.2s.2-.2.2-.4c0-.4-.3-.6-.8-.6l-.4.1zM357.2 1073.7v-.6c.1.1.1.1.2.1s.2.1.2.1c.1 0 .2 0 .3.1h.2c.3 0 .4 0 .6-.1.1-.1.2-.2.2-.4 0-.1 0-.2-.1-.2s-.1-.1-.2-.2-.2-.1-.3-.1c-.1 0-.2-.1-.3-.1-.1-.1-.2-.1-.3-.2s-.2-.1-.3-.2c-.1-.1-.1-.2-.2-.3 0-.1-.1-.2-.1-.4s0-.3.1-.4l.3-.3c.1-.1.3-.1.4-.2s.3-.1.5-.1c.4 0 .7 0 .8.1v.6c-.2-.1-.5-.2-.8-.2h-.3c-.1 0-.2 0-.2.1-.1 0-.1.1-.2.1 0 .1-.1.1-.1.2s0 .1.1.2c0 .1.1.1.1.2.1 0 .1.1.2.1s.2.1.3.1c.1.1.2.1.4.2.1.1.2.2.3.2s.2.2.2.3.1.2.1.4 0 .3-.1.5l-.3.3c-.1.1-.3.1-.4.2-.2 0-.3.1-.5.1h-.5c-.1 0-.2 0-.3-.1.2 0 .1-.1 0-.1z"/></g></g><path d="M272.7 1197h-34.4c-.4 0-.8-.4-.8-.8v-9.7c0-.4.4-.8.8-.8h34.4c.4 0 .8.4.8.8v9.7c0 .4-.4.8-.8.8zm-33.7-1.6h32.8v-8.2H239v8.2z" fill="#686969"/><path d="M418 992.5c-4.3-3.9-10.9-3.5-14.7.8-1.1 1.2-1.9 2.7-2.3 4.1v.1c-.1.4-.2.9-.3 1.3l-3.4 16.7 16.3-5.2c.4-.1.8-.2 1.2-.4h.1c1.4-.6 2.8-1.5 3.9-2.7 3.9-4.2 3.5-10.8-.8-14.7zM434.1 1011.3c-3.6-4.5-10.1-5.3-14.7-1.8-1.3 1.1-2.3 2.4-3 3.8l-.1.1-.3.9-6.3 16.1 16.9-2.3c.5 0 1-.1 1.4-.2h.1c1.5-.3 3-1 4.3-2 4.5-3.5 5.2-10.1 1.7-14.6zM446.7 1032.7c-2.4-5.2-8.6-7.5-13.8-5.1-1.7.8-3 1.9-4 3.3l-.1.1c-.1.1-.1.2-.2.2l-10.1 14.4 17.5 1.8h.7c1.6.1 3.3-.2 4.8-.9 5.3-2.4 7.6-8.6 5.2-13.8z" fill="#010101"/><path d="M398.1 1009.8c-26.2-26.2-60.5-41.2-97.2-42.7v.7c0 .3 0 .6-.1.9 77 3.3 138.5 66.9 138.5 144.6 0 79.8-64.9 144.8-144.8 144.8s-144.7-65-144.7-144.8c0-78.4 62.7-142.5 140.6-144.7 0-.3-.1-.6-.1-.9 0-.2 0-.5.1-.7-37.5 1-72.7 16.1-99.3 42.8-27.6 27.6-42.9 64.4-42.9 103.5s15.2 75.9 42.9 103.5c27.6 27.6 67.1 42.9 103.5 42.9 39.1 0 75.9-15.2 103.5-42.9 27.6-27.6 42.9-64.4 42.9-103.5s-15.3-75.9-42.9-103.5z" fill="#010101"/><g fill="#010101"><path d="M296.5 969.3c-.3.2-.7.4-1.1.4s-.7-.1-.9-.2v-.6c.3.2.5.3.8.3.3 0 .5-.1.7-.2.1-.1.2-.3.2-.4h-1.6c-1.4 0-2.8 0-4.1.1.4 2.5 2.6 4.4 5.2 4.4s4.7-1.9 5.2-4.3c-1.3-.1-2.6-.1-3.9-.1-.1.2-.3.4-.5.6zM294.7 965.5h2v.6h-1.5l-.1.9c1.9 0 3.8.1 5.7.1-.3-2.6-2.5-4.6-5.2-4.6s-4.9 2-5.2 4.5c1.4 0 2.8-.1 4.1-.1l.2-1.4z"/><path d="M290.5 968.6c1.4 0 2.8-.1 4.1-.1h1.6v-.1c0-.2-.1-.4-.3-.5-.2-.1-.4-.2-.7-.2h-.7l.1-.8c-1.4 0-2.8 0-4.1.1 0 .2-.1.5-.1.7 0 .3 0 .6.1.9zM295.2 967.1h.4c.4 0 .8.1 1 .3.2.2.4.5.4.9v.2c1.3 0 2.6.1 3.9.1.1-.3.1-.6.1-.9v-.7c-1.9-.1-3.8-.1-5.7-.1l-.1.2z"/></g><g fill="#010101"><path d="M258.5 987.2l-.9.3-.9-1.1-1.9.6v1.4l-.9.3.2-5.5.9-.3 3.5 4.3zm-2.2-1.4L255 984c0-.1-.1-.2-.2-.3v2.5l1.5-.4zM261.4 981.3l-1.6 4.7 2.7-.8.2.7-3.8 1.1-.1-.4 1.6-4.7-2.5.7-.2-.7 3.7-1.1v.5zM266.8 982.7c.4 1.4-.1 2.3-1.5 2.6-1.3.3-2.1-.2-2.4-1.5l-.8-3.1.8-.2.7 2.9c.3 1 .8 1.4 1.5 1.2.7-.2 1-.8.7-1.7l-.8-2.9.8-.2 1 2.9zM272.4 983.6l-1 .2-1.1-1.2-.3-.3c-.1-.1-.2-.1-.3-.2-.1 0-.2-.1-.3-.1h-.3l-.3.1.5 2.1-.8.2-1.1-5.1 1.6-.3c.2-.1.5-.1.7-.1.2 0 .4.1.6.1.2.1.3.2.4.4.1.2.2.3.3.6v.5c0 .2-.1.3-.1.4-.1.1-.2.3-.3.4-.1.1-.3.2-.4.3.1 0 .2.1.3.1s.2.1.2.1c.1.1.2.1.2.2.1.1.2.2.3.2l1.2 1.4zm-4.1-3.7l.4 1.6.7-.2c.1 0 .2-.1.3-.1.1-.1.2-.1.2-.2s.1-.2.1-.3v-.4c-.1-.2-.2-.4-.4-.5-.2-.1-.4-.1-.7-.1l-.6.2zM275.8 983l-2.9.5-.9-5.1 2.7-.5.1.7-1.9.4.3 1.4 1.7-.3.1.7-1.7.3.3 1.5 2-.4.2.8zM281.9 976.8l-1.2 5.4-1 .1-2.5-4.9.9-.1 1.8 3.7c.1.1.1.3.2.4v-.5l.9-3.9.9-.2zM284.2 981.8l-.9.1-.5-5.1.9-.1.5 5.1zM289.4 981.4l-1 .1-.9-1.3c-.1-.1-.2-.2-.2-.3 0-.1-.2-.2-.2-.2-.1-.1-.2-.1-.2-.1h-.6l.2 2.1-.9.1-.4-5.2 1.7-.1h.7c.2 0 .4.1.6.2.2.1.3.2.4.4.1.2.2.4.2.6v.5c0 .1-.1.3-.2.4l-.3.3c-.1.1-.3.2-.5.2.1 0 .2.1.3.2l.2.2.2.2c.1.1.1.2.2.3l.7 1.4zm-3.5-4.2l.1 1.7.7-.1c.1 0 .3 0 .4-.1.1 0 .2-.1.3-.2s.1-.2.2-.3c0-.1.1-.2 0-.4 0-.2-.1-.4-.3-.6-.2-.1-.4-.2-.7-.2l-.7.2zM292.9 976.8l-1.5.1.2 4.4h-.9l-.2-4.4-1.5.1v-.7l3.8-.1.1.6zM297.8 979.2c0 1.5-.7 2.2-2.1 2.1-1.3 0-2-.7-1.9-2.1V976h.9v3c0 1 .4 1.5 1.2 1.5s1.1-.5 1.2-1.5v-3h.9l-.2 3.2zM303 981.6l-.9-.1-.4-1.3-2-.1-.5 1.3-.9-.1 2.2-5.1 1 .1 1.5 5.3zm-1.5-2.1l-.6-2.1c0-.1 0-.2-.1-.3 0 .1-.1.2-.1.3l-.8 2 1.6.1zM306.5 981.9l-2.9-.3.5-5.2.9.1-.4 4.4 2 .2-.1.8zM313.6 982.9l-.9-.1-1.9-4.1c0-.1-.1-.2-.1-.3 0 .1 0 .3-.1.7l-.5 3.4-.8-.1.8-5.1 1 .1 1.8 4c.1.2.1.3.1.3 0-.1 0-.4.1-.7l.5-3.3.8.1-.8 5.1zM317.7 983.6l-2.9-.5 1-5.1 2.7.5-.1.7-1.9-.4-.3 1.4 1.7.3-.1.7-1.7-.3-.3 1.5 2 .4-.1.8zM322.7 980.2l-1.5-.3-1 4.3-.8-.2 1-4.3-1.4-.3.2-.7 3.7.8-.2.7zM330.2 981.4l-2.7 4.6-.9-.3v-3.8c0-.2 0-.3.1-.5-.1.2-.1.3-.2.5l-1.9 3.3-1-.3-.1-5.4.9.2-.1 3.9c0 .2 0 .3-.1.5 0-.1.1-.3.2-.5l2-3.4.9.2v4.4c0-.1.1-.3.2-.4l1.9-3.4.8.4zM331.5 987.3c-.7-.2-1.2-.6-1.5-1.2-.3-.6-.3-1.3-.1-2 .3-.8.7-1.4 1.3-1.7.6-.3 1.3-.4 2-.2s1.2.6 1.5 1.2c.3.6.3 1.3.1 2-.3.8-.7 1.4-1.3 1.7-.7.4-1.3.4-2 .2zm1.4-4.4c-.5-.1-.9-.1-1.3.2-.4.3-.7.6-.8 1.2-.2.5-.2 1 0 1.5s.5.7.9.8c.5.1.9.1 1.3-.1s.7-.6.8-1.2c.2-.6.2-1.1 0-1.5-.2-.4-.5-.7-.9-.9zM338.5 989.6l-.9-.3-.3-1.6c0-.1-.1-.3-.1-.4 0-.1-.1-.2-.1-.3l-.2-.2c-.1-.1-.2-.1-.3-.1l-.3-.1-.7 2-.8-.3 1.7-4.9 1.6.6.6.3c.2.1.3.3.4.4.1.2.2.3.2.5s0 .4-.1.6-.1.3-.2.4c-.1.1-.2.2-.4.3-.1.1-.3.1-.4.2-.1.1-.3 0-.5 0 .1.1.1.2.2.2 0 .1.1.2.1.3 0 .1.1.2.1.3s.1.2.1.3l.3 1.8zm-1.5-5.2l-.6 1.6.7.2c.1 0 .2.1.4.1.1 0 .2 0 .3-.1.1-.1.2-.1.3-.2.1-.1.1-.2.2-.3.1-.2.1-.4 0-.6-.1-.2-.3-.3-.6-.4l-.7-.3zM342.7 991.2l-1-.4-.8-2.9v-.2l-.9 2.4-.8-.3 1.9-4.8.8.3-.9 2.3s.1-.1.2-.1l2.4-1.5 1 .4-2.8 1.6.9 3.2z"/></g><path d="M350.8 1197h-34.4c-.4 0-.8-.4-.8-.8v-9.7c0-.4.4-.8.8-.8h34.4c.4 0 .8.4.8.8v9.7c0 .4-.4.8-.8.8zm-33.7-1.6H350v-8.2h-32.8v8.2h-.1z" fill="#686969"/><g fill="#686969"><path d="M281.1 1103.1h8.7v-1.5h-9.4c-.4 0-.7.3-.7.7v11.7c0 .4.3.7.7.7h9.4v-1.5h-8.7v-10.1zM307.9 1103.1v10.2h-8.5v1.5h9.3c.4 0 .7-.3.7-.7v-11.6c0-.4-.3-.7-.7-.7h-9.3v1.5h8.5v-.2zM297.9 1093.6h1.5v8.1h-1.5z"/><path d="M366.5 1029.4h-67.8c-.4 0-.7.3-.7.7v50.3h1.5v-49.5h66.4v92.1h-66.4v-8.3H298v9c0 .4.3.7.7.7h67.8c.4 0 .7-.3.7-.7v-93.6c0-.3-.3-.7-.7-.7zM289.8 1093.6h1.5v8.1h-1.5z"/><path d="M290.6 1029.4h-67.8c-.4 0-.7.3-.7.7v93.6c0 .4.3.7.7.7h67.8c.4 0 .7-.3.7-.7v-9h-1.5v8.3h-66.4v-92.1h66.4v49.5h1.5v-50.3c0-.3-.3-.7-.7-.7z"/><path d="M282.6 1092.1v-10.2h7.2v-1.5h-7.9c-.4 0-.7.3-.7.7v11.6c0 .4.3.7.7.7h7.9v-1.5h-7.2v.2zM289.8 1092.1h1.5v1.5h-1.5zM289.8 1080.4h1.5v1.5h-1.5zM306.5 1081.9v10.2h-7.1v1.5h7.8c.4 0 .7-.3.7-.7v-11.6c0-.4-.3-.7-.7-.7h-7.8v1.5h7.1v-.2zM297.9 1080.4h1.5v1.5h-1.5zM297.9 1092.1h1.5v1.5h-1.5zM297.9 1101.6h1.5v1.5h-1.5zM297.9 1113.3h1.5v1.5h-1.5zM289.8 1113.3h1.5v1.5h-1.5zM289.8 1101.6h1.5v1.5h-1.5z"/></g><path d="M288.6 1226c-17-.3-38.6-8.8-57.9-22.8s-31.7-30.2-33.3-43.4c-.1-1 .2-1.9.9-2.7.9-1 2.4-1.6 3.9-1.6h86.3c1.4 0 2.5.9 2.5 2.1v66.3c0 .5-.2 1-.6 1.4-.4.4-1.1.7-1.8.7zm-86.3-69c-1.1 0-2.1.4-2.7 1.1-.3.3-.6.8-.5 1.5 3.2 27.2 54.2 64.1 89.5 64.8.3 0 .6-.1.8-.3.1-.1.1-.2.1-.2v-66.3c0-.2-.4-.5-.9-.5l-86.3-.1zM301.1 1226c-.7 0-1.4-.3-1.9-.7-.4-.4-.6-.9-.6-1.4v-66.3c0-1.2 1.1-2.1 2.5-2.1h86.3c1.5 0 3 .6 3.9 1.6.7.8 1 1.7.9 2.7-1.5 13.2-14 29.5-33.3 43.4-19.1 13.9-40.7 22.5-57.8 22.8.1 0 .1 0 0 0zm0-69c-.5 0-.9.3-.9.5v66.3c0 .1 0 .2.1.2.2.2.5.3.8.3 35.3-.7 86.4-37.6 89.5-64.8.1-.7-.2-1.2-.5-1.5-.6-.7-1.6-1.1-2.7-1.1l-86.3.1z" fill="#686969"/><path d="M225.5 1164c-1.8 0-3.3-.4-3.3-1 0-.5 1.5-1 3.3-1s3.3.4 3.3 1-1.5 1-3.3 1zm-4.6 5.7v1.8c0 .8 1.7 1.8 3.9 1.9h1.5c2.2-.1 3.9-.9 3.9-1.7v-8.4c0-.9-2.1-1.8-4.6-1.8s-4.6.8-4.6 1.8l-.1 6.4zM249.4 1164c-1.8 0-3.3-.4-3.3-1 0-.5 1.5-1 3.3-1s3.3.4 3.3 1c-.1.6-1.5 1-3.3 1zm-4.6 5.7v1.8c0 .8 1.7 1.8 3.9 1.9h1.5c2.2-.1 3.9-.9 3.9-1.7v-8.4c0-.9-2.1-1.8-4.6-1.8s-4.6.8-4.6 1.8l-.1 6.4zM272.4 1164c-1.8 0-3.3-.4-3.3-1 0-.5 1.5-1 3.3-1s3.3.4 3.3 1-1.5 1-3.3 1zm-4.6 5.7v1.8c0 .8 1.7 1.8 3.9 1.9h1.5c2.2-.1 3.9-.9 3.9-1.7v-8.4c0-.9-2.1-1.8-4.6-1.8s-4.6.8-4.6 1.8l-.1 6.4zM362.1 1164c-1.8 0-3.3-.4-3.3-1 0-.5 1.5-1 3.3-1s3.3.4 3.3 1-1.5 1-3.3 1zm-4.6 5.7v1.8c0 .8 1.7 1.8 3.9 1.9h1.5c2.2-.1 3.9-.9 3.9-1.7v-8.4c0-.9-2.1-1.8-4.6-1.8s-4.6.8-4.6 1.8l-.1 6.4zM316 1164c-1.8 0-3.3-.4-3.3-1 0-.5 1.5-1 3.3-1s3.3.4 3.3 1-1.5 1-3.3 1zm-4.6 5.7v1.8c0 .8 1.7 1.8 3.9 1.9h1.5c2.2-.1 3.9-.9 3.9-1.7v-8.4c0-.9-2.1-1.8-4.6-1.8s-4.6.8-4.6 1.8l-.1 6.4zM339.1 1164c-1.8 0-3.3-.4-3.3-1 0-.5 1.5-1 3.3-1s3.3.4 3.3 1c-.1.6-1.5 1-3.3 1zm-4.6 5.7v1.8c0 .8 1.7 1.8 3.9 1.9h1.5c2.2-.1 3.9-.9 3.9-1.7v-8.4c0-.9-2.1-1.8-4.6-1.8s-4.6.8-4.6 1.8l-.1 6.4z" fill="#686969"/><path d="M294.6 1239.8c-33.5 0-65-13-88.7-36.7s-36.7-55.2-36.7-88.7 13-65 36.7-88.7c23.7-23.7 55.2-36.7 88.7-36.7s65 13 88.7 36.7c23.7 23.7 36.7 55.2 36.7 88.7s-13 65-36.7 88.7c-23.7 23.6-55.2 36.7-88.7 36.7zm0-249.3c-68.3 0-123.8 55.6-123.8 123.8 0 68.2 55.6 123.8 123.8 123.8s123.8-55.6 123.8-123.8c0-68.2-55.5-123.8-123.8-123.8z" fill="#010101"/><path d="M360.5 1118.6h-41.4c-.4 0-.8-.4-.8-.8v-19.2c0-.4.4-.8.8-.8h41.4c.4 0 .8.4.8.8v19.2c0 .4-.3.8-.8.8zm-40.6-1.6h39.8v-17.6h-39.8v17.6zM270.7 1118.6h-42.1c-.4 0-.8-.4-.8-.8v-19.2c0-.4.4-.8.8-.8h42.1c.4 0 .8.4.8.8v19.2c0 .4-.4.8-.8.8zm-41.3-1.6h40.5v-17.6h-40.5v17.6z" fill="#686969"/><path d="M280.8 1087.9h-3.5c-.6 0-1.1-.5-1.1-1.1 0-.6.5-1.1 1.1-1.1h3.5c.6 0 1.1.5 1.1 1.1 0 .6-.5 1.1-1.1 1.1zM270.7 1087.9H264c-.6 0-1.1-.5-1.1-1.1 0-.6.5-1.1 1.1-1.1h6.7c.6 0 1.1.5 1.1 1.1 0 .6-.5 1.1-1.1 1.1zm-13.3 0h-6.7c-.6 0-1.1-.5-1.1-1.1 0-.6.5-1.1 1.1-1.1h6.7c.6 0 1.1.5 1.1 1.1 0 .6-.5 1.1-1.1 1.1zm-13.4 0h-6.7c-.6 0-1.1-.5-1.1-1.1 0-.6.5-1.1 1.1-1.1h6.7c.6 0 1.1.5 1.1 1.1 0 .6-.5 1.1-1.1 1.1zm-13.3 0H224c-.6 0-1.1-.5-1.1-1.1 0-.6.5-1.1 1.1-1.1h6.7c.6 0 1.1.5 1.1 1.1 0 .6-.5 1.1-1.1 1.1zm-13.3 0h-6.7c-.6 0-1.1-.5-1.1-1.1 0-.6.5-1.1 1.1-1.1h6.7c.6 0 1.1.5 1.1 1.1 0 .6-.5 1.1-1.1 1.1zm-13.3 0h-6.7c-.6 0-1.1-.5-1.1-1.1 0-.6.5-1.1 1.1-1.1h6.7c.6 0 1.1.5 1.1 1.1 0 .6-.5 1.1-1.1 1.1zm-13.3 0h-6.7c-.6 0-1.1-.5-1.1-1.1 0-.6.5-1.1 1.1-1.1h6.7c.6 0 1.1.5 1.1 1.1 0 .6-.6 1.1-1.1 1.1zM177.4 1087.9H174c-.6 0-1.1-.5-1.1-1.1 0-.6.5-1.1 1.1-1.1h3.5c.6 0 1.1.5 1.1 1.1 0 .6-.6 1.1-1.2 1.1zM415.1 1087.9h-3.5c-.6 0-1.1-.5-1.1-1.1 0-.6.5-1.1 1.1-1.1h3.5c.6 0 1.1.5 1.1 1.1 0 .6-.5 1.1-1.1 1.1zM405 1087.9h-6.7c-.6 0-1.1-.5-1.1-1.1 0-.6.5-1.1 1.1-1.1h6.7c.6 0 1.1.5 1.1 1.1 0 .6-.5 1.1-1.1 1.1zm-13.3 0H385c-.6 0-1.1-.5-1.1-1.1 0-.6.5-1.1 1.1-1.1h6.7c.6 0 1.1.5 1.1 1.1 0 .6-.5 1.1-1.1 1.1zm-13.3 0h-6.7c-.6 0-1.1-.5-1.1-1.1 0-.6.5-1.1 1.1-1.1h6.7c.6 0 1.1.5 1.1 1.1 0 .6-.5 1.1-1.1 1.1zm-13.3 0h-6.7c-.6 0-1.1-.5-1.1-1.1 0-.6.5-1.1 1.1-1.1h6.7c.6 0 1.1.5 1.1 1.1 0 .6-.6 1.1-1.1 1.1zm-13.4 0H345c-.6 0-1.1-.5-1.1-1.1 0-.6.5-1.1 1.1-1.1h6.7c.6 0 1.1.5 1.1 1.1 0 .6-.5 1.1-1.1 1.1zm-13.3 0h-6.7c-.6 0-1.1-.5-1.1-1.1 0-.6.5-1.1 1.1-1.1h6.7c.6 0 1.1.5 1.1 1.1 0 .6-.5 1.1-1.1 1.1zm-13.3 0h-6.7c-.6 0-1.1-.5-1.1-1.1 0-.6.5-1.1 1.1-1.1h6.7c.6 0 1.1.5 1.1 1.1 0 .6-.5 1.1-1.1 1.1zM311.8 1087.9h-3.5c-.6 0-1.1-.5-1.1-1.1 0-.6.5-1.1 1.1-1.1h3.5c.6 0 1.1.5 1.1 1.1 0 .6-.5 1.1-1.1 1.1z" fill="#010101"/><path d="M253.9 1036.4v39.7h-25.7v-39.7h25.7m0-2h-25.7c-1.1 0-2 .9-2 2v39.7c0 1.1.9 2 2 2h25.7c1.1 0 2-.9 2-2v-39.7c0-1.1-.9-2-2-2zM285.1 1036.4v39.7h-25.7v-39.7h25.7m0-2h-25.7c-1.1 0-2 .9-2 2v39.7c0 1.1.9 2 2 2h25.7c1.1 0 2-.9 2-2v-39.7c0-1.1-.9-2-2-2zM329.8 1036.4v39.7h-25.7v-39.7h25.7m0-2h-25.7c-1.1 0-2 .9-2 2v39.7c0 1.1.9 2 2 2h25.7c1.1 0 2-.9 2-2v-39.7c0-1.1-.9-2-2-2zM361 1036.4v39.7h-25.7v-39.7H361m0-2h-25.7c-1.1 0-2 .9-2 2v39.7c0 1.1.9 2 2 2H361c1.1 0 2-.9 2-2v-39.7c0-1.1-.9-2-2-2z" fill="#686969"/><path d="M239.1 1047.7h-8.9c-.2 0-.4-.1-.5-.3-.1-.2-.1-.4 0-.5l4.5-7.7c.2-.3.7-.3.9 0l4.5 7.7c.1.2.1.4 0 .5-.1.2-.3.3-.5.3zm-7.9-1h7.1l-3.5-6.1-3.6 6.1zM251.9 1047.7H243c-.2 0-.4-.1-.5-.3-.1-.2-.1-.4 0-.5l4.5-7.7c.2-.3.7-.3.9 0l4.5 7.7c.1.2.1.4 0 .5-.2.2-.3.3-.5.3zm-8-1h7.1l-3.5-6.1-3.6 6.1zM251.9 1067.6h-21.6c-.3 0-.5-.2-.5-.5v-8.6c0-.3.2-.5.5-.5h21.6c.3 0 .5.2.5.5v8.6c0 .3-.2.5-.5.5zm-21.1-1h20.6v-7.6h-20.6v7.6zM270.3 1047.7h-8.9c-.2 0-.4-.1-.5-.3-.1-.2-.1-.4 0-.5l4.5-7.7c.2-.3.7-.3.9 0l4.5 7.7c.1.2.1.4 0 .5-.1.2-.3.3-.5.3zm-8-1h7.1l-3.5-6.1-3.6 6.1zM283 1047.7h-8.9c-.2 0-.4-.1-.5-.3-.1-.2-.1-.4 0-.5l4.5-7.7c.2-.3.7-.3.9 0l4.5 7.7c.1.2.1.4 0 .5-.1.2-.3.3-.5.3zm-8-1h7.1l-3.5-6.1-3.6 6.1zM283 1067.6h-21.6c-.3 0-.5-.2-.5-.5v-8.6c0-.3.2-.5.5-.5H283c.3 0 .5.2.5.5v8.6c.1.3-.2.5-.5.5zm-21.1-1h20.6v-7.6h-20.6v7.6zM315 1047.7h-8.9c-.2 0-.4-.1-.5-.3-.1-.2-.1-.4 0-.5l4.5-7.7c.2-.3.7-.3.9 0l4.5 7.7c.1.2.1.4 0 .5-.1.2-.3.3-.5.3zm-8-1h7.1l-3.5-6.1-3.6 6.1zM327.7 1047.7h-8.9c-.2 0-.4-.1-.5-.3-.1-.2-.1-.4 0-.5l4.5-7.7c.2-.3.7-.3.9 0l4.5 7.7c.1.2.1.4 0 .5-.1.2-.3.3-.5.3zm-7.9-1h7.1l-3.5-6.1-3.6 6.1zM327.7 1067.6h-21.6c-.3 0-.5-.2-.5-.5v-8.6c0-.3.2-.5.5-.5h21.6c.3 0 .5.2.5.5v8.6c.1.3-.2.5-.5.5zm-21.1-1h20.6v-7.6h-20.6v7.6zM346.2 1047.7h-8.9c-.2 0-.4-.1-.5-.3-.1-.2-.1-.4 0-.5l4.5-7.7c.2-.3.7-.3.9 0l4.5 7.7c.1.2.1.4 0 .5-.1.2-.3.3-.5.3zm-8-1h7.1l-3.5-6.1-3.6 6.1zM358.9 1047.7H350c-.2 0-.4-.1-.5-.3-.1-.2-.1-.4 0-.5l4.5-7.7c.2-.3.7-.3.9 0l4.5 7.7c.1.2.1.4 0 .5-.1.2-.3.3-.5.3zm-8-1h7.1l-3.5-6.1-3.6 6.1zM358.9 1067.6h-21.6c-.3 0-.5-.2-.5-.5v-8.6c0-.3.2-.5.5-.5h21.6c.3 0 .5.2.5.5v8.6c0 .3-.2.5-.5.5zm-21.1-1h20.6v-7.6h-20.6v7.6z" fill="#686969"/><g fill="#010101"><path d="M244.3 955.4l-2.4-10.9 3.2-.7c4-.9 6.4.5 7.2 4 .4 1.7.1 3.2-.8 4.4-.9 1.3-2.3 2.1-4.2 2.5l-3 .7zm-.3-9.8l1.7 7.9 1.4-.3c1.3-.3 2.2-.8 2.7-1.7.6-.9.7-1.9.4-3.2-.6-2.6-2.2-3.5-4.8-3l-1.4.3zM261.6 951.9l-6.2 1.1-2-11 5.9-1.1.3 1.6-4.1.7.6 3.1 3.8-.7.3 1.5-3.8.7.6 3.3 4.4-.8.2 1.6zM270.6 939.4l-2.4 11.6-2.1.3-5.4-10.6 2-.3 3.9 8 .3.9c0-.3 0-.6.1-1l1.7-8.8 1.9-.1zM279.8 949.8l-6.3.6-1.1-11.2 6-.6.1 1.6-4.2.4.3 3.2 3.8-.4.1 1.6-3.8.4.3 3.3 4.4-.4.4 1.5zM287.9 949.3l-6.2.3-.7-11.2 1.9-.1.5 9.6 4.3-.2.2 1.6zM293.5 949.4c-1.6 0-2.9-.5-3.9-1.5s-1.5-2.4-1.5-4.1c0-1.8.4-3.2 1.4-4.3s2.3-1.6 4-1.7c1.6 0 2.8.5 3.8 1.5s1.5 2.4 1.5 4.1c0 1.8-.4 3.3-1.4 4.4-.9 1-2.2 1.5-3.9 1.6zm-.1-10c-1 0-1.9.4-2.5 1.2-.6.8-.9 1.8-.9 3s.3 2.2 1 3c.6.8 1.5 1.1 2.5 1.1 1.1 0 1.9-.4 2.5-1.1.6-.7.9-1.8.9-3.1s-.3-2.4-1-3.1c-.6-.6-1.4-1-2.5-1zM302.8 945.3l-.2 4.1-1.8-.1.5-11.2 3.4.2c1.3.1 2.3.4 2.9 1 .7.6 1 1.5.9 2.6 0 1.1-.5 2-1.2 2.6s-1.8 1-3 .9l-1.5-.1zm.3-5.7l-.2 4.1 1.2.1c.8 0 1.4-.1 1.8-.5.4-.4.7-.9.7-1.5.1-1.3-.7-2-2.2-2.1l-1.3-.1zM322 950.9l-1.8-.2.7-7.2c.1-.6.2-1.3.3-2.2-.2.5-.3.8-.4 1l-4.2 8-1.3-.1-2.5-8.6c-.1-.3-.1-.6-.2-1.1 0 .4-.1 1.2-.2 2.2l-.7 7.2-1.7-.2 1.2-11.1 2.6.3 2.2 7.7c.2.6.3 1 .3 1.3.3-.6.5-1 .6-1.3l3.7-7.1 2.5.3-1.1 11.1zM330.8 952.3l-6.2-1 1.7-11.1 6 .9-.2 1.6-4.1-.6-.5 3.1 3.8.6-.2 1.6-3.8-.6-.5 3.3 4.4.7-.4 1.5zM341.9 954.4l-2-.4-3.6-9.1c-.1-.2-.2-.5-.2-.7 0 .2-.1.8-.2 1.5l-1.4 7.2-1.8-.4 2.2-11 2.1.4 3.5 8.9c.1.4.2.6.3.8 0-.3.1-.8.2-1.5l1.4-7.1 1.8.3-2.3 11.1zM353.8 947.4l-3.1-.8-2.3 9.4-1.8-.4 2.3-9.4-3.1-.8.4-1.5 8.1 2-.5 1.5z"/></g><g><g fill="#FFF"><path d="M150.3 1056v-.2l.7-.5c0-.2-.2-.5-.3-.7l-.8.1c-.1-.1-.1-.3-.2-.4l.3-.7c-.2-.2-.3-.4-.6-.4l-.4.3-.2.3-.3.6c.6.3 1 1 1.1 1.8.1 1.3-.8 2.4-2 2.5-1.3.1-2.4-.8-2.5-2-.1-1.2.6-2.2 1.6-2.5l.1-.7-.5-.7c-.2 0-.5.2-.7.3l.1.8c-.1.1-.3.1-.4.2l-.7-.3c-.2.2-.4.3-.4.6l.5.7c-.1.1-.1.2-.2.4l-.8.1c-.1.2 0 .5-.1.7l.7.3v.4l-.7.5c0 .2.2.5.3.7l.8-.1c.1.1.1.3.2.4l-.3.7c.2.2.3.4.6.4l.7-.5c.1.1.2.2.4.2l.1.8c.2.1.5 0 .7.1l.3-.7h.4l.5.7c.2 0 .5-.2.7-.3l-.1-.8c.1-.1.3-.1.4-.2l.7.3c.2-.2.4-.3.4-.6l-.5-.7c.1-.1.2-.2.2-.4l.8-.1c.1-.2 0-.5.1-.7l-.7-.3v-.4z"/><path d="M143.3 1060.2c-.3 0-.5-.1-.6-.4 0-.3.1-.5.4-.6.3 0 .5.1.6.4.1.4-.2.6-.4.6zm.8-1.9l-.4.2-.3-.1-.2-.4h-.4v.1l-.1.4-.3.1-.4-.2-.3.3.2.4-.1.3-.4.2v.4h.1l.4.1.1.3-.2.4.3.3.4-.2.3.1.2.4h.4v-.1l.1-.4.2-.1.4.2.3-.3-.2-.4.1-.3.4-.2v-.4h-.1l-.4-.1-.1-.3.2-.4c0-.1-.1-.1-.2-.3zM144.3 1058.5c0 .1.1.1.1.2l-.1-.2zM147.4 1052l-.1.4-.1.8-.1.4-.1.3-.5 2.3s0 .1.1.1l.7-.1v.1l-.5 1.7s0 .1 0 0l1.8-2.6v-.1l-.7.1h-.1s-.1 0 0-.1l.6-1.3.2-.3.2-.3.3-.7.2-.4c-.8-.2-1.3-.3-1.9-.3z"/></g><path d="M166 1062l-11.8-12.7c-1.3-1.5-2.9-2.5-4.9-3.1-5.5-1.6-11.3 1.5-13 7-1.6 5.5 1.5 11.3 7 13 1.7.5 3.3.6 4.9.3l17.8-4.5z" fill="#010101"/><g fill="#FFF"><path d="M151.4 1055.2v-.2l.7-.5c0-.2-.2-.5-.3-.7l-.8.2c-.1-.1-.1-.3-.2-.4l.3-.7c-.2-.2-.3-.4-.6-.4l-.4.3-.2.3-.3.6c.5.3 1 1 1.1 1.7.1 1.3-.8 2.4-2 2.5-1.2.1-2.4-.8-2.5-2-.1-1.1.6-2.2 1.6-2.5l.1-.7-.5-.7c-.2 0-.5.2-.7.3l.1.8c-.1.1-.3.1-.4.2l-.7-.3c-.2.1-.4.3-.4.6l.5.7c-.1.1-.1.2-.2.4l-.8.1c-.1.2 0 .5-.1.7l.7.3v.4l-.7.5c0 .2.2.5.3.7l.8-.1c.1.1.1.3.2.4l-.3.7c.2.2.3.4.6.4l.7-.5c.1.1.2.2.4.2l.1.8c.2.1.5 0 .7.1l.3-.7h.4l.5.7c.2 0 .5-.2.7-.3l-.1-.8c.1-.1.3-.1.4-.2l.7.3c.2-.2.4-.3.4-.6l-.5-.7c.1-.1.1-.2.2-.4l.8-.1c.1-.2 0-.5.1-.7l-.7-.3c.1-.2.1-.3 0-.4z"/><path d="M144.5 1059.5c-.3 0-.5-.1-.6-.4 0-.3.1-.5.4-.6.3 0 .5.1.6.4 0 .4-.1.6-.4.6zm.8-1.8l-.4.2-.2-.1-.2-.4h-.4v.1l-.1.5-.2.1-.4-.2-.3.3.2.4-.1.2-.4.2v.4h.1l.4.1.1.2-.2.4.3.3.4-.2.2.1.2.4h.4v-.1l.1-.4.2-.1.4.2.3-.3-.2-.4.1-.3.4-.2v-.4h-.1l-.4-.1-.1-.2.2-.4c0-.1-.1-.1-.1-.2l-.2-.1z"/><path d="M145.4 1057.8c0 .1.1.1.1.2l-.1-.2zM148.5 1051.3l-.1.4-.1.8-.1.4-.1.3-.5 2.3s0 .1.1.1l.6-.1v.1l-.5 1.7s0 .1 0 0l1.8-2.6v-.1l-.7.1h-.1s-.1 0 0-.1l.6-1.3.2-.3.2-.3.3-.7.2-.4c-.7-.1-1.2-.2-1.8-.3z"/></g></g><g><g fill="#FFF"><path d="M160.7 1028.7c.1-.2.1-.5 0-.7-.1-1.5-1.4-2.7-2.9-2.6-1.1.1-2 .9-2.4 1.9-.3-.4-1-.6-1.5-.6-1 .1-1.8 1-1.7 2.1 0 .2 0 .4.1.5-.9.4-1.4 1.2-1.3 2.1.1 1.3 1.2 2.1 2.5 2l6.9-.5c1.3-.1 2.1-1.1 2-2.4 0-.8-.8-1.6-1.7-1.8zm-1.4 1c-.1.8-.8 1.5-1.6 1.5h-.4c-.1 0-.3-.1-.4-.2l-1.1 1.4c-.1.1-.2.2-.4.2-.1 0-.3 0-.4-.2-.1-.1-.2-.2-.2-.4s0-.3.2-.4l1.1-1.4c-.2-.4-.4-.8-.3-1.3.1-.8.8-1.5 1.6-1.5h.4c.5.1.9.3 1.2.7.2.7.3 1.2.3 1.6z"/><path d="M157.7 1028.3h-.3c-.5 0-1 .4-1 .9-.1.3 0 .6.3.9l.3.3c.1.1.2.1.4.2h.3c.5 0 1-.4 1-.9.1-.3 0-.6-.2-.8-.2-.2-.5-.5-.8-.6z"/></g><path d="M156.4 1039.9H174.6l-8.4-15.1c-.8-1.7-2.3-3.2-4-4.4-4.9-2.9-11.3-1.2-14.3 3.7s-1.2 11.3 3.7 14.3c1.5.9 3 1.3 4.6 1.4l.2.1z" fill="#010101"/><g fill="#FFF"><path d="M161.7 1028.3c.1-.2.1-.4 0-.7-.1-1.5-1.4-2.6-2.8-2.5-1.1.1-1.9.9-2.3 1.9-.3-.4-1-.6-1.4-.6-1 .1-1.8 1-1.7 2 0 .2 0 .4.1.5-.9.4-1.3 1.2-1.2 2.1.1 1.3 1.2 2.1 2.4 2l6.8-.5c1.2-.1 2.1-1.1 2-2.4-.3-.8-1-1.5-1.9-1.8zm-1.4 1.1c-.1.8-.8 1.4-1.6 1.4h-.4c-.1 0-.3-.1-.4-.2l-1.1 1.3c-.1.1-.2.2-.4.2-.1 0-.3 0-.4-.2-.1-.1-.2-.2-.2-.4 0-.1 0-.3.2-.4l1.1-1.3c-.2-.4-.4-.8-.3-1.3.1-.8.8-1.4 1.6-1.4h.4c.4.1.9.3 1.2.7.2.7.3 1.1.3 1.6z"/><path d="M158.7 1028h-.3c-.5 0-.9.4-1 .9-.1.3 0 .6.3.9l.3.3c.1.1.2.1.4.2h.3c.5 0 .9-.4 1-.9.1-.3 0-.6-.2-.8-.2-.3-.5-.5-.8-.6z"/></g></g><g><path d="M173.1 1015.3c.4.1.7.3 1.1.4l16 6.2-2.4-17.5c-.2-1.7-1-3.5-2.1-5.1-3.6-4.6-10.1-5.3-14.7-1.7-4.6 3.6-5.3 10.1-1.7 14.7 1 1.4 2.3 2.4 3.8 3z" fill="#010101"/><g fill="#FFF"><path d="M178.5 1007.8l-1.3-.1-.3 2.5-1-.1 1.4 2.5 1.9-2.1-1-.1zM176.7 1003.8l3 .3-.1.9-3-.3zM176.6 1005.1l3 .3-.1.9-3-.3zM176.4 1006.4l3 .3-.1.8-3-.3z"/><path d="M178.9 1000.7l-3.5-.4c-.1 0-.4 0-.4.4l-.8 6.7 1.3.2.7-5.8 1.7.2-.2 1.7 1.3.2.3-2.7c-.1-.4-.3-.5-.4-.5z"/><path d="M175.6 1006.3l-1.3-.2-.4 3c0 .1.4.4.4.5l2.1.2.2-1.3-1.3-.2.3-2zM182.5 1006.7h-.4c.1-2.5-.9-3.9-2.6-4.4l-.1 1.2c1.2.5 1.5 1.9 1.4 3.5l-.1.8 1.7.2c.5.1.8.2.7.7l-.1.7-4.2-.5-.2 1.3 5 .6c.1 0 .5-.2.5-.3l.2-1.6c.1-1.4-.8-2.1-1.8-2.2z"/></g></g><g fill="#FFF"><path d="M411 994.7c-2.4 0-4.4.8-4.4 1.7v8c0 .9 2 1.7 4.4 1.7s4.4-.8 4.4-1.7v-8c0-.8-1.9-1.7-4.4-1.7zm-4.3 10.1c0-.1 0 0 0 0zm3.1-5c-.3 0-.4-.1-.4.2v.6c0 .5-.1.8-.4.8.3.1.4.5.4 1v.7c0 .2 0 .2.1.3.1.1.2.1.3.1v.6c-.5 0-.8-.1-1-.3s-.3-.5-.3-.9v-.8c0-.4-.2-.4-.4-.4v-.8c.3 0 .4 0 .4-.4v-.6c0-.4.1-.7.3-.8.2-.2.5-.2 1-.2v.9zm4.3 1.5v.7c-.3 0-.4 0-.4.4v.8c0 .5-.1.8-.3 1-.2.2-.5.3-1 .3v-.6c.1 0 .3 0 .3-.1.1-.1.1-.1.1-.3v-.7c0-.6.1-.9.4-1-.3-.1-.4-.4-.4-.9v-.6c0-.3-.2-.2-.4-.2v-.7c.5 0 .8.1 1 .2.2.2.3.4.3.8v.6c0 .4.1.3.4.3zm-3.1-4.1c-1.7 0-3.1-.4-3.1-.9s1.4-.9 3.1-.9 3.1.4 3.1.9c.1.5-1.3.9-3.1.9zM422.1 1013.2c0-.4 1.2-.7 2.7-.7s2.7.3 2.7.7c0 .4-1.2.7-2.7.7-1.5 0-2.7-.3-2.7-.7zm2.4 8.9v-6.4c0-.8 1.2-1.2 3.1-1.2.4 0 .8 0 1.2.1v-1.4c0-.7-1.8-1.2-3.9-1.2-2.2 0-3.9.6-3.9 1.2v8.2c0 .7 1.8 1.2 3.9 1.2h.3c-.5-.1-.7-.3-.7-.5z"/><path d="M427.7 1016.6c-1.1 0-1.9-.2-1.9-.5s.9-.5 1.9-.5c1.1 0 1.9.2 1.9.5s-.8.5-1.9.5zm1.7 2.7l-3.5 2.9 1.3-2.2H426l3.5-2.9-1.3 2.2h1.2zm-1.7-4.2c-1.6 0-2.7.4-2.7.9v5.9c0 .5 1.2.9 2.7.9 1.6 0 2.8-.4 2.8-.9v-5.9c0-.5-1.2-.9-2.8-.9z"/><g><path d="M432.6 1036.1h10.1l-2.6-2.4v1.2h-7.3v-1c0-.5.2-.9.7-.9h7.5c.5 0 .9.4.9.9v.4l.9.8v-1.2c0-1-.9-1.8-1.8-1.8h-7.5c-1 0-1.6.8-1.6 1.8v2.2h.7zM441.8 1036.7h-10.1l2.6 2.4v-1.4h7.6v1.2c0 .5-.5.9-.9.9h-7.5c-.5 0-.7-.5-.7-.9v-.4l-.9-.8v1.2c0 1 .6 1.5 1.6 1.5h1.7l3.7 2.6-.3-2.6h2.4c1 0 1.8-.6 1.8-1.5v-2.1l-1-.1z"/></g></g><g><path fill="none" stroke="#dfdfde" stroke-width="4" stroke-linecap="round" stroke-linejoin="round" stroke-miterlimit="10" d="M94-10v1125"/></g><g fill="none" stroke="#dfdfde" stroke-width="4" stroke-linecap="round" stroke-linejoin="round" stroke-miterlimit="10"><path d="M94 1115h15.2"/><circle cx="114.2" cy="1115" r="5"/></g></svg>