<svg id="Layer_1" xmlns="http://www.w3.org/2000/svg" width="194" height="350" viewBox="0 0 194 350"><path d="M81.2 330.9h-1.8l-.9-2.5h-3.8l-.8 2.5h-1.8l3.7-9.8h1.8l3.6 9.8zm-3.1-3.8l-1.4-3.9c0-.1-.1-.3-.1-.6 0 .3-.1.5-.1.6l-1.3 3.9h2.9zM84.2 327.3v3.5h-1.6V321h3c1.1 0 2 .3 2.6.8s.9 1.3.9 2.2-.3 1.7-1 2.3c-.6.6-1.5.9-2.6.9l-1.3.1zm0-4.9v3.6h1c.7 0 1.2-.2 1.6-.5s.5-.8.5-1.4c0-1.1-.7-1.7-2-1.7h-1.1zM92.3 327.3v3.5h-1.6V321h3c1.1 0 2 .3 2.6.8s.9 1.3.9 2.2-.3 1.7-1 2.3c-.6.6-1.5.9-2.6.9l-1.3.1zm0-4.9v3.6h1c.7 0 1.2-.2 1.6-.5s.5-.8.5-1.4c0-1.1-.7-1.7-2-1.7h-1.1zM104.2 330.9h-5.4v-9.8h1.6v8.4h3.8v1.4zM107.3 330.9h-1.7v-9.8h1.7v9.8zM116.5 330.5c-.7.4-1.6.6-2.7.6-1.4 0-2.5-.4-3.4-1.3s-1.3-2.1-1.3-3.5c0-1.6.5-2.8 1.4-3.8s2.2-1.4 3.6-1.4c.9 0 1.7.1 2.3.4v1.6c-.7-.4-1.4-.6-2.2-.6-1.1 0-1.9.3-2.6 1s-1 1.6-1 2.7.3 1.9.9 2.6c.6.6 1.4 1 2.4 1 .9 0 1.7-.2 2.4-.7v1.4h.2zM126.4 330.9h-1.8l-.9-2.5h-3.8l-.8 2.5h-1.8l3.7-9.8h1.8l3.6 9.8zm-3.1-3.8l-1.4-3.9c0-.1-.1-.3-.1-.6 0 .3-.1.5-.1.6l-1.3 3.9h2.9zM133 322.5h-2.8v8.4h-1.6v-8.4h-2.8v-1.4h7.2v1.4zM136.1 330.9h-1.7v-9.8h1.7v9.8zM142.5 331c-1.4 0-2.5-.5-3.4-1.4-.8-.9-1.3-2.1-1.3-3.6 0-1.6.4-2.8 1.3-3.8.9-.9 2-1.4 3.5-1.4 1.4 0 2.5.5 3.3 1.4s1.3 2.1 1.3 3.6c0 1.6-.4 2.8-1.3 3.8-.8 1-2 1.4-3.4 1.4zm.1-8.6c-.9 0-1.6.3-2.2 1-.6.7-.8 1.5-.8 2.6s.3 2 .8 2.6c.5.7 1.3 1 2.1 1 .9 0 1.7-.3 2.2-.9s.8-1.5.8-2.6c0-1.2-.3-2.1-.8-2.7-.5-.6-1.2-1-2.1-1zM157.3 330.9h-1.8l-4.7-7.2-.3-.6c0 .2.1.7.1 1.3v6.4H149V321h1.9l4.5 7c.2.3.3.5.4.6 0-.3-.1-.7-.1-1.3V321h1.6v9.9zM169.8 322.5H167v8.4h-1.6v-8.4h-2.8v-1.4h7.2v1.4zM172.9 330.9h-1.7v-9.8h1.7v9.8zM180.7 330.9h-5.5v-9.8h5.3v1.4h-3.6v2.8h3.4v1.4h-3.4v2.9h3.9l-.1 1.3zM190 330.9h-1.9l-1.6-2.6c-.1-.2-.3-.4-.4-.6s-.3-.3-.4-.4c-.1-.1-.3-.2-.5-.2s-.3-.1-.6-.1h-.7v4h-1.6v-9.8h3.2c.5 0 .9.1 1.3.2s.7.3 1 .5.5.5.7.8.2.7.2 1.2c0 .3-.1.7-.2.9-.1.3-.2.5-.4.8s-.4.4-.7.6-.6.3-.9.4c.2.1.3.2.5.3.1.1.3.2.4.4.1.2.2.3.3.4.1.2.2.3.4.6l1.9 2.6zm-5.9-8.5v3.2h1.3c.2 0 .5 0 .7-.1s.4-.2.5-.3c.2-.1.3-.3.4-.5.1-.2.1-.4.1-.7 0-.5-.1-.8-.4-1.1-.3-.3-.7-.4-1.3-.4l-1.3-.1z"/><g><path fill="none" stroke="#dfdfde" stroke-width="4" stroke-linecap="round" stroke-linejoin="round" stroke-miterlimit="10" d="M5.9-10v334.2"/></g><g fill="none" stroke="#dfdfde" stroke-width="4" stroke-linecap="round" stroke-linejoin="round" stroke-miterlimit="10"><path d="M6.1 324.2h45.1"/><circle cx="56.2" cy="324.2" r="5"/></g><g><path d="M130.5 294.9c-6.1 0-11 4.9-11 11s4.9 11 11 11 11-4.9 11-11-4.9-11-11-11zm2.5 7.7c-.4.6-.7 1.3-1 1.9s-.6 1.3-.8 1.9-.5 1.3-.7 1.9-.3 1.3-.4 2h-1.4c.1-.6.2-1.2.4-1.8l.6-1.8c.2-.6.5-1.2.8-1.8l.9-1.8h-4v-1.2h5.6v.7z"/><path d="M127.4 303.1h4l-.9 1.8c-.3.6-.6 1.2-.8 1.8l-.6 1.8c-.2.6-.3 1.2-.4 1.8h1.4c.1-.7.2-1.3.4-2s.4-1.3.7-1.9.5-1.3.8-1.9.6-1.3 1-1.9v-.7h-5.6v1.2z" fill="#FFF"/></g></svg>