<svg id="Layer_1" xmlns="http://www.w3.org/2000/svg" width="127" height="250" viewBox="0 0 127 250"><g fill="none" stroke="#dfdfde" stroke-width="4" stroke-linecap="round" stroke-linejoin="round" stroke-miterlimit="10"><path d="M62.5-86.7l1 258.9"/><circle cx="63.5" cy="177.7" r="5"/></g><path d="M12.3 242.5h-1.6v-6.1c0-.5 0-1.1.1-1.8-.1.4-.2.7-.3.9l-2.8 7.1h-1l-2.8-7c-.1-.2-.2-.5-.3-.9 0 .4.1 1 .1 1.9v6.1H2.2v-9.5h2.2l2.5 6.3c.2.5.3.8.4 1.1.2-.5.3-.9.4-1.1l2.5-6.3h2.1v9.3zM22.4 242.5h-1.7l-.9-2.4h-3.7l-.8 2.4h-1.7l3.5-9.5h1.8l3.5 9.5zm-3-3.7l-1.3-3.8c0-.1-.1-.3-.1-.6 0 .3-.1.4-.1.6l-1.3 3.8h2.8zM31.7 242.5H30l-4.5-6.9c-.1-.2-.2-.4-.3-.5 0 .2.1.6.1 1.3v6.2h-1.5v-9.5h1.8l4.4 6.8c.2.3.3.5.4.6 0-.3-.1-.7-.1-1.3v-6.1h1.5l-.1 9.4zM41.8 242.5h-1.7l-.9-2.4h-3.7l-.8 2.4H33l3.5-9.5h1.8l3.5 9.5zm-3-3.7l-1.3-3.8c0-.1-.1-.3-.1-.6 0 .3-.1.4-.1.6l-1.3 3.8h2.8zM50.3 241.9c-1 .5-2.1.8-3.3.8-1.4 0-2.5-.4-3.4-1.3-.9-.9-1.3-2-1.3-3.5s.5-2.7 1.4-3.6c.9-.9 2.1-1.4 3.6-1.4 1.1 0 1.9.2 2.6.5v1.6c-.7-.5-1.6-.7-2.6-.7s-1.8.3-2.5 1c-.6.7-1 1.5-1 2.6s.3 1.9.8 2.6 1.3.9 2.3.9c.7 0 1.2-.1 1.7-.4v-2.2h-2v-1.3h3.6v4.4h.1zM57.7 242.5h-5.3V233h5.1v1.3H54v2.7h3.3v1.3H54v2.8h3.7v1.4zM69.5 242.5H68v-6.1c0-.5 0-1.1.1-1.8-.1.4-.2.7-.3.9l-2.8 7.1h-1.1l-2.8-7c-.1-.2-.2-.5-.3-.9 0 .4.1 1 .1 1.9v6.1h-1.5v-9.5h2.2l2.5 6.3c.2.5.3.8.4 1.1.2-.5.3-.9.4-1.1l2.5-6.3h2.1v9.3zM77.2 242.5h-5.3V233H77v1.3h-3.5v2.7h3.3v1.3h-3.3v2.8h3.7v1.4zM86.9 242.5h-1.7l-4.5-6.9c-.1-.2-.2-.4-.3-.5 0 .2.1.6.1 1.3v6.2H79v-9.5h1.8l4.4 6.8c.2.3.3.5.4.6 0-.3-.1-.7-.1-1.3v-6.1H87v9.4h-.1zM95.3 234.4h-2.7v8.1H91v-8.1h-2.7v-1.3h7v1.3zM106.4 234.4h-2.7v8.1h-1.6v-8.1h-2.7v-1.3h7v1.3zM109.4 242.5h-1.6V233h1.6v9.5zM117 242.5h-5.3V233h5.1v1.3h-3.5v2.7h3.3v1.3h-3.3v2.8h3.7v1.4zM126 242.5h-1.8l-1.5-2.5c-.1-.2-.3-.4-.4-.6s-.3-.3-.4-.4-.3-.2-.4-.2c-.2 0-.3-.1-.5-.1h-.6v3.8h-1.6V233h3.1c.4 0 .9.1 1.2.2.4.1.7.3 1 .5s.5.5.6.8c.2.3.2.7.2 1.1 0 .3 0 .6-.1.9-.1.3-.2.5-.4.7s-.4.4-.7.6c-.3.2-.5.3-.9.4.2.1.3.2.4.3l.4.4c.1.1.2.3.3.4s.2.3.4.5l1.7 2.7zm-5.7-8.1v3.1h1.3c.2 0 .5 0 .7-.1s.4-.2.5-.3.3-.3.3-.5c.1-.2.1-.4.1-.7 0-.5-.1-.8-.4-1.1s-.7-.4-1.2-.4h-1.3z"/><g><path d="M65.4 210.7c-1 0-1.5 1.1-1.5 3.4 0 2.1.5 3.2 1.5 3.2s1.5-1.1 1.5-3.2c0-2.3-.5-3.4-1.5-3.4z"/><path d="M63.4 203c-6.1 0-11 4.9-11 11s4.9 11 11 11 11-4.9 11-11-4.9-11-11-11zm-2.6 15.2h-1.4v-6.9c-.2.2-.5.3-.8.4s-.6.2-1 .3v-1.2c.2-.1.4-.2.7-.2s.4-.2.6-.3l.6-.3c.2-.1.4-.3.6-.4h.6v8.6zm6.7-1c-.5.7-1.3 1.1-2.2 1.1-.9 0-1.6-.4-2-1.1s-.7-1.7-.7-3.1c0-1.5.3-2.6.8-3.4s1.3-1.1 2.2-1.1c1.8 0 2.8 1.4 2.8 4.3-.2 1.5-.4 2.5-.9 3.3z"/><path d="M59.6 210l-.6.3-.6.3c-.2.1-.4.2-.7.2v1.2c.4-.1.7-.2 1-.3s.5-.3.8-.4v6.9h1.4v-8.6h-.6c-.3.1-.5.3-.7.4zM65.5 209.6c-1 0-1.7.4-2.2 1.1s-.8 1.9-.8 3.4c0 1.4.2 2.4.7 3.1s1.2 1.1 2 1.1c.9 0 1.7-.4 2.2-1.1s.8-1.8.8-3.3c0-2.8-.9-4.3-2.7-4.3zm-.1 7.6c-1 0-1.5-1.1-1.5-3.2 0-2.2.5-3.4 1.5-3.4s1.4 1.1 1.4 3.3c.1 2.3-.4 3.3-1.4 3.3z" fill="#FFF"/></g></svg>