<svg id="Layer_1" xmlns="http://www.w3.org/2000/svg" width="194" height="135" viewBox="0 0 194 135"><text transform="translate(306 275)" font-family="MyriadPro-Regular" font-size="12">1ebbee</text><g fill="none" stroke="#dfdfde" stroke-width="4" stroke-linecap="round" stroke-linejoin="round" stroke-miterlimit="10"><path d="M97.8-1.7v70.9"/><circle cx="97.8" cy="74.2" r="5"/></g><path d="M23.9 127.7v-9.8H27c.9 0 1.7.2 2.3.6.6.4.8 1 .8 1.6 0 .6-.2 1-.5 1.4s-.8.7-1.3.9c.7.1 1.2.3 1.6.7.4.4.6 1 .6 1.6 0 .8-.3 1.5-1 2s-1.5.8-2.5.8h-3.1zm1.6-8.5v2.8h1.1c.6 0 1-.1 1.3-.4.3-.3.5-.6.5-1.1 0-.8-.6-1.3-1.7-1.3h-1.2zm0 4.1v3.1h1.4c.6 0 1.1-.1 1.4-.4.3-.3.5-.7.5-1.2 0-1-.7-1.5-2.1-1.5h-1.2zM39.8 123.8c0 2.8-1.3 4.1-3.9 4.1-2.5 0-3.7-1.3-3.7-4v-6h1.6v5.7c0 1.9.7 2.9 2.2 2.9 1.4 0 2.2-.9 2.2-2.8v-5.8h1.6v5.9zM43.8 127.7h-1.7v-9.8h1.7v9.8zM51.7 127.7h-5.4v-9.8h1.6v8.4h3.8v1.4zM53.1 127.7v-9.8h2.8c3.6 0 5.4 1.6 5.4 4.8 0 1.5-.5 2.7-1.5 3.6-1 .9-2.3 1.4-4 1.4h-2.7zm1.6-8.4v7H56c1.1 0 2-.3 2.7-.9.6-.6 1-1.5 1-2.7 0-2.3-1.2-3.4-3.6-3.4h-1.4zM72.5 127.7H67v-9.8h5.3v1.4h-3.7v2.8H72v1.4h-3.4v2.9h3.9v1.3zM82.5 127.7h-1.8l-4.7-7.2-.3-.6c0 .2.1.7.1 1.3v6.4h-1.6v-9.8h1.9l4.5 7c.2.3.3.5.4.6 0-.3-.1-.7-.1-1.3v-6.3h1.6v9.9zM92.6 117.9l-3.5 9.8h-1.8l-3.5-9.8h1.8l2.4 7.4c.1.2.1.5.2.8 0-.3.1-.5.2-.8l2.5-7.4h1.7zM95.6 127.7h-1.7v-9.8h1.7v9.8zM105.6 127.7h-1.9l-1.6-2.6c-.1-.2-.3-.4-.4-.6-.1-.2-.3-.3-.4-.4-.1-.1-.3-.2-.5-.2s-.3-.1-.6-.1h-.7v4H98V118h3.2c.5 0 .9.1 1.3.2s.7.3 1 .5c.3.2.5.5.7.8.2.3.2.7.2 1.2 0 .3-.1.7-.2 1-.1.3-.2.5-.4.8-.2.2-.4.4-.7.6-.3.2-.6.3-.9.4.2.1.3.2.5.3.1.1.3.2.4.4s.2.3.4.4c.1.2.2.3.4.6l1.7 2.5zm-6-8.5v3.2h1.4c.3 0 .5 0 .7-.1l.6-.3c.2-.1.3-.3.4-.5s.1-.4.1-.7c0-.5-.1-.8-.4-1.1s-.7-.4-1.3-.4h-1.5zM110.6 127.9c-1.4 0-2.5-.5-3.4-1.4-.8-.9-1.3-2.1-1.3-3.6 0-1.6.4-2.8 1.3-3.8s2-1.4 3.5-1.4c1.4 0 2.5.5 3.3 1.4.8.9 1.3 2.1 1.3 3.6 0 1.6-.4 2.9-1.3 3.8s-1.9 1.4-3.4 1.4zm.1-8.7c-.9 0-1.6.3-2.2 1-.6.7-.8 1.6-.8 2.6 0 1.1.3 2 .8 2.6s1.3 1 2.1 1c.9 0 1.7-.3 2.2-1s.8-1.5.8-2.7c0-1.2-.3-2.1-.8-2.7-.4-.5-1.2-.8-2.1-.8zM125.5 127.7h-1.8l-4.7-7.2-.3-.6c0 .2.1.7.1 1.3v6.4h-1.6v-9.8h1.9l4.5 7c.2.3.3.5.4.6 0-.3-.1-.7-.1-1.3v-6.3h1.6v9.9zM138.4 127.7h-1.6v-6.3c0-.5 0-1.2.1-1.9-.1.4-.2.7-.3.9l-2.9 7.3h-1.1l-2.9-7.3c-.1-.2-.2-.5-.3-1 0 .4.1 1 .1 1.9v6.3H128v-9.8h2.3l2.6 6.5c.2.5.3.9.4 1.1.2-.5.3-.9.4-1.1l2.6-6.5h2.2v9.9zM146.4 127.7h-5.5v-9.8h5.3v1.4h-3.7v2.8h3.4v1.4h-3.4v2.9h3.9v1.3zM156.4 127.7h-1.8l-4.7-7.2-.3-.6c0 .2.1.7.1 1.3v6.4h-1.6v-9.8h1.9l4.5 7c.2.3.3.5.4.6 0-.3-.1-.7-.1-1.3v-6.3h1.6v9.9zM165.1 119.3h-2.8v8.4h-1.6v-8.4h-2.8v-1.4h7.3v1.4zM166.1 127.3v-1.7c.2.1.3.3.5.4.2.1.4.2.7.3.2.1.5.1.7.2s.4.1.6.1c.7 0 1.2-.1 1.5-.3.3-.2.5-.6.5-1 0-.2-.1-.4-.2-.6-.1-.2-.3-.3-.5-.5s-.4-.3-.7-.4c-.3-.1-.6-.3-.9-.4-.3-.2-.6-.4-.9-.5s-.5-.4-.7-.6c-.2-.2-.4-.5-.5-.7-.1-.3-.2-.6-.2-1 0-.5.1-.9.3-1.2.2-.3.5-.6.8-.8.3-.2.7-.4 1.2-.5.4-.1.9-.2 1.3-.2 1 0 1.8.1 2.2.3v1.6c-.6-.4-1.3-.6-2.1-.6-.2 0-.5 0-.7.1-.2 0-.5.1-.6.2-.2.1-.3.2-.5.4s-.2.4-.2.6c0 .2 0 .4.1.6s.2.3.4.4c.2.1.4.3.6.4.3.1.5.3.9.4.3.2.7.4 1 .6.3.2.6.4.8.6.2.2.4.5.5.8.1.3.2.6.2 1 0 .5-.1.9-.3 1.3s-.5.6-.8.8c-.3.2-.7.4-1.2.5s-.9.1-1.4.1h-.6c-.2 0-.5-.1-.7-.1-.3 0-.5-.1-.7-.2s-.2-.3-.4-.4z"/><g><path d="M97.8 91.6c-6.1 0-11 4.9-11 11s4.9 11 11 11 11-4.9 11-11-4.9-11-11-11zm1.5 14.8c-.6.5-1.3.8-2.3.8-.8 0-1.4-.1-1.8-.3v-1.3c.6.4 1.1.6 1.7.6.6 0 1-.1 1.4-.4s.5-.7.5-1.2-.2-.8-.5-1.1-.9-.4-1.5-.4c-.2 0-.7 0-1.4.1l.3-4.4h4.1v1.2h-3l-.1 2.1h.7c.9 0 1.6.2 2.1.7s.7 1.1.7 1.9c-.1.5-.4 1.2-.9 1.7z"/><path d="M97.3 101.8h-.7l.1-2.1h3v-1.2h-4.1l-.3 4.4c.7 0 1.2-.1 1.4-.1.7 0 1.2.1 1.5.4s.5.6.5 1.1c0 .5-.2.9-.5 1.2s-.8.4-1.4.4c-.6 0-1.1-.2-1.7-.6v1.3c.4.2 1 .3 1.8.3 1 0 1.7-.3 2.3-.8s.8-1.2.8-2-.2-1.4-.7-1.9-1.1-.4-2-.4z" fill="#FFF"/></g></svg>