<?xml version="1.0" encoding="utf-8"?>
<!-- Generator: Adobe Illustrator 19.2.0, SVG Export Plug-In . SVG Version: 6.00 Build 0)  -->
<svg version="1.1" id="Layer_1" xmlns="http://www.w3.org/2000/svg" xmlns:xlink="http://www.w3.org/1999/xlink" x="0px" y="0px"
	 width="650px" height="1245px" viewBox="0 0 650 1245" style="enable-background:new 0 0 650 1245;" xml:space="preserve">
<g>
	<path style="fill:#010101;" d="M523.6,968c-0.7,0.4-1.6,0.6-2.7,0.6c-1.4,0-2.5-0.4-3.4-1.3c-0.9-0.9-1.3-2.1-1.3-3.5
		c0-1.6,0.5-2.8,1.4-3.8s2.2-1.4,3.6-1.4c0.9,0,1.7,0.1,2.3,0.4v1.6c-0.7-0.4-1.4-0.6-2.2-0.6c-1.1,0-1.9,0.3-2.6,1s-1,1.6-1,2.7
		c0,1.1,0.3,1.9,0.9,2.6c0.6,0.6,1.4,1,2.4,1c0.9,0,1.7-0.2,2.4-0.7V968z"/>
	<path style="fill:#010101;" d="M529.3,968.5c-1.4,0-2.5-0.5-3.4-1.4c-0.8-0.9-1.3-2.1-1.3-3.6c0-1.6,0.4-2.8,1.3-3.8
		c0.9-0.9,2-1.4,3.5-1.4c1.4,0,2.5,0.5,3.3,1.4c0.8,0.9,1.3,2.1,1.3,3.6c0,1.6-0.4,2.8-1.3,3.8C531.9,968.1,530.7,968.5,529.3,968.5
		z M529.4,959.9c-0.9,0-1.6,0.3-2.2,1c-0.6,0.7-0.8,1.5-0.8,2.6c0,1.1,0.3,2,0.8,2.6c0.5,0.7,1.3,1,2.1,1c0.9,0,1.7-0.3,2.2-0.9
		c0.5-0.6,0.8-1.5,0.8-2.6c0-1.2-0.3-2.1-0.8-2.7S530.3,959.9,529.4,959.9z"/>
	<path style="fill:#010101;" d="M544.1,968.4h-1.8l-4.7-7.2c-0.1-0.2-0.2-0.4-0.3-0.6h0c0,0.2,0.1,0.7,0.1,1.3v6.4h-1.6v-9.8h1.9
		l4.5,7c0.2,0.3,0.3,0.5,0.4,0.6h0c0-0.3-0.1-0.7-0.1-1.3v-6.3h1.6V968.4z"/>
	<path style="fill:#010101;" d="M552.7,960h-2.8v8.4h-1.6V960h-2.8v-1.4h7.2V960z"/>
	<path style="fill:#010101;" d="M555.8,968.4h-1.7v-9.8h1.7V968.4z"/>
	<path style="fill:#010101;" d="M566.5,968.4h-1.8l-4.7-7.2c-0.1-0.2-0.2-0.4-0.3-0.6h0c0,0.2,0.1,0.7,0.1,1.3v6.4h-1.6v-9.8h1.9
		l4.5,7c0.2,0.3,0.3,0.5,0.4,0.6h0c0-0.3-0.1-0.7-0.1-1.3v-6.3h1.6V968.4z"/>
	<path style="fill:#010101;" d="M576.4,964.4c0,2.7-1.3,4.1-3.9,4.1c-2.5,0-3.7-1.3-3.7-4v-6h1.6v5.6c0,1.9,0.7,2.9,2.2,2.9
		c1.4,0,2.1-0.9,2.1-2.8v-5.7h1.6V964.4z"/>
	<path style="fill:#010101;" d="M582.7,968.5c-1.4,0-2.5-0.5-3.4-1.4c-0.8-0.9-1.3-2.1-1.3-3.6c0-1.6,0.4-2.8,1.3-3.8
		c0.9-0.9,2-1.4,3.5-1.4c1.4,0,2.5,0.5,3.3,1.4c0.8,0.9,1.3,2.1,1.3,3.6c0,1.6-0.4,2.8-1.3,3.8C585.3,968.1,584.2,968.5,582.7,968.5
		z M582.8,959.9c-0.9,0-1.6,0.3-2.2,1c-0.6,0.7-0.8,1.5-0.8,2.6c0,1.1,0.3,2,0.8,2.6c0.5,0.7,1.3,1,2.1,1c0.9,0,1.7-0.3,2.2-0.9
		c0.5-0.6,0.8-1.5,0.8-2.6c0-1.2-0.3-2.1-0.8-2.7S583.7,959.9,582.8,959.9z"/>
	<path style="fill:#010101;" d="M596.7,964.4c0,2.7-1.3,4.1-3.9,4.1c-2.5,0-3.7-1.3-3.7-4v-6h1.6v5.6c0,1.9,0.7,2.9,2.2,2.9
		c1.4,0,2.1-0.9,2.1-2.8v-5.7h1.6V964.4z"/>
	<path style="fill:#010101;" d="M598.6,968v-1.7c0.1,0.1,0.3,0.3,0.5,0.4c0.2,0.1,0.4,0.2,0.7,0.3c0.2,0.1,0.5,0.1,0.7,0.2
		c0.2,0,0.4,0.1,0.6,0.1c0.7,0,1.2-0.1,1.5-0.3s0.5-0.6,0.5-1c0-0.2-0.1-0.4-0.2-0.6s-0.3-0.3-0.5-0.5s-0.4-0.3-0.7-0.4
		c-0.3-0.1-0.6-0.3-0.9-0.4c-0.3-0.2-0.6-0.4-0.9-0.5c-0.3-0.2-0.5-0.4-0.7-0.6s-0.4-0.5-0.5-0.7s-0.2-0.6-0.2-1
		c0-0.5,0.1-0.9,0.3-1.2s0.5-0.6,0.8-0.8c0.3-0.2,0.7-0.4,1.2-0.5s0.9-0.2,1.3-0.2c1,0,1.8,0.1,2.2,0.3v1.6
		c-0.6-0.4-1.3-0.6-2.1-0.6c-0.2,0-0.5,0-0.7,0.1c-0.2,0-0.5,0.1-0.6,0.2s-0.3,0.2-0.5,0.4s-0.2,0.4-0.2,0.6c0,0.2,0,0.4,0.1,0.6
		c0.1,0.2,0.2,0.3,0.4,0.4c0.2,0.1,0.4,0.3,0.6,0.4c0.3,0.1,0.5,0.3,0.9,0.4c0.3,0.2,0.7,0.4,1,0.6c0.3,0.2,0.6,0.4,0.8,0.6
		c0.2,0.2,0.4,0.5,0.5,0.8s0.2,0.6,0.2,1c0,0.5-0.1,0.9-0.3,1.3c-0.2,0.3-0.5,0.6-0.8,0.8c-0.3,0.2-0.7,0.4-1.2,0.5
		c-0.4,0.1-0.9,0.1-1.4,0.1c-0.2,0-0.4,0-0.6,0c-0.2,0-0.5-0.1-0.7-0.1c-0.2,0-0.5-0.1-0.7-0.2C598.9,968.1,598.7,968.1,598.6,968z"
		/>
	<path style="fill:#010101;" d="M503,985.1h-1.7v-9.8h1.7V985.1z"/>
	<path style="fill:#010101;" d="M513.6,985.1h-1.8l-4.7-7.2c-0.1-0.2-0.2-0.4-0.3-0.6h0c0,0.2,0.1,0.7,0.1,1.3v6.4h-1.6v-9.8h1.9
		l4.5,7c0.2,0.3,0.3,0.5,0.4,0.6h0c0-0.3-0.1-0.7-0.1-1.3v-6.3h1.6V985.1z"/>
	<path style="fill:#010101;" d="M522.3,976.7h-2.8v8.4h-1.6v-8.4h-2.8v-1.4h7.2V976.7z"/>
	<path style="fill:#010101;" d="M529.2,985.1h-5.5v-9.8h5.3v1.4h-3.6v2.8h3.4v1.4h-3.4v2.9h3.9V985.1z"/>
	<path style="fill:#010101;" d="M538.6,984.4c-1,0.6-2.1,0.8-3.4,0.8c-1.4,0-2.6-0.4-3.5-1.3c-0.9-0.9-1.3-2.1-1.3-3.6
		c0-1.5,0.5-2.7,1.5-3.7c1-1,2.2-1.5,3.7-1.5c1.1,0,2,0.2,2.7,0.5v1.7c-0.7-0.5-1.6-0.7-2.7-0.7c-1,0-1.9,0.3-2.6,1s-1,1.6-1,2.7
		c0,1.1,0.3,2,0.9,2.6s1.3,1,2.3,1c0.7,0,1.3-0.1,1.7-0.4v-2.3h-2.1v-1.4h3.7V984.4z"/>
	<path style="fill:#010101;" d="M548.2,985.1h-1.9l-1.6-2.6c-0.1-0.2-0.3-0.4-0.4-0.6c-0.1-0.2-0.3-0.3-0.4-0.4
		c-0.1-0.1-0.3-0.2-0.5-0.2s-0.3-0.1-0.6-0.1h-0.7v4h-1.6v-9.8h3.2c0.5,0,0.9,0.1,1.3,0.2c0.4,0.1,0.7,0.3,1,0.5
		c0.3,0.2,0.5,0.5,0.7,0.8c0.2,0.3,0.2,0.7,0.2,1.2c0,0.3-0.1,0.7-0.2,0.9c-0.1,0.3-0.2,0.5-0.4,0.8c-0.2,0.2-0.4,0.4-0.7,0.6
		c-0.3,0.2-0.6,0.3-0.9,0.4v0c0.2,0.1,0.3,0.2,0.5,0.3c0.1,0.1,0.3,0.2,0.4,0.4c0.1,0.1,0.2,0.3,0.3,0.4c0.1,0.2,0.2,0.3,0.4,0.6
		L548.2,985.1z M542.3,976.6v3.2h1.3c0.2,0,0.5,0,0.7-0.1s0.4-0.2,0.5-0.3c0.2-0.1,0.3-0.3,0.4-0.5c0.1-0.2,0.1-0.4,0.1-0.7
		c0-0.5-0.1-0.8-0.4-1.1s-0.7-0.4-1.3-0.4H542.3z"/>
	<path style="fill:#010101;" d="M557.3,985.1h-1.8l-0.9-2.5h-3.8l-0.8,2.5h-1.8l3.7-9.8h1.8L557.3,985.1z M554.3,981.3l-1.4-3.9
		c0-0.1-0.1-0.3-0.1-0.6h0c0,0.3-0.1,0.5-0.1,0.6l-1.3,3.9H554.3z"/>
	<path style="fill:#010101;" d="M563.9,976.7h-2.8v8.4h-1.6v-8.4h-2.8v-1.4h7.2V976.7z"/>
	<path style="fill:#010101;" d="M567,985.1h-1.7v-9.8h1.7V985.1z"/>
	<path style="fill:#010101;" d="M573.5,985.2c-1.4,0-2.5-0.5-3.4-1.4c-0.8-0.9-1.3-2.1-1.3-3.6c0-1.6,0.4-2.8,1.3-3.8
		c0.9-0.9,2-1.4,3.5-1.4c1.4,0,2.5,0.5,3.3,1.4c0.8,0.9,1.3,2.1,1.3,3.6c0,1.6-0.4,2.8-1.3,3.8C576,984.8,574.9,985.2,573.5,985.2z
		 M573.5,976.6c-0.9,0-1.6,0.3-2.2,1c-0.6,0.7-0.8,1.5-0.8,2.6c0,1.1,0.3,2,0.8,2.6c0.5,0.7,1.3,1,2.1,1c0.9,0,1.7-0.3,2.2-0.9
		c0.5-0.6,0.8-1.5,0.8-2.6c0-1.2-0.3-2.1-0.8-2.7S574.4,976.6,573.5,976.6z"/>
	<path style="fill:#010101;" d="M588.2,985.1h-1.8l-4.7-7.2c-0.1-0.2-0.2-0.4-0.3-0.6h0c0,0.2,0.1,0.7,0.1,1.3v6.4H580v-9.8h1.9
		l4.5,7c0.2,0.3,0.3,0.5,0.4,0.6h0c0-0.3-0.1-0.7-0.1-1.3v-6.3h1.6V985.1z"/>
	<path style="fill:#010101;" d="M600.7,976.7h-2.8v8.4h-1.6v-8.4h-2.8v-1.4h7.2V976.7z"/>
	<path style="fill:#010101;" d="M603.8,985.1h-1.7v-9.8h1.7V985.1z"/>
	<path style="fill:#010101;" d="M611.7,985.1h-5.5v-9.8h5.3v1.4h-3.6v2.8h3.4v1.4h-3.4v2.9h3.9V985.1z"/>
	<path style="fill:#010101;" d="M621,985.1h-1.9l-1.6-2.6c-0.1-0.2-0.3-0.4-0.4-0.6c-0.1-0.2-0.3-0.3-0.4-0.4
		c-0.1-0.1-0.3-0.2-0.5-0.2s-0.3-0.1-0.6-0.1H615v4h-1.6v-9.8h3.2c0.5,0,0.9,0.1,1.3,0.2c0.4,0.1,0.7,0.3,1,0.5
		c0.3,0.2,0.5,0.5,0.7,0.8c0.2,0.3,0.2,0.7,0.2,1.2c0,0.3-0.1,0.7-0.2,0.9c-0.1,0.3-0.2,0.5-0.4,0.8c-0.2,0.2-0.4,0.4-0.7,0.6
		c-0.3,0.2-0.6,0.3-0.9,0.4v0c0.2,0.1,0.3,0.2,0.5,0.3c0.1,0.1,0.3,0.2,0.4,0.4c0.1,0.1,0.2,0.3,0.3,0.4c0.1,0.2,0.2,0.3,0.4,0.6
		L621,985.1z M615,976.6v3.2h1.3c0.2,0,0.5,0,0.7-0.1s0.4-0.2,0.5-0.3c0.2-0.1,0.3-0.3,0.4-0.5c0.1-0.2,0.1-0.4,0.1-0.7
		c0-0.5-0.1-0.8-0.4-1.1s-0.7-0.4-1.3-0.4H615z"/>
</g>
<g>
	
		<line style="fill:none;stroke:#DFDFDE;stroke-width:4;stroke-linecap:round;stroke-linejoin:round;stroke-miterlimit:10;" x1="95.6" y1="942.1" x2="509.6" y2="942.1"/>
	
		<circle style="fill:none;stroke:#DFDFDE;stroke-width:4;stroke-linecap:round;stroke-linejoin:round;stroke-miterlimit:10;" cx="514.6" cy="942.1" r="5"/>
</g>
<line style="fill:none;stroke:#DFDFDE;stroke-width:4;stroke-linecap:round;stroke-linejoin:round;stroke-miterlimit:10;" x1="95.6" y1="942.1" x2="95.6" y2="-31"/>
<path style="fill:#DFDFDE;" d="M559.1,1001.1c-17.3,0.2-31.2,14.4-31,31.7c0.1,5.5,1.6,10.6,4.1,15.1l0,0l0.2,0.3
	c0.2,0.3,0.3,0.5,0.5,0.8l27.3,45.3l26.4-45.9c0.1-0.2,0.3-0.4,0.4-0.7l0.7-1.2l-0.1,0c2.2-4.3,3.4-9.2,3.4-14.4
	C590.6,1014.8,576.4,1000.9,559.1,1001.1z"/>
<g>
	<g>
		<path style="fill:#DFDFDE;" d="M573.4,1128.4v-1c0.1,0.1,0.2,0.2,0.3,0.2c0.1,0.1,0.3,0.1,0.4,0.2c0.1,0,0.3,0.1,0.4,0.1
			c0.1,0,0.3,0,0.4,0c0.4,0,0.7-0.1,0.9-0.2c0.2-0.1,0.3-0.3,0.3-0.6c0-0.1,0-0.3-0.1-0.4c-0.1-0.1-0.2-0.2-0.3-0.3
			c-0.1-0.1-0.3-0.2-0.4-0.3c-0.2-0.1-0.3-0.2-0.5-0.3c-0.2-0.1-0.4-0.2-0.6-0.3c-0.2-0.1-0.3-0.2-0.5-0.4c-0.1-0.1-0.2-0.3-0.3-0.5
			c-0.1-0.2-0.1-0.4-0.1-0.6c0-0.3,0.1-0.5,0.2-0.7c0.1-0.2,0.3-0.4,0.5-0.5c0.2-0.1,0.4-0.2,0.7-0.3c0.3-0.1,0.5-0.1,0.8-0.1
			c0.6,0,1.1,0.1,1.4,0.2v1c-0.3-0.2-0.8-0.4-1.3-0.4c-0.1,0-0.3,0-0.4,0c-0.1,0-0.3,0.1-0.4,0.1c-0.1,0.1-0.2,0.1-0.3,0.2
			s-0.1,0.2-0.1,0.4c0,0.1,0,0.3,0.1,0.3c0.1,0.1,0.1,0.2,0.2,0.3c0.1,0.1,0.2,0.2,0.4,0.2c0.2,0.1,0.3,0.2,0.5,0.3
			c0.2,0.1,0.4,0.2,0.6,0.3c0.2,0.1,0.4,0.3,0.5,0.4c0.1,0.1,0.3,0.3,0.3,0.5c0.1,0.2,0.1,0.4,0.1,0.6c0,0.3-0.1,0.6-0.2,0.8
			c-0.1,0.2-0.3,0.4-0.5,0.5c-0.2,0.1-0.4,0.2-0.7,0.3c-0.3,0.1-0.6,0.1-0.9,0.1c-0.1,0-0.2,0-0.4,0c-0.1,0-0.3,0-0.5-0.1
			c-0.2,0-0.3-0.1-0.4-0.1S573.5,1128.4,573.4,1128.4z"/>
		<path style="fill:#DFDFDE;" d="M582.2,1123.4h-1.7v5.2h-1v-5.2h-1.7v-0.9h4.5V1123.4z"/>
		<path style="fill:#DFDFDE;" d="M585.6,1128.7c-0.9,0-1.6-0.3-2.1-0.8c-0.5-0.6-0.8-1.3-0.8-2.2c0-1,0.3-1.7,0.8-2.3
			s1.3-0.9,2.2-0.9c0.8,0,1.5,0.3,2,0.8s0.8,1.3,0.8,2.2c0,1-0.3,1.8-0.8,2.3C587.2,1128.4,586.5,1128.7,585.6,1128.7z
			 M585.6,1123.4c-0.6,0-1,0.2-1.3,0.6c-0.3,0.4-0.5,1-0.5,1.6c0,0.7,0.2,1.2,0.5,1.6c0.3,0.4,0.8,0.6,1.3,0.6c0.6,0,1-0.2,1.4-0.6
			s0.5-0.9,0.5-1.6c0-0.7-0.2-1.3-0.5-1.7C586.6,1123.6,586.2,1123.4,585.6,1123.4z"/>
		<path style="fill:#DFDFDE;" d="M594.3,1128.6h-1.2l-1-1.6c-0.1-0.1-0.2-0.3-0.3-0.4c-0.1-0.1-0.2-0.2-0.3-0.3
			c-0.1-0.1-0.2-0.1-0.3-0.1c-0.1,0-0.2,0-0.3,0h-0.4v2.4h-1v-6h2c0.3,0,0.5,0,0.8,0.1c0.2,0.1,0.4,0.2,0.6,0.3
			c0.2,0.1,0.3,0.3,0.4,0.5c0.1,0.2,0.1,0.4,0.1,0.7c0,0.2,0,0.4-0.1,0.6c-0.1,0.2-0.2,0.3-0.3,0.5c-0.1,0.1-0.3,0.3-0.4,0.4
			s-0.3,0.2-0.6,0.2v0c0.1,0.1,0.2,0.1,0.3,0.2c0.1,0.1,0.2,0.2,0.2,0.2s0.1,0.2,0.2,0.3c0.1,0.1,0.2,0.2,0.2,0.3L594.3,1128.6z
			 M590.6,1123.4v2h0.8c0.2,0,0.3,0,0.4-0.1c0.1,0,0.2-0.1,0.3-0.2c0.1-0.1,0.2-0.2,0.2-0.3c0.1-0.1,0.1-0.3,0.1-0.4
			c0-0.3-0.1-0.5-0.3-0.7s-0.4-0.2-0.8-0.2H590.6z"/>
		<path style="fill:#DFDFDE;" d="M599.9,1128.6h-1.1l-0.5-1.5h-2.4l-0.5,1.5h-1.1l2.3-6h1.1L599.9,1128.6z M598,1126.3l-0.8-2.4
			c0-0.1-0.1-0.2-0.1-0.4h0c0,0.2-0.1,0.3-0.1,0.4l-0.8,2.4H598z"/>
		<path style="fill:#DFDFDE;" d="M605.5,1128.2c-0.6,0.3-1.3,0.5-2.1,0.5c-0.9,0-1.6-0.3-2.2-0.8s-0.8-1.3-0.8-2.2
			c0-0.9,0.3-1.7,0.9-2.3c0.6-0.6,1.4-0.9,2.3-0.9c0.7,0,1.2,0.1,1.7,0.3v1c-0.5-0.3-1-0.5-1.7-0.5c-0.6,0-1.2,0.2-1.6,0.6
			s-0.6,1-0.6,1.6c0,0.7,0.2,1.2,0.5,1.6c0.4,0.4,0.8,0.6,1.4,0.6c0.4,0,0.8-0.1,1.1-0.2v-1.4h-1.3v-0.8h2.3V1128.2z"/>
		<path style="fill:#DFDFDE;" d="M610.2,1128.6h-3.4v-6h3.3v0.9h-2.3v1.7h2.1v0.8h-2.1v1.8h2.4V1128.6z"/>
		<path style="fill:#DFDFDE;" d="M581.9,1139v-6h1.9c0.6,0,1,0.1,1.4,0.4c0.3,0.3,0.5,0.6,0.5,1c0,0.3-0.1,0.6-0.3,0.9
			c-0.2,0.3-0.5,0.4-0.8,0.5v0c0.4,0,0.7,0.2,1,0.5c0.2,0.3,0.4,0.6,0.4,1c0,0.5-0.2,0.9-0.6,1.3s-0.9,0.5-1.5,0.5H581.9z
			 M582.9,1133.7v1.7h0.6c0.3,0,0.6-0.1,0.8-0.2c0.2-0.2,0.3-0.4,0.3-0.7c0-0.5-0.3-0.8-1-0.8H582.9z M582.9,1136.3v1.9h0.9
			c0.4,0,0.7-0.1,0.9-0.3c0.2-0.2,0.3-0.4,0.3-0.7c0-0.6-0.4-0.9-1.3-0.9H582.9z"/>
		<path style="fill:#DFDFDE;" d="M590.4,1139h-3.3v-6h1v5.2h2.3V1139z"/>
		<path style="fill:#DFDFDE;" d="M593.8,1139.1c-0.9,0-1.6-0.3-2.1-0.8c-0.5-0.6-0.8-1.3-0.8-2.2c0-1,0.3-1.7,0.8-2.3
			s1.3-0.9,2.2-0.9c0.8,0,1.5,0.3,2,0.8c0.5,0.6,0.8,1.3,0.8,2.2c0,1-0.3,1.8-0.8,2.3C595.4,1138.8,594.7,1139.1,593.8,1139.1z
			 M593.8,1133.7c-0.6,0-1,0.2-1.3,0.6c-0.3,0.4-0.5,1-0.5,1.6c0,0.7,0.2,1.2,0.5,1.6s0.8,0.6,1.3,0.6c0.6,0,1-0.2,1.4-0.6
			s0.5-0.9,0.5-1.6c0-0.7-0.2-1.3-0.5-1.7C594.8,1133.9,594.4,1133.7,593.8,1133.7z"/>
		<path style="fill:#DFDFDE;" d="M597.8,1139v-6h1.9c0.6,0,1,0.1,1.4,0.4c0.3,0.3,0.5,0.6,0.5,1c0,0.3-0.1,0.6-0.3,0.9
			c-0.2,0.3-0.5,0.4-0.8,0.5v0c0.4,0,0.7,0.2,1,0.5c0.2,0.3,0.4,0.6,0.4,1c0,0.5-0.2,0.9-0.6,1.3s-0.9,0.5-1.5,0.5H597.8z
			 M598.8,1133.7v1.7h0.6c0.3,0,0.6-0.1,0.8-0.2c0.2-0.2,0.3-0.4,0.3-0.7c0-0.5-0.3-0.8-1-0.8H598.8z M598.8,1136.3v1.9h0.9
			c0.4,0,0.7-0.1,0.9-0.3c0.2-0.2,0.3-0.4,0.3-0.7c0-0.6-0.4-0.9-1.3-0.9H598.8z"/>
	</g>
	<g>
		<path style="fill-rule:evenodd;clip-rule:evenodd;fill:#DFDFDE;" d="M598.9,1092.1h-14.6l-7.3,12.7l7.3,12.7h14.6l7.3-12.7
			L598.9,1092.1L598.9,1092.1L598.9,1092.1z M598.9,1110.4c0,1.1-0.9,2-2,2h-10.8c-1.1,0-2-0.9-2-2v-11.3c0-1.1,0.9-2,2-2h8
			c0.8,0,1.5,0,1.5,0h0.2l3.1,3V1110.4L598.9,1110.4L598.9,1110.4z"/>
		<path style="fill-rule:evenodd;clip-rule:evenodd;fill:#DFDFDE;" d="M590.4,1106.8c0-0.1-0.1-0.2-0.1-0.3c0-0.1-0.1-0.1-0.1-0.2
			c0,0-0.1-0.1-0.2-0.1c-0.1,0-0.1,0-0.2,0c-0.1,0-0.2,0-0.3,0.1c-0.1,0.1-0.2,0.2-0.2,0.3c-0.1,0.1-0.1,0.3-0.1,0.5
			c0,0.2,0,0.4,0,0.7c0,0.3,0,0.6,0,0.8c0,0.2,0.1,0.4,0.1,0.5c0.1,0.1,0.1,0.2,0.2,0.2c0.1,0,0.2,0.1,0.3,0.1c0.1,0,0.2,0,0.2,0
			c0.1,0,0.1-0.1,0.2-0.1c0.1-0.1,0.1-0.1,0.1-0.2c0-0.1,0.1-0.2,0.1-0.3c0-0.1,0-0.2,0-0.4c0-0.1,0-0.3,0-0.5c0-0.2,0-0.4,0-0.5
			C590.4,1107,590.4,1106.9,590.4,1106.8L590.4,1106.8z"/>
		<path style="fill-rule:evenodd;clip-rule:evenodd;fill:#DFDFDE;" d="M593.8,1100.9c0-0.1-0.1-0.2-0.1-0.3c0-0.1-0.1-0.1-0.1-0.2
			c0,0-0.1-0.1-0.2-0.1c-0.1,0-0.1,0-0.2,0c-0.1,0-0.2,0-0.3,0.1c-0.1,0.1-0.2,0.2-0.2,0.3c-0.1,0.1-0.1,0.3-0.1,0.5
			c0,0.2,0,0.4,0,0.7c0,0.3,0,0.6,0,0.8c0,0.2,0.1,0.4,0.1,0.5c0.1,0.1,0.1,0.2,0.2,0.3c0.1,0,0.2,0.1,0.3,0.1c0.1,0,0.2,0,0.2,0
			c0.1,0,0.1-0.1,0.2-0.1c0.1-0.1,0.1-0.1,0.1-0.2c0-0.1,0.1-0.2,0.1-0.3c0-0.1,0-0.2,0-0.4c0-0.1,0-0.3,0-0.5c0-0.2,0-0.4,0-0.5
			C593.9,1101.1,593.9,1101,593.8,1100.9L593.8,1100.9z"/>
		<path style="fill-rule:evenodd;clip-rule:evenodd;fill:#DFDFDE;" d="M595.4,1098.2c-0.3,0-0.7,0-1.2,0h-8c-0.5,0-0.9,0.4-0.9,0.9
			v11.3c0,0.5,0.4,0.9,0.9,0.9h10.8c0.5,0,0.9-0.4,0.9-0.9v-9.7h-2.4L595.4,1098.2L595.4,1098.2L595.4,1098.2L595.4,1098.2z
			 M588.6,1100.4C588.6,1100.4,588.6,1100.4,588.6,1100.4c0-0.1,0-0.1,0.1-0.1c0,0,0,0,0.1-0.1l0.9-0.6c0,0,0,0,0,0c0,0,0,0,0.1,0
			c0,0,0.1,0,0.1,0c0,0,0.1,0,0.2,0c0.1,0,0.2,0,0.2,0c0.1,0,0.1,0,0.1,0s0,0,0.1,0c0,0,0,0,0,0.1v3.6h0.7c0,0,0,0,0.1,0
			c0,0,0,0,0,0.1s0,0.1,0,0.1c0,0,0,0.1,0,0.2c0,0.1,0,0.1,0,0.2c0,0,0,0.1,0,0.1s0,0,0,0.1c0,0,0,0-0.1,0h-2.4c0,0,0,0-0.1,0
			c0,0,0,0,0-0.1c0,0,0-0.1,0-0.1c0,0,0-0.1,0-0.2c0-0.1,0-0.1,0-0.2s0-0.1,0-0.1s0,0,0-0.1c0,0,0,0,0.1,0h0.8v-2.8l-0.7,0.4
			c-0.1,0-0.1,0-0.1,0c0,0-0.1,0-0.1,0c0,0,0-0.1,0-0.1c0,0,0-0.1,0-0.2C588.6,1100.5,588.6,1100.5,588.6,1100.4L588.6,1100.4z
			 M591.3,1108.6c-0.1,0.3-0.1,0.5-0.3,0.7s-0.3,0.3-0.5,0.4c-0.2,0.1-0.4,0.2-0.7,0.2c-0.3,0-0.5-0.1-0.7-0.2
			c-0.2-0.1-0.3-0.2-0.5-0.4s-0.2-0.4-0.2-0.7s-0.1-0.6-0.1-0.9c0-0.3,0-0.7,0.1-0.9c0.1-0.3,0.1-0.5,0.3-0.7
			c0.1-0.2,0.3-0.3,0.5-0.4c0.2-0.1,0.4-0.2,0.7-0.2c0.3,0,0.5,0.1,0.7,0.2s0.3,0.2,0.5,0.4c0.1,0.2,0.2,0.4,0.2,0.7
			s0.1,0.6,0.1,0.9C591.3,1108,591.3,1108.3,591.3,1108.6L591.3,1108.6z M594.7,1109.7c0,0,0,0.1,0,0.1c0,0,0,0,0,0.1c0,0,0,0-0.1,0
			h-2.4c0,0,0,0-0.1,0c0,0,0,0,0-0.1c0,0,0-0.1,0-0.1c0,0,0-0.1,0-0.2c0-0.1,0-0.1,0-0.2s0-0.1,0-0.1s0,0,0-0.1c0,0,0,0,0.1,0h0.8
			v-2.8l-0.7,0.4c-0.1,0-0.1,0-0.1,0c0,0-0.1,0-0.1,0c0,0,0-0.1,0-0.1c0,0,0-0.1,0-0.2c0-0.1,0-0.1,0-0.1c0,0,0-0.1,0-0.1
			c0,0,0,0,0-0.1c0,0,0,0,0.1-0.1l0.9-0.6c0,0,0,0,0,0c0,0,0,0,0.1,0c0,0,0.1,0,0.1,0c0,0,0.1,0,0.2,0c0.1,0,0.2,0,0.2,0
			c0.1,0,0.1,0,0.1,0c0,0,0,0,0.1,0c0,0,0,0,0,0.1v3.6h0.7c0,0,0,0,0.1,0c0,0,0,0,0,0.1c0,0,0,0.1,0,0.1c0,0,0,0.1,0,0.2
			C594.7,1109.6,594.7,1109.6,594.7,1109.7L594.7,1109.7z M594.7,1102.7c-0.1,0.3-0.1,0.5-0.3,0.7c-0.1,0.2-0.3,0.3-0.5,0.4
			c-0.2,0.1-0.4,0.2-0.7,0.2c-0.3,0-0.5-0.1-0.7-0.2c-0.2-0.1-0.3-0.2-0.5-0.4c-0.1-0.2-0.2-0.4-0.2-0.7c0-0.3-0.1-0.6-0.1-0.9
			c0-0.3,0-0.7,0.1-0.9c0.1-0.3,0.1-0.5,0.3-0.7c0.1-0.2,0.3-0.3,0.5-0.4c0.2-0.1,0.4-0.2,0.7-0.2c0.3,0,0.5,0.1,0.7,0.2
			s0.3,0.2,0.5,0.4c0.1,0.2,0.2,0.4,0.2,0.7s0.1,0.6,0.1,0.9C594.8,1102.1,594.8,1102.4,594.7,1102.7L594.7,1102.7z"/>
	</g>
</g>
<path style="fill-rule:evenodd;clip-rule:evenodd;fill:#DFDFDE;" d="M528,1090.2c-7.6,0-13.7,6.1-13.7,13.7c0,6.1,3.9,11.2,9.4,13
	c0.7,0.1,0.9-0.3,0.9-0.7c0-0.3,0-1.2,0-2.3c-3.8,0.8-4.6-1.8-4.6-1.8c-0.6-1.6-1.5-2-1.5-2c-1.2-0.9,0.1-0.8,0.1-0.8
	c1.4,0.1,2.1,1.4,2.1,1.4c1.2,2.1,3.2,1.5,4,1.1c0.1-0.9,0.5-1.5,0.9-1.8c-3-0.3-6.2-1.5-6.2-6.8c0-1.5,0.5-2.7,1.4-3.7
	c-0.1-0.3-0.6-1.7,0.1-3.6c0,0,1.2-0.4,3.8,1.4c1.1-0.3,2.3-0.5,3.4-0.5c1.2,0,2.3,0.2,3.4,0.5c2.6-1.8,3.8-1.4,3.8-1.4
	c0.7,1.9,0.3,3.3,0.1,3.6c0.9,1,1.4,2.2,1.4,3.7c0,5.3-3.2,6.4-6.3,6.8c0.5,0.4,0.9,1.3,0.9,2.5c0,1.8,0,3.3,0,3.8
	c0,0.4,0.2,0.8,0.9,0.7c5.4-1.8,9.4-6.9,9.4-13C541.7,1096.4,535.6,1090.2,528,1090.2z"/>
<g>
	<path style="fill:#DFDFDE;" d="M516.4,1125.2h-3.2c-0.1,0-0.1,0.1-0.1,0.1v1.5c0,0.1,0.1,0.1,0.1,0.1h1.2v1.9c0,0-0.3,0.1-1,0.1
		c-0.9,0-2.2-0.3-2.2-3.1c0-2.8,1.3-3.1,2.5-3.1c1.1,0,1.5,0.2,1.8,0.3c0.1,0,0.2-0.1,0.2-0.1l0.4-1.5c0,0,0-0.1-0.1-0.1
		c-0.1-0.1-0.8-0.5-2.7-0.5c-2.1,0-4.3,0.9-4.3,5.2s2.5,5,4.6,5c1.7,0,2.8-0.7,2.8-0.7c0,0,0-0.1,0-0.1v-4.8
		C516.6,1125.3,516.5,1125.2,516.4,1125.2z"/>
	<path style="fill:#DFDFDE;" d="M532.7,1121.4c0-0.1-0.1-0.1-0.1-0.1h-1.8c-0.1,0-0.1,0.1-0.1,0.1c0,0,0,3.4,0,3.4h-2.8v-3.4
		c0-0.1-0.1-0.1-0.1-0.1H526c-0.1,0-0.1,0.1-0.1,0.1v9.3c0,0.1,0.1,0.1,0.1,0.1h1.8c0.1,0,0.1-0.1,0.1-0.1v-4h2.8c0,0,0,4,0,4
		c0,0.1,0.1,0.1,0.1,0.1h1.8c0.1,0,0.1-0.1,0.1-0.1V1121.4z"/>
	<g>
		<g>
			<ellipse style="fill:#DFDFDE;" cx="518.7" cy="1122.6" rx="1.1" ry="1.2"/>
			<path style="fill:#DFDFDE;" d="M519.7,1128.7c0-0.2,0-4.3,0-4.3c0-0.1-0.1-0.1-0.1-0.1h-1.8c-0.1,0-0.2,0.1-0.2,0.2
				c0,0,0,5.2,0,6.2c0,0.2,0.1,0.2,0.3,0.2c0,0,0.8,0,1.6,0c0.2,0,0.2-0.1,0.2-0.2C519.7,1130.2,519.7,1129,519.7,1128.7z"/>
		</g>
	</g>
	<path style="fill:#DFDFDE;" d="M539.5,1124.3h-1.8c-0.1,0-0.1,0.1-0.1,0.1v4.6c0,0-0.4,0.3-1.1,0.3c-0.6,0-0.8-0.3-0.8-0.9
		c0-0.6,0-4,0-4c0-0.1-0.1-0.1-0.1-0.1h-1.8c-0.1,0-0.1,0.1-0.1,0.1c0,0,0,2.4,0,4.3c0,1.9,1,2.3,2.5,2.3c1.2,0,2.1-0.6,2.1-0.6
		s0,0.3,0.1,0.4c0,0,0.1,0.1,0.1,0.1l1.1,0c0.1,0,0.1-0.1,0.1-0.1l0-6.2C539.6,1124.3,539.6,1124.3,539.5,1124.3z"/>
	<path style="fill:#DFDFDE;" d="M544.3,1124.1c-1,0-1.7,0.4-1.7,0.4v-3.2c0-0.1-0.1-0.1-0.1-0.1h-1.8c-0.1,0-0.1,0.1-0.1,0.1v9.3
		c0,0.1,0.1,0.1,0.1,0.1c0,0,1.2,0,1.2,0c0.1,0,0.1,0,0.1-0.1c0-0.1,0.1-0.4,0.1-0.4s0.7,0.7,2.1,0.7c1.6,0,2.6-0.8,2.6-3.7
		C546.8,1124.4,545.3,1124.1,544.3,1124.1z M543.6,1129.3c-0.6,0-1-0.3-1-0.3v-2.9c0,0,0.4-0.3,0.9-0.3c0.6-0.1,1.2,0.1,1.2,1.7
		C544.8,1129,544.5,1129.3,543.6,1129.3z"/>
	<path style="fill:#DFDFDE;" d="M524.8,1124.3h-1.3c0,0,0-1.8,0-1.8c0-0.1,0-0.1-0.1-0.1h-1.8c-0.1,0-0.1,0-0.1,0.1v1.8
		c0,0-0.9,0.2-1,0.2c-0.1,0-0.1,0.1-0.1,0.1v1.1c0,0.1,0.1,0.1,0.1,0.1h0.9c0,0,0,1.2,0,2.8c0,2,1.4,2.2,2.4,2.2
		c0.4,0,1-0.1,1.1-0.2c0.1,0,0.1-0.1,0.1-0.1l0-1.3c0-0.1-0.1-0.1-0.1-0.1c-0.1,0-0.3,0-0.5,0c-0.7,0-0.9-0.3-0.9-0.7
		c0-0.4,0-2.6,0-2.6h1.3c0.1,0,0.1-0.1,0.1-0.1v-1.4C524.9,1124.3,524.9,1124.3,524.8,1124.3z"/>
</g>
<g>
	<path style="fill:#010101;" d="M562.1,940.5c-0.1-0.2-0.3-0.3-0.5-0.4s-0.4-0.1-0.6-0.1c-0.2,0-0.4,0-0.5,0.1s-0.3,0.2-0.4,0.3
		s-0.2,0.3-0.3,0.5s-0.1,0.4-0.1,0.7c0,0.3,0,0.5,0.1,0.7s0.2,0.4,0.3,0.5s0.3,0.2,0.5,0.3s0.4,0.1,0.6,0.1c0.2,0,0.4,0,0.5-0.1
		s0.3-0.2,0.4-0.3s0.2-0.3,0.3-0.4s0.1-0.3,0.1-0.5h0c0-0.3,0-0.5-0.1-0.8S562.3,940.7,562.1,940.5z"/>
	<path style="fill:#010101;" d="M560.7,932.1c-6.1,0-11,4.9-11,11c0,6.1,4.9,11,11,11c6.1,0,11-4.9,11-11
		C571.7,937.1,566.8,932.1,560.7,932.1z M563.7,944.9c-0.2,0.6-0.4,1.1-0.8,1.5s-0.7,0.7-1.1,0.9s-0.9,0.3-1.4,0.3
		c-0.2,0-0.3,0-0.5,0s-0.3,0-0.5-0.1s-0.3-0.1-0.4-0.1s-0.2-0.1-0.3-0.1V946c0.1,0.1,0.2,0.1,0.3,0.2s0.3,0.1,0.4,0.1
		s0.3,0.1,0.4,0.1s0.3,0,0.4,0c0.3,0,0.6-0.1,0.9-0.2s0.5-0.3,0.7-0.6s0.3-0.6,0.4-0.9s0.2-0.8,0.2-1.3h0c0,0,0,0,0,0
		c-0.1,0.1-0.2,0.2-0.3,0.4s-0.2,0.2-0.4,0.3s-0.3,0.2-0.5,0.2s-0.4,0.1-0.6,0.1c-0.4,0-0.7-0.1-1-0.2s-0.6-0.3-0.8-0.5
		s-0.4-0.5-0.5-0.8s-0.2-0.7-0.2-1.1c0-0.4,0.1-0.8,0.2-1.2s0.3-0.7,0.6-0.9s0.6-0.4,0.9-0.6s0.7-0.2,1.1-0.2c0.4,0,0.7,0.1,1.1,0.2
		s0.6,0.4,0.9,0.7s0.5,0.7,0.6,1.2s0.2,1.1,0.2,1.8C564,943.6,563.9,944.3,563.7,944.9z"/>
	<path style="fill:#FFFFFF;" d="M563.1,939.8c-0.3-0.3-0.6-0.5-0.9-0.7s-0.7-0.2-1.1-0.2c-0.4,0-0.8,0.1-1.1,0.2s-0.6,0.3-0.9,0.6
		s-0.5,0.5-0.6,0.9s-0.2,0.7-0.2,1.2c0,0.4,0.1,0.8,0.2,1.1s0.3,0.6,0.5,0.8s0.5,0.4,0.8,0.5s0.6,0.2,1,0.2c0.2,0,0.4,0,0.6-0.1
		s0.3-0.1,0.5-0.2s0.3-0.2,0.4-0.3s0.2-0.2,0.3-0.4c0,0,0,0,0,0h0c0,0.5-0.1,0.9-0.2,1.3s-0.3,0.7-0.4,0.9s-0.4,0.4-0.7,0.6
		s-0.6,0.2-0.9,0.2c-0.1,0-0.3,0-0.4,0s-0.3-0.1-0.4-0.1s-0.3-0.1-0.4-0.1s-0.2-0.1-0.3-0.2v1.2c0.1,0,0.2,0.1,0.3,0.1
		s0.3,0.1,0.4,0.1s0.3,0.1,0.5,0.1s0.3,0,0.5,0c0.5,0,1-0.1,1.4-0.3s0.8-0.5,1.1-0.9s0.6-0.9,0.8-1.5s0.3-1.3,0.3-2.2
		c0-0.7-0.1-1.3-0.2-1.8S563.4,940.1,563.1,939.8z M562.5,941.9c0,0.2,0,0.4-0.1,0.5s-0.2,0.3-0.3,0.4s-0.3,0.2-0.4,0.3
		s-0.3,0.1-0.5,0.1c-0.2,0-0.4,0-0.6-0.1s-0.3-0.2-0.5-0.3s-0.2-0.3-0.3-0.5s-0.1-0.4-0.1-0.7c0-0.2,0-0.5,0.1-0.7s0.2-0.4,0.3-0.5
		s0.3-0.2,0.4-0.3s0.3-0.1,0.5-0.1c0.2,0,0.4,0,0.6,0.1s0.3,0.2,0.5,0.4s0.2,0.4,0.3,0.6S562.5,941.6,562.5,941.9L562.5,941.9z"/>
</g>
</svg>
