<svg id="Layer_1" xmlns="http://www.w3.org/2000/svg" width="215" height="620" viewBox="0 0 215 620"><path d="M112.8 600.8V591h2.8c3.6 0 5.4 1.6 5.4 4.8 0 1.5-.5 2.7-1.5 3.6-1 .9-2.3 1.4-4 1.4h-2.7zm1.6-8.4v7h1.3c1.1 0 2-.3 2.7-.9.6-.6.9-1.5.9-2.7 0-2.3-1.2-3.4-3.5-3.4h-1.4zM130.6 600.8h-1.8l-.9-2.5h-3.8l-.8 2.5h-1.8l3.7-9.8h1.8l3.6 9.8zm-3.1-3.8l-1.4-3.9c0-.1-.1-.3-.1-.6 0 .3-.1.5-.1.6l-1.3 3.9h2.9zM137.2 592.4h-2.8v8.4h-1.6v-8.4H130V591h7.2v1.4zM145.6 600.8h-1.8l-.9-2.5h-3.8l-.8 2.5h-1.8l3.7-9.8h1.8l3.6 9.8zm-3.1-3.8l-1.4-3.9c0-.1-.1-.3-.1-.6 0 .3-.1.5-.1.6l-1.3 3.9h2.9zM146.9 600.8V591h3.1c.9 0 1.7.2 2.2.6.6.4.8.9.8 1.6 0 .6-.2 1-.5 1.4s-.7.7-1.3.9c.7.1 1.2.3 1.6.7.4.4.6 1 .6 1.6 0 .8-.3 1.5-1 2s-1.5.8-2.5.8h-3v.2zm1.6-8.4v2.8h1c.6 0 1-.1 1.3-.4s.5-.6.5-1.1c0-.8-.6-1.3-1.7-1.3h-1.1zm0 4v3.1h1.4c.6 0 1.1-.1 1.4-.4.3-.3.5-.7.5-1.2 0-1-.7-1.5-2.1-1.5h-1.2zM163.4 600.8h-1.8l-.9-2.5h-3.8l-.8 2.5h-1.8l3.7-9.8h1.8l3.6 9.8zm-3.1-3.8l-1.4-3.9c0-.1-.1-.3-.1-.6 0 .3-.1.5-.1.6l-1.3 3.9h2.9zM164.3 600.4v-1.7c.1.1.3.3.5.4s.4.2.7.3.5.1.7.2c.2 0 .4.1.6.1.7 0 1.2-.1 1.5-.3s.5-.6.5-1c0-.2-.1-.4-.2-.6s-.3-.3-.5-.5-.4-.3-.7-.4c-.3-.1-.6-.3-.9-.4-.3-.2-.6-.4-.9-.5s-.5-.4-.7-.6c-.2-.2-.4-.5-.5-.7-.1-.3-.2-.6-.2-1 0-.5.1-.9.3-1.2s.5-.6.8-.8.7-.4 1.2-.5c.4-.1.9-.2 1.3-.2 1 0 1.8.1 2.2.3v1.6c-.6-.4-1.3-.6-2.1-.6-.2 0-.5 0-.7.1-.2 0-.5.1-.6.2-.2.1-.3.2-.5.4-.1.2-.2.4-.2.6s0 .4.1.6c.1.2.2.3.4.4s.4.3.6.4c.3.1.5.3.9.4.3.2.7.4 1 .6.3.2.6.4.8.6s.4.5.5.8.2.6.2 1c0 .5-.1.9-.3 1.3s-.5.6-.8.8-.7.4-1.2.5c-.4.1-.9.1-1.4.1h-.6c-.2 0-.5-.1-.7-.1-.3 0-.5-.1-.7-.2-.1-.2-.3-.3-.4-.4zM177.8 600.8h-5.5V591h5.3v1.4H174v2.8h3.4v1.4H174v2.9h3.9l-.1 1.3zM189.6 592.4h-2.8v8.4h-1.6v-8.4h-2.8V591h7.2v1.4zM192.7 600.8H191V591h1.7v9.8zM200.5 600.8H195V591h5.3v1.4h-3.6v2.8h3.4v1.4h-3.4v2.9h3.9l-.1 1.3zM209.8 600.8h-1.9l-1.6-2.6c-.1-.2-.3-.4-.4-.6s-.3-.3-.4-.4c-.1-.1-.3-.2-.5-.2s-.3-.1-.6-.1h-.7v4h-1.6v-9.8h3.2c.5 0 .9.1 1.3.2s.7.3 1 .5.5.5.7.8.2.7.2 1.2c0 .3-.1.7-.2.9-.1.3-.2.5-.4.8-.2.2-.4.4-.7.6s-.6.3-.9.4c.2.1.3.2.5.3s.3.2.4.4c.1.1.2.3.3.4.1.1.2.3.4.6l1.9 2.6zm-5.9-8.4v3.2h1.3c.3 0 .5 0 .7-.1s.4-.2.5-.3c.2-.1.3-.3.4-.5s.1-.4.1-.7c0-.5-.1-.8-.4-1.1-.3-.3-.7-.4-1.3-.4l-1.3-.1z"/><g><path fill="none" stroke="#dfdfde" stroke-width="4" stroke-linecap="round" stroke-linejoin="round" stroke-miterlimit="10" d="M6.7-12.7v606.9"/></g><g fill="none" stroke="#dfdfde" stroke-width="4" stroke-linecap="round" stroke-linejoin="round" stroke-miterlimit="10"><path d="M6.7 594.2h85.2"/><circle cx="96.9" cy="594.2" r="5"/></g><g><path d="M162.2 576.4c-.1-.1-.3-.3-.5-.3s-.4-.1-.6-.1c-.2 0-.4 0-.6.1s-.3.2-.5.3-.2.3-.3.5-.1.4-.1.6c0 .2 0 .5.1.6s.2.4.3.5.3.2.5.3.4.1.6.1c.2 0 .4 0 .6-.1s.3-.2.5-.3.2-.3.3-.5.1-.4.1-.6c0-.2 0-.4-.1-.6s-.1-.3-.3-.5zM160.3 574.6c.1.1.2.2.4.3s.3.1.5.1.3 0 .5-.1.3-.2.4-.3.2-.2.3-.4.1-.3.1-.5 0-.3-.1-.5-.1-.3-.2-.4-.2-.2-.4-.3-.3-.1-.5-.1-.3 0-.5.1-.3.2-.4.3-.2.2-.2.4-.1.3-.1.5 0 .3.1.5 0 .3.1.4z"/><path d="M161.3 564.9c-6.1 0-11 4.9-11 11s4.9 11 11 11 11-4.9 11-11-4.9-11-11-11zm2.5 13.8c-.1.3-.3.6-.6.8s-.5.4-.9.5-.7.2-1.1.2c-.4 0-.8-.1-1.1-.2s-.6-.3-.9-.5-.4-.5-.6-.8-.2-.6-.2-1c0-.2 0-.5.1-.7l.3-.6c.1-.2.3-.4.5-.5s.4-.3.6-.4c-.4-.2-.7-.5-.9-.8s-.3-.7-.3-1.1c0-.3.1-.6.2-.9s.3-.5.5-.7.5-.3.8-.4.6-.2 1-.2.7.1 1 .2.6.3.8.5.4.4.5.7.2.5.2.8c0 .4-.1.7-.3 1.1s-.5.6-.9.8c.2.1.5.2.6.4s.3.3.5.5.2.4.3.6.1.5.1.7c0 .3-.1.7-.2 1z"/><path d="M163.6 576.3c-.1-.2-.3-.4-.5-.5s-.4-.3-.6-.4c.4-.2.6-.5.9-.8s.3-.7.3-1.1c0-.3-.1-.6-.2-.8s-.3-.5-.5-.7-.5-.3-.8-.5-.6-.2-1-.2-.7.1-1 .2-.6.3-.8.4-.4.4-.5.7-.2.5-.2.9.1.7.3 1.1.5.6.9.8c-.2.1-.5.2-.6.4s-.3.3-.5.5-.2.4-.3.6-.1.5-.1.7c0 .4.1.7.2 1s.3.6.6.8.5.4.9.5.7.2 1.1.2c.4 0 .8-.1 1.1-.2s.6-.3.9-.5.4-.5.6-.8.2-.6.2-1c0-.2 0-.5-.1-.7l-.3-.6zm-3.5-3c.1-.2.1-.3.2-.4s.2-.2.4-.3.3-.1.5-.1.3 0 .5.1.3.1.4.3.2.2.2.4.1.3.1.5 0 .3-.1.5-.1.3-.3.4-.2.2-.4.3-.3.1-.5.1-.3 0-.5-.1-.3-.1-.4-.3-.2-.2-.3-.4-.1-.3-.1-.5c.2-.2.2-.4.3-.5zm2.4 4.9c-.1.2-.2.4-.3.5s-.3.2-.5.3-.4.1-.6.1c-.2 0-.4 0-.6-.1s-.3-.2-.5-.3-.2-.3-.3-.5-.1-.4-.1-.6c0-.2 0-.4.1-.6s.2-.4.3-.5.3-.2.5-.3.4-.1.6-.1c.2 0 .4 0 .6.1s.3.2.5.3.2.3.3.5.1.4.1.6c0 .2 0 .4-.1.6z" fill="#FFF"/></g></svg>