<svg id="Layer_1" xmlns="http://www.w3.org/2000/svg" width="188" height="475" viewBox="0 0 188 475"><g fill="#FFF" stroke="#000" stroke-width="3" stroke-linecap="round" stroke-linejoin="round"><path d="M153.3 278.4c-5.3 32.8-36.1 55.1-68.9 49.9s-55.1-36.1-49.9-68.9c1.3-8.4 4.4-16.1 8.7-22.8 7.5-11.7 18.8-20.4 31.9-24.8 8.9-2.9 18.5-3.8 28.4-2.3 32.8 5.3 55.1 36.1 49.8 68.9z"/><path d="M142.6 276.7c-4.3 26.9-29.6 45.1-56.4 40.8S41 288 45.3 261.1c1.1-6.9 3.6-13.2 7.1-18.7 6.1-9.6 15.4-16.7 26.1-20.3 7.3-2.4 15.2-3.1 23.2-1.8 26.9 4.3 45.2 29.5 40.9 56.4z"/></g><path id="outline_1_" d="M104.1 265.3h2.6c1.2 0 2.4-.2 3.5-.6.5-.2 1.2-.4 1.7-.8-.7-.9-1.1-2.1-1.2-3.2-.1-1.6.2-3.6 1.2-4.8l.5-.6.6.5c1.6 1.3 2.9 3 3.2 5.1 1.9-.6 4.2-.4 5.9.5l.7.4-.4.7c-1.4 2.8-4.4 3.6-7.4 3.5-4.4 10.8-13.9 15.9-25.5 15.9-6 0-11.5-2.2-14.6-7.5l-.1-.1-.5-.9c-1.1-2.3-1.4-4.8-1.2-7.4l.1-.8H104.1v.1z" fill="#394d54"/><g id="body_colors_1_"><path d="M115.4 262.1c.3-2.6-1.6-4.7-2.9-5.6-1.4 1.6-1.6 5.9.6 7.6-1.2 1.1-3.8 2.1-6.5 2.1H74.2c-.3 2.8.2 5.3 1.3 7.5l.4.7c.2.4.5.8.8 1.1 1.3.1 2.6.1 3.7.1 2.2 0 4-.3 5.4-.8.2-.1.4 0 .5.2s0 .4-.2.5-.4.1-.6.2c-1.1.3-2.2.5-3.7.6h-2.2c-.7 0-1.4 0-2.2-.1 2.7 3 6.9 4.8 12.2 4.8 11.2 0 20.7-4.9 24.9-16 3 .3 5.9-.5 7.2-3-2-1-4.7-.7-6.3.1z" fill="#01a9d9"/><path d="M115.4 262.1c.3-2.6-1.6-4.7-2.9-5.6-1.4 1.6-1.6 5.9.6 7.6-1.2 1.1-3.8 2.1-6.5 2.1H76.2c-.1 4.2 1.4 7.4 4.2 9.4 2.2 0 4-.3 5.4-.8.2-.1.4 0 .5.2s0 .4-.2.5-.4.1-.6.2c-1.1.3-2.3.5-3.8.6 3.8 1.9 9.3 1.9 15.7-.5 7.1-2.7 13.7-7.9 18.3-13.8-.1 0-.2.1-.3.1z" fill="#29b7ea"/><path d="M74.3 269.5c.2 1.5.6 2.9 1.3 4.1l.4.7c.2.4.5.8.8 1.1 1.3.1 2.6.1 3.7.1 2.2 0 4-.3 5.4-.8.2-.1.4 0 .5.2s0 .4-.2.5-.4.1-.6.2c-1.1.3-2.3.5-3.8.6h-.2c-.6 0-1.2.1-1.9.1s-1.4 0-2.2-.1c2.7 3 7 4.8 12.2 4.8 9.6 0 17.9-3.6 22.8-11.6l-38.2.1z" fill="#038ab8"/><path d="M76.5 269.5c.6 2.6 2 4.6 4 6 2.2 0 4-.3 5.4-.8.2-.1.4 0 .5.2s0 .4-.2.5-.4.1-.6.2c-1.1.3-2.3.5-3.8.6 3.8 1.9 9.3 1.9 15.7-.5 3.8-1.5 7.5-3.6 10.8-6.3l-31.8.1z" fill="#009ac5"/></g><path d="M87.8 272.5c.7 0 1.2.5 1.2 1.2s-.5 1.2-1.2 1.2-1.2-.5-1.2-1.2.5-1.2 1.2-1.2" fill="#d3ecf0"/><path d="M87.8 272.8c.1 0 .2 0 .3.1-.1.1-.2.2-.2.3 0 .2.2.4.4.4.1 0 .2-.1.3-.2 0 .1.1.2.1.3 0 .5-.4.9-.9.9s-.9-.4-.9-.9c.1-.5.4-.9.9-.9M66.4 270h56.3c-1.2-.3-3.9-.7-3.4-2.3-2.2 2.6-7.6 1.8-9 .5-1.5 2.2-10.3 1.3-10.9-.3-1.9 2.2-7.8 2.2-9.7 0-.6 1.7-9.4 2.5-10.9.3-1.4 1.3-6.7 2-9-.5.5 1.5-2.2 2-3.4 2.3" fill="#394d54"/><path d="M91 281.1c-3-1.4-4.6-3.3-5.6-5.4-1.1.3-2.5.5-4 .6h-1.8c-.7 0-1.5 0-2.4-.1 2.7 2.7 6.1 4.8 12.4 4.9H91z" fill="#bfdadf"/><path d="M86.6 277.6c-.4-.6-.8-1.3-1.1-1.9-1.1.3-2.5.5-4 .6 1 .6 2.6 1.1 5.1 1.3z" fill="#d3ecf0"/><path fill="#394d54" d="M78.4 260.1h6.1v6.1h-6.1z"/><path d="M83 261.3h.3v3.6H83v-3.6zm-.7 0h.4v3.6h-.4v-3.6zm-.7 0h.4v3.6h-.4v-3.6zm-.6 0h.4v3.6H81v-3.6zm-.7 0h.4v3.6h-.4v-3.6zm-.7 0h.4v3.6h-.3l-.1-3.6zm-.3-.4h4.4v4.4h-4.4v-4.4z" fill="#24c1ed"/><path fill="#394d54" d="M83.7 260.1h6.1v6.1h-6.1z"/><path d="M88.2 261.3h.3v3.6h-.3v-3.6zm-.6 0h.4v3.6h-.4v-3.6zm-.7 0h.4v3.6h-.4v-3.6zm-.7 0h.4v3.6h-.4v-3.6zm-.6 0h.4v3.6h-.4v-3.6zm-.7 0h.3v3.6h-.3v-3.6zm-.4-.4h4.4v4.4h-4.4v-4.4z" fill="#00abd1"/><path fill="#394d54" d="M88.9 260.1H95v6.1h-6.1z"/><path d="M93.5 261.3h.3v3.6h-.3v-3.6zm-.7 0h.4v3.6h-.4v-3.6zm-.7 0h.4v3.6h-.4v-3.6zm-.6 0h.4v3.6h-.4v-3.6zm-.7 0h.4v3.6h-.4v-3.6zm-.6 0h.3v3.6h-.3v-3.6zm-.4-.4h4.4v4.4h-4.4v-4.4z" fill="#24c1ed"/><g><path fill="#394d54" d="M94.2 260.1h6.1v6.1h-6.1z"/><path d="M98.7 261.3h.3v3.6h-.3v-3.6zm-.6 0h.4v3.6h-.4v-3.6zm-.7 0h.4v3.6h-.4v-3.6zm-.7 0h.4v3.6h-.4v-3.6zm-.6 0h.4v3.6h-.4v-3.6zm-.7 0h.3v3.6h-.3v-3.6zm-.4-.4h4.4v4.4H95v-4.4z" fill="#24c1ed"/></g><g><path fill="#394d54" d="M83.7 254.8h6.1v6.1h-6.1z"/><path d="M88.2 256.1h.3v3.6h-.3v-3.6zm-.6 0h.4v3.6h-.4v-3.6zm-.7 0h.4v3.6h-.4v-3.6zm-.7 0h.4v3.6h-.4v-3.6zm-.6 0h.4v3.6h-.4v-3.6zm-.7 0h.3v3.6h-.3v-3.6zm-.4-.4h4.4v4.4h-4.4v-4.4z" fill="#00abd1"/></g><g><path fill="#394d54" d="M88.9 254.8H95v6.1h-6.1z"/><path d="M93.5 256.1h.3v3.6h-.3v-3.6zm-.7 0h.4v3.6h-.4v-3.6zm-.7 0h.4v3.6h-.4v-3.6zm-.6 0h.4v3.6h-.4v-3.6zm-.7 0h.4v3.6h-.4v-3.6zm-.6 0h.3v3.6h-.3v-3.6zm-.4-.4h4.4v4.4h-4.4v-4.4z" fill="#24c1ed"/></g><g><path fill="#394d54" d="M94.2 249.6h6.1v6.1h-6.1z"/><path d="M98.7 250.8h.3v3.6h-.3v-3.6zm-.6 0h.4v3.6h-.4v-3.6zm-.7 0h.4v3.6h-.4v-3.6zm-.7 0h.4v3.6h-.4v-3.6zm-.6 0h.4v3.6h-.4v-3.6zm-.7 0h.3v3.6h-.3v-3.6zm-.4-.3h4.4v4.4H95v-4.4z" fill="#24c1ed"/></g><g><path fill="#394d54" d="M77.308 241.427l2.827-5.406 5.405 2.83-2.827 5.404z"/><path d="M80.5 238l.2-.3 3.2 1.7-.2.3-3.2-1.7zm-.3.6l.2-.3 3.2 1.7-.2.3-3.2-1.7zm-.3.6l.2-.3 3.2 1.7-.2.3-3.2-1.7zm-.3.6l.2-.3 3.2 1.7-.2.3-3.2-1.7zm-.3.6l.2-.3 3.2 1.7-.2.3-3.2-1.7zm-.3.5l.2-.3 3.2 1.7-.2.3-3.2-1.7zm-.5.2l2-3.9 3.9 2-2 3.9-3.9-2z" fill="#24c1ed"/></g><g><path fill="#394d54" d="M94.2 254.8h6.1v6.1h-6.1z"/><path d="M98.7 256.1h.3v3.6h-.3v-3.6zm-.6 0h.4v3.6h-.4v-3.6zm-.7 0h.4v3.6h-.4v-3.6zm-.7 0h.4v3.6h-.4v-3.6zm-.6 0h.4v3.6h-.4v-3.6zm-.7 0h.3v3.6h-.3v-3.6zm-.4-.4h4.4v4.4H95v-4.4z" fill="#00abd1"/></g><g><path fill="#394d54" d="M99.5 260.1h6.1v6.1h-6.1z"/><path d="M104 261.3h.3v3.6h-.3v-3.6zm-.7 0h.4v3.6h-.4v-3.6zm-.6 0h.4v3.6h-.4v-3.6zm-.7 0h.4v3.6h-.4v-3.6zm-.7 0h.4v3.6h-.4v-3.6zm-.6 0h.3v3.6h-.3v-3.6zm-.4-.4h4.4v4.4h-4.4v-4.4z" fill="#24c1ed"/></g><path d="M107.9 296.2c1.3-1.1 2.5-2.2 3.8-3.2.4-.4.9-.8 1.3-1.1-.3-.4-.9-.7-1.4-.9-1-.4-2-.2-2.9.3-1.2.7-1.7 1.8-1.6 3.1 0 .5.2 1 .4 1.5.2 0 .3.1.4.3m1.5 1c.6.2 1.3.2 2 .1.3-.1 1.2-.5 1.5-.4.2.1.4.2.5.4.2.4.1.9-.3 1.1l-.1.1c-1.6.9-3.3.8-5-.1-.8-.4-1.4-1-1.8-1.8l-.1-.2c-1-1.8-.9-3.7.3-5.4.4-.6.9-1 1.6-1.4l.2-.1c1.5-.9 3.2-.8 4.7 0 .8.4 1.5 1 2 1.8l.1.1c.3.6-.1 1.1-.6 1.4-.5.4-1.1.9-1.6 1.3-1.2 1.2-2.3 2.1-3.4 3.1zm12.1-8.1h.2c.5 0 .9.3.9.8 0 .7-.7.9-1.3.9-.8 0-1.5.5-2 1-.7.6-.9 1.5-.9 2.4v4.1c0 .5-.3.8-.8.8h-.1c-.5 0-.8-.4-.8-.8V294c0-1.7.8-3 2.2-4 .7-.6 1.6-.9 2.6-.9zm-21.3 2.9l2-2c.2-.2.9-.9 1.2-.9h.3c.4.1.7.3.7.7v.2c0 .3-.3.6-.5.8l-1.2 1.2-2.1 2.1 2.7 2.7.7.7.3.3c.1.1.1.2.1.4v.2c-.1.4-.3.7-.8.7h-.1c-.3 0-.6-.3-.8-.5-.4-.4-.8-.8-1.2-1.1l-1.3-1.3v2c0 .5-.3.8-.8.8h-.1c-.5 0-.8-.4-.8-.8v-11.5c0-.5.3-.8.8-.8h.1c.5 0 .8.4.8.8v5.3zm-5.5-1.2c-.3-.1-.7-.2-1-.2-1.4-.1-2.5.7-3.1 2-.2.4-.3.9-.3 1.4 0 1.4.8 2.5 2.1 3.1.5.2 1.1.3 1.6.3s1.1-.3 1.5-.5h.4c.4.1.7.3.7.7v.2c0 1-1.9 1.3-2.6 1.3-2.6.2-4.5-1.2-5.2-3.6-.1-.4-.2-.8-.2-1.3v-.3c0-1.8.9-3.3 2.5-4.2.7-.4 1.6-.7 2.4-.7h.3c.9 0 1.7.3 2.5.8h.1v.1c.1.1.2.3.2.4v.2c0 .4-.3.7-.7.7h-.1c-.3 0-.9-.3-1.1-.4zm-15.6 3.3c0 1.3.6 2.2 1.7 2.9.5.3 1.1.5 1.7.5 1.3 0 2.2-.6 2.9-1.7.3-.5.5-1.1.5-1.7 0-1.2-.6-2.1-1.6-2.8-.5-.4-1.2-.5-1.8-.5-1.4 0-2.5.7-3.1 2-.2.3-.3.8-.3 1.3zm3.2-5.1h.2c2 0 3.5 1 4.4 2.7.4.7.6 1.4.6 2.2v.3c0 1.8-.9 3.3-2.5 4.2-.7.4-1.6.7-2.4.7h-.3c-1.9 0-3.3-.9-4.3-2.5-.4-.7-.7-1.5-.7-2.4v-.3c0-1.8.9-3.3 2.5-4.2.9-.5 1.7-.7 2.5-.7zM68 294.1c0 1.3.6 2.3 1.8 3 .5.3 1 .4 1.5.4 1.3 0 2.3-.6 3-1.7.3-.5.5-1.1.5-1.7 0-1.1-.5-2-1.5-2.7-.6-.4-1.2-.6-1.9-.6-1.4 0-2.5.7-3.1 2-.2.3-.3.8-.3 1.3zm6.7-3.8v-3.6c0-.5.3-.8.8-.8h.1c.5 0 .8.4.8.8v7.5c0 1.8-.9 3.3-2.5 4.2-.7.4-1.6.7-2.4.7h-.3c-1.9 0-3.3-.9-4.3-2.5-.4-.7-.7-1.5-.7-2.4v-.3c0-1.8.9-3.3 2.5-4.2.7-.4 1.6-.7 2.4-.7h.3c1.4 0 2.4.5 3.3 1.3z" fill="#394d54"/><g><path d="M18.4 363h-1.6v-6.3c0-.5 0-1.2.1-1.9-.1.4-.2.7-.3.9l-2.9 7.3h-1.1l-2.9-7.3c-.1-.2-.2-.5-.3-1 0 .4.1 1 .1 1.9v6.3H7.9v-9.8h2.3l2.6 6.5c.2.5.3.9.4 1.1.2-.5.3-.9.4-1.1l2.6-6.5h2.2v9.9zM28.9 363h-1.8l-.9-2.5h-3.9l-.8 2.5h-1.8l3.7-9.8h1.8l3.7 9.8zm-3.1-3.8l-1.4-3.9c0-.1-.1-.3-.1-.6 0 .3-.1.5-.1.6l-1.3 3.9h2.9zM38.6 363h-1.8l-4.7-7.2-.3-.6c0 .2.1.7.1 1.3v6.4h-1.6v-9.8h1.9l4.5 7c.2.3.3.5.4.6 0-.3-.1-.7-.1-1.3v-6.3h1.6v9.9zM49 363h-1.8l-.9-2.5h-3.9l-.8 2.5h-1.8l3.7-9.8h1.8L49 363zm-3.1-3.8l-1.4-3.9c0-.1-.1-.3-.1-.6 0 .3-.1.5-.1.6l-1.3 3.9h2.9zM57.9 362.4c-1 .6-2.2.8-3.4.8-1.4 0-2.6-.5-3.5-1.4s-1.3-2.1-1.3-3.6.5-2.8 1.5-3.7c1-1 2.2-1.5 3.7-1.5 1.1 0 2 .2 2.7.5v1.7c-.8-.5-1.6-.8-2.7-.8-1 0-1.9.3-2.6 1-.7.7-1 1.6-1 2.7s.3 2 .9 2.7c.6.6 1.4 1 2.3 1 .7 0 1.3-.1 1.8-.4v-2.3h-2.1v-1.4h3.7v4.7zM65.5 363H60v-9.8h5.3v1.4h-3.7v2.8H65v1.4h-3.4v2.9h3.9v1.3zM77.8 363h-1.6v-6.3c0-.5 0-1.2.1-1.9-.1.4-.2.7-.3.9l-3 7.3h-1.1l-2.9-7.3c-.1-.2-.2-.5-.3-1 0 .4.1 1 .1 1.9v6.3h-1.5v-9.8h2.3l2.6 6.5c.2.5.3.9.4 1.1.2-.5.3-.9.4-1.1l2.6-6.5h2.2v9.9zM85.7 363h-5.5v-9.8h5.3v1.4h-3.7v2.8h3.4v1.4h-3.4v2.9h3.9v1.3zM95.7 363h-1.8l-4.7-7.2-.3-.6c0 .2.1.7.1 1.3v6.4h-1.6v-9.8h1.9l4.5 7c.2.3.3.5.4.6 0-.3-.1-.7-.1-1.3v-6.3h1.6v9.9zM104.4 354.6h-2.8v8.4H100v-8.4h-2.8v-1.4h7.3l-.1 1.4zM116 354.6h-2.8v8.4h-1.6v-8.4h-2.8v-1.4h7.3l-.1 1.4zM120.9 363.2c-1.4 0-2.5-.5-3.4-1.4-.8-.9-1.3-2.1-1.3-3.6 0-1.6.4-2.8 1.3-3.8s2-1.4 3.5-1.4c1.4 0 2.5.5 3.3 1.4s1.3 2.1 1.3 3.6c0 1.6-.4 2.9-1.3 3.8s-2 1.4-3.4 1.4zm.1-8.7c-.9 0-1.6.3-2.2 1s-.8 1.6-.8 2.6c0 1.1.3 2 .8 2.6s1.3 1 2.1 1c.9 0 1.7-.3 2.2-1s.8-1.5.8-2.7-.3-2.1-.8-2.7c-.5-.5-1.2-.8-2.1-.8zM131.5 363.2c-1.4 0-2.5-.5-3.4-1.4-.8-.9-1.3-2.1-1.3-3.6 0-1.6.4-2.8 1.3-3.8s2-1.4 3.5-1.4c1.4 0 2.5.5 3.3 1.4s1.3 2.1 1.3 3.6c0 1.6-.4 2.9-1.3 3.8s-2 1.4-3.4 1.4zm.1-8.7c-.9 0-1.6.3-2.2 1-.6.7-.8 1.6-.8 2.6 0 1.1.3 2 .8 2.6s1.3 1 2.1 1c.9 0 1.7-.3 2.2-1s.8-1.5.8-2.7-.3-2.1-.8-2.7c-.5-.5-1.2-.8-2.1-.8zM143.5 363H138v-9.8h1.6v8.4h3.8l.1 1.4zM144.4 362.6V361c.2.1.3.3.5.4s.4.2.7.3c.2.1.5.1.7.2s.4.1.6.1c.7 0 1.2-.1 1.5-.3.3-.2.5-.6.5-1 0-.2-.1-.4-.2-.6-.1-.2-.3-.3-.5-.5s-.4-.3-.7-.4-.6-.3-.9-.4c-.3-.2-.6-.4-.9-.5s-.5-.4-.7-.6-.4-.5-.5-.7c-.1-.3-.2-.6-.2-1 0-.5.1-.9.3-1.2.2-.3.5-.6.8-.8.3-.2.7-.4 1.2-.5.4-.1.9-.2 1.3-.2 1 0 1.8.1 2.2.3v1.6c-.6-.4-1.3-.6-2.1-.6-.2 0-.5 0-.7.1-.2 0-.5.1-.6.2-.2.1-.3.2-.5.4s-.2.4-.2.6 0 .4.1.6.2.3.4.4.4.3.6.4c.3.1.5.3.9.4.3.2.7.4 1 .6s.6.4.8.6.4.5.5.8.2.6.2 1c0 .5-.1.9-.3 1.3s-.5.6-.8.8c-.3.2-.7.4-1.2.5s-.9.1-1.4.1h-.6c-.2 0-.5-.1-.7-.1-.3 0-.5-.1-.7-.2s-.2-.4-.4-.5zM161.6 354.6H158v2.9h3.4v1.4H158v4.1h-1.6v-9.8h5.3l-.1 1.4zM167.4 363.2c-1.4 0-2.5-.5-3.4-1.4-.8-.9-1.3-2.1-1.3-3.6 0-1.6.4-2.8 1.3-3.8s2-1.4 3.5-1.4c1.4 0 2.5.5 3.3 1.4s1.3 2.1 1.3 3.6c0 1.6-.4 2.9-1.3 3.8s-1.9 1.4-3.4 1.4zm.1-8.7c-.9 0-1.6.3-2.2 1-.6.7-.8 1.6-.8 2.6 0 1.1.3 2 .8 2.6s1.3 1 2.1 1c.9 0 1.7-.3 2.2-1s.8-1.5.8-2.7-.3-2.1-.8-2.7c-.5-.5-1.2-.8-2.1-.8zM181.5 363h-1.9l-1.6-2.6c-.1-.2-.3-.4-.4-.6-.1-.2-.3-.3-.4-.4-.1-.1-.3-.2-.5-.2s-.3-.1-.6-.1h-.7v4H174v-9.8h3.2c.5 0 .9.1 1.3.2s.7.3 1 .5.5.5.7.8.2.7.2 1.2c0 .3-.1.7-.2 1-.1.3-.2.5-.4.8-.2.2-.4.4-.7.6s-.6.3-.9.4c.2.1.3.2.5.3.1.1.3.2.4.4s.2.3.4.4c.1.2.2.3.4.6l1.6 2.5zm-5.9-8.5v3.2h1.4c.3 0 .5 0 .7-.1l.6-.3c.2-.1.3-.3.4-.5s.1-.4.1-.7c0-.5-.1-.8-.4-1.1s-.7-.4-1.3-.4h-1.5v-.1zM7.9 379.8V370h2.8c3.6 0 5.4 1.6 5.4 4.8 0 1.5-.5 2.7-1.5 3.6s-2.3 1.4-4 1.4H7.9zm1.6-8.4v7h1.3c1.1 0 2-.3 2.7-.9.6-.6 1-1.5 1-2.7 0-2.3-1.2-3.4-3.6-3.4H9.5zM22 380c-1.4 0-2.5-.5-3.4-1.4-.8-.9-1.3-2.1-1.3-3.6 0-1.6.4-2.8 1.3-3.8s2-1.4 3.5-1.4c1.4 0 2.5.5 3.3 1.4s1.3 2.1 1.3 3.6c0 1.6-.4 2.9-1.3 3.8s-2 1.4-3.4 1.4zm.1-8.7c-.9 0-1.6.3-2.2 1s-.8 1.6-.8 2.6c0 1.1.3 2 .8 2.6s1.3 1 2.1 1c.9 0 1.7-.3 2.2-1s.8-1.5.8-2.7-.3-2.1-.8-2.7c-.5-.5-1.2-.8-2.1-.8zM35.4 379.4c-.7.4-1.7.6-2.8.6-1.4 0-2.6-.4-3.4-1.3s-1.3-2.1-1.3-3.5c0-1.6.5-2.8 1.4-3.8 1-1 2.2-1.4 3.7-1.4.9 0 1.7.1 2.4.4v1.6c-.7-.4-1.4-.6-2.2-.6-1.1 0-1.9.3-2.6 1s-1 1.6-1 2.7.3 1.9.9 2.6c.6.6 1.4 1 2.4 1 .9 0 1.7-.2 2.4-.7l.1 1.4zM44.6 379.8h-2.1l-3.4-4.5c-.1-.2-.2-.3-.2-.3v4.8h-1.6V370h1.6v4.6c.1-.1.1-.2.2-.3l3.3-4.3h1.9l-3.8 4.7 4.1 5.1zM51.3 379.8h-5.5V370h5.3v1.4h-3.7v2.8h3.4v1.4h-3.4v2.9h3.9v1.3zM60.6 379.8h-1.9l-1.6-2.6c-.1-.2-.3-.4-.4-.6-.1-.2-.3-.3-.4-.4-.1-.1-.3-.2-.5-.2s-.3-.1-.6-.1h-.7v4H53V370h3.2c.5 0 .9.1 1.3.2s.7.3 1 .5.5.5.7.8.2.7.2 1.2c0 .3-.1.7-.2 1-.1.3-.2.5-.4.8-.2.2-.4.4-.7.6s-.6.3-.9.4c.2.1.3.2.5.3.1.1.3.2.4.4s.2.3.4.4c.1.2.2.3.4.6l1.7 2.6zm-6-8.5v3.2H56c.3 0 .5 0 .7-.1l.6-.3c.2-.1.3-.3.4-.5s.1-.4.1-.7c0-.5-.1-.8-.4-1.1s-.7-.4-1.3-.4h-1.5v-.1zM7.9 413.4v-9.8h2.8c3.6 0 5.4 1.6 5.4 4.8 0 1.5-.5 2.7-1.5 3.6s-2.3 1.4-4 1.4H7.9zm1.6-8.4v7h1.3c1.1 0 2-.3 2.7-.9.6-.6 1-1.5 1-2.7 0-2.3-1.2-3.4-3.6-3.4H9.5zM20.9 413.6c-1.1 0-1.9-.3-2.6-1-.6-.7-1-1.5-1-2.6 0-1.2.3-2.1 1-2.8.7-.7 1.6-1 2.7-1s1.9.3 2.6 1 .9 1.5.9 2.7c0 1.1-.3 2-1 2.7-.6.7-1.5 1-2.6 1zm0-6.1c-.6 0-1.1.2-1.5.6s-.5 1-.5 1.8c0 .7.2 1.3.5 1.7.4.4.9.6 1.5.6s1.1-.2 1.4-.6.5-1 .5-1.8-.2-1.4-.5-1.8c-.3-.3-.7-.5-1.4-.5zM31.1 413.1c-.6.3-1.2.5-2 .5-1 0-1.9-.3-2.5-1-.6-.6-1-1.5-1-2.5 0-1.2.3-2.1 1-2.8.7-.7 1.6-1 2.8-1 .6 0 1.2.1 1.7.3v1.5c-.5-.4-1-.5-1.6-.5-.7 0-1.2.2-1.6.7s-.6 1-.6 1.8c0 .7.2 1.3.6 1.7.4.4.9.6 1.6.6.6 0 1.1-.2 1.6-.6v1.3zM39.1 413.4h-2l-2.7-3.4v3.4h-1.6V403h1.6v6.6l2.6-3.2h1.9l-2.9 3.4 3.1 3.6zM45.7 410.4H41c0 .6.2 1.1.6 1.5.4.4.9.5 1.6.5.7 0 1.4-.2 2.1-.7v1.3c-.6.4-1.5.6-2.5.6s-1.8-.3-2.4-1c-.6-.6-.9-1.5-.9-2.7 0-1.1.3-2 1-2.7.6-.7 1.4-1 2.4-1s1.7.3 2.2.9.8 1.5.8 2.6v.7h-.2zm-1.5-1.2c0-.6-.1-1-.4-1.3-.3-.3-.6-.5-1.1-.5s-.8.2-1.2.5c-.3.3-.5.8-.6 1.3h3.3zM51.3 407.9c-.2-.2-.5-.2-.8-.2-.5 0-.9.2-1.2.6s-.5 1-.5 1.7v3.3h-1.6v-7h1.6v1.4c.2-.5.4-.9.7-1.2.3-.3.7-.4 1.1-.4.3 0 .5 0 .7.1v1.7zM67 413.4h-1.6v-6.3c0-.5 0-1.2.1-1.9-.1.4-.2.7-.3.9l-2.9 7.3h-1.1l-2.9-7.3c-.1-.2-.2-.5-.3-1 0 .4.1 1 .1 1.9v6.3h-1.5v-9.8h2.3l2.6 6.5c.2.5.3.9.4 1.1.2-.5.3-.9.4-1.1l2.6-6.5H67v9.9zM74.6 413.4h-1.5v-1.1c-.5.8-1.2 1.3-2.1 1.3-.7 0-1.2-.2-1.6-.6s-.6-.9-.6-1.5c0-1.3.8-2.1 2.3-2.3l2.1-.3c0-1-.5-1.5-1.4-1.5-.8 0-1.6.3-2.3.9v-1.4c.7-.4 1.6-.7 2.6-.7 1.8 0 2.7.9 2.7 2.6v4.6h-.2zm-1.5-3.4l-1.5.2c-.5.1-.8.2-1 .3-.2.2-.3.4-.3.9 0 .3.1.5.3.7.2.2.5.3.9.3.5 0 .9-.2 1.2-.5.3-.3.5-.8.5-1.3l-.1-.6zM81.5 413.1c-.6.3-1.2.5-2 .5-1 0-1.9-.3-2.5-1-.6-.6-1-1.5-1-2.5 0-1.2.3-2.1 1-2.8.7-.7 1.6-1 2.8-1 .6 0 1.2.1 1.7.3v1.5c-.5-.4-1-.5-1.6-.5-.7 0-1.2.2-1.6.7s-.6 1-.6 1.8c0 .7.2 1.3.6 1.7.4.4.9.6 1.6.6.6 0 1.1-.2 1.6-.6v1.3zM89.3 413.4h-1.6v-3.8c0-1.4-.5-2.1-1.4-2.1-.5 0-.9.2-1.2.6s-.5.9-.5 1.5v3.8H83V403h1.6v4.5c.5-.9 1.3-1.3 2.3-1.3 1.6 0 2.3 1 2.3 2.9l.1 4.3zM92.1 405c-.3 0-.5-.1-.7-.3-.2-.2-.3-.4-.3-.6s.1-.5.3-.6c.2-.2.4-.3.7-.3.3 0 .5.1.7.3s.3.4.3.6-.1.5-.3.6c-.2.2-.5.3-.7.3zm.7 8.4h-1.6v-7h1.6v7zM101.2 413.4h-1.6v-3.9c0-1.3-.5-2-1.4-2-.5 0-.9.2-1.2.5-.3.4-.5.8-.5 1.4v4h-1.6v-7h1.6v1.2c.5-.9 1.3-1.3 2.3-1.3.8 0 1.3.2 1.7.7.4.5.6 1.2.6 2.1l.1 4.3zM109 410.4h-4.8c0 .6.2 1.1.6 1.5s.9.5 1.6.5 1.4-.2 2.1-.7v1.3c-.6.4-1.5.6-2.5.6s-1.8-.3-2.4-1c-.6-.6-.9-1.5-.9-2.7 0-1.1.3-2 1-2.7.6-.7 1.4-1 2.4-1s1.7.3 2.2.9.8 1.5.8 2.6l-.1.7zm-1.5-1.2c0-.6-.1-1-.4-1.3s-.6-.5-1.1-.5-.8.2-1.2.5c-.3.3-.5.8-.6 1.3h3.3zM110.1 413.2v-1.5c.6.5 1.2.7 2 .7 1 0 1.4-.3 1.4-.8 0-.2 0-.3-.1-.4l-.3-.3c-.1-.1-.3-.2-.5-.2-.2-.1-.4-.1-.6-.2-.3-.1-.5-.2-.8-.4-.2-.1-.4-.3-.6-.4-.2-.2-.3-.3-.3-.6s-.1-.4-.1-.7c0-.3.1-.6.2-.9.2-.3.4-.5.6-.7.3-.2.6-.3.9-.4s.7-.1 1.1-.1c.6 0 1.2.1 1.7.3v1.4c-.5-.3-1.1-.5-1.7-.5-.2 0-.4 0-.5.1-.2 0-.3.1-.4.2l-.3.3c-.1.1-.1.2-.1.3 0 .2 0 .3.1.4l.3.3c.1.1.3.2.5.2.2.1.4.1.6.2.3.1.6.2.8.4.2.1.4.3.6.4.2.2.3.3.4.6.1.2.1.5.1.8 0 .4-.1.7-.2.9s-.4.5-.7.7-.6.3-.9.4c-.4.1-.7.1-1.1.1-.9-.2-1.6-.3-2.1-.6zM118 411.8l-1.1 3.4h-1.2l.8-3.4h1.5zM124 413.4v-9.8h2.8c3.6 0 5.4 1.6 5.4 4.8 0 1.5-.5 2.7-1.5 3.6s-2.3 1.4-4 1.4H124zm1.6-8.4v7h1.3c1.1 0 2-.3 2.7-.9.6-.6 1-1.5 1-2.7 0-2.3-1.2-3.4-3.6-3.4h-1.4zM136.9 413.6c-1.1 0-1.9-.3-2.6-1-.6-.7-1-1.5-1-2.6 0-1.2.3-2.1 1-2.8.7-.7 1.6-1 2.7-1s1.9.3 2.6 1 .9 1.5.9 2.7c0 1.1-.3 2-1 2.7-.6.7-1.5 1-2.6 1zm.1-6.1c-.6 0-1.1.2-1.5.6s-.5 1-.5 1.8c0 .7.2 1.3.5 1.7.4.4.9.6 1.5.6s1.1-.2 1.4-.6c.3-.4.5-1 .5-1.8s-.2-1.4-.5-1.8c-.3-.3-.8-.5-1.4-.5zM147.2 413.1c-.6.3-1.2.5-2 .5-1 0-1.9-.3-2.5-1-.6-.6-1-1.5-1-2.5 0-1.2.3-2.1 1-2.8.7-.7 1.6-1 2.8-1 .6 0 1.2.1 1.7.3v1.5c-.5-.4-1-.5-1.6-.5-.7 0-1.2.2-1.6.7-.4.5-.6 1-.6 1.8 0 .7.2 1.3.6 1.7.4.4.9.6 1.6.6.6 0 1.1-.2 1.6-.6v1.3zM155.1 413.4h-2l-2.7-3.4v3.4h-1.6V403h1.6v6.6l2.6-3.2h1.9l-2.9 3.4 3.1 3.6zM161.8 410.4H157c0 .6.2 1.1.6 1.5.4.4.9.5 1.6.5.7 0 1.4-.2 2.1-.7v1.3c-.6.4-1.5.6-2.5.6s-1.8-.3-2.4-1c-.6-.6-.9-1.5-.9-2.7 0-1.1.3-2 1-2.7.6-.7 1.4-1 2.4-1s1.7.3 2.2.9.8 1.5.8 2.6v.7h-.1zm-1.5-1.2c0-.6-.1-1-.4-1.3-.3-.3-.6-.5-1.1-.5s-.8.2-1.2.5c-.3.3-.5.8-.6 1.3h3.3zM167.4 407.9c-.2-.2-.5-.2-.8-.2-.5 0-.9.2-1.2.6s-.5 1-.5 1.7v3.3h-1.6v-7h1.6v1.4c.2-.5.4-.9.7-1.2.3-.3.7-.4 1.1-.4.3 0 .5 0 .7.1v1.7zM7.5 429.8v-1.7c.2.1.3.3.5.4s.4.2.7.3c.2.1.5.1.7.2s.4 0 .6 0c.7 0 1.2-.1 1.5-.3.3-.2.5-.6.5-1 0-.2-.1-.4-.2-.6-.1-.2-.3-.3-.5-.5s-.4-.3-.7-.4-.6-.3-.9-.4c-.3-.2-.6-.4-.9-.5s-.5-.4-.7-.6-.4-.5-.5-.7c-.1-.3-.2-.6-.2-1 0-.5.1-.9.3-1.2.2-.3.5-.6.8-.8.3-.2.7-.4 1.2-.5.4-.1.9-.2 1.3-.2 1 0 1.8.1 2.2.3v1.6c-.6-.4-1.3-.6-2.1-.6-.2 0-.5 0-.7.1-.2 0-.5.1-.6.2-.2.1-.3.2-.5.4s-.2.4-.2.6 0 .4.1.6.2.3.4.4.4.3.6.4c.3.1.5.3.9.4.3.2.7.4 1 .6s.6.4.8.6.4.5.5.8.2.6.2 1c0 .5-.1.9-.3 1.3s-.5.6-.8.8c-.3.2-.7.4-1.2.5s-.9.1-1.4.1h-.6c-.2 0-.5-.1-.7-.1-.3 0-.5-.1-.7-.2s-.3-.2-.4-.3zM27.7 420.4l-2.7 9.8h-1.8l-1.9-6.9c-.1-.3-.1-.6-.1-1 0 .3-.1.6-.2.9l-1.9 6.9h-1.9l-2.7-9.8h1.8l1.8 7.2c.1.3.1.6.1.9 0-.2.1-.5.2-.9l2-7.2h1.7l1.9 7.2c.1.2.1.5.1.9 0-.2.1-.5.2-.9l1.7-7.2h1.7v.1zM36.6 430.2h-1.8l-.9-2.5H30l-.8 2.5h-1.8l3.7-9.8H33l3.6 9.8zm-3.1-3.8l-1.4-3.9c0-.1-.1-.3-.1-.6 0 .3-.1.5-.1.6l-1.3 3.9h2.9zM45.5 430.2h-1.9l-1.6-2.6c-.1-.2-.3-.4-.4-.6-.1-.2-.3-.3-.4-.4-.1-.1-.3-.2-.5-.2s-.3-.1-.6-.1h-.7v4h-1.6v-9.8H41c.5 0 .9.1 1.3.2s.7.3 1 .5.5.5.7.8.2.7.2 1.2c0 .3-.1.7-.2 1-.1.3-.2.5-.4.8-.2.2-.4.4-.7.6s-.6.3-.9.4c.2.1.3.2.5.3.1.1.3.2.4.4s.2.3.4.4c.1.2.2.3.4.6l1.8 2.5zm-5.9-8.5v3.2H41c.3 0 .5 0 .7-.1l.6-.3c.2-.1.3-.3.4-.5s.1-.4.1-.7c0-.5-.1-.8-.4-1.1s-.7-.4-1.3-.4h-1.5v-.1zM57.2 430.2h-1.6v-6.3c0-.5 0-1.2.1-1.9-.1.4-.2.7-.3.9l-2.9 7.3h-1.1l-2.9-7.3c-.1-.2-.2-.5-.3-1 0 .4.1 1 .1 1.9v6.3h-1.5v-9.8H49l2.6 6.5c.2.5.3.9.4 1.1.2-.5.3-.9.4-1.1l2.6-6.5h2.2v9.9zM60.9 428.6l-1.1 3.4h-1.2l.8-3.4h1.5zM66.8 430.2v-9.8h2.8c3.6 0 5.4 1.6 5.4 4.8 0 1.5-.5 2.7-1.5 3.6s-2.3 1.4-4 1.4h-2.7zm1.6-8.4v7h1.3c1.1 0 2-.3 2.7-.9.6-.6 1-1.5 1-2.7 0-2.3-1.2-3.4-3.6-3.4h-1.4zM79.8 430.4c-1.1 0-1.9-.3-2.6-1-.6-.7-1-1.5-1-2.6 0-1.2.3-2.1 1-2.8.7-.7 1.6-1 2.7-1s1.9.3 2.6 1 .9 1.5.9 2.7c0 1.1-.3 2-1 2.7-.6.7-1.5 1-2.6 1zm.1-6.1c-.6 0-1.1.2-1.5.6s-.5 1-.5 1.8c0 .7.2 1.3.5 1.7.4.4.9.6 1.5.6s1.1-.2 1.4-.6.5-1 .5-1.8-.2-1.4-.5-1.8c-.3-.3-.8-.5-1.4-.5zM90.1 429.9c-.6.3-1.2.5-2 .5-1 0-1.9-.3-2.5-1-.6-.6-1-1.5-1-2.5 0-1.2.3-2.1 1-2.8.7-.7 1.6-1 2.8-1 .6 0 1.2.1 1.7.3v1.5c-.5-.4-1-.5-1.6-.5-.7 0-1.2.2-1.6.7s-.6 1-.6 1.8c0 .7.2 1.3.6 1.7.4.4.9.6 1.6.6.6 0 1.1-.2 1.6-.6v1.3zM98 430.2h-2l-2.7-3.4v3.4h-1.6v-10.4h1.6v6.6l2.6-3.2h1.9l-2.9 3.4 3.1 3.6zM104.7 427.2h-4.8c0 .6.2 1.1.6 1.5s.9.5 1.6.5 1.4-.2 2.1-.7v1.3c-.6.4-1.5.6-2.5.6s-1.8-.3-2.4-1c-.6-.6-.9-1.5-.9-2.7 0-1.1.3-2 1-2.7.6-.7 1.4-1 2.4-1s1.7.3 2.2.9.8 1.5.8 2.6l-.1.7zm-1.6-1.2c0-.6-.1-1-.4-1.3s-.6-.5-1.1-.5-.8.2-1.2.5c-.3.3-.5.8-.6 1.3h3.3zM110.2 424.7c-.2-.2-.5-.2-.8-.2-.5 0-.9.2-1.2.6s-.5 1-.5 1.7v3.3h-1.6v-7h1.6v1.4c.2-.5.4-.9.7-1.2.3-.3.7-.4 1.1-.4.3 0 .5 0 .7.1v1.7zM122.2 429.8c-.7.4-1.7.6-2.8.6-1.4 0-2.6-.4-3.4-1.3s-1.3-2.1-1.3-3.5c0-1.6.5-2.8 1.4-3.8 1-1 2.2-1.4 3.7-1.4.9 0 1.7.1 2.4.4v1.6c-.7-.4-1.4-.6-2.2-.6-1.1 0-1.9.3-2.6 1s-1 1.6-1 2.7.3 1.9.9 2.6c.6.6 1.4 1 2.4 1 .9 0 1.7-.2 2.4-.7l.1 1.4zM127 430.4c-1.1 0-1.9-.3-2.6-1-.6-.7-1-1.5-1-2.6 0-1.2.3-2.1 1-2.8.7-.7 1.6-1 2.7-1s1.9.3 2.6 1 .9 1.5.9 2.7c0 1.1-.3 2-1 2.7-.6.7-1.5 1-2.6 1zm.1-6.1c-.6 0-1.1.2-1.5.6s-.5 1-.5 1.8c0 .7.2 1.3.5 1.7.4.4.9.6 1.5.6s1.1-.2 1.4-.6.5-1 .5-1.8-.2-1.4-.5-1.8c-.3-.3-.8-.5-1.4-.5zM142.7 430.2h-1.6v-3.8c0-.7-.1-1.3-.3-1.6-.2-.3-.6-.5-1-.5s-.8.2-1.1.6-.4.9-.4 1.5v3.8h-1.6v-3.9c0-1.3-.5-2-1.4-2-.4 0-.8.2-1.1.6s-.4.9-.4 1.5v3.8h-1.6v-7h1.6v1.1c.5-.8 1.2-1.3 2.2-1.3.5 0 .9.1 1.3.4.4.3.6.6.7 1 .5-1 1.3-1.4 2.3-1.4 1.5 0 2.3 1 2.3 2.9v4.3h.1zM146.3 429.2v4.3h-1.6v-10.2h1.6v1.2c.5-.9 1.3-1.4 2.4-1.4.9 0 1.6.3 2.1.9s.7 1.5.7 2.5c0 1.2-.3 2.1-.8 2.8s-1.3 1.1-2.3 1.1-1.6-.4-2.1-1.2zm-.1-2.8v.9c0 .5.2.9.5 1.3s.7.5 1.2.5c.6 0 1-.2 1.4-.7.3-.5.5-1.1.5-1.9 0-.7-.2-1.2-.5-1.6s-.7-.6-1.3-.6-1 .2-1.4.6c-.2.4-.4.9-.4 1.5zM156.2 430.4c-1.1 0-1.9-.3-2.6-1-.6-.7-1-1.5-1-2.6 0-1.2.3-2.1 1-2.8.7-.7 1.6-1 2.7-1s1.9.3 2.6 1 .9 1.5.9 2.7c0 1.1-.3 2-1 2.7-.6.7-1.5 1-2.6 1zm.1-6.1c-.6 0-1.1.2-1.5.6s-.5 1-.5 1.8c0 .7.2 1.3.5 1.7.4.4.9.6 1.5.6s1.1-.2 1.4-.6c.3-.4.5-1 .5-1.8s-.2-1.4-.5-1.8c-.3-.3-.8-.5-1.4-.5zM161 430v-1.5c.6.5 1.2.7 2 .7 1 0 1.4-.3 1.4-.8 0-.2 0-.3-.1-.4l-.3-.3c-.1-.1-.3-.2-.5-.2-.2-.1-.4-.1-.6-.2-.3-.1-.5-.2-.8-.4-.2-.1-.4-.3-.6-.4-.2-.2-.3-.3-.3-.6s-.1-.4-.1-.7c0-.3.1-.6.2-.9.2-.3.4-.5.6-.7.3-.2.6-.3.9-.4.3-.1.7-.1 1.1-.1.6 0 1.2.1 1.7.3v1.4c-.5-.3-1.1-.5-1.7-.5-.2 0-.4 0-.5.1-.2 0-.3.1-.4.2l-.3.3c-.1.1-.1.2-.1.3 0 .2 0 .3.1.4l.3.3c.1.1.3.2.5.2.2.1.4.1.6.2.3.1.6.2.8.4.2.1.4.3.6.4.2.2.3.3.4.6.1.2.1.5.1.8 0 .4-.1.7-.2.9s-.4.5-.7.7-.6.3-.9.4c-.4.1-.7.1-1.1.1-.9-.2-1.5-.3-2.1-.6zM173.4 427.2h-4.8c0 .6.2 1.1.6 1.5.4.4.9.5 1.6.5.7 0 1.4-.2 2.1-.7v1.3c-.6.4-1.5.6-2.5.6s-1.8-.3-2.4-1c-.6-.6-.9-1.5-.9-2.7 0-1.1.3-2 1-2.7.6-.7 1.4-1 2.4-1s1.7.3 2.2.9.8 1.5.8 2.6v.7h-.1zm-1.5-1.2c0-.6-.1-1-.4-1.3-.3-.3-.6-.5-1.1-.5s-.8.2-1.2.5c-.3.3-.5.8-.6 1.3h3.3zM176.4 428.6l-1.1 3.4h-1.2l.8-3.4h1.5zM15.3 447h-2.1l-3.4-4.5c-.1-.2-.2-.3-.2-.3v4.8H7.9v-9.8h1.6v4.6c.1-.1.1-.2.2-.3l3.3-4.3h2l-3.8 4.7 4.1 5.1zM22.4 447h-1.6v-1.1c-.5.8-1.2 1.3-2.1 1.3-1.7 0-2.5-1-2.5-3V440h1.6v4c0 1.3.5 1.9 1.5 1.9.5 0 .9-.2 1.2-.5.3-.3.5-.8.5-1.4v-4h1.6v7h-.2zM26.1 446v1h-1.6v-10.4H26v4.6c.5-.9 1.3-1.4 2.4-1.4.9 0 1.6.3 2.1.9s.7 1.5.7 2.5c0 1.2-.3 2.1-.8 2.8-.6.7-1.3 1.1-2.3 1.1-.9.1-1.6-.3-2-1.1zm-.1-2.8v.9c0 .5.2.9.5 1.3s.7.5 1.2.5c.6 0 1-.2 1.4-.7.3-.5.5-1.1.5-1.9 0-.7-.2-1.2-.5-1.6s-.7-.6-1.3-.6c-.6 0-1 .2-1.4.6-.2.4-.4.9-.4 1.5zM38.8 444H34c0 .6.2 1.1.6 1.5.4.4.9.5 1.6.5.7 0 1.4-.2 2.1-.7v1.3c-.6.4-1.5.6-2.5.6s-1.8-.3-2.4-1c-.6-.6-.9-1.5-.9-2.7 0-1.1.3-2 1-2.7.6-.7 1.4-1 2.4-1s1.7.3 2.2.9.8 1.5.8 2.6l-.1.7zm-1.5-1.2c0-.6-.1-1-.4-1.3-.3-.3-.6-.5-1.1-.5s-.8.2-1.2.5c-.3.3-.5.8-.6 1.3h3.3zM44.4 441.5c-.2-.2-.5-.2-.8-.2-.5 0-.9.2-1.2.6s-.5 1-.5 1.7v3.3h-1.6v-7h1.6v1.4c.2-.5.4-.9.7-1.2.3-.3.7-.4 1.1-.4.3 0 .5 0 .7.1v1.7zM51.7 447h-1.6v-3.9c0-1.3-.5-2-1.4-2-.5 0-.9.2-1.2.5-.3.4-.5.8-.5 1.4v4h-1.6v-7H47v1.2c.5-.9 1.3-1.3 2.3-1.3.8 0 1.3.2 1.7.7s.6 1.2.6 2.1v4.3h.1zM59.6 444h-4.8c0 .6.2 1.1.6 1.5.4.4.9.5 1.6.5.7 0 1.4-.2 2.1-.7v1.3c-.6.4-1.5.6-2.5.6s-1.8-.3-2.4-1c-.6-.6-.9-1.5-.9-2.7 0-1.1.3-2 1-2.7.6-.7 1.4-1 2.4-1s1.7.3 2.2.9.8 1.5.8 2.6l-.1.7zm-1.5-1.2c0-.6-.1-1-.4-1.3-.3-.3-.6-.5-1.1-.5s-.8.2-1.2.5c-.3.3-.5.8-.6 1.3h3.3zM64.8 447c-.3.2-.7.2-1.2.2-1.4 0-2-.7-2-2v-4h-1.2V440h1.2v-1.6l1.6-.5v2.1h1.7v1.2h-1.7v3.5c0 .4.1.7.2.9s.4.3.8.3c.3 0 .5-.1.7-.2l-.1 1.3zM72 444h-4.8c0 .6.2 1.1.6 1.5s.9.5 1.6.5 1.4-.2 2.1-.7v1.3c-.6.4-1.5.6-2.5.6s-1.8-.3-2.4-1c-.6-.6-.9-1.5-.9-2.7 0-1.1.3-2 1-2.7.6-.7 1.4-1 2.4-1s1.7.3 2.2.9.8 1.5.8 2.6l-.1.7zm-1.5-1.2c0-.6-.1-1-.4-1.3s-.6-.5-1.1-.5-.8.2-1.2.5c-.3.3-.5.8-.6 1.3h3.3zM73.1 446.8v-1.5c.6.5 1.2.7 2 .7 1 0 1.4-.3 1.4-.8 0-.2 0-.3-.1-.4l-.3-.3c-.1-.1-.3-.2-.5-.2-.2-.1-.4-.1-.6-.2-.3-.1-.5-.2-.8-.4-.2-.1-.4-.3-.6-.4-.2-.2-.3-.3-.3-.6s-.1-.4-.1-.7c0-.3.1-.6.2-.9.2-.3.4-.5.6-.7.3-.2.6-.3.9-.4s.7-.1 1.1-.1c.6 0 1.2.1 1.7.3v1.4c-.5-.3-1.1-.5-1.7-.5-.2 0-.4 0-.5.1-.2 0-.3.1-.4.2l-.3.3c-.1.1-.1.2-.1.3 0 .2 0 .3.1.4l.3.3c.1.1.3.2.5.2.2.1.4.1.6.2.3.1.6.2.8.4.2.1.4.3.6.4.2.2.3.3.4.6.1.2.1.5.1.8 0 .4-.1.7-.2.9s-.4.5-.7.7-.6.3-.9.4c-.4.1-.7.1-1.1.1-.9-.2-1.6-.3-2.1-.6zM81 445.4l-1.1 3.4h-1.2l.8-3.4H81zM95 447h-1.8l-.9-2.5h-3.9l-.8 2.5h-1.8l3.7-9.8h1.8L95 447zm-3.1-3.8l-1.4-3.9c0-.1-.1-.3-.1-.6 0 .3-.1.5-.1.6l-1.3 3.9h2.9zM97.8 446v4.3h-1.6V440h1.6v1.2c.5-.9 1.3-1.4 2.4-1.4.9 0 1.6.3 2.1.9s.7 1.5.7 2.5c0 1.2-.3 2.1-.8 2.8s-1.3 1.1-2.3 1.1c-.9.1-1.6-.3-2.1-1.1zm0-2.8v.9c0 .5.2.9.5 1.3s.7.5 1.2.5c.6 0 1-.2 1.4-.7.3-.5.5-1.1.5-1.9 0-.7-.2-1.2-.5-1.6s-.7-.6-1.3-.6c-.6 0-1 .2-1.4.6-.3.4-.4.9-.4 1.5zM109.8 447h-1.5v-1.1c-.5.8-1.2 1.3-2.1 1.3-.7 0-1.2-.2-1.6-.6s-.6-.9-.6-1.5c0-1.3.8-2.1 2.3-2.3l2.1-.3c0-1-.5-1.5-1.4-1.5-.8 0-1.6.3-2.3.9v-1.4c.7-.4 1.6-.7 2.6-.7 1.8 0 2.7.9 2.7 2.6v4.6h-.2zm-1.5-3.4l-1.5.2c-.5.1-.8.2-1 .3-.2.2-.3.4-.3.9 0 .3.1.5.3.7.2.2.5.3.9.3.5 0 .9-.2 1.2-.5.3-.3.5-.8.5-1.3l-.1-.6zM116.8 446.7c-.6.3-1.2.5-2 .5-1 0-1.9-.3-2.5-1-.6-.6-1-1.5-1-2.5 0-1.2.3-2.1 1-2.8.7-.7 1.6-1 2.8-1 .6 0 1.2.1 1.7.3v1.5c-.5-.4-1-.5-1.6-.5-.7 0-1.2.2-1.6.7s-.6 1-.6 1.8c0 .7.2 1.3.6 1.7.4.4.9.6 1.6.6.6 0 1.1-.2 1.6-.6v1.3zM124.6 447H123v-3.8c0-1.4-.5-2.1-1.4-2.1-.5 0-.9.2-1.2.6s-.5.9-.5 1.5v3.8h-1.6v-10.4h1.6v4.5c.5-.9 1.3-1.3 2.3-1.3 1.6 0 2.3 1 2.3 2.9l.1 4.3zM132.4 444h-4.8c0 .6.2 1.1.6 1.5.4.4.9.5 1.6.5.7 0 1.4-.2 2.1-.7v1.3c-.6.4-1.5.6-2.5.6s-1.8-.3-2.4-1c-.6-.6-.9-1.5-.9-2.7 0-1.1.3-2 1-2.7.6-.7 1.4-1 2.4-1s1.7.3 2.2.9.8 1.5.8 2.6v.7h-.1zm-1.5-1.2c0-.6-.1-1-.4-1.3-.3-.3-.6-.5-1.1-.5s-.8.2-1.2.5c-.3.3-.5.8-.6 1.3h3.3zM148.5 447h-1.6v-6.3c0-.5 0-1.2.1-1.9-.1.4-.2.7-.3.9l-2.9 7.3h-1.1l-2.9-7.3c-.1-.2-.2-.5-.3-1 0 .4.1 1 .1 1.9v6.3H138v-9.8h2.3l2.6 6.5c.2.5.3.9.4 1.1.2-.5.3-.9.4-1.1l2.6-6.5h2.2v9.9zM156.6 444h-4.8c0 .6.2 1.1.6 1.5.4.4.9.5 1.6.5.7 0 1.4-.2 2.1-.7v1.3c-.6.4-1.5.6-2.5.6s-1.8-.3-2.4-1c-.6-.6-.9-1.5-.9-2.7 0-1.1.3-2 1-2.7.6-.7 1.4-1 2.4-1s1.7.3 2.2.9.8 1.5.8 2.6v.7h-.1zm-1.5-1.2c0-.6-.1-1-.4-1.3-.3-.3-.6-.5-1.1-.5s-.8.2-1.2.5c-.3.3-.5.8-.6 1.3h3.3zM157.7 446.8v-1.5c.6.5 1.2.7 2 .7 1 0 1.4-.3 1.4-.8 0-.2 0-.3-.1-.4l-.3-.3c-.1-.1-.3-.2-.5-.2-.2-.1-.4-.1-.6-.2-.3-.1-.5-.2-.8-.4-.2-.1-.4-.3-.6-.4-.2-.2-.3-.3-.3-.6s-.1-.4-.1-.7c0-.3.1-.6.2-.9.2-.3.4-.5.6-.7.3-.2.6-.3.9-.4.3-.1.7-.1 1.1-.1.6 0 1.2.1 1.7.3v1.4c-.5-.3-1.1-.5-1.7-.5-.2 0-.4 0-.5.1-.2 0-.3.1-.4.2l-.3.3c-.1.1-.1.2-.1.3 0 .2 0 .3.1.4l.3.3c.1.1.3.2.5.2.2.1.4.1.6.2.3.1.6.2.8.4.2.1.4.3.6.4.2.2.3.3.4.6.1.2.1.5.1.8 0 .4-.1.7-.2.9s-.4.5-.7.7-.6.3-.9.4c-.4.1-.7.1-1.1.1-.9-.2-1.5-.3-2.1-.6zM167.3 447.2c-1.1 0-1.9-.3-2.6-1-.6-.7-1-1.5-1-2.6 0-1.2.3-2.1 1-2.8.7-.7 1.6-1 2.7-1s1.9.3 2.6 1 .9 1.5.9 2.7c0 1.1-.3 2-1 2.7-.6.7-1.5 1-2.6 1zm.1-6.1c-.6 0-1.1.2-1.5.6s-.5 1-.5 1.8c0 .7.2 1.3.5 1.7.4.4.9.6 1.5.6s1.1-.2 1.4-.6c.3-.4.5-1 .5-1.8s-.2-1.4-.5-1.8c-.3-.3-.8-.5-1.4-.5zM172.1 446.8v-1.5c.6.5 1.2.7 2 .7 1 0 1.4-.3 1.4-.8 0-.2 0-.3-.1-.4l-.3-.3c-.1-.1-.3-.2-.5-.2-.2-.1-.4-.1-.6-.2-.3-.1-.5-.2-.8-.4-.2-.1-.4-.3-.6-.4-.2-.2-.3-.3-.3-.6s-.1-.4-.1-.7c0-.3.1-.6.2-.9.2-.3.4-.5.6-.7.3-.2.6-.3.9-.4.3-.1.7-.1 1.1-.1.6 0 1.2.1 1.7.3v1.4c-.5-.3-1.1-.5-1.7-.5-.2 0-.4 0-.5.1-.2 0-.3.1-.4.2l-.3.3c-.1.1-.1.2-.1.3 0 .2 0 .3.1.4l.3.3c.1.1.3.2.5.2.2.1.4.1.6.2.3.1.6.2.8.4.2.1.4.3.6.4.2.2.3.3.4.6.1.2.1.5.1.8 0 .4-.1.7-.2.9s-.4.5-.7.7-.6.3-.9.4c-.4.1-.7.1-1.1.1-.9-.2-1.5-.3-2.1-.6z"/></g><g fill="none" stroke="#dfdfde" stroke-width="4" stroke-linecap="round" stroke-linejoin="round" stroke-miterlimit="10"><path d="M94.4-83v260.9"/><circle cx="94.4" cy="183.4" r="5"/></g></svg>