<svg id="Layer_1" xmlns="http://www.w3.org/2000/svg" width="279" height="491" viewBox="0 0 279 491"><circle cx="225.3" cy="446.9" r="11"/><text transform="translate(390.667 631)" font-family="'MyriadPro-Regular'" font-size="12">1ebbee</text><path d="M176.8 471.8V462h2.8c3.6 0 5.4 1.6 5.4 4.8 0 1.5-.5 2.7-1.5 3.6s-2.3 1.4-4 1.4h-2.7zm1.6-8.4v7h1.3c1.1 0 2-.3 2.7-.9.6-.6.9-1.5.9-2.7 0-2.3-1.2-3.4-3.5-3.4h-1.4zM194.6 471.8h-1.8l-.9-2.5h-3.8l-.8 2.5h-1.8l3.7-9.8h1.8l3.6 9.8zm-3.1-3.8l-1.4-3.9c0-.1-.1-.3-.1-.6 0 .3-.1.5-.1.6l-1.3 3.9h2.9zM201.2 463.4h-2.8v8.4h-1.6v-8.4H194V462h7.2v1.4zM209.6 471.8h-1.8l-.9-2.5h-3.8l-.8 2.5h-1.8l3.7-9.8h1.8l3.6 9.8zm-3.1-3.8l-1.4-3.9c0-.1-.1-.3-.1-.6 0 .3-.1.5-.1.6l-1.3 3.9h2.9zM210.9 471.8V462h3.1c.9 0 1.7.2 2.2.6.6.4.8.9.8 1.6 0 .6-.2 1-.5 1.4s-.7.7-1.3.9c.7.1 1.2.3 1.6.7.4.4.6 1 .6 1.6 0 .8-.3 1.5-1 2s-1.5.8-2.5.8h-3v.2zm1.6-8.4v2.8h1c.6 0 1-.1 1.3-.4s.5-.6.5-1.1c0-.8-.6-1.3-1.7-1.3h-1.1zm0 4v3.1h1.4c.6 0 1.1-.1 1.4-.4s.5-.7.5-1.2c0-1-.7-1.5-2.1-1.5h-1.2zM227.4 471.8h-1.8l-.9-2.5h-3.8l-.8 2.5h-1.8l3.7-9.8h1.8l3.6 9.8zm-3.1-3.8l-1.4-3.9c0-.1-.1-.3-.1-.6 0 .3-.1.5-.1.6l-1.3 3.9h2.9zM228.3 471.4v-1.7c.1.1.3.3.5.4s.4.2.7.3.5.1.7.2c.2 0 .4.1.6.1.7 0 1.2-.1 1.5-.3.3-.2.5-.6.5-1 0-.2-.1-.4-.2-.6s-.3-.3-.5-.5-.4-.3-.7-.4c-.3-.1-.6-.3-.9-.4-.3-.2-.6-.4-.9-.5s-.5-.4-.7-.6-.4-.5-.5-.7c-.1-.3-.2-.6-.2-1 0-.5.1-.9.3-1.2.2-.3.5-.6.8-.8.3-.2.7-.4 1.2-.5.4-.1.9-.2 1.3-.2 1 0 1.8.1 2.2.3v1.6c-.6-.4-1.3-.6-2.1-.6-.2 0-.5 0-.7.1-.2 0-.5.1-.6.2-.2.1-.3.2-.5.4-.1.2-.2.4-.2.6s0 .4.1.6.2.3.4.4c.2.1.4.3.6.4.3.1.5.3.9.4.3.2.7.4 1 .6s.6.4.8.6c.2.2.4.5.5.8s.2.6.2 1c0 .5-.1.9-.3 1.3s-.5.6-.8.8c-.3.2-.7.4-1.2.5-.4.1-.9.1-1.4.1h-.6c-.2 0-.5-.1-.7-.1-.3 0-.5-.1-.7-.2-.1-.2-.3-.3-.4-.4zM241.8 471.8h-5.5V462h5.3v1.4H238v2.8h3.4v1.4H238v2.9h3.9l-.1 1.3zM253.6 463.4h-2.8v8.4h-1.6v-8.4h-2.8V462h7.2v1.4zM256.7 471.8H255V462h1.7v9.8zM264.5 471.8H259V462h5.3v1.4h-3.6v2.8h3.4v1.4h-3.4v2.9h3.9v1.3h-.1zM273.8 471.8h-1.9l-1.6-2.6c-.1-.2-.3-.4-.4-.6-.1-.2-.3-.3-.4-.4-.1-.1-.3-.2-.5-.2s-.3-.1-.6-.1h-.7v4h-1.6v-9.8h3.2c.5 0 .9.1 1.3.2s.7.3 1 .5.5.5.7.8.2.7.2 1.2c0 .3-.1.7-.2.9-.1.3-.2.5-.4.8-.2.2-.4.4-.7.6s-.6.3-.9.4c.2.1.3.2.5.3s.3.2.4.4c.1.1.2.3.3.4s.2.3.4.6l1.9 2.6zm-5.9-8.4v3.2h1.3c.3 0 .5 0 .7-.1s.4-.2.5-.3c.2-.1.3-.3.4-.5.1-.2.1-.4.1-.7 0-.5-.1-.8-.4-1.1s-.7-.4-1.3-.4h-1.3v-.1z"/><g><path fill="#FFF" d="M227.8 443.9l-.9 1.8c-.3.6-.5 1.2-.8 1.7l-.6 1.8c-.2.6-.3 1.2-.4 1.8h-1.3c.1-.6.2-1.1.4-1.7s.3-1.1.6-1.6.5-1.1.7-1.7c.3-.6.6-1.1.9-1.7h-3.6v-1.1h5.1v.7z"/></g></svg>