<?xml version="1.0" encoding="utf-8"?>
<!-- Generator: Adobe Illustrator 19.2.0, SVG Export Plug-In . SVG Version: 6.00 Build 0)  -->
<svg version="1.1" id="Layer_1" xmlns="http://www.w3.org/2000/svg" xmlns:xlink="http://www.w3.org/1999/xlink" x="0px" y="0px"
	 width="217px" height="475px" viewBox="0 0 217 475" style="enable-background:new 0 0 217 475;" xml:space="preserve">
<style type="text/css">
	.st0{fill:none;stroke:#DFDFDE;stroke-width:4;stroke-linecap:round;stroke-linejoin:round;stroke-miterlimit:10;}
	.st1{fill:#FFFFFF;stroke:#27BBED;stroke-width:3;stroke-linecap:round;stroke-linejoin:round;}
	.st2{fill:#27BBED;}
	.st3{fill:none;}
</style>
<g>
	<line class="st0" x1="36.6" y1="1" x2="36.6" y2="267.4"/>
</g>
<g>
	<g>
		<path class="st1" d="M196.9,278.2c-5.3,32.8-36.1,55.1-68.9,49.9s-55.2-36.2-49.9-69c1.3-8.4,4.4-16.1,8.7-22.8
			c7.5-11.7,18.8-20.4,31.9-24.8c8.9-2.9,18.5-3.8,28.4-2.3C179.8,214.5,202.1,245.4,196.9,278.2z"/>
		<path class="st1" d="M186.1,276.4c-4.3,26.9-29.6,45.1-56.4,40.8c-26.9-4.3-45.1-29.6-40.8-56.4c1.1-6.9,3.6-13.2,7.1-18.7
			c6.1-9.6,15.4-16.7,26.1-20.3c7.3-2.4,15.2-3.1,23.2-1.8C172.1,224.3,190.4,249.6,186.1,276.4z"/>
	</g>
	<g>
		<g>
			<path class="st2" d="M128.6,286.3c0-0.3,0-0.5,0-0.8l2.7-1.5c-0.1-0.9-0.4-1.8-0.7-2.6l-3.1,0.1c-0.2-0.5-0.5-1-0.8-1.4l1.6-2.7
				c-0.6-0.7-1.2-1.3-1.9-1.9l-1.6,0.9l-0.7,1l-1.4,2.1c2,1.6,3.3,4.1,3.3,6.8c0,4.8-3.9,8.6-8.6,8.6c-4.8,0-8.6-3.9-8.6-8.6
				c0-4.3,3.1-7.8,7.2-8.5l0.7-2.7l-1.5-2.7c-0.9,0.1-1.8,0.4-2.6,0.7v3.1c-0.5,0.2-1,0.5-1.4,0.8l-2.7-1.6
				c-0.7,0.6-1.3,1.2-1.9,1.9l1.6,2.7c-0.3,0.4-0.5,0.9-0.8,1.4l-3.1-0.1c-0.3,0.8-0.5,1.7-0.7,2.6l2.7,1.5c0,0.3,0,0.5,0,0.8
				s0,0.5,0,0.8l-2.7,1.5c0.2,0.9,0.4,1.8,0.7,2.6l3.1-0.1c0.2,0.5,0.5,1,0.8,1.4l-1.6,2.7c0.6,0.7,1.2,1.3,1.9,1.9l2.7-1.6
				c0.4,0.3,0.9,0.6,1.4,0.8v3.1c0.8,0.3,1.7,0.5,2.6,0.7l1.5-2.7c0.3,0,0.5,0,0.8,0s0.5,0,0.8,0l1.5,2.7c0.9-0.1,1.8-0.4,2.6-0.7
				v-3.1c0.5-0.2,1-0.5,1.4-0.8l2.7,1.6c0.7-0.6,1.3-1.2,1.9-1.9l-1.6-2.7c0.3-0.4,0.6-0.9,0.8-1.4l3.1,0.1c0.3-0.8,0.5-1.7,0.7-2.6
				l-2.7-1.5C128.6,286.8,128.6,286.5,128.6,286.3z"/>
			<path class="st2" d="M114.6,286.2h2.4c0.1,0,0.1,0,0.2,0.1s0.1,0.1,0,0.2l-2.5,6c-0.1,0.2,0,0.2,0.1,0.1l7.9-8.9
				c0.1-0.1,0.1-0.2-0.1-0.2H120h-0.5c-0.2,0-0.3-0.1-0.2-0.3l2.4-4.4l2.7-4.8l0.8-1.5c-1.8-1.1-3.9-1.8-6.1-2l-0.5,1.6l-1.7,5.4
				l-2.6,8.3C114.3,286.1,114.4,286.2,114.6,286.2z"/>
		</g>
		<g>
			<polygon class="st2" points="154.2,291.1 148.5,279 145.3,285.4 142,281.9 140.6,284.7 138.6,284.7 138.6,283.2 139.7,283.2 
				141.6,279.3 144.9,282.8 148.6,275.6 154.5,288.1 161.3,278.2 163.9,286.2 164.8,286.2 164.8,287.7 162.8,287.7 160.8,281.6 			
				"/>
			<path class="st2" d="M165.9,274v18.7h-28.4V274H165.9L165.9,274L165.9,274z M167.8,271h-32.2c-0.6,0-1.1,0.5-1.1,1.1v22.4
				c0,0.6,0.5,1.1,1.1,1.1h32.2c0.6,0,1.1-0.5,1.1-1.1v-22.4C168.9,271.5,168.4,271,167.8,271L167.8,271z"/>
		</g>
		<path class="st2" d="M167.6,250.5h-1.4V248c0-5.4-3.4-8.1-7.4-8.1h-0.7c-4.1,0-7.4,2.7-7.4,8.1v2.5h-1.4c-0.6,0-1.4,0.8-1.4,1.4
			v13.6c0,0.6,0.8,1.4,1.4,1.4h18.2c0.6,0,1.4-0.8,1.4-1.4v-13.6C168.9,251.3,168.1,250.5,167.6,250.5L167.6,250.5z M159.5,258.6
			v5.6h-2v-5.6c-0.8-0.4-1.4-1.2-1.4-2.1c0-1.3,1.1-2.4,2.4-2.4s2.4,1.1,2.4,2.4C160.8,257.3,160.3,258.1,159.5,258.6L159.5,258.6z
			 M163.7,250.5h-10.4V248c0-3.4,1.8-5.7,4.8-5.7h0.7c3.1,0,4.8,2.3,4.8,5.7L163.7,250.5L163.7,250.5L163.7,250.5z"/>
		<polygon class="st3" points="130.2,237.9 130.2,238.6 132.4,238.6 132.4,237.9 132.4,236.5 130.2,236.5 		"/>
		<path class="st2" d="M141.9,237.9h-1.4v24.8h-18.3v-24.8h-1.4c-1.2,0-2.2,1-2.2,2.2v24.8c0,1.2,1,2.2,2.2,2.2h21.1
			c1.2,0,2.2-1,2.2-2.2v-24.8C144.1,238.9,143.1,237.9,141.9,237.9z"/>
		<path class="st2" d="M139,238.7c0-0.3-0.1-0.5-0.1-0.8c-0.3-0.8-1.1-1.4-2-1.4h-2.6v-0.9c0-1.2-1-2.1-2.1-2.1h-1.7
			c-1.2,0-2.1,1-2.1,2.1v0.9h-2.6c-0.9,0-1.7,0.6-2,1.4c-0.1,0.2-0.1,0.5-0.1,0.8v2.1H139V238.7z M132.4,237.9v0.7h-2.2v-0.7v-1.5
			h2.2V237.9z"/>
		<path class="st2" d="M129.4,260.5l9.6-12.3c0.2-0.2,0.1-0.5-0.1-0.6l-1.6-1.3c-0.2-0.2-0.5-0.1-0.6,0.1l-7.2,9.6l-3.7-4
			c-0.2-0.2-0.4-0.2-0.6-0.1l-1.6,1.4c-0.2,0.2-0.2,0.4,0,0.6L129.4,260.5z"/>
	</g>
</g>
<g>
	<path class="st2" d="M89.8,363.7c-1.4,0-2.5-0.5-3.4-1.4c-0.8-0.9-1.3-2.1-1.3-3.6c0-1.6,0.4-2.8,1.3-3.8s2-1.4,3.5-1.4
		c1.4,0,2.5,0.5,3.3,1.4s1.3,2.1,1.3,3.6c0,1.6-0.4,2.9-1.3,3.8S91.3,363.7,89.8,363.7z M89.9,355c-0.9,0-1.6,0.3-2.2,1
		s-0.8,1.6-0.8,2.6c0,1.1,0.3,2,0.8,2.6s1.3,1,2.1,1c0.9,0,1.7-0.3,2.2-1s0.8-1.5,0.8-2.7s-0.3-2.1-0.8-2.7
		C91.6,355.3,90.8,355,89.9,355z"/>
	<path class="st2" d="M106.9,363.5h-1.6v-6.3c0-0.5,0-1.2,0.1-1.9l0,0c-0.1,0.4-0.2,0.7-0.3,0.9l-2.9,7.3H101l-2.9-7.3
		c-0.1-0.2-0.2-0.5-0.3-1l0,0c0,0.4,0.1,1,0.1,1.9v6.3h-1.5v-9.8h2.3l2.6,6.5c0.2,0.5,0.3,0.9,0.4,1.1l0,0c0.2-0.5,0.3-0.9,0.4-1.1
		l2.6-6.5h2.2C106.9,353.6,106.9,363.5,106.9,363.5z"/>
	<path class="st2" d="M108.9,363.1v-1.7c0.2,0.1,0.3,0.3,0.5,0.4s0.4,0.2,0.7,0.3c0.2,0.1,0.5,0.1,0.7,0.2s0.4,0.1,0.6,0.1
		c0.7,0,1.2-0.1,1.5-0.3c0.3-0.2,0.5-0.6,0.5-1c0-0.2-0.1-0.4-0.2-0.6s-0.3-0.3-0.5-0.5s-0.4-0.3-0.7-0.4s-0.6-0.3-0.9-0.4
		c-0.3-0.2-0.6-0.4-0.9-0.5s-0.5-0.4-0.7-0.6s-0.4-0.5-0.5-0.7c-0.1-0.3-0.2-0.6-0.2-1c0-0.5,0.1-0.9,0.3-1.2
		c0.2-0.3,0.5-0.6,0.8-0.8c0.3-0.2,0.7-0.4,1.2-0.5c0.4-0.1,0.9-0.2,1.3-0.2c1,0,1.8,0.1,2.2,0.3v1.6c-0.6-0.4-1.3-0.6-2.1-0.6
		c-0.2,0-0.5,0-0.7,0.1c-0.2,0-0.5,0.1-0.6,0.2c-0.2,0.1-0.3,0.2-0.5,0.4s-0.2,0.4-0.2,0.6s0,0.4,0.1,0.6s0.2,0.3,0.4,0.4
		c0.2,0.1,0.4,0.3,0.6,0.4c0.3,0.1,0.5,0.3,0.9,0.4c0.3,0.2,0.7,0.4,1,0.6s0.6,0.4,0.8,0.6s0.4,0.5,0.5,0.8s0.2,0.6,0.2,1
		c0,0.5-0.1,0.9-0.3,1.3s-0.5,0.6-0.8,0.8c-0.3,0.2-0.7,0.4-1.2,0.5s-0.9,0.1-1.4,0.1c-0.2,0-0.4,0-0.6,0s-0.5-0.1-0.7-0.1
		c-0.3,0-0.5-0.1-0.7-0.2S109,363.2,108.9,363.1z"/>
	<path class="st2" d="M126.1,355.1h-3.7v2.9h3.4v1.4h-3.4v4.1h-1.6v-9.8h5.3C126.1,353.7,126.1,355.1,126.1,355.1z"/>
	<path class="st2" d="M131.9,363.7c-1.4,0-2.5-0.5-3.4-1.4c-0.8-0.9-1.3-2.1-1.3-3.6c0-1.6,0.4-2.8,1.3-3.8c0.9-1,2-1.4,3.5-1.4
		c1.4,0,2.5,0.5,3.3,1.4s1.3,2.1,1.3,3.6c0,1.6-0.4,2.9-1.3,3.8S133.3,363.7,131.9,363.7z M131.9,355c-0.9,0-1.6,0.3-2.2,1
		c-0.6,0.7-0.8,1.6-0.8,2.6c0,1.1,0.3,2,0.8,2.6s1.3,1,2.1,1c0.9,0,1.7-0.3,2.2-1s0.8-1.5,0.8-2.7s-0.3-2.1-0.8-2.7
		C133.6,355.3,132.9,355,131.9,355z"/>
	<path class="st2" d="M146,363.5h-1.9l-1.6-2.6c-0.1-0.2-0.3-0.4-0.4-0.6c-0.1-0.2-0.3-0.3-0.4-0.4s-0.3-0.2-0.5-0.2
		s-0.3-0.1-0.6-0.1H140v4h-1.6v-9.8h3.2c0.5,0,0.9,0.1,1.3,0.2c0.4,0.1,0.7,0.3,1,0.5s0.5,0.5,0.7,0.8s0.2,0.7,0.2,1.2
		c0,0.3-0.1,0.7-0.2,1c-0.1,0.3-0.3,0.5-0.4,0.8c-0.2,0.2-0.4,0.4-0.7,0.6s-0.6,0.3-0.9,0.4l0,0c0.2,0.1,0.3,0.2,0.5,0.3
		c0.1,0.1,0.3,0.2,0.4,0.4c0.1,0.1,0.2,0.3,0.4,0.4c0.1,0.2,0.2,0.3,0.4,0.6L146,363.5z M140,355.1v3.2h1.4c0.3,0,0.5,0,0.7-0.1
		s0.4-0.2,0.6-0.3c0.2-0.1,0.3-0.3,0.4-0.5c0.1-0.2,0.1-0.4,0.1-0.7c0-0.5-0.1-0.8-0.4-1.1c-0.3-0.3-0.7-0.4-1.3-0.4H140V355.1z"/>
	<path class="st2" d="M156.4,363.5H151v-9.8h1.6v8.4h3.8L156.4,363.5L156.4,363.5z"/>
	<path class="st2" d="M159.5,363.5h-1.7v-9.8h1.7V363.5z"/>
	<path class="st2" d="M170.2,363.5h-1.8l-4.7-7.2c-0.1-0.2-0.2-0.4-0.3-0.6l0,0c0,0.2,0.1,0.7,0.1,1.3v6.4h-1.6v-9.8h1.9l4.5,7
		c0.2,0.3,0.3,0.5,0.4,0.6l0,0c0-0.3-0.1-0.7-0.1-1.3v-6.3h1.6L170.2,363.5L170.2,363.5z"/>
	<path class="st2" d="M180.2,359.6c0,2.8-1.3,4.1-3.9,4.1c-2.5,0-3.7-1.3-3.7-4v-6h1.6v5.7c0,1.9,0.7,2.9,2.2,2.9
		c1.4,0,2.2-0.9,2.2-2.8v-5.8h1.6C180.2,353.7,180.2,359.6,180.2,359.6z"/>
	<path class="st2" d="M189.8,363.5h-1.9l-2-3.6c-0.1-0.1-0.1-0.3-0.2-0.5l0,0c0,0.1-0.1,0.3-0.2,0.5l-2.1,3.6h-2l3.2-4.9l-3-4.9h2
		l1.8,3.3c0.1,0.2,0.2,0.4,0.3,0.7l0,0c0.1-0.3,0.2-0.5,0.3-0.7l1.8-3.3h1.8l-3,4.9L189.8,363.5z"/>
</g>
<g>
	<line class="st0" x1="36.6" y1="267.4" x2="52.9" y2="267.4"/>
	<circle class="st0" cx="58.4" cy="267.4" r="5"/>
</g>
</svg>
