<svg id="Layer_1" xmlns="http://www.w3.org/2000/svg" width="194" height="256" viewBox="0 0 194 256"><circle cx="130.5" cy="211.9" r="11"/><path d="M81.2 236.9h-1.8l-.9-2.5h-3.8l-.8 2.5h-1.8l3.7-9.8h1.8l3.6 9.8zm-3.1-3.8l-1.4-3.9c0-.1-.1-.3-.1-.6 0 .3-.1.5-.1.6l-1.3 3.9h2.9zM84.2 233.3v3.5h-1.6V227h3c1.1 0 2 .3 2.6.8s.9 1.3.9 2.2-.3 1.7-1 2.3c-.6.6-1.5.9-2.6.9h-1.3v.1zm0-4.9v3.6h1c.7 0 1.2-.2 1.6-.5s.5-.8.5-1.4c0-1.1-.7-1.7-2-1.7h-1.1zM92.3 233.3v3.5h-1.6V227h3c1.1 0 2 .3 2.6.8s.9 1.3.9 2.2-.3 1.7-1 2.3c-.6.6-1.5.9-2.6.9h-1.3v.1zm0-4.9v3.6h1c.7 0 1.2-.2 1.6-.5s.5-.8.5-1.4c0-1.1-.7-1.7-2-1.7h-1.1zM104.2 236.9h-5.4v-9.8h1.6v8.4h3.8v1.4zM107.3 236.9h-1.7v-9.8h1.7v9.8zM116.5 236.5c-.7.4-1.6.6-2.7.6-1.4 0-2.5-.4-3.4-1.3-.9-.9-1.3-2.1-1.3-3.5 0-1.6.5-2.8 1.4-3.8s2.2-1.4 3.6-1.4c.9 0 1.7.1 2.3.4v1.6c-.7-.4-1.4-.6-2.2-.6-1.1 0-1.9.3-2.6 1s-1 1.6-1 2.7.3 1.9.9 2.6c.6.6 1.4 1 2.4 1 .9 0 1.7-.2 2.4-.7v1.4h.2zM126.4 236.9h-1.8l-.9-2.5h-3.8l-.8 2.5h-1.8l3.7-9.8h1.8l3.6 9.8zm-3.1-3.8l-1.4-3.9c0-.1-.1-.3-.1-.6 0 .3-.1.5-.1.6l-1.3 3.9h2.9zM133 228.5h-2.8v8.4h-1.6v-8.4h-2.8v-1.4h7.2v1.4zM136.1 236.9h-1.7v-9.8h1.7v9.8zM142.5 237c-1.4 0-2.5-.5-3.4-1.4-.8-.9-1.3-2.1-1.3-3.6 0-1.6.4-2.8 1.3-3.8.9-.9 2-1.4 3.5-1.4 1.4 0 2.5.5 3.3 1.4.8.9 1.3 2.1 1.3 3.6 0 1.6-.4 2.8-1.3 3.8-.8 1-2 1.4-3.4 1.4zm.1-8.6c-.9 0-1.6.3-2.2 1-.6.7-.8 1.5-.8 2.6s.3 2 .8 2.6c.5.7 1.3 1 2.1 1 .9 0 1.7-.3 2.2-.9.5-.6.8-1.5.8-2.6 0-1.2-.3-2.1-.8-2.7s-1.2-1-2.1-1zM157.3 236.9h-1.8l-4.7-7.2-.3-.6c0 .2.1.7.1 1.3v6.4H149V227h1.9l4.5 7c.2.3.3.5.4.6 0-.3-.1-.7-.1-1.3V227h1.6v9.9zM169.8 228.5H167v8.4h-1.6v-8.4h-2.8v-1.4h7.2v1.4zM172.9 236.9h-1.7v-9.8h1.7v9.8zM180.7 236.9h-5.5v-9.8h5.3v1.4h-3.6v2.8h3.4v1.4h-3.4v2.9h3.9v1.3h-.1zM190 236.9h-1.9l-1.6-2.6c-.1-.2-.3-.4-.4-.6s-.3-.3-.4-.4c-.1-.1-.3-.2-.5-.2s-.3-.1-.6-.1h-.7v4h-1.6v-9.8h3.2c.5 0 .9.1 1.3.2s.7.3 1 .5.5.5.7.8.2.7.2 1.2c0 .3-.1.7-.2.9-.1.3-.2.5-.4.8s-.4.4-.7.6c-.3.2-.6.3-.9.4.2.1.3.2.5.3.1.1.3.2.4.4s.2.3.3.4c.1.2.2.3.4.6l1.9 2.6zm-5.9-8.5v3.2h1.3c.2 0 .5 0 .7-.1s.4-.2.5-.3c.2-.1.3-.3.4-.5.1-.2.1-.4.1-.7 0-.5-.1-.8-.4-1.1-.3-.3-.7-.4-1.3-.4h-1.3v-.1z"/><g><path fill="#FFF" d="M133.3 213.4c0 .4-.1.8-.2 1.2s-.3.6-.6.9-.5.4-.9.6-.7.2-1.1.2c-.4 0-.8-.1-1.2-.2s-.7-.4-.9-.7-.5-.7-.6-1.2c-.1-.5-.2-1-.2-1.7 0-.8.1-1.5.3-2.1.2-.6.4-1.1.8-1.5s.7-.7 1.1-.9.9-.3 1.4-.3c.3 0 .6 0 .9.1s.5.1.6.2v1.2l-.6-.3c-.2-.1-.5-.1-.8-.1-.3 0-.6.1-.9.2s-.5.3-.7.6-.4.6-.5.9-.2.8-.2 1.3c.2-.3.4-.5.7-.7s.7-.2 1.1-.2c.4 0 .7.1 1 .2s.5.3.8.5.4.5.5.8.2.6.2 1zm-1.4.1c0-.2 0-.5-.1-.7s-.1-.4-.3-.5-.3-.3-.4-.3-.4-.1-.6-.1-.4 0-.6.1-.3.2-.4.3-.2.3-.3.5-.1.4-.1.5c0 .2 0 .4.1.6s.1.4.3.6l.4.4c.1.1.4.2.6.2.2 0 .4 0 .6-.1s.3-.2.4-.3.2-.3.3-.5.1-.5.1-.7z"/></g><text transform="translate(306 396)" font-family="'MyriadPro-Regular'" font-size="12">1ebbee</text></svg>