<?xml version="1.0" encoding="utf-8"?>
<!-- Generator: Adobe Illustrator 19.2.0, SVG Export Plug-In . SVG Version: 6.00 Build 0)  -->
<svg version="1.1" id="Layer_1" xmlns="http://www.w3.org/2000/svg" xmlns:xlink="http://www.w3.org/1999/xlink" x="0px" y="0px"
	 width="157px" height="329px" viewBox="0 0 157 329" enable-background="new 0 0 157 329" xml:space="preserve">
<rect x="30.6" y="225" fill-opacity="0" width="94.8" height="104.2"/>
<g id="Layer_2">
</g>
<g>
	<path fill="#00BCF2" d="M60.9,318.5l-2.7,9.8h-1.8l-1.9-6.8c-0.1-0.3-0.1-0.6-0.1-1l0,0c0,0.3-0.1,0.6-0.2,0.9l-1.9,6.8h-1.8
		l-2.7-9.8h1.8l1.8,7.1c0.1,0.3,0.1,0.6,0.1,0.9l0,0c0-0.2,0.1-0.5,0.2-0.9l2-7.1h1.7l1.8,7.2c0.1,0.2,0.1,0.5,0.1,0.9l0,0
		c0-0.2,0.1-0.5,0.2-0.9l1.7-7.2h1.7C60.9,318.4,60.9,318.5,60.9,318.5z"/>
	<path fill="#00BCF2" d="M67.8,328.3h-5.5v-9.8h5.3v1.4H64v2.8h3.4v1.4H64v2.9h3.9L67.8,328.3L67.8,328.3z"/>
	<path fill="#00BCF2" d="M69.5,328.3v-9.8h3.1c0.9,0,1.7,0.2,2.2,0.6c0.6,0.4,0.8,0.9,0.8,1.6c0,0.6-0.2,1-0.5,1.4s-0.7,0.7-1.3,0.9
		l0,0c0.7,0.1,1.2,0.3,1.6,0.7c0.4,0.4,0.6,1,0.6,1.6c0,0.8-0.3,1.5-1,2s-1.5,0.8-2.5,0.8h-3C69.5,328.1,69.5,328.3,69.5,328.3z
		 M71.1,319.8v2.8h1c0.6,0,1-0.1,1.3-0.4s0.5-0.6,0.5-1.1c0-0.8-0.6-1.3-1.7-1.3H71.1z M71.1,323.9v3.1h1.4c0.6,0,1.1-0.1,1.4-0.4
		s0.5-0.7,0.5-1.2c0-1-0.7-1.5-2.1-1.5H71.1z"/>
	<path fill="#00BCF2" d="M88,319.9h-2.8v8.4h-1.6v-8.4h-2.8v-1.4H88V319.9L88,319.9z"/>
	<path fill="#00BCF2" d="M91.1,328.3h-1.7v-9.8h1.7V328.3z"/>
	<path fill="#00BCF2" d="M99,328.3h-5.5v-9.8h5.3v1.4h-3.6v2.8h3.4v1.4h-3.4v2.9h3.9L99,328.3L99,328.3z"/>
	<path fill="#00BCF2" d="M108.2,328.3h-1.9l-1.6-2.6c-0.1-0.2-0.3-0.4-0.4-0.6s-0.3-0.3-0.4-0.4s-0.3-0.2-0.5-0.2s-0.3-0.1-0.6-0.1
		h-0.7v4h-1.6v-9.8h3.2c0.5,0,0.9,0.1,1.3,0.2s0.7,0.3,1,0.5s0.5,0.5,0.7,0.8s0.2,0.7,0.2,1.2c0,0.3-0.1,0.7-0.2,0.9
		c-0.1,0.3-0.2,0.5-0.4,0.8c-0.2,0.2-0.4,0.4-0.7,0.6s-0.6,0.3-0.9,0.4l0,0c0.2,0.1,0.3,0.2,0.5,0.3c0.1,0.1,0.3,0.2,0.4,0.4
		c0.1,0.1,0.2,0.3,0.3,0.4c0.1,0.2,0.2,0.3,0.4,0.6L108.2,328.3z M102.3,319.8v3.2h1.3c0.2,0,0.5,0,0.7-0.1s0.4-0.2,0.5-0.3
		c0.2-0.1,0.3-0.3,0.4-0.5s0.1-0.4,0.1-0.7c0-0.5-0.1-0.8-0.4-1.1c-0.3-0.3-0.7-0.4-1.3-0.4L102.3,319.8L102.3,319.8z"/>
</g>
<g>
	<circle fill="#00BCF2" cx="78" cy="301.2" r="9.9"/>
</g>
<g>
	<path fill="#FFFFFF" d="M79.8,297.3v5H81v1h-1.2v1.7h-1.2v-1.6h-3.5v-1.1c0.3-0.4,0.6-0.7,1-1.2c0.3-0.4,0.7-0.8,1-1.3
		c0.3-0.4,0.6-0.9,0.9-1.3s0.5-0.9,0.7-1.3L79.8,297.3L79.8,297.3z M78.6,302.3v-3.2c-0.4,0.7-0.8,1.3-1.2,1.9
		c-0.4,0.5-0.7,1-1.1,1.4L78.6,302.3L78.6,302.3z"/>
</g>
<line fill="none" stroke="#DEDEDE" stroke-width="4" stroke-linecap="round" stroke-linejoin="round" stroke-miterlimit="10" x1="77.4" y1="2.9" x2="78.4" y2="261.8"/>
<circle fill="none" stroke="#DEDEDE" stroke-width="4" stroke-linecap="round" stroke-linejoin="round" stroke-miterlimit="10" cx="78.4" cy="267.3" r="5"/>
</svg>
