<?xml version="1.0" encoding="utf-8"?>
<!-- Generator: Adobe Illustrator 19.2.0, SVG Export Plug-In . SVG Version: 6.00 Build 0)  -->
<svg version="1.1" id="Layer_1" xmlns="http://www.w3.org/2000/svg" xmlns:xlink="http://www.w3.org/1999/xlink" x="0px" y="0px"
	 width="960px" height="402.6px" viewBox="0 0 960 402.6" style="enable-background:new 0 0 960 402.6;" xml:space="preserve">
<style type="text/css">
	.st0{fill:none;stroke:#686969;stroke-width:3;stroke-linecap:round;stroke-linejoin:round;stroke-miterlimit:10;}
	.st1{fill:#FFFFFF;stroke:#686969;stroke-width:3;stroke-linecap:round;stroke-linejoin:round;}
	.st2{fill:#686969;}
	.st3{fill:none;}
	.st4{enable-background:new    ;}
	.st5{fill:#FFFFFF;stroke:#686969;stroke-width:2;stroke-linecap:round;stroke-linejoin:round;}
	.st6{fill:none;stroke:#686969;stroke-width:2;stroke-linecap:round;stroke-linejoin:round;}
</style>
<polyline class="st0" points="660.8,370.1 660.8,384.3 286.3,384.3 286.3,370.1 "/>
<line class="st0" x1="473.6" y1="384.3" x2="473.6" y2="401.1"/>
<g>
	<path class="st1" d="M447.2,44.1c-3.2,20.1-22.1,33.7-42.1,30.5c-20.1-3.2-33.7-22.1-30.5-42.1c0.8-5.1,2.7-9.8,5.3-14
		c4.6-7.1,11.5-12.5,19.5-15.1c5.4-1.8,11.3-2.3,17.3-1.4C436.8,5.2,450.4,24.1,447.2,44.1z"/>
	<path class="st1" d="M440.7,43.1c-2.6,16.4-18.1,27.6-34.5,25s-27.6-18.1-25-34.5c0.7-4.2,2.2-8.1,4.3-11.4
		c3.7-5.9,9.4-10.2,16-12.4c4.4-1.5,9.3-1.9,14.2-1.1C432.1,11.2,443.3,26.6,440.7,43.1z"/>
</g>
<g>
	<path class="st2" d="M399.5,53.1c0-7.6,5.2-13.8,11.6-13.8s11.6,6.2,11.6,13.8H399.5z"/>
	<circle class="st2" cx="411.1" cy="30.6" r="7.1"/>
</g>
<g>
	<path class="st1" d="M562.5,44.1c-3.2,20.1-22.1,33.7-42.1,30.5c-20.1-3.2-33.7-22.1-30.5-42.1c0.8-5.1,2.7-9.8,5.3-14
		c4.6-7.1,11.5-12.5,19.5-15.1C520,1.6,526,1,532,2C552,5.2,565.7,24.1,562.5,44.1z"/>
	<path class="st1" d="M555.9,43.1c-2.6,16.4-18.1,27.6-34.5,25c-16.4-2.6-27.6-18.1-25-34.5c0.7-4.2,2.2-8.1,4.3-11.4
		c3.7-5.9,9.4-10.2,16-12.4c4.4-1.5,9.3-1.9,14.2-1.1C547.3,11.2,558.5,26.6,555.9,43.1z"/>
</g>
<g>
	<path class="st2" d="M514.8,53.1c0-7.6,5.2-13.8,11.6-13.8S538,45.5,538,53.1H514.8z"/>
	<circle class="st2" cx="526.4" cy="30.6" r="7.1"/>
</g>
<g>
	<path class="st1" d="M504.9,67.3c-3.2,20.1-22.1,33.7-42.1,30.5c-20.1-3.2-33.7-22.1-30.5-42.1c0.8-5.1,2.7-9.8,5.3-14
		c4.6-7.1,11.5-12.5,19.5-15.1c5.4-1.8,11.3-2.3,17.3-1.4C494.4,28.4,508.1,47.3,504.9,67.3z"/>
	<path class="st1" d="M498.3,66.3c-2.6,16.4-18.1,27.6-34.5,25s-27.6-18.1-25-34.5c0.7-4.2,2.2-8.1,4.3-11.4
		c3.7-5.9,9.4-10.2,16-12.4c4.4-1.5,9.3-1.9,14.2-1.1C489.8,34.4,500.9,49.8,498.3,66.3z"/>
</g>
<g>
	<path class="st2" d="M457.2,76.3c0-7.6,5.2-13.8,11.6-13.8s11.6,6.2,11.6,13.8H457.2z"/>
	<circle class="st2" cx="468.8" cy="53.8" r="7.1"/>
</g>
<rect x="328.1" y="86.2" class="st3" width="93.9" height="16.3"/>
<g class="st4">
	<path class="st2" d="M348,92.6c0,2.7-1.3,4.1-3.9,4.1c-2.5,0-3.7-1.3-3.7-4v-6h1.6v5.6c0,1.9,0.7,2.9,2.2,2.9
		c1.4,0,2.1-0.9,2.1-2.8v-5.7h1.6V92.6z"/>
	<path class="st2" d="M358,96.5h-1.8l-0.9-2.5h-3.8l-0.8,2.5h-1.8l3.7-9.8h1.8L358,96.5z M354.9,92.7l-1.4-3.9
		c0-0.1-0.1-0.3-0.1-0.6h0c0,0.3-0.1,0.5-0.1,0.6l-1.3,3.9H354.9z"/>
	<path class="st2" d="M364.6,88.2h-2.8v8.4h-1.6v-8.4h-2.8v-1.4h7.2V88.2z"/>
	<path class="st2" d="M377.4,92.6c0,2.7-1.3,4.1-3.9,4.1c-2.5,0-3.7-1.3-3.7-4v-6h1.6v5.6c0,1.9,0.7,2.9,2.2,2.9
		c1.4,0,2.1-0.9,2.1-2.8v-5.7h1.6V92.6z"/>
	<path class="st2" d="M379.2,96.2v-1.7c0.1,0.1,0.3,0.3,0.5,0.4c0.2,0.1,0.4,0.2,0.7,0.3c0.2,0.1,0.5,0.1,0.7,0.2
		c0.2,0,0.4,0.1,0.6,0.1c0.7,0,1.2-0.1,1.5-0.3c0.3-0.2,0.5-0.6,0.5-1c0-0.2-0.1-0.4-0.2-0.6c-0.1-0.2-0.3-0.3-0.5-0.5
		c-0.2-0.1-0.4-0.3-0.7-0.4c-0.3-0.1-0.6-0.3-0.9-0.4c-0.3-0.2-0.6-0.4-0.9-0.5s-0.5-0.4-0.7-0.6s-0.4-0.5-0.5-0.7s-0.2-0.6-0.2-1
		c0-0.5,0.1-0.9,0.3-1.2c0.2-0.3,0.5-0.6,0.8-0.8s0.7-0.4,1.2-0.5s0.9-0.2,1.3-0.2c1,0,1.8,0.1,2.2,0.3v1.6
		c-0.6-0.4-1.3-0.6-2.1-0.6c-0.2,0-0.5,0-0.7,0.1c-0.2,0-0.5,0.1-0.6,0.2s-0.3,0.2-0.5,0.4s-0.2,0.4-0.2,0.6c0,0.2,0,0.4,0.1,0.6
		c0.1,0.2,0.2,0.3,0.4,0.4c0.2,0.1,0.4,0.3,0.6,0.4c0.3,0.1,0.5,0.3,0.9,0.4c0.3,0.2,0.7,0.4,1,0.6c0.3,0.2,0.6,0.4,0.8,0.6
		c0.2,0.2,0.4,0.5,0.5,0.8s0.2,0.6,0.2,1c0,0.5-0.1,0.9-0.3,1.3c-0.2,0.3-0.5,0.6-0.8,0.8c-0.3,0.2-0.7,0.4-1.2,0.5
		c-0.4,0.1-0.9,0.1-1.4,0.1c-0.2,0-0.4,0-0.6,0c-0.2,0-0.5-0.1-0.7-0.1c-0.2,0-0.5-0.1-0.7-0.2C379.5,96.3,379.4,96.2,379.2,96.2z"
		/>
	<path class="st2" d="M392.7,96.5h-5.5v-9.8h5.3v1.4h-3.6v2.8h3.4v1.4h-3.4v2.9h3.9V96.5z"/>
	<path class="st2" d="M402,96.5h-1.9l-1.6-2.6c-0.1-0.2-0.3-0.4-0.4-0.6s-0.3-0.3-0.4-0.4c-0.1-0.1-0.3-0.2-0.5-0.2
		c-0.2,0-0.3-0.1-0.6-0.1h-0.7v4h-1.6v-9.8h3.2c0.5,0,0.9,0.1,1.3,0.2c0.4,0.1,0.7,0.3,1,0.5s0.5,0.5,0.7,0.8
		c0.2,0.3,0.2,0.7,0.2,1.2c0,0.3-0.1,0.7-0.2,0.9s-0.2,0.5-0.4,0.8c-0.2,0.2-0.4,0.4-0.7,0.6c-0.3,0.2-0.6,0.3-0.9,0.4v0
		c0.2,0.1,0.3,0.2,0.5,0.3c0.1,0.1,0.3,0.2,0.4,0.4c0.1,0.1,0.2,0.3,0.4,0.4c0.1,0.2,0.2,0.3,0.4,0.6L402,96.5z M396.1,88.1v3.2h1.3
		c0.2,0,0.5,0,0.7-0.1c0.2-0.1,0.4-0.2,0.5-0.3c0.2-0.1,0.3-0.3,0.4-0.5c0.1-0.2,0.1-0.4,0.1-0.7c0-0.5-0.1-0.8-0.4-1.1
		s-0.7-0.4-1.3-0.4H396.1z"/>
	<path class="st2" d="M402.7,96.2v-1.7c0.1,0.1,0.3,0.3,0.5,0.4c0.2,0.1,0.4,0.2,0.7,0.3c0.2,0.1,0.5,0.1,0.7,0.2
		c0.2,0,0.4,0.1,0.6,0.1c0.7,0,1.2-0.1,1.5-0.3c0.3-0.2,0.5-0.6,0.5-1c0-0.2-0.1-0.4-0.2-0.6c-0.1-0.2-0.3-0.3-0.5-0.5
		c-0.2-0.1-0.4-0.3-0.7-0.4c-0.3-0.1-0.6-0.3-0.9-0.4c-0.3-0.2-0.6-0.4-0.9-0.5s-0.5-0.4-0.7-0.6s-0.4-0.5-0.5-0.7s-0.2-0.6-0.2-1
		c0-0.5,0.1-0.9,0.3-1.2c0.2-0.3,0.5-0.6,0.8-0.8s0.7-0.4,1.2-0.5s0.9-0.2,1.3-0.2c1,0,1.8,0.1,2.2,0.3v1.6
		c-0.6-0.4-1.3-0.6-2.1-0.6c-0.2,0-0.5,0-0.7,0.1c-0.2,0-0.5,0.1-0.6,0.2s-0.3,0.2-0.5,0.4s-0.2,0.4-0.2,0.6c0,0.2,0,0.4,0.1,0.6
		c0.1,0.2,0.2,0.3,0.4,0.4c0.2,0.1,0.4,0.3,0.6,0.4c0.3,0.1,0.5,0.3,0.9,0.4c0.3,0.2,0.7,0.4,1,0.6c0.3,0.2,0.6,0.4,0.8,0.6
		c0.2,0.2,0.4,0.5,0.5,0.8s0.2,0.6,0.2,1c0,0.5-0.1,0.9-0.3,1.3c-0.2,0.3-0.5,0.6-0.8,0.8c-0.3,0.2-0.7,0.4-1.2,0.5
		c-0.4,0.1-0.9,0.1-1.4,0.1c-0.2,0-0.4,0-0.6,0c-0.2,0-0.5-0.1-0.7-0.1c-0.2,0-0.5-0.1-0.7-0.2C403,96.3,402.8,96.2,402.7,96.2z"/>
</g>
<rect x="421.8" y="110.1" class="st3" width="93.9" height="16.3"/>
<g class="st4">
	<path class="st2" d="M428.9,120.4v-9.8h2.8c3.6,0,5.4,1.6,5.4,4.8c0,1.5-0.5,2.7-1.5,3.6c-1,0.9-2.3,1.4-4,1.4H428.9z M430.5,112v7
		h1.3c1.1,0,2-0.3,2.7-0.9c0.6-0.6,0.9-1.5,0.9-2.7c0-2.3-1.2-3.4-3.5-3.4H430.5z"/>
	<path class="st2" d="M444.3,120.4h-5.5v-9.8h5.3v1.4h-3.6v2.8h3.4v1.4h-3.4v2.9h3.9V120.4z"/>
	<path class="st2" d="M453.7,110.6l-3.5,9.8h-1.8l-3.4-9.8h1.8l2.4,7.4c0.1,0.2,0.1,0.5,0.2,0.8h0c0-0.3,0.1-0.5,0.2-0.8l2.5-7.4
		H453.7z"/>
	<path class="st2" d="M460.5,120.4H455v-9.8h5.3v1.4h-3.6v2.8h3.4v1.4h-3.4v2.9h3.9V120.4z"/>
	<path class="st2" d="M467.6,120.4h-5.4v-9.8h1.6v8.4h3.8V120.4z"/>
	<path class="st2" d="M472.6,120.5c-1.4,0-2.5-0.5-3.4-1.4c-0.8-0.9-1.3-2.1-1.3-3.6c0-1.6,0.4-2.8,1.3-3.8c0.9-0.9,2-1.4,3.5-1.4
		c1.4,0,2.5,0.5,3.3,1.4c0.8,0.9,1.3,2.1,1.3,3.6c0,1.6-0.4,2.8-1.3,3.8C475.2,120.1,474,120.5,472.6,120.5z M472.7,111.9
		c-0.9,0-1.6,0.3-2.2,1c-0.6,0.7-0.8,1.5-0.8,2.6c0,1.1,0.3,2,0.8,2.6s1.3,1,2.1,1c0.9,0,1.7-0.3,2.2-0.9c0.5-0.6,0.8-1.5,0.8-2.6
		c0-1.2-0.3-2.1-0.8-2.7C474.3,112.2,473.6,111.9,472.7,111.9z"/>
	<path class="st2" d="M480.7,116.8v3.5h-1.6v-9.8h3c1.1,0,2,0.3,2.6,0.8c0.6,0.5,0.9,1.3,0.9,2.2s-0.3,1.7-1,2.3
		c-0.6,0.6-1.5,0.9-2.6,0.9H480.7z M480.7,111.9v3.6h1c0.7,0,1.2-0.2,1.6-0.5c0.4-0.3,0.5-0.8,0.5-1.4c0-1.1-0.7-1.7-2-1.7H480.7z"
		/>
	<path class="st2" d="M492.7,120.4h-5.5v-9.8h5.3v1.4h-3.6v2.8h3.4v1.4h-3.4v2.9h3.9V120.4z"/>
	<path class="st2" d="M502,120.4h-1.9l-1.6-2.6c-0.1-0.2-0.3-0.4-0.4-0.6s-0.3-0.3-0.4-0.4c-0.1-0.1-0.3-0.2-0.5-0.2
		c-0.2,0-0.3-0.1-0.6-0.1h-0.7v4h-1.6v-9.8h3.2c0.5,0,0.9,0.1,1.3,0.2c0.4,0.1,0.7,0.3,1,0.5c0.3,0.2,0.5,0.5,0.7,0.8
		c0.2,0.3,0.2,0.7,0.2,1.2c0,0.3-0.1,0.7-0.2,0.9c-0.1,0.3-0.2,0.5-0.4,0.8s-0.4,0.4-0.7,0.6c-0.3,0.2-0.6,0.3-0.9,0.4v0
		c0.2,0.1,0.3,0.2,0.5,0.3c0.1,0.1,0.3,0.2,0.4,0.4c0.1,0.1,0.2,0.3,0.4,0.4s0.2,0.3,0.4,0.6L502,120.4z M496.1,111.9v3.2h1.3
		c0.2,0,0.5,0,0.7-0.1c0.2-0.1,0.4-0.2,0.5-0.3c0.2-0.1,0.3-0.3,0.4-0.5c0.1-0.2,0.1-0.4,0.1-0.7c0-0.5-0.1-0.8-0.4-1.1
		s-0.7-0.4-1.3-0.4H496.1z"/>
	<path class="st2" d="M502.7,120v-1.7c0.1,0.1,0.3,0.3,0.5,0.4c0.2,0.1,0.4,0.2,0.7,0.3c0.2,0.1,0.5,0.1,0.7,0.2
		c0.2,0,0.4,0.1,0.6,0.1c0.7,0,1.2-0.1,1.5-0.3s0.5-0.6,0.5-1c0-0.2-0.1-0.4-0.2-0.6s-0.3-0.3-0.5-0.5s-0.4-0.3-0.7-0.4
		c-0.3-0.1-0.6-0.3-0.9-0.4c-0.3-0.2-0.6-0.4-0.9-0.5c-0.3-0.2-0.5-0.4-0.7-0.6s-0.4-0.5-0.5-0.7s-0.2-0.6-0.2-1
		c0-0.5,0.1-0.9,0.3-1.2c0.2-0.3,0.5-0.6,0.8-0.8s0.7-0.4,1.2-0.5s0.9-0.2,1.3-0.2c1,0,1.8,0.1,2.2,0.3v1.6
		c-0.6-0.4-1.3-0.6-2.1-0.6c-0.2,0-0.5,0-0.7,0.1c-0.2,0-0.5,0.1-0.6,0.2c-0.2,0.1-0.3,0.2-0.5,0.4c-0.1,0.2-0.2,0.4-0.2,0.6
		c0,0.2,0,0.4,0.1,0.6c0.1,0.2,0.2,0.3,0.4,0.4c0.2,0.1,0.4,0.3,0.6,0.4s0.5,0.3,0.9,0.4c0.3,0.2,0.7,0.4,1,0.6
		c0.3,0.2,0.6,0.4,0.8,0.6c0.2,0.2,0.4,0.5,0.5,0.8s0.2,0.6,0.2,1c0,0.5-0.1,0.9-0.3,1.3s-0.5,0.6-0.8,0.8c-0.3,0.2-0.7,0.4-1.2,0.5
		c-0.4,0.1-0.9,0.1-1.4,0.1c-0.2,0-0.4,0-0.6,0c-0.2,0-0.5-0.1-0.7-0.1c-0.2,0-0.5-0.1-0.7-0.2C503,120.1,502.8,120.1,502.7,120z"/>
</g>
<rect x="518.6" y="86.3" class="st3" width="112.8" height="35.7"/>
<g class="st4">
	<path class="st2" d="M527.9,96.6h-1.7v-9.8h1.7V96.6z"/>
	<path class="st2" d="M536.6,88.2h-2.8v8.4h-1.6v-8.4h-2.8v-1.4h7.2V88.2z"/>
	<path class="st2" d="M545.9,96.8c-1.4,0-2.5-0.5-3.4-1.4c-0.8-0.9-1.3-2.1-1.3-3.6c0-1.6,0.4-2.8,1.3-3.8c0.9-0.9,2-1.4,3.5-1.4
		c1.4,0,2.5,0.5,3.3,1.4c0.8,0.9,1.3,2.1,1.3,3.6c0,1.6-0.4,2.8-1.3,3.8C548.4,96.3,547.3,96.8,545.9,96.8z M545.9,88.1
		c-0.9,0-1.6,0.3-2.2,1c-0.6,0.7-0.8,1.5-0.8,2.6c0,1.1,0.3,2,0.8,2.6s1.3,1,2.1,1c0.9,0,1.7-0.3,2.2-0.9c0.5-0.6,0.8-1.5,0.8-2.6
		c0-1.2-0.3-2.1-0.8-2.7C547.6,88.4,546.8,88.1,545.9,88.1z"/>
	<path class="st2" d="M554,93.1v3.5h-1.6v-9.8h3c1.1,0,2,0.3,2.6,0.8c0.6,0.5,0.9,1.3,0.9,2.2s-0.3,1.7-1,2.3
		c-0.6,0.6-1.5,0.9-2.6,0.9H554z M554,88.2v3.6h1c0.7,0,1.2-0.2,1.6-0.5c0.4-0.3,0.5-0.8,0.5-1.4c0-1.1-0.7-1.7-2-1.7H554z"/>
	<path class="st2" d="M566,96.6h-5.5v-9.8h5.3v1.4h-3.6V91h3.4v1.4h-3.4v2.9h3.9V96.6z"/>
	<path class="st2" d="M575.2,96.6h-1.9l-1.6-2.6c-0.1-0.2-0.3-0.4-0.4-0.6s-0.3-0.3-0.4-0.4c-0.1-0.1-0.3-0.2-0.5-0.2
		s-0.3-0.1-0.6-0.1h-0.7v4h-1.6v-9.8h3.2c0.5,0,0.9,0.1,1.3,0.2c0.4,0.1,0.7,0.3,1,0.5c0.3,0.2,0.5,0.5,0.7,0.8
		c0.2,0.3,0.2,0.7,0.2,1.2c0,0.3-0.1,0.7-0.2,0.9c-0.1,0.3-0.2,0.5-0.4,0.8c-0.2,0.2-0.4,0.4-0.7,0.6c-0.3,0.2-0.6,0.3-0.9,0.4v0
		c0.2,0.1,0.3,0.2,0.5,0.3s0.3,0.2,0.4,0.4s0.2,0.3,0.4,0.4c0.1,0.2,0.2,0.3,0.4,0.6L575.2,96.6z M569.3,88.2v3.2h1.3
		c0.2,0,0.5,0,0.7-0.1s0.4-0.2,0.5-0.3c0.2-0.1,0.3-0.3,0.4-0.5c0.1-0.2,0.1-0.4,0.1-0.7c0-0.5-0.1-0.8-0.4-1.1s-0.7-0.4-1.3-0.4
		H569.3z"/>
	<path class="st2" d="M584.4,96.6h-1.8l-0.9-2.5h-3.8l-0.8,2.5h-1.8l3.7-9.8h1.8L584.4,96.6z M581.3,92.8l-1.4-3.9
		c0-0.1-0.1-0.3-0.1-0.6h0c0,0.3-0.1,0.5-0.1,0.6l-1.3,3.9H581.3z"/>
	<path class="st2" d="M591,88.2h-2.8v8.4h-1.6v-8.4h-2.8v-1.4h7.2V88.2z"/>
	<path class="st2" d="M594.1,96.6h-1.7v-9.8h1.7V96.6z"/>
	<path class="st2" d="M600.5,96.8c-1.4,0-2.5-0.5-3.4-1.4c-0.8-0.9-1.3-2.1-1.3-3.6c0-1.6,0.4-2.8,1.3-3.8c0.9-0.9,2-1.4,3.5-1.4
		c1.4,0,2.5,0.5,3.3,1.4c0.8,0.9,1.3,2.1,1.3,3.6c0,1.6-0.4,2.8-1.3,3.8C603.1,96.3,601.9,96.8,600.5,96.8z M600.6,88.1
		c-0.9,0-1.6,0.3-2.2,1c-0.6,0.7-0.8,1.5-0.8,2.6c0,1.1,0.3,2,0.8,2.6s1.3,1,2.1,1c0.9,0,1.7-0.3,2.2-0.9c0.5-0.6,0.8-1.5,0.8-2.6
		c0-1.2-0.3-2.1-0.8-2.7S601.5,88.1,600.6,88.1z"/>
	<path class="st2" d="M615.3,96.6h-1.8l-4.7-7.2c-0.1-0.2-0.2-0.4-0.3-0.6h0c0,0.2,0.1,0.7,0.1,1.3v6.4H607v-9.8h1.9l4.5,7
		c0.2,0.3,0.3,0.5,0.4,0.6h0c0-0.3-0.1-0.7-0.1-1.3v-6.3h1.6V96.6z"/>
	<path class="st2" d="M617.3,96.2v-1.7c0.1,0.1,0.3,0.3,0.5,0.4c0.2,0.1,0.4,0.2,0.7,0.3c0.2,0.1,0.5,0.1,0.7,0.2
		c0.2,0,0.4,0.1,0.6,0.1c0.7,0,1.2-0.1,1.5-0.3s0.5-0.6,0.5-1c0-0.2-0.1-0.4-0.2-0.6s-0.3-0.3-0.5-0.5s-0.4-0.3-0.7-0.4
		c-0.3-0.1-0.6-0.3-0.9-0.4c-0.3-0.2-0.6-0.4-0.9-0.5c-0.3-0.2-0.5-0.4-0.7-0.6s-0.4-0.5-0.5-0.7s-0.2-0.6-0.2-1
		c0-0.5,0.1-0.9,0.3-1.2c0.2-0.3,0.5-0.6,0.8-0.8s0.7-0.4,1.2-0.5s0.9-0.2,1.3-0.2c1,0,1.8,0.1,2.2,0.3v1.6
		c-0.6-0.4-1.3-0.6-2.1-0.6c-0.2,0-0.5,0-0.7,0.1c-0.2,0-0.5,0.1-0.6,0.2c-0.2,0.1-0.3,0.2-0.5,0.4c-0.1,0.2-0.2,0.4-0.2,0.6
		c0,0.2,0,0.4,0.1,0.6c0.1,0.2,0.2,0.3,0.4,0.4c0.2,0.1,0.4,0.3,0.6,0.4s0.5,0.3,0.9,0.4c0.3,0.2,0.7,0.4,1,0.6
		c0.3,0.2,0.6,0.4,0.8,0.6c0.2,0.2,0.4,0.5,0.5,0.8s0.2,0.6,0.2,1c0,0.5-0.1,0.9-0.3,1.3s-0.5,0.6-0.8,0.8c-0.3,0.2-0.7,0.4-1.2,0.5
		c-0.4,0.1-0.9,0.1-1.4,0.1c-0.2,0-0.4,0-0.6,0c-0.2,0-0.5-0.1-0.7-0.1c-0.2,0-0.5-0.1-0.7-0.2C617.6,96.4,617.4,96.3,617.3,96.2z"
		/>
</g>
<path class="st1" d="M335.4,294l-47.9,4.4c-2.5,0.2-4.8-1.7-5-4.2l-7.9-86.9c-0.2-2.5,1.7-4.8,4.2-5l47.9-4.4c2.5-0.2,4.8,1.7,5,4.2
	l7.9,86.9C339.9,291.5,338,293.8,335.4,294z"/>
<ellipse transform="matrix(0.9959 -9.085941e-002 9.085941e-002 0.9959 -24.5758 29.3807)" class="st5" cx="310.4" cy="284.6" rx="4.6" ry="4.6"/>
<g>
	<path class="st2" d="M319.2,238.4c-1.4-1.2-3.1-2.4-5.6-2.1c-1.7,0.2-3,1.9-5.5,2.2c-1.9,0.2-2.9-1.2-5-1c-4.3,0.5-8.3,4.4-7.8,9
		c0.3,2.4,1.5,6,3.8,9.1c1.7,2.2,3.6,3.6,5.5,3.4c1.4-0.1,3-1.6,5-1.8c1.7-0.2,3.5,0.9,5.1,0.7c3.8-0.4,6.8-5.2,6.5-8.2
		c0-0.1-0.1-0.3-0.1-0.4v-0.2c-2.6-1-4.1-2.6-4.4-5.1C316.6,241.7,317.4,239.8,319.2,238.4L319.2,238.4L319.2,238.4L319.2,238.4z"/>
	<path class="st2" d="M308.1,236.8c2.8-1.1,5.1-3.3,4.7-6.6c0-0.3-0.1-0.6-0.2-1l-0.1-0.1c-2.8,1-5.2,3.3-4.8,6.5
		c0,0.3,0.2,0.7,0.3,1.1L308.1,236.8L308.1,236.8L308.1,236.8z"/>
</g>
<path class="st1" d="M404,272.3l-46.3-13c-2.4-0.7-3.9-3.3-3.2-5.7l23.5-84.1c0.7-2.4,3.3-3.9,5.7-3.2l46.3,13
	c2.4,0.7,3.9,3.3,3.2,5.7l-23.5,84.1C409,271.6,406.5,273,404,272.3z"/>
<ellipse transform="matrix(0.2697 -0.9629 0.9629 0.2697 35.2026 555.7549)" class="st5" cx="384" cy="254.7" rx="4.6" ry="4.6"/>
<g>
	<path class="st2" d="M382.2,218.9c-0.3,1-1.4,1.6-2.5,1.3s-1.7-1.4-1.5-2.4l2.5-9.1c0.3-1,1.4-1.6,2.5-1.3s1.7,1.4,1.5,2.4
		L382.2,218.9L382.2,218.9L382.2,218.9z"/>
	<path class="st2" d="M409.7,226.5c-0.3,1-1.4,1.6-2.5,1.3s-1.7-1.4-1.5-2.4l2.5-9.1c0.3-1,1.4-1.6,2.5-1.3s1.7,1.4,1.5,2.4
		L409.7,226.5L409.7,226.5L409.7,226.5z"/>
	<path class="st2" d="M387.2,208.4l-3.7,13.5c-0.4,1.5,0.5,3.1,2.1,3.5l1.3,0.4l-1.3,4.6c-0.3,1,0.3,2,1.4,2.3
		c1,0.3,2.1-0.3,2.4-1.3l1.3-4.6l3.9,1.1l-1.3,4.6c-0.3,1,0.3,2,1.4,2.3c1,0.3,2.1-0.3,2.4-1.3l1.3-4.6l1.8,0.5
		c1.6,0.4,2.6-0.6,3-2.1l3.7-13.5L387.2,208.4L387.2,208.4L387.2,208.4z"/>
	<path class="st2" d="M408.2,212.2c0,0,0.1-0.1,0.1-0.3c1.3-4.8-2.4-9.9-8.3-11.6c-5.9-1.6-11.7,0.9-13,5.7c0,0.2-0.1,0.3,0,0.3
		L408.2,212.2L408.2,212.2L408.2,212.2z"/>
	<path class="st2" d="M395.5,202.5c0.1,0.3-0.1,0.5-0.4,0.6s-0.6-0.1-0.6-0.4l-1.7-5.6c-0.1-0.3,0.1-0.5,0.4-0.6s0.6,0.1,0.6,0.4
		L395.5,202.5L395.5,202.5L395.5,202.5z"/>
	<path class="st2" d="M402.9,204.5c-0.2,0.2-0.2,0.5,0,0.7s0.5,0.2,0.7,0l4.3-3.9c0.2-0.2,0.2-0.5,0-0.7s-0.5-0.2-0.7,0L402.9,204.5
		L402.9,204.5L402.9,204.5z"/>
	<path class="st2" d="M394.9,203.8c-0.1,0.5-0.7,0.8-1.2,0.6s-0.9-0.7-0.7-1.1c0.1-0.5,0.7-0.8,1.2-0.6
		C394.7,202.8,395.1,203.3,394.9,203.8L394.9,203.8z"/>
	<path class="st2" d="M404.7,206.5c0.1-0.5-0.2-1-0.7-1.1s-1.1,0.1-1.2,0.6s0.2,1,0.7,1.1C404.1,207.2,404.6,207,404.7,206.5
		L404.7,206.5z"/>
</g>
<path class="st1" d="M664.4,280.2H526.6c-2.6,0-4.8-2.2-4.8-4.8v-87.1c0-2.6,2.2-4.8,4.8-4.8h137.8c2.6,0,4.8,2.2,4.8,4.8v87.1
	C669.2,278.1,667,280.2,664.4,280.2z"/>
<path class="st1" d="M682.2,311.2H508.7c-2.8,0-4.3-3.2-2.5-5.3l14.6-17.6c0.6-0.8,1.5-1.2,2.5-1.2h144.3c1,0,1.9,0.4,2.5,1.2
	l14.6,17.6C686.5,308,685,311.2,682.2,311.2z"/>
<g>
	<circle class="st5" cx="596.3" cy="231.9" r="27.5"/>
	<line class="st6" x1="596.3" y1="204.4" x2="596.3" y2="258.9"/>
	<path class="st5" d="M583.3,208c-6.6,7.1-6.3,41.1,0,47.9"/>
	<path class="st5" d="M609.1,255.9c6.6-7.1,6.3-41.1,0-47.9"/>
	<path class="st6" d="M620.2,219.1c-7.1-6.6-41.1-6.3-47.9,0"/>
	<path class="st6" d="M572.3,244.9c7.1,6.6,41.1,6.3,47.9,0"/>
	<line class="st6" x1="623.5" y1="231.7" x2="568.9" y2="231.7"/>
</g>
<path class="st1" d="M376.7,324.5h-48.1c-2.5,0-4.6-2.1-4.6-4.6v-87.3c0-2.5,2.1-4.6,4.6-4.6h48.1c2.5,0,4.6,2.1,4.6,4.6v87.3
	C381.3,322.5,379.3,324.5,376.7,324.5z"/>
<circle class="st5" cx="352.7" cy="312.9" r="4.6"/>
<g>
	<polygon class="st2" points="351.1,272.9 366.5,272.9 366.5,259.3 351.1,261.5 351.1,272.9 	"/>
	<polygon class="st2" points="350.6,272.9 350.6,261.5 338.8,263.2 338.8,272.9 350.6,272.9 	"/>
	<polygon class="st2" points="351.1,273.4 351.1,284.9 366.5,287 366.5,273.4 351.1,273.4 	"/>
	<polygon class="st2" points="350.6,273.4 338.8,273.4 338.8,283.2 350.6,284.8 350.6,273.4 	"/>
</g>
</svg>
