<?xml version="1.0" encoding="utf-8"?>
<!-- Generator: Adobe Illustrator 19.2.0, SVG Export Plug-In . SVG Version: 6.00 Build 0)  -->
<svg version="1.1" id="Layer_1" xmlns="http://www.w3.org/2000/svg" xmlns:xlink="http://www.w3.org/1999/xlink" x="0px" y="0px"
	 width="160px" height="475px" viewBox="0 0 160 475" enable-background="new 0 0 160 475" xml:space="preserve">
<g>
	<g>
		<path fill="#FFFFFF" stroke="#24BBED" stroke-width="3" stroke-linecap="round" stroke-linejoin="round" d="M138.8,278.7
			c-5.3,32.8-36.1,55.1-68.9,49.9S14.8,292.5,20,259.7c1.3-8.4,4.4-16.1,8.7-22.8c7.5-11.7,18.8-20.4,31.9-24.8
			c8.9-2.9,18.5-3.8,28.4-2.3C121.7,215.1,144,245.9,138.8,278.7z"/>
		<path fill="#FFFFFF" stroke="#24BBED" stroke-width="3" stroke-linecap="round" stroke-linejoin="round" d="M128,277
			c-4.3,26.9-29.6,45.1-56.4,40.8s-45.1-29.6-40.8-56.4c1.1-6.9,3.6-13.2,7.1-18.7c6.1-9.6,15.4-16.7,26.1-20.3
			c7.3-2.4,15.2-3.1,23.2-1.8C114.1,224.9,132.3,250.1,128,277z"/>
	</g>
	<g>
		<path fill="#24BBED" d="M102.1,271.4"/>
		<polygon fill="#24BBED" points="50.7,285.9 50.7,282.8 50.7,282.8 50.7,285.9 		"/>
		<path fill="#24BBED" d="M93.8,251.9l2.2-0.8v-1.8l-2.2-0.7l-0.5-1.3l1-2.1l-1.3-1.3l-2.1,1.1l-1.3-0.5l-0.8-2.2H87l-0.7,2.2
			L85,245l-2.1-1l-1.3,1.3l0.7,1.3l0.4,0.8l-0.5,1.3l-1.5,0.5l-0.8,0.3v1.8l2.2,0.7l0.5,1.3l-1,2.1l1.3,1.3l2.1-1.1l1.3,0.5l0.8,2.2
			h1.8l0.7-2.2l1.2-0.5l1.9,0.9l0.2,0.1l1.3-1.3l-1.1-2.1l0.2-0.6L93.8,251.9z M89.8,252.1c-0.5,0.4-1.1,0.7-1.8,0.7
			c-1.4,0-2.6-1.2-2.6-2.6c0-0.2,0-0.4,0.1-0.6c0.3-1,1.1-1.7,2.1-1.9c0.1,0,0.3,0,0.4,0c1.1,0,2,0.7,2.4,1.7
			c0.1,0.3,0.2,0.6,0.2,0.9C90.6,251,90.2,251.7,89.8,252.1z"/>
		<path fill="#24BBED" d="M114,261.9v-2.4l-2.9-1l-0.7-1.7l1.4-2.8l-1.7-1.7l-2.8,1.4l-1.7-0.7l-1.1-3H102l-1,3l-1.7,0.7l-2.8-1.3
			l-1.7,1.7l1.4,2.8l-0.2,0.5l-0.5,1.1L94,259l-1.5,0.5v2.4l1.9,0.6l1.1,0.4l0.7,1.7l-1,2.1l-0.4,0.8l1.7,1.7l1.6-0.8l1.2-0.6
			l1.7,0.7l1.1,2.9h0.9h1.5l1-2.9l1.7-0.7l2.8,1.3l1.7-1.7l-1.4-2.7l0.7-1.7L114,261.9z M103.3,264.2c-1.9,0-3.4-1.5-3.4-3.4
			c0-1.9,1.5-3.4,3.4-3.4c1.9,0,3.4,1.5,3.4,3.4C106.7,262.6,105.2,264.2,103.3,264.2z"/>
		<polygon fill="#24BBED" points="63,270.7 63,282.1 78.4,282.1 78.4,268.5 		"/>
		<polygon fill="#24BBED" points="50.7,282.1 62.5,282.1 62.5,270.7 50.7,272.4 		"/>
		<polygon fill="#24BBED" points="63,285.1 63,287.6 63,294 78.4,296.2 78.4,287.6 78.4,285.1 78.4,282.6 63,282.6 		"/>
		<polygon fill="#24BBED" points="50.7,282.8 50.7,285.9 50.7,292.3 62.5,294 62.5,287.6 62.5,285.1 62.5,282.6 50.7,282.6 		"/>
		<path fill="#24BBED" d="M100.7,272.3c0.3,1,0.5,2,0.5,3.1c0,5.5-4.2,9.7-9.8,9.7H79.6v2.5h11.8c7,0,12.3-5.3,12.3-12.2
			c0-1.1-0.2-2.2-0.5-3.2L100.7,272.3z"/>
		<path fill="#24BBED" d="M81.5,247.2l-0.4-0.7c-5,0.3-9.4,3.1-11.9,7.5c-1.9-1.6-4.3-2.5-6.9-2.5c-5.9,0-10.6,4.9-10.6,11
			c0,0.6,0.1,1.3,0.2,1.9c-4.4,2-7,6.1-7,10.9c0,3.9,1.8,7.4,4.6,9.6v-3.5c-1.3-1.6-2.1-3.7-2.1-6.1c0-4.1,2.4-7.5,6.4-9
			c0.6-0.2,0.9-0.9,0.8-1.5c-0.2-0.8-0.3-1.6-0.3-2.4c0-4.7,3.6-8.4,8.1-8.4c2.5,0,4.8,1,6.2,2.9c0.3,0.4,0.7,0.5,1.2,0.5
			c0.4-0.1,0.8-0.4,1-0.8c1.5-3.7,4.6-6.4,8.3-7.3l0.2-0.8l2-0.7L81.5,247.2z"/>
	</g>
</g>
<g>
	<path fill="#24BBED" d="M9.3,363.4H7.5l-0.9-2.5H2.7l-0.8,2.5H0.1l3.7-9.8h1.8L9.3,363.4z M6.2,359.6l-1.4-3.9
		c0-0.1-0.1-0.3-0.1-0.6h0c0,0.3-0.1,0.5-0.1,0.6l-1.3,3.9H6.2z"/>
	<path fill="#24BBED" d="M17.6,354.3l-5.4,7.7h5.3v1.4H9.9v-0.7l5.4-7.7h-5v-1.4h7.2V354.3z"/>
	<path fill="#24BBED" d="M26.7,359.5c0,2.8-1.3,4.1-3.9,4.1c-2.5,0-3.7-1.3-3.7-4v-6h1.6v5.7c0,1.9,0.7,2.9,2.2,2.9
		c1.4,0,2.2-0.9,2.2-2.8v-5.8h1.6V359.5z"/>
	<path fill="#24BBED" d="M36.5,363.4h-1.9l-1.6-2.6c-0.1-0.2-0.3-0.4-0.4-0.6c-0.1-0.2-0.3-0.3-0.4-0.4c-0.1-0.1-0.3-0.2-0.5-0.2
		s-0.3-0.1-0.6-0.1h-0.7v4H29v-9.8h3.2c0.5,0,0.9,0.1,1.3,0.2s0.7,0.3,1,0.5c0.3,0.2,0.5,0.5,0.7,0.8c0.2,0.3,0.2,0.7,0.2,1.2
		c0,0.3-0.1,0.7-0.2,1c-0.1,0.3-0.2,0.5-0.4,0.8c-0.2,0.2-0.4,0.4-0.7,0.6c-0.3,0.2-0.6,0.3-0.9,0.4v0c0.2,0.1,0.3,0.2,0.5,0.3
		c0.1,0.1,0.3,0.2,0.4,0.4s0.2,0.3,0.4,0.4c0.1,0.2,0.2,0.3,0.4,0.6L36.5,363.4z M30.6,355v3.2h1.4c0.3,0,0.5,0,0.7-0.1
		c0.2-0.1,0.4-0.2,0.6-0.3s0.3-0.3,0.4-0.5s0.1-0.4,0.1-0.7c0-0.5-0.1-0.8-0.4-1.1S32.5,355,32,355H30.6z"/>
	<path fill="#24BBED" d="M43.2,363.4h-5.5v-9.8H43v1.4h-3.7v2.8h3.4v1.4h-3.4v2.9h3.9V363.4z"/>
	<path fill="#24BBED" d="M59.3,363.4h-1.6v-6.3c0-0.5,0-1.2,0.1-1.9h0c-0.1,0.4-0.2,0.7-0.3,0.9l-2.9,7.3h-1.1l-2.9-7.3
		c-0.1-0.2-0.2-0.5-0.3-1h0c0,0.4,0.1,1,0.1,1.9v6.3h-1.5v-9.8h2.3l2.6,6.5c0.2,0.5,0.3,0.9,0.4,1.1h0c0.2-0.5,0.3-0.9,0.4-1.1
		l2.6-6.5h2.2V363.4z"/>
	<path fill="#24BBED" d="M69.8,363.4H68l-0.9-2.5h-3.9l-0.8,2.5h-1.8l3.7-9.8h1.8L69.8,363.4z M66.7,359.6l-1.4-3.9
		c0-0.1-0.1-0.3-0.1-0.6h0c0,0.3-0.1,0.5-0.1,0.6l-1.3,3.9H66.7z"/>
	<path fill="#24BBED" d="M79.4,363.4h-1.8l-4.7-7.2c-0.1-0.2-0.2-0.4-0.3-0.6h0c0,0.2,0.1,0.7,0.1,1.3v6.4h-1.6v-9.8H73l4.5,7
		c0.2,0.3,0.3,0.5,0.4,0.6h0c0-0.3-0.1-0.7-0.1-1.3v-6.3h1.6V363.4z"/>
	<path fill="#24BBED" d="M89.9,363.4h-1.8l-0.9-2.5h-3.9l-0.8,2.5h-1.8l3.7-9.8h1.8L89.9,363.4z M86.8,359.6l-1.4-3.9
		c0-0.1-0.1-0.3-0.1-0.6h0c0,0.3-0.1,0.5-0.1,0.6l-1.3,3.9H86.8z"/>
	<path fill="#24BBED" d="M98.7,362.8c-1,0.6-2.2,0.8-3.4,0.8c-1.4,0-2.6-0.5-3.5-1.4s-1.3-2.1-1.3-3.6c0-1.5,0.5-2.8,1.5-3.7
		c1-1,2.2-1.5,3.7-1.5c1.1,0,2,0.2,2.7,0.5v1.7c-0.8-0.5-1.6-0.8-2.7-0.8c-1,0-1.9,0.3-2.6,1c-0.7,0.7-1,1.6-1,2.7
		c0,1.1,0.3,2,0.9,2.7c0.6,0.6,1.4,1,2.3,1c0.7,0,1.3-0.1,1.8-0.4v-2.3h-2.1v-1.4h3.7V362.8z"/>
	<path fill="#24BBED" d="M106.4,363.4h-5.5v-9.8h5.3v1.4h-3.7v2.8h3.4v1.4h-3.4v2.9h3.9V363.4z"/>
	<path fill="#24BBED" d="M118.6,363.4H117v-6.3c0-0.5,0-1.2,0.1-1.9h0c-0.1,0.4-0.2,0.7-0.3,0.9l-2.9,7.3h-1.1l-2.9-7.3
		c-0.1-0.2-0.2-0.5-0.3-1h0c0,0.4,0.1,1,0.1,1.9v6.3h-1.5v-9.8h2.3l2.6,6.5c0.2,0.5,0.3,0.9,0.4,1.1h0c0.2-0.5,0.3-0.9,0.4-1.1
		l2.6-6.5h2.2V363.4z"/>
	<path fill="#24BBED" d="M126.5,363.4H121v-9.8h5.3v1.4h-3.7v2.8h3.4v1.4h-3.4v2.9h3.9V363.4z"/>
	<path fill="#24BBED" d="M136.6,363.4h-1.8l-4.7-7.2c-0.1-0.2-0.2-0.4-0.3-0.6h0c0,0.2,0.1,0.7,0.1,1.3v6.4h-1.6v-9.8h1.9l4.5,7
		c0.2,0.3,0.3,0.5,0.4,0.6h0c0-0.3-0.1-0.7-0.1-1.3v-6.3h1.6V363.4z"/>
	<path fill="#24BBED" d="M145.3,355h-2.8v8.4h-1.6V355h-2.8v-1.4h7.3V355z"/>
	<path fill="#24BBED" d="M7.5,371.8H4.7v8.4H3.1v-8.4H0.2v-1.4h7.3V371.8z"/>
	<path fill="#24BBED" d="M12.4,380.4c-1.4,0-2.5-0.5-3.4-1.4c-0.8-0.9-1.3-2.1-1.3-3.6c0-1.6,0.4-2.8,1.3-3.8s2-1.4,3.5-1.4
		c1.4,0,2.5,0.5,3.3,1.4c0.8,0.9,1.3,2.1,1.3,3.6c0,1.6-0.4,2.9-1.3,3.8S13.8,380.4,12.4,380.4z M12.5,371.7c-0.9,0-1.6,0.3-2.2,1
		c-0.6,0.7-0.8,1.6-0.8,2.6c0,1.1,0.3,2,0.8,2.6s1.3,1,2.1,1c0.9,0,1.7-0.3,2.2-1s0.8-1.5,0.8-2.7c0-1.2-0.3-2.1-0.8-2.7
		C14.1,372,13.4,371.7,12.5,371.7z"/>
	<path fill="#24BBED" d="M23,380.4c-1.4,0-2.5-0.5-3.4-1.4c-0.8-0.9-1.3-2.1-1.3-3.6c0-1.6,0.4-2.8,1.3-3.8s2-1.4,3.5-1.4
		c1.4,0,2.5,0.5,3.3,1.4c0.8,0.9,1.3,2.1,1.3,3.6c0,1.6-0.4,2.9-1.3,3.8S24.4,380.4,23,380.4z M23,371.7c-0.9,0-1.6,0.3-2.2,1
		c-0.6,0.7-0.8,1.6-0.8,2.6c0,1.1,0.3,2,0.8,2.6s1.3,1,2.1,1c0.9,0,1.7-0.3,2.2-1s0.8-1.5,0.8-2.7c0-1.2-0.3-2.1-0.8-2.7
		C24.7,372,24,371.7,23,371.7z"/>
	<path fill="#24BBED" d="M34.9,380.2h-5.4v-9.8h1.6v8.4h3.8V380.2z"/>
	<path fill="#24BBED" d="M35.9,379.8v-1.7c0.2,0.1,0.3,0.3,0.5,0.4c0.2,0.1,0.4,0.2,0.7,0.3c0.2,0.1,0.5,0.1,0.7,0.2
		s0.4,0.1,0.6,0.1c0.7,0,1.2-0.1,1.5-0.3c0.3-0.2,0.5-0.6,0.5-1c0-0.2-0.1-0.4-0.2-0.6c-0.1-0.2-0.3-0.3-0.5-0.5s-0.4-0.3-0.7-0.4
		c-0.3-0.1-0.6-0.3-0.9-0.4c-0.3-0.2-0.6-0.4-0.9-0.5s-0.5-0.4-0.7-0.6c-0.2-0.2-0.4-0.5-0.5-0.7c-0.1-0.3-0.2-0.6-0.2-1
		c0-0.5,0.1-0.9,0.3-1.2c0.2-0.3,0.5-0.6,0.8-0.8c0.3-0.2,0.7-0.4,1.2-0.5c0.4-0.1,0.9-0.2,1.3-0.2c1,0,1.8,0.1,2.2,0.3v1.6
		c-0.6-0.4-1.3-0.6-2.1-0.6c-0.2,0-0.5,0-0.7,0.1c-0.2,0-0.5,0.1-0.6,0.2c-0.2,0.1-0.3,0.2-0.5,0.4s-0.2,0.4-0.2,0.6
		c0,0.2,0,0.4,0.1,0.6s0.2,0.3,0.4,0.4c0.2,0.1,0.4,0.3,0.6,0.4c0.3,0.1,0.5,0.3,0.9,0.4c0.3,0.2,0.7,0.4,1,0.6
		c0.3,0.2,0.6,0.4,0.8,0.6c0.2,0.2,0.4,0.5,0.5,0.8c0.1,0.3,0.2,0.6,0.2,1c0,0.5-0.1,0.9-0.3,1.3s-0.5,0.6-0.8,0.8
		c-0.3,0.2-0.7,0.4-1.2,0.5s-0.9,0.1-1.4,0.1c-0.2,0-0.4,0-0.6,0c-0.2,0-0.5-0.1-0.7-0.1c-0.3,0-0.5-0.1-0.7-0.2
		S36,379.9,35.9,379.8z"/>
	<path fill="#24BBED" d="M9.3,413.8H7.5l-0.9-2.5H2.7l-0.8,2.5H0.1l3.7-9.8h1.8L9.3,413.8z M6.2,410l-1.4-3.9c0-0.1-0.1-0.3-0.1-0.6
		h0c0,0.3-0.1,0.5-0.1,0.6L3.2,410H6.2z"/>
	<path fill="#24BBED" d="M15.6,407.5l-3.8,5.1h3.8v1.2h-6v-0.6l3.9-5.2H10v-1.2h5.6V407.5z"/>
	<path fill="#24BBED" d="M23,413.8h-1.6v-1.1h0c-0.5,0.8-1.2,1.3-2.1,1.3c-1.7,0-2.5-1-2.5-3v-4.2h1.6v4c0,1.3,0.5,1.9,1.5,1.9
		c0.5,0,0.9-0.2,1.2-0.5c0.3-0.3,0.5-0.8,0.5-1.4v-4H23V413.8z"/>
	<path fill="#24BBED" d="M29.2,408.3c-0.2-0.2-0.5-0.2-0.8-0.2c-0.5,0-0.9,0.2-1.2,0.6s-0.5,1-0.5,1.7v3.3h-1.6v-7h1.6v1.4h0
		c0.2-0.5,0.4-0.9,0.7-1.2c0.3-0.3,0.7-0.4,1.1-0.4c0.3,0,0.5,0,0.7,0.1V408.3z"/>
	<path fill="#24BBED" d="M36.1,410.8h-4.8c0,0.6,0.2,1.1,0.6,1.5c0.4,0.4,0.9,0.5,1.6,0.5c0.7,0,1.4-0.2,2.1-0.7v1.3
		c-0.6,0.4-1.5,0.6-2.5,0.6c-1,0-1.8-0.3-2.4-1c-0.6-0.6-0.9-1.5-0.9-2.7c0-1.1,0.3-2,1-2.7c0.6-0.7,1.4-1,2.4-1s1.7,0.3,2.2,0.9
		s0.8,1.5,0.8,2.6V410.8z M34.6,409.6c0-0.6-0.1-1-0.4-1.3c-0.3-0.3-0.6-0.5-1.1-0.5c-0.5,0-0.8,0.2-1.2,0.5
		c-0.3,0.3-0.5,0.8-0.6,1.3H34.6z"/>
	<path fill="#24BBED" d="M43.2,410.3v3.6h-1.6V404h3c1.1,0,2,0.3,2.6,0.8s0.9,1.3,0.9,2.2s-0.3,1.7-1,2.3s-1.5,0.9-2.6,0.9H43.2z
		 M43.2,405.4v3.6h1.1c0.7,0,1.2-0.2,1.6-0.5s0.5-0.8,0.5-1.4c0-1.2-0.7-1.7-2-1.7H43.2z"/>
	<path fill="#24BBED" d="M52.3,414c-1.1,0-1.9-0.3-2.6-1c-0.6-0.7-1-1.5-1-2.6c0-1.2,0.3-2.1,1-2.8c0.7-0.7,1.6-1,2.7-1
		c1.1,0,1.9,0.3,2.6,1s0.9,1.5,0.9,2.7c0,1.1-0.3,2-1,2.7C54.3,413.7,53.4,414,52.3,414z M52.3,407.9c-0.6,0-1.1,0.2-1.5,0.6
		s-0.5,1-0.5,1.8c0,0.7,0.2,1.3,0.5,1.7c0.4,0.4,0.9,0.6,1.5,0.6c0.6,0,1.1-0.2,1.4-0.6c0.3-0.4,0.5-1,0.5-1.8
		c0-0.8-0.2-1.4-0.5-1.8C53.4,408.1,53,407.9,52.3,407.9z"/>
	<path fill="#24BBED" d="M61.6,408.3c-0.2-0.2-0.5-0.2-0.8-0.2c-0.5,0-0.9,0.2-1.2,0.6s-0.5,1-0.5,1.7v3.3h-1.6v-7h1.6v1.4h0
		c0.2-0.5,0.4-0.9,0.7-1.2c0.3-0.3,0.7-0.4,1.1-0.4c0.3,0,0.5,0,0.7,0.1V408.3z"/>
	<path fill="#24BBED" d="M66.8,413.8c-0.3,0.2-0.7,0.2-1.2,0.2c-1.4,0-2-0.7-2-2v-4h-1.2v-1.2h1.2v-1.6l1.6-0.5v2.1h1.7v1.2h-1.7
		v3.5c0,0.4,0.1,0.7,0.2,0.9s0.4,0.3,0.8,0.3c0.3,0,0.5-0.1,0.7-0.2V413.8z"/>
	<path fill="#24BBED" d="M73.5,413.8H72v-1.1h0c-0.5,0.8-1.2,1.3-2.1,1.3c-0.7,0-1.2-0.2-1.6-0.6c-0.4-0.4-0.6-0.9-0.6-1.5
		c0-1.3,0.8-2.1,2.3-2.3l2.1-0.3c0-1-0.5-1.5-1.4-1.5c-0.8,0-1.6,0.3-2.3,0.9v-1.4c0.7-0.4,1.6-0.7,2.6-0.7c1.8,0,2.7,0.9,2.7,2.6
		V413.8z M72,410.4l-1.5,0.2c-0.5,0.1-0.8,0.2-1,0.3c-0.2,0.2-0.3,0.4-0.3,0.9c0,0.3,0.1,0.5,0.3,0.7c0.2,0.2,0.5,0.3,0.9,0.3
		c0.5,0,0.9-0.2,1.2-0.5c0.3-0.3,0.5-0.8,0.5-1.3V410.4z"/>
	<path fill="#24BBED" d="M77.1,413.8h-1.6v-10.4h1.6V413.8z"/>
	<path fill="#24BBED" d="M80.6,412.2l-1.1,3.4h-1.2l0.8-3.4H80.6z"/>
	<path fill="#24BBED" d="M94.6,413.8h-1.8l-0.9-2.5h-3.9l-0.8,2.5h-1.8l3.7-9.8h1.8L94.6,413.8z M91.5,410l-1.4-3.9
		c0-0.1-0.1-0.3-0.1-0.6h0c0,0.3-0.1,0.5-0.1,0.6l-1.3,3.9H91.5z"/>
	<path fill="#24BBED" d="M100.9,407.5l-3.8,5.1h3.8v1.2h-6v-0.6l3.9-5.2h-3.5v-1.2h5.6V407.5z"/>
	<path fill="#24BBED" d="M108.4,413.8h-1.6v-1.1h0c-0.5,0.8-1.2,1.3-2.1,1.3c-1.7,0-2.5-1-2.5-3v-4.2h1.6v4c0,1.3,0.5,1.9,1.5,1.9
		c0.5,0,0.9-0.2,1.2-0.5c0.3-0.3,0.5-0.8,0.5-1.4v-4h1.6V413.8z"/>
	<path fill="#24BBED" d="M114.5,408.3c-0.2-0.2-0.5-0.2-0.8-0.2c-0.5,0-0.9,0.2-1.2,0.6s-0.5,1-0.5,1.7v3.3h-1.6v-7h1.6v1.4h0
		c0.2-0.5,0.4-0.9,0.7-1.2c0.3-0.3,0.7-0.4,1.1-0.4c0.3,0,0.5,0,0.7,0.1V408.3z"/>
	<path fill="#24BBED" d="M121.4,410.8h-4.8c0,0.6,0.2,1.1,0.6,1.5c0.4,0.4,0.9,0.5,1.6,0.5c0.7,0,1.4-0.2,2.1-0.7v1.3
		c-0.6,0.4-1.5,0.6-2.5,0.6c-1,0-1.8-0.3-2.4-1c-0.6-0.6-0.9-1.5-0.9-2.7c0-1.1,0.3-2,1-2.7c0.6-0.7,1.4-1,2.4-1s1.7,0.3,2.2,0.9
		s0.8,1.5,0.8,2.6V410.8z M119.9,409.6c0-0.6-0.1-1-0.4-1.3c-0.3-0.3-0.6-0.5-1.1-0.5c-0.5,0-0.8,0.2-1.2,0.5
		c-0.3,0.3-0.5,0.8-0.6,1.3H119.9z"/>
	<path fill="#24BBED" d="M133.8,413.4c-0.7,0.4-1.7,0.6-2.8,0.6c-1.4,0-2.6-0.4-3.4-1.3s-1.3-2.1-1.3-3.5c0-1.6,0.5-2.8,1.4-3.8
		c1-1,2.2-1.4,3.7-1.4c0.9,0,1.7,0.1,2.4,0.4v1.6c-0.7-0.4-1.4-0.6-2.2-0.6c-1.1,0-1.9,0.3-2.6,1c-0.7,0.7-1,1.6-1,2.7
		c0,1.1,0.3,1.9,0.9,2.6c0.6,0.6,1.4,1,2.4,1c0.9,0,1.7-0.2,2.4-0.7V413.4z"/>
	<path fill="#24BBED" d="M141.1,413.8h-5.4V404h1.6v8.4h3.8V413.8z"/>
	<path fill="#24BBED" d="M144.1,413.8h-1.7V404h1.7V413.8z"/>
	<path fill="#24BBED" d="M147.9,412.2l-1.1,3.4h-1.2l0.8-3.4H147.9z"/>
	<path fill="#24BBED" d="M9.3,430.6H7.5l-0.9-2.5H2.7l-0.8,2.5H0.1l3.7-9.8h1.8L9.3,430.6z M6.2,426.8l-1.4-3.9
		c0-0.1-0.1-0.3-0.1-0.6h0c0,0.3-0.1,0.5-0.1,0.6l-1.3,3.9H6.2z"/>
	<path fill="#24BBED" d="M15.6,424.3l-3.8,5.1h3.8v1.2h-6V430l3.9-5.2H10v-1.2h5.6V424.3z"/>
	<path fill="#24BBED" d="M23,430.6h-1.6v-1.1h0c-0.5,0.8-1.2,1.3-2.1,1.3c-1.7,0-2.5-1-2.5-3v-4.2h1.6v4c0,1.3,0.5,1.9,1.5,1.9
		c0.5,0,0.9-0.2,1.2-0.5c0.3-0.3,0.5-0.8,0.5-1.4v-4H23V430.6z"/>
	<path fill="#24BBED" d="M29.2,425.1c-0.2-0.2-0.5-0.2-0.8-0.2c-0.5,0-0.9,0.2-1.2,0.6s-0.5,1-0.5,1.7v3.3h-1.6v-7h1.6v1.4h0
		c0.2-0.5,0.4-0.9,0.7-1.2c0.3-0.3,0.7-0.4,1.1-0.4c0.3,0,0.5,0,0.7,0.1V425.1z"/>
	<path fill="#24BBED" d="M36.1,427.6h-4.8c0,0.6,0.2,1.1,0.6,1.5c0.4,0.4,0.9,0.5,1.6,0.5c0.7,0,1.4-0.2,2.1-0.7v1.3
		c-0.6,0.4-1.5,0.6-2.5,0.6c-1,0-1.8-0.3-2.4-1c-0.6-0.6-0.9-1.5-0.9-2.7c0-1.1,0.3-2,1-2.7c0.6-0.7,1.4-1,2.4-1s1.7,0.3,2.2,0.9
		s0.8,1.5,0.8,2.6V427.6z M34.6,426.4c0-0.6-0.1-1-0.4-1.3c-0.3-0.3-0.6-0.5-1.1-0.5c-0.5,0-0.8,0.2-1.2,0.5
		c-0.3,0.3-0.5,0.8-0.6,1.3H34.6z"/>
	<path fill="#24BBED" d="M49.2,430.6h-1.9l-1.6-2.6c-0.1-0.2-0.3-0.4-0.4-0.6c-0.1-0.2-0.3-0.3-0.4-0.4c-0.1-0.1-0.3-0.2-0.5-0.2
		s-0.3-0.1-0.6-0.1h-0.7v4h-1.6v-9.8h3.2c0.5,0,0.9,0.1,1.3,0.2s0.7,0.3,1,0.5c0.3,0.2,0.5,0.5,0.7,0.8c0.2,0.3,0.2,0.7,0.2,1.2
		c0,0.3-0.1,0.7-0.2,1c-0.1,0.3-0.2,0.5-0.4,0.8c-0.2,0.2-0.4,0.4-0.7,0.6c-0.3,0.2-0.6,0.3-0.9,0.4v0c0.2,0.1,0.3,0.2,0.5,0.3
		c0.1,0.1,0.3,0.2,0.4,0.4s0.2,0.3,0.4,0.4c0.1,0.2,0.2,0.3,0.4,0.6L49.2,430.6z M43.2,422.2v3.2h1.4c0.3,0,0.5,0,0.7-0.1
		c0.2-0.1,0.4-0.2,0.6-0.3s0.3-0.3,0.4-0.5s0.1-0.4,0.1-0.7c0-0.5-0.1-0.8-0.4-1.1s-0.7-0.4-1.3-0.4H43.2z"/>
	<path fill="#24BBED" d="M55.7,427.6h-4.8c0,0.6,0.2,1.1,0.6,1.5c0.4,0.4,0.9,0.5,1.6,0.5c0.7,0,1.4-0.2,2.1-0.7v1.3
		c-0.6,0.4-1.5,0.6-2.5,0.6c-1,0-1.8-0.3-2.4-1c-0.6-0.6-0.9-1.5-0.9-2.7c0-1.1,0.3-2,1-2.7c0.6-0.7,1.4-1,2.4-1s1.7,0.3,2.2,0.9
		s0.8,1.5,0.8,2.6V427.6z M54.2,426.4c0-0.6-0.1-1-0.4-1.3c-0.3-0.3-0.6-0.5-1.1-0.5c-0.5,0-0.8,0.2-1.2,0.5
		c-0.3,0.3-0.5,0.8-0.6,1.3H54.2z"/>
	<path fill="#24BBED" d="M56.8,430.4v-1.5c0.6,0.5,1.2,0.7,2,0.7c1,0,1.4-0.3,1.4-0.8c0-0.2,0-0.3-0.1-0.4c-0.1-0.1-0.2-0.2-0.3-0.3
		c-0.1-0.1-0.3-0.2-0.5-0.2c-0.2-0.1-0.4-0.1-0.6-0.2c-0.3-0.1-0.5-0.2-0.8-0.4c-0.2-0.1-0.4-0.3-0.6-0.4c-0.2-0.2-0.3-0.3-0.3-0.6
		s-0.1-0.4-0.1-0.7c0-0.3,0.1-0.6,0.2-0.9c0.2-0.3,0.4-0.5,0.6-0.7c0.3-0.2,0.6-0.3,0.9-0.4c0.3-0.1,0.7-0.1,1.1-0.1
		c0.6,0,1.2,0.1,1.7,0.3v1.4c-0.5-0.3-1.1-0.5-1.7-0.5c-0.2,0-0.4,0-0.5,0.1c-0.2,0-0.3,0.1-0.4,0.2s-0.2,0.2-0.3,0.3
		c-0.1,0.1-0.1,0.2-0.1,0.3c0,0.2,0,0.3,0.1,0.4s0.2,0.2,0.3,0.3c0.1,0.1,0.3,0.2,0.5,0.2c0.2,0.1,0.4,0.1,0.6,0.2
		c0.3,0.1,0.6,0.2,0.8,0.4c0.2,0.1,0.4,0.3,0.6,0.4c0.2,0.2,0.3,0.3,0.4,0.6c0.1,0.2,0.1,0.5,0.1,0.8c0,0.4-0.1,0.7-0.2,0.9
		s-0.4,0.5-0.7,0.7s-0.6,0.3-0.9,0.4c-0.4,0.1-0.7,0.1-1.1,0.1C58,430.8,57.4,430.7,56.8,430.4z"/>
	<path fill="#24BBED" d="M66.4,430.8c-1.1,0-1.9-0.3-2.6-1c-0.6-0.7-1-1.5-1-2.6c0-1.2,0.3-2.1,1-2.8c0.7-0.7,1.6-1,2.7-1
		c1.1,0,1.9,0.3,2.6,1s0.9,1.5,0.9,2.7c0,1.1-0.3,2-1,2.7C68.4,430.5,67.5,430.8,66.4,430.8z M66.4,424.7c-0.6,0-1.1,0.2-1.5,0.6
		s-0.5,1-0.5,1.8c0,0.7,0.2,1.3,0.5,1.7c0.4,0.4,0.9,0.6,1.5,0.6c0.6,0,1.1-0.2,1.4-0.6c0.3-0.4,0.5-1,0.5-1.8
		c0-0.8-0.2-1.4-0.5-1.8C67.5,424.9,67.1,424.7,66.4,424.7z"/>
	<path fill="#24BBED" d="M77.7,430.6h-1.6v-1.1h0c-0.5,0.8-1.2,1.3-2.1,1.3c-1.7,0-2.5-1-2.5-3v-4.2h1.6v4c0,1.3,0.5,1.9,1.5,1.9
		c0.5,0,0.9-0.2,1.2-0.5c0.3-0.3,0.5-0.8,0.5-1.4v-4h1.6V430.6z"/>
	<path fill="#24BBED" d="M83.9,425.1c-0.2-0.2-0.5-0.2-0.8-0.2c-0.5,0-0.9,0.2-1.2,0.6s-0.5,1-0.5,1.7v3.3h-1.6v-7h1.6v1.4h0
		c0.2-0.5,0.4-0.9,0.7-1.2c0.3-0.3,0.7-0.4,1.1-0.4c0.3,0,0.5,0,0.7,0.1V425.1z"/>
	<path fill="#24BBED" d="M89.9,430.3c-0.6,0.3-1.2,0.5-2,0.5c-1,0-1.9-0.3-2.5-1c-0.6-0.6-1-1.5-1-2.5c0-1.2,0.3-2.1,1-2.8
		c0.7-0.7,1.6-1,2.8-1c0.6,0,1.2,0.1,1.7,0.3v1.5c-0.5-0.4-1-0.5-1.6-0.5c-0.7,0-1.2,0.2-1.6,0.7c-0.4,0.5-0.6,1-0.6,1.8
		c0,0.7,0.2,1.3,0.6,1.7c0.4,0.4,0.9,0.6,1.6,0.6c0.6,0,1.1-0.2,1.6-0.6V430.3z"/>
	<path fill="#24BBED" d="M97.4,427.6h-4.8c0,0.6,0.2,1.1,0.6,1.5c0.4,0.4,0.9,0.5,1.6,0.5c0.7,0,1.4-0.2,2.1-0.7v1.3
		c-0.6,0.4-1.5,0.6-2.5,0.6c-1,0-1.8-0.3-2.4-1c-0.6-0.6-0.9-1.5-0.9-2.7c0-1.1,0.3-2,1-2.7c0.6-0.7,1.4-1,2.4-1s1.7,0.3,2.2,0.9
		s0.8,1.5,0.8,2.6V427.6z M95.8,426.4c0-0.6-0.1-1-0.4-1.3c-0.3-0.3-0.6-0.5-1.1-0.5c-0.5,0-0.8,0.2-1.2,0.5
		c-0.3,0.3-0.5,0.8-0.6,1.3H95.8z"/>
	<path fill="#24BBED" d="M113.4,430.6h-1.6v-6.3c0-0.5,0-1.2,0.1-1.9h0c-0.1,0.4-0.2,0.7-0.3,0.9l-2.9,7.3h-1.1l-2.9-7.3
		c-0.1-0.2-0.2-0.5-0.3-1h0c0,0.4,0.1,1,0.1,1.9v6.3h-1.5v-9.8h2.3l2.6,6.5c0.2,0.5,0.3,0.9,0.4,1.1h0c0.2-0.5,0.3-0.9,0.4-1.1
		l2.6-6.5h2.2V430.6z"/>
	<path fill="#24BBED" d="M121,430.6h-1.5v-1.1h0c-0.5,0.8-1.2,1.3-2.1,1.3c-0.7,0-1.2-0.2-1.6-0.6c-0.4-0.4-0.6-0.9-0.6-1.5
		c0-1.3,0.8-2.1,2.3-2.3l2.1-0.3c0-1-0.5-1.5-1.4-1.5c-0.8,0-1.6,0.3-2.3,0.9v-1.4c0.7-0.4,1.6-0.7,2.6-0.7c1.8,0,2.7,0.9,2.7,2.6
		V430.6z M119.5,427.2l-1.5,0.2c-0.5,0.1-0.8,0.2-1,0.3c-0.2,0.2-0.3,0.4-0.3,0.9c0,0.3,0.1,0.5,0.3,0.7c0.2,0.2,0.5,0.3,0.9,0.3
		c0.5,0,0.9-0.2,1.2-0.5c0.3-0.3,0.5-0.8,0.5-1.3V427.2z"/>
	<path fill="#24BBED" d="M129.2,430.6h-1.6v-3.9c0-1.3-0.5-2-1.4-2c-0.5,0-0.9,0.2-1.2,0.5c-0.3,0.4-0.5,0.8-0.5,1.4v4H123v-7h1.6
		v1.2h0c0.5-0.9,1.3-1.3,2.3-1.3c0.8,0,1.3,0.2,1.7,0.7c0.4,0.5,0.6,1.2,0.6,2.1V430.6z"/>
	<path fill="#24BBED" d="M136.5,430.6H135v-1.1h0c-0.5,0.8-1.2,1.3-2.1,1.3c-0.7,0-1.2-0.2-1.6-0.6c-0.4-0.4-0.6-0.9-0.6-1.5
		c0-1.3,0.8-2.1,2.3-2.3l2.1-0.3c0-1-0.5-1.5-1.4-1.5c-0.8,0-1.6,0.3-2.3,0.9v-1.4c0.7-0.4,1.6-0.7,2.6-0.7c1.8,0,2.7,0.9,2.7,2.6
		V430.6z M135,427.2l-1.5,0.2c-0.5,0.1-0.8,0.2-1,0.3c-0.2,0.2-0.3,0.4-0.3,0.9c0,0.3,0.1,0.5,0.3,0.7c0.2,0.2,0.5,0.3,0.9,0.3
		c0.5,0,0.9-0.2,1.2-0.5c0.3-0.3,0.5-0.8,0.5-1.3V427.2z"/>
	<path fill="#24BBED" d="M144.8,430.1c0,2.6-1.3,3.9-3.9,3.9c-0.9,0-1.7-0.2-2.4-0.5V432c0.8,0.4,1.5,0.7,2.2,0.7
		c1.7,0,2.5-0.8,2.5-2.5v-0.8h0c-0.5,0.9-1.3,1.3-2.4,1.3c-0.9,0-1.5-0.3-2.1-0.9c-0.5-0.6-0.8-1.5-0.8-2.5c0-1.2,0.3-2.1,0.8-2.8
		s1.3-1.1,2.3-1.1c0.9,0,1.6,0.4,2.1,1.1h0v-1h1.6V430.1z M143.2,427.4v-0.9c0-0.5-0.2-0.9-0.5-1.3c-0.3-0.3-0.7-0.5-1.2-0.5
		c-0.6,0-1.1,0.2-1.4,0.7c-0.3,0.4-0.5,1.1-0.5,1.9c0,0.7,0.2,1.2,0.5,1.7c0.3,0.4,0.8,0.6,1.3,0.6c0.5,0,1-0.2,1.3-0.6
		C143.1,428.6,143.2,428,143.2,427.4z"/>
	<path fill="#24BBED" d="M152.8,427.6H148c0,0.6,0.2,1.1,0.6,1.5c0.4,0.4,0.9,0.5,1.6,0.5c0.7,0,1.4-0.2,2.1-0.7v1.3
		c-0.6,0.4-1.5,0.6-2.5,0.6c-1,0-1.8-0.3-2.4-1c-0.6-0.6-0.9-1.5-0.9-2.7c0-1.1,0.3-2,1-2.7c0.6-0.7,1.4-1,2.4-1s1.7,0.3,2.2,0.9
		s0.8,1.5,0.8,2.6V427.6z M151.3,426.4c0-0.6-0.1-1-0.4-1.3c-0.3-0.3-0.6-0.5-1.1-0.5c-0.5,0-0.8,0.2-1.2,0.5
		c-0.3,0.3-0.5,0.8-0.6,1.3H151.3z"/>
	<path fill="#24BBED" d="M158.4,425.1c-0.2-0.2-0.5-0.2-0.8-0.2c-0.5,0-0.9,0.2-1.2,0.6s-0.5,1-0.5,1.7v3.3h-1.6v-7h1.6v1.4h0
		c0.2-0.5,0.4-0.9,0.7-1.2c0.3-0.3,0.7-0.4,1.1-0.4c0.3,0,0.5,0,0.7,0.1V425.1z"/>
	<path fill="#24BBED" d="M159.9,429l-1.1,3.4h-1.2l0.8-3.4H159.9z"/>
	<path fill="#24BBED" d="M8.8,447.4H6.9l-1.6-2.6c-0.1-0.2-0.3-0.4-0.4-0.6c-0.1-0.2-0.3-0.3-0.4-0.4c-0.1-0.1-0.3-0.2-0.5-0.2
		c-0.2-0.1-0.3-0.1-0.6-0.1H2.8v4H1.2v-9.8h3.2c0.5,0,0.9,0.1,1.3,0.2s0.7,0.3,1,0.5c0.3,0.2,0.5,0.5,0.7,0.8
		c0.2,0.3,0.2,0.7,0.2,1.2c0,0.3-0.1,0.7-0.2,1c-0.1,0.3-0.2,0.5-0.4,0.8c-0.2,0.2-0.4,0.4-0.7,0.6c-0.3,0.2-0.6,0.3-0.9,0.4v0
		c0.2,0.1,0.3,0.2,0.5,0.3s0.3,0.2,0.4,0.4c0.1,0.1,0.2,0.3,0.4,0.4c0.1,0.2,0.2,0.3,0.4,0.6L8.8,447.4z M2.8,439v3.2h1.4
		c0.3,0,0.5,0,0.7-0.1c0.2-0.1,0.4-0.2,0.6-0.3s0.3-0.3,0.4-0.5s0.1-0.4,0.1-0.7c0-0.5-0.1-0.8-0.4-1.1S4.8,439,4.2,439H2.8z"/>
	<path fill="#24BBED" d="M15.4,447.4H9.9v-9.8h5.3v1.4h-3.7v2.8h3.4v1.4h-3.4v2.9h3.9V447.4z"/>
	<path fill="#24BBED" d="M16.7,447v-1.7c0.2,0.1,0.3,0.3,0.5,0.4c0.2,0.1,0.4,0.2,0.7,0.3c0.2,0.1,0.5,0.1,0.7,0.2s0.4,0.1,0.6,0.1
		c0.7,0,1.2-0.1,1.5-0.3c0.3-0.2,0.5-0.6,0.5-1c0-0.2-0.1-0.4-0.2-0.6c-0.1-0.2-0.3-0.3-0.5-0.5c-0.2-0.1-0.4-0.3-0.7-0.4
		c-0.3-0.1-0.6-0.3-0.9-0.4c-0.3-0.2-0.6-0.4-0.9-0.5c-0.3-0.2-0.5-0.4-0.7-0.6c-0.2-0.2-0.4-0.5-0.5-0.7c-0.1-0.3-0.2-0.6-0.2-1
		c0-0.5,0.1-0.9,0.3-1.2c0.2-0.3,0.5-0.6,0.8-0.8c0.3-0.2,0.7-0.4,1.2-0.5c0.4-0.1,0.9-0.2,1.3-0.2c1,0,1.8,0.1,2.2,0.3v1.6
		c-0.6-0.4-1.3-0.6-2.1-0.6c-0.2,0-0.5,0-0.7,0.1c-0.2,0-0.5,0.1-0.6,0.2c-0.2,0.1-0.3,0.2-0.5,0.4s-0.2,0.4-0.2,0.6
		c0,0.2,0,0.4,0.1,0.6s0.2,0.3,0.4,0.4c0.2,0.1,0.4,0.3,0.6,0.4c0.3,0.1,0.5,0.3,0.9,0.4c0.3,0.2,0.7,0.4,1,0.6
		c0.3,0.2,0.6,0.4,0.8,0.7c0.2,0.2,0.4,0.5,0.5,0.8c0.1,0.3,0.2,0.6,0.2,1c0,0.5-0.1,0.9-0.3,1.3s-0.5,0.6-0.8,0.8
		c-0.3,0.2-0.7,0.4-1.2,0.5s-0.9,0.1-1.4,0.1c-0.2,0-0.4,0-0.6,0c-0.2,0-0.5-0.1-0.7-0.1c-0.3,0-0.5-0.1-0.7-0.2
		S16.9,447.1,16.7,447z"/>
	<path fill="#24BBED" d="M31.1,439h-2.8v8.4h-1.6V439h-2.8v-1.4h7.3V439z"/>
	<path fill="#24BBED" d="M44.4,447.4h-1.8l-0.9-2.5h-3.9l-0.8,2.5h-1.8l3.7-9.8h1.8L44.4,447.4z M41.3,443.6l-1.4-3.9
		c0-0.1-0.1-0.3-0.1-0.6h0c0,0.3-0.1,0.5-0.1,0.6l-1.3,3.9H41.3z"/>
	<path fill="#24BBED" d="M47.4,443.9v3.6h-1.6v-9.8h3c1.1,0,2,0.3,2.6,0.8s0.9,1.3,0.9,2.2s-0.3,1.7-1,2.3c-0.6,0.6-1.5,0.9-2.6,0.9
		H47.4z M47.4,439v3.6h1.1c0.7,0,1.2-0.2,1.6-0.5c0.4-0.3,0.5-0.8,0.5-1.4c0-1.2-0.7-1.7-2-1.7H47.4z"/>
	<path fill="#24BBED" d="M55.6,447.4h-1.7v-9.8h1.7V447.4z"/>
	<path fill="#24BBED" d="M57.4,447.2v-1.5c0.6,0.5,1.2,0.7,2,0.7c1,0,1.4-0.3,1.4-0.8c0-0.2,0-0.3-0.1-0.4s-0.2-0.2-0.3-0.3
		c-0.1-0.1-0.3-0.2-0.5-0.2c-0.2-0.1-0.4-0.1-0.6-0.2c-0.3-0.1-0.5-0.2-0.8-0.4c-0.2-0.1-0.4-0.3-0.6-0.4c-0.2-0.2-0.3-0.3-0.3-0.6
		s-0.1-0.4-0.1-0.7c0-0.3,0.1-0.6,0.2-0.9c0.2-0.3,0.4-0.5,0.6-0.7c0.3-0.2,0.6-0.3,0.9-0.4c0.3-0.1,0.7-0.1,1.1-0.1
		c0.6,0,1.2,0.1,1.7,0.3v1.4c-0.5-0.3-1.1-0.5-1.7-0.5c-0.2,0-0.4,0-0.5,0.1c-0.2,0-0.3,0.1-0.4,0.2s-0.2,0.2-0.3,0.3
		c-0.1,0.1-0.1,0.2-0.1,0.3c0,0.2,0,0.3,0.1,0.4c0.1,0.1,0.2,0.2,0.3,0.3c0.1,0.1,0.3,0.2,0.5,0.2c0.2,0.1,0.4,0.1,0.6,0.2
		c0.3,0.1,0.6,0.2,0.8,0.4c0.2,0.1,0.4,0.3,0.6,0.4s0.3,0.3,0.4,0.6c0.1,0.2,0.1,0.5,0.1,0.8c0,0.4-0.1,0.7-0.2,0.9
		c-0.2,0.3-0.4,0.5-0.7,0.7c-0.3,0.2-0.6,0.3-0.9,0.4c-0.4,0.1-0.7,0.1-1.1,0.1C58.6,447.6,58,447.5,57.4,447.2z"/>
	<path fill="#24BBED" d="M65.4,445.8l-1.1,3.4h-1.2l0.8-3.4H65.4z"/>
	<path fill="#24BBED" d="M70.8,447v-1.7c0.2,0.1,0.3,0.3,0.5,0.4c0.2,0.1,0.4,0.2,0.7,0.3c0.2,0.1,0.5,0.1,0.7,0.2s0.4,0.1,0.6,0.1
		c0.7,0,1.2-0.1,1.5-0.3c0.3-0.2,0.5-0.6,0.5-1c0-0.2-0.1-0.4-0.2-0.6c-0.1-0.2-0.3-0.3-0.5-0.5c-0.2-0.1-0.4-0.3-0.7-0.4
		c-0.3-0.1-0.6-0.3-0.9-0.4c-0.3-0.2-0.6-0.4-0.9-0.5c-0.3-0.2-0.5-0.4-0.7-0.6c-0.2-0.2-0.4-0.5-0.5-0.7c-0.1-0.3-0.2-0.6-0.2-1
		c0-0.5,0.1-0.9,0.3-1.2c0.2-0.3,0.5-0.6,0.8-0.8c0.3-0.2,0.7-0.4,1.2-0.5c0.4-0.1,0.9-0.2,1.3-0.2c1,0,1.8,0.1,2.2,0.3v1.6
		c-0.6-0.4-1.3-0.6-2.1-0.6c-0.2,0-0.5,0-0.7,0.1c-0.2,0-0.5,0.1-0.6,0.2c-0.2,0.1-0.3,0.2-0.5,0.4s-0.2,0.4-0.2,0.6
		c0,0.2,0,0.4,0.1,0.6s0.2,0.3,0.4,0.4c0.2,0.1,0.4,0.3,0.6,0.4c0.3,0.1,0.5,0.3,0.9,0.4c0.3,0.2,0.7,0.4,1,0.6
		c0.3,0.2,0.6,0.4,0.8,0.7c0.2,0.2,0.4,0.5,0.5,0.8c0.1,0.3,0.2,0.6,0.2,1c0,0.5-0.1,0.9-0.3,1.3s-0.5,0.6-0.8,0.8
		c-0.3,0.2-0.7,0.4-1.2,0.5s-0.9,0.1-1.4,0.1c-0.2,0-0.4,0-0.6,0c-0.2,0-0.5-0.1-0.7-0.1c-0.3,0-0.5-0.1-0.7-0.2S71,447.1,70.8,447z
		"/>
	<path fill="#24BBED" d="M78.9,447.4v-9.8h2.8c3.6,0,5.4,1.6,5.4,4.8c0,1.5-0.5,2.7-1.5,3.6s-2.3,1.4-4,1.4H78.9z M80.5,439v7h1.3
		c1.1,0,2-0.3,2.7-0.9c0.6-0.6,1-1.5,1-2.7c0-2.3-1.2-3.4-3.6-3.4H80.5z"/>
	<path fill="#24BBED" d="M96.4,447.4h-2.1l-3.4-4.5c-0.1-0.2-0.2-0.3-0.2-0.3h0v4.8H89v-9.8h1.6v4.6h0c0.1-0.1,0.1-0.2,0.2-0.3
		l3.3-4.3h1.9l-3.8,4.7L96.4,447.4z"/>
	<path fill="#24BBED" d="M96.9,447.2v-1.5c0.6,0.5,1.2,0.7,2,0.7c1,0,1.4-0.3,1.4-0.8c0-0.2,0-0.3-0.1-0.4s-0.2-0.2-0.3-0.3
		c-0.1-0.1-0.3-0.2-0.5-0.2c-0.2-0.1-0.4-0.1-0.6-0.2c-0.3-0.1-0.5-0.2-0.8-0.4c-0.2-0.1-0.4-0.3-0.6-0.4c-0.2-0.2-0.3-0.3-0.3-0.6
		s-0.1-0.4-0.1-0.7c0-0.3,0.1-0.6,0.2-0.9c0.2-0.3,0.4-0.5,0.6-0.7c0.3-0.2,0.6-0.3,0.9-0.4c0.3-0.1,0.7-0.1,1.1-0.1
		c0.6,0,1.2,0.1,1.7,0.3v1.4c-0.5-0.3-1.1-0.5-1.7-0.5c-0.2,0-0.4,0-0.5,0.1c-0.2,0-0.3,0.1-0.4,0.2s-0.2,0.2-0.3,0.3
		c-0.1,0.1-0.1,0.2-0.1,0.3c0,0.2,0,0.3,0.1,0.4c0.1,0.1,0.2,0.2,0.3,0.3c0.1,0.1,0.3,0.2,0.5,0.2c0.2,0.1,0.4,0.1,0.6,0.2
		c0.3,0.1,0.6,0.2,0.8,0.4c0.2,0.1,0.4,0.3,0.6,0.4s0.3,0.3,0.4,0.6c0.1,0.2,0.1,0.5,0.1,0.8c0,0.4-0.1,0.7-0.2,0.9
		c-0.2,0.3-0.4,0.5-0.7,0.7c-0.3,0.2-0.6,0.3-0.9,0.4c-0.4,0.1-0.7,0.1-1.1,0.1C98.1,447.6,97.5,447.5,96.9,447.2z"/>
	<path fill="#24BBED" d="M111.2,438.4c-0.2-0.1-0.5-0.2-0.7-0.2c-0.8,0-1.2,0.4-1.2,1.3v1h1.6v1.2h-1.6v5.8h-1.6v-5.8h-1.2v-1.2h1.2
		v-1.1c0-0.7,0.2-1.3,0.7-1.7c0.5-0.4,1.1-0.6,1.8-0.6c0.4,0,0.7,0,0.9,0.1V438.4z"/>
	<path fill="#24BBED" d="M115.1,447.6c-1.1,0-1.9-0.3-2.6-1c-0.6-0.7-1-1.5-1-2.6c0-1.2,0.3-2.1,1-2.8c0.7-0.7,1.6-1,2.7-1
		c1.1,0,1.9,0.3,2.6,1s0.9,1.5,0.9,2.7c0,1.1-0.3,2-1,2.7C117.1,447.3,116.3,447.6,115.1,447.6z M115.2,441.5
		c-0.6,0-1.1,0.2-1.5,0.6c-0.4,0.4-0.5,1-0.5,1.8c0,0.7,0.2,1.3,0.5,1.7c0.4,0.4,0.9,0.6,1.5,0.6c0.6,0,1.1-0.2,1.4-0.6
		c0.3-0.4,0.5-1,0.5-1.8c0-0.8-0.2-1.4-0.5-1.8C116.3,441.7,115.8,441.5,115.2,441.5z"/>
	<path fill="#24BBED" d="M124.5,441.9c-0.2-0.2-0.5-0.2-0.8-0.2c-0.5,0-0.9,0.2-1.2,0.6c-0.3,0.4-0.5,1-0.5,1.7v3.3h-1.6v-7h1.6v1.4
		h0c0.2-0.5,0.4-0.9,0.7-1.2c0.3-0.3,0.7-0.4,1.1-0.4c0.3,0,0.5,0,0.7,0.1V441.9z"/>
	<path fill="#24BBED" d="M132.8,443.9c0,1.2-0.3,2.1-0.9,2.7s-1.3,1-2.3,1c-0.4,0-0.8-0.1-1.1-0.2v-1.5c0.3,0.2,0.6,0.3,1,0.3
		c1.1,0,1.6-0.8,1.6-2.5v-6h1.6V443.9z"/>
	<path fill="#24BBED" d="M140.2,447.4h-1.5v-1.1h0c-0.5,0.8-1.2,1.3-2.1,1.3c-0.7,0-1.2-0.2-1.6-0.6c-0.4-0.4-0.6-0.9-0.6-1.5
		c0-1.3,0.8-2.1,2.3-2.3l2.1-0.3c0-1-0.5-1.5-1.4-1.5c-0.8,0-1.6,0.3-2.3,0.9v-1.4c0.7-0.4,1.6-0.7,2.6-0.7c1.8,0,2.7,0.9,2.7,2.6
		V447.4z M138.7,444l-1.5,0.2c-0.5,0.1-0.8,0.2-1,0.3c-0.2,0.2-0.3,0.4-0.3,0.9c0,0.3,0.1,0.5,0.3,0.7c0.2,0.2,0.5,0.3,0.9,0.3
		c0.5,0,0.9-0.2,1.2-0.5c0.3-0.3,0.5-0.8,0.5-1.3V444z"/>
	<path fill="#24BBED" d="M148.2,440.4l-2.7,7h-1.7l-2.6-7h1.7l1.6,4.9c0.1,0.4,0.2,0.7,0.2,0.9h0c0-0.3,0.1-0.6,0.2-0.9l1.6-4.9
		H148.2z"/>
	<path fill="#24BBED" d="M154.4,447.4h-1.5v-1.1h0c-0.5,0.8-1.2,1.3-2.1,1.3c-0.7,0-1.2-0.2-1.6-0.6c-0.4-0.4-0.6-0.9-0.6-1.5
		c0-1.3,0.8-2.1,2.3-2.3l2.1-0.3c0-1-0.5-1.5-1.4-1.5c-0.8,0-1.6,0.3-2.3,0.9v-1.4c0.7-0.4,1.6-0.7,2.6-0.7c1.8,0,2.7,0.9,2.7,2.6
		V447.4z M152.8,444l-1.5,0.2c-0.5,0.1-0.8,0.2-1,0.3c-0.2,0.2-0.3,0.4-0.3,0.9c0,0.3,0.1,0.5,0.3,0.7c0.2,0.2,0.5,0.3,0.9,0.3
		c0.5,0,0.9-0.2,1.2-0.5c0.3-0.3,0.5-0.8,0.5-1.3V444z"/>
	<path fill="#24BBED" d="M157.8,445.8l-1.1,3.4h-1.2l0.8-3.4H157.8z"/>
	<path fill="#24BBED" d="M2.8,460.7v3.6H1.2v-9.8h3c1.1,0,2,0.3,2.6,0.8c0.6,0.5,0.9,1.3,0.9,2.2c0,1-0.3,1.7-1,2.3
		c-0.6,0.6-1.5,0.9-2.6,0.9H2.8z M2.8,455.8v3.6h1.1c0.7,0,1.2-0.2,1.6-0.5c0.4-0.3,0.5-0.8,0.5-1.4c0-1.2-0.7-1.7-2-1.7H2.8z"/>
	<path fill="#24BBED" d="M17.3,464.2h-1.6V460H11v4.3H9.4v-9.8H11v4.1h4.6v-4.1h1.6V464.2z"/>
	<path fill="#24BBED" d="M21.3,460.7v3.6h-1.6v-9.8h3c1.1,0,2,0.3,2.6,0.8c0.6,0.5,0.9,1.3,0.9,2.2c0,1-0.3,1.7-1,2.3
		c-0.6,0.6-1.5,0.9-2.6,0.9H21.3z M21.3,455.8v3.6h1.1c0.7,0,1.2-0.2,1.6-0.5c0.4-0.3,0.5-0.8,0.5-1.4c0-1.2-0.7-1.7-2-1.7H21.3z"/>
	<path fill="#24BBED" d="M26.9,462.6l-1.1,3.4h-1.2l0.8-3.4H26.9z"/>
	<path fill="#24BBED" d="M40.4,464.2h-1.9l-1.6-2.6c-0.1-0.2-0.3-0.4-0.4-0.6c-0.1-0.2-0.3-0.3-0.4-0.4c-0.1-0.1-0.3-0.2-0.5-0.2
		c-0.2,0-0.3-0.1-0.6-0.1h-0.7v4h-1.6v-9.8H36c0.5,0,0.9,0.1,1.3,0.2s0.7,0.3,1,0.5c0.3,0.2,0.5,0.5,0.7,0.8
		c0.2,0.3,0.2,0.7,0.2,1.2c0,0.3-0.1,0.7-0.2,1c-0.1,0.3-0.2,0.5-0.4,0.8c-0.2,0.2-0.4,0.4-0.7,0.6c-0.3,0.2-0.6,0.3-0.9,0.4v0
		c0.2,0.1,0.3,0.2,0.5,0.3c0.1,0.1,0.3,0.2,0.4,0.4c0.1,0.1,0.2,0.3,0.4,0.4c0.1,0.2,0.2,0.3,0.4,0.6L40.4,464.2z M34.4,455.8v3.2
		h1.4c0.3,0,0.5,0,0.7-0.1c0.2-0.1,0.4-0.2,0.6-0.3c0.2-0.1,0.3-0.3,0.4-0.5c0.1-0.2,0.1-0.4,0.1-0.7c0-0.5-0.1-0.8-0.4-1.1
		c-0.3-0.3-0.7-0.4-1.3-0.4H34.4z"/>
	<path fill="#24BBED" d="M47.4,464.2h-1.6v-1.1h0c-0.5,0.8-1.2,1.3-2.1,1.3c-1.7,0-2.5-1-2.5-3v-4.2h1.6v4c0,1.3,0.5,1.9,1.5,1.9
		c0.5,0,0.9-0.2,1.2-0.5c0.3-0.3,0.5-0.8,0.5-1.4v-4h1.6V464.2z"/>
	<path fill="#24BBED" d="M51.1,463.2L51.1,463.2l0,1h-1.6v-10.4h1.6v4.6h0c0.5-0.9,1.3-1.4,2.4-1.4c0.9,0,1.6,0.3,2.1,0.9
		c0.5,0.6,0.7,1.5,0.7,2.5c0,1.2-0.3,2.1-0.8,2.8c-0.6,0.7-1.3,1.1-2.3,1.1C52.3,464.4,51.6,464,51.1,463.2z M51.1,460.4v0.9
		c0,0.5,0.2,0.9,0.5,1.3c0.3,0.4,0.7,0.5,1.2,0.5c0.6,0,1-0.2,1.4-0.7c0.3-0.5,0.5-1.1,0.5-1.9c0-0.7-0.2-1.2-0.5-1.6
		c-0.3-0.4-0.7-0.6-1.3-0.6c-0.6,0-1,0.2-1.4,0.6C51.2,459.3,51.1,459.8,51.1,460.4z"/>
	<path fill="#24BBED" d="M64,457.2l-3.2,8.1c-0.7,1.4-1.6,2.2-2.8,2.2c-0.3,0-0.6,0-0.8-0.1v-1.3c0.3,0.1,0.5,0.1,0.7,0.1
		c0.6,0,1-0.3,1.3-0.9l0.5-1.1l-2.8-7h1.8l1.7,5.1c0,0.1,0.1,0.2,0.1,0.5h0c0-0.1,0.1-0.3,0.1-0.5l1.8-5.1H64z"/>
	<path fill="#24BBED" d="M65.8,462.6l-1.1,3.4h-1.2l0.8-3.4H65.8z"/>
	<path fill="#24BBED" d="M73.3,460.7v3.6h-1.6v-9.8h3c1.1,0,2,0.3,2.6,0.8c0.6,0.5,0.9,1.3,0.9,2.2c0,1-0.3,1.7-1,2.3
		c-0.6,0.6-1.5,0.9-2.6,0.9H73.3z M73.3,455.8v3.6h1.1c0.7,0,1.2-0.2,1.6-0.5c0.4-0.3,0.5-0.8,0.5-1.4c0-1.2-0.7-1.7-2-1.7H73.3z"/>
	<path fill="#24BBED" d="M85.8,457.2l-3.2,8.1c-0.7,1.4-1.6,2.2-2.8,2.2c-0.3,0-0.6,0-0.8-0.1v-1.3c0.3,0.1,0.5,0.1,0.7,0.1
		c0.6,0,1-0.3,1.3-0.9l0.5-1.1l-2.8-7h1.8l1.7,5.1c0,0.1,0.1,0.2,0.1,0.5h0c0-0.1,0.1-0.3,0.1-0.5l1.8-5.1H85.8z"/>
	<path fill="#24BBED" d="M90.6,464.2c-0.3,0.2-0.7,0.2-1.2,0.2c-1.4,0-2-0.7-2-2v-4h-1.2v-1.2h1.2v-1.6l1.6-0.5v2.1h1.7v1.2h-1.7
		v3.5c0,0.4,0.1,0.7,0.2,0.9s0.4,0.3,0.8,0.3c0.3,0,0.5-0.1,0.7-0.2V464.2z"/>
	<path fill="#24BBED" d="M98.2,464.2h-1.6v-3.8c0-1.4-0.5-2.1-1.4-2.1c-0.5,0-0.9,0.2-1.2,0.6c-0.3,0.4-0.5,0.9-0.5,1.5v3.8h-1.6
		v-10.4h1.6v4.5h0c0.5-0.9,1.3-1.3,2.3-1.3c1.6,0,2.3,0.9,2.3,2.8V464.2z"/>
	<path fill="#24BBED" d="M103.2,464.4c-1.1,0-1.9-0.3-2.6-1c-0.6-0.7-1-1.5-1-2.6c0-1.2,0.3-2.1,1-2.8c0.7-0.7,1.6-1,2.7-1
		c1.1,0,1.9,0.3,2.6,1s0.9,1.5,0.9,2.7c0,1.1-0.3,2-1,2.7C105.2,464.1,104.3,464.4,103.2,464.4z M103.3,458.3
		c-0.6,0-1.1,0.2-1.5,0.7c-0.4,0.4-0.5,1-0.5,1.8c0,0.7,0.2,1.3,0.5,1.7s0.9,0.6,1.5,0.6c0.6,0,1.1-0.2,1.4-0.6
		c0.3-0.4,0.5-1,0.5-1.8c0-0.8-0.2-1.4-0.5-1.8C104.4,458.5,103.9,458.3,103.3,458.3z"/>
	<path fill="#24BBED" d="M114.7,464.2h-1.6v-3.9c0-1.3-0.5-2-1.4-2c-0.5,0-0.9,0.2-1.2,0.5c-0.3,0.4-0.5,0.8-0.5,1.4v4h-1.6v-7h1.6
		v1.2h0c0.5-0.9,1.3-1.3,2.3-1.3c0.8,0,1.3,0.2,1.7,0.7c0.4,0.5,0.6,1.2,0.6,2.1V464.2z"/>
	<path fill="#24BBED" d="M118.1,462.6L117,466h-1.2l0.8-3.4H118.1z"/>
	<path fill="#24BBED" d="M129.8,461.2H125c0,0.6,0.2,1.1,0.6,1.5c0.4,0.3,0.9,0.5,1.6,0.5c0.7,0,1.4-0.2,2.1-0.7v1.3
		c-0.6,0.4-1.5,0.6-2.5,0.6c-1,0-1.8-0.3-2.4-1c-0.6-0.6-0.9-1.5-0.9-2.7c0-1.1,0.3-2,1-2.7c0.6-0.7,1.4-1,2.4-1s1.7,0.3,2.2,0.9
		s0.8,1.5,0.8,2.6V461.2z M128.2,460c0-0.6-0.1-1-0.4-1.3c-0.3-0.3-0.6-0.5-1.1-0.5c-0.5,0-0.8,0.2-1.2,0.5
		c-0.3,0.3-0.5,0.8-0.6,1.3H128.2z"/>
	<path fill="#24BBED" d="M135,464.2c-0.3,0.2-0.7,0.2-1.2,0.2c-1.4,0-2-0.7-2-2v-4h-1.2v-1.2h1.2v-1.6l1.6-0.5v2.1h1.7v1.2h-1.7v3.5
		c0,0.4,0.1,0.7,0.2,0.9s0.4,0.3,0.8,0.3c0.3,0,0.5-0.1,0.7-0.2V464.2z"/>
	<path fill="#24BBED" d="M141.2,463.9c-0.6,0.3-1.2,0.5-2,0.5c-1,0-1.9-0.3-2.5-1c-0.6-0.6-1-1.5-1-2.5c0-1.2,0.3-2.1,1-2.8
		c0.7-0.7,1.6-1,2.8-1c0.6,0,1.2,0.1,1.7,0.3v1.5c-0.5-0.4-1-0.5-1.6-0.5c-0.7,0-1.2,0.2-1.6,0.7c-0.4,0.5-0.6,1-0.6,1.8
		c0,0.7,0.2,1.3,0.6,1.7c0.4,0.4,0.9,0.6,1.6,0.6c0.6,0,1.1-0.2,1.6-0.6V463.9z"/>
	<path fill="#24BBED" d="M143.5,464.4c-0.3,0-0.5-0.1-0.7-0.3c-0.2-0.2-0.3-0.4-0.3-0.6c0-0.3,0.1-0.5,0.3-0.7
		c0.2-0.2,0.4-0.3,0.7-0.3c0.3,0,0.5,0.1,0.7,0.3c0.2,0.2,0.3,0.4,0.3,0.7c0,0.3-0.1,0.5-0.3,0.6C144,464.3,143.7,464.4,143.5,464.4
		z"/>
</g>
<g>
	
		<line fill="none" stroke="#DFDFDE" stroke-width="4" stroke-linecap="round" stroke-linejoin="round" stroke-miterlimit="10" x1="79.4" y1="-83" x2="79.4" y2="177.9"/>
	
		<circle fill="none" stroke="#DFDFDE" stroke-width="4" stroke-linecap="round" stroke-linejoin="round" stroke-miterlimit="10" cx="79.4" cy="183.4" r="5"/>
</g>
</svg>
