<svg id="Layer_1" xmlns="http://www.w3.org/2000/svg" width="157" height="329" viewBox="0 0 157 329"><path fill-opacity="0" d="M30.6 225h94.8v104.2H30.6z"/><path d="M11.7 284.7c-.3 0-.5-.1-.7-.3-.2-.2-.3-.4-.3-.6 0-.3.1-.5.3-.6.2-.1.4-.3.7-.3s.5.1.7.3.3.4.3.6-.1.5-.3.6c-.2.2-.4.3-.7.3zm.8 8.5h-1.6v-7h1.6v7zM18.8 293.3c-1.4 0-2.5-.5-3.4-1.4-.8-.9-1.3-2.1-1.3-3.6 0-1.6.4-2.8 1.3-3.8.9-.9 2-1.4 3.5-1.4 1.4 0 2.5.5 3.3 1.4.8.9 1.3 2.1 1.3 3.6 0 1.6-.4 2.8-1.3 3.8s-2 1.4-3.4 1.4zm0-8.6c-.9 0-1.6.3-2.2 1-.6.7-.8 1.5-.8 2.6s.3 2 .8 2.6c.5.7 1.3 1 2.1 1 .9 0 1.7-.3 2.2-.9.5-.6.8-1.5.8-2.6 0-1.2-.3-2.1-.8-2.7-.5-.6-1.1-1-2.1-1zM24.8 292.8v-1.7c.1.1.3.3.5.4.2.1.4.2.7.3.2.1.5.1.7.2.2 0 .4.1.6.1.7 0 1.2-.1 1.5-.3s.5-.6.5-1c0-.2-.1-.4-.2-.6-.1-.2-.3-.3-.5-.5s-.4-.3-.7-.4c-.3-.1-.6-.3-.9-.4-.3-.2-.6-.4-.9-.5-.3-.2-.5-.4-.7-.6-.2-.2-.4-.5-.5-.7-.1-.2-.2-.6-.2-1 0-.5.1-.9.3-1.2.2-.3.5-.6.8-.8.3-.2.7-.4 1.2-.5.5-.1.9-.2 1.3-.2 1 0 1.8.1 2.2.3v1.6c-.6-.4-1.3-.6-2.1-.6-.2 0-.5 0-.7.1-.2 0-.5.1-.6.2s-.3.2-.5.4-.2.4-.2.6c0 .2 0 .4.1.6.1.2.2.3.4.4.2.1.4.3.6.4.3.1.5.3.9.4.3.2.7.4 1 .6s.6.4.8.6c.2.2.4.5.5.8.1.3.2.6.2 1 0 .5-.1.9-.3 1.3-.2.3-.5.6-.8.8s-.7.4-1.2.5c-.4.1-.9.1-1.4.1h-.6c-.2 0-.5-.1-.7-.1s-.5-.1-.7-.2c-.1-.3-.2-.3-.4-.4zM34.2 291.5l-1.1 3.4h-1.2l.7-3.4h1.6zM48.1 293.2h-1.8l-.9-2.5h-3.8l-.8 2.5H39l3.7-9.8h1.8l3.6 9.8zm-3.1-3.8l-1.4-3.9c0-.1-.1-.3-.1-.6 0 .3-.1.5-.1.6l-1.3 3.9H45zM55.4 293.2h-1.6v-3.9c0-1.3-.5-2-1.4-2-.5 0-.9.2-1.2.5-.3.4-.5.8-.5 1.4v4h-1.6v-7h1.6v1.2c.5-.9 1.3-1.3 2.3-1.3.8 0 1.3.2 1.7.7s.6 1.2.6 2.1v4.3h.1zM63.7 293.2h-1.6V292c-.5.9-1.3 1.3-2.3 1.3-.9 0-1.5-.3-2.1-.9-.5-.6-.8-1.5-.8-2.5 0-1.2.3-2.1.9-2.8.6-.7 1.3-1 2.3-1 .9 0 1.6.4 2 1.1v-4.4h1.6v10.4zm-1.6-3.2v-.9c0-.5-.2-.9-.5-1.3-.3-.3-.7-.5-1.2-.5-.6 0-1.1.2-1.4.7-.3.4-.5 1-.5 1.8 0 .7.2 1.3.5 1.7.3.4.8.6 1.3.6s1-.2 1.3-.6c.3-.4.5-.9.5-1.5zM69.8 287.7c-.2-.1-.5-.2-.8-.2-.5 0-.9.2-1.2.6-.3.4-.5 1-.5 1.7v3.3h-1.6v-7h1.6v1.4c.2-.5.4-.9.7-1.1.3-.3.7-.4 1.1-.4.3 0 .5 0 .7.1v1.6zM73.9 293.3c-1.1 0-1.9-.3-2.6-1s-1-1.5-1-2.6c0-1.2.3-2.1 1-2.7.7-.6 1.6-1 2.7-1s1.9.3 2.5 1c.6.6.9 1.5.9 2.7 0 1.1-.3 2-1 2.7-.6.6-1.4.9-2.5.9zm0-6c-.6 0-1.1.2-1.5.6-.4.4-.5 1-.5 1.8 0 .7.2 1.3.5 1.7.4.4.8.6 1.5.6.6 0 1.1-.2 1.4-.6.3-.4.5-1 .5-1.8s-.2-1.4-.5-1.8c-.3-.3-.7-.5-1.4-.5zM79.9 284.7c-.3 0-.5-.1-.7-.3s-.3-.3-.3-.6.1-.5.3-.6c.2-.1.4-.3.7-.3.3 0 .5.1.7.3s.3.4.3.6-.1.5-.3.6c-.2.2-.5.3-.7.3zm.8 8.5h-1.6v-7h1.6v7zM89.1 293.2h-1.6V292c-.5.9-1.3 1.3-2.3 1.3-.9 0-1.5-.3-2.1-.9-.5-.6-.8-1.5-.8-2.5 0-1.2.3-2.1.9-2.8.6-.7 1.3-1 2.3-1 .9 0 1.6.4 2 1.1v-4.4h1.6v10.4zm-1.6-3.2v-.9c0-.5-.2-.9-.5-1.3-.3-.3-.7-.5-1.2-.5-.6 0-1.1.2-1.4.7-.3.4-.5 1-.5 1.8 0 .7.2 1.3.5 1.7.3.4.8.6 1.3.6s1-.2 1.3-.6c.3-.4.5-.9.5-1.5zM92.6 291.5l-1.1 3.4h-1.2l.7-3.4h1.6zM18.4 309.9h-1.9l-2-3.6c-.1-.1-.1-.3-.2-.5 0 .1-.1.3-.2.5l-2.1 3.6h-2l3.2-4.9-2.9-4.8h2l1.8 3.3c.1.2.2.4.3.7.1-.3.2-.5.3-.7l1.8-3.3h1.8l-3 4.8 3.1 4.9zM24.9 309.9h-1.5v-1.1c-.5.8-1.2 1.3-2.1 1.3-.7 0-1.2-.2-1.6-.6-.4-.4-.6-.9-.6-1.5 0-1.3.8-2.1 2.3-2.3l2.1-.3c0-1-.5-1.5-1.4-1.5-.8 0-1.6.3-2.2.9v-1.4c.7-.4 1.6-.7 2.5-.7 1.8 0 2.6.9 2.6 2.6l-.1 4.6zm-1.5-3.4l-1.5.2c-.5.1-.8.2-1 .3-.2.2-.3.4-.3.8 0 .3.1.5.3.7.2.2.5.3.8.3.5 0 .9-.2 1.2-.5.3-.3.5-.8.5-1.3v-.5zM37.2 309.9h-1.6v-3.8c0-.7-.1-1.3-.3-1.6-.2-.3-.6-.5-1-.5s-.8.2-1.1.6c-.3.4-.4.9-.4 1.5v3.8h-1.6V306c0-1.3-.5-1.9-1.4-1.9-.4 0-.8.2-1.1.6-.3.4-.4.9-.4 1.5v3.8h-1.6v-7h1.6v1.1c.5-.8 1.2-1.3 2.2-1.3.5 0 .9.1 1.3.4s.6.6.7 1c.5-1 1.3-1.4 2.3-1.4 1.5 0 2.3.9 2.3 2.8v4.3h.1zM44.5 309.9H43v-1.1c-.5.8-1.2 1.3-2.1 1.3-.7 0-1.2-.2-1.6-.6-.4-.4-.6-.9-.6-1.5 0-1.3.8-2.1 2.3-2.3l2.1-.3c0-1-.5-1.5-1.4-1.5-.8 0-1.6.3-2.2.9v-1.4c.7-.4 1.6-.7 2.5-.7 1.8 0 2.6.9 2.6 2.6l-.1 4.6zm-1.5-3.4l-1.5.2c-.5.1-.8.2-1 .3-.2.2-.3.4-.3.8 0 .3.1.5.3.7.2.2.5.3.8.3.5 0 .9-.2 1.2-.5s.5-.8.5-1.3v-.5zM50.5 304.4c-.2-.1-.5-.2-.8-.2-.5 0-.9.2-1.2.6s-.5 1-.5 1.7v3.3h-1.6v-7H48v1.4c.2-.5.4-.9.7-1.1.3-.3.7-.4 1.1-.4.3 0 .5 0 .7.1v1.6zM52.4 301.4c-.3 0-.5-.1-.7-.3-.2-.2-.3-.4-.3-.6 0-.3.1-.5.3-.6.2-.1.4-.3.7-.3s.5.1.7.3c.2.2.3.4.3.6 0 .2-.1.5-.3.6-.2.3-.5.3-.7.3zm.8 8.5h-1.6v-7h1.6v7zM61.4 309.9h-1.6V306c0-1.3-.5-2-1.4-2-.5 0-.9.2-1.2.5-.3.4-.5.8-.5 1.4v4h-1.6v-7h1.6v1.2c.5-.9 1.3-1.3 2.3-1.3.8 0 1.3.2 1.7.7s.6 1.2.6 2.1v4.3h.1zM64.8 308.2l-1.1 3.4h-1.2l.7-3.4h1.6zM75.9 309.9h-1.5v-1.1c-.5.8-1.2 1.3-2.1 1.3-.7 0-1.2-.2-1.6-.6-.4-.4-.6-.9-.6-1.5 0-1.3.8-2.1 2.3-2.3l2.1-.3c0-1-.5-1.5-1.4-1.5-.8 0-1.6.3-2.2.9v-1.4c.7-.4 1.6-.7 2.5-.7 1.8 0 2.6.9 2.6 2.6v4.6h-.1zm-1.5-3.4l-1.5.2c-.5.1-.8.2-1 .3-.2.2-.3.4-.3.8 0 .3.1.5.3.7.2.2.5.3.8.3.5 0 .9-.2 1.2-.5.3-.3.5-.8.5-1.3v-.5zM84 309.9h-1.6V306c0-1.3-.5-2-1.4-2-.5 0-.9.2-1.2.5-.3.4-.5.8-.5 1.4v4h-1.6v-7h1.6v1.2c.5-.9 1.3-1.3 2.3-1.3.8 0 1.3.2 1.7.7.4.5.6 1.2.6 2.1l.1 4.3zM92.3 309.9h-1.6v-1.2c-.5.9-1.3 1.3-2.3 1.3-.9 0-1.5-.3-2.1-.9-.5-.6-.8-1.5-.8-2.5 0-1.2.3-2.1.9-2.8.6-.7 1.3-1 2.3-1 .9 0 1.6.4 2 1.1v-4.3h1.6v10.3zm-1.6-3.2v-.9c0-.5-.2-.9-.5-1.3-.3-.3-.7-.5-1.2-.5-.6 0-1.1.2-1.4.7-.3.4-.5 1-.5 1.8 0 .7.2 1.3.5 1.7s.8.6 1.3.6 1-.2 1.3-.6c.3-.4.5-.9.5-1.5zM18.9 326.6h-1.6v-4.2h-4.6v4.2h-1.6v-9.8h1.6v4.1h4.6v-4.1h1.6v9.8zM27.6 318.2h-2.8v8.4h-1.6v-8.4h-2.8v-1.4h7.2v1.4zM39.5 326.6h-1.6v-6.3c0-.5 0-1.1.1-1.9-.1.4-.2.7-.3.9l-2.9 7.3h-1.1l-2.9-7.2c-.1-.2-.2-.5-.3-1 0 .4.1 1 .1 1.9v6.3h-1.5v-9.8h2.3l2.6 6.5c.2.5.3.9.4 1.1.2-.5.3-.9.4-1.1l2.6-6.5h2.2v9.8h-.1zM47.3 326.6h-5.4v-9.8h1.6v8.4h3.8v1.4zM53.4 316.8l-4.7 11.4h-1.4l4.6-11.4h1.5zM57.7 323.1c0 1.2-.3 2.1-.9 2.7s-1.3 1-2.3 1c-.4 0-.8-.1-1.1-.2v-1.5c.3.2.6.3 1 .3 1.1 0 1.6-.8 1.6-2.5v-6h1.6v6.2h.1zM59.5 326.2v-1.7c.1.1.3.3.5.4.2.1.4.2.7.3.2.1.5.1.7.2.2 0 .4.1.6.1.7 0 1.2-.1 1.5-.3s.5-.6.5-1c0-.2-.1-.4-.2-.6s-.3-.3-.5-.5-.4-.3-.7-.4c-.3-.1-.6-.3-.9-.4-.3-.2-.6-.4-.9-.5-.3-.2-.5-.4-.7-.6s-.4-.5-.5-.7c-.1-.2-.2-.6-.2-1 0-.5.1-.9.3-1.2s.5-.6.8-.8c.3-.2.7-.4 1.2-.5.5-.1.9-.2 1.3-.2 1 0 1.8.1 2.2.3v1.6c-.6-.4-1.3-.6-2.1-.6-.2 0-.5 0-.7.1-.2 0-.5.1-.6.2s-.3.2-.5.4-.2.4-.2.6 0 .4.1.6c.1.2.2.3.4.4.2.1.4.3.6.4.3.1.5.3.9.4.3.2.7.4 1 .6.3.2.6.4.8.6.2.2.4.5.5.8.1.3.2.6.2 1 0 .5-.1.9-.3 1.3-.2.3-.5.6-.8.8-.3.2-.7.4-1.2.5-.4.1-.9.1-1.4.1h-.6c-.2 0-.5-.1-.7-.1s-.5-.1-.7-.2c0-.2-.2-.3-.4-.4z"/><g><path d="M21.6 275.2H20v-6.3c0-.5 0-1.1.1-1.9-.1.4-.2.7-.3.9l-2.9 7.3h-1.2l-2.9-7.2c-.1-.2-.2-.5-.3-1 0 .4.1 1 .1 1.9v6.3h-1.5v-9.8h2.3l2.5 6.6c.2.5.3.9.4 1.1.2-.5.3-.9.4-1.1l2.6-6.5h2.2v9.7h.1zM28 275.4c-1.4 0-2.5-.5-3.4-1.4-.8-.9-1.3-2.1-1.3-3.6 0-1.6.4-2.8 1.3-3.8.9-.9 2-1.4 3.5-1.4 1.4 0 2.5.5 3.3 1.4s1.3 2.1 1.3 3.6c0 1.6-.4 2.8-1.3 3.8-.8.9-2 1.4-3.4 1.4zm.1-8.7c-.9 0-1.6.3-2.2 1-.6.7-.8 1.5-.8 2.6s.3 2 .8 2.6c.5.7 1.3 1 2.1 1 .9 0 1.7-.3 2.2-.9.5-.6.8-1.5.8-2.6 0-1.2-.3-2.1-.8-2.7-.5-.6-1.2-1-2.1-1zM34.5 275.2v-9.8h3.1c.9 0 1.7.2 2.2.6.6.4.8.9.8 1.6 0 .6-.2 1-.5 1.4-.2.5-.6.8-1.2 1 .7.1 1.2.3 1.6.7.4.4.6 1 .6 1.6 0 .8-.3 1.5-1 2s-1.5.8-2.5.8h-3.1v.1zm1.6-8.4v2.8h1c.6 0 1-.1 1.3-.4.3-.3.5-.6.5-1.1 0-.8-.6-1.3-1.7-1.3h-1.1zm0 4v3.1h1.4c.6 0 1.1-.1 1.4-.4.3-.3.5-.7.5-1.2 0-1-.7-1.5-2.1-1.5h-1.2zM44.6 275.2h-1.7v-9.8h1.7v9.8zM52.4 275.2H47v-9.8h1.6v8.4h3.8v1.4zM59.3 275.2h-5.5v-9.8h5.3v1.4h-3.6v2.8h3.4v1.4h-3.4v2.9h3.9v1.3h-.1zM72.8 275.2H71l-.9-2.5h-3.8l-.8 2.5h-1.8l3.7-9.8h1.8l3.6 9.8zm-3-3.8l-1.4-3.9c0-.1-.1-.3-.1-.6 0 .3-.1.5-.1.6l-1.3 3.9h2.9zM75.8 271.7v3.5h-1.6v-9.8h3c1.1 0 2 .3 2.6.8s.9 1.3.9 2.2-.3 1.7-1 2.3c-.6.6-1.5.9-2.6.9l-1.3.1zm0-4.9v3.6h1c.7 0 1.2-.2 1.6-.5.4-.3.5-.8.5-1.4 0-1.1-.7-1.7-2-1.7h-1.1zM83.9 271.7v3.5h-1.6v-9.8h3c1.1 0 2 .3 2.6.8s.9 1.3.9 2.2-.3 1.7-1 2.3c-.6.6-1.5.9-2.6.9l-1.3.1zm0-4.9v3.6h1c.7 0 1.2-.2 1.6-.5.4-.3.5-.8.5-1.4 0-1.1-.7-1.7-2-1.7h-1.1z"/></g><g><path d="M135.8 261.3l-29.3 4c-2.5.4-2.5 1-2.1 4.1l6.9 50.1c.4 3.1.5 3.7 3.1 3.4 0 0 .8-.1.9-.1l27.5-3.8c.1 0 .9-.1.9-.1 2.5-.4 2.5-1 2.1-4.1l-6.9-50.1c-.4-3.1-.6-3.7-3.1-3.4zm-18.5 4.5l8.1-1.1c.2 0 .3.1.3.3 0 .1-.1.3-.2.3l-8.1 1.1c-.1 0-.3-.1-.3-.3 0-.1.1-.3.2-.3zm7.5 52.7l-2 .3c-.3 0-.6 0-.7-.4 0-.3.2-.5.5-.5l2-.3c.3 0 .6 0 .7.4 0 .3-.2.4-.5.5zm5.2-.4l-2.7.4c-.4.1-.8-.1-.9-.5-.1-.4.3-.7.7-.7l2.7-.4c.4-.1.8.1.9.5.1.4-.3.6-.7.7zm4.4-1l-2 .3c-.3 0-.6 0-.7-.4 0-.3.2-.5.5-.5l2-.3c.3 0 .6 0 .7.4.1.3-.1.5-.5.5zm8.1-7c.4 2.6.2 3.2-2.3 3.6l-13.3 1.8-10.7 1.5c-2.5.3-2.8-.2-3.2-2.9l-5.7-41.7c-.4-2.8-.1-2.8 2.7-3.2l10.4-1.4 13-1.8c2.8-.4 3-.4 3.4 2.4l5.7 41.7z"/><path d="M135.4 270.3c-.4-2.7-.7-2.6-3.4-2.3l-20.2 2.8c-2.7.4-2.9.4-2.6 3.1l5.2 38.2c.4 2.7.7 3.1 3.4 2.7L138 312c2.7-.4 2.9-.9 2.6-3.6l-5.2-38.1zm-10 30.1l-8.9-3.7-1.3-9.6 8.9 3.6 1.3 9.7zm-9.6-14.6l7.6-5.9 9 3.7-7.6 5.9-9-3.7zm18.8 8.5l-7.6 5.9-1.3-9.5 7.6-5.9 1.3 9.5z"/></g></svg>