<?xml version="1.0" encoding="utf-8"?>
<!-- Generator: Adobe Illustrator 18.0.0, SVG Export Plug-In . SVG Version: 6.00 Build 0)  -->
<!DOCTYPE svg PUBLIC "-//W3C//DTD SVG 1.1//EN" "http://www.w3.org/Graphics/SVG/1.1/DTD/svg11.dtd">
<svg version="1.1" id="Layer_1" xmlns="http://www.w3.org/2000/svg" xmlns:xlink="http://www.w3.org/1999/xlink" x="0px" y="0px"
	 width="960px" height="313px" viewBox="0 0 960 313" enable-background="new 0 0 960 313" xml:space="preserve">
<g>
	<g>
		<path fill="#00BCF2" d="M429.1,54.5h-1.8l-4.7-7.2c-0.1-0.2-0.2-0.4-0.3-0.6l0,0c0,0.2,0.1,0.7,0.1,1.3v6.4h-1.6v-9.8h1.9l4.5,7
			c0.2,0.3,0.3,0.5,0.4,0.6l0,0c0-0.3-0.1-0.7-0.1-1.3v-6.3h1.6V54.5z"/>
		<path fill="#00BCF2" d="M437,54.5h-5.5v-9.8h5.3v1.4h-3.6v2.8h3.4v1.4h-3.4v2.9h3.9L437,54.5L437,54.5z"/>
		<path fill="#00BCF2" d="M445,46.1h-2.8v8.4h-1.6V46h-2.8v-1.4h7.2L445,46.1L445,46.1z"/>
		<path fill="#00BCF2" d="M458.8,44.6l-2.7,9.8h-1.8l-1.9-6.8c-0.1-0.3-0.1-0.6-0.1-1l0,0c0,0.3-0.1,0.6-0.2,0.9l-1.9,6.8h-1.9
			l-2.7-9.8h1.8l1.8,7.1c0.1,0.3,0.1,0.6,0.1,0.9l0,0c0-0.2,0.1-0.5,0.2-0.9l2-7.1h1.7l1.8,7.2c0.1,0.2,0.1,0.5,0.1,0.9l0,0
			c0-0.2,0.1-0.5,0.2-0.9l1.7-7.2L458.8,44.6L458.8,44.6z"/>
		<path fill="#00BCF2" d="M464.2,54.6c-1.4,0-2.5-0.5-3.4-1.4c-0.8-0.9-1.3-2.1-1.3-3.6c0-1.6,0.4-2.8,1.3-3.8
			c0.9-0.9,2-1.4,3.5-1.4c1.4,0,2.5,0.5,3.3,1.4s1.3,2.1,1.3,3.6c0,1.6-0.4,2.8-1.3,3.8C466.8,54.1,465.6,54.6,464.2,54.6z
			 M464.3,46c-0.9,0-1.6,0.3-2.2,1s-0.8,1.5-0.8,2.6s0.3,2,0.8,2.6c0.5,0.7,1.3,1,2.1,1c0.9,0,1.7-0.3,2.2-0.9
			c0.5-0.6,0.8-1.5,0.8-2.6c0-1.2-0.3-2.1-0.8-2.7S465.2,46,464.3,46z"/>
		<path fill="#00BCF2" d="M478.3,54.5h-1.9l-1.6-2.6c-0.1-0.2-0.3-0.4-0.4-0.6s-0.3-0.3-0.4-0.4c-0.1-0.1-0.3-0.2-0.5-0.2
			s-0.3-0.1-0.6-0.1h-0.7v4h-1.6v-9.8h3.2c0.5,0,0.9,0.1,1.3,0.2s0.7,0.3,1,0.5s0.5,0.5,0.7,0.8s0.2,0.7,0.2,1.2
			c0,0.3-0.1,0.7-0.2,0.9c-0.1,0.3-0.2,0.5-0.4,0.8c-0.2,0.2-0.4,0.4-0.7,0.6c-0.3,0.2-0.6,0.3-0.9,0.4l0,0c0.2,0.1,0.3,0.2,0.5,0.3
			c0.1,0.1,0.3,0.2,0.4,0.4c0.1,0.1,0.2,0.3,0.3,0.4c0.1,0.2,0.2,0.3,0.4,0.6L478.3,54.5z M472.3,46v3.2h1.3c0.2,0,0.5,0,0.7-0.1
			s0.4-0.2,0.5-0.3c0.2-0.1,0.3-0.3,0.4-0.5s0.1-0.4,0.1-0.7c0-0.5-0.1-0.8-0.4-1.1s-0.7-0.4-1.3-0.4L472.3,46L472.3,46L472.3,46z"
			/>
		<path fill="#00BCF2" d="M486.8,54.5h-2.1l-3.4-4.5c-0.1-0.2-0.2-0.3-0.2-0.3l0,0v4.8h-1.6v-9.8h1.6v4.6l0,0
			c0.1-0.1,0.1-0.2,0.2-0.3l3.3-4.3h1.9l-3.8,4.7L486.8,54.5z"/>
		<path fill="#00BCF2" d="M498,46.1h-2.8v8.4h-1.6V46h-2.8v-1.4h7.2L498,46.1L498,46.1z"/>
		<path fill="#00BCF2" d="M501.1,54.5h-1.7v-9.8h1.7V54.5z"/>
		<path fill="#00BCF2" d="M508.9,54.5h-5.5v-9.8h5.3v1.4h-3.6v2.8h3.4v1.4h-3.4v2.9h3.9L508.9,54.5L508.9,54.5z"/>
		<path fill="#00BCF2" d="M518.2,54.5h-1.9l-1.6-2.6c-0.1-0.2-0.3-0.4-0.4-0.6c-0.1-0.2-0.3-0.3-0.4-0.4c-0.1-0.1-0.3-0.2-0.5-0.2
			s-0.3-0.1-0.6-0.1h-0.7v4h-1.6v-9.8h3.2c0.5,0,0.9,0.1,1.3,0.2c0.4,0.1,0.7,0.3,1,0.5s0.5,0.5,0.7,0.8s0.2,0.7,0.2,1.2
			c0,0.3-0.1,0.7-0.2,0.9c-0.1,0.3-0.2,0.5-0.4,0.8c-0.2,0.2-0.4,0.4-0.7,0.6s-0.6,0.3-0.9,0.4l0,0c0.2,0.1,0.3,0.2,0.5,0.3
			c0.1,0.1,0.3,0.2,0.4,0.4c0.1,0.1,0.2,0.3,0.3,0.4c0.1,0.2,0.2,0.3,0.4,0.6L518.2,54.5z M512.3,46v3.2h1.3c0.2,0,0.5,0,0.7-0.1
			s0.4-0.2,0.5-0.3c0.2-0.1,0.3-0.3,0.4-0.5c0.1-0.2,0.1-0.4,0.1-0.7c0-0.5-0.1-0.8-0.4-1.1s-0.7-0.4-1.3-0.4L512.3,46L512.3,46z"/>
	</g>
	<circle fill="#00BCF2" cx="468.5" cy="27.8" r="9.9"/>
	<g>
		<path fill="#FFFFFF" d="M471,31.4h-4.9v-0.6c0-0.2,0-0.5,0.1-0.7s0.2-0.4,0.3-0.6c0.1-0.2,0.3-0.4,0.4-0.5
			c0.2-0.2,0.3-0.3,0.5-0.5s0.4-0.3,0.5-0.5c0.2-0.1,0.4-0.3,0.5-0.4c0.2-0.1,0.3-0.3,0.5-0.4c0.1-0.1,0.3-0.3,0.4-0.4
			s0.2-0.3,0.2-0.5c0.1-0.2,0.1-0.3,0.1-0.5s0-0.4-0.1-0.5s-0.2-0.3-0.3-0.4c-0.1-0.1-0.3-0.2-0.4-0.2c-0.2-0.1-0.3-0.1-0.5-0.1
			c-0.3,0-0.6,0.1-1,0.2c-0.3,0.1-0.6,0.4-1,0.7v-1.2c0.2-0.1,0.3-0.2,0.5-0.3s0.3-0.2,0.5-0.2c0.2-0.1,0.4-0.1,0.5-0.1
			c0.2,0,0.4,0,0.6,0c0.4,0,0.7,0,1,0.1s0.5,0.2,0.7,0.4s0.4,0.4,0.5,0.7s0.2,0.6,0.2,0.9s0,0.6-0.1,0.9c-0.1,0.3-0.2,0.5-0.3,0.7
			c-0.1,0.2-0.3,0.4-0.5,0.6s-0.4,0.4-0.7,0.6c-0.2,0.2-0.4,0.3-0.6,0.5s-0.4,0.3-0.6,0.5s-0.3,0.3-0.4,0.5s-0.2,0.3-0.2,0.5l0,0
			h3.5L471,31.4L471,31.4z"/>
	</g>
	
		<polyline fill="none" stroke="#686868" stroke-width="3" stroke-linecap="round" stroke-linejoin="round" stroke-miterlimit="10" points="
		468.2,298.5 468.2,251 398,251 398,210.3 398,175.3 	"/>
	
		<polyline fill="none" stroke="#686868" stroke-width="3" stroke-linecap="round" stroke-linejoin="round" stroke-miterlimit="10" points="
		461.5,295.2 468.1,301.8 474.8,295.1 	"/>
	
		<polyline fill="none" stroke="#686868" stroke-width="3" stroke-linecap="round" stroke-linejoin="round" stroke-miterlimit="10" points="
		468.2,271.8 468.2,263.2 300.5,263.2 300.5,156.7 300.5,121.8 	"/>
	
		<polyline fill="none" stroke="#686868" stroke-width="3" stroke-linecap="round" stroke-linejoin="round" stroke-miterlimit="10" points="
		629.3,121.8 629.3,156.7 629.3,263.2 468.2,263.2 468.2,270 	"/>
	
		<polyline fill="none" stroke="#686868" stroke-width="3" stroke-linecap="round" stroke-linejoin="round" stroke-miterlimit="10" points="
		468.2,263.2 468.2,251 537.2,251 537.3,210.3 537.3,175.3 	"/>
	<g>
		<g>
			<path d="M287.5,99.9V90h2.8c3.6,0,5.4,1.6,5.4,4.8c0,1.5-0.5,2.7-1.5,3.6c-1,0.9-2.3,1.4-4,1.4h-2.7L287.5,99.9L287.5,99.9z
				 M289.1,91.5v7h1.3c1.1,0,2-0.3,2.7-0.9c0.6-0.6,0.9-1.5,0.9-2.7c0-2.3-1.2-3.4-3.5-3.4L289.1,91.5L289.1,91.5z"/>
			<path d="M305.8,99.9H304l-4.7-7.2c-0.1-0.2-0.2-0.4-0.3-0.6l0,0c0,0.2,0.1,0.7,0.1,1.3v6.4h-1.6V90h1.9l4.5,7
				c0.2,0.3,0.3,0.5,0.4,0.6l0,0c0-0.3-0.1-0.7-0.1-1.3V90h1.6V99.9z"/>
			<path d="M307.8,99.5v-1.7c0.1,0.1,0.3,0.3,0.5,0.4c0.2,0.1,0.4,0.2,0.7,0.3c0.2,0.1,0.5,0.1,0.7,0.2c0.2,0,0.4,0.1,0.6,0.1
				c0.7,0,1.2-0.1,1.5-0.3s0.5-0.6,0.5-1c0-0.2-0.1-0.4-0.2-0.6c-0.1-0.2-0.3-0.3-0.5-0.5s-0.4-0.3-0.7-0.4
				c-0.3-0.1-0.6-0.3-0.9-0.4c-0.3-0.2-0.6-0.4-0.9-0.5c-0.3-0.2-0.5-0.4-0.7-0.6s-0.4-0.5-0.5-0.7s-0.2-0.6-0.2-1
				c0-0.5,0.1-0.9,0.3-1.2c0.2-0.3,0.5-0.6,0.8-0.8s0.7-0.4,1.2-0.5s0.9-0.2,1.3-0.2c1,0,1.8,0.1,2.2,0.3V92
				c-0.6-0.4-1.3-0.6-2.1-0.6c-0.2,0-0.5,0-0.7,0.1c-0.2,0-0.5,0.1-0.6,0.2c-0.1,0.1-0.3,0.2-0.5,0.4s-0.2,0.4-0.2,0.6
				c0,0.2,0,0.4,0.1,0.6s0.2,0.3,0.4,0.4c0.2,0.1,0.4,0.3,0.6,0.4c0.3,0.1,0.5,0.3,0.9,0.4c0.3,0.2,0.7,0.4,1,0.6s0.6,0.4,0.8,0.6
				c0.2,0.2,0.4,0.5,0.5,0.8s0.2,0.6,0.2,1c0,0.5-0.1,0.9-0.3,1.3c-0.2,0.3-0.5,0.6-0.8,0.8s-0.7,0.4-1.2,0.5
				c-0.4,0.1-0.9,0.1-1.4,0.1c-0.2,0-0.4,0-0.6,0s-0.5-0.1-0.7-0.1s-0.5-0.1-0.7-0.2C308.1,99.7,307.9,99.5,307.8,99.5z"/>
		</g>
		<g>
			<path d="M303.7,62.6c-1.3,0-2.5,0.8-3,2h-19.1c-3.2,0-5.9-2.6-5.9-5.9c0-3.2,2.6-5.9,5.9-5.9h2.7c0.1-0.7,0.3-1.3,0.6-1.9
				c0.1-0.2,0.2-0.4,0.4-0.7c1.3-2.3,3.8-3.9,6.8-3.9c2.6,0,4.8,1.3,6.3,3.2c0.8-0.4,1.7-0.7,2.6-0.9c-1.8-3-5.1-4.9-8.8-4.9
				c-4.3,0-8.1,2.7-9.6,6.5l0,0l0,0h-0.8c-4.7,0-8.5,3.8-8.5,8.5s3.8,8.5,8.5,8.5h19.1c0.5,1.2,1.7,2,3,2c1.8,0,3.3-1.4,3.3-3.3
				C307.2,64,305.5,62.6,303.7,62.6L303.7,62.6z"/>
			<path d="M314.2,56.1c-1.9-3.8-5.9-6.5-10.5-6.5c-5.6,0-10.3,3.9-11.4,9.1c-2.7,0.3-5.1,1.7-6.6,3.8h13.9c0.9-1.2,2.4-2,4.1-2
				c2.9,0,5.2,2.3,5.2,5.2s-2.3,5.2-5.2,5.2c-1.7,0-3.1-0.8-4.1-2h-15.5c0.6,4.4,4.4,7.8,9,7.8l0,0H314l0,0
				c5.7,0,10.4-4.7,10.4-10.4C324.5,60.8,319.9,56.1,314.2,56.1L314.2,56.1z"/>
		</g>
	</g>
	<path fill="none" stroke="#000000" stroke-width="3" stroke-linecap="round" stroke-linejoin="round" stroke-miterlimit="10" d="
		M292.1,120c0,0,7.9,4,16.6,0"/>
	<g>
		<g>
			<path d="M610.5,74.9h-2.8v8.4h-1.6v-8.4h-2.8v-1.4h7.2L610.5,74.9L610.5,74.9z"/>
			<path d="M619.5,83.3h-1.9l-1.6-2.6c-0.1-0.2-0.3-0.4-0.4-0.6c-0.1-0.2-0.3-0.3-0.4-0.4c-0.1-0.1-0.3-0.2-0.5-0.2
				s-0.3-0.1-0.6-0.1h-0.7v4h-1.6v-9.8h3.2c0.5,0,0.9,0.1,1.3,0.2c0.4,0.1,0.7,0.3,1,0.5s0.5,0.5,0.7,0.8s0.2,0.7,0.2,1.2
				c0,0.3-0.1,0.7-0.2,0.9c-0.1,0.3-0.2,0.5-0.4,0.8c-0.2,0.2-0.4,0.4-0.7,0.6s-0.6,0.3-0.9,0.4l0,0c0.2,0.1,0.3,0.2,0.5,0.3
				c0.1,0.1,0.3,0.2,0.4,0.4c0.1,0.1,0.2,0.3,0.3,0.4c0.1,0.2,0.2,0.3,0.4,0.6L619.5,83.3z M613.5,74.8V78h1.3c0.2,0,0.5,0,0.7-0.1
				s0.4-0.2,0.5-0.3c0.2-0.1,0.3-0.3,0.4-0.5c0.1-0.2,0.1-0.4,0.1-0.7c0-0.5-0.1-0.8-0.4-1.1s-0.7-0.4-1.3-0.4h-1.3V74.8z"/>
			<path d="M628.6,83.3h-1.8l-0.9-2.5h-3.8l-0.8,2.5h-1.8l3.7-9.8h1.8L628.6,83.3z M625.5,79.5l-1.4-3.9c0-0.1-0.1-0.3-0.1-0.6l0,0
				c0,0.3-0.1,0.5-0.1,0.6l-1.3,3.9H625.5z"/>
			<path d="M635.2,74.9h-3.6v2.9h3.4v1.4h-3.4v4.1H630v-9.8h5.3L635.2,74.9L635.2,74.9z"/>
			<path d="M642.2,74.9h-3.6v2.9h3.4v1.4h-3.4v4.1H637v-9.8h5.3L642.2,74.9L642.2,74.9z"/>
			<path d="M645.6,83.3h-1.7v-9.8h1.7V83.3z"/>
			<path d="M654.8,82.9c-0.7,0.4-1.6,0.6-2.7,0.6c-1.4,0-2.5-0.4-3.4-1.3s-1.3-2.1-1.3-3.5c0-1.6,0.5-2.8,1.4-3.8s2.2-1.4,3.6-1.4
				c0.9,0,1.7,0.1,2.3,0.4v1.5c-0.7-0.4-1.4-0.6-2.2-0.6c-1.1,0-1.9,0.3-2.6,1c-0.7,0.7-1,1.6-1,2.7c0,1.1,0.3,1.9,0.9,2.6
				c0.6,0.6,1.4,1,2.4,1c0.9,0,1.7-0.2,2.4-0.7v1.5H654.8L654.8,82.9z"/>
			<path d="M607.1,100h-1.6v-6.3c0-0.5,0-1.1,0.1-1.9l0,0c-0.1,0.4-0.2,0.7-0.3,0.9l-2.9,7.3h-1.1l-2.9-7.2c-0.1-0.2-0.2-0.5-0.3-1
				l0,0c0,0.4,0.1,1,0.1,1.9v6.3h-1.5v-9.8h2.3l2.6,6.5c0.2,0.5,0.3,0.9,0.4,1.1l0,0c0.2-0.5,0.3-0.9,0.4-1.1l2.6-6.5h2.2L607.1,100
				L607.1,100z"/>
			<path d="M617.5,100h-1.8l-0.9-2.5H611l-0.8,2.5h-1.8l3.7-9.8h1.8L617.5,100z M614.4,96.2l-1.4-3.9c0-0.1-0.1-0.3-0.1-0.6l0,0
				c0,0.3-0.1,0.5-0.1,0.6l-1.3,3.9H614.4z"/>
			<path d="M627.1,100h-1.8l-4.7-7.2c-0.1-0.2-0.2-0.4-0.3-0.6l0,0c0,0.2,0.1,0.7,0.1,1.3v6.4h-1.6v-9.8h1.9l4.5,7
				c0.2,0.3,0.3,0.5,0.4,0.6l0,0c0-0.3-0.1-0.7-0.1-1.3V90h1.6L627.1,100L627.1,100z"/>
			<path d="M637.5,100h-1.8l-0.9-2.5H631l-0.8,2.5h-1.8l3.7-9.8h1.8L637.5,100z M634.4,96.2l-1.4-3.9c0-0.1-0.1-0.3-0.1-0.6l0,0
				c0,0.3-0.1,0.5-0.1,0.6l-1.3,3.9H634.4z"/>
			<path d="M646.3,99.3c-1,0.6-2.1,0.8-3.4,0.8c-1.4,0-2.6-0.4-3.5-1.3s-1.3-2.1-1.3-3.6s0.5-2.7,1.5-3.7s2.2-1.5,3.7-1.5
				c1.1,0,2,0.2,2.7,0.5v1.7c-0.7-0.5-1.6-0.7-2.7-0.7c-1,0-1.9,0.3-2.6,1c-0.7,0.7-1,1.6-1,2.7c0,1.1,0.3,2,0.9,2.6
				c0.6,0.6,1.3,1,2.3,1c0.7,0,1.3-0.1,1.7-0.4V96h-2.1v-1.4h3.7L646.3,99.3L646.3,99.3z"/>
			<path d="M653.9,100h-5.5v-9.8h5.3v1.4H650v2.8h3.4v1.4H650v2.9h3.9V100z"/>
			<path d="M663.2,100h-1.9l-1.6-2.6c-0.1-0.2-0.3-0.4-0.4-0.6c-0.1-0.2-0.3-0.3-0.4-0.4c-0.1-0.1-0.3-0.2-0.5-0.2s-0.3-0.1-0.6-0.1
				h-0.7v4h-1.6v-9.8h3.2c0.5,0,0.9,0.1,1.3,0.2c0.4,0.1,0.7,0.3,1,0.5s0.5,0.5,0.7,0.8s0.2,0.7,0.2,1.2c0,0.3-0.1,0.7-0.2,0.9
				c-0.1,0.3-0.2,0.5-0.4,0.8c-0.2,0.2-0.4,0.4-0.7,0.6s-0.6,0.3-0.9,0.4l0,0c0.2,0.1,0.3,0.2,0.5,0.3c0.1,0.1,0.3,0.2,0.4,0.4
				c0.1,0.1,0.2,0.3,0.3,0.4c0.1,0.2,0.2,0.3,0.4,0.6L663.2,100z M657.2,91.5v3.2h1.3c0.2,0,0.5,0,0.7-0.1s0.4-0.2,0.5-0.3
				c0.2-0.1,0.3-0.3,0.4-0.5c0.1-0.2,0.1-0.4,0.1-0.7c0-0.5-0.1-0.8-0.4-1.1s-0.7-0.4-1.3-0.4L657.2,91.5L657.2,91.5z"/>
		</g>
		<polygon points="636.8,50.1 634.3,52.8 634.3,45.1 642,45.1 639.2,47.8 646.3,54.6 646.3,39.9 636.3,29.6 622.2,29.6 619.7,32.3 
			627.7,40.6 631.3,37.1 631.3,48.3 620.3,48.3 623.7,44.6 615.8,36.5 612.2,40.1 612.2,54.6 622.2,64.9 634.5,64.9 625.1,55.3 
			623.3,57.3 623.3,51.4 628.8,51.4 627.2,53.3 637.4,63.9 643.6,57.5 		"/>
	</g>
	<path fill="none" stroke="#000000" stroke-width="3" stroke-linecap="round" stroke-linejoin="round" stroke-miterlimit="10" d="
		M620.9,120c0,0,7.9,4,16.6,0"/>
	<g>
		<g>
			<path d="M340.4,134.5c-0.7,0.4-1.6,0.6-2.7,0.6c-1.4,0-2.5-0.4-3.4-1.3c-0.9-0.9-1.3-2.1-1.3-3.5c0-1.6,0.5-2.8,1.4-3.8
				s2.2-1.4,3.6-1.4c0.9,0,1.7,0.1,2.3,0.4v1.6c-0.7-0.4-1.4-0.6-2.2-0.6c-1.1,0-1.9,0.3-2.6,1s-1,1.6-1,2.7s0.3,1.9,0.9,2.6
				c0.6,0.6,1.4,1,2.4,1c0.9,0,1.7-0.2,2.4-0.7v1.4H340.4z"/>
			<path d="M346,135c-1.4,0-2.5-0.5-3.4-1.4c-0.8-0.9-1.3-2.1-1.3-3.6c0-1.6,0.4-2.8,1.3-3.8c0.9-0.9,2-1.4,3.5-1.4
				c1.4,0,2.5,0.5,3.3,1.4s1.3,2.1,1.3,3.6c0,1.6-0.4,2.8-1.3,3.8C348.6,134.7,347.5,135,346,135z M346.1,126.5
				c-0.9,0-1.6,0.3-2.2,1s-0.8,1.5-0.8,2.6s0.3,2,0.8,2.6c0.5,0.7,1.3,1,2.1,1c0.9,0,1.7-0.3,2.2-0.9s0.8-1.5,0.8-2.6
				c0-1.2-0.3-2.1-0.8-2.7C347.7,126.9,347,126.5,346.1,126.5z"/>
			<path d="M360.8,135H359l-4.7-7.2c-0.1-0.2-0.2-0.4-0.3-0.6l0,0c0,0.2,0.1,0.7,0.1,1.3v6.4h-1.6v-9.8h1.9l4.5,7
				c0.2,0.3,0.3,0.5,0.4,0.6l0,0c0-0.3-0.1-0.7-0.1-1.3v-6.3h1.6V135z"/>
			<path d="M369.5,126.5h-2.8v8.4h-1.6v-8.4h-2.8v-1.4h7.2L369.5,126.5L369.5,126.5z"/>
			<path d="M376.4,135h-5.5v-9.8h5.3v1.4h-3.6v2.8h3.4v1.4h-3.4v2.9h3.9L376.4,135L376.4,135z"/>
			<path d="M386.4,135h-1.8l-4.7-7.2c-0.1-0.2-0.2-0.4-0.3-0.6l0,0c0,0.2,0.1,0.7,0.1,1.3v6.4h-1.6v-9.8h1.9l4.5,7
				c0.2,0.3,0.3,0.5,0.4,0.6l0,0c0-0.3-0.1-0.7-0.1-1.3v-6.3h1.6V135z"/>
			<path d="M395.1,126.5h-2.8v8.4h-1.6v-8.4h-2.8v-1.4h7.2L395.1,126.5L395.1,126.5z"/>
			<path d="M400.3,135v-9.8h2.8c3.6,0,5.4,1.6,5.4,4.8c0,1.5-0.5,2.7-1.5,3.6c-1,0.9-2.3,1.4-4,1.4H400.3z M401.9,126.5v7h1.3
				c1.1,0,2-0.3,2.7-0.9c0.6-0.6,0.9-1.5,0.9-2.7c0-2.3-1.2-3.4-3.5-3.4C403.3,126.5,401.9,126.5,401.9,126.5z"/>
			<path d="M415.8,135h-5.5v-9.8h5.3v1.4H412v2.8h3.4v1.4H412v2.9h3.9L415.8,135L415.8,135z"/>
			<path d="M422.9,135h-5.4v-9.8h1.6v8.4h3.8V135z"/>
			<path d="M426,135h-1.7v-9.8h1.7V135z"/>
			<path d="M436,125.2l-3.5,9.8h-1.8l-3.4-9.8h1.8l2.4,7.4c0.1,0.2,0.1,0.5,0.2,0.8l0,0c0-0.3,0.1-0.5,0.2-0.8l2.5-7.4
				C434.4,125.2,436,125.2,436,125.2z"/>
			<path d="M442.8,135h-5.5v-9.8h5.3v1.4H439v2.8h3.4v1.4H439v2.9h3.9L442.8,135L442.8,135z"/>
			<path d="M452.1,135h-1.9l-1.6-2.6c-0.1-0.2-0.3-0.4-0.4-0.6s-0.3-0.3-0.4-0.4c-0.1-0.1-0.3-0.2-0.5-0.2s-0.3-0.1-0.6-0.1H446v4
				h-1.6v-9.8h3.2c0.5,0,0.9,0.1,1.3,0.2c0.4,0.1,0.7,0.3,1,0.5s0.5,0.5,0.7,0.8s0.2,0.7,0.2,1.2c0,0.3-0.1,0.7-0.2,0.9
				c-0.1,0.3-0.2,0.5-0.4,0.8c-0.2,0.2-0.4,0.4-0.7,0.6c-0.3,0.2-0.6,0.3-0.9,0.4l0,0c0.2,0.1,0.3,0.2,0.5,0.3
				c0.1,0.1,0.3,0.2,0.4,0.4c0.1,0.1,0.2,0.3,0.3,0.4c0.1,0.2,0.2,0.3,0.4,0.6L452.1,135z M446.1,126.5v3.2h1.3c0.2,0,0.5,0,0.7-0.1
				s0.4-0.2,0.5-0.3c0.2-0.1,0.3-0.3,0.4-0.5s0.1-0.4,0.1-0.7c0-0.5-0.1-0.8-0.4-1.1s-0.7-0.4-1.3-0.4L446.1,126.5L446.1,126.5z"/>
			<path d="M459.8,125.2l-3.2,6.2v3.5H455v-3.5l-3.1-6.2h1.8l1.9,4.2c0,0,0.1,0.2,0.2,0.6l0,0c0-0.1,0.1-0.3,0.2-0.6l2-4.2H459.8z"
				/>
			<path d="M352.7,151.7H351l-4.7-7.2c-0.1-0.2-0.2-0.4-0.3-0.6l0,0c0,0.2,0.1,0.7,0.1,1.3v6.4h-1.6v-9.8h1.9l4.5,7
				c0.2,0.3,0.3,0.5,0.4,0.6l0,0c0-0.3-0.1-0.7-0.1-1.3v-6.3h1.6L352.7,151.7L352.7,151.7z"/>
			<path d="M360.6,151.7h-5.5v-9.8h5.3v1.4h-3.6v2.8h3.4v1.4h-3.4v2.9h3.9L360.6,151.7L360.6,151.7z"/>
			<path d="M368.7,143.3h-2.8v8.4h-1.6v-8.4h-2.8v-1.4h7.2L368.7,143.3L368.7,143.3z"/>
			<path d="M382.5,141.8l-2.7,9.8H378l-1.9-6.8c-0.1-0.3-0.1-0.6-0.1-1l0,0c0,0.3-0.1,0.6-0.2,0.9l-1.9,6.8H372l-2.7-9.8h1.8
				l1.8,7.1c0.1,0.3,0.1,0.6,0.1,0.9l0,0c0-0.2,0.1-0.5,0.2-0.9l2-7.1h1.7l1.8,7.2c0.1,0.2,0.1,0.5,0.1,0.9l0,0
				c0-0.2,0.1-0.5,0.2-0.9l1.7-7.2L382.5,141.8L382.5,141.8z"/>
			<path d="M387.9,151.8c-1.4,0-2.5-0.5-3.4-1.4c-0.8-0.9-1.3-2.1-1.3-3.6c0-1.6,0.4-2.8,1.3-3.8c0.9-0.9,2-1.4,3.5-1.4
				c1.4,0,2.5,0.5,3.3,1.4s1.3,2.1,1.3,3.6c0,1.6-0.4,2.8-1.3,3.8C390.4,151.3,389.3,151.8,387.9,151.8z M387.9,143.2
				c-0.9,0-1.6,0.3-2.2,1s-0.8,1.5-0.8,2.6s0.3,2,0.8,2.6c0.5,0.7,1.3,1,2.1,1c0.9,0,1.7-0.3,2.2-0.9c0.5-0.6,0.8-1.5,0.8-2.6
				c0-1.2-0.3-2.1-0.8-2.7S388.9,143.2,387.9,143.2z"/>
			<path d="M401.9,151.7H400l-1.6-2.6c-0.1-0.2-0.3-0.4-0.4-0.6s-0.3-0.3-0.4-0.4c-0.1-0.1-0.3-0.2-0.5-0.2s-0.3-0.1-0.6-0.1H396v4
				h-1.6V142h3.2c0.5,0,0.9,0.1,1.3,0.2c0.4,0.1,0.7,0.3,1,0.5s0.5,0.5,0.7,0.8s0.2,0.7,0.2,1.2c0,0.3-0.1,0.7-0.2,0.9
				c-0.1,0.3-0.2,0.5-0.4,0.8c-0.2,0.2-0.4,0.4-0.7,0.6c-0.3,0.2-0.6,0.3-0.9,0.4l0,0c0.2,0.1,0.3,0.2,0.5,0.3
				c0.1,0.1,0.3,0.2,0.4,0.4c0.1,0.1,0.2,0.3,0.3,0.4c0.1,0.2,0.2,0.3,0.4,0.6L401.9,151.7z M396,143.3v3.2h1.3c0.2,0,0.5,0,0.7-0.1
				s0.4-0.2,0.5-0.3c0.2-0.1,0.3-0.3,0.4-0.5s0.1-0.4,0.1-0.7c0-0.5-0.1-0.8-0.4-1.1s-0.7-0.4-1.3-0.4L396,143.3L396,143.3z"/>
			<path d="M410.4,151.7h-2.1l-3.4-4.5c-0.1-0.2-0.2-0.3-0.2-0.3l0,0v4.8H403v-9.8h1.6v4.6l0,0c0.1-0.1,0.1-0.2,0.2-0.3l3.3-4.3h1.9
				l-3.8,4.7L410.4,151.7z"/>
			<path d="M418.7,153.8h-1.3c-1.4-1.6-2.1-3.6-2.1-5.9c0-2.4,0.7-4.4,2.1-6h1.3c-1.4,1.7-2.1,3.7-2.1,6
				C416.6,150.2,417.3,152.2,418.7,153.8z"/>
			<path d="M426.8,151.3c-0.7,0.4-1.6,0.6-2.7,0.6c-1.4,0-2.5-0.4-3.4-1.3c-0.9-0.9-1.3-2.1-1.3-3.5c0-1.6,0.5-2.8,1.4-3.8
				s2.2-1.4,3.6-1.4c0.9,0,1.7,0.1,2.3,0.4v1.6c-0.7-0.4-1.4-0.6-2.2-0.6c-1.1,0-1.9,0.3-2.6,1s-1,1.6-1,2.7c0,1.1,0.3,1.9,0.9,2.6
				c0.6,0.6,1.4,1,2.4,1c0.9,0,1.7-0.2,2.4-0.7v1.4H426.8z"/>
			<path d="M428.7,151.7v-9.8h2.8c3.6,0,5.4,1.6,5.4,4.8c0,1.5-0.5,2.7-1.5,3.6s-2.3,1.4-4,1.4H428.7z M430.3,143.3v7h1.3
				c1.1,0,2-0.3,2.7-0.9c0.6-0.6,0.9-1.5,0.9-2.7c0-2.3-1.2-3.4-3.5-3.4L430.3,143.3L430.3,143.3z"/>
			<path d="M446.9,151.7h-1.8l-4.7-7.2c-0.1-0.2-0.2-0.4-0.3-0.6l0,0c0,0.2,0.1,0.7,0.1,1.3v6.4h-1.6v-9.8h1.9l4.5,7
				c0.2,0.3,0.3,0.5,0.4,0.6l0,0c0-0.3-0.1-0.7-0.1-1.3v-6.3h1.6V151.7z"/>
			<path d="M449.6,153.8h-1.3c1.4-1.7,2.1-3.7,2.1-6s-0.7-4.3-2.1-6h1.3c1.4,1.7,2.2,3.7,2.2,6C451.8,150.3,451,152.3,449.6,153.8z"
				/>
		</g>
		<path d="M416.7,95.4c0.3-1,0.4-2,0.4-3.1c0-4.2-2-7.8-5.2-10l-4.9,8.3c-0.2,0.3,0,0.6,0.3,0.6h6.3c0.4,0,0.5,0.2,0.2,0.5
			l-16.3,18.6c-0.2,0.3-0.3,0.2-0.2-0.1l5.2-12.5c0.1-0.3-0.1-0.6-0.4-0.6h-5c-0.4,0-0.5-0.2-0.4-0.6l6-16c-4,0.8-7.4,3.5-8.9,7.3
			c-1.6-1.9-3.9-3.1-6.5-3.1c-4.7,0-8.6,3.9-8.6,8.6c0,0.8,0.1,1.6,0.3,2.4c-3.9,1.4-6.6,5.2-6.6,9.6c0,5.6,4.5,10.2,10.1,10.2h31.2
			c5.6,0,10.1-4.6,10.1-10.2C423.7,100.5,420.8,96.7,416.7,95.4L416.7,95.4z"/>
	</g>
	<path fill="none" stroke="#000000" stroke-width="3" stroke-linecap="round" stroke-linejoin="round" stroke-miterlimit="10" d="
		M389.7,173.5c0,0,7.9,4,16.6,0"/>
	<g>
		<g>
			<path d="M504.9,135h-1.8l-0.9-2.5h-3.8l-0.8,2.5h-1.8l3.7-9.8h1.8L504.9,135z M501.8,131.2l-1.4-3.9c0-0.1-0.1-0.3-0.1-0.6l0,0
				c0,0.3-0.1,0.5-0.1,0.6l-1.3,3.9H501.8z"/>
			<path d="M513.1,126l-5.3,7.7h5.3v1.4h-7.5v-0.7l5.4-7.6h-5v-1.4h7.2L513.1,126L513.1,126z"/>
			<path d="M522.2,131c0,2.7-1.3,4.1-3.9,4.1c-2.5,0-3.7-1.3-3.7-4v-6h1.6v5.6c0,1.9,0.7,2.9,2.2,2.9c1.4,0,2.1-0.9,2.1-2.8v-5.7
				h1.6v5.9H522.2z"/>
			<path d="M532,135h-1.9l-1.6-2.6c-0.1-0.2-0.3-0.4-0.4-0.6c-0.1-0.2-0.3-0.3-0.4-0.4c-0.1-0.1-0.3-0.2-0.5-0.2s-0.3-0.1-0.6-0.1
				h-0.7v4h-1.6v-9.8h3.2c0.5,0,0.9,0.1,1.3,0.2c0.4,0.1,0.7,0.3,1,0.5s0.5,0.5,0.7,0.8s0.2,0.7,0.2,1.2c0,0.3-0.1,0.7-0.2,0.9
				c-0.1,0.3-0.2,0.5-0.4,0.8c-0.2,0.2-0.4,0.4-0.7,0.6s-0.6,0.3-0.9,0.4l0,0c0.2,0.1,0.3,0.2,0.5,0.3c0.1,0.1,0.3,0.2,0.4,0.4
				c0.1,0.1,0.2,0.3,0.3,0.4c0.1,0.2,0.2,0.3,0.4,0.6L532,135z M526.1,126.5v3.2h1.3c0.2,0,0.5,0,0.7-0.1s0.4-0.2,0.5-0.3
				c0.2-0.1,0.3-0.3,0.4-0.5c0.1-0.2,0.1-0.4,0.1-0.7c0-0.5-0.1-0.8-0.4-1.1s-0.7-0.4-1.3-0.4h-1.3V126.5z"/>
			<path d="M538.6,135h-5.5v-9.8h5.3v1.4h-3.6v2.8h3.4v1.4h-3.4v2.9h3.9v1.3L538.6,135L538.6,135z"/>
			<path d="M549.6,135h-5.4v-9.8h1.6v8.4h3.8L549.6,135L549.6,135z"/>
			<path d="M554.6,135.2c-1.4,0-2.5-0.5-3.4-1.4c-0.8-0.9-1.3-2.1-1.3-3.6c0-1.6,0.4-2.8,1.3-3.8c0.9-0.9,2-1.4,3.5-1.4
				c1.4,0,2.5,0.5,3.3,1.4s1.3,2.1,1.3,3.6c0,1.6-0.4,2.8-1.3,3.8C557.1,134.7,556,135.2,554.6,135.2z M554.6,126.5
				c-0.9,0-1.6,0.3-2.2,1c-0.6,0.7-0.8,1.5-0.8,2.6s0.3,2,0.8,2.6c0.5,0.7,1.3,1,2.1,1c0.9,0,1.7-0.3,2.2-0.9s0.8-1.5,0.8-2.6
				c0-1.2-0.3-2.1-0.8-2.7C556.2,126.9,555.6,126.5,554.6,126.5z"/>
			<path d="M568.9,135h-1.8l-0.9-2.5h-3.8l-0.8,2.5h-1.8l3.7-9.8h1.8L568.9,135z M565.8,131.2l-1.4-3.9c0-0.1-0.1-0.3-0.1-0.6l0,0
				c0,0.3-0.1,0.5-0.1,0.6l-1.3,3.9H565.8z"/>
			<path d="M570.2,135v-9.8h2.8c3.6,0,5.4,1.6,5.4,4.8c0,1.5-0.5,2.7-1.5,3.6c-1,0.9-2.3,1.4-4,1.4H570.2z M571.8,126.5v7h1.3
				c1.1,0,2-0.3,2.7-0.9c0.6-0.6,0.9-1.5,0.9-2.7c0-2.3-1.2-3.4-3.5-3.4C573.2,126.5,571.8,126.5,571.8,126.5z"/>
			<path d="M503.8,151.7v-9.8h3.1c0.9,0,1.7,0.2,2.2,0.6c0.6,0.4,0.8,0.9,0.8,1.6c0,0.6-0.2,1-0.5,1.4s-0.7,0.7-1.3,0.9l0,0
				c0.7,0.1,1.2,0.3,1.6,0.7s0.6,1,0.6,1.6c0,0.8-0.3,1.5-1,2s-1.5,0.8-2.5,0.8h-3L503.8,151.7L503.8,151.7z M505.4,143.3v2.8h1
				c0.6,0,1-0.1,1.3-0.4c0.3-0.3,0.5-0.6,0.5-1.1c0-0.8-0.6-1.3-1.7-1.3H505.4z M505.4,147.3v3.1h1.4c0.6,0,1.1-0.1,1.4-0.4
				s0.5-0.7,0.5-1.2c0-1-0.7-1.5-2.1-1.5L505.4,147.3L505.4,147.3z"/>
			<path d="M520.2,151.7h-1.8l-0.9-2.5h-3.8l-0.8,2.5h-1.8l3.7-9.8h1.8L520.2,151.7z M517.1,147.8l-1.4-3.9c0-0.1-0.1-0.3-0.1-0.6
				l0,0c0,0.3-0.1,0.5-0.1,0.6l-1.3,3.9H517.1z"/>
			<path d="M526.9,151.7h-5.4v-9.8h1.6v8.4h3.8L526.9,151.7L526.9,151.7z"/>
			<path d="M536.7,151.7h-1.8l-0.9-2.5h-3.8l-0.8,2.5h-1.8l3.7-9.8h1.8L536.7,151.7z M533.6,147.8l-1.4-3.9c0-0.1-0.1-0.3-0.1-0.6
				l0,0c0,0.3-0.1,0.5-0.1,0.6l-1.3,3.9H533.6z"/>
			<path d="M546.3,151.7h-1.8l-4.7-7.2c-0.1-0.2-0.2-0.4-0.3-0.6l0,0c0,0.2,0.1,0.7,0.1,1.3v6.4H538v-9.8h1.9l4.5,7
				c0.2,0.3,0.3,0.5,0.4,0.6l0,0c0-0.3-0.1-0.7-0.1-1.3v-6.3h1.6L546.3,151.7L546.3,151.7z"/>
			<path d="M555.5,151.3c-0.7,0.4-1.6,0.6-2.7,0.6c-1.4,0-2.5-0.4-3.4-1.3c-0.9-0.9-1.3-2.1-1.3-3.5c0-1.6,0.5-2.8,1.4-3.8
				s2.2-1.4,3.6-1.4c0.9,0,1.7,0.1,2.3,0.4v1.6c-0.7-0.4-1.4-0.6-2.2-0.6c-1.1,0-1.9,0.3-2.6,1s-1,1.6-1,2.7c0,1.1,0.3,1.9,0.9,2.6
				c0.6,0.6,1.4,1,2.4,1c0.9,0,1.7-0.2,2.4-0.7v1.4H555.5z"/>
			<path d="M562.9,151.7h-5.5v-9.8h5.3v1.4H559v2.8h3.4v1.4H559v2.9h3.9V151.7z"/>
			<path d="M572.1,151.7h-1.9l-1.6-2.6c-0.1-0.2-0.3-0.4-0.4-0.6c-0.1-0.2-0.3-0.3-0.4-0.4c-0.1-0.1-0.3-0.2-0.5-0.2
				s-0.3-0.1-0.6-0.1H566v4h-1.6V142h3.2c0.5,0,0.9,0.1,1.3,0.2c0.4,0.1,0.7,0.3,1,0.5s0.5,0.5,0.7,0.8s0.2,0.7,0.2,1.2
				c0,0.3-0.1,0.7-0.2,0.9c-0.1,0.3-0.2,0.5-0.4,0.8c-0.2,0.2-0.4,0.4-0.7,0.6s-0.6,0.3-0.9,0.4l0,0c0.2,0.1,0.3,0.2,0.5,0.3
				c0.1,0.1,0.3,0.2,0.4,0.4c0.1,0.1,0.2,0.3,0.3,0.4c0.1,0.2,0.2,0.3,0.4,0.6L572.1,151.7z M566.2,143.3v3.2h1.3
				c0.2,0,0.5,0,0.7-0.1s0.4-0.2,0.5-0.3c0.2-0.1,0.3-0.3,0.4-0.5c0.1-0.2,0.1-0.4,0.1-0.7c0-0.5-0.1-0.8-0.4-1.1
				c-0.3-0.3-0.7-0.4-1.3-0.4L566.2,143.3L566.2,143.3z"/>
		</g>
		<path d="M562.1,112.4L557.6,84c-0.1-1.2-1.1-1.3-1.4-1.3h-37.5c-0.3,0-1.3,0.1-1.4,1.3l-5,28.4l0,0c0,0,0,0,0,0.1v0.2l0,0
			c0,0.2,0,0.3,0,0.5c0,2.1,1.7,2.6,2.1,2.6l0,0H560c0.4,0,2.1-0.5,2.1-2.6C562.1,112.9,562.1,112.5,562.1,112.4L562.1,112.4z
			 M547.2,105h-5.5c-0.4,0-0.8-0.4-0.8-0.8s0.4-0.8,0.8-0.8h2.6l-6.2-6.2v12.4l1.9-1.9c0.3-0.3,0.8-0.3,1.1,0s0.3,0.8,0,1.1
			l-3.9,3.9l-3.9-3.9c-0.2-0.2-0.2-0.4-0.2-0.6s0.1-0.4,0.2-0.6c0.3-0.3,0.8-0.3,1.1,0l2,2V97.2l-6.2,6.2h2.8c0.4,0,0.8,0.4,0.8,0.8
			s-0.4,0.8-0.8,0.8h-5.5v-5.5c0-0.4,0.4-0.8,0.8-0.8s0.8,0.4,0.8,0.8v2.8l7.3-7.3v-3.9c-1-0.3-1.7-1.3-1.7-2.4
			c0-1.4,1.1-2.5,2.5-2.5s2.5,1.1,2.5,2.5c0,1.1-0.7,2.1-1.7,2.4V95l7.5,7.5v-3c0-0.4,0.4-0.8,0.8-0.8c0.4,0,0.8,0.4,0.8,0.8
			L547.2,105L547.2,105L547.2,105L547.2,105z"/>
	</g>
	<path fill="none" stroke="#000000" stroke-width="3" stroke-linecap="round" stroke-linejoin="round" stroke-miterlimit="10" d="
		M529,173.5c0,0,7.9,4,16.6,0"/>
</g>
</svg>
