<?xml version="1.0" encoding="utf-8"?>
<!-- Generator: Adobe Illustrator 19.2.0, SVG Export Plug-In . SVG Version: 6.00 Build 0)  -->
<svg version="1.1" id="Layer_1" xmlns="http://www.w3.org/2000/svg" xmlns:xlink="http://www.w3.org/1999/xlink" x="0px" y="0px"
	 width="56px" height="284px" viewBox="0 0 56 284" enable-background="new 0 0 56 284" xml:space="preserve">
<g>
	
		<line fill="none" stroke="#DFDFDE" stroke-width="4" stroke-linecap="round" stroke-linejoin="round" stroke-miterlimit="10" x1="6" y1="-36" x2="7" y2="222.9"/>
	
		<circle fill="none" stroke="#DFDFDE" stroke-width="4" stroke-linecap="round" stroke-linejoin="round" stroke-miterlimit="10" cx="7" cy="228.4" r="5"/>
</g>
<g>
	<path fill="#FFFFFF" d="M30.7,255.7c0.1-0.4,0.2-0.9,0.2-1.3c0-2.9-2.3-5.2-5.1-5.2c-2.1,0-3.9,1.3-4.7,3.2
		c-0.6-0.8-1.6-1.3-2.7-1.3c-2,0-3.6,1.7-3.6,3.7c0,0.3,0,0.7,0.1,1c-1.6,0.6-2.7,2-2.7,3.9c0,2.4,1.9,4.2,4.2,4.2h13
		c2.4,0,4.2-1.8,4.2-4.2C33.6,257.7,32.4,256.2,30.7,255.7L30.7,255.7z M27.8,257.5c-0.4,1.5-1.7,2.6-3.3,2.6c-0.3,0-0.6,0-0.8-0.1
		c-0.3-0.1-0.6-0.2-0.8-0.3l-2.3,2.4c-0.2,0.2-0.4,0.3-0.7,0.3s-0.5-0.1-0.7-0.3c-0.2-0.2-0.3-0.4-0.3-0.7s0.1-0.5,0.3-0.7l2.3-2.4
		c-0.4-0.7-0.5-1.6-0.3-2.4c0.4-1.5,1.7-2.6,3.3-2.6c0.3,0,0.6,0,0.8,0.1c0.9,0.2,1.6,0.8,2.1,1.5C27.9,255.7,28.1,256.6,27.8,257.5
		L27.8,257.5z"/>
	<path fill="#FFFFFF" d="M25.1,254.6c-0.2,0-0.3,0-0.5,0c-0.9,0-1.8,0.6-2,1.6c-0.1,0.6,0,1.2,0.3,1.7c0.1,0.2,0.3,0.4,0.6,0.6
		c0.2,0.1,0.4,0.3,0.7,0.3c0.2,0,0.3,0,0.5,0c0.9,0,1.8-0.6,2-1.6c0.1-0.6,0-1.1-0.3-1.6S25.6,254.8,25.1,254.6L25.1,254.6z"/>
</g>
<path fill="#1EBBEE" d="M55.7,278.4L36,252.1l0,0c-2.1-2.9-4.9-5.4-8.5-6.8c-10-4.2-21.5,0.5-25.7,10.6c-4.2,10,0.5,21.5,10.6,25.7
	c3,1.2,6.1,1.7,9.1,1.4v0.1L55.7,278.4z"/>
<g>
	<path fill="#FFFFFF" d="M27.5,263.8c0-0.1,0-0.3,0-0.4l1.4-0.8c-0.1-0.5-0.2-0.9-0.4-1.3h-1.6c-0.1-0.2-0.3-0.5-0.4-0.7l0.8-1.4
		c-0.3-0.4-0.6-0.7-1-1l-0.8,0.5l-0.3,0.5l-0.7,1.1c1,0.8,1.7,2.1,1.7,3.5c0,2.4-2,4.4-4.4,4.4s-4.4-2-4.4-4.4c0-2.2,1.6-4,3.7-4.3
		l0.3-1.4l-0.8-1.4c-0.5,0.1-0.9,0.2-1.3,0.4v1.6c-0.2,0.1-0.5,0.2-0.7,0.4l-1.4-0.8c-0.4,0.3-0.7,0.6-1,1l0.8,1.4
		c-0.2,0.2-0.3,0.5-0.4,0.7H15c-0.2,0.4-0.3,0.9-0.4,1.3l1.4,0.8c0,0.1,0,0.3,0,0.4c0,0.1,0,0.3,0,0.4l-1.4,0.8
		c0.1,0.5,0.2,0.9,0.4,1.3h1.6c0.1,0.3,0.3,0.5,0.4,0.7l-0.8,1.4c0.3,0.4,0.6,0.7,1,1l1.4-0.8c0.2,0.2,0.5,0.3,0.7,0.4v1.6
		c0.4,0.2,0.9,0.3,1.3,0.4l0.8-1.4c0.1,0,0.3,0,0.4,0c0.1,0,0.3,0,0.4,0l0.8,1.4c0.5-0.1,0.9-0.2,1.3-0.4v-1.6
		c0.2-0.1,0.5-0.3,0.7-0.4l1.4,0.8c0.3-0.3,0.7-0.6,1-1l-0.8-1.4c0.1-0.2,0.3-0.5,0.4-0.7h1.6c0.2-0.4,0.3-0.9,0.4-1.3l-1.4-0.8
		C27.5,264.1,27.5,264,27.5,263.8L27.5,263.8z"/>
	<path fill="#FFFFFF" d="M13.4,270.5c-0.5,0-1-0.4-1-1s0.4-1,1-1c0.5,0,1,0.4,1,1S14,270.5,13.4,270.5L13.4,270.5z M15.3,267.2
		L15.3,267.2l-0.8,0.4l-0.5-0.2l-0.3-0.8H13v0.1l-0.2,0.7l-0.5,0.2l-0.8-0.4l-0.5,0.5v0.1l0.4,0.7l-0.2,0.5l-0.8,0.3v0.7h0.1
		l0.7,0.2l0.2,0.5l-0.4,0.8l0.5,0.5h0.1l0.7-0.4l0.5,0.2l0.3,0.8h0.7v-0.1l0.2-0.7l0.5-0.2l0.8,0.4l0.5-0.5v-0.1l-0.3-0.7l0.2-0.5
		l0.8-0.3v-0.7h-0.1l-0.7-0.2l-0.2-0.5l0.3-0.7c-0.1-0.1-0.1-0.2-0.2-0.3L15.3,267.2L15.3,267.2L15.3,267.2z"/>
	<path fill="#FFFFFF" d="M15.6,267.4c0.1,0.1,0.1,0.2,0.2,0.3v-0.1L15.6,267.4L15.6,267.4L15.6,267.4z"/>
	<path fill="#FFFFFF" d="M22.7,255.8l-0.3,0.8l-0.5,1.5l-0.2,0.7l-0.2,0.6l-1.3,4.2c0,0.1,0,0.2,0.1,0.2h1.2h0.1v0.1l-1.3,3.1
		c0,0.1,0,0.1,0,0l4-4.5c0.1-0.1,0-0.1-0.1-0.1h-1.3h-0.2c-0.1,0-0.1-0.1-0.1-0.1l1.2-2.2l0.3-0.5l0.3-0.6l0.7-1.3l0.4-0.8
		C24.9,256.3,23.9,255.9,22.7,255.8L22.7,255.8z"/>
</g>
</svg>
