<?xml version="1.0" encoding="utf-8"?>
<!-- Generator: Adobe Illustrator 18.0.0, SVG Export Plug-In . SVG Version: 6.00 Build 0)  -->
<!DOCTYPE svg PUBLIC "-//W3C//DTD SVG 1.1//EN" "http://www.w3.org/Graphics/SVG/1.1/DTD/svg11.dtd">
<svg version="1.1" id="Layer_1" xmlns="http://www.w3.org/2000/svg" xmlns:xlink="http://www.w3.org/1999/xlink" x="0px" y="0px"
	 width="960px" height="627px" viewBox="0 0 960 627" enable-background="new 0 0 960 627" xml:space="preserve">
<path fill="#FFFFFF" d="M589.5,303.3c-3.4,0-6.2-0.8-6.2-1.9c0-1,2.8-1.8,6.2-1.8s6.1,0.8,6.1,1.8
	C595.7,302.6,592.9,303.3,589.5,303.3L589.5,303.3z M580.9,314.2v3.4c0,1.6,3.1,3.3,7.3,3.6h2.8c4.1-0.3,7.3-1.7,7.3-3.3v-16
	c0-1.8-3.9-3.4-8.7-3.4s-8.6,1.6-8.6,3.4L580.9,314.2L580.9,314.2L580.9,314.2L580.9,314.2z"/>
<g>
	<path fill="#FFFFFF" d="M442.3,243.5v-1.3c0.1,0.1,0.3,0.2,0.4,0.3c0.2,0.1,0.3,0.2,0.5,0.2c0.2,0.1,0.4,0.1,0.6,0.1s0.4,0,0.5,0
		c0.5,0,0.9-0.1,1.2-0.3c0.3-0.2,0.4-0.4,0.4-0.8c0-0.2,0-0.3-0.1-0.5s-0.2-0.3-0.4-0.4c-0.2-0.1-0.3-0.2-0.6-0.3
		c-0.3-0.1-0.4-0.2-0.7-0.3c-0.3-0.1-0.5-0.3-0.7-0.4s-0.4-0.3-0.6-0.5s-0.3-0.4-0.4-0.6s-0.1-0.5-0.1-0.8c0-0.4,0.1-0.7,0.2-1
		c0.2-0.3,0.4-0.5,0.7-0.7c0.3-0.2,0.6-0.3,0.9-0.4s0.7-0.1,1.1-0.1c0.8,0,1.4,0.1,1.8,0.3v1.3c-0.4-0.3-1-0.5-1.7-0.5
		c-0.2,0-0.4,0-0.6,0.1s-0.4,0.1-0.5,0.2c-0.2,0.1-0.3,0.2-0.4,0.3s-0.1,0.3-0.1,0.5s0,0.3,0.1,0.5s0.2,0.2,0.3,0.3
		c0.1,0.1,0.3,0.2,0.5,0.3s0.4,0.2,0.7,0.3c0.3,0.1,0.5,0.3,0.8,0.4c0.2,0.2,0.5,0.3,0.6,0.5c0.2,0.2,0.3,0.4,0.4,0.6
		s0.2,0.5,0.2,0.8c0,0.4-0.1,0.7-0.2,1c-0.2,0.3-0.4,0.5-0.6,0.7c-0.3,0.2-0.6,0.3-0.9,0.4s-0.7,0.1-1.1,0.1c-0.1,0-0.3,0-0.5,0
		s-0.4,0-0.6-0.1s-0.4-0.1-0.6-0.1C442.5,243.7,442.4,243.7,442.3,243.5z"/>
	<path fill="#FFFFFF" d="M458.4,236l-2.1,7.8h-1.5l-1.5-5.5c-0.1-0.2-0.1-0.5-0.1-0.8l0,0c0,0.3-0.1,0.5-0.1,0.8l-1.5,5.5h-1.5
		l-2.2-7.8h1.4l1.4,5.7c0.1,0.2,0.1,0.5,0.1,0.8l0,0c0-0.2,0.1-0.4,0.2-0.8l1.6-5.7h1.3l1.5,5.8c0.1,0.2,0.1,0.4,0.1,0.7l0,0
		c0-0.2,0.1-0.4,0.1-0.7l1.4-5.7L458.4,236L458.4,236L458.4,236z"/>
	<path fill="#FFFFFF" d="M465.5,243.9h-1.4l-0.7-2h-3.1l-0.7,2h-1.4l2.9-7.8h1.5L465.5,243.9z M463,240.9l-1.1-3.1
		c0-0.1-0.1-0.3-0.1-0.5l0,0c0,0.2-0.1,0.4-0.1,0.5l-1.1,3.1H463z"/>
	<path fill="#FFFFFF" d="M472.6,243.9h-1.5l-1.2-2.1c-0.1-0.2-0.2-0.4-0.3-0.5c-0.1-0.1-0.2-0.2-0.3-0.3c-0.1-0.1-0.2-0.2-0.4-0.2
		c-0.1,0-0.3-0.1-0.4-0.1H468v3.2h-1.3V236h2.6c0.4,0,0.7,0,1,0.1s0.6,0.2,0.8,0.4s0.4,0.4,0.5,0.7c0.1,0.3,0.2,0.6,0.2,0.9
		s0,0.5-0.1,0.8c-0.1,0.2-0.2,0.4-0.3,0.6s-0.3,0.3-0.5,0.5s-0.5,0.2-0.7,0.3l0,0c0.1,0.1,0.3,0.2,0.4,0.3s0.2,0.2,0.3,0.3
		c0.1,0.1,0.2,0.2,0.3,0.3c0.1,0.1,0.2,0.3,0.3,0.4L472.6,243.9z M467.9,237.2v2.5h1.1c0.2,0,0.4,0,0.6-0.1s0.3-0.2,0.4-0.3
		s0.2-0.3,0.3-0.4c0.1-0.2,0.1-0.4,0.1-0.6c0-0.4-0.1-0.7-0.4-0.9c-0.2-0.2-0.6-0.3-1-0.3L467.9,237.2L467.9,237.2z"/>
	<path fill="#FFFFFF" d="M481.9,243.9h-1.3v-5c0-0.4,0-0.9,0.1-1.5l0,0c-0.1,0.3-0.2,0.6-0.2,0.7l-2.3,5.8h-0.9L475,238
		c-0.1-0.2-0.1-0.4-0.2-0.8l0,0c0,0.3,0,0.8,0,1.5v5h-1.2V236h1.8l2.1,5.2c0.2,0.4,0.3,0.7,0.3,0.9l0,0c0.1-0.4,0.2-0.7,0.3-0.9
		l2.1-5.2h1.8L481.9,243.9L481.9,243.9z"/>
</g>
<rect x="471.4" y="230.4" fill="none" width="16.1" height="19.2"/>
<path fill="none" d="M490.3,229v22c0,0.8-0.6,1.4-1.4,1.4h-17.5V268h125V94.5h-125v133.2h17.5C489.7,227.7,490.3,228.3,490.3,229z"
	/>
<rect x="456.1" y="230.4" fill="none" width="12.5" height="19.2"/>
<path fill="none" d="M434.2,251v-21.9c0-0.8,0.6-1.4,1.4-1.4h17.7V94.5h-125V268h125v-15.6h-17.7C434.9,252.4,434.2,251.8,434.2,251
	z"/>
<rect x="437" y="230.4" fill="none" width="16.3" height="19.2"/>
<rect x="471.4" y="190.6" fill="none" width="13.3" height="19.2"/>
<rect x="439.8" y="190.6" fill="none" width="13.6" height="19.2"/>
<path d="M228.9,214l-19.7-26.3l0,0c-2.1-2.9-4.9-5.4-8.5-6.8c-10-4.2-21.5,0.5-25.7,10.6c-4.2,10,0.5,21.5,10.6,25.7
	c3,1.2,6.1,1.7,9.1,1.4v0.1L228.9,214z"/>
<g>
	<path fill="#FFFFFF" d="M200.7,199.4c0-0.1,0-0.3,0-0.4l1.4-0.8c-0.1-0.5-0.2-0.9-0.4-1.3h-1.6c-0.1-0.2-0.3-0.5-0.4-0.7l0.8-1.4
		c-0.3-0.4-0.6-0.7-1-1l-0.8,0.5l-0.3,0.5l-0.7,1.1c1,0.8,1.7,2.1,1.7,3.5c0,2.4-2,4.4-4.4,4.4s-4.4-2-4.4-4.4c0-2.2,1.6-4,3.7-4.3
		l0.3-1.4l-0.8-1.4c-0.5,0.1-0.9,0.2-1.3,0.4v1.6c-0.2,0.1-0.5,0.2-0.7,0.4l-1.4-0.8c-0.4,0.3-0.7,0.6-1,1l0.8,1.4
		c-0.2,0.2-0.3,0.5-0.4,0.7h-1.6c-0.2,0.4-0.3,0.9-0.4,1.3l1.4,0.8c0,0.1,0,0.3,0,0.4s0,0.3,0,0.4l-1.4,0.8c0.1,0.5,0.2,0.9,0.4,1.3
		h1.6c0.1,0.3,0.3,0.5,0.4,0.7l-0.8,1.4c0.3,0.4,0.6,0.7,1,1l1.4-0.8c0.2,0.2,0.5,0.3,0.7,0.4v1.6c0.4,0.2,0.9,0.3,1.3,0.4l0.8-1.4
		c0.1,0,0.3,0,0.4,0c0.1,0,0.3,0,0.4,0l0.8,1.4c0.5-0.1,0.9-0.2,1.3-0.4v-1.6c0.2-0.1,0.5-0.3,0.7-0.4l1.4,0.8c0.3-0.3,0.7-0.6,1-1
		l-0.8-1.4c0.1-0.2,0.3-0.5,0.4-0.7h1.6c0.2-0.4,0.3-0.9,0.4-1.3l-1.4-0.8C200.7,199.7,200.7,199.5,200.7,199.4L200.7,199.4z"/>
	<path fill="#FFFFFF" d="M186.6,206c-0.5,0-1-0.4-1-1s0.4-1,1-1c0.5,0,1,0.4,1,1C187.6,205.7,187.2,206,186.6,206L186.6,206z
		 M188.5,202.7L188.5,202.7l-0.8,0.4l-0.5-0.2l-0.3-0.8h-0.7v0.1l-0.2,0.7l-0.5,0.2l-0.8-0.4l-0.5,0.5v0.1l0.4,0.7l-0.2,0.5
		l-0.8,0.3v0.7h0.1l0.7,0.2l0.2,0.5l-0.4,0.8l0.5,0.5h0.1l0.7-0.4l0.5,0.2l0.3,0.8h0.7V208l0.2-0.7l0.5-0.2l0.8,0.4l0.5-0.5v-0.1
		l-0.3-0.7l0.2-0.5l0.8-0.3v-0.7h-0.1l-0.7-0.2l-0.2-0.5l0.3-0.7c-0.1-0.1-0.1-0.2-0.2-0.3L188.5,202.7L188.5,202.7L188.5,202.7z"/>
	<path fill="#FFFFFF" d="M188.8,203c0.1,0.1,0.1,0.2,0.2,0.3v-0.1L188.8,203L188.8,203L188.8,203z"/>
	<path fill="#FFFFFF" d="M195.9,191.4l-0.3,0.8l-0.5,1.5l-0.2,0.7l-0.2,0.6l-1.3,4.2c0,0.1,0,0.2,0.1,0.2h1.2h0.1v0.1l-1.3,3.1
		c0,0.1,0,0.1,0,0l4-4.5c0.1-0.1,0-0.1-0.1-0.1h-1.3h-0.2c-0.1,0-0.1-0.1-0.1-0.1l1.2-2.2l0.3-0.5l0.3-0.6l0.7-1.3l0.4-0.8
		C198.1,191.9,197,191.5,195.9,191.4L195.9,191.4z"/>
</g>
<path d="M211.5,181c0.7,0.1,1.4,0.1,2,0.2l32.3,2.5l-13.6-29.5l0,0c-1.4-3.4-3.7-6.5-7-8.8c-8.9-6.2-21.2-4-27.4,4.9
	s-4,21.2,4.9,27.4c2.6,1.8,5.5,2.9,8.5,3.3l0,0H211.5z"/>
<g>
	<path fill="#FFFFFF" d="M221,160.8c0.1-0.4,0.2-0.9,0.2-1.3c0-2.9-2.3-5.2-5.1-5.2c-2.1,0-3.9,1.3-4.7,3.2
		c-0.6-0.8-1.6-1.3-2.7-1.3c-2,0-3.6,1.7-3.6,3.7c0,0.3,0,0.7,0.1,1c-1.6,0.6-2.7,2-2.7,3.9c0,2.4,1.9,4.2,4.2,4.2h13
		c2.4,0,4.2-1.8,4.2-4.2C223.9,162.9,222.7,161.4,221,160.8L221,160.8z M218.1,162.5c-0.4,1.5-1.7,2.6-3.3,2.6c-0.3,0-0.6,0-0.8-0.1
		c-0.3-0.1-0.6-0.2-0.8-0.3l-2.3,2.4c-0.2,0.2-0.4,0.3-0.7,0.3s-0.5-0.1-0.7-0.3s-0.3-0.4-0.3-0.7c0-0.3,0.1-0.5,0.3-0.7l2.3-2.4
		c-0.4-0.7-0.5-1.6-0.3-2.4c0.4-1.5,1.7-2.6,3.3-2.6c0.3,0,0.6,0,0.8,0.1c0.9,0.2,1.6,0.8,2.1,1.5
		C218.2,160.9,218.3,161.8,218.1,162.5L218.1,162.5z"/>
	<path fill="#FFFFFF" d="M215.4,159.8c-0.2,0-0.3,0-0.5,0c-0.9,0-1.8,0.6-2,1.6c-0.1,0.6,0,1.2,0.3,1.7c0.1,0.2,0.3,0.4,0.6,0.6
		c0.2,0.1,0.4,0.3,0.7,0.3c0.2,0,0.3,0,0.5,0c0.9,0,1.8-0.6,2-1.6c0.1-0.6,0-1.1-0.3-1.6S215.9,159.9,215.4,159.8L215.4,159.8z"/>
</g>
<path d="M699.8,105.7c-8.1-7.3-20.5-6.6-27.8,1.5c-2.1,2.3-3.5,5-4.3,7.8l0,0v0.1c-0.2,0.8-0.4,1.7-0.5,2.5l-6.4,31.5l30.7-9.8
	c0.8-0.2,1.6-0.4,2.4-0.7l0.2-0.1l0,0c2.7-1.1,5.2-2.8,7.3-5.1C708.5,125.4,707.9,113,699.8,105.7z"/>
<path fill="#FFFFFF" d="M686.7,109.5c-4.8,0-8.7,1.6-8.7,3.3v15.8c0,1.7,3.9,3.4,8.7,3.4s8.7-1.5,8.7-3.3V113
	C695.4,111.3,691.5,109.5,686.7,109.5L686.7,109.5z M678.2,129.5v-0.2C678.2,129.4,678.2,129.5,678.2,129.5L678.2,129.5z
	 M684.2,119.7c-0.6,0-0.8-0.2-0.8,0.5v1.2c0,0.9-0.1,1.5-0.8,1.7v0.1c0.6,0.3,0.8,1,0.8,2.1v1.4c0,0.5,0.1,0.5,0.2,0.6
	c0.1,0.1,0.3,0.2,0.6,0.2v1.2c-0.9,0-1.5-0.2-1.9-0.5s-0.6-1-0.6-1.9v-1.5c0-0.8-0.3-0.8-0.8-0.8v-1.6c0.6,0,0.8,0,0.8-0.7v-1.2
	c0-0.8,0.2-1.3,0.6-1.5c0.4-0.3,1-0.5,1.9-0.5V119.7L684.2,119.7L684.2,119.7z M692.8,122.5v1.3c-0.6,0-0.8,0-0.8,0.8v1.5
	c0,0.9-0.2,1.5-0.6,1.9c-0.4,0.3-1,0.5-2,0.5v-1.2c0.3,0,0.5-0.1,0.6-0.2c0.1-0.2,0.2-0.2,0.2-0.6v-1.4c0-1.1,0.2-1.7,0.8-2.1v0
	c-0.6-0.2-0.8-0.8-0.8-1.7V120c0-0.6-0.3-0.5-0.8-0.5v-1.4c0.9,0,1.5,0.2,1.9,0.5s0.6,0.8,0.6,1.5v1.2c0,0.7,0.3,0.6,0.8,0.6
	L692.8,122.5L692.8,122.5L692.8,122.5z M686.7,114.5c-3.4,0-6.2-0.8-6.2-1.9s2.8-1.9,6.2-1.9s6.2,0.8,6.2,1.9
	C692.9,113.8,690.1,114.5,686.7,114.5L686.7,114.5z"/>
<path d="M730,141c-6.7-8.5-19.1-10-27.6-3.3c-2.5,2-4.4,4.5-5.7,7.2l0,0l-0.1,0.3c-0.2,0.5-0.5,1.1-0.7,1.7L684,177.2l31.8-4.3
	c0.9-0.1,1.8-0.2,2.7-0.4h0.1l0,0c2.8-0.6,5.6-1.8,8-3.8C735.2,161.9,736.7,149.5,730,141z"/>
<g>
	<path fill="#FFFFFF" d="M707.2,146.2c0-0.7,2.3-1.3,5.2-1.3s5.2,0.6,5.2,1.3c0,0.7-2.3,1.3-5.2,1.3S707.2,146.9,707.2,146.2
		L707.2,146.2z M711.8,163.7V151c0-1.6,2.5-2.3,6-2.3c0.8,0,1.6,0,2.3,0.1V146c0-1.3-3.5-2.4-7.8-2.4s-7.8,1.1-7.8,2.4v16.2
		c0,1.4,3.5,2.5,7.8,2.5h0.5C712.2,164.5,711.8,164,711.8,163.7L711.8,163.7z"/>
	<path fill="#FFFFFF" d="M718.1,152.9c-2.1,0-3.8-0.4-3.8-1c0-0.5,1.7-1,3.8-1s3.8,0.4,3.8,1C721.9,152.4,720.2,152.9,718.1,152.9
		L718.1,152.9z M721.4,158l-6.9,5.7l2.7-4.4h-2.3l6.9-5.7l-2.7,4.4H721.4L721.4,158L721.4,158z M718.1,149.9c-3.1,0-5.4,0.8-5.4,1.7
		v11.6c0,1,2.3,1.8,5.4,1.8s5.6-0.8,5.6-1.8v-11.6C723.7,150.5,721.2,149.9,718.1,149.9L718.1,149.9z"/>
</g>
<path d="M753.9,181.4c-4.5-9.9-16.2-14.2-26.1-9.7c-3.1,1.4-5.7,3.6-7.6,6.2l0,0l-0.1,0.2c-0.1,0.2-0.2,0.3-0.3,0.5l-18.9,27.2
	l33,3.4c0.2,0,0.3,0,0.5,0l0.8,0.1l0,0c3,0.1,6.1-0.4,9.1-1.8C754.1,203,758.4,191.3,753.9,181.4z"/>
<g>
	<path fill="#FFFFFF" d="M726.8,188h20l-5.2-4.8v2.4h-14.4v-1.9c0-0.9,0.4-1.7,1.4-1.7h14.8c0.9,0,1.8,0.8,1.8,1.7v0.9l1.8,1.5v-2.4
		c0-1.9-1.7-3.5-3.6-3.5h-14.8c-1.9,0-3.2,1.6-3.2,3.5v4.3H726.8L726.8,188L726.8,188z"/>
	<path fill="#FFFFFF" d="M745,189.3h-19.9l5.1,4.7v-3h15v2.4c0,0.9-0.9,1.8-1.8,1.8h-14.8c-0.9,0-1.4-0.9-1.4-1.8v-0.9l-1.8-1.5v2.4
		c0,1.9,1.3,3,3.2,3h3.3l7.3,5.2l-0.6-5.2h4.8c1.9,0,3.6-1.1,3.6-3v-4.2h-2V189.3L745,189.3z"/>
</g>
<g>
	<path d="M419.4,405.8V396h2.8c3.6,0,5.4,1.6,5.4,4.8c0,1.5-0.5,2.7-1.5,3.6s-2.3,1.4-4,1.4H419.4z M421,397.5v7h1.3
		c1.1,0,2-0.3,2.7-0.9c0.6-0.6,0.9-1.5,0.9-2.7c0-2.3-1.2-3.4-3.5-3.4L421,397.5L421,397.5z"/>
	<path d="M437.1,405.8h-1.8l-0.9-2.5h-3.8l-0.8,2.5H428l3.7-9.8h1.8L437.1,405.8z M434.1,402.1l-1.4-3.9c0-0.1-0.1-0.3-0.1-0.6l0,0
		c0,0.3-0.1,0.5-0.1,0.6l-1.3,3.9H434.1z"/>
	<path d="M443.8,397.5H441v8.4h-1.6v-8.4h-2.8v-1.4h7.2L443.8,397.5L443.8,397.5z"/>
	<path d="M452.2,405.8h-1.8l-0.9-2.5h-3.8l-0.8,2.5h-1.8l3.7-9.8h1.8L452.2,405.8z M449.1,402.1l-1.4-3.9c0-0.1-0.1-0.3-0.1-0.6l0,0
		c0,0.3-0.1,0.5-0.1,0.6l-1.3,3.9H449.1z"/>
	<path d="M453.5,405.8V396h3.1c0.9,0,1.7,0.2,2.2,0.6c0.6,0.4,0.8,0.9,0.8,1.6c0,0.6-0.2,1-0.5,1.4s-0.7,0.7-1.3,0.9l0,0
		c0.7,0.1,1.2,0.3,1.6,0.7s0.6,1,0.6,1.6c0,0.8-0.3,1.5-1,2s-1.5,0.8-2.5,0.8h-3L453.5,405.8L453.5,405.8z M455.1,397.3v2.8h1
		c0.6,0,1-0.1,1.3-0.4s0.5-0.6,0.5-1.1c0-0.8-0.6-1.3-1.7-1.3H455.1z M455.1,401.5v3.1h1.4c0.6,0,1.1-0.1,1.4-0.4s0.5-0.7,0.5-1.2
		c0-1-0.7-1.5-2.1-1.5L455.1,401.5L455.1,401.5z"/>
	<path d="M469.9,405.8h-1.8l-0.9-2.5h-3.8l-0.8,2.5h-1.8l3.7-9.8h1.8L469.9,405.8z M466.9,402.1l-1.4-3.9c0-0.1-0.1-0.3-0.1-0.6l0,0
		c0,0.3-0.1,0.5-0.1,0.6l-1.3,3.9H466.9z"/>
	<path d="M470.8,405.5v-1.7c0.1,0.1,0.3,0.3,0.5,0.4c0.2,0.1,0.4,0.2,0.7,0.3c0.2,0.1,0.5,0.1,0.7,0.2c0.2,0,0.4,0.1,0.6,0.1
		c0.7,0,1.2-0.1,1.5-0.3s0.5-0.6,0.5-1c0-0.2-0.1-0.4-0.2-0.6c-0.1-0.2-0.3-0.3-0.5-0.5s-0.4-0.3-0.7-0.4c-0.3-0.1-0.6-0.3-0.9-0.4
		c-0.3-0.2-0.6-0.4-0.9-0.5c-0.3-0.2-0.5-0.4-0.7-0.6s-0.4-0.5-0.5-0.7s-0.2-0.6-0.2-1c0-0.5,0.1-0.9,0.3-1.2s0.5-0.6,0.8-0.8
		s0.7-0.4,1.2-0.5s0.9-0.2,1.3-0.2c1,0,1.8,0.1,2.2,0.3v1.6c-0.6-0.4-1.3-0.6-2.1-0.6c-0.2,0-0.5,0-0.7,0.1c-0.2,0-0.5,0.1-0.6,0.2
		c-0.1,0.1-0.3,0.2-0.5,0.4s-0.2,0.4-0.2,0.6c0,0.2,0,0.4,0.1,0.6s0.2,0.3,0.4,0.4c0.2,0.1,0.4,0.3,0.6,0.4c0.3,0.1,0.5,0.3,0.9,0.4
		c0.3,0.2,0.7,0.4,1,0.6s0.6,0.4,0.8,0.6c0.2,0.2,0.4,0.5,0.5,0.8s0.2,0.6,0.2,1c0,0.5-0.1,0.9-0.3,1.3c-0.2,0.3-0.5,0.6-0.8,0.8
		s-0.7,0.4-1.2,0.5c-0.4,0.1-0.9,0.1-1.4,0.1c-0.2,0-0.4,0-0.6,0s-0.5-0.1-0.7-0.1s-0.5-0.1-0.7-0.2
		C471.2,405.7,471,405.6,470.8,405.5z"/>
	<path d="M484.3,405.8h-5.5V396h5.3v1.4h-3.6v2.8h3.4v1.4h-3.4v2.9h3.9L484.3,405.8L484.3,405.8z"/>
	<path d="M496.2,397.5h-2.8v8.4h-1.6v-8.4H489v-1.4h7.2V397.5L496.2,397.5z"/>
	<path d="M499.3,405.8h-1.7V396h1.7V405.8z"/>
	<path d="M507.1,405.8h-5.5V396h5.3v1.4h-3.6v2.8h3.4v1.4h-3.4v2.9h3.9L507.1,405.8L507.1,405.8z"/>
	<path d="M516.4,405.8h-1.9l-1.6-2.6c-0.1-0.2-0.3-0.4-0.4-0.6c-0.1-0.2-0.3-0.3-0.4-0.4c-0.1-0.1-0.3-0.2-0.5-0.2s-0.3-0.1-0.6-0.1
		h-0.7v4h-1.6v-9.8h3.2c0.5,0,0.9,0.1,1.3,0.2c0.4,0.1,0.7,0.3,1,0.5s0.5,0.5,0.7,0.8s0.2,0.7,0.2,1.2c0,0.3-0.1,0.7-0.2,0.9
		c-0.1,0.3-0.2,0.5-0.4,0.8c-0.2,0.2-0.4,0.4-0.7,0.6c-0.3,0.2-0.6,0.3-0.9,0.4l0,0c0.2,0.1,0.3,0.2,0.5,0.3
		c0.1,0.1,0.3,0.2,0.4,0.4c0.1,0.1,0.2,0.3,0.3,0.4c0.1,0.2,0.2,0.3,0.4,0.6L516.4,405.8z M510.5,397.3v3.2h1.3c0.2,0,0.5,0,0.7-0.1
		s0.4-0.2,0.5-0.3c0.2-0.1,0.3-0.3,0.4-0.5c0.1-0.2,0.1-0.4,0.1-0.7c0-0.5-0.1-0.8-0.4-1.1c-0.3-0.3-0.7-0.4-1.3-0.4h-1.3V397.3z"/>
</g>
<path d="M466.9,371.1c-5.5,0-9.9,4.4-9.9,9.9s4.4,9.9,9.9,9.9s9.9-4.4,9.9-9.9S472.4,371.1,466.9,371.1z M469.9,378
	c-0.3,0.6-0.6,1.2-0.9,1.8s-0.6,1.2-0.8,1.8c-0.2,0.6-0.4,1.2-0.6,1.8s-0.3,1.2-0.4,1.8h-1.3c0.1-0.6,0.2-1.1,0.4-1.7
	s0.4-1.1,0.6-1.7s0.5-1.1,0.7-1.7c0.3-0.6,0.6-1.1,0.9-1.7h-3.7v-1.1h5.2v0.7L469.9,378L469.9,378z"/>
<path fill="none" d="M469.2,68.9c-4.9,0-9-3.6-9.8-8.3c-146.8,4.2-264.9,124.9-264.9,272.6c0,150.4,122.4,272.8,272.8,272.8
	S740,483.6,740,333.2c0-146.5-116.1-266.3-261-272.5C478.1,65.4,474.1,68.9,469.2,68.9z"/>
<path d="M662.2,138.2C612.9,88.9,548.3,60.6,479,57.7c0.1,0.4,0.1,0.8,0.1,1.2c0,0.6-0.1,1.2-0.2,1.8c145,6.2,261,126,261,272.5
	c0,150.4-122.4,272.8-272.8,272.8S194.5,483.6,194.5,333.2c0-147.8,118.1-268.5,264.9-272.6c-0.1-0.5-0.1-1.1-0.1-1.6s0-0.9,0.1-1.4
	c-70.7,2-136.9,30.4-187.1,80.6c-52.1,52.1-80.8,121.3-80.8,195s28.7,142.9,80.8,195c52.1,52.1,121.3,80.8,195,80.8
	s142.9-28.7,195-80.8c52.1-52.1,80.8-121.3,80.8-195C743.1,259.4,714.3,190.3,662.2,138.2z"/>
<g>
	<g>
		<path d="M470.8,62c-0.5,0.5-1.2,0.7-2.1,0.7c-0.8,0-1.3-0.1-1.7-0.3v-1.2c0.5,0.3,1,0.5,1.6,0.5c0.5,0,1-0.1,1.3-0.4
			c0.3-0.2,0.4-0.5,0.5-0.8c-1,0-2,0-3,0c-2.6,0-5.2,0-7.8,0.1c0.8,4.7,4.9,8.3,9.8,8.3s8.9-3.5,9.8-8.2c-2.5-0.1-4.9-0.2-7.4-0.2
			C471.5,61,471.2,61.5,470.8,62z"/>
		<path d="M467.4,54.8h3.8v1.1h-2.8l-0.1,1.6c3.6,0,7.2,0.1,10.7,0.3c-0.6-4.9-4.8-8.7-9.8-8.7s-9.1,3.7-9.8,8.5
			c2.6-0.1,5.2-0.1,7.8-0.1L467.4,54.8z"/>
		<path d="M459.4,60.5c2.6-0.1,5.2-0.1,7.8-0.1c1,0,2,0,3,0c0-0.1,0-0.2,0-0.3c0-0.4-0.2-0.8-0.5-1s-0.8-0.4-1.4-0.4
			c-0.2,0-0.6,0-1.3,0.1l0.1-1.4c-2.6,0-5.2,0-7.8,0.1c-0.1,0.5-0.1,0.9-0.1,1.4C459.3,59.5,459.3,60,459.4,60.5z"/>
		<path d="M468.3,57.8c0.3,0,0.5,0,0.7,0c0.8,0,1.5,0.2,1.9,0.6c0.5,0.4,0.7,1,0.7,1.7c0,0.1,0,0.2,0,0.3c2.5,0,5,0.1,7.4,0.2
			c0.1-0.6,0.2-1.2,0.2-1.8c0-0.4,0-0.8-0.1-1.2c-3.6-0.1-7.1-0.2-10.7-0.3L468.3,57.8z"/>
	</g>
	<g>
		<path d="M399.2,95.5l-1.7,0.6l-1.6-2.1l-3.6,1.2v2.6l-1.7,0.6L391,88l1.7-0.6L399.2,95.5z M395.1,93l-2.5-3.3
			c-0.1-0.1-0.2-0.3-0.3-0.5l0,0c0,0.3,0.1,0.5,0.1,0.6v4.1L395.1,93z"/>
		<path d="M404.6,84.5l-3,8.9l5.1-1.5l0.4,1.3l-7.2,2.1l-0.2-0.7l3-8.8l-4.7,1.4l-0.4-1.3l6.9-2L404.6,84.5z"/>
		<path d="M414.8,87.2c0.7,2.7-0.2,4.3-2.7,4.9c-2.4,0.6-3.9-0.3-4.6-2.9l-1.5-5.8l1.6-0.4l1.4,5.5c0.5,1.9,1.4,2.6,2.9,2.2
			c1.4-0.4,1.8-1.4,1.4-3.2l-1.4-5.6l1.6-0.4L414.8,87.2z"/>
		<path d="M425.3,88.9l-1.8,0.4l-2.1-2.2c-0.2-0.2-0.4-0.4-0.5-0.5c-0.2-0.1-0.3-0.2-0.5-0.3s-0.3-0.1-0.5-0.1s-0.4,0-0.6,0
			l-0.6,0.1l0.9,3.9l-1.6,0.3l-2.1-9.5l3.1-0.7c0.4-0.1,0.9-0.1,1.3-0.1s0.8,0.1,1.1,0.3s0.6,0.4,0.8,0.7c0.2,0.3,0.4,0.6,0.5,1.1
			c0.1,0.3,0.1,0.7,0.1,1s-0.1,0.6-0.3,0.8s-0.3,0.5-0.5,0.7s-0.5,0.4-0.8,0.6l0,0c0.2,0.1,0.4,0.1,0.5,0.2c0.2,0.1,0.3,0.2,0.4,0.3
			s0.3,0.2,0.4,0.3c0.1,0.1,0.3,0.3,0.5,0.5L425.3,88.9z M417.7,81.9l0.7,3.1l1.3-0.3c0.2-0.1,0.5-0.1,0.6-0.3
			c0.2-0.1,0.3-0.3,0.5-0.4s0.2-0.4,0.2-0.6s0-0.5,0-0.7c-0.1-0.5-0.3-0.8-0.7-1c-0.3-0.2-0.8-0.2-1.3-0.1L417.7,81.9z"/>
		<path d="M431.7,87.7l-5.4,1l-1.8-9.6l5.2-1l0.3,1.4l-3.6,0.7l0.5,2.7l3.3-0.6l0.3,1.3l-3.3,0.6l0.5,2.8l3.8-0.7L431.7,87.7z"/>
		<path d="M443.3,76.2l-2.2,10.1l-1.8,0.2l-4.7-9.2l1.8-0.2l3.4,7c0.1,0.2,0.2,0.5,0.3,0.8l0,0c0-0.3,0-0.5,0.1-0.9l1.5-7.6
			L443.3,76.2z"/>
		<path d="M447.5,85.5l-1.7,0.2l-1-9.7l1.7-0.2L447.5,85.5z"/>
		<path d="M457.4,84.8l-1.9,0.1l-1.7-2.5c-0.2-0.2-0.3-0.4-0.5-0.6c-0.1-0.2-0.3-0.3-0.4-0.4s-0.3-0.2-0.5-0.2s-0.4,0-0.6,0h-0.7
			l0.3,3.9l-1.6,0.1l-0.7-9.7l3.2-0.2c0.5,0,0.9,0,1.3,0.1s0.7,0.2,1,0.4c0.3,0.2,0.5,0.5,0.7,0.8s0.3,0.7,0.3,1.1
			c0,0.3,0,0.7-0.1,1s-0.2,0.6-0.4,0.8c-0.2,0.2-0.4,0.4-0.6,0.6c-0.3,0.2-0.5,0.3-0.9,0.4l0,0c0.2,0.1,0.3,0.2,0.5,0.3
			c0.1,0.1,0.3,0.2,0.4,0.3s0.3,0.3,0.4,0.4c0.1,0.2,0.3,0.3,0.4,0.5L457.4,84.8z M450.8,76.8L451,80l1.3-0.1c0.2,0,0.5-0.1,0.7-0.2
			s0.4-0.2,0.5-0.4s0.3-0.3,0.3-0.6c0.1-0.2,0.1-0.5,0.1-0.7c0-0.5-0.2-0.8-0.5-1.1c-0.3-0.2-0.7-0.3-1.3-0.3L450.8,76.8z"/>
		<path d="M464,76.2l-2.8,0.1l0.3,8.4l-1.6,0.1l-0.3-8.4l-2.8,0.1V75l7.2-0.3L464,76.2z"/>
		<path d="M473.2,80.7c0,2.7-1.4,4.1-4,4c-2.5,0-3.7-1.4-3.7-4l0.1-6h1.6l-0.1,5.6c0,1.9,0.7,2.9,2.2,2.9c1.4,0,2.2-0.9,2.2-2.7
			l0.1-5.7h1.6L473.2,80.7z"/>
		<path d="M483,85l-1.8-0.1l-0.7-2.5l-3.8-0.2l-1,2.4l-1.8-0.1l4.2-9.5l1.8,0.1L483,85z M480.2,81l-1.1-4c0-0.1-0.1-0.3-0.1-0.6l0,0
			c-0.1,0.3-0.1,0.5-0.2,0.6l-1.6,3.8L480.2,81z"/>
		<path d="M489.7,85.7l-5.4-0.5l0.9-9.7l1.6,0.2L486,84l3.8,0.4L489.7,85.7z"/>
		<path d="M502.9,87.5l-1.7-0.3l-3.5-7.8c-0.1-0.2-0.2-0.4-0.2-0.6l0,0c0,0.2,0,0.7-0.1,1.3l-0.9,6.3l-1.5-0.2l1.4-9.6l1.6,0.3
			l3.4,7.6c0.1,0.3,0.2,0.5,0.3,0.6l0,0c0-0.3,0-0.7,0.1-1.3l0.9-6.2l1.5,0.2L502.9,87.5z"/>
		<path d="M510.6,89l-5.4-1l1.8-9.6l5.2,1l-0.3,1.3l-3.6-0.7l-0.5,2.7l3.3,0.6l-0.3,1.3l-3.3-0.6l-0.5,2.9l3.8,0.7L510.6,89z"/>
		<path d="M520.2,82.5l-2.7-0.6l-1.8,8.2l-1.6-0.3l1.8-8.2l-2.7-0.6l0.3-1.3l7,1.6L520.2,82.5z"/>
		<path d="M534.1,84.7l-5.1,8.7l-1.8-0.5v-7.1c0-0.3,0-0.6,0.1-1l0,0c-0.1,0.3-0.2,0.6-0.4,0.9l-3.6,6.1l-1.8-0.5l-0.1-10.1l1.7,0.5
			l-0.1,7.4c0,0.3,0,0.6-0.1,0.9l0,0c0.1-0.2,0.2-0.5,0.4-0.9l3.8-6.4l1.6,0.4l-0.1,7.4c0,0.3,0,0.5-0.1,0.9l0,0
			c0.1-0.2,0.2-0.5,0.4-0.8l3.5-6.5L534.1,84.7z"/>
		<path d="M536.6,95.9c-1.3-0.4-2.3-1.2-2.8-2.3c-0.5-1.1-0.6-2.4-0.1-3.8c0.5-1.5,1.3-2.6,2.4-3.2c1.1-0.6,2.4-0.7,3.8-0.3
			c1.3,0.4,2.2,1.2,2.7,2.3c0.5,1.1,0.6,2.4,0.1,3.8c-0.5,1.5-1.3,2.6-2.4,3.2C539.2,96.2,537.9,96.3,536.6,95.9z M539.2,87.7
			c-0.9-0.3-1.6-0.2-2.4,0.3s-1.3,1.2-1.6,2.3c-0.3,1-0.3,1.9,0,2.7s0.9,1.3,1.7,1.6c0.9,0.3,1.7,0.2,2.4-0.2s1.2-1.2,1.6-2.3
			c0.3-1.1,0.4-2,0.1-2.8C540.7,88.4,540.1,87.9,539.2,87.7z"/>
		<path d="M549.9,100.2l-1.8-0.6l-0.6-3c-0.1-0.3-0.1-0.5-0.2-0.7c-0.1-0.2-0.2-0.4-0.2-0.5c-0.1-0.1-0.2-0.3-0.3-0.4
			s-0.3-0.2-0.5-0.3l-0.6-0.2l-1.3,3.7l-1.5-0.5l3.2-9.2l3,1.1c0.4,0.2,0.8,0.3,1.1,0.6c0.3,0.2,0.6,0.5,0.8,0.8s0.3,0.6,0.4,1
			c0,0.4,0,0.8-0.2,1.2c-0.1,0.3-0.3,0.6-0.5,0.8s-0.4,0.4-0.7,0.6c-0.3,0.1-0.5,0.3-0.8,0.3s-0.6,0.1-1,0l0,0
			c0.1,0.2,0.2,0.3,0.3,0.5s0.2,0.3,0.2,0.5c0.1,0.2,0.1,0.3,0.2,0.5c0.1,0.2,0.1,0.4,0.2,0.7L549.9,100.2z M547.1,90.3l-1.1,3
			l1.3,0.4c0.2,0.1,0.5,0.1,0.7,0.1s0.4,0,0.6-0.1c0.2-0.1,0.4-0.2,0.5-0.4c0.2-0.2,0.3-0.4,0.4-0.6c0.2-0.4,0.1-0.8-0.1-1.2
			s-0.5-0.6-1.1-0.8L547.1,90.3z"/>
		<path d="M557.7,103.3l-2-0.8l-1.5-5.4c-0.1-0.2-0.1-0.3-0.1-0.4l0,0l-1.7,4.5l-1.5-0.6l3.5-9.1l1.5,0.6l-1.7,4.3l0,0
			c0.1-0.1,0.2-0.1,0.3-0.2l4.6-2.8l1.8,0.7l-5.3,3L557.7,103.3z"/>
	</g>
</g>
<g>
	<path fill="#686868" d="M419,163.4v3.5h-1.6V157h3c1.1,0,2,0.3,2.6,0.8s0.9,1.3,0.9,2.2c0,0.9-0.3,1.7-1,2.3
		c-0.6,0.6-1.5,0.9-2.6,0.9H419V163.4z M419,158.5v3.6h1c0.7,0,1.2-0.2,1.6-0.5s0.5-0.8,0.5-1.4c0-1.1-0.7-1.7-2-1.7H419L419,158.5z
		"/>
	<path fill="#686868" d="M432.5,166.9h-1.8l-0.9-2.5H426l-0.8,2.5h-1.8l3.7-9.8h1.8L432.5,166.9z M429.5,163l-1.4-3.9
		c0-0.1-0.1-0.3-0.1-0.6l0,0c0,0.3-0.1,0.5-0.1,0.6l-1.3,3.9H429.5z"/>
	<path fill="#686868" d="M441.9,166.9h-1.8l-0.9-2.5h-3.8l-0.8,2.5h-1.8l3.7-9.8h1.8L441.9,166.9z M438.8,163l-1.4-3.9
		c0-0.1-0.1-0.3-0.1-0.6l0,0c0,0.3-0.1,0.5-0.1,0.6l-1.3,3.9H438.8z"/>
	<path fill="#686868" d="M442.8,166.5v-1.7c0.1,0.1,0.3,0.3,0.5,0.4s0.4,0.2,0.7,0.3c0.2,0.1,0.5,0.1,0.7,0.2c0.2,0,0.4,0.1,0.6,0.1
		c0.7,0,1.2-0.1,1.5-0.3c0.3-0.2,0.5-0.6,0.5-1c0-0.2-0.1-0.4-0.2-0.6s-0.3-0.3-0.5-0.5s-0.4-0.3-0.7-0.4c-0.3-0.1-0.6-0.3-0.9-0.4
		c-0.3-0.2-0.6-0.4-0.9-0.5c-0.3-0.2-0.5-0.4-0.7-0.6s-0.4-0.5-0.5-0.7s-0.2-0.6-0.2-1c0-0.5,0.1-0.9,0.3-1.2
		c0.2-0.3,0.5-0.6,0.8-0.8s0.7-0.4,1.2-0.5s0.9-0.2,1.3-0.2c1,0,1.8,0.1,2.2,0.3v1.6c-0.6-0.4-1.3-0.6-2.1-0.6c-0.2,0-0.5,0-0.7,0.1
		c-0.2,0-0.5,0.1-0.6,0.2s-0.3,0.2-0.5,0.4c-0.2,0.2-0.2,0.4-0.2,0.6s0,0.4,0.1,0.6s0.2,0.3,0.4,0.4c0.2,0.1,0.4,0.3,0.6,0.4
		c0.3,0.1,0.5,0.3,0.9,0.4c0.3,0.2,0.7,0.4,1,0.6s0.6,0.4,0.8,0.6c0.2,0.2,0.4,0.5,0.5,0.8s0.2,0.6,0.2,1c0,0.5-0.1,0.9-0.3,1.3
		c-0.2,0.3-0.5,0.6-0.8,0.8s-0.7,0.4-1.2,0.5c-0.4,0.1-0.9,0.1-1.4,0.1c-0.2,0-0.4,0-0.6,0s-0.5-0.1-0.7-0.1s-0.5-0.1-0.7-0.2
		C443.1,166.7,442.9,166.5,442.8,166.5z"/>
	<path fill="#686868" d="M458.7,167c-1.4,0-2.5-0.5-3.4-1.4c-0.8-0.9-1.3-2.1-1.3-3.6c0-1.6,0.4-2.8,1.3-3.8c0.9-0.9,2-1.4,3.5-1.4
		c1.4,0,2.5,0.5,3.3,1.4s1.3,2.1,1.3,3.6c0,1.6-0.4,2.8-1.3,3.8S460.1,167,458.7,167z M458.7,158.5c-0.9,0-1.6,0.3-2.2,1
		s-0.8,1.5-0.8,2.6s0.3,2,0.8,2.6c0.5,0.7,1.3,1,2.1,1c0.9,0,1.7-0.3,2.2-0.9s0.8-1.5,0.8-2.6c0-1.2-0.3-2.1-0.8-2.7
		C460.3,158.9,459.7,158.5,458.7,158.5z"/>
	<path fill="#686868" d="M472.8,157.2l-3.5,9.8h-1.8l-3.4-9.8h1.8l2.4,7.4c0.1,0.2,0.1,0.5,0.2,0.8l0,0c0-0.3,0.1-0.5,0.2-0.8
		l2.5-7.4H472.8z"/>
	<path fill="#686868" d="M479.6,166.9h-5.5V157h5.3v1.4h-3.6v2.8h3.4v1.4h-3.4v2.9h3.9L479.6,166.9L479.6,166.9z"/>
	<path fill="#686868" d="M488.9,166.9H487l-1.6-2.6c-0.1-0.2-0.3-0.4-0.4-0.6s-0.3-0.3-0.4-0.4s-0.3-0.2-0.5-0.2s-0.3-0.1-0.6-0.1
		h-0.7v4h-1.6v-9.8h3.2c0.5,0,0.9,0.1,1.3,0.2s0.7,0.3,1,0.5s0.5,0.5,0.7,0.8s0.2,0.7,0.2,1.2c0,0.3-0.1,0.7-0.2,0.9
		c-0.1,0.3-0.2,0.5-0.4,0.8c-0.2,0.2-0.4,0.4-0.7,0.6c-0.3,0.2-0.6,0.3-0.9,0.4l0,0c0.2,0.1,0.3,0.2,0.5,0.3
		c0.1,0.1,0.3,0.2,0.4,0.4c0.1,0.1,0.2,0.3,0.3,0.4c0.1,0.2,0.2,0.3,0.4,0.6L488.9,166.9z M482.9,158.5v3.2h1.3c0.2,0,0.5,0,0.7-0.1
		s0.4-0.2,0.5-0.3c0.2-0.1,0.3-0.3,0.4-0.5s0.1-0.4,0.1-0.7c0-0.5-0.1-0.8-0.4-1.1c-0.3-0.3-0.7-0.4-1.3-0.4L482.9,158.5
		L482.9,158.5z"/>
	<path fill="#686868" d="M495.5,166.9h-1.7V157h1.7V166.9z"/>
	<path fill="#686868" d="M505.9,166.9h-1.8l-0.9-2.5h-3.8l-0.8,2.5h-1.8l3.7-9.8h1.8L505.9,166.9z M502.8,163l-1.4-3.9
		c0-0.1-0.1-0.3-0.1-0.6l0,0c0,0.3-0.1,0.5-0.1,0.6l-1.3,3.9H502.8z"/>
	<path fill="#686868" d="M515.2,166.9h-1.8l-0.9-2.5h-3.8l-0.8,2.5h-1.8l3.7-9.8h1.8L515.2,166.9z M512.2,163l-1.4-3.9
		c0-0.1-0.1-0.3-0.1-0.6l0,0c0,0.3-0.1,0.5-0.1,0.6l-1.3,3.9H512.2z"/>
	<path fill="#686868" d="M516.1,166.5v-1.7c0.1,0.1,0.3,0.3,0.5,0.4s0.4,0.2,0.7,0.3c0.2,0.1,0.5,0.1,0.7,0.2c0.2,0,0.4,0.1,0.6,0.1
		c0.7,0,1.2-0.1,1.5-0.3c0.3-0.2,0.5-0.6,0.5-1c0-0.2-0.1-0.4-0.2-0.6s-0.3-0.3-0.5-0.5s-0.4-0.3-0.7-0.4s-0.6-0.3-0.9-0.4
		c-0.3-0.2-0.6-0.4-0.9-0.5c-0.3-0.2-0.5-0.4-0.7-0.6s-0.4-0.5-0.5-0.7s-0.2-0.6-0.2-1c0-0.5,0.1-0.9,0.3-1.2
		c0.2-0.3,0.5-0.6,0.8-0.8s0.7-0.4,1.2-0.5s0.9-0.2,1.3-0.2c1,0,1.8,0.1,2.2,0.3v1.6c-0.6-0.4-1.3-0.6-2.1-0.6c-0.2,0-0.5,0-0.7,0.1
		c-0.2,0-0.5,0.1-0.6,0.2s-0.3,0.2-0.5,0.4c-0.2,0.2-0.2,0.4-0.2,0.6s0,0.4,0.1,0.6s0.2,0.3,0.4,0.4s0.4,0.3,0.6,0.4
		c0.3,0.1,0.5,0.3,0.9,0.4c0.3,0.2,0.7,0.4,1,0.6s0.6,0.4,0.8,0.6s0.4,0.5,0.5,0.8s0.2,0.6,0.2,1c0,0.5-0.1,0.9-0.3,1.3
		c-0.2,0.3-0.5,0.6-0.8,0.8s-0.7,0.4-1.2,0.5c-0.4,0.1-0.9,0.1-1.4,0.1c-0.2,0-0.4,0-0.6,0c-0.2,0-0.5-0.1-0.7-0.1s-0.5-0.1-0.7-0.2
		C516.5,166.7,516.3,166.5,516.1,166.5z"/>
</g>
<g>
	<polygon points="487.9,25.3 477.8,15.1 476.5,16.5 485.4,25.3 476.5,34.1 477.8,35.4 	"/>
	<polygon points="450.5,25.3 460.6,15.1 461.9,16.5 453.1,25.3 461.9,34.1 460.6,35.4 	"/>
	<path d="M464.7,25.3c0,1.2-1,2.3-2.3,2.3s-2.3-1-2.3-2.3s1-2.3,2.3-2.3S464.7,24,464.7,25.3L464.7,25.3z"/>
	<path d="M471.5,25.3c0-1.3-1-2.3-2.3-2.3s-2.3,1-2.3,2.3s1,2.3,2.3,2.3S471.5,26.6,471.5,25.3L471.5,25.3z"/>
	<path d="M478.3,25.3c0-1.3-1-2.3-2.3-2.3s-2.3,1-2.3,2.3s1,2.3,2.3,2.3S478.3,26.6,478.3,25.3L478.3,25.3z"/>
</g>
<g>
	<path fill="#686868" d="M522,320.7v-7.8h2.3c2.9,0,4.3,1.3,4.3,3.8c0,1.2-0.4,2.2-1.2,2.9s-1.9,1.1-3.2,1.1H522z M523.3,314v5.6h1
		c0.9,0,1.6-0.3,2.1-0.8s0.8-1.2,0.8-2.1c0-1.8-0.9-2.7-2.8-2.7H523.3z"/>
	<path fill="#686868" d="M533.2,320.8c-1.1,0-2-0.4-2.7-1.1c-0.7-0.7-1-1.7-1-2.8c0-1.3,0.3-2.3,1-3s1.6-1.1,2.8-1.1
		c1.1,0,2,0.4,2.6,1.1c0.7,0.7,1,1.7,1,2.8c0,1.3-0.3,2.3-1,3C535.3,320.5,534.4,320.8,533.2,320.8z M533.3,313.8
		c-0.7,0-1.3,0.3-1.7,0.8s-0.7,1.2-0.7,2.1s0.2,1.6,0.7,2.1c0.4,0.5,1,0.8,1.7,0.8s1.3-0.3,1.8-0.8c0.4-0.5,0.6-1.2,0.6-2.1
		s-0.2-1.7-0.6-2.2S534,313.8,533.3,313.8z"/>
	<path fill="#686868" d="M543.9,320.3c-0.6,0.3-1.3,0.5-2.2,0.5c-1.1,0-2-0.4-2.7-1.1s-1-1.7-1-2.8c0-1.2,0.4-2.3,1.2-3
		c0.8-0.8,1.7-1.2,2.9-1.2c0.8,0,1.4,0.1,1.9,0.3v1.3c-0.5-0.3-1.1-0.5-1.7-0.5c-0.8,0-1.5,0.3-2.1,0.8c-0.5,0.5-0.8,1.3-0.8,2.2
		s0.2,1.5,0.7,2.1c0.5,0.5,1.1,0.8,1.9,0.8c0.7,0,1.4-0.2,1.9-0.5L543.9,320.3L543.9,320.3z"/>
	<path fill="#686868" d="M551.2,320.7h-1.7l-2.7-3.6c-0.1-0.1-0.2-0.2-0.2-0.3l0,0v3.8h-1.3v-7.7h1.3v3.7l0,0c0-0.1,0.1-0.2,0.2-0.3
		l2.6-3.4h1.6l-3.1,3.7L551.2,320.7z"/>
	<path fill="#686868" d="M556.5,320.7h-4.4v-7.8h4.2v1.1h-2.9v2.2h2.7v1.1h-2.7v2.3h3.1L556.5,320.7L556.5,320.7z"/>
	<path fill="#686868" d="M563.9,320.7h-1.5l-1.2-2.1c-0.1-0.2-0.2-0.4-0.3-0.5s-0.2-0.2-0.3-0.3s-0.2-0.2-0.4-0.2
		c-0.1,0-0.3-0.1-0.4-0.1h-0.5v3.2H558v-7.8h2.6c0.4,0,0.7,0,1,0.1s0.6,0.2,0.8,0.4s0.4,0.4,0.5,0.7s0.2,0.6,0.2,0.9s0,0.5-0.1,0.8
		c-0.1,0.2-0.2,0.4-0.3,0.6c-0.1,0.2-0.3,0.3-0.5,0.5s-0.5,0.2-0.7,0.3l0,0c0.1,0.1,0.3,0.2,0.4,0.3c0.1,0.1,0.2,0.2,0.3,0.3
		s0.2,0.2,0.3,0.3s0.2,0.3,0.3,0.4L563.9,320.7z M559.2,314v2.5h1.1c0.2,0,0.4,0,0.6-0.1c0.2-0.1,0.3-0.2,0.4-0.3
		c0.1-0.1,0.2-0.3,0.3-0.4c0.1-0.2,0.1-0.4,0.1-0.6c0-0.4-0.1-0.7-0.4-0.9c-0.2-0.2-0.6-0.3-1-0.3L559.2,314L559.2,314z"/>
	<path fill="#686868" d="M574,312.8l-2.8,7.8h-1.4l-2.8-7.8h1.4l1.9,5.9c0.1,0.2,0.1,0.4,0.1,0.7l0,0c0-0.2,0.1-0.4,0.2-0.7l2-5.9
		H574z"/>
	<path fill="#686868" d="M583.4,320.7h-1.3v-5c0-0.4,0-0.9,0.1-1.5l0,0c-0.1,0.3-0.2,0.6-0.2,0.7l-2.3,5.8h-0.9l-2.3-5.8
		c-0.1-0.2-0.1-0.4-0.2-0.8l0,0c0,0.3,0,0.8,0,1.5v5h-1.2v-7.7h1.8l2.1,5.2c0.2,0.4,0.3,0.7,0.3,0.9l0,0c0.1-0.4,0.2-0.7,0.3-0.9
		l2.1-5.2h1.8L583.4,320.7L583.4,320.7z"/>
	<path fill="#686868" d="M528.2,334.1h-4.4v-7.8h4.2v1.1h-2.9v2.2h2.7v1.1h-2.7v2.3h3.1L528.2,334.1L528.2,334.1z"/>
	<path fill="#686868" d="M535.5,334.1H534l-1.6-2.9c0-0.1-0.1-0.2-0.2-0.4l0,0c0,0.1-0.1,0.2-0.2,0.4l-1.6,2.9h-1.6l2.6-3.9
		l-2.4-3.9h1.6l1.4,2.6c0.1,0.2,0.2,0.3,0.2,0.5l0,0c0.1-0.2,0.2-0.4,0.3-0.5l1.5-2.6h1.5l-2.4,3.9L535.5,334.1z"/>
	<path fill="#686868" d="M541.8,327.3h-2.2v6.7h-1.3v-6.7H536v-1.1h5.8V327.3z"/>
	<path fill="#686868" d="M547.3,334.1h-4.4v-7.8h4.2v1.1h-2.9v2.2h2.7v1.1h-2.7v2.3h3.1L547.3,334.1L547.3,334.1z"/>
	<path fill="#686868" d="M555.3,334.1h-1.4l-3.7-5.7c-0.1-0.1-0.2-0.3-0.2-0.5l0,0c0,0.2,0,0.5,0,1.1v5.1h-1.3v-7.8h1.5l3.6,5.6
		c0.2,0.2,0.3,0.4,0.3,0.5l0,0c0-0.2-0.1-0.6-0.1-1v-5h1.2v7.7L555.3,334.1L555.3,334.1z"/>
	<path fill="#686868" d="M556.9,333.8v-1.3c0.1,0.1,0.3,0.2,0.4,0.3c0.2,0.1,0.3,0.2,0.5,0.2c0.2,0.1,0.4,0.1,0.6,0.1
		c0.2,0,0.4,0,0.5,0c0.5,0,0.9-0.1,1.2-0.3s0.4-0.4,0.4-0.8c0-0.2,0-0.3-0.1-0.5s-0.2-0.3-0.4-0.4s-0.3-0.2-0.6-0.3
		s-0.4-0.2-0.7-0.3s-0.5-0.3-0.7-0.4c-0.2-0.1-0.4-0.3-0.6-0.5c-0.2-0.2-0.3-0.4-0.4-0.6c-0.1-0.2-0.1-0.5-0.1-0.8
		c0-0.4,0.1-0.7,0.2-1c0.2-0.3,0.4-0.5,0.7-0.7s0.6-0.3,0.9-0.4c0.3-0.1,0.7-0.1,1.1-0.1c0.8,0,1.4,0.1,1.8,0.3v1.3
		c-0.4-0.3-1-0.5-1.7-0.5c-0.2,0-0.4,0-0.6,0.1c-0.2,0.1-0.4,0.1-0.5,0.2c-0.2,0.1-0.3,0.2-0.4,0.3c-0.1,0.1-0.1,0.3-0.1,0.5
		s0,0.3,0.1,0.5s0.2,0.2,0.3,0.3s0.3,0.2,0.5,0.3s0.4,0.2,0.7,0.3s0.5,0.3,0.8,0.4c0.2,0.2,0.5,0.3,0.6,0.5c0.2,0.2,0.3,0.4,0.4,0.6
		c0.1,0.2,0.2,0.5,0.2,0.8c0,0.4-0.1,0.7-0.2,1c-0.2,0.3-0.4,0.5-0.6,0.7c-0.3,0.2-0.6,0.3-0.9,0.4s-0.7,0.1-1.1,0.1
		c-0.1,0-0.3,0-0.5,0s-0.4,0-0.6-0.1s-0.4-0.1-0.6-0.1C557.2,333.8,557,333.8,556.9,333.8z"/>
	<path fill="#686868" d="M564.7,334.1h-1.3v-7.8h1.3V334.1z"/>
	<path fill="#686868" d="M569.8,334.2c-1.1,0-2-0.4-2.7-1.1s-1-1.7-1-2.8c0-1.3,0.3-2.3,1-3s1.6-1.1,2.8-1.1c1.1,0,2,0.4,2.6,1.1
		c0.7,0.7,1,1.7,1,2.8c0,1.3-0.3,2.3-1,3C571.9,333.8,570.9,334.2,569.8,334.2z M569.8,327.3c-0.7,0-1.3,0.3-1.7,0.8
		s-0.7,1.2-0.7,2.1c0,0.9,0.2,1.6,0.7,2.1c0.4,0.5,1,0.8,1.7,0.8s1.3-0.3,1.8-0.8c0.4-0.5,0.6-1.2,0.6-2.1c0-0.9-0.2-1.7-0.6-2.2
		S570.6,327.3,569.8,327.3z"/>
	<path fill="#686868" d="M581.6,334.1h-1.4l-3.7-5.7c-0.1-0.1-0.2-0.3-0.2-0.5l0,0c0,0.2,0,0.5,0,1.1v5.1H575v-7.8h1.5l3.6,5.6
		c0.2,0.2,0.3,0.4,0.3,0.5l0,0c0-0.2-0.1-0.6-0.1-1v-5h1.2L581.6,334.1L581.6,334.1z"/>
</g>
<rect x="361" y="471" fill="none" stroke="#686868" stroke-width="3" stroke-linecap="round" stroke-linejoin="round" stroke-miterlimit="10" width="64.9" height="18.4"/>
<rect x="508.1" y="471" fill="none" stroke="#686868" stroke-width="3" stroke-linecap="round" stroke-linejoin="round" stroke-miterlimit="10" width="64.9" height="18.4"/>
<g>
	<path fill="#686868" d="M351.8,320.7v-7.8h2.3c2.9,0,4.3,1.3,4.3,3.8c0,1.2-0.4,2.2-1.2,2.9c-0.8,0.7-1.9,1.1-3.2,1.1H351.8z
		 M353,314v5.6h1c0.9,0,1.6-0.3,2.1-0.8s0.8-1.2,0.8-2.1c0-1.8-0.9-2.7-2.8-2.7H353z"/>
	<path fill="#686868" d="M363,320.8c-1.1,0-2-0.4-2.7-1.1c-0.7-0.7-1-1.7-1-2.8c0-1.3,0.3-2.3,1-3s1.6-1.1,2.8-1.1
		c1.1,0,2,0.4,2.6,1.1c0.7,0.7,1,1.7,1,2.8c0,1.3-0.3,2.3-1,3C365,320.5,364.1,320.8,363,320.8z M363,313.8c-0.7,0-1.3,0.3-1.7,0.8
		c-0.4,0.5-0.7,1.2-0.7,2.1s0.2,1.6,0.7,2.1c0.4,0.5,1,0.8,1.7,0.8s1.3-0.3,1.8-0.8c0.4-0.5,0.6-1.2,0.6-2.1s-0.2-1.7-0.6-2.2
		S363.8,313.8,363,313.8z"/>
	<path fill="#686868" d="M373.6,320.3c-0.6,0.3-1.3,0.5-2.2,0.5c-1.1,0-2-0.4-2.7-1.1s-1-1.7-1-2.8c0-1.2,0.4-2.3,1.2-3
		c0.8-0.8,1.7-1.2,2.9-1.2c0.8,0,1.4,0.1,1.9,0.3v1.3c-0.5-0.3-1.1-0.5-1.7-0.5c-0.8,0-1.5,0.3-2.1,0.8c-0.5,0.5-0.8,1.3-0.8,2.2
		s0.2,1.5,0.7,2.1c0.5,0.5,1.1,0.8,1.9,0.8c0.7,0,1.4-0.2,1.9-0.5L373.6,320.3L373.6,320.3z"/>
	<path fill="#686868" d="M381,320.7h-1.7l-2.7-3.6c-0.1-0.1-0.2-0.2-0.2-0.3l0,0v3.8h-1.3v-7.7h1.3v3.7l0,0c0-0.1,0.1-0.2,0.2-0.3
		l2.6-3.4h1.6l-3.1,3.7L381,320.7z"/>
	<path fill="#686868" d="M386.3,320.7h-4.4v-7.8h4.2v1.1h-2.9v2.2h2.7v1.1h-2.7v2.3h3.1L386.3,320.7L386.3,320.7z"/>
	<path fill="#686868" d="M393.7,320.7h-1.5l-1.2-2.1c-0.1-0.2-0.2-0.4-0.3-0.5c-0.1-0.1-0.2-0.2-0.3-0.3s-0.2-0.2-0.4-0.2
		c-0.1,0-0.3-0.1-0.4-0.1H389v3.2h-1.3v-7.8h2.6c0.4,0,0.7,0,1,0.1s0.6,0.2,0.8,0.4c0.2,0.2,0.4,0.4,0.5,0.7s0.2,0.6,0.2,0.9
		s0,0.5-0.1,0.8c-0.1,0.2-0.2,0.4-0.3,0.6c-0.1,0.2-0.3,0.3-0.5,0.5s-0.5,0.2-0.7,0.3l0,0c0.1,0.1,0.3,0.2,0.4,0.3s0.2,0.2,0.3,0.3
		c0.1,0.1,0.2,0.2,0.3,0.3c0.1,0.1,0.2,0.3,0.3,0.4L393.7,320.7z M389,314v2.5h1.1c0.2,0,0.4,0,0.6-0.1s0.3-0.2,0.4-0.3
		s0.2-0.3,0.3-0.4c0.1-0.2,0.1-0.4,0.1-0.6c0-0.4-0.1-0.7-0.4-0.9c-0.2-0.2-0.6-0.3-1-0.3L389,314L389,314z"/>
	<path fill="#686868" d="M403.8,312.8l-2.8,7.8h-1.4l-2.8-7.8h1.4l1.9,5.9c0.1,0.2,0.1,0.4,0.1,0.7l0,0c0-0.2,0.1-0.4,0.2-0.7l2-5.9
		H403.8z"/>
	<path fill="#686868" d="M413.2,320.7h-1.3v-5c0-0.4,0-0.9,0.1-1.5l0,0c-0.1,0.3-0.2,0.6-0.2,0.7l-2.3,5.8h-0.9l-2.3-5.8
		c-0.1-0.2-0.1-0.4-0.2-0.8l0,0c0,0.3,0,0.8,0,1.5v5h-1.2v-7.7h1.8l2.1,5.2c0.2,0.4,0.3,0.7,0.3,0.9l0,0c0.1-0.4,0.2-0.7,0.3-0.9
		l2.1-5.2h1.8L413.2,320.7L413.2,320.7z"/>
	<path fill="#686868" d="M357.9,334.1h-4.4v-7.8h4.2v1.1h-2.9v2.2h2.7v1.1h-2.7v2.3h3.1L357.9,334.1L357.9,334.1z"/>
	<path fill="#686868" d="M365.3,334.1h-1.5l-1.6-2.9c0-0.1-0.1-0.2-0.2-0.4l0,0c0,0.1-0.1,0.2-0.2,0.4l-1.6,2.9h-1.6l2.6-3.9
		l-2.4-3.9h1.6l1.4,2.6c0.1,0.2,0.2,0.3,0.2,0.5l0,0c0.1-0.2,0.2-0.4,0.3-0.5l1.5-2.6h1.5l-2.4,3.9L365.3,334.1z"/>
	<path fill="#686868" d="M371.6,327.3h-2.2v6.7H368v-6.7h-2.2v-1.1h5.8L371.6,327.3L371.6,327.3z"/>
	<path fill="#686868" d="M377.1,334.1h-4.4v-7.8h4.2v1.1H374v2.2h2.7v1.1H374v2.3h3.1V334.1z"/>
	<path fill="#686868" d="M385.1,334.1h-1.4l-3.7-5.7c-0.1-0.1-0.2-0.3-0.2-0.5l0,0c0,0.2,0,0.5,0,1.1v5.1h-1.3v-7.8h1.5l3.6,5.6
		c0.2,0.2,0.3,0.4,0.3,0.5l0,0c0-0.2-0.1-0.6-0.1-1v-5h1.2v7.7L385.1,334.1L385.1,334.1z"/>
	<path fill="#686868" d="M386.7,333.8v-1.3c0.1,0.1,0.3,0.2,0.4,0.3c0.2,0.1,0.3,0.2,0.5,0.2c0.2,0.1,0.4,0.1,0.6,0.1s0.4,0,0.5,0
		c0.5,0,0.9-0.1,1.2-0.3c0.3-0.2,0.4-0.4,0.4-0.8c0-0.2,0-0.3-0.1-0.5s-0.2-0.3-0.4-0.4c-0.2-0.1-0.3-0.2-0.6-0.3s-0.4-0.2-0.7-0.3
		c-0.3-0.1-0.5-0.3-0.7-0.4c-0.2-0.1-0.4-0.3-0.6-0.5s-0.3-0.4-0.4-0.6s-0.1-0.5-0.1-0.8c0-0.4,0.1-0.7,0.2-1
		c0.2-0.3,0.4-0.5,0.7-0.7c0.3-0.2,0.6-0.3,0.9-0.4c0.3-0.1,0.7-0.1,1.1-0.1c0.8,0,1.4,0.1,1.8,0.3v1.3c-0.4-0.3-1-0.5-1.7-0.5
		c-0.2,0-0.4,0-0.6,0.1s-0.4,0.1-0.5,0.2c-0.2,0.1-0.3,0.2-0.4,0.3s-0.1,0.3-0.1,0.5s0,0.3,0.1,0.5s0.2,0.2,0.3,0.3
		c0.1,0.1,0.3,0.2,0.5,0.3s0.4,0.2,0.7,0.3c0.3,0.1,0.5,0.3,0.8,0.4c0.2,0.2,0.5,0.3,0.6,0.5c0.2,0.2,0.3,0.4,0.4,0.6
		c0.1,0.2,0.2,0.5,0.2,0.8c0,0.4-0.1,0.7-0.2,1c-0.2,0.3-0.4,0.5-0.6,0.7c-0.3,0.2-0.6,0.3-0.9,0.4s-0.7,0.1-1.1,0.1
		c-0.1,0-0.3,0-0.5,0s-0.4,0-0.6-0.1s-0.4-0.1-0.6-0.1C386.9,333.8,386.8,333.8,386.7,333.8z"/>
	<path fill="#686868" d="M394.4,334.1h-1.3v-7.8h1.3V334.1z"/>
	<path fill="#686868" d="M399.6,334.2c-1.1,0-2-0.4-2.7-1.1s-1-1.7-1-2.8c0-1.3,0.3-2.3,1-3s1.6-1.1,2.8-1.1c1.1,0,2,0.4,2.6,1.1
		c0.7,0.7,1,1.7,1,2.8c0,1.3-0.3,2.3-1,3C401.6,333.8,400.7,334.2,399.6,334.2z M399.6,327.3c-0.7,0-1.3,0.3-1.7,0.8
		c-0.4,0.5-0.7,1.2-0.7,2.1c0,0.9,0.2,1.6,0.7,2.1c0.4,0.5,1,0.8,1.7,0.8s1.3-0.3,1.8-0.8c0.4-0.5,0.6-1.2,0.6-2.1
		c0-0.9-0.2-1.7-0.6-2.2S400.3,327.3,399.6,327.3z"/>
	<path fill="#686868" d="M411.4,334.1H410l-3.7-5.7c-0.1-0.1-0.2-0.3-0.2-0.5l0,0c0,0.2,0,0.5,0,1.1v5.1h-1.3v-7.8h1.5l3.6,5.6
		c0.2,0.2,0.3,0.4,0.3,0.5l0,0c0-0.2-0.1-0.6-0.1-1v-5h1.2v7.7L411.4,334.1L411.4,334.1z"/>
</g>
<g>
	<path fill="#686868" d="M513.6,368.8h-1.4l-0.7-2h-3.1l-0.7,2h-1.4l2.9-7.8h1.5L513.6,368.8z M511.1,365.8l-1.1-3.1
		c0-0.1-0.1-0.3-0.1-0.5l0,0c0,0.2-0.1,0.4-0.1,0.5l-1.1,3.1H511.1z"/>
	<path fill="#686868" d="M520.2,361.7l-4.2,6.2h4.2v1.1h-6v-0.6l4.3-6.1h-4v-1.1h5.8L520.2,361.7L520.2,361.7z"/>
	<path fill="#686868" d="M527.5,365.8c0,2.2-1,3.3-3.1,3.3c-2,0-3-1.1-3-3.2V361h1.3v4.5c0,1.5,0.6,2.3,1.8,2.3
		c1.1,0,1.7-0.7,1.7-2.2V361h1.3V365.8z"/>
	<path fill="#686868" d="M535.3,368.8h-1.5l-1.2-2.1c-0.1-0.2-0.2-0.4-0.3-0.5s-0.2-0.2-0.3-0.3s-0.2-0.2-0.4-0.2
		c-0.1,0-0.3-0.1-0.4-0.1h-0.5v3.2h-1.3V361h2.6c0.4,0,0.7,0,1,0.1s0.6,0.2,0.8,0.4s0.4,0.4,0.5,0.7s0.2,0.6,0.2,0.9s0,0.5-0.1,0.8
		c-0.1,0.2-0.2,0.4-0.3,0.6c-0.1,0.2-0.3,0.3-0.5,0.5s-0.5,0.2-0.7,0.3l0,0c0.1,0.1,0.3,0.2,0.4,0.3c0.1,0.1,0.2,0.2,0.3,0.3
		s0.2,0.2,0.3,0.3s0.2,0.3,0.3,0.4L535.3,368.8z M530.6,362.2v2.5h1.1c0.2,0,0.4,0,0.6-0.1s0.3-0.2,0.4-0.3c0.1-0.1,0.2-0.3,0.3-0.4
		c0.1-0.2,0.1-0.4,0.1-0.6c0-0.4-0.1-0.7-0.4-0.9c-0.2-0.2-0.6-0.3-1-0.3L530.6,362.2L530.6,362.2z"/>
	<path fill="#686868" d="M540.6,368.8h-4.4V361h4.2v1.1h-2.9v2.2h2.7v1.1h-2.7v2.3h3.1L540.6,368.8L540.6,368.8z"/>
	<path fill="#686868" d="M551.2,361.1l-2.8,7.8H547l-2.8-7.8h1.4l1.9,5.9c0.1,0.2,0.1,0.4,0.1,0.7l0,0c0-0.2,0.1-0.4,0.2-0.7l2-5.9
		H551.2z"/>
	<path fill="#686868" d="M560.6,368.8h-1.3v-5c0-0.4,0-0.9,0.1-1.5l0,0c-0.1,0.3-0.2,0.6-0.2,0.7l-2.3,5.8H556l-2.3-5.8
		c-0.1-0.2-0.1-0.4-0.2-0.8l0,0c0,0.3,0,0.8,0,1.5v5h-1.2V361h1.8l2.1,5.2c0.2,0.4,0.3,0.7,0.3,0.9l0,0c0.1-0.4,0.2-0.7,0.3-0.9
		l2.1-5.2h1.8L560.6,368.8L560.6,368.8z"/>
	<path fill="#686868" d="M565.6,368.8V361h2.5c0.8,0,1.4,0.2,1.8,0.5c0.4,0.3,0.7,0.8,0.7,1.3c0,0.4-0.1,0.8-0.4,1.2
		c-0.3,0.3-0.6,0.6-1,0.7l0,0c0.5,0.1,1,0.3,1.3,0.6s0.5,0.8,0.5,1.3c0,0.7-0.3,1.2-0.8,1.6c-0.5,0.4-1.2,0.6-2,0.6L565.6,368.8
		L565.6,368.8z M566.9,362.2v2.2h0.8c0.5,0,0.8-0.1,1.1-0.3s0.4-0.5,0.4-0.9c0-0.7-0.4-1-1.3-1H566.9L566.9,362.2z M566.9,365.3v2.5
		h1.1c0.5,0,0.9-0.1,1.1-0.3c0.3-0.2,0.4-0.5,0.4-0.9c0-0.8-0.6-1.2-1.7-1.2L566.9,365.3L566.9,365.3L566.9,365.3z"/>
</g>
<g>
	<path fill="#686868" d="M370.2,368.8h-1.4l-0.7-2H365l-0.7,2h-1.4l2.9-7.8h1.5L370.2,368.8z M367.7,365.8l-1.1-3.1
		c0-0.1-0.1-0.3-0.1-0.5l0,0c0,0.2-0.1,0.4-0.1,0.5l-1.1,3.1H367.7z"/>
	<path fill="#686868" d="M376.8,361.7l-4.3,6.1h4.2v1.1h-6v-0.6l4.3-6.1h-4V361h5.8V361.7z"/>
	<path fill="#686868" d="M384,365.8c0,2.2-1,3.3-3.1,3.3c-2,0-3-1.1-3-3.2V361h1.3v4.5c0,1.5,0.6,2.3,1.8,2.3c1.1,0,1.7-0.7,1.7-2.2
		V361h1.3L384,365.8L384,365.8z"/>
	<path fill="#686868" d="M391.9,368.8h-1.5l-1.2-2.1c-0.1-0.2-0.2-0.4-0.3-0.5c-0.1-0.1-0.2-0.2-0.3-0.3s-0.2-0.2-0.4-0.2
		c-0.1,0-0.3-0.1-0.4-0.1h-0.5v3.2H386V361h2.6c0.4,0,0.7,0,1,0.1s0.6,0.2,0.8,0.4c0.2,0.2,0.4,0.4,0.5,0.7s0.2,0.6,0.2,0.9
		s0,0.5-0.1,0.8c-0.1,0.2-0.2,0.4-0.3,0.6c-0.1,0.2-0.3,0.3-0.5,0.5s-0.5,0.2-0.7,0.3l0,0c0.1,0.1,0.3,0.2,0.4,0.3s0.2,0.2,0.3,0.3
		c0.1,0.1,0.2,0.2,0.3,0.3c0.1,0.1,0.2,0.3,0.3,0.4L391.9,368.8z M387.1,362.2v2.5h1.1c0.2,0,0.4,0,0.6-0.1s0.3-0.2,0.4-0.3
		s0.2-0.3,0.3-0.4c0.1-0.2,0.1-0.4,0.1-0.6c0-0.4-0.1-0.7-0.4-0.9c-0.2-0.2-0.6-0.3-1-0.3L387.1,362.2L387.1,362.2z"/>
	<path fill="#686868" d="M397.1,368.8h-4.4V361h4.2v1.1H394v2.2h2.7v1.1H394v2.3h3.1V368.8L397.1,368.8z"/>
	<path fill="#686868" d="M407.7,361.1l-2.8,7.8h-1.4l-2.8-7.8h1.4l1.9,5.9c0.1,0.2,0.1,0.4,0.1,0.7l0,0c0-0.2,0.1-0.4,0.2-0.7l2-5.9
		H407.7z"/>
	<path fill="#686868" d="M417.1,368.8h-1.3v-5c0-0.4,0-0.9,0.1-1.5l0,0c-0.1,0.3-0.2,0.6-0.2,0.7l-2.3,5.8h-0.9l-2.3-5.8
		c-0.1-0.2-0.1-0.4-0.2-0.8l0,0c0,0.3,0,0.8,0,1.5v5h-1.2V361h1.8l2.1,5.2c0.2,0.4,0.3,0.7,0.3,0.9l0,0c0.1-0.4,0.2-0.7,0.3-0.9
		l2.1-5.2h1.8L417.1,368.8L417.1,368.8z"/>
	<path fill="#686868" d="M428.5,368.8h-1.4l-0.7-2h-3.1l-0.7,2h-1.4l2.9-7.8h1.5L428.5,368.8z M426.1,365.8l-1.1-3.1
		c0-0.1-0.1-0.3-0.1-0.5l0,0c0,0.2-0.1,0.4-0.1,0.5l-1.1,3.1H426.1z"/>
</g>
<g>
	<path fill="#686868" d="M441.9,314.1h16.3v-2.8h-17.7c-0.8,0-1.4,0.6-1.4,1.4v21.9c0,0.8,0.6,1.4,1.4,1.4h17.7v-2.8h-16.3V314.1z"
		/>
	<path fill="#686868" d="M492.4,314.1v19.2h-16.1v2.8h17.5c0.8,0,1.4-0.6,1.4-1.4v-21.9c0-0.8-0.6-1.4-1.4-1.4h-17.5v2.8
		L492.4,314.1L492.4,314.1z"/>
	<rect x="473.5" y="296.1" fill="#686868" width="2.8" height="15.2"/>
	<path fill="#686868" d="M602.7,175.3H474.9c-0.8,0-1.4,0.6-1.4,1.4v94.7h2.8V178h125v173.5h-125V336h-2.8v16.9
		c0,0.8,0.6,1.4,1.4,1.4h127.8c0.8,0,1.4-0.6,1.4-1.4V176.7C604.1,175.9,603.5,175.3,602.7,175.3z"/>
	<rect x="458.2" y="296.1" fill="#686868" width="2.8" height="15.2"/>
	<path fill="#686868" d="M459.6,175.3H331.8c-0.8,0-1.4,0.6-1.4,1.4v176.2c0,0.8,0.6,1.4,1.4,1.4h127.8c0.8,0,1.4-0.6,1.4-1.4V336
		h-2.8v15.6h-125V178h125v93.3h2.8v-94.7C461,175.9,460.4,175.3,459.6,175.3z"/>
	<path fill="#686868" d="M444.7,293.3V274h13.6v-2.8h-14.9c-0.8,0-1.4,0.6-1.4,1.4v21.9c0,0.8,0.6,1.4,1.4,1.4h14.9v-2.8
		L444.7,293.3L444.7,293.3z"/>
	<rect x="458.2" y="293.3" fill="#686868" width="2.8" height="2.8"/>
	<rect x="458.2" y="271.3" fill="#686868" width="2.8" height="2.8"/>
	<path fill="#686868" d="M489.6,274.1v19.2h-13.3v2.8H491c0.8,0,1.4-0.6,1.4-1.4v-21.9c0-0.8-0.6-1.4-1.4-1.4h-14.7v2.8L489.6,274.1
		L489.6,274.1z"/>
	<rect x="473.5" y="271.3" fill="#686868" width="2.8" height="2.8"/>
	<rect x="473.5" y="293.3" fill="#686868" width="2.8" height="2.8"/>
	<rect x="473.5" y="311.3" fill="#686868" width="2.8" height="2.8"/>
	<rect x="473.5" y="333.2" fill="#686868" width="2.8" height="2.8"/>
	<rect x="458.2" y="333.2" fill="#686868" width="2.8" height="2.8"/>
	<rect x="458.2" y="311.3" fill="#686868" width="2.8" height="2.8"/>
</g>
<g>
	<path fill="#686868" d="M457.3,288.2H456v-7.8h1.3V288.2z"/>
	<path fill="#686868" d="M465.6,288.2h-1.4l-0.7-2h-3.1l-0.7,2h-1.4l2.9-7.8h1.5L465.6,288.2z M463.1,285.2L462,282
		c0-0.1-0.1-0.3-0.1-0.5l0,0c0,0.2-0.1,0.4-0.1,0.5l-1.1,3.1h2.4V285.2z"/>
	<path fill="#686868" d="M473.1,288.2h-1.4l-0.7-2h-3.1l-0.7,2h-1.4l2.9-7.8h1.5L473.1,288.2z M470.6,285.2l-1.1-3.1
		c0-0.1-0.1-0.3-0.1-0.5l0,0c0,0.2-0.1,0.4-0.1,0.5l-1.1,3.1H470.6z"/>
	<path fill="#686868" d="M473.8,287.8v-1.3c0.1,0.1,0.3,0.2,0.4,0.3c0.2,0.1,0.3,0.2,0.5,0.2c0.2,0.1,0.4,0.1,0.6,0.1s0.4,0,0.5,0
		c0.5,0,0.9-0.1,1.2-0.3c0.3-0.2,0.4-0.4,0.4-0.8c0-0.2,0-0.3-0.1-0.5s-0.2-0.3-0.4-0.4c-0.2-0.1-0.3-0.2-0.6-0.3s-0.4-0.2-0.7-0.3
		c-0.3-0.1-0.5-0.3-0.7-0.4s-0.4-0.3-0.6-0.5s-0.3-0.4-0.4-0.6c-0.1-0.2-0.1-0.5-0.1-0.8c0-0.4,0.1-0.7,0.2-1
		c0.2-0.3,0.4-0.5,0.7-0.7c0.3-0.2,0.6-0.3,0.9-0.4s0.7-0.1,1.1-0.1c0.8,0,1.4,0.1,1.8,0.3v1.3c-0.4-0.3-1-0.5-1.7-0.5
		c-0.2,0-0.4,0-0.6,0.1s-0.4,0.1-0.5,0.2c-0.2,0.1-0.3,0.2-0.4,0.3s-0.1,0.3-0.1,0.5s0,0.3,0.1,0.5s0.2,0.2,0.3,0.3
		c0.1,0.1,0.3,0.2,0.5,0.3s0.4,0.2,0.7,0.3c0.3,0.1,0.5,0.3,0.8,0.4c0.2,0.2,0.5,0.3,0.6,0.5c0.2,0.2,0.3,0.4,0.4,0.6
		s0.2,0.5,0.2,0.8c0,0.4-0.1,0.7-0.2,1c-0.2,0.3-0.4,0.5-0.6,0.7c-0.3,0.2-0.6,0.3-0.9,0.4c-0.3,0.1-0.7,0.1-1.1,0.1
		c-0.1,0-0.3,0-0.5,0s-0.4,0-0.6-0.1s-0.4-0.1-0.6-0.1C474,288,473.9,288,473.8,287.8z"/>
</g>
<g>
	<path fill="#686868" d="M447.1,327.1v-1.3c0.1,0.1,0.3,0.2,0.4,0.3c0.2,0.1,0.3,0.2,0.5,0.2c0.2,0.1,0.4,0.1,0.6,0.1s0.4,0,0.5,0
		c0.5,0,0.9-0.1,1.2-0.3c0.3-0.2,0.4-0.4,0.4-0.8c0-0.2,0-0.3-0.1-0.5s-0.2-0.3-0.4-0.4c-0.2-0.1-0.3-0.2-0.6-0.3s-0.4-0.2-0.7-0.3
		c-0.3-0.1-0.5-0.3-0.7-0.4s-0.4-0.3-0.6-0.5s-0.3-0.4-0.4-0.6c-0.1-0.2-0.1-0.5-0.1-0.8c0-0.4,0.1-0.7,0.2-1
		c0.2-0.3,0.4-0.5,0.7-0.7c0.3-0.2,0.6-0.3,0.9-0.4s0.7-0.1,1.1-0.1c0.8,0,1.4,0.1,1.8,0.3v1.3c-0.4-0.3-1-0.5-1.7-0.5
		c-0.2,0-0.4,0-0.6,0.1s-0.4,0.1-0.5,0.2c-0.2,0.1-0.3,0.2-0.4,0.3s-0.1,0.3-0.1,0.5s0,0.3,0.1,0.5s0.2,0.2,0.3,0.3
		c0.1,0.1,0.3,0.2,0.5,0.3s0.4,0.2,0.7,0.3c0.3,0.1,0.5,0.3,0.8,0.4c0.2,0.2,0.5,0.3,0.6,0.5c0.2,0.2,0.3,0.4,0.4,0.6
		s0.2,0.5,0.2,0.8c0,0.4-0.1,0.7-0.2,1c-0.2,0.3-0.4,0.5-0.6,0.7c-0.3,0.2-0.6,0.3-0.9,0.4c-0.3,0.1-0.7,0.1-1.1,0.1
		c-0.1,0-0.3,0-0.5,0s-0.4,0-0.6-0.1s-0.4-0.1-0.6-0.1C447.4,327.3,447.3,327.2,447.1,327.1z"/>
	<path fill="#686868" d="M463.3,319.6l-2.1,7.8h-1.5l-1.5-5.5c-0.1-0.2-0.1-0.5-0.1-0.8l0,0c0,0.3-0.1,0.5-0.1,0.8l-1.5,5.5H455
		l-2.2-7.8h1.4l1.4,5.7c0.1,0.2,0.1,0.5,0.1,0.8l0,0c0-0.2,0.1-0.4,0.2-0.8l1.6-5.7h1.3l1.5,5.8c0.1,0.2,0.1,0.4,0.1,0.7l0,0
		c0-0.2,0.1-0.4,0.1-0.7l1.4-5.7L463.3,319.6L463.3,319.6z"/>
	<path fill="#686868" d="M470.3,327.3h-1.4l-0.7-2h-3.1l-0.7,2H463l2.9-7.8h1.5L470.3,327.3z M467.9,324.3l-1.1-3.1
		c0-0.1-0.1-0.3-0.1-0.5l0,0c0,0.2-0.1,0.4-0.1,0.5l-1.1,3.1H467.9z"/>
	<path fill="#686868" d="M477.4,327.3h-1.5l-1.2-2.1c-0.1-0.2-0.2-0.4-0.3-0.5c-0.1-0.1-0.2-0.2-0.3-0.3s-0.2-0.2-0.4-0.2
		c-0.1,0-0.3-0.1-0.4-0.1h-0.5v3.2h-1.3v-7.8h2.6c0.4,0,0.7,0,1,0.1s0.6,0.2,0.8,0.4c0.2,0.2,0.4,0.4,0.5,0.7s0.2,0.6,0.2,0.9
		s0,0.5-0.1,0.8c-0.1,0.2-0.2,0.4-0.3,0.6c-0.1,0.2-0.3,0.3-0.5,0.5s-0.5,0.2-0.7,0.3l0,0c0.1,0.1,0.3,0.2,0.4,0.3s0.2,0.2,0.3,0.3
		c0.1,0.1,0.2,0.2,0.3,0.3c0.1,0.1,0.2,0.3,0.3,0.4L477.4,327.3z M472.7,320.7v2.5h1.1c0.2,0,0.4,0,0.6-0.1s0.3-0.2,0.4-0.3
		s0.2-0.3,0.3-0.4c0.1-0.2,0.1-0.4,0.1-0.6c0-0.4-0.1-0.7-0.4-0.9c-0.2-0.2-0.6-0.3-1-0.3L472.7,320.7L472.7,320.7z"/>
	<path fill="#686868" d="M486.7,327.3h-1.3v-5c0-0.4,0-0.9,0.1-1.5l0,0c-0.1,0.3-0.2,0.6-0.2,0.7l-2.3,5.8h-0.9l-2.3-5.8
		c-0.1-0.2-0.1-0.4-0.2-0.8l0,0c0,0.3,0,0.8,0,1.5v5h-1.2v-7.8h1.8l2.1,5.2c0.2,0.4,0.3,0.7,0.3,0.9l0,0c0.1-0.4,0.2-0.7,0.3-0.9
		l2.1-5.2h1.8L486.7,327.3L486.7,327.3z"/>
</g>
<path fill="none" stroke="#686868" stroke-width="3" stroke-linecap="round" stroke-linejoin="round" stroke-miterlimit="10" d="
	M455.9,414.1H293.3c-4.5,0-8,3-7.6,6.5c6.1,52.2,102.8,122.2,170.1,123.4c1.8,0,3.2-1.1,3.2-2.5v-125
	C459.1,415.2,457.7,414.1,455.9,414.1z"/>
<path fill="none" stroke="#686868" stroke-width="3" stroke-linecap="round" stroke-linejoin="round" stroke-miterlimit="10" d="
	M479.5,414.1h162.7c4.5,0,8,3,7.6,6.5C643.7,472.8,547,542.8,479.7,544c-1.8,0-3.2-1.1-3.2-2.5v-125
	C476.4,415.2,477.8,414.1,479.5,414.1z"/>
<g>
	<path fill="#686868" d="M404.9,502.2v2.8h-1.3v-8h2.4c0.9,0,1.6,0.2,2.1,0.6c0.5,0.4,0.7,1,0.7,1.8s-0.3,1.4-0.8,1.9
		s-1.2,0.7-2.1,0.7h-1L404.9,502.2L404.9,502.2z M404.9,498.3v2.9h0.8c0.6,0,1-0.1,1.3-0.4s0.4-0.6,0.4-1.1c0-0.9-0.5-1.4-1.6-1.4
		H404.9z"/>
	<path fill="#686868" d="M413.3,500.6c-0.2-0.1-0.4-0.2-0.7-0.2c-0.4,0-0.7,0.2-0.9,0.5c-0.2,0.3-0.4,0.8-0.4,1.4v2.7H410v-5.6h1.3
		v1.2l0,0c0.1-0.4,0.3-0.7,0.6-0.9c0.3-0.2,0.5-0.3,0.9-0.3c0.2,0,0.4,0,0.5,0.1V500.6z"/>
	<path fill="#686868" d="M414.8,498.3c-0.2,0-0.4-0.1-0.5-0.2s-0.2-0.3-0.2-0.5s0.1-0.4,0.2-0.5s0.3-0.2,0.5-0.2s0.4,0.1,0.5,0.2
		s0.2,0.3,0.2,0.5s-0.1,0.4-0.2,0.5C415.2,498.2,415.1,498.3,414.8,498.3z M415.5,505h-1.3v-5.6h1.3V505z"/>
	<path fill="#686868" d="M425.5,505h-1.3v-3.1c0-0.6-0.1-1-0.3-1.3c-0.2-0.3-0.4-0.4-0.8-0.4c-0.3,0-0.6,0.2-0.8,0.5
		c-0.2,0.3-0.3,0.7-0.3,1.2v3h-1.3v-3c0-1-0.4-1.6-1.1-1.6c-0.3,0-0.6,0.2-0.8,0.5c-0.2,0.3-0.3,0.7-0.3,1.2v3h-1.3v-5.6h1.3v0.9
		l0,0c0.4-0.7,1-1,1.8-1c0.4,0,0.7,0.1,1,0.3s0.5,0.5,0.6,0.8c0.4-0.8,1-1.2,1.9-1.2c1.2,0,1.9,0.8,1.9,2.3v3.5L425.5,505L425.5,505
		z"/>
	<path fill="#686868" d="M431.4,505h-1.2v-0.9l0,0c-0.4,0.7-1,1-1.7,1c-0.6,0-1-0.2-1.3-0.4c-0.3-0.3-0.5-0.7-0.5-1.2
		c0-1.1,0.6-1.7,1.8-1.9l1.7-0.2c0-0.8-0.4-1.2-1.1-1.2s-1.3,0.2-1.8,0.7v-1.1c0.6-0.4,1.3-0.5,2-0.5c1.4,0,2.1,0.7,2.1,2.1V505z
		 M430.1,502.3l-1.2,0.2c-0.4,0-0.6,0.1-0.8,0.3c-0.2,0.1-0.3,0.4-0.3,0.7c0,0.2,0.1,0.4,0.3,0.6c0.2,0.2,0.4,0.2,0.7,0.2
		c0.4,0,0.7-0.1,1-0.4s0.4-0.6,0.4-1v-0.6H430.1z"/>
	<path fill="#686868" d="M436.2,500.6c-0.2-0.1-0.4-0.2-0.7-0.2c-0.4,0-0.7,0.2-0.9,0.5c-0.2,0.3-0.4,0.8-0.4,1.4v2.7h-1.3v-5.6h1.3
		v1.2l0,0c0.1-0.4,0.3-0.7,0.6-0.9c0.3-0.2,0.5-0.3,0.9-0.3c0.2,0,0.4,0,0.5,0.1V500.6z"/>
	<path fill="#686868" d="M442.4,499.3l-2.5,6.5c-0.5,1.2-1.3,1.7-2.2,1.7c-0.3,0-0.5,0-0.7-0.1v-1.1c0.2,0.1,0.4,0.1,0.5,0.1
		c0.5,0,0.8-0.2,1.1-0.7l0.4-0.9l-2.2-5.6h1.4l1.3,4.1c0,0.1,0,0.2,0.1,0.4l0,0c0-0.1,0.1-0.2,0.1-0.4l1.4-4.1L442.4,499.3
		L442.4,499.3z"/>
	<path fill="#686868" d="M396.3,518.4v-7.9h2.3c2.9,0,4.3,1.3,4.3,3.8c0,1.2-0.4,2.2-1.2,2.9c-0.8,0.7-1.9,1.1-3.2,1.1L396.3,518.4
		L396.3,518.4z M397.6,511.8v5.6h1c0.9,0,1.6-0.3,2.1-0.8s0.8-1.2,0.8-2.1c0-1.8-1-2.8-2.9-2.8L397.6,511.8L397.6,511.8z"/>
	<path fill="#686868" d="M408.5,518.4h-1.2v-0.9l0,0c-0.4,0.7-1,1-1.7,1c-0.6,0-1-0.2-1.3-0.4c-0.3-0.3-0.5-0.7-0.5-1.2
		c0-1.1,0.6-1.7,1.8-1.9l1.7-0.2c0-0.8-0.4-1.2-1.1-1.2s-1.3,0.2-1.8,0.7v-1.1c0.6-0.4,1.3-0.5,2-0.5c1.4,0,2.1,0.7,2.1,2.1V518.4z
		 M407.3,515.8l-1.2,0.2c-0.4,0-0.6,0.1-0.8,0.3c-0.2,0.1-0.3,0.4-0.3,0.7c0,0.2,0.1,0.4,0.3,0.6c0.2,0.2,0.4,0.2,0.7,0.2
		c0.4,0,0.7-0.1,1-0.4c0.3-0.3,0.4-0.6,0.4-1v-0.6H407.3z"/>
	<path fill="#686868" d="M413,518.3c-0.2,0.1-0.6,0.2-1,0.2c-1.1,0-1.6-0.5-1.6-1.6v-3.1h-0.9v-1h0.9v-1.3l1.3-0.4v1.7h1.3v1h-1.3
		v2.8c0,0.3,0.1,0.6,0.2,0.7s0.3,0.2,0.6,0.2c0.2,0,0.4-0.1,0.6-0.2v1L413,518.3L413,518.3z"/>
	<path fill="#686868" d="M418.4,518.4h-1.2v-0.9l0,0c-0.4,0.7-1,1-1.7,1c-0.6,0-1-0.2-1.3-0.4c-0.3-0.3-0.5-0.7-0.5-1.2
		c0-1.1,0.6-1.7,1.8-1.9l1.7-0.2c0-0.8-0.4-1.2-1.1-1.2s-1.3,0.2-1.8,0.7v-1.1c0.6-0.4,1.3-0.5,2-0.5c1.4,0,2.1,0.7,2.1,2.1V518.4z
		 M417.2,515.8l-1.2,0.1c-0.4,0-0.6,0.1-0.8,0.3c-0.2,0.1-0.3,0.4-0.3,0.7c0,0.2,0.1,0.4,0.3,0.6c0.2,0.2,0.4,0.2,0.7,0.2
		c0.4,0,0.7-0.1,1-0.4s0.4-0.6,0.4-1v-0.5L417.2,515.8L417.2,515.8z"/>
	<path fill="#686868" d="M421.2,517.7L421.2,517.7v0.8h-1.3v-8.3h1.3v3.7l0,0c0.4-0.7,1.1-1.1,1.9-1.1c0.7,0,1.3,0.3,1.7,0.8
		c0.4,0.5,0.6,1.2,0.6,2c0,0.9-0.2,1.7-0.7,2.3s-1.1,0.8-1.8,0.8C422.2,518.6,421.6,518.3,421.2,517.7z M421.2,515.4v0.7
		c0,0.4,0.1,0.8,0.4,1c0.3,0.3,0.6,0.4,1,0.4c0.5,0,0.8-0.2,1.1-0.6c0.3-0.4,0.4-0.9,0.4-1.5s-0.1-1-0.4-1.3s-0.6-0.5-1-0.5
		c-0.5,0-0.8,0.2-1.1,0.5C421.3,514.6,421.2,514.9,421.2,515.4z"/>
	<path fill="#686868" d="M430.9,518.4h-1.2v-0.9l0,0c-0.4,0.7-1,1-1.7,1c-0.6,0-1-0.2-1.3-0.4c-0.3-0.3-0.5-0.7-0.5-1.2
		c0-1.1,0.6-1.7,1.8-1.9l1.7-0.2c0-0.8-0.4-1.2-1.1-1.2s-1.3,0.2-1.8,0.7v-1.1c0.6-0.4,1.3-0.5,2-0.5c1.4,0,2.1,0.7,2.1,2.1V518.4z
		 M429.7,515.8l-1.2,0.2c-0.4,0-0.6,0.1-0.8,0.3c-0.2,0.1-0.3,0.4-0.3,0.7c0,0.2,0.1,0.4,0.3,0.6c0.2,0.2,0.4,0.2,0.7,0.2
		c0.4,0,0.7-0.1,1-0.4c0.3-0.3,0.4-0.6,0.4-1v-0.6H429.7z"/>
	<path fill="#686868" d="M432.1,518.3v-1.2c0.5,0.4,1,0.5,1.6,0.5c0.8,0,1.2-0.2,1.2-0.7c0-0.1,0-0.2-0.1-0.3s-0.2-0.2-0.3-0.2
		c-0.1-0.1-0.2-0.1-0.4-0.2c-0.2-0.1-0.3-0.1-0.5-0.2c-0.2-0.1-0.4-0.2-0.6-0.3s-0.3-0.2-0.5-0.3c-0.1-0.1-0.2-0.3-0.3-0.4
		c-0.1-0.1-0.1-0.4-0.1-0.6c0-0.3,0.1-0.5,0.2-0.7s0.3-0.4,0.5-0.5s0.5-0.2,0.7-0.3c0.3-0.1,0.6-0.1,0.8-0.1c0.5,0,1,0.1,1.4,0.2
		v1.1c-0.4-0.3-0.8-0.4-1.4-0.4c-0.2,0-0.3,0-0.4,0s-0.2,0.1-0.3,0.1c-0.1,0.1-0.2,0.1-0.2,0.2c-0.1,0.1-0.1,0.2-0.1,0.3
		s0,0.2,0.1,0.3s0.1,0.2,0.2,0.2s0.2,0.1,0.4,0.2c0.1,0.1,0.3,0.1,0.5,0.2c0.2,0.1,0.5,0.2,0.6,0.3s0.4,0.2,0.5,0.3s0.2,0.3,0.3,0.4
		c0.1,0.1,0.1,0.4,0.1,0.6c0,0.3-0.1,0.5-0.2,0.7s-0.3,0.4-0.5,0.5s-0.5,0.2-0.8,0.3s-0.6,0.1-0.9,0.1
		C433.1,518.6,432.5,518.4,432.1,518.3z"/>
	<path fill="#686868" d="M442,515.9h-3.8c0,0.5,0.2,0.9,0.5,1.2s0.7,0.4,1.3,0.4c0.6,0,1.1-0.2,1.6-0.5v1c-0.5,0.3-1.2,0.5-2,0.5
		s-1.5-0.3-1.9-0.8c-0.5-0.5-0.7-1.2-0.7-2.2c0-0.9,0.3-1.6,0.8-2.1s1.2-0.8,1.9-0.8c0.8,0,1.4,0.2,1.8,0.7s0.6,1.2,0.6,2.1
		L442,515.9L442,515.9z M440.8,515.2c0-0.5-0.1-0.8-0.3-1.1c-0.2-0.3-0.5-0.4-0.9-0.4s-0.7,0.1-0.9,0.4s-0.4,0.6-0.5,1L440.8,515.2
		L440.8,515.2z"/>
</g>
<g>
	<path fill="#686868" d="M491.4,504.7v-1.3c0.1,0.1,0.3,0.2,0.4,0.3c0.2,0.1,0.3,0.2,0.5,0.2c0.2,0.1,0.4,0.1,0.6,0.1s0.4,0,0.5,0
		c0.5,0,1-0.1,1.2-0.3s0.4-0.4,0.4-0.8c0-0.2,0-0.3-0.1-0.5c-0.1-0.1-0.2-0.3-0.4-0.4c-0.2-0.1-0.3-0.2-0.6-0.3
		c-0.2-0.1-0.5-0.2-0.7-0.3c-0.3-0.1-0.5-0.3-0.7-0.4s-0.4-0.3-0.6-0.5s-0.3-0.4-0.4-0.6c-0.1-0.2-0.1-0.5-0.1-0.8
		c0-0.4,0.1-0.7,0.2-1c0.2-0.3,0.4-0.5,0.7-0.7c0.3-0.2,0.6-0.3,0.9-0.4s0.7-0.1,1.1-0.1c0.8,0,1.4,0.1,1.8,0.3v1.3
		c-0.4-0.3-1-0.5-1.7-0.5c-0.2,0-0.4,0-0.6,0.1c-0.2,0-0.4,0.1-0.5,0.2c-0.2,0.1-0.3,0.2-0.4,0.3s-0.1,0.3-0.1,0.5s0,0.3,0.1,0.5
		s0.2,0.2,0.3,0.4c0.1,0.1,0.3,0.2,0.5,0.3s0.4,0.2,0.7,0.3c0.3,0.1,0.5,0.3,0.8,0.4c0.2,0.2,0.5,0.3,0.6,0.5
		c0.2,0.2,0.3,0.4,0.4,0.6c0.1,0.2,0.2,0.5,0.2,0.8c0,0.4-0.1,0.7-0.2,1c-0.2,0.3-0.4,0.5-0.6,0.7c-0.3,0.2-0.6,0.3-0.9,0.4
		c-0.4,0.1-0.7,0.1-1.1,0.1c-0.1,0-0.3,0-0.5,0s-0.4,0-0.6-0.1c-0.2,0-0.4-0.1-0.6-0.1S491.5,504.8,491.4,504.7z"/>
	<path fill="#686868" d="M502.5,502.6h-3.8c0,0.5,0.2,0.9,0.5,1.2s0.7,0.4,1.3,0.4c0.6,0,1.1-0.2,1.6-0.5v1c-0.5,0.3-1.2,0.5-2,0.5
		s-1.5-0.3-1.9-0.8c-0.5-0.5-0.7-1.2-0.7-2.2c0-0.9,0.3-1.6,0.8-2.1s1.2-0.8,1.9-0.8c0.8,0,1.4,0.2,1.8,0.7s0.6,1.2,0.6,2.1
		L502.5,502.6L502.5,502.6z M501.3,501.7c0-0.5-0.1-0.8-0.3-1.1s-0.5-0.4-0.9-0.4s-0.7,0.1-0.9,0.4s-0.4,0.6-0.5,1L501.3,501.7
		L501.3,501.7L501.3,501.7z"/>
	<path fill="#686868" d="M507.7,504.8c-0.4,0.3-1,0.4-1.6,0.4c-0.8,0-1.5-0.3-2-0.8s-0.8-1.2-0.8-2c0-0.9,0.3-1.7,0.8-2.2
		s1.3-0.8,2.2-0.8c0.5,0,1,0.1,1.4,0.3v1.2c-0.4-0.3-0.8-0.4-1.3-0.4s-1,0.2-1.3,0.5s-0.5,0.8-0.5,1.4c0,0.6,0.2,1,0.5,1.4
		s0.8,0.5,1.3,0.5s0.9-0.2,1.3-0.5V504.8z"/>
	<path fill="#686868" d="M511.5,505.2c-0.9,0-1.6-0.3-2.1-0.8s-0.8-1.2-0.8-2.1s0.3-1.7,0.8-2.2s1.3-0.8,2.2-0.8
		c0.9,0,1.6,0.3,2,0.8s0.7,1.2,0.7,2.1c0,0.9-0.3,1.6-0.8,2.2C513.1,504.8,512.4,505.2,511.5,505.2z M511.5,500.3
		c-0.5,0-0.9,0.2-1.2,0.5c-0.3,0.3-0.4,0.8-0.4,1.4c0,0.6,0.1,1.1,0.4,1.4s0.7,0.5,1.2,0.5s0.9-0.2,1.2-0.5s0.4-0.8,0.4-1.4
		c0-0.6-0.1-1.1-0.4-1.4S512,500.3,511.5,500.3z"/>
	<path fill="#686868" d="M520.7,505h-1.3v-3.1c0-1-0.4-1.6-1.1-1.6c-0.4,0-0.7,0.1-1,0.4c-0.3,0.3-0.4,0.7-0.4,1.1v3.2h-1.3v-5.6
		h1.3v0.9l0,0c0.4-0.7,1-1.1,1.8-1.1c0.6,0,1.1,0.2,1.4,0.6c0.3,0.4,0.5,1,0.5,1.7L520.7,505L520.7,505z"/>
	<path fill="#686868" d="M527.4,505h-1.3v-1l0,0c-0.4,0.7-1,1.1-1.9,1.1c-0.7,0-1.2-0.3-1.7-0.8c-0.4-0.5-0.6-1.2-0.6-2.1
		s0.2-1.7,0.7-2.2c0.5-0.6,1.1-0.8,1.8-0.8c0.8,0,1.3,0.3,1.6,0.9l0,0v-3.5h1.3v8.4L527.4,505L527.4,505z M526.1,502.5v-0.7
		c0-0.4-0.1-0.7-0.4-1c-0.3-0.3-0.6-0.4-1-0.4c-0.5,0-0.8,0.2-1.1,0.5c-0.3,0.4-0.4,0.8-0.4,1.5c0,0.6,0.1,1,0.4,1.4
		c0.3,0.3,0.6,0.5,1.1,0.5c0.4,0,0.8-0.2,1.1-0.5C526,503.3,526.1,503,526.1,502.5z"/>
	<path fill="#686868" d="M533.3,505h-1.2v-0.9l0,0c-0.4,0.7-1,1-1.7,1c-0.6,0-1-0.2-1.3-0.4c-0.3-0.3-0.5-0.7-0.5-1.2
		c0-1.1,0.6-1.7,1.8-1.9l1.7-0.2c0-0.8-0.4-1.2-1.1-1.2c-0.7,0-1.3,0.2-1.8,0.7v-1.1c0.6-0.4,1.3-0.5,2-0.5c1.4,0,2.1,0.7,2.1,2.1
		V505z M532.1,502.3l-1.2,0.2c-0.4,0-0.6,0.1-0.8,0.3c-0.2,0.1-0.3,0.4-0.3,0.7c0,0.2,0.1,0.4,0.3,0.6c0.2,0.2,0.4,0.2,0.7,0.2
		c0.4,0,0.7-0.1,1-0.4s0.4-0.6,0.4-1v-0.6H532.1z"/>
	<path fill="#686868" d="M538.1,500.6c-0.2-0.1-0.4-0.2-0.7-0.2c-0.4,0-0.7,0.2-0.9,0.5s-0.4,0.8-0.4,1.4v2.7h-1.3v-5.6h1.3v1.2l0,0
		c0.1-0.4,0.3-0.7,0.6-0.9s0.5-0.3,0.9-0.3c0.2,0,0.4,0,0.5,0.1L538.1,500.6L538.1,500.6z"/>
	<path fill="#686868" d="M544.3,499.3l-2.5,6.5c-0.5,1.2-1.3,1.7-2.2,1.7c-0.3,0-0.5,0-0.7-0.1v-1.1c0.2,0.1,0.4,0.1,0.5,0.1
		c0.5,0,0.8-0.2,1.1-0.7l0.4-0.9l-2.2-5.6h1.4l1.3,4.1c0,0.1,0,0.2,0.1,0.4l0,0c0-0.1,0.1-0.2,0.1-0.4l1.4-4.1L544.3,499.3
		L544.3,499.3z"/>
	<path fill="#686868" d="M491.8,518.4v-7.9h2.3c2.9,0,4.3,1.3,4.3,3.8c0,1.2-0.4,2.2-1.2,2.9c-0.8,0.7-1.9,1.1-3.2,1.1L491.8,518.4
		L491.8,518.4z M493.1,511.8v5.6h1c0.9,0,1.6-0.3,2.1-0.8s0.8-1.2,0.8-2.1c0-1.8-1-2.8-2.9-2.8L493.1,511.8L493.1,511.8z"/>
	<path fill="#686868" d="M504,518.4h-1.2v-0.9l0,0c-0.4,0.7-1,1-1.7,1c-0.6,0-1-0.2-1.3-0.4c-0.3-0.3-0.5-0.7-0.5-1.2
		c0-1.1,0.6-1.7,1.8-1.9l1.7-0.2c0-0.8-0.4-1.2-1.1-1.2s-1.3,0.2-1.8,0.7v-1.1c0.6-0.4,1.3-0.5,2-0.5c1.4,0,2.1,0.7,2.1,2.1V518.4z
		 M502.8,515.8l-1.2,0.2c-0.4,0-0.6,0.1-0.8,0.3c-0.2,0.1-0.3,0.4-0.3,0.7c0,0.2,0.1,0.4,0.3,0.6c0.2,0.2,0.4,0.2,0.7,0.2
		c0.4,0,0.7-0.1,1-0.4c0.3-0.3,0.4-0.6,0.4-1v-0.6H502.8z"/>
	<path fill="#686868" d="M508.5,518.3c-0.2,0.1-0.6,0.2-1,0.2c-1.1,0-1.6-0.5-1.6-1.6v-3.1H505v-1h0.9v-1.3l1.3-0.4v1.7h1.3v1h-1.3
		v2.8c0,0.3,0.1,0.6,0.2,0.7s0.3,0.2,0.6,0.2c0.2,0,0.4-0.1,0.6-0.2v1L508.5,518.3L508.5,518.3z"/>
	<path fill="#686868" d="M513.9,518.4h-1.2v-0.9l0,0c-0.4,0.7-1,1-1.7,1c-0.6,0-1-0.2-1.3-0.4c-0.3-0.3-0.5-0.7-0.5-1.2
		c0-1.1,0.6-1.7,1.8-1.9l1.7-0.2c0-0.8-0.4-1.2-1.1-1.2c-0.7,0-1.3,0.2-1.8,0.7v-1.1c0.6-0.4,1.3-0.5,2-0.5c1.4,0,2.1,0.7,2.1,2.1
		V518.4z M512.7,515.8l-1.2,0.2c-0.4,0-0.6,0.1-0.8,0.3c-0.2,0.1-0.3,0.4-0.3,0.7c0,0.2,0.1,0.4,0.3,0.6c0.2,0.2,0.4,0.2,0.7,0.2
		c0.4,0,0.7-0.1,1-0.4c0.3-0.3,0.4-0.6,0.4-1v-0.6H512.7z"/>
	<path fill="#686868" d="M516.8,517.7L516.8,517.7v0.8h-1.3v-8.3h1.3v3.7l0,0c0.4-0.7,1.1-1.1,1.9-1.1c0.7,0,1.3,0.3,1.7,0.8
		s0.6,1.2,0.6,2c0,0.9-0.2,1.7-0.7,2.3s-1.1,0.8-1.8,0.8C517.7,518.6,517.1,518.3,516.8,517.7z M516.7,515.4v0.7
		c0,0.4,0.1,0.8,0.4,1c0.3,0.3,0.6,0.4,1,0.4c0.5,0,0.8-0.2,1.1-0.6c0.3-0.4,0.4-0.9,0.4-1.5s-0.1-1-0.4-1.3c-0.3-0.3-0.6-0.5-1-0.5
		c-0.5,0-0.8,0.2-1.1,0.5C516.9,514.6,516.7,514.9,516.7,515.4z"/>
	<path fill="#686868" d="M526.4,518.4h-1.2v-0.9l0,0c-0.4,0.7-1,1-1.7,1c-0.6,0-1-0.2-1.3-0.4c-0.3-0.3-0.5-0.7-0.5-1.2
		c0-1.1,0.6-1.7,1.8-1.9l1.7-0.2c0-0.8-0.4-1.2-1.1-1.2c-0.7,0-1.3,0.2-1.8,0.7v-1.1c0.6-0.4,1.3-0.5,2-0.5c1.4,0,2.1,0.7,2.1,2.1
		V518.4z M525.2,515.8l-1.2,0.1c-0.4,0-0.6,0.1-0.8,0.3c-0.2,0.1-0.3,0.4-0.3,0.7c0,0.2,0.1,0.4,0.3,0.6c0.2,0.2,0.4,0.2,0.7,0.2
		c0.4,0,0.7-0.1,1-0.4s0.4-0.6,0.4-1v-0.5L525.2,515.8L525.2,515.8z"/>
	<path fill="#686868" d="M527.6,518.3v-1.2c0.5,0.4,1,0.5,1.6,0.5c0.8,0,1.2-0.2,1.2-0.7c0-0.1,0-0.2-0.1-0.3s-0.2-0.2-0.3-0.2
		c-0.1-0.1-0.2-0.1-0.4-0.2s-0.3-0.1-0.5-0.2c-0.2-0.1-0.4-0.2-0.6-0.3s-0.3-0.2-0.5-0.3c-0.1-0.1-0.2-0.3-0.3-0.4
		c-0.1-0.1-0.1-0.4-0.1-0.6c0-0.3,0.1-0.5,0.2-0.7c0.1-0.2,0.3-0.4,0.5-0.5s0.5-0.2,0.7-0.3c0.3-0.1,0.6-0.1,0.8-0.1
		c0.5,0,1,0.1,1.4,0.2v1.1c-0.4-0.3-0.8-0.4-1.4-0.4c-0.2,0-0.3,0-0.4,0c-0.1,0-0.2,0.1-0.3,0.1c-0.1,0.1-0.2,0.1-0.2,0.2
		c-0.1,0.1-0.1,0.2-0.1,0.3s0,0.2,0.1,0.3s0.1,0.2,0.2,0.2s0.2,0.1,0.4,0.2c0.1,0.1,0.3,0.1,0.5,0.2c0.2,0.1,0.5,0.2,0.6,0.3
		s0.4,0.2,0.5,0.3s0.2,0.3,0.3,0.4c0.1,0.1,0.1,0.4,0.1,0.6c0,0.3-0.1,0.5-0.2,0.7c-0.1,0.2-0.3,0.4-0.5,0.5s-0.5,0.2-0.8,0.3
		s-0.6,0.1-0.9,0.1C528.6,518.6,528.1,518.4,527.6,518.3z"/>
	<path fill="#686868" d="M537.5,515.9h-3.8c0,0.5,0.2,0.9,0.5,1.2s0.7,0.4,1.3,0.4s1.1-0.2,1.6-0.5v1c-0.5,0.3-1.2,0.5-2,0.5
		s-1.5-0.3-1.9-0.8c-0.5-0.5-0.7-1.2-0.7-2.2c0-0.9,0.3-1.6,0.8-2.1s1.2-0.8,1.9-0.8c0.8,0,1.4,0.2,1.8,0.7c0.4,0.5,0.6,1.2,0.6,2.1
		L537.5,515.9L537.5,515.9z M536.3,515.2c0-0.5-0.1-0.8-0.3-1.1s-0.5-0.4-0.9-0.4s-0.7,0.1-0.9,0.4s-0.4,0.6-0.5,1L536.3,515.2
		L536.3,515.2z"/>
</g>
<g>
	<path fill="#686868" d="M375.8,482.5h-1.3v-5.1c0-0.4,0-0.9,0.1-1.5l0,0c-0.1,0.3-0.2,0.6-0.2,0.7l-2.3,5.9h-0.9l-2.4-5.8
		c-0.1-0.2-0.1-0.4-0.2-0.8l0,0c0,0.3,0,0.8,0,1.5v5.1h-1.2v-7.9h1.8l2.1,5.2c0.2,0.4,0.3,0.7,0.3,0.9l0,0c0.1-0.4,0.2-0.7,0.3-0.9
		l2.1-5.2h1.8L375.8,482.5L375.8,482.5z"/>
	<path fill="#686868" d="M384.2,482.5h-1.4l-0.7-2H379l-0.7,2h-1.4l2.9-7.9h1.5L384.2,482.5z M381.7,479.5l-1.1-3.1
		c0-0.1-0.1-0.3-0.1-0.5l0,0c0,0.2-0.1,0.4-0.1,0.5l-1.1,3.1H381.7z"/>
	<path fill="#686868" d="M391.3,482.5h-1.5l-1.3-2.1c-0.1-0.2-0.2-0.4-0.3-0.5c-0.1-0.1-0.2-0.3-0.3-0.3c-0.1-0.1-0.2-0.2-0.4-0.2
		s-0.3-0.1-0.4-0.1h-0.5v3.2h-1.3v-7.9h2.6c0.4,0,0.7,0,1,0.1s0.6,0.2,0.8,0.4c0.2,0.2,0.4,0.4,0.5,0.7s0.2,0.6,0.2,0.9
		s0,0.5-0.1,0.8c-0.1,0.2-0.2,0.4-0.4,0.6c-0.2,0.2-0.3,0.3-0.5,0.5s-0.5,0.2-0.7,0.3l0,0c0.1,0.1,0.3,0.2,0.4,0.3s0.2,0.2,0.3,0.3
		c0.1,0.1,0.2,0.2,0.3,0.3s0.2,0.3,0.3,0.5L391.3,482.5z M386.5,475.7v2.6h1.1c0.2,0,0.4,0,0.6-0.1s0.3-0.2,0.4-0.3s0.2-0.3,0.3-0.4
		s0.1-0.4,0.1-0.6c0-0.4-0.1-0.7-0.4-0.9c-0.2-0.2-0.6-0.3-1-0.3H386.5L386.5,475.7z"/>
	<path fill="#686868" d="M393.6,482.5h-1.3v-7.9h1.3V482.5z"/>
	<path fill="#686868" d="M402,482.5h-1.4l-0.7-2h-3.1l-0.7,2h-1.4l2.9-7.9h1.5L402,482.5z M399.5,479.5l-1.1-3.1
		c0-0.1-0.1-0.3-0.1-0.5l0,0c0,0.2-0.1,0.4-0.1,0.5l-1.1,3.1H399.5z"/>
	<path fill="#686868" d="M406.1,482.5v-7.9h2.3c2.9,0,4.3,1.3,4.3,3.8c0,1.2-0.4,2.2-1.2,2.9c-0.8,0.7-1.9,1.1-3.2,1.1h-2.2
		L406.1,482.5L406.1,482.5z M407.4,475.8v5.6h1c0.9,0,1.6-0.3,2.1-0.8s0.8-1.2,0.8-2.1c0-1.8-1-2.8-2.9-2.8L407.4,475.8L407.4,475.8
		z"/>
	<path fill="#686868" d="M414.2,482.5v-7.9h2.5c0.8,0,1.4,0.2,1.8,0.5s0.7,0.8,0.7,1.3c0,0.4-0.1,0.8-0.4,1.2s-0.6,0.6-1,0.7l0,0
		c0.5,0.1,1,0.3,1.3,0.6s0.5,0.8,0.5,1.3c0,0.7-0.3,1.2-0.8,1.6c-0.5,0.4-1.2,0.6-2,0.6L414.2,482.5L414.2,482.5z M415.5,475.7v2.2
		h0.8c0.5,0,0.8-0.1,1.1-0.3c0.3-0.2,0.4-0.5,0.4-0.9c0-0.7-0.4-1-1.3-1H415.5L415.5,475.7z M415.5,479v2.5h1.1
		c0.5,0,0.9-0.1,1.1-0.3s0.4-0.5,0.4-0.9c0-0.8-0.6-1.2-1.7-1.2L415.5,479L415.5,479z"/>
</g>
<g>
	<path fill="#686868" d="M522.4,482.5h-1.3v-5.1c0-0.4,0-0.9,0.1-1.5l0,0c-0.1,0.3-0.2,0.6-0.2,0.7l-2.3,5.9h-0.9l-2.4-5.8
		c-0.1-0.2-0.1-0.4-0.2-0.8l0,0c0,0.3,0,0.8,0,1.5v5.1H514v-7.9h1.8l2.1,5.2c0.2,0.4,0.3,0.7,0.3,0.9l0,0c0.1-0.4,0.2-0.7,0.3-0.9
		l2.1-5.2h1.8L522.4,482.5L522.4,482.5z"/>
	<path fill="#686868" d="M530.8,482.5h-1.4l-0.7-2h-3.1l-0.7,2h-1.4l2.9-7.9h1.5L530.8,482.5z M528.3,479.5l-1.1-3.1
		c0-0.1-0.1-0.3-0.1-0.5l0,0c0,0.2-0.1,0.4-0.1,0.5l-1.1,3.1H528.3z"/>
	<path fill="#686868" d="M538,482.5h-1.5l-1.3-2.1c-0.1-0.2-0.2-0.4-0.3-0.5s-0.2-0.3-0.3-0.3c-0.1-0.1-0.2-0.2-0.4-0.2
		s-0.3-0.1-0.4-0.1h-0.5v3.2H532v-7.9h2.6c0.4,0,0.7,0,1,0.1s0.6,0.2,0.8,0.4s0.4,0.4,0.5,0.7s0.2,0.6,0.2,0.9s0,0.5-0.1,0.8
		c-0.1,0.2-0.2,0.4-0.4,0.6c-0.2,0.2-0.3,0.3-0.5,0.5s-0.5,0.2-0.7,0.3l0,0c0.1,0.1,0.3,0.2,0.4,0.3c0.1,0.1,0.2,0.2,0.3,0.3
		s0.2,0.2,0.3,0.3s0.2,0.3,0.3,0.5L538,482.5z M533.2,475.7v2.6h1.1c0.2,0,0.4,0,0.6-0.1c0.2-0.1,0.3-0.2,0.4-0.3
		c0.1-0.1,0.2-0.3,0.3-0.4s0.1-0.4,0.1-0.6c0-0.4-0.1-0.7-0.4-0.9c-0.2-0.2-0.6-0.3-1-0.3H533.2L533.2,475.7z"/>
	<path fill="#686868" d="M540.2,482.5h-1.3v-7.9h1.3V482.5z"/>
	<path fill="#686868" d="M548.6,482.5h-1.4l-0.7-2h-3.1l-0.7,2h-1.4l2.9-7.9h1.5L548.6,482.5z M546.1,479.5l-1.1-3.1
		c0-0.1-0.1-0.3-0.1-0.5l0,0c0,0.2-0.1,0.4-0.1,0.5l-1.1,3.1H546.1z"/>
	<path fill="#686868" d="M552.8,482.5v-7.9h2.3c2.9,0,4.3,1.3,4.3,3.8c0,1.2-0.4,2.2-1.2,2.9s-1.9,1.1-3.2,1.1h-2.2L552.8,482.5
		L552.8,482.5z M554.1,475.8v5.6h1c0.9,0,1.6-0.3,2.1-0.8s0.8-1.2,0.8-2.1c0-1.8-1-2.8-2.9-2.8L554.1,475.8L554.1,475.8z"/>
	<path fill="#686868" d="M560.8,482.5v-7.9h2.5c0.8,0,1.4,0.2,1.8,0.5c0.4,0.3,0.7,0.8,0.7,1.3c0,0.4-0.1,0.8-0.4,1.2
		s-0.6,0.6-1,0.7l0,0c0.5,0.1,1,0.3,1.3,0.6s0.5,0.8,0.5,1.3c0,0.7-0.3,1.2-0.8,1.6c-0.5,0.4-1.2,0.6-2,0.6L560.8,482.5L560.8,482.5
		z M562.1,475.7v2.2h0.8c0.5,0,0.8-0.1,1.1-0.3s0.4-0.5,0.4-0.9c0-0.7-0.4-1-1.3-1H562.1L562.1,475.7z M562.1,479v2.5h1.1
		c0.5,0,0.9-0.1,1.1-0.3s0.4-0.5,0.4-0.9c0-0.8-0.6-1.2-1.7-1.2L562.1,479L562.1,479L562.1,479z"/>
</g>
<g>
	<path fill="#686868" d="M327.1,460.8v-9h2.6c3.3,0,5,1.5,5,4.4c0,1.4-0.5,2.5-1.4,3.3s-2.2,1.3-3.7,1.3H327.1L327.1,460.8z
		 M328.6,453.2v6.5h1.2c1,0,1.9-0.3,2.4-0.9s0.9-1.4,0.9-2.4c0-2.1-1.1-3.1-3.3-3.1L328.6,453.2L328.6,453.2z"/>
	<path fill="#686868" d="M336.3,460.8v-9h2.8c0.9,0,1.6,0.2,2.1,0.6s0.8,0.9,0.8,1.5c0,0.5-0.1,1-0.4,1.3c-0.3,0.4-0.7,0.6-1.2,0.8
		l0,0c0.6,0.1,1.1,0.3,1.5,0.7s0.6,0.9,0.6,1.5c0,0.8-0.3,1.4-0.9,1.9s-1.4,0.7-2.3,0.7H336.3z M337.8,453.2v2.6h1
		c0.5,0,0.9-0.1,1.2-0.4c0.3-0.2,0.4-0.6,0.4-1c0-0.8-0.5-1.2-1.5-1.2L337.8,453.2L337.8,453.2z M337.8,456.8v2.8h1.3
		c0.6,0,1-0.1,1.3-0.4s0.5-0.6,0.5-1.1c0-0.9-0.6-1.4-1.9-1.4L337.8,456.8L337.8,456.8z"/>
	<path fill="#686868" d="M346.8,451.8v9.2h-1.5v-7.4c-0.3,0.2-0.5,0.3-0.8,0.5c-0.3,0.1-0.6,0.2-1,0.3v-1.2c0.2-0.1,0.5-0.2,0.7-0.3
		s0.4-0.2,0.7-0.3c0.2-0.1,0.4-0.2,0.7-0.4c0.2-0.1,0.5-0.3,0.7-0.5L346.8,451.8L346.8,451.8z"/>
</g>
<g>
	<path fill="#686868" d="M497.6,460.8v-9h2.6c3.3,0,5,1.5,5,4.4c0,1.4-0.5,2.5-1.4,3.3s-2.2,1.3-3.7,1.3H497.6L497.6,460.8z
		 M499.1,453.2v6.5h1.2c1,0,1.9-0.3,2.4-0.9s0.9-1.4,0.9-2.4c0-2.1-1.1-3.1-3.3-3.1L499.1,453.2L499.1,453.2z"/>
	<path fill="#686868" d="M506.8,460.8v-9h2.8c0.9,0,1.6,0.2,2.1,0.6c0.5,0.4,0.8,0.9,0.8,1.5c0,0.5-0.1,1-0.4,1.3
		c-0.3,0.4-0.7,0.6-1.2,0.8l0,0c0.6,0.1,1.1,0.3,1.5,0.7c0.4,0.4,0.6,0.9,0.6,1.5c0,0.8-0.3,1.4-0.9,1.9c-0.6,0.5-1.4,0.7-2.3,0.7
		H506.8z M508.3,453.2v2.6h1c0.5,0,0.9-0.1,1.2-0.4c0.3-0.2,0.4-0.6,0.4-1c0-0.8-0.5-1.2-1.5-1.2L508.3,453.2L508.3,453.2z
		 M508.3,456.8v2.8h1.3c0.6,0,1-0.1,1.3-0.4s0.5-0.6,0.5-1.1c0-0.9-0.6-1.4-1.9-1.4L508.3,456.8L508.3,456.8z"/>
	<path fill="#686868" d="M517.3,451.8v9.2h-1.5v-7.4c-0.3,0.2-0.5,0.3-0.8,0.5c-0.3,0.1-0.6,0.2-1,0.3v-1.2c0.2-0.1,0.5-0.2,0.7-0.3
		s0.4-0.2,0.7-0.3c0.2-0.1,0.4-0.2,0.7-0.4c0.2-0.1,0.5-0.3,0.7-0.5L517.3,451.8L517.3,451.8z"/>
</g>
<g>
	<path fill="#686868" d="M371.4,460.8v-9h2.6c3.3,0,5,1.5,5,4.4c0,1.4-0.5,2.5-1.4,3.3s-2.2,1.3-3.7,1.3H371.4L371.4,460.8z
		 M372.9,453.2v6.5h1.2c1,0,1.9-0.3,2.4-0.9s0.9-1.4,0.9-2.4c0-2.1-1.1-3.1-3.3-3.1L372.9,453.2L372.9,453.2z"/>
	<path fill="#686868" d="M380.6,460.8v-9h2.8c0.9,0,1.6,0.2,2.1,0.6s0.8,0.9,0.8,1.5c0,0.5-0.1,1-0.4,1.3c-0.3,0.4-0.7,0.6-1.2,0.8
		l0,0c0.6,0.1,1.1,0.3,1.5,0.7s0.6,0.9,0.6,1.5c0,0.8-0.3,1.4-0.9,1.9s-1.4,0.7-2.3,0.7H380.6z M382.1,453.2v2.6h1
		c0.5,0,0.9-0.1,1.2-0.4c0.3-0.2,0.4-0.6,0.4-1c0-0.8-0.5-1.2-1.5-1.2L382.1,453.2L382.1,453.2z M382.1,456.8v2.8h1.3
		c0.6,0,1-0.1,1.3-0.4s0.5-0.6,0.5-1.1c0-0.9-0.6-1.4-1.9-1.4L382.1,456.8L382.1,456.8z"/>
	<path fill="#686868" d="M393.5,460.8h-5.6v-0.7c0-0.3,0-0.5,0.1-0.8c0.1-0.2,0.2-0.5,0.3-0.7c0.1-0.2,0.3-0.4,0.5-0.6
		s0.4-0.4,0.6-0.6c0.2-0.2,0.4-0.4,0.6-0.5s0.4-0.3,0.6-0.5s0.4-0.3,0.5-0.5c0.2-0.2,0.3-0.3,0.4-0.5s0.2-0.3,0.3-0.5
		c0.1-0.2,0.1-0.4,0.1-0.6s0-0.4-0.1-0.6c-0.1-0.2-0.2-0.3-0.3-0.4s-0.3-0.2-0.5-0.3s-0.4-0.1-0.6-0.1c-0.4,0-0.7,0.1-1.1,0.3
		s-0.7,0.4-1.1,0.8v-1.4c0.2-0.1,0.4-0.3,0.6-0.4c0.2-0.1,0.4-0.2,0.6-0.3s0.4-0.1,0.6-0.2c0.2,0,0.5,0,0.7,0c0.4,0,0.8,0.1,1.1,0.2
		c0.3,0.1,0.6,0.3,0.8,0.5c0.2,0.2,0.4,0.5,0.5,0.8s0.2,0.7,0.2,1.1s0,0.7-0.1,1s-0.2,0.6-0.4,0.8c-0.2,0.3-0.4,0.5-0.6,0.7
		s-0.5,0.5-0.8,0.7c-0.2,0.2-0.5,0.4-0.7,0.6c-0.2,0.2-0.5,0.4-0.6,0.5c-0.2,0.2-0.3,0.4-0.5,0.5c-0.1,0.2-0.2,0.4-0.2,0.5l0,0h4.1
		V460.8z"/>
</g>
<g>
	<path fill="#686868" d="M540.1,460.8v-9h2.6c3.3,0,5,1.5,5,4.4c0,1.4-0.5,2.5-1.4,3.3s-2.2,1.3-3.7,1.3H540.1L540.1,460.8z
		 M541.5,453.2v6.5h1.2c1,0,1.9-0.3,2.4-0.9s0.9-1.4,0.9-2.4c0-2.1-1.1-3.1-3.3-3.1L541.5,453.2L541.5,453.2z"/>
	<path fill="#686868" d="M549.3,460.8v-9h2.8c0.9,0,1.6,0.2,2.1,0.6s0.8,0.9,0.8,1.5c0,0.5-0.1,1-0.4,1.3c-0.3,0.4-0.7,0.6-1.2,0.8
		l0,0c0.6,0.1,1.1,0.3,1.5,0.7s0.6,0.9,0.6,1.5c0,0.8-0.3,1.4-0.9,1.9c-0.6,0.5-1.4,0.7-2.3,0.7H549.3z M550.7,453.2v2.6h1
		c0.5,0,0.9-0.1,1.2-0.4c0.3-0.2,0.4-0.6,0.4-1c0-0.8-0.5-1.2-1.5-1.2L550.7,453.2L550.7,453.2z M550.7,456.8v2.8h1.3
		c0.6,0,1-0.1,1.3-0.4s0.5-0.6,0.5-1.1c0-0.9-0.6-1.4-1.9-1.4L550.7,456.8L550.7,456.8z"/>
	<path fill="#686868" d="M562.1,460.8h-5.6v-0.7c0-0.3,0-0.5,0.1-0.8c0.1-0.2,0.2-0.5,0.3-0.7s0.3-0.4,0.5-0.6s0.4-0.4,0.6-0.6
		c0.2-0.2,0.4-0.4,0.6-0.5c0.2-0.1,0.4-0.3,0.6-0.5c0.2-0.2,0.4-0.3,0.5-0.5c0.2-0.2,0.3-0.3,0.4-0.5c0.1-0.2,0.2-0.3,0.3-0.5
		s0.1-0.4,0.1-0.6s0-0.4-0.1-0.6c-0.1-0.2-0.2-0.3-0.3-0.4s-0.3-0.2-0.5-0.3s-0.4-0.1-0.6-0.1c-0.4,0-0.7,0.1-1.1,0.3
		c-0.4,0.2-0.7,0.4-1.1,0.8v-1.4c0.2-0.1,0.4-0.3,0.6-0.4c0.2-0.1,0.4-0.2,0.6-0.3c0.2-0.1,0.4-0.1,0.6-0.2c0.2,0,0.5,0,0.7,0
		c0.4,0,0.8,0.1,1.1,0.2c0.3,0.1,0.6,0.3,0.8,0.5s0.4,0.5,0.5,0.8s0.2,0.7,0.2,1.1s0,0.7-0.1,1s-0.2,0.6-0.4,0.8
		c-0.2,0.3-0.4,0.5-0.6,0.7s-0.5,0.5-0.8,0.7c-0.2,0.2-0.5,0.4-0.7,0.6c-0.2,0.2-0.5,0.4-0.6,0.5c-0.2,0.2-0.3,0.4-0.5,0.5
		c-0.1,0.2-0.2,0.4-0.2,0.5l0,0h4.1L562.1,460.8L562.1,460.8z"/>
</g>
<g>
	<path fill="#686868" d="M414.5,460.8v-9h2.6c3.3,0,5,1.5,5,4.4c0,1.4-0.5,2.5-1.4,3.3s-2.2,1.3-3.7,1.3H414.5L414.5,460.8z
		 M416,453.2v6.5h1.2c1,0,1.9-0.3,2.4-0.9s0.9-1.4,0.9-2.4c0-2.1-1.1-3.1-3.3-3.1L416,453.2L416,453.2z"/>
	<path fill="#686868" d="M423.7,460.8v-9h2.8c0.9,0,1.6,0.2,2.1,0.6s0.8,0.9,0.8,1.5c0,0.5-0.1,1-0.4,1.3c-0.3,0.4-0.7,0.6-1.2,0.8
		l0,0c0.6,0.1,1.1,0.3,1.5,0.7s0.6,0.9,0.6,1.5c0,0.8-0.3,1.4-0.9,1.9s-1.4,0.7-2.3,0.7H423.7z M425.2,453.2v2.6h1
		c0.5,0,0.9-0.1,1.2-0.4c0.3-0.2,0.4-0.6,0.4-1c0-0.8-0.5-1.2-1.5-1.2L425.2,453.2L425.2,453.2z M425.2,456.8v2.8h1.3
		c0.6,0,1-0.1,1.3-0.4s0.5-0.6,0.5-1.1c0-0.9-0.6-1.4-1.9-1.4L425.2,456.8L425.2,456.8z"/>
	<path fill="#686868" d="M431.1,460.6v-1.4c0.6,0.5,1.2,0.7,2,0.7c0.6,0,1.1-0.1,1.4-0.4c0.4-0.3,0.5-0.6,0.5-1.1
		c0-1-0.8-1.5-2.3-1.5H432v-1.2h0.7c1.4,0,2.1-0.5,2.1-1.4s-0.5-1.3-1.6-1.3c-0.6,0-1.2,0.2-1.7,0.6v-1.3c0.6-0.3,1.3-0.5,2.2-0.5
		c0.8,0,1.4,0.2,1.9,0.6c0.5,0.4,0.7,0.9,0.7,1.5c0,1.2-0.6,1.9-1.8,2.3l0,0c0.6,0.1,1.2,0.3,1.5,0.7c0.4,0.4,0.6,0.9,0.6,1.5
		c0,0.8-0.3,1.5-0.9,2s-1.4,0.7-2.4,0.7C432.4,461.1,431.7,460.8,431.1,460.6z"/>
</g>
<path fill="#686868" d="M337,428.8c-3.4,0-6.2-0.8-6.2-1.9c0-1,2.8-1.8,6.2-1.8c3.4,0,6.1,0.8,6.1,1.8S340.4,428.8,337,428.8
	L337,428.8z M328.4,439.5v3.4c0,1.6,3.1,3.3,7.3,3.6h2.8c4.1-0.3,7.3-1.7,7.3-3.3v-15.9c0-1.8-3.9-3.4-8.7-3.4
	c-4.8,0-8.6,1.6-8.6,3.4L328.4,439.5L328.4,439.5L328.4,439.5L328.4,439.5z"/>
<path fill="#686868" d="M382,428.8c-3.4,0-6.2-0.8-6.2-1.9c0-1,2.8-1.8,6.2-1.8c3.4,0,6.1,0.8,6.1,1.8S385.4,428.8,382,428.8
	L382,428.8z M373.4,439.5v3.4c0,1.6,3.1,3.3,7.3,3.6h2.8c4.1-0.3,7.3-1.7,7.3-3.3v-15.9c0-1.8-3.9-3.4-8.7-3.4
	c-4.8,0-8.6,1.6-8.6,3.4L373.4,439.5L373.4,439.5L373.4,439.5L373.4,439.5z"/>
<path fill="#686868" d="M425.5,428.8c-3.4,0-6.2-0.8-6.2-1.9c0-1,2.8-1.8,6.2-1.8c3.4,0,6.1,0.8,6.1,1.8S428.9,428.8,425.5,428.8
	L425.5,428.8z M416.8,439.5v3.4c0,1.6,3.1,3.3,7.3,3.6h2.8c4.1-0.3,7.3-1.7,7.3-3.3v-15.9c0-1.8-3.9-3.4-8.7-3.4
	c-4.8,0-8.6,1.6-8.6,3.4L416.8,439.5L416.8,439.5L416.8,439.5L416.8,439.5z"/>
<g>
	<path fill="#686868" d="M583.5,460.8v-9h2.6c3.3,0,5,1.5,5,4.4c0,1.4-0.5,2.5-1.4,3.3s-2.2,1.3-3.7,1.3H583.5L583.5,460.8z
		 M585,453.2v6.5h1.2c1,0,1.9-0.3,2.4-0.9s0.9-1.4,0.9-2.4c0-2.1-1.1-3.1-3.3-3.1L585,453.2L585,453.2z"/>
	<path fill="#686868" d="M592.7,460.8v-9h2.8c0.9,0,1.6,0.2,2.1,0.6s0.8,0.9,0.8,1.5c0,0.5-0.1,1-0.4,1.3c-0.3,0.4-0.7,0.6-1.2,0.8
		l0,0c0.6,0.1,1.1,0.3,1.5,0.7s0.6,0.9,0.6,1.5c0,0.8-0.3,1.4-0.9,1.9c-0.6,0.5-1.4,0.7-2.3,0.7H592.7z M594.2,453.2v2.6h1
		c0.5,0,0.9-0.1,1.2-0.4c0.3-0.2,0.4-0.6,0.4-1c0-0.8-0.5-1.2-1.5-1.2L594.2,453.2L594.2,453.2z M594.2,456.8v2.8h1.3
		c0.6,0,1-0.1,1.3-0.4s0.5-0.6,0.5-1.1c0-0.9-0.6-1.4-1.9-1.4L594.2,456.8L594.2,456.8z"/>
	<path fill="#686868" d="M600.1,460.6v-1.4c0.6,0.5,1.2,0.7,2,0.7c0.6,0,1.1-0.1,1.4-0.4c0.4-0.3,0.5-0.6,0.5-1.1
		c0-1-0.8-1.5-2.3-1.5H601v-1.2h0.7c1.4,0,2.1-0.5,2.1-1.4s-0.5-1.3-1.6-1.3c-0.6,0-1.2,0.2-1.7,0.6v-1.3c0.6-0.3,1.3-0.5,2.2-0.5
		c0.8,0,1.4,0.2,1.9,0.6c0.5,0.4,0.7,0.9,0.7,1.5c0,1.2-0.6,1.9-1.8,2.3l0,0c0.6,0.1,1.2,0.3,1.5,0.7c0.4,0.4,0.6,0.9,0.6,1.5
		c0,0.8-0.3,1.5-0.9,2s-1.4,0.7-2.4,0.7S600.6,460.8,600.1,460.6z"/>
</g>
<path fill="#686868" d="M594.4,428.8c-3.4,0-6.2-0.8-6.2-1.9c0-1,2.8-1.8,6.2-1.8s6.1,0.8,6.1,1.8S597.8,428.8,594.4,428.8
	L594.4,428.8z M585.7,439.5v3.4c0,1.6,3.1,3.3,7.3,3.6h2.8c4.1-0.3,7.3-1.7,7.3-3.3v-15.9c0-1.8-3.9-3.4-8.7-3.4s-8.6,1.6-8.6,3.4
	L585.7,439.5L585.7,439.5L585.7,439.5L585.7,439.5z"/>
<path fill="#686868" d="M507.6,428.8c-3.4,0-6.2-0.8-6.2-1.9c0-1,2.8-1.8,6.2-1.8c3.4,0,6.1,0.8,6.1,1.8S511,428.8,507.6,428.8
	L507.6,428.8z M498.9,439.5v3.4c0,1.6,3.1,3.3,7.3,3.6h2.8c4.1-0.3,7.3-1.7,7.3-3.3v-15.9c0-1.8-3.9-3.4-8.7-3.4s-8.6,1.6-8.6,3.4
	L498.9,439.5L498.9,439.5L498.9,439.5L498.9,439.5z"/>
<path fill="#686868" d="M551,428.8c-3.4,0-6.2-0.8-6.2-1.9c0-1,2.8-1.8,6.2-1.8s6.1,0.8,6.1,1.8S554.4,428.8,551,428.8L551,428.8z
	 M542.3,439.5v3.4c0,1.6,3.1,3.3,7.3,3.6h2.8c4.1-0.3,7.3-1.7,7.3-3.3v-15.9c0-1.8-3.9-3.4-8.7-3.4s-8.6,1.6-8.6,3.4L542.3,439.5
	L542.3,439.5L542.3,439.5L542.3,439.5z"/>
<g>
	<path d="M419.8,151H418l-0.9-2.5h-3.8l-0.8,2.5h-1.8l3.7-9.8h1.8L419.8,151z M416.7,147.3l-1.4-3.9c0-0.1-0.1-0.3-0.1-0.6l0,0
		c0,0.3-0.1,0.5-0.1,0.6l-1.3,3.9H416.7z"/>
	<path d="M422.8,147.5v3.5h-1.6v-9.8h3c1.1,0,2,0.3,2.6,0.8s0.9,1.3,0.9,2.2s-0.3,1.7-1,2.3c-0.6,0.6-1.5,0.9-2.6,0.9L422.8,147.5
		L422.8,147.5z M422.8,142.7v3.6h1c0.7,0,1.2-0.2,1.6-0.5s0.5-0.8,0.5-1.4c0-1.1-0.7-1.7-2-1.7H422.8L422.8,142.7z"/>
	<path d="M430.9,147.5v3.5h-1.6v-9.8h3c1.1,0,2,0.3,2.6,0.8s0.9,1.3,0.9,2.2s-0.3,1.7-1,2.3c-0.6,0.6-1.5,0.9-2.6,0.9L430.9,147.5
		L430.9,147.5z M430.9,142.7v3.6h1c0.7,0,1.2-0.2,1.6-0.5s0.5-0.8,0.5-1.4c0-1.1-0.7-1.7-2-1.7H430.9L430.9,142.7z"/>
	<path d="M442.8,151h-5.4v-9.8h1.6v8.4h3.8V151z"/>
	<path d="M445.9,151h-1.7v-9.8h1.7V151z"/>
	<path d="M455.1,150.7c-0.7,0.4-1.6,0.6-2.7,0.6c-1.4,0-2.5-0.4-3.4-1.3s-1.3-2.1-1.3-3.5c0-1.6,0.5-2.8,1.4-3.8s2.2-1.4,3.6-1.4
		c0.9,0,1.7,0.1,2.3,0.4v1.6c-0.7-0.4-1.4-0.6-2.2-0.6c-1.1,0-1.9,0.3-2.6,1s-1,1.6-1,2.7s0.3,1.9,0.9,2.6c0.6,0.6,1.4,1,2.4,1
		c0.9,0,1.7-0.2,2.4-0.7v1.4L455.1,150.7L455.1,150.7z"/>
	<path d="M465,151h-1.8l-0.9-2.5h-3.8l-0.8,2.5h-1.8l3.7-9.8h1.8L465,151z M461.9,147.3l-1.4-3.9c0-0.1-0.1-0.3-0.1-0.6l0,0
		c0,0.3-0.1,0.5-0.1,0.6l-1.3,3.9H461.9z"/>
	<path d="M471.6,142.7h-2.8v8.4h-1.6v-8.4h-2.8v-1.4h7.2L471.6,142.7L471.6,142.7z"/>
	<path d="M474.7,151H473v-9.8h1.7V151z"/>
	<path d="M481.1,151.3c-1.4,0-2.5-0.5-3.4-1.4c-0.8-0.9-1.3-2.1-1.3-3.6c0-1.6,0.4-2.8,1.3-3.8c0.9-0.9,2-1.4,3.5-1.4
		c1.4,0,2.5,0.5,3.3,1.4s1.3,2.1,1.3,3.6c0,1.6-0.4,2.8-1.3,3.8C483.7,150.8,482.5,151.3,481.1,151.3z M481.2,142.5
		c-0.9,0-1.6,0.3-2.2,1s-0.8,1.5-0.8,2.6s0.3,2,0.8,2.6c0.5,0.7,1.3,1,2.1,1c0.9,0,1.7-0.3,2.2-0.9s0.8-1.5,0.8-2.6
		c0-1.2-0.3-2.1-0.8-2.7S482.1,142.5,481.2,142.5z"/>
	<path d="M495.9,151h-1.8l-4.7-7.2c-0.1-0.2-0.2-0.4-0.3-0.6l0,0c0,0.2,0.1,0.7,0.1,1.3v6.4h-1.6v-9.8h1.9l4.5,7
		c0.2,0.3,0.3,0.5,0.4,0.6l0,0c0-0.3-0.1-0.7-0.1-1.3v-6.3h1.6V151z"/>
	<path d="M508.4,142.7h-2.8v8.4H504v-8.4h-2.8v-1.4h7.2L508.4,142.7L508.4,142.7z"/>
	<path d="M511.4,151h-1.7v-9.8h1.7V151z"/>
	<path d="M519.3,151h-5.5v-9.8h5.3v1.4h-3.6v2.8h3.4v1.4h-3.4v2.9h3.9v1.3L519.3,151L519.3,151z"/>
	<path d="M528.6,151h-1.9l-1.6-2.6c-0.1-0.2-0.3-0.4-0.4-0.6c-0.1-0.2-0.3-0.3-0.4-0.4c-0.1-0.1-0.3-0.2-0.5-0.2s-0.3-0.1-0.6-0.1
		h-0.7v4h-1.6v-9.8h3.2c0.5,0,0.9,0.1,1.3,0.2c0.4,0.1,0.7,0.3,1,0.5s0.5,0.5,0.7,0.8s0.2,0.7,0.2,1.2c0,0.3-0.1,0.7-0.2,0.9
		c-0.1,0.3-0.2,0.5-0.4,0.8c-0.2,0.2-0.4,0.4-0.7,0.6s-0.6,0.3-0.9,0.4l0,0c0.2,0.1,0.3,0.2,0.5,0.3c0.1,0.1,0.3,0.2,0.4,0.4
		c0.1,0.1,0.2,0.3,0.3,0.4c0.1,0.2,0.2,0.3,0.4,0.6L528.6,151z M522.7,142.7v3.2h1.3c0.2,0,0.5,0,0.7-0.1s0.4-0.2,0.5-0.3
		c0.2-0.1,0.3-0.3,0.4-0.5c0.1-0.2,0.1-0.4,0.1-0.7c0-0.5-0.1-0.8-0.4-1.1s-0.7-0.4-1.3-0.4L522.7,142.7L522.7,142.7z"/>
</g>
<g>
	<path d="M469.2,116.2c-5.5,0-9.9,4.4-9.9,9.9s4.4,9.9,9.9,9.9s9.9-4.4,9.9-9.9S474.7,116.2,469.2,116.2z M471.7,128.7
		c-0.1,0.3-0.3,0.6-0.5,0.8s-0.5,0.4-0.8,0.5s-0.7,0.2-1,0.2c-0.4,0-0.8-0.1-1.1-0.2s-0.6-0.4-0.8-0.7c-0.2-0.3-0.4-0.7-0.6-1.1
		s-0.2-1-0.2-1.6c0-0.7,0.1-1.4,0.3-1.9c0.2-0.6,0.4-1,0.7-1.4c0.3-0.4,0.7-0.7,1.1-0.9c0.4-0.2,0.8-0.3,1.3-0.3
		c0.3,0,0.6,0,0.8,0.1c0.2,0,0.4,0.1,0.6,0.2v1.1c-0.2-0.1-0.4-0.2-0.6-0.2c-0.2-0.1-0.5-0.1-0.7-0.1c-0.3,0-0.6,0.1-0.8,0.2
		c-0.3,0.1-0.5,0.3-0.7,0.5s-0.3,0.5-0.4,0.9c-0.1,0.3-0.2,0.8-0.2,1.2l0,0c0.2-0.3,0.4-0.5,0.7-0.6c0.3-0.1,0.6-0.2,1-0.2
		c0.3,0,0.6,0.1,0.9,0.2s0.5,0.3,0.7,0.5s0.3,0.5,0.4,0.8s0.2,0.6,0.2,1C471.9,128,471.8,128.4,471.7,128.7z"/>
	<path d="M470.3,126.7c-0.1-0.1-0.2-0.2-0.4-0.3c-0.2-0.1-0.4-0.1-0.6-0.1s-0.4,0-0.6,0.1s-0.3,0.2-0.4,0.3
		c-0.1,0.1-0.2,0.3-0.3,0.4c-0.1,0.2-0.1,0.3-0.1,0.5s0,0.4,0.1,0.6s0.1,0.4,0.2,0.5c0.1,0.2,0.2,0.3,0.4,0.4
		c0.2,0.1,0.4,0.2,0.6,0.2s0.4,0,0.5-0.1s0.3-0.2,0.4-0.3c0.1-0.1,0.2-0.3,0.2-0.5c0.1-0.2,0.1-0.4,0.1-0.6s0-0.4-0.1-0.6
		C470.5,127,470.4,126.8,470.3,126.7z"/>
</g>
<circle fill="none" stroke="#000000" stroke-width="3" stroke-linecap="round" stroke-linejoin="round" stroke-miterlimit="10" cx="467.2" cy="335.1" r="234.8"/>
<rect x="513.5" y="305.6" fill="none" stroke="#686868" stroke-width="3" stroke-linecap="round" stroke-linejoin="round" stroke-miterlimit="10" width="77.9" height="36.1"/>
<rect x="342.8" y="305.6" fill="none" stroke="#686868" stroke-width="3" stroke-linecap="round" stroke-linejoin="round" stroke-miterlimit="10" width="79.3" height="36.1"/>
<g>
	<g>
		
			<line fill="none" stroke="#000000" stroke-width="4" stroke-linecap="round" stroke-linejoin="round" x1="441.2" y1="283.3" x2="434.7" y2="283.3"/>
		
			<line fill="none" stroke="#000000" stroke-width="4" stroke-linecap="round" stroke-linejoin="round" stroke-dasharray="12.5509,12.5509" x1="422.2" y1="283.3" x2="252.8" y2="283.3"/>
		
			<line fill="none" stroke="#000000" stroke-width="4" stroke-linecap="round" stroke-linejoin="round" x1="246.5" y1="283.3" x2="240" y2="283.3"/>
	</g>
</g>
<g>
	<g>
		
			<line fill="none" stroke="#000000" stroke-width="4" stroke-linecap="round" stroke-linejoin="round" x1="694.3" y1="283.3" x2="687.8" y2="283.3"/>
		
			<line fill="none" stroke="#000000" stroke-width="4" stroke-linecap="round" stroke-linejoin="round" stroke-dasharray="12.5469,12.5469" x1="675.2" y1="283.3" x2="505.9" y2="283.3"/>
		
			<line fill="none" stroke="#000000" stroke-width="4" stroke-linecap="round" stroke-linejoin="round" x1="499.6" y1="283.3" x2="493.1" y2="283.3"/>
	</g>
</g>
<g>
	
		<line fill="none" stroke="#686868" stroke-width="2" stroke-linecap="round" stroke-linejoin="round" stroke-miterlimit="10" x1="440.5" y1="323.6" x2="433.1" y2="323.6"/>
	
		<polyline fill="none" stroke="#686868" stroke-width="2" stroke-linecap="round" stroke-linejoin="round" stroke-miterlimit="10" points="
		435,325.8 432.7,323.6 435,321.3 	"/>
</g>
<g>
	
		<line fill="none" stroke="#686868" stroke-width="2" stroke-linecap="round" stroke-linejoin="round" stroke-miterlimit="10" x1="493.6" y1="323.6" x2="500.9" y2="323.6"/>
	
		<polyline fill="none" stroke="#686868" stroke-width="2" stroke-linecap="round" stroke-linejoin="round" stroke-miterlimit="10" points="
		499.1,321.3 501.3,323.6 499.1,325.8 	"/>
</g>
<g>
	<path fill="#686868" d="M390.5,188.4v74.8h-48.4v-74.8L390.5,188.4 M390.5,186.4h-48.4c-1.1,0-2,0.9-2,2v74.8c0,1.1,0.9,2,2,2h48.4
		c1.1,0,2-0.9,2-2v-74.8C392.5,187.3,391.6,186.4,390.5,186.4L390.5,186.4z"/>
</g>
<g>
	<path fill="#686868" d="M449.3,188.4v74.8h-48.4v-74.8L449.3,188.4 M449.3,186.4h-48.4c-1.1,0-2,0.9-2,2v74.8c0,1.1,0.9,2,2,2h48.4
		c1.1,0,2-0.9,2-2v-74.8C451.3,187.3,450.4,186.4,449.3,186.4L449.3,186.4z"/>
</g>
<g>
	<path fill="#686868" d="M533.6,188.4v74.8h-48.4v-74.8L533.6,188.4 M533.6,186.4h-48.4c-1.1,0-2,0.9-2,2v74.8c0,1.1,0.9,2,2,2h48.4
		c1.1,0,2-0.9,2-2v-74.8C535.6,187.3,534.7,186.4,533.6,186.4L533.6,186.4z"/>
</g>
<g>
	<path fill="#686868" d="M592.4,188.4v74.8H544v-74.8L592.4,188.4 M592.4,186.4H544c-1.1,0-2,0.9-2,2v74.8c0,1.1,0.9,2,2,2h48.4
		c1.1,0,2-0.9,2-2v-74.8C594.4,187.3,593.5,186.4,592.4,186.4L592.4,186.4z"/>
</g>
<polygon fill="none" stroke="#686868" stroke-width="2" stroke-linecap="round" stroke-linejoin="round" stroke-miterlimit="10" points="
	346,208.7 354.4,194.2 362.8,208.7 "/>
<polygon fill="none" stroke="#686868" stroke-width="2" stroke-linecap="round" stroke-linejoin="round" stroke-miterlimit="10" points="
	369.9,208.7 378.3,194.2 386.7,208.7 "/>
<rect x="346" y="229.9" fill="none" stroke="#686868" stroke-width="2" stroke-linecap="round" stroke-linejoin="round" stroke-miterlimit="10" width="40.7" height="16.2"/>
<polygon fill="none" stroke="#686868" stroke-width="2" stroke-linecap="round" stroke-linejoin="round" stroke-miterlimit="10" points="
	404.7,208.7 413.1,194.2 421.5,208.7 "/>
<polygon fill="none" stroke="#686868" stroke-width="2" stroke-linecap="round" stroke-linejoin="round" stroke-miterlimit="10" points="
	428.7,208.7 437,194.2 445.4,208.7 "/>
<rect x="404.7" y="229.9" fill="none" stroke="#686868" stroke-width="2" stroke-linecap="round" stroke-linejoin="round" stroke-miterlimit="10" width="40.7" height="16.2"/>
<polygon fill="none" stroke="#686868" stroke-width="2" stroke-linecap="round" stroke-linejoin="round" stroke-miterlimit="10" points="
	488.9,208.7 497.3,194.2 505.7,208.7 "/>
<polygon fill="none" stroke="#686868" stroke-width="2" stroke-linecap="round" stroke-linejoin="round" stroke-miterlimit="10" points="
	512.9,208.7 521.3,194.2 529.7,208.7 "/>
<rect x="488.9" y="229.9" fill="none" stroke="#686868" stroke-width="2" stroke-linecap="round" stroke-linejoin="round" stroke-miterlimit="10" width="40.7" height="16.2"/>
<polygon fill="none" stroke="#686868" stroke-width="2" stroke-linecap="round" stroke-linejoin="round" stroke-miterlimit="10" points="
	547.6,208.7 556,194.2 564.4,208.7 "/>
<polygon fill="none" stroke="#686868" stroke-width="2" stroke-linecap="round" stroke-linejoin="round" stroke-miterlimit="10" points="
	571.6,208.7 580,194.2 588.4,208.7 "/>
<rect x="547.6" y="229.9" fill="none" stroke="#686868" stroke-width="2" stroke-linecap="round" stroke-linejoin="round" stroke-miterlimit="10" width="40.7" height="16.2"/>
<g>
	<g>
		<path fill="#686868" d="M352,221h-1.2l-0.6-1.7h-2.7l-0.6,1.7h-1.2l2.5-6.8h1.3L352,221z M349.8,218.5l-0.9-2.7
			c0-0.1-0.1-0.2-0.1-0.4l0,0c0,0.2-0.1,0.3-0.1,0.4l-0.9,2.7H349.8z"/>
		<path fill="#686868" d="M354,218.5v2.5h-1.1v-6.8h2.1c0.8,0,1.4,0.2,1.8,0.5s0.6,0.9,0.6,1.5s-0.2,1.2-0.7,1.6s-1.1,0.6-1.8,0.6
			L354,218.5L354,218.5z M354,215.2v2.5h0.7c0.5,0,0.8-0.1,1.1-0.3c0.3-0.2,0.4-0.5,0.4-0.9c0-0.8-0.5-1.2-1.4-1.2L354,215.2
			L354,215.2z"/>
		<path fill="#686868" d="M359.7,218.5v2.5h-1.1v-6.8h2.1c0.8,0,1.4,0.2,1.8,0.5c0.4,0.4,0.6,0.9,0.6,1.5s-0.2,1.2-0.7,1.6
			s-1.1,0.6-1.8,0.6L359.7,218.5L359.7,218.5z M359.7,215.2v2.5h0.7c0.5,0,0.8-0.1,1.1-0.3c0.3-0.2,0.4-0.5,0.4-0.9
			c0-0.8-0.5-1.2-1.4-1.2L359.7,215.2L359.7,215.2z"/>
	</g>
	<g>
		<path fill="#686868" d="M375.9,221h-1.2l-0.6-1.7h-2.7l-0.6,1.7h-1.2l2.5-6.8h1.3L375.9,221z M373.8,218.5l-0.9-2.7
			c0-0.1-0.1-0.2-0.1-0.4l0,0c0,0.2-0.1,0.3-0.1,0.4l-0.9,2.7H373.8z"/>
		<path fill="#686868" d="M378,218.5v2.5h-1.1v-6.8h2.1c0.8,0,1.4,0.2,1.8,0.5s0.6,0.9,0.6,1.5s-0.2,1.2-0.7,1.6s-1.1,0.6-1.8,0.6
			L378,218.5L378,218.5z M378,215.2v2.5h0.7c0.5,0,0.8-0.1,1.1-0.3s0.4-0.5,0.4-0.9c0-0.8-0.5-1.2-1.4-1.2L378,215.2L378,215.2z"/>
		<path fill="#686868" d="M383.7,218.5v2.5h-1.1v-6.8h2.1c0.8,0,1.4,0.2,1.8,0.5s0.6,0.9,0.6,1.5s-0.2,1.2-0.7,1.6s-1.1,0.6-1.8,0.6
			L383.7,218.5L383.7,218.5z M383.7,215.2v2.5h0.7c0.5,0,0.8-0.1,1.1-0.3c0.3-0.2,0.4-0.5,0.4-0.9c0-0.8-0.5-1.2-1.4-1.2
			L383.7,215.2L383.7,215.2z"/>
	</g>
	<g>
		<path fill="#686868" d="M344.9,258.9v-6.8h2.2c0.7,0,1.2,0.1,1.6,0.4s0.6,0.7,0.6,1.1s-0.1,0.7-0.3,1c-0.2,0.3-0.5,0.5-0.9,0.6
			l0,0c0.5,0.1,0.8,0.2,1.1,0.5s0.4,0.7,0.4,1.1c0,0.6-0.2,1.1-0.7,1.4s-1,0.5-1.7,0.5h-2.3L344.9,258.9L344.9,258.9z M346,253.1
			v1.9h0.7c0.4,0,0.7-0.1,0.9-0.3c0.2-0.2,0.3-0.4,0.3-0.8c0-0.6-0.4-0.9-1.2-0.9L346,253.1L346,253.1z M346,255.9v2.1h1
			c0.4,0,0.7-0.1,1-0.3c0.2-0.2,0.3-0.5,0.3-0.8c0-0.7-0.5-1.1-1.5-1.1L346,255.9L346,255.9z"/>
		<path fill="#686868" d="M351.9,258.9h-1.2v-6.8h1.2V258.9z"/>
		<path fill="#686868" d="M359.3,258.9h-1.2l-3.2-5c-0.1-0.1-0.1-0.3-0.2-0.4l0,0c0,0.1,0,0.5,0,0.9v4.4h-1.1V252h1.3l3.1,4.9
			c0.1,0.2,0.2,0.3,0.3,0.4l0,0c0-0.2,0-0.5,0-0.9V252h1.1L359.3,258.9L359.3,258.9z"/>
		<path fill="#686868" d="M360.7,258.6v-1.2c0.1,0.1,0.2,0.2,0.4,0.3c0.1,0.1,0.3,0.1,0.5,0.2s0.3,0.1,0.5,0.1s0.3,0,0.4,0
			c0.5,0,0.8-0.1,1.1-0.2s0.3-0.4,0.3-0.7c0-0.2,0-0.3-0.1-0.4s-0.2-0.2-0.3-0.3c-0.1-0.1-0.3-0.2-0.5-0.3s-0.4-0.2-0.6-0.3
			c-0.2-0.1-0.4-0.2-0.6-0.4c-0.2-0.1-0.4-0.3-0.5-0.4c-0.1-0.2-0.3-0.3-0.3-0.5s-0.1-0.4-0.1-0.7c0-0.3,0.1-0.6,0.2-0.8
			c0.1-0.2,0.3-0.4,0.6-0.6c0.2-0.2,0.5-0.3,0.8-0.3c0.3-0.1,0.6-0.1,0.9-0.1c0.7,0,1.2,0.1,1.6,0.2v1.1c-0.4-0.3-0.9-0.4-1.5-0.4
			c-0.2,0-0.3,0-0.5,0s-0.3,0.1-0.4,0.2s-0.2,0.2-0.3,0.3c-0.1,0.1-0.1,0.3-0.1,0.4c0,0.2,0,0.3,0.1,0.4s0.2,0.2,0.3,0.3
			c0.1,0.1,0.3,0.2,0.4,0.3s0.4,0.2,0.6,0.3c0.2,0.1,0.5,0.3,0.7,0.4s0.4,0.3,0.6,0.4s0.3,0.3,0.4,0.5s0.1,0.4,0.1,0.7
			c0,0.3-0.1,0.6-0.2,0.9c-0.1,0.2-0.3,0.4-0.6,0.6c-0.2,0.1-0.5,0.3-0.8,0.3c-0.3,0.1-0.6,0.1-1,0.1c-0.1,0-0.3,0-0.4,0
			c-0.2,0-0.3,0-0.5-0.1s-0.3-0.1-0.5-0.1C360.9,258.8,360.8,258.6,360.7,258.6z"/>
		<path fill="#686868" d="M369.5,252.1l-3.3,7.9h-1l3.3-7.9H369.5z"/>
		<path fill="#686868" d="M374,258.9h-3.8v-6.8h1.1v5.8h2.6L374,258.9L374,258.9z"/>
		<path fill="#686868" d="M376.2,258.9H375v-6.8h1.2V258.9z"/>
		<path fill="#686868" d="M377.8,258.9v-6.8h2.2c0.7,0,1.2,0.1,1.6,0.4s0.6,0.7,0.6,1.1s-0.1,0.7-0.3,1s-0.5,0.5-0.9,0.6l0,0
			c0.5,0.1,0.8,0.2,1.1,0.5s0.4,0.7,0.4,1.1c0,0.6-0.2,1.1-0.7,1.4s-1,0.5-1.7,0.5h-2.3L377.8,258.9L377.8,258.9z M378.9,253.1v1.9
			h0.7c0.4,0,0.7-0.1,0.9-0.3c0.2-0.2,0.3-0.4,0.3-0.8c0-0.6-0.4-0.9-1.2-0.9L378.9,253.1L378.9,253.1z M378.9,255.9v2.1h1
			c0.4,0,0.7-0.1,1-0.3c0.2-0.2,0.3-0.5,0.3-0.8c0-0.7-0.5-1.1-1.5-1.1L378.9,255.9L378.9,255.9z"/>
		<path fill="#686868" d="M383.4,258.6v-1.2c0.1,0.1,0.2,0.2,0.4,0.3c0.1,0.1,0.3,0.1,0.5,0.2s0.3,0.1,0.5,0.1s0.3,0,0.4,0
			c0.5,0,0.8-0.1,1.1-0.2c0.2-0.2,0.3-0.4,0.3-0.7c0-0.2,0-0.3-0.1-0.4s-0.2-0.2-0.3-0.3c-0.1-0.1-0.3-0.2-0.5-0.3s-0.4-0.2-0.6-0.3
			c-0.2-0.1-0.4-0.2-0.6-0.4c-0.2-0.1-0.4-0.3-0.5-0.4c-0.1-0.2-0.3-0.3-0.3-0.5c-0.1-0.2-0.1-0.4-0.1-0.7c0-0.3,0.1-0.6,0.2-0.8
			s0.3-0.4,0.6-0.6c0.2-0.2,0.5-0.3,0.8-0.3c0.3-0.1,0.6-0.1,0.9-0.1c0.7,0,1.2,0.1,1.6,0.2v1.1c-0.4-0.3-0.9-0.4-1.5-0.4
			c-0.2,0-0.3,0-0.5,0s-0.3,0.1-0.4,0.2s-0.2,0.2-0.3,0.3c-0.1,0.1-0.1,0.3-0.1,0.4c0,0.2,0,0.3,0.1,0.4s0.2,0.2,0.3,0.3
			s0.3,0.2,0.4,0.3c0.2,0.1,0.4,0.2,0.6,0.3c0.2,0.1,0.5,0.3,0.7,0.4s0.4,0.3,0.6,0.4s0.3,0.3,0.4,0.5s0.1,0.4,0.1,0.7
			c0,0.3-0.1,0.6-0.2,0.9c-0.1,0.2-0.3,0.4-0.6,0.6c-0.2,0.1-0.5,0.3-0.8,0.3c-0.3,0.1-0.6,0.1-1,0.1c-0.1,0-0.3,0-0.4,0
			c-0.2,0-0.3,0-0.5-0.1s-0.3-0.1-0.5-0.1C383.6,258.8,383.5,258.6,383.4,258.6z"/>
	</g>
	<g>
		<path fill="#686868" d="M410.7,221h-1.2l-0.6-1.7h-2.7l-0.6,1.7h-1.2l2.5-6.8h1.3L410.7,221z M408.5,218.5l-0.9-2.7
			c0-0.1-0.1-0.2-0.1-0.4l0,0c0,0.2-0.1,0.3-0.1,0.4l-0.9,2.7H408.5z"/>
		<path fill="#686868" d="M412.7,218.5v2.5h-1.1v-6.8h2.1c0.8,0,1.4,0.2,1.8,0.5s0.6,0.9,0.6,1.5s-0.2,1.2-0.7,1.6s-1.1,0.6-1.8,0.6
			L412.7,218.5L412.7,218.5z M412.7,215.2v2.5h0.7c0.5,0,0.8-0.1,1.1-0.3c0.3-0.2,0.4-0.5,0.4-0.9c0-0.8-0.5-1.2-1.4-1.2
			L412.7,215.2L412.7,215.2z"/>
		<path fill="#686868" d="M418.4,218.5v2.5h-1.1v-6.8h2.1c0.8,0,1.4,0.2,1.8,0.5s0.6,0.9,0.6,1.5s-0.2,1.2-0.7,1.6s-1.1,0.6-1.8,0.6
			L418.4,218.5L418.4,218.5z M418.4,215.2v2.5h0.7c0.5,0,0.8-0.1,1.1-0.3c0.3-0.2,0.4-0.5,0.4-0.9c0-0.8-0.5-1.2-1.4-1.2
			L418.4,215.2L418.4,215.2z"/>
	</g>
	<g>
		<path fill="#686868" d="M434.7,221h-1.2l-0.6-1.7h-2.7l-0.6,1.7h-1.2l2.5-6.8h1.3L434.7,221z M432.5,218.5l-0.9-2.7
			c0-0.1-0.1-0.2-0.1-0.4l0,0c0,0.2-0.1,0.3-0.1,0.4l-0.9,2.7H432.5z"/>
		<path fill="#686868" d="M436.7,218.5v2.5h-1.1v-6.8h2.1c0.8,0,1.4,0.2,1.8,0.5c0.4,0.4,0.6,0.9,0.6,1.5s-0.2,1.2-0.7,1.6
			s-1.1,0.6-1.8,0.6L436.7,218.5L436.7,218.5z M436.7,215.2v2.5h0.7c0.5,0,0.8-0.1,1.1-0.3c0.3-0.2,0.4-0.5,0.4-0.9
			c0-0.8-0.5-1.2-1.4-1.2L436.7,215.2L436.7,215.2z"/>
		<path fill="#686868" d="M442.4,218.5v2.5h-1.1v-6.8h2.1c0.8,0,1.4,0.2,1.8,0.5s0.6,0.9,0.6,1.5s-0.2,1.2-0.7,1.6s-1.1,0.6-1.8,0.6
			L442.4,218.5L442.4,218.5z M442.4,215.2v2.5h0.7c0.5,0,0.8-0.1,1.1-0.3s0.4-0.5,0.4-0.9c0-0.8-0.5-1.2-1.4-1.2L442.4,215.2
			L442.4,215.2z"/>
	</g>
	<g>
		<path fill="#686868" d="M403.6,258.9v-6.8h2.2c0.7,0,1.2,0.1,1.6,0.4s0.6,0.7,0.6,1.1s-0.1,0.7-0.3,1s-0.5,0.5-0.9,0.6l0,0
			c0.5,0.1,0.8,0.2,1.1,0.5s0.4,0.7,0.4,1.1c0,0.6-0.2,1.1-0.7,1.4s-1,0.5-1.7,0.5h-2.3L403.6,258.9L403.6,258.9z M404.8,253.1v1.9
			h0.7c0.4,0,0.7-0.1,0.9-0.3c0.2-0.2,0.3-0.4,0.3-0.8c0-0.6-0.4-0.9-1.2-0.9L404.8,253.1L404.8,253.1z M404.8,255.9v2.1h1
			c0.4,0,0.7-0.1,1-0.3c0.2-0.2,0.3-0.5,0.3-0.8c0-0.7-0.5-1.1-1.5-1.1L404.8,255.9L404.8,255.9z"/>
		<path fill="#686868" d="M410.7,258.9h-1.2v-6.8h1.2V258.9z"/>
		<path fill="#686868" d="M418.1,258.9h-1.2l-3.2-5c-0.1-0.1-0.1-0.3-0.2-0.4l0,0c0,0.1,0,0.5,0,0.9v4.4h-1.1V252h1.3l3.1,4.9
			c0.1,0.2,0.2,0.3,0.3,0.4l0,0c0-0.2,0-0.5,0-0.9V252h1.1L418.1,258.9L418.1,258.9z"/>
		<path fill="#686868" d="M419.4,258.6v-1.2c0.1,0.1,0.2,0.2,0.4,0.3c0.1,0.1,0.3,0.1,0.5,0.2s0.3,0.1,0.5,0.1s0.3,0,0.4,0
			c0.5,0,0.8-0.1,1.1-0.2c0.2-0.2,0.3-0.4,0.3-0.7c0-0.2,0-0.3-0.1-0.4s-0.2-0.2-0.3-0.3c-0.1-0.1-0.3-0.2-0.5-0.3s-0.4-0.2-0.6-0.3
			c-0.2-0.1-0.4-0.2-0.6-0.4c-0.2-0.1-0.4-0.3-0.5-0.4c-0.1-0.2-0.3-0.3-0.3-0.5c-0.1-0.2-0.1-0.4-0.1-0.7c0-0.3,0.1-0.6,0.2-0.8
			s0.3-0.4,0.6-0.6c0.2-0.2,0.5-0.3,0.8-0.3c0.3-0.1,0.6-0.1,0.9-0.1c0.7,0,1.2,0.1,1.6,0.2v1.1c-0.4-0.3-0.9-0.4-1.5-0.4
			c-0.2,0-0.3,0-0.5,0s-0.3,0.1-0.4,0.2s-0.2,0.2-0.3,0.3c-0.1,0.1-0.1,0.3-0.1,0.4c0,0.2,0,0.3,0.1,0.4s0.2,0.2,0.3,0.3
			s0.3,0.2,0.4,0.3c0.2,0.1,0.4,0.2,0.6,0.3c0.2,0.1,0.5,0.3,0.7,0.4s0.4,0.3,0.6,0.4s0.3,0.3,0.4,0.5s0.1,0.4,0.1,0.7
			c0,0.3-0.1,0.6-0.2,0.9c-0.1,0.2-0.3,0.4-0.6,0.6c-0.2,0.1-0.5,0.3-0.8,0.3c-0.3,0.1-0.6,0.1-1,0.1c-0.1,0-0.3,0-0.4,0
			c-0.2,0-0.3,0-0.5-0.1s-0.3-0.1-0.5-0.1C419.7,258.8,419.5,258.6,419.4,258.6z"/>
		<path fill="#686868" d="M428.3,252.1L425,260h-1l3.3-7.9H428.3z"/>
		<path fill="#686868" d="M432.8,258.9H429v-6.8h1.1v5.8h2.6L432.8,258.9L432.8,258.9z"/>
		<path fill="#686868" d="M434.9,258.9h-1.2v-6.8h1.2V258.9z"/>
		<path fill="#686868" d="M436.6,258.9v-6.8h2.2c0.7,0,1.2,0.1,1.6,0.4s0.6,0.7,0.6,1.1s-0.1,0.7-0.3,1c-0.2,0.3-0.5,0.5-0.9,0.6
			l0,0c0.5,0.1,0.8,0.2,1.1,0.5s0.4,0.7,0.4,1.1c0,0.6-0.2,1.1-0.7,1.4s-1,0.5-1.7,0.5h-2.3L436.6,258.9L436.6,258.9z M437.7,253.1
			v1.9h0.7c0.4,0,0.7-0.1,0.9-0.3c0.2-0.2,0.3-0.4,0.3-0.8c0-0.6-0.4-0.9-1.2-0.9L437.7,253.1L437.7,253.1z M437.7,255.9v2.1h1
			c0.4,0,0.7-0.1,1-0.3c0.2-0.2,0.3-0.5,0.3-0.8c0-0.7-0.5-1.1-1.5-1.1L437.7,255.9L437.7,255.9z"/>
		<path fill="#686868" d="M442.1,258.6v-1.2c0.1,0.1,0.2,0.2,0.4,0.3c0.1,0.1,0.3,0.1,0.5,0.2s0.3,0.1,0.5,0.1s0.3,0,0.4,0
			c0.5,0,0.8-0.1,1.1-0.2s0.3-0.4,0.3-0.7c0-0.2,0-0.3-0.1-0.4s-0.2-0.2-0.3-0.3c-0.1-0.1-0.3-0.2-0.5-0.3s-0.4-0.2-0.6-0.3
			c-0.2-0.1-0.4-0.2-0.6-0.4s-0.4-0.3-0.5-0.4c-0.1-0.2-0.3-0.3-0.3-0.5s-0.1-0.4-0.1-0.7c0-0.3,0.1-0.6,0.2-0.8
			c0.1-0.2,0.3-0.4,0.6-0.6c0.2-0.2,0.5-0.3,0.8-0.3c0.3-0.1,0.6-0.1,0.9-0.1c0.7,0,1.2,0.1,1.6,0.2v1.1c-0.4-0.3-0.9-0.4-1.5-0.4
			c-0.2,0-0.3,0-0.5,0s-0.3,0.1-0.4,0.2s-0.2,0.2-0.3,0.3c-0.1,0.1-0.1,0.3-0.1,0.4c0,0.2,0,0.3,0.1,0.4s0.2,0.2,0.3,0.3
			c0.1,0.1,0.3,0.2,0.4,0.3s0.4,0.2,0.6,0.3c0.2,0.1,0.5,0.3,0.7,0.4s0.4,0.3,0.6,0.4s0.3,0.3,0.4,0.5s0.1,0.4,0.1,0.7
			c0,0.3-0.1,0.6-0.2,0.9c-0.1,0.2-0.3,0.4-0.6,0.6c-0.2,0.1-0.5,0.3-0.8,0.3c-0.3,0.1-0.6,0.1-1,0.1c-0.1,0-0.3,0-0.4,0
			c-0.2,0-0.3,0-0.5-0.1s-0.3-0.1-0.5-0.1C442.4,258.8,442.2,258.6,442.1,258.6z"/>
	</g>
	<g>
		<path fill="#686868" d="M494.9,221h-1.2l-0.6-1.7h-2.7l-0.6,1.7h-1.2l2.5-6.8h1.3L494.9,221z M492.8,218.5l-0.9-2.7
			c0-0.1-0.1-0.2-0.1-0.4l0,0c0,0.2-0.1,0.3-0.1,0.4l-0.9,2.7H492.8z"/>
		<path fill="#686868" d="M497,218.5v2.5h-1.1v-6.8h2.1c0.8,0,1.4,0.2,1.8,0.5s0.6,0.9,0.6,1.5s-0.2,1.2-0.7,1.6s-1.1,0.6-1.8,0.6
			L497,218.5L497,218.5z M497,215.2v2.5h0.7c0.5,0,0.8-0.1,1.1-0.3c0.3-0.2,0.4-0.5,0.4-0.9c0-0.8-0.5-1.2-1.4-1.2L497,215.2
			L497,215.2z"/>
		<path fill="#686868" d="M502.6,218.5v2.5h-1.1v-6.8h2.1c0.8,0,1.4,0.2,1.8,0.5s0.6,0.9,0.6,1.5s-0.2,1.2-0.7,1.6s-1.1,0.6-1.8,0.6
			L502.6,218.5L502.6,218.5z M502.6,215.2v2.5h0.7c0.5,0,0.8-0.1,1.1-0.3c0.3-0.2,0.4-0.5,0.4-0.9c0-0.8-0.5-1.2-1.4-1.2
			L502.6,215.2L502.6,215.2z"/>
	</g>
	<g>
		<path fill="#686868" d="M518.9,221h-1.2l-0.6-1.7h-2.7l-0.6,1.7h-1.2l2.5-6.8h1.3L518.9,221z M516.7,218.5l-0.9-2.7
			c0-0.1-0.1-0.2-0.1-0.4l0,0c0,0.2-0.1,0.3-0.1,0.4l-0.9,2.7H516.7z"/>
		<path fill="#686868" d="M520.9,218.5v2.5h-1.1v-6.8h2.1c0.8,0,1.4,0.2,1.8,0.5c0.4,0.4,0.6,0.9,0.6,1.5s-0.2,1.2-0.7,1.6
			c-0.4,0.4-1.1,0.6-1.8,0.6L520.9,218.5L520.9,218.5z M520.9,215.2v2.5h0.7c0.5,0,0.8-0.1,1.1-0.3s0.4-0.5,0.4-0.9
			c0-0.8-0.5-1.2-1.4-1.2L520.9,215.2L520.9,215.2z"/>
		<path fill="#686868" d="M526.6,218.5v2.5h-1.1v-6.8h2.1c0.8,0,1.4,0.2,1.8,0.5c0.4,0.4,0.6,0.9,0.6,1.5s-0.2,1.2-0.7,1.6
			c-0.4,0.4-1.1,0.6-1.8,0.6L526.6,218.5L526.6,218.5z M526.6,215.2v2.5h0.7c0.5,0,0.8-0.1,1.1-0.3s0.4-0.5,0.4-0.9
			c0-0.8-0.5-1.2-1.4-1.2L526.6,215.2L526.6,215.2z"/>
	</g>
	<g>
		<path fill="#686868" d="M488,258.9v-6.8h2.2c0.7,0,1.2,0.1,1.6,0.4s0.6,0.7,0.6,1.1s-0.1,0.7-0.3,1s-0.5,0.5-0.9,0.6l0,0
			c0.5,0.1,0.8,0.2,1.1,0.5s0.4,0.7,0.4,1.1c0,0.6-0.2,1.1-0.7,1.4s-1,0.5-1.7,0.5H488V258.9z M489.1,253.1v1.9h0.7
			c0.4,0,0.7-0.1,0.9-0.3c0.2-0.2,0.3-0.4,0.3-0.8c0-0.6-0.4-0.9-1.2-0.9L489.1,253.1L489.1,253.1z M489.1,255.9v2.1h1
			c0.4,0,0.7-0.1,1-0.3c0.2-0.2,0.3-0.5,0.3-0.8c0-0.7-0.5-1.1-1.5-1.1L489.1,255.9L489.1,255.9z"/>
		<path fill="#686868" d="M495,258.9h-1.2v-6.8h1.2V258.9z"/>
		<path fill="#686868" d="M502.4,258.9h-1.2l-3.2-5c-0.1-0.1-0.1-0.3-0.2-0.4l0,0c0,0.1,0,0.5,0,0.9v4.4h-1.1V252h1.3l3.1,4.9
			c0.1,0.2,0.2,0.3,0.3,0.4l0,0c0-0.2,0-0.5,0-0.9V252h1.1L502.4,258.9L502.4,258.9z"/>
		<path fill="#686868" d="M503.8,258.6v-1.2c0.1,0.1,0.2,0.2,0.4,0.3c0.1,0.1,0.3,0.1,0.5,0.2s0.3,0.1,0.5,0.1s0.3,0,0.4,0
			c0.5,0,0.8-0.1,1.1-0.2c0.2-0.2,0.3-0.4,0.3-0.7c0-0.2,0-0.3-0.1-0.4s-0.2-0.2-0.3-0.3c-0.1-0.1-0.3-0.2-0.5-0.3s-0.4-0.2-0.6-0.3
			c-0.2-0.1-0.4-0.2-0.6-0.4c-0.2-0.1-0.4-0.3-0.5-0.4c-0.1-0.2-0.3-0.3-0.3-0.5c-0.1-0.2-0.1-0.4-0.1-0.7c0-0.3,0.1-0.6,0.2-0.8
			s0.3-0.4,0.6-0.6c0.2-0.2,0.5-0.3,0.8-0.3c0.3-0.1,0.6-0.1,0.9-0.1c0.7,0,1.2,0.1,1.6,0.2v1.1c-0.4-0.3-0.9-0.4-1.5-0.4
			c-0.2,0-0.3,0-0.5,0s-0.3,0.1-0.4,0.2s-0.2,0.2-0.3,0.3c-0.1,0.1-0.1,0.3-0.1,0.4c0,0.2,0,0.3,0.1,0.4s0.2,0.2,0.3,0.3
			s0.3,0.2,0.4,0.3c0.2,0.1,0.4,0.2,0.6,0.3c0.2,0.1,0.5,0.3,0.7,0.4s0.4,0.3,0.6,0.4s0.3,0.3,0.4,0.5s0.1,0.4,0.1,0.7
			c0,0.3-0.1,0.6-0.2,0.9c-0.1,0.2-0.3,0.4-0.6,0.6c-0.2,0.1-0.5,0.3-0.8,0.3c-0.3,0.1-0.6,0.1-1,0.1c-0.1,0-0.3,0-0.4,0
			c-0.2,0-0.3,0-0.5-0.1s-0.3-0.1-0.5-0.1C504,258.8,503.9,258.6,503.8,258.6z"/>
		<path fill="#686868" d="M512.6,252.1l-3.3,7.9h-1l3.3-7.9H512.6z"/>
		<path fill="#686868" d="M517.1,258.9h-3.8v-6.8h1.1v5.8h2.6v1H517.1z"/>
		<path fill="#686868" d="M519.3,258.9h-1.2v-6.8h1.2V258.9z"/>
		<path fill="#686868" d="M520.9,258.9v-6.8h2.2c0.7,0,1.2,0.1,1.6,0.4c0.4,0.3,0.6,0.7,0.6,1.1s-0.1,0.7-0.3,1s-0.5,0.5-0.9,0.6
			l0,0c0.5,0.1,0.8,0.2,1.1,0.5s0.4,0.7,0.4,1.1c0,0.6-0.2,1.1-0.7,1.4c-0.5,0.4-1,0.5-1.7,0.5h-2.3L520.9,258.9L520.9,258.9z
			 M522.1,253.1v1.9h0.7c0.4,0,0.7-0.1,0.9-0.3c0.2-0.2,0.3-0.4,0.3-0.8c0-0.6-0.4-0.9-1.2-0.9L522.1,253.1L522.1,253.1z
			 M522.1,255.9v2.1h1c0.4,0,0.7-0.1,1-0.3c0.2-0.2,0.3-0.5,0.3-0.8c0-0.7-0.5-1.1-1.5-1.1L522.1,255.9L522.1,255.9z"/>
		<path fill="#686868" d="M526.5,258.6v-1.2c0.1,0.1,0.2,0.2,0.4,0.3c0.1,0.1,0.3,0.1,0.5,0.2s0.3,0.1,0.5,0.1s0.3,0,0.4,0
			c0.5,0,0.8-0.1,1.1-0.2s0.3-0.4,0.3-0.7c0-0.2,0-0.3-0.1-0.4s-0.2-0.2-0.3-0.3c-0.1-0.1-0.3-0.2-0.5-0.3c-0.2-0.1-0.4-0.2-0.6-0.3
			c-0.2-0.1-0.4-0.2-0.6-0.4s-0.4-0.3-0.5-0.4c-0.1-0.2-0.3-0.3-0.3-0.5c-0.1-0.2-0.1-0.4-0.1-0.7c0-0.3,0.1-0.6,0.2-0.8
			s0.3-0.4,0.6-0.6c0.2-0.2,0.5-0.3,0.8-0.3c0.3-0.1,0.6-0.1,0.9-0.1c0.7,0,1.2,0.1,1.6,0.2v1.1c-0.4-0.3-0.9-0.4-1.5-0.4
			c-0.2,0-0.3,0-0.5,0s-0.3,0.1-0.4,0.2c-0.1,0.1-0.2,0.2-0.3,0.3c-0.1,0.1-0.1,0.3-0.1,0.4c0,0.2,0,0.3,0.1,0.4s0.2,0.2,0.3,0.3
			c0.1,0.1,0.3,0.2,0.4,0.3s0.4,0.2,0.6,0.3c0.2,0.1,0.5,0.3,0.7,0.4s0.4,0.3,0.6,0.4c0.2,0.2,0.3,0.3,0.4,0.5
			c0.1,0.2,0.1,0.4,0.1,0.7c0,0.3-0.1,0.6-0.2,0.9c-0.1,0.2-0.3,0.4-0.6,0.6c-0.2,0.1-0.5,0.3-0.8,0.3s-0.6,0.1-1,0.1
			c-0.1,0-0.3,0-0.4,0c-0.2,0-0.3,0-0.5-0.1s-0.3-0.1-0.5-0.1C526.7,258.8,526.6,258.6,526.5,258.6z"/>
	</g>
	<g>
		<path fill="#686868" d="M553.6,221h-1.2l-0.6-1.7h-2.7l-0.6,1.7h-1.2l2.5-6.8h1.3L553.6,221z M551.5,218.5l-0.9-2.7
			c0-0.1-0.1-0.2-0.1-0.4l0,0c0,0.2-0.1,0.3-0.1,0.4l-0.9,2.7H551.5z"/>
		<path fill="#686868" d="M555.7,218.5v2.5h-1.1v-6.8h2.1c0.8,0,1.4,0.2,1.8,0.5c0.4,0.4,0.6,0.9,0.6,1.5s-0.2,1.2-0.7,1.6
			s-1.1,0.6-1.8,0.6L555.7,218.5L555.7,218.5z M555.7,215.2v2.5h0.7c0.5,0,0.8-0.1,1.1-0.3s0.4-0.5,0.4-0.9c0-0.8-0.5-1.2-1.4-1.2
			L555.7,215.2L555.7,215.2z"/>
		<path fill="#686868" d="M561.4,218.5v2.5h-1.1v-6.8h2.1c0.8,0,1.4,0.2,1.8,0.5s0.6,0.9,0.6,1.5s-0.2,1.2-0.7,1.6
			c-0.4,0.4-1.1,0.6-1.8,0.6L561.4,218.5L561.4,218.5z M561.4,215.2v2.5h0.7c0.5,0,0.8-0.1,1.1-0.3s0.4-0.5,0.4-0.9
			c0-0.8-0.5-1.2-1.4-1.2L561.4,215.2L561.4,215.2z"/>
	</g>
	<g>
		<path fill="#686868" d="M577.6,221h-1.2l-0.6-1.7h-2.7l-0.6,1.7h-1.2l2.5-6.8h1.3L577.6,221z M575.5,218.5l-0.9-2.7
			c0-0.1-0.1-0.2-0.1-0.4l0,0c0,0.2-0.1,0.3-0.1,0.4l-0.9,2.7H575.5z"/>
		<path fill="#686868" d="M579.7,218.5v2.5h-1.1v-6.8h2.1c0.8,0,1.4,0.2,1.8,0.5c0.4,0.4,0.6,0.9,0.6,1.5s-0.2,1.2-0.7,1.6
			c-0.4,0.4-1.1,0.6-1.8,0.6L579.7,218.5L579.7,218.5z M579.7,215.2v2.5h0.7c0.5,0,0.8-0.1,1.1-0.3s0.4-0.5,0.4-0.9
			c0-0.8-0.5-1.2-1.4-1.2L579.7,215.2L579.7,215.2z"/>
		<path fill="#686868" d="M585.3,218.5v2.5h-1.1v-6.8h2.1c0.8,0,1.4,0.2,1.8,0.5c0.4,0.4,0.6,0.9,0.6,1.5s-0.2,1.2-0.7,1.6
			c-0.4,0.4-1.1,0.6-1.8,0.6L585.3,218.5L585.3,218.5z M585.3,215.2v2.5h0.7c0.5,0,0.8-0.1,1.1-0.3s0.4-0.5,0.4-0.9
			c0-0.8-0.5-1.2-1.4-1.2L585.3,215.2L585.3,215.2z"/>
	</g>
	<g>
		<path fill="#686868" d="M546.8,258.9v-6.8h2.2c0.7,0,1.2,0.1,1.6,0.4c0.4,0.3,0.6,0.7,0.6,1.1s-0.1,0.7-0.3,1s-0.5,0.5-0.9,0.6
			l0,0c0.5,0.1,0.8,0.2,1.1,0.5s0.4,0.7,0.4,1.1c0,0.6-0.2,1.1-0.7,1.4c-0.5,0.4-1,0.5-1.7,0.5h-2.3L546.8,258.9L546.8,258.9z
			 M547.9,253.1v1.9h0.7c0.4,0,0.7-0.1,0.9-0.3c0.2-0.2,0.3-0.4,0.3-0.8c0-0.6-0.4-0.9-1.2-0.9L547.9,253.1L547.9,253.1z
			 M547.9,255.9v2.1h1c0.4,0,0.7-0.1,1-0.3s0.3-0.5,0.3-0.8c0-0.7-0.5-1.1-1.5-1.1L547.9,255.9L547.9,255.9z"/>
		<path fill="#686868" d="M553.8,258.9h-1.2v-6.8h1.2V258.9z"/>
		<path fill="#686868" d="M561.2,258.9H560l-3.2-5c-0.1-0.1-0.1-0.3-0.2-0.4l0,0c0,0.1,0,0.5,0,0.9v4.4h-1.1V252h1.3l3.1,4.9
			c0.1,0.2,0.2,0.3,0.3,0.4l0,0c0-0.2,0-0.5,0-0.9V252h1.1L561.2,258.9L561.2,258.9z"/>
		<path fill="#686868" d="M562.5,258.6v-1.2c0.1,0.1,0.2,0.2,0.4,0.3c0.1,0.1,0.3,0.1,0.5,0.2s0.3,0.1,0.5,0.1s0.3,0,0.4,0
			c0.5,0,0.8-0.1,1.1-0.2s0.3-0.4,0.3-0.7c0-0.2,0-0.3-0.1-0.4s-0.2-0.2-0.3-0.3c-0.1-0.1-0.3-0.2-0.5-0.3c-0.2-0.1-0.4-0.2-0.6-0.3
			c-0.2-0.1-0.4-0.2-0.6-0.4c-0.2-0.1-0.4-0.3-0.5-0.4c-0.1-0.2-0.3-0.3-0.3-0.5c-0.1-0.2-0.1-0.4-0.1-0.7c0-0.3,0.1-0.6,0.2-0.8
			s0.3-0.4,0.6-0.6c0.2-0.2,0.5-0.3,0.8-0.3c0.3-0.1,0.6-0.1,0.9-0.1c0.7,0,1.2,0.1,1.6,0.2v1.1c-0.4-0.3-0.9-0.4-1.5-0.4
			c-0.2,0-0.3,0-0.5,0s-0.3,0.1-0.4,0.2c-0.1,0.1-0.2,0.2-0.3,0.3c-0.1,0.1-0.1,0.3-0.1,0.4c0,0.2,0,0.3,0.1,0.4s0.2,0.2,0.3,0.3
			s0.3,0.2,0.4,0.3s0.4,0.2,0.6,0.3c0.2,0.1,0.5,0.3,0.7,0.4s0.4,0.3,0.6,0.4c0.2,0.2,0.3,0.3,0.4,0.5c0.1,0.2,0.1,0.4,0.1,0.7
			c0,0.3-0.1,0.6-0.2,0.9c-0.1,0.2-0.3,0.4-0.6,0.6c-0.2,0.1-0.5,0.3-0.8,0.3s-0.6,0.1-1,0.1c-0.1,0-0.3,0-0.4,0
			c-0.2,0-0.3,0-0.5-0.1s-0.3-0.1-0.5-0.1C562.8,258.8,562.6,258.6,562.5,258.6z"/>
		<path fill="#686868" d="M571.4,252.1l-3.3,7.9h-1l3.3-7.9H571.4z"/>
		<path fill="#686868" d="M575.9,258.9h-3.8v-6.8h1.1v5.8h2.6v1H575.9z"/>
		<path fill="#686868" d="M578,258.9h-1.2v-6.8h1.2V258.9z"/>
		<path fill="#686868" d="M579.7,258.9v-6.8h2.2c0.7,0,1.2,0.1,1.6,0.4c0.4,0.3,0.6,0.7,0.6,1.1s-0.1,0.7-0.3,1s-0.5,0.5-0.9,0.6
			l0,0c0.5,0.1,0.8,0.2,1.1,0.5s0.4,0.7,0.4,1.1c0,0.6-0.2,1.1-0.7,1.4c-0.5,0.4-1,0.5-1.7,0.5h-2.3L579.7,258.9L579.7,258.9z
			 M580.8,253.1v1.9h0.7c0.4,0,0.7-0.1,0.9-0.3c0.2-0.2,0.3-0.4,0.3-0.8c0-0.6-0.4-0.9-1.2-0.9L580.8,253.1L580.8,253.1z
			 M580.8,255.9v2.1h1c0.4,0,0.7-0.1,1-0.3c0.2-0.2,0.3-0.5,0.3-0.8c0-0.7-0.5-1.1-1.5-1.1L580.8,255.9L580.8,255.9z"/>
		<path fill="#686868" d="M585.2,258.6v-1.2c0.1,0.1,0.2,0.2,0.4,0.3c0.1,0.1,0.3,0.1,0.5,0.2s0.3,0.1,0.5,0.1s0.3,0,0.4,0
			c0.5,0,0.8-0.1,1.1-0.2s0.3-0.4,0.3-0.7c0-0.2,0-0.3-0.1-0.4s-0.2-0.2-0.3-0.3c-0.1-0.1-0.3-0.2-0.5-0.3c-0.2-0.1-0.4-0.2-0.6-0.3
			c-0.2-0.1-0.4-0.2-0.6-0.4s-0.4-0.3-0.5-0.4c-0.1-0.2-0.3-0.3-0.3-0.5c-0.1-0.2-0.1-0.4-0.1-0.7c0-0.3,0.1-0.6,0.2-0.8
			s0.3-0.4,0.6-0.6c0.2-0.2,0.5-0.3,0.8-0.3c0.3-0.1,0.6-0.1,0.9-0.1c0.7,0,1.2,0.1,1.6,0.2v1.1c-0.4-0.3-0.9-0.4-1.5-0.4
			c-0.2,0-0.3,0-0.5,0s-0.3,0.1-0.4,0.2c-0.1,0.1-0.2,0.2-0.3,0.3c-0.1,0.1-0.1,0.3-0.1,0.4c0,0.2,0,0.3,0.1,0.4s0.2,0.2,0.3,0.3
			c0.1,0.1,0.3,0.2,0.4,0.3s0.4,0.2,0.6,0.3c0.2,0.1,0.5,0.3,0.7,0.4s0.4,0.3,0.6,0.4c0.2,0.2,0.3,0.3,0.4,0.5
			c0.1,0.2,0.1,0.4,0.1,0.7c0,0.3-0.1,0.6-0.2,0.9c-0.1,0.2-0.3,0.4-0.6,0.6c-0.2,0.1-0.5,0.3-0.8,0.3s-0.6,0.1-1,0.1
			c-0.1,0-0.3,0-0.4,0c-0.2,0-0.3,0-0.5-0.1s-0.3-0.1-0.5-0.1C585.5,258.8,585.3,258.6,585.2,258.6z"/>
	</g>
</g>
<path fill="#00BCF2" d="M235.6,147.9c0.7,0.2,1.4,0.4,2.1,0.6l31.3,8.1l-8.4-32.3c-0.8-3.3-2.6-6.4-5.1-9c-7.7-7.7-20.1-7.7-27.8,0
	s-7.7,20.1,0,27.8c2.2,2.2,4.9,3.8,7.7,4.7l0,0L235.6,147.9z"/>
<g>
	<polygon fill="#FFFFFF" points="242.1,132.8 239.8,132.8 239.8,137.5 237.8,137.5 241,142 244.1,137.5 242.1,137.5 	"/>
	<polygon fill="#FFFFFF" points="238.1,125.5 243.8,125.5 243.8,127 238.1,127 	"/>
	<polygon fill="#FFFFFF" points="238.1,127.9 243.8,127.9 243.8,129.5 238.1,129.5 	"/>
	<polygon fill="#FFFFFF" points="238.1,130.3 243.8,130.3 243.8,132 238.1,132 	"/>
	<path fill="#FFFFFF" d="M241.5,119h-6.7c-0.2,0-0.7,0-0.7,0.8l-0.1,12.7h2.4v-11.1h3.2v3.2h2.4v-5C242.1,119,241.7,119,241.5,119
		L241.5,119z"/>
	<path fill="#FFFFFF" d="M236.4,130.3H234v5.7c0,0.2,0.7,0.8,0.9,0.8h4v-2.4h-2.4L236.4,130.3L236.4,130.3L236.4,130.3z"/>
	<path fill="#FFFFFF" d="M249.6,129.5h-0.7c-0.4-4.9-2.7-7.2-6-7.9v2.3c2.4,0.8,3.3,3.2,3.4,6.3l-0.1,1.6l3.2-0.1
		c0.9,0,1.5,0.2,1.5,1.1v1.4h-8.1v2.4h9.6c0.2,0,0.9-0.7,0.9-0.8v-3.1C253.4,130.8,251.7,129.5,249.6,129.5L249.6,129.5z"/>
</g>
</svg>
