<?xml version="1.0" encoding="utf-8"?>
<!-- Generator: Adobe Illustrator 18.0.0, SVG Export Plug-In . SVG Version: 6.00 Build 0)  -->
<!DOCTYPE svg PUBLIC "-//W3C//DTD SVG 1.1//EN" "http://www.w3.org/Graphics/SVG/1.1/DTD/svg11.dtd">
<svg version="1.1" id="Layer_1" xmlns="http://www.w3.org/2000/svg" xmlns:xlink="http://www.w3.org/1999/xlink" x="0px" y="0px"
	 width="129.2px" height="329.2px" viewBox="0 0 129.2 329.2" enable-background="new 0 0 129.2 329.2" xml:space="preserve">
<g id="Layer_2">
</g>
<g>
	<path fill="#00BCF2" d="M25.1,325.5h-1.8l-4.7-7.2c-0.1-0.2-0.2-0.4-0.3-0.6l0,0c0,0.2,0.1,0.7,0.1,1.3v6.4h-1.6v-9.8h1.9l4.5,7
		c0.2,0.3,0.3,0.5,0.4,0.6l0,0c0-0.3-0.1-0.7-0.1-1.3v-6.3h1.6V325.5z"/>
	<path fill="#00BCF2" d="M33,325.5h-5.5v-9.8h5.3v1.4h-3.6v2.8h3.4v1.4h-3.4v2.9h3.9L33,325.5L33,325.5z"/>
	<path fill="#00BCF2" d="M41,317.1h-2.8v8.4h-1.6V317h-2.8v-1.4H41L41,317.1L41,317.1z"/>
	<path fill="#00BCF2" d="M54.8,315.6l-2.7,9.8h-1.8l-1.9-6.8c-0.1-0.3-0.1-0.6-0.1-1l0,0c0,0.3-0.1,0.6-0.2,0.9l-1.9,6.8h-1.9
		l-2.7-9.8h1.8l1.8,7.1c0.1,0.3,0.1,0.6,0.1,0.9l0,0c0-0.2,0.1-0.5,0.2-0.9l2-7.1h1.7l1.8,7.2c0.1,0.2,0.1,0.5,0.1,0.9l0,0
		c0-0.2,0.1-0.5,0.2-0.9l1.7-7.2L54.8,315.6L54.8,315.6z"/>
	<path fill="#00BCF2" d="M60.2,325.6c-1.4,0-2.5-0.5-3.4-1.4c-0.8-0.9-1.3-2.1-1.3-3.6c0-1.6,0.4-2.8,1.3-3.8c0.9-0.9,2-1.4,3.5-1.4
		c1.4,0,2.5,0.5,3.3,1.4c0.8,0.9,1.3,2.1,1.3,3.6c0,1.6-0.4,2.8-1.3,3.8C62.8,325.1,61.6,325.6,60.2,325.6z M60.3,317
		c-0.9,0-1.6,0.3-2.2,1s-0.8,1.5-0.8,2.6s0.3,2,0.8,2.6c0.5,0.7,1.3,1,2.1,1c0.9,0,1.7-0.3,2.2-0.9c0.5-0.6,0.8-1.5,0.8-2.6
		c0-1.2-0.3-2.1-0.8-2.7S61.2,317,60.3,317z"/>
	<path fill="#00BCF2" d="M74.3,325.5h-1.9l-1.6-2.6c-0.1-0.2-0.3-0.4-0.4-0.6c-0.1-0.2-0.3-0.3-0.4-0.4s-0.3-0.2-0.5-0.2
		s-0.3-0.1-0.6-0.1h-0.7v4h-1.6v-9.8h3.2c0.5,0,0.9,0.1,1.3,0.2s0.7,0.3,1,0.5s0.5,0.5,0.7,0.8c0.2,0.3,0.2,0.7,0.2,1.2
		c0,0.3-0.1,0.7-0.2,0.9c-0.1,0.3-0.2,0.5-0.4,0.8c-0.2,0.2-0.4,0.4-0.7,0.6c-0.3,0.2-0.6,0.3-0.9,0.4l0,0c0.2,0.1,0.3,0.2,0.5,0.3
		c0.1,0.1,0.3,0.2,0.4,0.4c0.1,0.1,0.2,0.3,0.3,0.4c0.1,0.2,0.2,0.3,0.4,0.6L74.3,325.5z M68.3,317v3.2h1.3c0.2,0,0.5,0,0.7-0.1
		s0.4-0.2,0.5-0.3c0.2-0.1,0.3-0.3,0.4-0.5c0.1-0.2,0.1-0.4,0.1-0.7c0-0.5-0.1-0.8-0.4-1.1s-0.7-0.4-1.3-0.4L68.3,317L68.3,317
		L68.3,317z"/>
	<path fill="#00BCF2" d="M82.8,325.5h-2.1l-3.4-4.5c-0.1-0.2-0.2-0.3-0.2-0.3l0,0v4.8h-1.6v-9.8h1.6v4.6l0,0
		c0.1-0.1,0.1-0.2,0.2-0.3l3.3-4.3h1.9l-3.8,4.7L82.8,325.5z"/>
	<path fill="#00BCF2" d="M94,317.1h-2.8v8.4h-1.6V317h-2.8v-1.4H94L94,317.1L94,317.1z"/>
	<path fill="#00BCF2" d="M97.1,325.5h-1.7v-9.8h1.7V325.5z"/>
	<path fill="#00BCF2" d="M104.9,325.5h-5.5v-9.8h5.3v1.4h-3.6v2.8h3.4v1.4h-3.4v2.9h3.9L104.9,325.5L104.9,325.5z"/>
	<path fill="#00BCF2" d="M114.2,325.5h-1.9l-1.6-2.6c-0.1-0.2-0.3-0.4-0.4-0.6c-0.1-0.2-0.3-0.3-0.4-0.4c-0.1-0.1-0.3-0.2-0.5-0.2
		s-0.3-0.1-0.6-0.1h-0.7v4h-1.6v-9.8h3.2c0.5,0,0.9,0.1,1.3,0.2c0.4,0.1,0.7,0.3,1,0.5s0.5,0.5,0.7,0.8c0.2,0.3,0.2,0.7,0.2,1.2
		c0,0.3-0.1,0.7-0.2,0.9c-0.1,0.3-0.2,0.5-0.4,0.8c-0.2,0.2-0.4,0.4-0.7,0.6c-0.3,0.2-0.6,0.3-0.9,0.4l0,0c0.2,0.1,0.3,0.2,0.5,0.3
		c0.1,0.1,0.3,0.2,0.4,0.4c0.1,0.1,0.2,0.3,0.3,0.4c0.1,0.2,0.2,0.3,0.4,0.6L114.2,325.5z M108.3,317v3.2h1.3c0.2,0,0.5,0,0.7-0.1
		s0.4-0.2,0.5-0.3c0.2-0.1,0.3-0.3,0.4-0.5c0.1-0.2,0.1-0.4,0.1-0.7c0-0.5-0.1-0.8-0.4-1.1s-0.7-0.4-1.3-0.4L108.3,317L108.3,317z"
		/>
</g>
<circle fill="#00BCF2" cx="64.5" cy="298.8" r="9.9"/>
<g>
	<path fill="#FFFFFF" d="M67,302.4h-4.9v-0.6c0-0.2,0-0.5,0.1-0.7c0.1-0.2,0.2-0.4,0.3-0.6c0.1-0.2,0.3-0.4,0.4-0.5
		c0.2-0.2,0.3-0.3,0.5-0.5s0.4-0.3,0.5-0.5c0.2-0.1,0.4-0.3,0.5-0.4c0.2-0.1,0.3-0.3,0.5-0.4c0.1-0.1,0.3-0.3,0.4-0.4
		c0.1-0.1,0.2-0.3,0.2-0.5c0.1-0.2,0.1-0.3,0.1-0.5c0-0.2,0-0.4-0.1-0.5c-0.1-0.1-0.2-0.3-0.3-0.4c-0.1-0.1-0.3-0.2-0.4-0.2
		c-0.2-0.1-0.3-0.1-0.5-0.1c-0.3,0-0.6,0.1-1,0.2c-0.3,0.1-0.6,0.4-1,0.7v-1.2c0.2-0.1,0.3-0.2,0.5-0.3s0.3-0.2,0.5-0.2
		c0.2-0.1,0.4-0.1,0.5-0.1c0.2,0,0.4,0,0.6,0c0.4,0,0.7,0,1,0.1c0.3,0.1,0.5,0.2,0.7,0.4c0.2,0.2,0.4,0.4,0.5,0.7
		c0.1,0.3,0.2,0.6,0.2,0.9c0,0.3,0,0.6-0.1,0.9c-0.1,0.3-0.2,0.5-0.3,0.7c-0.1,0.2-0.3,0.4-0.5,0.6s-0.4,0.4-0.7,0.6
		c-0.2,0.2-0.4,0.3-0.6,0.5c-0.2,0.2-0.4,0.3-0.6,0.5c-0.2,0.2-0.3,0.3-0.4,0.5c-0.1,0.2-0.2,0.3-0.2,0.5l0,0h3.5L67,302.4L67,302.4
		z"/>
</g>
<g>
	
		<line fill="none" stroke="#DEDEDE" stroke-width="4" stroke-linecap="round" stroke-linejoin="round" stroke-miterlimit="10" x1="63.5" y1="9" x2="64.5" y2="257.9"/>
	
		<circle fill="none" stroke="#DEDEDE" stroke-width="4" stroke-linecap="round" stroke-linejoin="round" stroke-miterlimit="10" cx="64.5" cy="263.4" r="5"/>
</g>
</svg>
