<?xml version="1.0" encoding="utf-8"?>
<!-- Generator: Adobe Illustrator 18.0.0, SVG Export Plug-In . SVG Version: 6.00 Build 0)  -->
<!DOCTYPE svg PUBLIC "-//W3C//DTD SVG 1.1//EN" "http://www.w3.org/Graphics/SVG/1.1/DTD/svg11.dtd">
<svg version="1.1" id="Layer_1" xmlns="http://www.w3.org/2000/svg" xmlns:xlink="http://www.w3.org/1999/xlink" x="0px" y="0px"
	 width="960px" height="313px" viewBox="0 0 960 313" enable-background="new 0 0 960 313" xml:space="preserve">
<g>
	
		<polyline fill="none" stroke="#686868" stroke-width="3" stroke-linecap="round" stroke-linejoin="round" stroke-miterlimit="10" points="
		468.2,298.5 468.2,251 398,251 398,210.3 398,175.3 	"/>
	
		<polyline fill="none" stroke="#686868" stroke-width="3" stroke-linecap="round" stroke-linejoin="round" stroke-miterlimit="10" points="
		461.5,295.2 468.1,301.8 474.8,295.1 	"/>
	
		<polyline fill="none" stroke="#686868" stroke-width="3" stroke-linecap="round" stroke-linejoin="round" stroke-miterlimit="10" points="
		468.2,271.8 468.2,263.2 300.5,263.2 300.5,156.7 300.5,121.8 	"/>
	
		<polyline fill="none" stroke="#686868" stroke-width="3" stroke-linecap="round" stroke-linejoin="round" stroke-miterlimit="10" points="
		629.3,121.8 629.3,156.7 629.3,263.2 468.2,263.2 468.2,270 	"/>
	
		<polyline fill="none" stroke="#686868" stroke-width="3" stroke-linecap="round" stroke-linejoin="round" stroke-miterlimit="10" points="
		468.2,263.2 468.2,251 537.2,251 537.3,210.3 537.3,175.3 	"/>
	<path fill="none" stroke="#000000" stroke-width="3" stroke-linecap="round" stroke-linejoin="round" stroke-miterlimit="10" d="
		M292.1,120c0,0,7.9,4,16.6,0"/>
	<path fill="none" stroke="#000000" stroke-width="3" stroke-linecap="round" stroke-linejoin="round" stroke-miterlimit="10" d="
		M620.9,120c0,0,7.9,4,16.6,0"/>
	<path fill="none" stroke="#000000" stroke-width="3" stroke-linecap="round" stroke-linejoin="round" stroke-miterlimit="10" d="
		M389.7,173.5c0,0,7.9,4,16.6,0"/>
	<path fill="none" stroke="#000000" stroke-width="3" stroke-linecap="round" stroke-linejoin="round" stroke-miterlimit="10" d="
		M529,173.5c0,0,7.9,4,16.6,0"/>
</g>
</svg>
