<?xml version="1.0" encoding="utf-8"?>
<!-- Generator: Adobe Illustrator 19.2.0, SVG Export Plug-In . SVG Version: 6.00 Build 0)  -->
<svg version="1.1" id="infographic2" xmlns="http://www.w3.org/2000/svg" xmlns:xlink="http://www.w3.org/1999/xlink" x="0px"
	 y="0px" width="960px" height="355px" viewBox="0 0 960 355" style="enable-background:new 0 0 960 355;" xml:space="preserve">
<g>
	
		<line style="fill:none;stroke:#686868;stroke-width:3;stroke-linecap:round;stroke-linejoin:round;stroke-miterlimit:10;" x1="362.3" y1="145.1" x2="362.3" y2="321.1"/>
	
		<polyline style="fill:none;stroke:#686868;stroke-width:3;stroke-linecap:round;stroke-linejoin:round;stroke-miterlimit:10;" points="
		354.6,315.6 362.3,322.5 370.1,315.6 	"/>
</g>
<g>
	
		<line style="fill:none;stroke:#686868;stroke-width:3;stroke-linecap:round;stroke-linejoin:round;stroke-miterlimit:10;" x1="588.4" y1="145.1" x2="588.4" y2="320.9"/>
	
		<polyline style="fill:none;stroke:#686868;stroke-width:3;stroke-linecap:round;stroke-linejoin:round;stroke-miterlimit:10;" points="
		580.7,314.6 588.4,322.5 596.2,314.5 	"/>
</g>
<path style="fill:#00BCF2;" d="M555.5,275.8l0.2-0.2h-5.2L555.5,275.8z"/>
<path style="fill:#DEDEDE;" d="M268.6,222.8h-54.5c-14.6,0-14.7,22.8,0,22.8h54.5C283.3,245.6,283.3,222.8,268.6,222.8z"/>
<path style="fill:#DEDEDE;" d="M581.8,217.5c5.4-6.4,4.6-16-1.8-21.5c-2.5-2.1-5.5-3.3-8.7-3.5c-4.5-45.2-44.8-78.1-90-73.6
	c-42,4.2-74,39.5-74,81.7c0,0.9,0,1.9,0.1,2.8c-18.8-12-43.8-6.5-55.9,12.3c-0.1,0.2-0.2,0.3-0.3,0.5h-32.3
	c-40.1,0-40.1,62.3,0,62.3h254.1C609.7,278.6,612.7,226,581.8,217.5z"/>
<path style="fill:#DEDEDE;" d="M316.6,180.5h-18.7c-6,0-11.6,5.2-11.4,11.4s5,11.4,11.4,11.4h18.7c6,0,11.6-5.2,11.4-11.4
	S323,180.5,316.6,180.5z"/>
<path style="fill:#DEDEDE;" d="M679.3,160.3h-70.7c-14.6,0-14.7,22.8,0,22.8h70.7C693.9,183.1,694,160.3,679.3,160.3z"/>
<path d="M443.7,213.2h-1.7v-9.8h1.7V213.2z"/>
<path d="M454.4,213.2h-1.8l-4.7-7.2c-0.1-0.2-0.2-0.4-0.3-0.6l0,0c0,0.4,0.1,0.9,0,1.3v6.4h-1.6v-9.8h1.9l4.5,7
	c0.2,0.3,0.3,0.5,0.4,0.6l0,0c-0.1-0.4-0.1-0.9-0.1-1.3v-6.3h1.6L454.4,213.2L454.4,213.2z"/>
<path d="M463.1,204.8h-2.8v8.4h-1.6v-8.4h-2.8v-1.4h7.2L463.1,204.8L463.1,204.8z"/>
<path d="M470,213.2h-5.5v-9.8h5.3v1.4h-3.6v2.8h3.4v1.4h-3.4v2.9h3.9L470,213.2L470,213.2z"/>
<path d="M479.2,213.2h-1.9l-1.6-2.6c-0.1-0.2-0.3-0.4-0.4-0.6c-0.1-0.2-0.3-0.3-0.4-0.4c-0.1-0.1-0.3-0.2-0.5-0.2
	c-0.2-0.1-0.4-0.1-0.5-0.1h-0.6v4h-1.6v-9.8h3.2c0.4,0,0.8,0,1.3,0.2c0.4,0.1,0.7,0.3,1,0.5c0.3,0.2,0.5,0.5,0.7,0.8
	c0.2,0.4,0.2,0.8,0.2,1.1c0,0.3,0,0.6-0.1,0.9c-0.1,0.3-0.2,0.5-0.4,0.8c-0.2,0.2-0.4,0.4-0.7,0.6c-0.3,0.2-0.6,0.3-0.9,0.4l0,0
	c0.2,0.1,0.3,0.2,0.5,0.3l0.4,0.4c0.1,0.1,0.2,0.3,0.4,0.4l0.4,0.6L479.2,213.2z M473.3,204.8v3.2h1.4c0.2,0,0.5,0,0.7-0.1
	c0.2-0.1,0.4-0.2,0.5-0.3c0.2-0.1,0.3-0.3,0.4-0.5c0.1-0.2,0.1-0.5,0.1-0.7c0-0.4-0.1-0.8-0.4-1.1c-0.4-0.3-0.8-0.4-1.3-0.4
	L473.3,204.8L473.3,204.8z"/>
<path d="M488.7,213.2h-1.8l-4.7-7.2c-0.1-0.2-0.2-0.4-0.3-0.6l0,0c0,0.4,0.1,0.9,0,1.3v6.4h-1.6v-9.8h1.9l4.5,7
	c0.2,0.3,0.3,0.5,0.4,0.6l0,0c-0.1-0.4-0.1-0.9-0.1-1.3v-6.3h1.6L488.7,213.2L488.7,213.2z"/>
<path d="M496.5,213.2h-5.5v-9.8h5.3v1.4h-3.6v2.8h3.4v1.4h-3.4v2.9h3.9L496.5,213.2L496.5,213.2z"/>
<path d="M504.6,204.8h-2.8v8.4h-1.7v-8.4h-2.8v-1.4h7.2L504.6,204.8L504.6,204.8z"/>
<g id="infographic2--optionC">
	<rect id="_x3C_Rectangle_x3E__2_" x="538.2" y="71.6" style="fill:#FFFFFF;fill-opacity:0;" width="105.8" height="69.8"/>
	<g id="content">
		<path d="M583.5,78.7l-3.5,9.7h-1.8l-3.4-9.8h1.8l2.4,7.4c0.1,0.3,0.2,0.5,0.2,0.8l0,0c0-0.3,0.1-0.6,0.2-0.8l2.5-7.4L583.5,78.7
			L583.5,78.7z"/>
		<path d="M586.4,84.8v3.5h-1.6v-9.7h3c0.9-0.1,1.9,0.2,2.6,0.8c0.6,0.6,1,1.4,0.9,2.2c0,0.9-0.3,1.7-1,2.3c-0.7,0.6-1.7,1-2.6,0.9
			L586.4,84.8L586.4,84.8z M586.4,80v3.6h1c0.6,0,1.1-0.1,1.6-0.5c0.4-0.4,0.6-0.8,0.5-1.4c0-1.1-0.7-1.7-2-1.7L586.4,80L586.4,80z"
			/>
		<path d="M601.2,88.4h-1.8l-4.7-7.2c-0.1-0.2-0.2-0.4-0.3-0.6l0,0c0,0.4,0.1,0.9,0,1.3v6.4H593v-9.7h1.9l4.5,7
			c0.2,0.3,0.3,0.5,0.4,0.6l0,0c-0.1-0.4-0.1-0.9-0.1-1.3v-6.3h1.6L601.2,88.4L601.2,88.4z"/>
		<path d="M543.2,101.6v3.5h-1.6v-9.8h3c0.9-0.1,1.9,0.2,2.6,0.8c0.6,0.6,1,1.4,0.9,2.2c0,0.9-0.3,1.7-1,2.3c-0.7,0.6-1.7,1-2.6,0.9
			L543.2,101.6L543.2,101.6z M543.2,96.7v3.6h1c0.6,0,1.1-0.1,1.6-0.5c0.4-0.4,0.6-0.8,0.5-1.4c0-1.1-0.7-1.7-2-1.7
			C544.3,96.7,543.2,96.7,543.2,96.7z"/>
		<path d="M553.7,105.3c-1.3,0.1-2.5-0.4-3.4-1.4c-0.9-1-1.3-2.3-1.3-3.6c-0.1-1.4,0.4-2.7,1.3-3.8c0.9-1,2.2-1.5,3.5-1.4
			c1.2-0.1,2.5,0.4,3.3,1.4c0.9,1,1.3,2.3,1.3,3.6c0.1,1.4-0.4,2.7-1.3,3.7C556.3,104.8,555,105.3,553.7,105.3z M553.8,96.6
			c-0.8,0-1.6,0.3-2.2,1c-1.1,1.6-1.1,3.7,0,5.3c0.5,0.7,1.3,1,2.1,1c0.8,0,1.7-0.3,2.2-0.9c0.6-0.8,0.9-1.7,0.8-2.7
			c0.1-1-0.2-1.9-0.8-2.7C555.4,96.9,554.6,96.6,553.8,96.6L553.8,96.6z"/>
		<path d="M561.9,105.1h-1.7v-9.8h1.7L561.9,105.1L561.9,105.1z"/>
		<path d="M572.5,105.1h-1.8l-4.7-7.2c-0.1-0.2-0.2-0.4-0.3-0.6l0,0c0,0.4,0.1,0.9,0,1.3v6.4h-1.6v-9.8h1.8l4.5,7
			c0.2,0.3,0.3,0.5,0.4,0.6l0,0c-0.1-0.4-0.1-0.9-0.1-1.3v-6.3h1.6L572.5,105.1L572.5,105.1z"/>
		<path d="M581.2,96.7h-2.8v8.4h-1.6v-8.4h-2.8v-1.4h7.2V96.7z"/>
		<path d="M586.2,101.8h-3.7v-1.1h3.7V101.8z"/>
		<path d="M594.5,96.7h-2.8v8.4h-1.6v-8.4h-2.8v-1.4h7.2L594.5,96.7L594.5,96.7z"/>
		<path d="M599.4,105.3c-1.3,0.1-2.5-0.4-3.4-1.4c-0.9-1-1.3-2.3-1.3-3.6c-0.1-1.4,0.4-2.7,1.3-3.8c0.9-1,2.2-1.5,3.5-1.4
			c1.2-0.1,2.5,0.4,3.3,1.4c0.9,1,1.3,2.3,1.3,3.6c0.1,1.4-0.4,2.7-1.3,3.7C601.9,104.8,600.7,105.3,599.4,105.3z M599.4,96.6
			c-0.8,0-1.6,0.3-2.2,1c-1.1,1.6-1.1,3.7,0,5.3c0.5,0.7,1.3,1,2.1,1c0.8,0,1.7-0.3,2.2-0.9c0.6-0.8,0.9-1.7,0.8-2.7
			c0.1-1-0.2-1.9-0.8-2.7C601.1,96.9,600.3,96.6,599.4,96.6L599.4,96.6z"/>
		<path d="M609.3,101.8h-3.7v-1.1h3.7V101.8z"/>
		<path d="M611,104.7v-1.7c0.2,0.1,0.3,0.3,0.5,0.4c0.2,0.1,0.4,0.2,0.7,0.3c0.2,0.1,0.5,0.1,0.7,0.2c0.2,0,0.4,0.1,0.6,0.1
			c0.5,0,1.1-0.1,1.5-0.3c0.3-0.2,0.5-0.6,0.5-1c0-0.2-0.1-0.4-0.2-0.6c-0.1-0.2-0.3-0.3-0.5-0.5c-0.2-0.2-0.5-0.3-0.7-0.4l-0.9-0.4
			c-0.3-0.2-0.6-0.4-0.9-0.5c-0.3-0.2-0.5-0.4-0.7-0.6c-0.2-0.2-0.4-0.5-0.5-0.7c-0.1-0.3-0.2-0.7-0.2-1c0-0.4,0.1-0.8,0.3-1.2
			c0.2-0.3,0.5-0.6,0.9-0.8c0.4-0.2,0.7-0.4,1.2-0.5c0.4-0.1,0.9-0.2,1.3-0.2c0.8,0,1.5,0.1,2.2,0.3v1.6c-0.6-0.4-1.4-0.6-2.1-0.6
			c-0.2,0-0.5,0-0.7,0.1c-0.2,0-0.4,0.1-0.6,0.2c-0.2,0.1-0.3,0.2-0.5,0.4c-0.1,0.2-0.2,0.4-0.2,0.6c0,0.2,0,0.4,0.1,0.6
			c0.1,0.2,0.2,0.3,0.4,0.4c0.2,0.1,0.4,0.3,0.6,0.4l0.9,0.4c0.3,0.2,0.7,0.4,1,0.6c0.3,0.2,0.6,0.4,0.8,0.7
			c0.2,0.2,0.4,0.5,0.5,0.8c0.1,0.3,0.2,0.7,0.2,1c0,0.4-0.1,0.9-0.3,1.3c-0.2,0.3-0.5,0.6-0.8,0.8c-0.4,0.2-0.8,0.4-1.2,0.5
			c-0.5,0.1-0.9,0.1-1.4,0.1c-0.2,0-0.4,0-0.6,0s-0.5-0.1-0.7-0.1c-0.2,0-0.5-0.1-0.7-0.2C611.4,104.9,611.2,104.8,611,104.7z"/>
		<path d="M620.7,105.1H619v-9.8h1.7V105.1z"/>
		<path d="M629.4,96.7h-2.8v8.4h-1.6v-8.4h-2.8v-1.4h7.2L629.4,96.7L629.4,96.7z"/>
		<path d="M636.3,105.1h-5.5v-9.8h5.3v1.4h-3.6v2.8h3.3v1.3h-3.3v2.9h3.9L636.3,105.1L636.3,105.1z"/>
		<path d="M584.2,122c-1.3,0.1-2.5-0.4-3.4-1.4c-0.9-1-1.3-2.3-1.3-3.6c-0.1-1.4,0.4-2.7,1.3-3.8c0.9-1,2.2-1.5,3.5-1.4
			c1.2-0.1,2.5,0.4,3.3,1.4c0.9,1,1.3,2.3,1.3,3.6c0.1,1.4-0.4,2.7-1.3,3.8C586.7,121.6,585.5,122.1,584.2,122z M584.2,113.3
			c-0.8,0-1.6,0.3-2.2,1c-1.1,1.6-1.1,3.7,0,5.3c0.5,0.7,1.3,1,2.1,1c0.8,0,1.7-0.3,2.2-0.9c0.6-0.8,0.9-1.7,0.8-2.7
			c0.1-1-0.2-1.9-0.8-2.7C585.9,113.6,585.1,113.3,584.2,113.3L584.2,113.3z"/>
		<path d="M598.2,121.8h-1.9l-1.6-2.6c-0.1-0.2-0.3-0.4-0.4-0.6c-0.1-0.2-0.3-0.3-0.4-0.4c-0.1-0.1-0.3-0.2-0.5-0.2
			c-0.2-0.1-0.4-0.1-0.5-0.1h-0.7v4h-1.6v-9.8h3.2c0.4,0,0.8,0,1.3,0.2c0.4,0.1,0.7,0.3,1,0.5c0.3,0.2,0.5,0.5,0.7,0.8
			c0.2,0.4,0.2,0.8,0.2,1.2c0,0.3,0,0.6-0.2,0.9c-0.1,0.3-0.2,0.5-0.4,0.8c-0.2,0.2-0.4,0.4-0.7,0.6c-0.3,0.2-0.6,0.3-0.9,0.4l0,0
			c0.2,0.1,0.3,0.2,0.5,0.3l0.4,0.4c0.1,0.1,0.2,0.3,0.3,0.4l0.4,0.6L598.2,121.8z M592.3,113.4v3.2h1.3c0.2,0,0.5,0,0.7-0.1
			c0.2-0.1,0.4-0.2,0.5-0.3c0.2-0.1,0.3-0.3,0.4-0.5c0.1-0.2,0.1-0.5,0.1-0.7c0-0.4-0.1-0.8-0.4-1.1c-0.4-0.3-0.8-0.4-1.3-0.4
			L592.3,113.4L592.3,113.4z"/>
		<path d="M548.4,138.2v-1.7c0.2,0.1,0.3,0.3,0.5,0.4c0.2,0.1,0.4,0.2,0.7,0.3c0.2,0.1,0.5,0.1,0.7,0.2c0.2,0,0.4,0.1,0.6,0.1
			c0.5,0,1.1-0.1,1.5-0.3c0.3-0.2,0.5-0.6,0.5-1c0-0.2-0.1-0.4-0.2-0.6c-0.1-0.2-0.3-0.3-0.5-0.5c-0.2-0.2-0.5-0.3-0.7-0.4l-0.9-0.4
			c-0.3-0.2-0.6-0.4-0.9-0.5c-0.3-0.2-0.5-0.4-0.7-0.6c-0.2-0.2-0.4-0.5-0.5-0.8c-0.1-0.3-0.2-0.7-0.2-1c0-0.4,0.1-0.8,0.3-1.2
			c0.2-0.3,0.5-0.6,0.8-0.8c0.4-0.2,0.7-0.4,1.2-0.5c0.4-0.1,0.9-0.2,1.3-0.2c0.8,0,1.5,0.1,2.2,0.3v1.6c-0.6-0.4-1.4-0.6-2.1-0.6
			c-0.2,0-0.5,0-0.7,0.1c-0.2,0-0.4,0.1-0.6,0.2c-0.2,0.1-0.3,0.2-0.5,0.4c-0.1,0.2-0.2,0.4-0.2,0.6c0,0.2,0,0.4,0.1,0.6
			c0.1,0.2,0.2,0.3,0.4,0.4c0.2,0.1,0.4,0.3,0.6,0.4l0.9,0.4c0.3,0.2,0.7,0.4,1,0.6c0.3,0.2,0.6,0.4,0.8,0.6
			c0.2,0.2,0.4,0.5,0.5,0.8c0.1,0.3,0.2,0.7,0.2,1c0,0.4-0.1,0.9-0.3,1.3c-0.2,0.3-0.5,0.6-0.8,0.8c-0.4,0.2-0.8,0.4-1.2,0.5
			c-0.5,0.1-0.9,0.1-1.4,0.1c-0.2,0-0.4,0-0.6,0s-0.5-0.1-0.7-0.1c-0.2,0-0.5-0.1-0.7-0.2C548.7,138.3,548.5,138.2,548.4,138.2z"/>
		<path d="M558.1,138.5h-1.7v-9.8h1.7V138.5z"/>
		<path d="M566.7,130.2h-2.8v8.4h-1.6v-8.4h-2.8v-1.4h7.2L566.7,130.2L566.7,130.2z"/>
		<path d="M573.6,138.5h-5.5v-9.8h5.3v1.4h-3.7v2.8h3.4v1.4h-3.4v2.9h3.9L573.6,138.5L573.6,138.5z"/>
		<path d="M578.8,135.3h-3.7v-1.2h3.7L578.8,135.3L578.8,135.3z"/>
		<path d="M587.2,130.2h-2.8v8.4h-1.6v-8.4h-2.8v-1.4h7.2V130.2z"/>
		<path d="M592.1,138.7c-1.3,0.1-2.5-0.4-3.4-1.4c-0.9-1-1.3-2.3-1.3-3.6c-0.1-1.4,0.4-2.7,1.3-3.8c0.9-1,2.2-1.5,3.5-1.4
			c1.2-0.1,2.5,0.4,3.3,1.4c0.9,1,1.3,2.3,1.3,3.6c0.1,1.4-0.4,2.7-1.3,3.8C594.6,138.2,593.4,138.8,592.1,138.7z M592.2,130
			c-0.8,0-1.6,0.3-2.2,1c-1.1,1.6-1.1,3.7,0,5.3c0.5,0.7,1.3,1,2.1,1c0.8,0,1.7-0.3,2.2-0.9c0.6-0.8,0.9-1.7,0.8-2.7
			c0.1-1-0.2-1.9-0.8-2.7C593.8,130.4,593,130,592.2,130L592.2,130z"/>
		<path d="M602.1,135.3h-3.7v-1.2h3.7L602.1,135.3L602.1,135.3z"/>
		<path d="M603.7,138.2v-1.7c0.2,0.1,0.3,0.3,0.5,0.4c0.2,0.1,0.4,0.2,0.7,0.3c0.2,0.1,0.5,0.1,0.7,0.2c0.2,0,0.4,0.1,0.6,0.1
			c0.5,0,1.1-0.1,1.5-0.3c0.3-0.2,0.5-0.6,0.5-1c0-0.2-0.1-0.4-0.2-0.6c-0.1-0.2-0.3-0.3-0.5-0.5c-0.2-0.2-0.5-0.3-0.7-0.4l-0.9-0.4
			c-0.3-0.2-0.6-0.4-0.9-0.5c-0.3-0.2-0.5-0.4-0.7-0.6c-0.2-0.2-0.4-0.5-0.5-0.8c-0.1-0.3-0.2-0.7-0.2-1c0-0.4,0.1-0.8,0.3-1.2
			c0.2-0.3,0.5-0.6,0.8-0.8c0.4-0.2,0.7-0.4,1.2-0.5c0.4-0.1,0.9-0.2,1.3-0.2c0.8,0,1.5,0.1,2.2,0.3v1.6c-0.6-0.4-1.4-0.6-2.1-0.6
			c-0.2,0-0.5,0-0.7,0.1c-0.2,0-0.4,0.1-0.6,0.2c-0.2,0.1-0.3,0.2-0.5,0.4c-0.1,0.2-0.2,0.4-0.2,0.6c0,0.2,0,0.4,0.1,0.6
			c0.1,0.2,0.2,0.3,0.4,0.4c0.2,0.1,0.4,0.3,0.6,0.4l0.9,0.4c0.3,0.2,0.7,0.4,1,0.6c0.3,0.2,0.6,0.4,0.8,0.6
			c0.2,0.2,0.4,0.5,0.5,0.8c0.1,0.3,0.2,0.7,0.2,1c0,0.4-0.1,0.9-0.3,1.3c-0.2,0.3-0.5,0.6-0.8,0.8c-0.4,0.2-0.8,0.4-1.2,0.5
			c-0.5,0.1-0.9,0.1-1.4,0.1c-0.2,0-0.4,0-0.6,0s-0.5-0.1-0.7-0.1c-0.2,0-0.5-0.1-0.7-0.2C604.1,138.3,603.9,138.2,603.7,138.2z"/>
		<path d="M613.4,138.5h-1.7v-9.8h1.7L613.4,138.5L613.4,138.5z"/>
		<path d="M622.1,130.2h-2.8v8.4h-1.6v-8.4h-2.8v-1.4h7.2L622.1,130.2L622.1,130.2z"/>
		<path d="M629,138.5h-5.5v-9.8h5.3v1.4h-3.6v2.8h3.3v1.4h-3.3v2.9h3.9L629,138.5L629,138.5z"/>
	</g>
</g>
<g id="infographic2--optionA">
	<rect id="_x3C_Rectangle_x3E__1_" x="328" y="63.9" style="fill:#FFFFFF;fill-opacity:0;" width="69" height="80.1"/>
	<g id="content-2">
		<path d="M341.6,120.5h-5.4v-9.8h5.3v1.4h-3.6v2.8h3.4v1.4h-3.4v2.9h3.9L341.6,120.5L341.6,120.5z"/>
		<path d="M350.8,120.5h-1.9l-2-3.6c-0.1-0.1-0.1-0.3-0.2-0.5l0,0l-0.2,0.5l-2.1,3.6h-2l3.2-4.9l-2.9-4.8h2l1.8,3.3
			c0.1,0.2,0.2,0.4,0.3,0.7l0,0c0.1-0.3,0.2-0.5,0.3-0.7l1.8-3.3h1.8l-3,4.8L350.8,120.5z"/>
		<path d="M353.7,116.9v3.5h-1.6v-9.8h3c0.9-0.1,1.9,0.2,2.6,0.8c0.6,0.6,1,1.4,0.9,2.2c0,0.9-0.3,1.7-1,2.3c-0.7,0.6-1.7,1-2.6,0.9
			L353.7,116.9L353.7,116.9z M353.7,112v3.6h1c0.6,0,1.1-0.1,1.6-0.5c0.4-0.4,0.6-0.8,0.5-1.4c0-1.1-0.7-1.7-2-1.7L353.7,112
			L353.7,112z"/>
		<path d="M367.8,120.5h-1.9l-1.6-2.6c-0.1-0.2-0.3-0.4-0.4-0.6c-0.1-0.2-0.3-0.3-0.4-0.4c-0.1-0.1-0.3-0.2-0.5-0.2
			c-0.2-0.1-0.4-0.1-0.5-0.1h-0.6v4h-1.6v-9.8h3.2c0.4,0,0.8,0,1.3,0.2c0.4,0.1,0.7,0.3,1,0.5c0.3,0.2,0.5,0.5,0.7,0.8
			c0.2,0.4,0.2,0.8,0.2,1.2c0,0.3,0,0.6-0.1,0.9c-0.1,0.3-0.2,0.5-0.4,0.8c-0.2,0.2-0.4,0.4-0.7,0.6c-0.3,0.2-0.6,0.3-0.9,0.4l0,0
			c0.2,0.1,0.3,0.2,0.5,0.3l0.4,0.4c0.1,0.1,0.2,0.3,0.4,0.4l0.4,0.6L367.8,120.5z M361.9,112v3.2h1.3c0.2,0,0.5,0,0.7-0.1
			c0.2-0.1,0.4-0.2,0.5-0.3c0.2-0.1,0.3-0.3,0.4-0.5c0.1-0.2,0.1-0.5,0.1-0.7c0-0.4-0.1-0.8-0.4-1.1c-0.4-0.3-0.8-0.4-1.3-0.4
			L361.9,112L361.9,112z"/>
		<path d="M374.4,120.5h-5.5v-9.8h5.2v1.4h-3.6v2.8h3.4v1.4h-3.4v2.9h3.9L374.4,120.5L374.4,120.5z"/>
		<path d="M375.7,120.1v-1.7c0.2,0.1,0.3,0.3,0.5,0.4c0.2,0.1,0.4,0.2,0.7,0.3c0.2,0.1,0.5,0.1,0.7,0.2c0.2,0,0.4,0.1,0.6,0.1
			c0.5,0,1.1-0.1,1.5-0.3c0.3-0.2,0.5-0.6,0.5-1c0-0.2-0.1-0.4-0.2-0.6c-0.1-0.2-0.3-0.3-0.5-0.5c-0.2-0.2-0.5-0.3-0.7-0.4l-0.9-0.4
			c-0.3-0.2-0.6-0.4-0.9-0.5c-0.3-0.2-0.5-0.4-0.7-0.6c-0.2-0.2-0.4-0.5-0.5-0.8c-0.1-0.3-0.2-0.7-0.2-1c0-0.4,0.1-0.8,0.3-1.2
			c0.2-0.3,0.5-0.6,0.8-0.8c0.4-0.2,0.7-0.4,1.1-0.5c0.4-0.1,0.9-0.2,1.3-0.2c0.8,0,1.5,0.1,2.2,0.3v1.6c-0.6-0.4-1.4-0.6-2.1-0.6
			c-0.2,0-0.5,0-0.7,0.1c-0.2,0-0.4,0.1-0.6,0.2c-0.2,0.1-0.3,0.2-0.5,0.4c-0.1,0.2-0.2,0.4-0.2,0.6c0,0.2,0,0.4,0.1,0.6
			c0.1,0.2,0.2,0.3,0.4,0.4c0.2,0.1,0.4,0.3,0.6,0.4l0.9,0.4c0.3,0.2,0.7,0.4,1,0.6c0.3,0.2,0.6,0.4,0.8,0.7
			c0.2,0.2,0.4,0.5,0.5,0.8c0.1,0.3,0.2,0.7,0.2,1c0,0.4-0.1,0.9-0.3,1.3c-0.2,0.3-0.5,0.6-0.8,0.8c-0.4,0.2-0.8,0.4-1.2,0.5
			c-0.5,0.1-0.9,0.1-1.4,0.1c-0.2,0-0.4,0-0.6,0c-0.2,0-0.5-0.1-0.7-0.1c-0.2,0-0.5-0.1-0.7-0.2C376,120.2,375.8,120.2,375.7,120.1z
			"/>
		<path d="M383.3,120.1v-1.7c0.2,0.1,0.3,0.3,0.5,0.4c0.2,0.1,0.4,0.2,0.7,0.3c0.2,0.1,0.5,0.1,0.7,0.2c0.2,0,0.4,0.1,0.6,0.1
			c0.5,0,1.1-0.1,1.5-0.3c0.3-0.2,0.5-0.6,0.5-1c0-0.2-0.1-0.4-0.2-0.6c-0.1-0.2-0.3-0.4-0.5-0.5c-0.2-0.2-0.5-0.3-0.7-0.4l-0.9-0.4
			c-0.3-0.2-0.6-0.4-0.9-0.5c-0.3-0.2-0.5-0.4-0.7-0.6c-0.2-0.2-0.4-0.5-0.5-0.8c-0.1-0.3-0.2-0.7-0.2-1c0-0.4,0.1-0.8,0.3-1.2
			c0.2-0.3,0.5-0.6,0.8-0.8c0.4-0.2,0.7-0.4,1.1-0.5c0.4-0.1,0.9-0.2,1.3-0.2c0.8,0,1.5,0.1,2.2,0.3v1.6c-0.6-0.4-1.4-0.6-2.1-0.6
			c-0.2,0-0.5,0-0.7,0.1c-0.2,0-0.4,0.1-0.6,0.2c-0.2,0.1-0.3,0.2-0.5,0.4c-0.1,0.2-0.2,0.4-0.2,0.6c0,0.2,0,0.4,0.1,0.6
			c0.1,0.2,0.2,0.3,0.4,0.4c0.2,0.1,0.4,0.3,0.6,0.4l0.9,0.4c0.3,0.2,0.7,0.4,1,0.6c0.3,0.2,0.6,0.4,0.8,0.7
			c0.2,0.2,0.4,0.5,0.5,0.8c0.1,0.3,0.2,0.7,0.2,1c0,0.4-0.1,0.9-0.3,1.3c-0.2,0.3-0.5,0.6-0.8,0.8c-0.4,0.2-0.8,0.4-1.2,0.5
			c-0.5,0.1-0.9,0.1-1.4,0.1c-0.2,0-0.4,0-0.6,0c-0.2,0-0.5-0.1-0.7-0.1c-0.2,0-0.5-0.1-0.7-0.2
			C383.6,120.2,383.4,120.2,383.3,120.1z"/>
		<path d="M349.4,137.2h-1.9l-1.6-2.6c-0.1-0.2-0.3-0.4-0.4-0.6c-0.1-0.2-0.3-0.3-0.4-0.4c-0.1-0.1-0.3-0.2-0.5-0.2
			c-0.2-0.1-0.4-0.1-0.5-0.1h-0.6v4h-1.6v-9.8h3.2c0.4,0,0.8,0,1.3,0.2c0.4,0.1,0.7,0.3,1,0.5c0.3,0.2,0.5,0.5,0.7,0.8
			c0.2,0.4,0.2,0.8,0.2,1.1c0,0.3,0,0.6-0.1,0.9c-0.1,0.3-0.2,0.5-0.4,0.8c-0.2,0.2-0.4,0.4-0.7,0.6c-0.3,0.2-0.6,0.3-0.9,0.4l0,0
			c0.2,0.1,0.3,0.2,0.5,0.3l0.4,0.4c0.1,0.1,0.2,0.3,0.4,0.4l0.4,0.6L349.4,137.2z M343.4,128.7v3.2h1.4c0.2,0,0.5,0,0.7-0.1
			c0.2-0.1,0.4-0.2,0.5-0.3c0.2-0.1,0.3-0.3,0.4-0.5c0.1-0.2,0.1-0.5,0.1-0.7c0-0.4-0.1-0.8-0.4-1.1c-0.4-0.3-0.8-0.4-1.3-0.4
			L343.4,128.7L343.4,128.7z"/>
		<path d="M354.4,137.3c-1.3,0.1-2.5-0.4-3.4-1.4c-0.9-1-1.3-2.3-1.3-3.6c-0.1-1.4,0.4-2.7,1.3-3.8c0.9-1,2.2-1.5,3.5-1.4
			c1.2-0.1,2.5,0.4,3.3,1.4c0.9,1,1.3,2.3,1.3,3.6c0.1,1.4-0.4,2.7-1.3,3.8C356.9,136.9,355.7,137.4,354.4,137.3z M354.5,128.7
			c-0.8,0-1.6,0.3-2.2,1c-1.1,1.6-1.1,3.7,0,5.3c0.5,0.7,1.3,1,2.1,1c0.8,0,1.7-0.3,2.2-0.9c0.6-0.8,0.9-1.7,0.8-2.7
			c0.1-1-0.2-1.9-0.8-2.7C356.1,129,355.3,128.6,354.5,128.7z"/>
		<path d="M368.4,133.2c0,2.7-1.3,4.1-3.9,4.1c-2.5,0-3.7-1.3-3.7-4v-6h1.6v5.6c0,1.9,0.7,2.9,2.2,2.9c1.5,0,2.2-0.9,2.1-2.8v-5.7
			h1.6L368.4,133.2L368.4,133.2z"/>
		<path d="M376.9,128.8h-2.8v8.4h-1.6v-8.4h-2.8v-1.4h7.2L376.9,128.8L376.9,128.8z"/>
		<path d="M383.8,137.2h-5.5v-9.8h5.3v1.4H380v2.8h3.4v1.4H380v2.9h3.9L383.8,137.2L383.8,137.2z"/>
		<path d="M382.2,87.4c-0.8,0-1.6,0.2-2.4,0.5l-12.1-12.1c1.3-2.8,0.1-6.2-2.7-7.5s-6.2-0.1-7.5,2.7c-0.7,1.5-0.7,3.3,0,4.8
			L345.3,88c-2.8-1.3-6.2-0.1-7.5,2.7s-0.1,6.2,2.7,7.5c2.8,1.3,6.2,0.1,7.5-2.7c0.1-0.1,0.1-0.3,0.2-0.4h28.6
			c1.1,2.9,4.4,4.4,7.3,3.3s4.4-4.4,3.3-7.3C386.6,88.8,384.5,87.4,382.2,87.4L382.2,87.4z M342.9,95c-1,0-1.9-0.8-1.9-1.9
			s0.8-1.9,1.9-1.9s1.9,0.8,1.9,1.9c0,0,0,0,0,0C344.8,94.1,343.9,95,342.9,95L342.9,95z M362.6,71.6c1,0,1.9,0.8,1.9,1.9
			c0,1-0.8,1.9-1.9,1.9s-1.9-0.8-1.9-1.9c0,0,0,0,0,0C360.7,72.4,361.5,71.6,362.6,71.6L362.6,71.6z M376.8,91.2h-28.6
			c-0.1-0.2-0.1-0.3-0.2-0.4l12.2-12.1c1.5,0.7,3.3,0.7,4.8,0L377,90.7C376.9,90.8,376.8,91,376.8,91.2L376.8,91.2L376.8,91.2z
			 M382.2,94.9c-1,0-1.9-0.8-1.9-1.9s0.8-1.9,1.9-1.9S384,92,384,93c0,0,0,0,0,0C384,94.1,383.2,94.9,382.2,94.9L382.2,94.9z"/>
	</g>
</g>
<g id="infographic2--optionB">
	<rect id="_x3C_Rectangle_x3E__3_" x="418.2" y="14.6" style="fill:#FFFFFF;fill-opacity:0;" width="105.8" height="69.8"/>
	<g id="content-3">
		<path d="M444.2,67.7h-5.5V58h5.3v1.4h-3.6v2.8h3.4v1.4h-3.4v2.9h3.9C444.2,66.4,444.2,67.7,444.2,67.7z"/>
		<path d="M454.2,67.7h-1.8l-4.7-7.2c-0.1-0.2-0.2-0.4-0.3-0.6l0,0c0,0.4,0.1,0.9,0,1.3v6.4h-1.6V58h1.9l4.5,7
			c0.2,0.3,0.3,0.5,0.4,0.6l0,0c-0.1-0.4-0.1-0.9-0.1-1.3V58h1.6V67.7z"/>
		<path d="M456.6,67.7V58h2.8c3.6,0,5.4,1.6,5.4,4.8c0.1,1.4-0.5,2.7-1.5,3.6c-1.1,1-2.5,1.4-4,1.4H456.6L456.6,67.7z M458.2,59.3v7
			h1.3c1,0.1,1.9-0.3,2.7-0.9c0.7-0.7,1-1.7,1-2.7c0-2.3-1.2-3.4-3.5-3.4L458.2,59.3L458.2,59.3z"/>
		<path d="M477.9,63.8c0,2.7-1.3,4.1-3.9,4.1c-2.5,0-3.7-1.3-3.7-4v-6h1.6v5.6c0,1.9,0.7,2.9,2.2,2.9c1.5,0,2.2-0.9,2.1-2.8V58h1.6
			L477.9,63.8L477.9,63.8z"/>
		<path d="M479.7,67.3v-1.7c0.2,0.1,0.3,0.3,0.5,0.4c0.2,0.1,0.4,0.2,0.7,0.3c0.2,0.1,0.5,0.1,0.7,0.2c0.2,0,0.4,0.1,0.6,0.1
			c0.5,0,1.1-0.1,1.5-0.3c0.3-0.2,0.5-0.6,0.5-1c0-0.2-0.1-0.4-0.2-0.6c-0.1-0.2-0.3-0.3-0.5-0.5c-0.2-0.2-0.5-0.3-0.7-0.4l-0.9-0.4
			c-0.3-0.2-0.6-0.4-0.9-0.5c-0.3-0.2-0.5-0.4-0.7-0.6c-0.2-0.2-0.4-0.5-0.5-0.8c-0.1-0.3-0.2-0.7-0.2-1c0-0.4,0.1-0.8,0.3-1.2
			c0.2-0.3,0.5-0.6,0.8-0.8c0.4-0.2,0.7-0.4,1.1-0.5c0.4-0.1,0.9-0.2,1.3-0.2c0.8,0,1.5,0.1,2.2,0.3v1.6c-0.6-0.4-1.4-0.6-2.1-0.6
			c-0.2,0-0.5,0-0.7,0.1c-0.2,0-0.4,0.1-0.6,0.2c-0.2,0.1-0.3,0.2-0.5,0.4c-0.1,0.2-0.2,0.4-0.2,0.6c0,0.2,0,0.4,0.1,0.6
			c0.1,0.2,0.2,0.3,0.4,0.4c0.2,0.1,0.4,0.3,0.6,0.4l0.9,0.4c0.3,0.2,0.7,0.4,1,0.6c0.3,0.2,0.6,0.4,0.8,0.7
			c0.2,0.2,0.4,0.5,0.5,0.8c0.1,0.3,0.2,0.7,0.2,1c0,0.4-0.1,0.9-0.3,1.3c-0.2,0.3-0.5,0.6-0.8,0.8c-0.4,0.2-0.8,0.4-1.2,0.5
			c-0.5,0.1-0.9,0.1-1.4,0.1c-0.2,0-0.4,0-0.6,0c-0.2,0-0.5-0.1-0.7-0.1c-0.2,0-0.5-0.1-0.7-0.2C480.1,67.5,479.9,67.4,479.7,67.3z"
			/>
		<path d="M493.2,67.7h-5.5V58h5.3v1.4h-3.6v2.8h3.4v1.4h-3.4v2.9h3.9C493.2,66.4,493.2,67.7,493.2,67.7z"/>
		<path d="M502.5,67.7h-1.9l-1.6-2.6c-0.1-0.2-0.3-0.4-0.4-0.6c-0.1-0.2-0.3-0.3-0.4-0.4c-0.1-0.1-0.3-0.2-0.5-0.2
			c-0.2-0.1-0.4-0.1-0.5-0.1h-0.6v4H495V58h3.2c0.4,0,0.8,0,1.3,0.2c0.4,0.1,0.7,0.3,1,0.5c0.3,0.2,0.5,0.5,0.7,0.8
			c0.2,0.4,0.2,0.8,0.2,1.2c0,0.3,0,0.6-0.1,1c-0.1,0.3-0.2,0.5-0.4,0.8c-0.2,0.2-0.4,0.4-0.7,0.6c-0.3,0.2-0.6,0.3-0.9,0.4l0,0
			c0.2,0.1,0.3,0.2,0.5,0.3L500,64c0.1,0.1,0.2,0.3,0.4,0.4l0.4,0.6L502.5,67.7z M496.6,59.3v3.2h1.4c0.2,0,0.5,0,0.7-0.1
			c0.2-0.1,0.4-0.2,0.5-0.3c0.2-0.1,0.3-0.3,0.4-0.5c0.1-0.2,0.1-0.5,0.1-0.7c0-0.4-0.1-0.8-0.4-1.1c-0.4-0.3-0.8-0.4-1.3-0.4
			L496.6,59.3L496.6,59.3z"/>
		<path d="M503.2,67.3v-1.7c0.2,0.1,0.3,0.3,0.5,0.4c0.2,0.1,0.4,0.2,0.7,0.3c0.2,0.1,0.5,0.1,0.7,0.2c0.2,0,0.4,0.1,0.6,0.1
			c0.5,0,1.1-0.1,1.5-0.3c0.3-0.2,0.5-0.6,0.5-1c0-0.2-0.1-0.4-0.2-0.6c-0.1-0.2-0.3-0.3-0.5-0.5c-0.2-0.2-0.5-0.3-0.7-0.4l-0.9-0.4
			c-0.3-0.2-0.6-0.4-0.9-0.5c-0.3-0.2-0.5-0.4-0.7-0.6c-0.2-0.2-0.4-0.5-0.5-0.8c-0.1-0.3-0.2-0.7-0.2-1c0-0.4,0.1-0.8,0.3-1.2
			c0.2-0.3,0.5-0.6,0.8-0.8c0.4-0.2,0.7-0.4,1.1-0.5c0.4-0.1,0.9-0.2,1.3-0.2c0.8,0,1.5,0.1,2.2,0.3v1.6c-0.6-0.4-1.4-0.6-2.1-0.6
			c-0.2,0-0.5,0-0.7,0.1c-0.2,0-0.4,0.1-0.6,0.2c-0.2,0.1-0.3,0.2-0.5,0.4c-0.1,0.2-0.2,0.4-0.2,0.6c0,0.2,0,0.4,0.1,0.6
			c0.1,0.2,0.2,0.3,0.4,0.4c0.2,0.1,0.4,0.3,0.6,0.4l0.9,0.4c0.3,0.2,0.7,0.4,1,0.6c0.3,0.2,0.6,0.4,0.8,0.7
			c0.2,0.2,0.4,0.5,0.5,0.8c0.1,0.3,0.2,0.7,0.2,1c0,0.4-0.1,0.9-0.3,1.3c-0.2,0.3-0.5,0.6-0.8,0.8c-0.4,0.2-0.8,0.4-1.2,0.5
			c-0.5,0.1-0.9,0.1-1.4,0.1c-0.2,0-0.4,0-0.6,0c-0.2,0-0.5-0.1-0.7-0.1c-0.2,0-0.5-0.1-0.7-0.2C503.5,67.5,503.3,67.4,503.2,67.3z"
			/>
		<path id="section-1" d="M473.3,24.4c-6.4,0-11.6,5.2-11.6,11.6s5.2,11.6,11.6,11.6s11.6-5.2,11.6-11.6c0,0,0,0,0,0
			C484.9,29.6,479.7,24.4,473.3,24.4z M474.2,40.7h-1.5v-7.5c-0.3,0.2-0.6,0.4-0.9,0.5c-0.3,0.1-0.7,0.3-1,0.3v-1.2l0.7-0.3
			c0.2-0.1,0.5-0.2,0.7-0.3c0.2-0.1,0.4-0.2,0.7-0.4c0.2-0.1,0.5-0.3,0.7-0.5h0.6V40.7z"/>
	</g>
</g>
<line style="stroke:#686868;stroke-width:3;stroke-linecap:round;stroke-linejoin:round;stroke-miterlimit:10;" x1="473.2" y1="78.5" x2="473.2" y2="171.8"/>
<g>
	
		<line style="stroke:#686868;stroke-width:3;stroke-linecap:round;stroke-linejoin:round;stroke-miterlimit:10;" x1="473.2" y1="241.9" x2="473.2" y2="348.3"/>
	
		<polyline style="fill:none;stroke:#686868;stroke-width:3;stroke-linecap:round;stroke-linejoin:round;stroke-miterlimit:10;" points="
		466.5,342.4 473.1,349 479.8,342.3 	"/>
</g>
<path style="fill:none;stroke:#FFFFFF;stroke-width:3;stroke-linecap:round;stroke-linejoin:round;" d="M465,239
	c5.3,2.3,11.3,2.3,16.6,0"/>
<path style="fill:none;stroke:#FFFFFF;stroke-width:3;stroke-linecap:round;stroke-linejoin:round;" d="M481.7,174.1
	c-5.3-2.3-11.3-2.3-16.6,0"/>
</svg>
