<svg id="Layer_1" xmlns="http://www.w3.org/2000/svg" width="157" height="329" viewBox="0 0 157 329"><path fill-opacity="0" d="M30.6 225h94.8v104.2H30.6z"/><g fill="#010101"><path d="M59.9 293c-.3 0-.5-.1-.7-.3-.2-.2-.3-.4-.3-.6 0-.3.1-.5.3-.7.2-.2.4-.3.7-.3s.5.1.7.3c.2.2.3.4.3.7 0 .2-.1.5-.3.6-.2.2-.4.3-.7.3zM71.1 292.8h-1.8l-4.7-7.2-.3-.6c0 .2.1.7.1 1.3v6.4h-1.6v-9.8h1.9l4.5 7c.2.3.3.5.4.6 0-.3-.1-.7-.1-1.3v-6.3h1.6v9.9zM78.9 292.8h-5.5V283h5.3v1.4h-3.6v2.8h3.4v1.4h-3.4v2.9H79l-.1 1.3zM87 284.4h-2.8v8.4h-1.6v-8.4h-2.8V283H87v1.4zM88.8 291.2l-1.1 3.4h-1.2l.7-3.4h1.6zM101.5 292.4c-.7.4-1.6.6-2.7.6-1.4 0-2.5-.4-3.4-1.3-.9-.9-1.3-2.1-1.3-3.5 0-1.6.5-2.8 1.4-3.8.9-1 2.2-1.4 3.6-1.4.9 0 1.7.1 2.3.4v1.6c-.7-.4-1.4-.6-2.2-.6-1.1 0-1.9.3-2.6 1-.7.7-1 1.6-1 2.7s.3 1.9.9 2.6c.6.6 1.4 1 2.4 1 .9 0 1.7-.2 2.4-.7v1.4h.2zM110.2 289.3h-2.7v2.7h-1.1v-2.7h-2.7v-1.1h2.7v-2.7h1.1v2.7h2.7v1.1zM119.9 289.3h-2.7v2.7h-1.1v-2.7h-2.7v-1.1h2.7v-2.7h1.1v2.7h2.7v1.1zM124 291.2l-1.1 3.4h-1.2l.7-3.4h1.6zM131.5 289.3v3.5h-1.6V283h3c1.1 0 2 .3 2.6.8s.9 1.3.9 2.2-.3 1.7-1 2.3c-.6.6-1.5.9-2.6.9l-1.3.1zm0-4.9v3.6h1c.7 0 1.2-.2 1.6-.5.4-.3.5-.8.5-1.4 0-1.1-.7-1.7-2-1.7h-1.1zM145.9 292.8h-1.6v-4.2h-4.6v4.2H138V283h1.6v4.1h4.6V283h1.6l.1 9.8zM149.9 289.3v3.5h-1.6V283h3c1.1 0 2 .3 2.6.8s.9 1.3.9 2.2-.3 1.7-1 2.3c-.6.6-1.5.9-2.6.9l-1.3.1zm0-4.9v3.6h1c.7 0 1.2-.2 1.6-.5.4-.3.5-.8.5-1.4 0-1.1-.7-1.7-2-1.7h-1.1zM155.4 291.2l-1.1 3.4h-1.2l.7-3.4h1.6zM61 306v3.5h-1.6v-9.8h3c1.1 0 2 .3 2.6.8s.9 1.3.9 2.2-.3 1.7-1 2.3c-.6.6-1.5.9-2.6.9H61v.1zm0-4.9v3.6h1c.7 0 1.2-.2 1.6-.5.4-.3.5-.8.5-1.4 0-1.1-.7-1.7-2-1.7H61zM73.4 302.6l-3.1 8.1c-.7 1.4-1.6 2.2-2.7 2.2-.3 0-.6 0-.8-.1v-1.3c.2.1.5.1.7.1.6 0 1-.3 1.3-.9l.5-1.1-2.8-7h1.7l1.7 5.1c0 .1.1.2.1.5 0-.1.1-.3.1-.5l1.7-5.1h1.6zM78.2 309.5c-.3.2-.7.2-1.2.2-1.4 0-2-.6-2-1.9v-3.9h-1.2v-1.3H75V301l1.6-.4v2.1h1.7v1.2h-1.7v3.5c0 .4.1.7.2.9.1.2.4.3.7.3s.5-.1.7-.2v1.1zM85.7 309.5h-1.6v-3.8c0-1.4-.5-2.1-1.4-2.1-.5 0-.9.2-1.2.6-.3.4-.5.9-.5 1.5v3.7h-1.6v-10.3H81v4.5c.5-.9 1.3-1.3 2.3-1.3 1.5 0 2.3.9 2.3 2.8l.1 4.4zM90.7 309.7c-1.1 0-1.9-.3-2.6-1-.7-.7-1-1.5-1-2.6 0-1.2.3-2.1 1-2.7.7-.6 1.6-1 2.7-1s1.9.3 2.5 1c.6.6.9 1.5.9 2.7 0 1.1-.3 2-1 2.7-.5.6-1.4.9-2.5.9zm.1-6c-.6 0-1.1.2-1.5.6-.4.4-.5 1-.5 1.8 0 .7.2 1.3.5 1.7.4.4.8.6 1.5.6.6 0 1.1-.2 1.4-.6.3-.4.5-1 .5-1.8s-.2-1.4-.5-1.8c-.3-.3-.8-.5-1.4-.5zM102.2 309.5h-1.6v-3.9c0-1.3-.5-2-1.4-2-.5 0-.9.2-1.2.5-.3.4-.5.8-.5 1.4v4H96v-7h1.6v1.2c.5-.9 1.3-1.3 2.3-1.3.8 0 1.3.2 1.7.7.4.5.6 1.2.6 2.1v4.3zM111 309.7c-1.1 0-1.9-.3-2.6-1-.7-.7-1-1.5-1-2.6 0-1.2.3-2.1 1-2.7.7-.6 1.6-1 2.7-1s1.9.3 2.5 1c.6.6.9 1.5.9 2.7 0 1.1-.3 2-1 2.7-.5.6-1.4.9-2.5.9zm.1-6c-.6 0-1.1.2-1.5.6-.4.4-.5 1-.5 1.8 0 .7.2 1.3.5 1.7.4.4.8.6 1.5.6.6 0 1.1-.2 1.4-.6.3-.4.5-1 .5-1.8s-.2-1.4-.5-1.8c-.3-.3-.8-.5-1.4-.5zM120.3 304.1c-.2-.1-.5-.2-.8-.2-.5 0-.9.2-1.2.6-.3.4-.5 1-.5 1.7v3.3h-1.6v-7h1.6v1.4c.2-.5.4-.9.7-1.1.3-.3.7-.4 1.1-.4.3 0 .5 0 .7.1v1.6zM128.6 306c0 1.2-.3 2.1-.9 2.7-.6.6-1.3 1-2.3 1-.4 0-.8-.1-1.1-.2V308c.3.2.6.3 1 .3 1.1 0 1.6-.8 1.6-2.5v-6h1.6l.1 6.2zM135.9 309.5h-1.5v-1.1c-.5.8-1.2 1.3-2.1 1.3-.7 0-1.2-.2-1.6-.6-.4-.4-.6-.9-.6-1.5 0-1.3.8-2.1 2.3-2.3l2.1-.3c0-1-.5-1.5-1.4-1.5-.8 0-1.6.3-2.2.9V303c.7-.4 1.6-.7 2.5-.7 1.8 0 2.6.9 2.6 2.6l-.1 4.6zm-1.5-3.4l-1.5.2c-.5.1-.8.2-1 .3-.2.2-.3.4-.3.8 0 .3.1.5.3.7.2.2.5.3.8.3.5 0 .9-.2 1.2-.5.3-.3.5-.8.5-1.3v-.5zM143.8 302.6l-2.7 7h-1.7l-2.6-7h1.7l1.5 4.9c.1.4.2.7.2.9 0-.3.1-.6.2-.9l1.6-4.9h1.8zM150 309.5h-1.5v-1.1c-.5.8-1.2 1.3-2.1 1.3-.7 0-1.2-.2-1.6-.6-.4-.4-.6-.9-.6-1.5 0-1.3.8-2.1 2.3-2.3l2.1-.3c0-1-.5-1.5-1.4-1.5-.8 0-1.6.3-2.2.9V303c.7-.4 1.6-.7 2.5-.7 1.8 0 2.6.9 2.6 2.6l-.1 4.6zm-1.5-3.4l-1.5.2c-.5.1-.8.2-1 .3-.2.2-.3.4-.3.8 0 .3.1.5.3.7.2.2.5.3.8.3.5 0 .9-.2 1.2-.5.3-.3.5-.8.5-1.3v-.5z"/><g><path d="M71.5 266.5l-2.7 9.8H67l-1.9-6.8c-.1-.3-.1-.6-.1-1 0 .3-.1.6-.2.9l-1.9 6.8H61l-2.7-9.8h1.8l1.8 7.1c.1.3.1.6.1.9 0-.2.1-.5.2-.9l2-7.1h1.7l1.8 7.2c.1.2.1.5.1.9 0-.2.1-.5.2-.9l1.7-7.2h1.8v.1zM78.4 276.2h-5.5v-9.8h5.3v1.4h-3.6v2.8H78v1.4h-3.4v2.9h3.9l-.1 1.3zM80.1 276.2v-9.8h3.1c.9 0 1.7.2 2.2.6.6.4.8.9.8 1.6 0 .6-.2 1-.5 1.4s-.7.7-1.3.9c.7.1 1.2.3 1.6.7.4.4.6 1 .6 1.6 0 .8-.3 1.5-1 2s-1.5.8-2.5.8h-3v.2zm1.6-8.4v2.8h1c.6 0 1-.1 1.3-.4.3-.3.5-.6.5-1.1 0-.8-.6-1.3-1.7-1.3h-1.1zm0 4v3.1h1.4c.6 0 1.1-.1 1.4-.4.3-.3.5-.7.5-1.2 0-1-.7-1.5-2.1-1.5h-1.2zM100.3 276.2h-1.8l-.9-2.5h-3.8l-.8 2.5h-1.8l3.7-9.8h1.8l3.6 9.8zm-3-3.8l-1.4-3.9c0-.1-.1-.3-.1-.6 0 .3-.1.5-.1.6l-1.3 3.9h2.9zM103.3 272.7v3.5h-1.6v-9.8h3c1.1 0 2 .3 2.6.8s.9 1.3.9 2.2-.3 1.7-1 2.3c-.6.6-1.5.9-2.6.9h-1.3v.1zm0-4.9v3.6h1c.7 0 1.2-.2 1.6-.5.4-.3.5-.8.5-1.4 0-1.1-.7-1.7-2-1.7h-1.1zM111.4 272.7v3.5h-1.6v-9.8h3c1.1 0 2 .3 2.6.8s.9 1.3.9 2.2-.3 1.7-1 2.3c-.6.6-1.5.9-2.6.9h-1.3v.1zm0-4.9v3.6h1c.7 0 1.2-.2 1.6-.5.4-.3.5-.8.5-1.4 0-1.1-.7-1.7-2-1.7h-1.1z"/></g><g><path d="M36.6 309c-3.7 2.8-8.1 4.2-12.4 4.2-6.2 0-12.3-2.8-16.3-8-6.9-9-5.2-21.8 3.8-28.7 3.7-2.8 8.1-4.2 12.4-4.2 6.2 0 12.3 2.8 16.3 8 6.9 8.9 5.2 21.8-3.8 28.7zm6.3-30.6c-4.6-6.1-11.6-9.2-18.7-9.2-5 0-10 1.6-14.3 4.9-10.3 7.9-12.3 22.7-4.4 33 4.6 6.1 11.6 9.2 18.7 9.2 5 0 10-1.6 14.3-4.9 10.3-7.9 12.2-22.7 4.4-33z"/><path d="M13.5 297c-1.4-1.3-2.5-2.6-3.3-3.9-2 4-2.7 8.1-2.8 11.4.2.3.2.5.4.7 1 1.3 2.2 2.4 3.4 3.4-.2-2.6 0-7 2.3-11.6zM20.6 281.3c-1.8 1.3-3.8 2.9-5.7 4.9-1.1 1.1-2 2.3-2.8 3.4.8 1.3 1.9 2.7 3.2 4.1 1-1.4 2.3-2.9 3.8-4.3 1.9-1.8 3.7-3.2 5.3-4.3-1.2-1.2-2.6-2.5-3.8-3.8zM40.2 280c-.9-1.1-1.9-2.1-2.9-3-3.2-.5-8.1-.4-13.7 2.6 1.3 1.4 2.6 2.7 3.8 3.9 7.5-4.1 12.8-3.5 12.8-3.5z"/><path d="M10.2 293.1c.6-1.1 1.3-2.3 2-3.4-3.2-5.1-3.1-9.3-2.7-11.3-.8.8-1.6 1.7-2.2 2.7-.7 2.6-.7 6.8 2.9 12zM19.3 297.3c-1.5-1.2-2.8-2.4-3.9-3.5-.8 1.1-1.4 2.2-1.9 3.2 1 1 2.2 2.1 3.6 3.2 8.4 6.7 16.8 7.3 21.4 7.3.3 0 1.8-2 2.6-3.2-2.1.3-11 1.5-21.8-7z"/><path d="M10.2 293.1c.9 1.3 2 2.6 3.3 3.9.5-1.1 1.2-2.2 1.9-3.2-1.3-1.4-2.4-2.8-3.2-4.1-.8 1.1-1.5 2.2-2 3.4zM24.5 285.1c7.7 7.1 16.7 13.1 19 14.7l.6-1.8c-2.5-1.8-9-6.9-16.8-14.7-.8.6-1.8 1.2-2.8 1.8zM23.5 279.5c-1.9-2-3.8-4.1-5.7-6.3-.9.3-1.8.7-2.7 1.1 1.4 2.3 3.4 4.7 5.5 7 1-.7 2-1.3 2.9-1.8z"/><path d="M23.7 279.4c-1 .5-2.2 1.3-3.2 2 1.2 1.3 2.5 2.7 3.8 3.9 1-.7 2.3-1.5 3.2-2-1.3-1.2-2.6-2.5-3.8-3.9z"/><path d="M23.3 279.2c-1 .5-1.9 1.2-2.8 1.9 1.2 1.3 3 3 4.3 4.3 1-.7 1.8-1.3 2.7-1.8-1.3-1.3-2.9-3-4.2-4.4zM33.7 290.1c-1.9 1.5-2.3 4.2-.8 6.2 1.5 1.9 4.3 2.3 6.2.8s2.3-4.2.8-6.2c-1.5-1.9-4.3-2.3-6.2-.8zM24.6 301.1c-1.8 1.4-2.1 3.9-.8 5.7 1.4 1.8 3.9 2.1 5.7.8 1.8-1.4 2.1-3.9.8-5.7-1.4-1.8-3.9-2.1-5.7-.8zM9.2 288.1C6.5 290.2 6 294 8 296.8c2.1 2.7 6 3.2 8.7 1.2 2.7-2.1 3.2-5.9 1.2-8.7-2.1-2.7-6-3.2-8.7-1.2z"/></g></g></svg>