<?xml version="1.0" encoding="utf-8"?>
<!-- Generator: Adobe Illustrator 19.2.0, SVG Export Plug-In . SVG Version: 6.00 Build 0)  -->
<svg version="1.1" id="Layer_1" xmlns="http://www.w3.org/2000/svg" xmlns:xlink="http://www.w3.org/1999/xlink" x="0px" y="0px"
	 width="960px" height="193.2px" viewBox="0 0 960 193.2" enable-background="new 0 0 960 193.2" xml:space="preserve">
<g>
	<path fill="#DFDFDE" d="M307.7,169.8c0.7-0.4,1.4-0.8,2.2-1.3l120.4-70.9L307.1,24.9v0.3c-11.9-6.6-25.6-10.4-40.2-10.4
		c-45.8,0-83,37.1-83,83c0,45.8,37.1,83,83,83c14.6,0,28.3-3.8,40.2-10.4v0L307.7,169.8z"/>
	<g>
		<path d="M275.1,139.9h2.4v-2.4h-2.4V139.9L275.1,139.9L275.1,139.9z M275.1,132.8h2.4v-2.1c-0.8,0.5-1.6,0.9-2.4,1.5V132.8
			L275.1,132.8L275.1,132.8z M278.6,146.9h2.4v-2.4h-2.4V146.9L278.6,146.9L278.6,146.9z M278.6,154h2.4v-2.4h-2.4V154L278.6,154
			L278.6,154z M278.6,143.4h2.4v-2.4h-2.4V143.4L278.6,143.4L278.6,143.4z M278.6,150.5h2.4v-2.4h-2.4V150.5L278.6,150.5
			L278.6,150.5z M275.1,146.9h2.4v-2.4h-2.4V146.9L275.1,146.9L275.1,146.9z M275.1,150.5h2.4v-2.4h-2.4V150.5L275.1,150.5
			L275.1,150.5z M271.6,143.4h2.4v-2.4h-2.4V143.4L271.6,143.4L271.6,143.4z M271.6,146.9h2.4v-2.4h-2.4V146.9L271.6,146.9
			L271.6,146.9z M271.6,139.9h2.4v-2.4h-2.4V139.9L271.6,139.9L271.6,139.9z M271.8,136.4h2.1V134h-0.6
			C272.8,134.7,272.3,135.5,271.8,136.4L271.8,136.4z M275.1,152.2c0.7,0.6,1.5,1.1,2.4,1.5v-2.1h-2.4V152.2L275.1,152.2
			L275.1,152.2z M275.1,136.4h2.4V134h-2.4V136.4L275.1,136.4L275.1,136.4z M292.8,150.5h0.6c0.6-0.7,1.1-1.5,1.5-2.4h-2.1V150.5
			L292.8,150.5L292.8,150.5z M289.2,146.9h2.4v-2.4h-2.4V146.9L289.2,146.9L289.2,146.9z M289.2,153.8c0.8-0.5,1.6-0.9,2.4-1.5v-0.6
			h-2.4V153.8L289.2,153.8L289.2,153.8z M289.2,150.5h2.4v-2.4h-2.4V150.5L289.2,150.5L289.2,150.5z M278.6,139.9h2.4v-2.4h-2.4
			V139.9L278.6,139.9L278.6,139.9z M294.5,118.7c-6.8,0-12.3,5.5-12.3,12.3c0,3.6,0,12.3,0,12.3s9.2,0,12.3,0
			c6.8,0,12.3-5.5,12.3-12.3C306.9,124.2,301.3,118.7,294.5,118.7L294.5,118.7z M290.4,136.4h-2.4v-7.1h2.4V136.4L290.4,136.4
			L290.4,136.4z M295.1,136.4h-2.4v-4.7h2.4V136.4L295.1,136.4L295.1,136.4z M299.8,136.4h-2.4V127h2.4V136.4L299.8,136.4
			L299.8,136.4z M292.8,146.9h2.4v-2.4h-2.4V146.9L292.8,146.9L292.8,146.9z M278.6,132.8h2.4v-2.4h-2.4V132.8L278.6,132.8
			L278.6,132.8z M285.7,150.5h2.4v-2.4h-2.4V150.5L285.7,150.5L285.7,150.5z M282.2,150.5h2.4v-2.4h-2.4V150.5L282.2,150.5
			L282.2,150.5z M282.2,146.9h2.4v-2.4h-2.4V146.9L282.2,146.9L282.2,146.9z M285.7,154h2.4v-2.4h-2.4V154L285.7,154L285.7,154z"/>
	</g>
	<g>
		<polygon points="242.4,145.8 246.5,145.8 246.5,149.9 242.4,149.9 242.4,145.8 		"/>
		<polygon points="247.6,142.7 251.7,142.7 251.7,149.8 247.6,149.8 247.6,142.7 		"/>
		<polygon points="252.6,139.7 256.7,139.7 256.7,149.9 252.6,149.9 252.6,139.7 		"/>
		<path d="M253.9,122.1c0-0.1,0-0.3,0-0.4c0-0.1,0-0.5,0-0.5h5c0.4,0,0.7,0.4,0.8,0.8L253.9,122.1L253.9,122.1L253.9,122.1z
			 M239.5,122.1c0-0.4,0.3-0.8,0.7-0.8h2.9c0,0,0,0.4,0,0.5c0,0.1,0,0.2,0,0.4L239.5,122.1L239.5,122.1L239.5,122.1z M240.2,156.1
			c-0.4,0-0.8-0.6-0.8-1.1v-1.8h7c-0.6,0.3-0.8,1-0.8,1.6c0,0.5,0.2,1.3,0.4,1.3H240.2L240.2,156.1L240.2,156.1z M252,156.1
			c0.2,0,0.4-0.7,0.4-1.3c0-0.8-0.2-1.3-0.6-1.6l7.9-0.1v2c0,0.5-0.5,1.1-0.9,1.1L252,156.1L252,156.1L252,156.1L252,156.1z"/>
		<path d="M247.6,155.1c-0.7-0.1-0.9,0.1-0.9-0.5c0-0.5,0.4-0.7,0.9-0.8h3.2c0.5,0.1,0.7,0.3,0.7,0.8s-0.1,0.5-0.4,0.5H247.6
			L247.6,155.1L247.6,155.1z M240.3,152v-28.6h18.5V152H240.3L240.3,152L240.3,152z M246.1,122.3c-0.4,0-0.8,0-0.8-0.5
			s0.3-0.5,0.8-0.5h5.9c0.4,0,0.8,0,0.8,0.5s-0.4,0.5-0.8,0.5H246.1L246.1,122.3L246.1,122.3z M258.9,120.3h-18.7
			c-1,0-1.8,0.9-1.8,2V155c0,1.1,0.8,2.1,1.8,2.1h18.6c1,0,2-1,2-2.1v-32.7C260.8,121.2,259.9,120.3,258.9,120.3L258.9,120.3z"/>
		<path d="M254.4,125.4h-9.8c-1.2,0-3.3,1-3.3,2.2v7.8c0,1.2,2,2.2,3.3,2.2h1.8v3l3-3h4.9c1.2,0,3.3-1,3.3-2.2v-7.8
			C257.7,126.4,255.7,125.4,254.4,125.4L254.4,125.4z"/>
	</g>
</g>
</svg>
