<?xml version="1.0" encoding="utf-8"?>
<!-- Generator: Adobe Illustrator 19.2.0, SVG Export Plug-In . SVG Version: 6.00 Build 0)  -->
<svg version="1.1" id="Layer_1" xmlns="http://www.w3.org/2000/svg" xmlns:xlink="http://www.w3.org/1999/xlink" x="0px" y="0px"
	 width="193px" height="256px" viewBox="0 0 193 256" enable-background="new 0 0 193 256" xml:space="preserve">
<g>
	<path fill="#1EBBEE" d="M22.5,248.7l-1.7,0.6l-1.6-2.1l-3.6,1.2v2.6l-1.7,0.6l0.4-10.4l1.7-0.6L22.5,248.7z M18.3,246l-2.5-3.3
		c-0.1-0.1-0.2-0.3-0.3-0.5l0,0c0,0.3,0.1,0.5,0.1,0.6v4.1L18.3,246z"/>
	<path fill="#1EBBEE" d="M27.8,237.7l-3,8.9l5.1-1.5l0.4,1.3l-7.3,2.1l-0.2-0.7l3-8.8l-4.8,1.3l-0.3-1.3l6.9-2L27.8,237.7z"/>
	<path fill="#1EBBEE" d="M38,240.3c0.7,2.7-0.2,4.3-2.7,4.9c-2.4,0.6-3.9-0.3-4.6-2.9l-1.5-5.8l1.6-0.4l1.4,5.5
		c0.5,1.9,1.4,2.6,2.9,2.2c1.4-0.4,1.8-1.4,1.4-3.2L35,235l1.6-0.4L38,240.3z"/>
	<path fill="#1EBBEE" d="M48.5,242l-1.8,0.4l-2.1-2.2c-0.2-0.2-0.4-0.4-0.5-0.5c-0.2-0.1-0.3-0.2-0.5-0.3s-0.3-0.1-0.5-0.1
		s-0.4,0-0.6,0l-0.6,0.1l0.9,3.9l-1.6,0.3l-2.1-9.5l3.1-0.7c0.4-0.1,0.9-0.1,1.3-0.1c0.4,0,0.8,0.1,1.1,0.3s0.6,0.4,0.8,0.7
		s0.4,0.6,0.5,1.1c0.1,0.3,0.1,0.7,0.1,1s-0.1,0.6-0.3,0.8s-0.3,0.5-0.5,0.7s-0.5,0.4-0.8,0.6l0,0c0.2,0.1,0.4,0.1,0.5,0.2
		c0.2,0.1,0.3,0.2,0.4,0.3s0.3,0.2,0.4,0.3c0.1,0.1,0.3,0.3,0.5,0.5L48.5,242z M40.9,235l0.7,3.1l1.3-0.3c0.2-0.1,0.5-0.1,0.6-0.3
		c0.2-0.1,0.3-0.3,0.5-0.4s0.2-0.4,0.2-0.6c0-0.2,0-0.5,0-0.7c-0.1-0.5-0.3-0.8-0.7-1c-0.3-0.2-0.8-0.2-1.3-0.1L40.9,235z"/>
	<path fill="#1EBBEE" d="M54.9,240.8l-5.4,1l-1.8-9.6l5.2-1l0.3,1.4l-3.6,0.7l0.5,2.7l3.3-0.6l0.3,1.3l-3.3,0.6l0.5,2.8l3.8-0.7
		L54.9,240.8z"/>
	<path fill="#1EBBEE" d="M66.5,229.2l-2.2,10.1l-1.8,0.2l-4.7-9.2l1.8-0.2l3.4,7c0.1,0.2,0.2,0.5,0.3,0.8l0,0c0-0.3,0-0.5,0.1-0.9
		l1.5-7.6L66.5,229.2z"/>
	<path fill="#1EBBEE" d="M70.7,238.6l-1.7,0.2l-1-9.7l1.7-0.2L70.7,238.6z"/>
	<path fill="#1EBBEE" d="M80.6,237.8l-1.9,0.1l-1.7-2.5c-0.2-0.2-0.3-0.4-0.5-0.6c-0.1-0.2-0.3-0.3-0.4-0.4
		c-0.1-0.1-0.3-0.2-0.5-0.2s-0.4,0-0.6,0h-0.7l0.3,3.9l-1.6,0.1l-0.7-9.7l3.2-0.2c0.5,0,0.9,0,1.3,0.1s0.7,0.2,1,0.4
		s0.5,0.5,0.7,0.8s0.3,0.7,0.3,1.1c0,0.3,0,0.7-0.1,1s-0.2,0.6-0.4,0.8c-0.2,0.2-0.4,0.4-0.6,0.6c-0.3,0.2-0.5,0.3-0.9,0.4l0,0
		c0.2,0.1,0.3,0.2,0.5,0.3c0.1,0.1,0.3,0.2,0.4,0.3s0.3,0.3,0.4,0.4c0.1,0.2,0.3,0.3,0.4,0.5L80.6,237.8z M74,229.8l0.2,3.2l1.3-0.1
		c0.2,0,0.5-0.1,0.7-0.2c0.2-0.1,0.4-0.2,0.5-0.4s0.3-0.3,0.3-0.6c0.1-0.2,0.1-0.5,0.1-0.7c0-0.5-0.2-0.8-0.5-1.1
		c-0.3-0.2-0.7-0.3-1.3-0.3L74,229.8z"/>
	<path fill="#1EBBEE" d="M87.2,229.2l-2.8,0.1l0.3,8.4l-1.6,0.1l-0.3-8.4l-2.8,0.1v-1.4l7.2-0.3L87.2,229.2z"/>
	<path fill="#1EBBEE" d="M96.4,233.7c0,2.7-1.4,4.1-4,4c-2.5,0-3.7-1.4-3.7-4l0.1-6h1.6l-0.1,5.6c0,1.9,0.7,2.9,2.2,2.9
		c1.4,0,2.2-0.9,2.2-2.7l0.1-5.7h1.6L96.4,233.7z"/>
	<path fill="#1EBBEE" d="M106.3,238.1l-1.8-0.1l-0.7-2.5l-3.8-0.2l-1,2.4l-1.8-0.1l4.2-9.5l1.8,0.1L106.3,238.1z M103.4,234.2
		l-1.1-4c0-0.1-0.1-0.3-0.1-0.6l0,0c-0.1,0.3-0.1,0.5-0.2,0.6l-1.6,3.8L103.4,234.2z"/>
	<path fill="#1EBBEE" d="M112.9,238.8l-5.4-0.5l0.9-9.7l1.6,0.2l-0.8,8.3l3.8,0.4L112.9,238.8z"/>
	<path fill="#1EBBEE" d="M126.1,240.6l-1.7-0.3l-3.5-7.8c-0.1-0.2-0.2-0.4-0.2-0.6l0,0c0,0.2,0,0.7-0.1,1.3l-0.9,6.3l-1.5-0.2
		l1.4-9.6l1.9,0.3l3.4,7.6c0.1,0.3,0.2,0.5,0.3,0.6l0,0c0-0.3,0-0.7,0.1-1.3l0.9-6.2l1.5,0.2L126.1,240.6z"/>
	<path fill="#1EBBEE" d="M133.8,242l-5.4-1l1.8-9.6l5.2,1l-0.3,1.3l-3.6-0.7l-0.5,2.7l3.3,0.6l-0.3,1.3l-3.3-0.6l-0.5,2.8l3.8,0.7
		L133.8,242z"/>
	<path fill="#1EBBEE" d="M143.4,235.5l-2.7-0.6l-1.8,8.2l-1.6-0.3l1.8-8.2l-2.7-0.6l0.3-1.3l7,1.6L143.4,235.5z"/>
	<path fill="#1EBBEE" d="M157.3,237.7l-5.1,8.7l-1.8-0.5v-7.1c0-0.3,0-0.6,0.1-1l0,0c-0.1,0.3-0.2,0.6-0.4,0.9l-3.6,6.1l-1.8-0.5
		l-0.1-10.1l1.7,0.5l-0.1,7.4c0,0.3,0,0.6-0.1,0.9l0,0c0.1-0.2,0.2-0.5,0.4-0.9l3.8-6.4l1.6,0.4l-0.1,7.4c0,0.3,0,0.5-0.1,0.9l0,0
		c0.1-0.2,0.2-0.5,0.4-0.8l3.5-6.5L157.3,237.7z"/>
	<path fill="#1EBBEE" d="M159.8,248.9c-1.3-0.4-2.3-1.2-2.8-2.3s-0.6-2.4-0.1-3.8c0.5-1.5,1.3-2.6,2.4-3.2s2.4-0.7,3.8-0.3
		c1.3,0.4,2.2,1.2,2.8,2.3c0.5,1.1,0.6,2.4,0.1,3.8c-0.5,1.5-1.3,2.6-2.4,3.2C162.4,249.3,161.2,249.4,159.8,248.9z M162.5,240.7
		c-0.9-0.3-1.6-0.2-2.4,0.3s-1.3,1.2-1.6,2.3c-0.3,1-0.3,1.9,0,2.7s0.9,1.3,1.7,1.6c0.9,0.3,1.7,0.2,2.4-0.2s1.2-1.2,1.6-2.3
		c0.3-1.1,0.4-2,0.1-2.8S163.3,241,162.5,240.7z"/>
	<path fill="#1EBBEE" d="M173.1,253.3l-1.8-0.6l-0.6-3c-0.1-0.3-0.1-0.5-0.2-0.7c-0.1-0.2-0.2-0.4-0.2-0.5s-0.2-0.3-0.3-0.4
		c-0.1-0.1-0.3-0.2-0.5-0.3l-0.6-0.2l-1.3,3.7l-1.5-0.5l3.2-9.2l3,1.1c0.4,0.2,0.8,0.3,1.1,0.6c0.3,0.2,0.6,0.5,0.8,0.8
		s0.3,0.6,0.4,1c0,0.4,0,0.8-0.2,1.2c-0.1,0.3-0.3,0.6-0.5,0.8s-0.4,0.4-0.7,0.6c-0.3,0.1-0.5,0.3-0.8,0.3s-0.6,0.1-1,0l0,0
		c0.1,0.2,0.2,0.3,0.3,0.5s0.2,0.3,0.2,0.5c0.1,0.2,0.1,0.3,0.2,0.5s0.1,0.4,0.2,0.7L173.1,253.3z M170.3,243.3l-1.1,3l1.3,0.4
		c0.2,0.1,0.5,0.1,0.7,0.1s0.4,0,0.6-0.1c0.2-0.1,0.4-0.2,0.5-0.4c0.2-0.2,0.3-0.4,0.4-0.6c0.2-0.4,0.1-0.8-0.1-1.2
		c-0.2-0.3-0.5-0.6-1.1-0.8L170.3,243.3z"/>
	<path fill="#1EBBEE" d="M180.9,256.3l-2-0.8l-1.5-5.4c-0.1-0.2-0.1-0.3-0.1-0.4l0,0l-1.7,4.5l-1.5-0.6l3.5-9.1l1.5,0.6l-1.7,4.3
		l0,0c0.1-0.1,0.2-0.1,0.3-0.2l4.6-2.8l1.8,0.7l-5.3,3L180.9,256.3z"/>
</g>
<g>
	
		<line fill="none" stroke="#DFDFDE" stroke-width="4" stroke-linecap="round" stroke-linejoin="round" stroke-miterlimit="10" x1="12" y1="-60" x2="13" y2="198.9"/>
	
		<circle fill="none" stroke="#DFDFDE" stroke-width="4" stroke-linecap="round" stroke-linejoin="round" stroke-miterlimit="10" cx="13" cy="204.4" r="5"/>
</g>
<circle fill="#1EBBEE" cx="92.4" cy="212" r="11"/>
<g>
	<path fill="#FFFFFF" d="M90,215.9v-1.3c0.6,0.3,1.1,0.6,1.7,0.6c0.6,0,1-0.1,1.4-0.4c0.4-0.3,0.6-0.7,0.6-1.2
		c0-0.4-0.2-0.9-0.6-1.1c-0.3-0.2-0.9-0.4-1.6-0.4c-0.2,0-0.7,0-1.4,0.1l0.3-4.4h4.2v1.2h-3.1l-0.1,2.1c0.2,0,0.6,0,0.8,0
		c0.9,0,1.6,0.2,2.1,0.7c0.4,0.4,0.8,1.1,0.8,1.9c0,0.9-0.3,1.6-0.9,2c-0.6,0.6-1.3,0.8-2.3,0.8C91,216.2,90.3,216.1,90,215.9z"/>
</g>
</svg>
