<?xml version="1.0" encoding="utf-8"?>
<!-- Generator: Adobe Illustrator 18.0.0, SVG Export Plug-In . SVG Version: 6.00 Build 0)  -->
<!DOCTYPE svg PUBLIC "-//W3C//DTD SVG 1.1//EN" "http://www.w3.org/Graphics/SVG/1.1/DTD/svg11.dtd">
<svg version="1.1" id="Layer_1" xmlns="http://www.w3.org/2000/svg" xmlns:xlink="http://www.w3.org/1999/xlink" x="0px" y="0px"
	 width="960px" height="177px" viewBox="0 0 960 177" enable-background="new 0 0 960 177" xml:space="preserve">
<g>
	<path fill="#00BCF2" d="M299.1,161.1c0.7-0.4,1.4-0.8,2.2-1.3l120.4-70.9L298.5,16.1v0.3C286.6,9.8,272.9,6,258.3,6
		c-45.8,0-83,37.1-83,83c0,45.8,37.1,83,83,83c14.6,0,28.3-3.8,40.2-10.4l0,0L299.1,161.1z"/>
	<g>
		<path fill="#FFFFFF" d="M216.6,63.5h-1.8l-0.9-2.5h-3.8l-0.8,2.5h-1.8l3.7-9.8h1.8L216.6,63.5z M213.5,59.7l-1.4-3.9
			c0-0.1-0.1-0.3-0.1-0.6l0,0c0,0.3-0.1,0.5-0.1,0.6l-1.3,3.9H213.5z"/>
		<path fill="#FFFFFF" d="M226.2,63.5h-1.8l-4.7-7.2c-0.1-0.2-0.2-0.4-0.3-0.6l0,0c0,0.2,0.1,0.7,0.1,1.3v6.4h-1.6v-9.8h1.9l4.5,7
			c0.2,0.3,0.3,0.5,0.4,0.6l0,0c0-0.3-0.1-0.7-0.1-1.3v-6.3h1.6L226.2,63.5L226.2,63.5z"/>
		<path fill="#FFFFFF" d="M236.6,63.5h-1.8l-0.9-2.5h-3.8l-0.8,2.5h-1.8l3.7-9.8h1.8L236.6,63.5z M233.5,59.7l-1.4-3.9
			c0-0.1-0.1-0.3-0.1-0.6l0,0c0,0.3-0.1,0.5-0.1,0.6l-1.3,3.9H233.5z"/>
		<path fill="#FFFFFF" d="M243.3,63.5h-5.4v-9.8h1.6v8.4h3.8L243.3,63.5L243.3,63.5z"/>
		<path fill="#FFFFFF" d="M250.6,53.7l-3.2,6.2v3.5h-1.6v-3.5l-3.1-6.2h1.8l1.9,4.2c0,0,0.1,0.2,0.2,0.6l0,0c0-0.1,0.1-0.3,0.2-0.6
			l2-4.2C248.8,53.7,250.6,53.7,250.6,53.7z"/>
		<path fill="#FFFFFF" d="M258.4,55.1h-2.8v8.4H254v-8.4h-2.8v-1.4h7.2V55.1z"/>
		<path fill="#FFFFFF" d="M261.5,63.5h-1.7v-9.8h1.7V63.5z"/>
		<path fill="#FFFFFF" d="M270.7,63.1c-0.7,0.4-1.6,0.6-2.7,0.6c-1.4,0-2.5-0.4-3.4-1.3c-0.9-0.9-1.3-2.1-1.3-3.5
			c0-1.6,0.5-2.8,1.4-3.8s2.2-1.4,3.6-1.4c0.9,0,1.7,0.1,2.3,0.4v1.6c-0.7-0.4-1.4-0.6-2.2-0.6c-1.1,0-1.9,0.3-2.6,1s-1,1.6-1,2.7
			s0.3,1.9,0.9,2.6c0.6,0.6,1.4,1,2.4,1c0.9,0,1.7-0.2,2.4-0.7v1.4H270.7z"/>
		<path fill="#FFFFFF" d="M272.1,63.1v-1.7c0.1,0.1,0.3,0.3,0.5,0.4s0.4,0.2,0.7,0.3c0.2,0.1,0.5,0.1,0.7,0.2c0.2,0,0.4,0.1,0.6,0.1
			c0.7,0,1.2-0.1,1.5-0.3s0.5-0.6,0.5-1c0-0.2-0.1-0.4-0.2-0.6s-0.3-0.3-0.5-0.5s-0.4-0.3-0.7-0.4c-0.3-0.1-0.6-0.3-0.9-0.4
			c-0.3-0.2-0.6-0.4-0.9-0.5c-0.3-0.2-0.5-0.4-0.7-0.6s-0.4-0.5-0.5-0.7s-0.2-0.6-0.2-1c0-0.5,0.1-0.9,0.3-1.2
			c0.2-0.3,0.5-0.6,0.8-0.8s0.7-0.4,1.2-0.5s0.9-0.2,1.3-0.2c1,0,1.8,0.1,2.2,0.3v1.6c-0.6-0.4-1.3-0.6-2.1-0.6
			c-0.2,0-0.5,0-0.7,0.1c-0.2,0-0.5,0.1-0.6,0.2s-0.3,0.2-0.5,0.4s-0.2,0.4-0.2,0.6s0,0.4,0.1,0.6c0.1,0.2,0.2,0.3,0.4,0.4
			c0.2,0.1,0.4,0.3,0.6,0.4c0.3,0.1,0.5,0.3,0.9,0.4c0.3,0.2,0.7,0.4,1,0.6c0.3,0.2,0.6,0.4,0.8,0.6c0.2,0.2,0.4,0.5,0.5,0.8
			s0.2,0.6,0.2,1c0,0.5-0.1,0.9-0.3,1.3c-0.2,0.3-0.5,0.6-0.8,0.8s-0.7,0.4-1.2,0.5c-0.4,0.1-0.9,0.1-1.4,0.1c-0.2,0-0.4,0-0.6,0
			s-0.5-0.1-0.7-0.1s-0.5-0.1-0.7-0.2C272.4,63.2,272.2,63.2,272.1,63.1z"/>
		<path fill="#FFFFFF" d="M292,63.5h-1.8l-0.9-2.5h-3.8l-0.8,2.5h-1.8l3.7-9.8h1.8L292,63.5z M288.9,59.7l-1.4-3.9
			c0-0.1-0.1-0.3-0.1-0.6l0,0c0,0.3-0.1,0.5-0.1,0.6l-1.3,3.9H288.9z"/>
		<path fill="#FFFFFF" d="M301.6,63.5h-1.8l-4.7-7.2c-0.1-0.2-0.2-0.4-0.3-0.6l0,0c0,0.2,0.1,0.7,0.1,1.3v6.4h-1.6v-9.8h1.9l4.5,7
			c0.2,0.3,0.3,0.5,0.4,0.6l0,0c0-0.3-0.1-0.7-0.1-1.3v-6.3h1.6V63.5z"/>
		<path fill="#FFFFFF" d="M304,63.5v-9.8h2.8c3.6,0,5.4,1.6,5.4,4.8c0,1.5-0.5,2.7-1.5,3.6c-1,0.9-2.3,1.4-4,1.4H304z M305.6,55.1v7
			h1.3c1.1,0,2-0.3,2.7-0.9c0.6-0.6,0.9-1.5,0.9-2.7c0-2.3-1.2-3.4-3.5-3.4L305.6,55.1L305.6,55.1z"/>
		<path fill="#FFFFFF" d="M227.3,80.2h-1.6v-6.3c0-0.5,0-1.1,0.1-1.9l0,0c-0.1,0.4-0.2,0.7-0.3,0.9l-2.9,7.3h-1.1l-2.9-7.2
			c-0.1-0.2-0.2-0.5-0.3-1l0,0c0,0.4,0.1,1,0.1,1.9v6.3h-1.5v-9.8h2.3l2.6,6.5c0.2,0.5,0.3,0.9,0.4,1.1l0,0c0.2-0.5,0.3-0.9,0.4-1.1
			l2.6-6.5h2.2v9.8H227.3z"/>
		<path fill="#FFFFFF" d="M233.7,80.3c-1.4,0-2.5-0.5-3.4-1.4c-0.8-0.9-1.3-2.1-1.3-3.6c0-1.6,0.4-2.8,1.3-3.8
			c0.9-0.9,2-1.4,3.5-1.4c1.4,0,2.5,0.5,3.3,1.4s1.3,2.1,1.3,3.6c0,1.6-0.4,2.8-1.3,3.8C236.3,79.9,235.1,80.3,233.7,80.3z
			 M233.8,71.7c-0.9,0-1.6,0.3-2.2,1c-0.6,0.7-0.8,1.5-0.8,2.6s0.3,2,0.8,2.6c0.5,0.7,1.3,1,2.1,1c0.9,0,1.7-0.3,2.2-0.9
			c0.5-0.6,0.8-1.5,0.8-2.6c0-1.2-0.3-2.1-0.8-2.7C235.4,72.1,234.7,71.7,233.8,71.7z"/>
		<path fill="#FFFFFF" d="M248.5,80.2h-1.8L242,73c-0.1-0.2-0.2-0.4-0.3-0.6l0,0c0,0.2,0.1,0.7,0.1,1.3v6.4h-1.6v-9.8h1.9l4.5,7
			c0.2,0.3,0.3,0.5,0.4,0.6l0,0c0-0.3-0.1-0.7-0.1-1.3v-6.3h1.6L248.5,80.2L248.5,80.2z"/>
		<path fill="#FFFFFF" d="M252.6,80.2h-1.7v-9.8h1.7V80.2z"/>
		<path fill="#FFFFFF" d="M261.2,71.8h-2.8v8.4h-1.6v-8.4H254v-1.4h7.2V71.8z"/>
		<path fill="#FFFFFF" d="M266.1,80.3c-1.4,0-2.5-0.5-3.4-1.4c-0.8-0.9-1.3-2.1-1.3-3.6c0-1.6,0.4-2.8,1.3-3.8
			c0.9-0.9,2-1.4,3.5-1.4c1.4,0,2.5,0.5,3.3,1.4s1.3,2.1,1.3,3.6c0,1.6-0.4,2.8-1.3,3.8C268.7,79.9,267.5,80.3,266.1,80.3z
			 M266.2,71.7c-0.9,0-1.6,0.3-2.2,1s-0.8,1.5-0.8,2.6s0.3,2,0.8,2.6c0.5,0.7,1.3,1,2.1,1c0.9,0,1.7-0.3,2.2-0.9
			c0.5-0.6,0.8-1.5,0.8-2.6c0-1.2-0.3-2.1-0.8-2.7C267.8,72.1,267.1,71.7,266.2,71.7z"/>
		<path fill="#FFFFFF" d="M280.1,80.2h-1.9l-1.6-2.6c-0.1-0.2-0.3-0.4-0.4-0.6s-0.3-0.3-0.4-0.4c-0.1-0.1-0.3-0.2-0.5-0.2
			s-0.3-0.1-0.6-0.1H274v4h-1.6v-9.8h3.2c0.5,0,0.9,0.1,1.3,0.2c0.4,0.1,0.7,0.3,1,0.5s0.5,0.5,0.7,0.8s0.2,0.7,0.2,1.2
			c0,0.3-0.1,0.7-0.2,0.9c-0.1,0.3-0.2,0.5-0.4,0.8c-0.2,0.2-0.4,0.4-0.7,0.6c-0.3,0.2-0.6,0.3-0.9,0.4l0,0c0.2,0.1,0.3,0.2,0.5,0.3
			c0.1,0.1,0.3,0.2,0.4,0.4c0.1,0.1,0.2,0.3,0.3,0.4c0.1,0.2,0.2,0.3,0.4,0.6L280.1,80.2z M274.2,71.7v3.2h1.3c0.2,0,0.5,0,0.7-0.1
			s0.4-0.2,0.5-0.3c0.2-0.1,0.3-0.3,0.4-0.5s0.1-0.4,0.1-0.7c0-0.5-0.1-0.8-0.4-1.1s-0.7-0.4-1.3-0.4L274.2,71.7L274.2,71.7z"/>
		<path fill="#FFFFFF" d="M282.9,80.2h-1.7v-9.8h1.7V80.2z"/>
		<path fill="#FFFFFF" d="M293.6,80.2h-1.8l-4.7-7.2c-0.1-0.2-0.2-0.4-0.3-0.6l0,0c0,0.2,0.1,0.7,0.1,1.3v6.4h-1.6v-9.8h1.9l4.5,7
			c0.2,0.3,0.3,0.5,0.4,0.6l0,0c0-0.3-0.1-0.7-0.1-1.3v-6.3h1.6V80.2z"/>
		<path fill="#FFFFFF" d="M303.6,79.5c-1,0.6-2.1,0.8-3.4,0.8c-1.4,0-2.6-0.4-3.5-1.3c-0.9-0.9-1.3-2.1-1.3-3.6s0.5-2.7,1.5-3.7
			s2.2-1.5,3.7-1.5c1.1,0,2,0.2,2.7,0.5v1.7c-0.7-0.5-1.6-0.7-2.7-0.7c-1,0-1.9,0.3-2.6,1s-1,1.6-1,2.7c0,1.1,0.3,2,0.9,2.6
			s1.3,1,2.3,1c0.7,0,1.3-0.1,1.7-0.4v-2.3H300v-1.4h3.7v4.6L303.6,79.5L303.6,79.5z"/>
		<path fill="#FFFFFF" d="M230.9,96.5v-1.7c0.1,0.1,0.3,0.3,0.5,0.4c0.2,0.1,0.4,0.2,0.7,0.3c0.2,0.1,0.5,0.1,0.7,0.2
			c0.2,0,0.4,0.1,0.6,0.1c0.7,0,1.2-0.1,1.5-0.3s0.5-0.6,0.5-1c0-0.2-0.1-0.4-0.2-0.6c-0.1-0.2-0.3-0.3-0.5-0.5s-0.4-0.3-0.7-0.4
			c-0.3-0.1-0.6-0.3-0.9-0.4c-0.3-0.2-0.6-0.4-0.9-0.5c-0.3-0.2-0.5-0.4-0.7-0.6s-0.4-0.5-0.5-0.7s-0.2-0.6-0.2-1
			c0-0.5,0.1-0.9,0.3-1.2s0.5-0.6,0.8-0.8s0.7-0.4,1.2-0.5s0.9-0.2,1.3-0.2c1,0,1.8,0.1,2.2,0.3V89c-0.6-0.4-1.3-0.6-2.1-0.6
			c-0.2,0-0.5,0-0.7,0.1c-0.2,0-0.5,0.1-0.6,0.2c-0.1,0.1-0.3,0.2-0.5,0.4s-0.2,0.4-0.2,0.6c0,0.2,0,0.4,0.1,0.6s0.2,0.3,0.4,0.4
			c0.2,0.1,0.4,0.3,0.6,0.4c0.3,0.1,0.5,0.3,0.9,0.4c0.3,0.2,0.7,0.4,1,0.6s0.6,0.4,0.8,0.6c0.2,0.2,0.4,0.5,0.5,0.8s0.2,0.6,0.2,1
			c0,0.5-0.1,0.9-0.3,1.3c-0.2,0.3-0.5,0.6-0.8,0.8s-0.7,0.4-1.2,0.5c-0.4,0.1-0.9,0.1-1.4,0.1c-0.2,0-0.4,0-0.6,0
			c-0.2,0-0.5-0.1-0.7-0.1s-0.5-0.1-0.7-0.2C231.2,96.7,231,96.6,230.9,96.5z"/>
		<path fill="#FFFFFF" d="M244.4,96.9h-5.5v-9.8h5.3v1.4h-3.6v2.8h3.4v1.4h-3.4v2.9h3.9L244.4,96.9L244.4,96.9z"/>
		<path fill="#FFFFFF" d="M253.6,96.9h-1.9l-1.6-2.6c-0.1-0.2-0.3-0.4-0.4-0.6c-0.1-0.2-0.3-0.3-0.4-0.4c-0.1-0.1-0.3-0.2-0.5-0.2
			s-0.3-0.1-0.6-0.1h-0.7v4h-1.6v-9.8h3.2c0.5,0,0.9,0.1,1.3,0.2c0.4,0.1,0.7,0.3,1,0.5s0.5,0.5,0.7,0.8s0.2,0.7,0.2,1.2
			c0,0.3-0.1,0.7-0.2,0.9c-0.1,0.3-0.2,0.5-0.4,0.8c-0.2,0.2-0.4,0.4-0.7,0.6c-0.3,0.2-0.6,0.3-0.9,0.4l0,0c0.2,0.1,0.3,0.2,0.5,0.3
			c0.1,0.1,0.3,0.2,0.4,0.4c0.1,0.1,0.2,0.3,0.3,0.4c0.1,0.2,0.2,0.3,0.4,0.6L253.6,96.9z M247.7,88.5v3.2h1.3c0.2,0,0.5,0,0.7-0.1
			s0.4-0.2,0.5-0.3c0.2-0.1,0.3-0.3,0.4-0.5c0.1-0.2,0.1-0.4,0.1-0.7c0-0.5-0.1-0.8-0.4-1.1s-0.7-0.4-1.3-0.4L247.7,88.5L247.7,88.5
			z"/>
		<path fill="#FFFFFF" d="M262.4,87.1l-3.5,9.8h-1.8l-3.4-9.8h1.8l2.4,7.4c0.1,0.2,0.1,0.5,0.2,0.8l0,0c0-0.3,0.1-0.5,0.2-0.8
			l2.5-7.4H262.4z"/>
		<path fill="#FFFFFF" d="M265.4,96.9h-1.7v-9.8h1.7V96.9z"/>
		<path fill="#FFFFFF" d="M274.6,96.5c-0.7,0.4-1.6,0.6-2.7,0.6c-1.4,0-2.5-0.4-3.4-1.3s-1.3-2.1-1.3-3.5c0-1.6,0.5-2.8,1.4-3.8
			s2.2-1.4,3.6-1.4c0.9,0,1.7,0.1,2.3,0.4v1.6c-0.7-0.4-1.4-0.6-2.2-0.6c-1.1,0-1.9,0.3-2.6,1s-1,1.6-1,2.7c0,1.1,0.3,1.9,0.9,2.6
			c0.6,0.6,1.4,1,2.4,1c0.9,0,1.7-0.2,2.4-0.7v1.4H274.6z"/>
		<path fill="#FFFFFF" d="M281.9,96.9h-5.5v-9.8h5.3v1.4H278v2.8h3.4v1.4H278v2.9h3.9V96.9z"/>
		<path fill="#FFFFFF" d="M283.2,96.5v-1.7c0.1,0.1,0.3,0.3,0.5,0.4c0.2,0.1,0.4,0.2,0.7,0.3c0.2,0.1,0.5,0.1,0.7,0.2
			c0.2,0,0.4,0.1,0.6,0.1c0.7,0,1.2-0.1,1.5-0.3s0.5-0.6,0.5-1c0-0.2-0.1-0.4-0.2-0.6c-0.1-0.2-0.3-0.3-0.5-0.5s-0.4-0.3-0.7-0.4
			c-0.3-0.1-0.6-0.3-0.9-0.4c-0.3-0.2-0.6-0.4-0.9-0.5c-0.3-0.2-0.5-0.4-0.7-0.6s-0.4-0.5-0.5-0.7s-0.2-0.6-0.2-1
			c0-0.5,0.1-0.9,0.3-1.2s0.5-0.6,0.8-0.8s0.7-0.4,1.2-0.5s0.9-0.2,1.3-0.2c1,0,1.8,0.1,2.2,0.3V89c-0.6-0.4-1.3-0.6-2.1-0.6
			c-0.2,0-0.5,0-0.7,0.1c-0.2,0-0.5,0.1-0.6,0.2c-0.1,0.1-0.3,0.2-0.5,0.4s-0.2,0.4-0.2,0.6c0,0.2,0,0.4,0.1,0.6s0.2,0.3,0.4,0.4
			c0.2,0.1,0.4,0.3,0.6,0.4c0.3,0.1,0.5,0.3,0.9,0.4c0.3,0.2,0.7,0.4,1,0.6s0.6,0.4,0.8,0.6c0.2,0.2,0.4,0.5,0.5,0.8s0.2,0.6,0.2,1
			c0,0.5-0.1,0.9-0.3,1.3c-0.2,0.3-0.5,0.6-0.8,0.8s-0.7,0.4-1.2,0.5c-0.4,0.1-0.9,0.1-1.4,0.1c-0.2,0-0.4,0-0.6,0s-0.5-0.1-0.7-0.1
			s-0.5-0.1-0.7-0.2C283.5,96.7,283.3,96.6,283.2,96.5z"/>
	</g>
	<circle fill="#FFFFFF" cx="259.7" cy="36.3" r="9.9"/>
	<g>
		<path fill="#00BCF2" d="M257.1,38c0-0.2,0-0.4,0.1-0.7c0.1-0.2,0.1-0.4,0.3-0.6c0.2-0.2,0.3-0.3,0.4-0.5c0.2-0.1,0.4-0.3,0.6-0.3
			c-0.3-0.2-0.6-0.4-0.8-0.7c-0.2-0.3-0.3-0.6-0.3-1c0-0.3,0.1-0.6,0.2-0.8s0.3-0.5,0.5-0.6c0.2-0.2,0.5-0.3,0.7-0.4
			c0.3-0.1,0.6-0.2,0.9-0.2s0.6,0.1,0.9,0.2c0.3,0.1,0.5,0.2,0.7,0.4s0.4,0.4,0.5,0.6c0.1,0.2,0.2,0.5,0.2,0.8c0,0.4-0.1,0.7-0.3,1
			c-0.2,0.3-0.5,0.5-0.8,0.7c0.2,0.1,0.4,0.2,0.6,0.3s0.3,0.3,0.4,0.5s0.2,0.4,0.3,0.6c0.1,0.2,0.1,0.4,0.1,0.7s-0.1,0.7-0.2,0.9
			c-0.1,0.3-0.3,0.5-0.5,0.7s-0.5,0.4-0.8,0.5s-0.7,0.2-1.1,0.2s-0.7-0.1-1-0.2c-0.3-0.1-0.6-0.3-0.8-0.5c-0.2-0.2-0.4-0.4-0.5-0.7
			C257.2,38.7,257.1,38.4,257.1,38z M258.3,37.9c0,0.2,0,0.4,0.1,0.6s0.2,0.3,0.3,0.5c0.1,0.1,0.3,0.2,0.4,0.3
			c0.2,0.1,0.4,0.1,0.6,0.1s0.4,0,0.5-0.1c0.2-0.1,0.3-0.2,0.4-0.3s0.2-0.3,0.3-0.5c0.1-0.2,0.1-0.4,0.1-0.6c0-0.2,0-0.4-0.1-0.6
			s-0.2-0.3-0.3-0.5c-0.1-0.1-0.3-0.2-0.4-0.3c-0.2-0.1-0.4-0.1-0.6-0.1s-0.4,0-0.5,0.1c-0.2,0.1-0.3,0.2-0.4,0.3s-0.2,0.3-0.3,0.5
			C258.4,37.5,258.3,37.7,258.3,37.9z M258.6,34.4c0,0.2,0,0.3,0.1,0.5c0.1,0.1,0.1,0.3,0.2,0.4s0.2,0.2,0.3,0.2
			c0.1,0.1,0.3,0.1,0.4,0.1s0.3,0,0.4-0.1s0.2-0.1,0.3-0.2s0.2-0.2,0.2-0.4s0.1-0.3,0.1-0.4c0-0.2,0-0.3-0.1-0.5
			c-0.1-0.1-0.1-0.3-0.2-0.4c-0.1-0.1-0.2-0.2-0.3-0.2c-0.1-0.1-0.3-0.1-0.4-0.1c-0.2,0-0.3,0-0.4,0.1s-0.2,0.1-0.3,0.2
			c-0.1,0.1-0.2,0.2-0.2,0.4S258.6,34.2,258.6,34.4z"/>
	</g>
	<g>
		<path fill="#FFFFFF" d="M266.5,131.1h2.4v-2.3h-2.4V131.1L266.5,131.1L266.5,131.1z M266.5,124.1h2.4V122
			c-0.8,0.5-1.6,0.9-2.4,1.5V124.1L266.5,124.1L266.5,124.1z M270.1,138.2h2.4v-2.4h-2.4V138.2L270.1,138.2L270.1,138.2z
			 M270.1,145.3h2.4v-2.4h-2.4V145.3L270.1,145.3L270.1,145.3z M270.1,134.7h2.4v-2.4h-2.4V134.7L270.1,134.7L270.1,134.7z
			 M270.1,141.7h2.4v-2.4h-2.4V141.7L270.1,141.7L270.1,141.7z M266.5,138.2h2.4v-2.4h-2.4V138.2L266.5,138.2L266.5,138.2z
			 M266.5,141.7h2.4v-2.4h-2.4V141.7L266.5,141.7L266.5,141.7z M263,134.7h2.4v-2.4H263V134.7L263,134.7L263,134.7z M263,138.2h2.4
			v-2.4H263V138.2L263,138.2L263,138.2z M263,131.1h2.4v-2.3H263V131.1L263,131.1L263,131.1z M263.3,127.6h2.1v-2.4h-0.6
			C264.2,126,263.7,126.8,263.3,127.6L263.3,127.6z M266.5,143.5c0.7,0.6,1.5,1.1,2.4,1.5v-2.1h-2.4V143.5L266.5,143.5L266.5,143.5z
			 M266.5,127.6h2.4v-2.4h-2.4V127.6L266.5,127.6L266.5,127.6z M284.2,141.7h0.6c0.6-0.7,1.1-1.5,1.5-2.4h-2.1V141.7L284.2,141.7
			L284.2,141.7z M280.7,138.2h2.4v-2.4h-2.4V138.2L280.7,138.2L280.7,138.2z M280.7,145c0.8-0.5,1.6-0.9,2.4-1.5v-0.6h-2.4V145
			L280.7,145L280.7,145z M280.7,141.7h2.4v-2.4h-2.4V141.7L280.7,141.7L280.7,141.7z M270.1,131.1h2.4v-2.3h-2.4V131.1L270.1,131.1
			L270.1,131.1z M285.9,110c-6.8,0-12.3,5.5-12.3,12.3c0,3.6,0,12.3,0,12.3s9.2,0,12.3,0c6.8,0,12.3-5.5,12.3-12.3
			C298.3,115.5,292.8,110,285.9,110L285.9,110z M281.8,127.6h-2.4v-7.1h2.4V127.6L281.8,127.6L281.8,127.6z M286.5,127.6h-2.4v-4.7
			h2.4V127.6L286.5,127.6L286.5,127.6z M291.2,127.6h-2.4v-9.4h2.4V127.6L291.2,127.6L291.2,127.6z M284.2,138.2h2.4v-2.4h-2.4
			V138.2L284.2,138.2L284.2,138.2z M270.1,124.1h2.4v-2.4h-2.4V124.1L270.1,124.1L270.1,124.1z M277.1,141.7h2.4v-2.4h-2.4V141.7
			L277.1,141.7L277.1,141.7z M273.6,141.7h2.4v-2.4h-2.4V141.7L273.6,141.7L273.6,141.7z M273.6,138.2h2.4v-2.4h-2.4V138.2
			L273.6,138.2L273.6,138.2z M277.1,145.3h2.4v-2.4h-2.4V145.3L277.1,145.3L277.1,145.3z"/>
	</g>
	<g>
		<polygon fill="#FFFFFF" points="233.8,137.1 237.9,137.1 237.9,141.2 233.8,141.2 		"/>
		<polygon fill="#FFFFFF" points="239,134 243.1,134 243.1,141.1 239,141.1 		"/>
		<polygon fill="#FFFFFF" points="244.1,131 248.2,131 248.2,141.2 244.1,141.2 		"/>
		<path fill="#FFFFFF" d="M245.3,113.4c0-0.1,0-0.3,0-0.4s0-0.5,0-0.5h5c0.4,0,0.7,0.4,0.8,0.8L245.3,113.4L245.3,113.4L245.3,113.4
			z M230.9,113.4c0-0.4,0.3-0.8,0.7-0.8h2.9c0,0,0,0.4,0,0.5s0,0.2,0,0.4L230.9,113.4L230.9,113.4L230.9,113.4z M231.6,147.3
			c-0.4,0-0.8-0.6-0.8-1.1v-1.8h7c-0.6,0.3-0.8,1-0.8,1.6c0,0.5,0.2,1.3,0.4,1.3H231.6L231.6,147.3L231.6,147.3z M243.4,147.3
			c0.2,0,0.4-0.7,0.4-1.3c0-0.8-0.2-1.3-0.6-1.6l7.9-0.1v2c0,0.5-0.5,1.1-0.9,1.1L243.4,147.3L243.4,147.3L243.4,147.3L243.4,147.3z
			"/>
		<path fill="#FFFFFF" d="M239,146.3c-0.7-0.1-0.9,0.1-0.9-0.5c0-0.5,0.4-0.7,0.9-0.8h3.2c0.5,0.1,0.7,0.3,0.7,0.8s-0.1,0.5-0.4,0.5
			H239L239,146.3L239,146.3z M231.7,143.2v-28.6h18.5v28.6H231.7L231.7,143.2L231.7,143.2z M237.5,113.6c-0.4,0-0.8,0-0.8-0.5
			s0.3-0.5,0.8-0.5h5.9c0.4,0,0.8,0,0.8,0.5s-0.4,0.5-0.8,0.5H237.5L237.5,113.6L237.5,113.6z M250.3,111.6h-18.7
			c-1,0-1.8,0.9-1.8,2v32.7c0,1.1,0.8,2.1,1.8,2.1h18.6c1,0,2-1,2-2.1v-32.7C252.2,112.5,251.3,111.6,250.3,111.6L250.3,111.6z"/>
		<path fill="#FFFFFF" d="M245.9,116.6H236c-1.2,0-3.3,1-3.3,2.2v7.8c0,1.2,2,2.2,3.3,2.2h1.8v3l3-3h4.9c1.2,0,3.3-1,3.3-2.2v-7.8
			C249.1,117.7,247.1,116.6,245.9,116.6L245.9,116.6z"/>
	</g>
</g>
</svg>
