<svg id="Layer_1" xmlns="http://www.w3.org/2000/svg" width="129.2" height="329.2" viewBox="0 0 129.2 329.2"><path fill-opacity="0" d="M20 225h94.8v104.2H20z"/><path d="M53.8 324.8v-9.9h2.8c3.6 0 5.4 1.6 5.4 4.8 0 1.5-.5 2.7-1.5 3.6s-2.3 1.4-4 1.4l-2.7.1zm1.6-8.4v7h1.3c1.1 0 2-.3 2.7-.9.6-.6.9-1.5.9-2.7 0-2.3-1.2-3.4-3.5-3.4h-1.4zM72.1 324.8h-1.8l-4.7-7.2-.3-.6c0 .2.1.7.1 1.3v6.4h-1.6v-9.8h1.9l4.5 7c.2.3.3.5.4.6 0-.3-.1-.7-.1-1.3v-6.3h1.6v9.9zM74.1 324.4v-1.7c.1.1.3.3.5.4s.4.2.7.3c.2.1.5.1.7.2.2 0 .4.1.6.1.7 0 1.2-.1 1.5-.3s.5-.6.5-1c0-.2-.1-.4-.2-.6s-.3-.3-.5-.5-.4-.3-.7-.4c-.3-.1-.6-.3-.9-.4-.3-.2-.6-.4-.9-.5-.3-.2-.5-.4-.7-.6s-.4-.5-.5-.7-.2-.6-.2-1c0-.5.1-.9.3-1.2.2-.3.5-.6.8-.8.3-.2.7-.4 1.2-.5s.9-.2 1.3-.2c1 0 1.8.1 2.2.3v1.6c-.6-.4-1.3-.6-2.1-.6-.2 0-.5 0-.7.1-.2 0-.5.1-.6.2s-.3.2-.5.4-.2.4-.2.6 0 .4.1.6.2.3.4.4c.2.1.4.3.6.4.3.1.5.3.9.4.3.2.7.4 1 .6s.6.4.8.6c.2.2.4.5.5.8s.2.6.2 1c0 .5-.1.9-.3 1.3-.2.3-.5.6-.8.8s-.7.4-1.2.5c-.4.1-.9.1-1.4.1h-.6c-.2 0-.5-.1-.7-.1s-.5-.1-.7-.2c-.1-.3-.3-.4-.4-.4z"/><g><path d="M70 287.5c-1.3 0-2.5.8-3 2H47.9c-3.2 0-5.9-2.6-5.9-5.9 0-3.2 2.6-5.9 5.9-5.9h2.7c.1-.7.3-1.3.6-1.9.1-.2.2-.4.4-.7 1.3-2.3 3.8-3.9 6.8-3.9 2.6 0 4.8 1.3 6.3 3.2.8-.4 1.7-.7 2.6-.9-1.8-3-5.1-4.9-8.8-4.9-4.3 0-8.1 2.7-9.6 6.5h-.8c-4.7 0-8.5 3.8-8.5 8.5s3.8 8.5 8.5 8.5h19.1c.5 1.2 1.7 2 3 2 1.8 0 3.3-1.4 3.3-3.3s-1.7-3.3-3.5-3.3z"/><path d="M80.5 281c-1.9-3.8-5.9-6.5-10.5-6.5-5.6 0-10.3 3.9-11.4 9.1-2.7.3-5.1 1.7-6.6 3.8h13.9c.9-1.2 2.4-2 4.1-2 2.9 0 5.2 2.3 5.2 5.2 0 2.9-2.3 5.2-5.2 5.2-1.7 0-3.1-.8-4.1-2H50.4c.6 4.4 4.4 7.8 9 7.8h20.9c5.7 0 10.4-4.7 10.4-10.4.1-5.6-4.5-10.2-10.2-10.2z"/></g></svg>