<?xml version="1.0" encoding="utf-8"?>
<!-- Generator: Adobe Illustrator 19.2.0, SVG Export Plug-In . SVG Version: 6.00 Build 0)  -->
<svg version="1.1" id="Layer_1" xmlns="http://www.w3.org/2000/svg" xmlns:xlink="http://www.w3.org/1999/xlink" x="0px" y="0px"
	 width="105px" height="220px" viewBox="0 0 105 220" style="enable-background:new 0 0 105 220;" xml:space="preserve">
<g>
	<path style="fill:#010101;" d="M9.3,185.2H7.5l-0.9-2.5H2.8L2,185.2H0.2l3.7-9.8h1.8L9.3,185.2z M6.2,181.4l-1.4-3.9
		c0-0.1-0.1-0.3-0.1-0.6l0,0c0,0.3-0.1,0.5-0.1,0.6l-1.4,3.9H6.2z"/>
	<path style="fill:#010101;" d="M18.9,185.2h-1.8l-4.7-7.2c-0.1-0.2-0.2-0.4-0.3-0.6l0,0c0,0.2,0.1,0.7,0.1,1.3v6.4h-1.6v-9.8h1.9
		l4.5,7c0.2,0.3,0.3,0.5,0.4,0.6l0,0c0-0.3-0.1-0.7-0.1-1.3v-6.3h1.6V185.2z"/>
	<path style="fill:#010101;" d="M29.3,185.2h-1.8l-0.9-2.5h-3.8l-0.8,2.5h-1.8l3.7-9.8h1.8L29.3,185.2z M26.3,181.4l-1.4-3.9
		c0-0.1-0.1-0.3-0.1-0.6l0,0c0,0.3-0.1,0.5-0.1,0.6l-1.3,3.9H26.3z"/>
	<path style="fill:#010101;" d="M36.1,185.2h-5.4v-9.8h1.6v8.4h3.8V185.2z"/>
	<path style="fill:#010101;" d="M43.4,175.4l-3.2,6.2v3.5h-1.6v-3.5l-3.1-6.2h1.8l1.9,4.2c0,0,0.1,0.2,0.2,0.6l0,0
		c0-0.1,0.1-0.3,0.2-0.6l2-4.2H43.4z"/>
	<path style="fill:#010101;" d="M51.1,176.8h-2.8v8.4h-1.6v-8.4h-2.8v-1.4h7.2C51.1,175.4,51.1,176.8,51.1,176.8z"/>
	<path style="fill:#010101;" d="M54.2,185.2h-1.7v-9.8h1.7V185.2z"/>
	<path style="fill:#010101;" d="M63.4,184.8c-0.7,0.4-1.6,0.6-2.7,0.6c-1.4,0-2.5-0.4-3.4-1.3c-0.9-0.9-1.3-2.1-1.3-3.5
		c0-1.6,0.5-2.8,1.4-3.8s2.2-1.4,3.6-1.4c0.9,0,1.7,0.1,2.3,0.4v1.6c-0.7-0.4-1.4-0.6-2.2-0.6c-1.1,0-1.9,0.3-2.6,1s-1,1.6-1,2.7
		c0,1.1,0.3,1.9,0.9,2.6c0.6,0.6,1.4,1,2.4,1c0.9,0,1.7-0.2,2.4-0.7v1.4H63.4z"/>
	<path style="fill:#010101;" d="M64.8,184.8v-1.7c0.1,0.1,0.3,0.3,0.5,0.4c0.2,0.1,0.4,0.2,0.7,0.3c0.2,0.1,0.5,0.1,0.7,0.2
		c0.2,0,0.4,0.1,0.6,0.1c0.7,0,1.2-0.1,1.5-0.3s0.5-0.6,0.5-1c0-0.2-0.1-0.4-0.2-0.6s-0.3-0.3-0.5-0.5s-0.4-0.3-0.7-0.4
		c-0.3-0.1-0.6-0.3-0.9-0.4c-0.3-0.2-0.6-0.4-0.9-0.5c-0.3-0.2-0.5-0.4-0.7-0.6s-0.4-0.5-0.5-0.7s-0.2-0.6-0.2-1
		c0-0.5,0.1-0.9,0.3-1.2s0.5-0.6,0.8-0.8s0.7-0.4,1.2-0.5s0.9-0.2,1.3-0.2c1,0,1.8,0.1,2.2,0.3v1.6c-0.6-0.4-1.3-0.6-2.1-0.6
		c-0.2,0-0.5,0-0.7,0.1c-0.2,0-0.5,0.1-0.6,0.2s-0.3,0.2-0.5,0.4s-0.2,0.4-0.2,0.6c0,0.2,0,0.4,0.1,0.6c0.1,0.2,0.2,0.3,0.4,0.4
		c0.2,0.1,0.4,0.3,0.6,0.4c0.3,0.1,0.5,0.3,0.9,0.4c0.3,0.2,0.7,0.4,1,0.6c0.3,0.2,0.6,0.4,0.8,0.6c0.2,0.2,0.4,0.5,0.5,0.8
		s0.2,0.6,0.2,1c0,0.5-0.1,0.9-0.3,1.3c-0.2,0.3-0.5,0.6-0.8,0.8s-0.7,0.4-1.2,0.5c-0.4,0.1-0.9,0.1-1.4,0.1c-0.2,0-0.4,0-0.6,0
		s-0.5-0.1-0.7-0.1s-0.5-0.1-0.7-0.2C65.1,185,64.8,184.9,64.8,184.8z"/>
	<path style="fill:#010101;" d="M84.7,185.2h-1.8l-0.9-2.5h-3.8l-0.8,2.5h-1.8l3.7-9.8H81L84.7,185.2z M81.6,181.4l-1.4-3.9
		c0-0.1-0.1-0.3-0.1-0.6l0,0c0,0.3-0.1,0.5-0.1,0.6l-1.3,3.9H81.6z"/>
	<path style="fill:#010101;" d="M94.3,185.2h-1.8l-4.7-7.2c-0.1-0.2-0.2-0.4-0.3-0.6l0,0c0,0.2,0.1,0.7,0.1,1.3v6.4H86v-9.8h1.9
		l4.5,7c0.2,0.3,0.3,0.5,0.4,0.6l0,0c0-0.3-0.1-0.7-0.1-1.3v-6.3h1.6V185.2z"/>
	<path style="fill:#010101;" d="M96.7,185.2v-9.8h2.8c3.6,0,5.4,1.6,5.4,4.8c0,1.5-0.5,2.7-1.5,3.6c-1,0.9-2.3,1.4-4,1.4H96.7z
		 M98.3,176.8v7h1.3c1.1,0,2-0.3,2.7-0.9c0.6-0.6,0.9-1.5,0.9-2.7c0-2.3-1.2-3.4-3.5-3.4L98.3,176.8L98.3,176.8z"/>
	<path style="fill:#010101;" d="M20,201.9h-1.6v-6.3c0-0.5,0-1.1,0.1-1.9l0,0c-0.1,0.4-0.2,0.7-0.3,0.9l-2.9,7.3h-1.1l-2.9-7.2
		c-0.1-0.2-0.2-0.5-0.3-1l0,0c0,0.4,0.1,1,0.1,1.9v6.3H9.5v-9.8h2.3l2.6,6.5c0.2,0.5,0.3,0.9,0.4,1.1l0,0c0.2-0.5,0.3-0.9,0.4-1.1
		l2.6-6.5H20C20,192.1,20,201.9,20,201.9z"/>
	<path style="fill:#010101;" d="M26.4,202.1c-1.4,0-2.5-0.5-3.4-1.4c-0.8-0.9-1.3-2.1-1.3-3.6c0-1.6,0.4-2.8,1.3-3.8
		c0.9-0.9,2-1.4,3.5-1.4c1.4,0,2.5,0.5,3.3,1.4s1.3,2.1,1.3,3.6c0,1.6-0.4,2.8-1.3,3.8C29,201.6,27.9,202.1,26.4,202.1z M26.5,193.4
		c-0.9,0-1.6,0.3-2.2,1s-0.8,1.5-0.8,2.6s0.3,2,0.8,2.6c0.5,0.7,1.3,1,2.1,1c0.9,0,1.7-0.3,2.2-0.9c0.5-0.6,0.8-1.5,0.8-2.6
		c0-1.2-0.3-2.1-0.8-2.7S27.4,193.4,26.5,193.4z"/>
	<path style="fill:#010101;" d="M41.2,201.9h-1.8l-4.7-7.2c-0.1-0.2-0.2-0.4-0.3-0.6l0,0c0,0.2,0.1,0.7,0.1,1.3v6.4h-1.6V192h1.9
		l4.5,7c0.2,0.3,0.3,0.5,0.4,0.6l0,0c0-0.3-0.1-0.7-0.1-1.3V192h1.6C41.2,192,41.2,201.9,41.2,201.9z"/>
	<path style="fill:#010101;" d="M45.3,201.9h-1.7v-9.8h1.7V201.9z"/>
	<path style="fill:#010101;" d="M53.9,193.5h-2.8v8.4h-1.6v-8.4h-2.8v-1.4h7.2C53.9,192.1,53.9,193.5,53.9,193.5z"/>
	<path style="fill:#010101;" d="M58.8,202.1c-1.4,0-2.5-0.5-3.4-1.4c-0.8-0.9-1.3-2.1-1.3-3.6c0-1.6,0.4-2.8,1.3-3.8
		c0.9-0.9,2-1.4,3.5-1.4c1.4,0,2.5,0.5,3.3,1.4s1.3,2.1,1.3,3.6c0,1.6-0.4,2.8-1.3,3.8C61.4,201.6,60.2,202.1,58.8,202.1z
		 M58.9,193.4c-0.9,0-1.6,0.3-2.2,1c-0.6,0.7-0.8,1.5-0.8,2.6s0.3,2,0.8,2.6c0.5,0.7,1.3,1,2.1,1c0.9,0,1.7-0.3,2.2-0.9
		c0.5-0.6,0.8-1.5,0.8-2.6c0-1.2-0.3-2.1-0.8-2.7S59.8,193.4,58.9,193.4z"/>
	<path style="fill:#010101;" d="M72.8,201.9h-1.9l-1.6-2.6c-0.1-0.2-0.3-0.4-0.4-0.6c-0.1-0.2-0.3-0.3-0.4-0.4
		c-0.1-0.1-0.3-0.2-0.5-0.2s-0.3-0.1-0.6-0.1h-0.7v4h-1.6v-9.8h3.2c0.5,0,0.9,0.1,1.3,0.2c0.4,0.1,0.7,0.3,1,0.5s0.5,0.5,0.7,0.8
		s0.2,0.7,0.2,1.2c0,0.3-0.1,0.7-0.2,0.9c-0.1,0.3-0.2,0.5-0.4,0.8c-0.2,0.2-0.4,0.4-0.7,0.6c-0.3,0.2-0.6,0.3-0.9,0.4l0,0
		c0.2,0.1,0.3,0.2,0.5,0.3c0.1,0.1,0.3,0.2,0.4,0.4c0.1,0.1,0.2,0.3,0.3,0.4c0.1,0.2,0.2,0.3,0.4,0.6L72.8,201.9z M66.8,193.5v3.2
		h1.3c0.2,0,0.5,0,0.7-0.1s0.4-0.2,0.5-0.3c0.2-0.1,0.3-0.3,0.4-0.5s0.1-0.4,0.1-0.7c0-0.5-0.1-0.8-0.4-1.1s-0.7-0.4-1.3-0.4
		L66.8,193.5L66.8,193.5z"/>
	<path style="fill:#010101;" d="M75.7,201.9H74v-9.8h1.7V201.9z"/>
	<path style="fill:#010101;" d="M86.3,201.9h-1.8l-4.7-7.2c-0.1-0.2-0.2-0.4-0.3-0.6l0,0c0,0.2,0.1,0.7,0.1,1.3v6.4H78V192h1.9
		l4.5,7c0.2,0.3,0.3,0.5,0.4,0.6l0,0c0-0.3-0.1-0.7-0.1-1.3V192h1.6V201.9z"/>
	<path style="fill:#010101;" d="M96.3,201.2c-1,0.6-2.1,0.8-3.4,0.8c-1.4,0-2.6-0.4-3.5-1.3c-0.9-0.9-1.3-2.1-1.3-3.6
		s0.5-2.7,1.5-3.7s2.2-1.5,3.7-1.5c1.1,0,2,0.2,2.7,0.5v1.7c-0.7-0.5-1.6-0.7-2.7-0.7c-1,0-1.9,0.3-2.6,1s-1,1.6-1,2.7
		c0,1.1,0.3,2,0.9,2.6s1.3,1,2.3,1c0.7,0,1.3-0.1,1.7-0.4V198h-2.1v-1.4h3.7v4.6L96.3,201.2L96.3,201.2z"/>
	<path style="fill:#010101;" d="M23.6,218.2v-1.7c0.1,0.1,0.3,0.3,0.5,0.4c0.2,0.1,0.4,0.2,0.7,0.3c0.2,0.1,0.5,0.1,0.7,0.2
		c0.2,0,0.4,0.1,0.6,0.1c0.7,0,1.2-0.1,1.5-0.3s0.5-0.6,0.5-1c0-0.2-0.1-0.4-0.2-0.6s-0.3-0.3-0.5-0.5s-0.4-0.3-0.7-0.4
		c-0.3-0.1-0.6-0.3-0.9-0.4c-0.3-0.2-0.6-0.4-0.9-0.5c-0.3-0.2-0.5-0.4-0.7-0.6s-0.4-0.5-0.5-0.7s-0.2-0.6-0.2-1
		c0-0.5,0.1-0.9,0.3-1.2s0.5-0.6,0.8-0.8s0.7-0.4,1.2-0.5s0.9-0.2,1.3-0.2c1,0,1.8,0.1,2.2,0.3v1.6c-0.6-0.4-1.3-0.6-2.1-0.6
		c-0.2,0-0.5,0-0.7,0.1c-0.2,0-0.5,0.1-0.6,0.2s-0.3,0.2-0.5,0.4s-0.2,0.4-0.2,0.6c0,0.2,0,0.4,0.1,0.6c0.1,0.2,0.2,0.3,0.4,0.4
		c0.2,0.1,0.4,0.3,0.6,0.4c0.3,0.1,0.5,0.3,0.9,0.4c0.3,0.2,0.7,0.4,1,0.6c0.3,0.2,0.6,0.4,0.8,0.6c0.2,0.2,0.4,0.5,0.5,0.8
		s0.2,0.6,0.2,1c0,0.5-0.1,0.9-0.3,1.3c-0.2,0.3-0.5,0.6-0.8,0.8s-0.7,0.4-1.2,0.5c-0.4,0.1-0.9,0.1-1.4,0.1c-0.2,0-0.4,0-0.6,0
		s-0.5-0.1-0.7-0.1s-0.5-0.1-0.7-0.2C23.9,218.4,23.7,218.3,23.6,218.2z"/>
	<path style="fill:#010101;" d="M37.1,218.6h-5.5v-9.8h5.3v1.4h-3.7v2.8h3.4v1.4h-3.4v2.9h3.9V218.6z"/>
	<path style="fill:#010101;" d="M46.4,218.6h-1.9l-1.6-2.6c-0.1-0.2-0.3-0.4-0.4-0.6c-0.1-0.2-0.3-0.3-0.4-0.4
		c-0.1-0.1-0.3-0.2-0.5-0.2s-0.3-0.1-0.6-0.1h-0.7v4h-1.6v-9.8h3.2c0.5,0,0.9,0.1,1.3,0.2c0.4,0.1,0.7,0.3,1,0.5s0.5,0.5,0.7,0.8
		s0.2,0.7,0.2,1.2c0,0.3-0.1,0.7-0.2,0.9c-0.1,0.3-0.2,0.5-0.4,0.8c-0.2,0.2-0.4,0.4-0.7,0.6c-0.3,0.2-0.6,0.3-0.9,0.4l0,0
		c0.2,0.1,0.3,0.2,0.5,0.3c0.1,0.1,0.3,0.2,0.4,0.4c0.1,0.1,0.2,0.3,0.3,0.4c0.1,0.2,0.2,0.3,0.4,0.6L46.4,218.6z M40.4,210.2v3.2
		h1.3c0.2,0,0.5,0,0.7-0.1s0.4-0.2,0.5-0.3c0.2-0.1,0.3-0.3,0.4-0.5c0.1-0.2,0.1-0.4,0.1-0.7c0-0.5-0.1-0.8-0.4-1.1
		s-0.7-0.4-1.3-0.4L40.4,210.2L40.4,210.2z"/>
	<path style="fill:#010101;" d="M55.2,208.9l-3.5,9.8h-1.8l-3.4-9.8h1.7l2.4,7.4c0.1,0.2,0.1,0.5,0.2,0.8l0,0c0-0.3,0.1-0.5,0.2-0.8
		l2.5-7.4H55.2z"/>
	<path style="fill:#010101;" d="M58.1,218.6h-1.7v-9.8h1.7V218.6z"/>
	<path style="fill:#010101;" d="M67.3,218.2c-0.7,0.4-1.6,0.6-2.7,0.6c-1.4,0-2.5-0.4-3.4-1.3c-0.9-0.9-1.3-2.1-1.3-3.5
		c0-1.6,0.5-2.8,1.4-3.8c1-1,2.2-1.4,3.6-1.4c0.9,0,1.7,0.1,2.3,0.4v1.6c-0.7-0.4-1.4-0.6-2.2-0.6c-1.1,0-1.9,0.3-2.6,1
		c-0.7,0.7-1,1.6-1,2.7c0,1.1,0.3,1.9,0.9,2.6c0.6,0.6,1.4,1,2.4,1c0.9,0,1.7-0.2,2.4-0.7v1.4H67.3z"/>
	<path style="fill:#010101;" d="M74.6,218.6h-5.4v-9.8h5.3v1.4h-3.6v2.8h3.4v1.4h-3.4v2.9h3.9v1.3L74.6,218.6L74.6,218.6z"/>
	<path style="fill:#010101;" d="M75.8,218.2v-1.7c0.1,0.1,0.3,0.3,0.5,0.4c0.2,0.1,0.4,0.2,0.7,0.3c0.2,0.1,0.5,0.1,0.7,0.2
		c0.2,0,0.4,0.1,0.6,0.1c0.7,0,1.2-0.1,1.5-0.3s0.5-0.6,0.5-1c0-0.2-0.1-0.4-0.2-0.6s-0.3-0.3-0.5-0.5s-0.4-0.3-0.7-0.4
		c-0.3-0.1-0.6-0.3-0.9-0.4c-0.3-0.2-0.6-0.4-0.9-0.5c-0.3-0.2-0.5-0.4-0.7-0.6s-0.4-0.5-0.5-0.7s-0.2-0.6-0.2-1
		c0-0.5,0.1-0.9,0.3-1.2s0.5-0.6,0.8-0.8s0.7-0.4,1.2-0.5s0.9-0.2,1.3-0.2c1,0,1.8,0.1,2.2,0.3v1.6c-0.6-0.4-1.3-0.6-2.1-0.6
		c-0.2,0-0.5,0-0.7,0.1c-0.2,0-0.5,0.1-0.6,0.2s-0.3,0.2-0.5,0.4s-0.2,0.4-0.2,0.6c0,0.2,0,0.4,0.1,0.6c0.1,0.2,0.2,0.3,0.4,0.4
		c0.2,0.1,0.4,0.3,0.6,0.4c0.3,0.1,0.5,0.3,0.9,0.4c0.3,0.2,0.7,0.4,1,0.6c0.3,0.2,0.6,0.4,0.8,0.6c0.2,0.2,0.4,0.5,0.5,0.8
		s0.2,0.6,0.2,1c0,0.5-0.1,0.9-0.3,1.3c-0.2,0.3-0.5,0.6-0.8,0.8s-0.7,0.4-1.2,0.5c-0.4,0.1-0.9,0.1-1.4,0.1c-0.2,0-0.4,0-0.6,0
		s-0.5-0.1-0.7-0.1s-0.5-0.1-0.7-0.2C76.2,218.4,76,218.3,75.8,218.2z"/>
</g>
<g>
	<path style="fill:#010101;" d="M53.5,158.6c-0.1-0.1-0.3-0.2-0.4-0.3c-0.2-0.1-0.4-0.1-0.6-0.1s-0.4,0-0.5,0.1
		c-0.2,0.1-0.3,0.2-0.4,0.3c-0.1,0.1-0.2,0.3-0.3,0.5s-0.1,0.3-0.1,0.6c0,0.2,0,0.4,0.1,0.6c0.1,0.2,0.2,0.3,0.3,0.5
		c0.1,0.1,0.3,0.2,0.4,0.3c0.2,0.1,0.4,0.1,0.6,0.1c0.2,0,0.4,0,0.5-0.1c0.2-0.1,0.3-0.2,0.4-0.3c0.1-0.1,0.2-0.3,0.3-0.5
		s0.1-0.4,0.1-0.6s0-0.4-0.1-0.6S53.6,158.8,53.5,158.6z"/>
	<path style="fill:#010101;" d="M51.8,157c0.1,0.1,0.2,0.2,0.3,0.2c0.1,0.1,0.3,0.1,0.4,0.1s0.3,0,0.4-0.1c0.1-0.1,0.2-0.1,0.3-0.2
		c0.1-0.1,0.2-0.2,0.2-0.4s0.1-0.3,0.1-0.4c0-0.2,0-0.3-0.1-0.5c-0.1-0.1-0.1-0.3-0.2-0.4c-0.1-0.1-0.2-0.2-0.3-0.2
		c-0.1-0.1-0.3-0.1-0.4-0.1c-0.2,0-0.3,0-0.4,0.1c-0.1,0.1-0.2,0.1-0.3,0.2c-0.1,0.1-0.2,0.2-0.2,0.4s-0.1,0.3-0.1,0.4
		c0,0.2,0,0.3,0.1,0.5C51.7,156.7,51.7,156.9,51.8,157z"/>
	<path style="fill:#010101;" d="M52.6,148.3c-5.5,0-9.9,4.4-9.9,9.9s4.4,9.9,9.9,9.9s9.9-4.4,9.9-9.9S58.1,148.3,52.6,148.3z
		 M55,160.7c-0.1,0.3-0.3,0.5-0.5,0.7s-0.5,0.4-0.8,0.5s-0.7,0.2-1.1,0.2c-0.4,0-0.7-0.1-1-0.2c-0.3-0.1-0.6-0.3-0.8-0.5
		s-0.4-0.4-0.5-0.7c-0.3-0.3-0.3-0.6-0.3-0.9c0-0.2,0-0.4,0.1-0.7c0.1-0.2,0.1-0.4,0.3-0.6c0.2-0.2,0.3-0.3,0.4-0.5
		c0.2-0.1,0.4-0.3,0.6-0.3c-0.3-0.2-0.6-0.4-0.8-0.7s-0.3-0.6-0.3-1c0-0.3,0.1-0.6,0.2-0.8c0.1-0.2,0.3-0.5,0.5-0.6
		c0.2-0.2,0.5-0.3,0.7-0.4c0.3-0.1,0.6-0.2,0.9-0.2c0.3,0,0.6,0.1,0.9,0.2c0.3,0.1,0.5,0.2,0.7,0.4s0.4,0.4,0.5,0.6
		c0.1,0.2,0.2,0.5,0.2,0.8c0,0.4-0.1,0.7-0.3,1s-0.5,0.5-0.8,0.7c0.2,0.1,0.4,0.2,0.6,0.3c0.2,0.1,0.3,0.3,0.4,0.5
		c0.1,0.2,0.2,0.4,0.3,0.6c0.1,0.2,0.1,0.4,0.1,0.7S55.1,160.5,55,160.7z"/>
</g>
<line style="fill:none;stroke:#DEDEDE;stroke-width:4;stroke-linecap:round;stroke-linejoin:round;stroke-miterlimit:10;" x1="51.5" y1="-145" x2="52.5" y2="113.9"/>
<circle style="fill:none;stroke:#DEDEDE;stroke-width:4;stroke-linecap:round;stroke-linejoin:round;stroke-miterlimit:10;" cx="52.5" cy="119.4" r="5"/>
</svg>
