<svg class="icons--inactive" xmlns="http://www.w3.org/2000/svg" width="129.2" height="329.2" viewBox="0 0 129.2 329.2"><path fill="none" d="M16 225h94.8v104.2H16z"/><path d="M31.6 308.1h-1.8l-.9-2.5h-3.8l-.8 2.5h-1.8l3.7-9.8H28l3.6 9.8zm-3.1-3.7l-1.4-3.9c0-.1-.1-.3-.1-.6 0 .3-.1.5-.1.6l-1.3 3.9h2.9zM39.8 299.1l-5.3 7.7h5.3v1.4h-7.5v-.7l5.4-7.6h-5v-1.4h7.2l-.1.6zM48.9 304.1c0 2.7-1.3 4.1-3.9 4.1-2.5 0-3.7-1.3-3.7-4v-6h1.6v5.6c0 1.9.7 2.9 2.2 2.9 1.4 0 2.1-.9 2.1-2.8v-5.7h1.6l.1 5.9zM58.7 308.1h-1.9l-1.6-2.6c-.1-.2-.3-.4-.4-.6-.1-.2-.3-.3-.4-.4-.1-.1-.3-.2-.5-.2s-.3-.1-.6-.1h-.7v4H51v-9.8h3.2c.5 0 .9.1 1.3.2s.7.3 1 .5.5.5.7.8.2.7.2 1.2c0 .3-.1.7-.2.9-.1.3-.2.5-.4.8-.2.2-.4.4-.7.6s-.6.3-.9.4c.2.1.3.2.5.3.1.1.3.2.4.4.1.1.2.3.3.4.1.2.2.3.4.6l1.9 2.6zm-5.9-8.5v3.2h1.3c.2 0 .5 0 .7-.1s.4-.2.5-.3c.2-.1.3-.3.4-.5.1-.2.1-.4.1-.7 0-.5-.1-.8-.4-1.1s-.7-.4-1.3-.4h-1.3v-.1zM65.3 308.1h-5.5v-9.8h5.3v1.4h-3.6v2.8h3.4v1.4h-3.4v2.9h3.9l-.1 1.3zM76.3 308.1h-5.4v-9.8h1.6v8.4h3.8v1.4zM81.3 308.4c-1.4 0-2.5-.5-3.4-1.4-.8-.9-1.3-2.1-1.3-3.6 0-1.6.4-2.8 1.3-3.8.9-.9 2-1.4 3.5-1.4 1.4 0 2.5.5 3.3 1.4s1.3 2.1 1.3 3.6c0 1.6-.4 2.8-1.3 3.8-.9.9-2 1.4-3.4 1.4zm0-8.8c-.9 0-1.6.3-2.2 1s-.8 1.5-.8 2.6.3 2 .8 2.6c.5.7 1.3 1 2.1 1 .9 0 1.7-.3 2.2-.9s.8-1.5.8-2.6c0-1.2-.3-2.1-.8-2.7s-1.1-1-2.1-1zM95.6 308.1h-1.8l-.9-2.5h-3.8l-.8 2.5h-1.8l3.7-9.8H92l3.6 9.8zm-3.1-3.7l-1.4-3.9c0-.1-.1-.3-.1-.6 0 .3-.1.5-.1.6l-1.3 3.9h2.9zM96.9 308.1v-9.8h2.8c3.6 0 5.4 1.6 5.4 4.8 0 1.5-.5 2.7-1.5 3.6s-2.3 1.4-4 1.4h-2.7zm1.6-8.5v7h1.3c1.1 0 2-.3 2.7-.9.6-.6.9-1.5.9-2.7 0-2.3-1.2-3.4-3.5-3.4h-1.4zM30.5 324.9V315h3.1c.9 0 1.7.2 2.2.6.6.4.8.9.8 1.6 0 .6-.2 1-.5 1.4s-.7.7-1.3.9c.7.1 1.2.3 1.6.7s.6 1 .6 1.6c0 .8-.3 1.5-1 2s-1.5.8-2.5.8h-3v.3zm1.6-8.4v2.8h1c.6 0 1-.1 1.3-.4s.5-.6.5-1.1c0-.8-.6-1.3-1.7-1.3h-1.1zm0 4v3.1h1.4c.6 0 1.1-.1 1.4-.4.3-.3.5-.7.5-1.2 0-1-.7-1.5-2.1-1.5h-1.2zM46.9 324.9h-1.8l-.9-2.5h-3.8l-.8 2.5h-1.8l3.7-9.8h1.8l3.6 9.8zm-3.1-3.9l-1.4-3.9c0-.1-.1-.3-.1-.6 0 .3-.1.5-.1.6l-1.3 3.9h2.9zM53.6 324.9h-5.4V315h1.6v8.4h3.8v1.5zM63.4 324.9h-1.8l-.9-2.5h-3.8l-.8 2.5h-1.8L58 315h1.8l3.6 9.9zm-3.1-3.9l-1.4-3.9c0-.1-.1-.3-.1-.6 0 .3-.1.5-.1.6l-1.3 3.9h2.9zM73 324.9h-1.8l-4.7-7.2-.3-.6c0 .2.1.7.1 1.3v6.4h-1.6V315h1.9l4.5 7c.2.3.3.5.4.6 0-.3-.1-.7-.1-1.3V315H73v9.9zM82.2 324.5c-.7.4-1.6.6-2.7.6-1.4 0-2.5-.4-3.4-1.3s-1.3-2.1-1.3-3.5c0-1.6.5-2.8 1.4-3.8s2.2-1.4 3.6-1.4c.9 0 1.7.1 2.3.4v1.6c-.7-.4-1.4-.6-2.2-.6-1.1 0-1.9.3-2.6 1s-1 1.6-1 2.7.3 1.9.9 2.6c.6.6 1.4 1 2.4 1 .9 0 1.7-.2 2.4-.7v1.4h.2zM89.6 324.9h-5.5V315h5.3v1.4h-3.7v2.8h3.4v1.4h-3.4v2.9h3.9v1.4zM98.8 324.9h-1.9l-1.6-2.6c-.1-.2-.3-.4-.4-.6s-.3-.3-.4-.4-.3-.2-.5-.2-.3-.1-.6-.1h-.7v4h-1.6v-9.8h3.2c.5 0 .9.1 1.3.2s.7.3 1 .5.5.5.7.8.2.7.2 1.2c0 .3-.1.7-.2.9-.1.3-.2.5-.4.8-.2.2-.4.4-.7.6s-.6.3-.9.4c.2.1.3.2.5.3.1.1.3.2.4.4.1.1.2.3.3.4.1.2.2.3.4.6l1.9 2.6zm-5.9-8.4v3.2h1.3c.2 0 .5 0 .7-.1s.4-.2.5-.3c.2-.1.3-.3.4-.5s.1-.4.1-.7c0-.5-.1-.8-.4-1.1-.3-.3-.7-.4-1.3-.4l-1.3-.1zM88.8 285.5l-4.5-28.4c-.1-1.2-1.1-1.3-1.4-1.3H45.4c-.3 0-1.3.1-1.4 1.3l-5 28.4v.8c0 2.1 1.7 2.6 2.1 2.6h45.6c.4 0 2.1-.5 2.1-2.6v-.8zm-14.9-7.4h-5.5c-.4 0-.8-.4-.8-.8s.4-.8.8-.8H71l-6.2-6.2v12.4l1.9-1.9c.3-.3.8-.3 1.1 0 .3.3.3.8 0 1.1l-3.9 3.9L60 282c-.2-.2-.2-.4-.2-.6s.1-.4.2-.6c.3-.3.8-.3 1.1 0l2 2v-12.4l-6.2 6.2h2.8c.4 0 .8.4.8.8s-.4.8-.8.8h-5.5v-5.5c0-.4.4-.8.8-.8s.8.4.8.8v2.8l7.3-7.3v-3.9c-1-.3-1.7-1.3-1.7-2.4 0-1.4 1.1-2.5 2.5-2.5s2.5 1.1 2.5 2.5c0 1.1-.7 2.1-1.7 2.4v3.9l7.5 7.5v-3c0-.4.4-.8.8-.8s.8.4.8.8l.1 5.4z"/></svg>