<?xml version="1.0" encoding="utf-8"?>
<!-- Generator: Adobe Illustrator 19.2.0, SVG Export Plug-In . SVG Version: 6.00 Build 0)  -->
<svg version="1.1" id="Layer_1" xmlns="http://www.w3.org/2000/svg" xmlns:xlink="http://www.w3.org/1999/xlink" x="0px" y="0px"
	 width="129.2px" height="329.2px" viewBox="0 0 129.2 329.2" style="enable-background:new 0 0 129.2 329.2;" xml:space="preserve"
	>
<g id="Layer_2">
</g>
<g>
	<g>
		<path d="M45.7,299.9h-2.8v8.4h-1.6v-8.4h-2.8v-1.4h7.2L45.7,299.9L45.7,299.9z"/>
		<path d="M54.7,308.3h-1.9l-1.6-2.6c-0.1-0.2-0.3-0.4-0.4-0.6c-0.1-0.2-0.3-0.3-0.4-0.4c-0.1-0.1-0.3-0.2-0.5-0.2s-0.3-0.1-0.6-0.1
			h-0.7v4H47v-9.8h3.2c0.5,0,0.9,0.1,1.3,0.2c0.4,0.1,0.7,0.3,1,0.5s0.5,0.5,0.7,0.8s0.2,0.7,0.2,1.2c0,0.3-0.1,0.7-0.2,0.9
			c-0.1,0.3-0.2,0.5-0.4,0.8c-0.2,0.2-0.4,0.4-0.7,0.6s-0.6,0.3-0.9,0.4l0,0c0.2,0.1,0.3,0.2,0.5,0.3c0.1,0.1,0.3,0.2,0.4,0.4
			c0.1,0.1,0.2,0.3,0.3,0.4c0.1,0.2,0.2,0.3,0.4,0.6L54.7,308.3z M48.7,299.8v3.2H50c0.2,0,0.5,0,0.7-0.1s0.4-0.2,0.5-0.3
			c0.2-0.1,0.3-0.3,0.4-0.5c0.1-0.2,0.1-0.4,0.1-0.7c0-0.5-0.1-0.8-0.4-1.1s-0.7-0.4-1.3-0.4h-1.3V299.8z"/>
		<path d="M63.8,308.3H62l-0.9-2.5h-3.8l-0.8,2.5h-1.8l3.7-9.8h1.8L63.8,308.3z M60.7,304.5l-1.4-3.9c0-0.1-0.1-0.3-0.1-0.6l0,0
			c0,0.3-0.1,0.5-0.1,0.6l-1.3,3.9H60.7z"/>
		<path d="M70.4,299.9h-3.6v2.9h3.4v1.4h-3.4v4.1h-1.6v-9.8h5.3L70.4,299.9L70.4,299.9z"/>
		<path d="M77.4,299.9h-3.6v2.9h3.4v1.4h-3.4v4.1h-1.6v-9.8h5.3L77.4,299.9L77.4,299.9z"/>
		<path d="M80.8,308.3h-1.7v-9.8h1.7V308.3z"/>
		<path d="M90,307.9c-0.7,0.4-1.6,0.6-2.7,0.6c-1.4,0-2.5-0.4-3.4-1.3s-1.3-2.1-1.3-3.5c0-1.6,0.5-2.8,1.4-3.8s2.2-1.4,3.6-1.4
			c0.9,0,1.7,0.1,2.3,0.4v1.5c-0.7-0.4-1.4-0.6-2.2-0.6c-1.1,0-1.9,0.3-2.6,1s-1,1.6-1,2.7s0.3,1.9,0.9,2.6c0.6,0.6,1.4,1,2.4,1
			c0.9,0,1.7-0.2,2.4-0.7v1.5L90,307.9L90,307.9z"/>
		<path d="M42.3,325h-1.6v-6.3c0-0.5,0-1.1,0.1-1.9l0,0c-0.1,0.4-0.2,0.7-0.3,0.9l-2.9,7.3h-1.1l-2.9-7.2c-0.1-0.2-0.2-0.5-0.3-1
			l0,0c0,0.4,0.1,1,0.1,1.9v6.3h-1.5v-9.8h2.3l2.6,6.5c0.2,0.5,0.3,0.9,0.4,1.1l0,0c0.2-0.5,0.3-0.9,0.4-1.1l2.6-6.5h2.2L42.3,325
			L42.3,325z"/>
		<path d="M52.7,325h-1.8l-0.9-2.5h-3.8l-0.8,2.5h-1.8l3.7-9.8h1.8L52.7,325z M49.6,321.1l-1.4-3.9c0-0.1-0.1-0.3-0.1-0.6l0,0
			c0,0.3-0.1,0.5-0.1,0.6l-1.3,3.9H49.6z"/>
		<path d="M62.3,325h-1.8l-4.7-7.2c-0.1-0.2-0.2-0.4-0.3-0.6l0,0c0,0.2,0.1,0.7,0.1,1.3v6.4H54v-9.8h1.9l4.5,7
			c0.2,0.3,0.3,0.5,0.4,0.6l0,0c0-0.3-0.1-0.7-0.1-1.3V315h1.6L62.3,325L62.3,325z"/>
		<path d="M72.7,325h-1.8l-0.9-2.5h-3.8l-0.8,2.5h-1.8l3.7-9.8h1.8L72.7,325z M69.6,321.1l-1.4-3.9c0-0.1-0.1-0.3-0.1-0.6l0,0
			c0,0.3-0.1,0.5-0.1,0.6l-1.3,3.9H69.6z"/>
		<path d="M81.5,324.3c-1,0.6-2.1,0.8-3.4,0.8c-1.4,0-2.6-0.4-3.5-1.3s-1.3-2.1-1.3-3.6s0.5-2.7,1.5-3.7s2.2-1.5,3.7-1.5
			c1.1,0,2,0.2,2.7,0.5v1.7c-0.7-0.5-1.6-0.7-2.7-0.7c-1,0-1.9,0.3-2.6,1s-1,1.6-1,2.7s0.3,2,0.9,2.6s1.3,1,2.3,1
			c0.7,0,1.3-0.1,1.7-0.4V321h-2.1v-1.4h3.7L81.5,324.3L81.5,324.3z"/>
		<path d="M89.1,325h-5.5v-9.8h5.3v1.4h-3.7v2.8h3.4v1.4h-3.4v2.9h3.9C89.1,323.7,89.1,325,89.1,325z"/>
		<path d="M98.4,325h-1.9l-1.6-2.6c-0.1-0.2-0.3-0.4-0.4-0.6s-0.3-0.3-0.4-0.4s-0.3-0.2-0.5-0.2s-0.3-0.1-0.6-0.1h-0.7v4h-1.6v-9.8
			h3.2c0.5,0,0.9,0.1,1.3,0.2s0.7,0.3,1,0.5s0.5,0.5,0.7,0.8s0.2,0.7,0.2,1.2c0,0.3-0.1,0.7-0.2,0.9c-0.1,0.3-0.2,0.5-0.4,0.8
			c-0.2,0.2-0.4,0.4-0.7,0.6c-0.3,0.2-0.6,0.3-0.9,0.4l0,0c0.2,0.1,0.3,0.2,0.5,0.3c0.1,0.1,0.3,0.2,0.4,0.4
			c0.1,0.1,0.2,0.3,0.3,0.4c0.1,0.2,0.2,0.3,0.4,0.6L98.4,325z M92.4,316.5v3.2h1.3c0.2,0,0.5,0,0.7-0.1s0.4-0.2,0.5-0.3
			c0.2-0.1,0.3-0.3,0.4-0.5s0.1-0.4,0.1-0.7c0-0.5-0.1-0.8-0.4-1.1s-0.7-0.4-1.3-0.4L92.4,316.5L92.4,316.5z"/>
	</g>
	<polygon points="72,275 69.5,277.8 69.5,270 77.2,270 74.4,272.8 81.5,279.5 81.5,264.9 71.5,254.6 57.4,254.6 54.9,257.3 
		62.9,265.5 66.5,262 66.5,273.3 55.5,273.3 58.9,269.5 51,261.5 47.4,265 47.4,279.5 57.4,289.9 69.7,289.9 60.3,280.3 58.5,282.3 
		58.5,276.4 64,276.4 62.4,278.3 72.6,288.9 78.8,282.5 	"/>
</g>
<line style="fill:none;stroke:#DEDEDE;stroke-width:4;stroke-linecap:round;stroke-linejoin:round;stroke-miterlimit:10;" x1="64.1" y1="-40" x2="64.5" y2="225.9"/>
<circle style="fill:none;stroke:#DEDEDE;stroke-width:4;stroke-linecap:round;stroke-linejoin:round;stroke-miterlimit:10;" cx="64.5" cy="231.4" r="5"/>
</svg>
