<?xml version="1.0" encoding="utf-8"?>
<!-- Generator: Adobe Illustrator 18.0.0, SVG Export Plug-In . SVG Version: 6.00 Build 0)  -->
<!DOCTYPE svg PUBLIC "-//W3C//DTD SVG 1.1//EN" "http://www.w3.org/Graphics/SVG/1.1/DTD/svg11.dtd">
<svg version="1.1" id="Layer_1" xmlns="http://www.w3.org/2000/svg" xmlns:xlink="http://www.w3.org/1999/xlink" x="0px" y="0px"
	 width="94.8px" height="329.2px" viewBox="0 0 94.8 329.2" enable-background="new 0 0 94.8 329.2" xml:space="preserve">
<rect x="0" y="225" fill-opacity="0" width="94.8" height="104.2"/>
<g>
	<path d="M42,264.4l-3.5,9.8h-1.8l-3.4-9.8h1.8l2.4,7.4c0.1,0.2,0.1,0.5,0.2,0.8l0,0c0-0.3,0.1-0.5,0.2-0.8l2.5-7.4H42z"/>
	<path d="M44.9,270.6v3.5h-1.6v-9.8h3c1.1,0,2,0.3,2.6,0.8s0.9,1.3,0.9,2.2s-0.3,1.7-1,2.3c-0.6,0.6-1.5,0.9-2.6,0.9L44.9,270.6
		L44.9,270.6z M44.9,265.7v3.6h1c0.7,0,1.2-0.2,1.6-0.5c0.4-0.3,0.5-0.8,0.5-1.4c0-1.1-0.7-1.7-2-1.7H44.9L44.9,265.7z"/>
	<path d="M59.7,274.1h-1.8l-4.7-7.2c-0.1-0.2-0.2-0.4-0.3-0.6l0,0c0,0.2,0.1,0.7,0.1,1.3v6.4h-1.6v-9.8h1.9l4.5,7
		c0.2,0.3,0.3,0.5,0.4,0.6l0,0c0-0.3-0.1-0.7-0.1-1.3v-6.3h1.6L59.7,274.1L59.7,274.1z"/>
	<path d="M1.6,287.3v3.5H0V281h3c1.1,0,2,0.3,2.6,0.8s0.9,1.3,0.9,2.2s-0.3,1.7-1,2.3c-0.6,0.6-1.5,0.9-2.6,0.9L1.6,287.3L1.6,287.3
		z M1.6,282.4v3.6h1c0.7,0,1.2-0.2,1.6-0.5s0.5-0.8,0.5-1.4c0-1.1-0.7-1.7-2-1.7H1.6L1.6,282.4z"/>
	<path d="M12.1,291c-1.4,0-2.5-0.5-3.4-1.4c-0.8-0.9-1.3-2.1-1.3-3.6c0-1.6,0.4-2.8,1.3-3.8c0.9-0.9,2-1.4,3.5-1.4
		c1.4,0,2.5,0.5,3.3,1.4s1.3,2.1,1.3,3.6c0,1.6-0.4,2.8-1.3,3.8C14.7,290.5,13.6,291,12.1,291z M12.2,282.3c-0.9,0-1.6,0.3-2.2,1
		c-0.6,0.7-0.8,1.5-0.8,2.6s0.3,2,0.8,2.6c0.5,0.7,1.3,1,2.1,1c0.9,0,1.7-0.3,2.2-0.9s0.8-1.5,0.8-2.6c0-1.2-0.3-2.1-0.8-2.7
		C13.8,282.7,13.1,282.3,12.2,282.3z"/>
	<path d="M20.3,290.8h-1.7V281h1.7V290.8z"/>
	<path d="M31,290.8h-1.8l-4.7-7.2c-0.1-0.2-0.2-0.4-0.3-0.6l0,0c0,0.2,0.1,0.7,0.1,1.3v6.5h-1.6V281h1.9l4.5,7
		c0.2,0.3,0.3,0.5,0.4,0.6l0,0c0-0.3-0.1-0.7-0.1-1.3V281H31V290.8L31,290.8z"/>
	<path d="M39.6,282.5h-2.8v8.3h-1.6v-8.4h-2.8V281h7.2L39.6,282.5L39.6,282.5z"/>
	<path d="M44.6,287.6h-3.7v-1.2h3.7V287.6z"/>
	<path d="M52.9,282.5h-2.8v8.3h-1.6v-8.4h-2.8V281h7.2L52.9,282.5L52.9,282.5z"/>
	<path d="M57.8,291c-1.4,0-2.5-0.5-3.4-1.4c-0.8-0.9-1.3-2.1-1.3-3.6c0-1.6,0.4-2.8,1.3-3.8c0.9-0.9,2-1.4,3.5-1.4
		c1.4,0,2.5,0.5,3.3,1.4s1.3,2.1,1.3,3.6c0,1.6-0.4,2.8-1.3,3.8C60.4,290.5,59.2,291,57.8,291z M57.9,282.3c-0.9,0-1.6,0.3-2.2,1
		c-0.6,0.7-0.8,1.5-0.8,2.6s0.3,2,0.8,2.6c0.5,0.7,1.3,1,2.1,1c0.9,0,1.7-0.3,2.2-0.9s0.8-1.5,0.8-2.6c0-1.2-0.3-2.1-0.8-2.7
		C59.5,282.7,58.8,282.3,57.9,282.3z"/>
	<path d="M67.8,287.6h-3.7v-1.2h3.7V287.6z"/>
	<path d="M69.5,290.4v-1.6c0.1,0.1,0.3,0.3,0.5,0.4s0.4,0.2,0.7,0.3c0.2,0.1,0.5,0.1,0.7,0.2c0.2,0,0.4,0.1,0.6,0.1
		c0.7,0,1.2-0.1,1.5-0.3s0.5-0.6,0.5-1c0-0.2-0.1-0.4-0.2-0.6s-0.3-0.3-0.5-0.5s-0.4-0.3-0.7-0.4s-0.6-0.3-0.9-0.4
		c-0.3-0.2-0.6-0.4-0.9-0.5c-0.3-0.2-0.5-0.4-0.7-0.6s-0.4-0.5-0.5-0.7s-0.2-0.6-0.2-1c0-0.5,0.1-0.9,0.3-1.2s0.5-0.6,0.8-0.8
		c0.3-0.2,0.7-0.4,1.2-0.5s0.9-0.2,1.3-0.2c1,0,1.8,0.1,2.2,0.3v1.6c-0.6-0.4-1.3-0.6-2.1-0.6c-0.2,0-0.5,0-0.7,0.1
		c-0.2,0-0.5,0.1-0.6,0.2s-0.3,0.2-0.5,0.4s-0.2,0.4-0.2,0.6s0,0.4,0.1,0.6s0.2,0.3,0.4,0.4s0.4,0.3,0.6,0.4
		c0.3,0.1,0.5,0.3,0.9,0.4c0.3,0.2,0.7,0.4,1,0.6s0.6,0.4,0.8,0.6c0.2,0.2,0.4,0.5,0.5,0.8s0.2,0.6,0.2,1c0,0.5-0.1,0.9-0.3,1.3
		c-0.2,0.3-0.5,0.6-0.8,0.8c-0.3,0.2-0.7,0.4-1.2,0.5c-0.4,0.1-0.9,0.1-1.4,0.1c-0.2,0-0.4,0-0.6,0s-0.5-0.1-0.7-0.1
		s-0.5-0.1-0.7-0.2C69.8,290.6,69.6,290.5,69.5,290.4z"/>
	<path d="M79.1,290.8h-1.7V281h1.7V290.8z"/>
	<path d="M87.8,282.5H85v8.3h-1.6v-8.4h-2.8V281h7.2C87.8,281,87.8,282.5,87.8,282.5z"/>
	<path d="M94.7,290.8h-5.5V281h5.3v1.4h-3.6v2.8h3.4v1.4h-3.4v2.9h3.9v1.3L94.7,290.8L94.7,290.8z"/>
	<path d="M42.6,307.7c-1.4,0-2.5-0.5-3.4-1.4c-0.8-0.9-1.3-2.1-1.3-3.6c0-1.6,0.4-2.8,1.3-3.8c0.9-0.9,2-1.4,3.5-1.4
		c1.4,0,2.5,0.5,3.3,1.4s1.3,2.1,1.3,3.6c0,1.6-0.4,2.8-1.3,3.8C45.2,307.2,44.1,307.7,42.6,307.7z M42.7,299.1
		c-0.9,0-1.6,0.3-2.2,1c-0.6,0.7-0.8,1.5-0.8,2.6s0.3,2,0.8,2.6c0.5,0.7,1.3,1,2.1,1c0.9,0,1.7-0.3,2.2-0.9s0.8-1.5,0.8-2.6
		c0-1.2-0.3-2.1-0.8-2.7S43.6,299.1,42.7,299.1z"/>
	<path d="M56.7,307.5h-1.9l-1.6-2.6c-0.1-0.2-0.3-0.4-0.4-0.6c-0.1-0.2-0.3-0.3-0.4-0.4c-0.1-0.1-0.3-0.2-0.5-0.2s-0.3-0.1-0.6-0.1
		h-0.7v4H49v-9.8h3.2c0.5,0,0.9,0.1,1.3,0.2c0.4,0.1,0.7,0.3,1,0.5s0.5,0.5,0.7,0.8s0.2,0.7,0.2,1.2c0,0.3-0.1,0.7-0.2,0.9
		c-0.1,0.3-0.2,0.5-0.4,0.8c-0.2,0.2-0.4,0.4-0.7,0.6s-0.6,0.3-0.9,0.4l0,0c0.2,0.1,0.3,0.2,0.5,0.3c0.1,0.1,0.3,0.2,0.4,0.4
		c0.1,0.1,0.2,0.3,0.3,0.4c0.1,0.2,0.2,0.3,0.4,0.6L56.7,307.5z M50.7,299.1v3.2H52c0.2,0,0.5,0,0.7-0.1s0.4-0.2,0.5-0.3
		c0.2-0.1,0.3-0.3,0.4-0.5c0.1-0.2,0.1-0.4,0.1-0.7c0-0.5-0.1-0.8-0.4-1.1c-0.3-0.3-0.7-0.4-1.3-0.4h-1.3V299.1z"/>
	<path d="M6.8,323.9v-1.7c0.1,0.1,0.3,0.3,0.5,0.4s0.4,0.2,0.7,0.3c0.2,0.1,0.5,0.1,0.7,0.2c0.2,0,0.4,0.1,0.6,0.1
		c0.7,0,1.2-0.1,1.5-0.3c0.3-0.2,0.5-0.6,0.5-1c0-0.2-0.1-0.4-0.2-0.6c-0.1-0.2-0.3-0.3-0.5-0.5s-0.4-0.3-0.7-0.4S9.3,320.1,9,320
		c-0.3-0.2-0.6-0.4-0.9-0.5c-0.3-0.2-0.5-0.4-0.7-0.6s-0.4-0.5-0.5-0.7s-0.2-0.6-0.2-1c0-0.5,0.1-0.9,0.3-1.2
		c0.2-0.3,0.5-0.6,0.8-0.8s0.7-0.4,1.2-0.5s0.9-0.2,1.3-0.2c1,0,1.8,0.1,2.2,0.3v1.6c-0.6-0.4-1.3-0.6-2.1-0.6c-0.2,0-0.5,0-0.7,0.1
		c-0.2,0-0.5,0.1-0.6,0.2s-0.3,0.2-0.5,0.4c-0.2,0.2-0.2,0.4-0.2,0.6s0,0.4,0.1,0.6s0.2,0.3,0.4,0.4s0.4,0.3,0.6,0.4
		c0.3,0.1,0.5,0.3,0.9,0.4c0.3,0.2,0.7,0.4,1,0.6s0.6,0.4,0.8,0.6s0.4,0.5,0.5,0.8s0.2,0.6,0.2,1c0,0.5-0.1,0.9-0.3,1.3
		c-0.2,0.3-0.5,0.6-0.8,0.8c-0.3,0.2-0.7,0.4-1.2,0.5c-0.4,0.1-0.9,0.1-1.4,0.1c-0.2,0-0.4,0-0.6,0c-0.2,0-0.5-0.1-0.7-0.1
		s-0.5-0.1-0.7-0.2C7.1,324,6.9,324,6.8,323.9z"/>
	<path d="M16.5,324.3h-1.7v-9.8h1.7V324.3z"/>
	<path d="M25.2,315.9h-2.8v8.4h-1.6v-8.4H18v-1.4h7.2V315.9L25.2,315.9z"/>
	<path d="M32.1,324.3h-5.5v-9.8h5.3v1.4h-3.6v2.8h3.4v1.4h-3.4v2.9h3.9L32.1,324.3L32.1,324.3L32.1,324.3z"/>
	<path d="M37.3,321h-3.7v-1.2h3.7V321z"/>
	<path d="M45.6,315.9h-2.8v8.4h-1.6v-8.4h-2.8v-1.4h7.2L45.6,315.9L45.6,315.9z"/>
	<path d="M50.5,324.4c-1.4,0-2.5-0.5-3.4-1.4c-0.8-0.9-1.3-2.1-1.3-3.6c0-1.6,0.4-2.8,1.3-3.8c0.9-0.9,2-1.4,3.5-1.4
		c1.4,0,2.5,0.5,3.3,1.4s1.3,2.1,1.3,3.6c0,1.6-0.4,2.8-1.3,3.8C53.1,324,51.9,324.4,50.5,324.4z M50.6,315.8c-0.9,0-1.6,0.3-2.2,1
		c-0.6,0.7-0.8,1.5-0.8,2.6s0.3,2,0.8,2.6c0.5,0.7,1.3,1,2.1,1c0.9,0,1.7-0.3,2.2-0.9s0.8-1.5,0.8-2.6c0-1.2-0.3-2.1-0.8-2.7
		C52.2,316.2,51.5,315.8,50.6,315.8z"/>
	<path d="M60.5,321h-3.7v-1.2h3.7V321z"/>
	<path d="M62.2,323.9v-1.7c0.1,0.1,0.3,0.3,0.5,0.4s0.4,0.2,0.7,0.3c0.2,0.1,0.5,0.1,0.7,0.2c0.2,0,0.4,0.1,0.6,0.1
		c0.7,0,1.2-0.1,1.5-0.3c0.3-0.2,0.5-0.6,0.5-1c0-0.2-0.1-0.4-0.2-0.6s-0.3-0.3-0.5-0.5s-0.4-0.3-0.7-0.4c-0.3-0.1-0.6-0.3-0.9-0.4
		c-0.3-0.2-0.6-0.4-0.9-0.5c-0.3-0.2-0.5-0.4-0.7-0.6s-0.4-0.5-0.5-0.7s-0.2-0.6-0.2-1c0-0.5,0.1-0.9,0.3-1.2
		c0.2-0.3,0.5-0.6,0.8-0.8s0.7-0.4,1.2-0.5c0.5-0.1,0.9-0.2,1.3-0.2c1,0,1.8,0.1,2.2,0.3v1.6c-0.6-0.4-1.3-0.6-2.1-0.6
		c-0.2,0-0.5,0-0.7,0.1c-0.2,0-0.5,0.1-0.6,0.2s-0.3,0.2-0.5,0.4c-0.2,0.2-0.2,0.4-0.2,0.6s0,0.4,0.1,0.6s0.2,0.3,0.4,0.4
		s0.4,0.3,0.6,0.4c0.3,0.1,0.5,0.3,0.9,0.4c0.3,0.2,0.7,0.4,1,0.6s0.6,0.4,0.8,0.6c0.2,0.2,0.4,0.5,0.5,0.8s0.2,0.6,0.2,1
		c0,0.5-0.1,0.9-0.3,1.3c-0.2,0.3-0.5,0.6-0.8,0.8c-0.3,0.2-0.7,0.4-1.2,0.5c-0.4,0.1-0.9,0.1-1.4,0.1c-0.2,0-0.4,0-0.6,0
		c-0.2,0-0.5-0.1-0.7-0.1s-0.5-0.1-0.7-0.2C62.5,324,62.3,324,62.2,323.9z"/>
	<path d="M71.9,324.3h-1.7v-9.8h1.7V324.3z"/>
	<path d="M80.5,315.9h-2.8v8.4h-1.6v-8.4h-2.8v-1.4h7.2L80.5,315.9L80.5,315.9z"/>
	<path d="M87.4,324.3h-5.5v-9.8h5.3v1.4h-3.6v2.8H87v1.4h-3.4v2.9h3.9L87.4,324.3L87.4,324.3L87.4,324.3z"/>
</g>
</svg>
