<svg xmlns="http://www.w3.org/2000/svg" width="94.8" height="329.2" viewBox="0 0 94.8 329.2"><path d="M42 264.4l-3.5 9.8h-1.8l-3.4-9.8h1.8l2.4 7.4c.1.2.1.5.2.8 0-.3.1-.5.2-.8l2.5-7.4H42zM44.9 270.6v3.5h-1.6v-9.8h3c1.1 0 2 .3 2.6.8s.9 1.3.9 2.2-.3 1.7-1 2.3c-.6.6-1.5.9-2.6.9l-1.3.1zm0-4.9v3.6h1c.7 0 1.2-.2 1.6-.5.4-.3.5-.8.5-1.4 0-1.1-.7-1.7-2-1.7h-1.1zM59.7 274.1h-1.8l-4.7-7.2-.3-.6c0 .2.1.7.1 1.3v6.4h-1.6v-9.8h1.9l4.5 7c.2.3.3.5.4.6 0-.3-.1-.7-.1-1.3v-6.3h1.6v9.9zM1.6 287.3v3.5H0V281h3c1.1 0 2 .3 2.6.8s.9 1.3.9 2.2-.3 1.7-1 2.3c-.6.6-1.5.9-2.6.9l-1.3.1zm0-4.9v3.6h1c.7 0 1.2-.2 1.6-.5.4-.3.5-.8.5-1.4 0-1.1-.7-1.7-2-1.7H1.6zM12.1 291c-1.4 0-2.5-.5-3.4-1.4-.8-.9-1.3-2.1-1.3-3.6 0-1.6.4-2.8 1.3-3.8.9-.9 2-1.4 3.5-1.4 1.4 0 2.5.5 3.3 1.4.8.9 1.3 2.1 1.3 3.6 0 1.6-.4 2.8-1.3 3.8-.8.9-1.9 1.4-3.4 1.4zm.1-8.7c-.9 0-1.6.3-2.2 1-.6.7-.8 1.5-.8 2.6s.3 2 .8 2.6c.5.7 1.3 1 2.1 1 .9 0 1.7-.3 2.2-.9.5-.6.8-1.5.8-2.6 0-1.2-.3-2.1-.8-2.7-.5-.6-1.2-1-2.1-1zM20.3 290.8h-1.7V281h1.7v9.8zM31 290.8h-1.8l-4.7-7.2-.3-.6c0 .2.1.7.1 1.3v6.5h-1.6V281h1.9l4.5 7c.2.3.3.5.4.6 0-.3-.1-.7-.1-1.3V281H31v9.8zM39.6 282.5h-2.8v8.3h-1.6v-8.4h-2.8V281h7.2v1.5zM44.6 287.6h-3.7v-1.2h3.7v1.2zM52.9 282.5h-2.8v8.3h-1.6v-8.4h-2.8V281h7.2v1.5zM57.8 291c-1.4 0-2.5-.5-3.4-1.4-.8-.9-1.3-2.1-1.3-3.6 0-1.6.4-2.8 1.3-3.8.9-.9 2-1.4 3.5-1.4 1.4 0 2.5.5 3.3 1.4.8.9 1.3 2.1 1.3 3.6 0 1.6-.4 2.8-1.3 3.8-.8.9-2 1.4-3.4 1.4zm.1-8.7c-.9 0-1.6.3-2.2 1-.6.7-.8 1.5-.8 2.6s.3 2 .8 2.6c.5.7 1.3 1 2.1 1 .9 0 1.7-.3 2.2-.9.5-.6.8-1.5.8-2.6 0-1.2-.3-2.1-.8-2.7-.5-.6-1.2-1-2.1-1zM67.8 287.6h-3.7v-1.2h3.7v1.2zM69.5 290.4v-1.6c.1.1.3.3.5.4s.4.2.7.3c.2.1.5.1.7.2.2 0 .4.1.6.1.7 0 1.2-.1 1.5-.3s.5-.6.5-1c0-.2-.1-.4-.2-.6-.1-.2-.3-.3-.5-.5s-.4-.3-.7-.4-.6-.3-.9-.4c-.3-.2-.6-.4-.9-.5-.3-.2-.5-.4-.7-.6-.2-.2-.4-.5-.5-.7-.1-.2-.2-.6-.2-1 0-.5.1-.9.3-1.2s.5-.6.8-.8c.3-.2.7-.4 1.2-.5.5-.1.9-.2 1.3-.2 1 0 1.8.1 2.2.3v1.6c-.6-.4-1.3-.6-2.1-.6-.2 0-.5 0-.7.1-.2 0-.5.1-.6.2s-.3.2-.5.4-.2.4-.2.6c0 .2 0 .4.1.6.1.2.2.3.4.4s.4.3.6.4c.3.1.5.3.9.4.3.2.7.4 1 .6.3.2.6.4.8.6.2.2.4.5.5.8.1.3.2.6.2 1 0 .5-.1.9-.3 1.3-.2.3-.5.6-.8.8-.3.2-.7.4-1.2.5-.4.1-.9.1-1.4.1h-.6c-.2 0-.5-.1-.7-.1s-.5-.1-.7-.2c-.1-.3-.3-.4-.4-.5zM79.1 290.8h-1.7V281h1.7v9.8zM87.8 282.5H85v8.3h-1.6v-8.4h-2.8V281h7.2v1.5zM94.7 290.8h-5.5V281h5.3v1.4h-3.6v2.8h3.4v1.4h-3.4v2.9h3.9v1.3h-.1zM42.6 307.7c-1.4 0-2.5-.5-3.4-1.4-.8-.9-1.3-2.1-1.3-3.6 0-1.6.4-2.8 1.3-3.8.9-.9 2-1.4 3.5-1.4 1.4 0 2.5.5 3.3 1.4s1.3 2.1 1.3 3.6c0 1.6-.4 2.8-1.3 3.8-.8.9-1.9 1.4-3.4 1.4zm.1-8.6c-.9 0-1.6.3-2.2 1-.6.7-.8 1.5-.8 2.6s.3 2 .8 2.6c.5.7 1.3 1 2.1 1 .9 0 1.7-.3 2.2-.9s.8-1.5.8-2.6c0-1.2-.3-2.1-.8-2.7-.5-.6-1.2-1-2.1-1zM56.7 307.5h-1.9l-1.6-2.6c-.1-.2-.3-.4-.4-.6-.1-.2-.3-.3-.4-.4-.1-.1-.3-.2-.5-.2s-.3-.1-.6-.1h-.7v4H49v-9.8h3.2c.5 0 .9.1 1.3.2s.7.3 1 .5c.3.2.5.5.7.8.2.3.2.7.2 1.2 0 .3-.1.7-.2.9-.1.3-.2.5-.4.8-.2.2-.4.4-.7.6-.3.2-.6.3-.9.4.2.1.3.2.5.3.1.1.3.2.4.4.1.1.2.3.3.4.1.2.2.3.4.6l1.9 2.6zm-6-8.4v3.2H52c.2 0 .5 0 .7-.1.2-.1.4-.2.5-.3.2-.1.3-.3.4-.5.1-.2.1-.4.1-.7 0-.5-.1-.8-.4-1.1-.3-.3-.7-.4-1.3-.4h-1.3v-.1zM6.8 323.9v-1.7c.1.1.3.3.5.4s.4.2.7.3c.2.1.5.1.7.2.2 0 .4.1.6.1.7 0 1.2-.1 1.5-.3.3-.2.5-.6.5-1 0-.2-.1-.4-.2-.6-.1-.2-.3-.3-.5-.5s-.4-.3-.7-.4c-.3-.1-.6-.3-.9-.4-.3-.2-.6-.4-.9-.5-.3-.2-.5-.4-.7-.6-.2-.2-.4-.5-.5-.7-.1-.2-.2-.6-.2-1 0-.5.1-.9.3-1.2.2-.3.5-.6.8-.8s.7-.4 1.2-.5.9-.2 1.3-.2c1 0 1.8.1 2.2.3v1.6c-.6-.4-1.3-.6-2.1-.6-.2 0-.5 0-.7.1-.2 0-.5.1-.6.2s-.3.2-.5.4-.2.4-.2.6c0 .2 0 .4.1.6.1.2.2.3.4.4s.4.3.6.4c.3.1.5.3.9.4.3.2.7.4 1 .6.3.2.6.4.8.6.2.2.4.5.5.8.1.3.2.6.2 1 0 .5-.1.9-.3 1.3-.2.3-.5.6-.8.8-.3.2-.7.4-1.2.5-.4.1-.9.1-1.4.1h-.6c-.2 0-.5-.1-.7-.1s-.5-.1-.7-.2c-.1-.3-.3-.3-.4-.4zM16.5 324.3h-1.7v-9.8h1.7v9.8zM25.2 315.9h-2.8v8.4h-1.6v-8.4H18v-1.4h7.2v1.4zM32.1 324.3h-5.5v-9.8h5.3v1.4h-3.6v2.8h3.4v1.4h-3.4v2.9h3.9v1.3h-.1zM37.3 321h-3.7v-1.2h3.7v1.2zM45.6 315.9h-2.8v8.4h-1.6v-8.4h-2.8v-1.4h7.2v1.4zM50.5 324.4c-1.4 0-2.5-.5-3.4-1.4-.8-.9-1.3-2.1-1.3-3.6 0-1.6.4-2.8 1.3-3.8.9-.9 2-1.4 3.5-1.4 1.4 0 2.5.5 3.3 1.4s1.3 2.1 1.3 3.6c0 1.6-.4 2.8-1.3 3.8-.8 1-2 1.4-3.4 1.4zm.1-8.6c-.9 0-1.6.3-2.2 1-.6.7-.8 1.5-.8 2.6s.3 2 .8 2.6c.5.7 1.3 1 2.1 1 .9 0 1.7-.3 2.2-.9.5-.6.8-1.5.8-2.6 0-1.2-.3-2.1-.8-2.7-.5-.6-1.2-1-2.1-1zM60.5 321h-3.7v-1.2h3.7v1.2zM62.2 323.9v-1.7c.1.1.3.3.5.4s.4.2.7.3c.2.1.5.1.7.2.2 0 .4.1.6.1.7 0 1.2-.1 1.5-.3.3-.2.5-.6.5-1 0-.2-.1-.4-.2-.6-.1-.2-.3-.3-.5-.5s-.4-.3-.7-.4c-.3-.1-.6-.3-.9-.4-.3-.2-.6-.4-.9-.5-.3-.2-.5-.4-.7-.6-.2-.2-.4-.5-.5-.7-.1-.2-.2-.6-.2-1 0-.5.1-.9.3-1.2.2-.3.5-.6.8-.8s.7-.4 1.2-.5.9-.2 1.3-.2c1 0 1.8.1 2.2.3v1.6c-.6-.4-1.3-.6-2.1-.6-.2 0-.5 0-.7.1-.2 0-.5.1-.6.2s-.3.2-.5.4-.2.4-.2.6c0 .2 0 .4.1.6.1.2.2.3.4.4s.4.3.6.4c.3.1.5.3.9.4.3.2.7.4 1 .6.3.2.6.4.8.6.2.2.4.5.5.8.1.3.2.6.2 1 0 .5-.1.9-.3 1.3-.2.3-.5.6-.8.8-.3.2-.7.4-1.2.5-.4.1-.9.1-1.4.1H64c-.2 0-.5-.1-.7-.1s-.5-.1-.7-.2c-.1-.3-.3-.3-.4-.4zM71.9 324.3h-1.7v-9.8h1.7v9.8zM80.5 315.9h-2.8v8.4h-1.6v-8.4h-2.8v-1.4h7.2v1.4zM87.4 324.3h-5.5v-9.8h5.3v1.4h-3.6v2.8H87v1.4h-3.4v2.9h3.9v1.3h-.1z"/></svg>