<?xml version="1.0" encoding="utf-8"?>
<!-- Generator: Adobe Illustrator 19.2.0, SVG Export Plug-In . SVG Version: 6.00 Build 0)  -->
<svg version="1.1" id="Layer_1" xmlns="http://www.w3.org/2000/svg" xmlns:xlink="http://www.w3.org/1999/xlink" x="0px" y="0px"
	 width="188px" height="475px" viewBox="0 0 188 475" style="enable-background:new 0 0 188 475;" xml:space="preserve">
<g>
	<g>
		<g>
			<path style="fill:#FFFFFF;stroke:#000000;stroke-width:3;stroke-linecap:round;stroke-linejoin:round;" d="M153.3,278.4
				c-5.3,32.8-36.1,55.1-68.9,49.9s-55.1-36.1-49.9-68.9c1.3-8.4,4.4-16.1,8.7-22.8c7.5-11.7,18.8-20.4,31.9-24.8
				c8.9-2.9,18.5-3.8,28.4-2.3C136.3,214.8,158.6,245.6,153.3,278.4z"/>
			<path style="fill:#FFFFFF;stroke:#000000;stroke-width:3;stroke-linecap:round;stroke-linejoin:round;" d="M142.6,276.7
				c-4.3,26.9-29.6,45.1-56.4,40.8S41,288,45.3,261.1c1.1-6.9,3.6-13.2,7.1-18.7c6.1-9.6,15.4-16.7,26.1-20.3
				c7.3-2.4,15.2-3.1,23.2-1.8C128.6,224.6,146.9,249.8,142.6,276.7z"/>
		</g>
		<g>
			<g>
				<g>
					<path id="outline_1_" style="fill:#394D54;" d="M104.1,265.3h2.6c1.2,0,2.4-0.2,3.5-0.6c0.5-0.2,1.2-0.4,1.7-0.8
						c-0.7-0.9-1.1-2.1-1.2-3.2c-0.1-1.6,0.2-3.6,1.2-4.8l0.5-0.6l0.6,0.5c1.6,1.3,2.9,3,3.2,5.1c1.9-0.6,4.2-0.4,5.9,0.5l0.7,0.4
						l-0.4,0.7c-1.4,2.8-4.4,3.6-7.4,3.5c-4.4,10.8-13.9,15.9-25.5,15.9c-6,0-11.5-2.2-14.6-7.5l-0.1-0.1l-0.5-0.9
						c-1.1-2.3-1.4-4.8-1.2-7.4l0.1-0.8h4.3h26.6C104.1,265.2,104.1,265.3,104.1,265.3z"/>
					<g id="body_colors_1_">
						<path style="fill:#01A9D9;" d="M115.4,262.1c0.3-2.6-1.6-4.7-2.9-5.6c-1.4,1.6-1.6,5.9,0.6,7.6c-1.2,1.1-3.8,2.1-6.5,2.1H74.2
							c-0.3,2.8,0.2,5.3,1.3,7.5l0.4,0.7c0.2,0.4,0.5,0.8,0.8,1.1l0,0c1.3,0.1,2.6,0.1,3.7,0.1l0,0c2.2,0,4-0.3,5.4-0.8
							c0.2-0.1,0.4,0,0.5,0.2s0,0.4-0.2,0.5s-0.4,0.1-0.6,0.2l0,0c-1.1,0.3-2.2,0.5-3.7,0.6c0.1,0-0.1,0-0.1,0c-0.1,0-0.1,0-0.2,0
							c-0.6,0-1.2,0-1.9,0c-0.7,0-1.4,0-2.2-0.1l0,0c2.7,3,6.9,4.8,12.2,4.8c11.2,0,20.7-4.9,24.9-16c3,0.3,5.9-0.5,7.2-3
							C119.7,261,117,261.3,115.4,262.1z"/>
						<path style="fill:#29B7EA;" d="M115.4,262.1c0.3-2.6-1.6-4.7-2.9-5.6c-1.4,1.6-1.6,5.9,0.6,7.6c-1.2,1.1-3.8,2.1-6.5,2.1H76.2
							c-0.1,4.2,1.4,7.4,4.2,9.4l0,0c2.2,0,4-0.3,5.4-0.8c0.2-0.1,0.4,0,0.5,0.2s0,0.4-0.2,0.5s-0.4,0.1-0.6,0.2l0,0
							c-1.1,0.3-2.3,0.5-3.8,0.6l0,0c3.8,1.9,9.3,1.9,15.7-0.5c7.1-2.7,13.7-7.9,18.3-13.8C115.6,262,115.5,262.1,115.4,262.1z"/>
						<path style="fill:#038AB8;" d="M74.3,269.5c0.2,1.5,0.6,2.9,1.3,4.1l0.4,0.7c0.2,0.4,0.5,0.8,0.8,1.1c1.3,0.1,2.6,0.1,3.7,0.1
							c2.2,0,4-0.3,5.4-0.8c0.2-0.1,0.4,0,0.5,0.2s0,0.4-0.2,0.5s-0.4,0.1-0.6,0.2l0,0c-1.1,0.3-2.3,0.5-3.8,0.6c-0.1,0-0.1,0-0.2,0
							c-0.6,0-1.2,0.1-1.9,0.1c-0.7,0-1.4,0-2.2-0.1c2.7,3,7,4.8,12.2,4.8c9.6,0,17.9-3.6,22.8-11.6L74.3,269.5L74.3,269.5z"/>
						<path style="fill:#009AC5;" d="M76.5,269.5c0.6,2.6,2,4.6,4,6c2.2,0,4-0.3,5.4-0.8c0.2-0.1,0.4,0,0.5,0.2s0,0.4-0.2,0.5
							s-0.4,0.1-0.6,0.2l0,0c-1.1,0.3-2.3,0.5-3.8,0.6c3.8,1.9,9.3,1.9,15.7-0.5c3.8-1.5,7.5-3.6,10.8-6.3L76.5,269.5L76.5,269.5z"
							/>
					</g>
					<path style="fill:#D3ECF0;" d="M87.8,272.5c0.7,0,1.2,0.5,1.2,1.2s-0.5,1.2-1.2,1.2s-1.2-0.5-1.2-1.2
						C86.6,273,87.1,272.5,87.8,272.5"/>
					<path style="fill:#394D54;" d="M87.8,272.8c0.1,0,0.2,0,0.3,0.1c-0.1,0.1-0.2,0.2-0.2,0.3c0,0.2,0.2,0.4,0.4,0.4
						c0.1,0,0.2-0.1,0.3-0.2c0,0.1,0.1,0.2,0.1,0.3c0,0.5-0.4,0.9-0.9,0.9s-0.9-0.4-0.9-0.9C87,273.2,87.3,272.8,87.8,272.8"/>
					<path style="fill:#394D54;" d="M66.4,270h26.5h3.3h26.5c-1.2-0.3-3.9-0.7-3.4-2.3c-2.2,2.6-7.6,1.8-9,0.5
						c-1.5,2.2-10.3,1.3-10.9-0.3c-1.9,2.2-7.8,2.2-9.7,0c-0.6,1.7-9.4,2.5-10.9,0.3c-1.4,1.3-6.7,2-9-0.5
						C70.3,269.2,67.6,269.7,66.4,270"/>
					<path style="fill:#BFDADF;" d="M91,281.1c-3-1.4-4.6-3.3-5.6-5.4c-1.1,0.3-2.5,0.5-4,0.6c-0.6,0-1.2,0-1.8,0
						c-0.7,0-1.5,0-2.4-0.1c2.7,2.7,6.1,4.8,12.4,4.9C90.1,281.1,90.6,281.1,91,281.1z"/>
					<path style="fill:#D3ECF0;" d="M86.6,277.6c-0.4-0.6-0.8-1.3-1.1-1.9c-1.1,0.3-2.5,0.5-4,0.6C82.5,276.9,84.1,277.4,86.6,277.6
						z"/>
				</g>
			</g>
			<g>
				<rect x="78.4" y="260.1" style="fill:#394D54;" width="6.1" height="6.1"/>
				<path style="fill:#24C1ED;" d="M83,261.3h0.3v3.6H83V261.3z M82.3,261.3h0.4v3.6h-0.4V261.3z M81.6,261.3H82v3.6h-0.4V261.3z
					 M81,261.3h0.4v3.6H81V261.3z M80.3,261.3h0.4v3.6h-0.4V261.3z M79.6,261.3H80v3.6h-0.3L79.6,261.3L79.6,261.3z M79.3,260.9h4.4
					v4.4h-4.4V260.9z"/>
			</g>
			<g>
				<rect x="83.7" y="260.1" style="fill:#394D54;" width="6.1" height="6.1"/>
				<path style="fill:#00ABD1;" d="M88.2,261.3h0.3v3.6h-0.3V261.3z M87.6,261.3H88v3.6h-0.4V261.3z M86.9,261.3h0.4v3.6h-0.4V261.3
					z M86.2,261.3h0.4v3.6h-0.4V261.3z M85.6,261.3H86v3.6h-0.4V261.3z M84.9,261.3h0.3v3.6h-0.3V261.3z M84.5,260.9h4.4v4.4h-4.4
					V260.9z"/>
			</g>
			<g>
				<rect x="88.9" y="260.1" style="fill:#394D54;" width="6.1" height="6.1"/>
				<path style="fill:#24C1ED;" d="M93.5,261.3h0.3v3.6h-0.3V261.3z M92.8,261.3h0.4v3.6h-0.4V261.3z M92.1,261.3h0.4v3.6h-0.4
					V261.3z M91.5,261.3h0.4v3.6h-0.4V261.3z M90.8,261.3h0.4v3.6h-0.4V261.3z M90.2,261.3h0.3v3.6h-0.3V261.3z M89.8,260.9h4.4v4.4
					h-4.4V260.9z"/>
			</g>
			<g>
				<rect x="94.2" y="260.1" style="fill:#394D54;" width="6.1" height="6.1"/>
				<path style="fill:#24C1ED;" d="M98.7,261.3H99v3.6h-0.3V261.3z M98.1,261.3h0.4v3.6h-0.4V261.3z M97.4,261.3h0.4v3.6h-0.4V261.3
					z M96.7,261.3h0.4v3.6h-0.4V261.3z M96.1,261.3h0.4v3.6h-0.4V261.3z M95.4,261.3h0.3v3.6h-0.3V261.3z M95,260.9h4.4v4.4H95
					V260.9z"/>
			</g>
			<g>
				<rect x="83.7" y="254.8" style="fill:#394D54;" width="6.1" height="6.1"/>
				<path style="fill:#00ABD1;" d="M88.2,256.1h0.3v3.6h-0.3V256.1z M87.6,256.1H88v3.6h-0.4V256.1z M86.9,256.1h0.4v3.6h-0.4V256.1
					z M86.2,256.1h0.4v3.6h-0.4V256.1z M85.6,256.1H86v3.6h-0.4V256.1z M84.9,256.1h0.3v3.6h-0.3V256.1z M84.5,255.7h4.4v4.4h-4.4
					V255.7z"/>
			</g>
			<g>
				<rect x="88.9" y="254.8" style="fill:#394D54;" width="6.1" height="6.1"/>
				<path style="fill:#24C1ED;" d="M93.5,256.1h0.3v3.6h-0.3V256.1z M92.8,256.1h0.4v3.6h-0.4V256.1z M92.1,256.1h0.4v3.6h-0.4
					V256.1z M91.5,256.1h0.4v3.6h-0.4V256.1z M90.8,256.1h0.4v3.6h-0.4V256.1z M90.2,256.1h0.3v3.6h-0.3V256.1z M89.8,255.7h4.4v4.4
					h-4.4V255.7z"/>
			</g>
			<g>
				<rect x="94.2" y="249.6" style="fill:#394D54;" width="6.1" height="6.1"/>
				<path style="fill:#24C1ED;" d="M98.7,250.8H99v3.6h-0.3V250.8z M98.1,250.8h0.4v3.6h-0.4V250.8z M97.4,250.8h0.4v3.6h-0.4V250.8
					z M96.7,250.8h0.4v3.6h-0.4V250.8z M96.1,250.8h0.4v3.6h-0.4V250.8z M95.4,250.8h0.3v3.6h-0.3V250.8z M95,250.5h4.4v4.4H95
					V250.5z"/>
			</g>
			<g>
				
					<rect x="78.4" y="237.1" transform="matrix(0.4635 -0.8861 0.8861 0.4635 -169.1248 201.001)" style="fill:#394D54;" width="6.1" height="6.1"/>
				<path style="fill:#24C1ED;" d="M80.5,238l0.2-0.3l3.2,1.7l-0.2,0.3L80.5,238z M80.2,238.6l0.2-0.3l3.2,1.7l-0.2,0.3L80.2,238.6z
					 M79.9,239.2l0.2-0.3l3.2,1.7l-0.2,0.3L79.9,239.2z M79.6,239.8l0.2-0.3l3.2,1.7l-0.2,0.3L79.6,239.8z M79.3,240.4l0.2-0.3
					l3.2,1.7l-0.2,0.3L79.3,240.4z M79,240.9l0.2-0.3l3.2,1.7l-0.2,0.3L79,240.9z M78.5,241.1l2-3.9l3.9,2l-2,3.9L78.5,241.1z"/>
			</g>
			<g>
				<rect x="94.2" y="254.8" style="fill:#394D54;" width="6.1" height="6.1"/>
				<path style="fill:#00ABD1;" d="M98.7,256.1H99v3.6h-0.3V256.1z M98.1,256.1h0.4v3.6h-0.4V256.1z M97.4,256.1h0.4v3.6h-0.4V256.1
					z M96.7,256.1h0.4v3.6h-0.4V256.1z M96.1,256.1h0.4v3.6h-0.4V256.1z M95.4,256.1h0.3v3.6h-0.3V256.1z M95,255.7h4.4v4.4H95
					V255.7z"/>
			</g>
			<g>
				<rect x="99.5" y="260.1" style="fill:#394D54;" width="6.1" height="6.1"/>
				<path style="fill:#24C1ED;" d="M104,261.3h0.3v3.6H104V261.3z M103.3,261.3h0.4v3.6h-0.4V261.3z M102.7,261.3h0.4v3.6h-0.4
					V261.3z M102,261.3h0.4v3.6H102V261.3z M101.3,261.3h0.4v3.6h-0.4V261.3z M100.7,261.3h0.3v3.6h-0.3V261.3z M100.3,260.9h4.4
					v4.4h-4.4V260.9z"/>
			</g>
			<path style="fill:#394D54;" d="M107.9,296.2c1.3-1.1,2.5-2.2,3.8-3.2c0.4-0.4,0.9-0.8,1.3-1.1c-0.3-0.4-0.9-0.7-1.4-0.9
				c-1-0.4-2-0.2-2.9,0.3c-1.2,0.7-1.7,1.8-1.6,3.1c0,0.5,0.2,1,0.4,1.5C107.7,295.9,107.8,296,107.9,296.2 M109.4,297.2
				c0.6,0.2,1.3,0.2,2,0.1c0.3-0.1,1.2-0.5,1.5-0.4l0,0l0,0c0.2,0.1,0.4,0.2,0.5,0.4c0.2,0.4,0.1,0.9-0.3,1.1l-0.1,0.1
				c-1.6,0.9-3.3,0.8-5-0.1c-0.8-0.4-1.4-1-1.8-1.8l-0.1-0.2c-1-1.8-0.9-3.7,0.3-5.4c0.4-0.6,0.9-1,1.6-1.4l0.2-0.1
				c1.5-0.9,3.2-0.8,4.7,0c0.8,0.4,1.5,1,2,1.8l0.1,0.1c0.3,0.6-0.1,1.1-0.6,1.4c-0.5,0.4-1.1,0.9-1.6,1.3
				C111.6,295.3,110.5,296.2,109.4,297.2z M121.5,289.1h0.2c0.5,0,0.9,0.3,0.9,0.8c0,0.7-0.7,0.9-1.3,0.9c-0.8,0-1.5,0.5-2,1
				c-0.7,0.6-0.9,1.5-0.9,2.4v4.1c0,0.5-0.3,0.8-0.8,0.8h-0.1c-0.5,0-0.8-0.4-0.8-0.8V294c0-1.7,0.8-3,2.2-4
				C119.6,289.4,120.5,289.1,121.5,289.1z M100.2,292c0.7-0.7,1.3-1.3,2-2c0.2-0.2,0.9-0.9,1.2-0.9h0.3l0,0c0.4,0.1,0.7,0.3,0.7,0.7
				v0.2c0,0.3-0.3,0.6-0.5,0.8c-0.4,0.4-0.8,0.8-1.2,1.2l-2.1,2.1c0.9,0.9,1.8,1.8,2.7,2.7c0.2,0.2,0.5,0.5,0.7,0.7
				c0.1,0.1,0.2,0.2,0.3,0.3c0.1,0.1,0.1,0.2,0.1,0.4v0.2l0,0c-0.1,0.4-0.3,0.7-0.8,0.7h-0.1c-0.3,0-0.6-0.3-0.8-0.5
				c-0.4-0.4-0.8-0.8-1.2-1.1l-1.3-1.3v2c0,0.5-0.3,0.8-0.8,0.8h-0.1c-0.5,0-0.8-0.4-0.8-0.8v-11.5c0-0.5,0.3-0.8,0.8-0.8h0.1
				c0.5,0,0.8,0.4,0.8,0.8C100.2,286.7,100.2,292,100.2,292z M94.7,290.8c-0.3-0.1-0.7-0.2-1-0.2c-1.4-0.1-2.5,0.7-3.1,2
				c-0.2,0.4-0.3,0.9-0.3,1.4c0,1.4,0.8,2.5,2.1,3.1c0.5,0.2,1.1,0.3,1.6,0.3s1.1-0.3,1.5-0.5h0.1h0.3l0,0c0.4,0.1,0.7,0.3,0.7,0.7
				v0.2c0,1-1.9,1.3-2.6,1.3c-2.6,0.2-4.5-1.2-5.2-3.6c-0.1-0.4-0.2-0.8-0.2-1.3v-0.3c0-1.8,0.9-3.3,2.5-4.2
				c0.7-0.4,1.6-0.7,2.4-0.7h0.3c0.9,0,1.7,0.3,2.5,0.8h0.1v0.1c0.1,0.1,0.2,0.3,0.2,0.4v0.2c0,0.4-0.3,0.7-0.7,0.7l0,0h-0.1
				C95.5,291.2,94.9,290.9,94.7,290.8z M79.1,294.1c0,1.3,0.6,2.2,1.7,2.9c0.5,0.3,1.1,0.5,1.7,0.5c1.3,0,2.2-0.6,2.9-1.7
				c0.3-0.5,0.5-1.1,0.5-1.7c0-1.2-0.6-2.1-1.6-2.8c-0.5-0.4-1.2-0.5-1.8-0.5c-1.4,0-2.5,0.7-3.1,2
				C79.2,293.1,79.1,293.6,79.1,294.1z M82.3,289h0.2c2,0,3.5,1,4.4,2.7c0.4,0.7,0.6,1.4,0.6,2.2v0.3c0,1.8-0.9,3.3-2.5,4.2
				c-0.7,0.4-1.6,0.7-2.4,0.7h-0.3c-1.9,0-3.3-0.9-4.3-2.5c-0.4-0.7-0.7-1.5-0.7-2.4v-0.3c0-1.8,0.9-3.3,2.5-4.2
				C80.7,289.2,81.5,289,82.3,289z M68,294.1c0,1.3,0.6,2.3,1.8,3c0.5,0.3,1,0.4,1.5,0.4c1.3,0,2.3-0.6,3-1.7
				c0.3-0.5,0.5-1.1,0.5-1.7c0-1.1-0.5-2-1.5-2.7c-0.6-0.4-1.2-0.6-1.9-0.6c-1.4,0-2.5,0.7-3.1,2C68.1,293.1,68,293.6,68,294.1z
				 M74.7,290.3v-3.6c0-0.5,0.3-0.8,0.8-0.8h0.1c0.5,0,0.8,0.4,0.8,0.8v7.5c0,1.8-0.9,3.3-2.5,4.2c-0.7,0.4-1.6,0.7-2.4,0.7h-0.3
				c-1.9,0-3.3-0.9-4.3-2.5c-0.4-0.7-0.7-1.5-0.7-2.4v-0.3c0-1.8,0.9-3.3,2.5-4.2c0.7-0.4,1.6-0.7,2.4-0.7h0.3
				C72.8,289,73.8,289.5,74.7,290.3z"/>
		</g>
	</g>
	<g>
		<path d="M18.4,363h-1.6v-6.3c0-0.5,0-1.2,0.1-1.9l0,0c-0.1,0.4-0.2,0.7-0.3,0.9l-2.9,7.3h-1.1l-2.9-7.3c-0.1-0.2-0.2-0.5-0.3-1
			l0,0c0,0.4,0.1,1,0.1,1.9v6.3H7.9v-9.8h2.3l2.6,6.5c0.2,0.5,0.3,0.9,0.4,1.1l0,0c0.2-0.5,0.3-0.9,0.4-1.1l2.6-6.5h2.2V363z"/>
		<path d="M28.9,363h-1.8l-0.9-2.5h-3.9l-0.8,2.5h-1.8l3.7-9.8h1.8L28.9,363z M25.8,359.2l-1.4-3.9c0-0.1-0.1-0.3-0.1-0.6l0,0
			c0,0.3-0.1,0.5-0.1,0.6l-1.3,3.9H25.8z"/>
		<path d="M38.6,363h-1.8l-4.7-7.2c-0.1-0.2-0.2-0.4-0.3-0.6l0,0c0,0.2,0.1,0.7,0.1,1.3v6.4h-1.6v-9.8h1.9l4.5,7
			c0.2,0.3,0.3,0.5,0.4,0.6l0,0c0-0.3-0.1-0.7-0.1-1.3v-6.3h1.6C38.6,353.1,38.6,363,38.6,363z"/>
		<path d="M49,363h-1.8l-0.9-2.5h-3.9l-0.8,2.5h-1.8l3.7-9.8h1.8L49,363z M45.9,359.2l-1.4-3.9c0-0.1-0.1-0.3-0.1-0.6l0,0
			c0,0.3-0.1,0.5-0.1,0.6l-1.3,3.9H45.9z"/>
		<path d="M57.9,362.4c-1,0.6-2.2,0.8-3.4,0.8c-1.4,0-2.6-0.5-3.5-1.4s-1.3-2.1-1.3-3.6s0.5-2.8,1.5-3.7c1-1,2.2-1.5,3.7-1.5
			c1.1,0,2,0.2,2.7,0.5v1.7c-0.8-0.5-1.6-0.8-2.7-0.8c-1,0-1.9,0.3-2.6,1c-0.7,0.7-1,1.6-1,2.7s0.3,2,0.9,2.7c0.6,0.6,1.4,1,2.3,1
			c0.7,0,1.3-0.1,1.8-0.4v-2.3h-2.1v-1.4h3.7C57.9,357.7,57.9,362.4,57.9,362.4z"/>
		<path d="M65.5,363H60v-9.8h5.3v1.4h-3.7v2.8H65v1.4h-3.4v2.9h3.9V363z"/>
		<path d="M77.8,363h-1.6v-6.3c0-0.5,0-1.2,0.1-1.9l0,0c-0.1,0.4-0.2,0.7-0.3,0.9l-3,7.3h-1.1l-2.9-7.3c-0.1-0.2-0.2-0.5-0.3-1l0,0
			c0,0.4,0.1,1,0.1,1.9v6.3h-1.5v-9.8h2.3l2.6,6.5c0.2,0.5,0.3,0.9,0.4,1.1l0,0c0.2-0.5,0.3-0.9,0.4-1.1l2.6-6.5h2.2
			C77.8,353.1,77.8,363,77.8,363z"/>
		<path d="M85.7,363h-5.5v-9.8h5.3v1.4h-3.7v2.8h3.4v1.4h-3.4v2.9h3.9C85.7,361.7,85.7,363,85.7,363z"/>
		<path d="M95.7,363h-1.8l-4.7-7.2c-0.1-0.2-0.2-0.4-0.3-0.6l0,0c0,0.2,0.1,0.7,0.1,1.3v6.4h-1.6v-9.8h1.9l4.5,7
			c0.2,0.3,0.3,0.5,0.4,0.6l0,0c0-0.3-0.1-0.7-0.1-1.3v-6.3h1.6V363z"/>
		<path d="M104.4,354.6h-2.8v8.4H100v-8.4h-2.8v-1.4h7.3L104.4,354.6L104.4,354.6z"/>
		<path d="M116,354.6h-2.8v8.4h-1.6v-8.4h-2.8v-1.4h7.3L116,354.6L116,354.6z"/>
		<path d="M120.9,363.2c-1.4,0-2.5-0.5-3.4-1.4c-0.8-0.9-1.3-2.1-1.3-3.6c0-1.6,0.4-2.8,1.3-3.8s2-1.4,3.5-1.4
			c1.4,0,2.5,0.5,3.3,1.4s1.3,2.1,1.3,3.6c0,1.6-0.4,2.9-1.3,3.8S122.3,363.2,120.9,363.2z M121,354.5c-0.9,0-1.6,0.3-2.2,1
			s-0.8,1.6-0.8,2.6c0,1.1,0.3,2,0.8,2.6s1.3,1,2.1,1c0.9,0,1.7-0.3,2.2-1s0.8-1.5,0.8-2.7s-0.3-2.1-0.8-2.7
			C122.6,354.8,121.9,354.5,121,354.5z"/>
		<path d="M131.5,363.2c-1.4,0-2.5-0.5-3.4-1.4c-0.8-0.9-1.3-2.1-1.3-3.6c0-1.6,0.4-2.8,1.3-3.8c0.9-1,2-1.4,3.5-1.4
			c1.4,0,2.5,0.5,3.3,1.4s1.3,2.1,1.3,3.6c0,1.6-0.4,2.9-1.3,3.8S132.9,363.2,131.5,363.2z M131.6,354.5c-0.9,0-1.6,0.3-2.2,1
			c-0.6,0.7-0.8,1.6-0.8,2.6c0,1.1,0.3,2,0.8,2.6s1.3,1,2.1,1c0.9,0,1.7-0.3,2.2-1s0.8-1.5,0.8-2.7s-0.3-2.1-0.8-2.7
			C133.2,354.8,132.5,354.5,131.6,354.5z"/>
		<path d="M143.5,363H138v-9.8h1.6v8.4h3.8L143.5,363L143.5,363z"/>
		<path d="M144.4,362.6V361c0.2,0.1,0.3,0.3,0.5,0.4s0.4,0.2,0.7,0.3c0.2,0.1,0.5,0.1,0.7,0.2s0.4,0.1,0.6,0.1
			c0.7,0,1.2-0.1,1.5-0.3c0.3-0.2,0.5-0.6,0.5-1c0-0.2-0.1-0.4-0.2-0.6c-0.1-0.2-0.3-0.3-0.5-0.5s-0.4-0.3-0.7-0.4s-0.6-0.3-0.9-0.4
			c-0.3-0.2-0.6-0.4-0.9-0.5s-0.5-0.4-0.7-0.6s-0.4-0.5-0.5-0.7c-0.1-0.3-0.2-0.6-0.2-1c0-0.5,0.1-0.9,0.3-1.2
			c0.2-0.3,0.5-0.6,0.8-0.8c0.3-0.2,0.7-0.4,1.2-0.5c0.4-0.1,0.9-0.2,1.3-0.2c1,0,1.8,0.1,2.2,0.3v1.6c-0.6-0.4-1.3-0.6-2.1-0.6
			c-0.2,0-0.5,0-0.7,0.1c-0.2,0-0.5,0.1-0.6,0.2c-0.2,0.1-0.3,0.2-0.5,0.4s-0.2,0.4-0.2,0.6s0,0.4,0.1,0.6s0.2,0.3,0.4,0.4
			s0.4,0.3,0.6,0.4c0.3,0.1,0.5,0.3,0.9,0.4c0.3,0.2,0.7,0.4,1,0.6s0.6,0.4,0.8,0.6s0.4,0.5,0.5,0.8s0.2,0.6,0.2,1
			c0,0.5-0.1,0.9-0.3,1.3s-0.5,0.6-0.8,0.8c-0.3,0.2-0.7,0.4-1.2,0.5s-0.9,0.1-1.4,0.1c-0.2,0-0.4,0-0.6,0c-0.2,0-0.5-0.1-0.7-0.1
			c-0.3,0-0.5-0.1-0.7-0.2S144.6,362.7,144.4,362.6z"/>
		<path d="M161.6,354.6H158v2.9h3.4v1.4H158v4.1h-1.6v-9.8h5.3L161.6,354.6L161.6,354.6z"/>
		<path d="M167.4,363.2c-1.4,0-2.5-0.5-3.4-1.4c-0.8-0.9-1.3-2.1-1.3-3.6c0-1.6,0.4-2.8,1.3-3.8s2-1.4,3.5-1.4
			c1.4,0,2.5,0.5,3.3,1.4s1.3,2.1,1.3,3.6c0,1.6-0.4,2.9-1.3,3.8S168.9,363.2,167.4,363.2z M167.5,354.5c-0.9,0-1.6,0.3-2.2,1
			c-0.6,0.7-0.8,1.6-0.8,2.6c0,1.1,0.3,2,0.8,2.6s1.3,1,2.1,1c0.9,0,1.7-0.3,2.2-1s0.8-1.5,0.8-2.7s-0.3-2.1-0.8-2.7
			C169.1,354.8,168.4,354.5,167.5,354.5z"/>
		<path d="M181.5,363h-1.9l-1.6-2.6c-0.1-0.2-0.3-0.4-0.4-0.6c-0.1-0.2-0.3-0.3-0.4-0.4c-0.1-0.1-0.3-0.2-0.5-0.2s-0.3-0.1-0.6-0.1
			h-0.7v4H174v-9.8h3.2c0.5,0,0.9,0.1,1.3,0.2s0.7,0.3,1,0.5s0.5,0.5,0.7,0.8s0.2,0.7,0.2,1.2c0,0.3-0.1,0.7-0.2,1
			c-0.1,0.3-0.2,0.5-0.4,0.8c-0.2,0.2-0.4,0.4-0.7,0.6s-0.6,0.3-0.9,0.4l0,0c0.2,0.1,0.3,0.2,0.5,0.3c0.1,0.1,0.3,0.2,0.4,0.4
			s0.2,0.3,0.4,0.4c0.1,0.2,0.2,0.3,0.4,0.6L181.5,363z M175.6,354.5v3.2h1.4c0.3,0,0.5,0,0.7-0.1s0.4-0.2,0.6-0.3s0.3-0.3,0.4-0.5
			s0.1-0.4,0.1-0.7c0-0.5-0.1-0.8-0.4-1.1s-0.7-0.4-1.3-0.4h-1.5V354.5z"/>
		<path d="M7.9,379.8V370h2.8c3.6,0,5.4,1.6,5.4,4.8c0,1.5-0.5,2.7-1.5,3.6s-2.3,1.4-4,1.4H7.9z M9.5,371.4v7h1.3
			c1.1,0,2-0.3,2.7-0.9c0.6-0.6,1-1.5,1-2.7c0-2.3-1.2-3.4-3.6-3.4H9.5z"/>
		<path d="M22,380c-1.4,0-2.5-0.5-3.4-1.4c-0.8-0.9-1.3-2.1-1.3-3.6c0-1.6,0.4-2.8,1.3-3.8s2-1.4,3.5-1.4c1.4,0,2.5,0.5,3.3,1.4
			s1.3,2.1,1.3,3.6c0,1.6-0.4,2.9-1.3,3.8S23.4,380,22,380z M22.1,371.3c-0.9,0-1.6,0.3-2.2,1s-0.8,1.6-0.8,2.6c0,1.1,0.3,2,0.8,2.6
			s1.3,1,2.1,1c0.9,0,1.7-0.3,2.2-1s0.8-1.5,0.8-2.7s-0.3-2.1-0.8-2.7C23.7,371.6,23,371.3,22.1,371.3z"/>
		<path d="M35.4,379.4c-0.7,0.4-1.7,0.6-2.8,0.6c-1.4,0-2.6-0.4-3.4-1.3s-1.3-2.1-1.3-3.5c0-1.6,0.5-2.8,1.4-3.8
			c1-1,2.2-1.4,3.7-1.4c0.9,0,1.7,0.1,2.4,0.4v1.6c-0.7-0.4-1.4-0.6-2.2-0.6c-1.1,0-1.9,0.3-2.6,1s-1,1.6-1,2.7s0.3,1.9,0.9,2.6
			c0.6,0.6,1.4,1,2.4,1c0.9,0,1.7-0.2,2.4-0.7L35.4,379.4L35.4,379.4z"/>
		<path d="M44.6,379.8h-2.1l-3.4-4.5c-0.1-0.2-0.2-0.3-0.2-0.3l0,0v4.8h-1.6V370h1.6v4.6l0,0c0.1-0.1,0.1-0.2,0.2-0.3l3.3-4.3h1.9
			l-3.8,4.7L44.6,379.8z"/>
		<path d="M51.3,379.8h-5.5V370h5.3v1.4h-3.7v2.8h3.4v1.4h-3.4v2.9h3.9V379.8z"/>
		<path d="M60.6,379.8h-1.9l-1.6-2.6c-0.1-0.2-0.3-0.4-0.4-0.6c-0.1-0.2-0.3-0.3-0.4-0.4c-0.1-0.1-0.3-0.2-0.5-0.2s-0.3-0.1-0.6-0.1
			h-0.7v4H53V370h3.2c0.5,0,0.9,0.1,1.3,0.2s0.7,0.3,1,0.5s0.5,0.5,0.7,0.8s0.2,0.7,0.2,1.2c0,0.3-0.1,0.7-0.2,1
			c-0.1,0.3-0.2,0.5-0.4,0.8c-0.2,0.2-0.4,0.4-0.7,0.6s-0.6,0.3-0.9,0.4l0,0c0.2,0.1,0.3,0.2,0.5,0.3c0.1,0.1,0.3,0.2,0.4,0.4
			s0.2,0.3,0.4,0.4c0.1,0.2,0.2,0.3,0.4,0.6L60.6,379.8z M54.6,371.3v3.2H56c0.3,0,0.5,0,0.7-0.1s0.4-0.2,0.6-0.3s0.3-0.3,0.4-0.5
			s0.1-0.4,0.1-0.7c0-0.5-0.1-0.8-0.4-1.1s-0.7-0.4-1.3-0.4h-1.5V371.3z"/>
		<path d="M7.9,413.4v-9.8h2.8c3.6,0,5.4,1.6,5.4,4.8c0,1.5-0.5,2.7-1.5,3.6s-2.3,1.4-4,1.4H7.9z M9.5,405v7h1.3
			c1.1,0,2-0.3,2.7-0.9c0.6-0.6,1-1.5,1-2.7c0-2.3-1.2-3.4-3.6-3.4H9.5z"/>
		<path d="M20.9,413.6c-1.1,0-1.9-0.3-2.6-1c-0.6-0.7-1-1.5-1-2.6c0-1.2,0.3-2.1,1-2.8c0.7-0.7,1.6-1,2.7-1s1.9,0.3,2.6,1
			s0.9,1.5,0.9,2.7c0,1.1-0.3,2-1,2.7C22.9,413.3,22,413.6,20.9,413.6z M20.9,407.5c-0.6,0-1.1,0.2-1.5,0.6s-0.5,1-0.5,1.8
			c0,0.7,0.2,1.3,0.5,1.7c0.4,0.4,0.9,0.6,1.5,0.6s1.1-0.2,1.4-0.6s0.5-1,0.5-1.8s-0.2-1.4-0.5-1.8C22,407.7,21.6,407.5,20.9,407.5z
			"/>
		<path d="M31.1,413.1c-0.6,0.3-1.2,0.5-2,0.5c-1,0-1.9-0.3-2.5-1c-0.6-0.6-1-1.5-1-2.5c0-1.2,0.3-2.1,1-2.8c0.7-0.7,1.6-1,2.8-1
			c0.6,0,1.2,0.1,1.7,0.3v1.5c-0.5-0.4-1-0.5-1.6-0.5c-0.7,0-1.2,0.2-1.6,0.7s-0.6,1-0.6,1.8c0,0.7,0.2,1.3,0.6,1.7
			c0.4,0.4,0.9,0.6,1.6,0.6c0.6,0,1.1-0.2,1.6-0.6V413.1z"/>
		<path d="M39.1,413.4h-2l-2.7-3.4l0,0v3.4h-1.6V403h1.6v6.6l0,0l2.6-3.2h1.9l-2.9,3.4L39.1,413.4z"/>
		<path d="M45.7,410.4H41c0,0.6,0.2,1.1,0.6,1.5c0.4,0.4,0.9,0.5,1.6,0.5c0.7,0,1.4-0.2,2.1-0.7v1.3c-0.6,0.4-1.5,0.6-2.5,0.6
			s-1.8-0.3-2.4-1c-0.6-0.6-0.9-1.5-0.9-2.7c0-1.1,0.3-2,1-2.7c0.6-0.7,1.4-1,2.4-1s1.7,0.3,2.2,0.9s0.8,1.5,0.8,2.6v0.7L45.7,410.4
			L45.7,410.4z M44.2,409.2c0-0.6-0.1-1-0.4-1.3c-0.3-0.3-0.6-0.5-1.1-0.5s-0.8,0.2-1.2,0.5c-0.3,0.3-0.5,0.8-0.6,1.3H44.2z"/>
		<path d="M51.3,407.9c-0.2-0.2-0.5-0.2-0.8-0.2c-0.5,0-0.9,0.2-1.2,0.6s-0.5,1-0.5,1.7v3.3h-1.6v-7h1.6v1.4l0,0
			c0.2-0.5,0.4-0.9,0.7-1.2c0.3-0.3,0.7-0.4,1.1-0.4c0.3,0,0.5,0,0.7,0.1V407.9z"/>
		<path d="M67,413.4h-1.6v-6.3c0-0.5,0-1.2,0.1-1.9l0,0c-0.1,0.4-0.2,0.7-0.3,0.9l-2.9,7.3h-1.1l-2.9-7.3c-0.1-0.2-0.2-0.5-0.3-1
			l0,0c0,0.4,0.1,1,0.1,1.9v6.3h-1.5v-9.8h2.3l2.6,6.5c0.2,0.5,0.3,0.9,0.4,1.1l0,0c0.2-0.5,0.3-0.9,0.4-1.1l2.6-6.5H67V413.4z"/>
		<path d="M74.6,413.4h-1.5v-1.1l0,0c-0.5,0.8-1.2,1.3-2.1,1.3c-0.7,0-1.2-0.2-1.6-0.6s-0.6-0.9-0.6-1.5c0-1.3,0.8-2.1,2.3-2.3
			l2.1-0.3c0-1-0.5-1.5-1.4-1.5c-0.8,0-1.6,0.3-2.3,0.9v-1.4c0.7-0.4,1.6-0.7,2.6-0.7c1.8,0,2.7,0.9,2.7,2.6v4.6H74.6z M73.1,410
			l-1.5,0.2c-0.5,0.1-0.8,0.2-1,0.3c-0.2,0.2-0.3,0.4-0.3,0.9c0,0.3,0.1,0.5,0.3,0.7c0.2,0.2,0.5,0.3,0.9,0.3c0.5,0,0.9-0.2,1.2-0.5
			c0.3-0.3,0.5-0.8,0.5-1.3L73.1,410L73.1,410z"/>
		<path d="M81.5,413.1c-0.6,0.3-1.2,0.5-2,0.5c-1,0-1.9-0.3-2.5-1c-0.6-0.6-1-1.5-1-2.5c0-1.2,0.3-2.1,1-2.8c0.7-0.7,1.6-1,2.8-1
			c0.6,0,1.2,0.1,1.7,0.3v1.5c-0.5-0.4-1-0.5-1.6-0.5c-0.7,0-1.2,0.2-1.6,0.7s-0.6,1-0.6,1.8c0,0.7,0.2,1.3,0.6,1.7
			c0.4,0.4,0.9,0.6,1.6,0.6c0.6,0,1.1-0.2,1.6-0.6V413.1z"/>
		<path d="M89.3,413.4h-1.6v-3.8c0-1.4-0.5-2.1-1.4-2.1c-0.5,0-0.9,0.2-1.2,0.6s-0.5,0.9-0.5,1.5v3.8H83V403h1.6v4.5l0,0
			c0.5-0.9,1.3-1.3,2.3-1.3c1.6,0,2.3,1,2.3,2.9L89.3,413.4L89.3,413.4z"/>
		<path d="M92.1,405c-0.3,0-0.5-0.1-0.7-0.3c-0.2-0.2-0.3-0.4-0.3-0.6s0.1-0.5,0.3-0.6c0.2-0.2,0.4-0.3,0.7-0.3
			c0.3,0,0.5,0.1,0.7,0.3s0.3,0.4,0.3,0.6s-0.1,0.5-0.3,0.6C92.6,404.9,92.3,405,92.1,405z M92.8,413.4h-1.6v-7h1.6V413.4z"/>
		<path d="M101.2,413.4h-1.6v-3.9c0-1.3-0.5-2-1.4-2c-0.5,0-0.9,0.2-1.2,0.5c-0.3,0.4-0.5,0.8-0.5,1.4v4h-1.6v-7h1.6v1.2l0,0
			c0.5-0.9,1.3-1.3,2.3-1.3c0.8,0,1.3,0.2,1.7,0.7c0.4,0.5,0.6,1.2,0.6,2.1L101.2,413.4L101.2,413.4z"/>
		<path d="M109,410.4h-4.8c0,0.6,0.2,1.1,0.6,1.5s0.9,0.5,1.6,0.5s1.4-0.2,2.1-0.7v1.3c-0.6,0.4-1.5,0.6-2.5,0.6s-1.8-0.3-2.4-1
			c-0.6-0.6-0.9-1.5-0.9-2.7c0-1.1,0.3-2,1-2.7c0.6-0.7,1.4-1,2.4-1s1.7,0.3,2.2,0.9s0.8,1.5,0.8,2.6L109,410.4L109,410.4z
			 M107.5,409.2c0-0.6-0.1-1-0.4-1.3s-0.6-0.5-1.1-0.5s-0.8,0.2-1.2,0.5c-0.3,0.3-0.5,0.8-0.6,1.3H107.5z"/>
		<path d="M110.1,413.2v-1.5c0.6,0.5,1.2,0.7,2,0.7c1,0,1.4-0.3,1.4-0.8c0-0.2,0-0.3-0.1-0.4s-0.2-0.2-0.3-0.3
			c-0.1-0.1-0.3-0.2-0.5-0.2c-0.2-0.1-0.4-0.1-0.6-0.2c-0.3-0.1-0.5-0.2-0.8-0.4c-0.2-0.1-0.4-0.3-0.6-0.4c-0.2-0.2-0.3-0.3-0.3-0.6
			s-0.1-0.4-0.1-0.7c0-0.3,0.1-0.6,0.2-0.9c0.2-0.3,0.4-0.5,0.6-0.7c0.3-0.2,0.6-0.3,0.9-0.4s0.7-0.1,1.1-0.1c0.6,0,1.2,0.1,1.7,0.3
			v1.4c-0.5-0.3-1.1-0.5-1.7-0.5c-0.2,0-0.4,0-0.5,0.1c-0.2,0-0.3,0.1-0.4,0.2s-0.2,0.2-0.3,0.3c-0.1,0.1-0.1,0.2-0.1,0.3
			c0,0.2,0,0.3,0.1,0.4s0.2,0.2,0.3,0.3c0.1,0.1,0.3,0.2,0.5,0.2c0.2,0.1,0.4,0.1,0.6,0.2c0.3,0.1,0.6,0.2,0.8,0.4
			c0.2,0.1,0.4,0.3,0.6,0.4c0.2,0.2,0.3,0.3,0.4,0.6c0.1,0.2,0.1,0.5,0.1,0.8c0,0.4-0.1,0.7-0.2,0.9s-0.4,0.5-0.7,0.7
			s-0.6,0.3-0.9,0.4c-0.4,0.1-0.7,0.1-1.1,0.1C111.3,413.6,110.6,413.5,110.1,413.2z"/>
		<path d="M118,411.8l-1.1,3.4h-1.2l0.8-3.4H118z"/>
		<path d="M124,413.4v-9.8h2.8c3.6,0,5.4,1.6,5.4,4.8c0,1.5-0.5,2.7-1.5,3.6s-2.3,1.4-4,1.4H124z M125.6,405v7h1.3
			c1.1,0,2-0.3,2.7-0.9c0.6-0.6,1-1.5,1-2.7c0-2.3-1.2-3.4-3.6-3.4H125.6z"/>
		<path d="M136.9,413.6c-1.1,0-1.9-0.3-2.6-1c-0.6-0.7-1-1.5-1-2.6c0-1.2,0.3-2.1,1-2.8c0.7-0.7,1.6-1,2.7-1c1.1,0,1.9,0.3,2.6,1
			s0.9,1.5,0.9,2.7c0,1.1-0.3,2-1,2.7C138.9,413.3,138,413.6,136.9,413.6z M137,407.5c-0.6,0-1.1,0.2-1.5,0.6s-0.5,1-0.5,1.8
			c0,0.7,0.2,1.3,0.5,1.7c0.4,0.4,0.9,0.6,1.5,0.6s1.1-0.2,1.4-0.6c0.3-0.4,0.5-1,0.5-1.8s-0.2-1.4-0.5-1.8
			C138.1,407.7,137.6,407.5,137,407.5z"/>
		<path d="M147.2,413.1c-0.6,0.3-1.2,0.5-2,0.5c-1,0-1.9-0.3-2.5-1c-0.6-0.6-1-1.5-1-2.5c0-1.2,0.3-2.1,1-2.8c0.7-0.7,1.6-1,2.8-1
			c0.6,0,1.2,0.1,1.7,0.3v1.5c-0.5-0.4-1-0.5-1.6-0.5c-0.7,0-1.2,0.2-1.6,0.7c-0.4,0.5-0.6,1-0.6,1.8c0,0.7,0.2,1.3,0.6,1.7
			c0.4,0.4,0.9,0.6,1.6,0.6c0.6,0,1.1-0.2,1.6-0.6V413.1z"/>
		<path d="M155.1,413.4h-2l-2.7-3.4l0,0v3.4h-1.6V403h1.6v6.6l0,0l2.6-3.2h1.9l-2.9,3.4L155.1,413.4z"/>
		<path d="M161.8,410.4H157c0,0.6,0.2,1.1,0.6,1.5c0.4,0.4,0.9,0.5,1.6,0.5c0.7,0,1.4-0.2,2.1-0.7v1.3c-0.6,0.4-1.5,0.6-2.5,0.6
			s-1.8-0.3-2.4-1c-0.6-0.6-0.9-1.5-0.9-2.7c0-1.1,0.3-2,1-2.7c0.6-0.7,1.4-1,2.4-1s1.7,0.3,2.2,0.9s0.8,1.5,0.8,2.6v0.7
			L161.8,410.4L161.8,410.4z M160.3,409.2c0-0.6-0.1-1-0.4-1.3c-0.3-0.3-0.6-0.5-1.1-0.5s-0.8,0.2-1.2,0.5c-0.3,0.3-0.5,0.8-0.6,1.3
			H160.3z"/>
		<path d="M167.4,407.9c-0.2-0.2-0.5-0.2-0.8-0.2c-0.5,0-0.9,0.2-1.2,0.6s-0.5,1-0.5,1.7v3.3h-1.6v-7h1.6v1.4l0,0
			c0.2-0.5,0.4-0.9,0.7-1.2c0.3-0.3,0.7-0.4,1.1-0.4c0.3,0,0.5,0,0.7,0.1V407.9z"/>
		<path d="M7.5,429.8v-1.7c0.2,0.1,0.3,0.3,0.5,0.4s0.4,0.2,0.7,0.3c0.2,0.1,0.5,0.1,0.7,0.2s0.4,0,0.6,0c0.7,0,1.2-0.1,1.5-0.3
			c0.3-0.2,0.5-0.6,0.5-1c0-0.2-0.1-0.4-0.2-0.6c-0.1-0.2-0.3-0.3-0.5-0.5s-0.4-0.3-0.7-0.4s-0.6-0.3-0.9-0.4
			c-0.3-0.2-0.6-0.4-0.9-0.5s-0.5-0.4-0.7-0.6s-0.4-0.5-0.5-0.7c-0.1-0.3-0.2-0.6-0.2-1c0-0.5,0.1-0.9,0.3-1.2
			c0.2-0.3,0.5-0.6,0.8-0.8c0.3-0.2,0.7-0.4,1.2-0.5c0.4-0.1,0.9-0.2,1.3-0.2c1,0,1.8,0.1,2.2,0.3v1.6c-0.6-0.4-1.3-0.6-2.1-0.6
			c-0.2,0-0.5,0-0.7,0.1c-0.2,0-0.5,0.1-0.6,0.2c-0.2,0.1-0.3,0.2-0.5,0.4s-0.2,0.4-0.2,0.6s0,0.4,0.1,0.6s0.2,0.3,0.4,0.4
			s0.4,0.3,0.6,0.4c0.3,0.1,0.5,0.3,0.9,0.4c0.3,0.2,0.7,0.4,1,0.6s0.6,0.4,0.8,0.6s0.4,0.5,0.5,0.8s0.2,0.6,0.2,1
			c0,0.5-0.1,0.9-0.3,1.3s-0.5,0.6-0.8,0.8c-0.3,0.2-0.7,0.4-1.2,0.5s-0.9,0.1-1.4,0.1c-0.2,0-0.4,0-0.6,0c-0.2,0-0.5-0.1-0.7-0.1
			c-0.3,0-0.5-0.1-0.7-0.2S7.6,429.9,7.5,429.8z"/>
		<path d="M27.7,420.4l-2.7,9.8h-1.8l-1.9-6.9c-0.1-0.3-0.1-0.6-0.1-1l0,0c0,0.3-0.1,0.6-0.2,0.9l-1.9,6.9h-1.9l-2.7-9.8h1.8
			l1.8,7.2c0.1,0.3,0.1,0.6,0.1,0.9l0,0c0-0.2,0.1-0.5,0.2-0.9l2-7.2h1.7l1.9,7.2c0.1,0.2,0.1,0.5,0.1,0.9l0,0
			c0-0.2,0.1-0.5,0.2-0.9l1.7-7.2h1.7C27.7,420.3,27.7,420.4,27.7,420.4z"/>
		<path d="M36.6,430.2h-1.8l-0.9-2.5H30l-0.8,2.5h-1.8l3.7-9.8H33L36.6,430.2z M33.5,426.4l-1.4-3.9c0-0.1-0.1-0.3-0.1-0.6l0,0
			c0,0.3-0.1,0.5-0.1,0.6l-1.3,3.9H33.5z"/>
		<path d="M45.5,430.2h-1.9l-1.6-2.6c-0.1-0.2-0.3-0.4-0.4-0.6c-0.1-0.2-0.3-0.3-0.4-0.4c-0.1-0.1-0.3-0.2-0.5-0.2s-0.3-0.1-0.6-0.1
			h-0.7v4h-1.6v-9.8H41c0.5,0,0.9,0.1,1.3,0.2s0.7,0.3,1,0.5s0.5,0.5,0.7,0.8s0.2,0.7,0.2,1.2c0,0.3-0.1,0.7-0.2,1
			c-0.1,0.3-0.2,0.5-0.4,0.8c-0.2,0.2-0.4,0.4-0.7,0.6s-0.6,0.3-0.9,0.4l0,0c0.2,0.1,0.3,0.2,0.5,0.3c0.1,0.1,0.3,0.2,0.4,0.4
			s0.2,0.3,0.4,0.4c0.1,0.2,0.2,0.3,0.4,0.6L45.5,430.2z M39.6,421.7v3.2H41c0.3,0,0.5,0,0.7-0.1s0.4-0.2,0.6-0.3s0.3-0.3,0.4-0.5
			s0.1-0.4,0.1-0.7c0-0.5-0.1-0.8-0.4-1.1s-0.7-0.4-1.3-0.4h-1.5V421.7z"/>
		<path d="M57.2,430.2h-1.6v-6.3c0-0.5,0-1.2,0.1-1.9l0,0c-0.1,0.4-0.2,0.7-0.3,0.9l-2.9,7.3h-1.1l-2.9-7.3c-0.1-0.2-0.2-0.5-0.3-1
			l0,0c0,0.4,0.1,1,0.1,1.9v6.3h-1.5v-9.8H49l2.6,6.5c0.2,0.5,0.3,0.9,0.4,1.1l0,0c0.2-0.5,0.3-0.9,0.4-1.1l2.6-6.5h2.2V430.2z"/>
		<path d="M60.9,428.6l-1.1,3.4h-1.2l0.8-3.4H60.9z"/>
		<path d="M66.8,430.2v-9.8h2.8c3.6,0,5.4,1.6,5.4,4.8c0,1.5-0.5,2.7-1.5,3.6s-2.3,1.4-4,1.4H66.8z M68.4,421.8v7h1.3
			c1.1,0,2-0.3,2.7-0.9c0.6-0.6,1-1.5,1-2.7c0-2.3-1.2-3.4-3.6-3.4H68.4z"/>
		<path d="M79.8,430.4c-1.1,0-1.9-0.3-2.6-1c-0.6-0.7-1-1.5-1-2.6c0-1.2,0.3-2.1,1-2.8c0.7-0.7,1.6-1,2.7-1s1.9,0.3,2.6,1
			s0.9,1.5,0.9,2.7c0,1.1-0.3,2-1,2.7C81.8,430.1,80.9,430.4,79.8,430.4z M79.9,424.3c-0.6,0-1.1,0.2-1.5,0.6s-0.5,1-0.5,1.8
			c0,0.7,0.2,1.3,0.5,1.7c0.4,0.4,0.9,0.6,1.5,0.6s1.1-0.2,1.4-0.6s0.5-1,0.5-1.8s-0.2-1.4-0.5-1.8C81,424.5,80.5,424.3,79.9,424.3z
			"/>
		<path d="M90.1,429.9c-0.6,0.3-1.2,0.5-2,0.5c-1,0-1.9-0.3-2.5-1c-0.6-0.6-1-1.5-1-2.5c0-1.2,0.3-2.1,1-2.8c0.7-0.7,1.6-1,2.8-1
			c0.6,0,1.2,0.1,1.7,0.3v1.5c-0.5-0.4-1-0.5-1.6-0.5c-0.7,0-1.2,0.2-1.6,0.7s-0.6,1-0.6,1.8c0,0.7,0.2,1.3,0.6,1.7
			c0.4,0.4,0.9,0.6,1.6,0.6c0.6,0,1.1-0.2,1.6-0.6V429.9z"/>
		<path d="M98,430.2h-2l-2.7-3.4l0,0v3.4h-1.6v-10.4h1.6v6.6l0,0l2.6-3.2h1.9l-2.9,3.4L98,430.2z"/>
		<path d="M104.7,427.2h-4.8c0,0.6,0.2,1.1,0.6,1.5s0.9,0.5,1.6,0.5s1.4-0.2,2.1-0.7v1.3c-0.6,0.4-1.5,0.6-2.5,0.6s-1.8-0.3-2.4-1
			c-0.6-0.6-0.9-1.5-0.9-2.7c0-1.1,0.3-2,1-2.7c0.6-0.7,1.4-1,2.4-1s1.7,0.3,2.2,0.9s0.8,1.5,0.8,2.6L104.7,427.2L104.7,427.2z
			 M103.1,426c0-0.6-0.1-1-0.4-1.3s-0.6-0.5-1.1-0.5s-0.8,0.2-1.2,0.5c-0.3,0.3-0.5,0.8-0.6,1.3H103.1z"/>
		<path d="M110.2,424.7c-0.2-0.2-0.5-0.2-0.8-0.2c-0.5,0-0.9,0.2-1.2,0.6s-0.5,1-0.5,1.7v3.3h-1.6v-7h1.6v1.4l0,0
			c0.2-0.5,0.4-0.9,0.7-1.2c0.3-0.3,0.7-0.4,1.1-0.4c0.3,0,0.5,0,0.7,0.1C110.2,423,110.2,424.7,110.2,424.7z"/>
		<path d="M122.2,429.8c-0.7,0.4-1.7,0.6-2.8,0.6c-1.4,0-2.6-0.4-3.4-1.3s-1.3-2.1-1.3-3.5c0-1.6,0.5-2.8,1.4-3.8
			c1-1,2.2-1.4,3.7-1.4c0.9,0,1.7,0.1,2.4,0.4v1.6c-0.7-0.4-1.4-0.6-2.2-0.6c-1.1,0-1.9,0.3-2.6,1s-1,1.6-1,2.7s0.3,1.9,0.9,2.6
			c0.6,0.6,1.4,1,2.4,1c0.9,0,1.7-0.2,2.4-0.7L122.2,429.8L122.2,429.8z"/>
		<path d="M127,430.4c-1.1,0-1.9-0.3-2.6-1c-0.6-0.7-1-1.5-1-2.6c0-1.2,0.3-2.1,1-2.8c0.7-0.7,1.6-1,2.7-1s1.9,0.3,2.6,1
			s0.9,1.5,0.9,2.7c0,1.1-0.3,2-1,2.7C129,430.1,128.1,430.4,127,430.4z M127.1,424.3c-0.6,0-1.1,0.2-1.5,0.6s-0.5,1-0.5,1.8
			c0,0.7,0.2,1.3,0.5,1.7c0.4,0.4,0.9,0.6,1.5,0.6s1.1-0.2,1.4-0.6s0.5-1,0.5-1.8s-0.2-1.4-0.5-1.8
			C128.2,424.5,127.7,424.3,127.1,424.3z"/>
		<path d="M142.7,430.2h-1.6v-3.8c0-0.7-0.1-1.3-0.3-1.6c-0.2-0.3-0.6-0.5-1-0.5s-0.8,0.2-1.1,0.6s-0.4,0.9-0.4,1.5v3.8h-1.6v-3.9
			c0-1.3-0.5-2-1.4-2c-0.4,0-0.8,0.2-1.1,0.6s-0.4,0.9-0.4,1.5v3.8h-1.6v-7h1.6v1.1l0,0c0.5-0.8,1.2-1.3,2.2-1.3
			c0.5,0,0.9,0.1,1.3,0.4c0.4,0.3,0.6,0.6,0.7,1c0.5-1,1.3-1.4,2.3-1.4c1.5,0,2.3,1,2.3,2.9v4.3H142.7z"/>
		<path d="M146.3,429.2L146.3,429.2v4.3h-1.6v-10.2h1.6v1.2l0,0c0.5-0.9,1.3-1.4,2.4-1.4c0.9,0,1.6,0.3,2.1,0.9s0.7,1.5,0.7,2.5
			c0,1.2-0.3,2.1-0.8,2.8s-1.3,1.1-2.3,1.1S146.8,430,146.3,429.2z M146.2,426.4v0.9c0,0.5,0.2,0.9,0.5,1.3s0.7,0.5,1.2,0.5
			c0.6,0,1-0.2,1.4-0.7c0.3-0.5,0.5-1.1,0.5-1.9c0-0.7-0.2-1.2-0.5-1.6s-0.7-0.6-1.3-0.6s-1,0.2-1.4,0.6
			C146.4,425.3,146.2,425.8,146.2,426.4z"/>
		<path d="M156.2,430.4c-1.1,0-1.9-0.3-2.6-1c-0.6-0.7-1-1.5-1-2.6c0-1.2,0.3-2.1,1-2.8c0.7-0.7,1.6-1,2.7-1c1.1,0,1.9,0.3,2.6,1
			s0.9,1.5,0.9,2.7c0,1.1-0.3,2-1,2.7C158.2,430.1,157.3,430.4,156.2,430.4z M156.3,424.3c-0.6,0-1.1,0.2-1.5,0.6s-0.5,1-0.5,1.8
			c0,0.7,0.2,1.3,0.5,1.7c0.4,0.4,0.9,0.6,1.5,0.6s1.1-0.2,1.4-0.6c0.3-0.4,0.5-1,0.5-1.8s-0.2-1.4-0.5-1.8
			C157.4,424.5,156.9,424.3,156.3,424.3z"/>
		<path d="M161,430v-1.5c0.6,0.5,1.2,0.7,2,0.7c1,0,1.4-0.3,1.4-0.8c0-0.2,0-0.3-0.1-0.4s-0.2-0.2-0.3-0.3c-0.1-0.1-0.3-0.2-0.5-0.2
			c-0.2-0.1-0.4-0.1-0.6-0.2c-0.3-0.1-0.5-0.2-0.8-0.4c-0.2-0.1-0.4-0.3-0.6-0.4c-0.2-0.2-0.3-0.3-0.3-0.6s-0.1-0.4-0.1-0.7
			c0-0.3,0.1-0.6,0.2-0.9c0.2-0.3,0.4-0.5,0.6-0.7c0.3-0.2,0.6-0.3,0.9-0.4c0.3-0.1,0.7-0.1,1.1-0.1c0.6,0,1.2,0.1,1.7,0.3v1.4
			c-0.5-0.3-1.1-0.5-1.7-0.5c-0.2,0-0.4,0-0.5,0.1c-0.2,0-0.3,0.1-0.4,0.2s-0.2,0.2-0.3,0.3c-0.1,0.1-0.1,0.2-0.1,0.3
			c0,0.2,0,0.3,0.1,0.4s0.2,0.2,0.3,0.3c0.1,0.1,0.3,0.2,0.5,0.2c0.2,0.1,0.4,0.1,0.6,0.2c0.3,0.1,0.6,0.2,0.8,0.4
			c0.2,0.1,0.4,0.3,0.6,0.4c0.2,0.2,0.3,0.3,0.4,0.6c0.1,0.2,0.1,0.5,0.1,0.8c0,0.4-0.1,0.7-0.2,0.9s-0.4,0.5-0.7,0.7
			s-0.6,0.3-0.9,0.4c-0.4,0.1-0.7,0.1-1.1,0.1C162.2,430.4,161.6,430.3,161,430z"/>
		<path d="M173.4,427.2h-4.8c0,0.6,0.2,1.1,0.6,1.5c0.4,0.4,0.9,0.5,1.6,0.5c0.7,0,1.4-0.2,2.1-0.7v1.3c-0.6,0.4-1.5,0.6-2.5,0.6
			s-1.8-0.3-2.4-1c-0.6-0.6-0.9-1.5-0.9-2.7c0-1.1,0.3-2,1-2.7c0.6-0.7,1.4-1,2.4-1s1.7,0.3,2.2,0.9s0.8,1.5,0.8,2.6v0.7
			L173.4,427.2L173.4,427.2z M171.9,426c0-0.6-0.1-1-0.4-1.3c-0.3-0.3-0.6-0.5-1.1-0.5s-0.8,0.2-1.2,0.5c-0.3,0.3-0.5,0.8-0.6,1.3
			H171.9z"/>
		<path d="M176.4,428.6l-1.1,3.4h-1.2l0.8-3.4H176.4z"/>
		<path d="M15.3,447h-2.1l-3.4-4.5c-0.1-0.2-0.2-0.3-0.2-0.3l0,0v4.8H7.9v-9.8h1.6v4.6l0,0c0.1-0.1,0.1-0.2,0.2-0.3l3.3-4.3h2
			l-3.8,4.7L15.3,447z"/>
		<path d="M22.4,447h-1.6v-1.1l0,0c-0.5,0.8-1.2,1.3-2.1,1.3c-1.7,0-2.5-1-2.5-3V440h1.6v4c0,1.3,0.5,1.9,1.5,1.9
			c0.5,0,0.9-0.2,1.2-0.5c0.3-0.3,0.5-0.8,0.5-1.4v-4h1.6v7H22.4z"/>
		<path d="M26.1,446L26.1,446v1h-1.6v-10.4H26v4.6l0,0c0.5-0.9,1.3-1.4,2.4-1.4c0.9,0,1.6,0.3,2.1,0.9s0.7,1.5,0.7,2.5
			c0,1.2-0.3,2.1-0.8,2.8c-0.6,0.7-1.3,1.1-2.3,1.1C27.2,447.2,26.5,446.8,26.1,446z M26,443.2v0.9c0,0.5,0.2,0.9,0.5,1.3
			s0.7,0.5,1.2,0.5c0.6,0,1-0.2,1.4-0.7c0.3-0.5,0.5-1.1,0.5-1.9c0-0.7-0.2-1.2-0.5-1.6s-0.7-0.6-1.3-0.6c-0.6,0-1,0.2-1.4,0.6
			C26.2,442.1,26,442.6,26,443.2z"/>
		<path d="M38.8,444H34c0,0.6,0.2,1.1,0.6,1.5c0.4,0.4,0.9,0.5,1.6,0.5c0.7,0,1.4-0.2,2.1-0.7v1.3c-0.6,0.4-1.5,0.6-2.5,0.6
			s-1.8-0.3-2.4-1c-0.6-0.6-0.9-1.5-0.9-2.7c0-1.1,0.3-2,1-2.7c0.6-0.7,1.4-1,2.4-1s1.7,0.3,2.2,0.9s0.8,1.5,0.8,2.6L38.8,444
			L38.8,444z M37.3,442.8c0-0.6-0.1-1-0.4-1.3c-0.3-0.3-0.6-0.5-1.1-0.5s-0.8,0.2-1.2,0.5c-0.3,0.3-0.5,0.8-0.6,1.3H37.3z"/>
		<path d="M44.4,441.5c-0.2-0.2-0.5-0.2-0.8-0.2c-0.5,0-0.9,0.2-1.2,0.6s-0.5,1-0.5,1.7v3.3h-1.6v-7h1.6v1.4l0,0
			c0.2-0.5,0.4-0.9,0.7-1.2c0.3-0.3,0.7-0.4,1.1-0.4c0.3,0,0.5,0,0.7,0.1V441.5z"/>
		<path d="M51.7,447h-1.6v-3.9c0-1.3-0.5-2-1.4-2c-0.5,0-0.9,0.2-1.2,0.5c-0.3,0.4-0.5,0.8-0.5,1.4v4h-1.6v-7H47v1.2l0,0
			c0.5-0.9,1.3-1.3,2.3-1.3c0.8,0,1.3,0.2,1.7,0.7s0.6,1.2,0.6,2.1v4.3L51.7,447L51.7,447z"/>
		<path d="M59.6,444h-4.8c0,0.6,0.2,1.1,0.6,1.5c0.4,0.4,0.9,0.5,1.6,0.5c0.7,0,1.4-0.2,2.1-0.7v1.3c-0.6,0.4-1.5,0.6-2.5,0.6
			s-1.8-0.3-2.4-1c-0.6-0.6-0.9-1.5-0.9-2.7c0-1.1,0.3-2,1-2.7c0.6-0.7,1.4-1,2.4-1s1.7,0.3,2.2,0.9s0.8,1.5,0.8,2.6L59.6,444
			L59.6,444z M58.1,442.8c0-0.6-0.1-1-0.4-1.3c-0.3-0.3-0.6-0.5-1.1-0.5s-0.8,0.2-1.2,0.5c-0.3,0.3-0.5,0.8-0.6,1.3H58.1z"/>
		<path d="M64.8,447c-0.3,0.2-0.7,0.2-1.2,0.2c-1.4,0-2-0.7-2-2v-4h-1.2V440h1.2v-1.6l1.6-0.5v2.1h1.7v1.2h-1.7v3.5
			c0,0.4,0.1,0.7,0.2,0.9s0.4,0.3,0.8,0.3c0.3,0,0.5-0.1,0.7-0.2L64.8,447L64.8,447z"/>
		<path d="M72,444h-4.8c0,0.6,0.2,1.1,0.6,1.5s0.9,0.5,1.6,0.5s1.4-0.2,2.1-0.7v1.3c-0.6,0.4-1.5,0.6-2.5,0.6s-1.8-0.3-2.4-1
			c-0.6-0.6-0.9-1.5-0.9-2.7c0-1.1,0.3-2,1-2.7c0.6-0.7,1.4-1,2.4-1s1.7,0.3,2.2,0.9s0.8,1.5,0.8,2.6L72,444L72,444z M70.5,442.8
			c0-0.6-0.1-1-0.4-1.3S69.5,441,69,441s-0.8,0.2-1.2,0.5c-0.3,0.3-0.5,0.8-0.6,1.3H70.5z"/>
		<path d="M73.1,446.8v-1.5c0.6,0.5,1.2,0.7,2,0.7c1,0,1.4-0.3,1.4-0.8c0-0.2,0-0.3-0.1-0.4s-0.2-0.2-0.3-0.3
			c-0.1-0.1-0.3-0.2-0.5-0.2c-0.2-0.1-0.4-0.1-0.6-0.2c-0.3-0.1-0.5-0.2-0.8-0.4c-0.2-0.1-0.4-0.3-0.6-0.4c-0.2-0.2-0.3-0.3-0.3-0.6
			s-0.1-0.4-0.1-0.7c0-0.3,0.1-0.6,0.2-0.9c0.2-0.3,0.4-0.5,0.6-0.7c0.3-0.2,0.6-0.3,0.9-0.4s0.7-0.1,1.1-0.1c0.6,0,1.2,0.1,1.7,0.3
			v1.4c-0.5-0.3-1.1-0.5-1.7-0.5c-0.2,0-0.4,0-0.5,0.1c-0.2,0-0.3,0.1-0.4,0.2s-0.2,0.2-0.3,0.3c-0.1,0.1-0.1,0.2-0.1,0.3
			c0,0.2,0,0.3,0.1,0.4s0.2,0.2,0.3,0.3c0.1,0.1,0.3,0.2,0.5,0.2c0.2,0.1,0.4,0.1,0.6,0.2c0.3,0.1,0.6,0.2,0.8,0.4
			c0.2,0.1,0.4,0.3,0.6,0.4c0.2,0.2,0.3,0.3,0.4,0.6c0.1,0.2,0.1,0.5,0.1,0.8c0,0.4-0.1,0.7-0.2,0.9s-0.4,0.5-0.7,0.7
			s-0.6,0.3-0.9,0.4c-0.4,0.1-0.7,0.1-1.1,0.1C74.3,447.2,73.6,447.1,73.1,446.8z"/>
		<path d="M81,445.4l-1.1,3.4h-1.2l0.8-3.4H81z"/>
		<path d="M95,447h-1.8l-0.9-2.5h-3.9l-0.8,2.5h-1.8l3.7-9.8h1.8L95,447z M91.9,443.2l-1.4-3.9c0-0.1-0.1-0.3-0.1-0.6l0,0
			c0,0.3-0.1,0.5-0.1,0.6l-1.3,3.9H91.9z"/>
		<path d="M97.8,446L97.8,446v4.3h-1.6V440h1.6v1.2l0,0c0.5-0.9,1.3-1.4,2.4-1.4c0.9,0,1.6,0.3,2.1,0.9s0.7,1.5,0.7,2.5
			c0,1.2-0.3,2.1-0.8,2.8s-1.3,1.1-2.3,1.1C99,447.2,98.3,446.8,97.8,446z M97.8,443.2v0.9c0,0.5,0.2,0.9,0.5,1.3s0.7,0.5,1.2,0.5
			c0.6,0,1-0.2,1.4-0.7c0.3-0.5,0.5-1.1,0.5-1.9c0-0.7-0.2-1.2-0.5-1.6s-0.7-0.6-1.3-0.6c-0.6,0-1,0.2-1.4,0.6
			C97.9,442.1,97.8,442.6,97.8,443.2z"/>
		<path d="M109.8,447h-1.5v-1.1l0,0c-0.5,0.8-1.2,1.3-2.1,1.3c-0.7,0-1.2-0.2-1.6-0.6s-0.6-0.9-0.6-1.5c0-1.3,0.8-2.1,2.3-2.3
			l2.1-0.3c0-1-0.5-1.5-1.4-1.5c-0.8,0-1.6,0.3-2.3,0.9v-1.4c0.7-0.4,1.6-0.7,2.6-0.7c1.8,0,2.7,0.9,2.7,2.6v4.6H109.8z
			 M108.3,443.6l-1.5,0.2c-0.5,0.1-0.8,0.2-1,0.3c-0.2,0.2-0.3,0.4-0.3,0.9c0,0.3,0.1,0.5,0.3,0.7c0.2,0.2,0.5,0.3,0.9,0.3
			c0.5,0,0.9-0.2,1.2-0.5c0.3-0.3,0.5-0.8,0.5-1.3L108.3,443.6L108.3,443.6z"/>
		<path d="M116.8,446.7c-0.6,0.3-1.2,0.5-2,0.5c-1,0-1.9-0.3-2.5-1c-0.6-0.6-1-1.5-1-2.5c0-1.2,0.3-2.1,1-2.8c0.7-0.7,1.6-1,2.8-1
			c0.6,0,1.2,0.1,1.7,0.3v1.5c-0.5-0.4-1-0.5-1.6-0.5c-0.7,0-1.2,0.2-1.6,0.7s-0.6,1-0.6,1.8c0,0.7,0.2,1.3,0.6,1.7
			c0.4,0.4,0.9,0.6,1.6,0.6c0.6,0,1.1-0.2,1.6-0.6V446.7z"/>
		<path d="M124.6,447H123v-3.8c0-1.4-0.5-2.1-1.4-2.1c-0.5,0-0.9,0.2-1.2,0.6s-0.5,0.9-0.5,1.5v3.8h-1.6v-10.4h1.6v4.5l0,0
			c0.5-0.9,1.3-1.3,2.3-1.3c1.6,0,2.3,1,2.3,2.9L124.6,447L124.6,447z"/>
		<path d="M132.4,444h-4.8c0,0.6,0.2,1.1,0.6,1.5c0.4,0.4,0.9,0.5,1.6,0.5c0.7,0,1.4-0.2,2.1-0.7v1.3c-0.6,0.4-1.5,0.6-2.5,0.6
			s-1.8-0.3-2.4-1c-0.6-0.6-0.9-1.5-0.9-2.7c0-1.1,0.3-2,1-2.7c0.6-0.7,1.4-1,2.4-1s1.7,0.3,2.2,0.9s0.8,1.5,0.8,2.6v0.7L132.4,444
			L132.4,444z M130.9,442.8c0-0.6-0.1-1-0.4-1.3c-0.3-0.3-0.6-0.5-1.1-0.5s-0.8,0.2-1.2,0.5c-0.3,0.3-0.5,0.8-0.6,1.3H130.9z"/>
		<path d="M148.5,447h-1.6v-6.3c0-0.5,0-1.2,0.1-1.9l0,0c-0.1,0.4-0.2,0.7-0.3,0.9l-2.9,7.3h-1.1l-2.9-7.3c-0.1-0.2-0.2-0.5-0.3-1
			l0,0c0,0.4,0.1,1,0.1,1.9v6.3H138v-9.8h2.3l2.6,6.5c0.2,0.5,0.3,0.9,0.4,1.1l0,0c0.2-0.5,0.3-0.9,0.4-1.1l2.6-6.5h2.2V447z"/>
		<path d="M156.6,444h-4.8c0,0.6,0.2,1.1,0.6,1.5c0.4,0.4,0.9,0.5,1.6,0.5c0.7,0,1.4-0.2,2.1-0.7v1.3c-0.6,0.4-1.5,0.6-2.5,0.6
			s-1.8-0.3-2.4-1c-0.6-0.6-0.9-1.5-0.9-2.7c0-1.1,0.3-2,1-2.7c0.6-0.7,1.4-1,2.4-1s1.7,0.3,2.2,0.9s0.8,1.5,0.8,2.6v0.7L156.6,444
			L156.6,444z M155.1,442.8c0-0.6-0.1-1-0.4-1.3c-0.3-0.3-0.6-0.5-1.1-0.5s-0.8,0.2-1.2,0.5c-0.3,0.3-0.5,0.8-0.6,1.3H155.1z"/>
		<path d="M157.7,446.8v-1.5c0.6,0.5,1.2,0.7,2,0.7c1,0,1.4-0.3,1.4-0.8c0-0.2,0-0.3-0.1-0.4s-0.2-0.2-0.3-0.3
			c-0.1-0.1-0.3-0.2-0.5-0.2c-0.2-0.1-0.4-0.1-0.6-0.2c-0.3-0.1-0.5-0.2-0.8-0.4c-0.2-0.1-0.4-0.3-0.6-0.4c-0.2-0.2-0.3-0.3-0.3-0.6
			s-0.1-0.4-0.1-0.7c0-0.3,0.1-0.6,0.2-0.9c0.2-0.3,0.4-0.5,0.6-0.7c0.3-0.2,0.6-0.3,0.9-0.4c0.3-0.1,0.7-0.1,1.1-0.1
			c0.6,0,1.2,0.1,1.7,0.3v1.4c-0.5-0.3-1.1-0.5-1.7-0.5c-0.2,0-0.4,0-0.5,0.1c-0.2,0-0.3,0.1-0.4,0.2s-0.2,0.2-0.3,0.3
			c-0.1,0.1-0.1,0.2-0.1,0.3c0,0.2,0,0.3,0.1,0.4s0.2,0.2,0.3,0.3c0.1,0.1,0.3,0.2,0.5,0.2c0.2,0.1,0.4,0.1,0.6,0.2
			c0.3,0.1,0.6,0.2,0.8,0.4c0.2,0.1,0.4,0.3,0.6,0.4c0.2,0.2,0.3,0.3,0.4,0.6c0.1,0.2,0.1,0.5,0.1,0.8c0,0.4-0.1,0.7-0.2,0.9
			s-0.4,0.5-0.7,0.7s-0.6,0.3-0.9,0.4c-0.4,0.1-0.7,0.1-1.1,0.1C158.9,447.2,158.3,447.1,157.7,446.8z"/>
		<path d="M167.3,447.2c-1.1,0-1.9-0.3-2.6-1c-0.6-0.7-1-1.5-1-2.6c0-1.2,0.3-2.1,1-2.8c0.7-0.7,1.6-1,2.7-1c1.1,0,1.9,0.3,2.6,1
			s0.9,1.5,0.9,2.7c0,1.1-0.3,2-1,2.7C169.3,446.9,168.4,447.2,167.3,447.2z M167.4,441.1c-0.6,0-1.1,0.2-1.5,0.6s-0.5,1-0.5,1.8
			c0,0.7,0.2,1.3,0.5,1.7c0.4,0.4,0.9,0.6,1.5,0.6s1.1-0.2,1.4-0.6c0.3-0.4,0.5-1,0.5-1.8s-0.2-1.4-0.5-1.8
			C168.5,441.3,168,441.1,167.4,441.1z"/>
		<path d="M172.1,446.8v-1.5c0.6,0.5,1.2,0.7,2,0.7c1,0,1.4-0.3,1.4-0.8c0-0.2,0-0.3-0.1-0.4s-0.2-0.2-0.3-0.3
			c-0.1-0.1-0.3-0.2-0.5-0.2c-0.2-0.1-0.4-0.1-0.6-0.2c-0.3-0.1-0.5-0.2-0.8-0.4c-0.2-0.1-0.4-0.3-0.6-0.4c-0.2-0.2-0.3-0.3-0.3-0.6
			s-0.1-0.4-0.1-0.7c0-0.3,0.1-0.6,0.2-0.9c0.2-0.3,0.4-0.5,0.6-0.7c0.3-0.2,0.6-0.3,0.9-0.4c0.3-0.1,0.7-0.1,1.1-0.1
			c0.6,0,1.2,0.1,1.7,0.3v1.4c-0.5-0.3-1.1-0.5-1.7-0.5c-0.2,0-0.4,0-0.5,0.1c-0.2,0-0.3,0.1-0.4,0.2s-0.2,0.2-0.3,0.3
			c-0.1,0.1-0.1,0.2-0.1,0.3c0,0.2,0,0.3,0.1,0.4s0.2,0.2,0.3,0.3c0.1,0.1,0.3,0.2,0.5,0.2c0.2,0.1,0.4,0.1,0.6,0.2
			c0.3,0.1,0.6,0.2,0.8,0.4c0.2,0.1,0.4,0.3,0.6,0.4c0.2,0.2,0.3,0.3,0.4,0.6c0.1,0.2,0.1,0.5,0.1,0.8c0,0.4-0.1,0.7-0.2,0.9
			s-0.4,0.5-0.7,0.7s-0.6,0.3-0.9,0.4c-0.4,0.1-0.7,0.1-1.1,0.1C173.3,447.2,172.7,447.1,172.1,446.8z"/>
	</g>
</g>
<g>
	
		<line style="fill:none;stroke:#DFDFDE;stroke-width:4;stroke-linecap:round;stroke-linejoin:round;stroke-miterlimit:10;" x1="94.4" y1="-83" x2="94.4" y2="177.9"/>
	
		<circle style="fill:none;stroke:#DFDFDE;stroke-width:4;stroke-linecap:round;stroke-linejoin:round;stroke-miterlimit:10;" cx="94.4" cy="183.4" r="5"/>
</g>
</svg>
