<svg id="Layer_1" xmlns="http://www.w3.org/2000/svg" width="127" height="250" viewBox="0 0 127 250"><circle cx="63.4" cy="214" r="11"/><path d="M25.9 242.5h-1.6v-6.3c0-.5 0-1.1.1-1.9-.1.4-.2.7-.3.9l-2.9 7.3h-1.1l-2.9-7.2c-.1-.2-.2-.5-.3-1 0 .4.1 1 .1 1.9v6.3h-1.5v-9.8h2.3l2.6 6.5c.2.5.3.9.4 1.1.2-.5.3-.9.4-1.1l2.6-6.5H26v9.8h-.1zM36.3 242.5h-1.8l-.9-2.5h-3.8l-.8 2.5h-1.8l3.7-9.8h1.8l3.6 9.8zm-3.1-3.8l-1.4-3.9c0-.1-.1-.3-.1-.6 0 .3-.1.5-.1.6l-1.3 3.9h2.9zM45.9 242.5h-1.8l-4.7-7.2-.3-.6c0 .2.1.7.1 1.3v6.4h-1.6v-9.8h1.9l4.5 7c.2.3.3.5.4.6 0-.3-.1-.7-.1-1.3v-6.3h1.6v9.9zM56.3 242.5h-1.8l-.9-2.5h-3.8l-.8 2.5h-1.8l3.7-9.8h1.8l3.6 9.8zm-3-3.8l-1.4-3.9c0-.1-.1-.3-.1-.6 0 .3-.1.5-.1.6l-1.3 3.9h2.9zM65.1 241.8c-1 .6-2.1.8-3.4.8-1.4 0-2.6-.4-3.5-1.3s-1.3-2.1-1.3-3.6.5-2.7 1.5-3.7 2.2-1.5 3.7-1.5c1.1 0 2 .2 2.7.5v1.7c-.7-.5-1.6-.7-2.7-.7-1 0-1.9.3-2.6 1-.7.7-1 1.6-1 2.7s.3 2 .9 2.6 1.3 1 2.3 1c.7 0 1.3-.1 1.7-.4v-2.3h-2.1v-1.4H65l.1 4.6zM72.7 242.5h-5.5v-9.8h5.3v1.4h-3.6v2.8h3.4v1.4h-3.4v2.9h3.9v1.3h-.1zM84.9 242.5h-1.6v-6.3c0-.5 0-1.1.1-1.9-.1.4-.2.7-.3.9l-2.9 7.3h-1.1l-2.9-7.2c-.1-.2-.2-.5-.3-1 0 .4.1 1 .1 1.9v6.3h-1.5v-9.8h2.3l2.6 6.5c.2.5.3.9.4 1.1.2-.5.3-.9.4-1.1l2.6-6.5H85l-.1 9.8zM92.8 242.5h-5.5v-9.8h5.3v1.4H89v2.8h3.4v1.4H89v2.9h3.9v1.3h-.1zM102.8 242.5H101l-4.7-7.2-.3-.6c0 .2.1.7.1 1.3v6.4h-1.6v-9.8h1.9l4.5 7c.2.3.3.5.4.6 0-.3-.1-.7-.1-1.3v-6.3h1.6v9.9zM111.5 234.1h-2.8v8.4H107v-8.4h-2.8v-1.4h7.2v1.4h.1z"/><g><path fill="#FFF" d="M66.3 213.6c0 .8-.1 1.6-.3 2.2-.2.6-.4 1.1-.8 1.5-.4.4-.7.7-1.1.9s-.9.3-1.4.3h-.5c-.2 0-.3 0-.5-.1s-.3-.1-.4-.1-.2-.1-.3-.1V217c.1.1.2.1.3.2.1.1.3.1.4.1s.3.1.4.1h.4c.3 0 .6-.1.9-.2.3-.1.5-.3.7-.6s.3-.6.4-.9c.1-.3.2-.8.2-1.3-.1.1-.2.2-.3.4s-.2.2-.4.3-.3.2-.5.2c-.2.1-.4.1-.6.1-.4 0-.7-.1-1-.2-.3-.1-.6-.3-.8-.5-.2-.2-.4-.5-.5-.8-.1-.3-.2-.7-.2-1.1s.1-.8.2-1.2.3-.7.6-.9l.9-.6c.3-.2.7-.2 1.1-.2.4 0 .7.1 1.1.2s.6.4.9.7.5.7.6 1.2.5.9.5 1.6zm-1.5-.9c0-.3 0-.5-.1-.8s-.2-.4-.3-.6c-.1-.2-.3-.3-.4-.4-.2-.1-.4-.1-.6-.1-.2 0-.4 0-.5.1-.1.1-.3.2-.4.3s-.2.3-.3.5c-.1.2-.2.5-.2.7 0 .3 0 .5.1.7.1.2.2.4.3.5.1.1.3.2.5.3s.4.1.6.1c.2 0 .4 0 .5-.1.1-.1.3-.2.4-.3s.2-.3.3-.4.1-.3.1-.5z"/></g></svg>