<?xml version="1.0" encoding="utf-8"?>
<!-- Generator: Adobe Illustrator 19.2.0, SVG Export Plug-In . SVG Version: 6.00 Build 0)  -->
<svg version="1.1" id="Layer_1" xmlns="http://www.w3.org/2000/svg" xmlns:xlink="http://www.w3.org/1999/xlink" x="0px" y="0px"
	 width="157px" height="329px" viewBox="0 0 157 329" enable-background="new 0 0 157 329" xml:space="preserve">
<rect x="30.6" y="225" fill-opacity="0" width="94.8" height="104.2"/>
<g id="Layer_2">
</g>
<g>
	<g>
		<g>
			<path fill="#00BCF2" d="M59.9,293c-0.3,0-0.5-0.1-0.7-0.3c-0.2-0.2-0.3-0.4-0.3-0.6c0-0.3,0.1-0.5,0.3-0.7s0.4-0.3,0.7-0.3
				s0.5,0.1,0.7,0.3c0.2,0.2,0.3,0.4,0.3,0.7c0,0.2-0.1,0.5-0.3,0.6C60.4,292.9,60.2,293,59.9,293z"/>
			<path fill="#00BCF2" d="M71.1,292.8h-1.8l-4.7-7.2c-0.1-0.2-0.2-0.4-0.3-0.6l0,0c0,0.2,0.1,0.7,0.1,1.3v6.4h-1.6v-9.8h1.9l4.5,7
				c0.2,0.3,0.3,0.5,0.4,0.6l0,0c0-0.3-0.1-0.7-0.1-1.3v-6.3h1.6V292.8L71.1,292.8z"/>
			<path fill="#00BCF2" d="M78.9,292.8h-5.5V283h5.3v1.4h-3.6v2.8h3.4v1.4h-3.4v2.9H79L78.9,292.8L78.9,292.8z"/>
			<path fill="#00BCF2" d="M87,284.4h-2.8v8.4h-1.6v-8.4h-2.8V283H87V284.4L87,284.4z"/>
			<path fill="#00BCF2" d="M88.8,291.2l-1.1,3.4h-1.2l0.7-3.4H88.8z"/>
			<path fill="#00BCF2" d="M101.5,292.4c-0.7,0.4-1.6,0.6-2.7,0.6c-1.4,0-2.5-0.4-3.4-1.3s-1.3-2.1-1.3-3.5c0-1.6,0.5-2.8,1.4-3.8
				s2.2-1.4,3.6-1.4c0.9,0,1.7,0.1,2.3,0.4v1.6c-0.7-0.4-1.4-0.6-2.2-0.6c-1.1,0-1.9,0.3-2.6,1s-1,1.6-1,2.7s0.3,1.9,0.9,2.6
				c0.6,0.6,1.4,1,2.4,1c0.9,0,1.7-0.2,2.4-0.7v1.4L101.5,292.4L101.5,292.4z"/>
			<path fill="#00BCF2" d="M110.2,289.3h-2.7v2.7h-1.1v-2.7h-2.7v-1.1h2.7v-2.7h1.1v2.7h2.7V289.3z"/>
			<path fill="#00BCF2" d="M119.9,289.3h-2.7v2.7h-1.1v-2.7h-2.7v-1.1h2.7v-2.7h1.1v2.7h2.7V289.3z"/>
			<path fill="#00BCF2" d="M124,291.2l-1.1,3.4h-1.2l0.7-3.4H124z"/>
			<path fill="#00BCF2" d="M131.5,289.3v3.5h-1.6V283h3c1.1,0,2,0.3,2.6,0.8s0.9,1.3,0.9,2.2s-0.3,1.7-1,2.3
				c-0.6,0.6-1.5,0.9-2.6,0.9L131.5,289.3L131.5,289.3z M131.5,284.4v3.6h1c0.7,0,1.2-0.2,1.6-0.5c0.4-0.3,0.5-0.8,0.5-1.4
				c0-1.1-0.7-1.7-2-1.7H131.5z"/>
			<path fill="#00BCF2" d="M145.9,292.8h-1.6v-4.2h-4.6v4.2H138V283h1.6v4.1h4.6V283h1.6L145.9,292.8L145.9,292.8z"/>
			<path fill="#00BCF2" d="M149.9,289.3v3.5h-1.6V283h3c1.1,0,2,0.3,2.6,0.8s0.9,1.3,0.9,2.2s-0.3,1.7-1,2.3
				c-0.6,0.6-1.5,0.9-2.6,0.9L149.9,289.3L149.9,289.3z M149.9,284.4v3.6h1c0.7,0,1.2-0.2,1.6-0.5c0.4-0.3,0.5-0.8,0.5-1.4
				c0-1.1-0.7-1.7-2-1.7H149.9z"/>
			<path fill="#00BCF2" d="M155.4,291.2l-1.1,3.4h-1.2l0.7-3.4H155.4z"/>
			<path fill="#00BCF2" d="M61,306v3.5h-1.6v-9.8h3c1.1,0,2,0.3,2.6,0.8s0.9,1.3,0.9,2.2s-0.3,1.7-1,2.3c-0.6,0.6-1.5,0.9-2.6,0.9
				H61V306z M61,301.1v3.6h1c0.7,0,1.2-0.2,1.6-0.5c0.4-0.3,0.5-0.8,0.5-1.4c0-1.1-0.7-1.7-2-1.7H61z"/>
			<path fill="#00BCF2" d="M73.4,302.6l-3.1,8.1c-0.7,1.4-1.6,2.2-2.7,2.2c-0.3,0-0.6,0-0.8-0.1v-1.3c0.2,0.1,0.5,0.1,0.7,0.1
				c0.6,0,1-0.3,1.3-0.9l0.5-1.1l-2.8-7h1.7l1.7,5.1c0,0.1,0.1,0.2,0.1,0.5l0,0c0-0.1,0.1-0.3,0.1-0.5l1.7-5.1
				C71.8,302.6,73.4,302.6,73.4,302.6z"/>
			<path fill="#00BCF2" d="M78.2,309.5c-0.3,0.2-0.7,0.2-1.2,0.2c-1.4,0-2-0.6-2-1.9v-3.9h-1.2v-1.3H75V301l1.6-0.4v2.1h1.7v1.2
				h-1.7v3.5c0,0.4,0.1,0.7,0.2,0.9c0.1,0.2,0.4,0.3,0.7,0.3s0.5-0.1,0.7-0.2C78.2,308.4,78.2,309.5,78.2,309.5z"/>
			<path fill="#00BCF2" d="M85.7,309.5h-1.6v-3.8c0-1.4-0.5-2.1-1.4-2.1c-0.5,0-0.9,0.2-1.2,0.6c-0.3,0.4-0.5,0.9-0.5,1.5v3.7h-1.6
				v-10.3H81v4.5l0,0c0.5-0.9,1.3-1.3,2.3-1.3c1.5,0,2.3,0.9,2.3,2.8L85.7,309.5L85.7,309.5z"/>
			<path fill="#00BCF2" d="M90.7,309.7c-1.1,0-1.9-0.3-2.6-1s-1-1.5-1-2.6c0-1.2,0.3-2.1,1-2.7s1.6-1,2.7-1s1.9,0.3,2.5,1
				c0.6,0.6,0.9,1.5,0.9,2.7c0,1.1-0.3,2-1,2.7C92.7,309.4,91.8,309.7,90.7,309.7z M90.8,303.7c-0.6,0-1.1,0.2-1.5,0.6
				s-0.5,1-0.5,1.8c0,0.7,0.2,1.3,0.5,1.7c0.4,0.4,0.8,0.6,1.5,0.6c0.6,0,1.1-0.2,1.4-0.6s0.5-1,0.5-1.8s-0.2-1.4-0.5-1.8
				C91.9,303.9,91.4,303.7,90.8,303.7z"/>
			<path fill="#00BCF2" d="M102.2,309.5h-1.6v-3.9c0-1.3-0.5-2-1.4-2c-0.5,0-0.9,0.2-1.2,0.5c-0.3,0.4-0.5,0.8-0.5,1.4v4H96v-7h1.6
				v1.2l0,0c0.5-0.9,1.3-1.3,2.3-1.3c0.8,0,1.3,0.2,1.7,0.7c0.4,0.5,0.6,1.2,0.6,2.1V309.5z"/>
			<path fill="#00BCF2" d="M111,309.7c-1.1,0-1.9-0.3-2.6-1s-1-1.5-1-2.6c0-1.2,0.3-2.1,1-2.7s1.6-1,2.7-1s1.9,0.3,2.5,1
				c0.6,0.6,0.9,1.5,0.9,2.7c0,1.1-0.3,2-1,2.7C113,309.4,112.1,309.7,111,309.7z M111.1,303.7c-0.6,0-1.1,0.2-1.5,0.6
				s-0.5,1-0.5,1.8c0,0.7,0.2,1.3,0.5,1.7c0.4,0.4,0.8,0.6,1.5,0.6c0.6,0,1.1-0.2,1.4-0.6s0.5-1,0.5-1.8s-0.2-1.4-0.5-1.8
				C112.2,303.9,111.7,303.7,111.1,303.7z"/>
			<path fill="#00BCF2" d="M120.3,304.1c-0.2-0.1-0.5-0.2-0.8-0.2c-0.5,0-0.9,0.2-1.2,0.6c-0.3,0.4-0.5,1-0.5,1.7v3.3h-1.6v-7h1.6
				v1.4l0,0c0.2-0.5,0.4-0.9,0.7-1.1c0.3-0.3,0.7-0.4,1.1-0.4c0.3,0,0.5,0,0.7,0.1L120.3,304.1L120.3,304.1z"/>
			<path fill="#00BCF2" d="M128.6,306c0,1.2-0.3,2.1-0.9,2.7s-1.3,1-2.3,1c-0.4,0-0.8-0.1-1.1-0.2V308c0.3,0.2,0.6,0.3,1,0.3
				c1.1,0,1.6-0.8,1.6-2.5v-6h1.6L128.6,306L128.6,306z"/>
			<path fill="#00BCF2" d="M135.9,309.5h-1.5v-1.1l0,0c-0.5,0.8-1.2,1.3-2.1,1.3c-0.7,0-1.2-0.2-1.6-0.6c-0.4-0.4-0.6-0.9-0.6-1.5
				c0-1.3,0.8-2.1,2.3-2.3l2.1-0.3c0-1-0.5-1.5-1.4-1.5c-0.8,0-1.6,0.3-2.2,0.9V303c0.7-0.4,1.6-0.7,2.5-0.7c1.8,0,2.6,0.9,2.6,2.6
				L135.9,309.5L135.9,309.5z M134.4,306.1l-1.5,0.2c-0.5,0.1-0.8,0.2-1,0.3c-0.2,0.2-0.3,0.4-0.3,0.8c0,0.3,0.1,0.5,0.3,0.7
				s0.5,0.3,0.8,0.3c0.5,0,0.9-0.2,1.2-0.5s0.5-0.8,0.5-1.3V306.1z"/>
			<path fill="#00BCF2" d="M143.8,302.6l-2.7,7h-1.7l-2.6-7h1.7l1.5,4.9c0.1,0.4,0.2,0.7,0.2,0.9l0,0c0-0.3,0.1-0.6,0.2-0.9l1.6-4.9
				H143.8z"/>
			<path fill="#00BCF2" d="M150,309.5h-1.5v-1.1l0,0c-0.5,0.8-1.2,1.3-2.1,1.3c-0.7,0-1.2-0.2-1.6-0.6c-0.4-0.4-0.6-0.9-0.6-1.5
				c0-1.3,0.8-2.1,2.3-2.3l2.1-0.3c0-1-0.5-1.5-1.4-1.5c-0.8,0-1.6,0.3-2.2,0.9V303c0.7-0.4,1.6-0.7,2.5-0.7c1.8,0,2.6,0.9,2.6,2.6
				L150,309.5L150,309.5z M148.5,306.1l-1.5,0.2c-0.5,0.1-0.8,0.2-1,0.3c-0.2,0.2-0.3,0.4-0.3,0.8c0,0.3,0.1,0.5,0.3,0.7
				s0.5,0.3,0.8,0.3c0.5,0,0.9-0.2,1.2-0.5s0.5-0.8,0.5-1.3V306.1z"/>
		</g>
		<g>
			<path fill="#00BCF2" d="M71.5,266.5l-2.7,9.8H67l-1.9-6.8c-0.1-0.3-0.1-0.6-0.1-1l0,0c0,0.3-0.1,0.6-0.2,0.9l-1.9,6.8H61
				l-2.7-9.8h1.8l1.8,7.1c0.1,0.3,0.1,0.6,0.1,0.9l0,0c0-0.2,0.1-0.5,0.2-0.9l2-7.1h1.7l1.8,7.2c0.1,0.2,0.1,0.5,0.1,0.9l0,0
				c0-0.2,0.1-0.5,0.2-0.9l1.7-7.2h1.8C71.5,266.4,71.5,266.5,71.5,266.5z"/>
			<path fill="#00BCF2" d="M78.4,276.2h-5.5v-9.8h5.3v1.4h-3.6v2.8H78v1.4h-3.4v2.9h3.9L78.4,276.2L78.4,276.2z"/>
			<path fill="#00BCF2" d="M80.1,276.2v-9.8h3.1c0.9,0,1.7,0.2,2.2,0.6c0.6,0.4,0.8,0.9,0.8,1.6c0,0.6-0.2,1-0.5,1.4
				s-0.7,0.7-1.3,0.9l0,0c0.7,0.1,1.2,0.3,1.6,0.7c0.4,0.4,0.6,1,0.6,1.6c0,0.8-0.3,1.5-1,2s-1.5,0.8-2.5,0.8h-3
				C80.1,276,80.1,276.2,80.1,276.2z M81.7,267.8v2.8h1c0.6,0,1-0.1,1.3-0.4s0.5-0.6,0.5-1.1c0-0.8-0.6-1.3-1.7-1.3H81.7z
				 M81.7,271.8v3.1h1.4c0.6,0,1.1-0.1,1.4-0.4s0.5-0.7,0.5-1.2c0-1-0.7-1.5-2.1-1.5H81.7z"/>
			<path fill="#00BCF2" d="M100.3,276.2h-1.8l-0.9-2.5h-3.8l-0.8,2.5h-1.8l3.7-9.8h1.8L100.3,276.2z M97.3,272.4l-1.4-3.9
				c0-0.1-0.1-0.3-0.1-0.6l0,0c0,0.3-0.1,0.5-0.1,0.6l-1.3,3.9H97.3z"/>
			<path fill="#00BCF2" d="M103.3,272.7v3.5h-1.6v-9.8h3c1.1,0,2,0.3,2.6,0.8s0.9,1.3,0.9,2.2s-0.3,1.7-1,2.3
				c-0.6,0.6-1.5,0.9-2.6,0.9h-1.3V272.7z M103.3,267.8v3.6h1c0.7,0,1.2-0.2,1.6-0.5s0.5-0.8,0.5-1.4c0-1.1-0.7-1.7-2-1.7H103.3z"/>
			<path fill="#00BCF2" d="M111.4,272.7v3.5h-1.6v-9.8h3c1.1,0,2,0.3,2.6,0.8s0.9,1.3,0.9,2.2s-0.3,1.7-1,2.3
				c-0.6,0.6-1.5,0.9-2.6,0.9h-1.3V272.7z M111.4,267.8v3.6h1c0.7,0,1.2-0.2,1.6-0.5s0.5-0.8,0.5-1.4c0-1.1-0.7-1.7-2-1.7H111.4z"/>
		</g>
	</g>
	<g>
		<path fill="#00BCF2" d="M36.6,309c-3.7,2.8-8.1,4.2-12.4,4.2c-6.2,0-12.3-2.8-16.3-8c-6.9-9-5.2-21.8,3.8-28.7
			c3.7-2.8,8.1-4.2,12.4-4.2c6.2,0,12.3,2.8,16.3,8C47.3,289.2,45.6,302.1,36.6,309L36.6,309z M42.9,278.4
			c-4.6-6.1-11.6-9.2-18.7-9.2c-5,0-10,1.6-14.3,4.9c-10.3,7.9-12.3,22.7-4.4,33c4.6,6.1,11.6,9.2,18.7,9.2c5,0,10-1.6,14.3-4.9
			C48.8,303.5,50.7,288.7,42.9,278.4L42.9,278.4z"/>
		<path fill="#00BCF2" d="M13.5,297c-1.4-1.3-2.5-2.6-3.3-3.9c-2,4-2.7,8.1-2.8,11.4c0.2,0.3,0.2,0.5,0.4,0.7c1,1.3,2.2,2.4,3.4,3.4
			C11,306,11.2,301.6,13.5,297L13.5,297z"/>
		<path fill="#00BCF2" d="M20.6,281.3c-1.8,1.3-3.8,2.9-5.7,4.9c-1.1,1.1-2,2.3-2.8,3.4c0.8,1.3,1.9,2.7,3.2,4.1
			c1-1.4,2.3-2.9,3.8-4.3c1.9-1.8,3.7-3.2,5.3-4.3C23.2,283.9,21.8,282.6,20.6,281.3L20.6,281.3z"/>
		<path fill="#00BCF2" d="M40.2,280c-0.9-1.1-1.9-2.1-2.9-3c-3.2-0.5-8.1-0.4-13.7,2.6c1.3,1.4,2.6,2.7,3.8,3.9
			C34.9,279.4,40.2,280,40.2,280L40.2,280z"/>
		<path fill="#00BCF2" d="M10.2,293.1c0.6-1.1,1.3-2.3,2-3.4c-3.2-5.1-3.1-9.3-2.7-11.3c-0.8,0.8-1.6,1.7-2.2,2.7
			C6.6,283.7,6.6,287.9,10.2,293.1L10.2,293.1z"/>
		<path fill="#00BCF2" d="M19.3,297.3c-1.5-1.2-2.8-2.4-3.9-3.5c-0.8,1.1-1.4,2.2-1.9,3.2c1,1,2.2,2.1,3.6,3.2
			c8.4,6.7,16.8,7.3,21.4,7.3c0.3,0,1.8-2,2.6-3.2C39,304.6,30.1,305.8,19.3,297.3L19.3,297.3z"/>
		<path fill="#00BCF2" d="M10.2,293.1c0.9,1.3,2,2.6,3.3,3.9c0.5-1.1,1.2-2.2,1.9-3.2c-1.3-1.4-2.4-2.8-3.2-4.1
			C11.4,290.8,10.7,291.9,10.2,293.1L10.2,293.1z"/>
		<path fill="#00BCF2" d="M24.5,285.1c7.7,7.1,16.7,13.1,19,14.7c0.2-0.6,0.4-1.2,0.6-1.8c-2.5-1.8-9-6.9-16.8-14.7
			C26.5,283.9,25.5,284.5,24.5,285.1L24.5,285.1z"/>
		<path fill="#00BCF2" d="M23.5,279.5c-1.9-2-3.8-4.1-5.7-6.3c-0.9,0.3-1.8,0.7-2.7,1.1c1.4,2.3,3.4,4.7,5.5,7
			C21.6,280.6,22.6,280,23.5,279.5L23.5,279.5z"/>
		<path fill="#00BCF2" d="M23.7,279.4c-1,0.5-2.2,1.3-3.2,2c1.2,1.3,2.5,2.7,3.8,3.9c1-0.7,2.3-1.5,3.2-2
			C26.2,282.1,24.9,280.8,23.7,279.4L23.7,279.4z"/>
		<path fill="#00BCF2" d="M23.3,279.2c-1,0.5-1.9,1.2-2.8,1.9c1.2,1.3,3,3,4.3,4.3c1-0.7,1.8-1.3,2.7-1.8
			C26.2,282.3,24.6,280.6,23.3,279.2L23.3,279.2z"/>
		<path fill="#00BCF2" d="M33.7,290.1c-1.9,1.5-2.3,4.2-0.8,6.2c1.5,1.9,4.3,2.3,6.2,0.8s2.3-4.2,0.8-6.2
			C38.4,289,35.6,288.6,33.7,290.1L33.7,290.1z"/>
		<path fill="#00BCF2" d="M24.6,301.1c-1.8,1.4-2.1,3.9-0.8,5.7c1.4,1.8,3.9,2.1,5.7,0.8c1.8-1.4,2.1-3.9,0.8-5.7
			C28.9,300.1,26.4,299.8,24.6,301.1L24.6,301.1z"/>
		<path fill="#00BCF2" d="M9.2,288.1C6.5,290.2,6,294,8,296.8c2.1,2.7,6,3.2,8.7,1.2c2.7-2.1,3.2-5.9,1.2-8.7
			C15.8,286.6,11.9,286.1,9.2,288.1L9.2,288.1z"/>
	</g>
</g>
<rect x="30.6" y="225" fill-opacity="0" width="94.8" height="104.2"/>
<line fill="none" stroke="#DEDEDE" stroke-width="4" stroke-linecap="round" stroke-linejoin="round" stroke-miterlimit="10" x1="102.4" y1="-27.1" x2="103.4" y2="231.8"/>
<circle fill="none" stroke="#DEDEDE" stroke-width="4" stroke-linecap="round" stroke-linejoin="round" stroke-miterlimit="10" cx="103.4" cy="237.3" r="5"/>
</svg>
