<?xml version="1.0" encoding="utf-8"?>
<!-- Generator: Adobe Illustrator 19.2.0, SVG Export Plug-In . SVG Version: 6.00 Build 0)  -->
<svg version="1.1" id="Layer_1" xmlns="http://www.w3.org/2000/svg" xmlns:xlink="http://www.w3.org/1999/xlink" x="0px" y="0px"
	 width="157px" height="329px" viewBox="0 0 157 329" enable-background="new 0 0 157 329" xml:space="preserve">
<rect x="30.6" y="225" fill-opacity="0" width="94.8" height="104.2"/>
<g id="Layer_2">
</g>
<g>
	<g>
		<g>
			<path fill="#00BCF2" d="M11.7,284.7c-0.3,0-0.5-0.1-0.7-0.3c-0.2-0.2-0.3-0.4-0.3-0.6c0-0.3,0.1-0.5,0.3-0.6s0.4-0.3,0.7-0.3
				s0.5,0.1,0.7,0.3s0.3,0.4,0.3,0.6s-0.1,0.5-0.3,0.6C12.2,284.6,12,284.7,11.7,284.7z M12.5,293.2h-1.6v-7h1.6V293.2z"/>
			<path fill="#00BCF2" d="M18.8,293.3c-1.4,0-2.5-0.5-3.4-1.4c-0.8-0.9-1.3-2.1-1.3-3.6c0-1.6,0.4-2.8,1.3-3.8
				c0.9-0.9,2-1.4,3.5-1.4c1.4,0,2.5,0.5,3.3,1.4s1.3,2.1,1.3,3.6c0,1.6-0.4,2.8-1.3,3.8S20.2,293.3,18.8,293.3z M18.8,284.7
				c-0.9,0-1.6,0.3-2.2,1s-0.8,1.5-0.8,2.6s0.3,2,0.8,2.6c0.5,0.7,1.3,1,2.1,1c0.9,0,1.7-0.3,2.2-0.9s0.8-1.5,0.8-2.6
				c0-1.2-0.3-2.1-0.8-2.7S19.8,284.7,18.8,284.7z"/>
			<path fill="#00BCF2" d="M24.8,292.8v-1.7c0.1,0.1,0.3,0.3,0.5,0.4s0.4,0.2,0.7,0.3c0.2,0.1,0.5,0.1,0.7,0.2
				c0.2,0,0.4,0.1,0.6,0.1c0.7,0,1.2-0.1,1.5-0.3s0.5-0.6,0.5-1c0-0.2-0.1-0.4-0.2-0.6s-0.3-0.3-0.5-0.5s-0.4-0.3-0.7-0.4
				c-0.3-0.1-0.6-0.3-0.9-0.4c-0.3-0.2-0.6-0.4-0.9-0.5c-0.3-0.2-0.5-0.4-0.7-0.6s-0.4-0.5-0.5-0.7s-0.2-0.6-0.2-1
				c0-0.5,0.1-0.9,0.3-1.2c0.2-0.3,0.5-0.6,0.8-0.8c0.3-0.2,0.7-0.4,1.2-0.5s0.9-0.2,1.3-0.2c1,0,1.8,0.1,2.2,0.3v1.6
				c-0.6-0.4-1.3-0.6-2.1-0.6c-0.2,0-0.5,0-0.7,0.1c-0.2,0-0.5,0.1-0.6,0.2s-0.3,0.2-0.5,0.4s-0.2,0.4-0.2,0.6s0,0.4,0.1,0.6
				s0.2,0.3,0.4,0.4c0.2,0.1,0.4,0.3,0.6,0.4c0.3,0.1,0.5,0.3,0.9,0.4c0.3,0.2,0.7,0.4,1,0.6s0.6,0.4,0.8,0.6
				c0.2,0.2,0.4,0.5,0.5,0.8s0.2,0.6,0.2,1c0,0.5-0.1,0.9-0.3,1.3c-0.2,0.3-0.5,0.6-0.8,0.8s-0.7,0.4-1.2,0.5
				c-0.4,0.1-0.9,0.1-1.4,0.1c-0.2,0-0.4,0-0.6,0s-0.5-0.1-0.7-0.1s-0.5-0.1-0.7-0.2C25.1,292.9,25,292.9,24.8,292.8z"/>
			<path fill="#00BCF2" d="M34.2,291.5l-1.1,3.4h-1.2l0.7-3.4H34.2z"/>
			<path fill="#00BCF2" d="M48.1,293.2h-1.8l-0.9-2.5h-3.8l-0.8,2.5H39l3.7-9.8h1.8L48.1,293.2z M45,289.4l-1.4-3.9
				c0-0.1-0.1-0.3-0.1-0.6l0,0c0,0.3-0.1,0.5-0.1,0.6l-1.3,3.9H45z"/>
			<path fill="#00BCF2" d="M55.4,293.2h-1.6v-3.9c0-1.3-0.5-2-1.4-2c-0.5,0-0.9,0.2-1.2,0.5c-0.3,0.4-0.5,0.8-0.5,1.4v4h-1.6v-7h1.6
				v1.2l0,0c0.5-0.9,1.3-1.3,2.3-1.3c0.8,0,1.3,0.2,1.7,0.7s0.6,1.2,0.6,2.1v4.3L55.4,293.2L55.4,293.2z"/>
			<path fill="#00BCF2" d="M63.7,293.2h-1.6V292l0,0c-0.5,0.9-1.3,1.3-2.3,1.3c-0.9,0-1.5-0.3-2.1-0.9c-0.5-0.6-0.8-1.5-0.8-2.5
				c0-1.2,0.3-2.1,0.9-2.8c0.6-0.7,1.3-1,2.3-1c0.9,0,1.6,0.4,2,1.1l0,0v-4.4h1.6C63.7,282.8,63.7,293.2,63.7,293.2z M62.1,290v-0.9
				c0-0.5-0.2-0.9-0.5-1.3c-0.3-0.3-0.7-0.5-1.2-0.5c-0.6,0-1.1,0.2-1.4,0.7c-0.3,0.4-0.5,1-0.5,1.8c0,0.7,0.2,1.3,0.5,1.7
				c0.3,0.4,0.8,0.6,1.3,0.6s1-0.2,1.3-0.6C61.9,291.1,62.1,290.6,62.1,290z"/>
			<path fill="#00BCF2" d="M69.8,287.7c-0.2-0.1-0.5-0.2-0.8-0.2c-0.5,0-0.9,0.2-1.2,0.6c-0.3,0.4-0.5,1-0.5,1.7v3.3h-1.6v-7h1.6
				v1.4l0,0c0.2-0.5,0.4-0.9,0.7-1.1c0.3-0.3,0.7-0.4,1.1-0.4c0.3,0,0.5,0,0.7,0.1C69.8,286.1,69.8,287.7,69.8,287.7z"/>
			<path fill="#00BCF2" d="M73.9,293.3c-1.1,0-1.9-0.3-2.6-1s-1-1.5-1-2.6c0-1.2,0.3-2.1,1-2.7s1.6-1,2.7-1s1.9,0.3,2.5,1
				c0.6,0.6,0.9,1.5,0.9,2.7c0,1.1-0.3,2-1,2.7C75.8,293,75,293.3,73.9,293.3z M73.9,287.3c-0.6,0-1.1,0.2-1.5,0.6s-0.5,1-0.5,1.8
				c0,0.7,0.2,1.3,0.5,1.7c0.4,0.4,0.8,0.6,1.5,0.6c0.6,0,1.1-0.2,1.4-0.6s0.5-1,0.5-1.8s-0.2-1.4-0.5-1.8
				C75,287.5,74.6,287.3,73.9,287.3z"/>
			<path fill="#00BCF2" d="M79.9,284.7c-0.3,0-0.5-0.1-0.7-0.3s-0.3-0.3-0.3-0.6s0.1-0.5,0.3-0.6c0.2-0.1,0.4-0.3,0.7-0.3
				c0.3,0,0.5,0.1,0.7,0.3s0.3,0.4,0.3,0.6s-0.1,0.5-0.3,0.6C80.4,284.6,80.1,284.7,79.9,284.7z M80.7,293.2h-1.6v-7h1.6V293.2z"/>
			<path fill="#00BCF2" d="M89.1,293.2h-1.6V292l0,0c-0.5,0.9-1.3,1.3-2.3,1.3c-0.9,0-1.5-0.3-2.1-0.9c-0.5-0.6-0.8-1.5-0.8-2.5
				c0-1.2,0.3-2.1,0.9-2.8c0.6-0.7,1.3-1,2.3-1c0.9,0,1.6,0.4,2,1.1l0,0v-4.4h1.6V293.2z M87.5,290v-0.9c0-0.5-0.2-0.9-0.5-1.3
				c-0.3-0.3-0.7-0.5-1.2-0.5c-0.6,0-1.1,0.2-1.4,0.7c-0.3,0.4-0.5,1-0.5,1.8c0,0.7,0.2,1.3,0.5,1.7c0.3,0.4,0.8,0.6,1.3,0.6
				s1-0.2,1.3-0.6C87.3,291.1,87.5,290.6,87.5,290z"/>
			<path fill="#00BCF2" d="M92.6,291.5l-1.1,3.4h-1.2l0.7-3.4H92.6z"/>
			<path fill="#00BCF2" d="M18.4,309.9h-1.9l-2-3.6c-0.1-0.1-0.1-0.3-0.2-0.5l0,0c0,0.1-0.1,0.3-0.2,0.5l-2.1,3.6h-2l3.2-4.9
				l-2.9-4.8h2l1.8,3.3c0.1,0.2,0.2,0.4,0.3,0.7l0,0c0.1-0.3,0.2-0.5,0.3-0.7l1.8-3.3h1.8l-3,4.8L18.4,309.9z"/>
			<path fill="#00BCF2" d="M24.9,309.9h-1.5v-1.1l0,0c-0.5,0.8-1.2,1.3-2.1,1.3c-0.7,0-1.2-0.2-1.6-0.6s-0.6-0.9-0.6-1.5
				c0-1.3,0.8-2.1,2.3-2.3l2.1-0.3c0-1-0.5-1.5-1.4-1.5c-0.8,0-1.6,0.3-2.2,0.9v-1.4c0.7-0.4,1.6-0.7,2.5-0.7c1.8,0,2.6,0.9,2.6,2.6
				L24.9,309.9L24.9,309.9z M23.4,306.5l-1.5,0.2c-0.5,0.1-0.8,0.2-1,0.3c-0.2,0.2-0.3,0.4-0.3,0.8c0,0.3,0.1,0.5,0.3,0.7
				c0.2,0.2,0.5,0.3,0.8,0.3c0.5,0,0.9-0.2,1.2-0.5c0.3-0.3,0.5-0.8,0.5-1.3V306.5z"/>
			<path fill="#00BCF2" d="M37.2,309.9h-1.6v-3.8c0-0.7-0.1-1.3-0.3-1.6c-0.2-0.3-0.6-0.5-1-0.5s-0.8,0.2-1.1,0.6s-0.4,0.9-0.4,1.5
				v3.8h-1.6V306c0-1.3-0.5-1.9-1.4-1.9c-0.4,0-0.8,0.2-1.1,0.6c-0.3,0.4-0.4,0.9-0.4,1.5v3.8h-1.6v-7h1.6v1.1l0,0
				c0.5-0.8,1.2-1.3,2.2-1.3c0.5,0,0.9,0.1,1.3,0.4c0.4,0.3,0.6,0.6,0.7,1c0.5-1,1.3-1.4,2.3-1.4c1.5,0,2.3,0.9,2.3,2.8L37.2,309.9
				L37.2,309.9z"/>
			<path fill="#00BCF2" d="M44.5,309.9H43v-1.1l0,0c-0.5,0.8-1.2,1.3-2.1,1.3c-0.7,0-1.2-0.2-1.6-0.6c-0.4-0.4-0.6-0.9-0.6-1.5
				c0-1.3,0.8-2.1,2.3-2.3l2.1-0.3c0-1-0.5-1.5-1.4-1.5c-0.8,0-1.6,0.3-2.2,0.9v-1.4c0.7-0.4,1.6-0.7,2.5-0.7c1.8,0,2.6,0.9,2.6,2.6
				L44.5,309.9L44.5,309.9z M43,306.5l-1.5,0.2c-0.5,0.1-0.8,0.2-1,0.3c-0.2,0.2-0.3,0.4-0.3,0.8c0,0.3,0.1,0.5,0.3,0.7
				s0.5,0.3,0.8,0.3c0.5,0,0.9-0.2,1.2-0.5s0.5-0.8,0.5-1.3V306.5z"/>
			<path fill="#00BCF2" d="M50.5,304.4c-0.2-0.1-0.5-0.2-0.8-0.2c-0.5,0-0.9,0.2-1.2,0.6s-0.5,1-0.5,1.7v3.3h-1.6v-7H48v1.4l0,0
				c0.2-0.5,0.4-0.9,0.7-1.1c0.3-0.3,0.7-0.4,1.1-0.4c0.3,0,0.5,0,0.7,0.1V304.4z"/>
			<path fill="#00BCF2" d="M52.4,301.4c-0.3,0-0.5-0.1-0.7-0.3c-0.2-0.2-0.3-0.4-0.3-0.6c0-0.3,0.1-0.5,0.3-0.6s0.4-0.3,0.7-0.3
				s0.5,0.1,0.7,0.3c0.2,0.2,0.3,0.4,0.3,0.6s-0.1,0.5-0.3,0.6C52.9,301.4,52.6,301.4,52.4,301.4z M53.2,309.9h-1.6v-7h1.6V309.9z"
				/>
			<path fill="#00BCF2" d="M61.4,309.9h-1.6V306c0-1.3-0.5-2-1.4-2c-0.5,0-0.9,0.2-1.2,0.5c-0.3,0.4-0.5,0.8-0.5,1.4v4h-1.6v-7h1.6
				v1.2l0,0c0.5-0.9,1.3-1.3,2.3-1.3c0.8,0,1.3,0.2,1.7,0.7s0.6,1.2,0.6,2.1v4.3L61.4,309.9L61.4,309.9z"/>
			<path fill="#00BCF2" d="M64.8,308.2l-1.1,3.4h-1.2l0.7-3.4H64.8z"/>
			<path fill="#00BCF2" d="M75.9,309.9h-1.5v-1.1l0,0c-0.5,0.8-1.2,1.3-2.1,1.3c-0.7,0-1.2-0.2-1.6-0.6s-0.6-0.9-0.6-1.5
				c0-1.3,0.8-2.1,2.3-2.3l2.1-0.3c0-1-0.5-1.5-1.4-1.5c-0.8,0-1.6,0.3-2.2,0.9v-1.4c0.7-0.4,1.6-0.7,2.5-0.7c1.8,0,2.6,0.9,2.6,2.6
				v4.6H75.9z M74.4,306.5l-1.5,0.2c-0.5,0.1-0.8,0.2-1,0.3c-0.2,0.2-0.3,0.4-0.3,0.8c0,0.3,0.1,0.5,0.3,0.7
				c0.2,0.2,0.5,0.3,0.8,0.3c0.5,0,0.9-0.2,1.2-0.5c0.3-0.3,0.5-0.8,0.5-1.3V306.5z"/>
			<path fill="#00BCF2" d="M84,309.9h-1.6V306c0-1.3-0.5-2-1.4-2c-0.5,0-0.9,0.2-1.2,0.5c-0.3,0.4-0.5,0.8-0.5,1.4v4h-1.6v-7h1.6
				v1.2l0,0c0.5-0.9,1.3-1.3,2.3-1.3c0.8,0,1.3,0.2,1.7,0.7c0.4,0.5,0.6,1.2,0.6,2.1L84,309.9L84,309.9z"/>
			<path fill="#00BCF2" d="M92.3,309.9h-1.6v-1.2l0,0c-0.5,0.9-1.3,1.3-2.3,1.3c-0.9,0-1.5-0.3-2.1-0.9c-0.5-0.6-0.8-1.5-0.8-2.5
				c0-1.2,0.3-2.1,0.9-2.8c0.6-0.7,1.3-1,2.3-1c0.9,0,1.6,0.4,2,1.1l0,0v-4.3h1.6V309.9z M90.7,306.7v-0.9c0-0.5-0.2-0.9-0.5-1.3
				c-0.3-0.3-0.7-0.5-1.2-0.5c-0.6,0-1.1,0.2-1.4,0.7c-0.3,0.4-0.5,1-0.5,1.8c0,0.7,0.2,1.3,0.5,1.7s0.8,0.6,1.3,0.6s1-0.2,1.3-0.6
				C90.5,307.8,90.7,307.3,90.7,306.7z"/>
			<path fill="#00BCF2" d="M18.9,326.6h-1.6v-4.2h-4.6v4.2h-1.6v-9.8h1.6v4.1h4.6v-4.1h1.6V326.6z"/>
			<path fill="#00BCF2" d="M27.6,318.2h-2.8v8.4h-1.6v-8.4h-2.8v-1.4h7.2C27.6,316.8,27.6,318.2,27.6,318.2z"/>
			<path fill="#00BCF2" d="M39.5,326.6h-1.6v-6.3c0-0.5,0-1.1,0.1-1.9l0,0c-0.1,0.4-0.2,0.7-0.3,0.9l-2.9,7.3h-1.1l-2.9-7.2
				c-0.1-0.2-0.2-0.5-0.3-1l0,0c0,0.4,0.1,1,0.1,1.9v6.3h-1.5v-9.8h2.3l2.6,6.5c0.2,0.5,0.3,0.9,0.4,1.1l0,0
				c0.2-0.5,0.3-0.9,0.4-1.1l2.6-6.5h2.2v9.8L39.5,326.6L39.5,326.6z"/>
			<path fill="#00BCF2" d="M47.3,326.6h-5.4v-9.8h1.6v8.4h3.8C47.3,325.2,47.3,326.6,47.3,326.6z"/>
			<path fill="#00BCF2" d="M53.4,316.8l-4.7,11.4h-1.4l4.6-11.4H53.4z"/>
			<path fill="#00BCF2" d="M57.7,323.1c0,1.2-0.3,2.1-0.9,2.7s-1.3,1-2.3,1c-0.4,0-0.8-0.1-1.1-0.2v-1.5c0.3,0.2,0.6,0.3,1,0.3
				c1.1,0,1.6-0.8,1.6-2.5v-6h1.6v6.2H57.7z"/>
			<path fill="#00BCF2" d="M59.5,326.2v-1.7c0.1,0.1,0.3,0.3,0.5,0.4s0.4,0.2,0.7,0.3c0.2,0.1,0.5,0.1,0.7,0.2
				c0.2,0,0.4,0.1,0.6,0.1c0.7,0,1.2-0.1,1.5-0.3s0.5-0.6,0.5-1c0-0.2-0.1-0.4-0.2-0.6s-0.3-0.3-0.5-0.5s-0.4-0.3-0.7-0.4
				s-0.6-0.3-0.9-0.4c-0.3-0.2-0.6-0.4-0.9-0.5c-0.3-0.2-0.5-0.4-0.7-0.6s-0.4-0.5-0.5-0.7s-0.2-0.6-0.2-1c0-0.5,0.1-0.9,0.3-1.2
				s0.5-0.6,0.8-0.8c0.3-0.2,0.7-0.4,1.2-0.5s0.9-0.2,1.3-0.2c1,0,1.8,0.1,2.2,0.3v1.6c-0.6-0.4-1.3-0.6-2.1-0.6
				c-0.2,0-0.5,0-0.7,0.1c-0.2,0-0.5,0.1-0.6,0.2s-0.3,0.2-0.5,0.4s-0.2,0.4-0.2,0.6s0,0.4,0.1,0.6s0.2,0.3,0.4,0.4s0.4,0.3,0.6,0.4
				c0.3,0.1,0.5,0.3,0.9,0.4c0.3,0.2,0.7,0.4,1,0.6c0.3,0.2,0.6,0.4,0.8,0.6c0.2,0.2,0.4,0.5,0.5,0.8s0.2,0.6,0.2,1
				c0,0.5-0.1,0.9-0.3,1.3c-0.2,0.3-0.5,0.6-0.8,0.8c-0.3,0.2-0.7,0.4-1.2,0.5c-0.4,0.1-0.9,0.1-1.4,0.1c-0.2,0-0.4,0-0.6,0
				c-0.2,0-0.5-0.1-0.7-0.1s-0.5-0.1-0.7-0.2C59.9,326.4,59.7,326.3,59.5,326.2z"/>
		</g>
		<g>
			<path fill="#00BCF2" d="M21.6,275.2H20v-6.3c0-0.5,0-1.1,0.1-1.9l0,0c-0.1,0.4-0.2,0.7-0.3,0.9l-2.9,7.3h-1.2l-2.9-7.2
				c-0.1-0.2-0.2-0.5-0.3-1l0,0c0,0.4,0.1,1,0.1,1.9v6.3h-1.5v-9.8h2.3l2.5,6.6c0.2,0.5,0.3,0.9,0.4,1.1l0,0
				c0.2-0.5,0.3-0.9,0.4-1.1l2.6-6.5h2.2L21.6,275.2L21.6,275.2z"/>
			<path fill="#00BCF2" d="M28,275.4c-1.4,0-2.5-0.5-3.4-1.4c-0.8-0.9-1.3-2.1-1.3-3.6c0-1.6,0.4-2.8,1.3-3.8c0.9-0.9,2-1.4,3.5-1.4
				c1.4,0,2.5,0.5,3.3,1.4c0.8,0.9,1.3,2.1,1.3,3.6c0,1.6-0.4,2.8-1.3,3.8C30.6,274.9,29.4,275.4,28,275.4z M28.1,266.7
				c-0.9,0-1.6,0.3-2.2,1s-0.8,1.5-0.8,2.6s0.3,2,0.8,2.6c0.5,0.7,1.3,1,2.1,1c0.9,0,1.7-0.3,2.2-0.9s0.8-1.5,0.8-2.6
				c0-1.2-0.3-2.1-0.8-2.7S29,266.7,28.1,266.7z"/>
			<path fill="#00BCF2" d="M34.5,275.2v-9.8h3.1c0.9,0,1.7,0.2,2.2,0.6c0.6,0.4,0.8,0.9,0.8,1.6c0,0.6-0.2,1-0.5,1.4
				c-0.2,0.5-0.6,0.8-1.2,1l0,0c0.7,0.1,1.2,0.3,1.6,0.7c0.4,0.4,0.6,1,0.6,1.6c0,0.8-0.3,1.5-1,2s-1.5,0.8-2.5,0.8L34.5,275.2
				C34.5,275.1,34.5,275.2,34.5,275.2z M36.1,266.8v2.8h1c0.6,0,1-0.1,1.3-0.4s0.5-0.6,0.5-1.1c0-0.8-0.6-1.3-1.7-1.3H36.1z
				 M36.1,270.8v3.1h1.4c0.6,0,1.1-0.1,1.4-0.4c0.3-0.3,0.5-0.7,0.5-1.2c0-1-0.7-1.5-2.1-1.5H36.1z"/>
			<path fill="#00BCF2" d="M44.6,275.2h-1.7v-9.8h1.7V275.2z"/>
			<path fill="#00BCF2" d="M52.4,275.2H47v-9.8h1.6v8.4h3.8C52.4,273.8,52.4,275.2,52.4,275.2z"/>
			<path fill="#00BCF2" d="M59.3,275.2h-5.5v-9.8h5.3v1.4h-3.6v2.8h3.4v1.4h-3.4v2.9h3.9v1.3L59.3,275.2L59.3,275.2z"/>
			<path fill="#00BCF2" d="M72.8,275.2H71l-0.9-2.5h-3.8l-0.8,2.5h-1.8l3.7-9.8h1.8L72.8,275.2z M69.8,271.4l-1.4-3.9
				c0-0.1-0.1-0.3-0.1-0.6l0,0c0,0.3-0.1,0.5-0.1,0.6l-1.3,3.9H69.8z"/>
			<path fill="#00BCF2" d="M75.8,271.7v3.5h-1.6v-9.8h3c1.1,0,2,0.3,2.6,0.8s0.9,1.3,0.9,2.2s-0.3,1.7-1,2.3
				c-0.6,0.6-1.5,0.9-2.6,0.9L75.8,271.7L75.8,271.7z M75.8,266.8v3.6h1c0.7,0,1.2-0.2,1.6-0.5s0.5-0.8,0.5-1.4c0-1.1-0.7-1.7-2-1.7
				H75.8z"/>
			<path fill="#00BCF2" d="M83.9,271.7v3.5h-1.6v-9.8h3c1.1,0,2,0.3,2.6,0.8s0.9,1.3,0.9,2.2s-0.3,1.7-1,2.3
				c-0.6,0.6-1.5,0.9-2.6,0.9L83.9,271.7L83.9,271.7z M83.9,266.8v3.6h1c0.7,0,1.2-0.2,1.6-0.5s0.5-0.8,0.5-1.4c0-1.1-0.7-1.7-2-1.7
				H83.9z"/>
		</g>
	</g>
	<g>
		<path fill="#00BCF2" d="M135.8,261.3L135.8,261.3l-29.3,4l0,0c-2.5,0.4-2.5,1-2.1,4.1l6.9,50.1c0.4,3.1,0.5,3.7,3.1,3.4
			c0,0,0.8-0.1,0.9-0.1l27.5-3.8c0.1,0,0.9-0.1,0.9-0.1c2.5-0.4,2.5-1,2.1-4.1l-6.9-50.1C138.5,261.6,138.3,261,135.8,261.3
			L135.8,261.3z M117.3,265.8l8.1-1.1c0.2,0,0.3,0.1,0.3,0.3c0,0.1-0.1,0.3-0.2,0.3l-8.1,1.1c-0.1,0-0.3-0.1-0.3-0.3
			C117.1,266,117.2,265.8,117.3,265.8L117.3,265.8z M124.8,318.5l-2,0.3c-0.3,0-0.6,0-0.7-0.4c0-0.3,0.2-0.5,0.5-0.5l2-0.3
			c0.3,0,0.6,0,0.7,0.4C125.3,318.3,125.1,318.4,124.8,318.5L124.8,318.5z M130,318.1l-2.7,0.4c-0.4,0.1-0.8-0.1-0.9-0.5
			s0.3-0.7,0.7-0.7l2.7-0.4c0.4-0.1,0.8,0.1,0.9,0.5C130.8,317.8,130.4,318,130,318.1L130,318.1z M134.4,317.1l-2,0.3
			c-0.3,0-0.6,0-0.7-0.4c0-0.3,0.2-0.5,0.5-0.5l2-0.3c0.3,0,0.6,0,0.7,0.4C135,316.9,134.8,317.1,134.4,317.1L134.4,317.1z
			 M142.5,310.1c0.4,2.6,0.2,3.2-2.3,3.6l-13.3,1.8l-10.7,1.5c-2.5,0.3-2.8-0.2-3.2-2.9l-5.7-41.7c-0.4-2.8-0.1-2.8,2.7-3.2
			l10.4-1.4l13-1.8c2.8-0.4,3-0.4,3.4,2.4L142.5,310.1L142.5,310.1L142.5,310.1z"/>
		<path fill="#00BCF2" d="M135.4,270.3c-0.4-2.7-0.7-2.6-3.4-2.3l-20.2,2.8c-2.7,0.4-2.9,0.4-2.6,3.1l5.2,38.2
			c0.4,2.7,0.7,3.1,3.4,2.7L138,312c2.7-0.4,2.9-0.9,2.6-3.6L135.4,270.3L135.4,270.3L135.4,270.3z M125.4,300.4l-8.9-3.7l-1.3-9.6
			l8.9,3.6L125.4,300.4L125.4,300.4L125.4,300.4z M115.8,285.8l7.6-5.9l9,3.7l-7.6,5.9L115.8,285.8L115.8,285.8L115.8,285.8z
			 M134.6,294.3l-7.6,5.9l-1.3-9.5l7.6-5.9L134.6,294.3L134.6,294.3L134.6,294.3z"/>
	</g>
</g>
<rect x="30.6" y="225" fill-opacity="0" width="94.8" height="104.2"/>
<line fill="none" stroke="#DEDEDE" stroke-width="4" stroke-linecap="round" stroke-linejoin="round" stroke-miterlimit="10" x1="52.4" y1="-27.1" x2="53.4" y2="231.8"/>
<circle fill="none" stroke="#DEDEDE" stroke-width="4" stroke-linecap="round" stroke-linejoin="round" stroke-miterlimit="10" cx="53.4" cy="237.3" r="5"/>
</svg>
