<?xml version="1.0" encoding="utf-8"?>
<!-- Generator: Adobe Illustrator 19.2.0, SVG Export Plug-In . SVG Version: 6.00 Build 0)  -->
<svg version="1.1" id="Layer_1" xmlns="http://www.w3.org/2000/svg" xmlns:xlink="http://www.w3.org/1999/xlink" x="0px" y="0px"
	 width="127px" height="250px" viewBox="0 0 127 250" style="enable-background:new 0 0 127 250;" xml:space="preserve">
<circle cx="63.4" cy="214" r="11"/>
<g>
	<path d="M25.9,242.5h-1.6v-6.3c0-0.5,0-1.1,0.1-1.9l0,0c-0.1,0.4-0.2,0.7-0.3,0.9l-2.9,7.3h-1.1l-2.9-7.2c-0.1-0.2-0.2-0.5-0.3-1
		l0,0c0,0.4,0.1,1,0.1,1.9v6.3h-1.5v-9.8h2.3l2.6,6.5c0.2,0.5,0.3,0.9,0.4,1.1l0,0c0.2-0.5,0.3-0.9,0.4-1.1l2.6-6.5H26v9.8H25.9z"/>
	<path d="M36.3,242.5h-1.8l-0.9-2.5h-3.8l-0.8,2.5h-1.8l3.7-9.8h1.8L36.3,242.5z M33.2,238.7l-1.4-3.9c0-0.1-0.1-0.3-0.1-0.6l0,0
		c0,0.3-0.1,0.5-0.1,0.6l-1.3,3.9H33.2z"/>
	<path d="M45.9,242.5h-1.8l-4.7-7.2c-0.1-0.2-0.2-0.4-0.3-0.6l0,0c0,0.2,0.1,0.7,0.1,1.3v6.4h-1.6v-9.8h1.9l4.5,7
		c0.2,0.3,0.3,0.5,0.4,0.6l0,0c0-0.3-0.1-0.7-0.1-1.3v-6.3h1.6C45.9,232.6,45.9,242.5,45.9,242.5z"/>
	<path d="M56.3,242.5h-1.8l-0.9-2.5h-3.8l-0.8,2.5h-1.8l3.7-9.8h1.8L56.3,242.5z M53.3,238.7l-1.4-3.9c0-0.1-0.1-0.3-0.1-0.6l0,0
		c0,0.3-0.1,0.5-0.1,0.6l-1.3,3.9H53.3z"/>
	<path d="M65.1,241.8c-1,0.6-2.1,0.8-3.4,0.8c-1.4,0-2.6-0.4-3.5-1.3s-1.3-2.1-1.3-3.6s0.5-2.7,1.5-3.7s2.2-1.5,3.7-1.5
		c1.1,0,2,0.2,2.7,0.5v1.7c-0.7-0.5-1.6-0.7-2.7-0.7c-1,0-1.9,0.3-2.6,1c-0.7,0.7-1,1.6-1,2.7c0,1.1,0.3,2,0.9,2.6s1.3,1,2.3,1
		c0.7,0,1.3-0.1,1.7-0.4v-2.3h-2.1v-1.4H65L65.1,241.8L65.1,241.8z"/>
	<path d="M72.7,242.5h-5.5v-9.8h5.3v1.4h-3.6v2.8h3.4v1.4h-3.4v2.9h3.9v1.3L72.7,242.5L72.7,242.5z"/>
	<path d="M84.9,242.5h-1.6v-6.3c0-0.5,0-1.1,0.1-1.9l0,0c-0.1,0.4-0.2,0.7-0.3,0.9l-2.9,7.3h-1.1l-2.9-7.2c-0.1-0.2-0.2-0.5-0.3-1
		l0,0c0,0.4,0.1,1,0.1,1.9v6.3h-1.5v-9.8h2.3l2.6,6.5c0.2,0.5,0.3,0.9,0.4,1.1l0,0c0.2-0.5,0.3-0.9,0.4-1.1l2.6-6.5H85L84.9,242.5
		L84.9,242.5z"/>
	<path d="M92.8,242.5h-5.5v-9.8h5.3v1.4H89v2.8h3.4v1.4H89v2.9h3.9L92.8,242.5L92.8,242.5L92.8,242.5z"/>
	<path d="M102.8,242.5H101l-4.7-7.2c-0.1-0.2-0.2-0.4-0.3-0.6l0,0c0,0.2,0.1,0.7,0.1,1.3v6.4h-1.6v-9.8h1.9l4.5,7
		c0.2,0.3,0.3,0.5,0.4,0.6l0,0c0-0.3-0.1-0.7-0.1-1.3v-6.3h1.6V242.5z"/>
	<path d="M111.5,234.1h-2.8v8.4H107v-8.4h-2.8v-1.4h7.2v1.4H111.5z"/>
</g>
<g>
	<path style="fill:#FFFFFF;" d="M66.3,213.6c0,0.8-0.1,1.6-0.3,2.2c-0.2,0.6-0.4,1.1-0.8,1.5s-0.7,0.7-1.1,0.9s-0.9,0.3-1.4,0.3
		c-0.2,0-0.3,0-0.5,0s-0.3,0-0.5-0.1s-0.3-0.1-0.4-0.1s-0.2-0.1-0.3-0.1V217c0.1,0.1,0.2,0.1,0.3,0.2c0.1,0.1,0.3,0.1,0.4,0.1
		s0.3,0.1,0.4,0.1s0.3,0,0.4,0c0.3,0,0.6-0.1,0.9-0.2c0.3-0.1,0.5-0.3,0.7-0.6s0.3-0.6,0.4-0.9c0.1-0.3,0.2-0.8,0.2-1.3l0,0
		c-0.1,0.1-0.2,0.2-0.3,0.4s-0.2,0.2-0.4,0.3s-0.3,0.2-0.5,0.2c-0.2,0.1-0.4,0.1-0.6,0.1c-0.4,0-0.7-0.1-1-0.2
		c-0.3-0.1-0.6-0.3-0.8-0.5s-0.4-0.5-0.5-0.8s-0.2-0.7-0.2-1.1s0.1-0.8,0.2-1.2s0.3-0.7,0.6-0.9s0.6-0.4,0.9-0.6s0.7-0.2,1.1-0.2
		c0.4,0,0.7,0.1,1.1,0.2s0.6,0.4,0.9,0.7s0.5,0.7,0.6,1.2S66.3,212.9,66.3,213.6z M64.8,212.7c0-0.3,0-0.5-0.1-0.8s-0.2-0.4-0.3-0.6
		c-0.1-0.2-0.3-0.3-0.4-0.4c-0.2-0.1-0.4-0.1-0.6-0.1c-0.2,0-0.4,0-0.5,0.1s-0.3,0.2-0.4,0.3s-0.2,0.3-0.3,0.5s-0.2,0.5-0.2,0.7
		c0,0.3,0,0.5,0.1,0.7s0.2,0.4,0.3,0.5s0.3,0.2,0.5,0.3s0.4,0.1,0.6,0.1c0.2,0,0.4,0,0.5-0.1c0.1-0.1,0.3-0.2,0.4-0.3
		s0.2-0.3,0.3-0.4S64.8,212.9,64.8,212.7z"/>
</g>
<g>
	
		<line style="fill:none;stroke:#DFDFDE;stroke-width:4;stroke-linecap:round;stroke-linejoin:round;stroke-miterlimit:10;" x1="62.5" y1="-86.7" x2="63.5" y2="172.2"/>
	
		<circle style="fill:none;stroke:#DFDFDE;stroke-width:4;stroke-linecap:round;stroke-linejoin:round;stroke-miterlimit:10;" cx="63.5" cy="177.7" r="5"/>
</g>
</svg>
