<svg id="Layer_1" xmlns="http://www.w3.org/2000/svg" width="160" height="475" viewBox="0 0 160 475"><g fill="#FFF" stroke="#010101" stroke-width="3" stroke-linecap="round" stroke-linejoin="round"><path d="M138.8 278.7c-5.3 32.8-36.1 55.1-68.9 49.9S14.8 292.5 20 259.7c1.3-8.4 4.4-16.1 8.7-22.8 7.5-11.7 18.8-20.4 31.9-24.8 8.9-2.9 18.5-3.8 28.4-2.3 32.7 5.3 55 36.1 49.8 68.9z"/><path d="M128 277c-4.3 26.9-29.6 45.1-56.4 40.8s-45.1-29.6-40.8-56.4c1.1-6.9 3.6-13.2 7.1-18.7C44 233.1 53.3 226 64 222.4c7.3-2.4 15.2-3.1 23.2-1.8 26.9 4.3 45.1 29.5 40.8 56.4z"/></g><g fill="#010101"><path d="M50.7 285.9v-3.1zM93.8 251.9l2.2-.8v-1.8l-2.2-.7-.5-1.3 1-2.1-1.3-1.3-2.1 1.1-1.3-.5-.8-2.2H87l-.7 2.2-1.3.5-2.1-1-1.3 1.3.7 1.3.4.8-.5 1.3-1.5.5-.8.3v1.8l2.2.7.5 1.3-1 2.1 1.3 1.3 2.1-1.1 1.3.5.8 2.2h1.8l.7-2.2 1.2-.5 1.9.9.2.1 1.3-1.3-1.1-2.1.2-.6.5-.7zm-4 .2c-.5.4-1.1.7-1.8.7-1.4 0-2.6-1.2-2.6-2.6 0-.2 0-.4.1-.6.3-1 1.1-1.7 2.1-1.9h.4c1.1 0 2 .7 2.4 1.7.1.3.2.6.2.9 0 .7-.4 1.4-.8 1.8zM114 261.9v-2.4l-2.9-1-.7-1.7 1.4-2.8-1.7-1.7-2.8 1.4-1.7-.7-1.1-3H102l-1 3-1.7.7-2.8-1.3-1.7 1.7 1.4 2.8-.2.5-.5 1.1-1.5.5-1.5.5v2.4l1.9.6 1.1.4.7 1.7-1 2.1-.4.8 1.7 1.7 1.6-.8 1.2-.6 1.7.7 1.1 2.9h2.4l1-2.9 1.7-.7 2.8 1.3 1.7-1.7-1.4-2.7.7-1.7 3-1.1zm-10.7 2.3c-1.9 0-3.4-1.5-3.4-3.4s1.5-3.4 3.4-3.4 3.4 1.5 3.4 3.4c0 1.8-1.5 3.4-3.4 3.4zM63 270.7v11.4h15.4v-13.6zM50.7 282.1h11.8v-11.4l-11.8 1.7zM63 285.1v8.9l15.4 2.2v-13.6H63zM50.7 282.8v9.5l11.8 1.7v-11.4H50.7zM100.7 272.3c.3 1 .5 2 .5 3.1 0 5.5-4.2 9.7-9.8 9.7H79.6v2.5h11.8c7 0 12.3-5.3 12.3-12.2 0-1.1-.2-2.2-.5-3.2l-2.5.1z"/><path d="M81.5 247.2l-.4-.7c-5 .3-9.4 3.1-11.9 7.5-1.9-1.6-4.3-2.5-6.9-2.5-5.9 0-10.6 4.9-10.6 11 0 .6.1 1.3.2 1.9-4.4 2-7 6.1-7 10.9 0 3.9 1.8 7.4 4.6 9.6v-3.5c-1.3-1.6-2.1-3.7-2.1-6.1 0-4.1 2.4-7.5 6.4-9 .6-.2.9-.9.8-1.5-.2-.8-.3-1.6-.3-2.4 0-4.7 3.6-8.4 8.1-8.4 2.5 0 4.8 1 6.2 2.9.3.4.7.5 1.2.5.4-.1.8-.4 1-.8 1.5-3.7 4.6-6.4 8.3-7.3l.2-.8 2-.7.2-.6z"/></g><path d="M9.3 363.4H7.5l-.9-2.5H2.7l-.8 2.5H.1l3.7-9.8h1.8l3.7 9.8zm-3.1-3.8l-1.4-3.9c0-.1-.1-.3-.1-.6 0 .3-.1.5-.1.6l-1.3 3.9h2.9zM17.6 354.3l-5.4 7.7h5.3v1.4H9.9v-.7l5.4-7.7h-5v-1.4h7.2v.7h.1zM26.7 359.5c0 2.8-1.3 4.1-3.9 4.1-2.5 0-3.7-1.3-3.7-4v-6h1.6v5.7c0 1.9.7 2.9 2.2 2.9 1.4 0 2.2-.9 2.2-2.8v-5.8h1.6v5.9zM36.5 363.4h-1.9l-1.6-2.6c-.1-.2-.3-.4-.4-.6-.1-.2-.3-.3-.4-.4-.1-.1-.3-.2-.5-.2s-.3-.1-.6-.1h-.7v4H29v-9.8h3.2c.5 0 .9.1 1.3.2s.7.3 1 .5.5.5.7.8.2.7.2 1.2c0 .3-.1.7-.2 1-.1.3-.2.5-.4.8-.2.2-.4.4-.7.6s-.6.3-.9.4c.2.1.3.2.5.3.1.1.3.2.4.4s.2.3.4.4c.1.2.2.3.4.6l1.6 2.5zm-5.9-8.4v3.2H32c.3 0 .5 0 .7-.1l.6-.3c.2-.1.3-.3.4-.5s.1-.4.1-.7c0-.5-.1-.8-.4-1.1s-.9-.5-1.4-.5h-1.4zM43.2 363.4h-5.5v-9.8H43v1.4h-3.7v2.8h3.4v1.4h-3.4v2.9h3.9v1.3zM59.3 363.4h-1.6v-6.3c0-.5 0-1.2.1-1.9-.1.4-.2.7-.3.9l-2.9 7.3h-1.1l-2.9-7.3c-.1-.2-.2-.5-.3-1 0 .4.1 1 .1 1.9v6.3h-1.5v-9.8h2.3l2.6 6.5c.2.5.3.9.4 1.1.2-.5.3-.9.4-1.1l2.6-6.5h2.2l-.1 9.9zM69.8 363.4H68l-.9-2.5h-3.9l-.8 2.5h-1.8l3.7-9.8h1.8l3.7 9.8zm-3.1-3.8l-1.4-3.9c0-.1-.1-.3-.1-.6 0 .3-.1.5-.1.6l-1.3 3.9h2.9zM79.4 363.4h-1.8l-4.7-7.2-.3-.6c0 .2.1.7.1 1.3v6.4h-1.6v-9.8H73l4.5 7c.2.3.3.5.4.6 0-.3-.1-.7-.1-1.3v-6.3h1.6v9.9zM89.9 363.4h-1.8l-.9-2.5h-3.9l-.8 2.5h-1.8l3.7-9.8h1.8l3.7 9.8zm-3.1-3.8l-1.4-3.9c0-.1-.1-.3-.1-.6 0 .3-.1.5-.1.6l-1.3 3.9h2.9zM98.7 362.8c-1 .6-2.2.8-3.4.8-1.4 0-2.6-.5-3.5-1.4s-1.3-2.1-1.3-3.6.5-2.8 1.5-3.7c1-1 2.2-1.5 3.7-1.5 1.1 0 2 .2 2.7.5v1.7c-.8-.5-1.6-.8-2.7-.8-1 0-1.9.3-2.6 1s-1 1.6-1 2.7.3 2 .9 2.7c.6.6 1.4 1 2.3 1 .7 0 1.3-.1 1.8-.4v-2.3H95v-1.4h3.7v4.7zM106.4 363.4h-5.5v-9.8h5.3v1.4h-3.7v2.8h3.4v1.4h-3.4v2.9h3.9v1.3zM118.6 363.4H117v-6.3c0-.5 0-1.2.1-1.9-.1.4-.2.7-.3.9l-2.9 7.3h-1.1l-2.9-7.3c-.1-.2-.2-.5-.3-1 0 .4.1 1 .1 1.9v6.3h-1.5v-9.8h2.3l2.6 6.5c.2.5.3.9.4 1.1.2-.5.3-.9.4-1.1l2.6-6.5h2.2l-.1 9.9zM126.5 363.4H121v-9.8h5.3v1.4h-3.7v2.8h3.4v1.4h-3.4v2.9h3.9v1.3zM136.6 363.4h-1.8l-4.7-7.2-.3-.6c0 .2.1.7.1 1.3v6.4h-1.6v-9.8h1.9l4.5 7c.2.3.3.5.4.6 0-.3-.1-.7-.1-1.3v-6.3h1.6v9.9zM145.3 355h-2.8v8.4h-1.6V355h-2.8v-1.4h7.3l-.1 1.4zM7.5 371.8H4.7v8.4H3.1v-8.4H.2v-1.4h7.3v1.4zM12.4 380.4c-1.4 0-2.5-.5-3.4-1.4-.8-.9-1.3-2.1-1.3-3.6 0-1.6.4-2.8 1.3-3.8s2-1.4 3.5-1.4c1.4 0 2.5.5 3.3 1.4s1.3 2.1 1.3 3.6c0 1.6-.4 2.9-1.3 3.8s-2 1.4-3.4 1.4zm.1-8.7c-.9 0-1.6.3-2.2 1-.6.7-.8 1.6-.8 2.6 0 1.1.3 2 .8 2.6s1.3 1 2.1 1c.9 0 1.7-.3 2.2-1s.8-1.5.8-2.7-.3-2.1-.8-2.7c-.5-.5-1.2-.8-2.1-.8zM23 380.4c-1.4 0-2.5-.5-3.4-1.4-.8-.9-1.3-2.1-1.3-3.6 0-1.6.4-2.8 1.3-3.8s2-1.4 3.5-1.4c1.4 0 2.5.5 3.3 1.4s1.3 2.1 1.3 3.6c0 1.6-.4 2.9-1.3 3.8s-2 1.4-3.4 1.4zm0-8.7c-.9 0-1.6.3-2.2 1s-.8 1.6-.8 2.6c0 1.1.3 2 .8 2.6s1.3 1 2.1 1c.9 0 1.7-.3 2.2-1s.8-1.5.8-2.7-.3-2.1-.8-2.7c-.4-.5-1.1-.8-2.1-.8zM34.9 380.2h-5.4v-9.8h1.6v8.4h3.8v1.4zM35.9 379.8v-1.7c.2.1.3.3.5.4s.4.2.7.3c.2.1.5.1.7.2s.4.1.6.1c.7 0 1.2-.1 1.5-.3.3-.2.5-.6.5-1 0-.2-.1-.4-.2-.6-.1-.2-.3-.3-.5-.5s-.4-.3-.7-.4-.6-.3-.9-.4c-.3-.2-.6-.4-.9-.5s-.5-.4-.7-.6-.4-.5-.5-.7c-.1-.3-.2-.6-.2-1 0-.5.1-.9.3-1.2.2-.3.5-.6.8-.8.3-.2.7-.4 1.2-.5.4-.1.9-.2 1.3-.2 1 0 1.8.1 2.2.3v1.6c-.6-.4-1.3-.6-2.1-.6-.2 0-.5 0-.7.1-.2 0-.5.1-.6.2-.2.1-.3.2-.5.4s-.2.4-.2.6 0 .4.1.6.2.3.4.4.4.3.6.4c.3.1.5.3.9.4.3.2.7.4 1 .6s.6.4.8.6.4.5.5.8.2.6.2 1c0 .5-.1.9-.3 1.3s-.5.6-.8.8c-.3.2-.7.4-1.2.5s-.9.1-1.4.1h-.6c-.2 0-.5-.1-.7-.1-.3 0-.5-.1-.7-.2s-.3-.3-.4-.4zM9.3 413.8H7.5l-.9-2.5H2.7l-.8 2.5H.1l3.7-9.8h1.8l3.7 9.8zM6.2 410l-1.4-3.9c0-.1-.1-.3-.1-.6 0 .3-.1.5-.1.6L3.2 410h3zM15.6 407.5l-3.8 5.1h3.8v1.2h-6v-.6l3.9-5.2H10v-1.2h5.6v.7zM23 413.8h-1.6v-1.1c-.5.8-1.2 1.3-2.1 1.3-1.7 0-2.5-1-2.5-3v-4.2h1.6v4c0 1.3.5 1.9 1.5 1.9.5 0 .9-.2 1.2-.5.3-.3.5-.8.5-1.4v-4H23v7zM29.2 408.3c-.2-.2-.5-.2-.8-.2-.5 0-.9.2-1.2.6s-.5 1-.5 1.7v3.3h-1.6v-7h1.6v1.4c.2-.5.4-.9.7-1.2.3-.3.7-.4 1.1-.4.3 0 .5 0 .7.1v1.7zM36.1 410.8h-4.8c0 .6.2 1.1.6 1.5s.9.5 1.6.5 1.4-.2 2.1-.7v1.3c-.6.4-1.5.6-2.5.6s-1.8-.3-2.4-1c-.6-.6-.9-1.5-.9-2.7 0-1.1.3-2 1-2.7.6-.7 1.4-1 2.4-1s1.7.3 2.2.9.8 1.5.8 2.6v.7h-.1zm-1.5-1.2c0-.6-.1-1-.4-1.3-.3-.3-.6-.5-1.1-.5s-.8.2-1.2.5c-.3.3-.5.8-.6 1.3h3.3zM43.2 410.3v3.6h-1.6V404h3c1.1 0 2 .3 2.6.8s.9 1.3.9 2.2-.3 1.7-1 2.3-1.5.9-2.6.9h-1.3v.1zm0-4.9v3.6h1.1c.7 0 1.2-.2 1.6-.5s.5-.8.5-1.4c0-1.2-.7-1.7-2-1.7h-1.2zM52.3 414c-1.1 0-1.9-.3-2.6-1-.6-.7-1-1.5-1-2.6 0-1.2.3-2.1 1-2.8.7-.7 1.6-1 2.7-1s1.9.3 2.6 1 .9 1.5.9 2.7c0 1.1-.3 2-1 2.7-.6.7-1.5 1-2.6 1zm0-6.1c-.6 0-1.1.2-1.5.6s-.5 1-.5 1.8c0 .7.2 1.3.5 1.7.4.4.9.6 1.5.6s1.1-.2 1.4-.6c.3-.4.5-1 .5-1.8s-.2-1.4-.5-1.8c-.3-.3-.7-.5-1.4-.5zM61.6 408.3c-.2-.2-.5-.2-.8-.2-.5 0-.9.2-1.2.6s-.5 1-.5 1.7v3.3h-1.6v-7h1.6v1.4c.2-.5.4-.9.7-1.2.3-.3.7-.4 1.1-.4.3 0 .5 0 .7.1v1.7zM66.8 413.8c-.3.2-.7.2-1.2.2-1.4 0-2-.7-2-2v-4h-1.2v-1.2h1.2v-1.6l1.6-.5v2.1h1.7v1.2h-1.7v3.5c0 .4.1.7.2.9s.4.3.8.3c.3 0 .5-.1.7-.2l-.1 1.3zM73.5 413.8H72v-1.1c-.5.8-1.2 1.3-2.1 1.3-.7 0-1.2-.2-1.6-.6s-.6-.9-.6-1.5c0-1.3.8-2.1 2.3-2.3l2.1-.3c0-1-.5-1.5-1.4-1.5-.8 0-1.6.3-2.3.9v-1.4c.7-.4 1.6-.7 2.6-.7 1.8 0 2.7.9 2.7 2.6v4.6h-.2zm-1.5-3.4l-1.5.2c-.5.1-.8.2-1 .3-.2.2-.3.4-.3.9 0 .3.1.5.3.7.2.2.5.3.9.3.5 0 .9-.2 1.2-.5.3-.3.5-.8.5-1.3l-.1-.6zM77.1 413.8h-1.6v-10.4h1.6v10.4zM80.6 412.2l-1.1 3.4h-1.2l.8-3.4h1.5zM94.6 413.8h-1.8l-.9-2.5H88l-.8 2.5h-1.8l3.7-9.8h1.8l3.7 9.8zm-3.1-3.8l-1.4-3.9c0-.1-.1-.3-.1-.6 0 .3-.1.5-.1.6l-1.3 3.9h2.9zM100.9 407.5l-3.8 5.1h3.8v1.2h-6v-.6l3.9-5.2h-3.5v-1.2h5.6v.7zM108.4 413.8h-1.6v-1.1c-.5.8-1.2 1.3-2.1 1.3-1.7 0-2.5-1-2.5-3v-4.2h1.6v4c0 1.3.5 1.9 1.5 1.9.5 0 .9-.2 1.2-.5.3-.3.5-.8.5-1.4v-4h1.6v7h-.2zM114.5 408.3c-.2-.2-.5-.2-.8-.2-.5 0-.9.2-1.2.6s-.5 1-.5 1.7v3.3h-1.6v-7h1.6v1.4c.2-.5.4-.9.7-1.2.3-.3.7-.4 1.1-.4.3 0 .5 0 .7.1v1.7zM121.4 410.8h-4.8c0 .6.2 1.1.6 1.5s.9.5 1.6.5 1.4-.2 2.1-.7v1.3c-.6.4-1.5.6-2.5.6s-1.8-.3-2.4-1c-.6-.6-.9-1.5-.9-2.7 0-1.1.3-2 1-2.7.6-.7 1.4-1 2.4-1s1.7.3 2.2.9.8 1.5.8 2.6l-.1.7zm-1.5-1.2c0-.6-.1-1-.4-1.3s-.6-.5-1.1-.5-.8.2-1.2.5c-.3.3-.5.8-.6 1.3h3.3zM133.8 413.4c-.7.4-1.7.6-2.8.6-1.4 0-2.6-.4-3.4-1.3s-1.3-2.1-1.3-3.5c0-1.6.5-2.8 1.4-3.8 1-1 2.2-1.4 3.7-1.4.9 0 1.7.1 2.4.4v1.6c-.7-.4-1.4-.6-2.2-.6-1.1 0-1.9.3-2.6 1-.7.7-1 1.6-1 2.7s.3 1.9.9 2.6c.6.6 1.4 1 2.4 1 .9 0 1.7-.2 2.4-.7v1.4h.1zM141.1 413.8h-5.4V404h1.6v8.4h3.8v1.4zM144.1 413.8h-1.7V404h1.7v9.8zM147.9 412.2l-1.1 3.4h-1.2l.8-3.4h1.5zM9.3 430.6H7.5l-.9-2.5H2.7l-.8 2.5H.1l3.7-9.8h1.8l3.7 9.8zm-3.1-3.8l-1.4-3.9c0-.1-.1-.3-.1-.6 0 .3-.1.5-.1.6l-1.3 3.9h2.9zM15.6 424.3l-3.8 5.1h3.8v1.2h-6v-.6l3.9-5.2H10v-1.2h5.6v.7zM23 430.6h-1.6v-1.1c-.5.8-1.2 1.3-2.1 1.3-1.7 0-2.5-1-2.5-3v-4.2h1.6v4c0 1.3.5 1.9 1.5 1.9.5 0 .9-.2 1.2-.5.3-.3.5-.8.5-1.4v-4H23v7zM29.2 425.1c-.2-.2-.5-.2-.8-.2-.5 0-.9.2-1.2.6s-.5 1-.5 1.7v3.3h-1.6v-7h1.6v1.4c.2-.5.4-.9.7-1.2.3-.3.7-.4 1.1-.4.3 0 .5 0 .7.1v1.7zM36.1 427.6h-4.8c0 .6.2 1.1.6 1.5s.9.5 1.6.5 1.4-.2 2.1-.7v1.3c-.6.4-1.5.6-2.5.6s-1.8-.3-2.4-1c-.6-.6-.9-1.5-.9-2.7 0-1.1.3-2 1-2.7.6-.7 1.4-1 2.4-1s1.7.3 2.2.9.8 1.5.8 2.6v.7h-.1zm-1.5-1.2c0-.6-.1-1-.4-1.3-.3-.3-.6-.5-1.1-.5s-.8.2-1.2.5c-.3.3-.5.8-.6 1.3h3.3zM49.2 430.6h-1.9l-1.6-2.6c-.1-.2-.3-.4-.4-.6-.1-.2-.3-.3-.4-.4-.1-.1-.3-.2-.5-.2s-.3-.1-.6-.1h-.7v4h-1.6v-9.8h3.2c.5 0 .9.1 1.3.2s.7.3 1 .5.5.5.7.8.2.7.2 1.2c0 .3-.1.7-.2 1-.1.3-.2.5-.4.8-.2.2-.4.4-.7.6s-.6.3-.9.4c.2.1.3.2.5.3.1.1.3.2.4.4s.2.3.4.4c.1.2.2.3.4.6l1.8 2.5zm-6-8.4v3.2h1.4c.3 0 .5 0 .7-.1l.6-.3c.2-.1.3-.3.4-.5s.1-.4.1-.7c0-.5-.1-.8-.4-1.1s-.7-.4-1.3-.4h-1.5v-.1zM55.7 427.6h-4.8c0 .6.2 1.1.6 1.5.4.4.9.5 1.6.5.7 0 1.4-.2 2.1-.7v1.3c-.6.4-1.5.6-2.5.6s-1.8-.3-2.4-1c-.6-.6-.9-1.5-.9-2.7 0-1.1.3-2 1-2.7.6-.7 1.4-1 2.4-1s1.7.3 2.2.9.8 1.5.8 2.6l-.1.7zm-1.5-1.2c0-.6-.1-1-.4-1.3-.3-.3-.6-.5-1.1-.5s-.8.2-1.2.5c-.3.3-.5.8-.6 1.3h3.3zM56.8 430.4v-1.5c.6.5 1.2.7 2 .7 1 0 1.4-.3 1.4-.8 0-.2 0-.3-.1-.4l-.3-.3c-.1-.1-.3-.2-.5-.2-.2-.1-.4-.1-.6-.2-.3-.1-.5-.2-.8-.4-.2-.1-.4-.3-.6-.4-.2-.2-.3-.3-.3-.6s-.1-.4-.1-.7c0-.3.1-.6.2-.9.2-.3.4-.5.6-.7.3-.2.6-.3.9-.4.3-.1.7-.1 1.1-.1.6 0 1.2.1 1.7.3v1.4c-.5-.3-1.1-.5-1.7-.5-.2 0-.4 0-.5.1-.2 0-.3.1-.4.2l-.3.3c-.1.1-.1.2-.1.3 0 .2 0 .3.1.4l.3.3c.1.1.3.2.5.2.2.1.4.1.6.2.3.1.6.2.8.4.2.1.4.3.6.4.2.2.3.3.4.6.1.2.1.5.1.8 0 .4-.1.7-.2.9s-.4.5-.7.7-.6.3-.9.4c-.4.1-.7.1-1.1.1-.9-.2-1.5-.3-2.1-.6zM66.4 430.8c-1.1 0-1.9-.3-2.6-1-.6-.7-1-1.5-1-2.6 0-1.2.3-2.1 1-2.8.7-.7 1.6-1 2.7-1s1.9.3 2.6 1 .9 1.5.9 2.7c0 1.1-.3 2-1 2.7-.6.7-1.5 1-2.6 1zm0-6.1c-.6 0-1.1.2-1.5.6s-.5 1-.5 1.8c0 .7.2 1.3.5 1.7.4.4.9.6 1.5.6s1.1-.2 1.4-.6.5-1 .5-1.8-.2-1.4-.5-1.8c-.3-.3-.7-.5-1.4-.5zM77.7 430.6h-1.6v-1.1c-.5.8-1.2 1.3-2.1 1.3-1.7 0-2.5-1-2.5-3v-4.2h1.6v4c0 1.3.5 1.9 1.5 1.9.5 0 .9-.2 1.2-.5.3-.3.5-.8.5-1.4v-4h1.6v7h-.2zM83.9 425.1c-.2-.2-.5-.2-.8-.2-.5 0-.9.2-1.2.6s-.5 1-.5 1.7v3.3h-1.6v-7h1.6v1.4c.2-.5.4-.9.7-1.2.3-.3.7-.4 1.1-.4.3 0 .5 0 .7.1v1.7zM89.9 430.3c-.6.3-1.2.5-2 .5-1 0-1.9-.3-2.5-1-.6-.6-1-1.5-1-2.5 0-1.2.3-2.1 1-2.8.7-.7 1.6-1 2.8-1 .6 0 1.2.1 1.7.3v1.5c-.5-.4-1-.5-1.6-.5-.7 0-1.2.2-1.6.7s-.6 1-.6 1.8c0 .7.2 1.3.6 1.7.4.4.9.6 1.6.6.6 0 1.1-.2 1.6-.6v1.3zM97.4 427.6h-4.8c0 .6.2 1.1.6 1.5s.9.5 1.6.5 1.4-.2 2.1-.7v1.3c-.6.4-1.5.6-2.5.6s-1.8-.3-2.4-1c-.6-.6-.9-1.5-.9-2.7 0-1.1.3-2 1-2.7.6-.7 1.4-1 2.4-1s1.7.3 2.2.9.8 1.5.8 2.6l-.1.7zm-1.6-1.2c0-.6-.1-1-.4-1.3s-.6-.5-1.1-.5-.8.2-1.2.5c-.3.3-.5.8-.6 1.3h3.3zM113.4 430.6h-1.6v-6.3c0-.5 0-1.2.1-1.9-.1.4-.2.7-.3.9l-2.9 7.3h-1.1l-2.9-7.3c-.1-.2-.2-.5-.3-1 0 .4.1 1 .1 1.9v6.3H103v-9.8h2.3l2.6 6.5c.2.5.3.9.4 1.1.2-.5.3-.9.4-1.1l2.6-6.5h2.2l-.1 9.9zM121 430.6h-1.5v-1.1c-.5.8-1.2 1.3-2.1 1.3-.7 0-1.2-.2-1.6-.6s-.6-.9-.6-1.5c0-1.3.8-2.1 2.3-2.3l2.1-.3c0-1-.5-1.5-1.4-1.5-.8 0-1.6.3-2.3.9v-1.4c.7-.4 1.6-.7 2.6-.7 1.8 0 2.7.9 2.7 2.6v4.6h-.2zm-1.5-3.4l-1.5.2c-.5.1-.8.2-1 .3-.2.2-.3.4-.3.9 0 .3.1.5.3.7.2.2.5.3.9.3.5 0 .9-.2 1.2-.5.3-.3.5-.8.5-1.3l-.1-.6zM129.2 430.6h-1.6v-3.9c0-1.3-.5-2-1.4-2-.5 0-.9.2-1.2.5-.3.4-.5.8-.5 1.4v4H123v-7h1.6v1.2c.5-.9 1.3-1.3 2.3-1.3.8 0 1.3.2 1.7.7.4.5.6 1.2.6 2.1v4.3zM136.5 430.6H135v-1.1c-.5.8-1.2 1.3-2.1 1.3-.7 0-1.2-.2-1.6-.6-.4-.4-.6-.9-.6-1.5 0-1.3.8-2.1 2.3-2.3l2.1-.3c0-1-.5-1.5-1.4-1.5-.8 0-1.6.3-2.3.9v-1.4c.7-.4 1.6-.7 2.6-.7 1.8 0 2.7.9 2.7 2.6v4.6h-.2zm-1.5-3.4l-1.5.2c-.5.1-.8.2-1 .3-.2.2-.3.4-.3.9 0 .3.1.5.3.7s.5.3.9.3c.5 0 .9-.2 1.2-.5s.5-.8.5-1.3l-.1-.6zM144.8 430.1c0 2.6-1.3 3.9-3.9 3.9-.9 0-1.7-.2-2.4-.5V432c.8.4 1.5.7 2.2.7 1.7 0 2.5-.8 2.5-2.5v-.8c-.5.9-1.3 1.3-2.4 1.3-.9 0-1.5-.3-2.1-.9-.5-.6-.8-1.5-.8-2.5 0-1.2.3-2.1.8-2.8s1.3-1.1 2.3-1.1c.9 0 1.6.4 2.1 1.1v-1h1.6l.1 6.6zm-1.6-2.7v-.9c0-.5-.2-.9-.5-1.3-.3-.3-.7-.5-1.2-.5-.6 0-1.1.2-1.4.7-.3.4-.5 1.1-.5 1.9 0 .7.2 1.2.5 1.7.3.4.8.6 1.3.6s1-.2 1.3-.6c.4-.4.5-1 .5-1.6zM152.8 427.6H148c0 .6.2 1.1.6 1.5.4.4.9.5 1.6.5.7 0 1.4-.2 2.1-.7v1.3c-.6.4-1.5.6-2.5.6s-1.8-.3-2.4-1c-.6-.6-.9-1.5-.9-2.7 0-1.1.3-2 1-2.7.6-.7 1.4-1 2.4-1s1.7.3 2.2.9.8 1.5.8 2.6v.7h-.1zm-1.5-1.2c0-.6-.1-1-.4-1.3-.3-.3-.6-.5-1.1-.5s-.8.2-1.2.5c-.3.3-.5.8-.6 1.3h3.3zM158.4 425.1c-.2-.2-.5-.2-.8-.2-.5 0-.9.2-1.2.6s-.5 1-.5 1.7v3.3h-1.6v-7h1.6v1.4c.2-.5.4-.9.7-1.2.3-.3.7-.4 1.1-.4.3 0 .5 0 .7.1v1.7zM159.9 429l-1.1 3.4h-1.2l.8-3.4h1.5zM8.8 447.4H6.9l-1.6-2.6c-.1-.2-.3-.4-.4-.6s-.3-.3-.4-.4-.3-.2-.5-.2c-.2-.1-.3-.1-.6-.1h-.6v4H1.2v-9.8h3.2c.5 0 .9.1 1.3.2s.7.3 1 .5.5.5.7.8.2.7.2 1.2c0 .3-.1.7-.2 1s-.2.5-.4.8c-.2.2-.4.4-.7.6-.3.2-.6.3-.9.4.2.1.3.2.5.3s.3.2.4.4c.1.1.2.3.4.4.1.2.2.3.4.6l1.7 2.5zm-6-8.4v3.2h1.4c.3 0 .5 0 .7-.1l.6-.3c.2-.1.3-.3.4-.5s.1-.4.1-.7c0-.5-.1-.8-.4-1.1s-.8-.5-1.4-.5H2.8zM15.4 447.4H9.9v-9.8h5.3v1.4h-3.7v2.8h3.4v1.4h-3.4v2.9h3.9v1.3zM16.7 447v-1.7c.2.1.3.3.5.4s.4.2.7.3c.2.1.5.1.7.2s.4.1.6.1c.7 0 1.2-.1 1.5-.3.3-.2.5-.6.5-1 0-.2-.1-.4-.2-.6s-.3-.3-.5-.5c-.2-.1-.4-.3-.7-.4-.3-.1-.6-.3-.9-.4-.3-.2-.6-.4-.9-.5-.3-.2-.5-.4-.7-.6s-.4-.5-.5-.7c-.1-.3-.2-.6-.2-1 0-.5.1-.9.3-1.2.2-.3.5-.6.8-.8.3-.2.7-.4 1.2-.5.4-.1.9-.2 1.3-.2 1 0 1.8.1 2.2.3v1.6c-.6-.4-1.3-.6-2.1-.6-.2 0-.5 0-.7.1-.2 0-.5.1-.6.2-.2.1-.3.2-.5.4s-.2.4-.2.6 0 .4.1.6.2.3.4.4c.2.1.4.3.6.4.3.1.5.3.9.4.3.2.7.4 1 .6s.6.4.8.7c.2.2.4.5.5.8s.2.6.2 1c0 .5-.1.9-.3 1.3s-.5.6-.8.8c-.3.2-.7.4-1.2.5s-.9.1-1.4.1h-.6c-.2 0-.5-.1-.7-.1-.3 0-.5-.1-.7-.2s-.2-.4-.4-.5zM31.1 439h-2.8v8.4h-1.6V439h-2.8v-1.4h7.3v1.4h-.1zM44.4 447.4h-1.8l-.9-2.5h-3.9l-.8 2.5h-1.8l3.7-9.8h1.8l3.7 9.8zm-3.1-3.8l-1.4-3.9c0-.1-.1-.3-.1-.6 0 .3-.1.5-.1.6l-1.3 3.9h2.9zM47.4 443.9v3.6h-1.6v-9.8h3c1.1 0 2 .3 2.6.8s.9 1.3.9 2.2-.3 1.7-1 2.3c-.6.6-1.5.9-2.6.9h-1.3zm0-4.9v3.6h1.1c.7 0 1.2-.2 1.6-.5.4-.3.5-.8.5-1.4 0-1.2-.7-1.7-2-1.7h-1.2zM55.6 447.4h-1.7v-9.8h1.7v9.8zM57.4 447.2v-1.5c.6.5 1.2.7 2 .7 1 0 1.4-.3 1.4-.8 0-.2 0-.3-.1-.4l-.3-.3c-.1-.1-.3-.2-.5-.2-.2-.1-.4-.1-.6-.2-.3-.1-.5-.2-.8-.4-.2-.1-.4-.3-.6-.4-.2-.2-.3-.3-.3-.6s-.1-.4-.1-.7c0-.3.1-.6.2-.9.2-.3.4-.5.6-.7.3-.2.6-.3.9-.4.3-.1.7-.1 1.1-.1.6 0 1.2.1 1.7.3v1.4c-.5-.3-1.1-.5-1.7-.5-.2 0-.4 0-.5.1-.2 0-.3.1-.4.2l-.3.3c-.1.1-.1.2-.1.3 0 .2 0 .3.1.4l.3.3c.1.1.3.2.5.2.2.1.4.1.6.2.3.1.6.2.8.4.2.1.4.3.6.4s.3.3.4.6c.1.2.1.5.1.8 0 .4-.1.7-.2.9-.2.3-.4.5-.7.7s-.6.3-.9.4c-.4.1-.7.1-1.1.1-.9-.2-1.5-.3-2.1-.6zM65.4 445.8l-1.1 3.4h-1.2l.8-3.4h1.5zM70.8 447v-1.7c.2.1.3.3.5.4s.4.2.7.3c.2.1.5.1.7.2s.4.1.6.1c.7 0 1.2-.1 1.5-.3.3-.2.5-.6.5-1 0-.2-.1-.4-.2-.6s-.3-.3-.5-.5c-.2-.1-.4-.3-.7-.4-.3-.1-.6-.3-.9-.4-.3-.2-.6-.4-.9-.5-.3-.2-.5-.4-.7-.6s-.4-.5-.5-.7c-.1-.3-.2-.6-.2-1 0-.5.1-.9.3-1.2.2-.3.5-.6.8-.8.3-.2.7-.4 1.2-.5.4-.1.9-.2 1.3-.2 1 0 1.8.1 2.2.3v1.6c-.6-.4-1.3-.6-2.1-.6-.2 0-.5 0-.7.1-.2 0-.5.1-.6.2-.2.1-.3.2-.5.4s-.2.4-.2.6 0 .4.1.6.2.3.4.4c.2.1.4.3.6.4.3.1.5.3.9.4.3.2.7.4 1 .6s.6.4.8.7c.2.2.4.5.5.8s.2.6.2 1c0 .5-.1.9-.3 1.3s-.5.6-.8.8c-.3.2-.7.4-1.2.5s-.9.1-1.4.1h-.6c-.2 0-.5-.1-.7-.1-.3 0-.5-.1-.7-.2s-.2-.4-.4-.5zM78.9 447.4v-9.8h2.8c3.6 0 5.4 1.6 5.4 4.8 0 1.5-.5 2.7-1.5 3.6s-2.3 1.4-4 1.4h-2.7zm1.6-8.4v7h1.3c1.1 0 2-.3 2.7-.9.6-.6 1-1.5 1-2.7 0-2.3-1.2-3.4-3.6-3.4h-1.4zM96.4 447.4h-2.1l-3.4-4.5c-.1-.2-.2-.3-.2-.3v4.8H89v-9.8h1.6v4.6c.1-.1.1-.2.2-.3l3.3-4.3H96l-3.8 4.7 4.2 5.1zM96.9 447.2v-1.5c.6.5 1.2.7 2 .7 1 0 1.4-.3 1.4-.8 0-.2 0-.3-.1-.4l-.3-.3c-.1-.1-.3-.2-.5-.2-.2-.1-.4-.1-.6-.2-.3-.1-.5-.2-.8-.4-.2-.1-.4-.3-.6-.4-.2-.2-.3-.3-.3-.6s-.1-.4-.1-.7c0-.3.1-.6.2-.9.2-.3.4-.5.6-.7.3-.2.6-.3.9-.4s.7-.1 1.1-.1c.6 0 1.2.1 1.7.3v1.4c-.5-.3-1.1-.5-1.7-.5-.2 0-.4 0-.5.1-.2 0-.3.1-.4.2l-.3.3c-.1.1-.1.2-.1.3 0 .2 0 .3.1.4l.3.3c.1.1.3.2.5.2.2.1.4.1.6.2.3.1.6.2.8.4.2.1.4.3.6.4s.3.3.4.6c.1.2.1.5.1.8 0 .4-.1.7-.2.9-.2.3-.4.5-.7.7-.3.2-.6.3-.9.4-.4.1-.7.1-1.1.1-.9-.2-1.5-.3-2.1-.6zM111.2 438.4c-.2-.1-.5-.2-.7-.2-.8 0-1.2.4-1.2 1.3v1h1.6v1.2h-1.6v5.8h-1.6v-5.8h-1.2v-1.2h1.2v-1.1c0-.7.2-1.3.7-1.7.5-.4 1.1-.6 1.8-.6.4 0 .7 0 .9.1l.1 1.2zM115.1 447.6c-1.1 0-1.9-.3-2.6-1-.6-.7-1-1.5-1-2.6 0-1.2.3-2.1 1-2.8.7-.7 1.6-1 2.7-1s1.9.3 2.6 1 .9 1.5.9 2.7c0 1.1-.3 2-1 2.7-.6.7-1.4 1-2.6 1zm.1-6.1c-.6 0-1.1.2-1.5.6s-.5 1-.5 1.8c0 .7.2 1.3.5 1.7.4.4.9.6 1.5.6s1.1-.2 1.4-.6.5-1 .5-1.8-.2-1.4-.5-1.8c-.3-.3-.8-.5-1.4-.5zM124.5 441.9c-.2-.2-.5-.2-.8-.2-.5 0-.9.2-1.2.6-.3.4-.5 1-.5 1.7v3.3h-1.6v-7h1.6v1.4c.2-.5.4-.9.7-1.2.3-.3.7-.4 1.1-.4.3 0 .5 0 .7.1v1.7zM132.8 443.9c0 1.2-.3 2.1-.9 2.7s-1.3 1-2.3 1c-.4 0-.8-.1-1.1-.2v-1.5c.3.2.6.3 1 .3 1.1 0 1.6-.8 1.6-2.5v-6h1.6l.1 6.2zM140.2 447.4h-1.5v-1.1c-.5.8-1.2 1.3-2.1 1.3-.7 0-1.2-.2-1.6-.6-.4-.4-.6-.9-.6-1.5 0-1.3.8-2.1 2.3-2.3l2.1-.3c0-1-.5-1.5-1.4-1.5-.8 0-1.6.3-2.3.9v-1.4c.7-.4 1.6-.7 2.6-.7 1.8 0 2.7.9 2.7 2.6v4.6h-.2zm-1.5-3.4l-1.5.2c-.5.1-.8.2-1 .3-.2.2-.3.4-.3.9 0 .3.1.5.3.7s.5.3.9.3c.5 0 .9-.2 1.2-.5s.5-.8.5-1.3l-.1-.6zM148.2 440.4l-2.7 7h-1.7l-2.6-7h1.7l1.6 4.9c.1.4.2.7.2.9 0-.3.1-.6.2-.9l1.6-4.9h1.7zM154.4 447.4h-1.5v-1.1c-.5.8-1.2 1.3-2.1 1.3-.7 0-1.2-.2-1.6-.6-.4-.4-.6-.9-.6-1.5 0-1.3.8-2.1 2.3-2.3l2.1-.3c0-1-.5-1.5-1.4-1.5-.8 0-1.6.3-2.3.9v-1.4c.7-.4 1.6-.7 2.6-.7 1.8 0 2.7.9 2.7 2.6v4.6h-.2zm-1.6-3.4l-1.5.2c-.5.1-.8.2-1 .3-.2.2-.3.4-.3.9 0 .3.1.5.3.7s.5.3.9.3c.5 0 .9-.2 1.2-.5s.5-.8.5-1.3l-.1-.6zM157.8 445.8l-1.1 3.4h-1.2l.8-3.4h1.5zM2.8 460.7v3.6H1.2v-9.8h3c1.1 0 2 .3 2.6.8s.9 1.3.9 2.2c0 1-.3 1.7-1 2.3-.6.6-1.5.9-2.6.9H2.8zm0-4.9v3.6h1.1c.7 0 1.2-.2 1.6-.5.4-.3.5-.8.5-1.4 0-1.2-.7-1.7-2-1.7H2.8zM17.3 464.2h-1.6V460H11v4.3H9.4v-9.8H11v4.1h4.6v-4.1h1.6l.1 9.7zM21.3 460.7v3.6h-1.6v-9.8h3c1.1 0 2 .3 2.6.8s.9 1.3.9 2.2c0 1-.3 1.7-1 2.3-.6.6-1.5.9-2.6.9h-1.3zm0-4.9v3.6h1.1c.7 0 1.2-.2 1.6-.5s.5-.8.5-1.4c0-1.2-.7-1.7-2-1.7h-1.2zM26.9 462.6l-1.1 3.4h-1.2l.8-3.4h1.5zM40.4 464.2h-1.9l-1.6-2.6c-.1-.2-.3-.4-.4-.6-.1-.2-.3-.3-.4-.4-.1-.1-.3-.2-.5-.2s-.3-.1-.6-.1h-.7v4h-1.6v-9.8H36c.5 0 .9.1 1.3.2s.7.3 1 .5.5.5.7.8.2.7.2 1.2c0 .3-.1.7-.2 1-.1.3-.2.5-.4.8-.2.2-.4.4-.7.6s-.6.3-.9.4c.2.1.3.2.5.3.1.1.3.2.4.4.1.1.2.3.4.4.1.2.2.3.4.6l1.7 2.5zm-6-8.4v3.2h1.4c.3 0 .5 0 .7-.1l.6-.3c.2-.1.3-.3.4-.5.1-.2.1-.4.1-.7 0-.5-.1-.8-.4-1.1-.3-.3-.7-.4-1.3-.4h-1.5v-.1zM47.4 464.2h-1.6v-1.1c-.5.8-1.2 1.3-2.1 1.3-1.7 0-2.5-1-2.5-3v-4.2h1.6v4c0 1.3.5 1.9 1.5 1.9.5 0 .9-.2 1.2-.5s.5-.8.5-1.4v-4h1.6v7h-.2zM51.1 463.2v1h-1.6v-10.4h1.6v4.6c.5-.9 1.3-1.4 2.4-1.4.9 0 1.6.3 2.1.9s.7 1.5.7 2.5c0 1.2-.3 2.1-.8 2.8-.6.7-1.3 1.1-2.3 1.1-.9.1-1.6-.3-2.1-1.1zm0-2.8v.9c0 .5.2.9.5 1.3s.7.5 1.2.5c.6 0 1-.2 1.4-.7.3-.5.5-1.1.5-1.9 0-.7-.2-1.2-.5-1.6s-.7-.6-1.3-.6-1 .2-1.4.6c-.3.4-.4.9-.4 1.5zM64 457.2l-3.2 8.1c-.7 1.4-1.6 2.2-2.8 2.2-.3 0-.6 0-.8-.1v-1.3c.3.1.5.1.7.1.6 0 1-.3 1.3-.9l.5-1.1-2.8-7h1.8l1.7 5.1c0 .1.1.2.1.5 0-.1.1-.3.1-.5l1.8-5.1H64zM65.8 462.6l-1.1 3.4h-1.2l.8-3.4h1.5zM73.3 460.7v3.6h-1.6v-9.8h3c1.1 0 2 .3 2.6.8s.9 1.3.9 2.2c0 1-.3 1.7-1 2.3-.6.6-1.5.9-2.6.9h-1.3zm0-4.9v3.6h1.1c.7 0 1.2-.2 1.6-.5s.5-.8.5-1.4c0-1.2-.7-1.7-2-1.7h-1.2zM85.8 457.2l-3.2 8.1c-.7 1.4-1.6 2.2-2.8 2.2-.3 0-.6 0-.8-.1v-1.3c.3.1.5.1.7.1.6 0 1-.3 1.3-.9l.5-1.1-2.8-7h1.8l1.7 5.1c0 .1.1.2.1.5 0-.1.1-.3.1-.5l1.8-5.1h1.6zM90.6 464.2c-.3.2-.7.2-1.2.2-1.4 0-2-.7-2-2v-4h-1.2v-1.2h1.2v-1.6l1.6-.5v2.1h1.7v1.2H89v3.5c0 .4.1.7.2.9s.4.3.8.3c.3 0 .5-.1.7-.2l-.1 1.3zM98.2 464.2h-1.6v-3.8c0-1.4-.5-2.1-1.4-2.1-.5 0-.9.2-1.2.6-.3.4-.5.9-.5 1.5v3.8h-1.6v-10.4h1.6v4.5c.5-.9 1.3-1.3 2.3-1.3 1.6 0 2.3.9 2.3 2.8l.1 4.4zM103.2 464.4c-1.1 0-1.9-.3-2.6-1-.6-.7-1-1.5-1-2.6 0-1.2.3-2.1 1-2.8.7-.7 1.6-1 2.7-1s1.9.3 2.6 1 .9 1.5.9 2.7c0 1.1-.3 2-1 2.7-.6.7-1.5 1-2.6 1zm.1-6.1c-.6 0-1.1.2-1.5.7-.4.4-.5 1-.5 1.8 0 .7.2 1.3.5 1.7s.9.6 1.5.6 1.1-.2 1.4-.6.5-1 .5-1.8-.2-1.4-.5-1.8c-.3-.4-.8-.6-1.4-.6zM114.7 464.2h-1.6v-3.9c0-1.3-.5-2-1.4-2-.5 0-.9.2-1.2.5-.3.4-.5.8-.5 1.4v4h-1.6v-7h1.6v1.2c.5-.9 1.3-1.3 2.3-1.3.8 0 1.3.2 1.7.7.4.5.6 1.2.6 2.1l.1 4.3zM118.1 462.6L117 466h-1.2l.8-3.4h1.5zM129.8 461.2H125c0 .6.2 1.1.6 1.5.4.3.9.5 1.6.5s1.4-.2 2.1-.7v1.3c-.6.4-1.5.6-2.5.6s-1.8-.3-2.4-1c-.6-.6-.9-1.5-.9-2.7 0-1.1.3-2 1-2.7.6-.7 1.4-1 2.4-1s1.7.3 2.2.9.8 1.5.8 2.6v.7h-.1zm-1.6-1.2c0-.6-.1-1-.4-1.3-.3-.3-.6-.5-1.1-.5s-.8.2-1.2.5c-.3.3-.5.8-.6 1.3h3.3zM135 464.2c-.3.2-.7.2-1.2.2-1.4 0-2-.7-2-2v-4h-1.2v-1.2h1.2v-1.6l1.6-.5v2.1h1.7v1.2h-1.7v3.5c0 .4.1.7.2.9s.4.3.8.3c.3 0 .5-.1.7-.2v1.3h-.1zM141.2 463.9c-.6.3-1.2.5-2 .5-1 0-1.9-.3-2.5-1-.6-.6-1-1.5-1-2.5 0-1.2.3-2.1 1-2.8.7-.7 1.6-1 2.8-1 .6 0 1.2.1 1.7.3v1.5c-.5-.4-1-.5-1.6-.5-.7 0-1.2.2-1.6.7-.4.5-.6 1-.6 1.8 0 .7.2 1.3.6 1.7.4.4.9.6 1.6.6.6 0 1.1-.2 1.6-.6v1.3zM143.5 464.4c-.3 0-.5-.1-.7-.3-.2-.2-.3-.4-.3-.6 0-.3.1-.5.3-.7s.4-.3.7-.3.5.1.7.3c.2.2.3.4.3.7 0 .3-.1.5-.3.6-.2.2-.5.3-.7.3z"/><g fill="none" stroke="#dfdfde" stroke-width="4" stroke-linecap="round" stroke-linejoin="round" stroke-miterlimit="10"><path d="M79.4-83v260.9"/><circle cx="79.4" cy="183.4" r="5"/></g></svg>