<?xml version="1.0" encoding="utf-8"?>
<!-- Generator: Adobe Illustrator 18.0.0, SVG Export Plug-In . SVG Version: 6.00 Build 0)  -->
<!DOCTYPE svg PUBLIC "-//W3C//DTD SVG 1.1//EN" "http://www.w3.org/Graphics/SVG/1.1/DTD/svg11.dtd">
<svg version="1.1" id="Layer_1" xmlns="http://www.w3.org/2000/svg" xmlns:xlink="http://www.w3.org/1999/xlink" x="0px" y="0px"
	 width="960px" height="350px" viewBox="0 0 960 350" enable-background="new 0 0 960 350" xml:space="preserve">
<g>
	<g>
		<g>
			<path fill="#00BCF2" d="M430.9,56.6h-1.6v-6.3c0-0.5,0-1.1,0.1-1.9l0,0c-0.1,0.4-0.2,0.7-0.3,0.9l-2.9,7.3h-1.1l-2.9-7.2
				c-0.1-0.2-0.2-0.5-0.3-1l0,0c0,0.4,0.1,1,0.1,1.9v6.3h-1.5v-9.8h2.3l2.6,6.5c0.2,0.5,0.3,0.9,0.4,1.1l0,0
				c0.2-0.5,0.3-0.9,0.4-1.1l2.6-6.5h2.2v9.8H430.9L430.9,56.6z"/>
			<path fill="#00BCF2" d="M441.3,56.6h-1.8l-0.9-2.5h-3.8l-0.8,2.5h-1.8l3.7-9.8h1.8L441.3,56.6z M438.3,52.7l-1.4-3.9
				c0-0.1-0.1-0.3-0.1-0.6l0,0c0,0.3-0.1,0.5-0.1,0.6l-1.3,3.9H438.3z"/>
			<path fill="#00BCF2" d="M451,56.6h-1.8l-4.7-7.2c-0.1-0.2-0.2-0.4-0.3-0.6l0,0c0,0.2,0.1,0.7,0.1,1.3v6.4h-1.6v-9.8h1.9l4.5,7
				c0.2,0.3,0.3,0.5,0.4,0.6l0,0c0-0.3-0.1-0.7-0.1-1.3v-6.3h1.6V56.6z"/>
			<path fill="#00BCF2" d="M461.4,56.6h-1.8l-0.9-2.5h-3.8l-0.8,2.5h-1.8l3.7-9.8h1.8L461.4,56.6z M458.3,52.7l-1.4-3.9
				c0-0.1-0.1-0.3-0.1-0.6l0,0c0,0.3-0.1,0.5-0.1,0.6l-1.3,3.9H458.3z"/>
			<path fill="#00BCF2" d="M470.2,55.9c-1,0.6-2.1,0.8-3.4,0.8c-1.4,0-2.6-0.4-3.5-1.3s-1.3-2.1-1.3-3.6s0.5-2.7,1.5-3.7
				s2.2-1.5,3.7-1.5c1.1,0,2,0.2,2.7,0.5v1.7c-0.7-0.5-1.6-0.7-2.7-0.7c-1,0-1.9,0.3-2.6,1s-1,1.6-1,2.7c0,1.1,0.3,2,0.9,2.6
				s1.3,1,2.3,1c0.7,0,1.3-0.1,1.7-0.4v-2.3h-2.1v-1.4h3.7L470.2,55.9L470.2,55.9z"/>
			<path fill="#00BCF2" d="M477.7,56.6h-5.5v-9.8h5.3v1.4h-3.6V51h3.4v1.4h-3.4v2.9h3.9L477.7,56.6L477.7,56.6z"/>
			<path fill="#00BCF2" d="M490,56.6h-1.6v-6.3c0-0.5,0-1.1,0.1-1.9l0,0c-0.1,0.4-0.2,0.7-0.3,0.9l-2.9,7.3h-1.1l-2.9-7.2
				c-0.1-0.2-0.2-0.5-0.3-1l0,0c0,0.4,0.1,1,0.1,1.9v6.3h-1.5v-9.8h2.3l2.6,6.5c0.2,0.5,0.3,0.9,0.4,1.1l0,0
				c0.2-0.5,0.3-0.9,0.4-1.1l2.6-6.5h2.2v9.8H490L490,56.6z"/>
			<path fill="#00BCF2" d="M497.8,56.6h-5.5v-9.8h5.3v1.4H494V51h3.4v1.4H494v2.9h3.9v1.3L497.8,56.6L497.8,56.6z"/>
			<path fill="#00BCF2" d="M507.8,56.6H506l-4.7-7.2c-0.1-0.2-0.2-0.4-0.3-0.6l0,0c0,0.2,0.1,0.7,0.1,1.3v6.4h-1.6v-9.8h1.9l4.5,7
				c0.2,0.3,0.3,0.5,0.4,0.6l0,0c0-0.3-0.1-0.7-0.1-1.3v-6.3h1.6V56.6z"/>
			<path fill="#00BCF2" d="M516.5,48.2h-2.8v8.4h-1.6v-8.5h-2.8v-1.4h7.2L516.5,48.2L516.5,48.2z"/>
		</g>
		<g>
			<path fill="#00BCF2" d="M469,22.4c-0.1-0.2-0.3-0.3-0.4-0.4c-0.2-0.1-0.3-0.1-0.5-0.1s-0.3,0-0.5,0.1s-0.3,0.2-0.4,0.3
				s-0.2,0.3-0.3,0.5c-0.1,0.2-0.1,0.4-0.1,0.6s0,0.5,0.1,0.7s0.2,0.3,0.3,0.5c0.1,0.1,0.3,0.2,0.4,0.3c0.2,0.1,0.4,0.1,0.6,0.1
				s0.3,0,0.5-0.1s0.3-0.2,0.4-0.3s0.2-0.3,0.3-0.4c0.1-0.2,0.1-0.3,0.1-0.5c0-0.3,0-0.5-0.1-0.7C469.2,22.7,469.1,22.6,469,22.4z"
				/>
			<path fill="#00BCF2" d="M468,14.9c-5.5,0-9.9,4.4-9.9,9.9s4.4,9.9,9.9,9.9s9.9-4.4,9.9-9.9S473.5,14.9,468,14.9z M470.5,26.5
				c-0.2,0.6-0.4,1-0.7,1.4c-0.3,0.4-0.6,0.6-1,0.8S468,29,467.5,29c-0.1,0-0.3,0-0.4,0c-0.2,0-0.3,0-0.4-0.1s-0.3-0.1-0.4-0.1
				s-0.2-0.1-0.3-0.1v-1.1c0.1,0,0.2,0.1,0.3,0.1c0.1,0,0.2,0.1,0.4,0.1c0.1,0,0.3,0.1,0.4,0.1s0.3,0,0.4,0c0.3,0,0.6-0.1,0.8-0.2
				c0.2-0.1,0.5-0.3,0.6-0.5s0.3-0.5,0.4-0.9c0.1-0.3,0.1-0.8,0.1-1.2l0,0c-0.1,0.1-0.2,0.2-0.3,0.3c-0.1,0.1-0.2,0.2-0.4,0.3
				c-0.2,0.1-0.3,0.1-0.5,0.2c-0.2,0-0.3,0.1-0.5,0.1c-0.3,0-0.6-0.1-0.9-0.2c-0.3-0.1-0.5-0.3-0.7-0.5s-0.4-0.5-0.5-0.8
				s-0.2-0.6-0.2-1s0.1-0.8,0.2-1.1s0.3-0.6,0.6-0.8c0.2-0.2,0.5-0.4,0.8-0.5s0.7-0.2,1-0.2c0.4,0,0.7,0.1,1,0.2s0.6,0.3,0.8,0.6
				c0.2,0.3,0.4,0.7,0.6,1.1s0.2,1,0.2,1.7C470.7,25.2,470.6,26,470.5,26.5z"/>
		</g>
	</g>
	<g>
		<g>
			<g>
				<path fill="#FFFFFF" stroke="#000000" stroke-width="3" stroke-linecap="round" stroke-linejoin="round" d="M732.6,146.3
					c-5.3,32.8-36.1,55.1-68.9,49.9c-32.8-5.2-55.1-36.1-49.9-68.9c1.3-8.4,4.4-16.1,8.7-22.8c7.5-11.7,18.8-20.4,31.9-24.8
					c8.9-2.9,18.5-3.8,28.4-2.3C715.5,82.6,737.8,113.5,732.6,146.3z"/>
				<path fill="#FFFFFF" stroke="#000000" stroke-width="3" stroke-linecap="round" stroke-linejoin="round" d="M721.8,144.6
					c-4.3,26.9-29.6,45.1-56.4,40.8c-26.9-4.3-45.1-29.6-40.8-56.4c1.1-6.9,3.6-13.2,7.1-18.7c6.1-9.6,15.4-16.7,26.1-20.3
					c7.3-2.4,15.2-3.1,23.2-1.8C707.9,92.4,726.2,117.6,721.8,144.6z"/>
			</g>
			<g>
				<g>
					<g>
						<path id="outline_1_" fill="#394D54" d="M683.4,133.1h2.6c1.2,0,2.4-0.2,3.5-0.6c0.5-0.2,1.2-0.4,1.7-0.8
							c-0.7-0.9-1.1-2.1-1.2-3.2c-0.1-1.6,0.2-3.6,1.2-4.8l0.5-0.6l0.6,0.5c1.6,1.3,2.9,3,3.2,5.1c1.9-0.6,4.2-0.4,5.9,0.5l0.7,0.4
							l-0.4,0.7c-1.4,2.8-4.4,3.6-7.4,3.5c-4.4,10.8-13.9,15.9-25.5,15.9c-6,0-11.5-2.2-14.6-7.5l-0.1-0.1l-0.5-0.9
							c-1.1-2.3-1.4-4.8-1.2-7.4l0.1-0.8h4.3L683.4,133.1L683.4,133.1L683.4,133.1z"/>
						<g id="body_colors_1_">
							<path fill="#01A9D9" d="M694.7,130c0.3-2.6-1.6-4.7-2.9-5.6c-1.4,1.6-1.6,5.9,0.6,7.6c-1.2,1.1-3.8,2.1-6.5,2.1h-32.4
								c-0.3,2.8,0.2,5.3,1.3,7.5l0.4,0.7c0.2,0.4,0.5,0.8,0.8,1.1l0,0c1.3,0.1,2.6,0.1,3.7,0.1l0,0c2.2,0,4-0.3,5.4-0.8
								c0.2-0.1,0.4,0,0.5,0.2s0,0.4-0.2,0.5s-0.4,0.1-0.6,0.2l0,0c-1.1,0.3-2.2,0.5-3.7,0.6c0.1,0-0.1,0-0.1,0c-0.1,0-0.1,0-0.2,0
								c-0.6,0-1.2,0-1.9,0s-1.4,0-2.2-0.1l0,0c2.7,3,6.9,4.8,12.2,4.8c11.2,0,20.7-4.9,24.9-16c3,0.3,5.9-0.5,7.2-3
								C698.9,128.8,696.2,129.1,694.7,130z"/>
							<path fill="#29B7EA" d="M694.7,130c0.3-2.6-1.6-4.7-2.9-5.6c-1.4,1.6-1.6,5.9,0.6,7.6c-1.2,1.1-3.8,2.1-6.5,2.1h-30.5
								c-0.1,4.2,1.4,7.4,4.2,9.4l0,0c2.2,0,4-0.3,5.4-0.8c0.2-0.1,0.4,0,0.5,0.2s0,0.4-0.2,0.5s-0.4,0.1-0.6,0.2l0,0
								c-1.1,0.3-2.3,0.5-3.8,0.6l0,0c3.8,1.9,9.3,1.9,15.7-0.5c7.1-2.7,13.7-7.9,18.3-13.8C694.8,129.9,694.8,129.9,694.7,130z"/>
							<path fill="#038AB8" d="M653.6,137.4c0.2,1.5,0.6,2.9,1.3,4.1l0.4,0.7c0.2,0.4,0.5,0.8,0.8,1.1c1.3,0.1,2.6,0.1,3.7,0.1
								c2.2,0,4-0.3,5.4-0.8c0.2-0.1,0.4,0,0.5,0.2s0,0.4-0.2,0.5s-0.4,0.1-0.6,0.2l0,0c-1.1,0.3-2.3,0.5-3.8,0.6
								c-0.1,0-0.1,0-0.2,0c-0.6,0-1.2,0.1-1.9,0.1s-1.4,0-2.2-0.1c2.7,3,7,4.8,12.2,4.8c9.6,0,17.9-3.6,22.8-11.6L653.6,137.4
								L653.6,137.4z"/>
							<path fill="#009AC5" d="M655.7,137.4c0.6,2.6,2,4.6,4,6c2.2,0,4-0.3,5.4-0.8c0.2-0.1,0.4,0,0.5,0.2s0,0.4-0.2,0.5
								s-0.4,0.1-0.6,0.2l0,0c-1.1,0.3-2.3,0.5-3.8,0.6c3.8,1.9,9.3,1.9,15.7-0.5c3.8-1.5,7.5-3.6,10.8-6.3L655.7,137.4L655.7,137.4
								L655.7,137.4z"/>
						</g>
						<path fill="#D3ECF0" d="M667.1,140.3c0.7,0,1.2,0.5,1.2,1.2s-0.5,1.2-1.2,1.2s-1.2-0.5-1.2-1.2
							C665.9,140.9,666.4,140.3,667.1,140.3"/>
						<path fill="#394D54" d="M667.1,140.6c0.1,0,0.2,0,0.3,0.1c-0.1,0.1-0.2,0.2-0.2,0.3c0,0.2,0.2,0.4,0.4,0.4
							c0.1,0,0.3-0.1,0.3-0.2c0,0.1,0.1,0.2,0.1,0.3c0,0.5-0.4,0.9-0.9,0.9s-0.9-0.4-0.9-0.9C666.2,141,666.6,140.6,667.1,140.6"/>
						<path fill="#394D54" d="M645.7,137.8h26.5h3.3H702c-1.2-0.3-3.9-0.7-3.4-2.3c-2.2,2.6-7.6,1.8-9,0.5
							c-1.5,2.2-10.3,1.3-10.9-0.3c-1.9,2.2-7.8,2.2-9.7,0c-0.6,1.7-9.4,2.5-10.9,0.3c-1.4,1.3-6.7,2-9-0.5
							C649.5,137.1,646.9,137.5,645.7,137.8"/>
						<path fill="#BFDADF" d="M670.3,148.9c-3-1.4-4.6-3.3-5.6-5.4c-1.1,0.3-2.5,0.5-4,0.6c-0.6,0-1.2,0-1.8,0c-0.7,0-1.5,0-2.4-0.1
							c2.7,2.7,6.1,4.8,12.4,4.9C669.4,148.9,669.8,148.9,670.3,148.9z"/>
						<path fill="#D3ECF0" d="M665.8,145.5c-0.4-0.6-0.8-1.3-1.1-1.9c-1.1,0.3-2.5,0.5-4,0.6C661.8,144.6,663.3,145.1,665.8,145.5z"
							/>
					</g>
				</g>
				<g>
					<rect x="657.7" y="127.9" fill="#394D54" width="6.1" height="6.1"/>
					<path fill="#24C1ED" d="M662.2,129.1h0.3v3.6h-0.3V129.1z M661.6,129.1h0.4v3.6h-0.4V129.1z M660.9,129.1h0.4v3.6h-0.4V129.1z
						 M660.2,129.1h0.4v3.6h-0.4V129.1z M659.5,129.1h0.4v3.6h-0.4V129.1z M658.9,129.1h0.3v3.6h-0.3V129.1z M658.5,128.8h4.4v4.4
						h-4.4V128.8z"/>
				</g>
				<g>
					<rect x="662.9" y="127.9" fill="#394D54" width="6.1" height="6.1"/>
					<path fill="#00ABD1" d="M667.5,129.1h0.3v3.6h-0.3V129.1z M666.8,129.1h0.4v3.6h-0.4V129.1z M666.1,129.1h0.4v3.6h-0.4V129.1z
						 M665.5,129.1h0.4v3.6h-0.4V129.1z M664.8,129.1h0.4v3.6h-0.4V129.1z M664.2,129.1h0.3v3.6h-0.3V129.1z M663.8,128.8h4.4v4.4
						h-4.4V128.8z"/>
				</g>
				<g>
					<rect x="668.2" y="127.9" fill="#394D54" width="6.1" height="6.1"/>
					<path fill="#24C1ED" d="M672.7,129.1h0.3v3.6h-0.3V129.1z M672.1,129.1h0.4v3.6h-0.4V129.1z M671.4,129.1h0.4v3.6h-0.4V129.1z
						 M670.7,129.1h0.4v3.6h-0.4V129.1z M670.1,129.1h0.4v3.6h-0.4V129.1z M669.4,129.1h0.3v3.6h-0.3V129.1z M669,128.8h4.4v4.4H669
						V128.8z"/>
				</g>
				<g>
					<rect x="673.4" y="127.9" fill="#394D54" width="6.1" height="6.1"/>
					<path fill="#24C1ED" d="M678,129.1h0.3v3.6H678V129.1z M677.3,129.1h0.4v3.6h-0.4V129.1z M676.7,129.1h0.4v3.6h-0.4V129.1z
						 M676,129.1h0.4v3.6H676V129.1z M675.3,129.1h0.4v3.6h-0.4V129.1z M674.7,129.1h0.3v3.6h-0.3V129.1z M674.3,128.8h4.4v4.4h-4.4
						V128.8z"/>
				</g>
				<g>
					<rect x="662.9" y="122.6" fill="#394D54" width="6.1" height="6.1"/>
					<path fill="#00ABD1" d="M667.5,123.9h0.3v3.6h-0.3V123.9z M666.8,123.9h0.4v3.6h-0.4V123.9z M666.1,123.9h0.4v3.6h-0.4V123.9z
						 M665.5,123.9h0.4v3.6h-0.4V123.9z M664.8,123.9h0.4v3.6h-0.4V123.9z M664.2,123.9h0.3v3.6h-0.3V123.9z M663.8,123.6h4.4v4.4
						h-4.4V123.6z"/>
				</g>
				<g>
					<rect x="668.2" y="122.6" fill="#394D54" width="6.1" height="6.1"/>
					<path fill="#24C1ED" d="M672.7,123.9h0.3v3.6h-0.3V123.9z M672.1,123.9h0.4v3.6h-0.4V123.9z M671.4,123.9h0.4v3.6h-0.4V123.9z
						 M670.7,123.9h0.4v3.6h-0.4V123.9z M670.1,123.9h0.4v3.6h-0.4V123.9z M669.4,123.9h0.3v3.6h-0.3V123.9z M669,123.6h4.4v4.4H669
						V123.6z"/>
				</g>
				<g>
					<rect x="673.4" y="117.5" fill="#394D54" width="6.1" height="6.1"/>
					<path fill="#24C1ED" d="M678,118.6h0.3v3.6H678V118.6z M677.3,118.6h0.4v3.6h-0.4V118.6z M676.7,118.6h0.4v3.6h-0.4V118.6z
						 M676,118.6h0.4v3.6H676V118.6z M675.3,118.6h0.4v3.6h-0.4V118.6z M674.7,118.6h0.3v3.6h-0.3V118.6z M674.3,118.3h4.4v4.4h-4.4
						V118.3z"/>
				</g>
				<g>
					
						<rect x="657.7" y="104.9" transform="matrix(-0.4635 0.8861 -0.8861 -0.4635 1062.6827 -427.4728)" fill="#394D54" width="6.1" height="6.1"/>
					<path fill="#24C1ED" d="M659.8,105.9l0.2-0.3l3.2,1.7l-0.2,0.3L659.8,105.9z M659.5,106.5l0.2-0.3l3.2,1.7l-0.2,0.3
						L659.5,106.5z M659.2,107l0.2-0.3l3.2,1.7l-0.2,0.3L659.2,107z M658.9,107.6l0.2-0.3l3.2,1.7l-0.2,0.3L658.9,107.6z
						 M658.6,108.1l0.2-0.3l3.2,1.7l-0.2,0.3L658.6,108.1z M658.3,108.8l0.2-0.3l3.2,1.7l-0.2,0.3L658.3,108.8z M657.8,109l2-3.9
						l3.9,2l-2,3.9L657.8,109z"/>
				</g>
				<g>
					<rect x="673.4" y="122.6" fill="#394D54" width="6.1" height="6.1"/>
					<path fill="#00ABD1" d="M678,123.9h0.3v3.6H678V123.9z M677.3,123.9h0.4v3.6h-0.4V123.9z M676.7,123.9h0.4v3.6h-0.4V123.9z
						 M676,123.9h0.4v3.6H676V123.9z M675.3,123.9h0.4v3.6h-0.4V123.9z M674.7,123.9h0.3v3.6h-0.3V123.9z M674.3,123.6h4.4v4.4h-4.4
						V123.6z"/>
				</g>
				<g>
					<rect x="678.7" y="127.9" fill="#394D54" width="6.1" height="6.1"/>
					<path fill="#24C1ED" d="M683.2,129.1h0.3v3.6h-0.3V129.1z M682.6,129.1h0.4v3.6h-0.4V129.1z M681.9,129.1h0.4v3.6h-0.4V129.1z
						 M681.2,129.1h0.4v3.6h-0.4V129.1z M680.6,129.1h0.4v3.6h-0.4V129.1z M679.9,129.1h0.3v3.6h-0.3V129.1z M679.6,128.8h4.4v4.4
						h-4.4V128.8z"/>
				</g>
				<path fill="#394D54" d="M687.2,163.9c1.3-1.1,2.5-2.2,3.8-3.2c0.4-0.4,0.9-0.8,1.3-1.1c-0.3-0.4-0.9-0.7-1.4-0.9
					c-1-0.4-2-0.2-2.9,0.3c-1.2,0.7-1.7,1.8-1.6,3.1c0,0.5,0.2,1,0.4,1.5C686.9,163.8,687,163.9,687.2,163.9 M688.6,165.1
					c0.6,0.2,1.3,0.2,2,0.1c0.3-0.1,1.2-0.5,1.5-0.4l0,0l0,0c0.2,0.1,0.4,0.2,0.5,0.4c0.2,0.4,0.1,0.9-0.3,1.1l-0.1,0.1
					c-1.6,0.9-3.3,0.8-5-0.1c-0.8-0.4-1.4-1-1.8-1.8l-0.1-0.2c-1-1.8-0.9-3.7,0.3-5.4c0.4-0.6,0.9-1,1.6-1.4l0.2-0.1
					c1.5-0.9,3.2-0.8,4.7,0c0.8,0.4,1.5,1,2,1.8l0.1,0.1c0.3,0.6-0.1,1.1-0.6,1.4c-0.5,0.4-1.1,0.9-1.6,1.3
					C690.9,163.1,689.8,164.1,688.6,165.1z M700.8,156.9h0.2c0.5,0,0.9,0.3,0.9,0.8c0,0.7-0.7,0.9-1.3,0.9c-0.8,0-1.5,0.5-2,1
					c-0.7,0.6-0.9,1.5-0.9,2.4v4.1c0,0.5-0.3,0.8-0.8,0.8h-0.1c-0.5,0-0.8-0.4-0.8-0.8v-4.3c0-1.7,0.8-3,2.2-4
					C698.8,157.1,699.8,156.9,700.8,156.9z M679.5,159.9c0.7-0.7,1.3-1.3,2-2c0.2-0.2,0.9-0.9,1.2-0.9h0.3l0,0
					c0.4,0.1,0.7,0.3,0.7,0.7v0.2c0,0.3-0.3,0.6-0.5,0.8c-0.4,0.4-0.8,0.8-1.2,1.2l-2.1,2.1c0.9,0.9,1.8,1.8,2.7,2.7
					c0.2,0.2,0.5,0.5,0.7,0.7c0.1,0.1,0.2,0.2,0.3,0.3s0.1,0.2,0.1,0.4v0.2l0,0c-0.1,0.4-0.3,0.7-0.8,0.7h-0.1
					c-0.3,0-0.6-0.3-0.8-0.5c-0.4-0.4-0.8-0.8-1.2-1.1l-1.3-1.3v2c0,0.5-0.3,0.8-0.8,0.8h-0.1c-0.5,0-0.8-0.4-0.8-0.8v-11.5
					c0-0.5,0.3-0.8,0.8-0.8h0.1c0.5,0,0.8,0.4,0.8,0.8L679.5,159.9L679.5,159.9z M673.9,158.6c-0.3-0.1-0.7-0.2-1-0.2
					c-1.4-0.1-2.5,0.7-3.1,2c-0.2,0.4-0.3,0.9-0.3,1.4c0,1.4,0.8,2.5,2.1,3.1c0.5,0.2,1.1,0.3,1.6,0.3s1.1-0.3,1.5-0.5h0.1h0.3l0,0
					c0.4,0.1,0.7,0.3,0.7,0.7v0.2c0,1-1.9,1.3-2.6,1.3c-2.6,0.2-4.5-1.2-5.2-3.6c-0.1-0.4-0.2-0.8-0.2-1.3v-0.3
					c0-1.8,0.9-3.3,2.5-4.2c0.7-0.4,1.6-0.7,2.4-0.7h0.3c0.9,0,1.7,0.3,2.5,0.8h0.1v0.1c0.1,0.1,0.2,0.3,0.2,0.4v0.2
					c0,0.4-0.3,0.7-0.7,0.7l0,0H675C674.8,159.1,674.2,158.8,673.9,158.6z M658.4,161.9c0,1.3,0.6,2.2,1.7,2.9
					c0.5,0.3,1.1,0.5,1.7,0.5c1.3,0,2.2-0.6,2.9-1.7c0.3-0.5,0.5-1.1,0.5-1.7c0-1.2-0.6-2.1-1.6-2.8c-0.5-0.4-1.2-0.5-1.8-0.5
					c-1.4,0-2.5,0.7-3.1,2C658.5,160.9,658.4,161.4,658.4,161.9z M661.6,156.9h0.2c2,0,3.5,1,4.4,2.7c0.4,0.7,0.6,1.4,0.6,2.2v0.3
					c0,1.8-0.9,3.3-2.5,4.2c-0.7,0.4-1.6,0.7-2.4,0.7h-0.3c-1.9,0-3.3-0.9-4.3-2.5c-0.4-0.7-0.7-1.5-0.7-2.4v-0.3
					c0-1.8,0.9-3.3,2.5-4.2C659.9,157.1,660.7,156.9,661.6,156.9z M647.2,161.9c0,1.3,0.6,2.3,1.8,3c0.5,0.3,1,0.4,1.5,0.4
					c1.3,0,2.3-0.6,3-1.7c0.3-0.5,0.5-1.1,0.5-1.7c0-1.1-0.5-2-1.5-2.7c-0.6-0.4-1.2-0.6-1.9-0.6c-1.4,0-2.5,0.7-3.1,2
					C647.3,160.9,647.2,161.4,647.2,161.9z M654,158.1v-3.6c0-0.5,0.3-0.8,0.8-0.8h0.1c0.5,0,0.8,0.4,0.8,0.8v7.5
					c0,1.8-0.9,3.3-2.5,4.2c-0.7,0.4-1.6,0.7-2.4,0.7h-0.3c-1.9,0-3.3-0.9-4.3-2.5c-0.4-0.7-0.7-1.5-0.7-2.4v-0.3
					c0-1.8,0.9-3.3,2.5-4.2c0.7-0.4,1.6-0.7,2.4-0.7h0.3C652,156.9,653.1,157.4,654,158.1z"/>
			</g>
		</g>
		<g>
			<path fill="#686868" d="M597.7,230.9h-1.6v-6.3c0-0.5,0-1.2,0.1-1.9l0,0c-0.1,0.4-0.2,0.7-0.3,0.9l-2.9,7.3h-1.1l-2.9-7.3
				c-0.1-0.2-0.2-0.5-0.3-1l0,0c0,0.4,0.1,1,0.1,1.9v6.3h-1.5V221h2.3l2.6,6.5c0.2,0.5,0.3,0.9,0.4,1.1l0,0c0.2-0.5,0.3-0.9,0.4-1.1
				l2.6-6.5h2.2L597.7,230.9L597.7,230.9z"/>
			<path fill="#686868" d="M608.1,230.9h-1.8l-0.9-2.5h-3.9l-0.8,2.5H599l3.7-9.8h1.8L608.1,230.9z M605,227.1l-1.4-3.9
				c0-0.1-0.1-0.3-0.1-0.6l0,0c0,0.3-0.1,0.5-0.1,0.6l-1.3,3.9H605z"/>
			<path fill="#686868" d="M617.8,230.9H616l-4.7-7.2c-0.1-0.2-0.2-0.4-0.3-0.6l0,0c0,0.2,0.1,0.7,0.1,1.3v6.4h-1.6V221h1.9l4.5,7
				c0.2,0.3,0.3,0.5,0.4,0.6l0,0c0-0.3-0.1-0.7-0.1-1.3V221h1.6L617.8,230.9L617.8,230.9z"/>
			<path fill="#686868" d="M628.3,230.9h-1.8l-0.9-2.5h-3.9l-0.8,2.5h-1.8l3.7-9.8h1.8L628.3,230.9z M625.2,227.1l-1.4-3.9
				c0-0.1-0.1-0.3-0.1-0.6l0,0c0,0.3-0.1,0.5-0.1,0.6l-1.3,3.9H625.2z"/>
			<path fill="#686868" d="M637.1,230.1c-1,0.6-2.2,0.8-3.4,0.8c-1.4,0-2.6-0.5-3.5-1.4s-1.3-2.1-1.3-3.6s0.5-2.8,1.5-3.7
				c1-1,2.2-1.5,3.7-1.5c1.1,0,2,0.2,2.7,0.5v1.7c-0.8-0.5-1.6-0.8-2.7-0.8c-1,0-1.9,0.3-2.6,1c-0.7,0.7-1,1.6-1,2.7s0.3,2,0.9,2.7
				c0.6,0.6,1.4,1,2.3,1c0.7,0,1.3-0.1,1.8-0.4v-2.3h-2.1v-1.4h3.7L637.1,230.1L637.1,230.1z"/>
			<path fill="#686868" d="M644.7,230.9h-5.5v-9.8h5.3v1.4h-3.7v2.8h3.4v1.4h-3.4v2.9h3.9V230.9z"/>
			<path fill="#686868" d="M657,230.9h-1.6v-6.3c0-0.5,0-1.2,0.1-1.9l0,0c-0.1,0.4-0.2,0.7-0.3,0.9l-2.9,7.3h-1.1l-2.9-7.3
				c-0.1-0.2-0.2-0.5-0.3-1l0,0c0,0.4,0.1,1,0.1,1.9v6.3h-1.5V221h2.3l2.6,6.5c0.2,0.5,0.3,0.9,0.4,1.1l0,0c0.2-0.5,0.3-0.9,0.4-1.1
				l2.6-6.5h2.2L657,230.9L657,230.9z"/>
			<path fill="#686868" d="M664.9,230.9h-5.5v-9.8h5.3v1.4H661v2.8h3.4v1.4H661v2.9h3.9V230.9z"/>
			<path fill="#686868" d="M675,230.9h-1.8l-4.7-7.2c-0.1-0.2-0.2-0.4-0.3-0.6l0,0c0,0.2,0.1,0.7,0.1,1.3v6.4h-1.6V221h1.9l4.5,7
				c0.2,0.3,0.3,0.5,0.4,0.6l0,0c0-0.3-0.1-0.7-0.1-1.3V221h1.6L675,230.9L675,230.9z"/>
			<path fill="#686868" d="M683.7,222.4h-2.8v8.4h-1.6v-8.4h-2.8v-1.3h7.3v1.4h-0.1L683.7,222.4L683.7,222.4z"/>
			<path fill="#686868" d="M695.3,222.4h-2.8v8.4h-1.6v-8.4H688v-1.3h7.3V222.4z"/>
			<path fill="#686868" d="M700.2,231.1c-1.4,0-2.5-0.5-3.4-1.4c-0.8-0.9-1.3-2.1-1.3-3.6c0-1.6,0.4-2.8,1.3-3.8s2-1.4,3.5-1.4
				c1.4,0,2.5,0.5,3.3,1.4s1.3,2.1,1.3,3.6c0,1.6-0.4,2.9-1.3,3.8C702.7,230.6,701.6,231.1,700.2,231.1z M700.2,222.4
				c-0.9,0-1.6,0.3-2.2,1c-0.6,0.7-0.8,1.6-0.8,2.6c0,1.1,0.3,2,0.8,2.6s1.3,1,2.1,1c0.9,0,1.7-0.3,2.2-1s0.8-1.5,0.8-2.7
				s-0.3-2.1-0.8-2.7C701.9,222.6,701.2,222.4,700.2,222.4z"/>
			<path fill="#686868" d="M710.7,231.1c-1.4,0-2.5-0.5-3.4-1.4c-0.8-0.9-1.3-2.1-1.3-3.6c0-1.6,0.4-2.8,1.3-3.8s2-1.4,3.5-1.4
				c1.4,0,2.5,0.5,3.3,1.4s1.3,2.1,1.3,3.6c0,1.6-0.4,2.9-1.3,3.8C713.2,230.6,712.2,231.1,710.7,231.1z M710.8,222.4
				c-0.9,0-1.6,0.3-2.2,1c-0.6,0.7-0.8,1.6-0.8,2.6c0,1.1,0.3,2,0.8,2.6s1.3,1,2.1,1c0.9,0,1.7-0.3,2.2-1s0.8-1.5,0.8-2.7
				s-0.3-2.1-0.8-2.7C712.5,222.6,711.7,222.4,710.8,222.4z"/>
			<path fill="#686868" d="M722.7,230.9h-5.4v-9.8h1.6v8.4h3.8L722.7,230.9L722.7,230.9z"/>
			<path fill="#686868" d="M723.7,230.4v-1.7c0.2,0.1,0.3,0.3,0.5,0.4c0.2,0.1,0.4,0.2,0.7,0.3c0.2,0.1,0.5,0.1,0.7,0.2
				c0.2,0.1,0.4,0.1,0.6,0.1c0.7,0,1.2-0.1,1.5-0.3s0.5-0.6,0.5-1c0-0.2-0.1-0.4-0.2-0.6c-0.1-0.2-0.3-0.3-0.5-0.5s-0.4-0.3-0.7-0.4
				c-0.3-0.1-0.6-0.3-0.9-0.4c-0.3-0.2-0.6-0.4-0.9-0.5s-0.5-0.4-0.7-0.6c-0.2-0.2-0.4-0.5-0.5-0.7c-0.1-0.3-0.2-0.6-0.2-1
				c0-0.5,0.1-0.9,0.3-1.2s0.5-0.6,0.8-0.8s0.7-0.4,1.2-0.5c0.4-0.1,0.9-0.2,1.3-0.2c1,0,1.8,0.1,2.2,0.3v1.6
				c-0.6-0.4-1.3-0.6-2.1-0.6c-0.2,0-0.5,0-0.7,0.1c-0.2,0-0.5,0.1-0.6,0.2c-0.2,0.1-0.3,0.2-0.5,0.4s-0.2,0.4-0.2,0.6
				c0,0.2,0,0.4,0.1,0.6s0.2,0.3,0.4,0.4c0.2,0.1,0.4,0.3,0.6,0.4c0.3,0.1,0.5,0.3,0.9,0.4c0.3,0.2,0.7,0.4,1,0.6s0.6,0.4,0.8,0.6
				c0.2,0.2,0.4,0.5,0.5,0.8s0.2,0.6,0.2,1c0,0.5-0.1,0.9-0.3,1.3s-0.5,0.6-0.8,0.8s-0.7,0.4-1.2,0.5s-0.9,0.1-1.4,0.1
				c-0.2,0-0.4,0-0.6,0c-0.2,0-0.5-0.1-0.7-0.1c-0.3,0-0.5-0.1-0.7-0.2C723.9,230.8,723.8,230.6,723.7,230.4z"/>
			<path fill="#686868" d="M740.9,222.4h-3.7v2.9h3.4v1.4h-3.4v4.1h-1.6v-9.7h5.3V222.4z"/>
			<path fill="#686868" d="M746.7,231.1c-1.4,0-2.5-0.5-3.4-1.4c-0.8-0.9-1.3-2.1-1.3-3.6c0-1.6,0.4-2.8,1.3-3.8s2-1.4,3.5-1.4
				c1.4,0,2.5,0.5,3.3,1.4s1.3,2.1,1.3,3.6c0,1.6-0.4,2.9-1.3,3.8C749.2,230.6,748.1,231.1,746.7,231.1z M746.7,222.4
				c-0.9,0-1.6,0.3-2.2,1c-0.6,0.7-0.8,1.6-0.8,2.6c0,1.1,0.3,2,0.8,2.6s1.3,1,2.1,1c0.9,0,1.7-0.3,2.2-1s0.8-1.5,0.8-2.7
				s-0.3-2.1-0.8-2.7C748.4,222.6,747.7,222.4,746.7,222.4z"/>
			<path fill="#686868" d="M760.8,230.9h-1.9l-1.6-2.6c-0.1-0.2-0.3-0.4-0.4-0.6c-0.1-0.2-0.3-0.3-0.4-0.4c-0.1-0.1-0.3-0.2-0.5-0.2
				s-0.3-0.1-0.6-0.1h-0.7v4h-1.6v-9.9h3.2c0.5,0,0.9,0.1,1.3,0.2s0.7,0.3,1,0.5s0.5,0.5,0.7,0.8s0.2,0.7,0.2,1.2
				c0,0.3-0.1,0.7-0.2,1c-0.1,0.3-0.2,0.5-0.4,0.8c-0.2,0.2-0.4,0.4-0.7,0.6c-0.3,0.2-0.6,0.3-0.9,0.4l0,0c0.2,0.1,0.3,0.2,0.5,0.3
				c0.1,0.1,0.3,0.2,0.4,0.4c0.1,0.2,0.2,0.3,0.4,0.4c0.1,0.2,0.2,0.3,0.4,0.6L760.8,230.9z M754.8,222.4v3.2h1.4
				c0.3,0,0.5,0,0.7-0.1s0.4-0.2,0.6-0.3s0.3-0.3,0.4-0.5s0.1-0.4,0.1-0.7c0-0.5-0.1-0.8-0.4-1.1c-0.3-0.3-0.7-0.4-1.3-0.4
				L754.8,222.4L754.8,222.4z"/>
			<path fill="#686868" d="M587.2,247.7v-9.8h2.8c3.6,0,5.4,1.6,5.4,4.8c0,1.5-0.5,2.7-1.5,3.6s-2.3,1.4-4,1.4H587.2z M588.8,239.3
				v7h1.3c1.1,0,2-0.3,2.7-0.9c0.6-0.6,1-1.5,1-2.7c0-2.3-1.2-3.4-3.6-3.4L588.8,239.3L588.8,239.3z"/>
			<path fill="#686868" d="M601.2,247.9c-1.4,0-2.5-0.5-3.4-1.4c-0.8-0.9-1.3-2.1-1.3-3.6c0-1.6,0.4-2.8,1.3-3.8s2-1.4,3.5-1.4
				c1.4,0,2.5,0.5,3.3,1.4s1.3,2.1,1.3,3.6c0,1.6-0.4,2.9-1.3,3.8C603.7,247.4,602.7,247.9,601.2,247.9z M601.3,239.1
				c-0.9,0-1.6,0.3-2.2,1c-0.6,0.7-0.8,1.6-0.8,2.6c0,1.1,0.3,2,0.8,2.6c0.5,0.7,1.3,1,2.1,1c0.9,0,1.7-0.3,2.2-1
				c0.5-0.6,0.8-1.5,0.8-2.7s-0.3-2.1-0.8-2.7C603,239.4,602.2,239.1,601.3,239.1z"/>
			<path fill="#686868" d="M614.6,247.3c-0.7,0.4-1.7,0.6-2.8,0.6c-1.4,0-2.6-0.4-3.4-1.3s-1.3-2.1-1.3-3.5c0-1.6,0.5-2.8,1.4-3.8
				c1-1,2.2-1.4,3.7-1.4c0.9,0,1.7,0.1,2.4,0.4v1.6c-0.7-0.4-1.4-0.6-2.2-0.6c-1.1,0-1.9,0.3-2.6,1c-0.7,0.7-1,1.6-1,2.7
				c0,1.1,0.3,1.9,0.9,2.6c0.6,0.6,1.4,1,2.4,1c0.9,0,1.7-0.2,2.4-0.7L614.6,247.3L614.6,247.3z"/>
			<path fill="#686868" d="M623.9,247.7h-2.1l-3.4-4.5c-0.1-0.2-0.2-0.3-0.2-0.3l0,0v4.8h-1.6v-9.8h1.6v4.6l0,0
				c0.1-0.1,0.1-0.2,0.2-0.3l3.3-4.3h1.9l-3.8,4.7L623.9,247.7z"/>
			<path fill="#686868" d="M630.5,247.7H625v-9.8h5.3v1.4h-3.7v2.8h3.4v1.4h-3.4v2.9h3.9V247.7z"/>
			<path fill="#686868" d="M639.8,247.7h-1.9l-1.6-2.6c-0.1-0.2-0.3-0.4-0.4-0.6c-0.1-0.2-0.3-0.3-0.4-0.4c-0.1-0.1-0.3-0.2-0.5-0.2
				s-0.3-0.1-0.6-0.1h-0.7v4h-1.6V238h3.2c0.5,0,0.9,0.1,1.3,0.2s0.7,0.3,1,0.5s0.5,0.5,0.7,0.8s0.2,0.7,0.2,1.2
				c0,0.3-0.1,0.7-0.2,1c-0.1,0.3-0.2,0.5-0.4,0.8c-0.2,0.2-0.4,0.4-0.7,0.6s-0.6,0.3-0.9,0.4l0,0c0.2,0.1,0.3,0.2,0.5,0.3
				c0.1,0.1,0.3,0.2,0.4,0.4s0.2,0.3,0.4,0.4c0.1,0.2,0.2,0.3,0.4,0.6L639.8,247.7z M633.9,239.1v3.2h1.4c0.3,0,0.5,0,0.7-0.1
				s0.4-0.2,0.6-0.3c0.2-0.1,0.3-0.3,0.4-0.5c0.1-0.2,0.1-0.4,0.1-0.7c0-0.5-0.1-0.8-0.4-1.1s-0.7-0.4-1.3-0.4h-1.5V239.1z"/>
			<path fill="#686868" d="M587.2,281.3v-9.8h2.8c3.6,0,5.4,1.6,5.4,4.8c0,1.5-0.5,2.7-1.5,3.6c-1,0.9-2.3,1.4-4,1.4H587.2z
				 M588.8,272.9v7h1.3c1.1,0,2-0.3,2.7-0.9c0.6-0.6,1-1.5,1-2.7c0-2.3-1.2-3.4-3.6-3.4H588.8L588.8,272.9z"/>
			<path fill="#686868" d="M600.1,281.4c-1.1,0-1.9-0.3-2.6-1c-0.6-0.7-1-1.5-1-2.6c0-1.2,0.3-2.1,1-2.8s1.6-1,2.7-1
				c1.1,0,1.9,0.3,2.6,1s0.9,1.5,0.9,2.7c0,1.1-0.3,2-1,2.7C602.1,281.1,601.2,281.4,600.1,281.4z M600.2,275.4
				c-0.6,0-1.1,0.2-1.5,0.6c-0.4,0.4-0.5,1-0.5,1.8c0,0.7,0.2,1.3,0.5,1.7c0.4,0.4,0.9,0.6,1.5,0.6s1.1-0.2,1.4-0.6
				c0.3-0.4,0.5-1,0.5-1.8s-0.2-1.4-0.5-1.8C601.3,275.6,600.8,275.4,600.2,275.4z"/>
			<path fill="#686868" d="M610.4,280.9c-0.6,0.3-1.2,0.5-2,0.5c-1,0-1.9-0.3-2.5-1c-0.6-0.6-1-1.5-1-2.5c0-1.2,0.3-2.1,1-2.8
				s1.6-1,2.8-1c0.6,0,1.2,0.1,1.7,0.3v1.5c-0.5-0.4-1-0.5-1.6-0.5c-0.7,0-1.2,0.2-1.6,0.7c-0.4,0.5-0.6,1-0.6,1.8
				c0,0.7,0.2,1.3,0.6,1.7c0.4,0.4,0.9,0.6,1.6,0.6c0.6,0,1.1-0.2,1.6-0.6V280.9z"/>
			<path fill="#686868" d="M618.3,281.3h-2l-2.7-3.4l0,0v3.4H612v-10.4h1.6v6.6l0,0l2.6-3.2h1.9l-2.9,3.4L618.3,281.3z"/>
			<path fill="#686868" d="M625,278.2h-4.8c0,0.6,0.2,1.1,0.6,1.5c0.4,0.4,0.9,0.5,1.6,0.5c0.7,0,1.4-0.2,2.1-0.7v1.3
				c-0.6,0.4-1.5,0.6-2.5,0.6s-1.8-0.3-2.4-1c-0.6-0.6-0.9-1.5-0.9-2.7c0-1.1,0.3-2,1-2.7c0.6-0.7,1.4-1,2.4-1s1.7,0.3,2.2,0.9
				c0.5,0.6,0.8,1.5,0.8,2.6L625,278.2L625,278.2z M623.5,277.1c0-0.6-0.1-1-0.4-1.3c-0.3-0.3-0.6-0.5-1.1-0.5s-0.8,0.2-1.2,0.5
				c-0.3,0.3-0.5,0.8-0.6,1.3H623.5z"/>
			<path fill="#686868" d="M630.6,275.8c-0.2-0.2-0.5-0.2-0.8-0.2c-0.5,0-0.9,0.2-1.2,0.6s-0.5,1-0.5,1.7v3.3h-1.6v-7h1.6v1.4l0,0
				c0.2-0.5,0.4-0.9,0.7-1.2s0.7-0.4,1.1-0.4c0.3,0,0.5,0,0.7,0.1V275.8z"/>
			<path fill="#686868" d="M646.2,281.3h-1.6V275c0-0.5,0-1.2,0.1-1.9l0,0c-0.1,0.4-0.2,0.7-0.3,0.9l-2.9,7.3h-1.1l-2.9-7.3
				c-0.1-0.2-0.2-0.5-0.3-1l0,0c0,0.4,0.1,1,0.1,1.9v6.3h-1.5v-9.8h2.3l2.6,6.5c0.2,0.5,0.3,0.9,0.4,1.1l0,0
				c0.2-0.5,0.3-0.9,0.4-1.1l2.6-6.5h2.2L646.2,281.3L646.2,281.3z"/>
			<path fill="#686868" d="M653.8,281.3h-1.5v-1.2l0,0c-0.5,0.8-1.2,1.3-2.1,1.3c-0.7,0-1.2-0.2-1.6-0.6c-0.4-0.4-0.6-0.9-0.6-1.5
				c0-1.3,0.8-2.1,2.3-2.3l2.1-0.3c0-1-0.5-1.5-1.4-1.5c-0.8,0-1.6,0.3-2.3,0.9v-1.4c0.7-0.4,1.6-0.7,2.6-0.7c1.8,0,2.7,0.9,2.7,2.6
				v4.6L653.8,281.3L653.8,281.3z M652.3,277.9l-1.5,0.2c-0.5,0.1-0.8,0.2-1,0.3c-0.2,0.2-0.3,0.4-0.3,0.9c0,0.3,0.1,0.5,0.3,0.7
				s0.5,0.3,0.9,0.3c0.5,0,0.9-0.2,1.2-0.5c0.3-0.3,0.5-0.8,0.5-1.3v-0.6L652.3,277.9L652.3,277.9z"/>
			<path fill="#686868" d="M660.8,280.9c-0.6,0.3-1.2,0.5-2,0.5c-1,0-1.9-0.3-2.5-1c-0.6-0.6-1-1.5-1-2.5c0-1.2,0.3-2.1,1-2.8
				s1.6-1,2.8-1c0.6,0,1.2,0.1,1.7,0.3v1.5c-0.5-0.4-1-0.5-1.6-0.5c-0.7,0-1.2,0.2-1.6,0.7c-0.4,0.5-0.6,1-0.6,1.8
				c0,0.7,0.2,1.3,0.6,1.7c0.4,0.4,0.9,0.6,1.6,0.6c0.6,0,1.1-0.2,1.6-0.6V280.9z"/>
			<path fill="#686868" d="M668.6,281.3H667v-3.8c0-1.4-0.5-2.1-1.4-2.1c-0.5,0-0.9,0.2-1.2,0.6c-0.3,0.4-0.5,0.9-0.5,1.5v3.8h-1.6
				v-10.4h1.6v4.5l0,0c0.5-0.9,1.3-1.3,2.3-1.3c1.6,0,2.3,1,2.3,2.9v4.3H668.6z"/>
			<path fill="#686868" d="M671.3,272.8c-0.3,0-0.5-0.1-0.7-0.3s-0.3-0.4-0.3-0.6s0.1-0.5,0.3-0.6c0.2-0.2,0.4-0.3,0.7-0.3
				s0.5,0.1,0.7,0.3s0.3,0.4,0.3,0.6s-0.1,0.5-0.3,0.6C671.8,272.7,671.6,272.8,671.3,272.8z M672.1,281.3h-1.6v-7h1.6V281.3z"/>
			<path fill="#686868" d="M680.4,281.3h-1.6v-3.9c0-1.3-0.5-2-1.4-2c-0.5,0-0.9,0.2-1.2,0.5c-0.3,0.4-0.5,0.8-0.5,1.4v4h-1.6v-7
				h1.6v1.2l0,0c0.5-0.9,1.3-1.3,2.3-1.3c0.8,0,1.3,0.2,1.7,0.7s0.6,1.2,0.6,2.1v4.3H680.4z"/>
			<path fill="#686868" d="M688.3,278.2h-4.8c0,0.6,0.2,1.1,0.6,1.5c0.4,0.4,0.9,0.5,1.6,0.5c0.7,0,1.4-0.2,2.1-0.7v1.3
				c-0.6,0.4-1.5,0.6-2.5,0.6s-1.8-0.3-2.4-1c-0.6-0.6-0.9-1.5-0.9-2.7c0-1.1,0.3-2,1-2.7c0.6-0.7,1.4-1,2.4-1s1.7,0.3,2.2,0.9
				c0.5,0.6,0.8,1.5,0.8,2.6L688.3,278.2L688.3,278.2z M686.7,277.1c0-0.6-0.1-1-0.4-1.3c-0.3-0.3-0.6-0.5-1.1-0.5s-0.8,0.2-1.2,0.5
				c-0.3,0.3-0.5,0.8-0.6,1.3H686.7z"/>
			<path fill="#686868" d="M689.3,281.1v-1.5c0.6,0.5,1.2,0.7,2,0.7c1,0,1.4-0.3,1.4-0.8c0-0.2,0-0.3-0.1-0.4
				c-0.1-0.1-0.2-0.2-0.3-0.3s-0.3-0.2-0.5-0.2c-0.2-0.1-0.4-0.1-0.6-0.2c-0.3-0.1-0.5-0.2-0.8-0.4c-0.2-0.1-0.4-0.3-0.6-0.4
				c-0.2-0.2-0.3-0.3-0.3-0.6s-0.1-0.4-0.1-0.7s0.1-0.6,0.2-0.9c0.2-0.3,0.4-0.5,0.6-0.7c0.3-0.2,0.6-0.3,0.9-0.4
				c0.3-0.1,0.7-0.1,1.1-0.1c0.6,0,1.2,0.1,1.7,0.3v1.4c-0.5-0.3-1.1-0.5-1.7-0.5c-0.2,0-0.4,0-0.5,0.1c-0.2,0-0.3,0.1-0.4,0.2
				c-0.1,0.1-0.2,0.2-0.3,0.3s-0.1,0.2-0.1,0.3c0,0.2,0,0.3,0.1,0.4s0.2,0.2,0.3,0.3s0.3,0.2,0.5,0.2c0.2,0.1,0.4,0.1,0.6,0.2
				c0.3,0.1,0.6,0.2,0.8,0.4c0.2,0.1,0.4,0.3,0.6,0.4c0.2,0.2,0.3,0.3,0.4,0.6c0.1,0.2,0.1,0.5,0.1,0.8c0,0.4-0.1,0.7-0.2,0.9
				c-0.1,0.2-0.4,0.5-0.7,0.7s-0.6,0.3-0.9,0.4c-0.4,0.1-0.7,0.1-1.1,0.1C690.6,281.4,689.9,281.3,689.3,281.1z"/>
			<path fill="#686868" d="M697.3,279.7l-1.1,3.4H695l0.8-3.4H697.3z"/>
			<path fill="#686868" d="M703.2,281.3v-9.8h2.8c3.6,0,5.4,1.6,5.4,4.8c0,1.5-0.5,2.7-1.5,3.6c-1,0.9-2.3,1.4-4,1.4H703.2z
				 M704.8,272.9v7h1.3c1.1,0,2-0.3,2.7-0.9c0.6-0.6,1-1.5,1-2.7c0-2.3-1.2-3.4-3.6-3.4H704.8L704.8,272.9z"/>
			<path fill="#686868" d="M716.2,281.4c-1.1,0-1.9-0.3-2.6-1c-0.6-0.7-1-1.5-1-2.6c0-1.2,0.3-2.1,1-2.8s1.6-1,2.7-1
				c1.1,0,1.9,0.3,2.6,1s0.9,1.5,0.9,2.7c0,1.1-0.3,2-1,2.7C718.2,281.1,717.3,281.4,716.2,281.4z M716.3,275.4
				c-0.6,0-1.1,0.2-1.5,0.6c-0.4,0.4-0.5,1-0.5,1.8c0,0.7,0.2,1.3,0.5,1.7c0.4,0.4,0.9,0.6,1.5,0.6s1.1-0.2,1.4-0.6
				c0.3-0.4,0.5-1,0.5-1.8s-0.2-1.4-0.5-1.8C717.4,275.6,716.9,275.4,716.3,275.4z"/>
			<path fill="#686868" d="M726.4,280.9c-0.6,0.3-1.2,0.5-2,0.5c-1,0-1.9-0.3-2.5-1c-0.6-0.6-1-1.5-1-2.5c0-1.2,0.3-2.1,1-2.8
				s1.6-1,2.8-1c0.6,0,1.2,0.1,1.7,0.3v1.5c-0.5-0.4-1-0.5-1.6-0.5c-0.7,0-1.2,0.2-1.6,0.7c-0.4,0.5-0.6,1-0.6,1.8
				c0,0.7,0.2,1.3,0.6,1.7c0.4,0.4,0.9,0.6,1.6,0.6c0.6,0,1.1-0.2,1.6-0.6V280.9z"/>
			<path fill="#686868" d="M734.4,281.3h-2l-2.7-3.4l0,0v3.4H728v-10.4h1.6v6.6l0,0l2.6-3.2h1.9l-2.9,3.4L734.4,281.3z"/>
			<path fill="#686868" d="M741,278.2h-4.8c0,0.6,0.2,1.1,0.6,1.5c0.4,0.4,0.9,0.5,1.6,0.5c0.7,0,1.4-0.2,2.1-0.7v1.3
				c-0.6,0.4-1.5,0.6-2.5,0.6s-1.8-0.3-2.4-1c-0.6-0.6-0.9-1.5-0.9-2.7c0-1.1,0.3-2,1-2.7c0.6-0.7,1.4-1,2.4-1s1.7,0.3,2.2,0.9
				c0.5,0.6,0.8,1.5,0.8,2.6L741,278.2L741,278.2z M739.5,277.1c0-0.6-0.1-1-0.4-1.3c-0.3-0.3-0.6-0.5-1.1-0.5s-0.8,0.2-1.2,0.5
				c-0.3,0.3-0.5,0.8-0.6,1.3H739.5z"/>
			<path fill="#686868" d="M746.6,275.8c-0.2-0.2-0.5-0.2-0.8-0.2c-0.5,0-0.9,0.2-1.2,0.6s-0.5,1-0.5,1.7v3.3h-1.6v-7h1.6v1.4l0,0
				c0.2-0.5,0.4-0.9,0.7-1.2s0.7-0.4,1.1-0.4c0.3,0,0.5,0,0.7,0.1V275.8z"/>
			<path fill="#686868" d="M586.7,297.7V296c0.2,0.1,0.3,0.3,0.5,0.4s0.4,0.2,0.7,0.3c0.2,0.1,0.5,0.1,0.7,0.2s0.4,0.1,0.6,0.1
				c0.7,0,1.2-0.1,1.5-0.3s0.5-0.6,0.5-1c0-0.2-0.1-0.4-0.2-0.6c-0.1-0.2-0.3-0.3-0.5-0.5s-0.4-0.3-0.7-0.4s-0.6-0.3-0.9-0.4
				c-0.3-0.2-0.6-0.4-0.9-0.5s-0.5-0.4-0.7-0.6s-0.4-0.5-0.5-0.7c-0.1-0.3-0.2-0.6-0.2-1c0-0.5,0.1-0.9,0.3-1.2s0.5-0.6,0.8-0.8
				c0.3-0.2,0.7-0.4,1.2-0.5c0.4-0.1,0.9-0.2,1.3-0.2c1,0,1.8,0.1,2.2,0.3v1.6c-0.6-0.4-1.3-0.6-2.1-0.6c-0.2,0-0.5,0-0.7,0.1
				c-0.2,0-0.5,0.1-0.6,0.2c-0.2,0.1-0.3,0.2-0.5,0.4s-0.2,0.4-0.2,0.6s0,0.4,0.1,0.6s0.2,0.3,0.4,0.4s0.4,0.3,0.6,0.4
				c0.3,0.1,0.5,0.3,0.9,0.4c0.3,0.2,0.7,0.4,1,0.6s0.6,0.4,0.8,0.6s0.4,0.5,0.5,0.8s0.2,0.6,0.2,1c0,0.5-0.1,0.9-0.3,1.3
				s-0.5,0.6-0.8,0.8c-0.3,0.2-0.7,0.4-1.2,0.5s-0.9,0.1-1.4,0.1c-0.2,0-0.4,0-0.6,0c-0.2,0-0.5-0.1-0.7-0.1c-0.3,0-0.5-0.1-0.7-0.2
				S586.8,297.8,586.7,297.7z"/>
			<path fill="#686868" d="M606.9,288.3l-2.7,9.8h-1.8l-1.9-6.9c-0.1-0.3-0.1-0.6-0.1-1l0,0c0,0.3-0.1,0.6-0.2,0.9l-1.9,6.9h-1.9
				l-2.7-9.8h1.8l1.8,7.2c0.1,0.3,0.1,0.6,0.1,0.9l0,0c0-0.2,0.1-0.5,0.2-0.9l2-7.2h1.7l1.9,7.2c0.1,0.2,0.1,0.5,0.1,0.9l0,0
				c0-0.2,0.1-0.5,0.2-0.9l1.7-7.2L606.9,288.3L606.9,288.3L606.9,288.3z"/>
			<path fill="#686868" d="M615.8,298.1H614l-0.9-2.5h-3.9l-0.8,2.5h-1.8l3.7-9.8h1.8L615.8,298.1z M612.8,294.3l-1.4-3.9
				c0-0.1-0.1-0.3-0.1-0.6l0,0c0,0.3-0.1,0.5-0.1,0.6l-1.3,3.9H612.8z"/>
			<path fill="#686868" d="M624.8,298.1h-1.9l-1.6-2.6c-0.1-0.2-0.3-0.4-0.4-0.6c-0.1-0.2-0.3-0.3-0.4-0.4c-0.1-0.1-0.3-0.2-0.5-0.2
				s-0.3-0.1-0.6-0.1h-0.7v4h-1.6v-9.8h3.2c0.5,0,0.9,0.1,1.3,0.2c0.4,0.1,0.7,0.3,1,0.5s0.5,0.5,0.7,0.8s0.2,0.7,0.2,1.2
				c0,0.3-0.1,0.7-0.2,1c-0.1,0.3-0.2,0.5-0.4,0.8c-0.2,0.2-0.4,0.4-0.7,0.6s-0.6,0.3-0.9,0.4l0,0c0.2,0.1,0.3,0.2,0.5,0.3
				c0.1,0.1,0.3,0.2,0.4,0.4c0.1,0.2,0.2,0.3,0.4,0.4c0.1,0.2,0.2,0.3,0.4,0.6L624.8,298.1z M618.8,289.6v3.2h1.4
				c0.3,0,0.5,0,0.7-0.1s0.4-0.2,0.6-0.3s0.3-0.3,0.4-0.5c0.1-0.2,0.1-0.4,0.1-0.7c0-0.5-0.1-0.8-0.4-1.1c-0.3-0.3-0.7-0.4-1.3-0.4
				L618.8,289.6L618.8,289.6z"/>
			<path fill="#686868" d="M636.4,298.1h-1.6v-6.3c0-0.5,0-1.2,0.1-1.9l0,0c-0.1,0.4-0.2,0.7-0.3,0.9l-2.9,7.3h-1.1l-2.9-7.3
				c-0.1-0.2-0.2-0.5-0.3-1l0,0c0,0.4,0.1,1,0.1,1.9v6.3H626v-9.8h2.3l2.6,6.5c0.2,0.5,0.3,0.9,0.4,1.1l0,0c0.2-0.5,0.3-0.9,0.4-1.1
				l2.6-6.5h2.2L636.4,298.1L636.4,298.1z"/>
			<path fill="#686868" d="M640.2,296.4l-1.1,3.4h-1.2l0.8-3.4H640.2z"/>
			<path fill="#686868" d="M646.1,298.1v-9.8h2.8c3.6,0,5.4,1.6,5.4,4.8c0,1.5-0.5,2.7-1.5,3.6s-2.3,1.4-4,1.4H646.1z M647.7,289.7
				v7h1.3c1.1,0,2-0.3,2.7-0.9c0.6-0.6,1-1.5,1-2.7c0-2.3-1.2-3.4-3.6-3.4H647.7L647.7,289.7z"/>
			<path fill="#686868" d="M659,298.3c-1.1,0-1.9-0.3-2.6-1c-0.6-0.7-1-1.5-1-2.6c0-1.2,0.3-2.1,1-2.8s1.6-1,2.7-1
				c1.1,0,1.9,0.3,2.6,1s0.9,1.5,0.9,2.7c0,1.1-0.3,2-1,2.7C661,297.9,660.2,298.3,659,298.3z M659.1,292.2c-0.6,0-1.1,0.2-1.5,0.6
				s-0.5,1-0.5,1.8c0,0.7,0.2,1.3,0.5,1.7c0.4,0.4,0.9,0.6,1.5,0.6s1.1-0.2,1.4-0.6c0.3-0.4,0.5-1,0.5-1.8s-0.2-1.4-0.5-1.8
				C660.2,292.4,659.7,292.2,659.1,292.2z"/>
			<path fill="#686868" d="M669.3,297.8c-0.6,0.3-1.2,0.5-2,0.5c-1,0-1.9-0.3-2.5-1c-0.6-0.6-1-1.5-1-2.5c0-1.2,0.3-2.1,1-2.8
				s1.6-1,2.8-1c0.6,0,1.2,0.1,1.7,0.3v1.5c-0.5-0.4-1-0.5-1.6-0.5c-0.7,0-1.2,0.2-1.6,0.7c-0.4,0.5-0.6,1-0.6,1.8
				c0,0.7,0.2,1.3,0.6,1.7c0.4,0.4,0.9,0.6,1.6,0.6c0.6,0,1.1-0.2,1.6-0.6V297.8z"/>
			<path fill="#686868" d="M677.2,298.1h-2l-2.7-3.4l0,0v3.4h-1.6v-10.4h1.6v6.6l0,0l2.6-3.2h1.9l-2.9,3.4L677.2,298.1z"/>
			<path fill="#686868" d="M683.9,294.9h-4.8c0,0.6,0.2,1.1,0.6,1.5c0.4,0.4,0.9,0.5,1.6,0.5c0.7,0,1.4-0.2,2.1-0.7v1.3
				c-0.6,0.4-1.5,0.6-2.5,0.6s-1.8-0.3-2.4-1c-0.6-0.6-0.9-1.5-0.9-2.7c0-1.1,0.3-2,1-2.7c0.6-0.7,1.4-1,2.4-1s1.7,0.3,2.2,0.9
				s0.8,1.5,0.8,2.6L683.9,294.9L683.9,294.9z M682.4,293.9c0-0.6-0.1-1-0.4-1.3c-0.3-0.3-0.6-0.5-1.1-0.5s-0.8,0.2-1.2,0.5
				c-0.3,0.3-0.5,0.8-0.6,1.3H682.4z"/>
			<path fill="#686868" d="M689.5,292.6c-0.2-0.2-0.5-0.2-0.8-0.2c-0.5,0-0.9,0.2-1.2,0.6s-0.5,1-0.5,1.7v3.3h-1.6v-7h1.6v1.4l0,0
				c0.2-0.5,0.4-0.9,0.7-1.2s0.7-0.4,1.1-0.4c0.3,0,0.5,0,0.7,0.1V292.6z"/>
			<path fill="#686868" d="M701.5,297.7c-0.7,0.4-1.7,0.6-2.8,0.6c-1.4,0-2.6-0.4-3.4-1.3c-0.8-0.9-1.3-2.1-1.3-3.5
				c0-1.6,0.5-2.8,1.4-3.8c1-1,2.2-1.4,3.7-1.4c0.9,0,1.7,0.1,2.4,0.4v1.6c-0.7-0.4-1.4-0.6-2.2-0.6c-1.1,0-1.9,0.3-2.6,1
				c-0.7,0.7-1,1.6-1,2.7s0.3,1.9,0.9,2.6c0.6,0.6,1.4,1,2.4,1c0.9,0,1.7-0.2,2.4-0.7L701.5,297.7L701.5,297.7z"/>
			<path fill="#686868" d="M706.3,298.3c-1.1,0-1.9-0.3-2.6-1c-0.6-0.7-1-1.5-1-2.6c0-1.2,0.3-2.1,1-2.8s1.6-1,2.7-1
				c1.1,0,1.9,0.3,2.6,1s0.9,1.5,0.9,2.7c0,1.1-0.3,2-1,2.7C708.3,297.9,707.4,298.3,706.3,298.3z M706.3,292.2
				c-0.6,0-1.1,0.2-1.5,0.6s-0.5,1-0.5,1.8c0,0.7,0.2,1.3,0.5,1.7c0.4,0.4,0.9,0.6,1.5,0.6s1.1-0.2,1.4-0.6c0.3-0.4,0.5-1,0.5-1.8
				s-0.2-1.4-0.5-1.8C707.4,292.4,707,292.2,706.3,292.2z"/>
			<path fill="#686868" d="M722,298.1h-1.6v-3.8c0-0.7-0.1-1.3-0.3-1.6c-0.2-0.3-0.6-0.5-1-0.5s-0.8,0.2-1.1,0.6s-0.4,0.9-0.4,1.5
				v3.8H716v-3.9c0-1.3-0.5-2-1.4-2c-0.4,0-0.8,0.2-1.1,0.6s-0.4,0.9-0.4,1.5v3.8h-1.6v-7h1.6v1.1l0,0c0.5-0.8,1.2-1.3,2.2-1.3
				c0.5,0,0.9,0.1,1.3,0.4c0.4,0.3,0.6,0.6,0.7,1c0.5-1,1.3-1.4,2.3-1.4c1.5,0,2.3,1,2.3,2.9L722,298.1L722,298.1z"/>
			<path fill="#686868" d="M725.5,297.1L725.5,297.1v4.3h-1.6v-10.3h1.6v1.2l0,0c0.5-0.9,1.3-1.4,2.4-1.4c0.9,0,1.6,0.3,2.1,0.9
				s0.7,1.5,0.7,2.5c0,1.2-0.3,2.1-0.8,2.8s-1.3,1.1-2.3,1.1C726.7,298.2,726,297.8,725.5,297.1z M725.5,294.3v0.9
				c0,0.5,0.2,0.9,0.5,1.3s0.7,0.5,1.2,0.5c0.6,0,1-0.2,1.4-0.7c0.3-0.5,0.5-1.1,0.5-1.9c0-0.7-0.2-1.2-0.5-1.6s-0.7-0.6-1.3-0.6
				s-1,0.2-1.4,0.6C725.7,293.2,725.5,293.7,725.5,294.3z"/>
			<path fill="#686868" d="M735.5,298.3c-1.1,0-1.9-0.3-2.6-1c-0.6-0.7-1-1.5-1-2.6c0-1.2,0.3-2.1,1-2.8s1.6-1,2.7-1
				c1.1,0,1.9,0.3,2.6,1s0.9,1.5,0.9,2.7c0,1.1-0.3,2-1,2.7C737.4,297.9,736.6,298.3,735.5,298.3z M735.5,292.2
				c-0.6,0-1.1,0.2-1.5,0.6s-0.5,1-0.5,1.8c0,0.7,0.2,1.3,0.5,1.7c0.4,0.4,0.9,0.6,1.5,0.6s1.1-0.2,1.4-0.6c0.3-0.4,0.5-1,0.5-1.8
				s-0.2-1.4-0.5-1.8C736.6,292.4,736.1,292.2,735.5,292.2z"/>
			<path fill="#686868" d="M740.3,297.9v-1.5c0.6,0.5,1.2,0.7,2,0.7c1,0,1.4-0.3,1.4-0.8c0-0.2,0-0.3-0.1-0.4s-0.2-0.2-0.3-0.3
				s-0.3-0.2-0.5-0.2c-0.2-0.1-0.4-0.1-0.6-0.2c-0.3-0.1-0.5-0.2-0.8-0.4c-0.2-0.1-0.4-0.3-0.6-0.4c-0.2-0.2-0.3-0.3-0.3-0.6
				s-0.1-0.4-0.1-0.7c0-0.3,0.1-0.6,0.2-0.9c0.2-0.3,0.4-0.5,0.6-0.7c0.3-0.2,0.6-0.3,0.9-0.4c0.3-0.1,0.7-0.1,1.1-0.1
				c0.6,0,1.2,0.1,1.7,0.3v1.4c-0.5-0.3-1.1-0.5-1.7-0.5c-0.2,0-0.4,0-0.5,0.1c-0.2,0-0.3,0.1-0.4,0.2c-0.1,0.1-0.2,0.2-0.3,0.3
				c-0.1,0.1-0.1,0.2-0.1,0.3c0,0.2,0,0.3,0.1,0.4s0.2,0.2,0.3,0.3c0.1,0.1,0.3,0.2,0.5,0.2c0.2,0.1,0.4,0.1,0.6,0.2
				c0.3,0.1,0.6,0.2,0.8,0.4c0.2,0.1,0.4,0.3,0.6,0.4c0.2,0.2,0.3,0.3,0.4,0.6c0.1,0.2,0.1,0.5,0.1,0.8c0,0.4-0.1,0.7-0.2,0.9
				s-0.4,0.5-0.7,0.7s-0.6,0.3-0.9,0.4c-0.4,0.1-0.7,0.1-1.1,0.1C741.5,298.3,740.8,298.1,740.3,297.9z"/>
			<path fill="#686868" d="M752.7,294.9h-4.8c0,0.6,0.2,1.1,0.6,1.5c0.4,0.4,0.9,0.5,1.6,0.5c0.7,0,1.4-0.2,2.1-0.7v1.3
				c-0.6,0.4-1.5,0.6-2.5,0.6s-1.8-0.3-2.4-1c-0.6-0.6-0.9-1.5-0.9-2.7c0-1.1,0.3-2,1-2.7c0.6-0.7,1.4-1,2.4-1s1.7,0.3,2.2,0.9
				s0.8,1.5,0.8,2.6L752.7,294.9L752.7,294.9z M751.1,293.9c0-0.6-0.1-1-0.4-1.3c-0.3-0.3-0.6-0.5-1.1-0.5s-0.8,0.2-1.2,0.5
				c-0.3,0.3-0.5,0.8-0.6,1.3H751.1z"/>
			<path fill="#686868" d="M755.7,296.4l-1.1,3.4h-1.2l0.8-3.4H755.7z"/>
			<path fill="#686868" d="M594.6,314.9h-2.1l-3.4-4.5c-0.1-0.2-0.2-0.3-0.2-0.3l0,0v4.8h-1.6v-9.8h1.6v4.6l0,0
				c0.1-0.1,0.1-0.2,0.2-0.3l3.3-4.3h1.9l-3.8,4.7L594.6,314.9z"/>
			<path fill="#686868" d="M601.6,314.9H600v-1.1l0,0c-0.5,0.8-1.2,1.3-2.1,1.3c-1.7,0-2.5-1-2.5-3v-4.2h1.6v4
				c0,1.3,0.5,1.9,1.5,1.9c0.5,0,0.9-0.2,1.2-0.5s0.5-0.8,0.5-1.4v-4h1.6v7L601.6,314.9L601.6,314.9z"/>
			<path fill="#686868" d="M605.3,313.9L605.3,313.9v1h-1.6v-10.4h1.6v4.6l0,0c0.5-0.9,1.3-1.4,2.4-1.4c0.9,0,1.6,0.3,2.1,0.9
				s0.7,1.5,0.7,2.5c0,1.2-0.3,2.1-0.8,2.8c-0.6,0.7-1.3,1.1-2.3,1.1C606.5,315.1,605.8,314.7,605.3,313.9z M605.3,311.1v0.9
				c0,0.5,0.2,0.9,0.5,1.3s0.7,0.5,1.2,0.5c0.6,0,1-0.2,1.4-0.7c0.3-0.5,0.5-1.1,0.5-1.9c0-0.7-0.2-1.2-0.5-1.6s-0.7-0.6-1.3-0.6
				s-1,0.2-1.4,0.6C605.4,309.9,605.3,310.4,605.3,311.1z"/>
			<path fill="#686868" d="M618.1,311.8h-4.8c0,0.6,0.2,1.1,0.6,1.5c0.4,0.4,0.9,0.5,1.6,0.5c0.7,0,1.4-0.2,2.1-0.7v1.3
				c-0.6,0.4-1.5,0.6-2.5,0.6s-1.8-0.3-2.4-1c-0.6-0.6-0.9-1.5-0.9-2.7c0-1.1,0.3-2,1-2.7c0.6-0.7,1.4-1,2.4-1s1.7,0.3,2.2,0.9
				s0.8,1.5,0.8,2.6L618.1,311.8L618.1,311.8z M616.5,310.7c0-0.6-0.1-1-0.4-1.3c-0.3-0.3-0.6-0.5-1.1-0.5s-0.8,0.2-1.2,0.5
				c-0.3,0.3-0.5,0.8-0.6,1.3H616.5z"/>
			<path fill="#686868" d="M623.6,309.4c-0.2-0.2-0.5-0.2-0.8-0.2c-0.5,0-0.9,0.2-1.2,0.6s-0.5,1-0.5,1.7v3.3h-1.6v-7h1.6v1.4l0,0
				c0.2-0.5,0.4-0.9,0.7-1.2c0.3-0.3,0.7-0.4,1.1-0.4c0.3,0,0.5,0,0.7,0.1V309.4z"/>
			<path fill="#686868" d="M631,314.9h-1.6V311c0-1.3-0.5-2-1.4-2c-0.5,0-0.9,0.2-1.2,0.5c-0.3,0.4-0.5,0.8-0.5,1.4v4h-1.6v-7h1.6
				v1.2l0,0c0.5-0.9,1.3-1.3,2.3-1.3c0.8,0,1.3,0.2,1.7,0.7s0.6,1.2,0.6,2.1v4.3L631,314.9L631,314.9z"/>
			<path fill="#686868" d="M638.8,311.8H634c0,0.6,0.2,1.1,0.6,1.5c0.4,0.4,0.9,0.5,1.6,0.5c0.7,0,1.4-0.2,2.1-0.7v1.3
				c-0.6,0.4-1.5,0.6-2.5,0.6s-1.8-0.3-2.4-1c-0.6-0.6-0.9-1.5-0.9-2.7c0-1.1,0.3-2,1-2.7c0.6-0.7,1.4-1,2.4-1s1.7,0.3,2.2,0.9
				s0.8,1.5,0.8,2.6L638.8,311.8L638.8,311.8z M637.3,310.7c0-0.6-0.1-1-0.4-1.3c-0.3-0.3-0.6-0.5-1.1-0.5s-0.8,0.2-1.2,0.5
				c-0.3,0.3-0.5,0.8-0.6,1.3H637.3z"/>
			<path fill="#686868" d="M644,314.8c-0.3,0.2-0.7,0.2-1.2,0.2c-1.4,0-2-0.7-2-2v-4h-1.2v-1.2h1.2v-1.7l1.6-0.5v2.1h1.7v1.2h-1.7
				v3.5c0,0.4,0.1,0.7,0.2,0.9c0.1,0.2,0.4,0.3,0.8,0.3c0.3,0,0.5-0.1,0.7-0.2L644,314.8L644,314.8z"/>
			<path fill="#686868" d="M651.3,311.8h-4.8c0,0.6,0.2,1.1,0.6,1.5c0.4,0.4,0.9,0.5,1.6,0.5c0.7,0,1.4-0.2,2.1-0.7v1.3
				c-0.6,0.4-1.5,0.6-2.5,0.6s-1.8-0.3-2.4-1c-0.6-0.6-0.9-1.5-0.9-2.7c0-1.1,0.3-2,1-2.7c0.6-0.7,1.4-1,2.4-1s1.7,0.3,2.2,0.9
				s0.8,1.5,0.8,2.6L651.3,311.8L651.3,311.8z M649.7,310.7c0-0.6-0.1-1-0.4-1.3c-0.3-0.3-0.6-0.5-1.1-0.5s-0.8,0.2-1.2,0.5
				c-0.3,0.3-0.5,0.8-0.6,1.3H649.7z"/>
			<path fill="#686868" d="M652.3,314.7v-1.5c0.6,0.5,1.2,0.7,2,0.7c1,0,1.4-0.3,1.4-0.8c0-0.2,0-0.3-0.1-0.4s-0.2-0.2-0.3-0.3
				c-0.1-0.1-0.3-0.2-0.5-0.2c-0.2-0.1-0.4-0.1-0.6-0.2c-0.3-0.1-0.5-0.2-0.8-0.4c-0.2-0.1-0.4-0.3-0.6-0.4
				c-0.2-0.2-0.3-0.3-0.3-0.6c0-0.3-0.1-0.4-0.1-0.7s0.1-0.6,0.2-0.9c0.2-0.3,0.4-0.5,0.6-0.7c0.3-0.2,0.6-0.3,0.9-0.4
				c0.3-0.1,0.7-0.1,1.1-0.1c0.6,0,1.2,0.1,1.7,0.3v1.4c-0.5-0.3-1.1-0.5-1.7-0.5c-0.2,0-0.4,0-0.5,0.1c-0.2,0-0.3,0.1-0.4,0.2
				c-0.1,0.1-0.2,0.2-0.3,0.3s-0.1,0.2-0.1,0.3c0,0.2,0,0.3,0.1,0.4s0.2,0.2,0.3,0.3s0.3,0.2,0.5,0.2c0.2,0.1,0.4,0.1,0.6,0.2
				c0.3,0.1,0.6,0.2,0.8,0.4c0.2,0.1,0.4,0.3,0.6,0.4c0.2,0.2,0.3,0.3,0.4,0.6c0.1,0.2,0.1,0.5,0.1,0.8c0,0.4-0.1,0.7-0.2,0.9
				c-0.1,0.2-0.4,0.5-0.7,0.7s-0.6,0.3-0.9,0.4c-0.4,0.1-0.7,0.1-1.1,0.1C653.6,315.1,652.9,314.9,652.3,314.7z"/>
			<path fill="#686868" d="M660.3,313.3l-1.1,3.4H658l0.8-3.4H660.3z"/>
			<path fill="#686868" d="M674.3,314.9h-1.8l-0.9-2.5h-3.9l-0.8,2.5h-1.8l3.7-9.8h1.8L674.3,314.9z M671.2,311.1l-1.4-3.9
				c0-0.1-0.1-0.3-0.1-0.6l0,0c0,0.3-0.1,0.5-0.1,0.6l-1.3,3.9H671.2z"/>
			<path fill="#686868" d="M677,313.9L677,313.9v4.3h-1.6V308h1.6v1.2l0,0c0.5-0.9,1.3-1.4,2.4-1.4c0.9,0,1.6,0.3,2.1,0.9
				s0.7,1.5,0.7,2.5c0,1.2-0.3,2.1-0.8,2.8c-0.5,0.7-1.3,1.1-2.3,1.1C678.2,314.9,677.5,314.6,677,313.9z M677,311.1v0.9
				c0,0.5,0.2,0.9,0.5,1.3s0.7,0.5,1.2,0.5c0.6,0,1-0.2,1.4-0.7c0.3-0.5,0.5-1.1,0.5-1.9c0-0.7-0.2-1.2-0.5-1.6s-0.7-0.6-1.3-0.6
				s-1,0.2-1.4,0.6C677.2,309.9,677,310.4,677,311.1z"/>
			<path fill="#686868" d="M689.1,314.9h-1.5v-1.1l0,0c-0.5,0.8-1.2,1.3-2.1,1.3c-0.7,0-1.2-0.2-1.6-0.6c-0.4-0.4-0.6-0.9-0.6-1.5
				c0-1.3,0.8-2.1,2.3-2.3l2.1-0.3c0-1-0.5-1.5-1.4-1.5c-0.8,0-1.6,0.3-2.3,0.9v-1.4c0.7-0.4,1.6-0.7,2.6-0.7c1.8,0,2.7,0.9,2.7,2.6
				v4.6H689.1z M687.5,311.4l-1.5,0.2c-0.5,0.1-0.8,0.2-1,0.3c-0.2,0.2-0.3,0.4-0.3,0.9c0,0.3,0.1,0.5,0.3,0.7s0.5,0.3,0.9,0.3
				c0.5,0,0.9-0.2,1.2-0.5s0.5-0.8,0.5-1.3v-0.6H687.5L687.5,311.4z"/>
			<path fill="#686868" d="M696,314.6c-0.6,0.3-1.2,0.5-2,0.5c-1,0-1.9-0.3-2.5-1c-0.6-0.6-1-1.5-1-2.5c0-1.2,0.3-2.1,1-2.8
				c0.7-0.7,1.6-1,2.8-1c0.6,0,1.2,0.1,1.7,0.3v1.5c-0.5-0.4-1-0.5-1.6-0.5c-0.7,0-1.2,0.2-1.6,0.7c-0.4,0.5-0.6,1-0.6,1.8
				c0,0.7,0.2,1.3,0.6,1.7c0.4,0.4,0.9,0.6,1.6,0.6c0.6,0,1.1-0.2,1.6-0.6V314.6z"/>
			<path fill="#686868" d="M703.8,314.9h-1.6v-3.8c0-1.4-0.5-2.1-1.4-2.1c-0.5,0-0.9,0.2-1.2,0.6s-0.5,0.9-0.5,1.5v3.8h-1.6v-10.4
				h1.6v4.5l0,0c0.5-0.9,1.3-1.3,2.3-1.3c1.6,0,2.3,1,2.3,2.9v4.3H703.8z"/>
			<path fill="#686868" d="M711.7,311.8h-4.8c0,0.6,0.2,1.1,0.6,1.5c0.4,0.4,0.9,0.5,1.6,0.5c0.7,0,1.4-0.2,2.1-0.7v1.3
				c-0.6,0.4-1.5,0.6-2.5,0.6s-1.8-0.3-2.4-1c-0.6-0.6-0.9-1.5-0.9-2.7c0-1.1,0.3-2,1-2.7c0.6-0.7,1.4-1,2.4-1s1.7,0.3,2.2,0.9
				s0.8,1.5,0.8,2.6L711.7,311.8L711.7,311.8z M710.1,310.7c0-0.6-0.1-1-0.4-1.3c-0.3-0.3-0.6-0.5-1.1-0.5s-0.8,0.2-1.2,0.5
				c-0.3,0.3-0.5,0.8-0.6,1.3H710.1z"/>
			<path fill="#686868" d="M727.7,314.9h-1.6v-6.3c0-0.5,0-1.2,0.1-1.9l0,0c-0.1,0.4-0.2,0.7-0.3,0.9l-2.9,7.3h-1.1l-2.9-7.3
				c-0.1-0.2-0.2-0.5-0.3-1l0,0c0,0.4,0.1,1,0.1,1.9v6.3h-1.5V305h2.3l2.6,6.5c0.2,0.5,0.3,0.9,0.4,1.1l0,0c0.2-0.5,0.3-0.9,0.4-1.1
				l2.6-6.5h2.2L727.7,314.9L727.7,314.9z"/>
			<path fill="#686868" d="M735.9,311.8h-4.8c0,0.6,0.2,1.1,0.6,1.5c0.4,0.4,0.9,0.5,1.6,0.5c0.7,0,1.4-0.2,2.1-0.7v1.3
				c-0.6,0.4-1.5,0.6-2.5,0.6s-1.8-0.3-2.4-1c-0.6-0.6-0.9-1.5-0.9-2.7c0-1.1,0.3-2,1-2.7c0.6-0.7,1.4-1,2.4-1s1.7,0.3,2.2,0.9
				s0.8,1.5,0.8,2.6L735.9,311.8L735.9,311.8z M734.4,310.7c0-0.6-0.1-1-0.4-1.3c-0.3-0.3-0.6-0.5-1.1-0.5s-0.8,0.2-1.2,0.5
				c-0.3,0.3-0.5,0.8-0.6,1.3H734.4z"/>
			<path fill="#686868" d="M737,314.7v-1.5c0.6,0.5,1.2,0.7,2,0.7c1,0,1.4-0.3,1.4-0.8c0-0.2,0-0.3-0.1-0.4s-0.2-0.2-0.3-0.3
				c-0.1-0.1-0.3-0.2-0.5-0.2c-0.2-0.1-0.4-0.1-0.6-0.2c-0.3-0.1-0.5-0.2-0.8-0.4c-0.2-0.1-0.4-0.3-0.6-0.4
				c-0.2-0.2-0.3-0.3-0.3-0.6c0-0.3-0.1-0.4-0.1-0.7s0.1-0.6,0.2-0.9c0.2-0.3,0.4-0.5,0.6-0.7c0.3-0.2,0.6-0.3,0.9-0.4
				c0.3-0.1,0.7-0.1,1.1-0.1c0.6,0,1.2,0.1,1.7,0.3v1.4c-0.5-0.3-1.1-0.5-1.7-0.5c-0.2,0-0.4,0-0.5,0.1c-0.2,0-0.3,0.1-0.4,0.2
				c-0.1,0.1-0.2,0.2-0.3,0.3s-0.1,0.2-0.1,0.3c0,0.2,0,0.3,0.1,0.4s0.2,0.2,0.3,0.3s0.3,0.2,0.5,0.2c0.2,0.1,0.4,0.1,0.6,0.2
				c0.3,0.1,0.6,0.2,0.8,0.4c0.2,0.1,0.4,0.3,0.6,0.4c0.2,0.2,0.3,0.3,0.4,0.6c0.1,0.2,0.1,0.5,0.1,0.8c0,0.4-0.1,0.7-0.2,0.9
				c-0.1,0.2-0.4,0.5-0.7,0.7s-0.6,0.3-0.9,0.4c-0.4,0.1-0.7,0.1-1.1,0.1C738.2,315.1,737.5,314.9,737,314.7z"/>
			<path fill="#686868" d="M746.5,315.1c-1.1,0-1.9-0.3-2.6-1c-0.6-0.7-1-1.5-1-2.6c0-1.2,0.3-2.1,1-2.8c0.7-0.7,1.6-1,2.7-1
				c1.1,0,1.9,0.3,2.6,1c0.7,0.7,0.9,1.5,0.9,2.7c0,1.1-0.3,2-1,2.7C748.5,314.7,747.7,315.1,746.5,315.1z M746.6,308.9
				c-0.6,0-1.1,0.2-1.5,0.6s-0.5,1-0.5,1.8c0,0.7,0.2,1.3,0.5,1.7c0.4,0.4,0.9,0.6,1.5,0.6s1.1-0.2,1.4-0.6c0.3-0.4,0.5-1,0.5-1.8
				s-0.2-1.4-0.5-1.8C747.7,309.2,747.2,308.9,746.6,308.9z"/>
			<path fill="#686868" d="M751.4,314.7v-1.5c0.6,0.5,1.2,0.7,2,0.7c1,0,1.4-0.3,1.4-0.8c0-0.2,0-0.3-0.1-0.4s-0.2-0.2-0.3-0.3
				c-0.1-0.1-0.3-0.2-0.5-0.2c-0.2-0.1-0.4-0.1-0.6-0.2c-0.3-0.1-0.5-0.2-0.8-0.4c-0.2-0.1-0.4-0.3-0.6-0.4
				c-0.2-0.2-0.3-0.3-0.3-0.6c0-0.3-0.1-0.4-0.1-0.7s0.1-0.6,0.2-0.9c0.2-0.3,0.4-0.5,0.6-0.7c0.3-0.2,0.6-0.3,0.9-0.4
				c0.3-0.1,0.7-0.1,1.1-0.1c0.6,0,1.2,0.1,1.7,0.3v1.4c-0.5-0.3-1.1-0.5-1.7-0.5c-0.2,0-0.4,0-0.5,0.1c-0.2,0-0.3,0.1-0.4,0.2
				c-0.1,0.1-0.2,0.2-0.3,0.3s-0.1,0.2-0.1,0.3c0,0.2,0,0.3,0.1,0.4s0.2,0.2,0.3,0.3s0.3,0.2,0.5,0.2c0.2,0.1,0.4,0.1,0.6,0.2
				c0.3,0.1,0.6,0.2,0.8,0.4c0.2,0.1,0.4,0.3,0.6,0.4c0.2,0.2,0.3,0.3,0.4,0.6c0.1,0.2,0.1,0.5,0.1,0.8c0,0.4-0.1,0.7-0.2,0.9
				c-0.1,0.2-0.4,0.5-0.7,0.7s-0.6,0.3-0.9,0.4c-0.4,0.1-0.7,0.1-1.1,0.1C752.6,315.1,751.9,314.9,751.4,314.7z"/>
		</g>
	</g>
	<g>
		<g>
			<path fill="#FFFFFF" stroke="#000000" stroke-width="3" stroke-linecap="round" stroke-linejoin="round" d="M311.8,146.3
				c-5.3,32.8-36.1,55.1-68.9,49.9c-32.8-5.2-55.1-36.1-49.9-68.9c1.3-8.4,4.4-16.1,8.7-22.8c7.5-11.7,18.8-20.4,31.9-24.8
				c8.9-2.9,18.5-3.8,28.4-2.3C294.8,82.6,317.1,113.5,311.8,146.3z"/>
			<path fill="#FFFFFF" stroke="#000000" stroke-width="3" stroke-linecap="round" stroke-linejoin="round" d="M301.1,144.6
				c-4.3,26.9-29.6,45.1-56.4,40.8c-26.9-4.3-45.1-29.6-40.8-56.4c1.1-6.9,3.6-13.2,7.1-18.7c6.1-9.6,15.4-16.7,26.1-20.3
				c7.3-2.4,15.2-3.1,23.2-1.8C287.1,92.4,305.4,117.6,301.1,144.6z"/>
		</g>
		<g>
			<path d="M275.1,139"/>
			<rect x="223.7" y="150.4" width="0" height="3"/>
			<path d="M266.9,119.5l2.2-0.8v-1.8l-2.2-0.7l-0.5-1.3l1-2.1l-1.3-1.3l-2.1,1.1l-1.3-0.5l-0.8-2.2h-1.8l-0.7,2.2l-1.3,0.5l-2.1-1
				l-1.3,1.3l0.7,1.3l0.4,0.8l-0.5,1.3l-1.5,0.5L253,117v1.8l2.2,0.7l0.5,1.3l-1,2.1l1.3,1.3l2.1-1.1l1.3,0.5l0.8,2.2h1.8l0.7-2.2
				l1.2-0.5l1.9,0.9l0.2,0.1l1.3-1.3l-1.1-2.1l0.2-0.6L266.9,119.5z M262.8,119.6c-0.5,0.4-1.1,0.7-1.8,0.7c-1.4,0-2.6-1.2-2.6-2.6
				c0-0.2,0-0.4,0.1-0.6c0.3-1,1.1-1.7,2.1-1.9c0.1,0,0.3,0,0.4,0c1.1,0,2,0.7,2.4,1.7c0.1,0.3,0.2,0.6,0.2,0.9
				C263.6,118.6,263.3,119.1,262.8,119.6z"/>
			<path d="M287.1,129.5V127l-2.9-1l-0.7-1.7l1.4-2.8l-1.7-1.7l-2.8,1.4l-1.7-0.7l-1.1-3h-2.4l-1,3l-1.7,0.7l-2.8-1.3l-1.7,1.7
				l1.4,2.8l-0.2,0.5l-0.5,1.1l-1.5,0.5l-1.5,0.5v2.4l1.9,0.6l1.1,0.4l0.7,1.7l-1,2.1L268,135l1.7,1.7l1.6-0.8l1.2-0.6l1.7,0.7
				l1.1,2.9h0.9h1.5l1-2.9l1.7-0.7l2.8,1.3l1.7-1.7l-1.4-2.7l0.7-1.7L287.1,129.5z M276.4,131.6c-1.9,0-3.4-1.5-3.4-3.4
				s1.5-3.4,3.4-3.4s3.4,1.5,3.4,3.4S278.2,131.6,276.4,131.6z"/>
			<polygon points="236,138.3 236,149.6 251.4,149.6 251.4,136.1 			"/>
			<polygon points="223.7,149.6 235.5,149.6 235.5,138.3 223.7,140 			"/>
			<polygon points="236,152.6 236,155.1 236,161.6 251.4,163.8 251.4,155.1 251.4,152.6 251.4,150.1 236,150.1 			"/>
			<polygon points="223.7,150.4 223.7,153.4 223.7,159.9 235.5,161.6 235.5,155.1 235.5,152.6 235.5,150.1 223.7,150.1 			"/>
			<path d="M273.8,139.9c0.3,1,0.5,2,0.5,3.1c0,5.5-4.2,9.7-9.8,9.7h-11.8v2.5h11.8c7,0,12.3-5.3,12.3-12.2c0-1.1-0.2-2.2-0.5-3.2
				L273.8,139.9z"/>
			<path d="M254.6,114.8l-0.4-0.7c-5,0.3-9.4,3.1-11.9,7.5c-1.9-1.6-4.3-2.5-6.9-2.5c-5.9,0-10.6,4.9-10.6,11c0,0.6,0.1,1.3,0.2,1.9
				c-4.4,2-7,6.1-7,10.9c0,3.9,1.8,7.4,4.6,9.6V149c-1.3-1.6-2.1-3.7-2.1-6.1c0-4.1,2.4-7.5,6.4-9c0.6-0.2,0.9-0.9,0.8-1.5
				c-0.2-0.8-0.3-1.6-0.3-2.4c0-4.7,3.6-8.4,8.1-8.4c2.5,0,4.8,1,6.2,2.9c0.3,0.4,0.7,0.5,1.2,0.5c0.4-0.1,0.8-0.4,1-0.8
				c1.5-3.7,4.6-6.4,8.3-7.3l0.2-0.8l2-0.7L254.6,114.8z"/>
		</g>
		<g>
			<path fill="#686868" d="M184.4,230.9h-1.8l-0.9-2.5h-3.9l-0.8,2.5h-1.8l3.7-9.8h1.8L184.4,230.9z M181.3,227.1l-1.4-3.9
				c0-0.1-0.1-0.3-0.1-0.6l0,0c0,0.3-0.1,0.5-0.1,0.6l-1.3,3.9H181.3z"/>
			<path fill="#686868" d="M192.7,221.9l-5.4,7.7h5.3v1.4H185v-0.7l5.4-7.7h-5v-1.5h7.2v0.7L192.7,221.9L192.7,221.9z"/>
			<path fill="#686868" d="M201.8,226.9c0,2.8-1.3,4.1-3.9,4.1c-2.5,0-3.7-1.3-3.7-4v-6h1.6v5.7c0,1.9,0.7,2.9,2.2,2.9
				c1.4,0,2.2-0.9,2.2-2.8v-5.7h1.6L201.8,226.9L201.8,226.9z"/>
			<path fill="#686868" d="M211.7,230.9h-1.9l-1.6-2.6c-0.1-0.2-0.3-0.4-0.4-0.6c-0.1-0.2-0.3-0.3-0.4-0.4c-0.1-0.1-0.3-0.2-0.5-0.2
				s-0.3-0.1-0.6-0.1h-0.7v4H204v-9.8h3.2c0.5,0,0.9,0.1,1.3,0.2s0.7,0.3,1,0.5s0.5,0.5,0.7,0.8s0.2,0.7,0.2,1.2
				c0,0.3-0.1,0.7-0.2,1c-0.1,0.3-0.2,0.5-0.4,0.8c-0.2,0.2-0.4,0.4-0.7,0.6s-0.6,0.3-0.9,0.4l0,0c0.2,0.1,0.3,0.2,0.5,0.3
				c0.1,0.1,0.3,0.2,0.4,0.4c0.1,0.1,0.2,0.3,0.4,0.4c0.1,0.2,0.2,0.3,0.4,0.6L211.7,230.9z M205.7,222.4v3.2h1.4
				c0.3,0,0.5,0,0.7-0.1s0.4-0.2,0.6-0.3c0.2-0.1,0.3-0.3,0.4-0.5c0.1-0.2,0.1-0.4,0.1-0.7c0-0.5-0.1-0.8-0.4-1.1
				c-0.3-0.3-0.7-0.4-1.3-0.4h-1.5V222.4z"/>
			<path fill="#686868" d="M218.3,230.9h-5.5v-9.8h5.3v1.4h-3.7v2.8h3.4v1.4h-3.4v2.9h3.9V230.9z"/>
			<path fill="#686868" d="M234.5,230.9h-1.6v-6.3c0-0.5,0-1.2,0.1-1.9l0,0c-0.1,0.4-0.2,0.7-0.3,0.9l-2.9,7.3h-1.1l-2.9-7.3
				c-0.1-0.2-0.2-0.5-0.3-1l0,0c0,0.4,0.1,1,0.1,1.9v6.3h-1.5v-9.7h2.3l2.6,6.5c0.2,0.5,0.3,0.9,0.4,1.1l0,0
				c0.2-0.5,0.3-0.9,0.4-1.1l2.6-6.5h2.2v9.9h-0.1V230.9z"/>
			<path fill="#686868" d="M244.9,230.9h-1.8l-0.9-2.5h-3.9l-0.8,2.5h-1.8l3.7-9.8h1.8L244.9,230.9z M241.8,227.1l-1.4-3.9
				c0-0.1-0.1-0.3-0.1-0.6l0,0c0,0.3-0.1,0.5-0.1,0.6l-1.3,3.9H241.8z"/>
			<path fill="#686868" d="M254.6,230.9h-1.8l-4.7-7.2c-0.1-0.2-0.2-0.4-0.3-0.6l0,0c0,0.2,0.1,0.7,0.1,1.3v6.4h-1.6v-9.7h1.9l4.5,7
				c0.2,0.3,0.3,0.5,0.4,0.6l0,0c0-0.3-0.1-0.7-0.1-1.3v-6.3h1.6L254.6,230.9L254.6,230.9z"/>
			<path fill="#686868" d="M265.1,230.9h-1.8l-0.9-2.5h-3.9l-0.8,2.5h-1.8l3.7-9.8h1.8L265.1,230.9z M262,227.1l-1.4-3.9
				c0-0.1-0.1-0.3-0.1-0.6l0,0c0,0.3-0.1,0.5-0.1,0.6l-1.3,3.9H262z"/>
			<path fill="#686868" d="M273.9,230.3c-1,0.6-2.2,0.8-3.4,0.8c-1.4,0-2.6-0.5-3.5-1.4s-1.3-2.1-1.3-3.6s0.5-2.8,1.5-3.7
				c1-1,2.2-1.5,3.7-1.5c1.1,0,2,0.2,2.7,0.5v1.7c-0.8-0.5-1.6-0.8-2.7-0.8c-1,0-1.9,0.3-2.6,1s-1,1.6-1,2.7c0,1.1,0.3,2,0.9,2.7
				s1.4,1,2.3,1c0.7,0,1.3-0.1,1.8-0.4V227h-2.1v-1.4h3.7V230.3z"/>
			<path fill="#686868" d="M281.5,230.9H276v-9.8h5.3v1.4h-3.7v2.8h3.4v1.4h-3.4v2.9h3.9L281.5,230.9L281.5,230.9z"/>
			<path fill="#686868" d="M293.8,230.9h-1.6v-6.3c0-0.5,0-1.2,0.1-1.9l0,0c-0.1,0.4-0.2,0.7-0.3,0.9l-3,7.3h-1.1l-2.9-7.3
				c-0.1-0.2-0.2-0.5-0.3-1l0,0c0,0.4,0.1,1,0.1,1.9v6.3h-1.5v-9.7h2.3l2.6,6.5c0.2,0.5,0.3,0.9,0.4,1.1l0,0
				c0.2-0.5,0.3-0.9,0.4-1.1l2.6-6.5h2.2L293.8,230.9L293.8,230.9z"/>
			<path fill="#686868" d="M301.7,230.9h-5.5v-9.8h5.3v1.4h-3.7v2.8h3.4v1.4h-3.4v2.9h3.9L301.7,230.9L301.7,230.9z"/>
			<path fill="#686868" d="M311.8,230.9H310l-4.7-7.2c-0.1-0.2-0.2-0.4-0.3-0.6l0,0c0,0.2,0.1,0.7,0.1,1.3v6.4h-1.6v-9.7h1.9l4.5,7
				c0.2,0.3,0.3,0.5,0.4,0.6l0,0c0-0.3-0.1-0.7-0.1-1.3v-6.3h1.6V230.9z"/>
			<path fill="#686868" d="M320.5,222.4h-2.8v8.4H316v-8.4h-2.8v-1.3h7.3V222.4z"/>
			<path fill="#686868" d="M182.7,239.3h-2.8v8.4h-1.6v-8.4h-2.8V238h7.3L182.7,239.3L182.7,239.3z"/>
			<path fill="#686868" d="M187.5,247.9c-1.4,0-2.5-0.5-3.4-1.4c-0.8-0.9-1.3-2.1-1.3-3.6c0-1.6,0.4-2.8,1.3-3.8
				c0.9-0.9,2-1.4,3.5-1.4c1.4,0,2.5,0.5,3.3,1.4s1.3,2.1,1.3,3.6c0,1.6-0.4,2.9-1.3,3.8C190,247.4,189,247.9,187.5,247.9z
				 M187.6,239.1c-0.9,0-1.6,0.3-2.2,1c-0.6,0.7-0.8,1.6-0.8,2.6c0,1.1,0.3,2,0.8,2.6c0.5,0.7,1.3,1,2.1,1c0.9,0,1.7-0.3,2.2-0.9
				c0.5-0.6,0.8-1.5,0.8-2.7s-0.3-2.1-0.8-2.7C189.3,239.4,188.5,239.1,187.6,239.1z"/>
			<path fill="#686868" d="M198.1,247.9c-1.4,0-2.5-0.5-3.4-1.4c-0.8-0.9-1.3-2.1-1.3-3.6c0-1.6,0.4-2.8,1.3-3.8
				c0.9-0.9,2-1.4,3.5-1.4c1.4,0,2.5,0.5,3.3,1.4s1.3,2.1,1.3,3.6c0,1.6-0.4,2.9-1.3,3.8C200.6,247.4,199.6,247.9,198.1,247.9z
				 M198.2,239.1c-0.9,0-1.6,0.3-2.2,1c-0.6,0.7-0.8,1.6-0.8,2.6c0,1.1,0.3,2,0.8,2.6c0.5,0.7,1.3,1,2.1,1c0.9,0,1.7-0.3,2.2-0.9
				c0.5-0.6,0.8-1.5,0.8-2.7s-0.3-2.1-0.8-2.7C199.9,239.4,199.1,239.1,198.2,239.1z"/>
			<path fill="#686868" d="M210.1,247.8h-5.4V238h1.6v8.4h3.8L210.1,247.8L210.1,247.8z"/>
			<path fill="#686868" d="M211.1,247.4v-1.7c0.2,0.1,0.3,0.3,0.5,0.4c0.2,0.1,0.4,0.2,0.7,0.3c0.2,0.1,0.5,0.1,0.7,0.2
				c0.2,0.1,0.4,0.1,0.6,0.1c0.7,0,1.2-0.1,1.5-0.3s0.5-0.6,0.5-1c0-0.2-0.1-0.4-0.2-0.6c-0.1-0.2-0.3-0.3-0.5-0.5
				c-0.2-0.1-0.4-0.3-0.7-0.4s-0.6-0.3-0.9-0.4c-0.3-0.2-0.6-0.4-0.9-0.5c-0.3-0.2-0.5-0.4-0.7-0.6s-0.4-0.5-0.5-0.7
				c-0.1-0.3-0.2-0.6-0.2-1c0-0.5,0.1-0.9,0.3-1.2s0.5-0.6,0.8-0.8s0.7-0.4,1.2-0.5c0.4-0.1,0.9-0.2,1.3-0.2c1,0,1.8,0.1,2.2,0.3
				v1.6c-0.6-0.4-1.3-0.6-2.1-0.6c-0.2,0-0.5,0-0.7,0.1c-0.2,0-0.5,0.1-0.6,0.2c-0.2,0.1-0.3,0.2-0.5,0.4s-0.2,0.4-0.2,0.6
				s0,0.4,0.1,0.6c0.1,0.2,0.2,0.3,0.4,0.4c0.2,0.1,0.4,0.3,0.6,0.4c0.3,0.1,0.5,0.3,0.9,0.4c0.3,0.2,0.7,0.4,1,0.6
				c0.3,0.2,0.6,0.4,0.8,0.7c0.2,0.2,0.4,0.5,0.5,0.8s0.2,0.6,0.2,1c0,0.5-0.1,0.9-0.3,1.3c-0.2,0.4-0.5,0.6-0.8,0.8
				s-0.7,0.4-1.2,0.5s-0.9,0.1-1.4,0.1c-0.2,0-0.4,0-0.6,0c-0.2,0-0.5-0.1-0.7-0.1c-0.3,0-0.5-0.1-0.7-0.2
				C211.3,247.7,211.2,247.4,211.1,247.4z"/>
			<path fill="#686868" d="M184.4,281.4h-1.8l-0.9-2.5h-3.9l-0.8,2.5h-1.8l3.7-9.8h1.8L184.4,281.4z M181.3,277.4l-1.4-3.9
				c0-0.1-0.1-0.3-0.1-0.6l0,0c0,0.3-0.1,0.5-0.1,0.6l-1.3,3.9H181.3z"/>
			<path fill="#686868" d="M190.8,274.9l-3.8,5.2h3.8v1.2h-6v-0.6l3.9-5.2h-3.5v-1.2h5.6V274.9z"/>
			<path fill="#686868" d="M198.2,281.4h-1.6v-1.1l0,0c-0.5,0.8-1.2,1.3-2.1,1.3c-1.7,0-2.5-1-2.5-3v-4.2h1.6v4
				c0,1.3,0.5,1.9,1.5,1.9c0.5,0,0.9-0.2,1.2-0.5c0.3-0.3,0.5-0.8,0.5-1.4v-4h1.6v7H198.2z"/>
			<path fill="#686868" d="M204.3,275.9c-0.2-0.2-0.5-0.2-0.8-0.2c-0.5,0-0.9,0.2-1.2,0.6c-0.3,0.4-0.5,1-0.5,1.7v3.3h-1.6v-7h1.6
				v1.4l0,0c0.2-0.5,0.4-0.9,0.7-1.2s0.7-0.4,1.1-0.4c0.3,0,0.5,0,0.7,0.1V275.9z"/>
			<path fill="#686868" d="M211.2,278.3h-4.8c0,0.6,0.2,1.1,0.6,1.5c0.4,0.3,0.9,0.5,1.6,0.5c0.7,0,1.4-0.2,2.1-0.7v1.3
				c-0.6,0.4-1.5,0.6-2.5,0.6s-1.8-0.3-2.4-1c-0.6-0.6-0.9-1.5-0.9-2.7c0-1.1,0.3-2,1-2.7c0.6-0.7,1.4-1,2.4-1s1.7,0.3,2.2,0.9
				c0.5,0.6,0.8,1.5,0.8,2.6v0.7L211.2,278.3L211.2,278.3z M209.7,277.2c0-0.6-0.1-1-0.4-1.3c-0.3-0.3-0.6-0.5-1.1-0.5
				s-0.8,0.2-1.2,0.5c-0.3,0.3-0.5,0.8-0.6,1.3H209.7z"/>
			<path fill="#686868" d="M218.4,277.8v3.6h-1.6v-9.8h3c1.1,0,2,0.3,2.6,0.8s0.9,1.3,0.9,2.2c0,1-0.3,1.7-1,2.3
				c-0.6,0.6-1.5,0.9-2.6,0.9L218.4,277.8L218.4,277.8z M218.4,272.9v3.6h1.1c0.7,0,1.2-0.2,1.6-0.5c0.4-0.3,0.5-0.8,0.5-1.4
				c0-1.2-0.7-1.7-2-1.7L218.4,272.9L218.4,272.9z"/>
			<path fill="#686868" d="M227.4,281.4c-1.1,0-1.9-0.3-2.6-1c-0.6-0.7-1-1.5-1-2.6c0-1.2,0.3-2.1,1-2.8s1.6-1,2.7-1
				c1.1,0,1.9,0.3,2.6,1s0.9,1.5,0.9,2.7c0,1.1-0.3,2-1,2.7C229.4,281.2,228.5,281.4,227.4,281.4z M227.5,275.4
				c-0.6,0-1.1,0.2-1.5,0.7c-0.4,0.4-0.5,1-0.5,1.8c0,0.7,0.2,1.3,0.5,1.7s0.9,0.6,1.5,0.6s1.1-0.2,1.4-0.6c0.3-0.4,0.5-1,0.5-1.8
				s-0.2-1.4-0.5-1.8C228.6,275.7,228.1,275.4,227.5,275.4z"/>
			<path fill="#686868" d="M236.7,275.9c-0.2-0.2-0.5-0.2-0.8-0.2c-0.5,0-0.9,0.2-1.2,0.6c-0.3,0.4-0.5,1-0.5,1.7v3.3h-1.6v-7h1.6
				v1.4l0,0c0.2-0.5,0.4-0.9,0.7-1.2s0.7-0.4,1.1-0.4c0.3,0,0.5,0,0.7,0.1V275.9z"/>
			<path fill="#686868" d="M241.9,281.3c-0.3,0.2-0.7,0.2-1.2,0.2c-1.4,0-2-0.7-2-2v-4h-1.2v-1.2h1.2v-1.6l1.6-0.5v2.1h1.7v1.2h-1.7
				v3.5c0,0.4,0.1,0.7,0.2,0.9s0.4,0.3,0.8,0.3c0.3,0,0.5-0.1,0.7-0.2v1.3L241.9,281.3L241.9,281.3z"/>
			<path fill="#686868" d="M248.7,281.4h-1.5v-1.1l0,0c-0.5,0.8-1.2,1.3-2.1,1.3c-0.7,0-1.2-0.2-1.6-0.6c-0.4-0.4-0.6-0.9-0.6-1.5
				c0-1.3,0.8-2.1,2.3-2.3l2.1-0.3c0-1-0.5-1.5-1.4-1.5c-0.8,0-1.6,0.3-2.3,0.9v-1.4c0.7-0.4,1.6-0.7,2.6-0.7c1.8,0,2.7,0.9,2.7,2.6
				v4.6L248.7,281.4L248.7,281.4z M247.2,277.9l-1.5,0.2c-0.5,0.1-0.8,0.2-1,0.3c-0.2,0.2-0.3,0.4-0.3,0.9c0,0.3,0.1,0.5,0.3,0.7
				s0.5,0.3,0.9,0.3c0.5,0,0.9-0.2,1.2-0.5c0.3-0.3,0.5-0.8,0.5-1.3L247.2,277.9L247.2,277.9z"/>
			<path fill="#686868" d="M252.2,281.4h-1.6V271h1.6V281.4z"/>
			<path fill="#686868" d="M255.8,279.7l-1.1,3.4h-1.2l0.8-3.4H255.8z"/>
			<path fill="#686868" d="M269.7,281.4H268l-0.9-2.5h-3.9l-0.8,2.5h-1.8l3.7-9.8h1.8L269.7,281.4z M266.6,277.4l-1.4-3.9
				c0-0.1-0.1-0.3-0.1-0.6l0,0c0,0.3-0.1,0.5-0.1,0.6l-1.3,3.9H266.6z"/>
			<path fill="#686868" d="M276.1,274.9l-3.8,5.1h3.8v1.2h-6v-0.6l3.9-5.2h-3.5v-1.2h5.6V274.9z"/>
			<path fill="#686868" d="M283.5,281.4h-1.6v-1.1l0,0c-0.5,0.8-1.2,1.3-2.1,1.3c-1.7,0-2.5-1-2.5-3v-4.2h1.6v4
				c0,1.3,0.5,1.9,1.5,1.9c0.5,0,0.9-0.2,1.2-0.5c0.3-0.3,0.5-0.8,0.5-1.4v-4h1.6v7H283.5z"/>
			<path fill="#686868" d="M289.6,275.9c-0.2-0.2-0.5-0.2-0.8-0.2c-0.5,0-0.9,0.2-1.2,0.6c-0.3,0.4-0.5,1-0.5,1.7v3.3h-1.6v-7h1.6
				v1.4l0,0c0.2-0.5,0.4-0.9,0.7-1.2c0.3-0.3,0.7-0.4,1.1-0.4c0.3,0,0.5,0,0.7,0.1L289.6,275.9L289.6,275.9z"/>
			<path fill="#686868" d="M296.6,278.3h-4.8c0,0.6,0.2,1.1,0.6,1.5c0.4,0.3,0.9,0.5,1.6,0.5s1.4-0.2,2.1-0.7v1.3
				c-0.6,0.4-1.5,0.6-2.5,0.6s-1.8-0.3-2.4-1c-0.6-0.6-0.9-1.5-0.9-2.7c0-1.1,0.3-2,1-2.7c0.6-0.7,1.4-1,2.4-1s1.7,0.3,2.2,0.9
				c0.5,0.6,0.8,1.5,0.8,2.6v0.7L296.6,278.3L296.6,278.3z M295,277.2c0-0.6-0.1-1-0.4-1.3s-0.6-0.5-1.1-0.5s-0.8,0.2-1.2,0.5
				c-0.3,0.3-0.5,0.8-0.6,1.3H295z"/>
			<path fill="#686868" d="M308.9,280.9c-0.7,0.4-1.7,0.6-2.8,0.6c-1.4,0-2.6-0.4-3.4-1.3c-0.9-0.9-1.3-2.1-1.3-3.5
				c0-1.6,0.5-2.8,1.4-3.8c1-1,2.2-1.4,3.7-1.4c0.9,0,1.7,0.1,2.4,0.4v1.6c-0.7-0.4-1.4-0.6-2.2-0.6c-1.1,0-1.9,0.3-2.6,1
				s-1,1.6-1,2.7s0.3,1.9,0.9,2.6s1.4,1,2.4,1c0.9,0,1.7-0.2,2.4-0.7v1.4L308.9,280.9L308.9,280.9z"/>
			<path fill="#686868" d="M316.2,281.4h-5.4v-9.8h1.6v8.4h3.8V281.4z"/>
			<path fill="#686868" d="M319.3,281.4h-1.7v-9.8h1.7V281.4z"/>
			<path fill="#686868" d="M323,279.7l-1.1,3.4h-1.2l0.8-3.4H323z"/>
			<path fill="#686868" d="M184.4,298.2h-1.8l-0.9-2.5h-3.9l-0.8,2.5h-1.8l3.7-9.8h1.8L184.4,298.2z M181.3,294.3l-1.4-3.9
				c0-0.1-0.1-0.3-0.1-0.6l0,0c0,0.3-0.1,0.5-0.1,0.6l-1.3,3.9H181.3z"/>
			<path fill="#686868" d="M190.8,291.8l-3.8,5.1h3.8v1.2h-6v-0.6l3.9-5.2h-3.5v-1.2h5.6V291.8z"/>
			<path fill="#686868" d="M198.2,298.2h-1.6v-1.1l0,0c-0.5,0.8-1.2,1.3-2.1,1.3c-1.7,0-2.5-1-2.5-3v-4.3h1.6v4
				c0,1.3,0.5,1.9,1.5,1.9c0.5,0,0.9-0.2,1.2-0.5s0.5-0.8,0.5-1.4v-4h1.6v7L198.2,298.2L198.2,298.2z"/>
			<path fill="#686868" d="M204.3,292.7c-0.2-0.2-0.5-0.2-0.8-0.2c-0.5,0-0.9,0.2-1.2,0.6s-0.5,1-0.5,1.7v3.3h-1.6v-7h1.6v1.4l0,0
				c0.2-0.5,0.4-0.9,0.7-1.2s0.7-0.4,1.1-0.4c0.3,0,0.5,0,0.7,0.1V292.7z"/>
			<path fill="#686868" d="M211.2,295.1h-4.8c0,0.6,0.2,1.1,0.6,1.5c0.4,0.4,0.9,0.5,1.6,0.5c0.7,0,1.4-0.2,2.1-0.7v1.3
				c-0.6,0.4-1.5,0.6-2.5,0.6s-1.8-0.3-2.4-1c-0.6-0.6-0.9-1.5-0.9-2.7c0-1.1,0.3-2,1-2.7c0.6-0.7,1.4-1,2.4-1s1.7,0.3,2.2,0.9
				s0.8,1.5,0.8,2.6v0.7L211.2,295.1L211.2,295.1z M209.7,293.9c0-0.6-0.1-1-0.4-1.3c-0.3-0.3-0.6-0.5-1.1-0.5s-0.8,0.2-1.2,0.5
				c-0.3,0.3-0.5,0.8-0.6,1.3H209.7z"/>
			<path fill="#686868" d="M224.4,298.2h-1.9l-1.6-2.6c-0.1-0.2-0.3-0.4-0.4-0.6c-0.1-0.2-0.3-0.3-0.4-0.4c-0.1-0.1-0.3-0.2-0.5-0.2
				c-0.2-0.1-0.3-0.1-0.6-0.1h-0.7v4h-1.6v-9.8h3.2c0.5,0,0.9,0.1,1.3,0.2c0.4,0.1,0.7,0.3,1,0.5s0.5,0.5,0.7,0.8s0.2,0.7,0.2,1.2
				c0,0.3-0.1,0.7-0.2,1c-0.1,0.3-0.2,0.5-0.4,0.8c-0.2,0.2-0.4,0.4-0.7,0.6s-0.6,0.3-0.9,0.4l0,0c0.2,0.1,0.3,0.2,0.5,0.3
				c0.2,0.1,0.3,0.2,0.4,0.4c0.1,0.1,0.2,0.3,0.4,0.4c0.1,0.2,0.2,0.3,0.4,0.6L224.4,298.2z M218.4,289.7v3.2h1.4
				c0.3,0,0.5,0,0.7-0.1s0.4-0.2,0.6-0.3c0.2-0.1,0.3-0.3,0.4-0.5c0.1-0.2,0.1-0.4,0.1-0.7c0-0.5-0.1-0.8-0.4-1.1
				c-0.3-0.3-0.7-0.4-1.3-0.4L218.4,289.7L218.4,289.7z"/>
			<path fill="#686868" d="M230.9,295.1h-4.8c0,0.6,0.2,1.1,0.6,1.5c0.4,0.4,0.9,0.5,1.6,0.5c0.7,0,1.4-0.2,2.1-0.7v1.3
				c-0.6,0.4-1.5,0.6-2.5,0.6s-1.8-0.3-2.4-1c-0.6-0.6-0.9-1.5-0.9-2.7c0-1.1,0.3-2,1-2.7c0.6-0.7,1.4-1,2.4-1s1.7,0.3,2.2,0.9
				s0.8,1.5,0.8,2.6v0.7L230.9,295.1L230.9,295.1z M229.3,293.9c0-0.6-0.1-1-0.4-1.3c-0.3-0.3-0.6-0.5-1.1-0.5s-0.8,0.2-1.2,0.5
				c-0.3,0.3-0.5,0.8-0.6,1.3H229.3z"/>
			<path fill="#686868" d="M231.9,297.9v-1.5c0.6,0.5,1.2,0.7,2,0.7c1,0,1.4-0.3,1.4-0.8c0-0.2,0-0.3-0.1-0.4s-0.2-0.2-0.3-0.3
				s-0.3-0.2-0.5-0.2c-0.2-0.1-0.4-0.1-0.6-0.2c-0.3-0.1-0.5-0.2-0.8-0.4c-0.2-0.1-0.4-0.3-0.6-0.4c-0.2-0.2-0.3-0.3-0.3-0.6
				s-0.1-0.4-0.1-0.7c0-0.3,0.1-0.6,0.2-0.9c0.1-0.3,0.4-0.5,0.6-0.7c0.3-0.2,0.6-0.3,0.9-0.4c0.3-0.1,0.7-0.1,1.1-0.1
				c0.6,0,1.2,0.1,1.7,0.3v1.4c-0.5-0.3-1.1-0.5-1.7-0.5c-0.2,0-0.4,0-0.5,0.1c-0.2,0-0.3,0.1-0.4,0.2c-0.1,0.1-0.2,0.2-0.3,0.3
				c-0.1,0.1-0.1,0.2-0.1,0.3c0,0.2,0,0.3,0.1,0.4s0.2,0.2,0.3,0.3c0.1,0.1,0.3,0.2,0.5,0.2c0.2,0.1,0.4,0.1,0.6,0.2
				c0.3,0.1,0.6,0.2,0.8,0.4c0.2,0.1,0.4,0.3,0.6,0.4c0.2,0.1,0.3,0.3,0.4,0.6c0.1,0.2,0.1,0.5,0.1,0.8c0,0.4-0.1,0.7-0.2,0.9
				c-0.2,0.3-0.4,0.5-0.7,0.7s-0.6,0.3-0.9,0.4c-0.4,0.1-0.7,0.1-1.1,0.1C233.2,298.3,232.5,298.2,231.9,297.9z"/>
			<path fill="#686868" d="M241.5,298.3c-1.1,0-1.9-0.3-2.6-1c-0.6-0.7-1-1.5-1-2.6c0-1.2,0.3-2.1,1-2.8s1.6-1,2.7-1
				c1.1,0,1.9,0.3,2.6,1s0.9,1.5,0.9,2.7c0,1.1-0.3,2-1,2.7C243.5,297.9,242.6,298.3,241.5,298.3z M241.6,292.3
				c-0.6,0-1.1,0.2-1.5,0.6s-0.5,1-0.5,1.8c0,0.7,0.2,1.3,0.5,1.7c0.4,0.4,0.9,0.6,1.5,0.6s1.1-0.2,1.4-0.6c0.3-0.4,0.5-1,0.5-1.8
				s-0.2-1.4-0.5-1.8C242.7,292.4,242.2,292.3,241.6,292.3z"/>
			<path fill="#686868" d="M252.9,298.2h-1.6v-1.1l0,0c-0.5,0.8-1.2,1.3-2.1,1.3c-1.7,0-2.5-1-2.5-3v-4.3h1.6v4
				c0,1.3,0.5,1.9,1.5,1.9c0.5,0,0.9-0.2,1.2-0.5s0.5-0.8,0.5-1.4v-4h1.6v7L252.9,298.2L252.9,298.2z"/>
			<path fill="#686868" d="M259,292.7c-0.2-0.2-0.5-0.2-0.8-0.2c-0.5,0-0.9,0.2-1.2,0.6c-0.3,0.4-0.5,1-0.5,1.7v3.3H255v-7h1.6v1.4
				l0,0c0.2-0.5,0.4-0.9,0.7-1.2c0.3-0.3,0.7-0.4,1.1-0.4c0.3,0,0.5,0,0.7,0.1v1.7H259L259,292.7z"/>
			<path fill="#686868" d="M265,297.8c-0.6,0.3-1.2,0.5-2,0.5c-1,0-1.9-0.3-2.5-1c-0.6-0.6-1-1.5-1-2.5c0-1.2,0.3-2.1,1-2.8
				s1.6-1,2.8-1c0.6,0,1.2,0.1,1.7,0.3v1.5c-0.5-0.4-1-0.5-1.6-0.5c-0.7,0-1.2,0.2-1.6,0.7s-0.6,1-0.6,1.8c0,0.7,0.2,1.3,0.6,1.7
				s0.9,0.6,1.6,0.6c0.6,0,1.1-0.2,1.6-0.6V297.8z"/>
			<path fill="#686868" d="M272.5,295.1h-4.8c0,0.6,0.2,1.1,0.6,1.5s0.9,0.5,1.6,0.5s1.4-0.2,2.1-0.7v1.3c-0.6,0.4-1.5,0.6-2.5,0.6
				s-1.8-0.3-2.4-1c-0.6-0.6-0.9-1.5-0.9-2.7c0-1.1,0.3-2,1-2.7c0.6-0.7,1.4-1,2.4-1s1.7,0.3,2.2,0.9s0.8,1.5,0.8,2.6v0.7
				L272.5,295.1L272.5,295.1z M271,293.9c0-0.6-0.1-1-0.4-1.3s-0.6-0.5-1.1-0.5s-0.8,0.2-1.2,0.5c-0.3,0.3-0.5,0.8-0.6,1.3H271z"/>
			<path fill="#686868" d="M288.6,298.2H287v-6.3c0-0.5,0-1.2,0.1-1.9l0,0c-0.1,0.4-0.2,0.7-0.3,0.9l-2.9,7.3h-1.1l-2.9-7.3
				c-0.1-0.2-0.2-0.5-0.3-1l0,0c0,0.4,0.1,1,0.1,1.9v6.3h-1.5v-9.8h2.3l2.6,6.5c0.2,0.5,0.3,0.9,0.4,1.1l0,0
				c0.2-0.5,0.3-0.9,0.4-1.1l2.6-6.5h2.2v9.9H288.6L288.6,298.2z"/>
			<path fill="#686868" d="M296.2,298.2h-1.5v-1.1l0,0c-0.5,0.8-1.2,1.3-2.1,1.3c-0.7,0-1.2-0.2-1.6-0.6s-0.6-0.9-0.6-1.5
				c0-1.3,0.8-2.1,2.3-2.3l2.1-0.3c0-1-0.5-1.5-1.4-1.5c-0.8,0-1.6,0.3-2.3,0.9v-1.4c0.7-0.4,1.6-0.7,2.6-0.7c1.8,0,2.7,0.9,2.7,2.6
				v4.6H296.2z M294.7,294.7l-1.5,0.2c-0.5,0.1-0.8,0.2-1,0.3c-0.2,0.2-0.3,0.4-0.3,0.9c0,0.3,0.1,0.5,0.3,0.7
				c0.2,0.2,0.5,0.3,0.9,0.3c0.5,0,0.9-0.2,1.2-0.5c0.3-0.3,0.5-0.8,0.5-1.3v-0.6H294.7L294.7,294.7z"/>
			<path fill="#686868" d="M304.4,298.2h-1.6v-3.9c0-1.3-0.5-2-1.4-2c-0.5,0-0.9,0.2-1.2,0.5c-0.3,0.4-0.5,0.8-0.5,1.4v4h-1.6v-7
				h1.6v1.2l0,0c0.5-0.9,1.3-1.3,2.3-1.3c0.8,0,1.3,0.2,1.7,0.7s0.6,1.2,0.6,2.1v4.3L304.4,298.2L304.4,298.2z"/>
			<path fill="#686868" d="M311.7,298.2h-1.5v-1.1l0,0c-0.5,0.8-1.2,1.3-2.1,1.3c-0.7,0-1.2-0.2-1.6-0.6s-0.6-0.9-0.6-1.5
				c0-1.3,0.8-2.1,2.3-2.3l2.1-0.3c0-1-0.5-1.5-1.4-1.5c-0.8,0-1.6,0.3-2.3,0.9v-1.4c0.7-0.4,1.6-0.7,2.6-0.7c1.8,0,2.7,0.9,2.7,2.6
				v4.6H311.7z M310.1,294.7l-1.5,0.2c-0.5,0.1-0.8,0.2-1,0.3c-0.2,0.2-0.3,0.4-0.3,0.9c0,0.3,0.1,0.5,0.3,0.7
				c0.2,0.2,0.5,0.3,0.9,0.3c0.5,0,0.9-0.2,1.2-0.5c0.3-0.3,0.5-0.8,0.5-1.3v-0.6H310.1L310.1,294.7z"/>
			<path fill="#686868" d="M320,297.6c0,2.6-1.3,3.9-3.9,3.9c-0.9,0-1.7-0.2-2.4-0.5v-1.4c0.8,0.4,1.5,0.7,2.2,0.7
				c1.7,0,2.5-0.8,2.5-2.5V297l0,0c-0.5,0.9-1.3,1.3-2.4,1.3c-0.9,0-1.5-0.3-2.1-0.9c-0.5-0.6-0.8-1.5-0.8-2.5
				c0-1.2,0.3-2.1,0.8-2.8c0.6-0.7,1.3-1.1,2.3-1.1c0.9,0,1.6,0.4,2.1,1.1l0,0v-1h1.6L320,297.6L320,297.6z M318.4,294.9v-0.8
				c0-0.5-0.2-0.9-0.5-1.3c-0.3-0.3-0.7-0.5-1.2-0.5c-0.6,0-1.1,0.2-1.4,0.7c-0.3,0.4-0.5,1.1-0.5,1.9c0,0.7,0.2,1.2,0.5,1.7
				c0.3,0.4,0.8,0.6,1.3,0.6s1-0.2,1.3-0.6C318.2,296.2,318.4,295.6,318.4,294.9z"/>
			<path fill="#686868" d="M328,295.1h-4.8c0,0.6,0.2,1.1,0.6,1.5s0.9,0.5,1.6,0.5s1.4-0.2,2.1-0.7v1.3c-0.6,0.4-1.5,0.6-2.5,0.6
				s-1.8-0.3-2.4-1c-0.6-0.6-0.9-1.5-0.9-2.7c0-1.1,0.3-2,1-2.7c0.6-0.7,1.4-1,2.4-1s1.7,0.3,2.2,0.9s0.8,1.5,0.8,2.6v0.7L328,295.1
				L328,295.1z M326.4,293.9c0-0.6-0.1-1-0.4-1.3s-0.6-0.5-1.1-0.5s-0.8,0.2-1.2,0.5c-0.3,0.3-0.5,0.8-0.6,1.3H326.4z"/>
			<path fill="#686868" d="M333.5,292.7c-0.2-0.2-0.5-0.2-0.8-0.2c-0.5,0-0.9,0.2-1.2,0.6c-0.3,0.4-0.5,1-0.5,1.7v3.3h-1.6v-7h1.6
				v1.4l0,0c0.2-0.5,0.4-0.9,0.7-1.2c0.3-0.3,0.7-0.4,1.1-0.4c0.3,0,0.5,0,0.7,0.1L333.5,292.7L333.5,292.7z"/>
			<path fill="#686868" d="M335,296.4l-1.1,3.4h-1.2l0.8-3.4H335z"/>
			<path fill="#686868" d="M183.9,314.9H182l-1.6-2.6c-0.1-0.2-0.3-0.4-0.4-0.6c-0.1-0.2-0.3-0.3-0.4-0.4c-0.1-0.1-0.3-0.2-0.5-0.2
				s-0.3-0.1-0.6-0.1H178v4h-1.6v-9.8h3.2c0.5,0,0.9,0.1,1.3,0.2c0.4,0.1,0.7,0.3,1,0.5s0.5,0.5,0.7,0.8s0.2,0.7,0.2,1.2
				c0,0.3-0.1,0.7-0.2,1c-0.1,0.3-0.2,0.5-0.4,0.8c-0.2,0.2-0.4,0.4-0.7,0.6s-0.6,0.3-0.9,0.4l0,0c0.2,0.1,0.3,0.2,0.5,0.3
				c0.1,0.1,0.3,0.2,0.4,0.4c0.1,0.1,0.2,0.3,0.4,0.4c0.1,0.2,0.2,0.3,0.4,0.6L183.9,314.9z M178,306.4v3.2h1.4c0.3,0,0.5,0,0.7-0.1
				s0.4-0.2,0.6-0.3c0.2-0.1,0.3-0.3,0.4-0.5c0.1-0.2,0.1-0.4,0.1-0.7c0-0.5-0.1-0.8-0.4-1.1c-0.3-0.3-0.7-0.4-1.3-0.4L178,306.4
				L178,306.4z"/>
			<path fill="#686868" d="M190.6,314.9h-5.5v-9.8h5.3v1.4h-3.7v2.8h3.4v1.4h-3.4v2.9h3.9V314.9z"/>
			<path fill="#686868" d="M191.9,314.6v-1.7c0.2,0.1,0.3,0.3,0.5,0.4s0.4,0.2,0.7,0.3c0.2,0.1,0.5,0.1,0.7,0.2s0.4,0.1,0.6,0.1
				c0.7,0,1.2-0.1,1.5-0.3s0.5-0.6,0.5-1c0-0.2-0.1-0.4-0.2-0.6c-0.1-0.2-0.3-0.3-0.5-0.5c-0.2-0.1-0.4-0.3-0.7-0.4
				s-0.6-0.3-0.9-0.4c-0.3-0.2-0.6-0.4-0.9-0.5c-0.3-0.2-0.5-0.4-0.7-0.6s-0.4-0.5-0.5-0.8s-0.2-0.6-0.2-1c0-0.5,0.1-0.9,0.3-1.2
				s0.5-0.6,0.8-0.8c0.3-0.2,0.7-0.4,1.2-0.5s0.9-0.2,1.3-0.2c1,0,1.8,0.1,2.2,0.3v1.6c-0.6-0.4-1.3-0.6-2.1-0.6
				c-0.2,0-0.5,0-0.7,0.1c-0.2,0-0.5,0.1-0.6,0.2c-0.2,0.1-0.3,0.2-0.5,0.4s-0.2,0.4-0.2,0.6s0,0.4,0.1,0.6s0.2,0.3,0.4,0.4
				s0.4,0.3,0.6,0.4c0.3,0.1,0.5,0.3,0.9,0.4c0.3,0.2,0.7,0.4,1,0.6s0.6,0.4,0.8,0.6s0.4,0.5,0.5,0.8s0.2,0.6,0.2,1
				c0,0.5-0.1,0.9-0.3,1.3s-0.5,0.6-0.8,0.8c-0.3,0.2-0.7,0.4-1.2,0.5s-0.9,0.1-1.4,0.1c-0.2,0-0.4,0-0.6,0c-0.2,0-0.5-0.1-0.7-0.1
				c-0.3,0-0.5-0.1-0.7-0.2C192.1,314.7,192,314.7,191.9,314.6z"/>
			<path fill="#686868" d="M206.2,306.4h-2.8v8.4h-1.6v-8.4H199v-1.3h7.3v1.4L206.2,306.4L206.2,306.4z"/>
			<path fill="#686868" d="M219.6,314.9h-1.8l-0.9-2.5H213l-0.8,2.5h-1.8l3.7-9.8h1.8L219.6,314.9z M216.5,311.1l-1.4-3.9
				c0-0.1-0.1-0.3-0.1-0.6l0,0c0,0.3-0.1,0.5-0.1,0.6l-1.3,3.9H216.5z"/>
			<path fill="#686868" d="M222.5,311.4v3.6h-1.6v-9.8h3c1.1,0,2,0.3,2.6,0.8s0.9,1.3,0.9,2.2c0,1-0.3,1.7-1,2.3
				c-0.6,0.6-1.5,0.9-2.6,0.9H222.5z M222.5,306.4v3.6h1.1c0.7,0,1.2-0.2,1.6-0.5c0.4-0.3,0.5-0.8,0.5-1.4c0-1.2-0.7-1.7-2-1.7
				H222.5L222.5,306.4z"/>
			<path fill="#686868" d="M230.8,314.9h-1.7v-9.8h1.7V314.9z"/>
			<path fill="#686868" d="M232.6,314.7v-1.5c0.6,0.5,1.2,0.7,2,0.7c1,0,1.4-0.3,1.4-0.8c0-0.2,0-0.3-0.1-0.4s-0.2-0.2-0.3-0.3
				c-0.1-0.1-0.3-0.2-0.5-0.2c-0.2-0.1-0.4-0.1-0.6-0.2c-0.3-0.1-0.5-0.2-0.8-0.4c-0.2-0.1-0.4-0.3-0.6-0.4
				c-0.2-0.2-0.3-0.3-0.3-0.6c0-0.3-0.1-0.4-0.1-0.7s0.1-0.6,0.2-0.9c0.2-0.3,0.4-0.5,0.6-0.7c0.2-0.2,0.6-0.3,0.9-0.4
				c0.3-0.1,0.7-0.1,1.1-0.1c0.6,0,1.2,0.1,1.7,0.3v1.4c-0.5-0.3-1.1-0.5-1.7-0.5c-0.2,0-0.4,0-0.5,0.1c-0.2,0-0.3,0.1-0.4,0.2
				c-0.1,0.1-0.2,0.2-0.3,0.3s-0.1,0.2-0.1,0.3c0,0.2,0,0.3,0.1,0.4s0.2,0.2,0.3,0.3s0.3,0.2,0.5,0.2c0.2,0.1,0.4,0.1,0.6,0.2
				c0.3,0.1,0.6,0.2,0.8,0.4c0.2,0.1,0.4,0.3,0.6,0.4c0.2,0.2,0.3,0.3,0.4,0.6c0.1,0.2,0.1,0.5,0.1,0.8c0,0.4-0.1,0.7-0.2,0.9
				c-0.2,0.3-0.4,0.5-0.7,0.7s-0.6,0.3-0.9,0.4c-0.4,0.1-0.7,0.1-1.1,0.1C233.8,315.1,233.1,314.9,232.6,314.7z"/>
			<path fill="#686868" d="M240.5,313.3l-1.1,3.4h-1.2l0.8-3.4H240.5z"/>
			<path fill="#686868" d="M246,314.6v-1.7c0.2,0.1,0.3,0.3,0.5,0.4s0.4,0.2,0.7,0.3c0.2,0.1,0.5,0.1,0.7,0.2s0.4,0.1,0.6,0.1
				c0.7,0,1.2-0.1,1.5-0.3s0.5-0.6,0.5-1c0-0.2-0.1-0.4-0.2-0.6c-0.1-0.2-0.3-0.3-0.5-0.5c-0.2-0.1-0.4-0.3-0.7-0.4
				s-0.6-0.3-0.9-0.4c-0.3-0.2-0.6-0.4-0.9-0.5c-0.3-0.2-0.5-0.4-0.7-0.6s-0.4-0.5-0.5-0.8s-0.2-0.6-0.2-1c0-0.5,0.1-0.9,0.3-1.2
				s0.5-0.6,0.8-0.8c0.3-0.2,0.7-0.4,1.2-0.5s0.9-0.2,1.3-0.2c1,0,1.8,0.1,2.2,0.3v1.6c-0.6-0.4-1.3-0.6-2.1-0.6
				c-0.2,0-0.5,0-0.7,0.1c-0.2,0-0.5,0.1-0.6,0.2c-0.2,0.1-0.3,0.2-0.5,0.4s-0.2,0.4-0.2,0.6s0,0.4,0.1,0.6s0.2,0.3,0.4,0.4
				s0.4,0.3,0.6,0.4c0.3,0.1,0.5,0.3,0.9,0.4c0.3,0.2,0.7,0.4,1,0.6s0.6,0.4,0.8,0.6s0.4,0.5,0.5,0.8s0.2,0.6,0.2,1
				c0,0.5-0.1,0.9-0.3,1.3s-0.5,0.6-0.8,0.8c-0.3,0.2-0.7,0.4-1.2,0.5s-0.9,0.1-1.4,0.1c-0.2,0-0.4,0-0.6,0c-0.2,0-0.5-0.1-0.7-0.1
				c-0.3,0-0.5-0.1-0.7-0.2C246.2,314.7,246.1,314.7,246,314.6z"/>
			<path fill="#686868" d="M254.1,314.9v-9.8h2.8c3.6,0,5.4,1.6,5.4,4.8c0,1.5-0.5,2.7-1.5,3.6s-2.3,1.4-4,1.4H254.1z M255.7,306.4
				v7h1.3c1.1,0,2-0.3,2.7-0.9c0.6-0.6,1-1.5,1-2.7c0-2.3-1.2-3.4-3.6-3.4H255.7L255.7,306.4z"/>
			<path fill="#686868" d="M271.5,314.9h-2.1l-3.4-4.5c-0.1-0.2-0.2-0.3-0.2-0.3l0,0v4.8h-1.6v-9.8h1.6v4.6l0,0
				c0.1-0.1,0.1-0.2,0.2-0.3l3.3-4.3h1.9l-3.8,4.7L271.5,314.9z"/>
			<path fill="#686868" d="M272,314.7v-1.5c0.6,0.5,1.2,0.7,2,0.7c1,0,1.4-0.3,1.4-0.8c0-0.2,0-0.3-0.1-0.4s-0.2-0.2-0.3-0.3
				c-0.1-0.1-0.3-0.2-0.5-0.2c-0.2-0.1-0.4-0.1-0.6-0.2c-0.3-0.1-0.5-0.2-0.8-0.4c-0.2-0.1-0.4-0.3-0.6-0.4
				c-0.2-0.2-0.3-0.3-0.3-0.6c0-0.3-0.1-0.4-0.1-0.7s0.1-0.6,0.2-0.9c0.2-0.3,0.4-0.5,0.6-0.7s0.6-0.3,0.9-0.4s0.7-0.1,1.1-0.1
				c0.6,0,1.2,0.1,1.7,0.3v1.4c-0.5-0.3-1.1-0.5-1.7-0.5c-0.2,0-0.4,0-0.5,0.1c-0.2,0-0.3,0.1-0.4,0.2s-0.2,0.2-0.3,0.3
				c-0.1,0.1-0.1,0.2-0.1,0.3c0,0.2,0,0.3,0.1,0.4s0.2,0.2,0.3,0.3c0.1,0.1,0.3,0.2,0.5,0.2c0.2,0.1,0.4,0.1,0.6,0.2
				c0.3,0.1,0.6,0.2,0.8,0.4c0.2,0.1,0.4,0.3,0.6,0.4c0.2,0.2,0.3,0.3,0.4,0.6c0.1,0.2,0.1,0.5,0.1,0.8c0,0.4-0.1,0.7-0.2,0.9
				c-0.2,0.3-0.4,0.5-0.7,0.7c-0.3,0.2-0.6,0.3-0.9,0.4c-0.4,0.1-0.7,0.1-1.1,0.1C273.3,315.1,272.6,314.9,272,314.7z"/>
			<path fill="#686868" d="M286.3,305.9c-0.2-0.1-0.5-0.2-0.7-0.2c-0.8,0-1.2,0.4-1.2,1.3v1h1.6v1.2h-1.6v5.8h-1.6v-5.9h-1.2v-1.2
				h1.2v-1.1c0-0.7,0.2-1.3,0.7-1.7s1.1-0.6,1.8-0.6c0.4,0,0.7,0,0.9,0.1v1.2L286.3,305.9L286.3,305.9L286.3,305.9z"/>
			<path fill="#686868" d="M290.3,315.1c-1.1,0-1.9-0.3-2.6-1c-0.6-0.7-1-1.5-1-2.6c0-1.2,0.3-2.1,1-2.8c0.7-0.7,1.6-1,2.7-1
				s1.9,0.3,2.6,1s0.9,1.5,0.9,2.7c0,1.1-0.3,2-1,2.7C292.3,314.8,291.4,315.1,290.3,315.1z M290.4,309.1c-0.6,0-1.1,0.2-1.5,0.7
				c-0.4,0.4-0.5,1-0.5,1.8c0,0.7,0.2,1.3,0.5,1.7c0.3,0.4,0.9,0.6,1.5,0.6s1.1-0.2,1.4-0.6s0.5-1,0.5-1.8s-0.2-1.4-0.5-1.8
				C291.5,309.3,291,309.1,290.4,309.1z"/>
			<path fill="#686868" d="M299.6,309.4c-0.2-0.2-0.5-0.2-0.8-0.2c-0.5,0-0.9,0.2-1.2,0.6s-0.5,1-0.5,1.7v3.3h-1.6v-7h1.6v1.4l0,0
				c0.2-0.5,0.4-0.9,0.7-1.2c0.3-0.3,0.7-0.4,1.1-0.4c0.3,0,0.5,0,0.7,0.1L299.6,309.4L299.6,309.4z"/>
			<path fill="#686868" d="M308,311.4c0,1.2-0.3,2.1-0.9,2.7s-1.3,1-2.3,1c-0.4,0-0.8-0.1-1.1-0.2v-1.5c0.3,0.2,0.6,0.3,1,0.3
				c1.1,0,1.6-0.8,1.6-2.5v-6h1.6L308,311.4L308,311.4z"/>
			<path fill="#686868" d="M315.3,314.9h-1.5v-1.1l0,0c-0.5,0.8-1.2,1.3-2.1,1.3c-0.7,0-1.2-0.2-1.6-0.6s-0.6-0.9-0.6-1.5
				c0-1.3,0.8-2.1,2.3-2.3l2.1-0.3c0-1-0.5-1.5-1.4-1.5c-0.8,0-1.6,0.3-2.3,0.9v-1.4c0.7-0.4,1.6-0.7,2.6-0.7c1.8,0,2.7,0.9,2.7,2.6
				v4.6H315.3z M313.8,311.4l-1.5,0.2c-0.5,0.1-0.8,0.2-1,0.3c-0.2,0.2-0.3,0.4-0.3,0.9c0,0.3,0.1,0.5,0.3,0.7
				c0.2,0.2,0.5,0.3,0.9,0.3c0.5,0,0.9-0.2,1.2-0.5c0.3-0.3,0.5-0.8,0.5-1.3v-0.6H313.8L313.8,311.4z"/>
			<path fill="#686868" d="M323.3,307.9l-2.7,7h-1.7l-2.6-7h1.7l1.6,4.9c0.1,0.4,0.2,0.7,0.2,0.9l0,0c0-0.3,0.1-0.6,0.2-0.9l1.6-4.9
				H323.3z"/>
			<path fill="#686868" d="M329.5,314.9H328v-1.1l0,0c-0.5,0.8-1.2,1.3-2.1,1.3c-0.7,0-1.2-0.2-1.6-0.6s-0.6-0.9-0.6-1.5
				c0-1.3,0.8-2.1,2.3-2.3l2.1-0.3c0-1-0.5-1.5-1.4-1.5c-0.8,0-1.6,0.3-2.3,0.9v-1.4c0.7-0.4,1.6-0.7,2.6-0.7c1.8,0,2.7,0.9,2.7,2.6
				v4.6H329.5z M328,311.4l-1.5,0.2c-0.5,0.1-0.8,0.2-1,0.3c-0.2,0.2-0.3,0.4-0.3,0.9c0,0.3,0.1,0.5,0.3,0.7
				c0.2,0.2,0.5,0.3,0.9,0.3c0.5,0,0.9-0.2,1.2-0.5c0.3-0.3,0.5-0.8,0.5-1.3v-0.6H328L328,311.4z"/>
			<path fill="#686868" d="M332.9,313.3l-1.1,3.4h-1.2l0.8-3.4H332.9z"/>
			<path fill="#686868" d="M178,328.2v3.6h-1.6V322h3c1.1,0,2,0.3,2.6,0.8s0.9,1.3,0.9,2.2c0,1-0.3,1.7-1,2.3
				c-0.6,0.6-1.5,0.9-2.6,0.9H178L178,328.2z M178,323.3v3.6h1.1c0.7,0,1.2-0.2,1.6-0.5c0.4-0.3,0.5-0.8,0.5-1.4
				c0-1.2-0.7-1.7-2-1.7H178L178,323.3z"/>
			<path fill="#686868" d="M192.4,331.8h-1.6v-4.3h-4.6v4.3h-1.6V322h1.6v4.1h4.6V322h1.6V331.8z"/>
			<path fill="#686868" d="M196.5,328.2v3.6h-1.6V322h3c1.1,0,2,0.3,2.6,0.8s0.9,1.3,0.9,2.2c0,1-0.3,1.7-1,2.3
				c-0.6,0.6-1.5,0.9-2.6,0.9H196.5L196.5,328.2z M196.5,323.3v3.6h1.1c0.7,0,1.2-0.2,1.6-0.5c0.4-0.3,0.5-0.8,0.5-1.4
				c0-1.2-0.7-1.7-2-1.7H196.5L196.5,323.3z"/>
			<path fill="#686868" d="M202,330.1l-1.1,3.4h-1.2l0.8-3.4H202z"/>
			<path fill="#686868" d="M215.5,331.8h-1.9l-1.6-2.7c-0.1-0.2-0.3-0.4-0.4-0.6c-0.1-0.2-0.3-0.3-0.4-0.4c-0.1-0.1-0.3-0.2-0.5-0.2
				c-0.2-0.1-0.3-0.1-0.6-0.1h-0.7v4h-1.6v-9.9h3.2c0.5,0,0.9,0.1,1.3,0.2c0.4,0.1,0.7,0.3,1,0.5s0.5,0.5,0.7,0.8s0.2,0.7,0.2,1.2
				c0,0.3-0.1,0.7-0.2,1c-0.1,0.3-0.2,0.5-0.4,0.8c-0.2,0.2-0.4,0.4-0.7,0.6s-0.6,0.3-0.9,0.4l0,0c0.2,0.1,0.3,0.2,0.5,0.3
				s0.3,0.2,0.4,0.4c0.1,0.1,0.2,0.3,0.4,0.4c0.1,0.2,0.2,0.3,0.4,0.6L215.5,331.8z M209.6,323.3v3.2h1.4c0.3,0,0.5,0,0.7-0.1
				s0.4-0.2,0.6-0.3c0.2-0.1,0.3-0.3,0.4-0.5c0.1-0.2,0.1-0.4,0.1-0.7c0-0.5-0.1-0.8-0.4-1.1c-0.3-0.3-0.7-0.4-1.3-0.4L209.6,323.3
				L209.6,323.3z"/>
			<path fill="#686868" d="M222.6,331.8H221v-1.1l0,0c-0.5,0.8-1.2,1.3-2.1,1.3c-1.7,0-2.5-1-2.5-3v-4.2h1.6v4
				c0,1.3,0.5,1.9,1.5,1.9c0.5,0,0.9-0.2,1.2-0.5s0.5-0.8,0.5-1.4v-4h1.6v7L222.6,331.8L222.6,331.8z"/>
			<path fill="#686868" d="M226.3,330.8L226.3,330.8v1h-1.6v-10.4h1.6v4.6l0,0c0.5-0.9,1.3-1.4,2.4-1.4c0.9,0,1.6,0.3,2.1,0.9
				s0.7,1.5,0.7,2.5c0,1.2-0.3,2.1-0.8,2.8c-0.6,0.7-1.3,1.1-2.3,1.1S226.7,331.4,226.3,330.8z M226.2,327.9v0.9
				c0,0.5,0.2,0.9,0.5,1.3s0.7,0.5,1.2,0.5c0.6,0,1-0.2,1.4-0.7c0.3-0.5,0.5-1.1,0.5-1.9c0-0.7-0.2-1.2-0.5-1.6s-0.7-0.6-1.3-0.6
				s-1,0.2-1.4,0.6C226.4,326.9,226.2,327.4,226.2,327.9z"/>
			<path fill="#686868" d="M239.2,324.8l-3.2,8.1c-0.7,1.4-1.6,2.2-2.8,2.2c-0.3,0-0.6,0-0.8-0.1v-1.3c0.3,0.1,0.5,0.1,0.7,0.1
				c0.6,0,1-0.3,1.3-0.9l0.5-1.1l-2.8-7h1.8l1.7,5.1c0,0.1,0.1,0.2,0.1,0.5l0,0c0-0.1,0.1-0.3,0.1-0.5l1.8-5.1L239.2,324.8
				L239.2,324.8z"/>
			<path fill="#686868" d="M241,330.1l-1.1,3.4h-1.2l0.8-3.4H241z"/>
			<path fill="#686868" d="M248.5,328.2v3.6h-1.6V322h3c1.1,0,2,0.3,2.6,0.8s0.9,1.3,0.9,2.2c0,1-0.3,1.7-1,2.3
				c-0.6,0.6-1.5,0.9-2.6,0.9H248.5L248.5,328.2z M248.5,323.3v3.6h1.1c0.7,0,1.2-0.2,1.6-0.5c0.4-0.3,0.5-0.8,0.5-1.4
				c0-1.2-0.7-1.7-2-1.7H248.5L248.5,323.3z"/>
			<path fill="#686868" d="M260.9,324.8l-3.2,8.1c-0.7,1.4-1.6,2.2-2.8,2.2c-0.3,0-0.6,0-0.8-0.1v-1.3c0.3,0.1,0.5,0.1,0.7,0.1
				c0.6,0,1-0.3,1.3-0.9l0.5-1.1l-2.8-7h1.8l1.7,5.1c0,0.1,0.1,0.2,0.1,0.5l0,0c0-0.1,0.1-0.3,0.1-0.5l1.8-5.1L260.9,324.8
				L260.9,324.8z"/>
			<path fill="#686868" d="M265.7,331.7c-0.3,0.2-0.7,0.2-1.2,0.2c-1.4,0-2-0.7-2-2v-4h-1.2v-1.2h1.2v-1.6l1.6-0.5v2.1h1.7v1.2h-1.7
				v3.5c0,0.4,0.1,0.7,0.2,0.9c0.1,0.2,0.4,0.3,0.8,0.3c0.3,0,0.5-0.1,0.7-0.2v1.3L265.7,331.7L265.7,331.7z"/>
			<path fill="#686868" d="M273.3,331.8h-1.6V328c0-1.4-0.5-2.1-1.4-2.1c-0.5,0-0.9,0.2-1.2,0.6c-0.3,0.4-0.5,0.9-0.5,1.5v3.8H267
				v-10.4h1.6v4.5l0,0c0.5-0.9,1.3-1.3,2.3-1.3c1.6,0,2.3,1,2.3,2.9v4.3H273.3z"/>
			<path fill="#686868" d="M278.3,331.9c-1.1,0-1.9-0.3-2.6-1c-0.6-0.7-1-1.5-1-2.6c0-1.2,0.3-2.1,1-2.8s1.6-1,2.7-1s1.9,0.3,2.6,1
				s0.9,1.5,0.9,2.7c0,1.1-0.3,2-1,2.7C280.3,331.6,279.5,331.9,278.3,331.9z M278.4,325.9c-0.6,0-1.1,0.2-1.5,0.6s-0.5,1-0.5,1.8
				c0,0.7,0.2,1.3,0.5,1.7c0.4,0.4,0.9,0.6,1.5,0.6s1.1-0.2,1.4-0.6s0.5-1,0.5-1.8s-0.2-1.4-0.5-1.8
				C279.5,326.1,279,325.9,278.4,325.9z"/>
			<path fill="#686868" d="M289.8,331.8h-1.6v-3.9c0-1.3-0.5-2-1.4-2c-0.5,0-0.9,0.2-1.2,0.5c-0.3,0.4-0.5,0.8-0.5,1.4v4h-1.6v-7
				h1.6v1.2l0,0c0.5-0.9,1.3-1.3,2.3-1.3c0.8,0,1.3,0.2,1.7,0.7s0.6,1.2,0.6,2.1v4.3L289.8,331.8L289.8,331.8z"/>
			<path fill="#686868" d="M293.3,330.1l-1.1,3.4H291l0.8-3.4H293.3z"/>
			<path fill="#686868" d="M304.9,328.7h-4.8c0,0.6,0.2,1.1,0.6,1.5s0.9,0.5,1.6,0.5s1.4-0.2,2.1-0.7v1.3c-0.6,0.4-1.5,0.6-2.5,0.6
				s-1.8-0.3-2.4-1c-0.6-0.6-0.9-1.5-0.9-2.7c0-1.1,0.3-2,1-2.7c0.6-0.7,1.4-1,2.4-1s1.7,0.3,2.2,0.9s0.8,1.5,0.8,2.6v0.7
				L304.9,328.7L304.9,328.7z M303.4,327.6c0-0.6-0.1-1-0.4-1.3s-0.6-0.5-1.1-0.5s-0.8,0.2-1.2,0.5c-0.3,0.3-0.5,0.8-0.6,1.3H303.4z
				"/>
			<path fill="#686868" d="M310.1,331.7c-0.3,0.2-0.7,0.2-1.2,0.2c-1.4,0-2-0.7-2-2v-4h-1.2v-1.2h1.2v-1.6l1.6-0.5v2.1h1.7v1.2h-1.7
				v3.5c0,0.4,0.1,0.7,0.2,0.9c0.1,0.2,0.4,0.3,0.8,0.3c0.3,0,0.5-0.1,0.7-0.2v1.3L310.1,331.7L310.1,331.7z"/>
			<path fill="#686868" d="M316.4,331.4c-0.6,0.3-1.2,0.5-2,0.5c-1,0-1.9-0.3-2.5-1c-0.6-0.6-1-1.5-1-2.5c0-1.2,0.3-2.1,1-2.8
				s1.6-1,2.8-1c0.6,0,1.2,0.1,1.7,0.3v1.5c-0.5-0.4-1-0.5-1.6-0.5c-0.7,0-1.2,0.2-1.6,0.7s-0.6,1-0.6,1.8c0,0.7,0.2,1.3,0.6,1.7
				s0.9,0.6,1.6,0.6c0.6,0,1.1-0.2,1.6-0.6V331.4z"/>
			<path fill="#686868" d="M318.6,331.9c-0.3,0-0.5-0.1-0.7-0.3s-0.3-0.4-0.3-0.6c0-0.3,0.1-0.5,0.3-0.7c0.2-0.2,0.4-0.3,0.7-0.3
				c0.3,0,0.5,0.1,0.7,0.3c0.2,0.2,0.3,0.4,0.3,0.7s-0.1,0.5-0.3,0.6C319.1,331.8,318.9,331.9,318.6,331.9z"/>
		</g>
	</g>
	<g>
		<path fill="#686868" d="M419.2,231.1c-1.4,0-2.5-0.5-3.4-1.4c-0.8-0.9-1.3-2.1-1.3-3.6c0-1.6,0.4-2.8,1.3-3.8s2-1.4,3.5-1.4
			c1.4,0,2.5,0.5,3.3,1.4s1.3,2.1,1.3,3.6c0,1.6-0.4,2.9-1.3,3.8C421.7,230.6,420.6,231.1,419.2,231.1z M419.3,222.4
			c-0.9,0-1.6,0.3-2.2,1s-0.8,1.6-0.8,2.6c0,1.1,0.3,2,0.8,2.6s1.3,1,2.1,1c0.9,0,1.7-0.3,2.2-1s0.8-1.5,0.8-2.7s-0.3-2.1-0.8-2.7
			C420.9,222.6,420.2,222.4,419.3,222.4z"/>
		<path fill="#686868" d="M436.3,230.9h-1.6v-6.3c0-0.5,0-1.2,0.1-1.9l0,0c-0.1,0.4-0.2,0.7-0.3,0.9l-2.9,7.3h-1.1l-2.9-7.3
			c-0.1-0.2-0.2-0.5-0.3-1l0,0c0,0.4,0.1,1,0.1,1.9v6.3h-1.5v-9.7h2.3l2.6,6.5c0.2,0.5,0.3,0.9,0.4,1.1l0,0c0.2-0.5,0.3-0.9,0.4-1.1
			l2.6-6.5h2.2v9.9h-0.1L436.3,230.9L436.3,230.9z"/>
		<path fill="#686868" d="M438.2,230.6v-1.7c0.2,0.1,0.3,0.3,0.5,0.4s0.4,0.2,0.7,0.3c0.2,0.1,0.5,0.1,0.7,0.2s0.4,0.1,0.6,0.1
			c0.7,0,1.2-0.1,1.5-0.3s0.5-0.6,0.5-1c0-0.2-0.1-0.4-0.2-0.6c-0.1-0.2-0.3-0.3-0.5-0.5s-0.4-0.3-0.7-0.4c-0.3-0.1-0.6-0.3-0.9-0.4
			c-0.3-0.2-0.6-0.4-0.9-0.5s-0.5-0.4-0.7-0.6s-0.4-0.5-0.5-0.7c-0.1-0.3-0.2-0.6-0.2-1c0-0.5,0.1-0.9,0.3-1.2
			c0.2-0.3,0.5-0.6,0.8-0.8s0.7-0.4,1.2-0.5c0.4-0.1,0.9-0.2,1.3-0.2c1,0,1.8,0.1,2.2,0.3v1.6c-0.6-0.4-1.3-0.6-2.1-0.6
			c-0.2,0-0.5,0-0.7,0.1c-0.2,0-0.5,0.1-0.6,0.2c-0.2,0.1-0.3,0.2-0.5,0.4s-0.2,0.4-0.2,0.6s0,0.4,0.1,0.6c0.1,0.2,0.2,0.3,0.4,0.4
			c0.2,0.1,0.4,0.3,0.6,0.4c0.3,0.1,0.5,0.3,0.9,0.4c0.3,0.2,0.7,0.4,1,0.6c0.3,0.2,0.6,0.4,0.8,0.6c0.2,0.2,0.4,0.5,0.5,0.8
			s0.2,0.6,0.2,1c0,0.5-0.1,0.9-0.3,1.3c-0.2,0.4-0.5,0.6-0.8,0.8s-0.7,0.4-1.2,0.5s-0.9,0.1-1.4,0.1c-0.2,0-0.4,0-0.6,0
			s-0.5-0.1-0.7-0.1c-0.3,0-0.5-0.1-0.7-0.2S438.4,230.6,438.2,230.6z"/>
		<path fill="#686868" d="M455.4,222.4h-3.7v2.9h3.4v1.4h-3.4v4.1h-1.6v-9.7h5.3L455.4,222.4L455.4,222.4z"/>
		<path fill="#686868" d="M461.2,231.1c-1.4,0-2.5-0.5-3.4-1.4c-0.8-0.9-1.3-2.1-1.3-3.6c0-1.6,0.4-2.8,1.3-3.8s2-1.4,3.5-1.4
			c1.4,0,2.5,0.5,3.3,1.4s1.3,2.1,1.3,3.6c0,1.6-0.4,2.9-1.3,3.8C463.7,230.6,462.7,231.1,461.2,231.1z M461.3,222.4
			c-0.9,0-1.6,0.3-2.2,1s-0.8,1.6-0.8,2.6c0,1.1,0.3,2,0.8,2.6s1.3,1,2.1,1c0.9,0,1.7-0.3,2.2-1s0.8-1.5,0.8-2.7s-0.3-2.1-0.8-2.7
			C462.9,222.6,462.2,222.4,461.3,222.4z"/>
		<path fill="#686868" d="M475.3,230.9h-1.9l-1.6-2.6c-0.1-0.2-0.3-0.4-0.4-0.6c-0.1-0.2-0.3-0.3-0.4-0.4s-0.3-0.2-0.5-0.2
			s-0.3-0.1-0.6-0.1h-0.7v4h-1.6v-9.8h3.2c0.5,0,0.9,0.1,1.3,0.2s0.7,0.3,1,0.5s0.5,0.5,0.7,0.8s0.2,0.7,0.2,1.2
			c0,0.3-0.1,0.7-0.2,1s-0.2,0.5-0.4,0.8c-0.2,0.2-0.4,0.4-0.7,0.6c-0.3,0.2-0.6,0.3-0.9,0.4l0,0c0.2,0.1,0.3,0.2,0.5,0.3
			c0.1,0.1,0.3,0.2,0.4,0.4s0.2,0.3,0.4,0.4c0.1,0.2,0.2,0.3,0.4,0.6L475.3,230.9z M469.4,222.4v3.2h1.4c0.3,0,0.5,0,0.7-0.1
			s0.4-0.2,0.6-0.3s0.3-0.3,0.4-0.5s0.1-0.4,0.1-0.7c0-0.5-0.1-0.8-0.4-1.1s-0.7-0.4-1.3-0.4h-1.5L469.4,222.4L469.4,222.4z"/>
		<path fill="#686868" d="M485.7,230.9h-5.4v-9.8h1.6v8.4h3.8V230.9z"/>
		<path fill="#686868" d="M488.8,230.9h-1.7v-9.8h1.7V230.9z"/>
		<path fill="#686868" d="M499.6,230.9h-1.8l-4.7-7.2c-0.1-0.2-0.2-0.4-0.3-0.6l0,0c0,0.2,0.1,0.7,0.1,1.3v6.4h-1.6v-9.7h1.9l4.5,7
			c0.2,0.3,0.3,0.5,0.4,0.6l0,0c0-0.3-0.1-0.7-0.1-1.3v-6.3h1.6V230.9z"/>
		<path fill="#686868" d="M509.5,226.9c0,2.8-1.3,4.1-3.9,4.1c-2.5,0-3.7-1.3-3.7-4v-6h1.6v5.7c0,1.9,0.7,2.9,2.2,2.9
			c1.4,0,2.2-0.9,2.2-2.8v-5.7h1.6L509.5,226.9L509.5,226.9z"/>
		<path fill="#686868" d="M519.2,230.9h-1.9l-2-3.6c-0.1-0.1-0.1-0.3-0.2-0.5l0,0c0,0.1-0.1,0.3-0.2,0.5l-2.1,3.6h-2l3.2-4.9l-3-4.9
			h2l1.8,3.3c0.1,0.2,0.2,0.4,0.3,0.7l0,0c0.1-0.3,0.2-0.5,0.3-0.7l1.8-3.3h1.8l-3,4.9L519.2,230.9z"/>
	</g>
	<g>
		<g>
			<path fill="#FFFFFF" stroke="#000000" stroke-width="3" stroke-linecap="round" stroke-linejoin="round" d="M526.1,147.3
				c-5.3,32.8-36.1,55.1-68.9,49.9c-32.8-5.3-55.1-36.1-49.9-68.9c1.3-8.4,4.4-16.1,8.7-22.8c7.5-11.7,18.8-20.4,31.9-24.8
				c8.9-2.9,18.5-3.8,28.4-2.3C509.1,83.6,531.4,114.5,526.1,147.3z"/>
			<path fill="#FFFFFF" stroke="#000000" stroke-width="3" stroke-linecap="round" stroke-linejoin="round" d="M515.4,145.6
				c-4.3,26.9-29.6,45.1-56.4,40.8c-26.9-4.3-45.1-29.6-40.8-56.4c1.1-6.9,3.6-13.2,7.1-18.7c6.1-9.6,15.4-16.7,26.1-20.3
				c7.3-2.4,15.2-3.1,23.2-1.8C501.4,93.4,519.7,118.6,515.4,145.6z"/>
		</g>
		<g>
			<g>
				<path d="M457.8,155.4c0-0.3,0-0.5,0-0.8l2.7-1.5c-0.1-0.9-0.4-1.8-0.7-2.6l-3.1,0.1c-0.2-0.5-0.5-1-0.8-1.4l1.6-2.7
					c-0.6-0.7-1.2-1.3-1.9-1.9l-1.6,0.9l-0.7,1l-1.4,2.1c2,1.6,3.3,4.1,3.3,6.8c0,4.8-3.9,8.6-8.6,8.6c-4.8,0-8.6-3.9-8.6-8.6
					c0-4.3,3.1-7.8,7.2-8.5l0.7-2.7l-1.5-2.7c-0.9,0.1-1.8,0.4-2.6,0.7v3.1c-0.5,0.2-1,0.5-1.4,0.8l-2.7-1.6
					c-0.7,0.6-1.3,1.2-1.9,1.9l1.6,2.7c-0.3,0.4-0.5,0.9-0.8,1.4l-3.1-0.1c-0.3,0.8-0.5,1.7-0.7,2.6l2.7,1.5c0,0.3,0,0.5,0,0.8
					s0,0.5,0,0.8l-2.7,1.5c0.2,0.9,0.4,1.8,0.7,2.6l3.1-0.1c0.2,0.5,0.5,1,0.8,1.4l-1.6,2.7c0.6,0.7,1.2,1.3,1.9,1.9l2.7-1.6
					c0.4,0.3,0.9,0.6,1.4,0.8v3.1c0.8,0.3,1.7,0.5,2.6,0.7l1.5-2.7c0.3,0,0.5,0,0.8,0s0.5,0,0.8,0l1.5,2.7c0.9-0.1,1.8-0.4,2.6-0.7
					v-3.1c0.5-0.2,1-0.5,1.4-0.8l2.7,1.6c0.7-0.6,1.3-1.2,1.9-1.9l-1.6-2.7c0.3-0.4,0.6-0.9,0.8-1.4l3.1,0.1
					c0.3-0.8,0.5-1.7,0.7-2.6l-2.7-1.5C457.8,155.9,457.8,155.6,457.8,155.4z"/>
				<path d="M443.8,155.3h2.4c0.1,0,0.1,0,0.2,0.1s0.1,0.1,0,0.2l-2.5,6c-0.1,0.2,0,0.2,0.1,0.1l7.9-8.9c0.1-0.1,0.1-0.2-0.1-0.2
					h-2.6h-0.5c-0.2,0-0.3-0.1-0.2-0.3l2.4-4.4l2.7-4.8l0.8-1.5c-1.8-1.1-3.9-1.8-6.1-2l-0.5,1.6l-1.7,5.4l-2.6,8.3
					C443.6,155.1,443.6,155.3,443.8,155.3z"/>
			</g>
			<g>
				<polygon points="483.5,160.1 477.8,148.1 474.5,154.6 471.3,151.1 469.9,153.9 467.9,153.9 467.9,152.4 468.9,152.4 
					470.9,148.4 474.2,151.9 477.8,144.6 483.7,157.3 490.6,147.3 493.1,155.4 494.1,155.4 494.1,156.9 492,156.9 490.1,150.6 				
					"/>
				<path d="M495.2,143.1v18.7h-28.4v-18.7H495.2L495.2,143.1L495.2,143.1z M497.1,140.1h-32.2c-0.6,0-1.1,0.5-1.1,1.1v22.4
					c0,0.6,0.5,1.1,1.1,1.1h32.2c0.6,0,1.1-0.5,1.1-1.1v-22.4C498.2,140.6,497.7,140.1,497.1,140.1L497.1,140.1z"/>
			</g>
			<path d="M496.8,119.6h-1.4v-2.5c0-5.4-3.4-8.1-7.4-8.1h-0.7c-4.1,0-7.4,2.7-7.4,8.1v2.5h-1.4c-0.6,0-1.4,0.8-1.4,1.4v13.6
				c0,0.6,0.8,1.4,1.4,1.4h18.2c0.6,0,1.4-0.8,1.4-1.4v-13.7C498.2,120.5,497.4,119.6,496.8,119.6L496.8,119.6z M488.8,127.6v5.6h-2
				v-5.6c-0.8-0.4-1.4-1.2-1.4-2.1c0-1.3,1.1-2.4,2.4-2.4s2.4,1.1,2.4,2.4C490.1,126.5,489.6,127.3,488.8,127.6L488.8,127.6z
				 M492.9,119.6h-10.3v-2.5c0-3.4,1.8-5.7,4.8-5.7h0.7c3.1,0,4.8,2.3,4.8,5.7V119.6L492.9,119.6L492.9,119.6z"/>
			<polygon fill="none" points="459.5,107.1 459.5,107.8 461.7,107.8 461.7,107.1 461.7,105.6 459.5,105.6 			"/>
			<path d="M471.2,107.1h-1.4v24.8h-18.2v-24.8H450c-1.2,0-2.2,1-2.2,2.2V134c0,1.2,1,2.2,2.2,2.2h21.1c1.2,0,2.2-1,2.2-2.2v-24.9
				C473.4,108,472.4,107.1,471.2,107.1z"/>
			<path d="M468.3,107.8c0-0.3-0.1-0.5-0.1-0.8c-0.3-0.8-1.1-1.4-2-1.4h-2.6v-0.9c0-1.2-1-2.1-2.1-2.1h-1.7c-1.2,0-2.1,1-2.1,2.1
				v0.9h-2.6c-0.9,0-1.7,0.6-2,1.4c-0.1,0.2-0.1,0.5-0.1,0.8v2.1h15.3L468.3,107.8L468.3,107.8z M461.7,107.1v0.7h-2.2v-0.7v-1.5
				h2.2V107.1z"/>
			<path d="M458.7,129.6l9.6-12.3c0.2-0.2,0.1-0.5-0.1-0.6l-1.6-1.3c-0.2-0.2-0.5-0.1-0.6,0.1l-7.2,9.6l-3.7-4
				c-0.2-0.2-0.4-0.2-0.6-0.1l-1.6,1.4c-0.2,0.2-0.2,0.4,0,0.6L458.7,129.6z"/>
		</g>
	</g>
</g>
</svg>
