<?xml version="1.0" encoding="utf-8"?>
<!-- Generator: Adobe Illustrator 19.2.0, SVG Export Plug-In . SVG Version: 6.00 Build 0)  -->
<svg version="1.1" id="Layer_1" xmlns="http://www.w3.org/2000/svg" xmlns:xlink="http://www.w3.org/1999/xlink" x="0px" y="0px"
	 width="215px" height="491px" viewBox="0 0 215 491" style="enable-background:new 0 0 215 491;" xml:space="preserve">
<circle cx="161.3" cy="446.9" r="11"/>
<g>
	<path d="M112.8,471.8V462h2.8c3.6,0,5.4,1.6,5.4,4.8c0,1.5-0.5,2.7-1.5,3.6s-2.3,1.4-4,1.4H112.8z M114.4,463.4v7h1.3
		c1.1,0,2-0.3,2.7-0.9c0.6-0.6,0.9-1.5,0.9-2.7c0-2.3-1.2-3.4-3.5-3.4H114.4z"/>
	<path d="M130.6,471.8h-1.8l-0.9-2.5h-3.8l-0.8,2.5h-1.8l3.7-9.8h1.8L130.6,471.8z M127.5,468l-1.4-3.9c0-0.1-0.1-0.3-0.1-0.6l0,0
		c0,0.3-0.1,0.5-0.1,0.6l-1.3,3.9H127.5z"/>
	<path d="M137.2,463.4h-2.8v8.4h-1.6v-8.4H130V462h7.2V463.4z"/>
	<path d="M145.6,471.8h-1.8l-0.9-2.5h-3.8l-0.8,2.5h-1.8l3.7-9.8h1.8L145.6,471.8z M142.5,468l-1.4-3.9c0-0.1-0.1-0.3-0.1-0.6l0,0
		c0,0.3-0.1,0.5-0.1,0.6l-1.3,3.9H142.5z"/>
	<path d="M146.9,471.8V462h3.1c0.9,0,1.7,0.2,2.2,0.6c0.6,0.4,0.8,0.9,0.8,1.6c0,0.6-0.2,1-0.5,1.4s-0.7,0.7-1.3,0.9l0,0
		c0.7,0.1,1.2,0.3,1.6,0.7c0.4,0.4,0.6,1,0.6,1.6c0,0.8-0.3,1.5-1,2s-1.5,0.8-2.5,0.8h-3L146.9,471.8L146.9,471.8z M148.5,463.4v2.8
		h1c0.6,0,1-0.1,1.3-0.4s0.5-0.6,0.5-1.1c0-0.8-0.6-1.3-1.7-1.3H148.5z M148.5,467.4v3.1h1.4c0.6,0,1.1-0.1,1.4-0.4s0.5-0.7,0.5-1.2
		c0-1-0.7-1.5-2.1-1.5H148.5z"/>
	<path d="M163.4,471.8h-1.8l-0.9-2.5h-3.8l-0.8,2.5h-1.8l3.7-9.8h1.8L163.4,471.8z M160.3,468l-1.4-3.9c0-0.1-0.1-0.3-0.1-0.6l0,0
		c0,0.3-0.1,0.5-0.1,0.6l-1.3,3.9H160.3z"/>
	<path d="M164.3,471.4v-1.7c0.1,0.1,0.3,0.3,0.5,0.4s0.4,0.2,0.7,0.3s0.5,0.1,0.7,0.2c0.2,0,0.4,0.1,0.6,0.1c0.7,0,1.2-0.1,1.5-0.3
		c0.3-0.2,0.5-0.6,0.5-1c0-0.2-0.1-0.4-0.2-0.6s-0.3-0.3-0.5-0.5s-0.4-0.3-0.7-0.4s-0.6-0.3-0.9-0.4c-0.3-0.2-0.6-0.4-0.9-0.5
		s-0.5-0.4-0.7-0.6s-0.4-0.5-0.5-0.7c-0.1-0.3-0.2-0.6-0.2-1c0-0.5,0.1-0.9,0.3-1.2c0.2-0.3,0.5-0.6,0.8-0.8
		c0.3-0.2,0.7-0.4,1.2-0.5c0.4-0.1,0.9-0.2,1.3-0.2c1,0,1.8,0.1,2.2,0.3v1.6c-0.6-0.4-1.3-0.6-2.1-0.6c-0.2,0-0.5,0-0.7,0.1
		c-0.2,0-0.5,0.1-0.6,0.2c-0.2,0.1-0.3,0.2-0.5,0.4c-0.1,0.2-0.2,0.4-0.2,0.6s0,0.4,0.1,0.6s0.2,0.3,0.4,0.4s0.4,0.3,0.6,0.4
		c0.3,0.1,0.5,0.3,0.9,0.4c0.3,0.2,0.7,0.4,1,0.6s0.6,0.4,0.8,0.6s0.4,0.5,0.5,0.8s0.2,0.6,0.2,1c0,0.5-0.1,0.9-0.3,1.3
		s-0.5,0.6-0.8,0.8c-0.3,0.2-0.7,0.4-1.2,0.5c-0.4,0.1-0.9,0.1-1.4,0.1c-0.2,0-0.4,0-0.6,0s-0.5-0.1-0.7-0.1c-0.3,0-0.5-0.1-0.7-0.2
		C164.6,471.6,164.4,471.5,164.3,471.4z"/>
	<path d="M177.8,471.8h-5.5V462h5.3v1.4H174v2.8h3.4v1.4H174v2.9h3.9L177.8,471.8L177.8,471.8z"/>
	<path d="M189.6,463.4h-2.8v8.4h-1.6v-8.4h-2.8V462h7.2L189.6,463.4L189.6,463.4z"/>
	<path d="M192.7,471.8H191V462h1.7V471.8z"/>
	<path d="M200.5,471.8H195V462h5.3v1.4h-3.6v2.8h3.4v1.4h-3.4v2.9h3.9L200.5,471.8L200.5,471.8L200.5,471.8z"/>
	<path d="M209.8,471.8h-1.9l-1.6-2.6c-0.1-0.2-0.3-0.4-0.4-0.6s-0.3-0.3-0.4-0.4s-0.3-0.2-0.5-0.2s-0.3-0.1-0.6-0.1h-0.7v4h-1.6
		v-9.8h3.2c0.5,0,0.9,0.1,1.3,0.2s0.7,0.3,1,0.5s0.5,0.5,0.7,0.8s0.2,0.7,0.2,1.2c0,0.3-0.1,0.7-0.2,0.9c-0.1,0.3-0.2,0.5-0.4,0.8
		c-0.2,0.2-0.4,0.4-0.7,0.6s-0.6,0.3-0.9,0.4l0,0c0.2,0.1,0.3,0.2,0.5,0.3s0.3,0.2,0.4,0.4c0.1,0.1,0.2,0.3,0.3,0.4s0.2,0.3,0.4,0.6
		L209.8,471.8z M203.9,463.4v3.2h1.3c0.3,0,0.5,0,0.7-0.1s0.4-0.2,0.5-0.3c0.2-0.1,0.3-0.3,0.4-0.5s0.1-0.4,0.1-0.7
		c0-0.5-0.1-0.8-0.4-1.1s-0.7-0.4-1.3-0.4h-1.3L203.9,463.4L203.9,463.4z"/>
</g>
<g>
	<path style="fill:#FFFFFF;" d="M163.8,443.9c-0.3,0.6-0.6,1.2-0.9,1.8s-0.5,1.2-0.8,1.7c-0.2,0.6-0.4,1.2-0.6,1.8s-0.3,1.2-0.4,1.8
		h-1.3c0.1-0.6,0.2-1.1,0.4-1.7s0.3-1.1,0.6-1.6s0.5-1.1,0.7-1.7c0.3-0.6,0.6-1.1,0.9-1.7h-3.6v-1.1h5.1L163.8,443.9L163.8,443.9z"
		/>
</g>
<g>
	
		<line style="fill:none;stroke:#DFDFDE;stroke-width:4;stroke-linecap:round;stroke-linejoin:round;stroke-miterlimit:10;" x1="6.7" y1="8.3" x2="6.7" y2="465.2"/>
</g>
<g>
	
		<line style="fill:none;stroke:#DFDFDE;stroke-width:4;stroke-linecap:round;stroke-linejoin:round;stroke-miterlimit:10;" x1="6.7" y1="465.2" x2="91.9" y2="465.2"/>
	
		<circle style="fill:none;stroke:#DFDFDE;stroke-width:4;stroke-linecap:round;stroke-linejoin:round;stroke-miterlimit:10;" cx="96.9" cy="465.2" r="5"/>
</g>
</svg>
