<svg id="Layer_1" xmlns="http://www.w3.org/2000/svg" width="129.2" height="329.2" viewBox="0 0 129.2 329.2"><path fill-opacity="0" d="M17.1 224.9h94.8v104.2H17.1z"/><path d="M25.1 325.5h-1.8l-4.7-7.2-.3-.6c0 .2.1.7.1 1.3v6.4h-1.6v-9.8h1.9l4.5 7c.2.3.3.5.4.6 0-.3-.1-.7-.1-1.3v-6.3h1.6v9.9zm7.9 0h-5.5v-9.8h5.3v1.4h-3.6v2.8h3.4v1.4h-3.4v2.9h3.9l-.1 1.3zm8-8.4h-2.8v8.4h-1.6V317h-2.8v-1.4H41v1.5zm13.8-1.5l-2.7 9.8h-1.8l-1.9-6.8c-.1-.3-.1-.6-.1-1 0 .3-.1.6-.2.9l-1.9 6.8h-1.9l-2.7-9.8h1.8l1.8 7.1c.1.3.1.6.1.9 0-.2.1-.5.2-.9l2-7.1h1.7l1.8 7.2c.1.2.1.5.1.9 0-.2.1-.5.2-.9l1.7-7.2 1.8.1zm5.4 10c-1.4 0-2.5-.5-3.4-1.4-.8-.9-1.3-2.1-1.3-3.6 0-1.6.4-2.8 1.3-3.8.9-.9 2-1.4 3.5-1.4 1.4 0 2.5.5 3.3 1.4.8.9 1.3 2.1 1.3 3.6 0 1.6-.4 2.8-1.3 3.8-.8.9-2 1.4-3.4 1.4zm.1-8.6c-.9 0-1.6.3-2.2 1s-.8 1.5-.8 2.6.3 2 .8 2.6c.5.7 1.3 1 2.1 1 .9 0 1.7-.3 2.2-.9s.8-1.5.8-2.6c0-1.2-.3-2.1-.8-2.7s-1.2-1-2.1-1zm14 8.5h-1.9l-1.6-2.6c-.1-.2-.3-.4-.4-.6s-.3-.3-.4-.4-.3-.2-.5-.2-.3-.1-.6-.1h-.7v4h-1.6v-9.8h3.2c.5 0 .9.1 1.3.2s.7.3 1 .5.5.5.7.8.2.7.2 1.2c0 .3-.1.7-.2.9-.1.3-.2.5-.4.8-.2.2-.4.4-.7.6-.3.2-.6.3-.9.4.2.1.3.2.5.3.1.1.3.2.4.4.1.1.2.3.3.4.1.2.2.3.4.6l1.9 2.6zm-6-8.5v3.2h1.3c.2 0 .5 0 .7-.1s.4-.2.5-.3c.2-.1.3-.3.4-.5s.1-.4.1-.7c0-.5-.1-.8-.4-1.1s-.7-.4-1.3-.4l-1.3-.1zm14.5 8.5h-2.1l-3.4-4.5c-.1-.2-.2-.3-.2-.3v4.8h-1.6v-9.8h1.6v4.6c.1-.1.1-.2.2-.3l3.3-4.3h1.9l-3.8 4.7 4.1 5.1zm11.2-8.4h-2.8v8.4h-1.6V317h-2.8v-1.4H94v1.5zm3.1 8.4h-1.7v-9.8h1.7v9.8zm7.8 0h-5.5v-9.8h5.3v1.4h-3.6v2.8h3.4v1.4h-3.4v2.9h3.9l-.1 1.3zm9.3 0h-1.9l-1.6-2.6c-.1-.2-.3-.4-.4-.6s-.3-.3-.4-.4-.3-.2-.5-.2-.3-.1-.6-.1h-.7v4h-1.6v-9.8h3.2c.5 0 .9.1 1.3.2s.7.3 1 .5.5.5.7.8.2.7.2 1.2c0 .3-.1.7-.2.9-.1.3-.2.5-.4.8-.2.2-.4.4-.7.6-.3.2-.6.3-.9.4.2.1.3.2.5.3.1.1.3.2.4.4.1.1.2.3.3.4.1.2.2.3.4.6l1.9 2.6zm-5.9-8.5v3.2h1.3c.2 0 .5 0 .7-.1s.4-.2.5-.3c.2-.1.3-.3.4-.5s.1-.4.1-.7c0-.5-.1-.8-.4-1.1s-.7-.4-1.3-.4l-1.3-.1z"/><circle cx="64.4" cy="298.8" r="9.9"/><path fill="none" d="M53.2 294.2H76v13H53.2z"/><text transform="translate(61.518 302.462)" fill="#FFF" font-family="'SegoeUI-Semibold'" font-size="11.142">2</text></svg>