<?xml version="1.0" encoding="utf-8"?>
<!-- Generator: Adobe Illustrator 19.2.0, SVG Export Plug-In . SVG Version: 6.00 Build 0)  -->
<svg version="1.1" id="Layer_1" xmlns="http://www.w3.org/2000/svg" xmlns:xlink="http://www.w3.org/1999/xlink" x="0px" y="0px"
	 width="55px" height="284px" viewBox="0 0 55 284" style="enable-background:new 0 0 55 284;" xml:space="preserve">
<path d="M53.1,255.1c-4.5-9.9-16.2-14.2-26.1-9.7c-3.1,1.4-5.7,3.6-7.6,6.2l0,0l-0.1,0.2c-0.1,0.2-0.2,0.3-0.3,0.5L0.1,279.5l33,3.4
	c0.2,0,0.3,0,0.5,0l0.8,0.1l0,0c3,0.1,6.1-0.4,9.1-1.8C53.3,276.7,57.6,265,53.1,255.1z"/>
<g>
	<path style="fill:#FFFFFF;" d="M26.1,261.8h20l-5.2-4.8v2.4H26.5v-1.9c0-0.9,0.4-1.7,1.4-1.7h14.8c0.9,0,1.8,0.8,1.8,1.7v0.9
		l1.8,1.5v-2.4c0-1.9-1.7-3.5-3.6-3.5H27.9c-1.9,0-3.2,1.6-3.2,3.5v4.3H26.1L26.1,261.8L26.1,261.8z"/>
	<path style="fill:#FFFFFF;" d="M44.2,263H24.3l5.1,4.7v-2.9h15v2.4c0,0.9-0.9,1.8-1.8,1.8H27.8c-0.9,0-1.4-0.9-1.4-1.8v-0.9
		l-1.8-1.5v2.4c0,1.9,1.3,3,3.2,3h3.3l7.3,5.2l-0.6-5.2h4.8c1.9,0,3.6-1.1,3.6-3V263H44.2L44.2,263L44.2,263z"/>
</g>
<g>
	
		<line style="fill:none;stroke:#DFDFDE;stroke-width:4;stroke-linecap:round;stroke-linejoin:round;stroke-miterlimit:10;" x1="46.7" y1="-41" x2="47.7" y2="217.9"/>
	
		<circle style="fill:none;stroke:#DFDFDE;stroke-width:4;stroke-linecap:round;stroke-linejoin:round;stroke-miterlimit:10;" cx="47.7" cy="223.4" r="5"/>
</g>
</svg>
