<svg xmlns="http://www.w3.org/2000/svg" width="94.8" height="329.2" viewBox="0 0 94.8 329.2"><path d="M17.9 315.6h-5.5v-9.8h5.3v1.4h-3.6v2.8h3.4v1.4h-3.4v2.9H18l-.1 1.3zM27.9 315.6h-1.8l-4.7-7.2-.3-.6c0 .2.1.7.1 1.3v6.4h-1.6v-9.8h1.9l4.5 7c.2.3.3.5.4.6 0-.3-.1-.7-.1-1.3v-6.3h1.6v9.9zM30.3 315.6v-9.8h2.8c3.6 0 5.4 1.6 5.4 4.8 0 1.5-.5 2.7-1.5 3.6s-2.3 1.4-4 1.4h-2.7zm1.6-8.2v7h1.3c1.1 0 2-.3 2.7-.9.6-.6.9-1.5.9-2.7 0-2.3-1.2-3.4-3.5-3.4h-1.4zM51.6 311.8c0 2.7-1.3 4.1-3.9 4.1-2.5 0-3.7-1.3-3.7-4v-6h1.6v5.6c0 1.9.7 2.9 2.2 2.9 1.4 0 2.1-.9 2.1-2.8v-5.7h1.6l.1 5.9zM53.5 315.4v-1.7c.1.1.3.3.5.4.2.1.4.2.7.3.2.1.5.1.7.2.2 0 .4.1.6.1.7 0 1.2-.1 1.5-.3.3-.2.5-.6.5-1 0-.2-.1-.4-.2-.6s-.3-.3-.5-.5-.4-.3-.7-.4c-.3-.1-.6-.3-.9-.4-.3-.2-.6-.4-.9-.5-.3-.2-.5-.4-.7-.6-.2-.2-.4-.5-.5-.7-.1-.2-.2-.6-.2-1 0-.5.1-.9.3-1.2.2-.3.5-.6.8-.8.3-.2.7-.4 1.2-.5s.9-.2 1.3-.2c1 0 1.8.1 2.2.3v1.6c-.6-.4-1.3-.6-2.1-.6-.2 0-.5 0-.7.1-.2 0-.5.1-.6.2s-.3.2-.5.4-.2.4-.2.6c0 .2 0 .4.1.6.1.2.2.3.4.4.2.1.4.3.6.4.3.1.5.3.9.4.3.2.7.4 1 .6.3.2.6.4.8.6.2.2.4.5.5.8.1.3.2.6.2 1 0 .5-.1.9-.3 1.3-.2.3-.5.6-.8.8-.3.2-.7.4-1.2.5-.4.1-.9.1-1.4.1h-.6c-.2 0-.5-.1-.7-.1s-.5-.1-.7-.2c-.1-.3-.3-.4-.4-.4zM67 315.6h-5.5v-9.8h5.3v1.4h-3.6v2.8h3.4v1.4h-3.4v2.9h3.9l-.1 1.3zM76.2 315.6h-1.9l-1.6-2.6c-.1-.2-.3-.4-.4-.6-.1-.2-.3-.3-.4-.4-.1-.1-.3-.2-.5-.2s-.3-.1-.6-.1h-.7v4h-1.6V306h3.2c.5 0 .9.1 1.3.2s.7.3 1 .5c.3.2.5.5.7.8.2.3.2.7.2 1.2 0 .3-.1.7-.2.9-.1.3-.2.5-.4.8-.2.2-.4.4-.7.6-.3.2-.6.3-.9.4.2.1.3.2.5.3.1.1.3.2.4.4.1.1.2.3.3.4.1.2.2.3.4.6l1.9 2.5zm-5.9-8.3v3.2h1.3c.2 0 .5 0 .7-.1s.4-.2.5-.3c.2-.1.3-.3.4-.5.1-.2.1-.4.1-.7 0-.5-.1-.8-.4-1.1-.3-.3-.7-.4-1.3-.4l-1.3-.1zM76.9 315.4v-1.7c.1.1.3.3.5.4.2.1.4.2.7.3.2.1.5.1.7.2.2 0 .4.1.6.1.7 0 1.2-.1 1.5-.3.3-.2.5-.6.5-1 0-.2-.1-.4-.2-.6s-.3-.3-.5-.5-.4-.3-.7-.4c-.3-.1-.6-.3-.9-.4-.3-.2-.6-.4-.9-.5-.3-.2-.5-.4-.7-.6-.2-.2-.4-.5-.5-.7-.1-.2-.2-.6-.2-1 0-.5.1-.9.3-1.2.2-.3.5-.6.8-.8.3-.2.7-.4 1.2-.5s.9-.2 1.3-.2c1 0 1.8.1 2.2.3v1.6c-.6-.4-1.3-.6-2.1-.6-.2 0-.5 0-.7.1-.2 0-.5.1-.6.2s-.3.2-.5.4-.2.4-.2.6c0 .2 0 .4.1.6.1.2.2.3.4.4.2.1.4.3.6.4.3.1.5.3.9.4.3.2.7.4 1 .6.3.2.6.4.8.6.2.2.4.5.5.8.1.3.2.6.2 1 0 .5-.1.9-.3 1.3-.2.3-.5.6-.8.8-.3.2-.7.4-1.2.5-.4.1-.9.1-1.4.1h-.6c-.2 0-.5-.1-.7-.1s-.5-.1-.7-.2c-.1-.3-.2-.4-.4-.4zM47.1 272.4c-6.4 0-11.6 5.2-11.6 11.6 0 6.4 5.2 11.6 11.6 11.6s11.6-5.2 11.6-11.6c0-6.5-5.2-11.6-11.6-11.6zm.8 16.4h-1.5v-7.5c-.3.2-.6.4-.9.5s-.7.3-1.1.4v-1.3c.2-.1.5-.2.7-.3.2-.1.5-.2.7-.3s.4-.2.7-.4c.2-.1.5-.3.7-.5h.6l.1 9.4z"/></svg>