<?xml version="1.0" encoding="utf-8"?>
<!-- Generator: Adobe Illustrator 19.2.0, SVG Export Plug-In . SVG Version: 6.00 Build 0)  -->
<svg version="1.1" id="Layer_1" xmlns="http://www.w3.org/2000/svg" xmlns:xlink="http://www.w3.org/1999/xlink" x="0px" y="0px"
	 width="55px" height="284px" viewBox="0 0 55 284" enable-background="new 0 0 55 284" xml:space="preserve">
<g>
	
		<line fill="none" stroke="#DFDFDE" stroke-width="4" stroke-linecap="round" stroke-linejoin="round" stroke-miterlimit="10" x1="10.9" y1="-41" x2="11.9" y2="217.9"/>
	
		<circle fill="none" stroke="#DFDFDE" stroke-width="4" stroke-linecap="round" stroke-linejoin="round" stroke-miterlimit="10" cx="11.9" cy="223.4" r="5"/>
</g>
<path fill="#1EBBEE" d="M20.7,276c0.7,0.1,1.4,0.1,2,0.2l32.3,2.5l-13.6-29.5l0,0c-1.4-3.4-3.7-6.5-7-8.8c-8.9-6.2-21.2-4-27.4,4.9
	s-4,21.2,4.9,27.4c2.6,1.8,5.5,2.9,8.5,3.3l0,0H20.7z"/>
<g>
	<path fill="#FFFFFF" d="M30.2,255.7c0.1-0.4,0.2-0.9,0.2-1.3c0-2.9-2.3-5.2-5.1-5.2c-2.1,0-3.9,1.3-4.7,3.2
		c-0.6-0.8-1.6-1.3-2.7-1.3c-2,0-3.6,1.7-3.6,3.7c0,0.3,0,0.7,0.1,1c-1.6,0.6-2.7,2-2.7,3.9c0,2.4,1.9,4.2,4.2,4.2h13
		c2.4,0,4.2-1.8,4.2-4.2C33.1,257.7,31.9,256.2,30.2,255.7L30.2,255.7z M27.3,257.5c-0.4,1.5-1.7,2.6-3.3,2.6c-0.3,0-0.6,0-0.8-0.1
		c-0.3-0.1-0.6-0.2-0.8-0.3l-2.3,2.4c-0.2,0.2-0.4,0.3-0.7,0.3s-0.5-0.1-0.7-0.3c-0.2-0.2-0.3-0.4-0.3-0.7s0.1-0.5,0.3-0.7l2.3-2.4
		c-0.4-0.7-0.5-1.6-0.3-2.4c0.4-1.5,1.7-2.6,3.3-2.6c0.3,0,0.6,0,0.8,0.1c0.9,0.2,1.6,0.8,2.1,1.5C27.4,255.7,27.6,256.6,27.3,257.5
		L27.3,257.5z"/>
	<path fill="#FFFFFF" d="M24.6,254.6c-0.2,0-0.3,0-0.5,0c-0.9,0-1.8,0.6-2,1.6c-0.1,0.6,0,1.2,0.3,1.7c0.1,0.2,0.3,0.4,0.6,0.6
		c0.2,0.1,0.4,0.3,0.7,0.3c0.2,0,0.3,0,0.5,0c0.9,0,1.8-0.6,2-1.6c0.1-0.6,0-1.1-0.3-1.6S25.1,254.8,24.6,254.6L24.6,254.6z"/>
</g>
</svg>
