<svg id="Layer_1" xmlns="http://www.w3.org/2000/svg" width="55" height="284" viewBox="0 0 55 284"><path d="M40.1 240.5c-8.1-7.3-20.5-6.6-27.8 1.5-2.1 2.3-3.5 5-4.3 7.8v.1c-.2.8-.4 1.7-.5 2.5l-6.4 31.5 30.7-9.8c.8-.2 1.6-.4 2.4-.7l.2-.1c2.7-1.1 5.2-2.8 7.3-5.1 7.2-8 6.5-20.5-1.6-27.7z"/><path fill="#FFF" d="M27.1 244.4c-4.8 0-8.7 1.6-8.7 3.3v15.8c0 1.7 3.9 3.4 8.7 3.4 4.8 0 8.7-1.5 8.7-3.3v-15.8c0-1.7-4-3.4-8.7-3.4zm-8.5 19.9v-.2.2zm6-9.9c-.6 0-.8-.2-.8.5v1.2c0 .9-.1 1.5-.8 1.7v.1c.6.3.8 1 .8 2.1v1.4c0 .5.1.5.2.6.1.2.3.2.6.2v1.2c-.9 0-1.5-.2-1.9-.5-.4-.3-.6-1-.6-1.9v-1.5c0-.8-.3-.8-.8-.8V257c.6 0 .8 0 .8-.7v-1.2c0-.8.2-1.3.6-1.5.4-.3 1-.5 1.9-.5v1.3zm8.5 3v1.3c-.6 0-.8 0-.8.8v1.5c0 .9-.2 1.5-.6 1.9-.4.3-1 .5-2 .5v-1.2c.3 0 .5-.1.6-.2.1-.2.2-.2.2-.6V260c0-1.1.2-1.7.8-2.1v-.1c-.6-.2-.8-.8-.8-1.7V255c0-.6-.3-.5-.8-.5v-1.4c.9 0 1.5.2 1.9.5.4.3.6.8.6 1.5v1.2c0 .7.3.6.8.6v.5h.1zm-6-8.1c-3.4 0-6.2-.8-6.2-1.9 0-1 2.8-1.9 6.2-1.9s6.2.8 6.2 1.9c0 1.1-2.8 1.9-6.2 1.9z"/></svg>