<?xml version="1.0" encoding="utf-8"?>
<!-- Generator: Adobe Illustrator 19.2.0, SVG Export Plug-In . SVG Version: 6.00 Build 0)  -->
<svg version="1.1" id="Layer_1" xmlns="http://www.w3.org/2000/svg" xmlns:xlink="http://www.w3.org/1999/xlink" x="0px" y="0px"
	 width="55px" height="284px" viewBox="0 0 55 284" enable-background="new 0 0 55 284" xml:space="preserve">
<g>
	
		<line fill="none" stroke="#DFDFDE" stroke-width="4" stroke-linecap="round" stroke-linejoin="round" stroke-miterlimit="10" x1="40.7" y1="-41" x2="41.7" y2="217.9"/>
	
		<circle fill="none" stroke="#DFDFDE" stroke-width="4" stroke-linecap="round" stroke-linejoin="round" stroke-miterlimit="10" cx="41.7" cy="223.4" r="5"/>
</g>
<path fill="#1EBBEE" d="M47,247.2c-6.7-8.5-19.1-10-27.6-3.3c-2.5,2-4.4,4.5-5.7,7.2l0,0l-0.1,0.3c-0.2,0.5-0.5,1.1-0.7,1.7L1,283.4
	l31.8-4.3c0.9-0.1,1.8-0.2,2.7-0.4h0.1l0,0c2.8-0.6,5.6-1.8,8-3.8C52.2,268.1,53.7,255.8,47,247.2z"/>
<g>
	<path fill="#FFFFFF" d="M24.2,252.4c0-0.7,2.3-1.3,5.2-1.3s5.2,0.6,5.2,1.3s-2.3,1.3-5.2,1.3S24.2,253.2,24.2,252.4L24.2,252.4z
		 M28.8,270v-12.6c0-1.6,2.5-2.3,6-2.3c0.8,0,1.6,0,2.3,0.1v-2.8c0-1.3-3.5-2.4-7.8-2.4s-7.8,1.1-7.8,2.4v16.2
		c0,1.4,3.5,2.5,7.8,2.5h0.5C29.2,270.7,28.8,270.4,28.8,270L28.8,270z"/>
	<path fill="#FFFFFF" d="M35.1,259.1c-2.1,0-3.8-0.4-3.8-1c0-0.5,1.7-1,3.8-1s3.8,0.4,3.8,1S37.2,259.1,35.1,259.1L35.1,259.1z
		 M38.4,264.4l-6.9,5.7l2.7-4.4h-2.3l6.9-5.7l-2.7,4.4H38.4L38.4,264.4L38.4,264.4z M35.1,256.1c-3.1,0-5.4,0.8-5.4,1.7v11.6
		c0,1,2.3,1.8,5.4,1.8s5.6-0.8,5.6-1.8v-11.6C40.7,256.9,38.2,256.1,35.1,256.1L35.1,256.1z"/>
</g>
</svg>
