<svg id="Layer_1" xmlns="http://www.w3.org/2000/svg" width="157" height="329" viewBox="0 0 157 329"><path fill-opacity="0" d="M30.6 225h94.8v104.2H30.6z"/><path d="M60.9 318.5l-2.7 9.8h-1.8l-1.9-6.8c-.1-.3-.1-.6-.1-1 0 .3-.1.6-.2.9l-1.9 6.8h-1.8l-2.7-9.8h1.8l1.8 7.1c.1.3.1.6.1.9 0-.2.1-.5.2-.9l2-7.1h1.7l1.8 7.2c.1.2.1.5.1.9 0-.2.1-.5.2-.9l1.7-7.2h1.7v.1zM67.8 328.3h-5.5v-9.8h5.3v1.4H64v2.8h3.4v1.4H64v2.9h3.9l-.1 1.3zM69.5 328.3v-9.8h3.1c.9 0 1.7.2 2.2.6.6.4.8.9.8 1.6 0 .6-.2 1-.5 1.4s-.7.7-1.3.9c.7.1 1.2.3 1.6.7.4.4.6 1 .6 1.6 0 .8-.3 1.5-1 2s-1.5.8-2.5.8h-3v.2zm1.6-8.5v2.8h1c.6 0 1-.1 1.3-.4s.5-.6.5-1.1c0-.8-.6-1.3-1.7-1.3h-1.1zm0 4.1v3.1h1.4c.6 0 1.1-.1 1.4-.4s.5-.7.5-1.2c0-1-.7-1.5-2.1-1.5h-1.2zM88 319.9h-2.8v8.4h-1.6v-8.4h-2.8v-1.4H88v1.4zM91.1 328.3h-1.7v-9.8h1.7v9.8zM99 328.3h-5.5v-9.8h5.3v1.4h-3.6v2.8h3.4v1.4h-3.4v2.9h3.9l-.1 1.3zM108.2 328.3h-1.9l-1.6-2.6c-.1-.2-.3-.4-.4-.6s-.3-.3-.4-.4-.3-.2-.5-.2-.3-.1-.6-.1h-.7v4h-1.6v-9.8h3.2c.5 0 .9.1 1.3.2s.7.3 1 .5.5.5.7.8.2.7.2 1.2c0 .3-.1.7-.2.9-.1.3-.2.5-.4.8-.2.2-.4.4-.7.6s-.6.3-.9.4c.2.1.3.2.5.3.1.1.3.2.4.4.1.1.2.3.3.4.1.2.2.3.4.6l1.9 2.6zm-5.9-8.5v3.2h1.3c.2 0 .5 0 .7-.1s.4-.2.5-.3c.2-.1.3-.3.4-.5s.1-.4.1-.7c0-.5-.1-.8-.4-1.1-.3-.3-.7-.4-1.3-.4l-1.3-.1z"/><g><circle cx="78" cy="301.2" r="9.9"/></g><g><path fill="#FFF" d="M79.8 297.3v5H81v1h-1.2v1.7h-1.2v-1.6h-3.5v-1.1c.3-.4.6-.7 1-1.2.3-.4.7-.8 1-1.3.3-.4.6-.9.9-1.3s.5-.9.7-1.3l1.1.1zm-1.2 5v-3.2c-.4.7-.8 1.3-1.2 1.9-.4.5-.7 1-1.1 1.4l2.3-.1z"/></g></svg>