<svg id="Layer_1" xmlns="http://www.w3.org/2000/svg" width="90" height="171" viewBox="0 0 90 171"><path d="M1.7 168.1H0v-9.8h1.7v9.8zM4.1 168.1v-9.8h2.8c3.6 0 5.4 1.6 5.4 4.8 0 1.5-.5 2.7-1.5 3.6-1 .9-2.3 1.4-4 1.4H4.1zm1.6-8.4v7H7c1.1 0 2-.3 2.7-.9.6-.6.9-1.5.9-2.7 0-2.3-1.2-3.4-3.5-3.4H5.7zM19.6 168.1h-5.5v-9.8h5.3v1.4h-3.6v2.8h3.4v1.3h-3.4v2.9h3.9l-.1 1.4zM29.6 168.1h-1.8l-4.7-7.2-.3-.6c0 .2.1.7.1 1.3v6.4h-1.6v-9.8h1.9l4.5 7c.2.3.3.5.4.6 0-.3-.1-.7-.1-1.3v-6.3h1.6v9.9zM38.2 159.7h-2.8v8.4h-1.6v-8.4H31v-1.4h7.2v1.4zM41.3 168.1h-1.7v-9.8h1.7v9.8zM50 159.7h-2.8v8.4h-1.6v-8.4h-2.8v-1.4H50v1.4zM58.4 158.3l-3.2 6.2v3.5h-1.6v-3.5l-3.1-6.2h1.8l1.9 4.2s.1.2.2.6c0-.1.1-.3.2-.6l2-4.2h1.8zM69.8 159.7H67v8.4h-1.6v-8.4h-2.8v-1.4h7.2v1.4zM72.8 168.1h-1.7v-9.8h1.7v9.8zM80.7 168.1h-5.5v-9.8h5.3v1.4h-3.6v2.8h3.4v1.3h-3.4v2.9h3.9l-.1 1.4zM90 168.1h-1.9l-1.6-2.6c-.1-.2-.3-.4-.4-.6-.1-.2-.3-.3-.4-.4s-.3-.2-.5-.2-.3-.1-.6-.1h-.7v4h-1.6v-9.8h3.2c.5 0 .9.1 1.3.2s.7.3 1 .5c.3.2.5.5.7.8.2.3.2.7.2 1.2 0 .3-.1.7-.2.9-.1.3-.2.5-.4.8-.2.2-.4.4-.7.6-.3.2-.6.3-.9.4.2.1.3.2.5.3.1.1.3.2.4.4.1.1.2.3.3.4.1.2.2.3.4.6l1.9 2.6zm-5.9-8.4v3.1h1.3c.2 0 .5 0 .7-.1.2-.1.4-.2.5-.3.2-.1.3-.3.4-.5.1-.2.1-.4.1-.7 0-.5-.1-.8-.4-1.1-.3-.3-.7-.4-1.3-.4h-1.3z"/><circle cx="44" cy="139.9" r="9.9"/><g><path fill="#FFF" d="M41.6 143.4v-1.2c.5.4 1.1.6 1.7.6.5 0 .9-.1 1.2-.4.3-.2.5-.6.5-1 0-.9-.7-1.3-2-1.3h-.6v-1h.6c1.2 0 1.8-.4 1.8-1.3 0-.8-.5-1.2-1.4-1.2-.5 0-1 .2-1.5.6v-1.1c.5-.3 1.2-.4 1.9-.4s1.2.2 1.7.5c.4.3.6.8.6 1.3 0 1-.5 1.7-1.6 2 .6.1 1 .3 1.3.6.3.3.5.8.5 1.3 0 .7-.3 1.3-.8 1.7-.5.4-1.2.6-2.1.6-.7.1-1.3-.1-1.8-.3z"/></g></svg>