<svg id="infographic2" xmlns="http://www.w3.org/2000/svg" width="960" height="355" viewBox="0 0 960 355"><g fill="none" stroke="#686868" stroke-width="3" stroke-linecap="round" stroke-linejoin="round" stroke-miterlimit="10"><path d="M362.3 145.1v176M354.6 315.6l7.7 6.9 7.8-6.9"/></g><g fill="none" stroke="#686868" stroke-width="3" stroke-linecap="round" stroke-linejoin="round" stroke-miterlimit="10"><path d="M588.4 145.1v175.8M580.7 314.6l7.7 7.9 7.8-8"/></g><path d="M555.5 275.8l.2-.2h-5.2l5 .2z" fill="#00bcf2"/><path d="M268.6 222.8h-54.5c-14.6 0-14.7 22.8 0 22.8h54.5c14.7 0 14.7-22.8 0-22.8zM581.8 217.5c5.4-6.4 4.6-16-1.8-21.5-2.5-2.1-5.5-3.3-8.7-3.5-4.5-45.2-44.8-78.1-90-73.6-42 4.2-74 39.5-74 81.7 0 .9 0 1.9.1 2.8-18.8-12-43.8-6.5-55.9 12.3-.1.2-.2.3-.3.5h-32.3c-40.1 0-40.1 62.3 0 62.3H573c36.7.1 39.7-52.5 8.8-61z" fill="#dedede"/><path d="M316.6 180.5h-18.7c-6 0-11.6 5.2-11.4 11.4s5 11.4 11.4 11.4h18.7c6 0 11.6-5.2 11.4-11.4s-5-11.4-11.4-11.4zM679.3 160.3h-70.7c-14.6 0-14.7 22.8 0 22.8h70.7c14.6 0 14.7-22.8 0-22.8z" fill="#dedede"/><path d="M443.7 213.2H442v-9.8h1.7v9.8zM454.4 213.2h-1.8l-4.7-7.2-.3-.6c0 .4.1.9 0 1.3v6.4H446v-9.8h1.9l4.5 7c.2.3.3.5.4.6-.1-.4-.1-.9-.1-1.3v-6.3h1.6l.1 9.9zM463.1 204.8h-2.8v8.4h-1.6v-8.4h-2.8v-1.4h7.2v1.4zM470 213.2h-5.5v-9.8h5.3v1.4h-3.6v2.8h3.4v1.4h-3.4v2.9h3.9l-.1 1.3zM479.2 213.2h-1.9l-1.6-2.6c-.1-.2-.3-.4-.4-.6-.1-.2-.3-.3-.4-.4-.1-.1-.3-.2-.5-.2-.2-.1-.4-.1-.5-.1h-.6v4h-1.6v-9.8h3.2c.4 0 .8 0 1.3.2.4.1.7.3 1 .5.3.2.5.5.7.8.2.4.2.8.2 1.1 0 .3 0 .6-.1.9-.1.3-.2.5-.4.8-.2.2-.4.4-.7.6-.3.2-.6.3-.9.4.2.1.3.2.5.3l.4.4c.1.1.2.3.4.4l.4.6 1.5 2.7zm-5.9-8.4v3.2h1.4c.2 0 .5 0 .7-.1.2-.1.4-.2.5-.3.2-.1.3-.3.4-.5.1-.2.1-.5.1-.7 0-.4-.1-.8-.4-1.1-.4-.3-.8-.4-1.3-.4l-1.4-.1zM488.7 213.2h-1.8l-4.7-7.2-.3-.6c0 .4.1.9 0 1.3v6.4h-1.6v-9.8h1.9l4.5 7c.2.3.3.5.4.6-.1-.4-.1-.9-.1-1.3v-6.3h1.6l.1 9.9zM496.5 213.2H491v-9.8h5.3v1.4h-3.6v2.8h3.4v1.4h-3.4v2.9h3.9l-.1 1.3zM504.6 204.8h-2.8v8.4h-1.7v-8.4h-2.8v-1.4h7.2l.1 1.4z"/><g id="infographic2--optionC"><path id="_x3C_Rectangle_x3E__2_" fill="#FFF" fill-opacity="0" d="M538.2 71.6H644v69.8H538.2z"/><g id="content"><path d="M583.5 78.7l-3.5 9.7h-1.8l-3.4-9.8h1.8L579 86c.1.3.2.5.2.8 0-.3.1-.6.2-.8l2.5-7.4 1.6.1zM586.4 84.8v3.5h-1.6v-9.7h3c.9-.1 1.9.2 2.6.8.6.6 1 1.4.9 2.2 0 .9-.3 1.7-1 2.3-.7.6-1.7 1-2.6.9h-1.3zm0-4.8v3.6h1c.6 0 1.1-.1 1.6-.5.4-.4.6-.8.5-1.4 0-1.1-.7-1.7-2-1.7h-1.1zM601.2 88.4h-1.8l-4.7-7.2-.3-.6c0 .4.1.9 0 1.3v6.4H593v-9.7h1.9l4.5 7c.2.3.3.5.4.6-.1-.4-.1-.9-.1-1.3v-6.3h1.6l-.1 9.8zM543.2 101.6v3.5h-1.6v-9.8h3c.9-.1 1.9.2 2.6.8.6.6 1 1.4.9 2.2 0 .9-.3 1.7-1 2.3-.7.6-1.7 1-2.6.9l-1.3.1zm0-4.9v3.6h1c.6 0 1.1-.1 1.6-.5.4-.4.6-.8.5-1.4 0-1.1-.7-1.7-2-1.7h-1.1zM553.7 105.3c-1.3.1-2.5-.4-3.4-1.4-.9-1-1.3-2.3-1.3-3.6-.1-1.4.4-2.7 1.3-3.8.9-1 2.2-1.5 3.5-1.4 1.2-.1 2.5.4 3.3 1.4.9 1 1.3 2.3 1.3 3.6.1 1.4-.4 2.7-1.3 3.7-.8 1-2.1 1.5-3.4 1.5zm.1-8.7c-.8 0-1.6.3-2.2 1a4.67 4.67 0 0 0 0 5.3c.5.7 1.3 1 2.1 1s1.7-.3 2.2-.9c.6-.8.9-1.7.8-2.7.1-1-.2-1.9-.8-2.7-.5-.7-1.3-1-2.1-1zM561.9 105.1h-1.7v-9.8h1.7v9.8zM572.5 105.1h-1.8l-4.7-7.2-.3-.6c0 .4.1.9 0 1.3v6.4h-1.6v-9.8h1.8l4.5 7c.2.3.3.5.4.6-.1-.4-.1-.9-.1-1.3v-6.3h1.6l.2 9.9zM581.2 96.7h-2.8v8.4h-1.6v-8.4H574v-1.4h7.2v1.4zM586.2 101.8h-3.7v-1.1h3.7v1.1zM594.5 96.7h-2.8v8.4h-1.6v-8.4h-2.8v-1.4h7.2v1.4zM599.4 105.3c-1.3.1-2.5-.4-3.4-1.4-.9-1-1.3-2.3-1.3-3.6-.1-1.4.4-2.7 1.3-3.8.9-1 2.2-1.5 3.5-1.4 1.2-.1 2.5.4 3.3 1.4.9 1 1.3 2.3 1.3 3.6.1 1.4-.4 2.7-1.3 3.7s-2.1 1.5-3.4 1.5zm0-8.7c-.8 0-1.6.3-2.2 1a4.67 4.67 0 0 0 0 5.3c.5.7 1.3 1 2.1 1s1.7-.3 2.2-.9c.6-.8.9-1.7.8-2.7.1-1-.2-1.9-.8-2.7-.4-.7-1.2-1-2.1-1zM609.3 101.8h-3.7v-1.1h3.7v1.1zM611 104.7V103c.2.1.3.3.5.4.2.1.4.2.7.3.2.1.5.1.7.2.2 0 .4.1.6.1.5 0 1.1-.1 1.5-.3.3-.2.5-.6.5-1 0-.2-.1-.4-.2-.6-.1-.2-.3-.3-.5-.5s-.5-.3-.7-.4l-.9-.4c-.3-.2-.6-.4-.9-.5-.3-.2-.5-.4-.7-.6-.2-.2-.4-.5-.5-.7-.1-.3-.2-.7-.2-1 0-.4.1-.8.3-1.2.2-.3.5-.6.9-.8.4-.2.7-.4 1.2-.5.4-.1.9-.2 1.3-.2.8 0 1.5.1 2.2.3v1.6c-.6-.4-1.4-.6-2.1-.6-.2 0-.5 0-.7.1-.2 0-.4.1-.6.2-.2.1-.3.2-.5.4-.1.2-.2.4-.2.6 0 .2 0 .4.1.6.1.2.2.3.4.4.2.1.4.3.6.4l.9.4c.3.2.7.4 1 .6.3.2.6.4.8.7.2.2.4.5.5.8.1.3.2.7.2 1 0 .4-.1.9-.3 1.3-.2.3-.5.6-.8.8-.4.2-.8.4-1.2.5-.5.1-.9.1-1.4.1h-.6c-.2 0-.5-.1-.7-.1-.2 0-.5-.1-.7-.2-.1-.3-.3-.4-.5-.5zM620.7 105.1H619v-9.8h1.7v9.8zM629.4 96.7h-2.8v8.4H625v-8.4h-2.8v-1.4h7.2v1.4zM636.3 105.1h-5.5v-9.8h5.3v1.4h-3.6v2.8h3.3v1.3h-3.3v2.9h3.9l-.1 1.4zM584.2 122c-1.3.1-2.5-.4-3.4-1.4-.9-1-1.3-2.3-1.3-3.6-.1-1.4.4-2.7 1.3-3.8.9-1 2.2-1.5 3.5-1.4 1.2-.1 2.5.4 3.3 1.4.9 1 1.3 2.3 1.3 3.6.1 1.4-.4 2.7-1.3 3.8-.9 1-2.1 1.5-3.4 1.4zm0-8.7c-.8 0-1.6.3-2.2 1a4.67 4.67 0 0 0 0 5.3c.5.7 1.3 1 2.1 1s1.7-.3 2.2-.9c.6-.8.9-1.7.8-2.7.1-1-.2-1.9-.8-2.7-.4-.7-1.2-1-2.1-1zM598.2 121.8h-1.9l-1.6-2.6c-.1-.2-.3-.4-.4-.6-.1-.2-.3-.3-.4-.4-.1-.1-.3-.2-.5-.2-.2-.1-.4-.1-.5-.1h-.7v4h-1.6v-9.8h3.2c.4 0 .8 0 1.3.2.4.1.7.3 1 .5.3.2.5.5.7.8.2.4.2.8.2 1.2 0 .3 0 .6-.2.9-.1.3-.2.5-.4.8-.2.2-.4.4-.7.6-.3.2-.6.3-.9.4.2.1.3.2.5.3l.4.4c.1.1.2.3.3.4l.4.6 1.8 2.6zm-5.9-8.4v3.2h1.3c.2 0 .5 0 .7-.1.2-.1.4-.2.5-.3.2-.1.3-.3.4-.5.1-.2.1-.5.1-.7 0-.4-.1-.8-.4-1.1-.4-.3-.8-.4-1.3-.4l-1.3-.1zM548.4 138.2v-1.7c.2.1.3.3.5.4.2.1.4.2.7.3.2.1.5.1.7.2.2 0 .4.1.6.1.5 0 1.1-.1 1.5-.3.3-.2.5-.6.5-1 0-.2-.1-.4-.2-.6-.1-.2-.3-.3-.5-.5s-.5-.3-.7-.4l-.9-.4c-.3-.2-.6-.4-.9-.5-.3-.2-.5-.4-.7-.6-.2-.2-.4-.5-.5-.8-.1-.3-.2-.7-.2-1 0-.4.1-.8.3-1.2.2-.3.5-.6.8-.8.4-.2.7-.4 1.2-.5.4-.1.9-.2 1.3-.2.8 0 1.5.1 2.2.3v1.6c-.6-.4-1.4-.6-2.1-.6-.2 0-.5 0-.7.1-.2 0-.4.1-.6.2-.2.1-.3.2-.5.4-.1.2-.2.4-.2.6 0 .2 0 .4.1.6.1.2.2.3.4.4.2.1.4.3.6.4l.9.4c.3.2.7.4 1 .6.3.2.6.4.8.6.2.2.4.5.5.8.1.3.2.7.2 1 0 .4-.1.9-.3 1.3-.2.3-.5.6-.8.8-.4.2-.8.4-1.2.5-.5.1-.9.1-1.4.1h-.6c-.2 0-.5-.1-.7-.1-.2 0-.5-.1-.7-.2-.1-.2-.3-.3-.4-.3zM558.1 138.5h-1.7v-9.8h1.7v9.8zM566.7 130.2h-2.8v8.4h-1.6v-8.4h-2.8v-1.4h7.2v1.4zM573.6 138.5h-5.5v-9.8h5.3v1.4h-3.7v2.8h3.4v1.4h-3.4v2.9h3.9v1.3zM578.8 135.3h-3.7v-1.2h3.7v1.2zM587.2 130.2h-2.8v8.4h-1.6v-8.4H580v-1.4h7.2v1.4zM592.1 138.7c-1.3.1-2.5-.4-3.4-1.4-.9-1-1.3-2.3-1.3-3.6-.1-1.4.4-2.7 1.3-3.8.9-1 2.2-1.5 3.5-1.4 1.2-.1 2.5.4 3.3 1.4.9 1 1.3 2.3 1.3 3.6.1 1.4-.4 2.7-1.3 3.8-.9.9-2.1 1.5-3.4 1.4zm.1-8.7c-.8 0-1.6.3-2.2 1a4.67 4.67 0 0 0 0 5.3c.5.7 1.3 1 2.1 1s1.7-.3 2.2-.9c.6-.8.9-1.7.8-2.7.1-1-.2-1.9-.8-2.7-.5-.6-1.3-1-2.1-1zM602.1 135.3h-3.7v-1.2h3.7v1.2zM603.7 138.2v-1.7c.2.1.3.3.5.4.2.1.4.2.7.3.2.1.5.1.7.2.2 0 .4.1.6.1.5 0 1.1-.1 1.5-.3.3-.2.5-.6.5-1 0-.2-.1-.4-.2-.6-.1-.2-.3-.3-.5-.5s-.5-.3-.7-.4l-.9-.4c-.3-.2-.6-.4-.9-.5-.3-.2-.5-.4-.7-.6-.2-.2-.4-.5-.5-.8-.1-.3-.2-.7-.2-1 0-.4.1-.8.3-1.2.2-.3.5-.6.8-.8.4-.2.7-.4 1.2-.5.4-.1.9-.2 1.3-.2.8 0 1.5.1 2.2.3v1.6c-.6-.4-1.4-.6-2.1-.6-.2 0-.5 0-.7.1-.2 0-.4.1-.6.2-.2.1-.3.2-.5.4-.1.2-.2.4-.2.6 0 .2 0 .4.1.6.1.2.2.3.4.4.2.1.4.3.6.4l.9.4c.3.2.7.4 1 .6.3.2.6.4.8.6.2.2.4.5.5.8.1.3.2.7.2 1 0 .4-.1.9-.3 1.3-.2.3-.5.6-.8.8-.4.2-.8.4-1.2.5-.5.1-.9.1-1.4.1h-.6c-.2 0-.5-.1-.7-.1-.2 0-.5-.1-.7-.2 0-.2-.2-.3-.4-.3zM613.4 138.5h-1.7v-9.8h1.7v9.8zM622.1 130.2h-2.8v8.4h-1.6v-8.4h-2.8v-1.4h7.2v1.4zM629 138.5h-5.5v-9.8h5.3v1.4h-3.6v2.8h3.3v1.4h-3.3v2.9h3.9l-.1 1.3z"/></g></g><g id="infographic2--optionA"><path id="_x3C_Rectangle_x3E__1_" fill="#FFF" fill-opacity="0" d="M328 63.9h69V144h-69z"/><g id="content-2"><path d="M341.6 120.5h-5.4v-9.8h5.3v1.4h-3.6v2.8h3.4v1.4h-3.4v2.9h3.9l-.2 1.3zM350.8 120.5h-1.9l-2-3.6c-.1-.1-.1-.3-.2-.5l-.2.5-2.1 3.6h-2l3.2-4.9-2.9-4.8h2l1.8 3.3c.1.2.2.4.3.7.1-.3.2-.5.3-.7l1.8-3.3h1.8l-3 4.8 3.1 4.9zM353.7 116.9v3.5h-1.6v-9.8h3c.9-.1 1.9.2 2.6.8.6.6 1 1.4.9 2.2 0 .9-.3 1.7-1 2.3-.7.6-1.7 1-2.6.9l-1.3.1zm0-4.9v3.6h1c.6 0 1.1-.1 1.6-.5.4-.4.6-.8.5-1.4 0-1.1-.7-1.7-2-1.7h-1.1zM367.8 120.5h-1.9l-1.6-2.6c-.1-.2-.3-.4-.4-.6-.1-.2-.3-.3-.4-.4-.1-.1-.3-.2-.5-.2-.2-.1-.4-.1-.5-.1h-.6v4h-1.6v-9.8h3.2c.4 0 .8 0 1.3.2.4.1.7.3 1 .5.3.2.5.5.7.8.2.4.2.8.2 1.2 0 .3 0 .6-.1.9-.1.3-.2.5-.4.8-.2.2-.4.4-.7.6-.3.2-.6.3-.9.4.2.1.3.2.5.3l.4.4c.1.1.2.3.4.4l.4.6 1.5 2.6zm-5.9-8.5v3.2h1.3c.2 0 .5 0 .7-.1.2-.1.4-.2.5-.3.2-.1.3-.3.4-.5.1-.2.1-.5.1-.7 0-.4-.1-.8-.4-1.1-.4-.3-.8-.4-1.3-.4l-1.3-.1zM374.4 120.5h-5.5v-9.8h5.2v1.4h-3.6v2.8h3.4v1.4h-3.4v2.9h3.9v1.3zM375.7 120.1v-1.7c.2.1.3.3.5.4.2.1.4.2.7.3.2.1.5.1.7.2.2 0 .4.1.6.1.5 0 1.1-.1 1.5-.3.3-.2.5-.6.5-1 0-.2-.1-.4-.2-.6-.1-.2-.3-.3-.5-.5s-.5-.3-.7-.4l-.9-.4c-.3-.2-.6-.4-.9-.5-.3-.2-.5-.4-.7-.6-.2-.2-.4-.5-.5-.8-.1-.3-.2-.7-.2-1 0-.4.1-.8.3-1.2.2-.3.5-.6.8-.8.4-.2.7-.4 1.1-.5.4-.1.9-.2 1.3-.2.8 0 1.5.1 2.2.3v1.6c-.6-.4-1.4-.6-2.1-.6-.2 0-.5 0-.7.1-.2 0-.4.1-.6.2-.2.1-.3.2-.5.4-.1.2-.2.4-.2.6 0 .2 0 .4.1.6.1.2.2.3.4.4.2.1.4.3.6.4l.9.4c.3.2.7.4 1 .6.3.2.6.4.8.7.2.2.4.5.5.8.1.3.2.7.2 1 0 .4-.1.9-.3 1.3-.2.3-.5.6-.8.8-.4.2-.8.4-1.2.5-.5.1-.9.1-1.4.1h-.6c-.2 0-.5-.1-.7-.1-.2 0-.5-.1-.7-.2 0-.3-.2-.3-.3-.4zM383.3 120.1v-1.7c.2.1.3.3.5.4.2.1.4.2.7.3.2.1.5.1.7.2.2 0 .4.1.6.1.5 0 1.1-.1 1.5-.3.3-.2.5-.6.5-1 0-.2-.1-.4-.2-.6-.1-.2-.3-.4-.5-.5-.2-.2-.5-.3-.7-.4l-.9-.4c-.3-.2-.6-.4-.9-.5-.3-.2-.5-.4-.7-.6-.2-.2-.4-.5-.5-.8-.1-.3-.2-.7-.2-1 0-.4.1-.8.3-1.2.2-.3.5-.6.8-.8.4-.2.7-.4 1.1-.5.4-.1.9-.2 1.3-.2.8 0 1.5.1 2.2.3v1.6c-.6-.4-1.4-.6-2.1-.6-.2 0-.5 0-.7.1-.2 0-.4.1-.6.2-.2.1-.3.2-.5.4-.1.2-.2.4-.2.6 0 .2 0 .4.1.6.1.2.2.3.4.4.2.1.4.3.6.4l.9.4c.3.2.7.4 1 .6.3.2.6.4.8.7.2.2.4.5.5.8.1.3.2.7.2 1 0 .4-.1.9-.3 1.3-.2.3-.5.6-.8.8-.4.2-.8.4-1.2.5-.5.1-.9.1-1.4.1h-.6c-.2 0-.5-.1-.7-.1-.2 0-.5-.1-.7-.2 0-.3-.2-.3-.3-.4zM349.4 137.2h-1.9l-1.6-2.6c-.1-.2-.3-.4-.4-.6-.1-.2-.3-.3-.4-.4-.1-.1-.3-.2-.5-.2-.2-.1-.4-.1-.5-.1h-.6v4h-1.6v-9.8h3.2c.4 0 .8 0 1.3.2.4.1.7.3 1 .5.3.2.5.5.7.8.2.4.2.8.2 1.1 0 .3 0 .6-.1.9-.1.3-.2.5-.4.8-.2.2-.4.4-.7.6-.3.2-.6.3-.9.4.2.1.3.2.5.3l.4.4c.1.1.2.3.4.4l.4.6 1.5 2.7zm-6-8.5v3.2h1.4c.2 0 .5 0 .7-.1.2-.1.4-.2.5-.3.2-.1.3-.3.4-.5.1-.2.1-.5.1-.7 0-.4-.1-.8-.4-1.1-.4-.3-.8-.4-1.3-.4l-1.4-.1zM354.4 137.3c-1.3.1-2.5-.4-3.4-1.4-.9-1-1.3-2.3-1.3-3.6-.1-1.4.4-2.7 1.3-3.8.9-1 2.2-1.5 3.5-1.4 1.2-.1 2.5.4 3.3 1.4.9 1 1.3 2.3 1.3 3.6.1 1.4-.4 2.7-1.3 3.8-.9 1-2.1 1.5-3.4 1.4zm.1-8.6c-.8 0-1.6.3-2.2 1a4.67 4.67 0 0 0 0 5.3c.5.7 1.3 1 2.1 1s1.7-.3 2.2-.9c.6-.8.9-1.7.8-2.7.1-1-.2-1.9-.8-2.7-.5-.7-1.3-1.1-2.1-1zM368.4 133.2c0 2.7-1.3 4.1-3.9 4.1-2.5 0-3.7-1.3-3.7-4v-6h1.6v5.6c0 1.9.7 2.9 2.2 2.9 1.5 0 2.2-.9 2.1-2.8v-5.7h1.6l.1 5.9zM376.9 128.8h-2.8v8.4h-1.6v-8.4h-2.8v-1.4h7.2v1.4zM383.8 137.2h-5.5v-9.8h5.3v1.4H380v2.8h3.4v1.4H380v2.9h3.9l-.1 1.3zM382.2 87.4c-.8 0-1.6.2-2.4.5l-12.1-12.1c1.3-2.8.1-6.2-2.7-7.5s-6.2-.1-7.5 2.7c-.7 1.5-.7 3.3 0 4.8L345.3 88c-2.8-1.3-6.2-.1-7.5 2.7s-.1 6.2 2.7 7.5c2.8 1.3 6.2.1 7.5-2.7.1-.1.1-.3.2-.4h28.6c1.1 2.9 4.4 4.4 7.3 3.3s4.4-4.4 3.3-7.3c-.8-2.3-2.9-3.7-5.2-3.7zM342.9 95c-1 0-1.9-.8-1.9-1.9s.8-1.9 1.9-1.9 1.9.8 1.9 1.9c0 1-.9 1.9-1.9 1.9zm19.7-23.4c1 0 1.9.8 1.9 1.9 0 1-.8 1.9-1.9 1.9s-1.9-.8-1.9-1.9c0-1.1.8-1.9 1.9-1.9zm14.2 19.6h-28.6c-.1-.2-.1-.3-.2-.4l12.2-12.1c1.5.7 3.3.7 4.8 0l12 12c-.1.1-.2.3-.2.5zm5.4 3.7c-1 0-1.9-.8-1.9-1.9s.8-1.9 1.9-1.9 1.8.9 1.8 1.9c0 1.1-.8 1.9-1.8 1.9z"/></g></g><g id="infographic2--optionB"><path id="_x3C_Rectangle_x3E__3_" fill="#FFF" fill-opacity="0" d="M418.2 14.6H524v69.8H418.2z"/><g id="content-3"><path d="M444.2 67.7h-5.5V58h5.3v1.4h-3.6v2.8h3.4v1.4h-3.4v2.9h3.9c-.1-.1-.1 1.2-.1 1.2zM454.2 67.7h-1.8l-4.7-7.2-.3-.6c0 .4.1.9 0 1.3v6.4h-1.6V58h1.9l4.5 7c.2.3.3.5.4.6-.1-.4-.1-.9-.1-1.3V58h1.6v9.7zM456.6 67.7V58h2.8c3.6 0 5.4 1.6 5.4 4.8.1 1.4-.5 2.7-1.5 3.6-1.1 1-2.5 1.4-4 1.4h-2.7v-.1zm1.6-8.4v7h1.3c1 .1 1.9-.3 2.7-.9.7-.7 1-1.7 1-2.7 0-2.3-1.2-3.4-3.5-3.4h-1.5zM477.9 63.8c0 2.7-1.3 4.1-3.9 4.1-2.5 0-3.7-1.3-3.7-4v-6h1.6v5.6c0 1.9.7 2.9 2.2 2.9 1.5 0 2.2-.9 2.1-2.8V58h1.6l.1 5.8zM479.7 67.3v-1.7c.2.1.3.3.5.4.2.1.4.2.7.3.2.1.5.1.7.2.2 0 .4.1.6.1.5 0 1.1-.1 1.5-.3.3-.2.5-.6.5-1 0-.2-.1-.4-.2-.6-.1-.2-.3-.3-.5-.5s-.5-.3-.7-.4l-.9-.4c-.3-.2-.6-.4-.9-.5-.3-.2-.5-.4-.7-.6-.2-.2-.4-.5-.5-.8-.1-.3-.2-.7-.2-1 0-.4.1-.8.3-1.2.2-.3.5-.6.8-.8.4-.2.7-.4 1.1-.5.4-.1.9-.2 1.3-.2.8 0 1.5.1 2.2.3v1.6c-.6-.4-1.4-.6-2.1-.6-.2 0-.5 0-.7.1-.2 0-.4.1-.6.2-.2.1-.3.2-.5.4-.1.2-.2.4-.2.6 0 .2 0 .4.1.6.1.2.2.3.4.4.2.1.4.3.6.4l.9.4c.3.2.7.4 1 .6.3.2.6.4.8.7.2.2.4.5.5.8.1.3.2.7.2 1 0 .4-.1.9-.3 1.3-.2.3-.5.6-.8.8-.4.2-.8.4-1.2.5-.5.1-.9.1-1.4.1h-.6c-.2 0-.5-.1-.7-.1-.2 0-.5-.1-.7-.2.1-.2-.1-.3-.3-.4zM493.2 67.7h-5.5V58h5.3v1.4h-3.6v2.8h3.4v1.4h-3.4v2.9h3.9c-.1-.1-.1 1.2-.1 1.2zM502.5 67.7h-1.9l-1.6-2.6c-.1-.2-.3-.4-.4-.6-.1-.2-.3-.3-.4-.4-.1-.1-.3-.2-.5-.2-.2-.1-.4-.1-.5-.1h-.6v4H495V58h3.2c.4 0 .8 0 1.3.2.4.1.7.3 1 .5.3.2.5.5.7.8.2.4.2.8.2 1.2 0 .3 0 .6-.1 1-.1.3-.2.5-.4.8-.2.2-.4.4-.7.6-.3.2-.6.3-.9.4.2.1.3.2.5.3l.2.2c.1.1.2.3.4.4l.4.6 1.7 2.7zm-5.9-8.4v3.2h1.4c.2 0 .5 0 .7-.1.2-.1.4-.2.5-.3.2-.1.3-.3.4-.5.1-.2.1-.5.1-.7 0-.4-.1-.8-.4-1.1-.4-.3-.8-.4-1.3-.4l-1.4-.1zM503.2 67.3v-1.7c.2.1.3.3.5.4.2.1.4.2.7.3.2.1.5.1.7.2.2 0 .4.1.6.1.5 0 1.1-.1 1.5-.3.3-.2.5-.6.5-1 0-.2-.1-.4-.2-.6-.1-.2-.3-.3-.5-.5s-.5-.3-.7-.4l-.9-.4c-.3-.2-.6-.4-.9-.5-.3-.2-.5-.4-.7-.6-.2-.2-.4-.5-.5-.8-.1-.3-.2-.7-.2-1 0-.4.1-.8.3-1.2.2-.3.5-.6.8-.8.4-.2.7-.4 1.1-.5.4-.1.9-.2 1.3-.2.8 0 1.5.1 2.2.3v1.6c-.6-.4-1.4-.6-2.1-.6-.2 0-.5 0-.7.1-.2 0-.4.1-.6.2-.2.1-.3.2-.5.4-.1.2-.2.4-.2.6 0 .2 0 .4.1.6.1.2.2.3.4.4.2.1.4.3.6.4l.9.4c.3.2.7.4 1 .6.3.2.6.4.8.7.2.2.4.5.5.8.1.3.2.7.2 1 0 .4-.1.9-.3 1.3-.2.3-.5.6-.8.8-.4.2-.8.4-1.2.5-.5.1-.9.1-1.4.1h-.6c-.2 0-.5-.1-.7-.1-.2 0-.5-.1-.7-.2 0-.2-.2-.3-.3-.4z"/><path id="section-1" d="M473.3 24.4c-6.4 0-11.6 5.2-11.6 11.6s5.2 11.6 11.6 11.6 11.6-5.2 11.6-11.6c0-6.4-5.2-11.6-11.6-11.6zm.9 16.3h-1.5v-7.5c-.3.2-.6.4-.9.5-.3.1-.7.3-1 .3v-1.2l.7-.3c.2-.1.5-.2.7-.3.2-.1.4-.2.7-.4.2-.1.5-.3.7-.5h.6v9.4z"/></g></g><path stroke="#686868" stroke-width="3" stroke-linecap="round" stroke-linejoin="round" stroke-miterlimit="10" d="M473.2 78.5v93.3"/><g stroke="#686868" stroke-width="3" stroke-linecap="round" stroke-linejoin="round" stroke-miterlimit="10"><path d="M473.2 241.9v106.4"/><path fill="none" d="M466.5 342.4l6.6 6.6 6.7-6.7"/></g><path d="M465 239c5.3 2.3 11.3 2.3 16.6 0M481.7 174.1c-5.3-2.3-11.3-2.3-16.6 0" fill="none" stroke="#FFF" stroke-width="3" stroke-linecap="round" stroke-linejoin="round"/></svg>