<?xml version="1.0" encoding="utf-8"?>
<!-- Generator: Adobe Illustrator 18.0.0, SVG Export Plug-In . SVG Version: 6.00 Build 0)  -->
<!DOCTYPE svg PUBLIC "-//W3C//DTD SVG 1.1//EN" "http://www.w3.org/Graphics/SVG/1.1/DTD/svg11.dtd">
<svg version="1.1" id="Layer_1" xmlns="http://www.w3.org/2000/svg" xmlns:xlink="http://www.w3.org/1999/xlink" x="0px" y="0px"
	 width="960px" height="255px" viewBox="0 0 960 255" enable-background="new 0 0 960 255" xml:space="preserve">
<g>
	<g>
		
			<line fill="none" stroke="#686868" stroke-width="3" stroke-linecap="round" stroke-linejoin="round" stroke-miterlimit="10" x1="468.2" y1="211.4" x2="468.2" y2="240.8"/>
		
			<polyline fill="none" stroke="#686868" stroke-width="3" stroke-linecap="round" stroke-linejoin="round" stroke-miterlimit="10" points="
			461.5,237.5 468.1,244.1 474.8,237.4 		"/>
		
			<polyline fill="none" stroke="#686868" stroke-width="3" stroke-linecap="round" stroke-linejoin="round" stroke-miterlimit="10" points="
			434.1,166.1 434.1,185.1 434.1,205.8 468.2,205.8 468.2,215.5 		"/>
		
			<polyline fill="none" stroke="#686868" stroke-width="3" stroke-linecap="round" stroke-linejoin="round" stroke-miterlimit="10" points="
			503.8,166.1 503.8,185.1 503.8,205.8 468.2,205.8 468.2,212.7 		"/>
	</g>
	<g>
		<g>
			<path d="M451.9,36.1l-2.7,9.8h-1.8l-1.9-6.8c-0.1-0.3-0.1-0.6-0.1-1l0,0c0,0.3-0.1,0.6-0.2,0.9l-1.9,6.8h-1.9l-2.7-9.8h1.8
				l1.8,7.1c0.1,0.3,0.1,0.6,0.1,0.9l0,0c0-0.2,0.1-0.5,0.2-0.9l2-7.1h1.7l1.8,7.2c0.1,0.2,0.1,0.5,0.1,0.9l0,0
				c0-0.2,0.1-0.5,0.2-0.9l1.7-7.2L451.9,36.1L451.9,36.1z"/>
			<path d="M458.8,45.9h-5.5v-9.8h5.3v1.4H455v2.8h3.4v1.4H455v2.9h3.9L458.8,45.9L458.8,45.9z"/>
			<path d="M460.5,45.9v-9.8h3.1c0.9,0,1.7,0.2,2.2,0.6c0.6,0.4,0.8,0.9,0.8,1.6c0,0.6-0.2,1-0.5,1.4s-0.7,0.7-1.3,0.9l0,0
				c0.7,0.1,1.2,0.3,1.6,0.7s0.6,1,0.6,1.6c0,0.8-0.3,1.5-1,2s-1.5,0.8-2.5,0.8h-3L460.5,45.9L460.5,45.9z M462.1,37.4v2.8h1
				c0.6,0,1-0.1,1.3-0.4s0.5-0.6,0.5-1.1c0-0.8-0.6-1.3-1.7-1.3H462.1z M462.1,41.5v3.1h1.4c0.6,0,1.1-0.1,1.4-0.4s0.5-0.7,0.5-1.2
				c0-1-0.7-1.5-2.1-1.5L462.1,41.5L462.1,41.5z"/>
			<path d="M479,37.5h-2.8v8.4h-1.6v-8.4h-2.8v-1.4h7.2L479,37.5L479,37.5z"/>
			<path d="M482.1,45.9h-1.7v-9.8h1.7V45.9z"/>
			<path d="M489.9,45.9h-5.5v-9.8h5.3v1.4h-3.6v2.8h3.4v1.4h-3.4v2.9h3.9L489.9,45.9L489.9,45.9z"/>
			<path d="M499.2,45.9h-1.9l-1.6-2.6c-0.1-0.2-0.3-0.4-0.4-0.6c-0.1-0.2-0.3-0.3-0.4-0.4s-0.3-0.2-0.5-0.2s-0.3-0.1-0.6-0.1h-0.7v4
				h-1.6v-9.8h3.2c0.5,0,0.9,0.1,1.3,0.2c0.4,0.1,0.7,0.3,1,0.5s0.5,0.5,0.7,0.8s0.2,0.7,0.2,1.2c0,0.3-0.1,0.7-0.2,0.9
				c-0.1,0.3-0.2,0.5-0.4,0.8c-0.2,0.2-0.4,0.4-0.7,0.6c-0.3,0.2-0.6,0.3-0.9,0.4l0,0c0.2,0.1,0.3,0.2,0.5,0.3
				c0.1,0.1,0.3,0.2,0.4,0.4c0.1,0.1,0.2,0.3,0.3,0.4c0.1,0.2,0.2,0.3,0.4,0.6L499.2,45.9z M493.3,37.4v3.2h1.3c0.2,0,0.5,0,0.7-0.1
				s0.4-0.2,0.5-0.3c0.2-0.1,0.3-0.3,0.4-0.5s0.1-0.4,0.1-0.7c0-0.5-0.1-0.8-0.4-1.1s-0.7-0.4-1.3-0.4h-1.3L493.3,37.4L493.3,37.4z"
				/>
		</g>
		<g>
			<path d="M468.5,9c-5.5,0-9.9,4.4-9.9,9.9s4.4,9.9,9.9,9.9s9.9-4.4,9.9-9.9C478.5,13.4,474,9,468.5,9z M471.2,21.3H470V23h-1.2
				v-1.7h-3.5v-1c0.3-0.4,0.6-0.7,1-1.2c0.3-0.4,0.7-0.8,1-1.3c0.3-0.4,0.6-0.9,0.9-1.3s0.5-0.9,0.7-1.3h1.3v5h1.2v1.1H471.2
				L471.2,21.3z"/>
			<path d="M466.5,20.3h2.3V17c-0.4,0.7-0.8,1.3-1.2,1.9C467.2,19.4,466.8,19.9,466.5,20.3z"/>
		</g>
	</g>
	<g>
		<path fill="none" stroke="#00BCF2" stroke-width="3" stroke-linecap="round" stroke-linejoin="round" stroke-miterlimit="10" d="
			M425.8,164.4c0,0,7.9,4,16.6,0"/>
		<g>
			<g>
				<path fill="#00BCF2" d="M320.1,113.9c-0.3,0-0.5-0.1-0.7-0.3s-0.3-0.4-0.3-0.6c0-0.3,0.1-0.5,0.3-0.6c0.2-0.1,0.4-0.3,0.7-0.3
					c0.3,0,0.5,0.1,0.7,0.3s0.3,0.4,0.3,0.6s-0.1,0.5-0.3,0.6C320.6,113.8,320.3,113.9,320.1,113.9z M320.9,122.4h-1.6v-7h1.6V122.4
					z"/>
				<path fill="#00BCF2" d="M327.1,122.5c-1.4,0-2.5-0.5-3.4-1.4c-0.8-0.9-1.3-2.1-1.3-3.6c0-1.6,0.4-2.8,1.3-3.8
					c0.9-0.9,2-1.4,3.5-1.4c1.4,0,2.5,0.5,3.3,1.4s1.3,2.1,1.3,3.6c0,1.6-0.4,2.8-1.3,3.8C329.7,122.1,328.5,122.5,327.1,122.5z
					 M327.2,113.9c-0.9,0-1.6,0.3-2.2,1s-0.8,1.5-0.8,2.6s0.3,2,0.8,2.6c0.5,0.7,1.3,1,2.1,1c0.9,0,1.7-0.3,2.2-0.9s0.8-1.5,0.8-2.6
					c0-1.2-0.3-2.1-0.8-2.7C328.8,114.3,328.1,113.9,327.2,113.9z"/>
				<path fill="#00BCF2" d="M333.2,122v-1.7c0.1,0.1,0.3,0.3,0.5,0.4c0.2,0.1,0.4,0.2,0.7,0.3c0.2,0.1,0.5,0.1,0.7,0.2
					c0.2,0,0.4,0.1,0.6,0.1c0.7,0,1.2-0.1,1.5-0.3s0.5-0.6,0.5-1c0-0.2-0.1-0.4-0.2-0.6s-0.3-0.3-0.5-0.5s-0.4-0.3-0.7-0.4
					c-0.3-0.1-0.6-0.3-0.9-0.4c-0.3-0.2-0.6-0.4-0.9-0.5c-0.3-0.2-0.5-0.4-0.7-0.6s-0.4-0.5-0.5-0.7s-0.2-0.6-0.2-1
					c0-0.5,0.1-0.9,0.3-1.2s0.5-0.6,0.8-0.8s0.7-0.4,1.2-0.5s0.9-0.2,1.3-0.2c1,0,1.8,0.1,2.2,0.3v1.6c-0.6-0.4-1.3-0.6-2.1-0.6
					c-0.2,0-0.5,0-0.7,0.1c-0.2,0-0.5,0.1-0.6,0.2s-0.3,0.2-0.5,0.4s-0.2,0.4-0.2,0.6c0,0.2,0,0.4,0.1,0.6s0.2,0.3,0.4,0.4
					c0.2,0.1,0.4,0.3,0.6,0.4c0.3,0.1,0.5,0.3,0.9,0.4c0.3,0.2,0.7,0.4,1,0.6s0.6,0.4,0.8,0.6c0.2,0.2,0.4,0.5,0.5,0.8
					s0.2,0.6,0.2,1c0,0.5-0.1,0.9-0.3,1.3c-0.2,0.3-0.5,0.6-0.8,0.8s-0.7,0.4-1.2,0.5c-0.4,0.1-0.9,0.1-1.4,0.1c-0.2,0-0.4,0-0.6,0
					s-0.5-0.1-0.7-0.1s-0.5-0.1-0.7-0.2C333.5,122.1,333.3,122.1,333.2,122z"/>
				<path fill="#00BCF2" d="M342.5,120.7l-1.1,3.4h-1.2l0.7-3.4H342.5z"/>
				<path fill="#00BCF2" d="M356.4,122.4h-1.8l-0.9-2.5h-3.8l-0.8,2.5h-1.8l3.7-9.8h1.8L356.4,122.4z M353.3,118.6l-1.4-3.9
					c0-0.1-0.1-0.3-0.1-0.6l0,0c0,0.3-0.1,0.5-0.1,0.6l-1.3,3.9H353.3z"/>
				<path fill="#00BCF2" d="M363.8,122.4h-1.6v-3.9c0-1.3-0.5-2-1.4-2c-0.5,0-0.9,0.2-1.2,0.5c-0.3,0.4-0.5,0.8-0.5,1.4v4h-1.6v-7
					h1.6v1.2l0,0c0.5-0.9,1.3-1.3,2.3-1.3c0.8,0,1.3,0.2,1.7,0.7c0.4,0.5,0.6,1.2,0.6,2.1v4.3H363.8z"/>
				<path fill="#00BCF2" d="M372,122.4h-1.6v-1.2l0,0c-0.5,0.9-1.3,1.3-2.3,1.3c-0.9,0-1.5-0.3-2.1-0.9c-0.5-0.6-0.8-1.5-0.8-2.5
					c0-1.2,0.3-2.1,0.9-2.8s1.3-1,2.3-1c0.9,0,1.6,0.4,2,1.1l0,0v-4.3h1.6V122.4z M370.5,119.2v-0.9c0-0.5-0.2-0.9-0.5-1.3
					c-0.3-0.3-0.7-0.5-1.2-0.5c-0.6,0-1.1,0.2-1.4,0.7c-0.3,0.4-0.5,1-0.5,1.8c0,0.7,0.2,1.3,0.5,1.7s0.8,0.6,1.3,0.6s1-0.2,1.3-0.6
					C370.3,120.3,370.5,119.8,370.5,119.2z"/>
				<path fill="#00BCF2" d="M378.1,116.9c-0.2-0.1-0.5-0.2-0.8-0.2c-0.5,0-0.9,0.2-1.2,0.6c-0.3,0.4-0.5,1-0.5,1.7v3.3H374v-7h1.6
					v1.4l0,0c0.2-0.5,0.4-0.9,0.7-1.1c0.3-0.3,0.7-0.4,1.1-0.4c0.3,0,0.5,0,0.7,0.1L378.1,116.9L378.1,116.9z"/>
				<path fill="#00BCF2" d="M382.2,122.5c-1.1,0-1.9-0.3-2.6-1s-1-1.5-1-2.6c0-1.2,0.3-2.1,1-2.7c0.7-0.6,1.6-1,2.7-1s1.9,0.3,2.5,1
					c0.6,0.6,0.9,1.5,0.9,2.7c0,1.1-0.3,2-1,2.7C384.2,122.2,383.3,122.5,382.2,122.5z M382.3,116.5c-0.6,0-1.1,0.2-1.5,0.6
					c-0.4,0.4-0.5,1-0.5,1.8c0,0.7,0.2,1.3,0.5,1.7c0.4,0.4,0.8,0.6,1.5,0.6c0.6,0,1.1-0.2,1.4-0.6c0.3-0.4,0.5-1,0.5-1.8
					s-0.2-1.4-0.5-1.8C383.4,116.7,382.9,116.5,382.3,116.5z"/>
				<path fill="#00BCF2" d="M388.2,113.9c-0.3,0-0.5-0.1-0.7-0.3s-0.3-0.4-0.3-0.6c0-0.3,0.1-0.5,0.3-0.6c0.2-0.1,0.4-0.3,0.7-0.3
					c0.3,0,0.5,0.1,0.7,0.3s0.3,0.4,0.3,0.6s-0.1,0.5-0.3,0.6C388.7,113.8,388.5,113.9,388.2,113.9z M389,122.4h-1.6v-7h1.6V122.4z"
					/>
				<path fill="#00BCF2" d="M397.4,122.4h-1.6v-1.2l0,0c-0.5,0.9-1.3,1.3-2.3,1.3c-0.9,0-1.5-0.3-2.1-0.9c-0.5-0.6-0.8-1.5-0.8-2.5
					c0-1.2,0.3-2.1,0.9-2.8s1.3-1,2.3-1c0.9,0,1.6,0.4,2,1.1l0,0v-4.3h1.6V122.4z M395.8,119.2v-0.9c0-0.5-0.2-0.9-0.5-1.3
					c-0.3-0.3-0.7-0.5-1.2-0.5c-0.6,0-1.1,0.2-1.4,0.7c-0.3,0.4-0.5,1-0.5,1.8c0,0.7,0.2,1.3,0.5,1.7s0.8,0.6,1.3,0.6s1-0.2,1.3-0.6
					C395.7,120.3,395.8,119.8,395.8,119.2z"/>
				<path fill="#00BCF2" d="M400.9,120.7l-1.1,3.4h-1.2l0.7-3.4H400.9z"/>
				<path fill="#00BCF2" d="M326.7,139.1h-1.9l-2-3.6c-0.1-0.1-0.1-0.3-0.2-0.5l0,0c0,0.1-0.1,0.3-0.2,0.5l-2.1,3.6h-2l3.2-4.9
					l-2.9-4.8h2l1.8,3.3c0.1,0.2,0.2,0.4,0.3,0.7l0,0c0.1-0.3,0.2-0.5,0.3-0.7l1.8-3.3h1.8l-3,4.8L326.7,139.1z"/>
				<path fill="#00BCF2" d="M333.2,139.1h-1.5V138l0,0c-0.5,0.8-1.2,1.3-2.1,1.3c-0.7,0-1.2-0.2-1.6-0.6c-0.4-0.4-0.6-0.9-0.6-1.5
					c0-1.3,0.8-2.1,2.3-2.3l2.1-0.3c0-1-0.5-1.5-1.4-1.5c-0.8,0-1.6,0.3-2.2,0.9v-1.4c0.7-0.4,1.6-0.7,2.5-0.7
					c1.8,0,2.6,0.9,2.6,2.6L333.2,139.1L333.2,139.1z M331.7,135.6l-1.5,0.2c-0.5,0.1-0.8,0.2-1,0.3c-0.2,0.2-0.3,0.4-0.3,0.8
					c0,0.3,0.1,0.5,0.3,0.7c0.2,0.2,0.5,0.3,0.8,0.3c0.5,0,0.9-0.2,1.2-0.5c0.3-0.3,0.5-0.8,0.5-1.3V135.6z"/>
				<path fill="#00BCF2" d="M345.6,139.1H344v-3.8c0-0.7-0.1-1.3-0.3-1.6c-0.2-0.3-0.6-0.5-1-0.5s-0.8,0.2-1.1,0.6
					c-0.3,0.4-0.4,0.9-0.4,1.5v3.8h-1.6v-3.9c0-1.3-0.5-1.9-1.4-1.9c-0.4,0-0.8,0.2-1.1,0.6c-0.3,0.4-0.4,0.9-0.4,1.5v3.8h-1.6v-7
					h1.6v1.1l0,0c0.5-0.8,1.2-1.3,2.2-1.3c0.5,0,0.9,0.1,1.3,0.4s0.6,0.6,0.7,1c0.5-1,1.3-1.4,2.3-1.4c1.5,0,2.3,0.9,2.3,2.8v4.3
					L345.6,139.1L345.6,139.1z"/>
				<path fill="#00BCF2" d="M352.9,139.1h-1.5V138l0,0c-0.5,0.8-1.2,1.3-2.1,1.3c-0.7,0-1.2-0.2-1.6-0.6c-0.4-0.4-0.6-0.9-0.6-1.5
					c0-1.3,0.8-2.1,2.3-2.3l2.1-0.3c0-1-0.5-1.5-1.4-1.5c-0.8,0-1.6,0.3-2.2,0.9v-1.4c0.7-0.4,1.6-0.7,2.5-0.7
					c1.8,0,2.6,0.9,2.6,2.6L352.9,139.1L352.9,139.1z M351.3,135.6l-1.5,0.2c-0.5,0.1-0.8,0.2-1,0.3c-0.2,0.2-0.3,0.4-0.3,0.8
					c0,0.3,0.1,0.5,0.3,0.7c0.2,0.2,0.5,0.3,0.8,0.3c0.5,0,0.9-0.2,1.2-0.5c0.3-0.3,0.5-0.8,0.5-1.3V135.6z"/>
				<path fill="#00BCF2" d="M358.8,133.6c-0.2-0.1-0.5-0.2-0.8-0.2c-0.5,0-0.9,0.2-1.2,0.6c-0.3,0.4-0.5,1-0.5,1.7v3.3h-1.6v-7h1.6
					v1.4l0,0c0.2-0.5,0.4-0.9,0.7-1.1c0.3-0.3,0.7-0.4,1.1-0.4c0.3,0,0.5,0,0.7,0.1L358.8,133.6L358.8,133.6z"/>
				<path fill="#00BCF2" d="M360.7,130.6c-0.3,0-0.5-0.1-0.7-0.3s-0.3-0.4-0.3-0.6c0-0.3,0.1-0.5,0.3-0.6s0.4-0.3,0.7-0.3
					c0.3,0,0.5,0.1,0.7,0.3s0.3,0.4,0.3,0.6c0,0.2-0.1,0.5-0.3,0.6C361.2,130.6,361,130.6,360.7,130.6z M361.5,139.1h-1.6v-7h1.6
					V139.1z"/>
				<path fill="#00BCF2" d="M369.8,139.1h-1.6v-3.9c0-1.3-0.5-2-1.4-2c-0.5,0-0.9,0.2-1.2,0.5c-0.3,0.4-0.5,0.8-0.5,1.4v4h-1.6v-7
					h1.6v1.2l0,0c0.5-0.9,1.3-1.3,2.3-1.3c0.8,0,1.3,0.2,1.7,0.7c0.4,0.5,0.6,1.2,0.6,2.1v4.3H369.8z"/>
				<path fill="#00BCF2" d="M373.2,137.4l-1.1,3.4h-1.2l0.7-3.4H373.2z"/>
				<path fill="#00BCF2" d="M384.2,139.1h-1.5V138l0,0c-0.5,0.8-1.2,1.3-2.1,1.3c-0.7,0-1.2-0.2-1.6-0.6c-0.4-0.4-0.6-0.9-0.6-1.5
					c0-1.3,0.8-2.1,2.3-2.3l2.1-0.3c0-1-0.5-1.5-1.4-1.5c-0.8,0-1.6,0.3-2.2,0.9v-1.4c0.7-0.4,1.6-0.7,2.5-0.7
					c1.8,0,2.6,0.9,2.6,2.6L384.2,139.1L384.2,139.1z M382.7,135.6l-1.5,0.2c-0.5,0.1-0.8,0.2-1,0.3c-0.2,0.2-0.3,0.4-0.3,0.8
					c0,0.3,0.1,0.5,0.3,0.7c0.2,0.2,0.5,0.3,0.8,0.3c0.5,0,0.9-0.2,1.2-0.5c0.3-0.3,0.5-0.8,0.5-1.3V135.6z"/>
				<path fill="#00BCF2" d="M392.4,139.1h-1.6v-3.9c0-1.3-0.5-2-1.4-2c-0.5,0-0.9,0.2-1.2,0.5c-0.3,0.4-0.5,0.8-0.5,1.4v4h-1.6v-7
					h1.6v1.2l0,0c0.5-0.9,1.3-1.3,2.3-1.3c0.8,0,1.3,0.2,1.7,0.7c0.4,0.5,0.6,1.2,0.6,2.1v4.3H392.4z"/>
				<path fill="#00BCF2" d="M400.6,139.1H399v-1.2l0,0c-0.5,0.9-1.3,1.3-2.3,1.3c-0.9,0-1.5-0.3-2.1-0.9c-0.5-0.6-0.8-1.5-0.8-2.5
					c0-1.2,0.3-2.1,0.9-2.8s1.3-1,2.3-1c0.9,0,1.6,0.4,2,1.1l0,0v-4.3h1.6V139.1z M399.1,135.9V135c0-0.5-0.2-0.9-0.5-1.3
					c-0.3-0.3-0.7-0.5-1.2-0.5c-0.6,0-1.1,0.2-1.4,0.7c-0.3,0.4-0.5,1-0.5,1.8c0,0.7,0.2,1.3,0.5,1.7s0.8,0.6,1.3,0.6s1-0.2,1.3-0.6
					C398.9,137,399.1,136.5,399.1,135.9z"/>
				<path fill="#00BCF2" d="M327.3,155.8h-1.6v-4.2h-4.6v4.2h-1.6V146h1.6v4.1h4.6V146h1.6V155.8z"/>
				<path fill="#00BCF2" d="M336,147.4h-2.8v8.4h-1.6v-8.4h-2.8V146h7.2L336,147.4L336,147.4z"/>
				<path fill="#00BCF2" d="M347.9,155.8h-1.6v-6.3c0-0.5,0-1.1,0.1-1.9l0,0c-0.1,0.4-0.2,0.7-0.3,0.9l-2.9,7.3H342l-2.9-7.2
					c-0.1-0.2-0.2-0.5-0.3-1l0,0c0,0.4,0.1,1,0.1,1.9v6.3h-1.5V146h2.3l2.6,6.5c0.2,0.5,0.3,0.9,0.4,1.1l0,0
					c0.2-0.5,0.3-0.9,0.4-1.1l2.6-6.5h2.2L347.9,155.8L347.9,155.8z"/>
				<path fill="#00BCF2" d="M355.7,155.8h-5.4V146h1.6v8.4h3.8V155.8z"/>
				<path fill="#00BCF2" d="M361.8,146l-4.7,11.4h-1.4l4.7-11.4H361.8z"/>
				<path fill="#00BCF2" d="M366,152.3c0,1.2-0.3,2.1-0.9,2.7c-0.6,0.6-1.3,1-2.3,1c-0.4,0-0.8-0.1-1.1-0.2v-1.5
					c0.3,0.2,0.6,0.3,1,0.3c1.1,0,1.6-0.8,1.6-2.5v-6h1.6L366,152.3L366,152.3z"/>
				<path fill="#00BCF2" d="M367.9,155.4v-1.7c0.1,0.1,0.3,0.3,0.5,0.4c0.2,0.1,0.4,0.2,0.7,0.3c0.2,0.1,0.5,0.1,0.7,0.2
					c0.2,0,0.4,0.1,0.6,0.1c0.7,0,1.2-0.1,1.5-0.3s0.5-0.6,0.5-1c0-0.2-0.1-0.4-0.2-0.6s-0.3-0.3-0.5-0.5s-0.4-0.3-0.7-0.4
					c-0.3-0.1-0.6-0.3-0.9-0.4c-0.3-0.2-0.6-0.4-0.9-0.5c-0.3-0.2-0.5-0.4-0.7-0.6c-0.2-0.2-0.4-0.5-0.5-0.7s-0.2-0.6-0.2-1
					c0-0.5,0.1-0.9,0.3-1.2s0.5-0.6,0.8-0.8s0.7-0.4,1.2-0.5s0.9-0.2,1.3-0.2c1,0,1.8,0.1,2.2,0.3v1.6c-0.6-0.4-1.3-0.6-2.1-0.6
					c-0.2,0-0.5,0-0.7,0.1c-0.2,0-0.5,0.1-0.6,0.2c-0.1,0.1-0.3,0.2-0.5,0.4s-0.2,0.4-0.2,0.6c0,0.2,0,0.4,0.1,0.6s0.2,0.3,0.4,0.4
					c0.2,0.1,0.4,0.3,0.6,0.4c0.3,0.1,0.5,0.3,0.9,0.4c0.3,0.2,0.7,0.4,1,0.6s0.6,0.4,0.8,0.6c0.2,0.2,0.4,0.5,0.5,0.8
					s0.2,0.6,0.2,1c0,0.5-0.1,0.9-0.3,1.3c-0.2,0.3-0.5,0.6-0.8,0.8s-0.7,0.4-1.2,0.5c-0.4,0.1-0.9,0.1-1.4,0.1c-0.2,0-0.4,0-0.6,0
					s-0.5-0.1-0.7-0.1s-0.5-0.1-0.7-0.2C368.2,155.6,368,155.5,367.9,155.4z"/>
			</g>
			<g>
				<path fill="#00BCF2" d="M329.9,104.4h-1.6v-6.3c0-0.5,0-1.1,0.1-1.9l0,0c-0.1,0.4-0.2,0.7-0.3,0.9l-2.9,7.3h-1.1l-2.9-7.2
					c-0.1-0.2-0.2-0.5-0.3-1l0,0c0,0.4,0.1,1,0.1,1.9v6.3h-1.5v-9.8h2.3l2.6,6.5c0.2,0.5,0.3,0.9,0.4,1.1l0,0
					c0.2-0.5,0.3-0.9,0.4-1.1l2.6-6.5h2.2v9.8H329.9z"/>
				<path fill="#00BCF2" d="M336.4,104.6c-1.4,0-2.5-0.5-3.4-1.4c-0.8-0.9-1.3-2.1-1.3-3.6c0-1.6,0.4-2.8,1.3-3.8
					c0.9-0.9,2-1.4,3.5-1.4c1.4,0,2.5,0.5,3.3,1.4s1.3,2.1,1.3,3.6c0,1.6-0.4,2.8-1.3,3.8C338.9,104.1,337.8,104.6,336.4,104.6z
					 M336.4,95.9c-0.9,0-1.6,0.3-2.2,1s-0.8,1.5-0.8,2.6s0.3,2,0.8,2.6c0.5,0.7,1.3,1,2.1,1c0.9,0,1.7-0.3,2.2-0.9
					c0.5-0.6,0.8-1.5,0.8-2.6c0-1.2-0.3-2.1-0.8-2.7C338,96.3,337.3,95.9,336.4,95.9z"/>
				<path fill="#00BCF2" d="M342.9,104.4v-9.8h3.1c0.9,0,1.7,0.2,2.2,0.6c0.6,0.4,0.8,0.9,0.8,1.6c0,0.6-0.2,1-0.5,1.4
					s-0.7,0.7-1.3,0.9l0,0c0.7,0.1,1.2,0.3,1.6,0.7s0.6,1,0.6,1.6c0,0.8-0.3,1.5-1,2s-1.5,0.8-2.5,0.8h-3L342.9,104.4L342.9,104.4z
					 M344.5,96v2.8h1c0.6,0,1-0.1,1.3-0.4c0.3-0.3,0.5-0.6,0.5-1.1c0-0.8-0.6-1.3-1.7-1.3H344.5z M344.5,100v3.1h1.4
					c0.6,0,1.1-0.1,1.4-0.4c0.3-0.3,0.5-0.7,0.5-1.2c0-1-0.7-1.5-2.1-1.5L344.5,100L344.5,100z"/>
				<path fill="#00BCF2" d="M352.9,104.4h-1.7v-9.8h1.7V104.4z"/>
				<path fill="#00BCF2" d="M360.7,104.4h-5.4v-9.8h1.6v8.4h3.8V104.4z"/>
				<path fill="#00BCF2" d="M367.6,104.4h-5.5v-9.8h5.3V96h-3.6v2.8h3.4v1.4h-3.4v2.9h3.9L367.6,104.4L367.6,104.4z"/>
				<path fill="#00BCF2" d="M381.2,104.4h-1.8l-0.9-2.5h-3.8l-0.8,2.5h-1.8l3.7-9.8h1.8L381.2,104.4z M378.1,100.6l-1.4-3.9
					c0-0.1-0.1-0.3-0.1-0.6l0,0c0,0.3-0.1,0.5-0.1,0.6l-1.3,3.9H378.1z"/>
				<path fill="#00BCF2" d="M384.1,100.9v3.5h-1.6v-9.8h3c1.1,0,2,0.3,2.6,0.8s0.9,1.3,0.9,2.2s-0.3,1.7-1,2.3
					c-0.6,0.6-1.5,0.9-2.6,0.9L384.1,100.9L384.1,100.9z M384.1,96v3.6h1c0.7,0,1.2-0.2,1.6-0.5s0.5-0.8,0.5-1.4
					c0-1.1-0.7-1.7-2-1.7L384.1,96L384.1,96z"/>
				<path fill="#00BCF2" d="M392.3,100.9v3.5h-1.6v-9.8h3c1.1,0,2,0.3,2.6,0.8s0.9,1.3,0.9,2.2s-0.3,1.7-1,2.3
					c-0.6,0.6-1.5,0.9-2.6,0.9L392.3,100.9L392.3,100.9z M392.3,96v3.6h1c0.7,0,1.2-0.2,1.6-0.5s0.5-0.8,0.5-1.4
					c0-1.1-0.7-1.7-2-1.7L392.3,96L392.3,96z"/>
			</g>
		</g>
		<g>
			<path fill="#00BCF2" d="M444.1,90.5L444.1,90.5l-29.3,4l0,0c-2.5,0.4-2.5,1-2.1,4.1l6.9,50.1c0.4,3.1,0.5,3.7,3.1,3.4
				c0,0,0.8-0.1,0.9-0.1l27.5-3.8c0.1,0,0.9-0.1,0.9-0.1c2.5-0.4,2.5-1,2.1-4.1l-6.8-50.1C446.8,90.8,446.7,90.2,444.1,90.5
				L444.1,90.5z M425.7,95l8.1-1.1c0.2,0,0.3,0.1,0.3,0.3c0,0.1-0.1,0.3-0.2,0.3l-8.1,1.1c-0.1,0-0.3-0.1-0.3-0.3
				C425.4,95.2,425.5,95,425.7,95L425.7,95z M433.1,147.7l-2,0.3c-0.3,0-0.6,0-0.7-0.4c0-0.3,0.2-0.5,0.5-0.5l2-0.3
				c0.3,0,0.6,0,0.7,0.4C433.7,147.5,433.4,147.6,433.1,147.7L433.1,147.7z M438.4,147.3l-2.7,0.4c-0.4,0.1-0.8-0.1-0.9-0.5
				s0.3-0.7,0.7-0.7l2.7-0.4c0.4-0.1,0.8,0.1,0.9,0.5C439.1,147,438.8,147.2,438.4,147.3L438.4,147.3z M442.8,146.3l-2,0.3
				c-0.3,0-0.6,0-0.7-0.4c0-0.3,0.2-0.5,0.5-0.5l2-0.3c0.3,0,0.6,0,0.7,0.4C443.4,146.1,443.1,146.3,442.8,146.3L442.8,146.3z
				 M450.9,139.3c0.4,2.6,0.2,3.2-2.3,3.6l-13.3,1.8l-10.7,1.5c-2.5,0.3-2.8-0.2-3.2-2.9l-5.7-41.7c-0.4-2.8-0.1-2.8,2.7-3.2
				l10.4-1.4l13-1.8c2.8-0.4,3-0.4,3.4,2.4L450.9,139.3L450.9,139.3L450.9,139.3z"/>
			<path fill="#00BCF2" d="M443.8,99.5c-0.4-2.7-0.7-2.6-3.4-2.3l-20.2,2.8c-2.7,0.4-2.9,0.4-2.6,3.1l5.2,38.2
				c0.4,2.7,0.7,3.1,3.4,2.7l20.2-2.8c2.7-0.4,2.9-0.9,2.6-3.6L443.8,99.5L443.8,99.5L443.8,99.5z M433.8,129.6l-8.9-3.7l-1.3-9.6
				l8.9,3.6L433.8,129.6L433.8,129.6L433.8,129.6z M424.1,115l7.6-5.9l9,3.7l-7.6,5.9L424.1,115L424.1,115L424.1,115z M442.9,123.5
				l-7.6,5.9l-1.3-9.5l7.6-5.9L442.9,123.5L442.9,123.5L442.9,123.5z"/>
		</g>
	</g>
	<path fill="none" stroke="#000000" stroke-width="3" stroke-linecap="round" stroke-linejoin="round" stroke-miterlimit="10" d="
		M495.5,164.4c0,0,7.9,4,16.6,0"/>
	<g>
		<g>
			<g>
				<path d="M539.2,123.4c-0.3,0-0.5-0.1-0.7-0.3s-0.3-0.4-0.3-0.6c0-0.3,0.1-0.5,0.3-0.7s0.4-0.3,0.7-0.3s0.5,0.1,0.7,0.3
					s0.3,0.4,0.3,0.7c0,0.2-0.1,0.5-0.3,0.6C539.7,123.3,539.4,123.4,539.2,123.4z"/>
				<path d="M550.3,123.2h-1.8l-4.7-7.2c-0.1-0.2-0.2-0.4-0.3-0.6l0,0c0,0.2,0.1,0.7,0.1,1.3v6.4H542v-9.8h1.9l4.5,7
					c0.2,0.3,0.3,0.5,0.4,0.6l0,0c0-0.3-0.1-0.7-0.1-1.3v-6.3h1.6L550.3,123.2L550.3,123.2z"/>
				<path d="M558.2,123.2h-5.5v-9.8h5.3v1.4h-3.6v2.8h3.4v1.4h-3.4v2.9h3.9v1.3L558.2,123.2L558.2,123.2z"/>
				<path d="M566.3,114.8h-2.8v8.4h-1.6v-8.4H559v-1.4h7.2L566.3,114.8L566.3,114.8z"/>
				<path d="M568.1,121.6L567,125h-1.2l0.7-3.4H568.1z"/>
				<path d="M580.7,122.8c-0.7,0.4-1.6,0.6-2.7,0.6c-1.4,0-2.5-0.4-3.4-1.3c-0.9-0.9-1.3-2.1-1.3-3.5c0-1.6,0.5-2.8,1.4-3.8
					s2.2-1.4,3.6-1.4c0.9,0,1.7,0.1,2.3,0.4v1.6c-0.7-0.4-1.4-0.6-2.2-0.6c-1.1,0-1.9,0.3-2.6,1s-1,1.6-1,2.7c0,1.1,0.3,1.9,0.9,2.6
					c0.6,0.6,1.4,1,2.4,1c0.9,0,1.7-0.2,2.4-0.7v1.4H580.7z"/>
				<path d="M589.5,119.7h-2.7v2.7h-1.1v-2.7H583v-1.1h2.7v-2.7h1.1v2.7h2.7V119.7z"/>
				<path d="M599.2,119.7h-2.7v2.7h-1.1v-2.7h-2.7v-1.1h2.7v-2.7h1.1v2.7h2.7V119.7z"/>
				<path d="M603.2,121.6l-1.1,3.4H601l0.7-3.4H603.2z"/>
				<path d="M610.7,119.7v3.5h-1.6v-9.8h3c1.1,0,2,0.3,2.6,0.8s0.9,1.3,0.9,2.2s-0.3,1.7-1,2.3c-0.6,0.6-1.5,0.9-2.6,0.9
					L610.7,119.7L610.7,119.7L610.7,119.7z M610.7,114.8v3.6h1c0.7,0,1.2-0.2,1.6-0.5c0.4-0.3,0.5-0.8,0.5-1.4c0-1.1-0.7-1.7-2-1.7
					L610.7,114.8L610.7,114.8z"/>
				<path d="M625.1,123.2h-1.6V119h-4.6v4.2h-1.6v-9.8h1.6v4.1h4.6v-4.1h1.6V123.2z"/>
				<path d="M629.1,119.7v3.5h-1.6v-9.8h3c1.1,0,2,0.3,2.6,0.8s0.9,1.3,0.9,2.2s-0.3,1.7-1,2.3c-0.6,0.6-1.5,0.9-2.6,0.9
					L629.1,119.7L629.1,119.7L629.1,119.7z M629.1,114.8v3.6h1c0.7,0,1.2-0.2,1.6-0.5c0.4-0.3,0.5-0.8,0.5-1.4c0-1.1-0.7-1.7-2-1.7
					L629.1,114.8L629.1,114.8z"/>
				<path d="M634.7,121.6l-1.1,3.4h-1.2l0.7-3.4H634.7z"/>
				<path d="M540.3,136.4v3.5h-1.6v-9.8h3c1.1,0,2,0.3,2.6,0.8s0.9,1.3,0.9,2.2s-0.3,1.7-1,2.3c-0.6,0.6-1.5,0.9-2.6,0.9
					L540.3,136.4L540.3,136.4z M540.3,131.5v3.6h1c0.7,0,1.2-0.2,1.6-0.5c0.4-0.3,0.5-0.8,0.5-1.4c0-1.1-0.7-1.7-2-1.7L540.3,131.5
					L540.3,131.5z"/>
				<path d="M552.7,133l-3.1,8.1c-0.7,1.4-1.6,2.2-2.7,2.2c-0.3,0-0.6,0-0.8-0.1v-1.3c0.2,0.1,0.5,0.1,0.7,0.1c0.6,0,1-0.3,1.3-0.9
					l0.5-1.1l-2.8-7h1.7l1.7,5.1c0,0.1,0.1,0.2,0.1,0.5l0,0c0-0.1,0.1-0.3,0.1-0.5l1.7-5.1H552.7z"/>
				<path d="M557.4,139.9c-0.3,0.2-0.7,0.2-1.2,0.2c-1.4,0-2-0.6-2-1.9v-3.9H553v-1.2h1.2v-1.6l1.6-0.4v2.1h1.7v1.2h-1.7v3.5
					c0,0.4,0.1,0.7,0.2,0.9c0.1,0.2,0.4,0.3,0.7,0.3s0.5-0.1,0.7-0.2V139.9z"/>
				<path d="M565,139.9h-1.6v-3.8c0-1.4-0.5-2.1-1.4-2.1c-0.5,0-0.9,0.2-1.2,0.6c-0.3,0.4-0.5,0.9-0.5,1.5v3.7h-1.6v-10.3h1.6v4.5
					l0,0c0.5-0.9,1.3-1.3,2.3-1.3c1.5,0,2.3,0.9,2.3,2.8v4.4L565,139.9L565,139.9z"/>
				<path d="M570,140.1c-1.1,0-1.9-0.3-2.6-1s-1-1.5-1-2.6c0-1.2,0.3-2.1,1-2.7s1.6-1,2.7-1c1.1,0,1.9,0.3,2.5,1
					c0.6,0.6,0.9,1.5,0.9,2.7c0,1.1-0.3,2-1,2.7C572,139.8,571.1,140.1,570,140.1z M570.1,134.1c-0.6,0-1.1,0.2-1.5,0.6
					c-0.4,0.4-0.5,1-0.5,1.8c0,0.7,0.2,1.3,0.5,1.7c0.4,0.4,0.8,0.6,1.5,0.6c0.6,0,1.1-0.2,1.4-0.6c0.3-0.4,0.5-1,0.5-1.8
					s-0.2-1.4-0.5-1.8C571.2,134.3,570.7,134.1,570.1,134.1z"/>
				<path d="M581.4,139.9h-1.6V136c0-1.3-0.5-2-1.4-2c-0.5,0-0.9,0.2-1.2,0.5c-0.3,0.4-0.5,0.8-0.5,1.4v4h-1.6v-7h1.6v1.2l0,0
					c0.5-0.9,1.3-1.3,2.3-1.3c0.8,0,1.3,0.2,1.7,0.7s0.6,1.2,0.6,2.1v4.3H581.4z"/>
				<path d="M590.3,140.1c-1.1,0-1.9-0.3-2.6-1s-1-1.5-1-2.6c0-1.2,0.3-2.1,1-2.7s1.6-1,2.7-1c1.1,0,1.9,0.3,2.5,1
					c0.6,0.6,0.9,1.5,0.9,2.7c0,1.1-0.3,2-1,2.7C592.2,139.8,591.4,140.1,590.3,140.1z M590.3,134.1c-0.6,0-1.1,0.2-1.5,0.6
					c-0.4,0.4-0.5,1-0.5,1.8c0,0.7,0.2,1.3,0.5,1.7c0.4,0.4,0.8,0.6,1.5,0.6c0.6,0,1.1-0.2,1.4-0.6c0.3-0.4,0.5-1,0.5-1.8
					s-0.2-1.4-0.5-1.8C591.4,134.3,591,134.1,590.3,134.1z"/>
				<path d="M599.5,134.5c-0.2-0.1-0.5-0.2-0.8-0.2c-0.5,0-0.9,0.2-1.2,0.6c-0.3,0.4-0.5,1-0.5,1.7v3.3h-1.6v-7h1.6v1.4l0,0
					c0.2-0.5,0.4-0.9,0.7-1.1c0.3-0.3,0.7-0.4,1.1-0.4c0.3,0,0.5,0,0.7,0.1V134.5z"/>
				<path d="M607.9,136.4c0,1.2-0.3,2.1-0.9,2.7c-0.6,0.6-1.3,1-2.3,1c-0.4,0-0.8-0.1-1.1-0.2v-1.5c0.3,0.2,0.6,0.3,1,0.3
					c1.1,0,1.6-0.8,1.6-2.5v-6h1.6v6.2H607.9z"/>
				<path d="M615.2,139.9h-1.5v-1.1l0,0c-0.5,0.8-1.2,1.3-2.1,1.3c-0.7,0-1.2-0.2-1.6-0.6c-0.4-0.4-0.6-0.9-0.6-1.5
					c0-1.3,0.8-2.1,2.3-2.3l2.1-0.3c0-1-0.5-1.5-1.4-1.5c-0.8,0-1.6,0.3-2.2,0.9v-1.4c0.7-0.4,1.6-0.7,2.5-0.7
					c1.8,0,2.6,0.9,2.6,2.6L615.2,139.9L615.2,139.9z M613.7,136.5l-1.5,0.2c-0.5,0.1-0.8,0.2-1,0.3c-0.2,0.2-0.3,0.4-0.3,0.8
					c0,0.3,0.1,0.5,0.3,0.7s0.5,0.3,0.8,0.3c0.5,0,0.9-0.2,1.2-0.5s0.5-0.8,0.5-1.3V136.5z"/>
				<path d="M623.1,133l-2.7,7h-1.7l-2.6-7h1.7l1.5,4.9c0.1,0.4,0.2,0.7,0.2,0.9l0,0c0-0.3,0.1-0.6,0.2-0.9l1.6-4.9H623.1z"/>
				<path d="M629.3,139.9h-1.5v-1.1l0,0c-0.5,0.8-1.2,1.3-2.1,1.3c-0.7,0-1.2-0.2-1.6-0.6c-0.4-0.4-0.6-0.9-0.6-1.5
					c0-1.3,0.8-2.1,2.3-2.3l2.1-0.3c0-1-0.5-1.5-1.4-1.5c-0.8,0-1.6,0.3-2.2,0.9v-1.4c0.7-0.4,1.6-0.7,2.5-0.7
					c1.8,0,2.6,0.9,2.6,2.6L629.3,139.9L629.3,139.9z M627.8,136.5l-1.5,0.2c-0.5,0.1-0.8,0.2-1,0.3c-0.2,0.2-0.3,0.4-0.3,0.8
					c0,0.3,0.1,0.5,0.3,0.7s0.5,0.3,0.8,0.3c0.5,0,0.9-0.2,1.2-0.5s0.5-0.8,0.5-1.3V136.5z"/>
			</g>
			<g>
				<path d="M550.8,96.9l-2.7,9.8h-1.8l-1.9-6.8c-0.1-0.3-0.1-0.6-0.1-1l0,0c0,0.3-0.1,0.6-0.2,0.9l-1.9,6.8h-1.9l-2.7-9.8h1.8
					l1.8,7.1c0.1,0.3,0.1,0.6,0.1,0.9l0,0c0-0.2,0.1-0.5,0.2-0.9l2-7.1h1.7l1.8,7.2c0.1,0.2,0.1,0.5,0.1,0.9l0,0
					c0-0.2,0.1-0.5,0.2-0.9l1.7-7.2L550.8,96.9L550.8,96.9z"/>
				<path d="M557.6,106.6h-5.5v-9.8h5.3v1.4h-3.6v2.8h3.4v1.4h-3.4v2.9h3.9v1.3L557.6,106.6L557.6,106.6z"/>
				<path d="M559.3,106.6v-9.8h3.1c0.9,0,1.7,0.2,2.2,0.6c0.6,0.4,0.8,0.9,0.8,1.6c0,0.6-0.2,1-0.5,1.4s-0.7,0.7-1.3,0.9l0,0
					c0.7,0.1,1.2,0.3,1.6,0.7c0.4,0.4,0.6,1,0.6,1.6c0,0.8-0.3,1.5-1,2s-1.5,0.8-2.5,0.8h-3L559.3,106.6L559.3,106.6z M561,98.2v2.8
					h1c0.6,0,1-0.1,1.3-0.4s0.5-0.6,0.5-1.1c0-0.8-0.6-1.3-1.7-1.3H561z M561,102.2v3.1h1.4c0.6,0,1.1-0.1,1.4-0.4
					c0.3-0.3,0.5-0.7,0.5-1.2c0-1-0.7-1.5-2.1-1.5L561,102.2L561,102.2z"/>
				<path d="M579.6,106.6h-1.8l-0.9-2.5h-3.8l-0.8,2.5h-1.8l3.7-9.8h1.8L579.6,106.6z M576.5,102.8l-1.4-3.9c0-0.1-0.1-0.3-0.1-0.6
					l0,0c0,0.3-0.1,0.5-0.1,0.6l-1.3,3.9H576.5z"/>
				<path d="M582.5,103.1v3.5h-1.6v-9.8h3c1.1,0,2,0.3,2.6,0.8s0.9,1.3,0.9,2.2s-0.3,1.7-1,2.3c-0.6,0.6-1.5,0.9-2.6,0.9
					L582.5,103.1L582.5,103.1z M582.5,98.2v3.6h1c0.7,0,1.2-0.2,1.6-0.5c0.4-0.3,0.5-0.8,0.5-1.4c0-1.1-0.7-1.7-2-1.7L582.5,98.2
					L582.5,98.2z"/>
				<path d="M590.7,103.1v3.5h-1.6v-9.8h3c1.1,0,2,0.3,2.6,0.8s0.9,1.3,0.9,2.2s-0.3,1.7-1,2.3c-0.6,0.6-1.5,0.9-2.6,0.9
					L590.7,103.1L590.7,103.1z M590.7,98.2v3.6h1c0.7,0,1.2-0.2,1.6-0.5c0.4-0.3,0.5-0.8,0.5-1.4c0-1.1-0.7-1.7-2-1.7L590.7,98.2
					L590.7,98.2z"/>
			</g>
		</g>
		<g>
			<path d="M515.8,139.4c-3.7,2.8-8.1,4.2-12.4,4.2c-6.2,0-12.3-2.8-16.3-8c-6.9-9-5.2-21.8,3.8-28.7c3.7-2.8,8.1-4.2,12.4-4.2
				c6.2,0,12.3,2.8,16.3,8C526.6,119.6,524.8,132.5,515.8,139.4L515.8,139.4z M522.1,108.8c-4.6-6.1-11.6-9.2-18.7-9.2
				c-5,0-10,1.6-14.3,4.9c-10.3,7.9-12.3,22.7-4.4,33c4.6,6.1,11.6,9.2,18.7,9.2c5,0,10-1.6,14.3-4.9
				C528,133.9,530,119.1,522.1,108.8L522.1,108.8z"/>
			<path d="M492.8,127.4c-1.4-1.3-2.5-2.6-3.3-3.9c-2,4-2.7,8.1-2.8,11.4c0.2,0.3,0.2,0.5,0.4,0.7c1,1.3,2.2,2.4,3.4,3.4
				C490.2,136.4,490.5,132,492.8,127.4L492.8,127.4z"/>
			<path d="M499.9,111.7c-1.8,1.3-3.8,2.9-5.7,4.9c-1.1,1.1-2,2.3-2.8,3.4c0.8,1.3,1.9,2.7,3.2,4.1c1-1.4,2.3-2.9,3.8-4.3
				c1.9-1.8,3.7-3.2,5.3-4.3C502.4,114.3,501.1,113,499.9,111.7L499.9,111.7z"/>
			<path d="M519.5,110.4c-0.9-1.1-1.9-2.1-2.9-3c-3.2-0.5-8.1-0.4-13.7,2.6c1.3,1.4,2.6,2.7,3.8,3.9
				C514.1,109.8,519.5,110.4,519.5,110.4L519.5,110.4z"/>
			<path d="M489.4,123.5c0.6-1.1,1.3-2.3,2-3.4c-3.2-5.1-3.1-9.3-2.7-11.3c-0.8,0.8-1.6,1.7-2.2,2.7
				C485.9,114.1,485.8,118.3,489.4,123.5L489.4,123.5z"/>
			<path d="M498.6,127.7c-1.5-1.2-2.8-2.4-3.9-3.5c-0.8,1.1-1.4,2.2-1.9,3.2c1,1,2.2,2.1,3.6,3.2c8.4,6.7,16.8,7.3,21.4,7.3
				c0.3,0,1.8-2,2.6-3.2C518.3,135,509.3,136.2,498.6,127.7L498.6,127.7z"/>
			<path d="M489.4,123.5c0.9,1.3,2,2.6,3.3,3.9c0.5-1.1,1.2-2.2,1.9-3.2c-1.3-1.4-2.4-2.8-3.2-4.1
				C490.7,121.2,490,122.3,489.4,123.5L489.4,123.5z"/>
			<path d="M503.8,115.5c7.7,7.1,16.7,13.1,19,14.7c0.2-0.6,0.4-1.2,0.6-1.8c-2.5-1.8-9-6.9-16.8-14.7
				C505.7,114.3,504.8,114.9,503.8,115.5L503.8,115.5z"/>
			<path d="M502.8,109.9c-1.9-2-3.8-4.1-5.7-6.3c-0.9,0.3-1.8,0.7-2.7,1.1c1.4,2.3,3.4,4.7,5.5,7C500.9,111,501.8,110.4,502.8,109.9
				L502.8,109.9z"/>
			<path d="M502.9,109.8c-1,0.5-2.2,1.3-3.2,2c1.2,1.3,2.5,2.7,3.8,3.9c1-0.7,2.3-1.5,3.2-2C505.5,112.5,504.2,111.2,502.9,109.8
				L502.9,109.8z"/>
			<path d="M502.6,109.6c-1,0.5-1.9,1.2-2.8,1.9c1.2,1.3,3,3,4.3,4.3c1-0.7,1.8-1.3,2.7-1.8C505.5,112.7,503.9,111,502.6,109.6
				L502.6,109.6z"/>
			<path d="M512.9,120.5c-1.9,1.5-2.3,4.2-0.8,6.2c1.5,1.9,4.3,2.3,6.2,0.8s2.3-4.2,0.8-6.2C517.6,119.4,514.9,119,512.9,120.5
				L512.9,120.5z"/>
			<path d="M503.8,131.5c-1.8,1.4-2.1,3.9-0.8,5.7c1.4,1.8,3.9,2.1,5.7,0.8c1.8-1.4,2.1-3.9,0.8-5.7
				C508.2,130.5,505.6,130.2,503.8,131.5L503.8,131.5z"/>
			<path d="M488.5,118.5c-2.7,2.1-3.2,5.9-1.2,8.7c2.1,2.7,6,3.2,8.7,1.2c2.7-2.1,3.2-5.9,1.2-8.7
				C495.1,117,491.2,116.4,488.5,118.5L488.5,118.5z"/>
		</g>
	</g>
</g>
</svg>
