<?xml version="1.0" encoding="utf-8"?>
<!-- Generator: Adobe Illustrator 19.2.0, SVG Export Plug-In . SVG Version: 6.00 Build 0)  -->
<svg version="1.1" id="Layer_1" xmlns="http://www.w3.org/2000/svg" xmlns:xlink="http://www.w3.org/1999/xlink" x="0px" y="0px"
	 width="194px" height="256px" viewBox="0 0 194 256" enable-background="new 0 0 194 256" xml:space="preserve">
<circle fill="#1EBBEE" cx="130.5" cy="211.9" r="11"/>
<g>
	<path fill="#1EBBEE" d="M81.2,236.9h-1.8l-0.9-2.5h-3.8l-0.8,2.5h-1.8l3.7-9.8h1.8L81.2,236.9z M78.1,233.1l-1.4-3.9
		c0-0.1-0.1-0.3-0.1-0.6l0,0c0,0.3-0.1,0.5-0.1,0.6l-1.3,3.9H78.1z"/>
	<path fill="#1EBBEE" d="M84.2,233.3v3.5h-1.6V227h3c1.1,0,2,0.3,2.6,0.8s0.9,1.3,0.9,2.2s-0.3,1.7-1,2.3c-0.6,0.6-1.5,0.9-2.6,0.9
		h-1.3V233.3z M84.2,228.4v3.6h1c0.7,0,1.2-0.2,1.6-0.5s0.5-0.8,0.5-1.4c0-1.1-0.7-1.7-2-1.7C85.3,228.4,84.2,228.4,84.2,228.4z"/>
	<path fill="#1EBBEE" d="M92.3,233.3v3.5h-1.6V227h3c1.1,0,2,0.3,2.6,0.8s0.9,1.3,0.9,2.2s-0.3,1.7-1,2.3c-0.6,0.6-1.5,0.9-2.6,0.9
		h-1.3V233.3z M92.3,228.4v3.6h1c0.7,0,1.2-0.2,1.6-0.5s0.5-0.8,0.5-1.4c0-1.1-0.7-1.7-2-1.7C93.4,228.4,92.3,228.4,92.3,228.4z"/>
	<path fill="#1EBBEE" d="M104.2,236.9h-5.4v-9.8h1.6v8.4h3.8V236.9z"/>
	<path fill="#1EBBEE" d="M107.3,236.9h-1.7v-9.8h1.7V236.9z"/>
	<path fill="#1EBBEE" d="M116.5,236.5c-0.7,0.4-1.6,0.6-2.7,0.6c-1.4,0-2.5-0.4-3.4-1.3c-0.9-0.9-1.3-2.1-1.3-3.5
		c0-1.6,0.5-2.8,1.4-3.8s2.2-1.4,3.6-1.4c0.9,0,1.7,0.1,2.3,0.4v1.6c-0.7-0.4-1.4-0.6-2.2-0.6c-1.1,0-1.9,0.3-2.6,1s-1,1.6-1,2.7
		c0,1.1,0.3,1.9,0.9,2.6c0.6,0.6,1.4,1,2.4,1c0.9,0,1.7-0.2,2.4-0.7v1.4H116.5z"/>
	<path fill="#1EBBEE" d="M126.4,236.9h-1.8l-0.9-2.5h-3.8l-0.8,2.5h-1.8l3.7-9.8h1.8L126.4,236.9z M123.3,233.1l-1.4-3.9
		c0-0.1-0.1-0.3-0.1-0.6l0,0c0,0.3-0.1,0.5-0.1,0.6l-1.3,3.9H123.3z"/>
	<path fill="#1EBBEE" d="M133,228.5h-2.8v8.4h-1.6v-8.4h-2.8v-1.4h7.2L133,228.5L133,228.5z"/>
	<path fill="#1EBBEE" d="M136.1,236.9h-1.7v-9.8h1.7V236.9z"/>
	<path fill="#1EBBEE" d="M142.5,237c-1.4,0-2.5-0.5-3.4-1.4c-0.8-0.9-1.3-2.1-1.3-3.6c0-1.6,0.4-2.8,1.3-3.8c0.9-0.9,2-1.4,3.5-1.4
		c1.4,0,2.5,0.5,3.3,1.4c0.8,0.9,1.3,2.1,1.3,3.6c0,1.6-0.4,2.8-1.3,3.8C145.1,236.6,143.9,237,142.5,237z M142.6,228.4
		c-0.9,0-1.6,0.3-2.2,1c-0.6,0.7-0.8,1.5-0.8,2.6s0.3,2,0.8,2.6c0.5,0.7,1.3,1,2.1,1c0.9,0,1.7-0.3,2.2-0.9c0.5-0.6,0.8-1.5,0.8-2.6
		c0-1.2-0.3-2.1-0.8-2.7S143.5,228.4,142.6,228.4z"/>
	<path fill="#1EBBEE" d="M157.3,236.9h-1.8l-4.7-7.2c-0.1-0.2-0.2-0.4-0.3-0.6l0,0c0,0.2,0.1,0.7,0.1,1.3v6.4H149V227h1.9l4.5,7
		c0.2,0.3,0.3,0.5,0.4,0.6l0,0c0-0.3-0.1-0.7-0.1-1.3V227h1.6V236.9z"/>
	<path fill="#1EBBEE" d="M169.8,228.5H167v8.4h-1.6v-8.4h-2.8v-1.4h7.2L169.8,228.5L169.8,228.5z"/>
	<path fill="#1EBBEE" d="M172.9,236.9h-1.7v-9.8h1.7V236.9z"/>
	<path fill="#1EBBEE" d="M180.7,236.9h-5.5v-9.8h5.3v1.4h-3.6v2.8h3.4v1.4h-3.4v2.9h3.9v1.3H180.7z"/>
	<path fill="#1EBBEE" d="M190,236.9h-1.9l-1.6-2.6c-0.1-0.2-0.3-0.4-0.4-0.6s-0.3-0.3-0.4-0.4c-0.1-0.1-0.3-0.2-0.5-0.2
		s-0.3-0.1-0.6-0.1h-0.7v4h-1.6v-9.8h3.2c0.5,0,0.9,0.1,1.3,0.2s0.7,0.3,1,0.5s0.5,0.5,0.7,0.8s0.2,0.7,0.2,1.2
		c0,0.3-0.1,0.7-0.2,0.9c-0.1,0.3-0.2,0.5-0.4,0.8s-0.4,0.4-0.7,0.6c-0.3,0.2-0.6,0.3-0.9,0.4l0,0c0.2,0.1,0.3,0.2,0.5,0.3
		c0.1,0.1,0.3,0.2,0.4,0.4s0.2,0.3,0.3,0.4c0.1,0.2,0.2,0.3,0.4,0.6L190,236.9z M184.1,228.4v3.2h1.3c0.2,0,0.5,0,0.7-0.1
		s0.4-0.2,0.5-0.3c0.2-0.1,0.3-0.3,0.4-0.5c0.1-0.2,0.1-0.4,0.1-0.7c0-0.5-0.1-0.8-0.4-1.1c-0.3-0.3-0.7-0.4-1.3-0.4h-1.3V228.4z"/>
</g>
<g>
	<path fill="#FFFFFF" d="M133.3,213.4c0,0.4-0.1,0.8-0.2,1.2s-0.3,0.6-0.6,0.9s-0.5,0.4-0.9,0.6s-0.7,0.2-1.1,0.2
		c-0.4,0-0.8-0.1-1.2-0.2s-0.7-0.4-0.9-0.7s-0.5-0.7-0.6-1.2c-0.1-0.5-0.2-1-0.2-1.7c0-0.8,0.1-1.5,0.3-2.1c0.2-0.6,0.4-1.1,0.8-1.5
		s0.7-0.7,1.1-0.9s0.9-0.3,1.4-0.3c0.3,0,0.6,0,0.9,0.1s0.5,0.1,0.6,0.2v1.2c-0.2-0.1-0.4-0.2-0.6-0.3s-0.5-0.1-0.8-0.1
		c-0.3,0-0.6,0.1-0.9,0.2s-0.5,0.3-0.7,0.6s-0.4,0.6-0.5,0.9s-0.2,0.8-0.2,1.3h0c0.2-0.3,0.4-0.5,0.7-0.7s0.7-0.2,1.1-0.2
		c0.4,0,0.7,0.1,1,0.2s0.5,0.3,0.8,0.5s0.4,0.5,0.5,0.8S133.3,213,133.3,213.4z M131.9,213.5c0-0.2,0-0.5-0.1-0.7s-0.1-0.4-0.3-0.5
		s-0.3-0.3-0.4-0.3s-0.4-0.1-0.6-0.1s-0.4,0-0.6,0.1s-0.3,0.2-0.4,0.3s-0.2,0.3-0.3,0.5s-0.1,0.4-0.1,0.5c0,0.2,0,0.4,0.1,0.6
		s0.1,0.4,0.3,0.6s0.3,0.3,0.4,0.4s0.4,0.2,0.6,0.2c0.2,0,0.4,0,0.6-0.1s0.3-0.2,0.4-0.3s0.2-0.3,0.3-0.5S131.9,213.7,131.9,213.5z"
		/>
</g>
<g>
	
		<line fill="none" stroke="#DFDFDE" stroke-width="4" stroke-linecap="round" stroke-linejoin="round" stroke-miterlimit="10" x1="5.9" y1="-33" x2="5.9" y2="230.2"/>
</g>
<g>
	
		<line fill="none" stroke="#DFDFDE" stroke-width="4" stroke-linecap="round" stroke-linejoin="round" stroke-miterlimit="10" x1="6.1" y1="230.2" x2="51.2" y2="230.2"/>
	
		<circle fill="none" stroke="#DFDFDE" stroke-width="4" stroke-linecap="round" stroke-linejoin="round" stroke-miterlimit="10" cx="56.2" cy="230.2" r="5"/>
</g>
<text transform="matrix(1 0 0 1 306 396)" font-family="'MyriadPro-Regular'" font-size="12px">1ebbee</text>
</svg>
