<?xml version="1.0" encoding="utf-8"?>
<!-- Generator: Adobe Illustrator 19.2.0, SVG Export Plug-In . SVG Version: 6.00 Build 0)  -->
<svg version="1.1" id="Layer_1" xmlns="http://www.w3.org/2000/svg" xmlns:xlink="http://www.w3.org/1999/xlink" x="0px" y="0px"
	 width="55px" height="284px" viewBox="0 0 55 284" enable-background="new 0 0 55 284" xml:space="preserve">
<g>
	
		<line fill="none" stroke="#DFDFDE" stroke-width="4" stroke-linecap="round" stroke-linejoin="round" stroke-miterlimit="10" x1="40.7" y1="-41" x2="41.7" y2="217.9"/>
	
		<circle fill="none" stroke="#DFDFDE" stroke-width="4" stroke-linecap="round" stroke-linejoin="round" stroke-miterlimit="10" cx="41.7" cy="223.4" r="5"/>
</g>
<path fill="#1EBBEE" d="M40.1,240.5c-8.1-7.3-20.5-6.6-27.8,1.5c-2.1,2.3-3.5,5-4.3,7.8l0,0l0,0.1c-0.2,0.8-0.4,1.7-0.5,2.5
	l-6.4,31.5l30.7-9.8c0.8-0.2,1.6-0.4,2.4-0.7l0.2-0.1l0,0c2.7-1.1,5.2-2.8,7.3-5.1C48.9,260.2,48.2,247.7,40.1,240.5z"/>
<path fill="#FFFFFF" d="M27.1,244.4c-4.8,0-8.7,1.6-8.7,3.3v15.8c0,1.7,3.9,3.4,8.7,3.4c4.8,0,8.7-1.5,8.7-3.3v-15.8
	C35.8,246.1,31.8,244.4,27.1,244.4L27.1,244.4z M18.6,264.3v-0.2C18.6,264.2,18.6,264.2,18.6,264.3L18.6,264.3z M24.6,254.4
	c-0.6,0-0.8-0.2-0.8,0.5v1.2c0,0.9-0.1,1.5-0.8,1.7v0.1c0.6,0.3,0.8,1,0.8,2.1v1.4c0,0.5,0.1,0.5,0.2,0.6c0.1,0.2,0.3,0.2,0.6,0.2
	v1.2c-0.9,0-1.5-0.2-1.9-0.5c-0.4-0.3-0.6-1-0.6-1.9v-1.5c0-0.8-0.3-0.8-0.8-0.8V257c0.6,0,0.8,0,0.8-0.7v-1.2
	c0-0.8,0.2-1.3,0.6-1.5c0.4-0.3,1-0.5,1.9-0.5V254.4L24.6,254.4L24.6,254.4z M33.1,257.4v1.3c-0.6,0-0.8,0-0.8,0.8v1.5
	c0,0.9-0.2,1.5-0.6,1.9c-0.4,0.3-1,0.5-2,0.5v-1.2c0.3,0,0.5-0.1,0.6-0.2c0.1-0.2,0.2-0.2,0.2-0.6V260c0-1.1,0.2-1.7,0.8-2.1v-0.1
	c-0.6-0.2-0.8-0.8-0.8-1.7V255c0-0.6-0.3-0.5-0.8-0.5v-1.4c0.9,0,1.5,0.2,1.9,0.5c0.4,0.3,0.6,0.8,0.6,1.5v1.2
	c0,0.7,0.3,0.6,0.8,0.6V257.4L33.1,257.4L33.1,257.4z M27.1,249.3c-3.4,0-6.2-0.8-6.2-1.9c0-1,2.8-1.9,6.2-1.9s6.2,0.8,6.2,1.9
	C33.3,248.5,30.5,249.3,27.1,249.3L27.1,249.3z"/>
</svg>
