<svg id="Layer_2_1_" xmlns="http://www.w3.org/2000/svg" width="90" height="171" viewBox="0 0 90 171"><g fill="none" stroke="#dedede" stroke-width="4" stroke-linecap="round" stroke-linejoin="round" stroke-miterlimit="10"><path d="M45-189.2V81.9"/><circle cx="45" cy="87.4" r="5"/></g><path d="M.1 165.1v-9.8h1.6v9.8H.1zM12.5 160.1c0 .8-.1 1.4-.4 2.1s-.6 1.1-1.1 1.6-1 .8-1.7 1c-.7.2-1.4.4-2.2.4h-3v-9.8h3c1.8 0 3.1.4 3.9 1.2s1.5 1.9 1.5 3.5zm-1.7 0c0-.5-.1-1-.2-1.4-.2-.4-.4-.8-.7-1.1-.3-.3-.7-.5-1.1-.7-.4-.2-1-.2-1.5-.2H5.9v7h1.3c.6 0 1.1-.1 1.6-.3.5-.2.8-.4 1.1-.7.3-.3.5-.7.7-1.1s.2-1 .2-1.5zM14.3 165.1v-9.8h5.3v1.4H16v2.8h3.4v1.4H16v2.8h3.9v1.4h-5.6zM28 165.1l-4.5-7.3s-.1-.1-.1-.2-.1-.1-.1-.2-.1-.1-.1-.2 0-.1-.1-.2v8h-1.6v-9.8h2.1l4.3 7.1s.1.1.1.2.1.1.1.2.1.1.1.2.1.1.1.2v-.3-.5-.5-6.5h1.6v9.8H28zM35.8 156.7v8.4h-1.6v-8.4h-2.8v-1.4h7.3v1.4h-2.9zM40.1 165.1v-9.8h1.6v9.8h-1.6zM47.6 156.7v8.4H46v-8.4h-2.8v-1.4h7.3v1.4h-2.9zM55.7 161.5v3.6h-1.6v-3.5l-3.2-6.3h1.8l2 4.1c.1.1.1.3.1.4 0 .1.1.2.1.3 0-.1.1-.2.1-.3 0-.1.1-.2.1-.3l2-4.1H59l-3.3 6.1zM67.5 156.7v8.4h-1.6v-8.4H63v-1.4h7.3v1.4h-2.8zM71.7 165.1v-9.8h1.6v9.8h-1.6zM75.9 165.1v-9.8h5.3v1.4h-3.7v2.8h3.4v1.4h-3.4v2.8h3.9v1.4h-5.5zM88 165.1l-1.2-2.8c-.2-.4-.4-.7-.6-.9-.2-.2-.5-.3-.7-.3h-.8v4h-1.6v-9.8h3.2c.5 0 1 .1 1.4.2.4.1.7.3 1 .5s.5.5.6.8c.1.3.2.7.2 1.1 0 .4-.1.7-.2 1-.1.3-.2.6-.4.8-.2.2-.4.4-.7.6-.3.2-.6.3-.9.4.1 0 .2.1.3.2l.3.3c.1.1.2.2.3.4.1.1.1.3.2.4l1.5 3.2H88zm-.2-7c0-.2 0-.4-.1-.6-.1-.2-.2-.3-.3-.5-.1-.1-.3-.2-.5-.3s-.5-.1-.8-.1h-1.3v3.1H86c.3 0 .5 0 .7-.1.2-.1.4-.2.6-.4.2-.1.3-.3.4-.5s.1-.4.1-.6z"/><g><path d="M45 122c-6.4 0-11.6 5.2-11.6 11.6 0 6.4 5.2 11.6 11.6 11.6s11.6-5.2 11.6-11.6c0-6.4-5.2-11.6-11.6-11.6zm1.9 15.9c-.6.5-1.4.8-2.5.8-.9 0-1.6-.1-2-.4v-1.4c.6.4 1.2.6 1.8.6.6 0 1.1-.2 1.5-.5s.6-.7.6-1.3c0-.5-.2-.9-.6-1.2s-.9-.4-1.6-.4c-.2 0-.7 0-1.5.1l.3-4.8h4.5v1.3h-3.3L44 133h.8c1 0 1.7.2 2.2.7.5.5.8 1.2.8 2 0 .9-.3 1.7-.9 2.2z"/><path d="M44.8 133H44l.2-2.3h3.3v-1.3H43l-.3 4.8c.7-.1 1.2-.1 1.5-.1.7 0 1.3.1 1.6.4s.6.7.6 1.2-.2.9-.6 1.3-.9.5-1.5.5-1.2-.2-1.8-.6v1.4c.4.2 1.1.4 2 .4 1.1 0 1.9-.3 2.5-.8.6-.5.9-1.3.9-2.2 0-.9-.3-1.5-.8-2-.6-.5-1.3-.7-2.3-.7z" fill="#FFF"/></g></svg>