<?xml version="1.0" encoding="utf-8"?>
<!-- Generator: Adobe Illustrator 19.2.0, SVG Export Plug-In . SVG Version: 6.00 Build 0)  -->
<svg version="1.1" id="Layer_2_1_" xmlns="http://www.w3.org/2000/svg" xmlns:xlink="http://www.w3.org/1999/xlink" x="0px" y="0px"
	 width="94px" height="329.2px" viewBox="0 0 94 329.2" style="enable-background:new 0 0 94 329.2;" xml:space="preserve">
<g>
	
		<line style="fill:none;stroke:#DEDEDE;stroke-width:4;stroke-linecap:round;stroke-linejoin:round;stroke-miterlimit:10;" x1="48.3" y1="-68.2" x2="48.3" y2="202.9"/>
	
		<circle style="fill:none;stroke:#DEDEDE;stroke-width:4;stroke-linecap:round;stroke-linejoin:round;stroke-miterlimit:10;" cx="48.3" cy="208.4" r="5"/>
</g>
<g>
	<g>
		<path d="M18,305.4v-1.7c0.1,0.1,0.3,0.3,0.5,0.4s0.4,0.2,0.7,0.3c0.2,0.1,0.5,0.1,0.7,0.2c0.2,0,0.4,0.1,0.6,0.1
			c0.7,0,1.2-0.1,1.5-0.3s0.5-0.6,0.5-1c0-0.2-0.1-0.4-0.2-0.6s-0.3-0.3-0.5-0.5s-0.4-0.3-0.7-0.4c-0.3-0.1-0.6-0.3-0.9-0.4
			c-0.3-0.2-0.6-0.4-0.9-0.5c-0.3-0.2-0.5-0.4-0.7-0.6s-0.4-0.5-0.5-0.7s-0.2-0.6-0.2-1c0-0.5,0.1-0.9,0.3-1.2s0.5-0.6,0.8-0.8
			c0.3-0.2,0.7-0.4,1.2-0.5s0.9-0.2,1.3-0.2c1,0,1.8,0.1,2.2,0.3v1.6c-0.6-0.4-1.3-0.6-2.1-0.6c-0.2,0-0.5,0-0.7,0.1
			c-0.2,0-0.5,0.1-0.6,0.2s-0.3,0.2-0.5,0.4s-0.2,0.4-0.2,0.6s0,0.4,0.1,0.6s0.2,0.3,0.4,0.4c0.2,0.1,0.4,0.3,0.6,0.4
			c0.3,0.1,0.5,0.3,0.9,0.4c0.3,0.2,0.7,0.4,1,0.6s0.6,0.4,0.8,0.6c0.2,0.2,0.4,0.5,0.5,0.8s0.2,0.6,0.2,1c0,0.5-0.1,0.9-0.3,1.3
			c-0.2,0.3-0.5,0.6-0.8,0.8c-0.3,0.2-0.7,0.4-1.2,0.5c-0.4,0.1-0.9,0.1-1.4,0.1c-0.2,0-0.4,0-0.6,0s-0.5-0.1-0.7-0.1
			s-0.5-0.1-0.7-0.2C18.3,305.6,18.1,305.5,18,305.4z"/>
		<path d="M32.3,297.4h-2.8v8.4h-1.6v-8.4h-2.8V296h7.2V297.4z"/>
		<path d="M37.2,306c-1.4,0-2.5-0.5-3.4-1.4c-0.8-0.9-1.3-2.1-1.3-3.6c0-1.6,0.4-2.8,1.3-3.8c0.9-0.9,2-1.4,3.5-1.4
			c1.4,0,2.5,0.5,3.3,1.4s1.3,2.1,1.3,3.6c0,1.6-0.4,2.8-1.3,3.8C39.7,305.5,38.6,306,37.2,306z M37.2,297.3c-0.9,0-1.6,0.3-2.2,1
			c-0.6,0.7-0.8,1.5-0.8,2.6s0.3,2,0.8,2.6c0.5,0.7,1.3,1,2.1,1c0.9,0,1.7-0.3,2.2-0.9s0.8-1.5,0.8-2.6c0-1.2-0.3-2.1-0.8-2.7
			S38.2,297.3,37.2,297.3z"/>
		<path d="M51.2,305.8h-1.9l-1.6-2.6c-0.1-0.2-0.3-0.4-0.4-0.6c-0.1-0.2-0.3-0.3-0.4-0.4c-0.1-0.1-0.3-0.2-0.5-0.2s-0.3-0.1-0.6-0.1
			h-0.7v4h-1.6v-9.8h3.2c0.5,0,0.9,0.1,1.3,0.2c0.4,0.1,0.7,0.3,1,0.5s0.5,0.5,0.7,0.8s0.2,0.7,0.2,1.2c0,0.3-0.1,0.7-0.2,0.9
			c-0.1,0.3-0.2,0.5-0.4,0.8c-0.2,0.2-0.4,0.4-0.7,0.6s-0.6,0.3-0.9,0.4l0,0c0.2,0.1,0.3,0.2,0.5,0.3c0.1,0.1,0.3,0.2,0.4,0.4
			c0.1,0.1,0.2,0.3,0.3,0.4c0.1,0.2,0.2,0.3,0.4,0.6L51.2,305.8z M45.3,297.4v3.2h1.3c0.2,0,0.5,0,0.7-0.1s0.4-0.2,0.5-0.3
			c0.2-0.1,0.3-0.3,0.4-0.5c0.1-0.2,0.1-0.4,0.1-0.7c0-0.5-0.1-0.8-0.4-1.1s-0.7-0.4-1.3-0.4h-1.3V297.4z"/>
		<path d="M60.4,305.8h-1.8l-0.9-2.5h-3.8l-0.8,2.5h-1.8L55,296h1.8L60.4,305.8z M57.3,302l-1.4-3.9c0-0.1-0.1-0.3-0.1-0.6l0,0
			c0,0.3-0.1,0.5-0.1,0.6l-1.3,3.9H57.3z"/>
		<path d="M69.1,305.1c-1,0.6-2.1,0.8-3.4,0.8c-1.4,0-2.6-0.4-3.5-1.3s-1.3-2.1-1.3-3.6s0.5-2.7,1.5-3.7s2.2-1.5,3.7-1.5
			c1.1,0,2,0.2,2.7,0.5v1.7c-0.7-0.5-1.6-0.7-2.7-0.7c-1,0-1.9,0.3-2.6,1c-0.7,0.7-1,1.6-1,2.7s0.3,2,0.9,2.6c0.6,0.6,1.3,1,2.3,1
			c0.7,0,1.3-0.1,1.7-0.4v-2.3h-2.1v-1.4H69L69.1,305.1L69.1,305.1z"/>
		<path d="M76.7,305.8h-5.5V296h5.3v1.4h-3.6v2.8h3.4v1.4h-3.4v2.9h3.9v1.3H76.7z"/>
		<path d="M31.6,322.5v-9.8h3.1c0.9,0,1.7,0.2,2.2,0.6c0.6,0.4,0.8,0.9,0.8,1.6c0,0.6-0.2,1-0.5,1.4s-0.7,0.7-1.3,0.9l0,0
			c0.7,0.1,1.2,0.3,1.6,0.7c0.4,0.4,0.6,1,0.6,1.6c0,0.8-0.3,1.5-1,2s-1.5,0.8-2.5,0.8h-3V322.5z M33.2,314.1v2.8h1
			c0.6,0,1-0.1,1.3-0.4s0.5-0.6,0.5-1.1c0-0.8-0.6-1.3-1.7-1.3H33.2z M33.2,318.1v3.1h1.4c0.6,0,1.1-0.1,1.4-0.4
			c0.3-0.3,0.5-0.7,0.5-1.2c0-1-0.7-1.5-2.1-1.5H33.2z"/>
		<path d="M45.4,322.5H40v-9.8h1.6v8.4h3.8C45.4,321.1,45.4,322.5,45.4,322.5z"/>
		<path d="M50.4,322.7c-1.4,0-2.5-0.5-3.4-1.4c-0.8-0.9-1.3-2.1-1.3-3.6c0-1.6,0.4-2.8,1.3-3.8c0.9-0.9,2-1.4,3.5-1.4
			c1.4,0,2.5,0.5,3.3,1.4s1.3,2.1,1.3,3.6c0,1.6-0.4,2.8-1.3,3.8C53,322.2,51.8,322.7,50.4,322.7z M50.5,314c-0.9,0-1.6,0.3-2.2,1
			c-0.6,0.7-0.8,1.5-0.8,2.6s0.3,2,0.8,2.6c0.5,0.7,1.3,1,2.1,1c0.9,0,1.7-0.3,2.2-0.9s0.8-1.5,0.8-2.6c0-1.2-0.3-2.1-0.8-2.7
			S51.4,314,50.5,314z"/>
		<path d="M56.9,322.5v-9.8H60c0.9,0,1.7,0.2,2.2,0.6c0.6,0.4,0.8,0.9,0.8,1.6c0,0.6-0.2,1-0.5,1.4s-0.7,0.7-1.3,0.9l0,0
			c0.7,0.1,1.2,0.3,1.6,0.7c0.4,0.4,0.6,1,0.6,1.6c0,0.8-0.3,1.5-1,2s-1.5,0.8-2.5,0.8h-3V322.5z M58.5,314.1v2.8h1
			c0.6,0,1-0.1,1.3-0.4s0.5-0.6,0.5-1.1c0-0.8-0.6-1.3-1.7-1.3H58.5z M58.5,318.1v3.1h1.4c0.6,0,1.1-0.1,1.4-0.4
			c0.3-0.3,0.5-0.7,0.5-1.2c0-1-0.7-1.5-2.1-1.5H58.5z"/>
	</g>
	<g>
		<path d="M61.1,238.5H33.6l-13.8,23.8l13.8,23.8h27.5l13.8-23.8L61.1,238.5z M57.5,276.7H37.3c-2.1,0-3.7-1.7-3.7-3.7v-21.3
			c0-2,1.7-3.7,3.7-3.7h15c1.5,0,2.8,0,2.8,0h0.4l5.7,5.7V273C61.2,275,59.5,276.7,57.5,276.7z"/>
		<path d="M45.2,266.1c0-0.2-0.1-0.4-0.2-0.6c-0.1-0.1-0.1-0.3-0.2-0.4c-0.1-0.1-0.2-0.2-0.3-0.2s-0.2-0.1-0.4-0.1s-0.4,0.1-0.6,0.2
			c-0.2,0.1-0.3,0.3-0.4,0.5s-0.2,0.5-0.2,0.9s-0.1,0.8-0.1,1.2c0,0.6,0,1.1,0.1,1.4c0,0.4,0.1,0.7,0.2,0.9c0.1,0.2,0.2,0.4,0.4,0.5
			s0.3,0.1,0.6,0.1c0.2,0,0.3,0,0.4-0.1c0.1-0.1,0.2-0.1,0.3-0.2s0.2-0.2,0.2-0.4c0.1-0.2,0.1-0.3,0.2-0.6c0-0.2,0.1-0.4,0.1-0.7
			c0-0.3,0-0.6,0-0.9c0-0.4,0-0.7,0-1C45.3,266.6,45.3,266.3,45.2,266.1z"/>
		<path d="M51.7,255c0-0.2-0.1-0.4-0.2-0.6c-0.1-0.1-0.1-0.3-0.2-0.4c-0.1-0.1-0.2-0.2-0.3-0.2s-0.2-0.1-0.4-0.1s-0.4,0.1-0.6,0.2
			c-0.2,0.1-0.3,0.3-0.4,0.5c-0.1,0.2-0.2,0.5-0.2,0.9s-0.1,0.8-0.1,1.2c0,0.6,0,1.1,0.1,1.4c0,0.4,0.1,0.7,0.2,0.9
			c0.1,0.2,0.2,0.4,0.4,0.5s0.3,0.1,0.6,0.1c0.2,0,0.3,0,0.4-0.1c0.1-0.1,0.2-0.1,0.3-0.2s0.2-0.2,0.2-0.4c0.1-0.2,0.1-0.3,0.2-0.6
			c0-0.2,0.1-0.4,0.1-0.7c0-0.3,0-0.6,0-0.9c0-0.4,0-0.7,0-1C51.8,255.5,51.8,255.2,51.7,255z"/>
		<path d="M54.6,250L54.6,250c-0.5,0-1.4,0-2.3,0h-15c-0.9,0-1.7,0.8-1.7,1.7V273c0,0.9,0.8,1.7,1.7,1.7h20.2c0.9,0,1.7-0.8,1.7-1.7
			v-18.3h-4.6C54.6,254.7,54.6,250,54.6,250z M41.8,254.2c0-0.1,0-0.1,0-0.2c0,0,0-0.1,0.1-0.1l0.1-0.1l1.7-1.1c0,0,0,0,0.1,0h0.1
			c0,0,0.1,0,0.2,0c0.1,0,0.2,0,0.3,0c0.2,0,0.3,0,0.4,0c0.1,0,0.2,0,0.2,0c0.1,0,0.1,0,0.1,0.1s0,0.1,0,0.1v6.7h1.3h0.1l0.1,0.1
			c0,0.1,0,0.1,0.1,0.2c0,0.1,0,0.2,0,0.3c0,0.1,0,0.2,0,0.3c0,0.1,0,0.1-0.1,0.2c0,0,0,0.1-0.1,0.1h-0.1H42h-0.1l-0.1-0.1
			c0,0,0-0.1-0.1-0.2c0-0.1,0-0.2,0-0.3c0-0.1,0-0.2,0-0.3c0-0.1,0-0.1,0.1-0.2c0,0,0-0.1,0.1-0.1H42h1.5v-5.3l-1.3,0.7
			c-0.1,0-0.2,0.1-0.2,0.1c-0.1,0-0.1,0-0.1,0s-0.1-0.1-0.1-0.2c0-0.1,0-0.2,0-0.4C41.8,254.4,41.8,254.3,41.8,254.2z M46.9,269.6
			c-0.1,0.5-0.3,1-0.5,1.3s-0.5,0.6-0.9,0.8C45,272,44.6,272,44,272s-1-0.1-1.4-0.3c-0.4-0.2-0.7-0.5-0.9-0.8
			c-0.2-0.4-0.4-0.8-0.4-1.3c-0.1-0.5-0.1-1.1-0.1-1.8c0-0.6,0.1-1.2,0.2-1.8c0.1-0.5,0.3-1,0.5-1.3c0.2-0.4,0.5-0.6,0.9-0.8
			c0.4-0.2,0.8-0.3,1.4-0.3c0.6,0,1,0.1,1.4,0.3c0.4,0.2,0.7,0.5,0.9,0.8c0.2,0.4,0.4,0.8,0.4,1.3c0.1,0.5,0.1,1.1,0.1,1.8
			C47,268.5,47,269.1,46.9,269.6z M53.3,271.6c0,0.1,0,0.1-0.1,0.2c0,0,0,0.1-0.1,0.1H53h-4.5h-0.1l-0.1-0.1c0,0,0-0.1-0.1-0.2
			c0-0.1,0-0.2,0-0.3c0-0.1,0-0.2,0-0.3s0-0.1,0-0.2s0-0.1,0.1-0.1h0.1h1.5v-5.3l-1.3,0.7c-0.1,0-0.2,0.1-0.2,0.1
			c-0.1,0-0.1,0-0.1,0s-0.1-0.1-0.1-0.2s0-0.2,0-0.4c0-0.1,0-0.2,0-0.2c0-0.1,0-0.1,0-0.2c0,0,0-0.1,0.1-0.1s0.1-0.1,0.1-0.1
			l1.7-1.1c0,0,0,0,0.1,0h0.1c0.1,0,0.1,0,0.2,0c0.1,0,0.2,0,0.3,0c0.2,0,0.3,0,0.4,0c0.1,0,0.2,0,0.2,0s0.1,0,0.1,0.1v0.1v6.7H53
			h0.1l0.1,0.1c0,0,0,0.1,0.1,0.2s0,0.2,0,0.3C53.3,271.4,53.3,271.5,53.3,271.6z M53.4,258.5c-0.1,0.5-0.3,1-0.5,1.3
			s-0.5,0.6-0.9,0.8c-0.4,0.2-0.8,0.3-1.4,0.3c-0.6,0-1-0.1-1.4-0.3c-0.4-0.2-0.7-0.5-0.9-0.8c-0.2-0.4-0.4-0.8-0.4-1.3
			c-0.1-0.5-0.1-1.1-0.1-1.8c0-0.6,0.1-1.2,0.2-1.8c0.1-0.5,0.3-1,0.5-1.3c0.2-0.4,0.5-0.6,0.9-0.8s0.8-0.3,1.4-0.3
			c0.6,0,1,0.1,1.4,0.3s0.7,0.5,0.9,0.8c0.2,0.4,0.4,0.8,0.4,1.3s0.1,1.1,0.1,1.8C53.5,257.4,53.5,257.9,53.4,258.5z"/>
	</g>
</g>
</svg>
