<?xml version="1.0" encoding="utf-8"?>
<!-- Generator: Adobe Illustrator 19.2.0, SVG Export Plug-In . SVG Version: 6.00 Build 0)  -->
<svg version="1.1" id="Layer_2_1_" xmlns="http://www.w3.org/2000/svg" xmlns:xlink="http://www.w3.org/1999/xlink" x="0px" y="0px"
	 width="94px" height="329.2px" viewBox="0 0 94 329.2" style="enable-background:new 0 0 94 329.2;" xml:space="preserve">
<g>
	
		<line style="fill:none;stroke:#DEDEDE;stroke-width:4;stroke-linecap:round;stroke-linejoin:round;stroke-miterlimit:10;" x1="61.3" y1="-68.2" x2="61.3" y2="202.9"/>
	
		<circle style="fill:none;stroke:#DEDEDE;stroke-width:4;stroke-linecap:round;stroke-linejoin:round;stroke-miterlimit:10;" cx="61.3" cy="208.4" r="5"/>
</g>
<g>
	<path d="M13.1,305.8V296h2.8c3.6,0,5.4,1.6,5.4,4.8c0,1.5-0.5,2.7-1.5,3.6s-2.3,1.4-4,1.4H13.1z M14.7,297.4v7H16
		c1.1,0,2-0.3,2.7-0.9c0.6-0.6,0.9-1.5,0.9-2.7c0-2.3-1.2-3.4-3.5-3.4H14.7z"/>
	<path d="M30.9,305.8h-1.8l-0.9-2.5h-3.8l-0.8,2.5h-1.8l3.7-9.8h1.8L30.9,305.8z M27.8,302l-1.4-3.9c0-0.1-0.1-0.3-0.1-0.6l0,0
		c0,0.3-0.1,0.5-0.1,0.6l-1.3,3.9H27.8z"/>
	<path d="M37.5,297.4h-2.8v8.4h-1.6v-8.4h-2.8V296h7.2C37.5,296,37.5,297.4,37.5,297.4z"/>
	<path d="M45.9,305.8h-1.8l-0.9-2.5h-3.8l-0.8,2.5h-1.8l3.7-9.8h1.8L45.9,305.8z M42.9,302l-1.4-3.9c0-0.1-0.1-0.3-0.1-0.6l0,0
		c0,0.3-0.1,0.5-0.1,0.6L40,302H42.9z"/>
	<path d="M56.5,305.8h-5.4V296h1.6v8.4h3.8C56.5,304.4,56.5,305.8,56.5,305.8z"/>
	<path d="M66.3,305.8h-1.8l-0.9-2.5h-3.8l-0.8,2.5h-1.8l3.7-9.8h1.8L66.3,305.8z M63.2,302l-1.4-3.9c0-0.1-0.1-0.3-0.1-0.6l0,0
		c0,0.3-0.1,0.5-0.1,0.6l-1.3,3.9H63.2z"/>
	<path d="M75,305.8h-2.1l-3.4-4.5c-0.1-0.2-0.2-0.3-0.2-0.3l0,0v4.8h-1.6V296h1.6v4.6l0,0c0.1-0.1,0.1-0.2,0.2-0.3l3.3-4.3h1.9
		l-3.8,4.7L75,305.8z"/>
	<path d="M81.6,305.8h-5.5V296h5.3v1.4h-3.6v2.8h3.4v1.4h-3.4v2.9h3.9v1.3L81.6,305.8L81.6,305.8z"/>
	<path d="M27.2,322.1v-1.7c0.1,0.1,0.3,0.3,0.5,0.4s0.4,0.2,0.7,0.3c0.2,0.1,0.5,0.1,0.7,0.2c0.2,0,0.4,0.1,0.6,0.1
		c0.7,0,1.2-0.1,1.5-0.3s0.5-0.6,0.5-1c0-0.2-0.1-0.4-0.2-0.6s-0.3-0.3-0.5-0.5s-0.4-0.3-0.7-0.4c-0.3-0.1-0.6-0.3-0.9-0.4
		c-0.3-0.2-0.6-0.4-0.9-0.5c-0.3-0.2-0.5-0.4-0.7-0.6s-0.4-0.5-0.5-0.7s-0.2-0.6-0.2-1c0-0.5,0.1-0.9,0.3-1.2s0.5-0.6,0.8-0.8
		c0.3-0.2,0.7-0.4,1.2-0.5s0.9-0.2,1.3-0.2c1,0,1.8,0.1,2.2,0.3v1.6c-0.6-0.4-1.3-0.6-2.1-0.6c-0.2,0-0.5,0-0.7,0.1
		c-0.2,0-0.5,0.1-0.6,0.2s-0.3,0.2-0.5,0.4s-0.2,0.4-0.2,0.6s0,0.4,0.1,0.6s0.2,0.3,0.4,0.4c0.2,0.1,0.4,0.3,0.6,0.4
		c0.3,0.1,0.5,0.3,0.9,0.4c0.3,0.2,0.7,0.4,1,0.6s0.6,0.4,0.8,0.6s0.4,0.5,0.5,0.8s0.2,0.6,0.2,1c0,0.5-0.1,0.9-0.3,1.3
		c-0.2,0.3-0.5,0.6-0.8,0.8c-0.3,0.2-0.7,0.4-1.2,0.5c-0.4,0.1-0.9,0.1-1.4,0.1c-0.2,0-0.4,0-0.6,0s-0.5-0.1-0.7-0.1
		s-0.5-0.1-0.7-0.2C27.6,322.3,27.4,322.2,27.2,322.1z"/>
	<path d="M41.5,314.1h-2.8v8.4h-1.6v-8.4h-2.8v-1.4h7.2C41.5,312.7,41.5,314.1,41.5,314.1z"/>
	<path d="M46.4,322.7c-1.4,0-2.5-0.5-3.4-1.4c-0.8-0.9-1.3-2.1-1.3-3.6c0-1.6,0.4-2.8,1.3-3.8c0.9-0.9,2-1.4,3.5-1.4
		c1.4,0,2.5,0.5,3.3,1.4s1.3,2.1,1.3,3.6c0,1.6-0.4,2.8-1.3,3.8C49,322.2,47.8,322.7,46.4,322.7z M46.5,314c-0.9,0-1.6,0.3-2.2,1
		c-0.6,0.7-0.8,1.5-0.8,2.6s0.3,2,0.8,2.6c0.5,0.7,1.3,1,2.1,1c0.9,0,1.7-0.3,2.2-0.9s0.8-1.5,0.8-2.6c0-1.2-0.3-2.1-0.8-2.7
		S47.4,314,46.5,314z"/>
	<path d="M60.4,322.5h-1.9l-1.6-2.6c-0.1-0.2-0.3-0.4-0.4-0.6c-0.1-0.2-0.3-0.3-0.4-0.4c-0.1-0.1-0.3-0.2-0.5-0.2s-0.3-0.1-0.6-0.1
		h-0.7v4h-1.6v-9.8h3.2c0.5,0,0.9,0.1,1.3,0.2c0.4,0.1,0.7,0.3,1,0.5s0.5,0.5,0.7,0.8s0.2,0.7,0.2,1.2c0,0.3-0.1,0.7-0.2,0.9
		c-0.1,0.3-0.2,0.5-0.4,0.8c-0.2,0.2-0.4,0.4-0.7,0.6s-0.6,0.3-0.9,0.4l0,0c0.2,0.1,0.3,0.2,0.5,0.3c0.1,0.1,0.3,0.2,0.4,0.4
		c0.1,0.1,0.2,0.3,0.3,0.4c0.1,0.2,0.2,0.3,0.4,0.6L60.4,322.5z M54.5,314.1v3.2h1.3c0.2,0,0.5,0,0.7-0.1s0.4-0.2,0.5-0.3
		c0.2-0.1,0.3-0.3,0.4-0.5c0.1-0.2,0.1-0.4,0.1-0.7c0-0.5-0.1-0.8-0.4-1.1s-0.7-0.4-1.3-0.4h-1.3V314.1z"/>
	<path d="M67,322.5h-5.5v-9.8h5.3v1.4h-3.6v2.8h3.4v1.4h-3.4v2.9H67V322.5z"/>
</g>
<g>
	<path style="fill:none;" d="M47,248.5c7.2,0,13-1.7,13-3.9s-5.8-3.9-13-3.9s-13,1.7-13,3.9S39.9,248.5,47,248.5z"/>
	<path style="fill:#FFFFFF;" d="M48.3,262L48.3,262L48.3,262L48.3,262z"/>
	<path style="fill:#FFFFFF;" d="M48.3,261.9C48.3,262,48.3,262,48.3,261.9L48.3,261.9C48.3,262,48.3,262,48.3,261.9z"/>
	<path style="fill:#FFFFFF;" d="M46.1,262L46.1,262L46.1,262L46.1,262L46.1,262z"/>
	<g>
		<path d="M47,238.1c-10,0-18.2,3.3-18.2,7.1v11.6v2.9v4.7c0.7,1,1.9,1.6,3.2,1.6c2.2,0,4-1.8,4-4l0,0l0,0l0,0l0,0l0,0
			c0-0.6,0.5-1.1,1.1-1.1s1,0.5,1.1,1c0,0,0,0,0,0.1c0,2.2,1.8,4,4,4s4-1.8,4-3.9l0,0l0,0l0,0c0-0.6,0.5-1.1,1.1-1.1s1,0.5,1.1,1
			l0,0l0,0l0,0l0,0l0,0c0,2.2,1.8,3.9,4,3.9s4-1.8,4-4c0-0.6,0.5-1.1,1.1-1.1s1.1,0.5,1.1,1l0,0l0,0l0,0c0,2.2,1.8,4,4,4
			c1.1,0,2.2-0.5,2.9-1.3V259v-2.7v-11.2C65.3,241.7,57.1,238.1,47,238.1z M47,240.7c7.2,0,13,1.7,13,3.9s-5.8,3.9-13,3.9
			s-13-1.7-13-3.9S39.9,240.7,47,240.7z M38.1,261.1L38.1,261.1L38.1,261.1z"/>
		<path d="M57.3,265.4c-1.1,1.6-3,2.7-5.1,2.7s-4-1.1-5.1-2.7c-1.1,1.6-3,2.7-5.1,2.7s-4-1.1-5.1-2.7c-1.1,1.6-3,2.7-5.1,2.7
			c-1.2,0-2.3-0.3-3.2-0.9v3.9l0,0v7.1c0,3.3,6.6,7,15.3,7.6H50c8.7-0.6,15.3-3.6,15.3-6.9v-11.5c-0.9,0.5-1.8,0.7-2.9,0.7
			C60.3,268.1,58.4,267.1,57.3,265.4z"/>
	</g>
	<path style="fill:#FFFFFF;" d="M36,262L36,262L36,262L36,262L36,262"/>
	<path style="fill:#FFFFFF;" d="M36,262L36,262L36,262L36,262z"/>
	<path style="fill:#FFFFFF;" d="M36,262L36,262L36,262L36,262z"/>
	<path style="fill:#FFFFFF;" d="M48.3,262L48.3,262L48.3,262L48.3,262L48.3,262z"/>
	<path style="fill:#FFFFFF;" d="M48.3,262L48.3,262L48.3,262C48.3,262,48.2,262,48.3,262C48.2,262,48.3,262,48.3,262L48.3,262
		L48.3,262z"/>
	<ellipse style="fill:#FFFFFF;" cx="58.4" cy="262" rx="0" ry="0"/>
	<path style="fill:#FFFFFF;" d="M58.4,262L58.4,262L58.4,262L58.4,262z"/>
	<path style="fill:#FFFFFF;" d="M58.4,262L58.4,262L58.4,262L58.4,262z"/>
</g>
</svg>
