<svg id="Layer_1" xmlns="http://www.w3.org/2000/svg" width="156.7" height="329.2" viewBox="0 0 156.7 329.2"><g fill="none" stroke="#dedede" stroke-width="4" stroke-linecap="round" stroke-linejoin="round" stroke-miterlimit="10"><path d="M78.3 0l-.1 257.9"/><circle cx="78.2" cy="263.4" r="5"/></g><path d="M3.5 325.6v-9.8h2.8c3.6 0 5.4 1.6 5.4 4.8 0 1.5-.5 2.7-1.5 3.6s-2.3 1.4-4 1.4H3.5zm1.7-8.4v7h1.3c1.1 0 2-.3 2.7-.9.6-.6.9-1.5.9-2.7 0-2.3-1.2-3.4-3.5-3.4H5.2zM21.3 325.6h-1.8l-.8-2.5h-3.9l-.8 2.5h-1.8l3.7-9.8h1.8l3.6 9.8zm-3.1-3.8l-1.4-3.9c0-.1-.1-.3-.1-.6 0 .3-.1.5-.1.6l-1.3 3.9h2.9zM27.9 317.2h-2.8v8.4h-1.6v-8.4h-2.8v-1.4h7.2v1.4zM36.4 325.6h-1.8l-.9-2.5h-3.8l-.8 2.5h-1.8l3.7-9.8h1.7l3.7 9.8zm-3.1-3.8l-1.4-3.9c0-.1-.1-.3-.1-.6 0 .3-.1.5-.1.6l-1.3 3.9h2.9zM48.3 325.2c-.7.4-1.6.6-2.7.6-1.4 0-2.5-.4-3.4-1.3-.9-.9-1.3-2.1-1.3-3.5 0-1.6.5-2.8 1.4-3.8.9-1 2.2-1.4 3.6-1.4.9 0 1.7.1 2.3.4v1.6c-.7-.4-1.4-.6-2.2-.6-1.1 0-1.9.3-2.6 1s-1 1.6-1 2.7.3 1.9.9 2.6c.6.6 1.4 1 2.4 1 .9 0 1.7-.2 2.4-.7v1.4h.2zM54 325.7c-1.4 0-2.5-.5-3.4-1.4-.8-.9-1.3-2.1-1.3-3.6 0-1.6.4-2.8 1.3-3.8.9-.9 2-1.4 3.5-1.4 1.4 0 2.5.5 3.3 1.4s1.3 2.1 1.3 3.6c0 1.6-.4 2.8-1.3 3.8-.8 1-1.9 1.4-3.4 1.4zm.1-8.6c-.9 0-1.6.3-2.2 1-.6.7-.8 1.5-.8 2.6s.3 2 .8 2.6c.5.7 1.3 1 2.1 1 .9 0 1.7-.3 2.2-.9s.8-1.5.8-2.6c0-1.2-.3-2.1-.8-2.7s-1.2-1-2.1-1zM65.9 325.6h-5.4v-9.8h1.6v8.4h3.8v1.4zM72.7 325.6h-5.4v-9.8h1.6v8.4h3.8v1.4zM79.6 325.6h-5.5v-9.8h5.3v1.4h-3.6v2.8h3.4v1.4h-3.4v2.9h3.9v1.3h-.1zM88.2 325.2c-.7.4-1.6.6-2.7.6-1.4 0-2.5-.4-3.4-1.3s-1.3-2.1-1.3-3.5c0-1.6.5-2.8 1.4-3.8s2.2-1.4 3.6-1.4c.9 0 1.7.1 2.3.4v1.6c-.7-.4-1.4-.6-2.2-.6-1.1 0-1.9.3-2.6 1s-1 1.6-1 2.7.3 1.9.9 2.6c.6.6 1.4 1 2.4 1 .9 0 1.7-.2 2.4-.7v1.4h.2zM96.3 317.2h-2.8v8.4h-1.6v-8.4h-2.8v-1.4h7.2v1.4zM99.3 325.6h-1.6v-9.8h1.7l-.1 9.8zM105.8 325.7c-1.4 0-2.5-.5-3.4-1.4-.8-.9-1.3-2.1-1.3-3.6 0-1.6.4-2.8 1.3-3.8.9-.9 2-1.4 3.5-1.4 1.4 0 2.5.5 3.3 1.4s1.3 2.1 1.3 3.6c0 1.6-.4 2.8-1.3 3.8s-2 1.4-3.4 1.4zm0-8.6c-.9 0-1.6.3-2.2 1s-.8 1.5-.8 2.6.3 2 .8 2.6c.5.7 1.3 1 2.1 1 .9 0 1.7-.3 2.2-.9s.8-1.5.8-2.6c0-1.2-.3-2.1-.8-2.7s-1.1-1-2.1-1zM120.5 325.6h-1.8l-4.7-7.2-.3-.6c0 .2.1.7.1 1.3v6.4h-1.6v-9.8h1.9l4.5 7c.2.3.3.5.4.6 0-.3-.1-.7-.1-1.3v-6.3h1.6v9.9zM133 317.2h-2.8v8.4h-1.6v-8.4h-2.8v-1.4h7.2v1.4zM136.1 325.6h-1.7v-9.8h1.7v9.8zM144 325.6h-5.5v-9.8h5.3v1.4h-3.6v2.8h3.4v1.4h-3.4v2.9h3.9v1.3h-.1zM153.3 325.6h-1.9l-1.6-2.6c-.1-.2-.3-.4-.4-.6-.1-.2-.3-.3-.4-.4-.1-.1-.3-.2-.5-.2s-.3-.1-.6-.1h-.7v4h-1.5v-9.8h3.2c.5 0 .9.1 1.3.2s.7.3 1 .5.5.5.7.8.2.7.2 1.2c0 .3-.1.7-.2.9-.1.3-.2.5-.4.8-.2.2-.4.4-.7.6s-.6.3-.9.4c.2.1.3.2.5.3.1.1.3.2.4.4.1.1.2.3.3.4.1.2.2.3.4.6l1.8 2.6zm-5.9-8.5v3.2h1.3c.2 0 .5 0 .7-.1s.4-.2.5-.3c.2-.1.3-.3.4-.5.1-.2.1-.4.1-.7 0-.5-.1-.8-.4-1.1s-.7-.4-1.3-.4h-1.3v-.1z"/><g><path d="M77.8 283.5c-6.4 0-11.6 5.2-11.6 11.6 0 6.4 5.2 11.6 11.6 11.6 6.4 0 11.6-5.2 11.6-11.6 0-6.4-5.2-11.6-11.6-11.6zm1.6 15.8c-.6.5-1.4.8-2.4.8-.9 0-1.6-.2-2.2-.5v-1.4c.6.5 1.3.7 2 .7.6 0 1.1-.1 1.5-.4.4-.3.5-.6.5-1.1 0-1-.8-1.5-2.4-1.5h-.7v-1.2h.7c1.4 0 2.1-.5 2.1-1.5 0-.9-.5-1.3-1.6-1.3-.6 0-1.2.2-1.7.7v-1.3c.6-.3 1.3-.5 2.2-.5.8 0 1.5.2 1.9.6s.7.9.7 1.6c0 1.2-.6 2-1.8 2.3.7.1 1.2.3 1.6.7s.6.9.6 1.5-.4 1.3-1 1.8z"/><path d="M78.2 295.2c1.2-.4 1.8-1.1 1.8-2.3 0-.6-.2-1.2-.7-1.6s-1.1-.6-1.9-.6c-.8 0-1.6.2-2.2.5v1.3c.5-.4 1.1-.7 1.7-.7 1.1 0 1.6.4 1.6 1.3 0 1-.7 1.5-2.1 1.5h-.7v1.2h.7c1.6 0 2.4.5 2.4 1.5 0 .5-.2.8-.5 1.1-.4.3-.8.4-1.5.4s-1.4-.2-2-.7v1.4c.5.3 1.3.5 2.2.5 1 0 1.8-.3 2.4-.8.6-.5.9-1.2.9-2 0-.6-.2-1.1-.6-1.5s-.8-.5-1.5-.5z" fill="#FFF"/></g></svg>