<?xml version="1.0" encoding="utf-8"?>
<!-- Generator: Adobe Illustrator 19.2.0, SVG Export Plug-In . SVG Version: 6.00 Build 0)  -->
<svg version="1.1" id="Layer_1" xmlns="http://www.w3.org/2000/svg" xmlns:xlink="http://www.w3.org/1999/xlink" x="0px" y="0px"
	 width="375px" height="154px" viewBox="0 0 375 154" style="enable-background:new 0 0 375 154;" xml:space="preserve">
<g>
	<path d="M190.9,105.3c-0.1-0.2-0.3-0.3-0.5-0.4c-0.2-0.1-0.4-0.1-0.7-0.1s-0.5,0-0.7,0.1s-0.4,0.2-0.5,0.4
		c-0.1,0.1-0.2,0.3-0.3,0.5c-0.1,0.2-0.1,0.4-0.1,0.6c0,0.2,0,0.4,0.1,0.7s0.2,0.4,0.3,0.6c0.1,0.2,0.3,0.3,0.5,0.5
		c0.2,0.1,0.4,0.2,0.7,0.2c0.2,0,0.5,0,0.6-0.1c0.2-0.1,0.3-0.2,0.5-0.4c0.1-0.2,0.2-0.3,0.3-0.6s0.1-0.4,0.1-0.7
		c0-0.3,0-0.5-0.1-0.7C191.1,105.6,191,105.4,190.9,105.3z"/>
	<path d="M189.5,92.9c-6.4,0-11.6,5.2-11.6,11.6s5.2,11.6,11.6,11.6s11.6-5.2,11.6-11.6S196,92.9,189.5,92.9z M192.5,107.7
		c-0.2,0.4-0.4,0.7-0.6,1c-0.3,0.3-0.6,0.5-0.9,0.6s-0.8,0.2-1.2,0.2c-0.5,0-0.9-0.1-1.3-0.3s-0.7-0.4-1-0.8s-0.5-0.8-0.6-1.3
		s-0.2-1.1-0.2-1.8c0-0.8,0.1-1.6,0.3-2.2s0.5-1.2,0.8-1.6s0.8-0.8,1.2-1c0.5-0.2,1-0.3,1.5-0.3c0.3,0,0.7,0,0.9,0.1
		c0.3,0,0.5,0.1,0.7,0.2v1.3c-0.2-0.1-0.4-0.2-0.7-0.3s-0.5-0.1-0.8-0.1c-0.4,0-0.7,0.1-1,0.2s-0.6,0.4-0.8,0.6s-0.4,0.6-0.5,1
		s-0.2,0.9-0.2,1.4h0c0.2-0.3,0.5-0.5,0.8-0.7s0.7-0.3,1.2-0.3c0.4,0,0.8,0.1,1.1,0.2s0.6,0.3,0.8,0.6s0.4,0.5,0.5,0.9
		c0.1,0.3,0.2,0.7,0.2,1.2C192.7,106.9,192.7,107.3,192.5,107.7z"/>
</g>
<g>
	<path d="M129.7,134.6h-1.6v-6.3c0-0.5,0-1.1,0.1-1.9h0c-0.1,0.4-0.2,0.7-0.3,0.9l-2.9,7.3h-1.1l-2.9-7.2c-0.1-0.2-0.2-0.5-0.3-1h0
		c0,0.4,0.1,1,0.1,1.9v6.3h-1.5v-9.8h2.3l2.6,6.5c0.2,0.5,0.3,0.9,0.4,1.1h0c0.2-0.5,0.3-0.9,0.4-1.1l2.6-6.5h2.2V134.6z"/>
	<path d="M140.1,134.6h-1.8l-0.9-2.5h-3.8l-0.8,2.5H131l3.7-9.8h1.8L140.1,134.6z M137,130.8l-1.4-3.9c0-0.1-0.1-0.3-0.1-0.6h0
		c0,0.3-0.1,0.5-0.1,0.6l-1.3,3.9H137z"/>
	<path d="M149.7,134.6H148l-4.7-7.2c-0.1-0.2-0.2-0.4-0.3-0.6h0c0,0.2,0.1,0.7,0.1,1.3v6.4h-1.6v-9.8h1.9l4.5,7
		c0.2,0.3,0.3,0.5,0.4,0.6h0c0-0.3-0.1-0.7-0.1-1.3v-6.3h1.6V134.6z"/>
	<path d="M160.1,134.6h-1.8l-0.9-2.5h-3.8l-0.8,2.5H151l3.7-9.8h1.8L160.1,134.6z M157.1,130.8l-1.4-3.9c0-0.1-0.1-0.3-0.1-0.6h0
		c0,0.3-0.1,0.5-0.1,0.6l-1.3,3.9H157.1z"/>
	<path d="M168.9,133.9c-1,0.6-2.1,0.8-3.4,0.8c-1.4,0-2.6-0.4-3.5-1.3c-0.9-0.9-1.3-2.1-1.3-3.6c0-1.5,0.5-2.7,1.5-3.7
		c1-1,2.2-1.5,3.7-1.5c1.1,0,2,0.2,2.7,0.5v1.7c-0.7-0.5-1.6-0.7-2.7-0.7c-1,0-1.9,0.3-2.6,1s-1,1.6-1,2.7c0,1.1,0.3,2,0.9,2.6
		s1.3,1,2.3,1c0.7,0,1.3-0.1,1.7-0.4v-2.3h-2.1v-1.4h3.7V133.9z"/>
	<path d="M176.5,134.6H171v-9.8h5.3v1.4h-3.6v2.8h3.4v1.4h-3.4v2.9h3.9V134.6z"/>
	<path d="M188.7,134.6h-1.6v-6.3c0-0.5,0-1.1,0.1-1.9h0c-0.1,0.4-0.2,0.7-0.3,0.9l-2.9,7.3h-1.1l-2.9-7.2c-0.1-0.2-0.2-0.5-0.3-1h0
		c0,0.4,0.1,1,0.1,1.9v6.3h-1.5v-9.8h2.3l2.6,6.5c0.2,0.5,0.3,0.9,0.4,1.1h0c0.2-0.5,0.3-0.9,0.4-1.1l2.6-6.5h2.2V134.6z"/>
	<path d="M196.6,134.6h-5.5v-9.8h5.3v1.4h-3.6v2.8h3.4v1.4h-3.4v2.9h3.9V134.6z"/>
	<path d="M206.6,134.6h-1.8l-4.7-7.2c-0.1-0.2-0.2-0.4-0.3-0.6h0c0,0.2,0.1,0.7,0.1,1.3v6.4h-1.6v-9.8h1.9l4.5,7
		c0.2,0.3,0.3,0.5,0.4,0.6h0c0-0.3-0.1-0.7-0.1-1.3v-6.3h1.6V134.6z"/>
	<path d="M215.3,126.2h-2.8v8.4h-1.6v-8.4H208v-1.4h7.2V126.2z"/>
	<path d="M226.8,126.2H224v8.4h-1.6v-8.4h-2.8v-1.4h7.2V126.2z"/>
	<path d="M231.6,134.7c-1.4,0-2.5-0.5-3.4-1.4c-0.8-0.9-1.3-2.1-1.3-3.6c0-1.6,0.4-2.8,1.3-3.8c0.9-0.9,2-1.4,3.5-1.4
		c1.4,0,2.5,0.5,3.3,1.4c0.8,0.9,1.3,2.1,1.3,3.6c0,1.6-0.4,2.8-1.3,3.8C234.2,134.3,233.1,134.7,231.6,134.7z M231.7,126.1
		c-0.9,0-1.6,0.3-2.2,1c-0.6,0.7-0.8,1.5-0.8,2.6c0,1.1,0.3,2,0.8,2.6c0.5,0.7,1.3,1,2.1,1c0.9,0,1.7-0.3,2.2-0.9
		c0.5-0.6,0.8-1.5,0.8-2.6c0-1.2-0.3-2.1-0.8-2.7S232.6,126.1,231.7,126.1z"/>
	<path d="M242.2,134.7c-1.4,0-2.5-0.5-3.4-1.4c-0.8-0.9-1.3-2.1-1.3-3.6c0-1.6,0.4-2.8,1.3-3.8c0.9-0.9,2-1.4,3.5-1.4
		c1.4,0,2.5,0.5,3.3,1.4c0.8,0.9,1.3,2.1,1.3,3.6c0,1.6-0.4,2.8-1.3,3.8C244.8,134.3,243.6,134.7,242.2,134.7z M242.2,126.1
		c-0.9,0-1.6,0.3-2.2,1c-0.6,0.7-0.8,1.5-0.8,2.6c0,1.1,0.3,2,0.8,2.6c0.5,0.7,1.3,1,2.1,1c0.9,0,1.7-0.3,2.2-0.9
		c0.5-0.6,0.8-1.5,0.8-2.6c0-1.2-0.3-2.1-0.8-2.7S243.2,126.1,242.2,126.1z"/>
	<path d="M254.1,134.6h-5.4v-9.8h1.6v8.4h3.8V134.6z"/>
	<path d="M255,134.2v-1.7c0.1,0.1,0.3,0.3,0.5,0.4c0.2,0.1,0.4,0.2,0.7,0.3c0.2,0.1,0.5,0.1,0.7,0.2c0.2,0,0.4,0.1,0.6,0.1
		c0.7,0,1.2-0.1,1.5-0.3s0.5-0.6,0.5-1c0-0.2-0.1-0.4-0.2-0.6s-0.3-0.3-0.5-0.5s-0.4-0.3-0.7-0.4c-0.3-0.1-0.6-0.3-0.9-0.4
		c-0.3-0.2-0.6-0.4-0.9-0.5c-0.3-0.2-0.5-0.4-0.7-0.6s-0.4-0.5-0.5-0.7s-0.2-0.6-0.2-1c0-0.5,0.1-0.9,0.3-1.2s0.5-0.6,0.8-0.8
		c0.3-0.2,0.7-0.4,1.2-0.5s0.9-0.2,1.3-0.2c1,0,1.8,0.1,2.2,0.3v1.6c-0.6-0.4-1.3-0.6-2.1-0.6c-0.2,0-0.5,0-0.7,0.1
		c-0.2,0-0.5,0.1-0.6,0.2s-0.3,0.2-0.5,0.4s-0.2,0.4-0.2,0.6c0,0.2,0,0.4,0.1,0.6c0.1,0.2,0.2,0.3,0.4,0.4c0.2,0.1,0.4,0.3,0.6,0.4
		c0.3,0.1,0.5,0.3,0.9,0.4c0.3,0.2,0.7,0.4,1,0.6c0.3,0.2,0.6,0.4,0.8,0.6c0.2,0.2,0.4,0.5,0.5,0.8s0.2,0.6,0.2,1
		c0,0.5-0.1,0.9-0.3,1.3c-0.2,0.3-0.5,0.6-0.8,0.8c-0.3,0.2-0.7,0.4-1.2,0.5c-0.4,0.1-0.9,0.1-1.4,0.1c-0.2,0-0.4,0-0.6,0
		c-0.2,0-0.5-0.1-0.7-0.1c-0.2,0-0.5-0.1-0.7-0.2C255.4,134.4,255.2,134.3,255,134.2z"/>
</g>
<g>
	
		<line style="fill:none;stroke:#DFDFDE;stroke-width:4;stroke-linecap:round;stroke-linejoin:round;stroke-miterlimit:10;" x1="189.4" y1="70.5" x2="189.4" y2="-10.3"/>
	
		<circle style="fill:none;stroke:#DFDFDE;stroke-width:4;stroke-linecap:round;stroke-linejoin:round;stroke-miterlimit:10;" cx="189.4" cy="76" r="5"/>
</g>
</svg>
