<?xml version="1.0" encoding="utf-8"?>
<!-- Generator: Adobe Illustrator 19.2.0, SVG Export Plug-In . SVG Version: 6.00 Build 0)  -->
<svg version="1.1" id="Layer_1" xmlns="http://www.w3.org/2000/svg" xmlns:xlink="http://www.w3.org/1999/xlink" x="0px" y="0px"
	 width="157px" height="329px" viewBox="0 0 157 329" style="enable-background:new 0 0 157 329;" xml:space="preserve">
<g id="Layer_2">
</g>
<line style="fill:none;stroke:#DEDEDE;stroke-width:4;stroke-linecap:round;stroke-linejoin:round;stroke-miterlimit:10;" x1="8" y1="288.9" x2="41.6" y2="288.9"/>
<circle style="fill:none;stroke:#DEDEDE;stroke-width:4;stroke-linecap:round;stroke-linejoin:round;stroke-miterlimit:10;" cx="47.1" cy="288.9" r="5"/>
<g>
	<path d="M60.1,326.8v-9.8h2.8c3.6,0,5.4,1.6,5.4,4.8c0,1.5-0.5,2.7-1.5,3.6c-1,0.9-2.3,1.4-4,1.4H60.1z M61.7,318.5v7H63
		c1.1,0,2-0.3,2.7-0.9c0.6-0.6,0.9-1.5,0.9-2.7c0-2.3-1.2-3.4-3.5-3.4H61.7z"/>
	<path d="M77.9,326.8h-1.8l-0.9-2.5h-3.8l-0.8,2.5h-1.8l3.7-9.8h1.8L77.9,326.8z M74.8,323l-1.4-3.9c0-0.1-0.1-0.3-0.1-0.6h0
		c0,0.3-0.1,0.5-0.1,0.6l-1.3,3.9H74.8z"/>
	<path d="M84.5,318.5h-2.8v8.4h-1.6v-8.4h-2.8v-1.4h7.2V318.5z"/>
	<path d="M92.9,326.8h-1.8l-0.9-2.5h-3.8l-0.8,2.5h-1.8l3.7-9.8h1.8L92.9,326.8z M89.8,323l-1.4-3.9c0-0.1-0.1-0.3-0.1-0.6h0
		c0,0.3-0.1,0.5-0.1,0.6l-1.3,3.9H89.8z"/>
	<path d="M103.3,318.5h-3.6v2.9h3.4v1.4h-3.4v4.1h-1.6v-9.8h5.3V318.5z"/>
	<path d="M112.2,326.8h-1.8l-0.9-2.5h-3.8l-0.8,2.5h-1.8l3.7-9.8h1.8L112.2,326.8z M109.2,323l-1.4-3.9c0-0.1-0.1-0.3-0.1-0.6h0
		c0,0.3-0.1,0.5-0.1,0.6l-1.3,3.9H109.2z"/>
	<path d="M120.2,326.4c-0.7,0.4-1.6,0.6-2.7,0.6c-1.4,0-2.5-0.4-3.4-1.3c-0.9-0.9-1.3-2.1-1.3-3.5c0-1.6,0.5-2.8,1.4-3.8
		s2.2-1.4,3.6-1.4c0.9,0,1.7,0.1,2.3,0.4v1.6c-0.7-0.4-1.4-0.6-2.2-0.6c-1.1,0-1.9,0.3-2.6,1s-1,1.6-1,2.7c0,1.1,0.3,1.9,0.9,2.6
		c0.6,0.6,1.4,1,2.4,1c0.9,0,1.7-0.2,2.4-0.7V326.4z"/>
	<path d="M128.3,318.5h-2.8v8.4h-1.6v-8.4h-2.8v-1.4h7.2V318.5z"/>
	<path d="M133.2,327c-1.4,0-2.5-0.5-3.4-1.4c-0.8-0.9-1.3-2.1-1.3-3.6c0-1.6,0.4-2.8,1.3-3.8c0.9-0.9,2-1.4,3.5-1.4
		c1.4,0,2.5,0.5,3.3,1.4c0.8,0.9,1.3,2.1,1.3,3.6c0,1.6-0.4,2.8-1.3,3.8C135.7,326.5,134.6,327,133.2,327z M133.2,318.3
		c-0.9,0-1.6,0.3-2.2,1c-0.6,0.7-0.8,1.5-0.8,2.6c0,1.1,0.3,2,0.8,2.6c0.5,0.7,1.3,1,2.1,1c0.9,0,1.7-0.3,2.2-0.9
		c0.5-0.6,0.8-1.5,0.8-2.6c0-1.2-0.3-2.1-0.8-2.7S134.2,318.3,133.2,318.3z"/>
	<path d="M147.2,326.8h-1.9l-1.6-2.6c-0.1-0.2-0.3-0.4-0.4-0.6c-0.1-0.2-0.3-0.3-0.4-0.4c-0.1-0.1-0.3-0.2-0.5-0.2s-0.3-0.1-0.6-0.1
		h-0.7v4h-1.6v-9.8h3.2c0.5,0,0.9,0.1,1.3,0.2c0.4,0.1,0.7,0.3,1,0.5c0.3,0.2,0.5,0.5,0.7,0.8c0.2,0.3,0.2,0.7,0.2,1.2
		c0,0.3-0.1,0.7-0.2,0.9c-0.1,0.3-0.2,0.5-0.4,0.8c-0.2,0.2-0.4,0.4-0.7,0.6c-0.3,0.2-0.6,0.3-0.9,0.4v0c0.2,0.1,0.3,0.2,0.5,0.3
		c0.1,0.1,0.3,0.2,0.4,0.4c0.1,0.1,0.2,0.3,0.3,0.4c0.1,0.2,0.2,0.3,0.4,0.6L147.2,326.8z M141.3,318.4v3.2h1.3c0.2,0,0.5,0,0.7-0.1
		s0.4-0.2,0.5-0.3c0.2-0.1,0.3-0.3,0.4-0.5c0.1-0.2,0.1-0.4,0.1-0.7c0-0.5-0.1-0.8-0.4-1.1s-0.7-0.4-1.3-0.4H141.3z"/>
	<path d="M154.9,317.1l-3.2,6.2v3.5h-1.6v-3.5l-3.1-6.2h1.8l1.9,4.2c0,0,0.1,0.2,0.2,0.6h0c0-0.1,0.1-0.3,0.2-0.6l2-4.2H154.9z"/>
</g>
<path d="M125.8,290.8v-9.3l-10.6,9.2H115v-9.2l-10.6,9.2v-19.3c0-1.6-3.6-3.3-8.4-3.3c-4.8,0-8.8,1.6-8.8,3.3v35.2h38.7L125.8,290.8
	L125.8,290.8L125.8,290.8z M95.9,272.9c-3.4,0-6.2-0.8-6.2-1.8s2.8-1.8,6.2-1.8s6.2,0.7,6.2,1.8C102.2,272,99.4,272.9,95.9,272.9
	L95.9,272.9z M114.2,300.4h-4.3v-4.3h4.3V300.4L114.2,300.4L114.2,300.4z M106.8,300.4h-4.3v-4.3h4.3V300.4L106.8,300.4L106.8,300.4
	z M117.6,300.4v-4.3h4.3v4.3H117.6L117.6,300.4L117.6,300.4z"/>
<line style="fill:none;stroke:#DEDEDE;stroke-width:4;stroke-linecap:round;stroke-linejoin:round;stroke-miterlimit:10;" x1="7.5" y1="0" x2="7.5" y2="288.9"/>
</svg>
