<?xml version="1.0" encoding="utf-8"?>
<!-- Generator: Adobe Illustrator 19.2.0, SVG Export Plug-In . SVG Version: 6.00 Build 0)  -->
<svg version="1.1" id="Layer_1" xmlns="http://www.w3.org/2000/svg" xmlns:xlink="http://www.w3.org/1999/xlink" x="0px" y="0px"
	 width="166.1px" height="268.6px" viewBox="0 0 166.1 268.6" style="enable-background:new 0 0 166.1 268.6;" xml:space="preserve"
	>
<g>
	<path style="fill:#010101;" d="M70.1,70.3h-1.6v-4.2h-4.6v4.2h-1.6v-9.8h1.6v4.1h4.6v-4.1h1.6V70.3z"/>
	<path style="fill:#010101;" d="M80.6,70.3h-1.8l-0.9-2.5h-3.8l-0.8,2.5h-1.8l3.7-9.8h1.8L80.6,70.3z M77.5,66.5l-1.4-3.9
		c0-0.1-0.1-0.3-0.1-0.6h0c0,0.3-0.1,0.5-0.1,0.6l-1.3,3.9H77.5z"/>
	<path style="fill:#010101;" d="M81.9,70.3v-9.8h2.8c3.6,0,5.4,1.6,5.4,4.8c0,1.5-0.5,2.7-1.5,3.6c-1,0.9-2.3,1.4-4,1.4H81.9z
		 M83.5,61.9v7h1.3c1.1,0,2-0.3,2.7-0.9c0.6-0.6,0.9-1.5,0.9-2.7c0-2.3-1.2-3.4-3.5-3.4H83.5z"/>
	<path style="fill:#010101;" d="M95.9,70.5c-1.4,0-2.5-0.5-3.4-1.4c-0.8-0.9-1.3-2.1-1.3-3.6c0-1.6,0.4-2.8,1.3-3.8
		c0.9-0.9,2-1.4,3.5-1.4c1.4,0,2.5,0.5,3.3,1.4c0.8,0.9,1.3,2.1,1.3,3.6c0,1.6-0.4,2.8-1.3,3.8C98.5,70,97.3,70.5,95.9,70.5z
		 M96,61.8c-0.9,0-1.6,0.3-2.2,1c-0.6,0.7-0.8,1.5-0.8,2.6c0,1.1,0.3,2,0.8,2.6c0.5,0.7,1.3,1,2.1,1c0.9,0,1.7-0.3,2.2-0.9
		c0.5-0.6,0.8-1.5,0.8-2.6c0-1.2-0.3-2.1-0.8-2.7S96.9,61.8,96,61.8z"/>
	<path style="fill:#010101;" d="M106.4,70.5c-1.4,0-2.5-0.5-3.4-1.4c-0.8-0.9-1.3-2.1-1.3-3.6c0-1.6,0.4-2.8,1.3-3.8
		c0.9-0.9,2-1.4,3.5-1.4c1.4,0,2.5,0.5,3.3,1.4c0.8,0.9,1.3,2.1,1.3,3.6c0,1.6-0.4,2.8-1.3,3.8C109,70,107.9,70.5,106.4,70.5z
		 M106.5,61.8c-0.9,0-1.6,0.3-2.2,1c-0.6,0.7-0.8,1.5-0.8,2.6c0,1.1,0.3,2,0.8,2.6c0.5,0.7,1.3,1,2.1,1c0.9,0,1.7-0.3,2.2-0.9
		c0.5-0.6,0.8-1.5,0.8-2.6c0-1.2-0.3-2.1-0.8-2.7S107.4,61.8,106.5,61.8z"/>
	<path style="fill:#010101;" d="M114.6,66.8v3.5h-1.6v-9.8h3c1.1,0,2,0.3,2.6,0.8s0.9,1.3,0.9,2.2c0,0.9-0.3,1.7-1,2.3
		c-0.6,0.6-1.5,0.9-2.6,0.9H114.6z M114.6,61.9v3.6h1c0.7,0,1.2-0.2,1.6-0.5c0.4-0.3,0.5-0.8,0.5-1.4c0-1.1-0.7-1.7-2-1.7H114.6z"/>
	<path style="fill:#010101;" d="M131.2,61.9h-2.8v8.4h-1.6v-8.4H124v-1.4h7.2V61.9z"/>
	<path style="fill:#010101;" d="M134.3,70.3h-1.7v-9.8h1.7V70.3z"/>
	<path style="fill:#010101;" d="M142.1,70.3h-5.5v-9.8h5.3v1.4h-3.6v2.8h3.4v1.4h-3.4v2.9h3.9V70.3z"/>
	<path style="fill:#010101;" d="M151.4,70.3h-1.9l-1.6-2.6c-0.1-0.2-0.3-0.4-0.4-0.6c-0.1-0.2-0.3-0.3-0.4-0.4
		c-0.1-0.1-0.3-0.2-0.5-0.2s-0.3-0.1-0.6-0.1h-0.7v4h-1.6v-9.8h3.2c0.5,0,0.9,0.1,1.3,0.2c0.4,0.1,0.7,0.3,1,0.5
		c0.3,0.2,0.5,0.5,0.7,0.8c0.2,0.3,0.2,0.7,0.2,1.2c0,0.3-0.1,0.7-0.2,0.9c-0.1,0.3-0.2,0.5-0.4,0.8c-0.2,0.2-0.4,0.4-0.7,0.6
		c-0.3,0.2-0.6,0.3-0.9,0.4v0c0.2,0.1,0.3,0.2,0.5,0.3c0.1,0.1,0.3,0.2,0.4,0.4c0.1,0.1,0.2,0.3,0.3,0.4c0.1,0.2,0.2,0.3,0.4,0.6
		L151.4,70.3z M145.5,61.9V65h1.3c0.2,0,0.5,0,0.7-0.1s0.4-0.2,0.5-0.3c0.2-0.1,0.3-0.3,0.4-0.5c0.1-0.2,0.1-0.4,0.1-0.7
		c0-0.5-0.1-0.8-0.4-1.1s-0.7-0.4-1.3-0.4H145.5z"/>
</g>
<g>
	<path style="fill:#010101;" d="M106.1,28.5c-6.4,0-11.6,5.2-11.6,11.6s5.2,11.6,11.6,11.6c6.4,0,11.6-5.2,11.6-11.6
		S112.5,28.5,106.1,28.5z M109.4,42.9h-1.4v2h-1.4v-2h-4.1v-1.2c0.4-0.4,0.8-0.9,1.1-1.4c0.4-0.5,0.8-1,1.1-1.5c0.4-0.5,0.7-1,1-1.5
		s0.6-1,0.8-1.5h1.5v5.9h1.4V42.9z"/>
	<path style="fill:#010101;" d="M104,41.7h2.6v-3.8c-0.5,0.8-0.9,1.6-1.4,2.2C104.8,40.6,104.4,41.2,104,41.7z"/>
	<path d="M106.7,41.7H104c0.4-0.5,0.8-1,1.3-1.7c0.5-0.6,0.9-1.3,1.4-2.2V41.7z"/>
</g>
<g>
	
		<line style="fill:none;stroke:#DFDFDE;stroke-width:4;stroke-linecap:round;stroke-linejoin:round;stroke-miterlimit:10;" x1="34.1" y1="308.2" x2="33.1" y2="42"/>
</g>
<g>
	
		<line style="fill:none;stroke:#DFDFDE;stroke-width:4;stroke-linecap:round;stroke-linejoin:round;stroke-miterlimit:10;" x1="34.1" y1="42" x2="46" y2="42"/>
	
		<circle style="fill:none;stroke:#DFDFDE;stroke-width:4;stroke-linecap:round;stroke-linejoin:round;stroke-miterlimit:10;" cx="51.5" cy="42" r="5"/>
</g>
</svg>
