<?xml version="1.0" encoding="utf-8"?>
<!-- Generator: Adobe Illustrator 19.2.0, SVG Export Plug-In . SVG Version: 6.00 Build 0)  -->
<svg version="1.1" id="Layer_2_1_" xmlns="http://www.w3.org/2000/svg" xmlns:xlink="http://www.w3.org/1999/xlink" x="0px" y="0px"
	 width="94px" height="329.2px" viewBox="0 0 94 329.2" style="enable-background:new 0 0 94 329.2;" xml:space="preserve">
<g>
	
		<line style="fill:none;stroke:#DEDEDE;stroke-width:4;stroke-linecap:round;stroke-linejoin:round;stroke-miterlimit:10;" x1="48.3" y1="-68.2" x2="48.3" y2="202.9"/>
	
		<circle style="fill:none;stroke:#DEDEDE;stroke-width:4;stroke-linecap:round;stroke-linejoin:round;stroke-miterlimit:10;" cx="48.3" cy="208.4" r="5"/>
</g>
<g>
	<g>
		<path d="M32.9,305.8h-1.8l-0.9-2.5h-3.8l-0.8,2.5h-1.8l3.7-9.8h1.8L32.9,305.8z M29.8,302l-1.4-3.9c0-0.1-0.1-0.3-0.1-0.6l0,0
			c0,0.3-0.1,0.5-0.1,0.6l-1.3,3.9H29.8z"/>
		<path d="M41.2,296.8l-5.3,7.7h5.3v1.4h-7.5v-0.7l5.4-7.6h-5v-1.4h7.2v0.6H41.2z"/>
		<path d="M50.2,301.9c0,2.7-1.3,4.1-3.9,4.1c-2.5,0-3.7-1.3-3.7-4v-6h1.6v5.6c0,1.9,0.7,2.9,2.2,2.9c1.4,0,2.1-0.9,2.1-2.8V296h1.6
			v5.9H50.2z"/>
		<path d="M60.1,305.8h-1.9l-1.6-2.6c-0.1-0.2-0.3-0.4-0.4-0.6c-0.1-0.2-0.3-0.3-0.4-0.4c-0.1-0.1-0.3-0.2-0.5-0.2s-0.3-0.1-0.6-0.1
			H54v4h-1.6v-9.8h3.2c0.5,0,0.9,0.1,1.3,0.2c0.4,0.1,0.7,0.3,1,0.5s0.5,0.5,0.7,0.8s0.2,0.7,0.2,1.2c0,0.3-0.1,0.7-0.2,0.9
			c-0.1,0.3-0.2,0.5-0.4,0.8c-0.2,0.2-0.4,0.4-0.7,0.6s-0.6,0.3-0.9,0.4l0,0c0.2,0.1,0.3,0.2,0.5,0.3c0.1,0.1,0.3,0.2,0.4,0.4
			c0.1,0.1,0.2,0.3,0.3,0.4c0.1,0.2,0.2,0.3,0.4,0.6L60.1,305.8z M54.1,297.4v3.2h1.3c0.2,0,0.5,0,0.7-0.1s0.4-0.2,0.5-0.3
			c0.2-0.1,0.3-0.3,0.4-0.5c0.1-0.2,0.1-0.4,0.1-0.7c0-0.5-0.1-0.8-0.4-1.1s-0.7-0.4-1.3-0.4h-1.3V297.4z"/>
		<path d="M66.7,305.8h-5.5V296h5.3v1.4h-3.6v2.8h3.4v1.4h-3.4v2.9h3.9v1.3H66.7z"/>
		<path d="M37.5,314.1h-3.6v2.9h3.4v1.4h-3.4v4.1h-1.6v-9.8h5.3v1.4H37.5z"/>
		<path d="M40.9,322.5h-1.7v-9.8h1.7V322.5z"/>
		<path d="M48.7,322.5h-5.4v-9.8h1.6v8.4h3.8C48.7,321.1,48.7,322.5,48.7,322.5z"/>
		<path d="M55.6,322.5h-5.5v-9.8h5.3v1.4h-3.6v2.8h3.4v1.4h-3.4v2.9h3.9v1.3H55.6z"/>
		<path d="M56.9,322.1v-1.7c0.1,0.1,0.3,0.3,0.5,0.4s0.4,0.2,0.7,0.3c0.2,0.1,0.5,0.1,0.7,0.2c0.2,0,0.4,0.1,0.6,0.1
			c0.7,0,1.2-0.1,1.5-0.3s0.5-0.6,0.5-1c0-0.2-0.1-0.4-0.2-0.6s-0.3-0.3-0.5-0.5s-0.4-0.3-0.7-0.4s-0.6-0.3-0.9-0.4
			c-0.3-0.2-0.6-0.4-0.9-0.5c-0.3-0.2-0.5-0.4-0.7-0.6s-0.4-0.5-0.5-0.7s-0.2-0.6-0.2-1c0-0.5,0.1-0.9,0.3-1.2s0.5-0.6,0.8-0.8
			c0.3-0.2,0.7-0.4,1.2-0.5s0.9-0.2,1.3-0.2c1,0,1.8,0.1,2.2,0.3v1.6c-0.6-0.4-1.3-0.6-2.1-0.6c-0.2,0-0.5,0-0.7,0.1
			c-0.2,0-0.5,0.1-0.6,0.2s-0.3,0.2-0.5,0.4s-0.2,0.4-0.2,0.6s0,0.4,0.1,0.6s0.2,0.3,0.4,0.4s0.4,0.3,0.6,0.4
			c0.3,0.1,0.5,0.3,0.9,0.4c0.3,0.2,0.7,0.4,1,0.6s0.6,0.4,0.8,0.6s0.4,0.5,0.5,0.8s0.2,0.6,0.2,1c0,0.5-0.1,0.9-0.3,1.3
			c-0.2,0.3-0.5,0.6-0.8,0.8c-0.3,0.2-0.7,0.4-1.2,0.5c-0.4,0.1-0.9,0.1-1.4,0.1c-0.2,0-0.4,0-0.6,0c-0.2,0-0.5-0.1-0.7-0.1
			s-0.5-0.1-0.7-0.2C57.2,322.3,57,322.2,56.9,322.1z"/>
	</g>
	<g>
		<path d="M54.1,249.9h-17c-0.9,0-1.5,0.7-1.5,1.5v21.4c0,0.9,0.7,1.6,1.5,1.6h20.2c0.9,0,1.5-0.7,1.5-1.6v-18h-4.7V249.9z
			 M53.7,268.4H40.8v-2.5h12.9C53.7,265.9,53.7,268.4,53.7,268.4z M53.7,263.9H40.8v-2.5h12.9C53.7,261.4,53.7,263.9,53.7,263.9z
			 M53.7,259.2H40.8v-2.5h12.9C53.7,256.7,53.7,259.2,53.7,259.2z"/>
		<path d="M61.1,238.3H33.6l-13.8,23.8L33.6,286h27.5l13.8-23.8L61.1,238.3z M57.5,276.7H37.3c-2.2,0-3.9-1.7-3.9-3.9v-21.4
			c0-2.2,1.7-3.9,3.9-3.9h18.3l5.8,5.8v19.5C61.4,274.9,59.6,276.7,57.5,276.7z"/>
	</g>
</g>
</svg>
