<?xml version="1.0" encoding="utf-8"?>
<!-- Generator: Adobe Illustrator 19.2.0, SVG Export Plug-In . SVG Version: 6.00 Build 0)  -->
<svg version="1.1" id="Layer_2_1_" xmlns="http://www.w3.org/2000/svg" xmlns:xlink="http://www.w3.org/1999/xlink" x="0px" y="0px"
	 width="90px" height="171px" viewBox="0 0 90 171" style="enable-background:new 0 0 90 171;" xml:space="preserve">
<g>
	
		<line style="fill:none;stroke:#DEDEDE;stroke-width:4;stroke-linecap:round;stroke-linejoin:round;stroke-miterlimit:10;" x1="45" y1="-189.2" x2="45" y2="81.9"/>
	
		<circle style="fill:none;stroke:#DEDEDE;stroke-width:4;stroke-linecap:round;stroke-linejoin:round;stroke-miterlimit:10;" cx="45" cy="87.4" r="5"/>
</g>
<g>
	<path d="M0.1,165.1v-9.8h1.6v9.8H0.1z"/>
	<path d="M12.5,160.1c0,0.8-0.1,1.4-0.4,2.1s-0.6,1.1-1.1,1.6s-1,0.8-1.7,1c-0.7,0.2-1.4,0.4-2.2,0.4h-3v-9.8h3
		c1.8,0,3.1,0.4,3.9,1.2S12.5,158.5,12.5,160.1z M10.8,160.1c0-0.5-0.1-1-0.2-1.4c-0.2-0.4-0.4-0.8-0.7-1.1
		c-0.3-0.3-0.7-0.5-1.1-0.7c-0.4-0.2-1-0.2-1.5-0.2H5.9v7h1.3c0.6,0,1.1-0.1,1.6-0.3c0.5-0.2,0.8-0.4,1.1-0.7
		c0.3-0.3,0.5-0.7,0.7-1.1S10.8,160.6,10.8,160.1z"/>
	<path d="M14.3,165.1v-9.8h5.3v1.4H16v2.8h3.4v1.4H16v2.8h3.9v1.4H14.3z"/>
	<path d="M28,165.1l-4.5-7.3c0,0-0.1-0.1-0.1-0.2s-0.1-0.1-0.1-0.2c0-0.1-0.1-0.1-0.1-0.2s0-0.1-0.1-0.2h0c0,0.1,0,0.2,0,0.3
		s0,0.3,0,0.5s0,0.3,0,0.5c0,0.1,0,0.3,0,0.3v6.4h-1.6v-9.8h2.1l4.3,7.1c0,0,0.1,0.1,0.1,0.2c0,0.1,0.1,0.1,0.1,0.2
		c0,0.1,0.1,0.1,0.1,0.2c0,0.1,0.1,0.1,0.1,0.2h0c0,0,0-0.1,0-0.3c0-0.1,0-0.3,0-0.5c0-0.2,0-0.3,0-0.5c0-0.2,0-0.3,0-0.3v-6.2h1.6
		v9.8H28z"/>
	<path d="M35.8,156.7v8.4h-1.6v-8.4h-2.8v-1.4h7.3v1.4H35.8z"/>
	<path d="M40.1,165.1v-9.8h1.6v9.8H40.1z"/>
	<path d="M47.6,156.7v8.4H46v-8.4h-2.8v-1.4h7.3v1.4H47.6z"/>
	<path d="M55.7,161.5v3.6h-1.6v-3.5l-3.2-6.3h1.8l2,4.1c0.1,0.1,0.1,0.3,0.1,0.4c0,0.1,0.1,0.2,0.1,0.3h0c0-0.1,0.1-0.2,0.1-0.3
		c0-0.1,0.1-0.2,0.1-0.3l2-4.1H59L55.7,161.5z"/>
	<path d="M67.5,156.7v8.4h-1.6v-8.4H63v-1.4h7.3v1.4H67.5z"/>
	<path d="M71.7,165.1v-9.8h1.6v9.8H71.7z"/>
	<path d="M75.9,165.1v-9.8h5.3v1.4h-3.7v2.8h3.4v1.4h-3.4v2.8h3.9v1.4H75.9z"/>
	<path d="M88,165.1l-1.2-2.8c-0.2-0.4-0.4-0.7-0.6-0.9c-0.2-0.2-0.5-0.3-0.7-0.3h-0.8v4h-1.6v-9.8h3.2c0.5,0,1,0.1,1.4,0.2
		c0.4,0.1,0.7,0.3,1,0.5s0.5,0.5,0.6,0.8c0.1,0.3,0.2,0.7,0.2,1.1c0,0.4-0.1,0.7-0.2,1c-0.1,0.3-0.2,0.6-0.4,0.8
		c-0.2,0.2-0.4,0.4-0.7,0.6c-0.3,0.2-0.6,0.3-0.9,0.4v0c0.1,0,0.2,0.1,0.3,0.2c0.1,0.1,0.2,0.2,0.3,0.3c0.1,0.1,0.2,0.2,0.3,0.4
		c0.1,0.1,0.1,0.3,0.2,0.4l1.5,3.2H88z M87.8,158.1c0-0.2,0-0.4-0.1-0.6c-0.1-0.2-0.2-0.3-0.3-0.5c-0.1-0.1-0.3-0.2-0.5-0.3
		s-0.5-0.1-0.8-0.1h-1.3v3.1H86c0.3,0,0.5,0,0.7-0.1c0.2-0.1,0.4-0.2,0.6-0.4c0.2-0.1,0.3-0.3,0.4-0.5S87.8,158.3,87.8,158.1z"/>
</g>
<g>
	<path d="M45,122c-6.4,0-11.6,5.2-11.6,11.6c0,6.4,5.2,11.6,11.6,11.6s11.6-5.2,11.6-11.6C56.6,127.2,51.4,122,45,122z M46.9,137.9
		c-0.6,0.5-1.4,0.8-2.5,0.8c-0.9,0-1.6-0.1-2-0.4v-1.4c0.6,0.4,1.2,0.6,1.8,0.6c0.6,0,1.1-0.2,1.5-0.5s0.6-0.7,0.6-1.3
		c0-0.5-0.2-0.9-0.6-1.2s-0.9-0.4-1.6-0.4c-0.2,0-0.7,0-1.5,0.1l0.3-4.8h4.5v1.3h-3.3L44,133c0.3,0,0.6,0,0.8,0c1,0,1.7,0.2,2.2,0.7
		c0.5,0.5,0.8,1.2,0.8,2C47.8,136.6,47.5,137.4,46.9,137.9z"/>
	<path style="fill:#FFFFFF;" d="M44.8,133c-0.2,0-0.5,0-0.8,0l0.2-2.3h3.3v-1.3h-4.5l-0.3,4.8c0.7-0.1,1.2-0.1,1.5-0.1
		c0.7,0,1.3,0.1,1.6,0.4s0.6,0.7,0.6,1.2c0,0.5-0.2,0.9-0.6,1.3s-0.9,0.5-1.5,0.5c-0.6,0-1.2-0.2-1.8-0.6v1.4c0.4,0.2,1.1,0.4,2,0.4
		c1.1,0,1.9-0.3,2.5-0.8c0.6-0.5,0.9-1.3,0.9-2.2c0-0.9-0.3-1.5-0.8-2C46.5,133.2,45.8,133,44.8,133z"/>
</g>
</svg>
