<?xml version="1.0" encoding="utf-8"?>
<!-- Generator: Adobe Illustrator 19.2.0, SVG Export Plug-In . SVG Version: 6.00 Build 0)  -->
<svg version="1.1" id="Layer_1" xmlns="http://www.w3.org/2000/svg" xmlns:xlink="http://www.w3.org/1999/xlink" x="0px" y="0px"
	 width="375px" height="154px" viewBox="0 0 375 154" style="enable-background:new 0 0 375 154;" xml:space="preserve">
<g>
	
		<line style="fill:none;stroke:#DFDFDE;stroke-width:4;stroke-linecap:round;stroke-linejoin:round;stroke-miterlimit:10;" x1="191.7" y1="70.5" x2="191.7" y2="-10.3"/>
	
		<circle style="fill:none;stroke:#DFDFDE;stroke-width:4;stroke-linecap:round;stroke-linejoin:round;stroke-miterlimit:10;" cx="191.7" cy="76" r="5"/>
</g>
<g>
	<path d="M192.8,101.8c-0.1-0.2-0.3-0.3-0.5-0.4s-0.4-0.1-0.6-0.1c-0.2,0-0.4,0-0.6,0.1c-0.2,0.1-0.3,0.2-0.5,0.4s-0.2,0.3-0.3,0.6
		s-0.1,0.5-0.1,0.7c0,0.3,0,0.5,0.1,0.8c0.1,0.2,0.2,0.4,0.3,0.6s0.3,0.3,0.5,0.3c0.2,0.1,0.4,0.1,0.7,0.1c0.2,0,0.4,0,0.6-0.1
		s0.3-0.2,0.5-0.3c0.1-0.1,0.2-0.3,0.3-0.5s0.1-0.4,0.1-0.6c0-0.3,0-0.6-0.1-0.8C193,102.2,192.9,102,192.8,101.8z"/>
	<path d="M191.7,92.9c-6.4,0-11.6,5.2-11.6,11.6s5.2,11.6,11.6,11.6s11.6-5.2,11.6-11.6S198.1,92.9,191.7,92.9z M194.5,106.6
		c-0.2,0.7-0.5,1.2-0.8,1.6s-0.7,0.7-1.2,0.9c-0.5,0.2-1,0.3-1.5,0.3c-0.2,0-0.3,0-0.5,0s-0.3,0-0.5-0.1c-0.2,0-0.3-0.1-0.4-0.1
		s-0.2-0.1-0.3-0.1v-1.3c0.1,0.1,0.2,0.1,0.3,0.2s0.3,0.1,0.4,0.2c0.2,0,0.3,0.1,0.5,0.1s0.3,0,0.5,0c0.4,0,0.7-0.1,1-0.2
		s0.5-0.3,0.8-0.6c0.2-0.3,0.4-0.6,0.5-1s0.2-0.9,0.2-1.4l0,0c-0.1,0.1-0.2,0.3-0.3,0.4s-0.3,0.2-0.4,0.3s-0.3,0.2-0.5,0.2
		c-0.2,0.1-0.4,0.1-0.6,0.1c-0.4,0-0.7-0.1-1.1-0.2c-0.3-0.1-0.6-0.3-0.9-0.6c-0.2-0.2-0.4-0.5-0.6-0.9s-0.2-0.7-0.2-1.2
		s0.1-0.9,0.2-1.3c0.2-0.4,0.4-0.7,0.6-1c0.3-0.3,0.6-0.5,1-0.6s0.8-0.2,1.2-0.2s0.8,0.1,1.2,0.2s0.7,0.4,1,0.7
		c0.3,0.3,0.5,0.8,0.7,1.3s0.2,1.2,0.2,1.9C194.7,105.2,194.6,105.9,194.5,106.6z"/>
	<path style="fill:#FFFFFF;" d="M193.8,101c-0.3-0.3-0.6-0.6-1-0.7s-0.8-0.2-1.2-0.2s-0.8,0.1-1.2,0.2s-0.7,0.4-1,0.6
		c-0.3,0.3-0.5,0.6-0.6,1c-0.2,0.4-0.2,0.8-0.2,1.3c0,0.4,0.1,0.8,0.2,1.2s0.3,0.6,0.6,0.9c0.2,0.2,0.5,0.4,0.9,0.6
		c0.3,0.1,0.7,0.2,1.1,0.2c0.2,0,0.4,0,0.6-0.1c0.2-0.1,0.4-0.1,0.5-0.2s0.3-0.2,0.4-0.3c0.1-0.1,0.2-0.2,0.3-0.4l0,0
		c0,0.5-0.1,1-0.2,1.4s-0.3,0.8-0.5,1c-0.2,0.3-0.5,0.5-0.8,0.6s-0.6,0.2-1,0.2c-0.2,0-0.3,0-0.5,0s-0.3-0.1-0.5-0.1
		s-0.3-0.1-0.4-0.2c-0.1-0.1-0.2-0.1-0.3-0.2v1.3c0.1,0,0.2,0.1,0.3,0.1s0.3,0.1,0.4,0.1c0.2,0,0.3,0.1,0.5,0.1s0.3,0,0.5,0
		c0.5,0,1-0.1,1.5-0.3c0.5-0.2,0.9-0.5,1.2-0.9s0.6-1,0.8-1.6c0.2-0.7,0.3-1.4,0.3-2.3c0-0.8-0.1-1.4-0.2-1.9S194.1,101.4,193.8,101
		z M193.1,103.9c-0.1,0.2-0.2,0.3-0.3,0.5c-0.1,0.1-0.3,0.2-0.5,0.3s-0.4,0.1-0.6,0.1c-0.2,0-0.5,0-0.7-0.1s-0.4-0.2-0.5-0.3
		c-0.1-0.2-0.2-0.3-0.3-0.6c-0.1-0.2-0.1-0.5-0.1-0.8s0-0.5,0.1-0.7s0.2-0.4,0.3-0.6s0.3-0.3,0.5-0.4s0.4-0.1,0.6-0.1
		c0.2,0,0.4,0,0.6,0.1c0.2,0.1,0.4,0.2,0.5,0.4c0.1,0.2,0.2,0.4,0.3,0.6c0.1,0.3,0.1,0.5,0.1,0.8
		C193.2,103.5,193.2,103.7,193.1,103.9z"/>
</g>
<g>
	<path d="M83.7,134.2c-1.4,0-2.5-0.5-3.4-1.4s-1.3-2.1-1.3-3.6c0-1.6,0.4-2.8,1.3-3.8s2-1.4,3.5-1.4c1.4,0,2.5,0.5,3.3,1.4
		s1.3,2.1,1.3,3.6c0,1.6-0.4,2.9-1.3,3.8S85.1,134.2,83.7,134.2z M83.7,125.5c-0.9,0-1.6,0.3-2.2,1s-0.8,1.6-0.8,2.6
		c0,1.1,0.3,2,0.8,2.6s1.3,1,2.1,1c0.9,0,1.7-0.3,2.2-1s0.8-1.5,0.8-2.7c0-1.2-0.3-2.1-0.8-2.7S84.7,125.5,83.7,125.5z"/>
	<path d="M91.8,130.5v3.6h-1.6v-9.8h3c1.1,0,2,0.3,2.6,0.8s0.9,1.3,0.9,2.2s-0.3,1.7-1,2.3s-1.5,0.9-2.6,0.9H91.8z M91.8,125.6v3.6
		h1.1c0.7,0,1.2-0.2,1.6-0.5s0.5-0.8,0.5-1.4c0-1.2-0.7-1.7-2-1.7H91.8z"/>
	<path d="M103.9,134.1h-5.5v-9.8h5.3v1.4H100v2.8h3.4v1.4H100v2.9h3.9V134.1z"/>
	<path d="M113.2,134.1h-1.9l-1.6-2.6c-0.1-0.2-0.3-0.4-0.4-0.6c-0.1-0.2-0.3-0.3-0.4-0.4s-0.3-0.2-0.5-0.2s-0.3-0.1-0.6-0.1h-0.7v4
		h-1.6v-9.8h3.2c0.5,0,0.9,0.1,1.3,0.2s0.7,0.3,1,0.5c0.3,0.2,0.5,0.5,0.7,0.8c0.2,0.3,0.2,0.7,0.2,1.2c0,0.3-0.1,0.7-0.2,1
		c-0.1,0.3-0.2,0.5-0.4,0.8c-0.2,0.2-0.4,0.4-0.7,0.6s-0.6,0.3-0.9,0.4v0c0.2,0.1,0.3,0.2,0.5,0.3c0.1,0.1,0.3,0.2,0.4,0.4
		s0.2,0.3,0.4,0.4c0.1,0.2,0.2,0.3,0.4,0.6L113.2,134.1z M107.3,125.6v3.2h1.4c0.3,0,0.5,0,0.7-0.1s0.4-0.2,0.6-0.3s0.3-0.3,0.4-0.5
		s0.1-0.4,0.1-0.7c0-0.5-0.1-0.8-0.4-1.1s-0.7-0.4-1.3-0.4H107.3z"/>
	<path d="M122.4,134.1h-1.8l-0.9-2.5h-3.9l-0.8,2.5h-1.8l3.7-9.8h1.8L122.4,134.1z M119.3,130.3l-1.4-3.9c0-0.1-0.1-0.3-0.1-0.6h0
		c0,0.3-0.1,0.5-0.1,0.6l-1.3,3.9H119.3z"/>
	<path d="M129,125.7h-2.8v8.4h-1.6v-8.4h-2.8v-1.4h7.3V125.7z"/>
	<path d="M132.2,134.1h-1.7v-9.8h1.7V134.1z"/>
	<path d="M138.6,134.2c-1.4,0-2.5-0.5-3.4-1.4s-1.3-2.1-1.3-3.6c0-1.6,0.4-2.8,1.3-3.8s2-1.4,3.5-1.4c1.4,0,2.5,0.5,3.3,1.4
		s1.3,2.1,1.3,3.6c0,1.6-0.4,2.9-1.3,3.8S140,134.2,138.6,134.2z M138.7,125.5c-0.9,0-1.6,0.3-2.2,1s-0.8,1.6-0.8,2.6
		c0,1.1,0.3,2,0.8,2.6s1.3,1,2.1,1c0.9,0,1.7-0.3,2.2-1s0.8-1.5,0.8-2.7c0-1.2-0.3-2.1-0.8-2.7S139.6,125.5,138.7,125.5z"/>
	<path d="M153.5,134.1h-1.8l-4.7-7.2c-0.1-0.2-0.2-0.4-0.3-0.6h0c0,0.2,0.1,0.7,0.1,1.3v6.4h-1.6v-9.8h1.9l4.5,7
		c0.2,0.3,0.3,0.5,0.4,0.6h0c0-0.3-0.1-0.7-0.1-1.3v-6.3h1.6V134.1z"/>
	<path d="M163.9,134.1h-1.8l-0.9-2.5h-3.9l-0.8,2.5h-1.8l3.7-9.8h1.8L163.9,134.1z M160.8,130.3l-1.4-3.9c0-0.1-0.1-0.3-0.1-0.6h0
		c0,0.3-0.1,0.5-0.1,0.6l-1.3,3.9H160.8z"/>
	<path d="M170.7,134.1h-5.4v-9.8h1.6v8.4h3.8V134.1z"/>
	<path d="M186.5,134.1h-1.6v-6.3c0-0.5,0-1.2,0.1-1.9h0c-0.1,0.4-0.2,0.7-0.3,0.9l-2.9,7.3h-1.1l-2.9-7.3c-0.1-0.2-0.2-0.5-0.3-1h0
		c0,0.4,0.1,1,0.1,1.9v6.3H176v-9.8h2.3l2.6,6.5c0.2,0.5,0.3,0.9,0.4,1.1h0c0.2-0.5,0.3-0.9,0.4-1.1l2.6-6.5h2.2V134.1z"/>
	<path d="M197,134.1h-1.8l-0.9-2.5h-3.9l-0.8,2.5h-1.8l3.7-9.8h1.8L197,134.1z M193.9,130.3l-1.4-3.9c0-0.1-0.1-0.3-0.1-0.6h0
		c0,0.3-0.1,0.5-0.1,0.6l-1.3,3.9H193.9z"/>
	<path d="M206.6,134.1h-1.8l-4.7-7.2c-0.1-0.2-0.2-0.4-0.3-0.6h0c0,0.2,0.1,0.7,0.1,1.3v6.4h-1.6v-9.8h1.9l4.5,7
		c0.2,0.3,0.3,0.5,0.4,0.6h0c0-0.3-0.1-0.7-0.1-1.3v-6.3h1.6V134.1z"/>
	<path d="M217.1,134.1h-1.8l-0.9-2.5h-3.9l-0.8,2.5H208l3.7-9.8h1.8L217.1,134.1z M214,130.3l-1.4-3.9c0-0.1-0.1-0.3-0.1-0.6h0
		c0,0.3-0.1,0.5-0.1,0.6l-1.3,3.9H214z"/>
	<path d="M225.9,133.4c-1,0.6-2.2,0.8-3.4,0.8c-1.4,0-2.6-0.5-3.5-1.4s-1.3-2.1-1.3-3.6c0-1.5,0.5-2.8,1.5-3.7c1-1,2.2-1.5,3.7-1.5
		c1.1,0,2,0.2,2.7,0.5v1.7c-0.8-0.5-1.6-0.8-2.7-0.8c-1,0-1.9,0.3-2.6,1c-0.7,0.7-1,1.6-1,2.7c0,1.1,0.3,2,0.9,2.7
		c0.6,0.6,1.4,1,2.3,1c0.7,0,1.3-0.1,1.8-0.4v-2.3h-2.1v-1.4h3.7V133.4z"/>
	<path d="M233.6,134.1h-5.5v-9.8h5.3v1.4h-3.7v2.8h3.4v1.4h-3.4v2.9h3.9V134.1z"/>
	<path d="M245.8,134.1h-1.6v-6.3c0-0.5,0-1.2,0.1-1.9h0c-0.1,0.4-0.2,0.7-0.3,0.9l-2.9,7.3H240l-2.9-7.3c-0.1-0.2-0.2-0.5-0.3-1h0
		c0,0.4,0.1,1,0.1,1.9v6.3h-1.5v-9.8h2.3l2.6,6.5c0.2,0.5,0.3,0.9,0.4,1.1h0c0.2-0.5,0.3-0.9,0.4-1.1l2.6-6.5h2.2V134.1z"/>
	<path d="M253.7,134.1h-5.5v-9.8h5.3v1.4h-3.7v2.8h3.4v1.4h-3.4v2.9h3.9V134.1z"/>
	<path d="M263.8,134.1H262l-4.7-7.2c-0.1-0.2-0.2-0.4-0.3-0.6h0c0,0.2,0.1,0.7,0.1,1.3v6.4h-1.6v-9.8h1.9l4.5,7
		c0.2,0.3,0.3,0.5,0.4,0.6h0c0-0.3-0.1-0.7-0.1-1.3v-6.3h1.6V134.1z"/>
	<path d="M272.5,125.7h-2.8v8.4h-1.6v-8.4h-2.8v-1.4h7.3V125.7z"/>
	<path d="M284.1,125.7h-2.8v8.4h-1.6v-8.4h-2.8v-1.4h7.3V125.7z"/>
	<path d="M287.2,134.1h-1.7v-9.8h1.7V134.1z"/>
	<path d="M295.1,134.1h-5.5v-9.8h5.3v1.4h-3.7v2.8h3.4v1.4h-3.4v2.9h3.9V134.1z"/>
	<path d="M304.4,134.1h-1.9l-1.6-2.6c-0.1-0.2-0.3-0.4-0.4-0.6c-0.1-0.2-0.3-0.3-0.4-0.4c-0.1-0.1-0.3-0.2-0.5-0.2s-0.3-0.1-0.6-0.1
		h-0.7v4h-1.6v-9.8h3.2c0.5,0,0.9,0.1,1.3,0.2s0.7,0.3,1,0.5c0.3,0.2,0.5,0.5,0.7,0.8c0.2,0.3,0.2,0.7,0.2,1.2c0,0.3-0.1,0.7-0.2,1
		c-0.1,0.3-0.2,0.5-0.4,0.8c-0.2,0.2-0.4,0.4-0.7,0.6c-0.3,0.2-0.6,0.3-0.9,0.4v0c0.2,0.1,0.3,0.2,0.5,0.3c0.1,0.1,0.3,0.2,0.4,0.4
		s0.2,0.3,0.4,0.4c0.1,0.2,0.2,0.3,0.4,0.6L304.4,134.1z M298.5,125.6v3.2h1.4c0.3,0,0.5,0,0.7-0.1c0.2-0.1,0.4-0.2,0.6-0.3
		s0.3-0.3,0.4-0.5s0.1-0.4,0.1-0.7c0-0.5-0.1-0.8-0.4-1.1s-0.7-0.4-1.3-0.4H298.5z"/>
</g>
</svg>
