<svg id="Layer_1" xmlns="http://www.w3.org/2000/svg" width="480" height="355.6" viewBox="0 0 480 355.6"><path d="M241.8 47c-37.5 1-72.7 16.1-99.3 42.8-27.6 27.6-42.9 64.4-42.9 103.5s15.2 75.9 42.9 103.5c27.6 27.6 67.1 42.9 103.5 42.9 39.1 0 75.9-15.2 103.5-42.9 27.6-27.6 42.9-64.4 42.9-103.5s-15.2-75.9-42.9-103.5c-26.2-26.2-60.5-41.2-97.2-42.7l-10.5-.1z" fill="#FFF"/><path fill="none" d="M247.1 138.9h8.5v10.2h-8.5z"/><path d="M257.1 138.2v11.6c0 .4-.3.7-.7.7h-9.3v8.3h66.4V66.7h-66.4v70.7h9.3c.4 0 .7.4.7.8zM227.4 149.8v-11.6c0-.4.3-.7.7-.7h9.4V66.7h-66.4v92.1h66.4v-8.3h-9.4c-.4.1-.7-.3-.7-.7z" fill="none"/><path fill="none" d="M228.9 138.9h8.7v10.2h-8.7zM247.1 117.7h7.1v10.2h-7.1zM230.3 117.7h7.2v10.2h-7.2z"/><g fill="#FFF"><path d="M103.4 122.4v-.2l.7-.4c0-.2-.1-.5-.2-.7h-.8c-.1-.1-.1-.3-.2-.4l.4-.7c-.2-.2-.3-.4-.5-.5l-.4.3-.2.3-.4.6c.6.4.9 1.1.9 1.9 0 1.3-1 2.3-2.3 2.3s-2.3-1-2.3-2.3c0-1.2.8-2.1 1.9-2.3l.2-.7-.4-.7c-.2 0-.5.1-.7.2v.8c-.1.1-.3.1-.4.2l-.7-.4c-.2.2-.4.3-.5.5l.4.7c-.1.1-.1.2-.2.4h-.8c-.1.2-.1.5-.2.7l.7.4v.4l-.7.4c0 .2.1.5.2.7h.8c.1.1.1.3.2.4l-.4.7c.2.2.3.4.5.5l.7-.4c.1.1.2.2.4.2v.8c.2.1.5.1.7.2l.4-.7h.4l.4.7c.2 0 .5-.1.7-.2v-.8c.1-.1.3-.1.4-.2l.7.4c.2-.2.4-.3.5-.5l-.4-.7c.1-.1.2-.2.2-.4h.8c.1-.2.1-.5.2-.7l-.7-.4v-.4z"/><path d="M96 126c-.3 0-.5-.2-.5-.5s.2-.5.5-.5.5.2.5.5c0 .2-.3.5-.5.5zm1-1.8l-.4.2-.3-.1-.2-.4h-.4v.1l-.1.4-.3.1-.4-.2-.3.3.2.4-.1.3-.4.2v.4h.1l.4.1.1.3-.2.4.3.3.4-.2.3.1.2.4h.4v-.1l.1-.4.2-.1.4.2.3-.3-.3-.6.1-.3.4-.2v-.4h-.1l-.4-.1-.1-.3.2-.4c0-.1-.1-.1-.1-.2v.1z"/><path d="M97.1 124.3c0 .1.1.1.1.2l-.1-.2zM100.9 118.2l-.1.4-.2.8-.1.4-.1.3-.7 2.2s0 .1.1.1h.7v.1l-.7 1.6s0 .1 0 0l2.1-2.4v-.1H101.1s-.1 0 0-.1l.7-1.2.2-.3.2-.3.4-.7.2-.4c-.8-.2-1.3-.4-1.9-.4z"/></g><g fill="#FFF"><path d="M114.2 101.9c.1-.2.1-.5.1-.7 0-1.5-1.2-2.8-2.7-2.8-1.1 0-2.1.7-2.5 1.7-.3-.4-.9-.7-1.5-.7-1 0-1.9.9-1.9 2 0 .2 0 .4.1.5-.9.3-1.5 1.1-1.5 2 0 1.3 1 2.2 2.3 2.2h6.9c1.3 0 2.2-.9 2.2-2.2.1-.9-.6-1.7-1.5-2zm-1.5 1c-.2.8-.9 1.4-1.7 1.4h-.4c-.1 0-.3-.1-.4-.2l-1.2 1.3c-.1.1-.2.2-.4.2-.1 0-.3 0-.4-.2-.1-.1-.2-.2-.2-.4s0-.3.2-.4l1.2-1.3c-.2-.4-.3-.8-.2-1.3.2-.8.9-1.4 1.7-1.4h.4c.5.1.9.4 1.1.8.3.6.4 1 .3 1.5z"/><path d="M111.2 101.4h-.3c-.5 0-1 .3-1.1.8-.1.3 0 .6.2.9l.3.3c.1.1.2.1.4.2h.3c.5 0 1-.3 1.1-.8.1-.3 0-.6-.1-.8s-.5-.5-.8-.6z"/></g><path d="M361.4 74.8c-2.6 0-4.6.9-4.6 1.8V85c0 .9 2.1 1.8 4.6 1.8 2.6 0 4.6-.8 4.6-1.8v-8.4c0-1-2.1-1.8-4.6-1.8zm-4.5 10.5v-.1.1zm3.2-5.2c-.3 0-.4-.1-.4.2v.7c0 .5-.1.8-.4.9.3.1.4.5.4 1.1v.8c0 .2 0 .2.1.3s.2.1.3.1v.6c-.5 0-.8-.1-1-.3-.2-.2-.3-.5-.3-1v-.8c0-.4-.2-.4-.4-.4v-.9c.3 0 .4 0 .4-.4v-.6c0-.4.1-.7.3-.8.2-.2.5-.2 1-.2v.7zm4.5 1.6v.7c-.3 0-.4 0-.4.4v.8c0 .5-.1.8-.3 1-.2.2-.5.3-1.1.3v-.6c.1 0 .3 0 .3-.1.1-.1.1-.1.1-.3V83c0-.6.1-.9.4-1.1-.3-.1-.4-.4-.4-.9v-.6c0-.3-.2-.2-.4-.2v-.7c.5 0 .8.1 1 .2.2.2.3.4.3.8v.6c0 .4.1.3.4.3v.3h.1zm-3.2-4.3c-1.8 0-3.3-.4-3.3-1s1.5-1 3.3-1c1.8 0 3.3.4 3.3 1 0 .5-1.5 1-3.3 1z" fill="#FFF"/><g fill="#FFF"><path d="M372.2 94.2c0-.4 1.2-.7 2.8-.7s2.8.3 2.8.7c0 .4-1.2.7-2.8.7s-2.8-.3-2.8-.7zm2.5 9.3v-6.7c0-.8 1.3-1.2 3.2-1.2.4 0 .8 0 1.2.1v-1.5c0-.7-1.8-1.3-4.1-1.3s-4.1.6-4.1 1.3v8.6c0 .7 1.8 1.3 4.1 1.3h.3c-.4-.2-.6-.4-.6-.6z"/><path d="M378.1 97.7c-1.1 0-2-.2-2-.5s.9-.5 2-.5 2 .2 2 .5-.9.5-2 .5zm1.7 2.8l-3.7 3 1.4-2.3h-1.2l3.7-3-1.4 2.3h1.2zm-1.7-4.4c-1.6 0-2.9.4-2.9.9v6.2c0 .5 1.2 1 2.9 1 1.6 0 3-.4 3-.9V97c-.1-.5-1.4-.9-3-.9z"/></g><g fill="#FFF"><path d="M382.7 116.4h10.6l-2.8-2.5v1.3h-7.7v-1c0-.5.2-.9.7-.9h7.8c.5 0 1 .4 1 .9v.5l1 .8v-1.3c0-1-.9-1.9-1.9-1.9h-7.9c-1 0-1.7.8-1.7 1.9v2.3h.9v-.1zM392.3 117h-10.6l2.7 2.5V118h8v1.3c0 .5-.5 1-1 1h-7.8c-.5 0-.7-.5-.7-1v-.5l-1-.8v1.3c0 1 .7 1.6 1.7 1.6h1.7l3.9 2.8-.3-2.8h2.6c1 0 1.9-.6 1.9-1.6V117h-1.1z"/></g><g fill="#010101"><path d="M219.5 232v-5.2h1.5c1.9 0 2.9.8 2.9 2.5 0 .8-.3 1.4-.8 1.9s-1.2.7-2.1.7h-1.5zm.8-4.5v3.7h.7c.6 0 1.1-.2 1.4-.5.3-.3.5-.8.5-1.4 0-1.2-.6-1.8-1.9-1.8h-.7zM228.9 232h-.9l-.5-1.3h-2l-.5 1.3h-.9l1.9-5.2h1l1.9 5.2zm-1.6-2l-.7-2.1c0-.1 0-.2-.1-.3 0 .1 0 .2-.1.3l-.7 2.1h1.6zM232.4 227.5h-1.5v4.4h-.9v-4.4h-1.5v-.7h3.8v.7zM236.9 232h-.9l-.5-1.3h-2l-.5 1.3h-.9l1.9-5.2h1l1.9 5.2zm-1.6-2l-.7-2.1c0-.1 0-.2-.1-.3 0 .1 0 .2-.1.3l-.7 2.1h1.6zM237.6 232v-5.2h1.6c.5 0 .9.1 1.2.3.3.2.4.5.4.9 0 .3-.1.5-.2.8-.2.2-.4.4-.7.5.4 0 .6.2.9.4.2.2.3.5.3.9s-.2.8-.5 1.1c-.3.3-.8.4-1.3.4h-1.7zm.9-4.5v1.5h.6c.3 0 .5-.1.7-.2.2-.1.3-.3.3-.6 0-.4-.3-.7-.9-.7h-.7zm0 2.2v1.6h.7c.3 0 .6-.1.7-.2.2-.1.3-.4.3-.6 0-.5-.4-.8-1.1-.8h-.6zM246.3 232h-.9l-.5-1.3h-2l-.4 1.3h-.9l1.9-5.2h1l1.8 5.2zm-1.6-2l-.7-2.1c0-.1 0-.2-.1-.3 0 .1 0 .2-.1.3l-.7 2.1h1.6zM246.8 231.8v-.9c.1.1.2.1.3.2.1.1.2.1.3.1.1 0 .2.1.4.1h.3c.4 0 .6-.1.8-.2.2-.1.3-.3.3-.5 0-.1 0-.2-.1-.3-.1-.1-.1-.2-.2-.2-.1-.1-.2-.1-.4-.2-.1-.1-.3-.1-.5-.2s-.3-.2-.5-.3c-.2-.1-.3-.2-.4-.3-.1-.1-.2-.2-.3-.4-.1-.1-.1-.3-.1-.5s.1-.5.2-.6c.1-.2.3-.3.4-.4l.6-.3c.2-.1.5-.1.7-.1.5 0 .9.1 1.2.2v.8c-.3-.2-.7-.3-1.1-.3h-.4c-.1 0-.2.1-.3.1-.1.1-.2.1-.2.2-.1.1-.1.2-.1.3 0 .1 0 .2.1.3 0 .1.1.2.2.2.1.1.2.1.3.2.1.1.3.1.5.2s.4.2.5.3c.2.1.3.2.4.3.1.1.2.3.3.4.1.2.1.3.1.5 0 .3-.1.5-.2.7-.1.2-.2.3-.4.4-.2.1-.4.2-.6.2-.2 0-.5.1-.7.1h-.3c-.1 0-.3 0-.4-.1-.1 0-.3-.1-.4-.1-.1.2-.2.1-.3.1zM254 232h-2.9v-5.2h2.8v.7H252v1.5h1.8v.7H252v1.5h2v.8zM260.3 227.5h-1.5v4.4h-.9v-4.4h-1.5v-.7h3.8v.7zM261.9 232h-.9v-5.2h.9v5.2zM266.1 232h-2.9v-5.2h2.8v.7h-2v1.5h1.8v.7H264v1.5h2v.8zM271 232h-1l-.8-1.4c-.1-.1-.1-.2-.2-.3-.1-.1-.1-.2-.2-.2-.1-.1-.2-.1-.2-.1h-.6v2.1h-1v-5.2h1.7c.2 0 .5 0 .7.1.2.1.4.1.5.3.2.1.3.3.4.4.1.2.1.4.1.6 0 .2 0 .4-.1.5-.1.2-.1.3-.2.4-.1.1-.2.2-.4.3-.1.1-.3.1-.5.2.1.1.2.1.2.2l.2.2.2.2c.1.1.1.2.2.3l1 1.4zm-3.2-4.5v1.7h.7c.1 0 .3 0 .4-.1.1 0 .2-.1.3-.2.1-.1.1-.2.2-.3 0-.1.1-.2.1-.4s-.1-.4-.2-.6c-.2-.1-.4-.2-.7-.2h-.8z"/></g><path d="M244.7 213.5c-2.9 0-5.3 2.4-5.3 5.3s2.4 5.3 5.3 5.3 5.3-2.4 5.3-5.3-2.4-5.3-5.3-5.3zm1.6 3.7c-.2.3-.3.6-.5.9s-.3.6-.4.9l-.3.9c-.1.3-.2.6-.2 1h-.7c0-.3.1-.6.2-.9l.3-.9c.1-.3.2-.6.4-.9.1-.3.3-.6.5-.9h-2v-.6h2.8v.5z" fill="#010101"/><path d="M245.9 53.1c-2.6 0-4.8-1.9-5.2-4.4-77.9 2.2-140.6 66.3-140.6 144.7 0 79.8 64.9 144.8 144.8 144.8s144.8-64.9 144.8-144.8c0-77.7-61.6-141.4-138.5-144.6-.5 2.5-2.7 4.3-5.3 4.3z" fill="none"/><g fill="#686969"><path d="M219.3 103.3v1.9h-.9V100h1.6c.6 0 1.1.1 1.4.4s.5.7.5 1.2-.2.9-.5 1.2c-.3.3-.8.5-1.4.5h-.7zm0-2.6v1.9h.6c.4 0 .6-.1.8-.3s.3-.4.3-.7c0-.6-.4-.9-1.1-.9h-.6zM226.5 105.2h-.9l-.5-1.3h-2l-.4 1.3h-.9l1.9-5.2h1l1.8 5.2zm-1.6-2.1l-.7-2.1c0-.1 0-.2-.1-.3 0 .1 0 .2-.1.3l-.7 2.1h1.6zM231.5 105.2h-.9l-.5-1.3h-2l-.4 1.3h-.9l1.9-5.2h1l1.8 5.2zm-1.7-2.1l-.7-2.1c0-.1 0-.2-.1-.3 0 .1 0 .2-.1.3l-.7 2.1h1.6zM231.9 105v-.9c.1.1.2.1.3.2.1.1.2.1.3.1.1 0 .2.1.4.1h.3c.4 0 .6-.1.8-.2s.3-.3.3-.5c0-.1 0-.2-.1-.3-.1-.1-.1-.2-.2-.2-.1-.1-.2-.1-.4-.2-.1-.1-.3-.1-.5-.2s-.3-.2-.5-.3c-.2-.1-.3-.2-.4-.3-.1-.1-.2-.2-.3-.4-.1-.1-.1-.3-.1-.5s.1-.5.2-.6l.4-.4.6-.3c.2-.1.5-.1.7-.1.5 0 .9.1 1.2.2v.8c-.3-.2-.7-.3-1.1-.3h-.4c-.1 0-.2.1-.3.1-.1.1-.2.1-.2.2-.1.1-.1.2-.1.3 0 .1 0 .2.1.3s.1.2.2.2c.1.1.2.1.3.2.1.1.3.1.5.2s.4.2.5.3c.2.1.3.2.4.3.1.1.2.3.3.4.1.2.1.3.1.5 0 .3-.1.5-.2.7-.1.2-.2.3-.4.4-.2.1-.4.2-.6.2-.2 0-.5.1-.7.1h-.3c-.1 0-.3 0-.4-.1-.1 0-.3-.1-.4-.1-.1.1-.2.1-.3.1zM240.4 105.2c-.7 0-1.3-.2-1.8-.7s-.7-1.1-.7-1.9c0-.8.2-1.5.7-2 .5-.5 1.1-.7 1.9-.7.7 0 1.3.2 1.8.7.4.5.7 1.1.7 1.9 0 .8-.2 1.5-.7 2-.6.5-1.2.7-1.9.7zm0-4.6c-.5 0-.9.2-1.2.5-.3.4-.4.8-.4 1.4 0 .6.1 1 .4 1.4.3.4.7.5 1.1.5.5 0 .9-.2 1.2-.5.3-.3.4-.8.4-1.4 0-.6-.1-1.1-.4-1.4s-.6-.5-1.1-.5zM247.9 100l-1.9 5.2h-1l-1.8-5.2h.9l1.3 3.9c0 .1.1.3.1.4 0-.1.1-.3.1-.4l1.3-3.9h1zM251.5 105.2h-2.9V100h2.8v.7h-1.9v1.5h1.8v.7h-1.8v1.5h2v.8zM256.4 105.2h-1l-.8-1.4c-.1-.1-.1-.2-.2-.3-.1-.1-.1-.2-.2-.2-.1-.1-.2-.1-.2-.1h-.6v2.1h-.9V100h1.7c.2 0 .5 0 .7.1.2.1.4.1.5.3.2.1.3.3.4.4.1.2.1.4.1.6 0 .2 0 .4-.1.5-.1.2-.1.3-.2.4-.1.1-.2.2-.4.3-.1.1-.3.1-.5.2.1.1.2.1.2.2l.2.2.2.2c.1.1.1.2.2.3l.9 1.5zm-3.2-4.5v1.7h.7c.1 0 .3 0 .4-.1.1 0 .2-.1.3-.2.1-.1.1-.2.2-.3 0-.1.1-.2.1-.4s-.1-.4-.2-.6c-.2-.1-.4-.2-.7-.2h-.8zM259.9 105.2h-.9V100h.9v5.2zM265.4 105.2h-.9l-.5-1.3h-2l-.4 1.3h-.9l1.9-5.2h1l1.8 5.2zm-1.6-2.1l-.7-2.1c0-.1 0-.2-.1-.3 0 .1 0 .2-.1.3l-.7 2.1h1.6zM270.4 105.2h-.9l-.5-1.3h-2l-.4 1.3h-.9l1.9-5.2h1l1.8 5.2zm-1.7-2.1l-.7-2.1c0-.1 0-.2-.1-.3 0 .1 0 .2-.1.3l-.7 2.1h1.6zM270.9 105v-.9c.1.1.2.1.3.2.1.1.2.1.3.1.1 0 .2.1.4.1h.3c.4 0 .6-.1.8-.2s.3-.3.3-.5c0-.1 0-.2-.1-.3-.1-.1-.1-.2-.2-.2-.1-.1-.2-.1-.4-.2-.1-.1-.3-.1-.5-.2s-.3-.2-.5-.3c-.2-.1-.3-.2-.4-.3-.1-.1-.2-.2-.3-.4-.1-.1-.1-.3-.1-.5s.1-.5.2-.6c.1-.2.3-.3.4-.4l.6-.3c.2-.1.5-.1.7-.1.5 0 .9.1 1.2.2v.8c-.3-.2-.7-.3-1.1-.3h-.4c-.1 0-.2.1-.3.1-.1.1-.2.1-.2.2-.1.1-.1.2-.1.3 0 .1 0 .2.1.3s.1.2.2.2c.1.1.2.1.3.2.1.1.3.1.5.2s.4.2.5.3c.2.1.3.2.4.3.1.1.2.3.3.4.1.2.1.3.1.5 0 .3-.1.5-.2.7-.1.2-.2.3-.4.4s-.4.2-.6.2c-.2 0-.5.1-.7.1h-.3c-.1 0-.3 0-.4-.1-.1 0-.3-.1-.4-.1-.2.1-.3.1-.3.1z"/></g><g fill="#686969"><path d="M274 186.8v-4.1h1.2c1.5 0 2.3.7 2.3 2 0 .6-.2 1.2-.6 1.5-.4.4-1 .6-1.7.6H274zm.6-3.6v3h.5c.5 0 .9-.1 1.1-.4.3-.3.4-.6.4-1.1 0-1-.5-1.5-1.5-1.5h-.5zM279.9 186.8c-.6 0-1.1-.2-1.4-.6-.4-.4-.5-.9-.5-1.5 0-.7.2-1.2.5-1.6.4-.4.9-.6 1.5-.6s1 .2 1.4.6c.4.4.5.9.5 1.5 0 .7-.2 1.2-.5 1.6-.4.5-.9.6-1.5.6zm0-3.6c-.4 0-.7.1-.9.4-.2.3-.4.7-.4 1.1 0 .5.1.8.3 1.1.2.3.5.4.9.4s.7-.1.9-.4c.2-.3.3-.6.3-1.1 0-.5-.1-.9-.3-1.1-.1-.3-.4-.4-.8-.4zM285.6 186.6c-.3.2-.7.2-1.2.2-.6 0-1.1-.2-1.4-.6-.4-.4-.5-.9-.5-1.5 0-.7.2-1.2.6-1.6.4-.4.9-.6 1.5-.6.4 0 .7.1 1 .2v.7c-.3-.2-.6-.2-.9-.2-.4 0-.8.1-1.1.4-.3.3-.4.7-.4 1.1 0 .5.1.8.4 1.1.3.3.6.4 1 .4s.7-.1 1-.3v.7zM289.5 186.8h-.9l-1.4-1.9-.1-.1v2h-.7v-4.1h.7v1.9l.1-.1 1.4-1.8h.8l-1.6 2 1.7 2.1zM292.3 186.8H290v-4.1h2.2v.6h-1.5v1.2h1.4v.6h-1.4v1.2h1.6v.5zM296.2 186.8h-.8l-.7-1.1c-.1-.1-.1-.2-.2-.3l-.2-.2c-.1 0-.1-.1-.2-.1h-.5v1.7h-.6v-4.1h1.4c.2 0 .4 0 .5.1.2 0 .3.1.4.2l.3.3c.1.1.1.3.1.5 0 .1 0 .3-.1.4 0 .1-.1.2-.2.3-.1.1-.2.2-.3.2-.1.1-.2.1-.4.2.1 0 .1.1.2.1l.2.2c0 .1.1.1.1.2s.1.1.2.2l.8 1.2zm-2.5-3.6v1.3H294.6c.1 0 .2-.1.2-.1l.2-.2c0-.1.1-.2.1-.3 0-.2-.1-.4-.2-.5-.1-.1-.3-.2-.5-.2h-.7zM301.6 182.6l-1.5 4.1h-.8l-1.5-4.1h.8l1 3.1c0 .1.1.2.1.3 0-.1 0-.2.1-.4l1-3.1h.8zM306.6 186.8h-.7v-2.7-.8c0 .2-.1.3-.1.4l-1.2 3.1h-.5l-1.2-3.1c0-.1-.1-.2-.1-.4v3.5h-.6v-4.1h1l1.1 2.8c.1.2.1.4.2.5.1-.2.1-.4.2-.5l1.1-2.7h.9v4zM277.3 193.9H275v-4.1h2.2v.6h-1.5v1.2h1.4v.6h-1.4v1.2h1.6v.5zM281.1 193.9h-.8l-.8-1.5s-.1-.1-.1-.2c0 0 0 .1-.1.2l-.9 1.5h-.8l1.4-2.1-1.2-2.1h.8l.7 1.4c0 .1.1.2.1.3.1-.1.1-.2.1-.3l.8-1.4h.8l-1.3 2.1 1.3 2.1zM284.5 190.3h-1.2v3.6h-.7v-3.6h-1.2v-.6h3.1v.6zM287.4 193.9h-2.3v-4.1h2.2v.6h-1.5v1.2h1.4v.6h-1.4v1.2h1.6v.5zM291.7 193.9h-.8l-2-3c-.1-.1-.1-.2-.1-.2V194h-.7v-4.1h.8l1.9 3c.1.1.1.2.2.3V189.9h.7v4zM292.5 193.7v-.7l.2.2c.1 0 .2.1.3.1.1 0 .2.1.3.1h.3c.3 0 .5 0 .6-.1.1-.1.2-.2.2-.4 0-.1 0-.2-.1-.3 0-.1-.1-.1-.2-.2s-.2-.1-.3-.2c-.1-.1-.2-.1-.4-.2-.1-.1-.3-.2-.4-.2l-.3-.3c-.1-.1-.2-.2-.2-.3-.1-.1-.1-.3-.1-.4 0-.2 0-.4.1-.5.1-.1.2-.3.3-.4.1-.1.3-.2.5-.2s.4-.1.6-.1c.4 0 .7 0 .9.1v.7c-.2-.2-.5-.3-.9-.3h-.3c-.1 0-.2.1-.3.1-.1 0-.1.1-.2.2 0 .1-.1.2-.1.3 0 .1 0 .2.1.2 0 .1.1.1.2.2s.2.1.3.2c.1.1.2.1.4.2.1.1.3.2.4.2l.3.3c.1.1.2.2.2.3.1.1.1.3.1.4 0 .2 0 .4-.1.5-.1.1-.2.3-.3.4-.1.1-.3.2-.5.2s-.4.1-.6.1h-.6c-.1 0-.2 0-.3-.1l-.1-.1zM296.6 193.9h-.7v-4.1h.7v4.1zM299.3 193.9c-.6 0-1.1-.2-1.4-.6-.4-.4-.5-.9-.5-1.5 0-.7.2-1.2.5-1.6.4-.4.9-.6 1.5-.6s1 .2 1.4.6c.4.4.5.9.5 1.5 0 .7-.2 1.2-.5 1.6-.4.4-.9.6-1.5.6zm.1-3.6c-.4 0-.7.1-.9.4-.2.3-.4.7-.4 1.1 0 .5.1.8.3 1.1.2.3.5.4.9.4s.7-.1.9-.4c.2-.3.3-.6.3-1.1 0-.5-.1-.9-.3-1.1-.1-.3-.4-.4-.8-.4zM305.6 193.9h-.8l-2-3c-.1-.1-.1-.2-.1-.2V194h-.7v-4.1h.8l1.9 3c.1.1.1.2.2.3V189.9h.7v4z"/></g><g fill="#686969"><path d="M183.6 186.8v-4.1h1.2c1.5 0 2.3.7 2.3 2 0 .6-.2 1.2-.6 1.5-.4.4-1 .6-1.7.6h-1.2zm.7-3.6v3h.5c.5 0 .9-.1 1.1-.4.3-.3.4-.6.4-1.1 0-1-.5-1.5-1.5-1.5h-.5zM189.6 186.8c-.6 0-1.1-.2-1.4-.6-.4-.4-.5-.9-.5-1.5 0-.7.2-1.2.5-1.6.4-.4.9-.6 1.5-.6s1 .2 1.4.6c.4.4.5.9.5 1.5 0 .7-.2 1.2-.5 1.6-.5.5-.9.6-1.5.6zm0-3.6c-.4 0-.7.1-.9.4-.2.3-.4.7-.4 1.1 0 .5.1.8.3 1.1.2.3.5.4.9.4s.7-.1.9-.4c.2-.3.3-.6.3-1.1 0-.5-.1-.9-.3-1.1-.1-.3-.4-.4-.8-.4zM195.2 186.6c-.3.2-.7.2-1.2.2-.6 0-1.1-.2-1.4-.6-.4-.4-.5-.9-.5-1.5 0-.7.2-1.2.6-1.6.4-.4.9-.6 1.5-.6.4 0 .7.1 1 .2v.7c-.3-.2-.6-.2-.9-.2-.4 0-.8.1-1.1.4-.3.3-.4.7-.4 1.1 0 .5.1.8.4 1.1.3.3.6.4 1 .4s.7-.1 1-.3v.7zM199.1 186.8h-.9l-1.4-1.9-.1-.1v2h-.7v-4.1h.7v1.9l.1-.1 1.4-1.8h.8l-1.6 2 1.7 2.1zM201.9 186.8h-2.3v-4.1h2.2v.6h-1.5v1.2h1.4v.6h-1.4v1.2h1.6v.5zM205.9 186.8h-.8l-.7-1.1c-.1-.1-.1-.2-.2-.3l-.2-.2c-.1 0-.1-.1-.2-.1h-.5v1.7h-.7v-4.1h1.4c.2 0 .4 0 .5.1.2 0 .3.1.4.2l.3.3c.1.1.1.3.1.5 0 .1 0 .3-.1.4 0 .1-.1.2-.2.3-.1.1-.2.2-.3.2-.1.1-.2.1-.4.2.1 0 .1.1.2.1l.2.2c0 .1.1.1.1.2s.1.1.2.2l.9 1.2zm-2.6-3.6v1.3H204.2c.1 0 .2-.1.2-.1l.2-.2c0-.1.1-.2.1-.3 0-.2-.1-.4-.2-.5-.1-.1-.3-.2-.5-.2h-.7zM211.2 182.6l-1.5 4.1h-.7l-1.5-4.1h.8l1 3.1c0 .1.1.2.1.3 0-.1 0-.2.1-.4l1-3.1h.7zM216.2 186.8h-.7v-2.7-.8c0 .2-.1.3-.1.4l-1.2 3.1h-.5l-1.2-3.1c0-.1-.1-.2-.1-.4v3.5h-.6v-4.1h1l1.1 2.8c.1.2.1.4.2.5.1-.2.1-.4.2-.5l1.1-2.7h.9v4zM186.9 193.9h-2.3v-4.1h2.2v.6h-1.5v1.2h1.4v.6h-1.4v1.2h1.6v.5zM190.8 193.9h-.8l-.8-1.5s-.1-.1-.1-.2c0 0 0 .1-.1.2l-.9 1.5h-.8l1.4-2.1-1.2-2.1h.8l.7 1.4c0 .1.1.2.1.3.1-.1.1-.2.1-.3l.8-1.4h.8l-1.3 2.1 1.3 2.1zM194.1 190.3h-1.2v3.6h-.7v-3.6H191v-.6h3.1v.6zM197 193.9h-2.3v-4.1h2.2v.6h-1.5v1.2h1.4v.6h-1.4v1.2h1.6v.5zM201.3 193.9h-.8l-2-3c-.1-.1-.1-.2-.1-.2V194h-.7v-4.1h.8l1.9 3c.1.1.1.2.2.3V189.9h.7v4zM202.1 193.7v-.7l.2.2c.1 0 .2.1.3.1.1 0 .2.1.3.1h.3c.3 0 .5 0 .6-.1.1-.1.2-.2.2-.4 0-.1 0-.2-.1-.3 0-.1-.1-.1-.2-.2s-.2-.1-.3-.2c-.1-.1-.2-.1-.4-.2-.1-.1-.3-.2-.4-.2l-.3-.3c-.1-.1-.2-.2-.2-.3-.1-.1-.1-.3-.1-.4 0-.2 0-.4.1-.5.1-.1.2-.3.3-.4.1-.1.3-.2.5-.2s.4-.1.6-.1c.4 0 .7 0 .9.1v.7c-.2-.2-.5-.3-.9-.3h-.3c-.1 0-.2.1-.3.1-.1 0-.1.1-.2.2 0 .1-.1.2-.1.3 0 .1 0 .2.1.2 0 .1.1.1.2.2s.2.1.3.2c.1.1.2.1.4.2.1.1.3.2.4.2l.3.3c.1.1.2.2.2.3.1.1.1.3.1.4 0 .2 0 .4-.1.5-.1.1-.2.3-.3.4-.1.1-.3.2-.5.2s-.4.1-.6.1h-.6c-.1 0-.2 0-.3-.1.1 0 0-.1-.1-.1zM206.2 193.9h-.7v-4.1h.7v4.1zM209 193.9c-.6 0-1.1-.2-1.4-.6-.4-.4-.5-.9-.5-1.5 0-.7.2-1.2.5-1.6.4-.4.9-.6 1.5-.6s1 .2 1.4.6c.4.4.5.9.5 1.5 0 .7-.2 1.2-.5 1.6-.4.4-.9.6-1.5.6zm0-3.6c-.4 0-.7.1-.9.4-.2.3-.4.7-.4 1.1 0 .5.1.8.3 1.1.2.3.5.4.9.4s.7-.1.9-.4c.2-.3.3-.6.3-1.1 0-.5-.1-.9-.3-1.1-.1-.3-.4-.4-.8-.4zM215.2 193.9h-.8l-2-3c-.1-.1-.1-.2-.1-.2V194h-.7v-4.1h.8l1.9 3c.1.1.1.2.2.3V189.9h.7v4z"/></g><g fill="#686969"><path d="M269.5 212.4h-.8l-.4-1.1h-1.6l-.4 1.1h-.8l1.6-4.1h.8l1.6 4.1zm-1.3-1.6l-.6-1.7c0-.1 0-.1-.1-.3 0 .1 0 .2-.1.3l-.6 1.7h1.4zM273 208.5l-2.3 3.3h2.2v.6h-3.2v-.3l2.3-3.2h-2v-.6h3.1v.2zM276.9 210.7c0 1.2-.6 1.7-1.7 1.7s-1.6-.6-1.6-1.7v-2.5h.7v2.4c0 .8.3 1.2.9 1.2.6 0 .9-.4.9-1.2v-2.4h.7v2.5zM281 212.4h-.8l-.7-1.1c-.1-.1-.1-.2-.2-.3l-.2-.2c-.1 0-.1-.1-.2-.1h-.5v1.7h-.7v-4.1h1.4c.2 0 .4 0 .5.1.2 0 .3.1.4.2l.3.3c.1.1.1.3.1.5 0 .1 0 .3-.1.4 0 .1-.1.2-.2.3-.1.1-.2.2-.3.2s-.2.1-.4.2c.1 0 .1.1.2.1l.2.2c0 .1.1.1.1.2s.1.1.2.2l.9 1.2zm-2.5-3.6v1.3H279.4c.1 0 .2-.1.2-.1l.2-.2c0-.1.1-.2.1-.3 0-.2-.1-.4-.2-.5-.1-.1-.3-.2-.5-.2h-.7zM283.8 212.4h-2.3v-4.1h2.2v.6h-1.5v1.2h1.4v.6h-1.4v1.2h1.6v.5zM289.4 208.2l-1.5 4.1h-.8l-1.5-4.1h.8l1 3.1c0 .1.1.2.1.3 0-.1 0-.2.1-.4l1-3.1h.8zM294.4 212.4h-.7v-2.7-.8c0 .2-.1.3-.1.4l-1.2 3.1h-.4l-1.2-3.1c0-.1-.1-.2-.1-.4v3.5h-.7v-4.1h1l1.1 2.8c.1.2.1.4.2.5.1-.2.1-.4.2-.5l1.1-2.7h.9v4zM297.1 212.4v-4.1h1.3c.4 0 .7.1 1 .3.2.2.4.4.4.7 0 .2-.1.4-.2.6-.1.2-.3.3-.6.4.3 0 .5.1.7.3.2.2.3.4.3.7 0 .4-.1.6-.4.9-.3.2-.6.3-1.1.3h-1.4zm.7-3.6v1.2h.4c.2 0 .4-.1.6-.2.1-.1.2-.3.2-.5 0-.4-.2-.5-.7-.5h-.5zm0 1.7v1.3h.6c.3 0 .5-.1.6-.2s.2-.3.2-.5c0-.4-.3-.6-.9-.6h-.5z"/></g><g fill="#686969"><path d="M193.4 212.4h-.8l-.4-1.1h-1.6l-.4 1.1h-.8l1.6-4.1h.8l1.6 4.1zm-1.3-1.6l-.6-1.7c0-.1 0-.1-.1-.3 0 .1 0 .2-.1.3l-.6 1.7h1.4zM196.9 208.5l-2.3 3.3h2.2v.6h-3.2v-.3l2.3-3.2h-2.1v-.6h3.1v.2zM200.7 210.7c0 1.2-.6 1.7-1.7 1.7s-1.6-.6-1.6-1.7v-2.5h.7v2.4c0 .8.3 1.2.9 1.2.6 0 .9-.4.9-1.2v-2.4h.7v2.5zM204.9 212.4h-.8l-.7-1.1c-.1-.1-.1-.2-.2-.3l-.2-.2c-.1 0-.1-.1-.2-.1h-.5v1.7h-.7v-4.1h1.4c.2 0 .4 0 .5.1.2 0 .3.1.4.2l.3.3c.1.1.1.3.1.5 0 .1 0 .3-.1.4 0 .1-.1.2-.2.3-.1.1-.2.2-.3.2s-.2.1-.4.2c.1 0 .1.1.2.1l.2.2c0 .1.1.1.1.2s.1.1.2.2l.9 1.2zm-2.5-3.6v1.3H203.3c.1 0 .2-.1.2-.1l.2-.2c0-.1.1-.2.1-.3 0-.2-.1-.4-.2-.5-.1-.1-.3-.2-.5-.2h-.7zM207.7 212.4h-2.3v-4.1h2.2v.6h-1.5v1.2h1.4v.6h-1.4v1.2h1.6v.5zM213.3 208.2l-1.5 4.1h-.8l-1.5-4.1h.8l1 3.1c0 .1.1.2.1.3 0-.1 0-.2.1-.4l1-3.1h.8zM218.3 212.4h-.7v-2.7-.8c0 .2-.1.3-.1.4l-1.2 3.1h-.5l-1.2-3.1c0-.1-.1-.2-.1-.4v3.5h-.6v-4.1h1l1.1 2.8c.1.2.1.4.2.5.1-.2.1-.4.2-.5l1.1-2.7h.9v4zM224.3 212.4h-.8l-.4-1.1h-1.6l-.4 1.1h-.8l1.6-4.1h.8l1.6 4.1zm-1.3-1.6l-.6-1.7c0-.1 0-.1-.1-.3 0 .1 0 .2-.1.3l-.6 1.7h1.4z"/></g><g fill="#686969"><path d="M239.6 169.5h-.7v-4.1h.7v4.1zM244 169.5h-.8l-.4-1.1h-1.6l-.4 1.1h-.8l1.6-4.1h.8l1.6 4.1zm-1.3-1.6l-.6-1.7c0-.1 0-.1-.1-.3 0 .1 0 .2-.1.3l-.6 1.7h1.4z"/><path d="M248 169.5h-.8l-.4-1.1h-1.6l-.4 1.1h-.8l1.6-4.1h.8l1.6 4.1zm-1.3-1.6l-.6-1.7c0-.1 0-.1-.1-.3 0 .1 0 .2-.1.3l-.6 1.7h1.4zM248.4 169.4v-.7l.2.2c.1.1.2.1.3.1.1 0 .2.1.3.1h.3c.3 0 .5 0 .6-.1.1-.1.2-.2.2-.4 0-.1 0-.2-.1-.3 0-.1-.1-.1-.2-.2s-.2-.1-.3-.2c-.1-.1-.2-.1-.4-.2-.1-.1-.3-.2-.4-.2l-.3-.3c-.1-.1-.2-.2-.2-.3-.1-.1-.1-.3-.1-.4 0-.2 0-.4.1-.5.1-.1.2-.3.3-.4.1-.1.3-.2.5-.2s.4-.1.6-.1c.4 0 .7 0 .9.1v.7c-.2-.2-.5-.3-.9-.3h-.3c-.1 0-.2.1-.3.1-.1 0-.1.1-.2.2 0 .1-.1.2-.1.3 0 .1 0 .2.1.2 0 .1.1.1.2.2s.2.1.3.2c.1.1.2.1.4.2.1.1.3.2.4.2l.3.3c.1.1.2.2.2.3.1.1.1.3.1.4 0 .2 0 .4-.1.5-.1.1-.2.3-.3.4-.1.1-.3.2-.5.2s-.4.1-.6.1h-.6c-.1 0-.2 0-.3-.1 0-.1-.1-.1-.1-.1z"/></g><g fill="#686969"><path d="M234.2 190.2v-.7l.2.2c.1.1.2.1.3.1.1 0 .2.1.3.1h.3c.3 0 .5 0 .6-.1.1-.1.2-.2.2-.4 0-.1 0-.2-.1-.3 0-.1-.1-.1-.2-.2s-.2-.1-.3-.2c-.1-.1-.2-.1-.4-.2-.1-.1-.3-.2-.4-.2l-.3-.3c-.1-.1-.2-.2-.2-.3-.1-.1-.1-.3-.1-.4 0-.2 0-.4.1-.5.1-.1.2-.3.3-.4.1-.1.3-.2.5-.2s.4-.1.6-.1c.4 0 .7 0 .9.1v.7c-.2-.2-.5-.3-.9-.3h-.3c-.1 0-.2.1-.3.1-.1 0-.1.1-.2.2 0 .1-.1.2-.1.3 0 .1 0 .2.1.2 0 .1.1.1.2.2s.2.1.3.2c.1.1.2.1.4.2.1.1.3.2.4.2l.3.3c.1.1.2.2.2.3.1.1.1.3.1.4 0 .2 0 .4-.1.5-.1.1-.2.3-.3.4-.1.1-.3.2-.5.2s-.4.1-.6.1h-.6c-.1 0-.2 0-.3-.1.1 0 0-.1-.1-.1zM242.8 186.2l-1.1 4.1h-.8l-.8-2.9c0-.1-.1-.3-.1-.4 0 .1 0 .3-.1.4l-.8 2.9h-.8l-1.2-4.1h.8l.8 3c0 .1.1.3.1.4 0-.1 0-.2.1-.4l.8-3h.7l.8 3.1c0 .1 0 .2.1.4 0-.1 0-.2.1-.4l.7-3h.7zM246.6 190.4h-.8l-.4-1.1h-1.6l-.4 1.1h-.8l1.6-4.1h.8l1.6 4.1zm-1.4-1.7l-.6-1.7c0-.1 0-.1-.1-.3 0 .1 0 .2-.1.3l-.6 1.7h1.4zM250.3 190.4h-.8l-.7-1.1c-.1-.1-.1-.2-.2-.3l-.2-.2c-.1 0-.1-.1-.2-.1h-.5v1.7h-.7v-4.1h1.4c.2 0 .4 0 .5.1.2 0 .3.1.4.2l.3.3c.1.1.1.3.1.5 0 .1 0 .3-.1.4 0 .1-.1.2-.2.3-.1.1-.2.2-.3.2-.1.1-.2.1-.4.2.1 0 .1.1.2.1l.2.2c0 .1.1.1.1.2s.1.1.2.2l.9 1.2zm-2.5-3.6v1.3H248.7c.1 0 .2-.1.2-.1l.2-.2c0-.1.1-.2.1-.3 0-.2-.1-.4-.2-.5-.1-.1-.3-.2-.5-.2h-.7zM255.2 190.4h-.7v-2.7-.8c0 .2-.1.3-.1.4l-1.2 3.1h-.5l-1.2-3.1c0-.1-.1-.2-.1-.4v3.5h-.6v-4.1h1l1.1 2.8c.1.2.1.4.2.5.1-.2.1-.4.2-.5l1.1-2.7h.9v4z"/></g><g fill="#686969"><path d="M211.8 283.1v1.5h-.7v-4.2h1.3c.5 0 .9.1 1.1.3.3.2.4.5.4.9s-.1.7-.4 1c-.3.3-.6.4-1.1.4h-.6zm0-2.1v1.5h.4c.3 0 .5-.1.7-.2.2-.1.2-.3.2-.6 0-.5-.3-.7-.9-.7h-.4zM216.3 282.3c-.1-.1-.2-.1-.4-.1s-.4.1-.5.3c-.1.2-.2.4-.2.7v1.4h-.7v-3h.7v.6c.1-.2.2-.4.3-.5.1-.1.3-.2.5-.2.1 0 .2 0 .3.1v.7zM217.1 281c-.1 0-.2 0-.3-.1-.1-.1-.1-.2-.1-.3 0-.1 0-.2.1-.3.1-.1.2-.1.3-.1.1 0 .2 0 .3.1.1.1.1.2.1.3 0 .1 0 .2-.1.3-.1.1-.2.1-.3.1zm.3 3.6h-.7v-3h.7v3zM222.8 284.6h-.7V283c0-.3 0-.5-.1-.7-.1-.1-.2-.2-.4-.2s-.3.1-.4.3c-.1.2-.2.4-.2.6v1.6h-.7v-1.7c0-.6-.2-.8-.6-.8-.2 0-.3.1-.4.2-.1.2-.2.4-.2.6v1.6h-.7v-3h.7v.5c.2-.4.5-.5.9-.5.2 0 .4.1.5.2.2.1.3.3.3.4.2-.4.6-.6 1-.6.7 0 1 .4 1 1.2v1.9zM225.9 284.6h-.7v-.5c-.2.4-.5.5-.9.5-.3 0-.5-.1-.7-.2-.2-.2-.2-.4-.2-.6 0-.6.3-.9 1-1l.9-.1c0-.4-.2-.6-.6-.6-.4 0-.7.1-1 .4v-.6c.3-.2.7-.3 1.1-.3.8 0 1.1.4 1.1 1.1v1.9zm-.7-1.4l-.6.1c-.2 0-.3.1-.4.1-.1.1-.1.2-.1.4 0 .1 0 .2.1.3s.2.1.4.1.4-.1.5-.2c.1-.1.2-.3.2-.5v-.3zM228.4 282.3c-.1-.1-.2-.1-.4-.1s-.4.1-.5.3c-.1.2-.2.4-.2.7v1.4h-.7v-3h.7v.6c.1-.2.2-.4.3-.5.1-.1.3-.2.5-.2.1 0 .2 0 .3.1v.7zM231.7 281.6l-1.3 3.5c-.3.6-.7.9-1.2.9h-.4v-.6c.1 0 .2.1.3.1.3 0 .4-.1.6-.4l.2-.5-1.2-3h.7l.7 2.2s0 .1.1.2c0 0 0-.1.1-.2l.7-2.2h.7zM207.2 291.8v-4.2h1.2c1.5 0 2.3.7 2.3 2 0 .6-.2 1.2-.6 1.6-.4.4-1 .6-1.7.6h-1.2zm.7-3.6v3h.6c.5 0 .9-.1 1.1-.4.3-.3.4-.6.4-1.1 0-1-.5-1.5-1.5-1.5h-.6zM213.7 291.8h-.7v-.5c-.2.4-.5.5-.9.5-.3 0-.5-.1-.7-.2-.2-.2-.2-.4-.2-.6 0-.6.3-.9 1-1l.9-.1c0-.4-.2-.6-.6-.6-.4 0-.7.1-1 .4v-.7c.3-.2.7-.3 1.1-.3.8 0 1.1.4 1.1 1.1v2zm-.6-1.5l-.6.1c-.2 0-.3.1-.4.1-.1.1-.1.2-.1.4 0 .1 0 .2.1.3.1.1.2.1.4.1s.4-.1.5-.2c.1-.1.2-.3.2-.5v-.3zM216.1 291.7c-.1.1-.3.1-.5.1-.6 0-.9-.3-.9-.8v-1.7h-.5v-.5h.5v-.7l.7-.2v.9h.7v.5h-.7v1.5c0 .2 0 .3.1.4.1.1.2.1.3.1.1 0 .2 0 .3-.1v.5zM219 291.8h-.7v-.5c-.2.4-.5.5-.9.5-.3 0-.5-.1-.7-.2-.2-.2-.2-.4-.2-.6 0-.6.3-.9 1-1l.9-.1c0-.4-.2-.6-.6-.6-.4 0-.7.1-1 .4v-.7c.3-.2.7-.3 1.1-.3.8 0 1.1.4 1.1 1.1v2zm-.7-1.5l-.6.1c-.2 0-.3.1-.4.1-.1.1-.1.2-.1.4 0 .1 0 .2.1.3.1.1.2.1.4.1s.4-.1.5-.2c.1-.1.2-.3.2-.5v-.3zM220.5 291.3v.4h-.7v-4.4h.7v2c.2-.4.6-.6 1-.6s.7.1.9.4c.2.3.3.6.3 1.1 0 .5-.1.9-.4 1.2s-.6.4-1 .4c-.3 0-.6-.1-.8-.5zm0-1.1v.4c0 .2.1.4.2.6.1.2.3.2.5.2.3 0 .4-.1.6-.3.1-.2.2-.5.2-.8 0-.3-.1-.5-.2-.7-.1-.2-.3-.2-.5-.2s-.4.1-.6.3c-.2 0-.2.2-.2.5zM225.6 291.8h-.7v-.5c-.2.4-.5.5-.9.5-.3 0-.5-.1-.7-.2-.2-.2-.2-.4-.2-.6 0-.6.3-.9 1-1l.9-.1c0-.4-.2-.6-.6-.6-.4 0-.7.1-1 .4v-.7c.3-.2.7-.3 1.1-.3.8 0 1.1.4 1.1 1.1v2zm-.6-1.5l-.6.1c-.2 0-.3.1-.4.1-.1.1-.1.2-.1.4 0 .1 0 .2.1.3.1.1.2.1.4.1s.4-.1.5-.2c.1-.1.2-.3.2-.5v-.3zM226.2 291.7v-.7c.3.2.5.3.8.3.4 0 .6-.1.6-.4 0-.1 0-.1-.1-.2l-.1-.1c-.1 0-.1-.1-.2-.1s-.2-.1-.3-.1c-.1 0-.2-.1-.3-.2-.1-.1-.2-.1-.2-.2-.1-.1-.1-.1-.1-.2v-.3c0-.1 0-.3.1-.4l.3-.3c.1-.1.2-.1.4-.2.1 0 .3-.1.5-.1.3 0 .5 0 .7.1v.6c-.2-.1-.4-.2-.7-.2h-.2c-.1 0-.1 0-.2.1l-.1.1V289.5l.1.1c.1 0 .1.1.2.1s.2.1.3.1c.1.1.2.1.3.2.1.1.2.1.3.2l.2.2c0 .1.1.2.1.3 0 .2 0 .3-.1.4l-.3.3c-.1.1-.3.1-.4.2-.2 0-.3.1-.5.1-.5.1-.8.1-1.1 0zM231.5 290.5h-2c0 .3.1.5.3.6.2.1.4.2.7.2.3 0 .6-.1.9-.3v.5c-.3.2-.6.3-1.1.3-.4 0-.8-.1-1-.4-.2-.3-.4-.7-.4-1.1 0-.5.1-.8.4-1.1.3-.3.6-.4 1-.4s.7.1.9.4c.2.3.3.6.3 1.1v.2zm-.6-.5c0-.2-.1-.4-.2-.6-.1-.1-.3-.2-.5-.2s-.4.1-.5.2c-.1.1-.2.3-.2.6h1.4z"/></g><g fill="#686969"><path d="M257.7 284.5v-.7l.2.2c.1 0 .2.1.3.1.1 0 .2.1.3.1h.3c.3 0 .5 0 .7-.1.1-.1.2-.2.2-.4 0-.1 0-.2-.1-.3 0-.1-.1-.1-.2-.2s-.2-.1-.3-.2c-.1-.1-.2-.1-.4-.2-.1-.1-.3-.2-.4-.2l-.3-.3c-.1-.1-.2-.2-.2-.3-.1-.1-.1-.3-.1-.4 0-.2 0-.4.1-.5.1-.1.2-.3.3-.4.1-.1.3-.2.5-.2s.4-.1.6-.1c.4 0 .8 0 1 .1v.7c-.2-.2-.5-.3-.9-.3h-.3c-.1 0-.2.1-.3.1-.1 0-.1.1-.2.2s-.1.2-.1.3c0 .1 0 .2.1.2 0 .1.1.1.2.2s.2.1.3.2c.1.1.2.1.4.2.1.1.3.2.4.2l.3.3c.1.1.2.2.2.3.1.1.1.3.1.4 0 .2 0 .4-.1.5-.1.1-.2.3-.3.4-.1.1-.3.2-.5.2s-.4.1-.6.1h-.6c-.1 0-.2 0-.3-.1s-.2-.1-.3-.1zM263.6 283.3h-2c0 .3.1.5.3.6.2.1.4.2.7.2.3 0 .6-.1.9-.3v.5c-.3.2-.6.3-1.1.3-.4 0-.8-.1-1-.4-.2-.3-.4-.7-.4-1.1 0-.5.1-.8.4-1.1.3-.3.6-.4 1-.4s.7.1.9.4c.2.3.3.6.3 1.1v.2zm-.6-.5c0-.2-.1-.4-.2-.6s-.3-.2-.5-.2-.4.1-.5.2c-.1.1-.2.3-.2.6h1.4zM266.4 284.5c-.2.1-.5.2-.8.2-.4 0-.8-.1-1.1-.4-.3-.3-.4-.6-.4-1.1 0-.5.1-.9.4-1.2.3-.3.7-.4 1.2-.4.3 0 .5 0 .7.1v.6c-.2-.2-.4-.2-.7-.2-.3 0-.5.1-.7.3-.2.2-.3.4-.3.8 0 .3.1.6.3.7s.4.3.7.3c.2 0 .5-.1.7-.3v.6zM268.4 284.7c-.5 0-.8-.1-1.1-.4-.3-.3-.4-.6-.4-1.1 0-.5.1-.9.4-1.2.3-.3.7-.4 1.2-.4s.8.1 1.1.4c.3.3.4.7.4 1.1 0 .5-.1.9-.4 1.1-.4.3-.7.5-1.2.5zm0-2.6c-.3 0-.5.1-.6.3-.2.2-.2.4-.2.8 0 .3.1.6.2.7.2.2.4.3.6.3.3 0 .5-.1.6-.3.1-.2.2-.4.2-.8 0-.3-.1-.6-.2-.8s-.3-.2-.6-.2zM273.3 284.6h-.7v-1.7c0-.6-.2-.8-.6-.8-.2 0-.4.1-.5.2-.1.2-.2.3-.2.6v1.7h-.7v-3h.7v.5c.2-.4.5-.6 1-.6.3 0 .6.1.7.3.2.2.3.5.3.9v1.9zM276.8 284.6h-.7v-.5c-.2.4-.6.6-1 .6s-.7-.1-.9-.4c-.2-.3-.3-.6-.3-1.1 0-.5.1-.9.4-1.2.2-.3.6-.4 1-.4s.7.2.9.5v-1.8h.7v4.3zm-.7-1.3v-.4c0-.2-.1-.4-.2-.5-.1-.1-.3-.2-.5-.2-.3 0-.5.1-.6.3-.1.2-.2.4-.2.8 0 .3.1.5.2.7.1.2.3.3.6.3.2 0 .4-.1.6-.3.1-.3.1-.5.1-.7zM280 284.6h-.7v-.5c-.2.4-.5.5-.9.5-.3 0-.5-.1-.7-.2-.2-.2-.2-.4-.2-.6 0-.6.3-.9 1-1l.9-.1c0-.4-.2-.6-.6-.6-.4 0-.7.1-1 .4v-.6c.3-.2.7-.3 1.1-.3.8 0 1.1.4 1.1 1.1v1.9zm-.7-1.4l-.6.1c-.2 0-.3.1-.4.1s-.1.2-.1.4c0 .1 0 .2.1.3.1.1.2.1.4.1s.4-.1.5-.2c.1-.1.2-.3.2-.5v-.3zM282.5 282.3c-.1-.1-.2-.1-.4-.1s-.4.1-.5.3c-.1.2-.2.4-.2.7v1.4h-.7v-3h.7v.6c.1-.2.2-.4.3-.5.1-.1.3-.2.5-.2.1 0 .2 0 .3.1v.7zM285.8 281.6l-1.3 3.5c-.3.6-.7.9-1.2.9h-.4v-.6c.1 0 .2.1.3.1.3 0 .4-.1.6-.4l.2-.5-1.2-3h.7l.7 2.2s0 .1.1.2c0 0 0-.1.1-.2l.7-2.2h.7zM257.9 291.8v-4.2h1.2c1.5 0 2.3.7 2.3 2 0 .6-.2 1.2-.6 1.6s-1 .6-1.7.6h-1.2zm.7-3.6v3h.6c.5 0 .9-.1 1.1-.4.3-.3.4-.6.4-1.1 0-1-.5-1.5-1.5-1.5h-.6zM264.4 291.8h-.7v-.5c-.2.4-.5.5-.9.5-.3 0-.5-.1-.7-.2-.2-.2-.2-.4-.2-.6 0-.6.3-.9 1-1l.9-.1c0-.4-.2-.6-.6-.6-.4 0-.7.1-1 .4v-.7c.3-.2.7-.3 1.1-.3.8 0 1.1.4 1.1 1.1v2zm-.6-1.5l-.6.1c-.2 0-.3.1-.4.1-.1.1-.1.2-.1.4 0 .1 0 .2.1.3.1.1.2.1.4.1s.4-.1.5-.2c.1-.1.2-.3.2-.5v-.3zM266.8 291.7c-.1.1-.3.1-.5.1-.6 0-.9-.3-.9-.8v-1.7h-.5v-.5h.5v-.7l.7-.2v.9h.7v.5h-.7v1.5c0 .2 0 .3.1.4.1.1.2.1.3.1.1 0 .2 0 .3-.1v.5zM269.7 291.8h-.7v-.5c-.2.4-.5.5-.9.5-.3 0-.5-.1-.7-.2-.2-.2-.2-.4-.2-.6 0-.6.3-.9 1-1l.9-.1c0-.4-.2-.6-.6-.6-.4 0-.7.1-1 .4v-.7c.3-.2.7-.3 1.1-.3.8 0 1.1.4 1.1 1.1v2zm-.7-1.5l-.6.1c-.2 0-.3.1-.4.1-.1.1-.1.2-.1.4 0 .1 0 .2.1.3.1.1.2.1.4.1s.4-.1.5-.2c.1-.1.2-.3.2-.5v-.3zM271.2 291.3v.4h-.7v-4.4h.7v2c.2-.4.6-.6 1-.6s.7.1.9.4c.2.3.3.6.3 1.1 0 .5-.1.9-.4 1.2s-.6.4-1 .4c-.3 0-.6-.1-.8-.5zm0-1.1v.4c0 .2.1.4.2.6.1.2.3.2.5.2.3 0 .4-.1.6-.3s.2-.5.2-.8c0-.3-.1-.5-.2-.7-.1-.2-.3-.2-.5-.2s-.4.1-.6.3c-.2 0-.2.2-.2.5zM276.3 291.8h-.7v-.5c-.2.4-.5.5-.9.5-.3 0-.5-.1-.7-.2-.2-.2-.2-.4-.2-.6 0-.6.3-.9 1-1l.9-.1c0-.4-.2-.6-.6-.6-.4 0-.7.1-1 .4v-.7c.3-.2.7-.3 1.1-.3.8 0 1.1.4 1.1 1.1v2zm-.6-1.5l-.6.1c-.2 0-.3.1-.4.1-.1.1-.1.2-.1.4 0 .1 0 .2.1.3.1.1.2.1.4.1s.4-.1.5-.2c.1-.1.2-.3.2-.5v-.3zM276.9 291.7v-.7c.3.2.5.3.8.3.4 0 .6-.1.6-.4 0-.1 0-.1-.1-.2l-.1-.1c-.1 0-.1-.1-.2-.1s-.2-.1-.3-.1c-.1 0-.2-.1-.3-.2-.1-.1-.2-.1-.2-.2-.1-.1-.1-.1-.1-.2v-.3c0-.1 0-.3.1-.4l.3-.3c.1-.1.2-.1.4-.2.1 0 .3-.1.5-.1.3 0 .5 0 .7.1v.6c-.2-.1-.4-.2-.7-.2h-.2c-.1 0-.1 0-.2.1l-.1.1V289.5l.1.1c.1 0 .1.1.2.1s.2.1.3.1c.1.1.2.1.3.2.1.1.2.1.3.2l.2.2c0 .1.1.2.1.3 0 .2 0 .3-.1.4l-.3.3c-.1.1-.3.1-.4.2-.2 0-.3.1-.5.1-.5.1-.8.1-1.1 0zM282.2 290.5h-2c0 .3.1.5.3.6.2.1.4.2.7.2.3 0 .6-.1.9-.3v.5c-.3.2-.6.3-1.1.3-.4 0-.8-.1-1-.4-.2-.3-.4-.7-.4-1.1 0-.5.1-.8.4-1.1.3-.3.6-.4 1-.4s.7.1.9.4c.2.3.3.6.3 1.1v.2zm-.6-.5c0-.2-.1-.4-.2-.6s-.3-.2-.5-.2-.4.1-.5.2c-.1.1-.2.3-.2.6h1.4z"/></g><g fill="#686969"><path d="M196.4 273.7h-.7V271v-.8c0 .2-.1.3-.1.4l-1.2 3.1h-.5l-1.2-3.1c0-.1-.1-.2-.1-.4v3.5h-.6v-4.2h1l1.1 2.8c.1.2.1.4.2.5.1-.2.1-.4.2-.5l1.1-2.8h.9v4.2zM200.8 273.7h-.8l-.4-1.1H198l-.4 1.1h-.8l1.6-4.2h.8l1.6 4.2zm-1.3-1.6l-.6-1.7c0-.1 0-.1-.1-.3 0 .1 0 .2-.1.3l-.6 1.7h1.4zM204.6 273.7h-.8l-.7-1.1c-.1-.1-.1-.2-.2-.3l-.2-.2c-.1 0-.1-.1-.2-.1h-.5v1.7h-.7v-4.2h1.4c.2 0 .4 0 .5.1.2 0 .3.1.4.2.1.1.2.2.3.4.1.1.1.3.1.5 0 .1 0 .3-.1.4 0 .1-.1.2-.2.3-.1.1-.2.2-.3.2s-.2.1-.4.2c.1 0 .1.1.2.1l.2.2c.1.1.1.1.1.2s.1.1.2.2l.9 1.2zm-2.5-3.6v1.4H203c.1 0 .2-.1.2-.1l.2-.2c0-.1.1-.2.1-.3 0-.2-.1-.4-.2-.5-.1-.1-.3-.2-.5-.2h-.7zM205.8 273.7h-.7v-4.2h.7v4.2zM210.3 273.7h-.8l-.4-1.1h-1.6l-.4 1.1h-.8l1.6-4.2h.8l1.6 4.2zm-1.4-1.6l-.6-1.7c0-.1 0-.1-.1-.3 0 .1 0 .2-.1.3l-.6 1.7h1.4zM212.5 273.7v-4.2h1.2c1.5 0 2.3.7 2.3 2 0 .6-.2 1.2-.6 1.6-.4.4-1 .6-1.7.6h-1.2zm.7-3.6v3h.6c.5 0 .9-.1 1.1-.4s.4-.6.4-1.1c0-1-.5-1.5-1.5-1.5h-.6zM216.7 273.7v-4.2h1.3c.4 0 .7.1 1 .3.2.2.4.4.4.7 0 .2-.1.4-.2.6-.1.2-.3.3-.6.4.3 0 .5.1.7.3s.3.4.3.7c0 .4-.1.6-.4.9-.3.2-.6.3-1.1.3h-1.4zm.7-3.6v1.2h.4c.2 0 .4-.1.6-.2.1-.1.2-.3.2-.5 0-.4-.2-.5-.7-.5h-.5zm0 1.7v1.3h.6c.3 0 .5-.1.6-.2.1-.1.2-.3.2-.5 0-.4-.3-.6-.9-.6h-.5z"/></g><g fill="#686969"><path d="M274.2 273.7h-.7V271v-.8c0 .2-.1.3-.1.4l-1.2 3.1h-.5l-1.2-3.1c0-.1-.1-.2-.1-.4v3.5h-.6v-4.2h1l1.1 2.8c.1.2.1.4.2.5.1-.2.1-.4.2-.5l1.1-2.8h.9v4.2zM278.7 273.7h-.8l-.4-1.1h-1.6l-.4 1.1h-.8l1.6-4.2h.8l1.6 4.2zm-1.4-1.6l-.6-1.7c0-.1 0-.1-.1-.3 0 .1 0 .2-.1.3l-.6 1.7h1.4zM282.4 273.7h-.8l-.7-1.1c-.1-.1-.1-.2-.2-.3l-.2-.2c-.1 0-.1-.1-.2-.1h-.5v1.7h-.7v-4.2h1.4c.2 0 .4 0 .5.1.2 0 .3.1.4.2.1.1.2.2.3.4.1.1.1.3.1.5 0 .1 0 .3-.1.4 0 .1-.1.2-.2.3s-.2.2-.3.2c-.1.1-.2.1-.4.2.1 0 .1.1.2.1l.2.2c.1.1.1.1.1.2s.1.1.2.2l.9 1.2zm-2.5-3.6v1.4H280.8c.1 0 .2-.1.2-.1l.2-.2c0-.1.1-.2.1-.3 0-.2-.1-.4-.2-.5-.1-.1-.3-.2-.5-.2h-.7zM283.6 273.7h-.7v-4.2h.7v4.2zM288.1 273.7h-.8l-.4-1.1h-1.6l-.4 1.1h-.8l1.6-4.2h.8l1.6 4.2zm-1.3-1.6l-.6-1.7c0-.1 0-.1-.1-.3 0 .1 0 .2-.1.3l-.6 1.7h1.4zM290.3 273.7v-4.2h1.2c1.5 0 2.3.7 2.3 2 0 .6-.2 1.2-.6 1.6-.4.4-1 .6-1.7.6h-1.2zm.7-3.6v3h.6c.5 0 .9-.1 1.1-.4.3-.3.4-.6.4-1.1 0-1-.5-1.5-1.5-1.5h-.6zM294.6 273.7v-4.2h1.3c.4 0 .7.1 1 .3.2.2.4.4.4.7 0 .2-.1.4-.2.6s-.3.3-.6.4c.3 0 .5.1.7.3s.3.4.3.7c0 .4-.1.6-.4.9-.3.2-.6.3-1.1.3h-1.4zm.7-3.6v1.2h.4c.2 0 .4-.1.6-.2.1-.1.2-.3.2-.5 0-.4-.2-.5-.7-.5h-.5zm0 1.7v1.3h.6c.3 0 .5-.1.6-.2.1-.1.2-.3.2-.5 0-.4-.3-.6-.9-.6h-.5z"/></g><g fill="#686969"><path d="M170.5 261.2v-4.8h1.4c1.8 0 2.6.8 2.6 2.3 0 .7-.2 1.3-.7 1.8-.5.4-1.1.7-2 .7h-1.3zm.8-4.1v3.4h.6c.6 0 1-.2 1.3-.5.3-.3.5-.7.5-1.3 0-1.1-.6-1.7-1.7-1.7h-.7zM175.4 261.2v-4.8h1.5c.5 0 .8.1 1.1.3.3.2.4.5.4.8 0 .3-.1.5-.2.7-.2.2-.4.3-.6.4.3 0 .6.2.8.4.2.2.3.5.3.8 0 .4-.2.7-.5 1-.3.3-.7.4-1.2.4h-1.6zm.8-4.1v1.4h.5c.3 0 .5-.1.6-.2.2-.1.2-.3.2-.6 0-.4-.3-.6-.8-.6h-.5zm0 2v1.5h.7c.3 0 .5-.1.7-.2.2-.1.2-.3.2-.6 0-.5-.3-.7-1-.7h-.6zM181 256.3v4.9h-.8v-3.9c-.1.1-.3.2-.5.3-.2.1-.3.1-.5.2v-.8c.1 0 .3-.1.4-.1.1 0 .2-.1.4-.2.1-.1.2-.1.4-.2.1-.1.2-.2.4-.2h.2z"/></g><g fill="#686969"><path d="M261 261.2v-4.8h1.4c1.8 0 2.6.8 2.6 2.3 0 .7-.2 1.3-.7 1.8-.5.4-1.1.7-2 .7H261zm.8-4.1v3.4h.6c.6 0 1-.2 1.3-.5s.5-.7.5-1.3c0-1.1-.6-1.7-1.7-1.7h-.7zM265.9 261.2v-4.8h1.5c.5 0 .8.1 1.1.3.3.2.4.5.4.8 0 .3-.1.5-.2.7-.2.2-.4.3-.6.4.3 0 .6.2.8.4.2.2.3.5.3.8 0 .4-.2.7-.5 1-.3.3-.7.4-1.2.4h-1.6zm.8-4.1v1.4h.5c.3 0 .5-.1.6-.2.2-.1.2-.3.2-.6 0-.4-.3-.6-.8-.6h-.5zm0 2v1.5h.7c.3 0 .5-.1.7-.2.2-.1.2-.3.2-.6 0-.5-.3-.7-1-.7h-.6zM271.5 256.3v4.9h-.8v-3.9c-.1.1-.3.2-.5.3-.2.1-.3.1-.5.2v-.8c.1 0 .3-.1.4-.1.1 0 .2-.1.4-.2.1-.1.2-.1.4-.2.1-.1.2-.2.4-.2h.2z"/></g><g fill="#686969"><path d="M194 261.2v-4.8h1.4c1.8 0 2.6.8 2.6 2.3 0 .7-.2 1.3-.7 1.8-.5.4-1.1.7-2 .7H194zm.8-4.1v3.4h.6c.6 0 1-.2 1.3-.5s.5-.7.5-1.3c0-1.1-.6-1.7-1.7-1.7h-.7zM198.9 261.2v-4.8h1.5c.5 0 .8.1 1.1.3.3.2.4.5.4.8 0 .3-.1.5-.2.7-.2.2-.4.3-.6.4.3 0 .6.2.8.4.2.2.3.5.3.8 0 .4-.2.7-.5 1-.3.3-.7.4-1.2.4h-1.6zm.8-4.1v1.4h.5c.3 0 .5-.1.6-.2.2-.1.2-.3.2-.6 0-.4-.3-.6-.8-.6h-.5zm0 2v1.5h.7c.3 0 .5-.1.7-.2.2-.1.2-.3.2-.6 0-.5-.3-.7-1-.7h-.6zM205.7 261.2h-3v-.4c0-.2 0-.3.1-.4 0-.1.1-.3.2-.4.1-.1.2-.2.2-.3l.3-.3.3-.3.3-.3.3-.3c.1-.1.2-.2.2-.3.1-.1.1-.2.1-.3v-.3c0-.1 0-.2-.1-.3 0-.1-.1-.2-.2-.2s-.2-.1-.2-.1h-.3c-.2 0-.4 0-.6.1-.2.1-.4.2-.6.4v-.7c.1-.1.2-.1.3-.2.1-.1.2-.1.3-.1s.2-.1.3-.1h.4c.2 0 .4 0 .6.1.2.1.3.1.4.2.1.1.2.2.3.4.1.2.1.4.1.6 0 .2 0 .4-.1.5 0 .2-.1.3-.2.4-.1.1-.2.3-.3.4-.1.1-.3.2-.4.4-.1.1-.3.2-.4.3l-.3.3c-.1.1-.2.2-.2.3-.1.1-.1.2-.1.3h2.2v.6z"/></g><g fill="#686969"><path d="M283.6 261.2v-4.8h1.4c1.8 0 2.6.8 2.6 2.3 0 .7-.2 1.3-.7 1.8-.5.4-1.1.7-2 .7h-1.3zm.7-4.1v3.4h.6c.6 0 1-.2 1.3-.5s.5-.7.5-1.3c0-1.1-.6-1.7-1.7-1.7h-.7zM288.4 261.2v-4.8h1.5c.5 0 .8.1 1.1.3.3.2.4.5.4.8 0 .3-.1.5-.2.7-.2.2-.4.3-.6.4.3 0 .6.2.8.4.2.2.3.5.3.8 0 .4-.2.7-.5 1-.3.3-.7.4-1.2.4h-1.6zm.8-4.1v1.4h.5c.3 0 .5-.1.6-.2.2-.1.2-.3.2-.6 0-.4-.3-.6-.8-.6h-.5zm0 2v1.5h.7c.3 0 .5-.1.7-.2.2-.1.2-.3.2-.6 0-.5-.3-.7-1-.7h-.6zM295.3 261.2h-3v-.4c0-.2 0-.3.1-.4 0-.1.1-.3.2-.4.1-.1.2-.2.2-.3s.2-.2.3-.3l.3-.3.3-.3.3-.3c.1-.1.2-.2.2-.3.1-.1.1-.2.1-.3v-.3c0-.1 0-.2-.1-.3s-.1-.2-.2-.2-.2-.1-.2-.1h-.3c-.2 0-.4 0-.6.1-.2.1-.4.2-.6.4v-.7c.1-.1.2-.1.3-.2.1-.1.2-.1.3-.1s.2-.1.3-.1h.4c.2 0 .4 0 .6.1.2.1.3.1.4.2.1.1.2.2.3.4.1.2.1.4.1.6 0 .2 0 .4-.1.5 0 .2-.1.3-.2.4-.1.1-.2.3-.3.4-.1.1-.3.2-.4.4-.1.1-.3.2-.4.3l-.3.3c-.1.1-.2.2-.2.3-.1.1-.1.2-.1.3h2.2v.6z"/></g><g fill="#686969"><path d="M216.9 261.2v-4.8h1.4c1.8 0 2.6.8 2.6 2.3 0 .7-.2 1.3-.7 1.8-.5.4-1.1.7-2 .7h-1.3zm.8-4.1v3.4h.6c.6 0 1-.2 1.3-.5s.5-.7.5-1.3c0-1.1-.6-1.7-1.7-1.7h-.7zM221.8 261.2v-4.8h1.5c.5 0 .8.1 1.1.3.3.2.4.5.4.8 0 .3-.1.5-.2.7-.2.2-.4.3-.6.4.3 0 .6.2.8.4.2.2.3.5.3.8 0 .4-.2.7-.5 1-.3.3-.7.4-1.2.4h-1.6zm.8-4.1v1.4h.5c.3 0 .5-.1.6-.2.2-.1.2-.3.2-.6 0-.4-.3-.6-.8-.6h-.5zm0 2v1.5h.7c.3 0 .5-.1.7-.2.2-.1.2-.3.2-.6 0-.5-.3-.7-1-.7h-.6zM225.7 261v-.7c.3.2.7.4 1.1.4.3 0 .6-.1.8-.2.2-.1.3-.3.3-.6 0-.5-.4-.8-1.2-.8h-.4v-.6h.4c.7 0 1.1-.3 1.1-.8s-.3-.7-.9-.7c-.3 0-.6.1-.9.3v-.7c.3-.2.7-.3 1.1-.3.4 0 .8.1 1 .3.3.2.4.5.4.8 0 .6-.3 1-1 1.2.3 0 .6.2.8.4.2.2.3.5.3.8 0 .4-.2.8-.5 1-.3.3-.7.4-1.3.4-.4.1-.8 0-1.1-.2z"/></g><g fill="#686969"><path d="M306.6 261.2v-4.8h1.4c1.8 0 2.6.8 2.6 2.3 0 .7-.2 1.3-.7 1.8-.5.4-1.1.7-2 .7h-1.3zm.8-4.1v3.4h.6c.6 0 1-.2 1.3-.5s.5-.7.5-1.3c0-1.1-.6-1.7-1.7-1.7h-.7zM311.5 261.2v-4.8h1.5c.5 0 .8.1 1.1.3.3.2.4.5.4.8 0 .3-.1.5-.2.7-.2.2-.4.3-.6.4.3 0 .6.2.8.4.2.2.3.5.3.8 0 .4-.2.7-.5 1-.3.3-.7.4-1.2.4h-1.6zm.8-4.1v1.4h.5c.3 0 .5-.1.6-.2.2-.1.2-.3.2-.6 0-.4-.3-.6-.8-.6h-.5zm0 2v1.5h.7c.3 0 .5-.1.7-.2.2-.1.2-.3.2-.6 0-.5-.3-.7-1-.7h-.6zM315.4 261v-.7c.3.2.7.4 1.1.4.3 0 .6-.1.8-.2.2-.1.3-.3.3-.6 0-.5-.4-.8-1.2-.8h-.4v-.6h.4c.7 0 1.1-.3 1.1-.8s-.3-.7-.9-.7c-.3 0-.6.1-.9.3v-.7c.3-.2.7-.3 1.1-.3.4 0 .8.1 1 .3.3.2.4.5.4.8 0 .6-.3 1-1 1.2.3 0 .6.2.8.4s.3.5.3.8c0 .4-.2.8-.5 1-.3.3-.7.4-1.3.4-.4.1-.8 0-1.1-.2z"/></g><g fill="#010101"><path d="M219.7 96.8h-.9l-.5-1.3h-2l-.4 1.3h-.9l1.9-5.2h1l1.8 5.2zm-1.6-2.1l-.7-2.1c0-.1 0-.2-.1-.3 0 .1 0 .2-.1.3l-.7 2.1h1.6zM221.3 94.9v1.9h-.9v-5.2h1.6c.6 0 1.1.1 1.4.4s.5.7.5 1.2-.2.9-.5 1.2c-.3.3-.8.5-1.4.5h-.7zm0-2.6v1.9h.6c.4 0 .6-.1.8-.3s.3-.4.3-.7c0-.6-.4-.9-1.1-.9h-.6zM225.6 94.9v1.9h-.9v-5.2h1.6c.6 0 1.1.1 1.4.4s.5.7.5 1.2-.2.9-.5 1.2c-.3.3-.8.5-1.4.5h-.7zm0-2.6v1.9h.6c.4 0 .6-.1.8-.3s.3-.4.3-.7c0-.6-.4-.9-1.1-.9h-.6zM231.9 96.8H229v-5.2h.9V96h2v.8zM233.6 96.8h-.9v-5.2h.9v5.2zM238.5 96.5c-.4.2-.9.3-1.5.3-.8 0-1.4-.2-1.8-.7s-.7-1.1-.7-1.9c0-.8.3-1.5.8-2s1.2-.8 1.9-.8c.5 0 .9.1 1.2.2v.9c-.3-.2-.7-.3-1.2-.3-.6 0-1 .2-1.4.5-.3.4-.5.8-.5 1.4 0 .6.2 1 .5 1.4.3.3.8.5 1.3.5s.9-.1 1.3-.3v.8zM243.7 96.8h-.9l-.5-1.3h-2l-.4 1.3h-.9l1.9-5.2h1l1.8 5.2zm-1.6-2.1l-.7-2.1c0-.1 0-.2-.1-.3 0 .1 0 .2-.1.3l-.7 2.1h1.6zM247.2 92.3h-1.5v4.4h-.9v-4.4h-1.5v-.7h3.8v.7zM248.8 96.8h-.8v-5.2h.9v5.2zM252.2 96.8c-.7 0-1.3-.2-1.8-.7s-.7-1.1-.7-1.9c0-.8.2-1.5.7-2 .5-.5 1.1-.7 1.9-.7.7 0 1.3.2 1.8.7.4.5.7 1.1.7 1.9 0 .8-.2 1.5-.7 2-.5.5-1.1.7-1.9.7zm.1-4.5c-.5 0-.9.2-1.2.5-.3.4-.4.8-.4 1.4 0 .6.1 1 .4 1.4.3.4.7.5 1.1.5.5 0 .9-.2 1.2-.5.3-.3.4-.8.4-1.4 0-.6-.1-1.1-.4-1.4-.2-.4-.6-.5-1.1-.5zM260.1 96.8h-.9l-2.5-3.8c-.1-.1-.1-.2-.2-.3v4.1h-.8v-5.2h1l2.4 3.7c.1.2.2.3.2.3v-4h.8v5.2zM266.7 92.3h-1.5v4.4h-.9v-4.4h-1.5v-.7h3.8v.7zM268.4 96.8h-.9v-5.2h.9v5.2zM272.5 96.8h-2.9v-5.2h2.8v.7h-1.9v1.5h1.8v.7h-1.8V96h2v.8zM277.5 96.8h-1l-.8-1.4c-.1-.1-.1-.2-.2-.3-.1-.1-.1-.2-.2-.2-.1-.1-.2-.1-.2-.1h-.6v2.1h-.9v-5.2h1.7c.2 0 .5 0 .7.1.2.1.4.1.5.3.2.1.3.3.4.4.1.2.1.4.1.6 0 .2 0 .4-.1.5-.1.2-.1.3-.2.4-.1.1-.2.2-.4.3-.1.1-.3.1-.5.2.1.1.2.1.2.2l.2.2.2.2c.1.1.1.2.2.3l.9 1.4zm-3.2-4.5V94h.7c.1 0 .3 0 .4-.1.1 0 .2-.1.3-.2.1-.1.1-.2.2-.3 0-.1.1-.2.1-.4s-.1-.4-.2-.6c-.2-.1-.4-.2-.7-.2h-.8z"/></g><g fill="#010101"><path d="M245.9 78.2c-2.9 0-5.3 2.4-5.3 5.3s2.4 5.3 5.3 5.3 5.3-2.4 5.3-5.3-2.3-5.3-5.3-5.3zm1.4 6.7c-.1.2-.2.3-.3.4-.1.1-.3.2-.4.3-.2.1-.3.1-.5.1s-.4 0-.6-.1c-.2-.1-.3-.2-.5-.4l-.3-.6c-.1-.2-.1-.5-.1-.8 0-.4 0-.7.1-1 .1-.3.2-.5.4-.7s.3-.4.6-.5c.2-.1.4-.2.7-.2h.4c.1 0 .2 0 .3.1v.6c-.1 0-.2-.1-.3-.1-.1 0-.2-.1-.4-.1s-.3 0-.4.1c-.1.1-.3.2-.4.3-.1.1-.2.3-.2.5-.1.2-.1.4-.1.6.1-.1.2-.2.4-.3.2-.1.3-.1.5-.1s.3 0 .5.1c.1.1.3.1.4.3.1.1.2.2.2.4.1.2.1.3.1.5s-.1.4-.1.6z"/><path d="M246.5 83.8l-.2-.2c-.1 0-.2-.1-.3-.1-.1 0-.2 0-.3.1-.1 0-.2.1-.2.2-.1.1-.1.1-.1.2v.6c0 .1.1.2.1.3.1.1.1.2.2.2.1.1.2.1.3.1.1 0 .2 0 .3-.1s.2-.1.2-.2c.1-.1.1-.2.1-.3v-.3-.3c0-.1 0-.1-.1-.2z"/></g><path d="M230.7 188.9h-3.9c-.3 0-.5-.2-.5-.5s.2-.5.5-.5h3.9c.3 0 .5.2.5.5s-.2.5-.5.5z" fill="#686969"/><path d="M227.8 190.1c-.1 0-.3-.1-.4-.2l-1.2-1.2c-.1-.1-.2-.2-.2-.4s.1-.3.2-.4l1.2-1.2c.2-.2.5-.2.8 0s.2.5 0 .8l-.8.8.8.8c.2.2.2.5 0 .8-.2.1-.3.2-.4.2zM262.8 188.9h-3.9c-.3 0-.5-.2-.5-.5s.2-.5.5-.5h3.9c.3 0 .5.2.5.5s-.2.5-.5.5z" fill="#686969"/><path d="M261.8 190.1c-.1 0-.3-.1-.4-.2-.2-.2-.2-.5 0-.8l.8-.8-.8-.8c-.2-.2-.2-.5 0-.8s.5-.2.8 0l1.2 1.2c.1.1.2.2.2.4 0 .1-.1.3-.2.4l-1.2 1.2c-.1.1-.3.2-.4.2z" fill="#686969"/><g fill="#686969"><path d="M183.7 133.9h-.7l-.3-.9h-1.4l-.3.9h-.7l1.3-3.6h.7l1.4 3.6zm-1.1-1.4l-.5-1.4v-.2c0 .1 0 .2-.1.2l-.5 1.4h1.1zM184.8 132.6v1.3h-.6v-3.6h1.1c.4 0 .7.1 1 .3.2.2.3.5.3.8s-.1.6-.4.9c-.2.2-.6.3-1 .3h-.4zm0-1.8v1.3h.4c.3 0 .5-.1.6-.2.1-.1.2-.3.2-.5 0-.4-.2-.6-.7-.6h-.5zM187.8 132.6v1.3h-.6v-3.6h1.1c.4 0 .7.1 1 .3.2.2.3.5.3.8s-.1.6-.4.9-.6.3-1 .3h-.4zm0-1.8v1.3h.4c.3 0 .5-.1.6-.2.1-.1.2-.3.2-.5 0-.4-.2-.6-.7-.6h-.5zM196.4 133.9h-.7l-.3-.9H194l-.3.9h-.7l1.3-3.6h.7l1.4 3.6zm-1.1-1.4l-.5-1.4v-.2c0 .1 0 .2-.1.2l-.5 1.4h1.1zM197.5 132.6v1.3h-.6v-3.6h1.1c.4 0 .7.1 1 .3.2.2.3.5.3.8s-.1.6-.4.9c-.2.2-.6.3-1 .3h-.4zm0-1.8v1.3h.4c.3 0 .5-.1.6-.2.1-.1.2-.3.2-.5 0-.4-.2-.6-.7-.6h-.5zM200.5 132.6v1.3h-.6v-3.6h1.1c.4 0 .7.1 1 .3.2.2.3.5.3.8s-.1.6-.4.9c-.2.2-.6.3-1 .3h-.4zm0-1.8v1.3h.4c.3 0 .5-.1.6-.2.1-.1.2-.3.2-.5 0-.4-.2-.6-.7-.6h-.5zM180 154v-3.6h1.1c.3 0 .6.1.8.2s.3.4.3.6c0 .2-.1.4-.2.5-.1.2-.3.3-.5.3.2 0 .4.1.6.3s.2.4.2.6c0 .3-.1.6-.4.7-.2.2-.5.3-.9.3h-1zm.5-3.1v1h.4c.2 0 .4 0 .5-.1.1-.1.2-.2.2-.4 0-.3-.2-.5-.6-.5h-.5zm0 1.5v1.1h.5c.2 0 .4-.1.5-.2s.2-.2.2-.4c0-.4-.3-.6-.8-.6h-.4zM183.7 154h-.6v-3.6h.6v3.6zM187.6 154h-.6l-1.7-2.6c0-.1-.1-.1-.1-.2v2.9h-.6v-3.6h.7l1.7 2.6c.1.1.1.2.1.2v-2.8h.6v3.5zM188.3 153.9v-.6c.1.1.1.1.2.1s.2.1.2.1.2 0 .3.1.2 0 .2 0c.3 0 .4 0 .6-.1.1-.1.2-.2.2-.4 0-.1 0-.2-.1-.2s-.1-.1-.2-.2-.2-.1-.3-.1c-.1 0-.2-.1-.3-.1-.1-.1-.2-.1-.3-.2-.1-.1-.2-.1-.3-.2-.1-.1-.1-.2-.2-.3 0-.1-.1-.2-.1-.4s0-.3.1-.4l.3-.3c.1-.1.3-.1.4-.2.2 0 .3-.1.5-.1.4 0 .7 0 .8.1v.6c-.2-.1-.5-.2-.8-.2h-.3c-.1 0-.2 0-.2.1-.1 0-.1.1-.2.1 0 .1-.1.1-.1.2s0 .1.1.2.1.1.1.2c.1 0 .1.1.2.1s.2.1.3.1c.1.1.2.1.4.2.1.1.2.2.3.2.1.1.2.2.2.3 0 .1.1.2.1.4s0 .3-.1.5-.2.2-.3.3c-.1.1-.3.1-.4.2-.2 0-.3.1-.5.1h-.5c-.1 0-.2 0-.3-.1.2-.1.1-.1 0-.1zM193 150.4l-1.7 4.2h-.5l1.7-4.2h.5zM195.4 154h-2v-3.6h.6v3.1h1.4v.5zM196.6 154h-.6v-3.6h.6v3.6zM197.4 154v-3.6h1.1c.3 0 .6.1.8.2.2.2.3.4.3.6 0 .2-.1.4-.2.5-.1.2-.3.3-.5.3.2 0 .4.1.6.3s.2.4.2.6c0 .3-.1.6-.4.7-.2.2-.5.3-.9.3h-1zm.6-3.1v1h.4c.2 0 .4 0 .5-.1.1-.1.2-.2.2-.4 0-.3-.2-.5-.6-.5h-.5zm0 1.5v1.1h.5c.2 0 .4-.1.5-.2s.2-.2.2-.4c0-.4-.3-.6-.8-.6h-.4zM200.4 153.9v-.6c.1.1.1.1.2.1s.2.1.2.1.2 0 .3.1.2 0 .2 0c.3 0 .4 0 .6-.1.1-.1.2-.2.2-.4 0-.1 0-.2-.1-.2 0-.1-.1-.1-.2-.2s-.2-.1-.3-.1c-.1 0-.2-.1-.3-.1-.1-.1-.2-.1-.3-.2-.1-.1-.2-.1-.3-.2s-.1-.2-.2-.3c0-.1-.1-.2-.1-.4s0-.3.1-.4l.3-.3c.1-.1.3-.1.4-.2s.3-.1.5-.1c.4 0 .7 0 .8.1v.6c-.2-.1-.5-.2-.8-.2h-.3c-.1 0-.2 0-.2.1-.1 0-.1.1-.2.1 0 .1-.1.1-.1.2s0 .1.1.2.1.1.1.2c.1 0 .1.1.2.1s.2.1.3.1c.1.1.2.1.4.2.1.1.2.2.3.2s.2.2.2.3.1.2.1.4 0 .3-.1.5-.2.2-.3.3c-.1.1-.3.1-.4.2-.2 0-.3.1-.5.1h-.5c-.1 0-.2 0-.3-.1.1-.1 0-.1 0-.1z"/><g><path d="M214.9 133.9h-.7l-.3-.9h-1.4l-.3.9h-.7l1.3-3.6h.7l1.4 3.6zm-1.2-1.4l-.5-1.4v-.2c0 .1 0 .2-.1.2l-.5 1.4h1.1zM216 132.6v1.3h-.6v-3.6h1.1c.4 0 .7.1 1 .3.2.2.3.5.3.8s-.1.6-.4.9c-.2.2-.6.3-1 .3h-.4zm0-1.8v1.3h.4c.3 0 .5-.1.6-.2.1-.1.2-.3.2-.5 0-.4-.2-.6-.7-.6h-.5zM219 132.6v1.3h-.6v-3.6h1.1c.4 0 .7.1 1 .3.2.2.3.5.3.8s-.1.6-.4.9c-.2.2-.6.3-1 .3h-.4zm0-1.8v1.3h.4c.3 0 .5-.1.6-.2.1-.1.2-.3.2-.5 0-.4-.2-.6-.7-.6h-.5z"/></g><g><path d="M227.6 133.9h-.6l-.3-.9h-1.4l-.3.9h-.7l1.3-3.6h.7l1.3 3.6zm-1.1-1.4l-.5-1.4v-.2c0 .1 0 .2-.1.2l-.5 1.4h1.1zM228.7 132.6v1.3h-.6v-3.6h1.1c.4 0 .7.1 1 .3.2.2.3.5.3.8s-.1.6-.4.9c-.2.2-.6.3-1 .3h-.4zm0-1.8v1.3h.4c.3 0 .5-.1.6-.2s.2-.3.2-.5c0-.4-.2-.6-.7-.6h-.5zM231.7 132.6v1.3h-.6v-3.6h1.1c.4 0 .7.1 1 .3.2.2.3.5.3.8s-.1.6-.4.9c-.2.2-.6.3-1 .3h-.4zm0-1.8v1.3h.4c.3 0 .5-.1.6-.2.1-.1.2-.3.2-.5 0-.4-.2-.6-.7-.6h-.5z"/></g><g><path d="M211.1 154v-3.6h1.1c.3 0 .6.1.8.2.2.2.3.4.3.6 0 .2-.1.4-.2.5-.1.2-.3.3-.5.3.2 0 .4.1.6.3.1.2.2.4.2.6 0 .3-.1.6-.4.7-.2.2-.5.3-.9.3h-1zm.6-3.1v1h.4c.2 0 .4 0 .5-.1s.2-.2.2-.4c0-.3-.2-.5-.6-.5h-.5zm0 1.5v1.1h.5c.2 0 .4-.1.5-.2.1-.1.2-.2.2-.4 0-.4-.3-.6-.8-.6h-.4zM214.9 154h-.6v-3.6h.6v3.6zM218.8 154h-.7l-1.7-2.6c0-.1-.1-.1-.1-.2v2.9h-.6v-3.6h.7l1.7 2.6c.1.1.1.2.1.2v-2.8h.6v3.5zM219.5 153.9v-.6c.1.1.1.1.2.1s.2.1.2.1.2 0 .3.1.2 0 .2 0c.3 0 .4 0 .6-.1.1-.1.2-.2.2-.4 0-.1 0-.2-.1-.2 0-.1-.1-.1-.2-.2s-.2-.1-.3-.1c-.1 0-.2-.1-.3-.1-.1-.1-.2-.1-.3-.2-.1-.1-.2-.1-.3-.2s-.1-.2-.2-.3c0-.1-.1-.2-.1-.4s0-.3.1-.4l.3-.3c.1-.1.3-.1.4-.2s.3-.1.5-.1c.4 0 .7 0 .8.1v.6c-.2-.1-.5-.2-.8-.2h-.3c-.1 0-.2 0-.2.1-.1 0-.1.1-.2.1 0 .1-.1.1-.1.2s0 .1.1.2c0 .1.1.1.1.2.1 0 .1.1.2.1s.2.1.3.1c.1.1.2.1.4.2.1.1.2.2.3.2s.2.2.2.3.1.2.1.4 0 .3-.1.5-.2.2-.3.3c-.1.1-.3.1-.4.2-.2 0-.3.1-.5.1h-.5c-.1 0-.2 0-.3-.1.1-.1.1-.1 0-.1zM224.2 150.4l-1.7 4.2h-.5l1.7-4.2h.5zM226.6 154h-2v-3.6h.6v3.1h1.4v.5zM227.7 154h-.6v-3.6h.6v3.6zM228.6 154v-3.6h1.1c.3 0 .6.1.8.2.2.2.3.4.3.6 0 .2-.1.4-.2.5-.1.2-.3.3-.5.3.2 0 .4.1.6.3s.2.4.2.6c0 .3-.1.6-.4.7-.2.2-.5.3-.9.3h-1zm.6-3.1v1h.4c.2 0 .4 0 .5-.1s.2-.2.2-.4c0-.3-.2-.5-.6-.5h-.5zm0 1.5v1.1h.5c.2 0 .4-.1.5-.2s.2-.2.2-.4c0-.4-.3-.6-.8-.6h-.4zM231.6 153.9v-.6c.1.1.1.1.2.1s.2.1.2.1c.1 0 .2 0 .3.1s.2 0 .2 0c.3 0 .4 0 .6-.1.1-.1.2-.2.2-.4 0-.1 0-.2-.1-.2s-.1-.1-.2-.2-.2-.1-.3-.1c-.1 0-.2-.1-.3-.1-.1-.1-.2-.1-.3-.2-.1-.1-.2-.1-.3-.2-.1-.1-.1-.2-.2-.3 0-.1-.1-.2-.1-.4s0-.3.1-.4l.3-.3c.1-.1.3-.1.4-.2.2 0 .3-.1.5-.1.4 0 .7 0 .8.1v.6c-.2-.1-.5-.2-.8-.2h-.3c-.1 0-.2 0-.2.1-.1 0-.1.1-.2.1 0 .1-.1.1-.1.2s0 .1.1.2.1.1.1.2c.1 0 .1.1.2.1s.2.1.3.1c.1.1.2.1.4.2.1.1.2.2.3.2.1.1.2.2.2.3 0 .1.1.2.1.4s0 .3-.1.5l-.3.3c-.1.1-.3.1-.4.2-.2 0-.3.1-.5.1h-.5c-.1 0-.2 0-.3-.1.1-.1 0-.1 0-.1z"/></g><g><path d="M259.6 133.9h-.7l-.3-.9h-1.4l-.3.9h-.7l1.3-3.6h.7l1.4 3.6zm-1.1-1.4l-.5-1.4v-.2c0 .1 0 .2-.1.2l-.5 1.4h1.1zM260.7 132.6v1.3h-.6v-3.6h1.1c.4 0 .7.1 1 .3.2.2.3.5.3.8s-.1.6-.4.9-.6.3-1 .3h-.4zm0-1.8v1.3h.4c.3 0 .5-.1.6-.2.1-.1.2-.3.2-.5 0-.4-.2-.6-.7-.6h-.5zM263.7 132.6v1.3h-.6v-3.6h1.1c.4 0 .7.1 1 .3.2.2.3.5.3.8s-.1.6-.4.9c-.2.2-.6.3-1 .3h-.4zm0-1.8v1.3h.4c.3 0 .5-.1.6-.2s.2-.3.2-.5c0-.4-.2-.6-.7-.6h-.5z"/></g><g><path d="M272.3 133.9h-.7l-.3-.9h-1.4l-.3.9h-.6l1.3-3.6h.7l1.3 3.6zm-1.1-1.4l-.5-1.4v-.2c0 .1 0 .2-.1.2l-.5 1.4h1.1zM273.4 132.6v1.3h-.6v-3.6h1.1c.4 0 .7.1 1 .3.2.2.3.5.3.8s-.1.6-.4.9-.6.3-1 .3h-.4zm0-1.8v1.3h.4c.3 0 .5-.1.6-.2.1-.1.2-.3.2-.5 0-.4-.2-.6-.7-.6h-.5zM276.4 132.6v1.3h-.6v-3.6h1.1c.4 0 .7.1 1 .3.2.2.3.5.3.8s-.1.6-.4.9c-.2.2-.6.3-1 .3h-.4zm0-1.8v1.3h.4c.3 0 .5-.1.6-.2.1-.1.2-.3.2-.5 0-.4-.2-.6-.7-.6h-.5z"/></g><g><path d="M255.9 154v-3.6h1.1c.3 0 .6.1.8.2.2.2.3.4.3.6 0 .2-.1.4-.2.5-.1.2-.3.3-.5.3.2 0 .4.1.6.3.1.2.2.4.2.6 0 .3-.1.6-.4.7s-.5.3-.9.3h-1zm.6-3.1v1h.4c.2 0 .4 0 .5-.1.1-.1.2-.2.2-.4 0-.3-.2-.5-.6-.5h-.5zm0 1.5v1.1h.5c.2 0 .4-.1.5-.2s.2-.2.2-.4c0-.4-.3-.6-.8-.6h-.4zM259.6 154h-.6v-3.6h.6v3.6zM263.6 154h-.7l-1.7-2.6c0-.1-.1-.1-.1-.2v2.9h-.6v-3.6h.7l1.7 2.6c.1.1.1.2.1.2v-2.8h.6v3.5zM264.3 153.9v-.6c.1.1.1.1.2.1s.2.1.2.1c.1 0 .2 0 .3.1h.2c.3 0 .4 0 .6-.1s.2-.2.2-.4c0-.1 0-.2-.1-.2s-.1-.1-.2-.2-.2-.1-.3-.1c-.1 0-.2-.1-.3-.1-.1-.1-.2-.1-.3-.2-.1-.1-.2-.1-.3-.2s-.1-.2-.2-.3c0-.1-.1-.2-.1-.4s0-.3.1-.4l.3-.3c.1-.1.3-.1.4-.2s.3-.1.5-.1c.4 0 .7 0 .8.1v.6c-.2-.1-.5-.2-.8-.2h-.3c-.1 0-.2 0-.2.1-.1 0-.1.1-.2.1 0 .1-.1.1-.1.2s0 .1.1.2.1.1.1.2c.1 0 .1.1.2.1s.2.1.3.1c.1.1.2.1.4.2.1.1.2.2.3.2s.2.2.2.3c0 .1.1.2.1.4s0 .3-.1.5l-.3.3c-.1.1-.3.1-.4.2s-.3.1-.5.1h-.5c-.1 0-.2 0-.3-.1.1-.1 0-.1 0-.1zM269 150.4l-1.7 4.2h-.5l1.7-4.2h.5zM271.4 154h-2v-3.6h.6v3.1h1.4v.5zM272.5 154h-.6v-3.6h.6v3.6zM273.4 154v-3.6h1.1c.3 0 .6.1.8.2s.3.4.3.6c0 .2-.1.4-.2.5-.1.2-.3.3-.5.3.2 0 .4.1.6.3.1.2.2.4.2.6 0 .3-.1.6-.4.7-.2.2-.5.3-.9.3h-1zm.6-3.1v1h.4c.2 0 .4 0 .5-.1s.2-.2.2-.4c0-.3-.2-.5-.6-.5h-.5zm0 1.5v1.1h.5c.2 0 .4-.1.5-.2s.2-.2.2-.4c0-.4-.3-.6-.8-.6h-.4zM276.3 153.9v-.6c.1.1.1.1.2.1s.2.1.2.1c.1 0 .2 0 .3.1h.2c.3 0 .4 0 .6-.1s.2-.2.2-.4c0-.1 0-.2-.1-.2s-.1-.1-.2-.2-.2-.1-.3-.1c-.1 0-.2-.1-.3-.1-.1-.1-.2-.1-.3-.2-.1-.1-.2-.1-.3-.2s-.1-.2-.2-.3c0-.1-.1-.2-.1-.4s0-.3.1-.4l.3-.3c.1-.1.3-.1.4-.2s.3-.1.5-.1c.4 0 .7 0 .8.1v.6c-.2-.1-.5-.2-.8-.2h-.3c-.1 0-.2 0-.2.1-.1 0-.1.1-.2.1 0 .1-.1.1-.1.2s0 .1.1.2.1.1.1.2c.1 0 .1.1.2.1s.2.1.3.1c.1.1.2.1.4.2s.2.2.3.2.2.2.2.3.1.2.1.4 0 .3-.1.5l-.3.3c-.1.1-.3.1-.4.2s-.3.1-.5.1h-.5c-.1 0-.2 0-.3-.1.2-.1.1-.1 0-.1z"/></g><g><path d="M290.8 133.9h-.7l-.3-.9h-1.4l-.3.9h-.7l1.3-3.6h.7l1.4 3.6zm-1.2-1.4l-.5-1.4v-.2c0 .1 0 .2-.1.2l-.5 1.4h1.1zM291.8 132.6v1.3h-.6v-3.6h1.1c.4 0 .7.1 1 .3.2.2.3.5.3.8s-.1.6-.4.9c-.2.2-.6.3-1 .3h-.4zm0-1.8v1.3h.4c.3 0 .5-.1.6-.2.1-.1.2-.3.2-.5 0-.4-.2-.6-.7-.6h-.5zM294.9 132.6v1.3h-.6v-3.6h1.1c.4 0 .7.1 1 .3.2.2.3.5.3.8s-.1.6-.4.9-.6.3-1 .3h-.4zm0-1.8v1.3h.4c.3 0 .5-.1.6-.2.1-.1.2-.3.2-.5 0-.4-.2-.6-.7-.6h-.5z"/></g><g><path d="M303.5 133.9h-.7l-.3-.9h-1.4l-.3.9h-.7l1.3-3.6h.7l1.4 3.6zm-1.2-1.4l-.5-1.4v-.2c0 .1 0 .2-.1.2l-.5 1.4h1.1zM304.6 132.6v1.3h-.6v-3.6h1.1c.4 0 .7.1 1 .3.2.2.3.5.3.8s-.1.6-.4.9c-.2.2-.6.3-1 .3h-.4zm0-1.8v1.3h.4c.3 0 .5-.1.6-.2.1-.1.2-.3.2-.5 0-.4-.2-.6-.7-.6h-.5zM307.6 132.6v1.3h-.6v-3.6h1.1c.4 0 .7.1 1 .3.2.2.3.5.3.8s-.1.6-.4.9-.6.3-1 .3h-.4zm0-1.8v1.3h.4c.3 0 .5-.1.6-.2s.2-.3.2-.5c0-.4-.2-.6-.7-.6h-.5z"/></g><g><path d="M287.1 154v-3.6h1.1c.3 0 .6.1.8.2.2.2.3.4.3.6 0 .2-.1.4-.2.5-.1.2-.3.3-.5.3.2 0 .4.1.6.3.1.2.2.4.2.6 0 .3-.1.6-.4.7-.2.2-.5.3-.9.3h-1zm.6-3.1v1h.4c.2 0 .4 0 .5-.1s.2-.2.2-.4c0-.3-.2-.5-.6-.5h-.5zm0 1.5v1.1h.5c.2 0 .4-.1.5-.2s.2-.2.2-.4c0-.4-.3-.6-.8-.6h-.4zM290.8 154h-.6v-3.6h.6v3.6zM294.8 154h-.7l-1.7-2.6c0-.1-.1-.1-.1-.2v2.9h-.6v-3.6h.7l1.7 2.6c.1.1.1.2.1.2v-2.8h.6v3.5zM295.5 153.9v-.6c.1.1.1.1.2.1s.2.1.2.1.2 0 .3.1h.2c.3 0 .4 0 .6-.1.1-.1.2-.2.2-.4 0-.1 0-.2-.1-.2s-.1-.1-.2-.2-.2-.1-.3-.1c-.1 0-.2-.1-.3-.1-.1-.1-.2-.1-.3-.2-.1-.1-.2-.1-.3-.2-.1-.1-.1-.2-.2-.3 0-.1-.1-.2-.1-.4s0-.3.1-.4l.3-.3c.1-.1.3-.1.4-.2.2 0 .3-.1.5-.1.4 0 .7 0 .8.1v.6c-.2-.1-.5-.2-.8-.2h-.3c-.1 0-.2 0-.2.1-.1 0-.1.1-.2.1 0 .1-.1.1-.1.2s0 .1.1.2.1.1.1.2c.1 0 .1.1.2.1s.2.1.3.1c.1.1.2.1.4.2s.2.2.3.2c.1.1.2.2.2.3s.1.2.1.4 0 .3-.1.5l-.3.3c-.1.1-.3.1-.4.2-.2 0-.3.1-.5.1h-.5c-.1 0-.2 0-.3-.1.1-.1 0-.1 0-.1zM300.2 150.4l-1.7 4.2h-.5l1.7-4.2h.5zM302.6 154h-2v-3.6h.6v3.1h1.4v.5zM303.7 154h-.6v-3.6h.6v3.6zM304.6 154v-3.6h1.1c.3 0 .6.1.8.2.2.2.3.4.3.6 0 .2-.1.4-.2.5-.1.2-.3.3-.5.3.2 0 .4.1.6.3.1.2.2.4.2.6 0 .3-.1.6-.4.7s-.5.3-.9.3h-1zm.6-3.1v1h.4c.2 0 .4 0 .5-.1.1-.1.2-.2.2-.4 0-.3-.2-.5-.6-.5h-.5zm0 1.5v1.1h.5c.2 0 .4-.1.5-.2.1-.1.2-.2.2-.4 0-.4-.3-.6-.8-.6h-.4zM307.5 153.9v-.6c.1.1.1.1.2.1s.2.1.2.1c.1 0 .2 0 .3.1h.2c.3 0 .4 0 .6-.1.1-.1.2-.2.2-.4 0-.1 0-.2-.1-.2s-.1-.1-.2-.2-.2-.1-.3-.1c-.1 0-.2-.1-.3-.1-.1-.1-.2-.1-.3-.2-.1-.1-.2-.1-.3-.2-.1-.1-.1-.2-.2-.3 0-.1-.1-.2-.1-.4s0-.3.1-.4l.3-.3c.1-.1.3-.1.4-.2s.3-.1.5-.1c.4 0 .7 0 .8.1v.6c-.2-.1-.5-.2-.8-.2h-.3c-.1 0-.2 0-.2.1-.1 0-.1.1-.2.1 0 .1-.1.1-.1.2s0 .1.1.2.1.1.1.2c.1 0 .1.1.2.1s.2.1.3.1c.1.1.2.1.4.2.1.1.2.2.3.2s.2.2.2.3.1.2.1.4 0 .3-.1.5l-.3.3c-.1.1-.3.1-.4.2-.2 0-.3.1-.5.1h-.5c-.1 0-.2 0-.3-.1.2-.1.1-.1 0-.1z"/></g></g><path d="M223 277.2h-34.4c-.4 0-.8-.4-.8-.8v-9.7c0-.4.4-.8.8-.8H223c.4 0 .8.4.8.8v9.7c-.1.4-.4.8-.8.8zm-33.7-1.6h32.8v-8.2h-32.8v8.2z" fill="#686969"/><path d="M118.4 130.1L108 116.2c-1.1-1.6-2.6-2.8-4.5-3.6-5.3-2.2-11.4.3-13.7 5.6-2.2 5.3.3 11.4 5.6 13.7 1.6.7 3.2.9 4.8.8l18.2-2.6zM109.1 112.7c.4 0 .7.1 1.1.1l17.1 1.3-7.2-15.7c-.7-1.8-2-3.4-3.7-4.7-4.7-3.3-11.2-2.1-14.5 2.6-3.3 4.7-2.1 11.2 2.6 14.5 1.4 1 2.9 1.5 4.5 1.8l.1.1zM368.3 72.7c-4.3-3.9-10.9-3.5-14.7.8-1.1 1.2-1.9 2.7-2.3 4.1v.1c-.1.4-.2.9-.3 1.3l-3.4 16.7 16.3-5.2c.4-.1.8-.2 1.2-.4h.1c1.4-.6 2.8-1.5 3.9-2.7 3.9-4.3 3.5-10.9-.8-14.7zM384.4 91.4c-3.6-4.5-10.1-5.3-14.7-1.8-1.3 1.1-2.3 2.4-3 3.8l-.1.1-.3.9-6.3 16.1 16.9-2.3c.5 0 1-.1 1.4-.2h.1c1.5-.3 3-1 4.3-2 4.4-3.5 5.2-10 1.7-14.6zM397 112.9c-2.4-5.2-8.6-7.5-13.8-5.1-1.7.8-3 1.9-4 3.3l-.1.1c-.1.1-.1.2-.2.2l-10.1 14.4 17.5 1.8h.7c1.6.1 3.3-.2 4.8-.9 5.3-2.4 7.6-8.6 5.2-13.8z" fill="#010101"/><path d="M348.4 89.9c-26.2-26.2-60.5-41.2-97.2-42.7v.7c0 .3 0 .6-.1.9 77 3.3 138.5 66.9 138.5 144.6 0 79.8-64.9 144.8-144.8 144.8S100 273.3 100 193.4c0-78.4 62.7-142.5 140.6-144.7 0-.3-.1-.6-.1-.9 0-.2 0-.5.1-.7-37.5 1-72.7 16.1-99.3 42.8-27.6 27.6-42.9 64.4-42.9 103.5s15.2 75.9 42.9 103.5c27.6 27.6 64.4 42.9 103.5 42.9s75.9-15.2 103.5-42.9c27.6-27.6 42.9-64.4 42.9-103.5S376 117.6 348.4 89.9z" fill="#010101"/><g fill="#010101"><path d="M246.8 49.5c-.3.2-.7.4-1.1.4-.4 0-.7-.1-.9-.2V49c.3.2.5.3.8.3.3 0 .5-.1.7-.2.1-.1.2-.3.2-.4h-1.6c-1.4 0-2.8 0-4.1.1.4 2.5 2.6 4.4 5.2 4.4s4.7-1.9 5.2-4.3c-1.3-.1-2.6-.1-3.9-.1-.2.2-.3.5-.5.7zM245 45.6h2v.6h-1.5l-.1.9c1.9 0 3.8.1 5.7.1-.3-2.6-2.5-4.6-5.2-4.6s-4.9 2-5.2 4.5c1.4 0 2.8-.1 4.1-.1l.2-1.4z"/><path d="M240.8 48.7c1.4 0 2.8-.1 4.1-.1h1.6v-.1c0-.2-.1-.4-.3-.5-.2-.1-.4-.2-.7-.2h-.7l.1-.8c-1.4 0-2.8 0-4.1.1 0 .2-.1.5-.1.7 0 .4 0 .6.1.9zM245.5 47.3h.4c.4 0 .8.1 1 .3.2.2.4.5.4.9v.2c1.3 0 2.6.1 3.9.1.1-.3.1-.6.1-.9v-.7c-1.9-.1-3.8-.1-5.7-.1l-.1.2z"/></g><g fill="#010101"><path d="M208.8 67.3l-.9.3-.9-1.1-1.9.6v1.4l-.9.3.2-5.5.9-.3 3.5 4.3zm-2.2-1.4l-1.3-1.7c0-.1-.1-.2-.2-.3v2.5l1.5-.5zM211.6 61.5l-1.6 4.7 2.7-.8.2.7-3.8 1.1-.1-.4 1.6-4.7-2.5.7-.2-.7 3.7-1.1v.5zM217.1 62.9c.4 1.4-.1 2.3-1.5 2.6-1.3.3-2.1-.2-2.4-1.5l-.8-3.1.8-.2.7 2.9c.3 1 .8 1.4 1.5 1.2.7-.2 1-.8.7-1.7l-.8-2.9.8-.2 1 2.9zM222.6 63.8l-1 .2-1.1-1.2-.3-.3c-.1-.1-.2-.1-.3-.2-.1 0-.2-.1-.3-.1h-.3l-.3.1.5 2.1-.8.2-1.1-5.1 1.7-.4c.2-.1.5-.1.7-.1.2 0 .4.1.6.1.2.1.3.2.4.4.1.2.2.3.3.6v.5c0 .2-.1.3-.1.4-.1.1-.2.3-.3.4-.1.1-.3.2-.4.3.1 0 .2.1.3.1.1 0 .2.1.2.1.1.1.2.1.2.2.1.1.2.2.3.2l1.1 1.5zm-4-3.7l.4 1.6.7-.2c.1 0 .2-.1.3-.1.1-.1.2-.1.2-.2s.1-.2.1-.3v-.4c-.1-.2-.2-.4-.4-.5-.2-.1-.4-.1-.7-.1l-.6.2zM226.1 63.1l-2.9.5-.9-5.1 2.7-.5.1.7-1.9.4.3 1.4 1.7-.3.1.7-1.7.3.3 1.5 2-.4.2.8zM232.2 57l-1.2 5.4-1 .1-2.5-4.9.9-.1 1.8 3.7c.1.1.1.3.2.4v-.5l.8-4.1h1zM234.5 62l-.9.1-.5-5.1.9-.1.5 5.1zM239.7 61.6l-1 .1-.9-1.3c-.1-.1-.2-.2-.2-.3s-.2-.2-.2-.2c-.1-.1-.2-.1-.2-.1h-.6l.2 2.1-.9.1-.4-5.2 1.7-.1h.7c.2 0 .4.1.6.2.2.1.3.2.4.4.1.2.2.4.2.6v.5c0 .1-.1.3-.2.4l-.3.3c-.1.1-.3.2-.5.2.1 0 .2.1.3.2l.2.2.2.2c.1.1.1.2.2.3l.7 1.4zm-3.5-4.3l.1 1.7.7-.1c.1 0 .3 0 .4-.1.1 0 .2-.1.3-.2.1-.1.1-.2.2-.3 0-.1.1-.2 0-.4 0-.2-.1-.4-.3-.6-.2-.1-.4-.2-.7-.2l-.7.2zM243.2 57l-1.5.1.2 4.4h-.9l-.2-4.4-1.5.1v-.7l3.8-.1.1.6zM248.1 59.4c0 1.5-.7 2.2-2.1 2.1-1.3 0-2-.7-1.9-2.1v-3.2h.9v3c0 1 .4 1.5 1.2 1.5.8 0 1.1-.5 1.2-1.5v-3h.9l-.2 3.2zM253.3 61.7l-.9-.1-.4-1.3-2-.1-.5 1.3-.9-.1 2.2-5.1 1 .1 1.5 5.3zm-1.5-2.1l-.6-2.1c0-.1 0-.2-.1-.3 0 .1-.1.2-.1.3l-.8 2 1.6.1zM256.8 62.1l-2.9-.3.5-5.2.9.1-.4 4.4 2 .2-.1.8zM263.9 63l-.9-.1-1.9-4.1c0-.1-.1-.2-.1-.3 0 .1 0 .3-.1.7l-.5 3.4-.8-.1.8-5.1 1 .1 1.8 4c.1.2.1.3.1.3 0-.1 0-.4.1-.7l.5-3.3.8.1-.8 5.1zM267.9 63.8l-2.9-.5 1-5.1 2.7.5-.1.7-1.9-.4-.3 1.4 1.7.3-.1.7-1.7-.3-.3 1.5 2 .4-.1.8zM273 60.4l-1.5-.3-1 4.3-.8-.2 1-4.3-1.4-.3.2-.7 3.7.8-.2.7zM280.4 61.5l-2.7 4.6-.9-.3V62c0-.2 0-.3.1-.5-.1.2-.1.3-.2.5l-1.9 3.3-1-.3-.1-5.4.9.2-.1 3.9c0 .2 0 .3-.1.5 0-.1.1-.3.2-.5l2-3.4.9.2v4.4c0-.1.1-.3.2-.4l1.9-3.4.8.4zM281.7 67.5c-.7-.2-1.2-.6-1.5-1.2s-.3-1.3-.1-2c.3-.8.7-1.4 1.3-1.7.6-.3 1.3-.4 2-.2s1.2.6 1.5 1.2c.3.6.3 1.3.1 2-.3.8-.7 1.4-1.3 1.7-.6.3-1.2.4-2 .2zm1.5-4.4c-.5-.1-.9-.1-1.3.2s-.7.6-.8 1.2c-.2.5-.2 1 0 1.5s.5.7.9.8c.5.1.9.1 1.3-.1s.7-.6.8-1.2c.2-.6.2-1.1 0-1.5-.2-.5-.5-.8-.9-.9zM288.8 69.8l-.9-.3-.3-1.6c0-.1-.1-.3-.1-.4 0-.1-.1-.2-.1-.3l-.2-.2c-.1-.1-.2-.1-.3-.1l-.3-.1-.7 2-.8-.3 1.7-4.9 1.6.6.6.3c.2.1.3.3.4.4.1.2.2.3.2.5s0 .4-.1.6c-.1.2-.1.3-.2.4s-.2.2-.4.3c-.1.1-.3.1-.4.2s-.3 0-.5 0c.1.1.1.2.2.2 0 .1.1.2.1.3 0 .1.1.2.1.3s.1.2.1.3l.3 1.8zm-1.5-5.3l-.6 1.6.7.2c.1 0 .2.1.4.1.1 0 .2 0 .3-.1s.2-.1.3-.2c.1-.1.1-.2.2-.3.1-.2.1-.4 0-.6s-.3-.3-.6-.4l-.7-.3zM293 71.4l-1-.4-.8-2.9v-.2l-.9 2.4-.8-.3 1.9-4.8.8.3-.9 2.3s.1-.1.2-.1l2.4-1.5 1 .4-2.8 1.6.9 3.2z"/></g><path d="M301 277.2h-34.4c-.4 0-.8-.4-.8-.8v-9.7c0-.4.4-.8.8-.8H301c.4 0 .8.4.8.8v9.7c0 .4-.3.8-.8.8zm-33.6-1.6h32.8v-8.2h-32.8v8.2z" fill="#686969"/><g fill="#686969"><path d="M231.4 183.3h8.7v-1.5h-9.4c-.4 0-.7.3-.7.7v11.6c0 .4.3.7.7.7h9.4v-1.5h-8.7v-10zM258.2 183.3v10.2h-8.5v1.5h9.3c.4 0 .7-.3.7-.7v-11.6c0-.4-.3-.7-.7-.7h-9.3v1.5h8.5zM248.2 173.7h1.5v8.1h-1.5z"/><path d="M316.8 109.6H249c-.4 0-.7.3-.7.7v50.3h1.5v-49.5h66.4v92.1h-66.4v-8.3h-1.5v9c0 .4.3.7.7.7h67.8c.4 0 .7-.3.7-.7v-93.6c0-.4-.3-.7-.7-.7zM240.1 173.7h1.5v8.1h-1.5z"/><path d="M240.8 109.6H173c-.4 0-.7.3-.7.7v93.6c0 .4.3.7.7.7h67.8c.4 0 .7-.3.7-.7v-9H240v8.3h-66.4v-92.1H240v49.5h1.5v-50.3c.1-.4-.2-.7-.7-.7z"/><path d="M232.9 172.2V162h7.2v-1.5h-7.9c-.4 0-.7.3-.7.7V173c0 .4.3.7.7.7h7.9v-1.5h-7.2zM240.1 172.2h1.5v1.5h-1.5zM240.1 160.6h1.5v1.5h-1.5zM256.8 162.1v10.2h-7.1v1.5h7.8c.4 0 .7-.3.7-.7v-11.6c0-.4-.3-.7-.7-.7h-7.8v1.5h7.1zM248.2 160.6h1.5v1.5h-1.5zM248.2 172.2h1.5v1.5h-1.5zM248.2 181.8h1.5v1.5h-1.5zM248.2 193.4h1.5v1.5h-1.5zM240.1 193.4h1.5v1.5h-1.5zM240.1 181.8h1.5v1.5h-1.5z"/></g><path d="M238.9 306.1s-.1 0 0 0c-17-.3-38.6-8.8-57.9-22.8-19.3-14-31.7-30.2-33.3-43.4-.1-1 .2-1.9.9-2.7.9-1 2.4-1.6 3.9-1.6h86.3c1.4 0 2.5.9 2.5 2.1V304c0 .5-.2 1-.6 1.4-.4.5-1.1.7-1.8.7zm-86.3-68.9c-1.1 0-2.1.4-2.7 1.1-.3.3-.6.8-.5 1.5 3.2 27.2 54.2 64.1 89.5 64.8.3 0 .6-.1.8-.3.1-.1.1-.2.1-.2v-66.3c0-.2-.4-.5-.9-.5h-86.3zM251.4 306.1c-.7 0-1.4-.3-1.9-.7-.4-.4-.6-.9-.6-1.4v-66.3c0-1.2 1.1-2.1 2.5-2.1h86.3c1.5 0 3 .6 3.9 1.6.7.8 1 1.7.9 2.7-1.5 13.2-14 29.5-33.3 43.4-19.1 14-40.7 22.5-57.8 22.8.1 0 .1 0 0 0zm0-68.9c-.5 0-.9.3-.9.5V304c0 .1 0 .2.1.2.2.2.5.3.8.3 35.3-.7 86.4-37.6 89.5-64.8.1-.7-.2-1.2-.5-1.5-.6-.7-1.6-1.1-2.7-1.1h-86.3z" fill="#686969"/><path d="M175.8 244.2c-1.8 0-3.3-.4-3.3-1 0-.5 1.5-1 3.3-1 1.8 0 3.3.4 3.3 1-.1.5-1.5 1-3.3 1zm-4.6 5.7v1.8c0 .8 1.7 1.8 3.9 1.9h1.5c2.2-.1 3.9-.9 3.9-1.7v-8.4c0-.9-2.1-1.8-4.6-1.8-2.5 0-4.6.8-4.6 1.8l-.1 6.4zM199.7 244.2c-1.8 0-3.3-.4-3.3-1 0-.5 1.5-1 3.3-1 1.8 0 3.3.4 3.3 1-.1.5-1.5 1-3.3 1zm-4.6 5.7v1.8c0 .8 1.7 1.8 3.9 1.9h1.5c2.2-.1 3.9-.9 3.9-1.7v-8.4c0-.9-2.1-1.8-4.6-1.8-2.5 0-4.6.8-4.6 1.8l-.1 6.4zM222.7 244.2c-1.8 0-3.3-.4-3.3-1 0-.5 1.5-1 3.3-1 1.8 0 3.3.4 3.3 1 0 .5-1.5 1-3.3 1zm-4.6 5.7v1.8c0 .8 1.7 1.8 3.9 1.9h1.5c2.2-.1 3.9-.9 3.9-1.7v-8.4c0-.9-2.1-1.8-4.6-1.8-2.5 0-4.6.8-4.6 1.8l-.1 6.4zM312.4 244.2c-1.8 0-3.3-.4-3.3-1 0-.5 1.5-1 3.3-1 1.8 0 3.3.4 3.3 1 0 .5-1.5 1-3.3 1zm-4.6 5.7v1.8c0 .8 1.7 1.8 3.9 1.9h1.5c2.2-.1 3.9-.9 3.9-1.7v-8.4c0-.9-2.1-1.8-4.6-1.8-2.5 0-4.6.8-4.6 1.8l-.1 6.4zM266.3 244.2c-1.8 0-3.3-.4-3.3-1 0-.5 1.5-1 3.3-1 1.8 0 3.3.4 3.3 1 0 .5-1.5 1-3.3 1zm-4.6 5.7v1.8c0 .8 1.7 1.8 3.9 1.9h1.5c2.2-.1 3.9-.9 3.9-1.7v-8.4c0-.9-2.1-1.8-4.6-1.8-2.5 0-4.6.8-4.6 1.8l-.1 6.4zM289.4 244.2c-1.8 0-3.3-.4-3.3-1 0-.5 1.5-1 3.3-1 1.8 0 3.3.4 3.3 1-.1.5-1.5 1-3.3 1zm-4.6 5.7v1.8c0 .8 1.7 1.8 3.9 1.9h1.5c2.2-.1 3.9-.9 3.9-1.7v-8.4c0-.9-2.1-1.8-4.6-1.8-2.5 0-4.6.8-4.6 1.8l-.1 6.4z" fill-rule="evenodd" clip-rule="evenodd" fill="#686969"/><path d="M244.9 319.9c-33.5 0-65-13-88.7-36.7-23.7-23.7-36.7-55.2-36.7-88.7s13-65 36.7-88.7c23.7-23.7 55.2-36.7 88.7-36.7s65 13 88.7 36.7c23.7 23.7 36.7 55.2 36.7 88.7s-13 65-36.7 88.7c-23.7 23.7-55.2 36.7-88.7 36.7zm0-249.2c-68.3 0-123.8 55.6-123.8 123.8s55.6 123.8 123.8 123.8 123.8-55.6 123.8-123.8S313.2 70.7 244.9 70.7z" fill="#010101"/><path d="M310.8 198.7h-41.4c-.4 0-.8-.4-.8-.8v-19.2c0-.4.4-.8.8-.8h41.4c.4 0 .8.4.8.8v19.2c0 .5-.4.8-.8.8zm-40.6-1.6H310v-17.6h-39.8v17.6zM221 198.7h-42.1c-.4 0-.8-.4-.8-.8v-19.2c0-.4.4-.8.8-.8H221c.4 0 .8.4.8.8v19.2c0 .5-.4.8-.8.8zm-41.3-1.6h40.5v-17.6h-40.5v17.6z" fill="#686969"/><path d="M231.1 168.1h-3.5c-.6 0-1.1-.5-1.1-1.1s.5-1.1 1.1-1.1h3.5c.6 0 1.1.5 1.1 1.1s-.5 1.1-1.1 1.1zM221 168.1h-6.7c-.6 0-1.1-.5-1.1-1.1s.5-1.1 1.1-1.1h6.7c.6 0 1.1.5 1.1 1.1s-.5 1.1-1.1 1.1zm-13.3 0H201c-.6 0-1.1-.5-1.1-1.1s.5-1.1 1.1-1.1h6.7c.6 0 1.1.5 1.1 1.1s-.5 1.1-1.1 1.1zm-13.4 0h-6.7c-.6 0-1.1-.5-1.1-1.1s.5-1.1 1.1-1.1h6.7c.6 0 1.1.5 1.1 1.1s-.5 1.1-1.1 1.1zm-13.3 0h-6.7c-.6 0-1.1-.5-1.1-1.1s.5-1.1 1.1-1.1h6.7c.6 0 1.1.5 1.1 1.1s-.5 1.1-1.1 1.1zm-13.3 0H161c-.6 0-1.1-.5-1.1-1.1s.5-1.1 1.1-1.1h6.7c.6 0 1.1.5 1.1 1.1s-.5 1.1-1.1 1.1zm-13.3 0h-6.7c-.6 0-1.1-.5-1.1-1.1s.5-1.1 1.1-1.1h6.7c.6 0 1.1.5 1.1 1.1s-.5 1.1-1.1 1.1zm-13.4 0h-6.7c-.6 0-1.1-.5-1.1-1.1s.5-1.1 1.1-1.1h6.7c.6 0 1.1.5 1.1 1.1s-.5 1.1-1.1 1.1zM127.7 168.1h-3.5c-.6 0-1.1-.5-1.1-1.1s.5-1.1 1.1-1.1h3.5c.6 0 1.1.5 1.1 1.1s-.5 1.1-1.1 1.1zM365.4 168.1H362c-.6 0-1.1-.5-1.1-1.1s.5-1.1 1.1-1.1h3.5c.6 0 1.1.5 1.1 1.1s-.6 1.1-1.2 1.1zM355.3 168.1h-6.7c-.6 0-1.1-.5-1.1-1.1s.5-1.1 1.1-1.1h6.7c.6 0 1.1.5 1.1 1.1s-.5 1.1-1.1 1.1zm-13.3 0h-6.7c-.6 0-1.1-.5-1.1-1.1s.5-1.1 1.1-1.1h6.7c.6 0 1.1.5 1.1 1.1s-.5 1.1-1.1 1.1zm-13.3 0H322c-.6 0-1.1-.5-1.1-1.1s.5-1.1 1.1-1.1h6.7c.6 0 1.1.5 1.1 1.1s-.5 1.1-1.1 1.1zm-13.4 0h-6.7c-.6 0-1.1-.5-1.1-1.1s.5-1.1 1.1-1.1h6.7c.6 0 1.1.5 1.1 1.1s-.5 1.1-1.1 1.1zm-13.3 0h-6.7c-.6 0-1.1-.5-1.1-1.1s.5-1.1 1.1-1.1h6.7c.6 0 1.1.5 1.1 1.1s-.5 1.1-1.1 1.1zm-13.3 0H282c-.6 0-1.1-.5-1.1-1.1s.5-1.1 1.1-1.1h6.7c.6 0 1.1.5 1.1 1.1s-.5 1.1-1.1 1.1zm-13.3 0h-6.7c-.6 0-1.1-.5-1.1-1.1s.5-1.1 1.1-1.1h6.7c.6 0 1.1.5 1.1 1.1s-.5 1.1-1.1 1.1zM262.1 168.1h-3.5c-.6 0-1.1-.5-1.1-1.1s.5-1.1 1.1-1.1h3.5c.6 0 1.1.5 1.1 1.1s-.5 1.1-1.1 1.1z" fill="#010101"/><path d="M204.2 116.6v39.7h-25.7v-39.7h25.7m0-2h-25.7c-1.1 0-2 .9-2 2v39.7c0 1.1.9 2 2 2h25.7c1.1 0 2-.9 2-2v-39.7c0-1.1-.9-2-2-2zM235.4 116.6v39.7h-25.7v-39.7h25.7m0-2h-25.7c-1.1 0-2 .9-2 2v39.7c0 1.1.9 2 2 2h25.7c1.1 0 2-.9 2-2v-39.7c0-1.1-.9-2-2-2zM280.1 116.6v39.7h-25.7v-39.7h25.7m0-2h-25.7c-1.1 0-2 .9-2 2v39.7c0 1.1.9 2 2 2h25.7c1.1 0 2-.9 2-2v-39.7c0-1.1-.9-2-2-2zM311.3 116.6v39.7h-25.7v-39.7h25.7m0-2h-25.7c-1.1 0-2 .9-2 2v39.7c0 1.1.9 2 2 2h25.7c1.1 0 2-.9 2-2v-39.7c0-1.1-.9-2-2-2z" fill="#686969"/><path d="M189.4 127.9h-8.9c-.2 0-.4-.1-.5-.3-.1-.2-.1-.4 0-.5l4.5-7.7c.2-.3.7-.3.9 0l4.5 7.7c.1.2.1.4 0 .5-.1.2-.3.3-.5.3zm-7.9-1.1h7.1l-3.5-6.1-3.6 6.1zM202.2 127.9h-8.9c-.2 0-.4-.1-.5-.3-.1-.2-.1-.4 0-.5l4.5-7.7c.2-.3.7-.3.9 0l4.5 7.7c.1.2.1.4 0 .5-.2.2-.3.3-.5.3zm-8-1.1h7.1l-3.5-6.1-3.6 6.1zM202.2 147.8h-21.6c-.3 0-.5-.2-.5-.5v-8.6c0-.3.2-.5.5-.5h21.6c.3 0 .5.2.5.5v8.6c0 .3-.2.5-.5.5zm-21.1-1.1h20.6v-7.5h-20.6v7.5zM220.6 127.9h-8.9c-.2 0-.4-.1-.5-.3-.1-.2-.1-.4 0-.5l4.5-7.7c.2-.3.7-.3.9 0l4.5 7.7c.1.2.1.4 0 .5-.1.2-.3.3-.5.3zm-8-1.1h7.1l-3.5-6.1-3.6 6.1zM233.3 127.9h-8.9c-.2 0-.4-.1-.5-.3-.1-.2-.1-.4 0-.5l4.5-7.7c.2-.3.7-.3.9 0l4.5 7.7c.1.2.1.4 0 .5-.1.2-.3.3-.5.3zm-8-1.1h7.1l-3.5-6.1-3.6 6.1zM233.3 147.8h-21.6c-.3 0-.5-.2-.5-.5v-8.6c0-.3.2-.5.5-.5h21.6c.3 0 .5.2.5.5v8.6c.1.3-.2.5-.5.5zm-21.1-1.1h20.6v-7.5h-20.6v7.5zM265.3 127.9h-8.9c-.2 0-.4-.1-.5-.3-.1-.2-.1-.4 0-.5l4.5-7.7c.2-.3.7-.3.9 0l4.5 7.7c.1.2.1.4 0 .5-.1.2-.3.3-.5.3zm-8-1.1h7.1l-3.5-6.1-3.6 6.1zM278 127.9h-8.9c-.2 0-.4-.1-.5-.3-.1-.2-.1-.4 0-.5l4.5-7.7c.2-.3.7-.3.9 0l4.5 7.7c.1.2.1.4 0 .5-.1.2-.3.3-.5.3zm-8-1.1h7.1l-3.5-6.1-3.6 6.1zM278 147.8h-21.6c-.3 0-.5-.2-.5-.5v-8.6c0-.3.2-.5.5-.5H278c.3 0 .5.2.5.5v8.6c.1.3-.2.5-.5.5zm-21.1-1.1h20.6v-7.5h-20.6v7.5zM296.5 127.9h-8.9c-.2 0-.4-.1-.5-.3-.1-.2-.1-.4 0-.5l4.5-7.7c.2-.3.7-.3.9 0l4.5 7.7c.1.2.1.4 0 .5-.2.2-.3.3-.5.3zm-8-1.1h7.1l-3.5-6.1-3.6 6.1z" fill="#686969"/><g><path d="M309.2 127.9h-8.9c-.2 0-.4-.1-.5-.3-.1-.2-.1-.4 0-.5l4.5-7.7c.2-.3.7-.3.9 0l4.5 7.7c.1.2.1.4 0 .5-.1.2-.3.3-.5.3zm-8-1.1h7.1l-3.5-6.1-3.6 6.1z" fill="#686969"/></g><g><path d="M309.2 147.8h-21.6c-.3 0-.5-.2-.5-.5v-8.6c0-.3.2-.5.5-.5h21.6c.3 0 .5.2.5.5v8.6c0 .3-.2.5-.5.5zm-21.1-1.1h20.6v-7.5h-20.6v7.5z" fill="#686969"/></g><path d="M121.9 95.1c.4.1.7.2 1.1.3l16.6 4.3-4.4-17.1c-.4-1.7-1.4-3.4-2.7-4.8-4.1-4.1-10.7-4.1-14.8 0-4.1 4.1-4.1 10.7 0 14.8 1.2 1.2 2.6 2 4.1 2.5h.1z" fill="#010101"/><g fill="#010101"><path d="M237.7 19.8l-3.2.2.6 9.6-1.9.1-.6-9.6-3.2.2-.1-1.6 8.3-.5.1 1.6zM246 29.3l-6.3.1-.2-11.2 6-.1v1.6l-4.2.1V23l3.9-.1v1.6l-3.9.1.1 3.3 4.4-.1.2 1.5zM247.4 28.9l.1-1.9c.2.2.4.3.6.4s.5.2.7.3c.3.1.5.2.8.2.3.1.5.1.7.1.8 0 1.4-.1 1.8-.3.4-.3.6-.6.6-1.1 0-.3 0-.5-.2-.7-.1-.2-.3-.4-.5-.6s-.5-.3-.8-.5-.6-.3-1-.5-.7-.4-1-.6-.6-.5-.8-.7c-.2-.3-.4-.5-.5-.9-.1-.3-.2-.7-.2-1.1 0-.5.1-1 .4-1.4s.6-.7 1-.9.8-.4 1.3-.5 1-.2 1.5-.1c1.2 0 2 .2 2.5.5l-.1 1.8c-.6-.5-1.4-.7-2.4-.8-.3 0-.6 0-.8.1-.3 0-.5.1-.7.2-.2.1-.4.3-.5.4-.1.2-.2.4-.2.7 0 .3 0 .5.1.7.1.2.2.4.4.5.2.2.4.3.7.5.3.2.6.3 1 .5s.7.4 1.1.7c.3.2.6.5.9.8s.5.6.6.9c.1.3.2.7.2 1.1 0 .6-.1 1-.4 1.4s-.6.7-1 .9-.8.4-1.4.5c-.5.1-1 .1-1.6.1-.2 0-.4 0-.7-.1s-.6-.1-.8-.1c-.3-.1-.6-.1-.8-.2l-.6-.3zM264.4 20.5l-3.2-.2-.7 9.6-1.9-.1.7-9.6-3.2-.2.1-1.6 8.3.6-.1 1.5z"/></g><g fill="#FFF"><path d="M104.4 122.3v-.2l.7-.4c0-.2-.1-.5-.2-.7h-.8c-.1-.1-.1-.3-.2-.4l.4-.7c-.2-.2-.3-.4-.5-.5l-.4.3-.2.3-.4.6c.5.4.9 1.1.9 1.8 0 1.3-1 2.3-2.3 2.3s-2.3-1-2.3-2.3c0-1.1.8-2.1 1.9-2.3l.2-.7-.4-.7c-.2 0-.5.1-.7.2v.8c-.1.1-.3.1-.4.2l-.7-.4c-.2.1-.4.3-.5.5l.4.7c-.1.1-.1.2-.2.4h-.8c-.1.2-.1.5-.2.7l.7.4v.4l-.7.4c0 .2.1.5.2.7h.8c.1.1.1.3.2.4l-.4.7c.2.2.3.4.5.5l.7-.4c.1.1.2.2.4.2v.8c.2.1.5.1.7.2l.4-.7h.4l.4.7c.2 0 .5-.1.7-.2v-.8c.1-.1.3-.1.4-.2l.7.4c.2-.2.4-.3.5-.5l-.4-.7c.1-.1.1-.2.2-.4h.8c.1-.2.1-.5.2-.7l-.7-.4v-.3z"/><path d="M97 125.8c-.3 0-.5-.2-.5-.5s.2-.5.5-.5.5.2.5.5-.2.5-.5.5zm1-1.7l-.4.2-.2-.1-.2-.4h-.4v.1l-.1.4-.2.1-.4-.2-.3.3.2.4-.1.2-.4.2v.4h.1l.4.1.1.2-.2.4.3.3.4-.2.2.1.2.4h.4v-.1l.1-.4.2-.1.4.2.3-.3-.2-.4.1-.3.4-.2v-.4h-.1l-.4-.1-.1-.2.2-.4c0-.1-.1-.1-.1-.2H98z"/><path d="M98.2 124.2c0 .1.1.1.1.2l-.1-.2zM101.9 118.1l-.1.4-.2.8-.1.4-.1.3-.7 2.2s0 .1.1.1h.6v.1l-.7 1.6s0 .1 0 0l2.1-2.4v-.1H102s-.1 0 0-.1l.7-1.2.2-.3.2-.3.4-.7.2-.4c-.7-.1-1.2-.3-1.8-.4z"/><g><path d="M115 102.1c.1-.2.1-.4.1-.7 0-1.5-1.2-2.7-2.6-2.7-1.1 0-2 .7-2.4 1.7-.3-.4-.9-.7-1.4-.7-1 0-1.9.9-1.9 1.9 0 .2 0 .4.1.5-.9.3-1.4 1.1-1.4 2 0 1.3 1 2.2 2.2 2.2h6.8c1.2 0 2.2-.9 2.2-2.2-.2-.9-.8-1.7-1.7-2zm-1.5 1c-.2.8-.9 1.3-1.7 1.3h-.4c-.1 0-.3-.1-.4-.2l-1.2 1.2c-.1.1-.2.2-.4.2s-.3 0-.4-.2c-.1-.1-.2-.2-.2-.4 0-.1 0-.3.2-.4l1.2-1.2c-.2-.4-.3-.8-.2-1.3.2-.8.9-1.3 1.7-1.3h.4c.4.1.9.4 1.1.8.4.6.4 1 .3 1.5z"/><path d="M112.1 101.6h-.3c-.5 0-.9.3-1.1.8-.1.3 0 .6.2.9l.3.3c.1.1.2.1.4.2h.3c.5 0 .9-.3 1.1-.8.1-.3 0-.6-.1-.8-.3-.4-.6-.5-.8-.6z"/></g><g><path d="M126.1 87.4h-1.3V90h-1l1.7 2.3 1.6-2.3h-1v-2.6zM124 83.6h2.9v.9H124v-.9zM124 84.9h2.9v.9H124v-.9zM124 86.2h2.9v.8H124v-.8z"/><path d="M125.7 80.3h-3.5c-.1 0-.4 0-.4.4v6.7h1.3v-5.8h1.7v1.7h1.3v-2.6c0-.4-.3-.4-.4-.4z"/><path d="M123.1 86.2h-1.3v3c0 .1.4.4.5.4h2.1v-1.3h-1.3v-2.1zM130 85.8h-.4c-.2-2.5-1.4-3.8-3.1-4.1v1.2c1.3.4 1.7 1.7 1.8 3.3v.8h1.7c.5 0 .8.1.8.6v.7h-4.2v1.3h5c.1 0 .5-.3.5-.4v-1.6c-.1-1.2-1-1.8-2.1-1.8z"/></g></g><g fill="#FFF"><path d="M360.6 74.9c-2.4 0-4.4.8-4.4 1.7v8c0 .9 2 1.7 4.4 1.7 2.4 0 4.4-.8 4.4-1.7v-8c0-.9-2-1.7-4.4-1.7zm-4.3 10zm3.1-4.9c-.3 0-.4-.1-.4.2v.6c0 .5-.1.8-.4.8.3.1.4.5.4 1v.7c0 .2 0 .2.1.3s.2.1.3.1v.6c-.5 0-.8-.1-1-.3-.2-.2-.3-.5-.3-.9v-.8c0-.4-.2-.4-.4-.4v-.8c.3 0 .4 0 .4-.4v-.6c0-.4.1-.7.3-.8.2-.2.5-.2 1-.2v.9zm4.3 1.5v.7c-.3 0-.4 0-.4.4v.8c0 .5-.1.8-.3 1-.2.2-.5.3-1 .3v-.6c.1 0 .3 0 .3-.1.1-.1.1-.1.1-.3V83c0-.6.1-.9.4-1-.3-.1-.4-.4-.4-.9v-.6c0-.3-.2-.2-.4-.2v-.7c.5 0 .8.1 1 .2.2.2.3.4.3.8v.6c0 .4.1.3.4.3zm-3.1-4.2c-1.7 0-3.1-.4-3.1-.9s1.4-.9 3.1-.9 3.1.4 3.1.9c.1.6-1.3.9-3.1.9zM371.7 93.4c0-.4 1.2-.7 2.7-.7 1.5 0 2.7.3 2.7.7 0 .4-1.2.7-2.7.7-1.5 0-2.7-.3-2.7-.7zm2.4 8.9v-6.4c0-.8 1.2-1.2 3.1-1.2.4 0 .8 0 1.2.1v-1.4c0-.7-1.8-1.2-3.9-1.2-2.2 0-3.9.6-3.9 1.2v8.2c0 .7 1.8 1.2 3.9 1.2h.3c-.5-.1-.7-.3-.7-.5z"/><path d="M377.3 96.8c-1.1 0-1.9-.2-1.9-.5s.9-.5 1.9-.5c1.1 0 1.9.2 1.9.5s-.9.5-1.9.5zm1.6 2.6l-3.5 2.9 1.3-2.2h-1.2l3.5-2.9-1.3 2.2h1.2zm-1.6-4.2c-1.6 0-2.7.4-2.7.9v5.9c0 .5 1.2.9 2.7.9 1.6 0 2.8-.4 2.8-.9v-5.9c0-.5-1.3-.9-2.8-.9z"/><g><path d="M382.2 116.2h10.1l-2.6-2.4v1.2h-7.3v-1c0-.5.2-.9.7-.9h7.5c.5 0 .9.4.9.9v.4l.9.8V114c0-1-.9-1.8-1.8-1.8h-7.5c-1 0-1.6.8-1.6 1.8v2.2h.7zM391.4 116.8h-10.1l2.6 2.4v-1.4h7.6v1.2c0 .5-.5.9-.9.9h-7.5c-.5 0-.7-.5-.7-.9v-.4l-.9-.8v1.2c0 1 .6 1.5 1.6 1.5h1.7l3.7 2.6-.3-2.6h2.4c1 0 1.8-.6 1.8-1.5v-2.1h-1v-.1z"/></g></g></svg>