<svg id="Layer_2_1_" xmlns="http://www.w3.org/2000/svg" width="94" height="329.2" viewBox="0 0 94 329.2"><path d="M44.1 295.5h2.6v-3.8c-.5.8-.9 1.6-1.4 2.2-.3.5-.8 1.1-1.2 1.6z"/><path d="M46.8 282.3c-6.4 0-11.6 5.2-11.6 11.6 0 6.4 5.2 11.6 11.6 11.6s11.6-5.2 11.6-11.6c0-6.4-5.2-11.6-11.6-11.6zm2.8 14.4h-1.4v2h-1.4v-2h-4.1v-1.2c.4-.4.8-.9 1.1-1.4.4-.5.8-1 1.1-1.5.4-.5.7-1 1-1.5.3-.5.6-1 .8-1.5h1.5v5.9h1.4v1.2z"/><path d="M48.2 289.6h-1.5c-.2.5-.5 1-.8 1.5-.3.5-.6 1-1 1.5s-.7 1-1.1 1.5c-.4.5-.8.9-1.1 1.4v1.2h4.1v2h1.4v-2h1.4v-1.2h-1.4v-5.9zm-1.4 5.9h-2.6c.4-.5.8-1 1.3-1.7.5-.6.9-1.3 1.4-2.2v3.9z" fill="#FFF"/><g fill="none" stroke="#dedede" stroke-width="4" stroke-linecap="round" stroke-linejoin="round" stroke-miterlimit="10"><path d="M47.3-68.2v271.1"/><circle cx="47.3" cy="208.4" r="5"/></g><g><path d="M2 323.8v-1.7c.1.1.3.3.5.4s.4.2.7.3c.2.1.5.1.7.2.2 0 .4.1.6.1.7 0 1.2-.1 1.5-.3s.5-.6.5-1c0-.2-.1-.4-.2-.6s-.3-.3-.5-.5-.4-.3-.7-.4c-.3-.1-.6-.3-.9-.4-.3-.2-.6-.4-.9-.5-.3-.2-.5-.4-.7-.6s-.4-.5-.5-.7-.1-.8-.1-1.1c0-.5.1-.9.3-1.2s.5-.6.8-.8c.3-.2.7-.4 1.2-.5s.9-.2 1.3-.2c1 0 1.8.1 2.2.3v1.6c-.6-.4-1.3-.6-2.1-.6-.2 0-.5 0-.7.1-.2 0-.5.1-.6.2s-.3.2-.5.4-.2.4-.2.6 0 .4.1.6.2.3.4.4.4.3.6.4c.3.1.5.3.9.4.3.2.7.4 1 .6s.6.4.8.6c.2.2.4.5.5.8s.2.6.2 1c0 .5-.1.9-.3 1.3-.2.3-.5.6-.8.8-.3.2-.7.4-1.2.5-.4.1-.9.1-1.4.1h-.6c-.2 0-.5-.1-.7-.1s-.5-.1-.7-.2c-.2-.1-.4-.2-.5-.3zM16.3 315.8h-2.8v8.4h-1.6v-8.4H9v-1.4h7.2l.1 1.4zM21.1 324.4c-1.4 0-2.5-.5-3.4-1.4-.8-.9-1.3-2.1-1.3-3.6 0-1.6.4-2.8 1.3-3.8.9-.9 2-1.4 3.5-1.4 1.4 0 2.5.5 3.3 1.4s1.3 2.1 1.3 3.6c0 1.6-.4 2.8-1.3 3.8-.8.9-1.9 1.4-3.4 1.4zm.1-8.7c-.9 0-1.6.3-2.2 1s-.8 1.5-.8 2.6.3 2 .8 2.6c.5.7 1.3 1 2.1 1 .9 0 1.7-.3 2.2-.9s.8-1.5.8-2.6c0-1.2-.3-2.1-.8-2.7s-1.2-1-2.1-1zM35.2 324.2h-1.9l-1.6-2.6c-.1-.2-.3-.4-.4-.6s-.3-.3-.4-.4-.3-.2-.5-.2-.3-.1-.6-.1h-.7v4h-1.6v-9.8h3.2c.5 0 .9.1 1.3.2s.7.3 1 .5c.3.2.5.5.7.8s.2.7.2 1.2c0 .3-.1.7-.2.9-.1.3-.2.5-.4.8-.2.2-.4.4-.7.6s-.6.3-.9.4c.2.1.3.2.5.3.1.1.3.2.4.4.1.1.2.3.3.4.1.2.2.3.4.6l1.9 2.6zm-5.9-8.4v3.2h1.3c.2 0 .5 0 .7-.1s.4-.2.5-.3c.2-.1.3-.3.4-.5.1-.2.1-.4.1-.7 0-.5-.1-.8-.4-1.1s-.7-.4-1.3-.4h-1.3v-.1zM44.3 324.2h-1.8l-.9-2.5h-3.8l-.8 2.5h-1.8l3.7-9.8h1.8l3.6 9.8zm-3.1-3.8l-1.4-3.9c0-.1-.1-.3-.1-.6 0 .3-.1.5-.1.6l-1.3 3.9h2.9zM53.1 323.5c-1 .6-2.1.8-3.4.8-1.4 0-2.6-.4-3.5-1.3s-1.3-2.1-1.3-3.6.5-2.7 1.5-3.7 2.2-1.5 3.7-1.5c1.1 0 2 .2 2.7.5v1.7c-.7-.5-1.6-.7-2.7-.7-1 0-1.9.3-2.6 1s-1 1.6-1 2.7.3 2 .9 2.6 1.3 1 2.3 1c.7 0 1.3-.1 1.7-.4v-2.3h-2.1v-1.4H53l.1 4.6zM60.7 324.2h-5.5v-9.8h5.3v1.4h-3.6v2.8h3.4v1.4h-3.4v2.9h3.9v1.3h-.1zM72.5 315.8h-2.8v8.4h-1.6v-8.4h-2.8v-1.4h7.2v1.4zM75.6 324.2h-1.7v-9.8h1.7v9.8zM83.5 324.2H78v-9.8h5.3v1.4h-3.6v2.8H83v1.4h-3.4v2.9h3.9v1.3zM92.7 324.2h-1.9l-1.6-2.6c-.1-.2-.3-.4-.4-.6s-.3-.3-.4-.4-.3-.2-.5-.2-.3-.1-.6-.1h-.7v4H85v-9.8h3.2c.5 0 .9.1 1.3.2s.7.3 1 .5.5.5.7.8.2.7.2 1.2c0 .3-.1.7-.2.9-.1.3-.2.5-.4.8-.2.2-.4.4-.7.6-.3.2-.6.3-.9.4.2.1.3.2.5.3.1.1.3.2.4.4.1.1.2.3.3.4.1.2.2.3.4.6l1.9 2.6zm-5.9-8.4v3.2h1.3c.2 0 .5 0 .7-.1s.4-.2.5-.3c.2-.1.3-.3.4-.5s.1-.4.1-.7c0-.5-.1-.8-.4-1.1s-.7-.4-1.3-.4h-1.3v-.1z"/></g></svg>