<?xml version="1.0" encoding="utf-8"?>
<!-- Generator: Adobe Illustrator 19.2.0, SVG Export Plug-In . SVG Version: 6.00 Build 0)  -->
<svg version="1.1" id="Layer_1" xmlns="http://www.w3.org/2000/svg" xmlns:xlink="http://www.w3.org/1999/xlink" x="0px" y="0px"
	 width="157px" height="329px" viewBox="0 0 157 329" style="enable-background:new 0 0 157 329;" xml:space="preserve">
<g id="Layer_2">
</g>
<g>
	
		<line style="fill:none;stroke:#DEDEDE;stroke-width:4;stroke-linecap:round;stroke-linejoin:round;stroke-miterlimit:10;" x1="77.6" y1="-10" x2="78.6" y2="248.9"/>
	
		<circle style="fill:none;stroke:#DEDEDE;stroke-width:4;stroke-linecap:round;stroke-linejoin:round;stroke-miterlimit:10;" cx="78.6" cy="254.4" r="5"/>
</g>
<g>
	<path d="M16.3,326.8V317h2.8c3.6,0,5.4,1.6,5.4,4.8c0,1.5-0.5,2.7-1.5,3.6s-2.3,1.4-4,1.4H16.3z M17.9,318.5v7h1.3
		c1.1,0,2-0.3,2.7-0.9c0.6-0.6,0.9-1.5,0.9-2.7c0-2.3-1.2-3.4-3.5-3.4H17.9z"/>
	<path d="M34.1,326.8h-1.8l-0.9-2.5h-3.8l-0.8,2.5H25l3.7-9.8h1.8L34.1,326.8z M31,323l-1.4-3.9c0-0.1-0.1-0.3-0.1-0.6l0,0
		c0,0.3-0.1,0.5-0.1,0.6L28,323H31z"/>
	<path d="M40.7,318.5h-2.8v8.4h-1.6v-8.4h-2.8v-1.4h7.2C40.7,317.1,40.7,318.5,40.7,318.5z"/>
	<path d="M49.1,326.8h-1.8l-0.9-2.5h-3.8l-0.8,2.5H40l3.7-9.8h1.8L49.1,326.8z M46,323l-1.4-3.9c0-0.1-0.1-0.3-0.1-0.6l0,0
		c0,0.3-0.1,0.5-0.1,0.6L43,323H46z"/>
	<path d="M55.9,323.3v3.5h-1.6V317h3c1.1,0,2,0.3,2.6,0.8s0.9,1.3,0.9,2.2s-0.3,1.7-1,2.3c-0.6,0.6-1.5,0.9-2.6,0.9h-1.3V323.3z
		 M55.9,318.4v3.6h1c0.7,0,1.2-0.2,1.6-0.5c0.4-0.3,0.5-0.8,0.5-1.4c0-1.1-0.7-1.7-2-1.7H55.9z"/>
	<path d="M64.1,326.8h-1.7V317h1.7V326.8z"/>
	<path d="M68.1,323.3v3.5h-1.6V317h3c1.1,0,2,0.3,2.6,0.8s0.9,1.3,0.9,2.2s-0.3,1.7-1,2.3c-0.6,0.6-1.5,0.9-2.6,0.9h-1.3V323.3z
		 M68.1,318.4v3.6h1c0.7,0,1.2-0.2,1.6-0.5s0.5-0.8,0.5-1.4c0-1.1-0.7-1.7-2-1.7H68.1z"/>
	<path d="M80.1,326.8h-5.5V317h5.3v1.4h-3.6v2.8h3.4v1.4h-3.4v2.9h3.9v1.3H80.1z"/>
	<path d="M87.2,326.8h-5.4V317h1.6v8.4h3.8V326.8z"/>
	<path d="M90.3,326.8h-1.7V317h1.7V326.8z"/>
	<path d="M101,326.8h-1.8l-4.7-7.2c-0.1-0.2-0.2-0.4-0.3-0.6l0,0c0,0.2,0.1,0.7,0.1,1.3v6.4h-1.6v-9.8h1.9l4.5,7
		c0.2,0.3,0.3,0.5,0.4,0.6l0,0c0-0.3-0.1-0.7-0.1-1.3v-6.3h1.6V326.8z"/>
	<path d="M108.8,326.8h-5.5V317h5.3v1.4H105v2.8h3.4v1.4H105v2.9h3.9L108.8,326.8L108.8,326.8z"/>
	<path d="M120.7,318.5h-2.8v8.4h-1.6v-8.4h-2.8v-1.4h7.2C120.7,317.1,120.7,318.5,120.7,318.5z"/>
	<path d="M123.8,326.8h-1.7V317h1.7V326.8z"/>
	<path d="M131.6,326.8h-5.5V317h5.3v1.4h-3.6v2.8h3.4v1.4h-3.4v2.9h3.9v1.3H131.6z"/>
	<path d="M140.9,326.8H139l-1.6-2.6c-0.1-0.2-0.3-0.4-0.4-0.6c-0.1-0.2-0.3-0.3-0.4-0.4c-0.1-0.1-0.3-0.2-0.5-0.2s-0.3-0.1-0.6-0.1
		H135v4h-1.6v-9.8h3.2c0.5,0,0.9,0.1,1.3,0.2c0.4,0.1,0.7,0.3,1,0.5s0.5,0.5,0.7,0.8s0.2,0.7,0.2,1.2c0,0.3-0.1,0.7-0.2,0.9
		c-0.1,0.3-0.2,0.5-0.4,0.8c-0.2,0.2-0.4,0.4-0.7,0.6s-0.6,0.3-0.9,0.4l0,0c0.2,0.1,0.3,0.2,0.5,0.3c0.1,0.1,0.3,0.2,0.4,0.4
		c0.1,0.1,0.2,0.3,0.3,0.4c0.1,0.2,0.2,0.3,0.4,0.6L140.9,326.8z M135,318.4v3.2h1.3c0.2,0,0.5,0,0.7-0.1s0.4-0.2,0.5-0.3
		c0.2-0.1,0.3-0.3,0.4-0.5c0.1-0.2,0.1-0.4,0.1-0.7c0-0.5-0.1-0.8-0.4-1.1s-0.7-0.4-1.3-0.4H135V318.4z"/>
</g>
<g>
	<path d="M78.6,284c-6.4,0-11.6,5.2-11.6,11.6s5.2,11.6,11.6,11.6s11.6-5.2,11.6-11.6S85,284,78.6,284z M80.5,299.8
		c-0.6,0.5-1.4,0.8-2.4,0.8c-0.9,0-1.6-0.2-2.2-0.5v-1.4c0.6,0.5,1.3,0.7,2,0.7c0.6,0,1.1-0.1,1.5-0.4s0.5-0.6,0.5-1.1
		c0-1-0.8-1.5-2.4-1.5h-0.7v-1.2h0.7c1.4,0,2.1-0.5,2.1-1.5c0-0.9-0.5-1.3-1.6-1.3c-0.6,0-1.2,0.2-1.7,0.7v-1.3
		c0.6-0.3,1.3-0.5,2.2-0.5c0.8,0,1.5,0.2,1.9,0.6c0.5,0.4,0.7,0.9,0.7,1.6c0,1.2-0.6,2-1.8,2.3l0,0c0.7,0.1,1.2,0.3,1.6,0.7
		s0.6,0.9,0.6,1.5C81.4,298.7,81.1,299.3,80.5,299.8z"/>
</g>
<g>
	<path d="M79.5,295.7c-0.1-0.2-0.3-0.3-0.5-0.4c-0.2-0.1-0.4-0.1-0.7-0.1s-0.5,0-0.7,0.1s-0.4,0.2-0.5,0.4c-0.1,0.1-0.2,0.3-0.3,0.5
		c-0.1,0.2-0.1,0.4-0.1,0.6c0,0.2,0,0.4,0.1,0.7s0.2,0.4,0.3,0.6c0.1,0.2,0.3,0.3,0.5,0.5c0.2,0.1,0.4,0.2,0.7,0.2
		c0.2,0,0.5,0,0.6-0.1c0.2-0.1,0.3-0.2,0.5-0.4c0.1-0.2,0.2-0.3,0.3-0.6s0.1-0.4,0.1-0.7c0-0.3,0-0.5-0.1-0.7
		C79.7,296,79.6,295.9,79.5,295.7z"/>
	<path d="M78.7,284c-6.4,0-11.6,5.2-11.6,11.6c0,6.4,5.2,11.6,11.6,11.6s11.6-5.2,11.6-11.6C90.3,289.2,85.1,284,78.7,284z
		 M81.1,298.1c-0.2,0.4-0.4,0.7-0.6,1c-0.3,0.3-0.6,0.5-0.9,0.6s-0.8,0.2-1.2,0.2c-0.5,0-0.9-0.1-1.3-0.3s-0.7-0.4-1-0.8
		s-0.5-0.8-0.6-1.3s-0.2-1.1-0.2-1.8c0-0.8,0.1-1.6,0.3-2.2s0.5-1.2,0.8-1.6s0.8-0.8,1.2-1c0.5-0.2,1-0.3,1.5-0.3
		c0.3,0,0.7,0,0.9,0.1c0.3,0,0.5,0.1,0.7,0.2v1.3c-0.2-0.1-0.4-0.2-0.7-0.3s-0.5-0.1-0.8-0.1c-0.4,0-0.7,0.1-1,0.2s-0.6,0.4-0.8,0.6
		s-0.4,0.6-0.5,1s-0.2,0.9-0.2,1.4h0c0.2-0.3,0.5-0.5,0.8-0.7s0.7-0.3,1.2-0.3c0.4,0,0.8,0.1,1.1,0.2s0.6,0.3,0.8,0.6
		s0.4,0.5,0.5,0.9c0.1,0.3,0.2,0.7,0.2,1.2C81.4,297.3,81.3,297.7,81.1,298.1z"/>
	<path style="fill:#FFFFFF;" d="M80.7,294.8c-0.2-0.2-0.5-0.4-0.8-0.6s-0.7-0.2-1.1-0.2c-0.4,0-0.8,0.1-1.2,0.3s-0.6,0.4-0.8,0.7h0
		c0-0.5,0.1-1,0.2-1.4s0.3-0.8,0.5-1s0.5-0.5,0.8-0.6s0.6-0.2,1-0.2c0.3,0,0.6,0,0.8,0.1s0.5,0.2,0.7,0.3v-1.3
		c-0.2-0.1-0.4-0.1-0.7-0.2c-0.3,0-0.6-0.1-0.9-0.1c-0.5,0-1.1,0.1-1.5,0.3c-0.5,0.2-0.9,0.6-1.2,1s-0.6,1-0.8,1.6s-0.3,1.4-0.3,2.2
		c0,0.7,0.1,1.3,0.2,1.8s0.4,1,0.6,1.3s0.6,0.6,1,0.8s0.8,0.3,1.3,0.3c0.4,0,0.8-0.1,1.2-0.2s0.7-0.4,0.9-0.6c0.3-0.3,0.5-0.6,0.6-1
		s0.2-0.8,0.2-1.3c0-0.4-0.1-0.8-0.2-1.2C81.1,295.3,80.9,295,80.7,294.8z M79.8,297.7c-0.1,0.2-0.2,0.4-0.3,0.6
		c-0.1,0.2-0.3,0.3-0.5,0.4c-0.2,0.1-0.4,0.1-0.6,0.1c-0.3,0-0.5-0.1-0.7-0.2c-0.2-0.1-0.4-0.3-0.5-0.5c-0.1-0.2-0.2-0.4-0.3-0.6
		s-0.1-0.4-0.1-0.7c0-0.2,0-0.4,0.1-0.6c0.1-0.2,0.2-0.4,0.3-0.5c0.1-0.1,0.3-0.3,0.5-0.4s0.4-0.1,0.7-0.1s0.5,0,0.7,0.1
		c0.2,0.1,0.3,0.2,0.5,0.4s0.2,0.3,0.3,0.6c0.1,0.2,0.1,0.5,0.1,0.7C79.9,297.2,79.8,297.5,79.8,297.7z"/>
</g>
</svg>
