<svg id="Layer_1" xmlns="http://www.w3.org/2000/svg" width="157" height="329" viewBox="0 0 157 329"><g fill="none" stroke="#dedede" stroke-width="4" stroke-linecap="round" stroke-linejoin="round" stroke-miterlimit="10"><path d="M77.6-10l1 258.9"/><circle cx="78.6" cy="254.4" r="5"/></g><path d="M16.3 326.8V317h2.8c3.6 0 5.4 1.6 5.4 4.8 0 1.5-.5 2.7-1.5 3.6s-2.3 1.4-4 1.4h-2.7zm1.6-8.3v7h1.3c1.1 0 2-.3 2.7-.9.6-.6.9-1.5.9-2.7 0-2.3-1.2-3.4-3.5-3.4h-1.4zM34.1 326.8h-1.8l-.9-2.5h-3.8l-.8 2.5H25l3.7-9.8h1.8l3.6 9.8zM31 323l-1.4-3.9c0-.1-.1-.3-.1-.6 0 .3-.1.5-.1.6L28 323h3zM40.7 318.5h-2.8v8.4h-1.6v-8.4h-2.8v-1.4h7.2v1.4zM49.1 326.8h-1.8l-.9-2.5h-3.8l-.8 2.5H40l3.7-9.8h1.8l3.6 9.8zM46 323l-1.4-3.9c0-.1-.1-.3-.1-.6 0 .3-.1.5-.1.6L43 323h3zM55.9 323.3v3.5h-1.6V317h3c1.1 0 2 .3 2.6.8s.9 1.3.9 2.2-.3 1.7-1 2.3c-.6.6-1.5.9-2.6.9h-1.3v.1zm0-4.9v3.6h1c.7 0 1.2-.2 1.6-.5.4-.3.5-.8.5-1.4 0-1.1-.7-1.7-2-1.7h-1.1zM64.1 326.8h-1.7V317h1.7v9.8zM68.1 323.3v3.5h-1.6V317h3c1.1 0 2 .3 2.6.8s.9 1.3.9 2.2-.3 1.7-1 2.3c-.6.6-1.5.9-2.6.9h-1.3v.1zm0-4.9v3.6h1c.7 0 1.2-.2 1.6-.5s.5-.8.5-1.4c0-1.1-.7-1.7-2-1.7h-1.1zM80.1 326.8h-5.5V317h5.3v1.4h-3.6v2.8h3.4v1.4h-3.4v2.9h3.9v1.3h-.1zM87.2 326.8h-5.4V317h1.6v8.4h3.8v1.4zM90.3 326.8h-1.7V317h1.7v9.8zM101 326.8h-1.8l-4.7-7.2-.3-.6c0 .2.1.7.1 1.3v6.4h-1.6v-9.8h1.9l4.5 7c.2.3.3.5.4.6 0-.3-.1-.7-.1-1.3v-6.3h1.6v9.9zM108.8 326.8h-5.5V317h5.3v1.4H105v2.8h3.4v1.4H105v2.9h3.9l-.1 1.3zM120.7 318.5h-2.8v8.4h-1.6v-8.4h-2.8v-1.4h7.2v1.4zM123.8 326.8h-1.7V317h1.7v9.8zM131.6 326.8h-5.5V317h5.3v1.4h-3.6v2.8h3.4v1.4h-3.4v2.9h3.9v1.3h-.1zM140.9 326.8H139l-1.6-2.6c-.1-.2-.3-.4-.4-.6-.1-.2-.3-.3-.4-.4-.1-.1-.3-.2-.5-.2s-.3-.1-.6-.1h-.5v4h-1.6v-9.8h3.2c.5 0 .9.1 1.3.2s.7.3 1 .5.5.5.7.8.2.7.2 1.2c0 .3-.1.7-.2.9-.1.3-.2.5-.4.8-.2.2-.4.4-.7.6s-.6.3-.9.4c.2.1.3.2.5.3.1.1.3.2.4.4.1.1.2.3.3.4.1.2.2.3.4.6l1.7 2.6zm-5.9-8.4v3.2h1.3c.2 0 .5 0 .7-.1s.4-.2.5-.3c.2-.1.3-.3.4-.5.1-.2.1-.4.1-.7 0-.5-.1-.8-.4-1.1s-.7-.4-1.3-.4H135v-.1z"/><g><path d="M78.6 284c-6.4 0-11.6 5.2-11.6 11.6s5.2 11.6 11.6 11.6 11.6-5.2 11.6-11.6S85 284 78.6 284zm1.9 15.8c-.6.5-1.4.8-2.4.8-.9 0-1.6-.2-2.2-.5v-1.4c.6.5 1.3.7 2 .7.6 0 1.1-.1 1.5-.4s.5-.6.5-1.1c0-1-.8-1.5-2.4-1.5h-.7v-1.2h.7c1.4 0 2.1-.5 2.1-1.5 0-.9-.5-1.3-1.6-1.3-.6 0-1.2.2-1.7.7v-1.3c.6-.3 1.3-.5 2.2-.5.8 0 1.5.2 1.9.6.5.4.7.9.7 1.6 0 1.2-.6 2-1.8 2.3.7.1 1.2.3 1.6.7s.6.9.6 1.5c-.1.7-.4 1.3-1 1.8z"/></g><g><path d="M79.5 295.7c-.1-.2-.3-.3-.5-.4-.2-.1-.4-.1-.7-.1s-.5 0-.7.1-.4.2-.5.4c-.1.1-.2.3-.3.5-.1.2-.1.4-.1.6 0 .2 0 .4.1.7s.2.4.3.6c.1.2.3.3.5.5.2.1.4.2.7.2.2 0 .5 0 .6-.1.2-.1.3-.2.5-.4.1-.2.2-.3.3-.6s.1-.4.1-.7c0-.3 0-.5-.1-.7 0-.3-.1-.4-.2-.6z"/><path d="M78.7 284c-6.4 0-11.6 5.2-11.6 11.6 0 6.4 5.2 11.6 11.6 11.6s11.6-5.2 11.6-11.6c0-6.4-5.2-11.6-11.6-11.6zm2.4 14.1c-.2.4-.4.7-.6 1-.3.3-.6.5-.9.6s-.8.2-1.2.2c-.5 0-.9-.1-1.3-.3s-.7-.4-1-.8-.5-.8-.6-1.3-.2-1.1-.2-1.8c0-.8.1-1.6.3-2.2s.5-1.2.8-1.6.8-.8 1.2-1c.5-.2 1-.3 1.5-.3.3 0 .7 0 .9.1.3 0 .5.1.7.2v1.3c-.2-.1-.4-.2-.7-.3s-.5-.1-.8-.1c-.4 0-.7.1-1 .2s-.6.4-.8.6-.4.6-.5 1-.2.9-.2 1.4c.2-.3.5-.5.8-.7s.7-.3 1.2-.3c.4 0 .8.1 1.1.2s.6.3.8.6.4.5.5.9c.1.3.2.7.2 1.2.1.4 0 .8-.2 1.2z"/><path d="M80.7 294.8c-.2-.2-.5-.4-.8-.6s-.7-.2-1.1-.2c-.4 0-.8.1-1.2.3s-.6.4-.8.7c0-.5.1-1 .2-1.4s.3-.8.5-1 .5-.5.8-.6.6-.2 1-.2c.3 0 .6 0 .8.1s.5.2.7.3v-1.3c-.2-.1-.4-.1-.7-.2-.3 0-.6-.1-.9-.1-.5 0-1.1.1-1.5.3-.5.2-.9.6-1.2 1s-.6 1-.8 1.6-.3 1.4-.3 2.2c0 .7.1 1.3.2 1.8s.4 1 .6 1.3.6.6 1 .8.8.3 1.3.3c.4 0 .8-.1 1.2-.2s.7-.4.9-.6c.3-.3.5-.6.6-1s.2-.8.2-1.3c0-.4-.1-.8-.2-1.2-.1-.3-.3-.6-.5-.8zm-.9 2.9l-.3.6c-.1.2-.3.3-.5.4-.2.1-.4.1-.6.1-.3 0-.5-.1-.7-.2-.2-.1-.4-.3-.5-.5l-.3-.6c-.1-.2-.1-.4-.1-.7 0-.2 0-.4.1-.6.1-.2.2-.4.3-.5.1-.1.3-.3.5-.4s.4-.1.7-.1.5 0 .7.1c.2.1.3.2.5.4s.2.3.3.6c.1.2.1.5.1.7-.1.2-.2.5-.2.7z" fill="#FFF"/></g></svg>