<?xml version="1.0" encoding="utf-8"?>
<!-- Generator: Adobe Illustrator 19.2.0, SVG Export Plug-In . SVG Version: 6.00 Build 0)  -->
<svg version="1.1" id="Layer_1" xmlns="http://www.w3.org/2000/svg" xmlns:xlink="http://www.w3.org/1999/xlink" x="0px" y="0px"
	 width="960px" height="275px" viewBox="0 0 960 275" style="enable-background:new 0 0 960 275;" xml:space="preserve">
<g>
	<g>
		
			<line style="stroke:#686868;stroke-width:3;stroke-linecap:round;stroke-linejoin:round;stroke-miterlimit:10;" x1="468.8" y1="198.8" x2="468.8" y2="264.1"/>
		
			<polyline style="fill:none;stroke:#686868;stroke-width:3;stroke-linecap:round;stroke-linejoin:round;stroke-miterlimit:10;" points="
			462.1,258.2 468.7,264.8 475.4,258.2 		"/>
	</g>
	<path style="fill:none;stroke:#686868;stroke-width:3;stroke-linecap:round;stroke-linejoin:round;stroke-miterlimit:10;" d="
		M460.5,197.1c0,0,7.9,4,16.6,0"/>
</g>
<g style="opacity:0.2;">
	<path style="fill:#686868;" d="M369.4,166.7h-5.5v-9.8h5.3v1.4h-3.6v2.8h3.4v1.4h-3.4v2.9h3.9V166.7z"/>
	<path style="fill:#686868;" d="M378.8,156.9l-3.5,9.8h-1.8l-3.4-9.8h1.8l2.4,7.4c0.1,0.2,0.1,0.5,0.2,0.8h0c0-0.3,0.1-0.5,0.2-0.8
		l2.5-7.4H378.8z"/>
	<path style="fill:#686868;" d="M385.5,166.7h-5.5v-9.8h5.3v1.4h-3.6v2.8h3.4v1.4h-3.4v2.9h3.9V166.7z"/>
	<path style="fill:#686868;" d="M395.5,166.7h-1.8l-4.7-7.2c-0.1-0.2-0.2-0.4-0.3-0.6h0c0,0.2,0.1,0.7,0.1,1.3v6.4h-1.6v-9.8h1.9
		l4.5,7c0.2,0.3,0.3,0.5,0.4,0.6h0c0-0.3-0.1-0.7-0.1-1.3v-6.3h1.6V166.7z"/>
	<path style="fill:#686868;" d="M404.2,158.3h-2.8v8.4h-1.6v-8.4H397v-1.4h7.2V158.3z"/>
	<path style="fill:#686868;" d="M417.3,166.7h-1.6v-4.2h-4.6v4.2h-1.6v-9.8h1.6v4.1h4.6v-4.1h1.6V166.7z"/>
	<path style="fill:#686868;" d="M427.2,162.7c0,2.7-1.3,4.1-3.9,4.1c-2.5,0-3.7-1.3-3.7-4v-6h1.6v5.6c0,1.9,0.7,2.9,2.2,2.9
		c1.4,0,2.1-0.9,2.1-2.8v-5.7h1.6V162.7z"/>
	<path style="fill:#686868;" d="M429.5,166.7v-9.8h3.1c0.9,0,1.7,0.2,2.2,0.6c0.6,0.4,0.8,0.9,0.8,1.6c0,0.6-0.2,1-0.5,1.4
		c-0.3,0.4-0.7,0.7-1.3,0.9v0c0.7,0.1,1.2,0.3,1.6,0.7s0.6,1,0.6,1.6c0,0.8-0.3,1.5-1,2c-0.7,0.5-1.5,0.8-2.5,0.8H429.5z
		 M431.1,158.2v2.8h1c0.6,0,1-0.1,1.3-0.4c0.3-0.3,0.5-0.6,0.5-1.1c0-0.8-0.6-1.3-1.7-1.3H431.1z M431.1,162.3v3.1h1.4
		c0.6,0,1.1-0.1,1.4-0.4c0.3-0.3,0.5-0.7,0.5-1.2c0-1-0.7-1.5-2.1-1.5H431.1z"/>
	<path style="fill:#686868;" d="M437.5,166.3v-1.7c0.1,0.1,0.3,0.3,0.5,0.4c0.2,0.1,0.4,0.2,0.7,0.3c0.2,0.1,0.5,0.1,0.7,0.2
		s0.4,0.1,0.6,0.1c0.7,0,1.2-0.1,1.5-0.3s0.5-0.6,0.5-1c0-0.2-0.1-0.4-0.2-0.6s-0.3-0.3-0.5-0.5s-0.4-0.3-0.7-0.4
		c-0.3-0.1-0.6-0.3-0.9-0.4c-0.3-0.2-0.6-0.4-0.9-0.5c-0.3-0.2-0.5-0.4-0.7-0.6c-0.2-0.2-0.4-0.5-0.5-0.7c-0.1-0.3-0.2-0.6-0.2-1
		c0-0.5,0.1-0.9,0.3-1.2s0.5-0.6,0.8-0.8c0.3-0.2,0.7-0.4,1.2-0.5c0.4-0.1,0.9-0.2,1.3-0.2c1,0,1.8,0.1,2.2,0.3v1.6
		c-0.6-0.4-1.3-0.6-2.1-0.6c-0.2,0-0.5,0-0.7,0.1c-0.2,0-0.5,0.1-0.6,0.2c-0.2,0.1-0.3,0.2-0.5,0.4c-0.1,0.2-0.2,0.4-0.2,0.6
		c0,0.2,0,0.4,0.1,0.6c0.1,0.2,0.2,0.3,0.4,0.4c0.2,0.1,0.4,0.3,0.6,0.4c0.3,0.1,0.5,0.3,0.9,0.4c0.3,0.2,0.7,0.4,1,0.6
		c0.3,0.2,0.6,0.4,0.8,0.6c0.2,0.2,0.4,0.5,0.5,0.8c0.1,0.3,0.2,0.6,0.2,1c0,0.5-0.1,0.9-0.3,1.3c-0.2,0.3-0.5,0.6-0.8,0.8
		c-0.3,0.2-0.7,0.4-1.2,0.5s-0.9,0.1-1.4,0.1c-0.2,0-0.4,0-0.6,0s-0.5-0.1-0.7-0.1c-0.2,0-0.5-0.1-0.7-0.2
		C437.8,166.4,437.6,166.4,437.5,166.3z"/>
</g>
<g style="opacity:0.2;">
	<path style="fill:#686868;" d="M494.7,166.3v-1.7c0.1,0.1,0.3,0.3,0.5,0.4c0.2,0.1,0.4,0.2,0.7,0.3c0.2,0.1,0.5,0.1,0.7,0.2
		c0.2,0,0.4,0.1,0.6,0.1c0.7,0,1.2-0.1,1.5-0.3s0.5-0.6,0.5-1c0-0.2-0.1-0.4-0.2-0.6s-0.3-0.3-0.5-0.5s-0.4-0.3-0.7-0.4
		c-0.3-0.1-0.6-0.3-0.9-0.4c-0.3-0.2-0.6-0.4-0.9-0.5c-0.3-0.2-0.5-0.4-0.7-0.6s-0.4-0.5-0.5-0.7s-0.2-0.6-0.2-1
		c0-0.5,0.1-0.9,0.3-1.2s0.5-0.6,0.8-0.8c0.3-0.2,0.7-0.4,1.2-0.5s0.9-0.2,1.3-0.2c1,0,1.8,0.1,2.2,0.3v1.6
		c-0.6-0.4-1.3-0.6-2.1-0.6c-0.2,0-0.5,0-0.7,0.1c-0.2,0-0.5,0.1-0.6,0.2s-0.3,0.2-0.5,0.4s-0.2,0.4-0.2,0.6c0,0.2,0,0.4,0.1,0.6
		c0.1,0.2,0.2,0.3,0.4,0.4c0.2,0.1,0.4,0.3,0.6,0.4c0.3,0.1,0.5,0.3,0.9,0.4c0.3,0.2,0.7,0.4,1,0.6c0.3,0.2,0.6,0.4,0.8,0.6
		c0.2,0.2,0.4,0.5,0.5,0.8s0.2,0.6,0.2,1c0,0.5-0.1,0.9-0.3,1.3c-0.2,0.3-0.5,0.6-0.8,0.8c-0.3,0.2-0.7,0.4-1.2,0.5
		c-0.4,0.1-0.9,0.1-1.4,0.1c-0.2,0-0.4,0-0.6,0c-0.2,0-0.5-0.1-0.7-0.1c-0.2,0-0.5-0.1-0.7-0.2C495,166.4,494.9,166.4,494.7,166.3z"
		/>
	<path style="fill:#686868;" d="M508.2,166.7h-5.5v-9.8h5.3v1.4h-3.6v2.8h3.4v1.4h-3.4v2.9h3.9V166.7z"/>
	<path style="fill:#686868;" d="M517.5,166.7h-1.9L514,164c-0.1-0.2-0.3-0.4-0.4-0.6c-0.1-0.2-0.3-0.3-0.4-0.4
		c-0.1-0.1-0.3-0.2-0.5-0.2s-0.3-0.1-0.6-0.1h-0.7v4H510v-9.8h3.2c0.5,0,0.9,0.1,1.3,0.2c0.4,0.1,0.7,0.3,1,0.5
		c0.3,0.2,0.5,0.5,0.7,0.8c0.2,0.3,0.2,0.7,0.2,1.2c0,0.3-0.1,0.7-0.2,0.9c-0.1,0.3-0.2,0.5-0.4,0.8c-0.2,0.2-0.4,0.4-0.7,0.6
		c-0.3,0.2-0.6,0.3-0.9,0.4v0c0.2,0.1,0.3,0.2,0.5,0.3c0.1,0.1,0.3,0.2,0.4,0.4c0.1,0.1,0.2,0.3,0.3,0.4c0.1,0.2,0.2,0.3,0.4,0.6
		L517.5,166.7z M511.6,158.2v3.2h1.3c0.2,0,0.5,0,0.7-0.1s0.4-0.2,0.5-0.3c0.2-0.1,0.3-0.3,0.4-0.5c0.1-0.2,0.1-0.4,0.1-0.7
		c0-0.5-0.1-0.8-0.4-1.1s-0.7-0.4-1.3-0.4H511.6z"/>
	<path style="fill:#686868;" d="M526.3,156.9l-3.5,9.8H521l-3.4-9.8h1.8l2.4,7.4c0.1,0.2,0.1,0.5,0.2,0.8h0c0-0.3,0.1-0.5,0.2-0.8
		l2.5-7.4H526.3z"/>
	<path style="fill:#686868;" d="M529.2,166.7h-1.7v-9.8h1.7V166.7z"/>
	<path style="fill:#686868;" d="M538.4,166.2c-0.7,0.4-1.6,0.6-2.7,0.6c-1.4,0-2.5-0.4-3.4-1.3c-0.9-0.9-1.3-2.1-1.3-3.5
		c0-1.6,0.5-2.8,1.4-3.8s2.2-1.4,3.6-1.4c0.9,0,1.7,0.1,2.3,0.4v1.6c-0.7-0.4-1.4-0.6-2.2-0.6c-1.1,0-1.9,0.3-2.6,1s-1,1.6-1,2.7
		c0,1.1,0.3,1.9,0.9,2.6c0.6,0.6,1.4,1,2.4,1c0.9,0,1.7-0.2,2.4-0.7V166.2z"/>
	<path style="fill:#686868;" d="M545.8,166.7h-5.5v-9.8h5.3v1.4h-3.6v2.8h3.4v1.4h-3.4v2.9h3.9V166.7z"/>
	<path style="fill:#686868;" d="M551.3,166.7v-9.8h3.1c0.9,0,1.7,0.2,2.2,0.6c0.6,0.4,0.8,0.9,0.8,1.6c0,0.6-0.2,1-0.5,1.4
		c-0.3,0.4-0.7,0.7-1.3,0.9v0c0.7,0.1,1.2,0.3,1.6,0.7c0.4,0.4,0.6,1,0.6,1.6c0,0.8-0.3,1.5-1,2s-1.5,0.8-2.5,0.8H551.3z
		 M552.9,158.2v2.8h1c0.6,0,1-0.1,1.3-0.4c0.3-0.3,0.5-0.6,0.5-1.1c0-0.8-0.6-1.3-1.7-1.3H552.9z M552.9,162.3v3.1h1.4
		c0.6,0,1.1-0.1,1.4-0.4c0.3-0.3,0.5-0.7,0.5-1.2c0-1-0.7-1.5-2.1-1.5H552.9z"/>
	<path style="fill:#686868;" d="M567.2,162.7c0,2.7-1.3,4.1-3.9,4.1c-2.5,0-3.7-1.3-3.7-4v-6h1.6v5.6c0,1.9,0.7,2.9,2.2,2.9
		c1.4,0,2.1-0.9,2.1-2.8v-5.7h1.6V162.7z"/>
	<path style="fill:#686868;" d="M569.1,166.3v-1.7c0.1,0.1,0.3,0.3,0.5,0.4c0.2,0.1,0.4,0.2,0.7,0.3c0.2,0.1,0.5,0.1,0.7,0.2
		c0.2,0,0.4,0.1,0.6,0.1c0.7,0,1.2-0.1,1.5-0.3s0.5-0.6,0.5-1c0-0.2-0.1-0.4-0.2-0.6s-0.3-0.3-0.5-0.5s-0.4-0.3-0.7-0.4
		c-0.3-0.1-0.6-0.3-0.9-0.4c-0.3-0.2-0.6-0.4-0.9-0.5c-0.3-0.2-0.5-0.4-0.7-0.6s-0.4-0.5-0.5-0.7s-0.2-0.6-0.2-1
		c0-0.5,0.1-0.9,0.3-1.2s0.5-0.6,0.8-0.8c0.3-0.2,0.7-0.4,1.2-0.5s0.9-0.2,1.3-0.2c1,0,1.8,0.1,2.2,0.3v1.6
		c-0.6-0.4-1.3-0.6-2.1-0.6c-0.2,0-0.5,0-0.7,0.1c-0.2,0-0.5,0.1-0.6,0.2s-0.3,0.2-0.5,0.4s-0.2,0.4-0.2,0.6c0,0.2,0,0.4,0.1,0.6
		c0.1,0.2,0.2,0.3,0.4,0.4c0.2,0.1,0.4,0.3,0.6,0.4c0.3,0.1,0.5,0.3,0.9,0.4c0.3,0.2,0.7,0.4,1,0.6c0.3,0.2,0.6,0.4,0.8,0.6
		c0.2,0.2,0.4,0.5,0.5,0.8s0.2,0.6,0.2,1c0,0.5-0.1,0.9-0.3,1.3c-0.2,0.3-0.5,0.6-0.8,0.8c-0.3,0.2-0.7,0.4-1.2,0.5
		c-0.4,0.1-0.9,0.1-1.4,0.1c-0.2,0-0.4,0-0.6,0c-0.2,0-0.5-0.1-0.7-0.1c-0.2,0-0.5-0.1-0.7-0.2C569.4,166.4,569.2,166.4,569.1,166.3
		z"/>
</g>
<g style="opacity:0.2;">
	<g>
		<path style="fill:#00BCF2;" d="M395,57.4v-9.8h2.8c3.6,0,5.4,1.6,5.4,4.8c0,1.5-0.5,2.7-1.5,3.6c-1,0.9-2.3,1.4-4,1.4H395z
			 M396.6,49v7h1.3c1.1,0,2-0.3,2.7-0.9c0.6-0.6,0.9-1.5,0.9-2.7c0-2.3-1.2-3.4-3.5-3.4H396.6z"/>
		<path style="fill:#00BCF2;" d="M412.8,57.4H411l-0.9-2.5h-3.8l-0.8,2.5h-1.8l3.7-9.8h1.8L412.8,57.4z M409.7,53.6l-1.4-3.9
			c0-0.1-0.1-0.3-0.1-0.6h0c0,0.3-0.1,0.5-0.1,0.6l-1.3,3.9H409.7z"/>
		<path style="fill:#00BCF2;" d="M419.4,49h-2.8v8.4H415V49h-2.8v-1.4h7.2V49z"/>
		<path style="fill:#00BCF2;" d="M427.8,57.4h-1.8l-0.9-2.5h-3.8l-0.8,2.5h-1.8l3.7-9.8h1.8L427.8,57.4z M424.8,53.6l-1.4-3.9
			c0-0.1-0.1-0.3-0.1-0.6h0c0,0.3-0.1,0.5-0.1,0.6l-1.3,3.9H424.8z"/>
		<path style="fill:#00BCF2;" d="M439.8,57c-0.7,0.4-1.6,0.6-2.7,0.6c-1.4,0-2.5-0.4-3.4-1.3c-0.9-0.9-1.3-2.1-1.3-3.5
			c0-1.6,0.5-2.8,1.4-3.8s2.2-1.4,3.6-1.4c0.9,0,1.7,0.1,2.3,0.4v1.6c-0.7-0.4-1.4-0.6-2.2-0.6c-1.1,0-1.9,0.3-2.6,1s-1,1.6-1,2.7
			c0,1.1,0.3,1.9,0.9,2.6c0.6,0.6,1.4,1,2.4,1c0.9,0,1.7-0.2,2.4-0.7V57z"/>
		<path style="fill:#00BCF2;" d="M445.5,57.5c-1.4,0-2.5-0.5-3.4-1.4c-0.8-0.9-1.3-2.1-1.3-3.6c0-1.6,0.4-2.8,1.3-3.8
			c0.9-0.9,2-1.4,3.5-1.4c1.4,0,2.5,0.5,3.3,1.4c0.8,0.9,1.3,2.1,1.3,3.6c0,1.6-0.4,2.8-1.3,3.8C448.1,57.1,446.9,57.5,445.5,57.5z
			 M445.6,48.9c-0.9,0-1.6,0.3-2.2,1c-0.6,0.7-0.8,1.5-0.8,2.6c0,1.1,0.3,2,0.8,2.6c0.5,0.7,1.3,1,2.1,1c0.9,0,1.7-0.3,2.2-0.9
			c0.5-0.6,0.8-1.5,0.8-2.6c0-1.2-0.3-2.1-0.8-2.7S446.5,48.9,445.6,48.9z"/>
		<path style="fill:#00BCF2;" d="M457.4,57.4H452v-9.8h1.6V56h3.8V57.4z"/>
		<path style="fill:#00BCF2;" d="M464.2,57.4h-5.4v-9.8h1.6V56h3.8V57.4z"/>
		<path style="fill:#00BCF2;" d="M471.1,57.4h-5.5v-9.8h5.3V49h-3.6v2.8h3.4v1.4h-3.4V56h3.9V57.4z"/>
		<path style="fill:#00BCF2;" d="M479.6,57c-0.7,0.4-1.6,0.6-2.7,0.6c-1.4,0-2.5-0.4-3.4-1.3c-0.9-0.9-1.3-2.1-1.3-3.5
			c0-1.6,0.5-2.8,1.4-3.8s2.2-1.4,3.6-1.4c0.9,0,1.7,0.1,2.3,0.4v1.6c-0.7-0.4-1.4-0.6-2.2-0.6c-1.1,0-1.9,0.3-2.6,1s-1,1.6-1,2.7
			c0,1.1,0.3,1.9,0.9,2.6c0.6,0.6,1.4,1,2.4,1c0.9,0,1.7-0.2,2.4-0.7V57z"/>
		<path style="fill:#00BCF2;" d="M487.8,49h-2.8v8.4h-1.6V49h-2.8v-1.4h7.2V49z"/>
		<path style="fill:#00BCF2;" d="M490.8,57.4h-1.7v-9.8h1.7V57.4z"/>
		<path style="fill:#00BCF2;" d="M497.3,57.5c-1.4,0-2.5-0.5-3.4-1.4c-0.8-0.9-1.3-2.1-1.3-3.6c0-1.6,0.4-2.8,1.3-3.8
			c0.9-0.9,2-1.4,3.5-1.4c1.4,0,2.5,0.5,3.3,1.4c0.8,0.9,1.3,2.1,1.3,3.6c0,1.6-0.4,2.8-1.3,3.8C499.8,57.1,498.7,57.5,497.3,57.5z
			 M497.3,48.9c-0.9,0-1.6,0.3-2.2,1c-0.6,0.7-0.8,1.5-0.8,2.6c0,1.1,0.3,2,0.8,2.6c0.5,0.7,1.3,1,2.1,1c0.9,0,1.7-0.3,2.2-0.9
			c0.5-0.6,0.8-1.5,0.8-2.6c0-1.2-0.3-2.1-0.8-2.7S498.3,48.9,497.3,48.9z"/>
		<path style="fill:#00BCF2;" d="M512,57.4h-1.8l-4.7-7.2c-0.1-0.2-0.2-0.4-0.3-0.6h0c0,0.2,0.1,0.7,0.1,1.3v6.4h-1.6v-9.8h1.9
			l4.5,7c0.2,0.3,0.3,0.5,0.4,0.6h0c0-0.3-0.1-0.7-0.1-1.3v-6.3h1.6V57.4z"/>
		<path style="fill:#00BCF2;" d="M524.5,49h-2.8v8.4h-1.6V49h-2.8v-1.4h7.2V49z"/>
		<path style="fill:#00BCF2;" d="M527.6,57.4H526v-9.8h1.7V57.4z"/>
		<path style="fill:#00BCF2;" d="M535.5,57.4H530v-9.8h5.3V49h-3.6v2.8h3.4v1.4h-3.4V56h3.9V57.4z"/>
		<path style="fill:#00BCF2;" d="M544.8,57.4h-1.9l-1.6-2.6c-0.1-0.2-0.3-0.4-0.4-0.6c-0.1-0.2-0.3-0.3-0.4-0.4
			c-0.1-0.1-0.3-0.2-0.5-0.2s-0.3-0.1-0.6-0.1h-0.7v4h-1.6v-9.8h3.2c0.5,0,0.9,0.1,1.3,0.2c0.4,0.1,0.7,0.3,1,0.5
			c0.3,0.2,0.5,0.5,0.7,0.8c0.2,0.3,0.2,0.7,0.2,1.2c0,0.3-0.1,0.7-0.2,0.9c-0.1,0.3-0.2,0.5-0.4,0.8c-0.2,0.2-0.4,0.4-0.7,0.6
			c-0.3,0.2-0.6,0.3-0.9,0.4v0c0.2,0.1,0.3,0.2,0.5,0.3c0.1,0.1,0.3,0.2,0.4,0.4c0.1,0.1,0.2,0.3,0.3,0.4c0.1,0.2,0.2,0.3,0.4,0.6
			L544.8,57.4z M538.8,48.9v3.2h1.3c0.2,0,0.5,0,0.7-0.1s0.4-0.2,0.5-0.3c0.2-0.1,0.3-0.3,0.4-0.5c0.1-0.2,0.1-0.4,0.1-0.7
			c0-0.5-0.1-0.8-0.4-1.1s-0.7-0.4-1.3-0.4H538.8z"/>
	</g>
	<circle style="fill:#00BCF2;" cx="468.9" cy="30.7" r="9.9"/>
	<g>
		<path style="fill:#FFFFFF;" d="M470.2,26.3v8h-1.3v-6.4c-0.2,0.2-0.5,0.3-0.7,0.4s-0.6,0.2-0.9,0.3v-1.1c0.2-0.1,0.4-0.1,0.6-0.2
			c0.2-0.1,0.4-0.2,0.6-0.3c0.2-0.1,0.4-0.2,0.6-0.3c0.2-0.1,0.4-0.2,0.6-0.4H470.2z"/>
	</g>
</g>
<g style="opacity:0.2;">
	<path style="fill-rule:evenodd;clip-rule:evenodd;fill:#686868;" d="M407.5,108.2c0-0.5-0.4-0.8-0.8-0.8h-6.3
		c-0.5,0-0.8,0.4-0.8,0.8v4.6c0,0.5,0.4,0.8,0.8,0.8h6.3c0.5,0,0.8-0.4,0.8-0.8V108.2z"/>
	<path style="fill-rule:evenodd;clip-rule:evenodd;fill:#686868;" d="M418.1,112.3h-6.3c-0.5,0-0.8,0.4-0.8,0.8v4.6
		c0,0.5,0.4,0.8,0.8,0.8h6.2c0.5,0,0.8-0.4,0.8-0.8h0.1v-4.6C418.9,112.6,418.6,112.3,418.1,112.3z"/>
	<path style="fill-rule:evenodd;clip-rule:evenodd;fill:#686868;" d="M406.7,117.2h-6.3c-0.5,0-0.8,0.4-0.8,0.8v4.6
		c0,0.5,0.4,0.8,0.8,0.8h6.3c0.5,0,0.8-0.4,0.8-0.8V118C407.5,117.5,407.1,117.2,406.7,117.2z"/>
	<path style="fill-rule:evenodd;clip-rule:evenodd;fill:#686868;" d="M396.2,103.1c0-0.5-0.4-0.8-1-0.8h-6.3c-0.5,0-0.8,0.4-0.8,0.8
		v4.9c0,0.5,0.4,0.8,0.8,0.8h6.4c0.5,0,0.8-0.4,0.8-0.8V103.1z"/>
	<path style="fill-rule:evenodd;clip-rule:evenodd;fill:#686868;" d="M384,102.4c0.5,0,0.8-0.4,0.8-0.8v-4h33.9v4
		c0,0.5,0.4,0.8,1,0.8h4.6c0.5,0,0.8-0.4,0.8-0.8v-9.6c0.1-0.5-0.2-0.8-0.7-0.8h-45.3c-0.5,0-0.8,0.4-0.8,0.8v9.6
		c0,0.5,0.4,0.8,0.8,0.8H384z"/>
	<path style="fill-rule:evenodd;clip-rule:evenodd;fill:#686868;" d="M424.5,128.3h-4.6c-0.5,0-0.8,0.4-0.8,0.8v3.9h-34v-4
		c0-0.5-0.4-0.8-1-0.8h-4.6c-0.5,0-0.8,0.4-0.8,1v9.5c0,0.5,0.4,0.8,0.8,0.8h45.2c0.5,0,0.8-0.4,0.8-0.8v-9.5
		C425.3,128.7,425,128.3,424.5,128.3z"/>
	<path style="fill-rule:evenodd;clip-rule:evenodd;fill:#686868;" d="M396.2,113c0-0.5-0.4-0.8-0.8-0.8H389c-0.5,0-0.8,0.4-0.8,0.8
		v4.6c0,0.5,0.4,0.8,0.8,0.8h6.3c0.5,0,0.8-0.4,0.8-0.8V113z"/>
	<path style="fill-rule:evenodd;clip-rule:evenodd;fill:#686868;" d="M395.2,121.9h-6.3c-0.5,0-0.8,0.4-0.8,0.8v4.6
		c0,0.5,0.4,0.8,0.8,0.8h6.3c0.5,0,0.8-0.4,0.8-0.8v-4.6C396.1,122.3,395.7,121.9,395.2,121.9z"/>
</g>
<g style="opacity:0.2;">
	<polygon style="fill-rule:evenodd;clip-rule:evenodd;fill:#686868;" points="533.1,120.5 527.6,120.5 527.6,131.8 523.1,131.8 
		530.4,141.9 537.8,131.8 533.1,131.8 	"/>
	<rect x="523.7" y="103.7" style="fill-rule:evenodd;clip-rule:evenodd;fill:#686868;" width="13.2" height="3.8"/>
	<rect x="523.7" y="109.3" style="fill-rule:evenodd;clip-rule:evenodd;fill:#686868;" width="13.2" height="3.8"/>
	<rect x="523.7" y="114.9" style="fill-rule:evenodd;clip-rule:evenodd;fill:#686868;" width="13.2" height="3.8"/>
	<path style="fill-rule:evenodd;clip-rule:evenodd;fill:#686868;" d="M525.6,124.2h-5.6l-0.1-9.4h-0.1V94.4h7.5v7.5h5.6V90.4
		c0.3-1.6-0.8-1.6-1.3-1.6H516c-0.5,0-1.6,0-1.6,1.9l-0.1,29.5h0.1v7.9c0,0.4,1.6,1.8,2,1.8h9.2V124.2z"/>
	<path style="fill-rule:evenodd;clip-rule:evenodd;fill:#686868;" d="M550.4,113h-1.6c-0.9-11.3-6.3-16.7-13.8-18.2v5.3
		c5.6,1.9,7.7,7.3,7.8,14.5l-0.1,3.7l7.5-0.1c2,0,3.5,0.5,3.5,2.5v3.3h-18.7v5.6h22.1c0.4,0,2.1-1.5,2.1-1.9v-7.1
		C559.2,116.1,555.2,113,550.4,113z"/>
</g>
</svg>
