<?xml version="1.0" encoding="utf-8"?>
<!-- Generator: Adobe Illustrator 19.2.0, SVG Export Plug-In . SVG Version: 6.00 Build 0)  -->
<svg version="1.1" id="Layer_1" xmlns="http://www.w3.org/2000/svg" xmlns:xlink="http://www.w3.org/1999/xlink" x="0px" y="0px"
	 width="166.1px" height="268.6px" viewBox="0 0 166.1 268.6" style="enable-background:new 0 0 166.1 268.6;" xml:space="preserve"
	>
<g>
	<path style="fill:#010101;" d="M22.6,70.4H21v-4.2h-4.6v4.2h-1.6v-9.8h1.6v4.1H21v-4.1h1.6V70.4z"/>
	<path style="fill:#010101;" d="M25,70.4v-9.8h2.8c3.6,0,5.4,1.6,5.4,4.8c0,1.5-0.5,2.7-1.5,3.6c-1,0.9-2.3,1.4-4,1.4H25z
		 M26.6,62.1v7h1.3c1.1,0,2-0.3,2.7-0.9c0.6-0.6,0.9-1.5,0.9-2.7c0-2.3-1.2-3.4-3.5-3.4H26.6z"/>
	<path style="fill:#010101;" d="M36.7,70.4H35v-9.8h1.7V70.4z"/>
	<path style="fill:#010101;" d="M45.1,70.4h-1.6v-3.9c0-1.3-0.5-2-1.4-2c-0.5,0-0.9,0.2-1.2,0.5c-0.3,0.4-0.5,0.8-0.5,1.4v4h-1.6v-7
		h1.6v1.2l0,0c0.5-0.9,1.3-1.3,2.3-1.3c0.8,0,1.3,0.2,1.7,0.7c0.4,0.5,0.6,1.2,0.6,2.1L45.1,70.4L45.1,70.4z"/>
	<path style="fill:#010101;" d="M46.6,70.2v-1.5c0.6,0.4,1.2,0.7,2,0.7c1,0,1.4-0.3,1.4-0.8c0-0.2,0-0.3-0.1-0.4s-0.2-0.2-0.3-0.3
		c-0.1-0.1-0.3-0.2-0.5-0.2c-0.2-0.1-0.4-0.1-0.6-0.2c-0.3-0.1-0.5-0.2-0.8-0.4c-0.2-0.1-0.4-0.3-0.6-0.4c-0.2-0.2-0.3-0.3-0.3-0.5
		s-0.1-0.4-0.1-0.7c0-0.3,0.1-0.6,0.2-0.9c0.2-0.3,0.4-0.5,0.6-0.6c0.3-0.2,0.6-0.3,0.9-0.4c0.3-0.1,0.7-0.1,1.1-0.1
		c0.6,0,1.2,0.1,1.7,0.3V65c-0.5-0.3-1.1-0.5-1.7-0.5c-0.2,0-0.4,0-0.5,0.1c-0.2,0-0.3,0.1-0.4,0.2s-0.2,0.2-0.3,0.3
		c-0.1,0.1-0.1,0.2-0.1,0.3c0,0.1,0,0.3,0.1,0.4s0.2,0.2,0.3,0.3c0.1,0.1,0.3,0.2,0.4,0.2c0.2,0.1,0.4,0.1,0.6,0.2
		c0.3,0.1,0.6,0.2,0.8,0.4c0.2,0.1,0.4,0.3,0.6,0.4c0.2,0.2,0.3,0.3,0.4,0.6s0.1,0.5,0.1,0.8c0,0.4-0.1,0.7-0.2,0.9
		c-0.2,0.3-0.4,0.5-0.7,0.7c-0.3,0.2-0.6,0.3-0.9,0.4c-0.4,0.1-0.7,0.1-1.1,0.1C47.8,70.6,47.1,70.5,46.6,70.2z"/>
	<path style="fill:#010101;" d="M53.8,62c-0.3,0-0.5-0.1-0.7-0.3s-0.3-0.4-0.3-0.6c0-0.3,0.1-0.5,0.3-0.6s0.4-0.3,0.7-0.3
		c0.3,0,0.5,0.1,0.7,0.3s0.3,0.4,0.3,0.6c0,0.2-0.1,0.5-0.3,0.6C54.3,61.9,54.1,62,53.8,62z M54.6,70.4H53v-7h1.6V70.4z"/>
	<path style="fill:#010101;" d="M63,69.9c0,2.6-1.3,3.8-3.9,3.8c-0.9,0-1.7-0.2-2.4-0.5v-1.4c0.8,0.4,1.5,0.7,2.2,0.7
		c1.7,0,2.5-0.8,2.5-2.4v-0.8l0,0c-0.5,0.9-1.3,1.3-2.4,1.3c-0.8,0-1.5-0.3-2.1-0.9c-0.5-0.6-0.8-1.5-0.8-2.5c0-1.2,0.3-2.1,0.8-2.8
		c0.6-0.7,1.3-1,2.3-1c0.9,0,1.6,0.4,2,1.1l0,0v-1h1.6v6.4H63z M61.4,67.3v-0.9c0-0.5-0.2-0.9-0.5-1.3s-0.7-0.5-1.2-0.5
		c-0.6,0-1.1,0.2-1.4,0.7s-0.5,1.1-0.5,1.9c0,0.7,0.2,1.2,0.5,1.6s0.8,0.6,1.3,0.6s1-0.2,1.3-0.6C61.3,68.4,61.4,67.9,61.4,67.3z"/>
	<path style="fill:#010101;" d="M71.2,70.4h-1.6v-3.8c0-1.4-0.5-2.1-1.4-2.1c-0.5,0-0.9,0.2-1.2,0.6c-0.3,0.4-0.5,0.9-0.5,1.5v3.7
		h-1.6V60.1h1.6v4.5l0,0c0.5-0.9,1.3-1.3,2.3-1.3c1.5,0,2.3,0.9,2.3,2.8L71.2,70.4L71.2,70.4z"/>
	<path style="fill:#010101;" d="M76.8,70.4c-0.3,0.2-0.7,0.2-1.2,0.2c-1.4,0-2-0.6-2-1.9v-3.9h-1.2v-1.2h1.2V62l1.6-0.4v2.1h1.7v1.2
		h-1.7v3.5c0,0.4,0.1,0.7,0.2,0.9c0.1,0.2,0.4,0.3,0.7,0.3s0.5-0.1,0.7-0.2V70.4z"/>
</g>
<g>
	<path style="fill:#010101;" d="M56.9,45.6c-0.3-1-1.4-2.8-1.4-2.8s-0.2,2.7-2,5.3c-1.8,2.7-3,3.1-3,3.1s-0.1,0.8,0.8,1
		c0.3,0,4.4,0,5,0c0.7,0,1.3-0.6,1.3-1.4c0-0.7-0.6-1.6-0.6-1.6S57.1,46.4,56.9,45.6L56.9,45.6z"/>
	<path style="fill:#010101;" d="M21.2,39.4L21.2,39.4c0,0-1.5,1.7-2.4,3c-1,1.3-0.3,2.1-0.3,2.1s2.7,4.4,4.9,3.7
		c0.7-0.2,1.4-1.4,1.4-1.4s-1-1.3-1.7-2.9C22.2,42.3,21.4,39.7,21.2,39.4L21.2,39.4z"/>
	<path style="fill:#010101;" d="M80.2,20.3c-0.3-8.4-2.7-10.6-3.3-10.6c-0.8,0.1-1.2,1.5-2.1,2.1c-1.3,1-2.1,0.7-2.9,1.5
		c-0.7,0.7,0.7,2.7,0.5,7.6c-0.2,4.6-3.2,6.3-3.2,6.3s1.4-2,1.6-3.4c0.2-1.1-0.4-1.3-0.8-1.6c-0.8-0.7-2.5,1.2-3,1.6
		c0.7-0.8,1.9-1.8,1.5-2.7c-0.8-1.4-2.7-0.4-3.1-0.3c0.4-0.2,1.3-0.5,1.1-1.4c-0.3-1.5-1.8-1.2-2-1.1c0.6-0.3,1-0.6,2.7-0.5
		c1,0,0.7-1,0.1-1.7c-1-1.2-1.6-1.6-2.3-1.8c-0.8-0.3-2.5-0.1-2.5-0.1s1.2-0.7,1.8-0.6c-0.8-1.2-3.6-5.4-8.4-5.6
		c-8.7-0.4-11.2,5.2-11.2,5.2l4.2-0.2c0,0-1.3,0.5-3.8,1c-2,0.3-1.9,0.3-2.5,0.4c-1,0.2-3.4,3.2-5.6,5.7s-4.6,5.7-4.6,7
		s1.3,2.1,2,3.2s1,1.6,1,1.6l3.1-3.6l-3.6,7.4c0,0,1.7,2.2,3.5,2c1.4-0.2,4.5-2.7,6.4-3c2-0.4,2.9-0.1,2.9-0.1s1.4-3.6,0.7-6.2
		c-1.2-4.6-0.3-7,0.6-8.5c-0.7,6,1.3,6.5,1.2,10.4c-0.1,3-1.1,6.2-1.1,6.2s-2.9-1-5.1,0.2s-4.1,2.8-6.3,2.8c-2.2,0-5.2-3.8-5.2-3.8
		l1.6-2.3c0,0-0.2-0.7-0.8-1.5c-1-1.2-2.5-2.9-2.7-4.2c-0.1-2.3,2.2-4.9,3.1-5.8c0.8-1.1,3.4-3.8,3.4-3.8s-7.4,1.1-10.5,4.7
		c-3.7,4.5-4.2,5.7-5.6,5.9c-1.4,0.2-1.9-1.3-1.9-1.3s1.1-0.1,1-1.4c-0.2-2,0.3-3.2,0.3-3.2s-2.2,1.4-2.7,2.8
		c-0.4,1.4,0.5,1.8,0.5,1.8s0,2.5,1.5,3.1s2.7,0.1,2.7,0.1s-1,4.7,0.3,8.1s3.8,7.1,3.8,7.1S26.3,48.3,26,49c-0.4,0.5-1.4,2,0.1,3
		c1.5,1.1,5.2,1.5,6,1c0.8-0.5,0.6-2,0.7-2.5s1.3-2.7,1.5-3.2c0.1-0.6,0.1-3.8-0.1-4.9c0.2,0.5,1.2,3,4.7,3.1
		c3.2,0.1,4.2-1.6,4.2-2.8c0,0.5,0.2,2.9-0.1,3.3c-0.3,0.4-1.3,0.7-2.2,1.3c-1,0.6-2.2,1.3-0.1,3.8c2.3,3,2.8,3.2,4.8,1.6
		s4.1-3.1,5.6-5s4.1-8.9,4.1-8.9s-1.6-1.1-2.7-2.4c-0.7-1.1-1-1.7-1-1.7s2.1,2.1,4.4,2.7c0.8,1,2.2,2.3,3.4,2.8
		c4.4,1.8,5.7-3.6,5.7-3.6l-0.6-0.1c0,0-1.2,2.8-3.1,2.5c-3.8-0.4-2.7-8.3-2.7-8.3s3.8,5.5,11.6,5.3C75.1,36,80.7,30.5,80.2,20.3
		L80.2,20.3z M53.3,20c0,0,0.3-3.6,1.1-4.1c1-0.6,3.5,0.2,3.5,0.2s-1.6,0-2.5,0.8C54.4,17.7,53.3,20,53.3,20L53.3,20z M59.4,23.2
		c-1.2,1-2.2,2.1-2.2,2.1s0.2-0.5,0.4-0.8c0.2-0.4,0.5-0.8,0.5-0.8s-0.4-0.1-1-0.6c-0.3-0.3-0.4-0.6-0.5-0.8c0,0-0.2,0.1-0.5,0.4
		c-0.3,0.2-0.7,0.7-0.7,0.7s1.1-2,2.5-3.1c1.6-1.1,3.2-1.1,3.2-1.1s-0.2,0-0.7,0.3s-0.5,0.3-0.5,0.3s0.5,0.2,1,0.6
		c0.4,0.5,0.5,1.2,0.5,1.2s0.1,0,0.6-0.2s1.1-0.2,1.1-0.2S61.1,21.8,59.4,23.2L59.4,23.2z M75.5,13.6c-1.3,1-2.7,1.1-2.8,0.6
		c-0.2-0.4,0.1-0.4,0.1-0.4s1.4-0.5,2.1-1.1c1-0.7,1.8-2.4,2.1-2C77.4,11.3,76.5,12.9,75.5,13.6L75.5,13.6z"/>
</g>
<g>
	<g>
		
			<line style="fill:none;stroke:#DFDFDE;stroke-width:4;stroke-linecap:round;stroke-linejoin:round;stroke-miterlimit:10;" x1="118.8" y1="42" x2="117.8" y2="308.2"/>
	</g>
	<g>
		
			<line style="fill:none;stroke:#DFDFDE;stroke-width:4;stroke-linecap:round;stroke-linejoin:round;stroke-miterlimit:10;" x1="105.9" y1="42" x2="117.8" y2="42"/>
		
			<circle style="fill:none;stroke:#DFDFDE;stroke-width:4;stroke-linecap:round;stroke-linejoin:round;stroke-miterlimit:10;" cx="100.4" cy="42" r="5"/>
	</g>
</g>
</svg>
