<svg id="Layer_1" xmlns="http://www.w3.org/2000/svg" width="375" height="154" viewBox="0 0 375 154"><path d="M190.9 105.3c-.1-.2-.3-.3-.5-.4-.2-.1-.4-.1-.7-.1s-.5 0-.7.1-.4.2-.5.4c-.1.1-.2.3-.3.5-.1.2-.1.4-.1.6 0 .2 0 .4.1.7s.2.4.3.6c.1.2.3.3.5.5.2.1.4.2.7.2.2 0 .5 0 .6-.1.2-.1.3-.2.5-.4.1-.2.2-.3.3-.6s.1-.4.1-.7c0-.3 0-.5-.1-.7 0-.3-.1-.5-.2-.6z"/><path d="M189.5 92.9c-6.4 0-11.6 5.2-11.6 11.6s5.2 11.6 11.6 11.6 11.6-5.2 11.6-11.6-5.1-11.6-11.6-11.6zm3 14.8c-.2.4-.4.7-.6 1-.3.3-.6.5-.9.6s-.8.2-1.2.2c-.5 0-.9-.1-1.3-.3s-.7-.4-1-.8-.5-.8-.6-1.3-.2-1.1-.2-1.8c0-.8.1-1.6.3-2.2s.5-1.2.8-1.6.8-.8 1.2-1c.5-.2 1-.3 1.5-.3.3 0 .7 0 .9.1.3 0 .5.1.7.2v1.3c-.2-.1-.4-.2-.7-.3s-.5-.1-.8-.1c-.4 0-.7.1-1 .2s-.6.4-.8.6-.4.6-.5 1-.2.9-.2 1.4c.2-.3.5-.5.8-.7s.7-.3 1.2-.3c.4 0 .8.1 1.1.2s.6.3.8.6.4.5.5.9c.1.3.2.7.2 1.2 0 .4 0 .8-.2 1.2zM129.7 134.6h-1.6v-6.3c0-.5 0-1.1.1-1.9-.1.4-.2.7-.3.9l-2.9 7.3h-1.1l-2.9-7.2c-.1-.2-.2-.5-.3-1 0 .4.1 1 .1 1.9v6.3h-1.5v-9.8h2.3l2.6 6.5c.2.5.3.9.4 1.1.2-.5.3-.9.4-1.1l2.6-6.5h2.2v9.8zM140.1 134.6h-1.8l-.9-2.5h-3.8l-.8 2.5H131l3.7-9.8h1.8l3.6 9.8zm-3.1-3.8l-1.4-3.9c0-.1-.1-.3-.1-.6 0 .3-.1.5-.1.6l-1.3 3.9h2.9zM149.7 134.6H148l-4.7-7.2-.3-.6c0 .2.1.7.1 1.3v6.4h-1.6v-9.8h1.9l4.5 7c.2.3.3.5.4.6 0-.3-.1-.7-.1-1.3v-6.3h1.6v9.9zM160.1 134.6h-1.8l-.9-2.5h-3.8l-.8 2.5H151l3.7-9.8h1.8l3.6 9.8zm-3-3.8l-1.4-3.9c0-.1-.1-.3-.1-.6 0 .3-.1.5-.1.6l-1.3 3.9h2.9zM168.9 133.9c-1 .6-2.1.8-3.4.8-1.4 0-2.6-.4-3.5-1.3-.9-.9-1.3-2.1-1.3-3.6s.5-2.7 1.5-3.7 2.2-1.5 3.7-1.5c1.1 0 2 .2 2.7.5v1.7c-.7-.5-1.6-.7-2.7-.7-1 0-1.9.3-2.6 1s-1 1.6-1 2.7.3 2 .9 2.6 1.3 1 2.3 1c.7 0 1.3-.1 1.7-.4v-2.3h-2.1v-1.4h3.7v4.6zM176.5 134.6H171v-9.8h5.3v1.4h-3.6v2.8h3.4v1.4h-3.4v2.9h3.9v1.3zM188.7 134.6h-1.6v-6.3c0-.5 0-1.1.1-1.9-.1.4-.2.7-.3.9l-2.9 7.3h-1.1l-2.9-7.2c-.1-.2-.2-.5-.3-1 0 .4.1 1 .1 1.9v6.3h-1.5v-9.8h2.3l2.6 6.5c.2.5.3.9.4 1.1.2-.5.3-.9.4-1.1l2.6-6.5h2.2v9.8zM196.6 134.6h-5.5v-9.8h5.3v1.4h-3.6v2.8h3.4v1.4h-3.4v2.9h3.9v1.3zM206.6 134.6h-1.8l-4.7-7.2-.3-.6c0 .2.1.7.1 1.3v6.4h-1.6v-9.8h1.9l4.5 7c.2.3.3.5.4.6 0-.3-.1-.7-.1-1.3v-6.3h1.6v9.9zM215.3 126.2h-2.8v8.4h-1.6v-8.4H208v-1.4h7.2v1.4zM226.8 126.2H224v8.4h-1.6v-8.4h-2.8v-1.4h7.2v1.4zM231.6 134.7c-1.4 0-2.5-.5-3.4-1.4-.8-.9-1.3-2.1-1.3-3.6 0-1.6.4-2.8 1.3-3.8.9-.9 2-1.4 3.5-1.4 1.4 0 2.5.5 3.3 1.4.8.9 1.3 2.1 1.3 3.6 0 1.6-.4 2.8-1.3 3.8-.8 1-1.9 1.4-3.4 1.4zm.1-8.6c-.9 0-1.6.3-2.2 1-.6.7-.8 1.5-.8 2.6s.3 2 .8 2.6c.5.7 1.3 1 2.1 1 .9 0 1.7-.3 2.2-.9.5-.6.8-1.5.8-2.6 0-1.2-.3-2.1-.8-2.7s-1.2-1-2.1-1zM242.2 134.7c-1.4 0-2.5-.5-3.4-1.4-.8-.9-1.3-2.1-1.3-3.6 0-1.6.4-2.8 1.3-3.8.9-.9 2-1.4 3.5-1.4 1.4 0 2.5.5 3.3 1.4.8.9 1.3 2.1 1.3 3.6 0 1.6-.4 2.8-1.3 3.8-.8 1-2 1.4-3.4 1.4zm0-8.6c-.9 0-1.6.3-2.2 1-.6.7-.8 1.5-.8 2.6s.3 2 .8 2.6c.5.7 1.3 1 2.1 1 .9 0 1.7-.3 2.2-.9.5-.6.8-1.5.8-2.6 0-1.2-.3-2.1-.8-2.7s-1.1-1-2.1-1zM254.1 134.6h-5.4v-9.8h1.6v8.4h3.8v1.4zM255 134.2v-1.7c.1.1.3.3.5.4.2.1.4.2.7.3.2.1.5.1.7.2.2 0 .4.1.6.1.7 0 1.2-.1 1.5-.3s.5-.6.5-1c0-.2-.1-.4-.2-.6s-.3-.3-.5-.5-.4-.3-.7-.4c-.3-.1-.6-.3-.9-.4-.3-.2-.6-.4-.9-.5-.3-.2-.5-.4-.7-.6s-.4-.5-.5-.7-.2-.6-.2-1c0-.5.1-.9.3-1.2s.5-.6.8-.8c.3-.2.7-.4 1.2-.5s.9-.2 1.3-.2c1 0 1.8.1 2.2.3v1.6c-.6-.4-1.3-.6-2.1-.6-.2 0-.5 0-.7.1-.2 0-.5.1-.6.2s-.3.2-.5.4-.2.4-.2.6c0 .2 0 .4.1.6.1.2.2.3.4.4.2.1.4.3.6.4.3.1.5.3.9.4.3.2.7.4 1 .6.3.2.6.4.8.6.2.2.4.5.5.8s.2.6.2 1c0 .5-.1.9-.3 1.3-.2.3-.5.6-.8.8-.3.2-.7.4-1.2.5-.4.1-.9.1-1.4.1h-.6c-.2 0-.5-.1-.7-.1-.2 0-.5-.1-.7-.2 0-.2-.2-.3-.4-.4z"/><g fill="none" stroke="#dfdfde" stroke-width="4" stroke-linecap="round" stroke-linejoin="round" stroke-miterlimit="10"><path d="M189.4 70.5v-80.8"/><circle cx="189.4" cy="76" r="5"/></g></svg>