<?xml version="1.0" encoding="utf-8"?>
<!-- Generator: Adobe Illustrator 19.2.0, SVG Export Plug-In . SVG Version: 6.00 Build 0)  -->
<svg version="1.1" id="Layer_2_1_" xmlns="http://www.w3.org/2000/svg" xmlns:xlink="http://www.w3.org/1999/xlink" x="0px" y="0px"
	 width="94px" height="329.2px" viewBox="0 0 94 329.2" style="enable-background:new 0 0 94 329.2;" xml:space="preserve">
<g>
	
		<line style="fill:none;stroke:#DEDEDE;stroke-width:4;stroke-linecap:round;stroke-linejoin:round;stroke-miterlimit:10;" x1="48.3" y1="-68.2" x2="48.3" y2="202.9"/>
	
		<circle style="fill:none;stroke:#DEDEDE;stroke-width:4;stroke-linecap:round;stroke-linejoin:round;stroke-miterlimit:10;" cx="48.3" cy="208.4" r="5"/>
</g>
<g>
	<g>
		<path d="M34.4,305.8h-1.6v-6.3c0-0.5,0-1.1,0.1-1.9l0,0c-0.1,0.4-0.2,0.7-0.3,0.9l-2.9,7.3h-1.1l-2.9-7.2c-0.1-0.2-0.2-0.5-0.3-1
			l0,0c0,0.4,0.1,1,0.1,1.9v6.3H24V296h2.3l2.6,6.5c0.2,0.5,0.3,0.9,0.4,1.1l0,0c0.2-0.5,0.3-0.9,0.4-1.1l2.6-6.5h2.2v9.8H34.4z"/>
		<path d="M42.6,298.8l-3.1,8.1c-0.7,1.4-1.6,2.2-2.7,2.2c-0.3,0-0.6,0-0.8-0.1v-1.3c0.2,0.1,0.5,0.1,0.7,0.1c0.6,0,1-0.3,1.3-0.9
			l0.5-1.1l-2.8-7h1.7l1.7,5.1c0,0.1,0.1,0.2,0.1,0.5l0,0c0-0.1,0.1-0.3,0.1-0.5l1.7-5.1L42.6,298.8L42.6,298.8z"/>
		<path d="M43.4,305.4v-1.7c0.1,0.1,0.3,0.3,0.5,0.4s0.4,0.2,0.7,0.3c0.2,0.1,0.5,0.1,0.7,0.2c0.2,0,0.4,0.1,0.6,0.1
			c0.7,0,1.2-0.1,1.5-0.3s0.5-0.6,0.5-1c0-0.2-0.1-0.4-0.2-0.6s-0.3-0.3-0.5-0.5s-0.4-0.3-0.7-0.4s-0.6-0.3-0.9-0.4
			c-0.3-0.2-0.6-0.4-0.9-0.5c-0.3-0.2-0.5-0.4-0.7-0.6s-0.4-0.5-0.5-0.7s-0.2-0.6-0.2-1c0-0.5,0.1-0.9,0.3-1.2s0.5-0.6,0.8-0.8
			c0.3-0.2,0.7-0.4,1.2-0.5s0.9-0.2,1.3-0.2c1,0,1.8,0.1,2.2,0.3v1.6c-0.6-0.4-1.3-0.6-2.1-0.6c-0.2,0-0.5,0-0.7,0.1
			c-0.2,0-0.5,0.1-0.6,0.2s-0.3,0.2-0.5,0.4s-0.2,0.4-0.2,0.6s0,0.4,0.1,0.6s0.2,0.3,0.4,0.4s0.4,0.3,0.6,0.4
			c0.3,0.1,0.5,0.3,0.9,0.4c0.3,0.2,0.7,0.4,1,0.6s0.6,0.4,0.8,0.6s0.4,0.5,0.5,0.8s0.2,0.6,0.2,1c0,0.5-0.1,0.9-0.3,1.3
			c-0.2,0.3-0.5,0.6-0.8,0.8c-0.3,0.2-0.7,0.4-1.2,0.5c-0.4,0.1-0.9,0.1-1.4,0.1c-0.2,0-0.4,0-0.6,0c-0.2,0-0.5-0.1-0.7-0.1
			s-0.5-0.1-0.7-0.2C43.7,305.6,43.5,305.5,43.4,305.4z"/>
		<path d="M55.5,306c-0.7,0-1.3-0.1-1.9-0.4s-1.1-0.6-1.5-1s-0.7-1-0.9-1.6s-0.3-1.3-0.3-2c0-0.8,0.1-1.5,0.3-2.1s0.5-1.2,1-1.6
			c0.4-0.4,0.9-0.8,1.5-1s1.3-0.4,2-0.4s1.3,0.1,1.9,0.4c0.6,0.2,1,0.6,1.4,1s0.7,1,0.9,1.6s0.3,1.3,0.3,2c0,1-0.2,1.8-0.5,2.5
			s-0.8,1.3-1.4,1.7l2.8,2h-2.5l-1.7-1.4c-0.2,0.1-0.5,0.1-0.7,0.1C56,306,55.7,306,55.5,306z M55.5,297.3c-0.4,0-0.9,0.1-1.2,0.3
			c-0.4,0.2-0.7,0.4-1,0.7c-0.3,0.3-0.5,0.7-0.6,1.1s-0.2,0.9-0.2,1.5c0,0.5,0.1,1,0.2,1.5c0.1,0.4,0.3,0.8,0.6,1.1
			c0.3,0.3,0.6,0.6,0.9,0.7c0.4,0.2,0.8,0.3,1.2,0.3c0.5,0,0.9-0.1,1.3-0.2c0.4-0.2,0.7-0.4,0.9-0.7c0.3-0.3,0.5-0.7,0.6-1.1
			s0.2-1,0.2-1.5c0-0.6-0.1-1.1-0.2-1.6c-0.1-0.5-0.3-0.8-0.6-1.1s-0.6-0.5-0.9-0.7C56.4,297.4,56,297.3,55.5,297.3z"/>
		<path d="M67.4,305.8H62V296h1.6v8.4h3.8V305.8z"/>
		<path d="M11.1,322.5v-9.8h2.8c3.6,0,5.4,1.6,5.4,4.8c0,1.5-0.5,2.7-1.5,3.6s-2.3,1.4-4,1.4H11.1z M12.7,314.1v7H14
			c1.1,0,2-0.3,2.7-0.9c0.6-0.6,0.9-1.5,0.9-2.7c0-2.3-1.2-3.4-3.5-3.4H12.7z"/>
		<path d="M28.9,322.5h-1.8l-0.9-2.5h-3.8l-0.8,2.5h-1.8l3.7-9.8h1.8L28.9,322.5z M25.8,318.7l-1.4-3.9c0-0.1-0.1-0.3-0.1-0.6l0,0
			c0,0.3-0.1,0.5-0.1,0.6l-1.3,3.9H25.8z"/>
		<path d="M35.5,314.1h-2.8v8.4h-1.6v-8.4h-2.8v-1.4h7.2V314.1z"/>
		<path d="M43.9,322.5h-1.8l-0.9-2.5h-3.8l-0.8,2.5h-1.8l3.7-9.8h1.8L43.9,322.5z M40.8,318.7l-1.4-3.9c0-0.1-0.1-0.3-0.1-0.6l0,0
			c0,0.3-0.1,0.5-0.1,0.6l-1.3,3.9H40.8z"/>
		<path d="M45.3,322.5v-9.8h3.1c0.9,0,1.7,0.2,2.2,0.6c0.6,0.4,0.8,0.9,0.8,1.6c0,0.6-0.2,1-0.5,1.4s-0.7,0.7-1.3,0.9l0,0
			c0.7,0.1,1.2,0.3,1.6,0.7c0.4,0.4,0.6,1,0.6,1.6c0,0.8-0.3,1.5-1,2s-1.5,0.8-2.5,0.8h-3V322.5z M46.9,314.1v2.8h1
			c0.6,0,1-0.1,1.3-0.4s0.5-0.6,0.5-1.1c0-0.8-0.6-1.3-1.7-1.3H46.9z M46.9,318.1v3.1h1.4c0.6,0,1.1-0.1,1.4-0.4
			c0.3-0.3,0.5-0.7,0.5-1.2c0-1-0.7-1.5-2.1-1.5H46.9z"/>
		<path d="M61.7,322.5h-1.8L59,320h-3.8l-0.8,2.5h-1.8l3.7-9.8h1.8L61.7,322.5z M58.6,318.7l-1.4-3.9c0-0.1-0.1-0.3-0.1-0.6l0,0
			c0,0.3-0.1,0.5-0.1,0.6l-1.3,3.9H58.6z"/>
		<path d="M62.6,322.1v-1.7c0.1,0.1,0.3,0.3,0.5,0.4s0.4,0.2,0.7,0.3c0.2,0.1,0.5,0.1,0.7,0.2c0.2,0,0.4,0.1,0.6,0.1
			c0.7,0,1.2-0.1,1.5-0.3s0.5-0.6,0.5-1c0-0.2-0.1-0.4-0.2-0.6s-0.3-0.3-0.5-0.5s-0.4-0.3-0.7-0.4c-0.3-0.1-0.6-0.3-0.9-0.4
			c-0.3-0.2-0.6-0.4-0.9-0.5c-0.3-0.2-0.5-0.4-0.7-0.6s-0.4-0.5-0.5-0.7s-0.2-0.6-0.2-1c0-0.5,0.1-0.9,0.3-1.2s0.5-0.6,0.8-0.8
			c0.3-0.2,0.7-0.4,1.2-0.5s0.9-0.2,1.3-0.2c1,0,1.8,0.1,2.2,0.3v1.6c-0.6-0.4-1.3-0.6-2.1-0.6c-0.2,0-0.5,0-0.7,0.1
			c-0.2,0-0.5,0.1-0.6,0.2s-0.3,0.2-0.5,0.4s-0.2,0.4-0.2,0.6s0,0.4,0.1,0.6s0.2,0.3,0.4,0.4c0.2,0.1,0.4,0.3,0.6,0.4
			c0.3,0.1,0.5,0.3,0.9,0.4c0.3,0.2,0.7,0.4,1,0.6s0.6,0.4,0.8,0.6c0.2,0.2,0.4,0.5,0.5,0.8s0.2,0.6,0.2,1c0,0.5-0.1,0.9-0.3,1.3
			c-0.2,0.3-0.5,0.6-0.8,0.8c-0.3,0.2-0.7,0.4-1.2,0.5c-0.4,0.1-0.9,0.1-1.4,0.1c-0.2,0-0.4,0-0.6,0s-0.5-0.1-0.7-0.1
			s-0.5-0.1-0.7-0.2C62.9,322.3,62.7,322.2,62.6,322.1z"/>
		<path d="M76.1,322.5h-5.5v-9.8h5.3v1.4h-3.6v2.8h3.4v1.4h-3.4v2.9h3.9v1.3H76.1z"/>
		<path d="M77.4,322.1v-1.7c0.1,0.1,0.3,0.3,0.5,0.4s0.4,0.2,0.7,0.3c0.2,0.1,0.5,0.1,0.7,0.2c0.2,0,0.4,0.1,0.6,0.1
			c0.7,0,1.2-0.1,1.5-0.3s0.5-0.6,0.5-1c0-0.2-0.1-0.4-0.2-0.6s-0.3-0.3-0.5-0.5s-0.4-0.3-0.7-0.4c-0.3-0.1-0.6-0.3-0.9-0.4
			c-0.3-0.2-0.6-0.4-0.9-0.5c-0.3-0.2-0.5-0.4-0.7-0.6s-0.4-0.5-0.5-0.7s-0.2-0.6-0.2-1c0-0.5,0.1-0.9,0.3-1.2s0.5-0.6,0.8-0.8
			c0.3-0.2,0.7-0.4,1.2-0.5s0.9-0.2,1.3-0.2c1,0,1.8,0.1,2.2,0.3v1.6c-0.6-0.4-1.3-0.6-2.1-0.6c-0.2,0-0.5,0-0.7,0.1
			c-0.2,0-0.5,0.1-0.6,0.2s-0.3,0.2-0.5,0.4s-0.2,0.4-0.2,0.6s0,0.4,0.1,0.6s0.2,0.3,0.4,0.4c0.2,0.1,0.4,0.3,0.6,0.4
			c0.3,0.1,0.5,0.3,0.9,0.4c0.3,0.2,0.7,0.4,1,0.6s0.6,0.4,0.8,0.6c0.2,0.2,0.4,0.5,0.5,0.8s0.2,0.6,0.2,1c0,0.5-0.1,0.9-0.3,1.3
			c-0.2,0.3-0.5,0.6-0.8,0.8c-0.3,0.2-0.7,0.4-1.2,0.5c-0.4,0.1-0.9,0.1-1.4,0.1c-0.2,0-0.4,0-0.6,0s-0.5-0.1-0.7-0.1
			s-0.5-0.1-0.7-0.2C77.7,322.3,77.5,322.2,77.4,322.1z"/>
	</g>
	<path d="M62,269c0,2-2.1,2.9-4.2,2.9h-7.4v-2.4h7.4c0.4,0,0.6-0.9,0.6-0.9l-1.3,0.4h-2.8c-2.5,0-4.1-1.1-4.1-2.6v-0.2
		c0-2.6,0-3.6,0-4l-1.4-0.8v7.7h-3.7v-5.7l-2.1,4.2c-0.5,1.1-1.3,1.6-2.7,1.6s-2.2-0.5-2.7-1.6l-2.1-4.2v5.7h-3.4v-8.9
		c0-1.1,0.2-1.7,1.3-2c0.5-0.2,1.1-0.2,1.5-0.2c1.3,0,2.2,0.6,2.7,1.6l2.6,5.6l2.7-5.6c0.5-1.1,1.5-1.6,2.7-1.6c0.5,0,1,0.1,1.5,0.2
		c1,0.3,1.6,1,1.6,2v1.3h5.4v4.7c0,0.1,0.2,0.2,0.6,0.2h1h2.6v-4.8H62V269L62,269L62,269z M46.9,241.7c7.2,0,13.1,1.7,13.1,3.7
		s-5.9,3.7-13.1,3.7c-7.3,0-13.1-1.7-13.1-3.7C33.7,243.4,39.6,241.7,46.9,241.7L46.9,241.7z M46.9,239.3c-10.2,0-18.4,3.2-18.4,6.7
		v31.9c0,3.5,8.2,7.6,18.4,7.6c10.1,0,18.4-3.9,18.4-7.4v-31.9C65.2,242.7,57,239.3,46.9,239.3L46.9,239.3z"/>
</g>
</svg>
