<svg id="Layer_1" xmlns="http://www.w3.org/2000/svg" width="166.1" height="268.6" viewBox="0 0 166.1 268.6"><g fill="#010101"><path d="M70.1 70.3h-1.6v-4.2h-4.6v4.2h-1.6v-9.8h1.6v4.1h4.6v-4.1h1.6v9.8zM80.6 70.3h-1.8l-.9-2.5h-3.8l-.8 2.5h-1.8l3.7-9.8H77l3.6 9.8zm-3.1-3.8l-1.4-3.9c0-.1-.1-.3-.1-.6 0 .3-.1.5-.1.6l-1.3 3.9h2.9zM81.9 70.3v-9.8h2.8c3.6 0 5.4 1.6 5.4 4.8 0 1.5-.5 2.7-1.5 3.6s-2.3 1.4-4 1.4h-2.7zm1.6-8.4v7h1.3c1.1 0 2-.3 2.7-.9.6-.6.9-1.5.9-2.7 0-2.3-1.2-3.4-3.5-3.4h-1.4zM95.9 70.5c-1.4 0-2.5-.5-3.4-1.4-.8-.9-1.3-2.1-1.3-3.6 0-1.6.4-2.8 1.3-3.8.9-.9 2-1.4 3.5-1.4 1.4 0 2.5.5 3.3 1.4s1.3 2.1 1.3 3.6c0 1.6-.4 2.8-1.3 3.8-.8.9-2 1.4-3.4 1.4zm.1-8.7c-.9 0-1.6.3-2.2 1s-.8 1.5-.8 2.6.3 2 .8 2.6c.5.7 1.3 1 2.1 1 .9 0 1.7-.3 2.2-.9s.8-1.5.8-2.6c0-1.2-.3-2.1-.8-2.7s-1.2-1-2.1-1zM106.4 70.5c-1.4 0-2.5-.5-3.4-1.4-.8-.9-1.3-2.1-1.3-3.6 0-1.6.4-2.8 1.3-3.8.9-.9 2-1.4 3.5-1.4 1.4 0 2.5.5 3.3 1.4s1.3 2.1 1.3 3.6c0 1.6-.4 2.8-1.3 3.8-.8.9-1.9 1.4-3.4 1.4zm.1-8.7c-.9 0-1.6.3-2.2 1s-.8 1.5-.8 2.6.3 2 .8 2.6c.5.7 1.3 1 2.1 1 .9 0 1.7-.3 2.2-.9s.8-1.5.8-2.6c0-1.2-.3-2.1-.8-2.7s-1.2-1-2.1-1zM114.6 66.8v3.5H113v-9.8h3c1.1 0 2 .3 2.6.8s.9 1.3.9 2.2c0 .9-.3 1.7-1 2.3-.6.6-1.5.9-2.6.9l-1.3.1zm0-4.9v3.6h1c.7 0 1.2-.2 1.6-.5s.5-.8.5-1.4c0-1.1-.7-1.7-2-1.7h-1.1zM131.2 61.9h-2.8v8.4h-1.6v-8.4H124v-1.4h7.2v1.4zM134.3 70.3h-1.7v-9.8h1.7v9.8zM142.1 70.3h-5.5v-9.8h5.3v1.4h-3.6v2.8h3.4v1.4h-3.4V69h3.9l-.1 1.3zM151.4 70.3h-1.9l-1.6-2.6c-.1-.2-.3-.4-.4-.6-.1-.2-.3-.3-.4-.4-.1-.1-.3-.2-.5-.2s-.3-.1-.6-.1h-.7v4h-1.6v-9.8h3.2c.5 0 .9.1 1.3.2s.7.3 1 .5.5.5.7.8.2.7.2 1.2c0 .3-.1.7-.2.9-.1.3-.2.5-.4.8-.2.2-.4.4-.7.6s-.6.3-.9.4c.2.1.3.2.5.3.1.1.3.2.4.4.1.1.2.3.3.4.1.2.2.3.4.6l1.9 2.6zm-5.9-8.4V65h1.3c.2 0 .5 0 .7-.1s.4-.2.5-.3c.2-.1.3-.3.4-.5.1-.2.1-.4.1-.7 0-.5-.1-.8-.4-1.1s-.7-.4-1.3-.4h-1.3z"/></g><path fill="none" stroke="#dfdfde" stroke-width="4" stroke-linecap="round" stroke-linejoin="round" stroke-miterlimit="10" d="M34.1 308.2L33.1 42"/><g fill="none" stroke="#dfdfde" stroke-width="4" stroke-linecap="round" stroke-linejoin="round" stroke-miterlimit="10"><path d="M34.1 42H46"/><circle cx="51.5" cy="42" r="5"/></g><path d="M106.1 28.5c-6.4 0-11.6 5.2-11.6 11.6s5.2 11.6 11.6 11.6c6.4 0 11.6-5.2 11.6-11.6s-5.2-11.6-11.6-11.6zm2.9 8c-.4.7-.7 1.4-1.1 2.1s-.6 1.4-.9 2.1c-.3.7-.5 1.4-.7 2.1s-.4 1.4-.5 2.1h-1.5c.1-.7.2-1.3.4-2s.4-1.3.7-1.9.5-1.3.9-2c.3-.7.7-1.3 1-2H103v-1.3h6.1v.8z"/><path d="M102.9 37.1h4.3c-.4.7-.7 1.3-1 2-.3.7-.6 1.3-.9 2s-.5 1.3-.7 1.9-.3 1.3-.4 2h1.5c.1-.7.3-1.4.5-2.1s.4-1.4.7-2.1l.9-2.1c.3-.7.7-1.4 1.1-2.1v-.7h-6.1v1.2z" fill="#FFF"/></svg>