<svg id="Layer_1" xmlns="http://www.w3.org/2000/svg" width="375" height="154" viewBox="0 0 375 154"><g fill="none" stroke="#dfdfde" stroke-width="4" stroke-linecap="round" stroke-linejoin="round" stroke-miterlimit="10"><path d="M191.7 70.5v-80.8"/><circle cx="191.7" cy="76" r="5"/></g><path d="M192.8 101.8c-.1-.2-.3-.3-.5-.4s-.4-.1-.6-.1c-.2 0-.4 0-.6.1-.2.1-.3.2-.5.4s-.2.3-.3.6-.1.5-.1.7c0 .3 0 .5.1.8l.3.6c.1.2.3.3.5.3.2.1.4.1.7.1.2 0 .4 0 .6-.1s.3-.2.5-.3c.1-.1.2-.3.3-.5s.1-.4.1-.6c0-.3 0-.6-.1-.8l-.4-.8z"/><path d="M191.7 92.9c-6.4 0-11.6 5.2-11.6 11.6s5.2 11.6 11.6 11.6 11.6-5.2 11.6-11.6-5.2-11.6-11.6-11.6zm2.8 13.7c-.2.7-.5 1.2-.8 1.6s-.7.7-1.2.9c-.5.2-1 .3-1.5.3h-.5c-.2 0-.3 0-.5-.1-.2 0-.3-.1-.4-.1s-.2-.1-.3-.1v-1.3c.1.1.2.1.3.2s.3.1.4.2c.2 0 .3.1.5.1h.5c.4 0 .7-.1 1-.2s.5-.3.8-.6c.2-.3.4-.6.5-1s.2-.9.2-1.4c-.1.1-.2.3-.3.4s-.3.2-.4.3-.3.2-.5.2c-.2.1-.4.1-.6.1-.4 0-.7-.1-1.1-.2-.3-.1-.6-.3-.9-.6-.2-.2-.4-.5-.6-.9s-.2-.7-.2-1.2.1-.9.2-1.3c.2-.4.4-.7.6-1 .3-.3.6-.5 1-.6s.8-.2 1.2-.2.8.1 1.2.2.7.4 1 .7c.3.3.5.8.7 1.3s.2 1.2.2 1.9c-.3 1-.4 1.7-.5 2.4z"/><path d="M193.8 101c-.3-.3-.6-.6-1-.7s-.8-.2-1.2-.2-.8.1-1.2.2-.7.4-1 .6c-.3.3-.5.6-.6 1-.2.4-.2.8-.2 1.3 0 .4.1.8.2 1.2s.3.6.6.9c.2.2.5.4.9.6.3.1.7.2 1.1.2.2 0 .4 0 .6-.1.2-.1.4-.1.5-.2s.3-.2.4-.3c.1-.1.2-.2.3-.4 0 .5-.1 1-.2 1.4s-.3.8-.5 1c-.2.3-.5.5-.8.6s-.6.2-1 .2h-.5c-.2 0-.3-.1-.5-.1s-.3-.1-.4-.2c-.1-.1-.2-.1-.3-.2v1.3c.1 0 .2.1.3.1s.3.1.4.1c.2 0 .3.1.5.1h.5c.5 0 1-.1 1.5-.3.5-.2.9-.5 1.2-.9s.6-1 .8-1.6c.2-.7.3-1.4.3-2.3 0-.8-.1-1.4-.2-1.9s-.2-1-.5-1.4zm-.7 2.9c-.1.2-.2.3-.3.5-.1.1-.3.2-.5.3s-.4.1-.6.1c-.2 0-.5 0-.7-.1s-.4-.2-.5-.3c-.1-.2-.2-.3-.3-.6-.1-.2-.1-.5-.1-.8s0-.5.1-.7l.3-.6c.1-.2.3-.3.5-.4s.4-.1.6-.1c.2 0 .4 0 .6.1.2.1.4.2.5.4l.3.6c.1.3.1.5.1.8.1.4.1.6 0 .8z" fill="#FFF"/><g><path d="M83.7 134.2c-1.4 0-2.5-.5-3.4-1.4s-1.3-2.1-1.3-3.6c0-1.6.4-2.8 1.3-3.8s2-1.4 3.5-1.4c1.4 0 2.5.5 3.3 1.4s1.3 2.1 1.3 3.6c0 1.6-.4 2.9-1.3 3.8s-2 1.4-3.4 1.4zm0-8.7c-.9 0-1.6.3-2.2 1s-.8 1.6-.8 2.6c0 1.1.3 2 .8 2.6s1.3 1 2.1 1c.9 0 1.7-.3 2.2-1s.8-1.5.8-2.7c0-1.2-.3-2.1-.8-2.7s-1.1-.8-2.1-.8zM91.8 130.5v3.6h-1.6v-9.8h3c1.1 0 2 .3 2.6.8s.9 1.3.9 2.2-.3 1.7-1 2.3-1.5.9-2.6.9h-1.3zm0-4.9v3.6h1.1c.7 0 1.2-.2 1.6-.5s.5-.8.5-1.4c0-1.2-.7-1.7-2-1.7h-1.2zM103.9 134.1h-5.5v-9.8h5.3v1.4H100v2.8h3.4v1.4H100v2.9h3.9v1.3zM113.2 134.1h-1.9l-1.6-2.6c-.1-.2-.3-.4-.4-.6-.1-.2-.3-.3-.4-.4s-.3-.2-.5-.2-.3-.1-.6-.1h-.7v4h-1.6v-9.8h3.2c.5 0 .9.1 1.3.2s.7.3 1 .5c.3.2.5.5.7.8.2.3.2.7.2 1.2 0 .3-.1.7-.2 1-.1.3-.2.5-.4.8-.2.2-.4.4-.7.6s-.6.3-.9.4c.2.1.3.2.5.3.1.1.3.2.4.4s.2.3.4.4c.1.2.2.3.4.6l1.8 2.5zm-5.9-8.5v3.2h1.4c.3 0 .5 0 .7-.1l.6-.3c.2-.1.3-.3.4-.5s.1-.4.1-.7c0-.5-.1-.8-.4-1.1s-.7-.4-1.3-.4h-1.5zM122.4 134.1h-1.8l-.9-2.5h-3.9l-.8 2.5h-1.8l3.7-9.8h1.8l3.7 9.8zm-3.1-3.8l-1.4-3.9c0-.1-.1-.3-.1-.6 0 .3-.1.5-.1.6l-1.3 3.9h2.9zM129 125.7h-2.8v8.4h-1.6v-8.4h-2.8v-1.4h7.3v1.4zM132.2 134.1h-1.7v-9.8h1.7v9.8zM138.6 134.2c-1.4 0-2.5-.5-3.4-1.4s-1.3-2.1-1.3-3.6c0-1.6.4-2.8 1.3-3.8s2-1.4 3.5-1.4c1.4 0 2.5.5 3.3 1.4s1.3 2.1 1.3 3.6c0 1.6-.4 2.9-1.3 3.8s-2 1.4-3.4 1.4zm.1-8.7c-.9 0-1.6.3-2.2 1s-.8 1.6-.8 2.6c0 1.1.3 2 .8 2.6s1.3 1 2.1 1c.9 0 1.7-.3 2.2-1s.8-1.5.8-2.7c0-1.2-.3-2.1-.8-2.7s-1.2-.8-2.1-.8zM153.5 134.1h-1.8l-4.7-7.2-.3-.6c0 .2.1.7.1 1.3v6.4h-1.6v-9.8h1.9l4.5 7c.2.3.3.5.4.6 0-.3-.1-.7-.1-1.3v-6.3h1.6v9.9zM163.9 134.1h-1.8l-.9-2.5h-3.9l-.8 2.5h-1.8l3.7-9.8h1.8l3.7 9.8zm-3.1-3.8l-1.4-3.9c0-.1-.1-.3-.1-.6 0 .3-.1.5-.1.6l-1.3 3.9h2.9zM170.7 134.1h-5.4v-9.8h1.6v8.4h3.8v1.4zM186.5 134.1h-1.6v-6.3c0-.5 0-1.2.1-1.9-.1.4-.2.7-.3.9l-2.9 7.3h-1.1l-2.9-7.3c-.1-.2-.2-.5-.3-1 0 .4.1 1 .1 1.9v6.3H176v-9.8h2.3l2.6 6.5c.2.5.3.9.4 1.1.2-.5.3-.9.4-1.1l2.6-6.5h2.2v9.9zM197 134.1h-1.8l-.9-2.5h-3.9l-.8 2.5h-1.8l3.7-9.8h1.8l3.7 9.8zm-3.1-3.8l-1.4-3.9c0-.1-.1-.3-.1-.6 0 .3-.1.5-.1.6l-1.3 3.9h2.9zM206.6 134.1h-1.8l-4.7-7.2-.3-.6c0 .2.1.7.1 1.3v6.4h-1.6v-9.8h1.9l4.5 7c.2.3.3.5.4.6 0-.3-.1-.7-.1-1.3v-6.3h1.6v9.9zM217.1 134.1h-1.8l-.9-2.5h-3.9l-.8 2.5H208l3.7-9.8h1.8l3.6 9.8zm-3.1-3.8l-1.4-3.9c0-.1-.1-.3-.1-.6 0 .3-.1.5-.1.6l-1.3 3.9h2.9zM225.9 133.4c-1 .6-2.2.8-3.4.8-1.4 0-2.6-.5-3.5-1.4s-1.3-2.1-1.3-3.6.5-2.8 1.5-3.7c1-1 2.2-1.5 3.7-1.5 1.1 0 2 .2 2.7.5v1.7c-.8-.5-1.6-.8-2.7-.8-1 0-1.9.3-2.6 1-.7.7-1 1.6-1 2.7s.3 2 .9 2.7c.6.6 1.4 1 2.3 1 .7 0 1.3-.1 1.8-.4v-2.3h-2.1v-1.4h3.7v4.7zM233.6 134.1h-5.5v-9.8h5.3v1.4h-3.7v2.8h3.4v1.4h-3.4v2.9h3.9v1.3zM245.8 134.1h-1.6v-6.3c0-.5 0-1.2.1-1.9-.1.4-.2.7-.3.9l-2.9 7.3H240l-2.9-7.3c-.1-.2-.2-.5-.3-1 0 .4.1 1 .1 1.9v6.3h-1.5v-9.8h2.3l2.6 6.5c.2.5.3.9.4 1.1.2-.5.3-.9.4-1.1l2.6-6.5h2.2v9.9zM253.7 134.1h-5.5v-9.8h5.3v1.4h-3.7v2.8h3.4v1.4h-3.4v2.9h3.9v1.3zM263.8 134.1H262l-4.7-7.2-.3-.6c0 .2.1.7.1 1.3v6.4h-1.6v-9.8h1.9l4.5 7c.2.3.3.5.4.6 0-.3-.1-.7-.1-1.3v-6.3h1.6v9.9zM272.5 125.7h-2.8v8.4h-1.6v-8.4h-2.8v-1.4h7.3v1.4zM284.1 125.7h-2.8v8.4h-1.6v-8.4h-2.8v-1.4h7.3v1.4zM287.2 134.1h-1.7v-9.8h1.7v9.8zM295.1 134.1h-5.5v-9.8h5.3v1.4h-3.7v2.8h3.4v1.4h-3.4v2.9h3.9v1.3zM304.4 134.1h-1.9l-1.6-2.6c-.1-.2-.3-.4-.4-.6-.1-.2-.3-.3-.4-.4-.1-.1-.3-.2-.5-.2s-.3-.1-.6-.1h-.7v4h-1.6v-9.8h3.2c.5 0 .9.1 1.3.2s.7.3 1 .5c.3.2.5.5.7.8.2.3.2.7.2 1.2 0 .3-.1.7-.2 1-.1.3-.2.5-.4.8-.2.2-.4.4-.7.6-.3.2-.6.3-.9.4.2.1.3.2.5.3.1.1.3.2.4.4s.2.3.4.4c.1.2.2.3.4.6l1.8 2.5zm-5.9-8.5v3.2h1.4c.3 0 .5 0 .7-.1l.6-.3c.2-.1.3-.3.4-.5s.1-.4.1-.7c0-.5-.1-.8-.4-1.1s-.7-.4-1.3-.4h-1.5z"/></g></svg>