<svg id="Layer_1" xmlns="http://www.w3.org/2000/svg" width="375" height="154" viewBox="0 0 375 154"><g fill="none" stroke="#dfdfde" stroke-width="4" stroke-linecap="round" stroke-linejoin="round" stroke-miterlimit="10"><path d="M189.4 70.5v-80.8"/><circle cx="189.4" cy="76" r="5"/></g><path d="M138.3 134.5h-1.6v-6.1c0-.5 0-1.1.1-1.8-.1.4-.2.7-.3.9l-2.8 7.1h-1.1l-2.8-7c-.1-.2-.2-.5-.3-.9 0 .4.1 1 .1 1.9v6.1h-1.5v-9.5h2.2l2.5 6.3c.2.5.3.8.4 1.1.2-.5.3-.9.4-1.1l2.5-6.3h2.1v9.3h.1zM148.4 134.5h-1.7l-.9-2.4h-3.7l-.8 2.4h-1.7l3.5-9.5h1.8l3.5 9.5zm-3-3.7l-1.3-3.8c0-.1-.1-.3-.1-.6 0 .3-.1.4-.1.6l-1.3 3.8h2.8zM157.7 134.5H156l-4.5-6.9c-.1-.2-.2-.4-.3-.5 0 .2.1.6.1 1.3v6.2h-1.5v-9.5h1.8l4.4 6.8c.2.3.3.5.4.6 0-.3-.1-.7-.1-1.3v-6.1h1.5l-.1 9.4zM167.8 134.5h-1.7l-.9-2.4h-3.7l-.8 2.4H159l3.5-9.5h1.8l3.5 9.5zm-3-3.7l-1.3-3.8c0-.1-.1-.3-.1-.6 0 .3-.1.4-.1.6l-1.3 3.8h2.8zM176.3 133.9c-1 .5-2.1.8-3.3.8-1.4 0-2.5-.4-3.4-1.3-.9-.9-1.3-2-1.3-3.5s.5-2.7 1.4-3.6 2.1-1.4 3.6-1.4c1.1 0 1.9.2 2.6.5v1.6c-.7-.5-1.6-.7-2.6-.7s-1.8.3-2.5 1c-.6.7-1 1.5-1 2.6s.3 1.9.8 2.6 1.3.9 2.3.9c.7 0 1.2-.1 1.7-.4v-2.2h-2v-1.3h3.6l.1 4.4zM183.7 134.5h-5.3V125h5.1v1.3H180v2.7h3.3v1.3H180v2.8h3.7v1.4zM195.5 134.5H194v-6.1c0-.5 0-1.1.1-1.8-.1.4-.2.7-.3.9l-2.8 7.1h-1.1l-2.8-7c-.1-.2-.2-.5-.3-.9 0 .4.1 1 .1 1.9v6.1h-1.5v-9.5h2.2l2.5 6.3c.2.5.3.8.4 1.1.2-.5.3-.9.4-1.1l2.5-6.3h2.1v9.3zM203.2 134.5h-5.3V125h5.1v1.3h-3.5v2.7h3.3v1.3h-3.3v2.8h3.7v1.4zM212.9 134.5h-1.7l-4.5-6.9c-.1-.2-.2-.4-.3-.5 0 .2.1.6.1 1.3v6.2H205v-9.5h1.8l4.4 6.8c.2.3.3.5.4.6 0-.3-.1-.7-.1-1.3v-6.1h1.5l-.1 9.4zM221.3 126.4h-2.7v8.1H217v-8.1h-2.7v-1.3h7v1.3zM232.4 126.4h-2.7v8.1h-1.6v-8.1h-2.7v-1.3h7v1.3zM235.4 134.5h-1.6V125h1.6v9.5zM243 134.5h-5.3V125h5.1v1.3h-3.5v2.7h3.3v1.3h-3.3v2.8h3.7v1.4zM252 134.5h-1.8l-1.5-2.5c-.1-.2-.3-.4-.4-.6s-.3-.3-.4-.4-.3-.2-.4-.2c-.2 0-.3-.1-.5-.1h-.6v3.8h-1.6V125h3.1c.4 0 .9.1 1.2.2.4.1.7.3 1 .5s.5.5.6.8c.2.3.2.7.2 1.1 0 .3 0 .6-.1.9s-.2.5-.4.7-.4.4-.7.6c-.3.2-.5.3-.9.4.2.1.3.2.4.3l.4.4c.1.1.2.3.3.4s.2.3.4.5l1.7 2.7zm-5.7-8.1v3.1h1.3c.2 0 .5 0 .7-.1s.4-.2.5-.3.3-.3.3-.5c.1-.2.1-.4.1-.7 0-.5-.1-.8-.4-1.1-.3-.3-.7-.4-1.2-.4h-1.3z"/><g><path d="M190.5 101.8c-.1-.2-.3-.3-.5-.4-.2-.1-.4-.1-.6-.1-.2 0-.4 0-.6.1-.2.1-.3.2-.5.4s-.2.3-.3.6-.1.5-.1.7c0 .3 0 .5.1.8l.3.6c.1.2.3.3.5.3.2.1.4.1.7.1.2 0 .4 0 .6-.1s.3-.2.5-.3c.1-.1.2-.3.3-.5s.1-.4.1-.6c0-.3 0-.6-.1-.8l-.4-.8z"/><path d="M189.4 92.9c-6.4 0-11.6 5.2-11.6 11.6 0 6.4 5.2 11.6 11.6 11.6s11.6-5.2 11.6-11.6c0-6.4-5.2-11.6-11.6-11.6zm2.8 13.7c-.2.7-.5 1.2-.8 1.6s-.7.7-1.2.9c-.5.2-1 .3-1.5.3h-.5c-.2 0-.3 0-.5-.1-.2 0-.3-.1-.4-.1s-.2-.1-.3-.1v-1.3c.1.1.2.1.3.2.1.1.3.1.4.2.2 0 .3.1.5.1h.5c.4 0 .7-.1 1-.2.3-.1.5-.3.8-.6.2-.3.4-.6.5-1s.2-.9.2-1.4c-.1.1-.2.3-.3.4-.1.1-.3.2-.4.3s-.3.2-.5.2c-.2.1-.4.1-.6.1-.4 0-.7-.1-1.1-.2-.3-.1-.6-.3-.9-.6-.2-.2-.4-.5-.6-.9s-.2-.7-.2-1.2.1-.9.2-1.3c.2-.4.4-.7.6-1 .3-.3.6-.5 1-.6.4-.1.8-.2 1.2-.2.4 0 .8.1 1.2.2s.7.4 1 .7c.3.3.5.8.7 1.3s.2 1.2.2 1.9c-.3 1-.4 1.7-.5 2.4z"/><path d="M191.5 101c-.3-.3-.6-.6-1-.7s-.8-.2-1.2-.2c-.4 0-.8.1-1.2.2-.4.1-.7.4-1 .6-.3.3-.5.6-.6 1-.2.4-.2.8-.2 1.3 0 .4.1.8.2 1.2s.3.6.6.9c.2.2.5.4.9.6.3.1.7.2 1.1.2.2 0 .4 0 .6-.1.2-.1.4-.1.5-.2s.3-.2.4-.3c.1-.1.2-.2.3-.4 0 .5-.1 1-.2 1.4s-.3.8-.5 1c-.2.3-.5.5-.8.6-.3.1-.6.2-1 .2h-.5c-.2 0-.3-.1-.5-.1s-.3-.1-.4-.2c-.1-.1-.2-.1-.3-.2v1.3c.1 0 .2.1.3.1s.3.1.4.1c.2 0 .3.1.5.1h.5c.5 0 1-.1 1.5-.3.5-.2.9-.5 1.2-.9s.6-1 .8-1.6c.2-.7.3-1.4.3-2.3 0-.8-.1-1.4-.2-1.9s-.2-1-.5-1.4zm-.7 2.9c-.1.2-.2.3-.3.5-.1.1-.3.2-.5.3s-.4.1-.6.1c-.2 0-.5 0-.7-.1-.2-.1-.4-.2-.5-.3-.1-.2-.2-.3-.3-.6-.1-.2-.1-.5-.1-.8 0-.3 0-.5.1-.7l.3-.6c.1-.2.3-.3.5-.4.2-.1.4-.1.6-.1.2 0 .4 0 .6.1.2.1.4.2.5.4l.3.6c.1.3.1.5.1.8.1.4.1.6 0 .8z" fill="#FFF"/></g></svg>