<?xml version="1.0" encoding="utf-8"?>
<!-- Generator: Adobe Illustrator 19.2.0, SVG Export Plug-In . SVG Version: 6.00 Build 0)  -->
<svg version="1.1" id="Layer_1" xmlns="http://www.w3.org/2000/svg" xmlns:xlink="http://www.w3.org/1999/xlink" x="0px" y="0px"
	 width="156.7px" height="329.2px" viewBox="0 0 156.7 329.2" style="enable-background:new 0 0 156.7 329.2;" xml:space="preserve"
	>
<g id="Layer_2">
</g>
<g>
	
		<line style="fill:none;stroke:#DEDEDE;stroke-width:4;stroke-linecap:round;stroke-linejoin:round;stroke-miterlimit:10;" x1="78.3" y1="0" x2="78.2" y2="257.9"/>
	
		<circle style="fill:none;stroke:#DEDEDE;stroke-width:4;stroke-linecap:round;stroke-linejoin:round;stroke-miterlimit:10;" cx="78.2" cy="263.4" r="5"/>
</g>
<g>
	<path d="M3.5,325.6v-9.8h2.8c3.6,0,5.4,1.6,5.4,4.8c0,1.5-0.5,2.7-1.5,3.6s-2.3,1.4-4,1.4H3.5z M5.2,317.2v7h1.3
		c1.1,0,2-0.3,2.7-0.9c0.6-0.6,0.9-1.5,0.9-2.7c0-2.3-1.2-3.4-3.5-3.4H5.2z"/>
	<path d="M21.3,325.6h-1.8l-0.8-2.5h-3.9l-0.8,2.5h-1.8l3.7-9.8h1.8L21.3,325.6z M18.2,321.8l-1.4-3.9c0-0.1-0.1-0.3-0.1-0.6l0,0
		c0,0.3-0.1,0.5-0.1,0.6l-1.3,3.9H18.2z"/>
	<path d="M27.9,317.2h-2.8v8.4h-1.6v-8.4h-2.8v-1.4h7.2V317.2z"/>
	<path d="M36.4,325.6h-1.8l-0.9-2.5h-3.8l-0.8,2.5h-1.8l3.7-9.8h1.7L36.4,325.6z M33.3,321.8l-1.4-3.9c0-0.1-0.1-0.3-0.1-0.6l0,0
		c0,0.3-0.1,0.5-0.1,0.6l-1.3,3.9H33.3z"/>
	<path d="M48.3,325.2c-0.7,0.4-1.6,0.6-2.7,0.6c-1.4,0-2.5-0.4-3.4-1.3c-0.9-0.9-1.3-2.1-1.3-3.5c0-1.6,0.5-2.8,1.4-3.8
		c0.9-1,2.2-1.4,3.6-1.4c0.9,0,1.7,0.1,2.3,0.4v1.6c-0.7-0.4-1.4-0.6-2.2-0.6c-1.1,0-1.9,0.3-2.6,1s-1,1.6-1,2.7s0.3,1.9,0.9,2.6
		c0.6,0.6,1.4,1,2.4,1c0.9,0,1.7-0.2,2.4-0.7v1.4H48.3z"/>
	<path d="M54,325.7c-1.4,0-2.5-0.5-3.4-1.4c-0.8-0.9-1.3-2.1-1.3-3.6c0-1.6,0.4-2.8,1.3-3.8c0.9-0.9,2-1.4,3.5-1.4
		c1.4,0,2.5,0.5,3.3,1.4s1.3,2.1,1.3,3.6c0,1.6-0.4,2.8-1.3,3.8C56.6,325.3,55.5,325.7,54,325.7z M54.1,317.1c-0.9,0-1.6,0.3-2.2,1
		c-0.6,0.7-0.8,1.5-0.8,2.6s0.3,2,0.8,2.6c0.5,0.7,1.3,1,2.1,1c0.9,0,1.7-0.3,2.2-0.9s0.8-1.5,0.8-2.6c0-1.2-0.3-2.1-0.8-2.7
		S55,317.1,54.1,317.1z"/>
	<path d="M65.9,325.6h-5.4v-9.8h1.6v8.4h3.8C65.9,324.2,65.9,325.6,65.9,325.6z"/>
	<path d="M72.7,325.6h-5.4v-9.8h1.6v8.4h3.8V325.6z"/>
	<path d="M79.6,325.6h-5.5v-9.8h5.3v1.4h-3.6v2.8h3.4v1.4h-3.4v2.9h3.9v1.3H79.6z"/>
	<path d="M88.2,325.2c-0.7,0.4-1.6,0.6-2.7,0.6c-1.4,0-2.5-0.4-3.4-1.3s-1.3-2.1-1.3-3.5c0-1.6,0.5-2.8,1.4-3.8s2.2-1.4,3.6-1.4
		c0.9,0,1.7,0.1,2.3,0.4v1.6c-0.7-0.4-1.4-0.6-2.2-0.6c-1.1,0-1.9,0.3-2.6,1s-1,1.6-1,2.7s0.3,1.9,0.9,2.6c0.6,0.6,1.4,1,2.4,1
		c0.9,0,1.7-0.2,2.4-0.7v1.4H88.2z"/>
	<path d="M96.3,317.2h-2.8v8.4h-1.6v-8.4h-2.8v-1.4h7.2C96.3,315.8,96.3,317.2,96.3,317.2z"/>
	<path d="M99.3,325.6h-1.6v-9.8h1.7L99.3,325.6L99.3,325.6z"/>
	<path d="M105.8,325.7c-1.4,0-2.5-0.5-3.4-1.4c-0.8-0.9-1.3-2.1-1.3-3.6c0-1.6,0.4-2.8,1.3-3.8c0.9-0.9,2-1.4,3.5-1.4
		c1.4,0,2.5,0.5,3.3,1.4s1.3,2.1,1.3,3.6c0,1.6-0.4,2.8-1.3,3.8C108.3,325.3,107.2,325.7,105.8,325.7z M105.8,317.1
		c-0.9,0-1.6,0.3-2.2,1s-0.8,1.5-0.8,2.6s0.3,2,0.8,2.6c0.5,0.7,1.3,1,2.1,1c0.9,0,1.7-0.3,2.2-0.9s0.8-1.5,0.8-2.6
		c0-1.2-0.3-2.1-0.8-2.7S106.8,317.1,105.8,317.1z"/>
	<path d="M120.5,325.6h-1.8l-4.7-7.2c-0.1-0.2-0.2-0.4-0.3-0.6l0,0c0,0.2,0.1,0.7,0.1,1.3v6.4h-1.6v-9.8h1.9l4.5,7
		c0.2,0.3,0.3,0.5,0.4,0.6l0,0c0-0.3-0.1-0.7-0.1-1.3v-6.3h1.6V325.6z"/>
	<path d="M133,317.2h-2.8v8.4h-1.6v-8.4h-2.8v-1.4h7.2C133,315.8,133,317.2,133,317.2z"/>
	<path d="M136.1,325.6h-1.7v-9.8h1.7V325.6z"/>
	<path d="M144,325.6h-5.5v-9.8h5.3v1.4h-3.6v2.8h3.4v1.4h-3.4v2.9h3.9v1.3H144z"/>
	<path d="M153.3,325.6h-1.9l-1.6-2.6c-0.1-0.2-0.3-0.4-0.4-0.6c-0.1-0.2-0.3-0.3-0.4-0.4c-0.1-0.1-0.3-0.2-0.5-0.2s-0.3-0.1-0.6-0.1
		h-0.7v4h-1.5v-9.8h3.2c0.5,0,0.9,0.1,1.3,0.2c0.4,0.1,0.7,0.3,1,0.5s0.5,0.5,0.7,0.8s0.2,0.7,0.2,1.2c0,0.3-0.1,0.7-0.2,0.9
		c-0.1,0.3-0.2,0.5-0.4,0.8c-0.2,0.2-0.4,0.4-0.7,0.6s-0.6,0.3-0.9,0.4l0,0c0.2,0.1,0.3,0.2,0.5,0.3c0.1,0.1,0.3,0.2,0.4,0.4
		c0.1,0.1,0.2,0.3,0.3,0.4c0.1,0.2,0.2,0.3,0.4,0.6L153.3,325.6z M147.4,317.1v3.2h1.3c0.2,0,0.5,0,0.7-0.1s0.4-0.2,0.5-0.3
		c0.2-0.1,0.3-0.3,0.4-0.5c0.1-0.2,0.1-0.4,0.1-0.7c0-0.5-0.1-0.8-0.4-1.1s-0.7-0.4-1.3-0.4h-1.3V317.1z"/>
</g>
<g>
	<path d="M77.8,283.5c-6.4,0-11.6,5.2-11.6,11.6c0,6.4,5.2,11.6,11.6,11.6c6.4,0,11.6-5.2,11.6-11.6
		C89.4,288.7,84.2,283.5,77.8,283.5z M79.4,299.3c-0.6,0.5-1.4,0.8-2.4,0.8c-0.9,0-1.6-0.2-2.2-0.5v-1.4c0.6,0.5,1.3,0.7,2,0.7
		c0.6,0,1.1-0.1,1.5-0.4c0.4-0.3,0.5-0.6,0.5-1.1c0-1-0.8-1.5-2.4-1.5h-0.7v-1.2h0.7c1.4,0,2.1-0.5,2.1-1.5c0-0.9-0.5-1.3-1.6-1.3
		c-0.6,0-1.2,0.2-1.7,0.7v-1.3c0.6-0.3,1.3-0.5,2.2-0.5c0.8,0,1.5,0.2,1.9,0.6s0.7,0.9,0.7,1.6c0,1.2-0.6,2-1.8,2.3v0
		c0.7,0.1,1.2,0.3,1.6,0.7s0.6,0.9,0.6,1.5C80.4,298.1,80,298.8,79.4,299.3z"/>
	<path style="fill:#FFFFFF;" d="M78.2,295.2L78.2,295.2c1.2-0.4,1.8-1.1,1.8-2.3c0-0.6-0.2-1.2-0.7-1.6s-1.1-0.6-1.9-0.6
		c-0.8,0-1.6,0.2-2.2,0.5v1.3c0.5-0.4,1.1-0.7,1.7-0.7c1.1,0,1.6,0.4,1.6,1.3c0,1-0.7,1.5-2.1,1.5h-0.7v1.2h0.7
		c1.6,0,2.4,0.5,2.4,1.5c0,0.5-0.2,0.8-0.5,1.1c-0.4,0.3-0.8,0.4-1.5,0.4c-0.7,0-1.4-0.2-2-0.7v1.4c0.5,0.3,1.3,0.5,2.2,0.5
		c1,0,1.8-0.3,2.4-0.8c0.6-0.5,0.9-1.2,0.9-2c0-0.6-0.2-1.1-0.6-1.5S78.9,295.2,78.2,295.2z"/>
</g>
</svg>
