<svg id="Layer_1" xmlns="http://www.w3.org/2000/svg" width="294" height="452" viewBox="0 0 294 452"><g fill="#FFF" stroke="#000" stroke-width="3" stroke-linecap="round" stroke-linejoin="round"><path d="M248.1 286.3c-5.3 32.8-36.1 55.1-68.9 49.9s-55.1-36.1-49.9-68.9c1.3-8.4 4.4-16.1 8.7-22.8 7.5-11.7 18.8-20.4 31.9-24.8 8.9-2.9 18.5-3.8 28.4-2.3 32.7 5.2 55.1 36.1 49.8 68.9z"/><path d="M237.4 284.5c-4.3 26.9-29.6 45.1-56.4 40.8s-45.1-29.6-40.8-56.4c1.1-6.9 3.6-13.2 7.1-18.7 6.1-9.6 15.4-16.7 26.1-20.3 7.3-2.4 15.2-3.1 23.2-1.8 26.8 4.3 45.1 29.6 40.8 56.4z"/></g><path d="M160 293.4v-3zM203.2 259.5l2.2-.8v-1.8l-2.2-.7-.5-1.3 1-2.1-1.3-1.3-2.1 1.1-1.3-.6-.8-2.2h-1.8l-.7 2.2-1.3.5-2.1-1-1.3 1.3.7 1.3.4.8-.5 1.3-1.5.5-.8.3v1.8l2.2.7.5 1.3-1 2.1 1.3 1.3 2.1-1.1 1.3.5.8 2.2h1.8l.7-2.2 1.2-.5 1.9.9.2.1 1.3-1.3-1.1-2.1.2-.6.5-.6zm-4.1.2c-.5.4-1.1.7-1.8.7-1.4 0-2.6-1.2-2.6-2.6 0-.2 0-.4.1-.6.3-1 1.1-1.7 2.1-1.9h.4c1.1 0 2 .7 2.4 1.7.1.3.2.6.2.9 0 .6-.3 1.3-.8 1.8zM223.3 269.4V267l-2.9-1-.7-1.7 1.4-2.8-1.7-1.7-2.8 1.4-1.7-.7-1.1-3h-2.4l-1 3-1.7.7-2.8-1.3-1.7 1.7 1.4 2.8-.2.5-.5 1.1-1.5.5-1.5.5v2.4l1.9.6 1.1.4.7 1.7-1 2.1-.4.8 1.7 1.7 1.6-.8 1.2-.6 1.7.7 1.1 2.9h2.4l1-2.9 1.7-.7 2.8 1.3 1.7-1.7-1.4-2.7.7-1.7 2.9-1.1zm-10.7 2.3c-1.9 0-3.4-1.5-3.4-3.4s1.5-3.4 3.4-3.4 3.4 1.5 3.4 3.4-1.5 3.4-3.4 3.4zM172.3 278.2v11.5h15.4v-13.6zM160 289.7h11.8v-11.4l-11.8 1.6zM172.3 292.6v9l15.4 2.1v-13.6h-15.4zM160 290.4v9.5l11.8 1.6v-11.4H160zM210 279.8c.3 1 .5 2 .5 3.1 0 5.5-4.2 9.7-9.8 9.7H189v2.5h11.8c7 0 12.3-5.3 12.3-12.2 0-1.1-.2-2.2-.5-3.2l-2.6.1z"/><path d="M190.8 254.8l-.4-.7c-5 .3-9.4 3.1-11.9 7.5-1.9-1.6-4.3-2.5-6.9-2.5-5.9 0-10.6 4.9-10.6 11 0 .6.1 1.3.2 1.9-4.4 2-7 6.1-7 10.9 0 3.9 1.8 7.4 4.6 9.6V289c-1.3-1.6-2.1-3.7-2.1-6.1 0-4.1 2.4-7.5 6.4-9 .6-.2.9-.9.8-1.5-.2-.8-.3-1.6-.3-2.4 0-4.7 3.6-8.4 8.1-8.4 2.5 0 4.8 1 6.2 2.9.3.4.7.5 1.2.5.4-.1.8-.4 1-.8 1.5-3.7 4.6-6.4 8.3-7.3l.2-.8 2-.7.2-.6z"/><g><path d="M128.8 371.1H127l-.9-2.5h-3.9l-.8 2.5h-1.8l3.7-9.8h1.8l3.7 9.8zm-3.1-3.8l-1.4-3.9c0-.1-.1-.3-.1-.6 0 .3-.1.5-.1.6l-1.3 3.9h2.9zM137.1 362l-5.4 7.7h5.3v1.4h-7.6v-.7l5.4-7.7h-5v-1.4h7.2v.7h.1zM146.2 367.1c0 2.8-1.3 4.1-3.9 4.1-2.5 0-3.7-1.3-3.7-4v-6h1.6v5.7c0 1.9.7 2.9 2.2 2.9 1.4 0 2.2-.9 2.2-2.8v-5.8h1.6v5.9zM156.1 371.1h-1.9l-1.6-2.6c-.1-.2-.3-.4-.4-.6-.1-.2-.3-.3-.4-.4-.1-.1-.3-.2-.5-.2s-.3-.1-.6-.1h-.7v4h-1.6v-9.8h3.2c.5 0 .9.1 1.3.2s.7.3 1 .5.5.5.7.8.2.7.2 1.2c0 .3-.1.7-.2 1-.1.3-.2.5-.4.8-.2.2-.4.4-.7.6s-.6.3-.9.4c.2.1.3.2.5.3.1.1.3.2.4.4s.2.3.4.4c.1.2.2.3.4.6l1.8 2.5zm-6-8.5v3.2h1.4c.3 0 .5 0 .7-.1l.6-.3c.2-.1.3-.3.4-.5s.1-.4.1-.7c0-.5-.1-.8-.4-1.1s-.7-.4-1.3-.4h-1.5v-.1zM162.7 371.1h-5.5v-9.8h5.3v1.4h-3.7v2.8h3.4v1.4h-3.4v2.9h3.9v1.3zM178.9 371.1h-1.6v-6.3c0-.5 0-1.2.1-1.9-.1.4-.2.7-.3.9l-2.9 7.3H173l-2.9-7.3c-.1-.2-.2-.5-.3-1 0 .4.1 1 .1 1.9v6.3h-1.5v-9.8h2.3l2.6 6.5c.2.5.3.9.4 1.1.2-.5.3-.9.4-1.1l2.6-6.5h2.2v9.9zM189.3 371.1h-1.8l-.9-2.5h-3.9l-.8 2.5h-1.8l3.7-9.8h1.8l3.7 9.8zm-3.1-3.8l-1.4-3.9c0-.1-.1-.3-.1-.6 0 .3-.1.5-.1.6l-1.3 3.9h2.9zM199 371.1h-1.8l-4.7-7.2-.3-.6c0 .2.1.7.1 1.3v6.4h-1.6v-9.8h1.9l4.5 7c.2.3.3.5.4.6 0-.3-.1-.7-.1-1.3v-6.3h1.6v9.9zM209.5 371.1h-1.8l-.9-2.5h-3.9l-.8 2.5h-1.8l3.7-9.8h1.8l3.7 9.8zm-3.1-3.8l-1.4-3.9c0-.1-.1-.3-.1-.6 0 .3-.1.5-.1.6l-1.3 3.9h2.9zM218.3 370.4c-1 .6-2.2.8-3.4.8-1.4 0-2.6-.5-3.5-1.4s-1.3-2.1-1.3-3.6.5-2.8 1.5-3.7c1-1 2.2-1.5 3.7-1.5 1.1 0 2 .2 2.7.5v1.7c-.8-.5-1.6-.8-2.7-.8-1 0-1.9.3-2.6 1-.7.7-1 1.6-1 2.7s.3 2 .9 2.7c.6.6 1.4 1 2.3 1 .7 0 1.3-.1 1.8-.4v-2.3h-2.1v-1.4h3.7v4.7zM225.9 371.1h-5.5v-9.8h5.3v1.4H222v2.8h3.4v1.4H222v2.9h3.9v1.3zM238.2 371.1h-1.6v-6.3c0-.5 0-1.2.1-1.9-.1.4-.2.7-.3.9l-2.9 7.3h-1.1l-2.9-7.3c-.1-.2-.2-.5-.3-1 0 .4.1 1 .1 1.9v6.3h-1.5v-9.8h2.3l2.6 6.5c.2.5.3.9.4 1.1.2-.5.3-.9.4-1.1l2.6-6.5h2.2v9.9h-.1zM246.1 371.1h-5.5v-9.8h5.3v1.4h-3.7v2.8h3.4v1.4h-3.4v2.9h3.9v1.3zM256.1 371.1h-1.8l-4.7-7.2-.3-.6c0 .2.1.7.1 1.3v6.4h-1.6v-9.8h1.9l4.5 7c.2.3.3.5.4.6 0-.3-.1-.7-.1-1.3v-6.3h1.6v9.9zM264.9 362.7H262v8.4h-1.6v-8.4h-2.8v-1.4h7.3v1.4zM178.4 379.5h-2.8v8.4H174v-8.4h-2.8v-1.4h7.3v1.4h-.1zM183.3 388.1c-1.4 0-2.5-.5-3.4-1.4-.8-.9-1.3-2.1-1.3-3.6 0-1.6.4-2.8 1.3-3.8s2-1.4 3.5-1.4c1.4 0 2.5.5 3.3 1.4s1.3 2.1 1.3 3.6c0 1.6-.4 2.9-1.3 3.8-.8.9-1.9 1.4-3.4 1.4zm.1-8.7c-.9 0-1.6.3-2.2 1-.6.7-.8 1.6-.8 2.6 0 1.1.3 2 .8 2.6s1.3 1 2.1 1c.9 0 1.7-.3 2.2-1 .5-.6.8-1.5.8-2.7s-.3-2.1-.8-2.7c-.4-.5-1.2-.8-2.1-.8zM193.9 388.1c-1.4 0-2.5-.5-3.4-1.4-.8-.9-1.3-2.1-1.3-3.6 0-1.6.4-2.8 1.3-3.8s2-1.4 3.5-1.4c1.4 0 2.5.5 3.3 1.4s1.3 2.1 1.3 3.6c0 1.6-.4 2.9-1.3 3.8s-2 1.4-3.4 1.4zm.1-8.7c-.9 0-1.6.3-2.2 1-.6.7-.8 1.6-.8 2.6 0 1.1.3 2 .8 2.6s1.3 1 2.1 1c.9 0 1.7-.3 2.2-1s.8-1.5.8-2.7-.3-2.1-.8-2.7c-.5-.5-1.2-.8-2.1-.8zM205.9 387.9h-5.4v-9.8h1.6v8.4h3.8v1.4zM206.8 387.5v-1.7c.2.1.3.3.5.4s.4.2.7.3c.2.1.5.1.7.2s.4.1.6.1c.7 0 1.2-.1 1.5-.3.3-.2.5-.6.5-1 0-.2-.1-.4-.2-.6-.1-.2-.3-.3-.5-.5s-.4-.3-.7-.4-.6-.3-.9-.4c-.3-.2-.6-.4-.9-.5s-.5-.4-.7-.6-.4-.5-.5-.7c-.1-.3-.2-.6-.2-1 0-.5.1-.9.3-1.2.2-.3.5-.6.8-.8.3-.2.7-.4 1.2-.5.4-.1.9-.2 1.3-.2 1 0 1.8.1 2.2.3v1.6c-.6-.4-1.3-.6-2.1-.6-.2 0-.5 0-.7.1-.2 0-.5.1-.6.2-.2.1-.3.2-.5.4s-.2.4-.2.6 0 .4.1.6.2.3.4.4.4.3.6.4c.3.1.5.3.9.4.3.2.7.4 1 .6s.6.4.8.6.4.5.5.8.2.6.2 1c0 .5-.1.9-.3 1.3s-.5.6-.8.8c-.3.2-.7.4-1.2.5s-.9.1-1.4.1h-.6c-.2 0-.5-.1-.7-.1-.3 0-.5-.1-.7-.2s-.2-.3-.4-.4zM109 421.5h-1.8l-.9-2.5h-3.9l-.8 2.5h-1.8l3.7-9.8h1.8l3.7 9.8zm-3.1-3.8l-1.4-3.9c0-.1-.1-.3-.1-.6 0 .3-.1.5-.1.6l-1.3 3.9h2.9zM115.3 415.2l-3.8 5.1h3.8v1.2h-6v-.6l3.9-5.2h-3.5v-1.2h5.6v.7zM122.8 421.5h-1.6v-1.1c-.5.8-1.2 1.3-2.1 1.3-1.7 0-2.5-1-2.5-3v-4.2h1.6v4c0 1.3.5 1.9 1.5 1.9.5 0 .9-.2 1.2-.5.3-.3.5-.8.5-1.4v-4h1.6v7h-.2zM128.9 416c-.2-.2-.5-.2-.8-.2-.5 0-.9.2-1.2.6s-.5 1-.5 1.7v3.3h-1.6v-7h1.6v1.4c.2-.5.4-.9.7-1.2.3-.3.7-.4 1.1-.4.3 0 .5 0 .7.1v1.7zM135.8 418.4H131c0 .6.2 1.1.6 1.5.4.4.9.5 1.6.5.7 0 1.4-.2 2.1-.7v1.3c-.6.4-1.5.6-2.5.6s-1.8-.3-2.4-1c-.6-.6-.9-1.5-.9-2.7 0-1.1.3-2 1-2.7.6-.7 1.4-1 2.4-1s1.7.3 2.2.9.8 1.5.8 2.6v.7h-.1zm-1.5-1.1c0-.6-.1-1-.4-1.3-.3-.3-.6-.5-1.1-.5s-.8.2-1.2.5c-.3.3-.5.8-.6 1.3h3.3zM151.9 421.5h-1.6v-6.3c0-.5 0-1.2.1-1.9-.1.4-.2.7-.3.9l-2.9 7.3H146l-2.9-7.3c-.1-.2-.2-.5-.3-1 0 .4.1 1 .1 1.9v6.3h-1.5v-9.8h2.3l2.6 6.5c.2.5.3.9.4 1.1.2-.5.3-.9.4-1.1l2.6-6.5h2.2v9.9zM159.5 421.5H158v-1.1c-.5.8-1.2 1.3-2.1 1.3-.7 0-1.2-.2-1.6-.6-.4-.4-.6-.9-.6-1.5 0-1.3.8-2.1 2.3-2.3l2.1-.3c0-1-.5-1.5-1.4-1.5-.8 0-1.6.3-2.3.9V415c.7-.4 1.6-.7 2.6-.7 1.8 0 2.7.9 2.7 2.6v4.6h-.2zm-1.5-3.4l-1.5.2c-.5.1-.8.2-1 .3-.2.2-.3.4-.3.9 0 .3.1.5.3.7s.5.3.9.3c.5 0 .9-.2 1.2-.5s.5-.8.5-1.3l-.1-.6zM167.7 421.5h-1.6v-3.9c0-1.3-.5-2-1.4-2-.5 0-.9.2-1.2.5-.3.4-.5.8-.5 1.4v4h-1.6v-7h1.6v1.2c.5-.9 1.3-1.3 2.3-1.3.8 0 1.3.2 1.7.7s.6 1.2.6 2.1l.1 4.3zM175 421.5h-1.5v-1.1c-.5.8-1.2 1.3-2.1 1.3-.7 0-1.2-.2-1.6-.6-.4-.4-.6-.9-.6-1.5 0-1.3.8-2.1 2.3-2.3l2.1-.3c0-1-.5-1.5-1.4-1.5-.8 0-1.6.3-2.3.9V415c.7-.4 1.6-.7 2.6-.7 1.8 0 2.7.9 2.7 2.6v4.6h-.2zm-1.6-3.4l-1.5.2c-.5.1-.8.2-1 .3-.2.2-.3.4-.3.9 0 .3.1.5.3.7s.5.3.9.3c.5 0 .9-.2 1.2-.5s.5-.8.5-1.3l-.1-.6zM183.3 420.9c0 2.6-1.3 3.9-3.9 3.9-.9 0-1.7-.2-2.4-.5v-1.4c.8.4 1.5.7 2.2.7 1.7 0 2.5-.8 2.5-2.5v-.8c-.5.9-1.3 1.3-2.4 1.3-.9 0-1.5-.3-2.1-.9-.5-.6-.8-1.5-.8-2.5 0-1.2.3-2.1.8-2.8s1.3-1.1 2.3-1.1c.9 0 1.6.4 2.1 1.1v-1h1.6l.1 6.5zm-1.6-2.6v-.9c0-.5-.2-.9-.5-1.3-.3-.3-.7-.5-1.2-.5-.6 0-1.1.2-1.4.7-.3.4-.5 1.1-.5 1.9 0 .7.2 1.2.5 1.7.3.4.8.6 1.3.6s1-.2 1.3-.6c.3-.5.5-1 .5-1.6zM191.3 418.4h-4.8c0 .6.2 1.1.6 1.5.4.4.9.5 1.6.5.7 0 1.4-.2 2.1-.7v1.3c-.6.4-1.5.6-2.5.6s-1.8-.3-2.4-1c-.6-.6-.9-1.5-.9-2.7 0-1.1.3-2 1-2.7.6-.7 1.4-1 2.4-1s1.7.3 2.2.9.8 1.5.8 2.6v.7h-.1zm-1.6-1.1c0-.6-.1-1-.4-1.3-.3-.3-.6-.5-1.1-.5s-.8.2-1.2.5c-.3.3-.5.8-.6 1.3h3.3zM203.3 421.5h-1.6v-3.8c0-.7-.1-1.3-.3-1.6-.2-.3-.6-.5-1-.5s-.8.2-1.1.6-.4.9-.4 1.5v3.8h-1.6v-3.9c0-1.3-.5-2-1.4-2-.4 0-.8.2-1.1.6s-.4.9-.4 1.5v3.8h-1.6v-7h1.6v1.1c.5-.8 1.2-1.3 2.2-1.3.5 0 .9.1 1.3.4.4.3.6.6.7 1 .5-1 1.3-1.4 2.3-1.4 1.5 0 2.3 1 2.3 2.9v4.3h.1zM211.1 418.4h-4.8c0 .6.2 1.1.6 1.5.4.4.9.5 1.6.5.7 0 1.4-.2 2.1-.7v1.3c-.6.4-1.5.6-2.5.6s-1.8-.3-2.4-1c-.6-.6-.9-1.5-.9-2.7 0-1.1.3-2 1-2.7.6-.7 1.4-1 2.4-1s1.7.3 2.2.9.8 1.5.8 2.6v.7h-.1zm-1.5-1.1c0-.6-.1-1-.4-1.3-.3-.3-.6-.5-1.1-.5s-.8.2-1.2.5c-.3.3-.5.8-.6 1.3h3.3zM218.9 421.5h-1.6v-3.9c0-1.3-.5-2-1.4-2-.5 0-.9.2-1.2.5-.3.4-.5.8-.5 1.4v4h-1.6v-7h1.6v1.2c.5-.9 1.3-1.3 2.3-1.3.8 0 1.3.2 1.7.7s.6 1.2.6 2.1l.1 4.3zM224.5 421.4c-.3.2-.7.2-1.2.2-1.4 0-2-.7-2-2v-4h-1.2v-1.2h1.2v-1.6l1.6-.5v2.1h1.7v1.2h-1.7v3.5c0 .4.1.7.2.9s.4.3.8.3c.3 0 .5-.1.7-.2v1.3h-.1zM236.7 421.1c-.7.4-1.7.6-2.8.6-1.4 0-2.6-.4-3.4-1.3s-1.3-2.1-1.3-3.5c0-1.6.5-2.8 1.4-3.8 1-1 2.2-1.4 3.7-1.4.9 0 1.7.1 2.4.4v1.6c-.7-.4-1.4-.6-2.2-.6-1.1 0-1.9.3-2.6 1-.7.7-1 1.6-1 2.7s.3 1.9.9 2.6c.6.6 1.4 1 2.4 1 .9 0 1.7-.2 2.4-.7v1.4h.1zM241.5 421.7c-1.1 0-1.9-.3-2.6-1-.6-.7-1-1.5-1-2.6 0-1.2.3-2.1 1-2.8.7-.7 1.6-1 2.7-1s1.9.3 2.6 1 .9 1.5.9 2.7c0 1.1-.3 2-1 2.7-.6.6-1.5 1-2.6 1zm.1-6.1c-.6 0-1.1.2-1.5.6s-.5 1-.5 1.8c0 .7.2 1.3.5 1.7.4.4.9.6 1.5.6s1.1-.2 1.4-.6c.3-.4.5-1 .5-1.8s-.2-1.4-.5-1.8c-.3-.3-.8-.5-1.4-.5zM253 421.5h-1.6v-3.9c0-1.3-.5-2-1.4-2-.5 0-.9.2-1.2.5-.3.4-.5.8-.5 1.4v4h-1.6v-7h1.6v1.2c.5-.9 1.3-1.3 2.3-1.3.8 0 1.3.2 1.7.7s.6 1.2.6 2.1l.1 4.3zM254.5 421.3v-1.5c.6.5 1.2.7 2 .7 1 0 1.4-.3 1.4-.8 0-.2 0-.3-.1-.4l-.3-.3c-.1-.1-.3-.2-.5-.2-.2-.1-.4-.1-.6-.2-.3-.1-.5-.2-.8-.4-.2-.1-.4-.3-.6-.4-.2-.2-.3-.3-.3-.6s-.1-.4-.1-.7c0-.3.1-.6.2-.9.2-.3.4-.5.6-.7.3-.2.6-.3.9-.4.3-.1.7-.1 1.1-.1.6 0 1.2.1 1.7.3v1.4c-.5-.3-1.1-.5-1.7-.5-.2 0-.4 0-.5.1-.2 0-.3.1-.4.2l-.3.3c-.1.1-.1.2-.1.3 0 .2 0 .3.1.4l.3.3c.1.1.3.2.5.2.2.1.4.1.6.2.3.1.6.2.8.4.2.1.4.3.6.4.2.2.3.3.4.6.1.2.1.5.1.8 0 .4-.1.7-.2.9s-.4.5-.7.7-.6.3-.9.4c-.4.1-.7.1-1.1.1-.9-.2-1.6-.4-2.1-.6zM264.1 421.7c-1.1 0-1.9-.3-2.6-1-.6-.7-1-1.5-1-2.6 0-1.2.3-2.1 1-2.8.7-.7 1.6-1 2.7-1s1.9.3 2.6 1 .9 1.5.9 2.7c0 1.1-.3 2-1 2.7-.6.6-1.5 1-2.6 1zm0-6.1c-.6 0-1.1.2-1.5.6s-.5 1-.5 1.8c0 .7.2 1.3.5 1.7.4.4.9.6 1.5.6s1.1-.2 1.4-.6.5-1 .5-1.8-.2-1.4-.5-1.8c-.3-.3-.7-.5-1.4-.5zM270.9 421.5h-1.6v-10.4h1.6v10.4zM278.9 418.4h-4.8c0 .6.2 1.1.6 1.5s.9.5 1.6.5 1.4-.2 2.1-.7v1.3c-.6.4-1.5.6-2.5.6s-1.8-.3-2.4-1c-.6-.6-.9-1.5-.9-2.7 0-1.1.3-2 1-2.7.6-.7 1.4-1 2.4-1s1.7.3 2.2.9.8 1.5.8 2.6v.7h-.1zm-1.5-1.1c0-.6-.1-1-.4-1.3s-.6-.5-1.1-.5-.8.2-1.2.5c-.3.3-.5.8-.6 1.3h3.3zM281.9 419.9l-1.1 3.4h-1.2l.8-3.4h1.5zM109 438.3h-1.8l-.9-2.5h-3.9l-.8 2.5h-1.8l3.7-9.8h1.8l3.7 9.8zm-3.1-3.8l-1.4-3.9c0-.1-.1-.3-.1-.6 0 .3-.1.5-.1.6l-1.3 3.9h2.9zM115.3 432l-3.8 5.1h3.8v1.2h-6v-.6l3.9-5.2h-3.5v-1.2h5.6v.7zM122.8 438.3h-1.6v-1.1c-.5.8-1.2 1.3-2.1 1.3-1.7 0-2.5-1-2.5-3v-4.2h1.6v4c0 1.3.5 1.9 1.5 1.9.5 0 .9-.2 1.2-.5.3-.3.5-.8.5-1.4v-4h1.6v7h-.2zM128.9 432.8c-.2-.2-.5-.2-.8-.2-.5 0-.9.2-1.2.6s-.5 1-.5 1.7v3.3h-1.6v-7h1.6v1.4c.2-.5.4-.9.7-1.2.3-.3.7-.4 1.1-.4.3 0 .5 0 .7.1v1.7zM135.8 435.2H131c0 .6.2 1.1.6 1.5.4.4.9.5 1.6.5.7 0 1.4-.2 2.1-.7v1.3c-.6.4-1.5.6-2.5.6s-1.8-.3-2.4-1c-.6-.6-.9-1.5-.9-2.7 0-1.1.3-2 1-2.7.6-.7 1.4-1 2.4-1s1.7.3 2.2.9.8 1.5.8 2.6v.7h-.1zm-1.5-1.1c0-.6-.1-1-.4-1.3-.3-.3-.6-.5-1.1-.5s-.8.2-1.2.5c-.3.3-.5.8-.6 1.3h3.3zM148.2 437.9c-.7.4-1.7.6-2.8.6-1.4 0-2.6-.4-3.4-1.3s-1.3-2.1-1.3-3.5c0-1.6.5-2.8 1.4-3.8 1-1 2.2-1.4 3.7-1.4.9 0 1.7.1 2.4.4v1.6c-.7-.4-1.4-.6-2.2-.6-1.1 0-1.9.3-2.6 1-.7.7-1 1.6-1 2.7s.3 1.9.9 2.6c.6.6 1.4 1 2.4 1 .9 0 1.7-.2 2.4-.7v1.4h.1zM155.5 438.3h-5.4v-9.8h1.6v8.4h3.8v1.4zM158.6 438.3h-1.7v-9.8h1.7v9.8zM162.3 436.7l-1.1 3.4H160l.8-3.4h1.5zM169.8 434.7v3.6h-1.6v-9.8h3c1.1 0 2 .3 2.6.8s.9 1.3.9 2.2-.3 1.7-1 2.3-1.5.9-2.6.9h-1.3zm0-4.9v3.6h1.1c.7 0 1.2-.2 1.6-.5s.5-.8.5-1.4c0-1.2-.7-1.7-2-1.7h-1.2zM178.8 438.5c-1.1 0-1.9-.3-2.6-1-.6-.7-1-1.5-1-2.6 0-1.2.3-2.1 1-2.8.7-.7 1.6-1 2.7-1s1.9.3 2.6 1 .9 1.5.9 2.7c0 1.1-.3 2-1 2.7-.6.6-1.4 1-2.6 1zm.1-6.1c-.6 0-1.1.2-1.5.6s-.5 1-.5 1.8c0 .7.2 1.3.5 1.7.4.4.9.6 1.5.6s1.1-.2 1.4-.6c.3-.4.5-1 .5-1.8s-.2-1.4-.5-1.8c-.3-.3-.8-.5-1.4-.5zM193.5 431.3l-2.1 7h-1.7l-1.3-4.7c0-.2-.1-.4-.1-.6 0 .2 0 .4-.1.6l-1.4 4.8h-1.6l-2.1-7h1.6l1.3 5c0 .2.1.4.1.6 0-.2 0-.4.1-.6l1.4-5h1.5l1.3 5.1c0 .2.1.4.1.6 0-.2 0-.4.1-.6l1.2-5.1 1.7-.1zM200.6 435.2h-4.8c0 .6.2 1.1.6 1.5.4.4.9.5 1.6.5.7 0 1.4-.2 2.1-.7v1.3c-.6.4-1.5.6-2.5.6s-1.8-.3-2.4-1c-.6-.6-.9-1.5-.9-2.7 0-1.1.3-2 1-2.7.6-.7 1.4-1 2.4-1s1.7.3 2.2.9.8 1.5.8 2.6v.7h-.1zm-1.6-1.1c0-.6-.1-1-.4-1.3-.3-.3-.6-.5-1.1-.5s-.8.2-1.2.5c-.3.3-.5.8-.6 1.3h3.3zM206.1 432.8c-.2-.2-.5-.2-.8-.2-.5 0-.9.2-1.2.6s-.5 1-.5 1.7v3.3H202v-7h1.6v1.4c.2-.5.4-.9.7-1.2.3-.3.7-.4 1.1-.4.3 0 .5 0 .7.1v1.7zM207 437.9v-1.7c.2.1.3.3.5.4s.4.2.7.3c.2.1.5.1.7.2s.4.1.6.1c.7 0 1.2-.1 1.5-.3.3-.2.5-.6.5-1 0-.2-.1-.4-.2-.6-.1-.2-.3-.3-.5-.5s-.4-.3-.7-.4-.6-.3-.9-.4c-.3-.2-.6-.4-.9-.5s-.5-.4-.7-.6-.4-.5-.5-.7c-.1-.3-.2-.6-.2-1 0-.5.1-.9.3-1.2.2-.3.5-.6.8-.8.3-.2.7-.4 1.2-.5.4-.1.9-.2 1.3-.2 1 0 1.8.1 2.2.3v1.6c-.6-.4-1.3-.6-2.1-.6-.2 0-.5 0-.7.1-.2 0-.5.1-.6.2-.2.1-.3.2-.5.4s-.2.4-.2.6 0 .4.1.6.2.3.4.4.4.3.6.4c.3.1.5.3.9.4.3.2.7.4 1 .6s.6.4.8.6.4.5.5.8.2.6.2 1c0 .5-.1.9-.3 1.3s-.5.6-.8.8c-.3.2-.7.4-1.2.5s-.9.1-1.4.1h-.6c-.2 0-.5-.1-.7-.1-.3 0-.5-.1-.7-.2s-.3-.3-.4-.4zM221.1 438.3h-1.6v-3.8c0-1.4-.5-2.1-1.4-2.1-.5 0-.9.2-1.2.6s-.5.9-.5 1.5v3.8h-1.6v-10.4h1.6v4.5c.5-.9 1.3-1.3 2.3-1.3 1.6 0 2.3 1 2.3 2.9l.1 4.3zM228.9 435.2h-4.8c0 .6.2 1.1.6 1.5.4.4.9.5 1.6.5.7 0 1.4-.2 2.1-.7v1.3c-.6.4-1.5.6-2.5.6s-1.8-.3-2.4-1c-.6-.6-.9-1.5-.9-2.7 0-1.1.3-2 1-2.7.6-.7 1.4-1 2.4-1s1.7.3 2.2.9.8 1.5.8 2.6v.7h-.1zm-1.5-1.1c0-.6-.1-1-.4-1.3-.3-.3-.6-.5-1.1-.5s-.8.2-1.2.5c-.3.3-.5.8-.6 1.3h3.3zM232 438.3h-1.6v-10.4h1.6v10.4zM235.7 438.3h-1.6v-10.4h1.6v10.4z"/></g><g><path fill="none" stroke="#dfdfde" stroke-width="4" stroke-linecap="round" stroke-linejoin="round" stroke-miterlimit="10" d="M46.4 274v-377"/></g><g fill="none" stroke="#dfdfde" stroke-width="4" stroke-linecap="round" stroke-linejoin="round" stroke-miterlimit="10"><path d="M96 274H46.4"/><circle cx="101.5" cy="274" r="5"/></g></svg>