<?xml version="1.0" encoding="utf-8"?>
<!-- Generator: Adobe Illustrator 19.2.0, SVG Export Plug-In . SVG Version: 6.00 Build 0)  -->
<svg version="1.1" id="Layer_1" xmlns="http://www.w3.org/2000/svg" xmlns:xlink="http://www.w3.org/1999/xlink" x="0px" y="0px"
	 width="294px" height="452px" viewBox="0 0 294 452" style="enable-background:new 0 0 294 452;" xml:space="preserve">
<g>
	<g>
		<path style="fill:#FFFFFF;stroke:#000000;stroke-width:3;stroke-linecap:round;stroke-linejoin:round;" d="M248.1,286.3
			c-5.3,32.8-36.1,55.1-68.9,49.9s-55.1-36.1-49.9-68.9c1.3-8.4,4.4-16.1,8.7-22.8c7.5-11.7,18.8-20.4,31.9-24.8
			c8.9-2.9,18.5-3.8,28.4-2.3C231,222.6,253.4,253.5,248.1,286.3z"/>
		<path style="fill:#FFFFFF;stroke:#000000;stroke-width:3;stroke-linecap:round;stroke-linejoin:round;" d="M237.4,284.5
			c-4.3,26.9-29.6,45.1-56.4,40.8s-45.1-29.6-40.8-56.4c1.1-6.9,3.6-13.2,7.1-18.7c6.1-9.6,15.4-16.7,26.1-20.3
			c7.3-2.4,15.2-3.1,23.2-1.8C223.4,232.4,241.7,257.7,237.4,284.5z"/>
	</g>
	<g>
		<path d="M211.4,279"/>
		<polygon points="160,293.4 160,290.4 160,290.4 		"/>
		<path d="M203.2,259.5l2.2-0.8v-1.8l-2.2-0.7l-0.5-1.3l1-2.1l-1.3-1.3l-2.1,1.1L199,252l-0.8-2.2h-1.8l-0.7,2.2l-1.3,0.5l-2.1-1
			l-1.3,1.3l0.7,1.3l0.4,0.8l-0.5,1.3l-1.5,0.5l-0.8,0.3v1.8l2.2,0.7l0.5,1.3l-1,2.1l1.3,1.3l2.1-1.1l1.3,0.5l0.8,2.2h1.8l0.7-2.2
			l1.2-0.5l1.9,0.9l0.2,0.1l1.3-1.3l-1.1-2.1l0.2-0.6L203.2,259.5z M199.1,259.7c-0.5,0.4-1.1,0.7-1.8,0.7c-1.4,0-2.6-1.2-2.6-2.6
			c0-0.2,0-0.4,0.1-0.6c0.3-1,1.1-1.7,2.1-1.9c0.1,0,0.3,0,0.4,0c1.1,0,2,0.7,2.4,1.7c0.1,0.3,0.2,0.6,0.2,0.9
			C199.9,258.5,199.6,259.2,199.1,259.7z"/>
		<path d="M223.3,269.4V267l-2.9-1l-0.7-1.7l1.4-2.8l-1.7-1.7l-2.8,1.4l-1.7-0.7l-1.1-3h-2.4l-1,3l-1.7,0.7l-2.8-1.3l-1.7,1.7
			l1.4,2.8l-0.2,0.5l-0.5,1.1l-1.5,0.5l-1.5,0.5v2.4l1.9,0.6l1.1,0.4l0.7,1.7l-1,2.1l-0.4,0.8l1.7,1.7l1.6-0.8l1.2-0.6l1.7,0.7
			l1.1,2.9h0.9h1.5l1-2.9l1.7-0.7l2.8,1.3l1.7-1.7l-1.4-2.7l0.7-1.7L223.3,269.4z M212.6,271.7c-1.9,0-3.4-1.5-3.4-3.4
			c0-1.9,1.5-3.4,3.4-3.4s3.4,1.5,3.4,3.4C216,270.2,214.5,271.7,212.6,271.7z"/>
		<polygon points="172.3,278.2 172.3,289.7 187.7,289.7 187.7,276.1 		"/>
		<polygon points="160,289.7 171.8,289.7 171.8,278.3 160,279.9 		"/>
		<polygon points="172.3,292.6 172.3,295.2 172.3,301.6 187.7,303.7 187.7,295.2 187.7,292.6 187.7,290.1 172.3,290.1 		"/>
		<polygon points="160,290.4 160,293.4 160,299.9 171.8,301.5 171.8,295.2 171.8,292.6 171.8,290.1 160,290.1 		"/>
		<path d="M210,279.8c0.3,1,0.5,2,0.5,3.1c0,5.5-4.2,9.7-9.8,9.7H189v2.5h11.8c7,0,12.3-5.3,12.3-12.2c0-1.1-0.2-2.2-0.5-3.2
			L210,279.8z"/>
		<path d="M190.8,254.8l-0.4-0.7c-5,0.3-9.4,3.1-11.9,7.5c-1.9-1.6-4.3-2.5-6.9-2.5c-5.9,0-10.6,4.9-10.6,11c0,0.6,0.1,1.3,0.2,1.9
			c-4.4,2-7,6.1-7,10.9c0,3.9,1.8,7.4,4.6,9.6V289c-1.3-1.6-2.1-3.7-2.1-6.1c0-4.1,2.4-7.5,6.4-9c0.6-0.2,0.9-0.9,0.8-1.5
			c-0.2-0.8-0.3-1.6-0.3-2.4c0-4.7,3.6-8.4,8.1-8.4c2.5,0,4.8,1,6.2,2.9c0.3,0.4,0.7,0.5,1.2,0.5c0.4-0.1,0.8-0.4,1-0.8
			c1.5-3.7,4.6-6.4,8.3-7.3l0.2-0.8l2-0.7L190.8,254.8z"/>
	</g>
	<g>
		<path d="M128.8,371.1H127l-0.9-2.5h-3.9l-0.8,2.5h-1.8l3.7-9.8h1.8L128.8,371.1z M125.7,367.3l-1.4-3.9c0-0.1-0.1-0.3-0.1-0.6l0,0
			c0,0.3-0.1,0.5-0.1,0.6l-1.3,3.9H125.7z"/>
		<path d="M137.1,362l-5.4,7.7h5.3v1.4h-7.6v-0.7l5.4-7.7h-5v-1.4h7.2v0.7H137.1z"/>
		<path d="M146.2,367.1c0,2.8-1.3,4.1-3.9,4.1c-2.5,0-3.7-1.3-3.7-4v-6h1.6v5.7c0,1.9,0.7,2.9,2.2,2.9c1.4,0,2.2-0.9,2.2-2.8v-5.8
			h1.6L146.2,367.1L146.2,367.1z"/>
		<path d="M156.1,371.1h-1.9l-1.6-2.6c-0.1-0.2-0.3-0.4-0.4-0.6c-0.1-0.2-0.3-0.3-0.4-0.4c-0.1-0.1-0.3-0.2-0.5-0.2
			s-0.3-0.1-0.6-0.1H150v4h-1.6v-9.8h3.2c0.5,0,0.9,0.1,1.3,0.2s0.7,0.3,1,0.5s0.5,0.5,0.7,0.8s0.2,0.7,0.2,1.2c0,0.3-0.1,0.7-0.2,1
			c-0.1,0.3-0.2,0.5-0.4,0.8c-0.2,0.2-0.4,0.4-0.7,0.6s-0.6,0.3-0.9,0.4l0,0c0.2,0.1,0.3,0.2,0.5,0.3c0.1,0.1,0.3,0.2,0.4,0.4
			s0.2,0.3,0.4,0.4c0.1,0.2,0.2,0.3,0.4,0.6L156.1,371.1z M150.1,362.6v3.2h1.4c0.3,0,0.5,0,0.7-0.1s0.4-0.2,0.6-0.3
			s0.3-0.3,0.4-0.5s0.1-0.4,0.1-0.7c0-0.5-0.1-0.8-0.4-1.1s-0.7-0.4-1.3-0.4h-1.5V362.6z"/>
		<path d="M162.7,371.1h-5.5v-9.8h5.3v1.4h-3.7v2.8h3.4v1.4h-3.4v2.9h3.9V371.1z"/>
		<path d="M178.9,371.1h-1.6v-6.3c0-0.5,0-1.2,0.1-1.9l0,0c-0.1,0.4-0.2,0.7-0.3,0.9l-2.9,7.3H173l-2.9-7.3c-0.1-0.2-0.2-0.5-0.3-1
			l0,0c0,0.4,0.1,1,0.1,1.9v6.3h-1.5v-9.8h2.3l2.6,6.5c0.2,0.5,0.3,0.9,0.4,1.1l0,0c0.2-0.5,0.3-0.9,0.4-1.1l2.6-6.5h2.2
			L178.9,371.1L178.9,371.1z"/>
		<path d="M189.3,371.1h-1.8l-0.9-2.5h-3.9l-0.8,2.5h-1.8l3.7-9.8h1.8L189.3,371.1z M186.2,367.3l-1.4-3.9c0-0.1-0.1-0.3-0.1-0.6
			l0,0c0,0.3-0.1,0.5-0.1,0.6l-1.3,3.9H186.2z"/>
		<path d="M199,371.1h-1.8l-4.7-7.2c-0.1-0.2-0.2-0.4-0.3-0.6l0,0c0,0.2,0.1,0.7,0.1,1.3v6.4h-1.6v-9.8h1.9l4.5,7
			c0.2,0.3,0.3,0.5,0.4,0.6l0,0c0-0.3-0.1-0.7-0.1-1.3v-6.3h1.6L199,371.1L199,371.1z"/>
		<path d="M209.5,371.1h-1.8l-0.9-2.5h-3.9l-0.8,2.5h-1.8l3.7-9.8h1.8L209.5,371.1z M206.4,367.3l-1.4-3.9c0-0.1-0.1-0.3-0.1-0.6
			l0,0c0,0.3-0.1,0.5-0.1,0.6l-1.3,3.9H206.4z"/>
		<path d="M218.3,370.4c-1,0.6-2.2,0.8-3.4,0.8c-1.4,0-2.6-0.5-3.5-1.4s-1.3-2.1-1.3-3.6s0.5-2.8,1.5-3.7c1-1,2.2-1.5,3.7-1.5
			c1.1,0,2,0.2,2.7,0.5v1.7c-0.8-0.5-1.6-0.8-2.7-0.8c-1,0-1.9,0.3-2.6,1c-0.7,0.7-1,1.6-1,2.7s0.3,2,0.9,2.7c0.6,0.6,1.4,1,2.3,1
			c0.7,0,1.3-0.1,1.8-0.4v-2.3h-2.1v-1.4h3.7L218.3,370.4L218.3,370.4z"/>
		<path d="M225.9,371.1h-5.5v-9.8h5.3v1.4H222v2.8h3.4v1.4H222v2.9h3.9V371.1z"/>
		<path d="M238.2,371.1h-1.6v-6.3c0-0.5,0-1.2,0.1-1.9l0,0c-0.1,0.4-0.2,0.7-0.3,0.9l-2.9,7.3h-1.1l-2.9-7.3c-0.1-0.2-0.2-0.5-0.3-1
			l0,0c0,0.4,0.1,1,0.1,1.9v6.3h-1.5v-9.8h2.3l2.6,6.5c0.2,0.5,0.3,0.9,0.4,1.1l0,0c0.2-0.5,0.3-0.9,0.4-1.1l2.6-6.5h2.2v9.9H238.2z
			"/>
		<path d="M246.1,371.1h-5.5v-9.8h5.3v1.4h-3.7v2.8h3.4v1.4h-3.4v2.9h3.9V371.1z"/>
		<path d="M256.1,371.1h-1.8l-4.7-7.2c-0.1-0.2-0.2-0.4-0.3-0.6l0,0c0,0.2,0.1,0.7,0.1,1.3v6.4h-1.6v-9.8h1.9l4.5,7
			c0.2,0.3,0.3,0.5,0.4,0.6l0,0c0-0.3-0.1-0.7-0.1-1.3v-6.3h1.6L256.1,371.1L256.1,371.1z"/>
		<path d="M264.9,362.7H262v8.4h-1.6v-8.4h-2.8v-1.4h7.3V362.7z"/>
		<path d="M178.4,379.5h-2.8v8.4H174v-8.4h-2.8v-1.4h7.3v1.4H178.4z"/>
		<path d="M183.3,388.1c-1.4,0-2.5-0.5-3.4-1.4c-0.8-0.9-1.3-2.1-1.3-3.6c0-1.6,0.4-2.8,1.3-3.8s2-1.4,3.5-1.4
			c1.4,0,2.5,0.5,3.3,1.4s1.3,2.1,1.3,3.6c0,1.6-0.4,2.9-1.3,3.8C185.9,387.6,184.8,388.1,183.3,388.1z M183.4,379.4
			c-0.9,0-1.6,0.3-2.2,1c-0.6,0.7-0.8,1.6-0.8,2.6c0,1.1,0.3,2,0.8,2.6s1.3,1,2.1,1c0.9,0,1.7-0.3,2.2-1c0.5-0.6,0.8-1.5,0.8-2.7
			s-0.3-2.1-0.8-2.7C185.1,379.7,184.3,379.4,183.4,379.4z"/>
		<path d="M193.9,388.1c-1.4,0-2.5-0.5-3.4-1.4c-0.8-0.9-1.3-2.1-1.3-3.6c0-1.6,0.4-2.8,1.3-3.8s2-1.4,3.5-1.4
			c1.4,0,2.5,0.5,3.3,1.4s1.3,2.1,1.3,3.6c0,1.6-0.4,2.9-1.3,3.8S195.3,388.1,193.9,388.1z M194,379.4c-0.9,0-1.6,0.3-2.2,1
			c-0.6,0.7-0.8,1.6-0.8,2.6c0,1.1,0.3,2,0.8,2.6s1.3,1,2.1,1c0.9,0,1.7-0.3,2.2-1s0.8-1.5,0.8-2.7s-0.3-2.1-0.8-2.7
			C195.6,379.7,194.9,379.4,194,379.4z"/>
		<path d="M205.9,387.9h-5.4v-9.8h1.6v8.4h3.8L205.9,387.9L205.9,387.9z"/>
		<path d="M206.8,387.5v-1.7c0.2,0.1,0.3,0.3,0.5,0.4s0.4,0.2,0.7,0.3c0.2,0.1,0.5,0.1,0.7,0.2s0.4,0.1,0.6,0.1
			c0.7,0,1.2-0.1,1.5-0.3c0.3-0.2,0.5-0.6,0.5-1c0-0.2-0.1-0.4-0.2-0.6c-0.1-0.2-0.3-0.3-0.5-0.5s-0.4-0.3-0.7-0.4s-0.6-0.3-0.9-0.4
			c-0.3-0.2-0.6-0.4-0.9-0.5s-0.5-0.4-0.7-0.6s-0.4-0.5-0.5-0.7c-0.1-0.3-0.2-0.6-0.2-1c0-0.5,0.1-0.9,0.3-1.2
			c0.2-0.3,0.5-0.6,0.8-0.8c0.3-0.2,0.7-0.4,1.2-0.5c0.4-0.1,0.9-0.2,1.3-0.2c1,0,1.8,0.1,2.2,0.3v1.6c-0.6-0.4-1.3-0.6-2.1-0.6
			c-0.2,0-0.5,0-0.7,0.1c-0.2,0-0.5,0.1-0.6,0.2c-0.2,0.1-0.3,0.2-0.5,0.4s-0.2,0.4-0.2,0.6s0,0.4,0.1,0.6s0.2,0.3,0.4,0.4
			s0.4,0.3,0.6,0.4c0.3,0.1,0.5,0.3,0.9,0.4c0.3,0.2,0.7,0.4,1,0.6s0.6,0.4,0.8,0.6s0.4,0.5,0.5,0.8s0.2,0.6,0.2,1
			c0,0.5-0.1,0.9-0.3,1.3s-0.5,0.6-0.8,0.8c-0.3,0.2-0.7,0.4-1.2,0.5s-0.9,0.1-1.4,0.1c-0.2,0-0.4,0-0.6,0c-0.2,0-0.5-0.1-0.7-0.1
			c-0.3,0-0.5-0.1-0.7-0.2S207,387.6,206.8,387.5z"/>
		<path d="M109,421.5h-1.8l-0.9-2.5h-3.9l-0.8,2.5h-1.8l3.7-9.8h1.8L109,421.5z M105.9,417.7l-1.4-3.9c0-0.1-0.1-0.3-0.1-0.6l0,0
			c0,0.3-0.1,0.5-0.1,0.6l-1.3,3.9H105.9z"/>
		<path d="M115.3,415.2l-3.8,5.1h3.8v1.2h-6v-0.6l3.9-5.2h-3.5v-1.2h5.6V415.2z"/>
		<path d="M122.8,421.5h-1.6v-1.1l0,0c-0.5,0.8-1.2,1.3-2.1,1.3c-1.7,0-2.5-1-2.5-3v-4.2h1.6v4c0,1.3,0.5,1.9,1.5,1.9
			c0.5,0,0.9-0.2,1.2-0.5c0.3-0.3,0.5-0.8,0.5-1.4v-4h1.6v7H122.8z"/>
		<path d="M128.9,416c-0.2-0.2-0.5-0.2-0.8-0.2c-0.5,0-0.9,0.2-1.2,0.6s-0.5,1-0.5,1.7v3.3h-1.6v-7h1.6v1.4l0,0
			c0.2-0.5,0.4-0.9,0.7-1.2c0.3-0.3,0.7-0.4,1.1-0.4c0.3,0,0.5,0,0.7,0.1V416z"/>
		<path d="M135.8,418.4H131c0,0.6,0.2,1.1,0.6,1.5c0.4,0.4,0.9,0.5,1.6,0.5c0.7,0,1.4-0.2,2.1-0.7v1.3c-0.6,0.4-1.5,0.6-2.5,0.6
			s-1.8-0.3-2.4-1c-0.6-0.6-0.9-1.5-0.9-2.7c0-1.1,0.3-2,1-2.7c0.6-0.7,1.4-1,2.4-1s1.7,0.3,2.2,0.9s0.8,1.5,0.8,2.6v0.7H135.8z
			 M134.3,417.3c0-0.6-0.1-1-0.4-1.3c-0.3-0.3-0.6-0.5-1.1-0.5s-0.8,0.2-1.2,0.5c-0.3,0.3-0.5,0.8-0.6,1.3H134.3z"/>
		<path d="M151.9,421.5h-1.6v-6.3c0-0.5,0-1.2,0.1-1.9l0,0c-0.1,0.4-0.2,0.7-0.3,0.9l-2.9,7.3H146l-2.9-7.3c-0.1-0.2-0.2-0.5-0.3-1
			l0,0c0,0.4,0.1,1,0.1,1.9v6.3h-1.5v-9.8h2.3l2.6,6.5c0.2,0.5,0.3,0.9,0.4,1.1l0,0c0.2-0.5,0.3-0.9,0.4-1.1l2.6-6.5h2.2
			L151.9,421.5L151.9,421.5z"/>
		<path d="M159.5,421.5H158v-1.1l0,0c-0.5,0.8-1.2,1.3-2.1,1.3c-0.7,0-1.2-0.2-1.6-0.6c-0.4-0.4-0.6-0.9-0.6-1.5
			c0-1.3,0.8-2.1,2.3-2.3l2.1-0.3c0-1-0.5-1.5-1.4-1.5c-0.8,0-1.6,0.3-2.3,0.9V415c0.7-0.4,1.6-0.7,2.6-0.7c1.8,0,2.7,0.9,2.7,2.6
			v4.6H159.5z M158,418.1l-1.5,0.2c-0.5,0.1-0.8,0.2-1,0.3c-0.2,0.2-0.3,0.4-0.3,0.9c0,0.3,0.1,0.5,0.3,0.7s0.5,0.3,0.9,0.3
			c0.5,0,0.9-0.2,1.2-0.5s0.5-0.8,0.5-1.3L158,418.1L158,418.1z"/>
		<path d="M167.7,421.5h-1.6v-3.9c0-1.3-0.5-2-1.4-2c-0.5,0-0.9,0.2-1.2,0.5c-0.3,0.4-0.5,0.8-0.5,1.4v4h-1.6v-7h1.6v1.2l0,0
			c0.5-0.9,1.3-1.3,2.3-1.3c0.8,0,1.3,0.2,1.7,0.7s0.6,1.2,0.6,2.1L167.7,421.5L167.7,421.5z"/>
		<path d="M175,421.5h-1.5v-1.1l0,0c-0.5,0.8-1.2,1.3-2.1,1.3c-0.7,0-1.2-0.2-1.6-0.6c-0.4-0.4-0.6-0.9-0.6-1.5
			c0-1.3,0.8-2.1,2.3-2.3l2.1-0.3c0-1-0.5-1.5-1.4-1.5c-0.8,0-1.6,0.3-2.3,0.9V415c0.7-0.4,1.6-0.7,2.6-0.7c1.8,0,2.7,0.9,2.7,2.6
			v4.6H175z M173.4,418.1l-1.5,0.2c-0.5,0.1-0.8,0.2-1,0.3c-0.2,0.2-0.3,0.4-0.3,0.9c0,0.3,0.1,0.5,0.3,0.7s0.5,0.3,0.9,0.3
			c0.5,0,0.9-0.2,1.2-0.5s0.5-0.8,0.5-1.3L173.4,418.1L173.4,418.1z"/>
		<path d="M183.3,420.9c0,2.6-1.3,3.9-3.9,3.9c-0.9,0-1.7-0.2-2.4-0.5v-1.4c0.8,0.4,1.5,0.7,2.2,0.7c1.7,0,2.5-0.8,2.5-2.5v-0.8l0,0
			c-0.5,0.9-1.3,1.3-2.4,1.3c-0.9,0-1.5-0.3-2.1-0.9c-0.5-0.6-0.8-1.5-0.8-2.5c0-1.2,0.3-2.1,0.8-2.8s1.3-1.1,2.3-1.1
			c0.9,0,1.6,0.4,2.1,1.1l0,0v-1h1.6L183.3,420.9L183.3,420.9z M181.7,418.3v-0.9c0-0.5-0.2-0.9-0.5-1.3c-0.3-0.3-0.7-0.5-1.2-0.5
			c-0.6,0-1.1,0.2-1.4,0.7c-0.3,0.4-0.5,1.1-0.5,1.9c0,0.7,0.2,1.2,0.5,1.7c0.3,0.4,0.8,0.6,1.3,0.6s1-0.2,1.3-0.6
			C181.5,419.4,181.7,418.9,181.7,418.3z"/>
		<path d="M191.3,418.4h-4.8c0,0.6,0.2,1.1,0.6,1.5c0.4,0.4,0.9,0.5,1.6,0.5c0.7,0,1.4-0.2,2.1-0.7v1.3c-0.6,0.4-1.5,0.6-2.5,0.6
			s-1.8-0.3-2.4-1c-0.6-0.6-0.9-1.5-0.9-2.7c0-1.1,0.3-2,1-2.7c0.6-0.7,1.4-1,2.4-1s1.7,0.3,2.2,0.9s0.8,1.5,0.8,2.6v0.7H191.3z
			 M189.7,417.3c0-0.6-0.1-1-0.4-1.3c-0.3-0.3-0.6-0.5-1.1-0.5s-0.8,0.2-1.2,0.5c-0.3,0.3-0.5,0.8-0.6,1.3H189.7z"/>
		<path d="M203.3,421.5h-1.6v-3.8c0-0.7-0.1-1.3-0.3-1.6c-0.2-0.3-0.6-0.5-1-0.5s-0.8,0.2-1.1,0.6s-0.4,0.9-0.4,1.5v3.8h-1.6v-3.9
			c0-1.3-0.5-2-1.4-2c-0.4,0-0.8,0.2-1.1,0.6s-0.4,0.9-0.4,1.5v3.8h-1.6v-7h1.6v1.1l0,0c0.5-0.8,1.2-1.3,2.2-1.3
			c0.5,0,0.9,0.1,1.3,0.4c0.4,0.3,0.6,0.6,0.7,1c0.5-1,1.3-1.4,2.3-1.4c1.5,0,2.3,1,2.3,2.9v4.3H203.3z"/>
		<path d="M211.1,418.4h-4.8c0,0.6,0.2,1.1,0.6,1.5c0.4,0.4,0.9,0.5,1.6,0.5c0.7,0,1.4-0.2,2.1-0.7v1.3c-0.6,0.4-1.5,0.6-2.5,0.6
			s-1.8-0.3-2.4-1c-0.6-0.6-0.9-1.5-0.9-2.7c0-1.1,0.3-2,1-2.7c0.6-0.7,1.4-1,2.4-1s1.7,0.3,2.2,0.9s0.8,1.5,0.8,2.6v0.7H211.1z
			 M209.6,417.3c0-0.6-0.1-1-0.4-1.3c-0.3-0.3-0.6-0.5-1.1-0.5s-0.8,0.2-1.2,0.5c-0.3,0.3-0.5,0.8-0.6,1.3H209.6z"/>
		<path d="M218.9,421.5h-1.6v-3.9c0-1.3-0.5-2-1.4-2c-0.5,0-0.9,0.2-1.2,0.5c-0.3,0.4-0.5,0.8-0.5,1.4v4h-1.6v-7h1.6v1.2l0,0
			c0.5-0.9,1.3-1.3,2.3-1.3c0.8,0,1.3,0.2,1.7,0.7s0.6,1.2,0.6,2.1L218.9,421.5L218.9,421.5z"/>
		<path d="M224.5,421.4c-0.3,0.2-0.7,0.2-1.2,0.2c-1.4,0-2-0.7-2-2v-4h-1.2v-1.2h1.2v-1.6l1.6-0.5v2.1h1.7v1.2h-1.7v3.5
			c0,0.4,0.1,0.7,0.2,0.9s0.4,0.3,0.8,0.3c0.3,0,0.5-0.1,0.7-0.2v1.3H224.5z"/>
		<path d="M236.7,421.1c-0.7,0.4-1.7,0.6-2.8,0.6c-1.4,0-2.6-0.4-3.4-1.3s-1.3-2.1-1.3-3.5c0-1.6,0.5-2.8,1.4-3.8
			c1-1,2.2-1.4,3.7-1.4c0.9,0,1.7,0.1,2.4,0.4v1.6c-0.7-0.4-1.4-0.6-2.2-0.6c-1.1,0-1.9,0.3-2.6,1c-0.7,0.7-1,1.6-1,2.7
			s0.3,1.9,0.9,2.6c0.6,0.6,1.4,1,2.4,1c0.9,0,1.7-0.2,2.4-0.7v1.4H236.7z"/>
		<path d="M241.5,421.7c-1.1,0-1.9-0.3-2.6-1c-0.6-0.7-1-1.5-1-2.6c0-1.2,0.3-2.1,1-2.8c0.7-0.7,1.6-1,2.7-1c1.1,0,1.9,0.3,2.6,1
			s0.9,1.5,0.9,2.7c0,1.1-0.3,2-1,2.7C243.5,421.3,242.6,421.7,241.5,421.7z M241.6,415.6c-0.6,0-1.1,0.2-1.5,0.6s-0.5,1-0.5,1.8
			c0,0.7,0.2,1.3,0.5,1.7c0.4,0.4,0.9,0.6,1.5,0.6s1.1-0.2,1.4-0.6c0.3-0.4,0.5-1,0.5-1.8s-0.2-1.4-0.5-1.8
			C242.7,415.8,242.2,415.6,241.6,415.6z"/>
		<path d="M253,421.5h-1.6v-3.9c0-1.3-0.5-2-1.4-2c-0.5,0-0.9,0.2-1.2,0.5c-0.3,0.4-0.5,0.8-0.5,1.4v4h-1.6v-7h1.6v1.2l0,0
			c0.5-0.9,1.3-1.3,2.3-1.3c0.8,0,1.3,0.2,1.7,0.7s0.6,1.2,0.6,2.1L253,421.5L253,421.5z"/>
		<path d="M254.5,421.3v-1.5c0.6,0.5,1.2,0.7,2,0.7c1,0,1.4-0.3,1.4-0.8c0-0.2,0-0.3-0.1-0.4s-0.2-0.2-0.3-0.3
			c-0.1-0.1-0.3-0.2-0.5-0.2c-0.2-0.1-0.4-0.1-0.6-0.2c-0.3-0.1-0.5-0.2-0.8-0.4c-0.2-0.1-0.4-0.3-0.6-0.4c-0.2-0.2-0.3-0.3-0.3-0.6
			s-0.1-0.4-0.1-0.7c0-0.3,0.1-0.6,0.2-0.9c0.2-0.3,0.4-0.5,0.6-0.7c0.3-0.2,0.6-0.3,0.9-0.4c0.3-0.1,0.7-0.1,1.1-0.1
			c0.6,0,1.2,0.1,1.7,0.3v1.4c-0.5-0.3-1.1-0.5-1.7-0.5c-0.2,0-0.4,0-0.5,0.1c-0.2,0-0.3,0.1-0.4,0.2s-0.2,0.2-0.3,0.3
			c-0.1,0.1-0.1,0.2-0.1,0.3c0,0.2,0,0.3,0.1,0.4s0.2,0.2,0.3,0.3c0.1,0.1,0.3,0.2,0.5,0.2c0.2,0.1,0.4,0.1,0.6,0.2
			c0.3,0.1,0.6,0.2,0.8,0.4c0.2,0.1,0.4,0.3,0.6,0.4c0.2,0.2,0.3,0.3,0.4,0.6c0.1,0.2,0.1,0.5,0.1,0.8c0,0.4-0.1,0.7-0.2,0.9
			s-0.4,0.5-0.7,0.7s-0.6,0.3-0.9,0.4c-0.4,0.1-0.7,0.1-1.1,0.1C255.7,421.7,255,421.5,254.5,421.3z"/>
		<path d="M264.1,421.7c-1.1,0-1.9-0.3-2.6-1c-0.6-0.7-1-1.5-1-2.6c0-1.2,0.3-2.1,1-2.8c0.7-0.7,1.6-1,2.7-1s1.9,0.3,2.6,1
			s0.9,1.5,0.9,2.7c0,1.1-0.3,2-1,2.7C266.1,421.3,265.2,421.7,264.1,421.7z M264.1,415.6c-0.6,0-1.1,0.2-1.5,0.6s-0.5,1-0.5,1.8
			c0,0.7,0.2,1.3,0.5,1.7c0.4,0.4,0.9,0.6,1.5,0.6s1.1-0.2,1.4-0.6s0.5-1,0.5-1.8s-0.2-1.4-0.5-1.8
			C265.2,415.8,264.8,415.6,264.1,415.6z"/>
		<path d="M270.9,421.5h-1.6v-10.4h1.6V421.5z"/>
		<path d="M278.9,418.4h-4.8c0,0.6,0.2,1.1,0.6,1.5s0.9,0.5,1.6,0.5s1.4-0.2,2.1-0.7v1.3c-0.6,0.4-1.5,0.6-2.5,0.6s-1.8-0.3-2.4-1
			c-0.6-0.6-0.9-1.5-0.9-2.7c0-1.1,0.3-2,1-2.7c0.6-0.7,1.4-1,2.4-1s1.7,0.3,2.2,0.9s0.8,1.5,0.8,2.6v0.7H278.9z M277.4,417.3
			c0-0.6-0.1-1-0.4-1.3s-0.6-0.5-1.1-0.5s-0.8,0.2-1.2,0.5c-0.3,0.3-0.5,0.8-0.6,1.3H277.4z"/>
		<path d="M281.9,419.9l-1.1,3.4h-1.2l0.8-3.4H281.9z"/>
		<path d="M109,438.3h-1.8l-0.9-2.5h-3.9l-0.8,2.5h-1.8l3.7-9.8h1.8L109,438.3z M105.9,434.5l-1.4-3.9c0-0.1-0.1-0.3-0.1-0.6l0,0
			c0,0.3-0.1,0.5-0.1,0.6l-1.3,3.9H105.9z"/>
		<path d="M115.3,432l-3.8,5.1h3.8v1.2h-6v-0.6l3.9-5.2h-3.5v-1.2h5.6V432z"/>
		<path d="M122.8,438.3h-1.6v-1.1l0,0c-0.5,0.8-1.2,1.3-2.1,1.3c-1.7,0-2.5-1-2.5-3v-4.2h1.6v4c0,1.3,0.5,1.9,1.5,1.9
			c0.5,0,0.9-0.2,1.2-0.5c0.3-0.3,0.5-0.8,0.5-1.4v-4h1.6v7H122.8z"/>
		<path d="M128.9,432.8c-0.2-0.2-0.5-0.2-0.8-0.2c-0.5,0-0.9,0.2-1.2,0.6s-0.5,1-0.5,1.7v3.3h-1.6v-7h1.6v1.4l0,0
			c0.2-0.5,0.4-0.9,0.7-1.2c0.3-0.3,0.7-0.4,1.1-0.4c0.3,0,0.5,0,0.7,0.1V432.8z"/>
		<path d="M135.8,435.2H131c0,0.6,0.2,1.1,0.6,1.5c0.4,0.4,0.9,0.5,1.6,0.5c0.7,0,1.4-0.2,2.1-0.7v1.3c-0.6,0.4-1.5,0.6-2.5,0.6
			s-1.8-0.3-2.4-1c-0.6-0.6-0.9-1.5-0.9-2.7c0-1.1,0.3-2,1-2.7c0.6-0.7,1.4-1,2.4-1s1.7,0.3,2.2,0.9s0.8,1.5,0.8,2.6v0.7H135.8z
			 M134.3,434.1c0-0.6-0.1-1-0.4-1.3c-0.3-0.3-0.6-0.5-1.1-0.5s-0.8,0.2-1.2,0.5c-0.3,0.3-0.5,0.8-0.6,1.3H134.3z"/>
		<path d="M148.2,437.9c-0.7,0.4-1.7,0.6-2.8,0.6c-1.4,0-2.6-0.4-3.4-1.3s-1.3-2.1-1.3-3.5c0-1.6,0.5-2.8,1.4-3.8
			c1-1,2.2-1.4,3.7-1.4c0.9,0,1.7,0.1,2.4,0.4v1.6c-0.7-0.4-1.4-0.6-2.2-0.6c-1.1,0-1.9,0.3-2.6,1c-0.7,0.7-1,1.6-1,2.7
			s0.3,1.9,0.9,2.6c0.6,0.6,1.4,1,2.4,1c0.9,0,1.7-0.2,2.4-0.7v1.4H148.2z"/>
		<path d="M155.5,438.3h-5.4v-9.8h1.6v8.4h3.8L155.5,438.3L155.5,438.3z"/>
		<path d="M158.6,438.3h-1.7v-9.8h1.7V438.3z"/>
		<path d="M162.3,436.7l-1.1,3.4H160l0.8-3.4H162.3z"/>
		<path d="M169.8,434.7v3.6h-1.6v-9.8h3c1.1,0,2,0.3,2.6,0.8s0.9,1.3,0.9,2.2s-0.3,1.7-1,2.3s-1.5,0.9-2.6,0.9H169.8z M169.8,429.8
			v3.6h1.1c0.7,0,1.2-0.2,1.6-0.5s0.5-0.8,0.5-1.4c0-1.2-0.7-1.7-2-1.7H169.8z"/>
		<path d="M178.8,438.5c-1.1,0-1.9-0.3-2.6-1c-0.6-0.7-1-1.5-1-2.6c0-1.2,0.3-2.1,1-2.8c0.7-0.7,1.6-1,2.7-1c1.1,0,1.9,0.3,2.6,1
			s0.9,1.5,0.9,2.7c0,1.1-0.3,2-1,2.7C180.8,438.1,180,438.5,178.8,438.5z M178.9,432.4c-0.6,0-1.1,0.2-1.5,0.6s-0.5,1-0.5,1.8
			c0,0.7,0.2,1.3,0.5,1.7c0.4,0.4,0.9,0.6,1.5,0.6s1.1-0.2,1.4-0.6c0.3-0.4,0.5-1,0.5-1.8s-0.2-1.4-0.5-1.8
			C180,432.6,179.5,432.4,178.9,432.4z"/>
		<path d="M193.5,431.3l-2.1,7h-1.7l-1.3-4.7c0-0.2-0.1-0.4-0.1-0.6l0,0c0,0.2,0,0.4-0.1,0.6l-1.4,4.8h-1.6l-2.1-7h1.6l1.3,5
			c0,0.2,0.1,0.4,0.1,0.6l0,0c0-0.2,0-0.4,0.1-0.6l1.4-5h1.5l1.3,5.1c0,0.2,0.1,0.4,0.1,0.6l0,0c0-0.2,0-0.4,0.1-0.6l1.2-5.1
			L193.5,431.3L193.5,431.3z"/>
		<path d="M200.6,435.2h-4.8c0,0.6,0.2,1.1,0.6,1.5c0.4,0.4,0.9,0.5,1.6,0.5c0.7,0,1.4-0.2,2.1-0.7v1.3c-0.6,0.4-1.5,0.6-2.5,0.6
			s-1.8-0.3-2.4-1c-0.6-0.6-0.9-1.5-0.9-2.7c0-1.1,0.3-2,1-2.7c0.6-0.7,1.4-1,2.4-1s1.7,0.3,2.2,0.9s0.8,1.5,0.8,2.6v0.7H200.6z
			 M199,434.1c0-0.6-0.1-1-0.4-1.3c-0.3-0.3-0.6-0.5-1.1-0.5s-0.8,0.2-1.2,0.5c-0.3,0.3-0.5,0.8-0.6,1.3H199z"/>
		<path d="M206.1,432.8c-0.2-0.2-0.5-0.2-0.8-0.2c-0.5,0-0.9,0.2-1.2,0.6s-0.5,1-0.5,1.7v3.3H202v-7h1.6v1.4l0,0
			c0.2-0.5,0.4-0.9,0.7-1.2c0.3-0.3,0.7-0.4,1.1-0.4c0.3,0,0.5,0,0.7,0.1V432.8z"/>
		<path d="M207,437.9v-1.7c0.2,0.1,0.3,0.3,0.5,0.4s0.4,0.2,0.7,0.3c0.2,0.1,0.5,0.1,0.7,0.2s0.4,0.1,0.6,0.1c0.7,0,1.2-0.1,1.5-0.3
			c0.3-0.2,0.5-0.6,0.5-1c0-0.2-0.1-0.4-0.2-0.6c-0.1-0.2-0.3-0.3-0.5-0.5s-0.4-0.3-0.7-0.4s-0.6-0.3-0.9-0.4
			c-0.3-0.2-0.6-0.4-0.9-0.5s-0.5-0.4-0.7-0.6s-0.4-0.5-0.5-0.7c-0.1-0.3-0.2-0.6-0.2-1c0-0.5,0.1-0.9,0.3-1.2
			c0.2-0.3,0.5-0.6,0.8-0.8c0.3-0.2,0.7-0.4,1.2-0.5c0.4-0.1,0.9-0.2,1.3-0.2c1,0,1.8,0.1,2.2,0.3v1.6c-0.6-0.4-1.3-0.6-2.1-0.6
			c-0.2,0-0.5,0-0.7,0.1c-0.2,0-0.5,0.1-0.6,0.2c-0.2,0.1-0.3,0.2-0.5,0.4s-0.2,0.4-0.2,0.6s0,0.4,0.1,0.6s0.2,0.3,0.4,0.4
			s0.4,0.3,0.6,0.4c0.3,0.1,0.5,0.3,0.9,0.4c0.3,0.2,0.7,0.4,1,0.6s0.6,0.4,0.8,0.6s0.4,0.5,0.5,0.8s0.2,0.6,0.2,1
			c0,0.5-0.1,0.9-0.3,1.3s-0.5,0.6-0.8,0.8c-0.3,0.2-0.7,0.4-1.2,0.5s-0.9,0.1-1.4,0.1c-0.2,0-0.4,0-0.6,0c-0.2,0-0.5-0.1-0.7-0.1
			c-0.3,0-0.5-0.1-0.7-0.2S207.1,438,207,437.9z"/>
		<path d="M221.1,438.3h-1.6v-3.8c0-1.4-0.5-2.1-1.4-2.1c-0.5,0-0.9,0.2-1.2,0.6s-0.5,0.9-0.5,1.5v3.8h-1.6v-10.4h1.6v4.5l0,0
			c0.5-0.9,1.3-1.3,2.3-1.3c1.6,0,2.3,1,2.3,2.9L221.1,438.3L221.1,438.3z"/>
		<path d="M228.9,435.2h-4.8c0,0.6,0.2,1.1,0.6,1.5c0.4,0.4,0.9,0.5,1.6,0.5c0.7,0,1.4-0.2,2.1-0.7v1.3c-0.6,0.4-1.5,0.6-2.5,0.6
			s-1.8-0.3-2.4-1c-0.6-0.6-0.9-1.5-0.9-2.7c0-1.1,0.3-2,1-2.7c0.6-0.7,1.4-1,2.4-1s1.7,0.3,2.2,0.9s0.8,1.5,0.8,2.6v0.7H228.9z
			 M227.4,434.1c0-0.6-0.1-1-0.4-1.3c-0.3-0.3-0.6-0.5-1.1-0.5s-0.8,0.2-1.2,0.5c-0.3,0.3-0.5,0.8-0.6,1.3H227.4z"/>
		<path d="M232,438.3h-1.6v-10.4h1.6V438.3z"/>
		<path d="M235.7,438.3h-1.6v-10.4h1.6V438.3z"/>
	</g>
</g>
<g>
	
		<line style="fill:none;stroke:#DFDFDE;stroke-width:4;stroke-linecap:round;stroke-linejoin:round;stroke-miterlimit:10;" x1="46.4" y1="274" x2="46.4" y2="-103"/>
</g>
<g>
	
		<line style="fill:none;stroke:#DFDFDE;stroke-width:4;stroke-linecap:round;stroke-linejoin:round;stroke-miterlimit:10;" x1="96" y1="274" x2="46.4" y2="274"/>
	
		<circle style="fill:none;stroke:#DFDFDE;stroke-width:4;stroke-linecap:round;stroke-linejoin:round;stroke-miterlimit:10;" cx="101.5" cy="274" r="5"/>
</g>
</svg>
