<?xml version="1.0" encoding="utf-8"?>
<!-- Generator: Adobe Illustrator 19.2.0, SVG Export Plug-In . SVG Version: 6.00 Build 0)  -->
<svg version="1.1" id="Layer_1" xmlns="http://www.w3.org/2000/svg" xmlns:xlink="http://www.w3.org/1999/xlink" x="0px" y="0px"
	 width="375px" height="154px" viewBox="0 0 375 154" style="enable-background:new 0 0 375 154;" xml:space="preserve">
<g>
	
		<line style="fill:none;stroke:#DFDFDE;stroke-width:4;stroke-linecap:round;stroke-linejoin:round;stroke-miterlimit:10;" x1="189.4" y1="70.5" x2="189.4" y2="-10.3"/>
	
		<circle style="fill:none;stroke:#DFDFDE;stroke-width:4;stroke-linecap:round;stroke-linejoin:round;stroke-miterlimit:10;" cx="189.4" cy="76" r="5"/>
</g>
<g>
	<path d="M138.3,134.5h-1.6v-6.1c0-0.5,0-1.1,0.1-1.8l0,0c-0.1,0.4-0.2,0.7-0.3,0.9l-2.8,7.1h-1.1l-2.8-7c-0.1-0.2-0.2-0.5-0.3-0.9
		l0,0c0,0.4,0.1,1,0.1,1.9v6.1h-1.5v-9.5h2.2l2.5,6.3c0.2,0.5,0.3,0.8,0.4,1.1l0,0c0.2-0.5,0.3-0.9,0.4-1.1l2.5-6.3h2.1v9.3H138.3z"
		/>
	<path d="M148.4,134.5h-1.7l-0.9-2.4h-3.7l-0.8,2.4h-1.7l3.5-9.5h1.8L148.4,134.5z M145.4,130.8l-1.3-3.8c0-0.1-0.1-0.3-0.1-0.6l0,0
		c0,0.3-0.1,0.4-0.1,0.6l-1.3,3.8H145.4z"/>
	<path d="M157.7,134.5H156l-4.5-6.9c-0.1-0.2-0.2-0.4-0.3-0.5l0,0c0,0.2,0.1,0.6,0.1,1.3v6.2h-1.5v-9.5h1.8l4.4,6.8
		c0.2,0.3,0.3,0.5,0.4,0.6l0,0c0-0.3-0.1-0.7-0.1-1.3v-6.1h1.5L157.7,134.5L157.7,134.5z"/>
	<path d="M167.8,134.5h-1.7l-0.9-2.4h-3.7l-0.8,2.4H159l3.5-9.5h1.8L167.8,134.5z M164.8,130.8l-1.3-3.8c0-0.1-0.1-0.3-0.1-0.6l0,0
		c0,0.3-0.1,0.4-0.1,0.6l-1.3,3.8H164.8z"/>
	<path d="M176.3,133.9c-1,0.5-2.1,0.8-3.3,0.8c-1.4,0-2.5-0.4-3.4-1.3c-0.9-0.9-1.3-2-1.3-3.5s0.5-2.7,1.4-3.6s2.1-1.4,3.6-1.4
		c1.1,0,1.9,0.2,2.6,0.5v1.6c-0.7-0.5-1.6-0.7-2.6-0.7s-1.8,0.3-2.5,1c-0.6,0.7-1,1.5-1,2.6s0.3,1.9,0.8,2.6s1.3,0.9,2.3,0.9
		c0.7,0,1.2-0.1,1.7-0.4v-2.2h-2v-1.3h3.6L176.3,133.9L176.3,133.9z"/>
	<path d="M183.7,134.5h-5.3V125h5.1v1.3H180v2.7h3.3v1.3H180v2.8h3.7V134.5z"/>
	<path d="M195.5,134.5H194v-6.1c0-0.5,0-1.1,0.1-1.8l0,0c-0.1,0.4-0.2,0.7-0.3,0.9l-2.8,7.1h-1.1l-2.8-7c-0.1-0.2-0.2-0.5-0.3-0.9
		l0,0c0,0.4,0.1,1,0.1,1.9v6.1h-1.5v-9.5h2.2l2.5,6.3c0.2,0.5,0.3,0.8,0.4,1.1l0,0c0.2-0.5,0.3-0.9,0.4-1.1l2.5-6.3h2.1L195.5,134.5
		L195.5,134.5z"/>
	<path d="M203.2,134.5h-5.3V125h5.1v1.3h-3.5v2.7h3.3v1.3h-3.3v2.8h3.7V134.5z"/>
	<path d="M212.9,134.5h-1.7l-4.5-6.9c-0.1-0.2-0.2-0.4-0.3-0.5l0,0c0,0.2,0.1,0.6,0.1,1.3v6.2H205v-9.5h1.8l4.4,6.8
		c0.2,0.3,0.3,0.5,0.4,0.6l0,0c0-0.3-0.1-0.7-0.1-1.3v-6.1h1.5L212.9,134.5L212.9,134.5z"/>
	<path d="M221.3,126.4h-2.7v8.1H217v-8.1h-2.7v-1.3h7V126.4z"/>
	<path d="M232.4,126.4h-2.7v8.1h-1.6v-8.1h-2.7v-1.3h7V126.4z"/>
	<path d="M235.4,134.5h-1.6V125h1.6V134.5z"/>
	<path d="M243,134.5h-5.3V125h5.1v1.3h-3.5v2.7h3.3v1.3h-3.3v2.8h3.7V134.5z"/>
	<path d="M252,134.5h-1.8l-1.5-2.5c-0.1-0.2-0.3-0.4-0.4-0.6s-0.3-0.3-0.4-0.4s-0.3-0.2-0.4-0.2c-0.2,0-0.3-0.1-0.5-0.1h-0.6v3.8
		h-1.6V125h3.1c0.4,0,0.9,0.1,1.2,0.2c0.4,0.1,0.7,0.3,1,0.5s0.5,0.5,0.6,0.8c0.2,0.3,0.2,0.7,0.2,1.1c0,0.3,0,0.6-0.1,0.9
		s-0.2,0.5-0.4,0.7s-0.4,0.4-0.7,0.6c-0.3,0.2-0.5,0.3-0.9,0.4l0,0c0.2,0.1,0.3,0.2,0.4,0.3c0.1,0.1,0.2,0.2,0.4,0.4
		c0.1,0.1,0.2,0.3,0.3,0.4s0.2,0.3,0.4,0.5L252,134.5z M246.3,126.4v3.1h1.3c0.2,0,0.5,0,0.7-0.1s0.4-0.2,0.5-0.3s0.3-0.3,0.3-0.5
		c0.1-0.2,0.1-0.4,0.1-0.7c0-0.5-0.1-0.8-0.4-1.1c-0.3-0.3-0.7-0.4-1.2-0.4C247.6,126.4,246.3,126.4,246.3,126.4z"/>
</g>
<g>
	<path d="M190.5,101.8c-0.1-0.2-0.3-0.3-0.5-0.4c-0.2-0.1-0.4-0.1-0.6-0.1c-0.2,0-0.4,0-0.6,0.1c-0.2,0.1-0.3,0.2-0.5,0.4
		s-0.2,0.3-0.3,0.6s-0.1,0.5-0.1,0.7c0,0.3,0,0.5,0.1,0.8c0.1,0.2,0.2,0.4,0.3,0.6c0.1,0.2,0.3,0.3,0.5,0.3c0.2,0.1,0.4,0.1,0.7,0.1
		c0.2,0,0.4,0,0.6-0.1s0.3-0.2,0.5-0.3c0.1-0.1,0.2-0.3,0.3-0.5s0.1-0.4,0.1-0.6c0-0.3,0-0.6-0.1-0.8
		C190.7,102.2,190.6,102,190.5,101.8z"/>
	<path d="M189.4,92.9c-6.4,0-11.6,5.2-11.6,11.6c0,6.4,5.2,11.6,11.6,11.6s11.6-5.2,11.6-11.6C201,98.1,195.8,92.9,189.4,92.9z
		 M192.2,106.6c-0.2,0.7-0.5,1.2-0.8,1.6s-0.7,0.7-1.2,0.9c-0.5,0.2-1,0.3-1.5,0.3c-0.2,0-0.3,0-0.5,0s-0.3,0-0.5-0.1
		c-0.2,0-0.3-0.1-0.4-0.1s-0.2-0.1-0.3-0.1v-1.3c0.1,0.1,0.2,0.1,0.3,0.2c0.1,0.1,0.3,0.1,0.4,0.2c0.2,0,0.3,0.1,0.5,0.1
		s0.3,0,0.5,0c0.4,0,0.7-0.1,1-0.2c0.3-0.1,0.5-0.3,0.8-0.6c0.2-0.3,0.4-0.6,0.5-1s0.2-0.9,0.2-1.4h0c-0.1,0.1-0.2,0.3-0.3,0.4
		c-0.1,0.1-0.3,0.2-0.4,0.3s-0.3,0.2-0.5,0.2c-0.2,0.1-0.4,0.1-0.6,0.1c-0.4,0-0.7-0.1-1.1-0.2c-0.3-0.1-0.6-0.3-0.9-0.6
		c-0.2-0.2-0.4-0.5-0.6-0.9s-0.2-0.7-0.2-1.2c0-0.5,0.1-0.9,0.2-1.3c0.2-0.4,0.4-0.7,0.6-1c0.3-0.3,0.6-0.5,1-0.6
		c0.4-0.1,0.8-0.2,1.2-0.2c0.4,0,0.8,0.1,1.2,0.2s0.7,0.4,1,0.7c0.3,0.3,0.5,0.8,0.7,1.3s0.2,1.2,0.2,1.9
		C192.4,105.2,192.3,105.9,192.2,106.6z"/>
	<path style="fill:#FFFFFF;" d="M191.5,101c-0.3-0.3-0.6-0.6-1-0.7s-0.8-0.2-1.2-0.2c-0.4,0-0.8,0.1-1.2,0.2c-0.4,0.1-0.7,0.4-1,0.6
		c-0.3,0.3-0.5,0.6-0.6,1c-0.2,0.4-0.2,0.8-0.2,1.3c0,0.4,0.1,0.8,0.2,1.2s0.3,0.6,0.6,0.9c0.2,0.2,0.5,0.4,0.9,0.6
		c0.3,0.1,0.7,0.2,1.1,0.2c0.2,0,0.4,0,0.6-0.1c0.2-0.1,0.4-0.1,0.5-0.2s0.3-0.2,0.4-0.3c0.1-0.1,0.2-0.2,0.3-0.4h0
		c0,0.5-0.1,1-0.2,1.4s-0.3,0.8-0.5,1c-0.2,0.3-0.5,0.5-0.8,0.6c-0.3,0.1-0.6,0.2-1,0.2c-0.2,0-0.3,0-0.5,0s-0.3-0.1-0.5-0.1
		c-0.2,0-0.3-0.1-0.4-0.2c-0.1-0.1-0.2-0.1-0.3-0.2v1.3c0.1,0,0.2,0.1,0.3,0.1s0.3,0.1,0.4,0.1c0.2,0,0.3,0.1,0.5,0.1s0.3,0,0.5,0
		c0.5,0,1-0.1,1.5-0.3c0.5-0.2,0.9-0.5,1.2-0.9s0.6-1,0.8-1.6c0.2-0.7,0.3-1.4,0.3-2.3c0-0.8-0.1-1.4-0.2-1.9S191.8,101.4,191.5,101
		z M190.8,103.9c-0.1,0.2-0.2,0.3-0.3,0.5c-0.1,0.1-0.3,0.2-0.5,0.3s-0.4,0.1-0.6,0.1c-0.2,0-0.5,0-0.7-0.1
		c-0.2-0.1-0.4-0.2-0.5-0.3c-0.1-0.2-0.2-0.3-0.3-0.6c-0.1-0.2-0.1-0.5-0.1-0.8c0-0.3,0-0.5,0.1-0.7s0.2-0.4,0.3-0.6
		s0.3-0.3,0.5-0.4c0.2-0.1,0.4-0.1,0.6-0.1c0.2,0,0.4,0,0.6,0.1c0.2,0.1,0.4,0.2,0.5,0.4c0.1,0.2,0.2,0.4,0.3,0.6
		c0.1,0.3,0.1,0.5,0.1,0.8C190.9,103.5,190.9,103.7,190.8,103.9z"/>
</g>
</svg>
