<svg id="Layer_2_1_" xmlns="http://www.w3.org/2000/svg" width="129.2" height="329.2" viewBox="0 0 129.2 329.2"><path d="M6.7 323.3v-1.7c.1.1.3.3.5.4.2.1.4.2.7.3.2.1.5.1.7.2.2 0 .4.1.6.1.7 0 1.2-.1 1.5-.3s.5-.6.5-1c0-.2-.1-.4-.2-.6s-.3-.3-.5-.5-.4-.3-.7-.4c-.3-.1-.6-.3-.9-.4-.3-.2-.6-.4-.9-.5-.3-.2-.5-.4-.7-.6s-.4-.5-.5-.7-.2-.6-.2-1c0-.5.1-.9.3-1.2s.5-.6.8-.8c.3-.2.7-.4 1.2-.5s.9-.2 1.3-.2c1 0 1.8.1 2.2.3v1.6c-.6-.4-1.3-.6-2.1-.6-.2 0-.5 0-.7.1-.2 0-.5.1-.6.2s-.3.2-.5.4-.2.4-.2.6c0 .2 0 .4.1.6.1.2.2.3.4.4.2.1.4.3.6.4.3.1.5.3.9.4.3.2.7.4 1 .6.3.2.6.4.8.6.2.2.4.5.5.8s.2.6.2 1c0 .5-.1.9-.3 1.3-.2.3-.5.6-.8.8-.3.2-.7.4-1.2.5-.4.1-.9.1-1.4.1h-.6c-.2 0-.5-.1-.7-.1-.2 0-.5-.1-.7-.2-.1-.3-.2-.3-.4-.4zM20.2 323.7h-5.5v-9.8H20v1.4h-3.6v2.8h3.4v1.4h-3.4v2.9h3.9v1.3zM29.5 323.7h-1.9L26 321c-.1-.2-.3-.4-.4-.6-.1-.2-.3-.3-.4-.4-.1-.1-.3-.2-.5-.2s-.3-.1-.6-.1h-.7v4H22v-9.8h3.2c.5 0 .9.1 1.3.2s.7.3 1 .5c.3.2.5.5.7.8.2.3.2.7.2 1.2 0 .3-.1.7-.2.9-.1.3-.2.5-.4.8-.2.2-.4.4-.7.6-.3.2-.6.3-.9.4.2.1.3.2.5.3.1.1.3.2.4.4.1.1.2.3.3.4.1.2.2.3.4.6l1.7 2.7zm-5.9-8.5v3.2h1.3c.2 0 .5 0 .7-.1s.4-.2.5-.3c.2-.1.3-.3.4-.5.1-.2.1-.4.1-.7 0-.5-.1-.8-.4-1.1s-.7-.4-1.3-.4h-1.3zM38.3 313.9l-3.5 9.8H33l-3.4-9.8h1.8l2.4 7.4c.1.2.1.5.2.8 0-.3.1-.5.2-.8l2.5-7.4h1.6zM41.2 323.7h-1.7v-9.8h1.7v9.8zM50.4 323.2c-.7.4-1.6.6-2.7.6-1.4 0-2.5-.4-3.4-1.3-.9-.9-1.3-2.1-1.3-3.5 0-1.6.5-2.8 1.4-3.8s2.2-1.4 3.6-1.4c.9 0 1.7.1 2.3.4v1.6c-.7-.4-1.4-.6-2.2-.6-1.1 0-1.9.3-2.6 1s-1 1.6-1 2.7.3 1.9.9 2.6c.6.6 1.4 1 2.4 1 .9 0 1.7-.2 2.4-.7v1.4zM57.8 323.7h-5.5v-9.8h5.3v1.4H54v2.8h3.4v1.4H54v2.9h3.9v1.3zM63.3 323.7v-9.8h3.1c.9 0 1.7.2 2.2.6.6.4.8.9.8 1.6 0 .6-.2 1-.5 1.4-.3.4-.7.7-1.3.9.7.1 1.2.3 1.6.7.4.4.6 1 .6 1.6 0 .8-.3 1.5-1 2s-1.5.8-2.5.8h-3zm1.6-8.5v2.8h1c.6 0 1-.1 1.3-.4.3-.3.5-.6.5-1.1 0-.8-.6-1.3-1.7-1.3h-1.1zm0 4.1v3.1h1.4c.6 0 1.1-.1 1.4-.4.3-.3.5-.7.5-1.2 0-1-.7-1.5-2.1-1.5h-1.2zM79.2 319.7c0 2.7-1.3 4.1-3.9 4.1-2.5 0-3.7-1.3-3.7-4v-6h1.6v5.6c0 1.9.7 2.9 2.2 2.9 1.4 0 2.1-.9 2.1-2.8v-5.7h1.6v5.9zM81.1 323.3v-1.7c.1.1.3.3.5.4.2.1.4.2.7.3.2.1.5.1.7.2.2 0 .4.1.6.1.7 0 1.2-.1 1.5-.3s.5-.6.5-1c0-.2-.1-.4-.2-.6s-.3-.3-.5-.5-.4-.3-.7-.4c-.3-.1-.6-.3-.9-.4-.3-.2-.6-.4-.9-.5-.3-.2-.5-.4-.7-.6s-.4-.5-.5-.7-.2-.6-.2-1c0-.5.1-.9.3-1.2s.5-.6.8-.8c.3-.2.7-.4 1.2-.5s.9-.2 1.3-.2c1 0 1.8.1 2.2.3v1.6c-.6-.4-1.3-.6-2.1-.6-.2 0-.5 0-.7.1-.2 0-.5.1-.6.2s-.3.2-.5.4-.2.4-.2.6c0 .2 0 .4.1.6.1.2.2.3.4.4.2.1.4.3.6.4.3.1.5.3.9.4.3.2.7.4 1 .6.3.2.6.4.8.6.2.2.4.5.5.8s.2.6.2 1c0 .5-.1.9-.3 1.3-.2.3-.5.6-.8.8-.3.2-.7.4-1.2.5-.4.1-.9.1-1.4.1h-.6c-.2 0-.5-.1-.7-.1-.2 0-.5-.1-.7-.2-.1-.3-.3-.3-.4-.4z"/><g fill-rule="evenodd" clip-rule="evenodd"><path d="M45.1 277.5h-5.5v11.3h-4.5l7.3 10.1 7.4-10.1h-4.7zM35.7 260.7h13.2v3.8H35.7zM35.7 266.3h13.2v3.8H35.7zM35.7 271.9h13.2v3.8H35.7z"/><path d="M37.6 281.2H32l-.1-9.4h-.1v-20.4h7.5v7.5h5.6v-11.5c.3-1.6-.8-1.6-1.3-1.6H28c-.5 0-1.6 0-1.6 1.9l-.1 29.5h.1v7.9c0 .4 1.6 1.8 2 1.8h9.2v-5.7zM62.4 270h-1.6c-.9-11.3-6.3-16.7-13.8-18.2v5.3c5.6 1.9 7.7 7.3 7.8 14.5l-.1 3.7 7.5-.1c2 0 3.5.5 3.5 2.5v3.3H46.9v5.6H69c.4 0 2.1-1.5 2.1-1.9v-7.1c.1-4.5-3.9-7.6-8.7-7.6z"/></g><g><path fill="none" stroke="#dedede" stroke-width="4" stroke-linecap="round" stroke-linejoin="round" stroke-miterlimit="10" d="M108.5 6l1 266.2"/></g><g fill="none" stroke="#dedede" stroke-width="4" stroke-linecap="round" stroke-linejoin="round" stroke-miterlimit="10"><path d="M108.5 272.2H96.6"/><circle cx="91.1" cy="272.2" r="5"/></g></svg>