<?xml version="1.0" encoding="utf-8"?>
<!-- Generator: Adobe Illustrator 19.2.0, SVG Export Plug-In . SVG Version: 6.00 Build 0)  -->
<svg version="1.1" id="Layer_1" xmlns="http://www.w3.org/2000/svg" xmlns:xlink="http://www.w3.org/1999/xlink" x="0px" y="0px"
	 width="960px" height="451.6px" viewBox="0 0 960 451.6" style="enable-background:new 0 0 960 451.6;" xml:space="preserve">
<g>
	<defs>
		<rect id="SVGID_1_" x="154.7" y="0" width="683.2" height="451.6"/>
	</defs>
	<clipPath id="SVGID_2_">
		<use xlink:href="#SVGID_1_"  style="overflow:visible;"/>
	</clipPath>
	<g style="clip-path:url(#SVGID_2_);">
		<g>
			<path style="fill:#21BBEE;" d="M448.7-97.9H447v-4.2h-4.6v4.2h-1.6v-9.8h1.6v4.1h4.6v-4.1h1.6V-97.9z"/>
			<path style="fill:#21BBEE;" d="M459.1-97.9h-1.8l-0.9-2.5h-3.8l-0.8,2.5H450l3.7-9.8h1.8L459.1-97.9z M456-101.7l-1.4-3.9
				c0-0.1-0.1-0.3-0.1-0.6h0c0,0.3-0.1,0.5-0.1,0.6l-1.3,3.9H456z"/>
			<path style="fill:#21BBEE;" d="M460.4-97.9v-9.8h2.8c3.6,0,5.4,1.6,5.4,4.8c0,1.5-0.5,2.7-1.5,3.6c-1,0.9-2.3,1.4-4,1.4H460.4z
				 M462-106.3v7h1.3c1.1,0,2-0.3,2.7-0.9c0.6-0.6,0.9-1.5,0.9-2.7c0-2.3-1.2-3.4-3.5-3.4H462z"/>
			<path style="fill:#21BBEE;" d="M474.4-97.7c-1.4,0-2.5-0.5-3.4-1.4c-0.8-0.9-1.3-2.1-1.3-3.6c0-1.6,0.4-2.8,1.3-3.8
				c0.9-0.9,2-1.4,3.5-1.4c1.4,0,2.5,0.5,3.3,1.4c0.8,0.9,1.3,2.1,1.3,3.6c0,1.6-0.4,2.8-1.3,3.8C477-98.2,475.9-97.7,474.4-97.7z
				 M474.5-106.4c-0.9,0-1.6,0.3-2.2,1c-0.6,0.7-0.8,1.5-0.8,2.6c0,1.1,0.3,2,0.8,2.6c0.5,0.7,1.3,1,2.1,1c0.9,0,1.7-0.3,2.2-0.9
				c0.5-0.6,0.8-1.5,0.8-2.6c0-1.2-0.3-2.1-0.8-2.7S475.4-106.4,474.5-106.4z"/>
			<path style="fill:#21BBEE;" d="M485-97.7c-1.4,0-2.5-0.5-3.4-1.4c-0.8-0.9-1.3-2.1-1.3-3.6c0-1.6,0.4-2.8,1.3-3.8
				c0.9-0.9,2-1.4,3.5-1.4c1.4,0,2.5,0.5,3.3,1.4c0.8,0.9,1.3,2.1,1.3,3.6c0,1.6-0.4,2.8-1.3,3.8C487.5-98.2,486.4-97.7,485-97.7z
				 M485-106.4c-0.9,0-1.6,0.3-2.2,1c-0.6,0.7-0.8,1.5-0.8,2.6c0,1.1,0.3,2,0.8,2.6s1.3,1,2.1,1c0.9,0,1.7-0.3,2.2-0.9
				c0.5-0.6,0.8-1.5,0.8-2.6c0-1.2-0.3-2.1-0.8-2.7S485.9-106.4,485-106.4z"/>
			<path style="fill:#21BBEE;" d="M493.1-101.4v3.5h-1.6v-9.8h3c1.1,0,2,0.3,2.6,0.8c0.6,0.5,0.9,1.3,0.9,2.2s-0.3,1.7-1,2.3
				c-0.6,0.6-1.5,0.9-2.6,0.9H493.1z M493.1-106.3v3.6h1c0.7,0,1.2-0.2,1.6-0.5c0.4-0.3,0.5-0.8,0.5-1.4c0-1.1-0.7-1.7-2-1.7H493.1z
				"/>
			<path style="fill:#21BBEE;" d="M509.7-106.3h-2.8v8.4h-1.6v-8.4h-2.8v-1.4h7.2V-106.3z"/>
			<path style="fill:#21BBEE;" d="M512.8-97.9h-1.7v-9.8h1.7V-97.9z"/>
			<path style="fill:#21BBEE;" d="M520.7-97.9h-5.5v-9.8h5.3v1.4h-3.6v2.8h3.4v1.4h-3.4v2.9h3.9V-97.9z"/>
			<path style="fill:#21BBEE;" d="M529.9-97.9H528l-1.6-2.6c-0.1-0.2-0.3-0.4-0.4-0.6c-0.1-0.2-0.3-0.3-0.4-0.4
				c-0.1-0.1-0.3-0.2-0.5-0.2c-0.2,0-0.3-0.1-0.6-0.1H524v4h-1.6v-9.8h3.2c0.5,0,0.9,0.1,1.3,0.2c0.4,0.1,0.7,0.3,1,0.5
				s0.5,0.5,0.7,0.8c0.2,0.3,0.2,0.7,0.2,1.2c0,0.3-0.1,0.7-0.2,0.9c-0.1,0.3-0.2,0.5-0.4,0.8c-0.2,0.2-0.4,0.4-0.7,0.6
				c-0.3,0.2-0.6,0.3-0.9,0.4v0c0.2,0.1,0.3,0.2,0.5,0.3s0.3,0.2,0.4,0.4c0.1,0.1,0.2,0.3,0.3,0.4s0.2,0.3,0.4,0.6L529.9-97.9z
				 M524-106.3v3.2h1.3c0.3,0,0.5,0,0.7-0.1s0.4-0.2,0.5-0.3c0.2-0.1,0.3-0.3,0.4-0.5c0.1-0.2,0.1-0.4,0.1-0.7
				c0-0.5-0.1-0.8-0.4-1.1s-0.7-0.4-1.3-0.4H524z"/>
		</g>
		<path style="fill:#21BBEE;" d="M484.4-134.5c-5.5,0-9.9,4.4-9.9,9.9c0,5.5,4.4,9.9,9.9,9.9c5.5,0,9.9-4.4,9.9-9.9
			C494.3-130,489.9-134.5,484.4-134.5z M487-122.7h-1.2v1.7h-1.2v-1.7h-3.5v-1.1c0.3-0.4,0.6-0.7,1-1.2c0.3-0.4,0.7-0.8,1-1.3
			c0.3-0.4,0.6-0.9,0.9-1.3c0.3-0.4,0.5-0.9,0.7-1.3h1.3v5h1.2V-122.7z"/>
		<path style="fill:#21BBEE;" d="M482.4-123.7h2.3v-3.3c-0.4,0.7-0.8,1.3-1.2,1.9C483.1-124.6,482.7-124.1,482.4-123.7z"/>
		<g>
			<path style="fill:#686969;" d="M413.9-288.2h-1.8l-0.9-2.5h-3.8l-0.8,2.5h-1.8l3.7-9.8h1.8L413.9-288.2z M410.8-292l-1.4-3.9
				c0-0.1-0.1-0.3-0.1-0.6h0c0,0.3-0.1,0.5-0.1,0.6l-1.3,3.9H410.8z"/>
			<path style="fill:#686969;" d="M416.9-291.8v3.5h-1.6v-9.8h3c1.1,0,2,0.3,2.6,0.8s0.9,1.3,0.9,2.2s-0.3,1.7-1,2.3
				c-0.6,0.6-1.5,0.9-2.6,0.9H416.9z M416.9-296.7v3.6h1c0.7,0,1.2-0.2,1.6-0.5c0.4-0.3,0.5-0.8,0.5-1.4c0-1.1-0.7-1.7-2-1.7H416.9z
				"/>
			<path style="fill:#686969;" d="M425-291.8v3.5h-1.6v-9.8h3c1.1,0,2,0.3,2.6,0.8s0.9,1.3,0.9,2.2s-0.3,1.7-1,2.3
				c-0.6,0.6-1.5,0.9-2.6,0.9H425z M425-296.7v3.6h1c0.7,0,1.2-0.2,1.6-0.5c0.4-0.3,0.5-0.8,0.5-1.4c0-1.1-0.7-1.7-2-1.7H425z"/>
			<path style="fill:#686969;" d="M436.9-288.2h-5.4v-9.8h1.6v8.4h3.8V-288.2z"/>
			<path style="fill:#686969;" d="M440-288.2h-1.7v-9.8h1.7V-288.2z"/>
			<path style="fill:#686969;" d="M449.2-288.7c-0.7,0.4-1.6,0.6-2.7,0.6c-1.4,0-2.5-0.4-3.4-1.3c-0.9-0.9-1.3-2.1-1.3-3.5
				c0-1.6,0.5-2.8,1.4-3.8s2.2-1.4,3.6-1.4c0.9,0,1.7,0.1,2.3,0.4v1.6c-0.7-0.4-1.4-0.6-2.2-0.6c-1.1,0-1.9,0.3-2.6,1s-1,1.6-1,2.7
				c0,1.1,0.3,1.9,0.9,2.6c0.6,0.6,1.4,1,2.4,1c0.9,0,1.7-0.2,2.4-0.7V-288.7z"/>
			<path style="fill:#686969;" d="M459.1-288.2h-1.8l-0.9-2.5h-3.8l-0.8,2.5H450l3.7-9.8h1.8L459.1-288.2z M456-292l-1.4-3.9
				c0-0.1-0.1-0.3-0.1-0.6h0c0,0.3-0.1,0.5-0.1,0.6L453-292H456z"/>
			<path style="fill:#686969;" d="M465.7-296.6h-2.8v8.4h-1.6v-8.4h-2.8v-1.4h7.2V-296.6z"/>
			<path style="fill:#686969;" d="M468.8-288.2h-1.7v-9.8h1.7V-288.2z"/>
			<path style="fill:#686969;" d="M475.2-288.1c-1.4,0-2.5-0.5-3.4-1.4c-0.8-0.9-1.3-2.1-1.3-3.6c0-1.6,0.4-2.8,1.3-3.8
				c0.9-0.9,2-1.4,3.5-1.4c1.4,0,2.5,0.5,3.3,1.4c0.8,0.9,1.3,2.1,1.3,3.6c0,1.6-0.4,2.8-1.3,3.8
				C477.8-288.5,476.6-288.1,475.2-288.1z M475.3-296.7c-0.9,0-1.6,0.3-2.2,1c-0.6,0.7-0.8,1.5-0.8,2.6c0,1.1,0.3,2,0.8,2.6
				c0.5,0.7,1.3,1,2.1,1c0.9,0,1.7-0.3,2.2-0.9c0.5-0.6,0.8-1.5,0.8-2.6c0-1.2-0.3-2.1-0.8-2.7S476.2-296.7,475.3-296.7z"/>
			<path style="fill:#686969;" d="M490-288.2h-1.8l-4.7-7.2c-0.1-0.2-0.2-0.4-0.3-0.6h0c0,0.2,0.1,0.7,0.1,1.3v6.4h-1.6v-9.8h1.9
				l4.5,7c0.2,0.3,0.3,0.5,0.4,0.6h0c0-0.3-0.1-0.7-0.1-1.3v-6.3h1.6V-288.2z"/>
			<path style="fill:#686969;" d="M500.2-288.1c-1.4,0-2.5-0.5-3.4-1.4c-0.8-0.9-1.3-2.1-1.3-3.6c0-1.6,0.4-2.8,1.3-3.8
				c0.9-0.9,2-1.4,3.5-1.4c1.4,0,2.5,0.5,3.3,1.4c0.8,0.9,1.3,2.1,1.3,3.6c0,1.6-0.4,2.8-1.3,3.8
				C502.8-288.5,501.7-288.1,500.2-288.1z M500.3-296.7c-0.9,0-1.6,0.3-2.2,1c-0.6,0.7-0.8,1.5-0.8,2.6c0,1.1,0.3,2,0.8,2.6
				c0.5,0.7,1.3,1,2.1,1c0.9,0,1.7-0.3,2.2-0.9c0.5-0.6,0.8-1.5,0.8-2.6c0-1.2-0.3-2.1-0.8-2.7S501.2-296.7,500.3-296.7z"/>
			<path style="fill:#686969;" d="M515-288.2h-1.8l-4.7-7.2c-0.1-0.2-0.2-0.4-0.3-0.6h0c0,0.2,0.1,0.7,0.1,1.3v6.4h-1.6v-9.8h1.9
				l4.5,7c0.2,0.3,0.3,0.5,0.4,0.6h0c0-0.3-0.1-0.7-0.1-1.3v-6.3h1.6V-288.2z"/>
			<path style="fill:#686969;" d="M528-288.7c-0.7,0.4-1.6,0.6-2.7,0.6c-1.4,0-2.5-0.4-3.4-1.3c-0.9-0.9-1.3-2.1-1.3-3.5
				c0-1.6,0.5-2.8,1.4-3.8s2.2-1.4,3.6-1.4c0.9,0,1.7,0.1,2.3,0.4v1.6c-0.7-0.4-1.4-0.6-2.2-0.6c-1.1,0-1.9,0.3-2.6,1s-1,1.6-1,2.7
				c0,1.1,0.3,1.9,0.9,2.6c0.6,0.6,1.4,1,2.4,1c0.9,0,1.7-0.2,2.4-0.7V-288.7z"/>
			<path style="fill:#686969;" d="M535.3-288.2h-5.4v-9.8h1.6v8.4h3.8V-288.2z"/>
			<path style="fill:#686969;" d="M540.3-288.1c-1.4,0-2.5-0.5-3.4-1.4c-0.8-0.9-1.3-2.1-1.3-3.6c0-1.6,0.4-2.8,1.3-3.8
				c0.9-0.9,2-1.4,3.5-1.4c1.4,0,2.5,0.5,3.3,1.4c0.8,0.9,1.3,2.1,1.3,3.6c0,1.6-0.4,2.8-1.3,3.8
				C542.9-288.5,541.7-288.1,540.3-288.1z M540.4-296.7c-0.9,0-1.6,0.3-2.2,1c-0.6,0.7-0.8,1.5-0.8,2.6c0,1.1,0.3,2,0.8,2.6
				c0.5,0.7,1.3,1,2.1,1c0.9,0,1.7-0.3,2.2-0.9c0.5-0.6,0.8-1.5,0.8-2.6c0-1.2-0.3-2.1-0.8-2.7S541.3-296.7,540.4-296.7z"/>
			<path style="fill:#686969;" d="M554.3-292.2c0,2.7-1.3,4.1-3.9,4.1c-2.5,0-3.7-1.3-3.7-4v-6h1.6v5.6c0,1.9,0.7,2.9,2.2,2.9
				c1.4,0,2.1-0.9,2.1-2.8v-5.7h1.6V-292.2z"/>
			<path style="fill:#686969;" d="M556.6-288.2v-9.8h2.8c3.6,0,5.4,1.6,5.4,4.8c0,1.5-0.5,2.7-1.5,3.6c-1,0.9-2.3,1.4-4,1.4H556.6z
				 M558.2-296.6v7h1.3c1.1,0,2-0.3,2.7-0.9c0.6-0.6,0.9-1.5,0.9-2.7c0-2.3-1.2-3.4-3.5-3.4H558.2z"/>
		</g>
		<g>
			<path style="fill:#686969;" d="M492.1-169.2v-9.8h2.8c3.6,0,5.4,1.6,5.4,4.8c0,1.5-0.5,2.7-1.5,3.6c-1,0.9-2.3,1.4-4,1.4H492.1z
				 M493.8-177.6v7h1.3c1.1,0,2-0.3,2.7-0.9c0.6-0.6,0.9-1.5,0.9-2.7c0-2.3-1.2-3.4-3.5-3.4H493.8z"/>
			<path style="fill:#686969;" d="M509.9-169.2h-1.8l-0.9-2.5h-3.8l-0.8,2.5h-1.8l3.7-9.8h1.8L509.9-169.2z M506.8-173l-1.4-3.9
				c0-0.1-0.1-0.3-0.1-0.6h0c0,0.3-0.1,0.5-0.1,0.6l-1.3,3.9H506.8z"/>
			<path style="fill:#686969;" d="M516.5-177.6h-2.8v8.4h-1.6v-8.4h-2.8v-1.4h7.2V-177.6z"/>
			<path style="fill:#686969;" d="M525-169.2h-1.8l-0.9-2.5h-3.8l-0.8,2.5h-1.8l3.7-9.8h1.8L525-169.2z M521.9-173l-1.4-3.9
				c0-0.1-0.1-0.3-0.1-0.6h0c0,0.3-0.1,0.5-0.1,0.6l-1.3,3.9H521.9z"/>
			<path style="fill:#686969;" d="M526.3-169.2v-9.8h3.1c0.9,0,1.7,0.2,2.2,0.6c0.6,0.4,0.8,0.9,0.8,1.6c0,0.6-0.2,1-0.5,1.4
				c-0.3,0.4-0.7,0.7-1.3,0.9v0c0.7,0.1,1.2,0.3,1.6,0.7c0.4,0.4,0.6,1,0.6,1.6c0,0.8-0.3,1.5-1,2s-1.5,0.8-2.5,0.8H526.3z
				 M527.9-177.7v2.8h1c0.6,0,1-0.1,1.3-0.4c0.3-0.3,0.5-0.6,0.5-1.1c0-0.8-0.6-1.3-1.7-1.3H527.9z M527.9-173.6v3.1h1.4
				c0.6,0,1.1-0.1,1.4-0.4c0.3-0.3,0.5-0.7,0.5-1.2c0-1-0.7-1.5-2.1-1.5H527.9z"/>
			<path style="fill:#686969;" d="M542.7-169.2H541l-0.9-2.5h-3.8l-0.8,2.5h-1.8l3.7-9.8h1.8L542.7-169.2z M539.6-173l-1.4-3.9
				c0-0.1-0.1-0.3-0.1-0.6h0c0,0.3-0.1,0.5-0.1,0.6l-1.3,3.9H539.6z"/>
			<path style="fill:#686969;" d="M543.6-169.6v-1.7c0.1,0.1,0.3,0.3,0.5,0.4c0.2,0.1,0.4,0.2,0.7,0.3c0.2,0.1,0.5,0.1,0.7,0.2
				c0.2,0,0.4,0.1,0.6,0.1c0.7,0,1.2-0.1,1.5-0.3s0.5-0.6,0.5-1c0-0.2-0.1-0.4-0.2-0.6s-0.3-0.3-0.5-0.5s-0.4-0.3-0.7-0.4
				c-0.3-0.1-0.6-0.3-0.9-0.4c-0.3-0.2-0.6-0.4-0.9-0.5c-0.3-0.2-0.5-0.4-0.7-0.6s-0.4-0.5-0.5-0.7s-0.2-0.6-0.2-1
				c0-0.5,0.1-0.9,0.3-1.2s0.5-0.6,0.8-0.8c0.3-0.2,0.7-0.4,1.2-0.5s0.9-0.2,1.3-0.2c1,0,1.8,0.1,2.2,0.3v1.6
				c-0.6-0.4-1.3-0.6-2.1-0.6c-0.2,0-0.5,0-0.7,0.1c-0.2,0-0.5,0.1-0.6,0.2s-0.3,0.2-0.5,0.4s-0.2,0.4-0.2,0.6c0,0.2,0,0.4,0.1,0.6
				c0.1,0.2,0.2,0.3,0.4,0.4c0.2,0.1,0.4,0.3,0.6,0.4c0.3,0.1,0.5,0.3,0.9,0.4c0.3,0.2,0.7,0.4,1,0.6c0.3,0.2,0.6,0.4,0.8,0.6
				c0.2,0.2,0.4,0.5,0.5,0.8s0.2,0.6,0.2,1c0,0.5-0.1,0.9-0.3,1.3c-0.2,0.3-0.5,0.6-0.8,0.8c-0.3,0.2-0.7,0.4-1.2,0.5
				c-0.4,0.1-0.9,0.1-1.4,0.1c-0.2,0-0.4,0-0.6,0c-0.2,0-0.5-0.1-0.7-0.1c-0.2,0-0.5-0.1-0.7-0.2
				C543.9-169.4,543.8-169.5,543.6-169.6z"/>
			<path style="fill:#686969;" d="M557.1-169.2h-5.5v-9.8h5.3v1.4h-3.6v2.8h3.4v1.4h-3.4v2.9h3.9V-169.2z"/>
			<path style="fill:#686969;" d="M558.4-169.6v-1.7c0.1,0.1,0.3,0.3,0.5,0.4c0.2,0.1,0.4,0.2,0.7,0.3c0.2,0.1,0.5,0.1,0.7,0.2
				c0.2,0,0.4,0.1,0.6,0.1c0.7,0,1.2-0.1,1.5-0.3s0.5-0.6,0.5-1c0-0.2-0.1-0.4-0.2-0.6s-0.3-0.3-0.5-0.5s-0.4-0.3-0.7-0.4
				c-0.3-0.1-0.6-0.3-0.9-0.4c-0.3-0.2-0.6-0.4-0.9-0.5c-0.3-0.2-0.5-0.4-0.7-0.6s-0.4-0.5-0.5-0.7s-0.2-0.6-0.2-1
				c0-0.5,0.1-0.9,0.3-1.2s0.5-0.6,0.8-0.8c0.3-0.2,0.7-0.4,1.2-0.5s0.9-0.2,1.3-0.2c1,0,1.8,0.1,2.2,0.3v1.6
				c-0.6-0.4-1.3-0.6-2.1-0.6c-0.2,0-0.5,0-0.7,0.1c-0.2,0-0.5,0.1-0.6,0.2s-0.3,0.2-0.5,0.4s-0.2,0.4-0.2,0.6c0,0.2,0,0.4,0.1,0.6
				c0.1,0.2,0.2,0.3,0.4,0.4c0.2,0.1,0.4,0.3,0.6,0.4c0.3,0.1,0.5,0.3,0.9,0.4c0.3,0.2,0.7,0.4,1,0.6c0.3,0.2,0.6,0.4,0.8,0.6
				c0.2,0.2,0.4,0.5,0.5,0.8s0.2,0.6,0.2,1c0,0.5-0.1,0.9-0.3,1.3c-0.2,0.3-0.5,0.6-0.8,0.8c-0.3,0.2-0.7,0.4-1.2,0.5
				c-0.4,0.1-0.9,0.1-1.4,0.1c-0.2,0-0.4,0-0.6,0c-0.2,0-0.5-0.1-0.7-0.1c-0.2,0-0.5-0.1-0.7-0.2
				C558.7-169.4,558.5-169.5,558.4-169.6z"/>
		</g>
		<path style="fill-rule:evenodd;clip-rule:evenodd;fill:#686969;" d="M543.2-205.9c0,2-2.1,2.9-4.2,2.9h-7.4v-2.4h7.4
			c0.4,0,0.6-0.9,0.6-0.9l-1.3,0.4l-2.8,0c-2.5,0-4.1-1.1-4.1-2.6v-0.2c0-2.6,0-3.6,0-4l-1.4-0.8v7.7h-3.7v-5.7l-2.1,4.2
			c-0.5,1.1-1.3,1.6-2.7,1.6s-2.2-0.5-2.7-1.6l-2.1-4.2v5.7h-3.4v-8.9c0-1.1,0.2-1.7,1.3-2c0.5-0.2,1.1-0.2,1.5-0.2
			c1.3,0,2.2,0.6,2.7,1.6l2.6,5.6l2.7-5.6c0.5-1.1,1.5-1.6,2.7-1.6c0.5,0,1,0.1,1.5,0.2c1,0.3,1.6,1,1.6,2v1.3h5.4v4.7
			c0,0.1,0.2,0.2,0.6,0.2l1,0h2.6v-4.8h3.7L543.2-205.9L543.2-205.9L543.2-205.9z M528.1-233.1c7.2,0,13.1,1.7,13.1,3.7
			c0,2-5.9,3.7-13.1,3.7c-7.3,0-13.1-1.7-13.1-3.7C515-231.5,520.8-233.1,528.1-233.1L528.1-233.1z M528.1-235.6
			c-10.2,0-18.4,3.2-18.4,6.7v31.9c0,3.5,8.2,7.6,18.4,7.6c10.1,0,18.4-3.9,18.4-7.4v-31.9C546.5-232.2,538.2-235.6,528.1-235.6
			L528.1-235.6z"/>
		
			<path style="fill:none;stroke:#898989;stroke-width:4;stroke-linecap:round;stroke-linejoin:round;stroke-miterlimit:10;stroke-dasharray:5,9;" d="
			M483.8-387.9c-148.9,0-269.6,121-269.6,270.3v289.1c0,141.3,120.7,270.3,269.6,270.3c148.9,0,269.6-121,269.6-270.3v-289.1
			C753.4-266.9,632.7-387.9,483.8-387.9z"/>
		<g>
			<path style="fill:#898989;" d="M624.2-368.2l-2.4-1.2l0.5-3.9l-5.2-2.6l-2.8,2.8l-2.4-1.2l11.5-10.7l2.5,1.2L624.2-368.2z
				 M622.6-375.5l0.8-6.2c0-0.2,0.1-0.5,0.2-0.9l0,0c-0.2,0.3-0.4,0.6-0.6,0.7l-4.4,4.3L622.6-375.5z"/>
			<path style="fill:#898989;" d="M641.6-374.1l-12.7,6.1l6.9,3.9l-1,1.8l-9.9-5.6l0.5-1l12.7-6l-6.5-3.7l1-1.8l9.4,5.3L641.6-374.1
				z"/>
			<path style="fill:#898989;" d="M649.5-360.1c-2.2,3.5-5,4.2-8.3,2.1c-3.2-2-3.7-4.7-1.6-8l4.8-7.6l2.1,1.3l-4.5,7.2
				c-1.5,2.4-1.4,4.3,0.5,5.5c1.8,1.2,3.5,0.6,5-1.8l4.6-7.3l2.1,1.3L649.5-360.1z"/>
			<path style="fill:#898989;" d="M658.3-346.7l-2.3-1.6l0.3-4.6c0-0.4,0-0.8,0-1.1c0-0.3-0.1-0.6-0.1-0.9c-0.1-0.3-0.2-0.5-0.4-0.7
				c-0.2-0.2-0.4-0.4-0.6-0.6l-0.8-0.6l-3.4,4.9l-2-1.4l8.5-12l4,2.8c0.6,0.4,1,0.8,1.4,1.3c0.4,0.5,0.7,1,0.8,1.5
				c0.2,0.5,0.2,1.1,0.1,1.6s-0.3,1.1-0.7,1.6c-0.3,0.4-0.6,0.8-1,1c-0.4,0.3-0.8,0.5-1.2,0.6s-0.9,0.2-1.3,0.1
				c-0.5,0-0.9-0.1-1.4-0.3l0,0c0.1,0.3,0.2,0.5,0.3,0.8c0.1,0.3,0.1,0.5,0.1,0.8c0,0.3,0.1,0.5,0.1,0.8c0,0.3,0,0.6,0,1
				L658.3-346.7z M658.3-362.2l-2.8,3.9l1.7,1.2c0.3,0.2,0.6,0.4,1,0.5c0.3,0.1,0.6,0.1,1,0.1s0.6-0.2,0.9-0.3
				c0.3-0.2,0.5-0.4,0.8-0.8c0.4-0.6,0.5-1.2,0.4-1.7s-0.5-1.1-1.2-1.6L658.3-362.2z"/>
			<path style="fill:#898989;" d="M666-340.6l-6.5-5l9-11.6l6.3,4.8l-1.3,1.6l-4.3-3.4l-2.5,3.3l4,3.1l-1.3,1.6l-4-3.1l-2.7,3.4
				l4.6,3.6L666-340.6z"/>
			<path style="fill:#898989;" d="M690.7-338.9l-13.7,7.5l-2-1.8l5.8-14.5l2,1.8l-4.6,10.8c-0.1,0.3-0.4,0.7-0.6,1.1l0,0
				c0.3-0.3,0.6-0.5,1.1-0.8l10.1-5.9L690.7-338.9z"/>
			<path style="fill:#898989;" d="M684.1-324.8l-1.8-1.7l10.1-10.7l1.8,1.7L684.1-324.8z"/>
			<path style="fill:#898989;" d="M694.6-314.3l-2-2l1.2-4.4c0.1-0.4,0.2-0.8,0.2-1.1c0-0.3,0-0.6,0-0.9c0-0.3-0.1-0.5-0.2-0.7
				c-0.1-0.2-0.3-0.5-0.5-0.7l-0.7-0.7l-4.2,4.2l-1.7-1.7l10.5-10.3l3.4,3.4c0.5,0.5,0.9,1,1.2,1.5c0.3,0.5,0.5,1.1,0.5,1.6
				c0.1,0.5,0,1.1-0.2,1.6c-0.2,0.5-0.5,1-1,1.5c-0.4,0.4-0.8,0.6-1.2,0.8s-0.8,0.3-1.3,0.3c-0.4,0-0.9,0-1.3-0.1
				c-0.5-0.1-0.9-0.3-1.3-0.6l0,0c0.1,0.3,0.1,0.6,0.1,0.8c0,0.3,0,0.5,0,0.8c0,0.3,0,0.5-0.1,0.8c-0.1,0.3-0.1,0.6-0.2,1
				L694.6-314.3z M697.4-329.6l-3.4,3.4l1.4,1.4c0.3,0.3,0.5,0.5,0.9,0.6c0.3,0.1,0.6,0.2,0.9,0.2c0.3,0,0.6,0,1-0.2
				c0.3-0.1,0.6-0.3,0.9-0.6c0.5-0.5,0.7-1,0.7-1.6s-0.3-1.2-0.9-1.8L697.4-329.6z"/>
			<path style="fill:#898989;" d="M711-315l-2.8-3.1l-9.4,8.5l-1.6-1.8l9.4-8.5l-2.8-3.1l1.5-1.4l7.3,8.1L711-315z"/>
			<path style="fill:#898989;" d="M714.7-300.1c-3.2,2.6-6,2.4-8.5-0.6c-2.4-2.9-2-5.6,1-8.1l6.9-5.7l1.6,1.9l-6.6,5.4
				c-2.2,1.8-2.6,3.6-1.2,5.3c1.4,1.7,3.1,1.6,5.3-0.2l6.7-5.5l1.6,1.9L714.7-300.1z"/>
			<path style="fill:#898989;" d="M719.1-284.4l-1.6-2.2l2.2-3.3l-3.4-4.6l-3.8,1.2l-1.6-2.1l15.1-4.3l1.6,2.2L719.1-284.4z
				 M720.9-291.5l3.5-5.1c0.1-0.2,0.3-0.4,0.6-0.7l0,0c-0.3,0.2-0.6,0.3-0.9,0.4l-5.9,1.9L720.9-291.5z"/>
			<path style="fill:#898989;" d="M724.6-276.1l-4.6-6.7l12.2-8.2l1.4,2l-10.5,7.1l3.2,4.7L724.6-276.1z"/>
			<path style="fill:#898989;" d="M735-258.8l-1.3-2.3l5.8-11.5c0.1-0.3,0.3-0.6,0.5-0.8l0-0.1c-0.2,0.2-0.8,0.6-1.7,1.1l-8.3,4.8
				l-1.2-2l12.7-7.4l1.4,2.5l-5.7,11.2c-0.2,0.5-0.4,0.8-0.5,0.9l0,0c0.3-0.3,0.9-0.6,1.7-1.1l8.2-4.8l1.2,2L735-258.8z"/>
			<path style="fill:#898989;" d="M740.4-248.4l-3.8-7.3l13.1-6.7l3.6,7l-1.8,1l-2.5-4.9l-3.7,1.9l2.3,4.5l-1.8,0.9l-2.3-4.5l-3.9,2
				l2.7,5.2L740.4-248.4z"/>
			<path style="fill:#898989;" d="M757-242.9l-1.8-3.8l-11.5,5.3l-1-2.2l11.5-5.3l-1.8-3.8l1.9-0.9l4.6,9.9L757-242.9z"/>
			<path style="fill:#898989;" d="M766.9-223.9l-15.2,1.7l-1-2.6l8.5-6.4c0.4-0.3,0.8-0.5,1.3-0.7l0,0c-0.5,0.1-0.9,0.2-1.4,0.3
				l-10.6,1.2l-1-2.6l12.2-9.2l1,2.5l-9,6.4c-0.4,0.3-0.8,0.5-1.2,0.7l0,0c0.3-0.1,0.8-0.2,1.4-0.3l11.1-1.2l0.9,2.3l-9.1,6.6
				c-0.3,0.2-0.7,0.5-1.1,0.7l0,0c0.3-0.1,0.8-0.2,1.3-0.3l11-1.5L766.9-223.9z"/>
			<path style="fill:#898989;" d="M755.3-210.8c-0.6-2-0.5-3.8,0.4-5.5c0.9-1.6,2.4-2.8,4.5-3.5c2.3-0.7,4.2-0.7,6,0.1
				c1.7,0.8,2.9,2.3,3.6,4.4c0.6,2,0.5,3.8-0.4,5.4s-2.4,2.8-4.5,3.4c-2.3,0.7-4.3,0.7-6-0.1S756-208.8,755.3-210.8z M767.8-214.7
				c-0.4-1.3-1.2-2.2-2.4-2.7c-1.2-0.5-2.6-0.5-4.2,0c-1.6,0.5-2.7,1.3-3.4,2.4s-0.8,2.3-0.4,3.5c0.4,1.3,1.2,2.3,2.4,2.7
				c1.2,0.5,2.5,0.5,4.2-0.1c1.7-0.5,2.8-1.3,3.5-2.4C768.1-212.2,768.2-213.4,767.8-214.7z"/>
			<path style="fill:#898989;" d="M761.3-190.7l-0.7-2.8l3.2-3.3c0.3-0.3,0.5-0.6,0.7-0.8c0.2-0.3,0.3-0.5,0.5-0.8s0.2-0.5,0.2-0.8
				c0-0.3,0-0.5-0.1-0.8l-0.3-1l-5.8,1.5l-0.6-2.4l14.2-3.7l1.2,4.7c0.2,0.7,0.3,1.3,0.2,1.9c0,0.6-0.1,1.2-0.3,1.7
				s-0.5,0.9-0.9,1.3c-0.4,0.4-0.9,0.6-1.6,0.8c-0.5,0.1-1,0.2-1.4,0.1s-0.9-0.2-1.3-0.3s-0.8-0.4-1.1-0.8c-0.3-0.3-0.6-0.7-0.9-1.2
				l0,0c-0.1,0.3-0.2,0.6-0.3,0.8c-0.1,0.2-0.3,0.5-0.4,0.7c-0.1,0.2-0.3,0.4-0.5,0.7c-0.2,0.2-0.4,0.5-0.7,0.8L761.3-190.7z
				 M771.3-202.6l-4.6,1.2l0.5,2c0.1,0.4,0.2,0.7,0.4,1c0.2,0.3,0.4,0.5,0.7,0.7c0.3,0.2,0.6,0.3,0.9,0.3c0.3,0,0.7,0,1.1-0.1
				c0.7-0.2,1.2-0.5,1.4-1.1c0.3-0.5,0.3-1.2,0.1-2L771.3-202.6z"/>
			<path style="fill:#898989;" d="M763.9-178.3l-0.7-3.1l5.5-6.4c0.2-0.2,0.4-0.4,0.4-0.4l0,0l-7.1,1.5l-0.5-2.4l14.4-3.1l0.5,2.4
				l-6.8,1.4l0,0c0.2,0,0.4,0.1,0.6,0.2l7.3,3.5l0.6,2.9l-8.1-4.2L763.9-178.3z"/>
		</g>
		<g>
			<g>
				<path style="fill:#686969;" d="M349.7-169.2h-1.8l-0.9-2.5h-3.8l-0.8,2.5h-1.8l3.7-9.8h1.8L349.7-169.2z M346.6-173l-1.4-3.9
					c0-0.1-0.1-0.3-0.1-0.6h0c0,0.3-0.1,0.5-0.1,0.6l-1.3,3.9H346.6z"/>
				<path style="fill:#686969;" d="M357.6-169.6c-0.7,0.4-1.6,0.6-2.7,0.6c-1.4,0-2.5-0.4-3.4-1.3c-0.9-0.9-1.3-2.1-1.3-3.5
					c0-1.6,0.5-2.8,1.4-3.8s2.2-1.4,3.6-1.4c0.9,0,1.7,0.1,2.3,0.4v1.6c-0.7-0.4-1.4-0.6-2.2-0.6c-1.1,0-1.9,0.3-2.6,1s-1,1.6-1,2.7
					c0,1.1,0.3,1.9,0.9,2.6c0.6,0.6,1.4,1,2.4,1c0.9,0,1.7-0.2,2.4-0.7V-169.6z"/>
				<path style="fill:#686969;" d="M365.9-169.6c-0.7,0.4-1.6,0.6-2.7,0.6c-1.4,0-2.5-0.4-3.4-1.3c-0.9-0.9-1.3-2.1-1.3-3.5
					c0-1.6,0.5-2.8,1.4-3.8s2.2-1.4,3.6-1.4c0.9,0,1.7,0.1,2.3,0.4v1.6c-0.7-0.4-1.4-0.6-2.2-0.6c-1.1,0-1.9,0.3-2.6,1s-1,1.6-1,2.7
					c0,1.1,0.3,1.9,0.9,2.6c0.6,0.6,1.4,1,2.4,1c0.9,0,1.7-0.2,2.4-0.7V-169.6z"/>
				<path style="fill:#686969;" d="M373.2-169.2h-5.5v-9.8h5.3v1.4h-3.6v2.8h3.4v1.4h-3.4v2.9h3.9V-169.2z"/>
				<path style="fill:#686969;" d="M374.5-169.6v-1.7c0.1,0.1,0.3,0.3,0.5,0.4c0.2,0.1,0.4,0.2,0.7,0.3c0.2,0.1,0.5,0.1,0.7,0.2
					c0.2,0,0.4,0.1,0.6,0.1c0.7,0,1.2-0.1,1.5-0.3s0.5-0.6,0.5-1c0-0.2-0.1-0.4-0.2-0.6s-0.3-0.3-0.5-0.5s-0.4-0.3-0.7-0.4
					c-0.3-0.1-0.6-0.3-0.9-0.4c-0.3-0.2-0.6-0.4-0.9-0.5c-0.3-0.2-0.5-0.4-0.7-0.6s-0.4-0.5-0.5-0.7s-0.2-0.6-0.2-1
					c0-0.5,0.1-0.9,0.3-1.2s0.5-0.6,0.8-0.8c0.3-0.2,0.7-0.4,1.2-0.5s0.9-0.2,1.3-0.2c1,0,1.8,0.1,2.2,0.3v1.6
					c-0.6-0.4-1.3-0.6-2.1-0.6c-0.2,0-0.5,0-0.7,0.1c-0.2,0-0.5,0.1-0.6,0.2s-0.3,0.2-0.5,0.4s-0.2,0.4-0.2,0.6c0,0.2,0,0.4,0.1,0.6
					c0.1,0.2,0.2,0.3,0.4,0.4c0.2,0.1,0.4,0.3,0.6,0.4c0.3,0.1,0.5,0.3,0.9,0.4c0.3,0.2,0.7,0.4,1,0.6c0.3,0.2,0.6,0.4,0.8,0.6
					c0.2,0.2,0.4,0.5,0.5,0.8s0.2,0.6,0.2,1c0,0.5-0.1,0.9-0.3,1.3c-0.2,0.3-0.5,0.6-0.8,0.8c-0.3,0.2-0.7,0.4-1.2,0.5
					c-0.4,0.1-0.9,0.1-1.4,0.1c-0.2,0-0.4,0-0.6,0c-0.2,0-0.5-0.1-0.7-0.1c-0.2,0-0.5-0.1-0.7-0.2
					C374.8-169.4,374.6-169.5,374.5-169.6z"/>
				<path style="fill:#686969;" d="M382.1-169.6v-1.7c0.1,0.1,0.3,0.3,0.5,0.4c0.2,0.1,0.4,0.2,0.7,0.3c0.2,0.1,0.5,0.1,0.7,0.2
					c0.2,0,0.4,0.1,0.6,0.1c0.7,0,1.2-0.1,1.5-0.3s0.5-0.6,0.5-1c0-0.2-0.1-0.4-0.2-0.6s-0.3-0.3-0.5-0.5s-0.4-0.3-0.7-0.4
					c-0.3-0.1-0.6-0.3-0.9-0.4c-0.3-0.2-0.6-0.4-0.9-0.5c-0.3-0.2-0.5-0.4-0.7-0.6s-0.4-0.5-0.5-0.7s-0.2-0.6-0.2-1
					c0-0.5,0.1-0.9,0.3-1.2s0.5-0.6,0.8-0.8c0.3-0.2,0.7-0.4,1.2-0.5s0.9-0.2,1.3-0.2c1,0,1.8,0.1,2.2,0.3v1.6
					c-0.6-0.4-1.3-0.6-2.1-0.6c-0.2,0-0.5,0-0.7,0.1c-0.2,0-0.5,0.1-0.6,0.2s-0.3,0.2-0.5,0.4s-0.2,0.4-0.2,0.6c0,0.2,0,0.4,0.1,0.6
					c0.1,0.2,0.2,0.3,0.4,0.4c0.2,0.1,0.4,0.3,0.6,0.4c0.3,0.1,0.5,0.3,0.9,0.4c0.3,0.2,0.7,0.4,1,0.6c0.3,0.2,0.6,0.4,0.8,0.6
					c0.2,0.2,0.4,0.5,0.5,0.8s0.2,0.6,0.2,1c0,0.5-0.1,0.9-0.3,1.3c-0.2,0.3-0.5,0.6-0.8,0.8c-0.3,0.2-0.7,0.4-1.2,0.5
					c-0.4,0.1-0.9,0.1-1.4,0.1c-0.2,0-0.4,0-0.6,0c-0.2,0-0.5-0.1-0.7-0.1c-0.2,0-0.5-0.1-0.7-0.2
					C382.4-169.4,382.2-169.5,382.1-169.6z"/>
				<path style="fill:#686969;" d="M341.1-152.9c-0.7,0.4-1.6,0.6-2.7,0.6c-1.4,0-2.5-0.4-3.4-1.3c-0.9-0.9-1.3-2.1-1.3-3.5
					c0-1.6,0.5-2.8,1.4-3.8s2.2-1.4,3.6-1.4c0.9,0,1.7,0.1,2.3,0.4v1.6c-0.7-0.4-1.4-0.6-2.2-0.6c-1.1,0-1.9,0.3-2.6,1s-1,1.6-1,2.7
					c0,1.1,0.3,1.9,0.9,2.6c0.6,0.6,1.4,1,2.4,1c0.9,0,1.7-0.2,2.4-0.7V-152.9z"/>
				<path style="fill:#686969;" d="M346.8-152.3c-1.4,0-2.5-0.5-3.4-1.4c-0.8-0.9-1.3-2.1-1.3-3.6c0-1.6,0.4-2.8,1.3-3.8
					c0.9-0.9,2-1.4,3.5-1.4c1.4,0,2.5,0.5,3.3,1.4c0.8,0.9,1.3,2.1,1.3,3.6c0,1.6-0.4,2.8-1.3,3.8
					C349.4-152.8,348.2-152.3,346.8-152.3z M346.9-161c-0.9,0-1.6,0.3-2.2,1c-0.6,0.7-0.8,1.5-0.8,2.6c0,1.1,0.3,2,0.8,2.6
					c0.5,0.7,1.3,1,2.1,1c0.9,0,1.7-0.3,2.2-0.9c0.5-0.6,0.8-1.5,0.8-2.6c0-1.2-0.3-2.1-0.8-2.7S347.8-161,346.9-161z"/>
				<path style="fill:#686969;" d="M361.6-152.5h-1.8l-4.7-7.2c-0.1-0.2-0.2-0.4-0.3-0.6h0c0,0.2,0.1,0.7,0.1,1.3v6.4h-1.6v-9.8h1.9
					l4.5,7c0.2,0.3,0.3,0.5,0.4,0.6h0c0-0.3-0.1-0.7-0.1-1.3v-6.3h1.6V-152.5z"/>
				<path style="fill:#686969;" d="M370.2-160.9h-2.8v8.4h-1.6v-8.4H363v-1.4h7.2V-160.9z"/>
				<path style="fill:#686969;" d="M379.2-152.5h-1.9l-1.6-2.6c-0.1-0.2-0.3-0.4-0.4-0.6c-0.1-0.2-0.3-0.3-0.4-0.4
					c-0.1-0.1-0.3-0.2-0.5-0.2s-0.3-0.1-0.6-0.1h-0.7v4h-1.6v-9.8h3.2c0.5,0,0.9,0.1,1.3,0.2c0.4,0.1,0.7,0.3,1,0.5
					c0.3,0.2,0.5,0.5,0.7,0.8c0.2,0.3,0.2,0.7,0.2,1.2c0,0.3-0.1,0.7-0.2,0.9c-0.1,0.3-0.2,0.5-0.4,0.8c-0.2,0.2-0.4,0.4-0.7,0.6
					c-0.3,0.2-0.6,0.3-0.9,0.4v0c0.2,0.1,0.3,0.2,0.5,0.3c0.1,0.1,0.3,0.2,0.4,0.4c0.1,0.1,0.2,0.3,0.3,0.4c0.1,0.2,0.2,0.3,0.4,0.6
					L379.2-152.5z M373.3-161v3.2h1.3c0.2,0,0.5,0,0.7-0.1s0.4-0.2,0.5-0.3c0.2-0.1,0.3-0.3,0.4-0.5c0.1-0.2,0.1-0.4,0.1-0.7
					c0-0.5-0.1-0.8-0.4-1.1s-0.7-0.4-1.3-0.4H373.3z"/>
				<path style="fill:#686969;" d="M384.2-152.3c-1.4,0-2.5-0.5-3.4-1.4c-0.8-0.9-1.3-2.1-1.3-3.6c0-1.6,0.4-2.8,1.3-3.8
					c0.9-0.9,2-1.4,3.5-1.4c1.4,0,2.5,0.5,3.3,1.4c0.8,0.9,1.3,2.1,1.3,3.6c0,1.6-0.4,2.8-1.3,3.8
					C386.8-152.8,385.6-152.3,384.2-152.3z M384.3-161c-0.9,0-1.6,0.3-2.2,1c-0.6,0.7-0.8,1.5-0.8,2.6c0,1.1,0.3,2,0.8,2.6
					c0.5,0.7,1.3,1,2.1,1c0.9,0,1.7-0.3,2.2-0.9c0.5-0.6,0.8-1.5,0.8-2.6c0-1.2-0.3-2.1-0.8-2.7S385.2-161,384.3-161z"/>
				<path style="fill:#686969;" d="M396.1-152.5h-5.4v-9.8h1.6v8.4h3.8V-152.5z"/>
			</g>
			<g>
				<path style="fill-rule:evenodd;clip-rule:evenodd;fill:#686969;" d="M393.2-214.6l-28.2-33.7v-0.5l-0.2,0.2l-0.3-0.4v0.7
					l-28.2,33.4l28.4,23.1v0.3L393.2-214.6L393.2-214.6L393.2-214.6z M361.2-202.8l0-14.4c-2.6-1.4-4.4-4.2-4.4-7.5
					c0-4.7,3.6-8.4,8-8.4c4.4,0,8,3.8,8,8.5c0,3.3-1.8,6.1-4.4,7.5l0,2.8l-0.1,0.2l-2.7,2.8l2.8,3l0,0.2l-2.6,2.8l2.5,2.6l-3.5,3.7
					L361.2-202.8L361.2-202.8L361.2-202.8z"/>
				<path style="fill-rule:evenodd;clip-rule:evenodd;fill:#686969;" d="M367.7-227.1c0-1.4-1.6-2.5-3-2.5c-1.3,0-2.8,1-2.8,2.4
					c0,1.4,1.4,2.9,2.8,2.9C366-224.2,367.7-225.6,367.7-227.1L367.7-227.1z"/>
			</g>
		</g>
		<g>
			<g>
				<path style="fill:#686969;" d="M585-169.6v-1.7c0.1,0.1,0.3,0.3,0.5,0.4c0.2,0.1,0.4,0.2,0.7,0.3c0.2,0.1,0.5,0.1,0.7,0.2
					c0.2,0,0.4,0.1,0.6,0.1c0.7,0,1.2-0.1,1.5-0.3s0.5-0.6,0.5-1c0-0.2-0.1-0.4-0.2-0.6s-0.3-0.3-0.5-0.5s-0.4-0.3-0.7-0.4
					c-0.3-0.1-0.6-0.3-0.9-0.4c-0.3-0.2-0.6-0.4-0.9-0.5c-0.3-0.2-0.5-0.4-0.7-0.6s-0.4-0.5-0.5-0.7s-0.2-0.6-0.2-1
					c0-0.5,0.1-0.9,0.3-1.2s0.5-0.6,0.8-0.8c0.3-0.2,0.7-0.4,1.2-0.5s0.9-0.2,1.3-0.2c1,0,1.8,0.1,2.2,0.3v1.6
					c-0.6-0.4-1.3-0.6-2.1-0.6c-0.2,0-0.5,0-0.7,0.1c-0.2,0-0.5,0.1-0.6,0.2s-0.3,0.2-0.5,0.4s-0.2,0.4-0.2,0.6c0,0.2,0,0.4,0.1,0.6
					c0.1,0.2,0.2,0.3,0.4,0.4c0.2,0.1,0.4,0.3,0.6,0.4c0.3,0.1,0.5,0.3,0.9,0.4c0.3,0.2,0.7,0.4,1,0.6c0.3,0.2,0.6,0.4,0.8,0.6
					c0.2,0.2,0.4,0.5,0.5,0.8s0.2,0.6,0.2,1c0,0.5-0.1,0.9-0.3,1.3c-0.2,0.3-0.5,0.6-0.8,0.8c-0.3,0.2-0.7,0.4-1.2,0.5
					c-0.4,0.1-0.9,0.1-1.4,0.1c-0.2,0-0.4,0-0.6,0c-0.2,0-0.5-0.1-0.7-0.1c-0.2,0-0.5-0.1-0.7-0.2
					C585.3-169.4,585.1-169.5,585-169.6z"/>
				<path style="fill:#686969;" d="M599.3-177.6h-2.8v8.4h-1.6v-8.4h-2.8v-1.4h7.2V-177.6z"/>
				<path style="fill:#686969;" d="M604.2-169.1c-1.4,0-2.5-0.5-3.4-1.4c-0.8-0.9-1.3-2.1-1.3-3.6c0-1.6,0.4-2.8,1.3-3.8
					c0.9-0.9,2-1.4,3.5-1.4c1.4,0,2.5,0.5,3.3,1.4c0.8,0.9,1.3,2.1,1.3,3.6c0,1.6-0.4,2.8-1.3,3.8
					C606.7-169.5,605.6-169.1,604.2-169.1z M604.2-177.7c-0.9,0-1.6,0.3-2.2,1c-0.6,0.7-0.8,1.5-0.8,2.6c0,1.1,0.3,2,0.8,2.6
					c0.5,0.7,1.3,1,2.1,1c0.9,0,1.7-0.3,2.2-0.9c0.5-0.6,0.8-1.5,0.8-2.6c0-1.2-0.3-2.1-0.8-2.7S605.2-177.7,604.2-177.7z"/>
				<path style="fill:#686969;" d="M618.2-169.2h-1.9l-1.6-2.6c-0.1-0.2-0.3-0.4-0.4-0.6c-0.1-0.2-0.3-0.3-0.4-0.4
					c-0.1-0.1-0.3-0.2-0.5-0.2s-0.3-0.1-0.6-0.1h-0.7v4h-1.6v-9.8h3.2c0.5,0,0.9,0.1,1.3,0.2c0.4,0.1,0.7,0.3,1,0.5
					c0.3,0.2,0.5,0.5,0.7,0.8c0.2,0.3,0.2,0.7,0.2,1.2c0,0.3-0.1,0.7-0.2,0.9c-0.1,0.3-0.2,0.5-0.4,0.8c-0.2,0.2-0.4,0.4-0.7,0.6
					c-0.3,0.2-0.6,0.3-0.9,0.4v0c0.2,0.1,0.3,0.2,0.5,0.3c0.1,0.1,0.3,0.2,0.4,0.4c0.1,0.1,0.2,0.3,0.3,0.4c0.1,0.2,0.2,0.3,0.4,0.6
					L618.2-169.2z M612.3-177.7v3.2h1.3c0.2,0,0.5,0,0.7-0.1s0.4-0.2,0.5-0.3c0.2-0.1,0.3-0.3,0.4-0.5c0.1-0.2,0.1-0.4,0.1-0.7
					c0-0.5-0.1-0.8-0.4-1.1s-0.7-0.4-1.3-0.4H612.3z"/>
				<path style="fill:#686969;" d="M627.4-169.2h-1.8l-0.9-2.5h-3.8l-0.8,2.5h-1.8l3.7-9.8h1.8L627.4-169.2z M624.3-173l-1.4-3.9
					c0-0.1-0.1-0.3-0.1-0.6h0c0,0.3-0.1,0.5-0.1,0.6l-1.3,3.9H624.3z"/>
				<path style="fill:#686969;" d="M636.1-169.9c-1,0.6-2.1,0.8-3.4,0.8c-1.4,0-2.6-0.4-3.5-1.3c-0.9-0.9-1.3-2.1-1.3-3.6
					c0-1.5,0.5-2.7,1.5-3.7c1-1,2.2-1.5,3.7-1.5c1.1,0,2,0.2,2.7,0.5v1.7c-0.7-0.5-1.6-0.7-2.7-0.7c-1,0-1.9,0.3-2.6,1s-1,1.6-1,2.7
					c0,1.1,0.3,2,0.9,2.6s1.3,1,2.3,1c0.7,0,1.3-0.1,1.7-0.4v-2.3h-2.1v-1.4h3.7V-169.9z"/>
				<path style="fill:#686969;" d="M643.7-169.2h-5.5v-9.8h5.3v1.4h-3.6v2.8h3.4v1.4h-3.4v2.9h3.9V-169.2z"/>
			</g>
			<path style="fill-rule:evenodd;clip-rule:evenodd;fill:#686969;" d="M631.1-213.6h-3.1v-14.6c0-0.8-0.7-1.4-1.4-1.4h-34.7
				c-0.8,0-1.4,0.7-1.4,1.4v29.2c0,0.8,0.7,1.4,1.4,1.4h19.8l5.1,8.9h14.4l7.1-12.6L631.1-213.6L631.1-213.6L631.1-213.6z
				 M618.2-221.3h6.9v4.2h-6.9V-221.3L618.2-221.3L618.2-221.3z M625.2-215.7v2.1h-6.9v-2.1H625.2L625.2-215.7L625.2-215.7z
				 M609.9-221.3h6.9v4.2h-6.9V-221.3L609.9-221.3L609.9-221.3z M609.9-215.7h6.9v2.1h-0.2l-1.2,2.1h-5.6L609.9-215.7L609.9-215.7
				L609.9-215.7L609.9-215.7z M609.9-210.1h4.8l-2.4,4.2h-2.4V-210.1L609.9-210.1L609.9-210.1z M611.4-204.6l-1.6,2.8v-2.8H611.4
				L611.4-204.6L611.4-204.6z M600.1-200.4h-6.9v-4.2h6.9V-200.4L600.1-200.4L600.1-200.4z M600.1-205.9h-6.9v-4.2h6.9V-205.9
				L600.1-205.9L600.1-205.9z M600.1-211.5h-6.9v-4.2h6.9V-211.5L600.1-211.5L600.1-211.5z M600.1-217.1h-6.9v-4.2h6.9V-217.1
				L600.1-217.1L600.1-217.1z M608.5-200.4h-6.9v-4.2h6.9V-200.4L608.5-200.4L608.5-200.4z M608.5-205.9h-6.9v-4.2h6.9V-205.9
				L608.5-205.9L608.5-205.9z M608.5-211.5h-6.9v-4.2h6.9V-211.5L608.5-211.5L608.5-211.5z M608.5-217.1h-6.9v-4.2h6.9V-217.1
				L608.5-217.1L608.5-217.1z M609.9-200.4L609.9-200.4L609.9-200.4L609.9-200.4L609.9-200.4z"/>
		</g>
		<g>
			<g>
				<path style="fill:#686969;" d="M440-169.2h-1.8l-0.9-2.5h-3.8l-0.8,2.5h-1.8l3.7-9.8h1.8L440-169.2z M436.9-173l-1.4-3.9
					c0-0.1-0.1-0.3-0.1-0.6h0c0,0.3-0.1,0.5-0.1,0.6l-1.3,3.9H436.9z"/>
				<path style="fill:#686969;" d="M442.9-172.8v3.5h-1.6v-9.8h3c1.1,0,2,0.3,2.6,0.8s0.9,1.3,0.9,2.2s-0.3,1.7-1,2.3
					c-0.6,0.6-1.5,0.9-2.6,0.9H442.9z M442.9-177.6v3.6h1c0.7,0,1.2-0.2,1.6-0.5c0.4-0.3,0.5-0.8,0.5-1.4c0-1.1-0.7-1.7-2-1.7H442.9
					z"/>
				<path style="fill:#686969;" d="M451.1-172.8v3.5h-1.6v-9.8h3c1.1,0,2,0.3,2.6,0.8s0.9,1.3,0.9,2.2s-0.3,1.7-1,2.3
					c-0.6,0.6-1.5,0.9-2.6,0.9H451.1z M451.1-177.6v3.6h1c0.7,0,1.2-0.2,1.6-0.5c0.4-0.3,0.5-0.8,0.5-1.4c0-1.1-0.7-1.7-2-1.7H451.1
					z"/>
				<path style="fill:#686969;" d="M457.2-169.6v-1.7c0.1,0.1,0.3,0.3,0.5,0.4c0.2,0.1,0.4,0.2,0.7,0.3c0.2,0.1,0.5,0.1,0.7,0.2
					c0.2,0,0.4,0.1,0.6,0.1c0.7,0,1.2-0.1,1.5-0.3s0.5-0.6,0.5-1c0-0.2-0.1-0.4-0.2-0.6s-0.3-0.3-0.5-0.5s-0.4-0.3-0.7-0.4
					c-0.3-0.1-0.6-0.3-0.9-0.4c-0.3-0.2-0.6-0.4-0.9-0.5c-0.3-0.2-0.5-0.4-0.7-0.6s-0.4-0.5-0.5-0.7s-0.2-0.6-0.2-1
					c0-0.5,0.1-0.9,0.3-1.2s0.5-0.6,0.8-0.8c0.3-0.2,0.7-0.4,1.2-0.5s0.9-0.2,1.3-0.2c1,0,1.8,0.1,2.2,0.3v1.6
					c-0.6-0.4-1.3-0.6-2.1-0.6c-0.2,0-0.5,0-0.7,0.1c-0.2,0-0.5,0.1-0.6,0.2s-0.3,0.2-0.5,0.4s-0.2,0.4-0.2,0.6c0,0.2,0,0.4,0.1,0.6
					c0.1,0.2,0.2,0.3,0.4,0.4c0.2,0.1,0.4,0.3,0.6,0.4c0.3,0.1,0.5,0.3,0.9,0.4c0.3,0.2,0.7,0.4,1,0.6c0.3,0.2,0.6,0.4,0.8,0.6
					c0.2,0.2,0.4,0.5,0.5,0.8s0.2,0.6,0.2,1c0,0.5-0.1,0.9-0.3,1.3c-0.2,0.3-0.5,0.6-0.8,0.8c-0.3,0.2-0.7,0.4-1.2,0.5
					c-0.4,0.1-0.9,0.1-1.4,0.1c-0.2,0-0.4,0-0.6,0c-0.2,0-0.5-0.1-0.7-0.1c-0.2,0-0.5-0.1-0.7-0.2
					C457.5-169.4,457.3-169.5,457.2-169.6z"/>
			</g>
			<g>
				<path style="fill-rule:evenodd;clip-rule:evenodd;fill:#686969;" d="M439.7-204.7h16.8V-216h-16.8V-204.7L439.7-204.7
					L439.7-204.7z M451.8-208l-3.2,1.8v-3.6l3.2-1.8V-208L451.8-208L451.8-208z M448.3-214l3.2,1.8l-3.1,1.8l-3.2-1.8L448.3-214
					L448.3-214L448.3-214z M444.9-211.7l3.2,1.8v3.7l-3.2-1.8V-211.7L444.9-211.7L444.9-211.7z"/>
				<path style="fill-rule:evenodd;clip-rule:evenodd;fill:#686969;" d="M467.6-224.3h-40.5c-1.1,0-2,0.9-2,2v31.6c0,1.1,0.9,2,2,2
					h40.5c1.1,0,2-0.9,2-2v-31.6C469.6-223.4,468.7-224.3,467.6-224.3L467.6-224.3z M447.2-194.9l-1.2,3.7c0,0,0,0.1,0,0.1
					c0,0,0,0-0.1,0.1c0,0-0.1,0-0.2,0c-0.1,0-0.2,0-0.3,0c-0.1,0-0.2,0-0.2,0s-0.1,0-0.2,0s-0.1,0-0.1,0c0,0,0,0-0.1,0c0,0,0,0,0,0
					c0,0,0,0,0-0.1l-1.2-3.7c0-0.1,0-0.1,0-0.2c0,0,0-0.1,0-0.1c0,0,0.1,0,0.1,0s0.2,0,0.3,0c0.1,0,0.2,0,0.2,0c0.1,0,0.1,0,0.1,0
					c0,0,0.1,0,0.1,0c0,0,0,0,0,0.1l1,3.2h0l1-3.2c0,0,0-0.1,0-0.1c0,0,0,0,0.1-0.1c0,0,0.1,0,0.1,0s0.1,0,0.2,0c0.1,0,0.2,0,0.2,0
					c0.1,0,0.1,0,0.1,0c0,0,0,0.1,0,0.1C447.3-195,447.3-195,447.2-194.9L447.2-194.9z M452.6-191.2
					C452.6-191.1,452.6-191.1,452.6-191.2C452.6-191.1,452.6-191.1,452.6-191.2c-0.1,0.1-0.2,0.1-0.2,0.1c-0.1,0-0.1,0-0.2,0
					c-0.1,0-0.1,0-0.2,0c-0.1,0-0.1,0-0.1,0c0,0-0.1,0-0.1,0c0,0,0,0,0-0.1v-3.4h0l-1.2,3.4c0,0,0,0.1,0,0.1c0,0,0,0-0.1,0
					c0,0-0.1,0-0.1,0s-0.1,0-0.2,0s-0.1,0-0.2,0c-0.1,0-0.1,0-0.1,0c0,0-0.1,0-0.1,0c0,0,0,0,0-0.1l-1.2-3.4h0v3.4c0,0,0,0,0,0.1
					c0,0,0,0-0.1,0c0,0-0.1,0-0.1,0c-0.1,0-0.1,0-0.2,0c-0.1,0-0.1,0-0.2,0c-0.1,0-0.1,0-0.1,0c0,0-0.1,0-0.1,0c0,0,0,0,0-0.1v-3.7
					c0-0.1,0-0.2,0.1-0.2c0.1-0.1,0.1-0.1,0.2-0.1h0.6c0.1,0,0.2,0,0.3,0c0.1,0,0.1,0,0.2,0.1c0.1,0,0.1,0.1,0.1,0.1
					s0.1,0.1,0.1,0.2l0.9,2.5h0l0.9-2.5c0-0.1,0.1-0.2,0.1-0.2c0-0.1,0.1-0.1,0.1-0.2c0,0,0.1-0.1,0.2-0.1c0.1,0,0.1,0,0.2,0h0.6
					c0.1,0,0.1,0,0.1,0c0,0,0.1,0,0.1,0.1c0,0,0,0.1,0.1,0.1c0,0,0,0.1,0,0.1L452.6-191.2L452.6-191.2L452.6-191.2L452.6-191.2z
					 M457.9-204.4c0,0.6-0.5,1.1-1.1,1.1h-6.1c-0.6,2.4-0.3,2.7,3.8,2.7v1h-12.8v-1c3.7,0,4.3-0.3,3.7-2.7h-6
					c-0.6,0-1.1-0.5-1.1-1.1v-11.9c0-0.6,0.5-1.1,1.1-1.1h17.4c0.6,0,1.1,0.5,1.1,1.1L457.9-204.4L457.9-204.4L457.9-204.4
					L457.9-204.4z"/>
			</g>
		</g>
		
			<rect x="382" y="-311.9" style="fill:none;stroke:#686969;stroke-width:2;stroke-linecap:round;stroke-linejoin:round;stroke-miterlimit:10;" width="207.2" height="38"/>
		<g>
			<g>
				<path style="fill:#010101;" d="M461-6.4h-1.6v-4.2h-4.6v4.2h-1.6v-9.8h1.6v4.1h4.6v-4.1h1.6V-6.4z"/>
				<path style="fill:#010101;" d="M463.4-6.4v-9.8h2.8c3.6,0,5.4,1.6,5.4,4.8c0,1.5-0.5,2.7-1.5,3.6c-1,0.9-2.3,1.4-4,1.4H463.4z
					 M465-14.8v7h1.3c1.1,0,2-0.3,2.7-0.9c0.6-0.6,0.9-1.5,0.9-2.7c0-2.3-1.2-3.4-3.5-3.4H465z"/>
				<path style="fill:#010101;" d="M475.1-6.4h-1.7v-9.8h1.7V-6.4z"/>
				<path style="fill:#010101;" d="M483.5-6.4h-1.6v-3.9c0-1.3-0.5-2-1.4-2c-0.5,0-0.9,0.2-1.2,0.5c-0.3,0.4-0.5,0.8-0.5,1.4v4h-1.6
					v-7h1.6v1.2h0c0.5-0.9,1.3-1.3,2.3-1.3c0.8,0,1.3,0.2,1.7,0.7c0.4,0.5,0.6,1.2,0.6,2.1V-6.4z"/>
				<path style="fill:#010101;" d="M485-6.6v-1.5c0.6,0.4,1.2,0.7,2,0.7c1,0,1.4-0.3,1.4-0.8c0-0.2,0-0.3-0.1-0.4
					c-0.1-0.1-0.2-0.2-0.3-0.3c-0.1-0.1-0.3-0.2-0.5-0.2c-0.2-0.1-0.4-0.1-0.6-0.2c-0.3-0.1-0.5-0.2-0.8-0.4
					c-0.2-0.1-0.4-0.3-0.6-0.4s-0.3-0.3-0.3-0.5c-0.1-0.2-0.1-0.4-0.1-0.7c0-0.3,0.1-0.6,0.2-0.9s0.4-0.5,0.6-0.6
					c0.3-0.2,0.6-0.3,0.9-0.4c0.3-0.1,0.7-0.1,1.1-0.1c0.6,0,1.2,0.1,1.7,0.3v1.4c-0.5-0.3-1.1-0.5-1.7-0.5c-0.2,0-0.4,0-0.5,0.1
					c-0.2,0-0.3,0.1-0.4,0.2c-0.1,0.1-0.2,0.2-0.3,0.3c-0.1,0.1-0.1,0.2-0.1,0.3c0,0.1,0,0.3,0.1,0.4c0.1,0.1,0.2,0.2,0.3,0.3
					c0.1,0.1,0.3,0.2,0.4,0.2c0.2,0.1,0.4,0.1,0.6,0.2c0.3,0.1,0.6,0.2,0.8,0.4c0.2,0.1,0.4,0.3,0.6,0.4s0.3,0.3,0.4,0.6
					c0.1,0.2,0.1,0.5,0.1,0.8c0,0.4-0.1,0.7-0.2,0.9c-0.2,0.3-0.4,0.5-0.7,0.7c-0.3,0.2-0.6,0.3-0.9,0.4s-0.7,0.1-1.1,0.1
					C486.2-6.3,485.5-6.4,485-6.6z"/>
				<path style="fill:#010101;" d="M492.2-14.8c-0.3,0-0.5-0.1-0.7-0.3s-0.3-0.4-0.3-0.6c0-0.3,0.1-0.5,0.3-0.6s0.4-0.3,0.7-0.3
					c0.3,0,0.5,0.1,0.7,0.3c0.2,0.2,0.3,0.4,0.3,0.6c0,0.2-0.1,0.5-0.3,0.6C492.7-14.9,492.5-14.8,492.2-14.8z M493-6.4h-1.6v-7h1.6
					V-6.4z"/>
				<path style="fill:#010101;" d="M501.4-7c0,2.6-1.3,3.8-3.9,3.8c-0.9,0-1.7-0.2-2.4-0.5V-5c0.8,0.4,1.5,0.7,2.2,0.7
					c1.7,0,2.5-0.8,2.5-2.4v-0.8h0c-0.5,0.9-1.3,1.3-2.4,1.3c-0.8,0-1.5-0.3-2.1-0.9c-0.5-0.6-0.8-1.5-0.8-2.5
					c0-1.2,0.3-2.1,0.8-2.8c0.6-0.7,1.3-1,2.3-1c0.9,0,1.6,0.4,2,1.1h0v-1h1.6V-7z M499.8-9.6v-0.9c0-0.5-0.2-0.9-0.5-1.3
					s-0.7-0.5-1.2-0.5c-0.6,0-1.1,0.2-1.4,0.7s-0.5,1.1-0.5,1.9c0,0.7,0.2,1.2,0.5,1.6c0.3,0.4,0.8,0.6,1.3,0.6c0.5,0,1-0.2,1.3-0.6
					C499.7-8.5,499.8-9,499.8-9.6z"/>
				<path style="fill:#010101;" d="M509.6-6.4h-1.6v-3.8c0-1.4-0.5-2.1-1.4-2.1c-0.5,0-0.9,0.2-1.2,0.6c-0.3,0.4-0.5,0.9-0.5,1.5
					v3.7h-1.6v-10.3h1.6v4.5h0c0.5-0.9,1.3-1.3,2.3-1.3c1.5,0,2.3,0.9,2.3,2.8V-6.4z"/>
				<path style="fill:#010101;" d="M515.2-6.5c-0.3,0.2-0.7,0.2-1.2,0.2c-1.4,0-2-0.6-2-1.9v-3.9h-1.2v-1.2h1.2V-15l1.6-0.4v2.1h1.7
					v1.2h-1.7v3.5c0,0.4,0.1,0.7,0.2,0.9s0.4,0.3,0.7,0.3c0.3,0,0.5-0.1,0.7-0.2V-6.5z"/>
			</g>
			<g>
				<path style="fill-rule:evenodd;clip-rule:evenodd;fill:#010101;" d="M494.3-31.3c-0.3-1-1.4-2.8-1.4-2.8s-0.2,2.7-2,5.3
					s-3,3.1-3,3.1s-0.1,0.8,0.8,1c0.3,0,4.4,0,5,0c0.7,0,1.3-0.6,1.3-1.4s-0.6-1.6-0.6-1.6S494.5-30.5,494.3-31.3L494.3-31.3z"/>
				<path style="fill-rule:evenodd;clip-rule:evenodd;fill:#010101;" d="M458.6-37.5L458.6-37.5c0,0-1.5,1.7-2.4,3
					c-1,1.3-0.3,2.1-0.3,2.1s2.7,4.4,4.9,3.7c0.7-0.2,1.4-1.4,1.4-1.4s-1-1.3-1.7-2.9C459.6-34.6,458.9-37.1,458.6-37.5L458.6-37.5z
					"/>
				<path style="fill-rule:evenodd;clip-rule:evenodd;fill:#010101;" d="M517.6-56.6c-0.3-8.4-2.7-10.6-3.3-10.6
					c-0.8,0.1-1.2,1.5-2.1,2.1c-1.3,1-2.1,0.7-2.9,1.5c-0.7,0.7,0.7,2.7,0.5,7.6c-0.2,4.6-3.2,6.3-3.2,6.3s1.4-2,1.6-3.4
					c0.2-1.1-0.4-1.3-0.8-1.6c-0.8-0.7-2.5,1.2-3,1.6c0.7-0.8,1.9-1.8,1.5-2.7c-0.8-1.4-2.7-0.4-3.1-0.3c0.4-0.2,1.3-0.5,1.1-1.4
					c-0.3-1.5-1.8-1.2-2-1.1c0.6-0.3,1-0.6,2.7-0.5c1,0,0.7-1,0.1-1.7c-1-1.2-1.6-1.6-2.3-1.8c-0.8-0.3-2.5-0.1-2.5-0.1
					s1.2-0.7,1.8-0.6c-0.8-1.2-3.6-5.4-8.4-5.6c-8.7-0.4-11.2,5.2-11.2,5.2l4.2-0.2c0,0-1.3,0.5-3.8,1c-2,0.3-1.9,0.3-2.5,0.4
					c-1,0.2-3.4,3.2-5.6,5.7c-2.2,2.5-4.6,5.7-4.6,7c0,1.3,1.3,2.1,2,3.2c0.7,1.1,1,1.6,1,1.6l3.1-3.6l-3.6,7.4c0,0,1.7,2.2,3.5,2
					c1.4-0.2,4.5-2.7,6.4-3c2-0.4,2.9-0.1,2.9-0.1s1.4-3.6,0.7-6.2c-1.2-4.6-0.3-7,0.6-8.5c-0.7,6,1.3,6.5,1.2,10.4
					c-0.1,3-1.1,6.2-1.1,6.2s-2.9-1-5.1,0.2c-2.2,1.2-4.1,2.8-6.3,2.8c-2.2,0-5.2-3.8-5.2-3.8l1.6-2.3c0,0-0.2-0.7-0.8-1.5
					c-1-1.2-2.5-2.9-2.7-4.2c-0.1-2.3,2.2-4.9,3.1-5.8c0.8-1.1,3.4-3.8,3.4-3.8s-7.4,1.1-10.5,4.7c-3.7,4.5-4.2,5.7-5.6,5.9
					c-1.4,0.2-1.9-1.3-1.9-1.3s1.1-0.1,1-1.4c-0.2-2,0.3-3.2,0.3-3.2s-2.2,1.4-2.7,2.8c-0.4,1.4,0.5,1.8,0.5,1.8s0,2.5,1.5,3.1
					c1.5,0.6,2.7,0.1,2.7,0.1s-1,4.7,0.3,8.1c1.3,3.4,3.8,7.1,3.8,7.1s-0.2,2.5-0.5,3.2c-0.2,0.6-1.2,2.1,0.3,3.2
					c1.5,1.1,5.2,1.5,6,1c0.8-0.5,0.6-2,0.7-2.5c0.1-0.5,1.3-2.7,1.5-3.2c0.1-0.6,0.1-3.8-0.1-4.9c0.2,0.5,1.2,3,4.7,3.1
					c3.2,0.1,4.2-1.6,4.2-2.8c0,0.5,0.2,2.9-0.1,3.3c-0.3,0.4-1.3,0.7-2.2,1.3c-1,0.6-2.2,1.3-0.1,3.8c2.3,3,2.8,3.2,4.8,1.6
					c2-1.6,4.1-3.1,5.6-5c1.5-1.9,4.1-8.9,4.1-8.9s-1.6-1.1-2.7-2.4c-0.7-1.1-1-1.7-1-1.7s2.1,2.1,4.4,2.7c0.8,1,2.2,2.3,3.4,2.8
					c4.4,1.8,5.7-3.6,5.7-3.6l-0.6-0.1c0,0-1.2,2.8-3.1,2.5c-3.8-0.4-2.7-8.3-2.7-8.3s3.8,5.5,11.6,5.3
					C512.6-40.9,518.1-46.4,517.6-56.6L517.6-56.6z M490.7-56.9c0,0,0.3-3.6,1.1-4.1c1-0.6,3.5,0.2,3.5,0.2s-1.6,0-2.5,0.8
					C491.9-59.2,490.7-56.9,490.7-56.9L490.7-56.9z M496.8-53.7c-1.2,1-2.2,2.1-2.2,2.1s0.2-0.5,0.4-0.8c0.2-0.4,0.5-0.8,0.5-0.8
					s-0.4-0.1-1-0.6c-0.3-0.3-0.4-0.6-0.5-0.8c0,0-0.2,0.1-0.5,0.4c-0.3,0.2-0.7,0.7-0.7,0.7s1.1-2,2.5-3.1c1.6-1.1,3.2-1.1,3.2-1.1
					s-0.2,0-0.7,0.3c-0.5,0.3-0.5,0.3-0.5,0.3s0.5,0.2,1,0.6c0.4,0.5,0.5,1.2,0.5,1.2s0.1,0,0.6-0.2s1.1-0.2,1.1-0.2
					S498.5-55.1,496.8-53.7L496.8-53.7z M512.9-63.2c-1.3,1-2.7,1.1-2.8,0.6c-0.2-0.4,0.1-0.4,0.1-0.4s1.4-0.5,2.1-1.1
					c1-0.7,1.8-2.4,2.1-2C514.8-65.6,513.9-64,512.9-63.2L512.9-63.2z"/>
			</g>
			<g>
				<path style="fill:#DFDFDE;" d="M470.5,23.8h-1.7V14h1.7V23.8z"/>
				<path style="fill:#DFDFDE;" d="M480.9,23.8h-1.8l-0.9-2.5h-3.9l-0.8,2.5h-1.8l3.7-9.8h1.8L480.9,23.8z M477.8,20l-1.4-3.9
					c0-0.1-0.1-0.3-0.1-0.6h0c0,0.3-0.1,0.5-0.1,0.6l-1.3,3.9H477.8z"/>
				<path style="fill:#DFDFDE;" d="M490.3,23.8h-1.8l-0.9-2.5h-3.9l-0.8,2.5h-1.8l3.7-9.8h1.8L490.3,23.8z M487.2,20l-1.4-3.9
					c0-0.1-0.1-0.3-0.1-0.6h0c0,0.3-0.1,0.5-0.1,0.6l-1.3,3.9H487.2z"/>
				<path style="fill:#DFDFDE;" d="M491.2,23.4v-1.7c0.2,0.1,0.3,0.3,0.5,0.4c0.2,0.1,0.4,0.2,0.7,0.3c0.2,0.1,0.5,0.1,0.7,0.2
					s0.4,0.1,0.6,0.1c0.7,0,1.2-0.1,1.5-0.3s0.5-0.6,0.5-1c0-0.2-0.1-0.4-0.2-0.6c-0.1-0.2-0.3-0.3-0.5-0.5
					c-0.2-0.1-0.4-0.3-0.7-0.4c-0.3-0.1-0.6-0.3-0.9-0.4c-0.3-0.2-0.6-0.4-0.9-0.5s-0.5-0.4-0.7-0.6c-0.2-0.2-0.4-0.5-0.5-0.7
					c-0.1-0.3-0.2-0.6-0.2-1c0-0.5,0.1-0.9,0.3-1.2c0.2-0.3,0.5-0.6,0.8-0.8c0.3-0.2,0.7-0.4,1.2-0.5c0.4-0.1,0.9-0.2,1.3-0.2
					c1,0,1.8,0.1,2.2,0.3v1.6c-0.6-0.4-1.3-0.6-2.1-0.6c-0.2,0-0.5,0-0.7,0.1s-0.5,0.1-0.6,0.2c-0.2,0.1-0.3,0.2-0.5,0.4
					c-0.1,0.2-0.2,0.4-0.2,0.6c0,0.2,0,0.4,0.1,0.6c0.1,0.2,0.2,0.3,0.4,0.4c0.2,0.1,0.4,0.3,0.6,0.4c0.3,0.1,0.5,0.3,0.9,0.4
					c0.3,0.2,0.7,0.4,1,0.6c0.3,0.2,0.6,0.4,0.8,0.6c0.2,0.2,0.4,0.5,0.5,0.8c0.1,0.3,0.2,0.6,0.2,1c0,0.5-0.1,0.9-0.3,1.3
					c-0.2,0.3-0.5,0.6-0.8,0.8c-0.3,0.2-0.7,0.4-1.2,0.5c-0.4,0.1-0.9,0.1-1.4,0.1c-0.2,0-0.4,0-0.6,0c-0.2,0-0.5-0.1-0.7-0.1
					c-0.3,0-0.5-0.1-0.7-0.2C491.6,23.6,491.4,23.5,491.2,23.4z"/>
			</g>
			<g>
				
					<rect x="336.5" y="121.1" style="fill:none;stroke:#686969;stroke-width:3;stroke-linecap:round;stroke-linejoin:round;stroke-miterlimit:10;" width="296.5" height="34.3"/>
				<g>
					<path style="fill:#686969;" d="M359.3,74.7h-2.8v8.4h-1.6v-8.4h-2.8v-1.4h7.2V74.7z"/>
					<path style="fill:#686969;" d="M367.7,83.1h-1.8l-0.9-2.5h-3.8l-0.8,2.5h-1.8l3.7-9.8h1.8L367.7,83.1z M364.6,79.3l-1.4-3.9
						c0-0.1-0.1-0.3-0.1-0.6h0c0,0.3-0.1,0.5-0.1,0.6l-1.3,3.9H364.6z"/>
					<path style="fill:#686969;" d="M368.6,82.7V81c0.1,0.1,0.3,0.3,0.5,0.4c0.2,0.1,0.4,0.2,0.7,0.3c0.2,0.1,0.5,0.1,0.7,0.2
						c0.2,0,0.4,0.1,0.6,0.1c0.7,0,1.2-0.1,1.5-0.3s0.5-0.6,0.5-1c0-0.2-0.1-0.4-0.2-0.6s-0.3-0.3-0.5-0.5s-0.4-0.3-0.7-0.4
						c-0.3-0.1-0.6-0.3-0.9-0.4c-0.3-0.2-0.6-0.4-0.9-0.5c-0.3-0.2-0.5-0.4-0.7-0.6s-0.4-0.5-0.5-0.7s-0.2-0.6-0.2-1
						c0-0.5,0.1-0.9,0.3-1.2s0.5-0.6,0.8-0.8c0.3-0.2,0.7-0.4,1.2-0.5s0.9-0.2,1.3-0.2c1,0,1.8,0.1,2.2,0.3v1.6
						c-0.6-0.4-1.3-0.6-2.1-0.6c-0.2,0-0.5,0-0.7,0.1c-0.2,0-0.5,0.1-0.6,0.2s-0.3,0.2-0.5,0.4s-0.2,0.4-0.2,0.6
						c0,0.2,0,0.4,0.1,0.6c0.1,0.2,0.2,0.3,0.4,0.4c0.2,0.1,0.4,0.3,0.6,0.4c0.3,0.1,0.5,0.3,0.9,0.4c0.3,0.2,0.7,0.4,1,0.6
						c0.3,0.2,0.6,0.4,0.8,0.6c0.2,0.2,0.4,0.5,0.5,0.8s0.2,0.6,0.2,1c0,0.5-0.1,0.9-0.3,1.3c-0.2,0.3-0.5,0.6-0.8,0.8
						c-0.3,0.2-0.7,0.4-1.2,0.5c-0.4,0.1-0.9,0.1-1.4,0.1c-0.2,0-0.4,0-0.6,0c-0.2,0-0.5-0.1-0.7-0.1c-0.2,0-0.5-0.1-0.7-0.2
						C368.9,82.8,368.7,82.8,368.6,82.7z"/>
					<path style="fill:#686969;" d="M384,83.1h-2.1l-3.4-4.5c-0.1-0.2-0.2-0.3-0.2-0.3h0v4.8h-1.6v-9.8h1.6v4.6h0
						c0.1-0.1,0.1-0.2,0.2-0.3l3.3-4.3h1.9l-3.8,4.7L384,83.1z"/>
					<path style="fill:#686969;" d="M348,91.4h-2.8v8.4h-1.6v-8.4h-2.8V90h7.2V91.4z"/>
					<path style="fill:#686969;" d="M356.9,99.8H355l-1.6-2.6c-0.1-0.2-0.3-0.4-0.4-0.6c-0.1-0.2-0.3-0.3-0.4-0.4
						c-0.1-0.1-0.3-0.2-0.5-0.2s-0.3-0.1-0.6-0.1H351v4h-1.6V90h3.2c0.5,0,0.9,0.1,1.3,0.2c0.4,0.1,0.7,0.3,1,0.5
						c0.3,0.2,0.5,0.5,0.7,0.8c0.2,0.3,0.2,0.7,0.2,1.2c0,0.3-0.1,0.7-0.2,0.9c-0.1,0.3-0.2,0.5-0.4,0.8c-0.2,0.2-0.4,0.4-0.7,0.6
						c-0.3,0.2-0.6,0.3-0.9,0.4v0c0.2,0.1,0.3,0.2,0.5,0.3c0.1,0.1,0.3,0.2,0.4,0.4c0.1,0.1,0.2,0.3,0.3,0.4
						c0.1,0.2,0.2,0.3,0.4,0.6L356.9,99.8z M351,91.3v3.2h1.3c0.2,0,0.5,0,0.7-0.1s0.4-0.2,0.5-0.3c0.2-0.1,0.3-0.3,0.4-0.5
						c0.1-0.2,0.1-0.4,0.1-0.7c0-0.5-0.1-0.8-0.4-1.1s-0.7-0.4-1.3-0.4H351z"/>
					<path style="fill:#686969;" d="M366.1,99.8h-1.8l-0.9-2.5h-3.8l-0.8,2.5H357l3.7-9.8h1.8L366.1,99.8z M363,96l-1.4-3.9
						c0-0.1-0.1-0.3-0.1-0.6h0c0,0.3-0.1,0.5-0.1,0.6L360,96H363z"/>
					<path style="fill:#686969;" d="M374,99.4c-0.7,0.4-1.6,0.6-2.7,0.6c-1.4,0-2.5-0.4-3.4-1.3c-0.9-0.9-1.3-2.1-1.3-3.5
						c0-1.6,0.5-2.8,1.4-3.8s2.2-1.4,3.6-1.4c0.9,0,1.7,0.1,2.3,0.4v1.6c-0.7-0.4-1.4-0.6-2.2-0.6c-1.1,0-1.9,0.3-2.6,1
						s-1,1.6-1,2.7c0,1.1,0.3,1.9,0.9,2.6c0.6,0.6,1.4,1,2.4,1c0.9,0,1.7-0.2,2.4-0.7V99.4z"/>
					<path style="fill:#686969;" d="M383.3,99.8h-2.1l-3.4-4.5c-0.1-0.2-0.2-0.3-0.2-0.3h0v4.8h-1.6V90h1.6v4.6h0
						c0.1-0.1,0.1-0.2,0.2-0.3L381,90h1.9l-3.8,4.7L383.3,99.8z"/>
					<path style="fill:#686969;" d="M389.9,99.8h-5.5V90h5.3v1.4H386v2.8h3.4v1.4H386v2.9h3.9V99.8z"/>
					<path style="fill:#686969;" d="M399.1,99.8h-1.9l-1.6-2.6c-0.1-0.2-0.3-0.4-0.4-0.6c-0.1-0.2-0.3-0.3-0.4-0.4
						c-0.1-0.1-0.3-0.2-0.5-0.2s-0.3-0.1-0.6-0.1h-0.7v4h-1.6V90h3.2c0.5,0,0.9,0.1,1.3,0.2c0.4,0.1,0.7,0.3,1,0.5
						c0.3,0.2,0.5,0.5,0.7,0.8c0.2,0.3,0.2,0.7,0.2,1.2c0,0.3-0.1,0.7-0.2,0.9c-0.1,0.3-0.2,0.5-0.4,0.8c-0.2,0.2-0.4,0.4-0.7,0.6
						c-0.3,0.2-0.6,0.3-0.9,0.4v0c0.2,0.1,0.3,0.2,0.5,0.3c0.1,0.1,0.3,0.2,0.4,0.4c0.1,0.1,0.2,0.3,0.3,0.4
						c0.1,0.2,0.2,0.3,0.4,0.6L399.1,99.8z M393.2,91.3v3.2h1.3c0.2,0,0.5,0,0.7-0.1s0.4-0.2,0.5-0.3c0.2-0.1,0.3-0.3,0.4-0.5
						c0.1-0.2,0.1-0.4,0.1-0.7c0-0.5-0.1-0.8-0.4-1.1s-0.7-0.4-1.3-0.4H393.2z"/>
				</g>
				<path style="fill:none;stroke:#686969;stroke-width:3;stroke-linecap:round;stroke-linejoin:round;stroke-miterlimit:10;" d="
					M479.8,85.3c0-18.4-14.9-33.3-33.3-33.3c-18.4,0-33.3,14.9-33.3,33.3c0,0,0,0.1,0,0.1h0v25.7h66.6L479.8,85.3L479.8,85.3
					C479.7,85.4,479.8,85.3,479.8,85.3z"/>
				<path style="fill:none;stroke:#686969;stroke-width:3;stroke-linecap:round;stroke-linejoin:round;stroke-miterlimit:10;" d="
					M403.1,85.3c0-18.4-14.9-33.3-33.3-33.3c-18.4,0-33.3,14.9-33.3,33.3c0,0,0,0.1,0,0.1h0v25.7h66.6L403.1,85.3L403.1,85.3
					C403.1,85.4,403.1,85.3,403.1,85.3z"/>
				<g>
					<path style="fill:#686969;" d="M438.6,79.6c0,1.2-0.3,2.1-0.9,2.7s-1.3,1-2.3,1c-0.4,0-0.8-0.1-1.1-0.2v-1.5
						c0.3,0.2,0.6,0.3,1,0.3c1.1,0,1.6-0.8,1.6-2.5v-6h1.6V79.6z"/>
					<path style="fill:#686969;" d="M444.9,83.2c-1.4,0-2.5-0.5-3.4-1.4c-0.8-0.9-1.3-2.1-1.3-3.6c0-1.6,0.4-2.8,1.3-3.8
						c0.9-0.9,2-1.4,3.5-1.4c1.4,0,2.5,0.5,3.3,1.4c0.8,0.9,1.3,2.1,1.3,3.6c0,1.6-0.4,2.8-1.3,3.8
						C447.5,82.8,446.4,83.2,444.9,83.2z M445,74.6c-0.9,0-1.6,0.3-2.2,1c-0.6,0.7-0.8,1.5-0.8,2.6c0,1.1,0.3,2,0.8,2.6
						c0.5,0.7,1.3,1,2.1,1c0.9,0,1.7-0.3,2.2-0.9c0.5-0.6,0.8-1.5,0.8-2.6c0-1.2-0.3-2.1-0.8-2.7S445.9,74.6,445,74.6z"/>
					<path style="fill:#686969;" d="M451.4,83.1v-9.8h3.1c0.9,0,1.7,0.2,2.2,0.6c0.6,0.4,0.8,0.9,0.8,1.6c0,0.6-0.2,1-0.5,1.4
						c-0.3,0.4-0.7,0.7-1.3,0.9v0c0.7,0.1,1.2,0.3,1.6,0.7c0.4,0.4,0.6,1,0.6,1.6c0,0.8-0.3,1.5-1,2s-1.5,0.8-2.5,0.8H451.4z
						 M453,74.6v2.8h1c0.6,0,1-0.1,1.3-0.4c0.3-0.3,0.5-0.6,0.5-1.1c0-0.8-0.6-1.3-1.7-1.3H453z M453,78.7v3.1h1.4
						c0.6,0,1.1-0.1,1.4-0.4c0.3-0.3,0.5-0.7,0.5-1.2c0-1-0.7-1.5-2.1-1.5H453z"/>
					<path style="fill:#686969;" d="M424.6,91.4h-2.8v8.4h-1.6v-8.4h-2.8V90h7.2V91.4z"/>
					<path style="fill:#686969;" d="M433.6,99.8h-1.9l-1.6-2.6c-0.1-0.2-0.3-0.4-0.4-0.6c-0.1-0.2-0.3-0.3-0.4-0.4
						c-0.1-0.1-0.3-0.2-0.5-0.2s-0.3-0.1-0.6-0.1h-0.7v4H426V90h3.2c0.5,0,0.9,0.1,1.3,0.2c0.4,0.1,0.7,0.3,1,0.5
						c0.3,0.2,0.5,0.5,0.7,0.8c0.2,0.3,0.2,0.7,0.2,1.2c0,0.3-0.1,0.7-0.2,0.9c-0.1,0.3-0.2,0.5-0.4,0.8c-0.2,0.2-0.4,0.4-0.7,0.6
						c-0.3,0.2-0.6,0.3-0.9,0.4v0c0.2,0.1,0.3,0.2,0.5,0.3c0.1,0.1,0.3,0.2,0.4,0.4c0.1,0.1,0.2,0.3,0.3,0.4
						c0.1,0.2,0.2,0.3,0.4,0.6L433.6,99.8z M427.6,91.3v3.2h1.3c0.2,0,0.5,0,0.7-0.1s0.4-0.2,0.5-0.3c0.2-0.1,0.3-0.3,0.4-0.5
						c0.1-0.2,0.1-0.4,0.1-0.7c0-0.5-0.1-0.8-0.4-1.1s-0.7-0.4-1.3-0.4H427.6z"/>
					<path style="fill:#686969;" d="M442.7,99.8h-1.8l-0.9-2.5h-3.8l-0.8,2.5h-1.8l3.7-9.8h1.8L442.7,99.8z M439.6,96l-1.4-3.9
						c0-0.1-0.1-0.3-0.1-0.6h0c0,0.3-0.1,0.5-0.1,0.6l-1.3,3.9H439.6z"/>
					<path style="fill:#686969;" d="M450.6,99.4c-0.7,0.4-1.6,0.6-2.7,0.6c-1.4,0-2.5-0.4-3.4-1.3c-0.9-0.9-1.3-2.1-1.3-3.5
						c0-1.6,0.5-2.8,1.4-3.8s2.2-1.4,3.6-1.4c0.9,0,1.7,0.1,2.3,0.4v1.6c-0.7-0.4-1.4-0.6-2.2-0.6c-1.1,0-1.9,0.3-2.6,1
						s-1,1.6-1,2.7c0,1.1,0.3,1.9,0.9,2.6c0.6,0.6,1.4,1,2.4,1c0.9,0,1.7-0.2,2.4-0.7V99.4z"/>
					<path style="fill:#686969;" d="M459.9,99.8h-2.1l-3.4-4.5c-0.1-0.2-0.2-0.3-0.2-0.3h0v4.8h-1.6V90h1.6v4.6h0
						c0.1-0.1,0.1-0.2,0.2-0.3l3.3-4.3h1.9l-3.8,4.7L459.9,99.8z"/>
					<path style="fill:#686969;" d="M466.5,99.8H461V90h5.3v1.4h-3.6v2.8h3.4v1.4h-3.4v2.9h3.9V99.8z"/>
					<path style="fill:#686969;" d="M475.8,99.8h-1.9l-1.6-2.6c-0.1-0.2-0.3-0.4-0.4-0.6c-0.1-0.2-0.3-0.3-0.4-0.4
						c-0.1-0.1-0.3-0.2-0.5-0.2s-0.3-0.1-0.6-0.1h-0.7v4h-1.6V90h3.2c0.5,0,0.9,0.1,1.3,0.2c0.4,0.1,0.7,0.3,1,0.5
						c0.3,0.2,0.5,0.5,0.7,0.8c0.2,0.3,0.2,0.7,0.2,1.2c0,0.3-0.1,0.7-0.2,0.9c-0.1,0.3-0.2,0.5-0.4,0.8c-0.2,0.2-0.4,0.4-0.7,0.6
						c-0.3,0.2-0.6,0.3-0.9,0.4v0c0.2,0.1,0.3,0.2,0.5,0.3c0.1,0.1,0.3,0.2,0.4,0.4c0.1,0.1,0.2,0.3,0.3,0.4
						c0.1,0.2,0.2,0.3,0.4,0.6L475.8,99.8z M469.8,91.3v3.2h1.3c0.2,0,0.5,0,0.7-0.1s0.4-0.2,0.5-0.3c0.2-0.1,0.3-0.3,0.4-0.5
						c0.1-0.2,0.1-0.4,0.1-0.7c0-0.5-0.1-0.8-0.4-1.1s-0.7-0.4-1.3-0.4H469.8z"/>
				</g>
				<path style="fill:none;stroke:#686969;stroke-width:3;stroke-linecap:round;stroke-linejoin:round;stroke-miterlimit:10;" d="
					M556.4,85.3c0-18.4-14.9-33.3-33.3-33.3c-18.4,0-33.3,14.9-33.3,33.3c0,0,0,0.1,0,0.1h0v25.7h66.6L556.4,85.3L556.4,85.3
					C556.4,85.4,556.4,85.3,556.4,85.3z"/>
				<g>
					<path style="fill:#686969;" d="M512.5,83.1h-1.8l-4.7-7.2c-0.1-0.2-0.2-0.4-0.3-0.6h0c0,0.2,0.1,0.7,0.1,1.3v6.4h-1.6v-9.8h1.9
						l4.5,7c0.2,0.3,0.3,0.5,0.4,0.6h0c0-0.3-0.1-0.7-0.1-1.3v-6.3h1.6V83.1z"/>
					<path style="fill:#686969;" d="M522.9,83.1h-1.8l-0.9-2.5h-3.8l-0.8,2.5h-1.8l3.7-9.8h1.8L522.9,83.1z M519.8,79.3l-1.4-3.9
						c0-0.1-0.1-0.3-0.1-0.6h0c0,0.3-0.1,0.5-0.1,0.6l-1.3,3.9H519.8z"/>
					<path style="fill:#686969;" d="M534.7,83.1h-1.6v-6.3c0-0.5,0-1.1,0.1-1.9h0c-0.1,0.4-0.2,0.7-0.3,0.9l-2.9,7.3h-1.1l-2.9-7.2
						c-0.1-0.2-0.2-0.5-0.3-1h0c0,0.4,0.1,1,0.1,1.9v6.3h-1.5v-9.8h2.3l2.6,6.5c0.2,0.5,0.3,0.9,0.4,1.1h0c0.2-0.5,0.3-0.9,0.4-1.1
						l2.6-6.5h2.2V83.1z"/>
					<path style="fill:#686969;" d="M542.6,83.1h-5.5v-9.8h5.3v1.4h-3.6v2.8h3.4v1.4h-3.4v2.9h3.9V83.1z"/>
					<path style="fill:#686969;" d="M513.3,99.8h-1.8l-4.7-7.2c-0.1-0.2-0.2-0.4-0.3-0.6h0c0,0.2,0.1,0.7,0.1,1.3v6.4h-1.6V90h1.9
						l4.5,7c0.2,0.3,0.3,0.5,0.4,0.6h0c0-0.3-0.1-0.7-0.1-1.3V90h1.6V99.8z"/>
					<path style="fill:#686969;" d="M519.8,99.9c-1.4,0-2.5-0.5-3.4-1.4c-0.8-0.9-1.3-2.1-1.3-3.6c0-1.6,0.4-2.8,1.3-3.8
						c0.9-0.9,2-1.4,3.5-1.4c1.4,0,2.5,0.5,3.3,1.4c0.8,0.9,1.3,2.1,1.3,3.6c0,1.6-0.4,2.8-1.3,3.8
						C522.3,99.5,521.2,99.9,519.8,99.9z M519.8,91.3c-0.9,0-1.6,0.3-2.2,1c-0.6,0.7-0.8,1.5-0.8,2.6c0,1.1,0.3,2,0.8,2.6
						c0.5,0.7,1.3,1,2.1,1c0.9,0,1.7-0.3,2.2-0.9c0.5-0.6,0.8-1.5,0.8-2.6c0-1.2-0.3-2.1-0.8-2.7S520.8,91.3,519.8,91.3z"/>
					<path style="fill:#686969;" d="M526.3,99.8V90h2.8c3.6,0,5.4,1.6,5.4,4.8c0,1.5-0.5,2.7-1.5,3.6c-1,0.9-2.3,1.4-4,1.4H526.3z
						 M527.9,91.4v7h1.3c1.1,0,2-0.3,2.7-0.9c0.6-0.6,0.9-1.5,0.9-2.7c0-2.3-1.2-3.4-3.5-3.4H527.9z"/>
					<path style="fill:#686969;" d="M541.7,99.8h-5.5V90h5.3v1.4h-3.6v2.8h3.4v1.4h-3.4v2.9h3.9V99.8z"/>
				</g>
				<path style="fill:none;stroke:#686969;stroke-width:3;stroke-linecap:round;stroke-linejoin:round;stroke-miterlimit:10;" d="
					M633,85.3c0-18.4-14.9-33.3-33.3-33.3s-33.3,14.9-33.3,33.3c0,0,0,0.1,0,0.1h0v25.7H633L633,85.3L633,85.3
					C633,85.4,633,85.3,633,85.3z"/>
				<g>
					<path style="fill:#686969;" d="M581.9,83.1v-9.8h2.8c3.6,0,5.4,1.6,5.4,4.8c0,1.5-0.5,2.7-1.5,3.6c-1,0.9-2.3,1.4-4,1.4H581.9z
						 M583.5,74.7v7h1.3c1.1,0,2-0.3,2.7-0.9c0.6-0.6,0.9-1.5,0.9-2.7c0-2.3-1.2-3.4-3.5-3.4H583.5z"/>
					<path style="fill:#686969;" d="M599.7,83.1h-1.8l-0.9-2.5h-3.8l-0.8,2.5h-1.8l3.7-9.8h1.8L599.7,83.1z M596.6,79.3l-1.4-3.9
						c0-0.1-0.1-0.3-0.1-0.6h0c0,0.3-0.1,0.5-0.1,0.6l-1.3,3.9H596.6z"/>
					<path style="fill:#686969;" d="M606.3,74.7h-2.8v8.4h-1.6v-8.4h-2.8v-1.4h7.2V74.7z"/>
					<path style="fill:#686969;" d="M614.7,83.1h-1.8l-0.9-2.5h-3.8l-0.8,2.5h-1.8l3.7-9.8h1.8L614.7,83.1z M611.6,79.3l-1.4-3.9
						c0-0.1-0.1-0.3-0.1-0.6h0c0,0.3-0.1,0.5-0.1,0.6l-1.3,3.9H611.6z"/>
					<path style="fill:#686969;" d="M589.9,99.8h-1.8l-4.7-7.2c-0.1-0.2-0.2-0.4-0.3-0.6h0c0,0.2,0.1,0.7,0.1,1.3v6.4h-1.6V90h1.9
						l4.5,7c0.2,0.3,0.3,0.5,0.4,0.6h0c0-0.3-0.1-0.7-0.1-1.3V90h1.6V99.8z"/>
					<path style="fill:#686969;" d="M596.4,99.9c-1.4,0-2.5-0.5-3.4-1.4c-0.8-0.9-1.3-2.1-1.3-3.6c0-1.6,0.4-2.8,1.3-3.8
						c0.9-0.9,2-1.4,3.5-1.4c1.4,0,2.5,0.5,3.3,1.4c0.8,0.9,1.3,2.1,1.3,3.6c0,1.6-0.4,2.8-1.3,3.8C599,99.5,597.8,99.9,596.4,99.9z
						 M596.5,91.3c-0.9,0-1.6,0.3-2.2,1c-0.6,0.7-0.8,1.5-0.8,2.6c0,1.1,0.3,2,0.8,2.6c0.5,0.7,1.3,1,2.1,1c0.9,0,1.7-0.3,2.2-0.9
						c0.5-0.6,0.8-1.5,0.8-2.6c0-1.2-0.3-2.1-0.8-2.7S597.4,91.3,596.5,91.3z"/>
					<path style="fill:#686969;" d="M602.9,99.8V90h2.8c3.6,0,5.4,1.6,5.4,4.8c0,1.5-0.5,2.7-1.5,3.6c-1,0.9-2.3,1.4-4,1.4H602.9z
						 M604.5,91.4v7h1.3c1.1,0,2-0.3,2.7-0.9c0.6-0.6,0.9-1.5,0.9-2.7c0-2.3-1.2-3.4-3.5-3.4H604.5z"/>
					<path style="fill:#686969;" d="M618.4,99.8h-5.5V90h5.3v1.4h-3.6v2.8h3.4v1.4h-3.4v2.9h3.9V99.8z"/>
				</g>
				<g>
					<path style="fill:#686969;" d="M454.2,142.8h-1.6v-4.2H448v4.2h-1.6v-9.8h1.6v4.1h4.6v-4.1h1.6V142.8z"/>
					<path style="fill:#686969;" d="M462.1,142.8h-5.5v-9.8h5.3v1.4h-3.6v2.8h3.4v1.4h-3.4v2.9h3.9V142.8z"/>
					<path style="fill:#686969;" d="M472,142.8h-1.8l-0.9-2.5h-3.8l-0.8,2.5h-1.8l3.7-9.8h1.8L472,142.8z M468.9,139l-1.4-3.9
						c0-0.1-0.1-0.3-0.1-0.6h0c0,0.3-0.1,0.5-0.1,0.6l-1.3,3.9H468.9z"/>
					<path style="fill:#686969;" d="M473.3,142.8v-9.8h2.8c3.6,0,5.4,1.6,5.4,4.8c0,1.5-0.5,2.7-1.5,3.6c-1,0.9-2.3,1.4-4,1.4H473.3
						z M474.9,134.4v7h1.3c1.1,0,2-0.3,2.7-0.9c0.6-0.6,0.9-1.5,0.9-2.7c0-2.3-1.2-3.4-3.5-3.4H474.9z"/>
					<path style="fill:#686969;" d="M495.4,142.8h-1.8l-4.7-7.2c-0.1-0.2-0.2-0.4-0.3-0.6h0c0,0.2,0.1,0.7,0.1,1.3v6.4h-1.6v-9.8
						h1.9l4.5,7c0.2,0.3,0.3,0.5,0.4,0.6h0c0-0.3-0.1-0.7-0.1-1.3v-6.3h1.6V142.8z"/>
					<path style="fill:#686969;" d="M501.8,143c-1.4,0-2.5-0.5-3.4-1.4c-0.8-0.9-1.3-2.1-1.3-3.6c0-1.6,0.4-2.8,1.3-3.8
						c0.9-0.9,2-1.4,3.5-1.4c1.4,0,2.5,0.5,3.3,1.4c0.8,0.9,1.3,2.1,1.3,3.6c0,1.6-0.4,2.8-1.3,3.8C504.4,142.5,503.3,143,501.8,143
						z M501.9,134.3c-0.9,0-1.6,0.3-2.2,1c-0.6,0.7-0.8,1.5-0.8,2.6c0,1.1,0.3,2,0.8,2.6c0.5,0.7,1.3,1,2.1,1c0.9,0,1.7-0.3,2.2-0.9
						c0.5-0.6,0.8-1.5,0.8-2.6c0-1.2-0.3-2.1-0.8-2.7S502.8,134.3,501.9,134.3z"/>
					<path style="fill:#686969;" d="M508.3,142.8v-9.8h2.8c3.6,0,5.4,1.6,5.4,4.8c0,1.5-0.5,2.7-1.5,3.6c-1,0.9-2.3,1.4-4,1.4H508.3
						z M509.9,134.4v7h1.3c1.1,0,2-0.3,2.7-0.9c0.6-0.6,0.9-1.5,0.9-2.7c0-2.3-1.2-3.4-3.5-3.4H509.9z"/>
					<path style="fill:#686969;" d="M523.8,142.8h-5.5v-9.8h5.3v1.4h-3.6v2.8h3.4v1.4h-3.4v2.9h3.9V142.8z"/>
				</g>
				<g>
					<g>
						<path style="fill:#686969;" d="M358.9,188.5h-2.8v8.4h-1.6v-8.4h-2.8v-1.4h7.2V188.5z"/>
						<path style="fill:#686969;" d="M367.3,196.8h-1.8l-0.9-2.5h-3.8l-0.8,2.5h-1.8l3.7-9.8h1.8L367.3,196.8z M364.2,193l-1.4-3.9
							c0-0.1-0.1-0.3-0.1-0.6h0c0,0.3-0.1,0.5-0.1,0.6l-1.3,3.9H364.2z"/>
						<path style="fill:#686969;" d="M368.2,196.4v-1.7c0.1,0.1,0.3,0.3,0.5,0.4c0.2,0.1,0.4,0.2,0.7,0.3c0.2,0.1,0.5,0.1,0.7,0.2
							c0.2,0,0.4,0.1,0.6,0.1c0.7,0,1.2-0.1,1.5-0.3s0.5-0.6,0.5-1c0-0.2-0.1-0.4-0.2-0.6s-0.3-0.3-0.5-0.5s-0.4-0.3-0.7-0.4
							c-0.3-0.1-0.6-0.3-0.9-0.4c-0.3-0.2-0.6-0.4-0.9-0.5c-0.3-0.2-0.5-0.4-0.7-0.6s-0.4-0.5-0.5-0.7s-0.2-0.6-0.2-1
							c0-0.5,0.1-0.9,0.3-1.2s0.5-0.6,0.8-0.8c0.3-0.2,0.7-0.4,1.2-0.5s0.9-0.2,1.3-0.2c1,0,1.8,0.1,2.2,0.3v1.6
							c-0.6-0.4-1.3-0.6-2.1-0.6c-0.2,0-0.5,0-0.7,0.1c-0.2,0-0.5,0.1-0.6,0.2s-0.3,0.2-0.5,0.4s-0.2,0.4-0.2,0.6
							c0,0.2,0,0.4,0.1,0.6c0.1,0.2,0.2,0.3,0.4,0.4c0.2,0.1,0.4,0.3,0.6,0.4c0.3,0.1,0.5,0.3,0.9,0.4c0.3,0.2,0.7,0.4,1,0.6
							c0.3,0.2,0.6,0.4,0.8,0.6c0.2,0.2,0.4,0.5,0.5,0.8s0.2,0.6,0.2,1c0,0.5-0.1,0.9-0.3,1.3c-0.2,0.3-0.5,0.6-0.8,0.8
							c-0.3,0.2-0.7,0.4-1.2,0.5c-0.4,0.1-0.9,0.1-1.4,0.1c-0.2,0-0.4,0-0.6,0c-0.2,0-0.5-0.1-0.7-0.1c-0.2,0-0.5-0.1-0.7-0.2
							C368.5,196.6,368.4,196.5,368.2,196.4z"/>
						<path style="fill:#686969;" d="M383.6,196.8h-2.1l-3.4-4.5c-0.1-0.2-0.2-0.3-0.2-0.3h0v4.8h-1.6v-9.8h1.6v4.6h0
							c0.1-0.1,0.1-0.2,0.2-0.3l3.3-4.3h1.9l-3.8,4.7L383.6,196.8z"/>
						<path style="fill:#686969;" d="M347.6,205.2h-2.8v8.4h-1.6v-8.4h-2.8v-1.4h7.2V205.2z"/>
						<path style="fill:#686969;" d="M356.6,213.5h-1.9l-1.6-2.6c-0.1-0.2-0.3-0.4-0.4-0.6c-0.1-0.2-0.3-0.3-0.4-0.4
							c-0.1-0.1-0.3-0.2-0.5-0.2s-0.3-0.1-0.6-0.1h-0.7v4H349v-9.8h3.2c0.5,0,0.9,0.1,1.3,0.2c0.4,0.1,0.7,0.3,1,0.5
							c0.3,0.2,0.5,0.5,0.7,0.8c0.2,0.3,0.2,0.7,0.2,1.2c0,0.3-0.1,0.7-0.2,0.9c-0.1,0.3-0.2,0.5-0.4,0.8c-0.2,0.2-0.4,0.4-0.7,0.6
							c-0.3,0.2-0.6,0.3-0.9,0.4v0c0.2,0.1,0.3,0.2,0.5,0.3c0.1,0.1,0.3,0.2,0.4,0.4c0.1,0.1,0.2,0.3,0.3,0.4
							c0.1,0.2,0.2,0.3,0.4,0.6L356.6,213.5z M350.6,205.1v3.2h1.3c0.2,0,0.5,0,0.7-0.1s0.4-0.2,0.5-0.3c0.2-0.1,0.3-0.3,0.4-0.5
							c0.1-0.2,0.1-0.4,0.1-0.7c0-0.5-0.1-0.8-0.4-1.1s-0.7-0.4-1.3-0.4H350.6z"/>
						<path style="fill:#686969;" d="M365.7,213.5h-1.8l-0.9-2.5h-3.8l-0.8,2.5h-1.8l3.7-9.8h1.8L365.7,213.5z M362.6,209.7
							l-1.4-3.9c0-0.1-0.1-0.3-0.1-0.6h0c0,0.3-0.1,0.5-0.1,0.6l-1.3,3.9H362.6z"/>
						<path style="fill:#686969;" d="M373.7,213.1c-0.7,0.4-1.6,0.6-2.7,0.6c-1.4,0-2.5-0.4-3.4-1.3c-0.9-0.9-1.3-2.1-1.3-3.5
							c0-1.6,0.5-2.8,1.4-3.8s2.2-1.4,3.6-1.4c0.9,0,1.7,0.1,2.3,0.4v1.6c-0.7-0.4-1.4-0.6-2.2-0.6c-1.1,0-1.9,0.3-2.6,1
							s-1,1.6-1,2.7c0,1.1,0.3,1.9,0.9,2.6c0.6,0.6,1.4,1,2.4,1c0.9,0,1.7-0.2,2.4-0.7V213.1z"/>
						<path style="fill:#686969;" d="M382.9,213.5h-2.1l-3.4-4.5c-0.1-0.2-0.2-0.3-0.2-0.3h0v4.8h-1.6v-9.8h1.6v4.6h0
							c0.1-0.1,0.1-0.2,0.2-0.3l3.3-4.3h1.9l-3.8,4.7L382.9,213.5z"/>
						<path style="fill:#686969;" d="M389.5,213.5H384v-9.8h5.3v1.4h-3.6v2.8h3.4v1.4h-3.4v2.9h3.9V213.5z"/>
						<path style="fill:#686969;" d="M398.8,213.5h-1.9l-1.6-2.6c-0.1-0.2-0.3-0.4-0.4-0.6c-0.1-0.2-0.3-0.3-0.4-0.4
							c-0.1-0.1-0.3-0.2-0.5-0.2s-0.3-0.1-0.6-0.1h-0.7v4h-1.6v-9.8h3.2c0.5,0,0.9,0.1,1.3,0.2c0.4,0.1,0.7,0.3,1,0.5
							c0.3,0.2,0.5,0.5,0.7,0.8c0.2,0.3,0.2,0.7,0.2,1.2c0,0.3-0.1,0.7-0.2,0.9c-0.1,0.3-0.2,0.5-0.4,0.8c-0.2,0.2-0.4,0.4-0.7,0.6
							c-0.3,0.2-0.6,0.3-0.9,0.4v0c0.2,0.1,0.3,0.2,0.5,0.3c0.1,0.1,0.3,0.2,0.4,0.4c0.1,0.1,0.2,0.3,0.3,0.4
							c0.1,0.2,0.2,0.3,0.4,0.6L398.8,213.5z M392.8,205.1v3.2h1.3c0.2,0,0.5,0,0.7-0.1s0.4-0.2,0.5-0.3c0.2-0.1,0.3-0.3,0.4-0.5
							c0.1-0.2,0.1-0.4,0.1-0.7c0-0.5-0.1-0.8-0.4-1.1s-0.7-0.4-1.3-0.4H392.8z"/>
					</g>
					<path style="fill:none;stroke:#686969;stroke-width:3;stroke-linecap:round;stroke-linejoin:round;stroke-miterlimit:10;" d="
						M479.4,199.1c0-18.4-14.9-33.3-33.3-33.3s-33.3,14.9-33.3,33.3c0,0,0,0.1,0,0.1h0v25.7h66.6L479.4,199.1L479.4,199.1
						C479.4,199.1,479.4,199.1,479.4,199.1z"/>
					<path style="fill:none;stroke:#686969;stroke-width:3;stroke-linecap:round;stroke-linejoin:round;stroke-miterlimit:10;" d="
						M403.1,198.7c0-18.4-14.9-33.3-33.3-33.3s-33.3,14.9-33.3,33.3c0,0,0,0.1,0,0.1h0v25.7h66.6L403.1,198.7L403.1,198.7
						C403.1,198.7,403.1,198.7,403.1,198.7z"/>
					<g>
						<path style="fill:#686969;" d="M438.2,193.3c0,1.2-0.3,2.1-0.9,2.7s-1.3,1-2.3,1c-0.4,0-0.8-0.1-1.1-0.2v-1.5
							c0.3,0.2,0.6,0.3,1,0.3c1.1,0,1.6-0.8,1.6-2.5v-6h1.6V193.3z"/>
						<path style="fill:#686969;" d="M444.5,197c-1.4,0-2.5-0.5-3.4-1.4c-0.8-0.9-1.3-2.1-1.3-3.6c0-1.6,0.4-2.8,1.3-3.8
							c0.9-0.9,2-1.4,3.5-1.4c1.4,0,2.5,0.5,3.3,1.4c0.8,0.9,1.3,2.1,1.3,3.6c0,1.6-0.4,2.8-1.3,3.8C447.1,196.5,446,197,444.5,197z
							 M444.6,188.3c-0.9,0-1.6,0.3-2.2,1c-0.6,0.7-0.8,1.5-0.8,2.6c0,1.1,0.3,2,0.8,2.6c0.5,0.7,1.3,1,2.1,1c0.9,0,1.7-0.3,2.2-0.9
							c0.5-0.6,0.8-1.5,0.8-2.6c0-1.2-0.3-2.1-0.8-2.7S445.5,188.3,444.6,188.3z"/>
						<path style="fill:#686969;" d="M451.1,196.8v-9.8h3.1c0.9,0,1.7,0.2,2.2,0.6c0.6,0.4,0.8,0.9,0.8,1.6c0,0.6-0.2,1-0.5,1.4
							c-0.3,0.4-0.7,0.7-1.3,0.9v0c0.7,0.1,1.2,0.3,1.6,0.7c0.4,0.4,0.6,1,0.6,1.6c0,0.8-0.3,1.5-1,2s-1.5,0.8-2.5,0.8H451.1z
							 M452.7,188.4v2.8h1c0.6,0,1-0.1,1.3-0.4c0.3-0.3,0.5-0.6,0.5-1.1c0-0.8-0.6-1.3-1.7-1.3H452.7z M452.7,192.5v3.1h1.4
							c0.6,0,1.1-0.1,1.4-0.4c0.3-0.3,0.5-0.7,0.5-1.2c0-1-0.7-1.5-2.1-1.5H452.7z"/>
						<path style="fill:#686969;" d="M424.2,205.2h-2.8v8.4h-1.6v-8.4H417v-1.4h7.2V205.2z"/>
						<path style="fill:#686969;" d="M433.2,213.5h-1.9l-1.6-2.6c-0.1-0.2-0.3-0.4-0.4-0.6c-0.1-0.2-0.3-0.3-0.4-0.4
							c-0.1-0.1-0.3-0.2-0.5-0.2s-0.3-0.1-0.6-0.1h-0.7v4h-1.6v-9.8h3.2c0.5,0,0.9,0.1,1.3,0.2c0.4,0.1,0.7,0.3,1,0.5
							c0.3,0.2,0.5,0.5,0.7,0.8c0.2,0.3,0.2,0.7,0.2,1.2c0,0.3-0.1,0.7-0.2,0.9c-0.1,0.3-0.2,0.5-0.4,0.8c-0.2,0.2-0.4,0.4-0.7,0.6
							c-0.3,0.2-0.6,0.3-0.9,0.4v0c0.2,0.1,0.3,0.2,0.5,0.3c0.1,0.1,0.3,0.2,0.4,0.4c0.1,0.1,0.2,0.3,0.3,0.4
							c0.1,0.2,0.2,0.3,0.4,0.6L433.2,213.5z M427.3,205.1v3.2h1.3c0.2,0,0.5,0,0.7-0.1s0.4-0.2,0.5-0.3c0.2-0.1,0.3-0.3,0.4-0.5
							c0.1-0.2,0.1-0.4,0.1-0.7c0-0.5-0.1-0.8-0.4-1.1s-0.7-0.4-1.3-0.4H427.3z"/>
						<path style="fill:#686969;" d="M442.3,213.5h-1.8l-0.9-2.5h-3.8l-0.8,2.5h-1.8l3.7-9.8h1.8L442.3,213.5z M439.2,209.7
							l-1.4-3.9c0-0.1-0.1-0.3-0.1-0.6h0c0,0.3-0.1,0.5-0.1,0.6l-1.3,3.9H439.2z"/>
						<path style="fill:#686969;" d="M450.3,213.1c-0.7,0.4-1.6,0.6-2.7,0.6c-1.4,0-2.5-0.4-3.4-1.3c-0.9-0.9-1.3-2.1-1.3-3.5
							c0-1.6,0.5-2.8,1.4-3.8s2.2-1.4,3.6-1.4c0.9,0,1.7,0.1,2.3,0.4v1.6c-0.7-0.4-1.4-0.6-2.2-0.6c-1.1,0-1.9,0.3-2.6,1
							s-1,1.6-1,2.7c0,1.1,0.3,1.9,0.9,2.6c0.6,0.6,1.4,1,2.4,1c0.9,0,1.7-0.2,2.4-0.7V213.1z"/>
						<path style="fill:#686969;" d="M459.5,213.5h-2.1l-3.4-4.5c-0.1-0.2-0.2-0.3-0.2-0.3h0v4.8h-1.6v-9.8h1.6v4.6h0
							c0.1-0.1,0.1-0.2,0.2-0.3l3.3-4.3h1.9l-3.8,4.7L459.5,213.5z"/>
						<path style="fill:#686969;" d="M466.1,213.5h-5.5v-9.8h5.3v1.4h-3.6v2.8h3.4v1.4h-3.4v2.9h3.9V213.5z"/>
						<path style="fill:#686969;" d="M475.4,213.5h-1.9l-1.6-2.6c-0.1-0.2-0.3-0.4-0.4-0.6c-0.1-0.2-0.3-0.3-0.4-0.4
							c-0.1-0.1-0.3-0.2-0.5-0.2s-0.3-0.1-0.6-0.1h-0.7v4h-1.6v-9.8h3.2c0.5,0,0.9,0.1,1.3,0.2c0.4,0.1,0.7,0.3,1,0.5
							c0.3,0.2,0.5,0.5,0.7,0.8c0.2,0.3,0.2,0.7,0.2,1.2c0,0.3-0.1,0.7-0.2,0.9c-0.1,0.3-0.2,0.5-0.4,0.8c-0.2,0.2-0.4,0.4-0.7,0.6
							c-0.3,0.2-0.6,0.3-0.9,0.4v0c0.2,0.1,0.3,0.2,0.5,0.3c0.1,0.1,0.3,0.2,0.4,0.4c0.1,0.1,0.2,0.3,0.3,0.4
							c0.1,0.2,0.2,0.3,0.4,0.6L475.4,213.5z M469.4,205.1v3.2h1.3c0.2,0,0.5,0,0.7-0.1s0.4-0.2,0.5-0.3c0.2-0.1,0.3-0.3,0.4-0.5
							c0.1-0.2,0.1-0.4,0.1-0.7c0-0.5-0.1-0.8-0.4-1.1s-0.7-0.4-1.3-0.4H469.4z"/>
					</g>
					
						<rect x="336.5" y="231.5" style="fill:none;stroke:#686969;stroke-width:3;stroke-linecap:round;stroke-linejoin:round;stroke-miterlimit:10;" width="142.9" height="34.3"/>
					<g>
						<path style="fill:#686969;" d="M363.1,243.5l-2.7,9.8h-1.8l-1.9-6.8c-0.1-0.3-0.1-0.6-0.1-1h0c0,0.3-0.1,0.6-0.2,0.9l-1.9,6.8
							h-1.9l-2.7-9.8h1.8l1.8,7.1c0.1,0.3,0.1,0.6,0.1,0.9h0c0-0.2,0.1-0.5,0.2-0.9l2-7.1h1.7l1.8,7.2c0.1,0.2,0.1,0.5,0.1,0.9h0
							c0-0.2,0.1-0.5,0.2-0.9l1.7-7.2H363.1z"/>
						<path style="fill:#686969;" d="M368.4,253.5c-1.4,0-2.5-0.5-3.4-1.4c-0.8-0.9-1.3-2.1-1.3-3.6c0-1.6,0.4-2.8,1.3-3.8
							c0.9-0.9,2-1.4,3.5-1.4c1.4,0,2.5,0.5,3.3,1.4c0.8,0.9,1.3,2.1,1.3,3.6c0,1.6-0.4,2.8-1.3,3.8
							C371,253,369.9,253.5,368.4,253.5z M368.5,244.8c-0.9,0-1.6,0.3-2.2,1c-0.6,0.7-0.8,1.5-0.8,2.6c0,1.1,0.3,2,0.8,2.6
							c0.5,0.7,1.3,1,2.1,1c0.9,0,1.7-0.3,2.2-0.9c0.5-0.6,0.8-1.5,0.8-2.6c0-1.2-0.3-2.1-0.8-2.7S369.4,244.8,368.5,244.8z"/>
						<path style="fill:#686969;" d="M382.5,253.3h-1.9l-1.6-2.6c-0.1-0.2-0.3-0.4-0.4-0.6c-0.1-0.2-0.3-0.3-0.4-0.4
							c-0.1-0.1-0.3-0.2-0.5-0.2s-0.3-0.1-0.6-0.1h-0.7v4h-1.6v-9.8h3.2c0.5,0,0.9,0.1,1.3,0.2c0.4,0.1,0.7,0.3,1,0.5
							c0.3,0.2,0.5,0.5,0.7,0.8c0.2,0.3,0.2,0.7,0.2,1.2c0,0.3-0.1,0.7-0.2,0.9c-0.1,0.3-0.2,0.5-0.4,0.8c-0.2,0.2-0.4,0.4-0.7,0.6
							c-0.3,0.2-0.6,0.3-0.9,0.4v0c0.2,0.1,0.3,0.2,0.5,0.3c0.1,0.1,0.3,0.2,0.4,0.4c0.1,0.1,0.2,0.3,0.3,0.4
							c0.1,0.2,0.2,0.3,0.4,0.6L382.5,253.3z M376.6,244.9v3.2h1.3c0.2,0,0.5,0,0.7-0.1s0.4-0.2,0.5-0.3c0.2-0.1,0.3-0.3,0.4-0.5
							c0.1-0.2,0.1-0.4,0.1-0.7c0-0.5-0.1-0.8-0.4-1.1s-0.7-0.4-1.3-0.4H376.6z"/>
						<path style="fill:#686969;" d="M391,253.3h-2.1l-3.4-4.5c-0.1-0.2-0.2-0.3-0.2-0.3h0v4.8h-1.6v-9.8h1.6v4.6h0
							c0.1-0.1,0.1-0.2,0.2-0.3l3.3-4.3h1.9l-3.8,4.7L391,253.3z"/>
						<path style="fill:#686969;" d="M397.6,253.3h-5.5v-9.8h5.3v1.4h-3.6v2.8h3.4v1.4h-3.4v2.9h3.9V253.3z"/>
						<path style="fill:#686969;" d="M406.9,253.3H405l-1.6-2.6c-0.1-0.2-0.3-0.4-0.4-0.6c-0.1-0.2-0.3-0.3-0.4-0.4
							c-0.1-0.1-0.3-0.2-0.5-0.2s-0.3-0.1-0.6-0.1h-0.7v4h-1.6v-9.8h3.2c0.5,0,0.9,0.1,1.3,0.2c0.4,0.1,0.7,0.3,1,0.5
							c0.3,0.2,0.5,0.5,0.7,0.8c0.2,0.3,0.2,0.7,0.2,1.2c0,0.3-0.1,0.7-0.2,0.9c-0.1,0.3-0.2,0.5-0.4,0.8c-0.2,0.2-0.4,0.4-0.7,0.6
							c-0.3,0.2-0.6,0.3-0.9,0.4v0c0.2,0.1,0.3,0.2,0.5,0.3c0.1,0.1,0.3,0.2,0.4,0.4c0.1,0.1,0.2,0.3,0.3,0.4
							c0.1,0.2,0.2,0.3,0.4,0.6L406.9,253.3z M400.9,244.9v3.2h1.3c0.2,0,0.5,0,0.7-0.1s0.4-0.2,0.5-0.3c0.2-0.1,0.3-0.3,0.4-0.5
							c0.1-0.2,0.1-0.4,0.1-0.7c0-0.5-0.1-0.8-0.4-1.1s-0.7-0.4-1.3-0.4H400.9z"/>
						<path style="fill:#686969;" d="M420.1,253.3h-1.8l-4.7-7.2c-0.1-0.2-0.2-0.4-0.3-0.6h0c0,0.2,0.1,0.7,0.1,1.3v6.4h-1.6v-9.8
							h1.9l4.5,7c0.2,0.3,0.3,0.5,0.4,0.6h0c0-0.3-0.1-0.7-0.1-1.3v-6.3h1.6V253.3z"/>
						<path style="fill:#686969;" d="M426.5,253.5c-1.4,0-2.5-0.5-3.4-1.4c-0.8-0.9-1.3-2.1-1.3-3.6c0-1.6,0.4-2.8,1.3-3.8
							c0.9-0.9,2-1.4,3.5-1.4c1.4,0,2.5,0.5,3.3,1.4c0.8,0.9,1.3,2.1,1.3,3.6c0,1.6-0.4,2.8-1.3,3.8
							C429.1,253,428,253.5,426.5,253.5z M426.6,244.8c-0.9,0-1.6,0.3-2.2,1c-0.6,0.7-0.8,1.5-0.8,2.6c0,1.1,0.3,2,0.8,2.6
							c0.5,0.7,1.3,1,2.1,1c0.9,0,1.7-0.3,2.2-0.9c0.5-0.6,0.8-1.5,0.8-2.6c0-1.2-0.3-2.1-0.8-2.7S427.5,244.8,426.6,244.8z"/>
						<path style="fill:#686969;" d="M433,253.3v-9.8h2.8c3.6,0,5.4,1.6,5.4,4.8c0,1.5-0.5,2.7-1.5,3.6c-1,0.9-2.3,1.4-4,1.4H433z
							 M434.7,244.9v7h1.3c1.1,0,2-0.3,2.7-0.9c0.6-0.6,0.9-1.5,0.9-2.7c0-2.3-1.2-3.4-3.5-3.4H434.7z"/>
						<path style="fill:#686969;" d="M448.5,253.3H443v-9.8h5.3v1.4h-3.6v2.8h3.4v1.4h-3.4v2.9h3.9V253.3z"/>
						<path style="fill:#686969;" d="M457,243.3v10h-1.6v-8c-0.3,0.2-0.6,0.4-0.9,0.5c-0.3,0.1-0.7,0.3-1.1,0.4v-1.3
							c0.3-0.1,0.5-0.2,0.8-0.3c0.2-0.1,0.5-0.2,0.7-0.3c0.2-0.1,0.5-0.2,0.7-0.4c0.2-0.1,0.5-0.3,0.8-0.5H457z"/>
					</g>
				</g>
				<g>
					<g>
						<path style="fill:#686969;" d="M512.1,188.5h-2.8v8.4h-1.6v-8.4h-2.8v-1.4h7.2V188.5z"/>
						<path style="fill:#686969;" d="M520.6,196.8h-1.8l-0.9-2.5h-3.8l-0.8,2.5h-1.8l3.7-9.8h1.8L520.6,196.8z M517.5,193l-1.4-3.9
							c0-0.1-0.1-0.3-0.1-0.6h0c0,0.3-0.1,0.5-0.1,0.6l-1.3,3.9H517.5z"/>
						<path style="fill:#686969;" d="M521.5,196.4v-1.7c0.1,0.1,0.3,0.3,0.5,0.4c0.2,0.1,0.4,0.2,0.7,0.3c0.2,0.1,0.5,0.1,0.7,0.2
							c0.2,0,0.4,0.1,0.6,0.1c0.7,0,1.2-0.1,1.5-0.3s0.5-0.6,0.5-1c0-0.2-0.1-0.4-0.2-0.6s-0.3-0.3-0.5-0.5s-0.4-0.3-0.7-0.4
							c-0.3-0.1-0.6-0.3-0.9-0.4c-0.3-0.2-0.6-0.4-0.9-0.5c-0.3-0.2-0.5-0.4-0.7-0.6s-0.4-0.5-0.5-0.7s-0.2-0.6-0.2-1
							c0-0.5,0.1-0.9,0.3-1.2s0.5-0.6,0.8-0.8c0.3-0.2,0.7-0.4,1.2-0.5s0.9-0.2,1.3-0.2c1,0,1.8,0.1,2.2,0.3v1.6
							c-0.6-0.4-1.3-0.6-2.1-0.6c-0.2,0-0.5,0-0.7,0.1c-0.2,0-0.5,0.1-0.6,0.2s-0.3,0.2-0.5,0.4s-0.2,0.4-0.2,0.6
							c0,0.2,0,0.4,0.1,0.6c0.1,0.2,0.2,0.3,0.4,0.4c0.2,0.1,0.4,0.3,0.6,0.4c0.3,0.1,0.5,0.3,0.9,0.4c0.3,0.2,0.7,0.4,1,0.6
							c0.3,0.2,0.6,0.4,0.8,0.6c0.2,0.2,0.4,0.5,0.5,0.8s0.2,0.6,0.2,1c0,0.5-0.1,0.9-0.3,1.3c-0.2,0.3-0.5,0.6-0.8,0.8
							c-0.3,0.2-0.7,0.4-1.2,0.5c-0.4,0.1-0.9,0.1-1.4,0.1c-0.2,0-0.4,0-0.6,0c-0.2,0-0.5-0.1-0.7-0.1c-0.2,0-0.5-0.1-0.7-0.2
							C521.8,196.6,521.6,196.5,521.5,196.4z"/>
						<path style="fill:#686969;" d="M536.9,196.8h-2.1l-3.4-4.5c-0.1-0.2-0.2-0.3-0.2-0.3h0v4.8h-1.6v-9.8h1.6v4.6h0
							c0.1-0.1,0.1-0.2,0.2-0.3l3.3-4.3h1.9l-3.8,4.7L536.9,196.8z"/>
						<path style="fill:#686969;" d="M500.8,205.2H498v8.4h-1.6v-8.4h-2.8v-1.4h7.2V205.2z"/>
						<path style="fill:#686969;" d="M509.8,213.5h-1.9l-1.6-2.6c-0.1-0.2-0.3-0.4-0.4-0.6c-0.1-0.2-0.3-0.3-0.4-0.4
							c-0.1-0.1-0.3-0.2-0.5-0.2s-0.3-0.1-0.6-0.1h-0.7v4h-1.6v-9.8h3.2c0.5,0,0.9,0.1,1.3,0.2c0.4,0.1,0.7,0.3,1,0.5
							c0.3,0.2,0.5,0.5,0.7,0.8c0.2,0.3,0.2,0.7,0.2,1.2c0,0.3-0.1,0.7-0.2,0.9c-0.1,0.3-0.2,0.5-0.4,0.8c-0.2,0.2-0.4,0.4-0.7,0.6
							c-0.3,0.2-0.6,0.3-0.9,0.4v0c0.2,0.1,0.3,0.2,0.5,0.3c0.1,0.1,0.3,0.2,0.4,0.4c0.1,0.1,0.2,0.3,0.3,0.4
							c0.1,0.2,0.2,0.3,0.4,0.6L509.8,213.5z M503.9,205.1v3.2h1.3c0.2,0,0.5,0,0.7-0.1s0.4-0.2,0.5-0.3c0.2-0.1,0.3-0.3,0.4-0.5
							c0.1-0.2,0.1-0.4,0.1-0.7c0-0.5-0.1-0.8-0.4-1.1s-0.7-0.4-1.3-0.4H503.9z"/>
						<path style="fill:#686969;" d="M518.9,213.5h-1.8l-0.9-2.5h-3.8l-0.8,2.5h-1.8l3.7-9.8h1.8L518.9,213.5z M515.9,209.7
							l-1.4-3.9c0-0.1-0.1-0.3-0.1-0.6h0c0,0.3-0.1,0.5-0.1,0.6l-1.3,3.9H515.9z"/>
						<path style="fill:#686969;" d="M526.9,213.1c-0.7,0.4-1.6,0.6-2.7,0.6c-1.4,0-2.5-0.4-3.4-1.3c-0.9-0.9-1.3-2.1-1.3-3.5
							c0-1.6,0.5-2.8,1.4-3.8s2.2-1.4,3.6-1.4c0.9,0,1.7,0.1,2.3,0.4v1.6c-0.7-0.4-1.4-0.6-2.2-0.6c-1.1,0-1.9,0.3-2.6,1
							s-1,1.6-1,2.7c0,1.1,0.3,1.9,0.9,2.6c0.6,0.6,1.4,1,2.4,1c0.9,0,1.7-0.2,2.4-0.7V213.1z"/>
						<path style="fill:#686969;" d="M536.1,213.5H534l-3.4-4.5c-0.1-0.2-0.2-0.3-0.2-0.3h0v4.8h-1.6v-9.8h1.6v4.6h0
							c0.1-0.1,0.1-0.2,0.2-0.3l3.3-4.3h1.9l-3.8,4.7L536.1,213.5z"/>
						<path style="fill:#686969;" d="M542.7,213.5h-5.5v-9.8h5.3v1.4h-3.6v2.8h3.4v1.4h-3.4v2.9h3.9V213.5z"/>
						<path style="fill:#686969;" d="M552,213.5h-1.9l-1.6-2.6c-0.1-0.2-0.3-0.4-0.4-0.6c-0.1-0.2-0.3-0.3-0.4-0.4
							c-0.1-0.1-0.3-0.2-0.5-0.2s-0.3-0.1-0.6-0.1h-0.7v4h-1.6v-9.8h3.2c0.5,0,0.9,0.1,1.3,0.2c0.4,0.1,0.7,0.3,1,0.5
							c0.3,0.2,0.5,0.5,0.7,0.8c0.2,0.3,0.2,0.7,0.2,1.2c0,0.3-0.1,0.7-0.2,0.9c-0.1,0.3-0.2,0.5-0.4,0.8c-0.2,0.2-0.4,0.4-0.7,0.6
							c-0.3,0.2-0.6,0.3-0.9,0.4v0c0.2,0.1,0.3,0.2,0.5,0.3c0.1,0.1,0.3,0.2,0.4,0.4c0.1,0.1,0.2,0.3,0.3,0.4
							c0.1,0.2,0.2,0.3,0.4,0.6L552,213.5z M546.1,205.1v3.2h1.3c0.2,0,0.5,0,0.7-0.1s0.4-0.2,0.5-0.3c0.2-0.1,0.3-0.3,0.4-0.5
							c0.1-0.2,0.1-0.4,0.1-0.7c0-0.5-0.1-0.8-0.4-1.1s-0.7-0.4-1.3-0.4H546.1z"/>
					</g>
					<path style="fill:none;stroke:#686969;stroke-width:3;stroke-linecap:round;stroke-linejoin:round;stroke-miterlimit:10;" d="
						M632.6,199.1c0-18.4-14.9-33.3-33.3-33.3c-18.4,0-33.3,14.9-33.3,33.3c0,0,0,0.1,0,0.1h0v25.7h66.6L632.6,199.1L632.6,199.1
						C632.6,199.1,632.6,199.1,632.6,199.1z"/>
					<path style="fill:none;stroke:#686969;stroke-width:3;stroke-linecap:round;stroke-linejoin:round;stroke-miterlimit:10;" d="
						M556.4,198.7c0-18.4-14.9-33.3-33.3-33.3c-18.4,0-33.3,14.9-33.3,33.3c0,0,0,0.1,0,0.1h0v25.7h66.6L556.4,198.7L556.4,198.7
						C556.4,198.7,556.4,198.7,556.4,198.7z"/>
					<g>
						<path style="fill:#686969;" d="M591.4,193.3c0,1.2-0.3,2.1-0.9,2.7s-1.3,1-2.3,1c-0.4,0-0.8-0.1-1.1-0.2v-1.5
							c0.3,0.2,0.6,0.3,1,0.3c1.1,0,1.6-0.8,1.6-2.5v-6h1.6V193.3z"/>
						<path style="fill:#686969;" d="M597.8,197c-1.4,0-2.5-0.5-3.4-1.4c-0.8-0.9-1.3-2.1-1.3-3.6c0-1.6,0.4-2.8,1.3-3.8
							c0.9-0.9,2-1.4,3.5-1.4c1.4,0,2.5,0.5,3.3,1.4c0.8,0.9,1.3,2.1,1.3,3.6c0,1.6-0.4,2.8-1.3,3.8
							C600.4,196.5,599.2,197,597.8,197z M597.9,188.3c-0.9,0-1.6,0.3-2.2,1c-0.6,0.7-0.8,1.5-0.8,2.6c0,1.1,0.3,2,0.8,2.6
							c0.5,0.7,1.3,1,2.1,1c0.9,0,1.7-0.3,2.2-0.9c0.5-0.6,0.8-1.5,0.8-2.6c0-1.2-0.3-2.1-0.8-2.7S598.8,188.3,597.9,188.3z"/>
						<path style="fill:#686969;" d="M604.3,196.8v-9.8h3.1c0.9,0,1.7,0.2,2.2,0.6c0.6,0.4,0.8,0.9,0.8,1.6c0,0.6-0.2,1-0.5,1.4
							c-0.3,0.4-0.7,0.7-1.3,0.9v0c0.7,0.1,1.2,0.3,1.6,0.7c0.4,0.4,0.6,1,0.6,1.6c0,0.8-0.3,1.5-1,2s-1.5,0.8-2.5,0.8H604.3z
							 M605.9,188.4v2.8h1c0.6,0,1-0.1,1.3-0.4c0.3-0.3,0.5-0.6,0.5-1.1c0-0.8-0.6-1.3-1.7-1.3H605.9z M605.9,192.5v3.1h1.4
							c0.6,0,1.1-0.1,1.4-0.4c0.3-0.3,0.5-0.7,0.5-1.2c0-1-0.7-1.5-2.1-1.5H605.9z"/>
						<path style="fill:#686969;" d="M577.5,205.2h-2.8v8.4H573v-8.4h-2.8v-1.4h7.2V205.2z"/>
						<path style="fill:#686969;" d="M586.4,213.5h-1.9l-1.6-2.6c-0.1-0.2-0.3-0.4-0.4-0.6c-0.1-0.2-0.3-0.3-0.4-0.4
							c-0.1-0.1-0.3-0.2-0.5-0.2s-0.3-0.1-0.6-0.1h-0.7v4h-1.6v-9.8h3.2c0.5,0,0.9,0.1,1.3,0.2c0.4,0.1,0.7,0.3,1,0.5
							c0.3,0.2,0.5,0.5,0.7,0.8c0.2,0.3,0.2,0.7,0.2,1.2c0,0.3-0.1,0.7-0.2,0.9c-0.1,0.3-0.2,0.5-0.4,0.8c-0.2,0.2-0.4,0.4-0.7,0.6
							c-0.3,0.2-0.6,0.3-0.9,0.4v0c0.2,0.1,0.3,0.2,0.5,0.3c0.1,0.1,0.3,0.2,0.4,0.4c0.1,0.1,0.2,0.3,0.3,0.4
							c0.1,0.2,0.2,0.3,0.4,0.6L586.4,213.5z M580.5,205.1v3.2h1.3c0.2,0,0.5,0,0.7-0.1s0.4-0.2,0.5-0.3c0.2-0.1,0.3-0.3,0.4-0.5
							c0.1-0.2,0.1-0.4,0.1-0.7c0-0.5-0.1-0.8-0.4-1.1s-0.7-0.4-1.3-0.4H580.5z"/>
						<path style="fill:#686969;" d="M595.6,213.5h-1.8l-0.9-2.5h-3.8l-0.8,2.5h-1.8l3.7-9.8h1.8L595.6,213.5z M592.5,209.7
							l-1.4-3.9c0-0.1-0.1-0.3-0.1-0.6h0c0,0.3-0.1,0.5-0.1,0.6l-1.3,3.9H592.5z"/>
						<path style="fill:#686969;" d="M603.5,213.1c-0.7,0.4-1.6,0.6-2.7,0.6c-1.4,0-2.5-0.4-3.4-1.3c-0.9-0.9-1.3-2.1-1.3-3.5
							c0-1.6,0.5-2.8,1.4-3.8s2.2-1.4,3.6-1.4c0.9,0,1.7,0.1,2.3,0.4v1.6c-0.7-0.4-1.4-0.6-2.2-0.6c-1.1,0-1.9,0.3-2.6,1
							s-1,1.6-1,2.7c0,1.1,0.3,1.9,0.9,2.6c0.6,0.6,1.4,1,2.4,1c0.9,0,1.7-0.2,2.4-0.7V213.1z"/>
						<path style="fill:#686969;" d="M612.7,213.5h-2.1l-3.4-4.5c-0.1-0.2-0.2-0.3-0.2-0.3h0v4.8h-1.6v-9.8h1.6v4.6h0
							c0.1-0.1,0.1-0.2,0.2-0.3l3.3-4.3h1.9l-3.8,4.7L612.7,213.5z"/>
						<path style="fill:#686969;" d="M619.3,213.5h-5.5v-9.8h5.3v1.4h-3.6v2.8h3.4v1.4h-3.4v2.9h3.9V213.5z"/>
						<path style="fill:#686969;" d="M628.6,213.5h-1.9l-1.6-2.6c-0.1-0.2-0.3-0.4-0.4-0.6c-0.1-0.2-0.3-0.3-0.4-0.4
							c-0.1-0.1-0.3-0.2-0.5-0.2s-0.3-0.1-0.6-0.1h-0.7v4h-1.6v-9.8h3.2c0.5,0,0.9,0.1,1.3,0.2c0.4,0.1,0.7,0.3,1,0.5
							c0.3,0.2,0.5,0.5,0.7,0.8c0.2,0.3,0.2,0.7,0.2,1.2c0,0.3-0.1,0.7-0.2,0.9c-0.1,0.3-0.2,0.5-0.4,0.8c-0.2,0.2-0.4,0.4-0.7,0.6
							c-0.3,0.2-0.6,0.3-0.9,0.4v0c0.2,0.1,0.3,0.2,0.5,0.3c0.1,0.1,0.3,0.2,0.4,0.4c0.1,0.1,0.2,0.3,0.3,0.4
							c0.1,0.2,0.2,0.3,0.4,0.6L628.6,213.5z M622.7,205.1v3.2h1.3c0.2,0,0.5,0,0.7-0.1s0.4-0.2,0.5-0.3c0.2-0.1,0.3-0.3,0.4-0.5
							c0.1-0.2,0.1-0.4,0.1-0.7c0-0.5-0.1-0.8-0.4-1.1s-0.7-0.4-1.3-0.4H622.7z"/>
					</g>
					
						<rect x="489.8" y="231.5" style="fill:none;stroke:#686969;stroke-width:3;stroke-linecap:round;stroke-linejoin:round;stroke-miterlimit:10;" width="142.9" height="34.3"/>
					<g>
						<path style="fill:#686969;" d="M515.2,243.5l-2.7,9.8h-1.8l-1.9-6.8c-0.1-0.3-0.1-0.6-0.1-1h0c0,0.3-0.1,0.6-0.2,0.9l-1.9,6.8
							h-1.9l-2.7-9.8h1.8l1.8,7.1c0.1,0.3,0.1,0.6,0.1,0.9h0c0-0.2,0.1-0.5,0.2-0.9l2-7.1h1.7l1.8,7.2c0.1,0.2,0.1,0.5,0.1,0.9h0
							c0-0.2,0.1-0.5,0.2-0.9l1.7-7.2H515.2z"/>
						<path style="fill:#686969;" d="M520.6,253.5c-1.4,0-2.5-0.5-3.4-1.4c-0.8-0.9-1.3-2.1-1.3-3.6c0-1.6,0.4-2.8,1.3-3.8
							c0.9-0.9,2-1.4,3.5-1.4c1.4,0,2.5,0.5,3.3,1.4c0.8,0.9,1.3,2.1,1.3,3.6c0,1.6-0.4,2.8-1.3,3.8
							C523.2,253,522,253.5,520.6,253.5z M520.7,244.8c-0.9,0-1.6,0.3-2.2,1c-0.6,0.7-0.8,1.5-0.8,2.6c0,1.1,0.3,2,0.8,2.6
							c0.5,0.7,1.3,1,2.1,1c0.9,0,1.7-0.3,2.2-0.9c0.5-0.6,0.8-1.5,0.8-2.6c0-1.2-0.3-2.1-0.8-2.7S521.6,244.8,520.7,244.8z"/>
						<path style="fill:#686969;" d="M534.7,253.3h-1.9l-1.6-2.6c-0.1-0.2-0.3-0.4-0.4-0.6c-0.1-0.2-0.3-0.3-0.4-0.4
							c-0.1-0.1-0.3-0.2-0.5-0.2s-0.3-0.1-0.6-0.1h-0.7v4h-1.6v-9.8h3.2c0.5,0,0.9,0.1,1.3,0.2c0.4,0.1,0.7,0.3,1,0.5
							c0.3,0.2,0.5,0.5,0.7,0.8c0.2,0.3,0.2,0.7,0.2,1.2c0,0.3-0.1,0.7-0.2,0.9c-0.1,0.3-0.2,0.5-0.4,0.8c-0.2,0.2-0.4,0.4-0.7,0.6
							c-0.3,0.2-0.6,0.3-0.9,0.4v0c0.2,0.1,0.3,0.2,0.5,0.3c0.1,0.1,0.3,0.2,0.4,0.4c0.1,0.1,0.2,0.3,0.3,0.4
							c0.1,0.2,0.2,0.3,0.4,0.6L534.7,253.3z M528.7,244.9v3.2h1.3c0.2,0,0.5,0,0.7-0.1s0.4-0.2,0.5-0.3c0.2-0.1,0.3-0.3,0.4-0.5
							c0.1-0.2,0.1-0.4,0.1-0.7c0-0.5-0.1-0.8-0.4-1.1s-0.7-0.4-1.3-0.4H528.7z"/>
						<path style="fill:#686969;" d="M543.2,253.3h-2.1l-3.4-4.5c-0.1-0.2-0.2-0.3-0.2-0.3h0v4.8h-1.6v-9.8h1.6v4.6h0
							c0.1-0.1,0.1-0.2,0.2-0.3l3.3-4.3h1.9l-3.8,4.7L543.2,253.3z"/>
						<path style="fill:#686969;" d="M549.8,253.3h-5.5v-9.8h5.3v1.4h-3.6v2.8h3.4v1.4h-3.4v2.9h3.9V253.3z"/>
						<path style="fill:#686969;" d="M559,253.3h-1.9l-1.6-2.6c-0.1-0.2-0.3-0.4-0.4-0.6c-0.1-0.2-0.3-0.3-0.4-0.4
							c-0.1-0.1-0.3-0.2-0.5-0.2s-0.3-0.1-0.6-0.1h-0.7v4h-1.6v-9.8h3.2c0.5,0,0.9,0.1,1.3,0.2c0.4,0.1,0.7,0.3,1,0.5
							c0.3,0.2,0.5,0.5,0.7,0.8c0.2,0.3,0.2,0.7,0.2,1.2c0,0.3-0.1,0.7-0.2,0.9c-0.1,0.3-0.2,0.5-0.4,0.8c-0.2,0.2-0.4,0.4-0.7,0.6
							c-0.3,0.2-0.6,0.3-0.9,0.4v0c0.2,0.1,0.3,0.2,0.5,0.3c0.1,0.1,0.3,0.2,0.4,0.4c0.1,0.1,0.2,0.3,0.3,0.4
							c0.1,0.2,0.2,0.3,0.4,0.6L559,253.3z M553.1,244.9v3.2h1.3c0.2,0,0.5,0,0.7-0.1s0.4-0.2,0.5-0.3c0.2-0.1,0.3-0.3,0.4-0.5
							c0.1-0.2,0.1-0.4,0.1-0.7c0-0.5-0.1-0.8-0.4-1.1s-0.7-0.4-1.3-0.4H553.1z"/>
						<path style="fill:#686969;" d="M572.3,253.3h-1.8l-4.7-7.2c-0.1-0.2-0.2-0.4-0.3-0.6h0c0,0.2,0.1,0.7,0.1,1.3v6.4H564v-9.8
							h1.9l4.5,7c0.2,0.3,0.3,0.5,0.4,0.6h0c0-0.3-0.1-0.7-0.1-1.3v-6.3h1.6V253.3z"/>
						<path style="fill:#686969;" d="M578.7,253.5c-1.4,0-2.5-0.5-3.4-1.4c-0.8-0.9-1.3-2.1-1.3-3.6c0-1.6,0.4-2.8,1.3-3.8
							c0.9-0.9,2-1.4,3.5-1.4c1.4,0,2.5,0.5,3.3,1.4c0.8,0.9,1.3,2.1,1.3,3.6c0,1.6-0.4,2.8-1.3,3.8
							C581.3,253,580.1,253.5,578.7,253.5z M578.8,244.8c-0.9,0-1.6,0.3-2.2,1c-0.6,0.7-0.8,1.5-0.8,2.6c0,1.1,0.3,2,0.8,2.6
							c0.5,0.7,1.3,1,2.1,1c0.9,0,1.7-0.3,2.2-0.9c0.5-0.6,0.8-1.5,0.8-2.6c0-1.2-0.3-2.1-0.8-2.7S579.7,244.8,578.8,244.8z"/>
						<path style="fill:#686969;" d="M585.2,253.3v-9.8h2.8c3.6,0,5.4,1.6,5.4,4.8c0,1.5-0.5,2.7-1.5,3.6c-1,0.9-2.3,1.4-4,1.4
							H585.2z M586.8,244.9v7h1.3c1.1,0,2-0.3,2.7-0.9c0.6-0.6,0.9-1.5,0.9-2.7c0-2.3-1.2-3.4-3.5-3.4H586.8z"/>
						<path style="fill:#686969;" d="M600.7,253.3h-5.5v-9.8h5.3v1.4h-3.6v2.8h3.4v1.4h-3.4v2.9h3.9V253.3z"/>
						<path style="fill:#686969;" d="M611.8,253.3h-6.1v-0.8c0-0.3,0-0.6,0.1-0.9s0.2-0.5,0.3-0.8c0.1-0.2,0.3-0.5,0.5-0.7
							c0.2-0.2,0.4-0.4,0.6-0.6c0.2-0.2,0.4-0.4,0.7-0.6c0.2-0.2,0.5-0.4,0.7-0.6c0.2-0.2,0.4-0.3,0.6-0.5c0.2-0.2,0.3-0.3,0.4-0.5
							c0.1-0.2,0.2-0.4,0.3-0.6c0.1-0.2,0.1-0.4,0.1-0.7c0-0.3,0-0.5-0.1-0.7c-0.1-0.2-0.2-0.4-0.3-0.5c-0.1-0.1-0.3-0.2-0.5-0.3
							c-0.2-0.1-0.4-0.1-0.6-0.1c-0.4,0-0.8,0.1-1.2,0.3c-0.4,0.2-0.8,0.5-1.2,0.8v-1.5c0.2-0.1,0.4-0.3,0.6-0.4
							c0.2-0.1,0.4-0.2,0.6-0.3s0.4-0.1,0.7-0.2c0.2,0,0.5-0.1,0.8-0.1c0.4,0,0.8,0.1,1.2,0.2c0.4,0.1,0.7,0.3,0.9,0.5
							c0.3,0.2,0.5,0.5,0.6,0.8c0.1,0.3,0.2,0.7,0.2,1.2c0,0.4,0,0.8-0.1,1.1c-0.1,0.3-0.2,0.6-0.4,0.9c-0.2,0.3-0.4,0.5-0.6,0.8
							s-0.5,0.5-0.8,0.8c-0.3,0.2-0.5,0.4-0.8,0.6c-0.3,0.2-0.5,0.4-0.7,0.6c-0.2,0.2-0.4,0.4-0.5,0.6c-0.1,0.2-0.2,0.4-0.2,0.6v0
							h4.4V253.3z"/>
					</g>
				</g>
				<g>
					<g>
						<path style="fill:#686969;" d="M435.7,298.5h-2.8v8.4h-1.6v-8.4h-2.8v-1.4h7.2V298.5z"/>
						<path style="fill:#686969;" d="M444.1,306.9h-1.8l-0.9-2.5h-3.8l-0.8,2.5H435l3.7-9.8h1.8L444.1,306.9z M441.1,303.1l-1.4-3.9
							c0-0.1-0.1-0.3-0.1-0.6h0c0,0.3-0.1,0.5-0.1,0.6l-1.3,3.9H441.1z"/>
						<path style="fill:#686969;" d="M445,306.5v-1.7c0.1,0.1,0.3,0.3,0.5,0.4c0.2,0.1,0.4,0.2,0.7,0.3c0.2,0.1,0.5,0.1,0.7,0.2
							c0.2,0,0.4,0.1,0.6,0.1c0.7,0,1.2-0.1,1.5-0.3s0.5-0.6,0.5-1c0-0.2-0.1-0.4-0.2-0.6s-0.3-0.3-0.5-0.5s-0.4-0.3-0.7-0.4
							c-0.3-0.1-0.6-0.3-0.9-0.4c-0.3-0.2-0.6-0.4-0.9-0.5c-0.3-0.2-0.5-0.4-0.7-0.6s-0.4-0.5-0.5-0.7s-0.2-0.6-0.2-1
							c0-0.5,0.1-0.9,0.3-1.2s0.5-0.6,0.8-0.8c0.3-0.2,0.7-0.4,1.2-0.5s0.9-0.2,1.3-0.2c1,0,1.8,0.1,2.2,0.3v1.6
							c-0.6-0.4-1.3-0.6-2.1-0.6c-0.2,0-0.5,0-0.7,0.1c-0.2,0-0.5,0.1-0.6,0.2s-0.3,0.2-0.5,0.4s-0.2,0.4-0.2,0.6
							c0,0.2,0,0.4,0.1,0.6c0.1,0.2,0.2,0.3,0.4,0.4c0.2,0.1,0.4,0.3,0.6,0.4c0.3,0.1,0.5,0.3,0.9,0.4c0.3,0.2,0.7,0.4,1,0.6
							c0.3,0.2,0.6,0.4,0.8,0.6c0.2,0.2,0.4,0.5,0.5,0.8s0.2,0.6,0.2,1c0,0.5-0.1,0.9-0.3,1.3c-0.2,0.3-0.5,0.6-0.8,0.8
							c-0.3,0.2-0.7,0.4-1.2,0.5c-0.4,0.1-0.9,0.1-1.4,0.1c-0.2,0-0.4,0-0.6,0c-0.2,0-0.5-0.1-0.7-0.1c-0.2,0-0.5-0.1-0.7-0.2
							C445.3,306.7,445.2,306.6,445,306.5z"/>
						<path style="fill:#686969;" d="M460.4,306.9h-2.1l-3.4-4.5c-0.1-0.2-0.2-0.3-0.2-0.3h0v4.8h-1.6v-9.8h1.6v4.6h0
							c0.1-0.1,0.1-0.2,0.2-0.3l3.3-4.3h1.9l-3.8,4.7L460.4,306.9z"/>
						<path style="fill:#686969;" d="M424.4,315.2h-2.8v8.4H420v-8.4h-2.8v-1.4h7.2V315.2z"/>
						<path style="fill:#686969;" d="M433.4,323.6h-1.9l-1.6-2.6c-0.1-0.2-0.3-0.4-0.4-0.6c-0.1-0.2-0.3-0.3-0.4-0.4
							c-0.1-0.1-0.3-0.2-0.5-0.2s-0.3-0.1-0.6-0.1h-0.7v4h-1.6v-9.8h3.2c0.5,0,0.9,0.1,1.3,0.2c0.4,0.1,0.7,0.3,1,0.5
							c0.3,0.2,0.5,0.5,0.7,0.8c0.2,0.3,0.2,0.7,0.2,1.2c0,0.3-0.1,0.7-0.2,0.9c-0.1,0.3-0.2,0.5-0.4,0.8c-0.2,0.2-0.4,0.4-0.7,0.6
							c-0.3,0.2-0.6,0.3-0.9,0.4v0c0.2,0.1,0.3,0.2,0.5,0.3c0.1,0.1,0.3,0.2,0.4,0.4c0.1,0.1,0.2,0.3,0.3,0.4
							c0.1,0.2,0.2,0.3,0.4,0.6L433.4,323.6z M427.4,315.2v3.2h1.3c0.2,0,0.5,0,0.7-0.1s0.4-0.2,0.5-0.3c0.2-0.1,0.3-0.3,0.4-0.5
							c0.1-0.2,0.1-0.4,0.1-0.7c0-0.5-0.1-0.8-0.4-1.1s-0.7-0.4-1.3-0.4H427.4z"/>
						<path style="fill:#686969;" d="M442.5,323.6h-1.8l-0.9-2.5H436l-0.8,2.5h-1.8l3.7-9.8h1.8L442.5,323.6z M439.4,319.8l-1.4-3.9
							c0-0.1-0.1-0.3-0.1-0.6h0c0,0.3-0.1,0.5-0.1,0.6l-1.3,3.9H439.4z"/>
						<path style="fill:#686969;" d="M450.5,323.2c-0.7,0.4-1.6,0.6-2.7,0.6c-1.4,0-2.5-0.4-3.4-1.3c-0.9-0.9-1.3-2.1-1.3-3.5
							c0-1.6,0.5-2.8,1.4-3.8s2.2-1.4,3.6-1.4c0.9,0,1.7,0.1,2.3,0.4v1.6c-0.7-0.4-1.4-0.6-2.2-0.6c-1.1,0-1.9,0.3-2.6,1
							s-1,1.6-1,2.7c0,1.1,0.3,1.9,0.9,2.6c0.6,0.6,1.4,1,2.4,1c0.9,0,1.7-0.2,2.4-0.7V323.2z"/>
						<path style="fill:#686969;" d="M459.7,323.6h-2.1l-3.4-4.5c-0.1-0.2-0.2-0.3-0.2-0.3h0v4.8h-1.6v-9.8h1.6v4.6h0
							c0.1-0.1,0.1-0.2,0.2-0.3l3.3-4.3h1.9l-3.8,4.7L459.7,323.6z"/>
						<path style="fill:#686969;" d="M466.3,323.6h-5.5v-9.8h5.3v1.4h-3.6v2.8h3.4v1.4h-3.4v2.9h3.9V323.6z"/>
						<path style="fill:#686969;" d="M475.6,323.6h-1.9l-1.6-2.6c-0.1-0.2-0.3-0.4-0.4-0.6c-0.1-0.2-0.3-0.3-0.4-0.4
							c-0.1-0.1-0.3-0.2-0.5-0.2s-0.3-0.1-0.6-0.1h-0.7v4H468v-9.8h3.2c0.5,0,0.9,0.1,1.3,0.2c0.4,0.1,0.7,0.3,1,0.5
							c0.3,0.2,0.5,0.5,0.7,0.8c0.2,0.3,0.2,0.7,0.2,1.2c0,0.3-0.1,0.7-0.2,0.9c-0.1,0.3-0.2,0.5-0.4,0.8c-0.2,0.2-0.4,0.4-0.7,0.6
							c-0.3,0.2-0.6,0.3-0.9,0.4v0c0.2,0.1,0.3,0.2,0.5,0.3c0.1,0.1,0.3,0.2,0.4,0.4c0.1,0.1,0.2,0.3,0.3,0.4
							c0.1,0.2,0.2,0.3,0.4,0.6L475.6,323.6z M469.6,315.2v3.2h1.3c0.2,0,0.5,0,0.7-0.1s0.4-0.2,0.5-0.3c0.2-0.1,0.3-0.3,0.4-0.5
							c0.1-0.2,0.1-0.4,0.1-0.7c0-0.5-0.1-0.8-0.4-1.1s-0.7-0.4-1.3-0.4H469.6z"/>
					</g>
					<path style="fill:none;stroke:#686969;stroke-width:3;stroke-linecap:round;stroke-linejoin:round;stroke-miterlimit:10;" d="
						M556.2,309.1c0-18.4-14.9-33.3-33.3-33.3c-18.4,0-33.3,14.9-33.3,33.3c0,0,0,0.1,0,0.1h0v25.7h66.6L556.2,309.1L556.2,309.1
						C556.2,309.2,556.2,309.1,556.2,309.1z"/>
					<path style="fill:none;stroke:#686969;stroke-width:3;stroke-linecap:round;stroke-linejoin:round;stroke-miterlimit:10;" d="
						M479.9,308.7c0-18.4-14.9-33.3-33.3-33.3c-18.4,0-33.3,14.9-33.3,33.3c0,0,0,0.1,0,0.1h0v25.7h66.6L479.9,308.7L479.9,308.7
						C479.9,308.8,479.9,308.7,479.9,308.7z"/>
					<g>
						<path style="fill:#686969;" d="M515,303.4c0,1.2-0.3,2.1-0.9,2.7c-0.6,0.6-1.3,1-2.3,1c-0.4,0-0.8-0.1-1.1-0.2v-1.5
							c0.3,0.2,0.6,0.3,1,0.3c1.1,0,1.6-0.8,1.6-2.5v-6h1.6V303.4z"/>
						<path style="fill:#686969;" d="M521.4,307c-1.4,0-2.5-0.5-3.4-1.4c-0.8-0.9-1.3-2.1-1.3-3.6c0-1.6,0.4-2.8,1.3-3.8
							c0.9-0.9,2-1.4,3.5-1.4c1.4,0,2.5,0.5,3.3,1.4c0.8,0.9,1.3,2.1,1.3,3.6c0,1.6-0.4,2.8-1.3,3.8
							C523.9,306.6,522.8,307,521.4,307z M521.4,298.4c-0.9,0-1.6,0.3-2.2,1c-0.6,0.7-0.8,1.5-0.8,2.6c0,1.1,0.3,2,0.8,2.6
							s1.3,1,2.1,1c0.9,0,1.7-0.3,2.2-0.9c0.5-0.6,0.8-1.5,0.8-2.6c0-1.2-0.3-2.1-0.8-2.7S522.3,298.4,521.4,298.4z"/>
						<path style="fill:#686969;" d="M527.9,306.9v-9.8h3.1c0.9,0,1.7,0.2,2.2,0.6c0.6,0.4,0.8,0.9,0.8,1.6c0,0.6-0.2,1-0.5,1.4
							c-0.3,0.4-0.7,0.7-1.3,0.9v0c0.7,0.1,1.2,0.3,1.6,0.7c0.4,0.4,0.6,1,0.6,1.6c0,0.8-0.3,1.5-1,2c-0.7,0.5-1.5,0.8-2.5,0.8
							H527.9z M529.5,298.4v2.8h1c0.6,0,1-0.1,1.3-0.4c0.3-0.3,0.5-0.6,0.5-1.1c0-0.8-0.6-1.3-1.7-1.3H529.5z M529.5,302.5v3.1h1.4
							c0.6,0,1.1-0.1,1.4-0.4c0.3-0.3,0.5-0.7,0.5-1.2c0-1-0.7-1.5-2.1-1.5H529.5z"/>
						<path style="fill:#686969;" d="M501,315.2h-2.8v8.4h-1.6v-8.4h-2.8v-1.4h7.2V315.2z"/>
						<path style="fill:#686969;" d="M510,323.6h-1.9l-1.6-2.6c-0.1-0.2-0.3-0.4-0.4-0.6c-0.1-0.2-0.3-0.3-0.4-0.4
							c-0.1-0.1-0.3-0.2-0.5-0.2c-0.2,0-0.3-0.1-0.6-0.1h-0.7v4h-1.6v-9.8h3.2c0.5,0,0.9,0.1,1.3,0.2c0.4,0.1,0.7,0.3,1,0.5
							s0.5,0.5,0.7,0.8c0.2,0.3,0.2,0.7,0.2,1.2c0,0.3-0.1,0.7-0.2,0.9c-0.1,0.3-0.2,0.5-0.4,0.8c-0.2,0.2-0.4,0.4-0.7,0.6
							c-0.3,0.2-0.6,0.3-0.9,0.4v0c0.2,0.1,0.3,0.2,0.5,0.3s0.3,0.2,0.4,0.4c0.1,0.1,0.2,0.3,0.3,0.4s0.2,0.3,0.4,0.6L510,323.6z
							 M504.1,315.2v3.2h1.3c0.3,0,0.5,0,0.7-0.1s0.4-0.2,0.5-0.3c0.2-0.1,0.3-0.3,0.4-0.5c0.1-0.2,0.1-0.4,0.1-0.7
							c0-0.5-0.1-0.8-0.4-1.1s-0.7-0.4-1.3-0.4H504.1z"/>
						<path style="fill:#686969;" d="M519.1,323.6h-1.8l-0.9-2.5h-3.8l-0.8,2.5H510l3.7-9.8h1.8L519.1,323.6z M516.1,319.8l-1.4-3.9
							c0-0.1-0.1-0.3-0.1-0.6h0c0,0.3-0.1,0.5-0.1,0.6l-1.3,3.9H516.1z"/>
						<path style="fill:#686969;" d="M527.1,323.2c-0.7,0.4-1.6,0.6-2.7,0.6c-1.4,0-2.5-0.4-3.4-1.3c-0.9-0.9-1.3-2.1-1.3-3.5
							c0-1.6,0.5-2.8,1.4-3.8s2.2-1.4,3.6-1.4c0.9,0,1.7,0.1,2.3,0.4v1.6c-0.7-0.4-1.4-0.6-2.2-0.6c-1.1,0-1.9,0.3-2.6,1
							c-0.7,0.7-1,1.6-1,2.7c0,1.1,0.3,1.9,0.9,2.6c0.6,0.6,1.4,1,2.4,1c0.9,0,1.7-0.2,2.4-0.7V323.2z"/>
						<path style="fill:#686969;" d="M536.3,323.6h-2.1l-3.4-4.5c-0.1-0.2-0.2-0.3-0.2-0.3h0v4.8h-1.6v-9.8h1.6v4.6h0
							c0.1-0.1,0.1-0.2,0.2-0.3l3.3-4.3h1.9l-3.8,4.7L536.3,323.6z"/>
						<path style="fill:#686969;" d="M542.9,323.6h-5.5v-9.8h5.3v1.4h-3.6v2.8h3.4v1.4h-3.4v2.9h3.9V323.6z"/>
						<path style="fill:#686969;" d="M552.2,323.6h-1.9l-1.6-2.6c-0.1-0.2-0.3-0.4-0.4-0.6c-0.1-0.2-0.3-0.3-0.4-0.4
							c-0.1-0.1-0.3-0.2-0.5-0.2c-0.2,0-0.3-0.1-0.6-0.1h-0.7v4h-1.6v-9.8h3.2c0.5,0,0.9,0.1,1.3,0.2c0.4,0.1,0.7,0.3,1,0.5
							s0.5,0.5,0.7,0.8c0.2,0.3,0.2,0.7,0.2,1.2c0,0.3-0.1,0.7-0.2,0.9c-0.1,0.3-0.2,0.5-0.4,0.8c-0.2,0.2-0.4,0.4-0.7,0.6
							c-0.3,0.2-0.6,0.3-0.9,0.4v0c0.2,0.1,0.3,0.2,0.5,0.3s0.3,0.2,0.4,0.4c0.1,0.1,0.2,0.3,0.3,0.4s0.2,0.3,0.4,0.6L552.2,323.6z
							 M546.3,315.2v3.2h1.3c0.3,0,0.5,0,0.7-0.1s0.4-0.2,0.5-0.3c0.2-0.1,0.3-0.3,0.4-0.5c0.1-0.2,0.1-0.4,0.1-0.7
							c0-0.5-0.1-0.8-0.4-1.1s-0.7-0.4-1.3-0.4H546.3z"/>
					</g>
					
						<rect x="413.3" y="341.6" style="fill:none;stroke:#686969;stroke-width:3;stroke-linecap:round;stroke-linejoin:round;stroke-miterlimit:10;" width="142.9" height="34.3"/>
					<g>
						<path style="fill:#686969;" d="M438.8,353.6l-2.7,9.8h-1.8l-1.9-6.8c-0.1-0.3-0.1-0.6-0.1-1h0c0,0.3-0.1,0.6-0.2,0.9l-1.9,6.8
							h-1.9l-2.7-9.8h1.8l1.8,7.1c0.1,0.3,0.1,0.6,0.1,0.9h0c0-0.2,0.1-0.5,0.2-0.9l2-7.1h1.7l1.8,7.2c0.1,0.2,0.1,0.5,0.1,0.9h0
							c0-0.2,0.1-0.5,0.2-0.9l1.7-7.2H438.8z"/>
						<path style="fill:#686969;" d="M444.2,363.5c-1.4,0-2.5-0.5-3.4-1.4c-0.8-0.9-1.3-2.1-1.3-3.6c0-1.6,0.4-2.8,1.3-3.8
							c0.9-0.9,2-1.4,3.5-1.4c1.4,0,2.5,0.5,3.3,1.4c0.8,0.9,1.3,2.1,1.3,3.6c0,1.6-0.4,2.8-1.3,3.8
							C446.8,363,445.6,363.5,444.2,363.5z M444.3,354.9c-0.9,0-1.6,0.3-2.2,1c-0.6,0.7-0.8,1.5-0.8,2.6c0,1.1,0.3,2,0.8,2.6
							c0.5,0.7,1.3,1,2.1,1c0.9,0,1.7-0.3,2.2-0.9c0.5-0.6,0.8-1.5,0.8-2.6c0-1.2-0.3-2.1-0.8-2.7S445.2,354.9,444.3,354.9z"/>
						<path style="fill:#686969;" d="M458.2,363.3h-1.9l-1.6-2.6c-0.1-0.2-0.3-0.4-0.4-0.6c-0.1-0.2-0.3-0.3-0.4-0.4
							c-0.1-0.1-0.3-0.2-0.5-0.2s-0.3-0.1-0.6-0.1h-0.7v4h-1.6v-9.8h3.2c0.5,0,0.9,0.1,1.3,0.2c0.4,0.1,0.7,0.3,1,0.5
							c0.3,0.2,0.5,0.5,0.7,0.8c0.2,0.3,0.2,0.7,0.2,1.2c0,0.3-0.1,0.7-0.2,0.9c-0.1,0.3-0.2,0.5-0.4,0.8c-0.2,0.2-0.4,0.4-0.7,0.6
							c-0.3,0.2-0.6,0.3-0.9,0.4v0c0.2,0.1,0.3,0.2,0.5,0.3c0.1,0.1,0.3,0.2,0.4,0.4c0.1,0.1,0.2,0.3,0.3,0.4
							c0.1,0.2,0.2,0.3,0.4,0.6L458.2,363.3z M452.3,354.9v3.2h1.3c0.2,0,0.5,0,0.7-0.1s0.4-0.2,0.5-0.3c0.2-0.1,0.3-0.3,0.4-0.5
							c0.1-0.2,0.1-0.4,0.1-0.7c0-0.5-0.1-0.8-0.4-1.1s-0.7-0.4-1.3-0.4H452.3z"/>
						<path style="fill:#686969;" d="M466.7,363.3h-2.1l-3.4-4.5c-0.1-0.2-0.2-0.3-0.2-0.3h0v4.8h-1.6v-9.8h1.6v4.6h0
							c0.1-0.1,0.1-0.2,0.2-0.3l3.3-4.3h1.9l-3.8,4.7L466.7,363.3z"/>
						<path style="fill:#686969;" d="M473.3,363.3h-5.5v-9.8h5.3v1.4h-3.6v2.8h3.4v1.4h-3.4v2.9h3.9V363.3z"/>
						<path style="fill:#686969;" d="M482.6,363.3h-1.9l-1.6-2.6c-0.1-0.2-0.3-0.4-0.4-0.6c-0.1-0.2-0.3-0.3-0.4-0.4
							c-0.1-0.1-0.3-0.2-0.5-0.2s-0.3-0.1-0.6-0.1h-0.7v4h-1.6v-9.8h3.2c0.5,0,0.9,0.1,1.3,0.2c0.4,0.1,0.7,0.3,1,0.5
							c0.3,0.2,0.5,0.5,0.7,0.8c0.2,0.3,0.2,0.7,0.2,1.2c0,0.3-0.1,0.7-0.2,0.9c-0.1,0.3-0.2,0.5-0.4,0.8c-0.2,0.2-0.4,0.4-0.7,0.6
							c-0.3,0.2-0.6,0.3-0.9,0.4v0c0.2,0.1,0.3,0.2,0.5,0.3c0.1,0.1,0.3,0.2,0.4,0.4c0.1,0.1,0.2,0.3,0.3,0.4
							c0.1,0.2,0.2,0.3,0.4,0.6L482.6,363.3z M476.7,354.9v3.2h1.3c0.2,0,0.5,0,0.7-0.1s0.4-0.2,0.5-0.3c0.2-0.1,0.3-0.3,0.4-0.5
							c0.1-0.2,0.1-0.4,0.1-0.7c0-0.5-0.1-0.8-0.4-1.1s-0.7-0.4-1.3-0.4H476.7z"/>
						<path style="fill:#686969;" d="M495.8,363.3h-1.8l-4.7-7.2c-0.1-0.2-0.2-0.4-0.3-0.6h0c0,0.2,0.1,0.7,0.1,1.3v6.4h-1.6v-9.8
							h1.9l4.5,7c0.2,0.3,0.3,0.5,0.4,0.6h0c0-0.3-0.1-0.7-0.1-1.3v-6.3h1.6V363.3z"/>
						<path style="fill:#686969;" d="M502.3,363.5c-1.4,0-2.5-0.5-3.4-1.4c-0.8-0.9-1.3-2.1-1.3-3.6c0-1.6,0.4-2.8,1.3-3.8
							c0.9-0.9,2-1.4,3.5-1.4c1.4,0,2.5,0.5,3.3,1.4c0.8,0.9,1.3,2.1,1.3,3.6c0,1.6-0.4,2.8-1.3,3.8
							C504.9,363,503.7,363.5,502.3,363.5z M502.4,354.9c-0.9,0-1.6,0.3-2.2,1c-0.6,0.7-0.8,1.5-0.8,2.6c0,1.1,0.3,2,0.8,2.6
							c0.5,0.7,1.3,1,2.1,1c0.9,0,1.7-0.3,2.2-0.9c0.5-0.6,0.8-1.5,0.8-2.6c0-1.2-0.3-2.1-0.8-2.7S503.3,354.9,502.4,354.9z"/>
						<path style="fill:#686969;" d="M508.8,363.3v-9.8h2.8c3.6,0,5.4,1.6,5.4,4.8c0,1.5-0.5,2.7-1.5,3.6c-1,0.9-2.3,1.4-4,1.4
							H508.8z M510.4,355v7h1.3c1.1,0,2-0.3,2.7-0.9c0.6-0.6,0.9-1.5,0.9-2.7c0-2.3-1.2-3.4-3.5-3.4H510.4z"/>
						<path style="fill:#686969;" d="M524.3,363.3h-5.5v-9.8h5.3v1.4h-3.6v2.8h3.4v1.4h-3.4v2.9h3.9V363.3z"/>
						<path style="fill:#686969;" d="M529.4,363v-1.5c0.6,0.5,1.3,0.8,2.1,0.8c0.6,0,1.2-0.1,1.6-0.4c0.4-0.3,0.6-0.7,0.6-1.2
							c0-1.1-0.8-1.7-2.5-1.7h-0.8v-1.3h0.7c1.5,0,2.3-0.5,2.3-1.6c0-1-0.6-1.4-1.8-1.4c-0.7,0-1.3,0.2-1.8,0.7V354
							c0.7-0.4,1.4-0.6,2.3-0.6c0.9,0,1.6,0.2,2.1,0.7c0.5,0.4,0.8,1,0.8,1.7c0,1.3-0.7,2.1-2,2.5v0c0.7,0.1,1.3,0.3,1.7,0.7
							s0.6,1,0.6,1.6c0,0.9-0.3,1.6-1,2.1c-0.7,0.5-1.5,0.8-2.6,0.8C530.8,363.5,530,363.3,529.4,363z"/>
					</g>
				</g>
			</g>
		</g>
	</g>
</g>
</svg>
