<svg id="Layer_1" xmlns="http://www.w3.org/2000/svg" width="260" height="403" viewBox="0 0 260 403"><g fill="none" stroke="#dfdfde" stroke-width="4" stroke-linecap="round" stroke-linejoin="round" stroke-miterlimit="10"><path d="M127.7 70.5v-80.8"/><circle cx="127.7" cy="76" r="5"/></g><path d="M128.8 101.8c-.1-.2-.3-.3-.5-.4s-.4-.1-.6-.1c-.2 0-.4 0-.6.1-.2.1-.3.2-.5.4s-.2.3-.3.6-.1.5-.1.7c0 .3 0 .5.1.8l.3.6c.1.2.3.3.5.3.2.1.4.1.7.1.2 0 .4 0 .6-.1s.3-.2.5-.3c.1-.1.2-.3.3-.5s.1-.4.1-.6c0-.3 0-.6-.1-.8l-.4-.8z"/><path d="M127.7 92.9c-6.4 0-11.6 5.2-11.6 11.6s5.2 11.6 11.6 11.6 11.6-5.2 11.6-11.6-5.2-11.6-11.6-11.6zm2.8 13.7c-.2.7-.5 1.2-.8 1.6s-.7.7-1.2.9c-.5.2-1 .3-1.5.3h-.5c-.2 0-.3 0-.5-.1-.2 0-.3-.1-.4-.1s-.2-.1-.3-.1v-1.3c.1.1.2.1.3.2s.3.1.4.2c.2 0 .3.1.5.1h.5c.4 0 .7-.1 1-.2s.5-.3.8-.6c.2-.3.4-.6.5-1s.2-.9.2-1.4c-.1.1-.2.3-.3.4s-.3.2-.4.3-.3.2-.5.2c-.2.1-.4.1-.6.1-.4 0-.7-.1-1.1-.2-.3-.1-.6-.3-.9-.6-.2-.2-.4-.5-.6-.9s-.2-.7-.2-1.2.1-.9.2-1.3c.2-.4.4-.7.6-1 .3-.3.6-.5 1-.6s.8-.2 1.2-.2.8.1 1.2.2.7.4 1 .7c.3.3.5.8.7 1.3s.2 1.2.2 1.9c-.3 1-.4 1.7-.5 2.4z"/><path d="M129.8 101c-.3-.3-.6-.6-1-.7s-.8-.2-1.2-.2-.8.1-1.2.2-.7.4-1 .6c-.3.3-.5.6-.6 1-.2.4-.2.8-.2 1.3 0 .4.1.8.2 1.2s.3.6.6.9c.2.2.5.4.9.6.3.1.7.2 1.1.2.2 0 .4 0 .6-.1.2-.1.4-.1.5-.2s.3-.2.4-.3c.1-.1.2-.2.3-.4 0 .5-.1 1-.2 1.4s-.3.8-.5 1c-.2.3-.5.5-.8.6s-.6.2-1 .2h-.5c-.2 0-.3-.1-.5-.1s-.3-.1-.4-.2c-.1-.1-.2-.1-.3-.2v1.3c.1 0 .2.1.3.1s.3.1.4.1c.2 0 .3.1.5.1h.5c.5 0 1-.1 1.5-.3.5-.2.9-.5 1.2-.9s.6-1 .8-1.6c.2-.7.3-1.4.3-2.3 0-.8-.1-1.4-.2-1.9s-.2-1-.5-1.4zm-.7 2.9c-.1.2-.2.3-.3.5-.1.1-.3.2-.5.3s-.4.1-.6.1c-.2 0-.5 0-.7-.1s-.4-.2-.5-.3c-.1-.2-.2-.3-.3-.6-.1-.2-.1-.5-.1-.8s0-.5.1-.7l.3-.6c.1-.2.3-.3.5-.4s.4-.1.6-.1c.2 0 .4 0 .6.1.2.1.4.2.5.4l.3.6c.1.3.1.5.1.8.1.4.1.6 0 .8z" fill="#FFF"/><path d="M19.7 134.2c-1.4 0-2.5-.5-3.4-1.4s-1.3-2.1-1.3-3.6c0-1.6.4-2.8 1.3-3.8s2-1.4 3.5-1.4c1.4 0 2.5.5 3.3 1.4s1.3 2.1 1.3 3.6c0 1.6-.4 2.9-1.3 3.8s-2 1.4-3.4 1.4zm0-8.7c-.9 0-1.6.3-2.2 1s-.8 1.6-.8 2.6c0 1.1.3 2 .8 2.6s1.3 1 2.1 1c.9 0 1.7-.3 2.2-1s.8-1.5.8-2.7-.3-2.1-.8-2.7-1.1-.8-2.1-.8zM27.8 130.5v3.6h-1.6v-9.8h3c1.1 0 2 .3 2.6.8s.9 1.3.9 2.2-.3 1.7-1 2.3-1.5.9-2.6.9h-1.3zm0-4.9v3.6h1.1c.7 0 1.2-.2 1.6-.5s.5-.8.5-1.4c0-1.2-.7-1.7-2-1.7h-1.2zM39.9 134.1h-5.5v-9.8h5.3v1.4H36v2.8h3.4v1.4H36v2.9h3.9v1.3zM49.2 134.1h-1.9l-1.6-2.6c-.1-.2-.3-.4-.4-.6-.1-.2-.3-.3-.4-.4s-.3-.2-.5-.2-.3-.1-.6-.1h-.7v4h-1.6v-9.8h3.2c.5 0 .9.1 1.3.2s.7.3 1 .5.5.5.7.8.2.7.2 1.2c0 .3-.1.7-.2 1s-.2.5-.4.8c-.2.2-.4.4-.7.6s-.6.3-.9.4c.2.1.3.2.5.3.1.1.3.2.4.4s.2.3.4.4c.1.2.2.3.4.6l1.8 2.5zm-5.9-8.5v3.2h1.4c.3 0 .5 0 .7-.1l.6-.3c.2-.1.3-.3.4-.5s.1-.4.1-.7c0-.5-.1-.8-.4-1.1s-.7-.4-1.3-.4l-1.5-.1zM58.4 134.1h-1.8l-.9-2.5h-3.9l-.8 2.5h-1.8l3.7-9.8h1.8l3.7 9.8zm-3.1-3.8l-1.4-3.9c0-.1-.1-.3-.1-.6 0 .3-.1.5-.1.6l-1.3 3.9h2.9zM65 125.7h-2.8v8.4h-1.6v-8.4h-2.8v-1.4h7.3l-.1 1.4zM68.2 134.1h-1.7v-9.8h1.7v9.8zM74.6 134.2c-1.4 0-2.5-.5-3.4-1.4s-1.3-2.1-1.3-3.6c0-1.6.4-2.8 1.3-3.8s2-1.4 3.5-1.4c1.4 0 2.5.5 3.3 1.4s1.3 2.1 1.3 3.6c0 1.6-.4 2.9-1.3 3.8s-2 1.4-3.4 1.4zm.1-8.7c-.9 0-1.6.3-2.2 1s-.8 1.6-.8 2.6c0 1.1.3 2 .8 2.6s1.3 1 2.1 1c.9 0 1.7-.3 2.2-1s.8-1.5.8-2.7-.3-2.1-.8-2.7-1.2-.8-2.1-.8zM89.5 134.1h-1.8l-4.7-7.2-.3-.6c0 .2.1.7.1 1.3v6.4h-1.6v-9.8h1.9l4.5 7c.2.3.3.5.4.6 0-.3-.1-.7-.1-1.3v-6.3h1.6v9.9zM99.9 134.1h-1.8l-.9-2.5h-3.9l-.8 2.5h-1.8l3.7-9.8h1.8l3.7 9.8zm-3.1-3.8l-1.4-3.9c0-.1-.1-.3-.1-.6 0 .3-.1.5-.1.6l-1.3 3.9h2.9zM106.7 134.1h-5.4v-9.8h1.6v8.4h3.8v1.4zM122.5 134.1h-1.6v-6.3c0-.5 0-1.2.1-1.9-.1.4-.2.7-.3.9l-2.9 7.3h-1.1l-2.9-7.3c-.1-.2-.2-.5-.3-1 0 .4.1 1 .1 1.9v6.3H112v-9.8h2.3l2.6 6.5c.2.5.3.9.4 1.1.2-.5.3-.9.4-1.1l2.6-6.5h2.2v9.9zM133 134.1h-1.8l-.9-2.5h-3.9l-.8 2.5h-1.8l3.7-9.8h1.8l3.7 9.8zm-3.1-3.8l-1.4-3.9c0-.1-.1-.3-.1-.6 0 .3-.1.5-.1.6l-1.3 3.9h2.9zM142.6 134.1h-1.8l-4.7-7.2-.3-.6c0 .2.1.7.1 1.3v6.4h-1.6v-9.8h1.9l4.5 7c.2.3.3.5.4.6 0-.3-.1-.7-.1-1.3v-6.3h1.6v9.9zM153.1 134.1h-1.8l-.9-2.5h-3.9l-.8 2.5H144l3.7-9.8h1.8l3.6 9.8zm-3.1-3.8l-1.4-3.9c0-.1-.1-.3-.1-.6 0 .3-.1.5-.1.6l-1.3 3.9h2.9zM161.9 133.4c-1 .6-2.2.8-3.4.8-1.4 0-2.6-.5-3.5-1.4s-1.3-2.1-1.3-3.6.5-2.8 1.5-3.7c1-1 2.2-1.5 3.7-1.5 1.1 0 2 .2 2.7.5v1.7c-.8-.5-1.6-.8-2.7-.8-1 0-1.9.3-2.6 1-.7.7-1 1.6-1 2.7s.3 2 .9 2.7c.6.6 1.4 1 2.3 1 .7 0 1.3-.1 1.8-.4v-2.3h-2.1v-1.4h3.7v4.7zM169.6 134.1h-5.5v-9.8h5.3v1.4h-3.7v2.8h3.4v1.4h-3.4v2.9h3.9v1.3zM181.8 134.1h-1.6v-6.3c0-.5 0-1.2.1-1.9-.1.4-.2.7-.3.9l-2.9 7.3H176l-2.9-7.3c-.1-.2-.2-.5-.3-1 0 .4.1 1 .1 1.9v6.3h-1.5v-9.8h2.3l2.6 6.5c.2.5.3.9.4 1.1.2-.5.3-.9.4-1.1l2.6-6.5h2.2v9.9h-.1zM189.7 134.1h-5.5v-9.8h5.3v1.4h-3.7v2.8h3.4v1.4h-3.4v2.9h3.9v1.3zM199.8 134.1H198l-4.7-7.2-.3-.6c0 .2.1.7.1 1.3v6.4h-1.6v-9.8h1.9l4.5 7c.2.3.3.5.4.6 0-.3-.1-.7-.1-1.3v-6.3h1.6v9.9zM208.5 125.7h-2.8v8.4h-1.6v-8.4h-2.8v-1.4h7.3v1.4h-.1zM220.1 125.7h-2.8v8.4h-1.6v-8.4h-2.8v-1.4h7.3v1.4h-.1zM223.2 134.1h-1.7v-9.8h1.7v9.8zM231.1 134.1h-5.5v-9.8h5.3v1.4h-3.7v2.8h3.4v1.4h-3.4v2.9h3.9v1.3zM240.4 134.1h-1.9l-1.6-2.6c-.1-.2-.3-.4-.4-.6-.1-.2-.3-.3-.4-.4-.1-.1-.3-.2-.5-.2s-.3-.1-.6-.1h-.7v4h-1.6v-9.8h3.2c.5 0 .9.1 1.3.2s.7.3 1 .5.5.5.7.8.2.7.2 1.2c0 .3-.1.7-.2 1s-.2.5-.4.8c-.2.2-.4.4-.7.6-.3.2-.6.3-.9.4.2.1.3.2.5.3.1.1.3.2.4.4s.2.3.4.4c.1.2.2.3.4.6l1.8 2.5zm-5.9-8.5v3.2h1.4c.3 0 .5 0 .7-.1l.6-.3c.2-.1.3-.3.4-.5s.1-.4.1-.7c0-.5-.1-.8-.4-1.1s-.7-.4-1.3-.4l-1.5-.1z"/><g fill="#FFF" stroke="#000" stroke-width="3" stroke-linecap="round" stroke-linejoin="round"><path d="M188.5 227.1c-5.3 32.8-36.1 55.1-68.9 49.9s-55.1-36.1-49.9-68.9c1.3-8.4 4.4-16.1 8.7-22.8 7.5-11.7 18.8-20.4 31.9-24.8 8.9-2.9 18.5-3.8 28.4-2.3 32.7 5.3 55.1 36.2 49.8 68.9z"/><path d="M177.8 225.4c-4.3 26.9-29.6 45.1-56.4 40.8s-45.1-29.6-40.8-56.4c1.1-6.9 3.6-13.2 7.1-18.7 6.1-9.6 15.4-16.7 26.1-20.3 7.3-2.4 15.2-3.1 23.2-1.8 26.8 4.3 45.1 29.6 40.8 56.4z"/></g><g><path d="M99.4 234.3v-3zM142.6 200.4l2.2-.8v-1.8l-2.2-.7-.5-1.3 1-2.1-1.3-1.3-2.1 1.1-1.3-.6-.8-2.2h-1.8l-.7 2.2-1.3.5-2.1-1-1.3 1.3.7 1.3.4.8-.5 1.3-1.5.5-.8.3v1.8l2.2.7.5 1.3-1 2.1 1.3 1.3 2.1-1.1 1.3.5.8 2.2h1.8l.7-2.2 1.2-.5 1.9.9.2.1 1.3-1.3-1.1-2.1.2-.6.5-.6zm-4.1.2c-.5.4-1.1.7-1.8.7-1.4 0-2.6-1.2-2.6-2.6 0-.2 0-.4.1-.6.3-1 1.1-1.7 2.1-1.9h.4c1.1 0 2 .7 2.4 1.7.1.3.2.6.2.9 0 .6-.3 1.3-.8 1.8zM162.7 210.3v-2.4l-2.9-1-.7-1.7 1.4-2.8-1.7-1.7-2.8 1.3-1.7-.7-1.1-3h-2.4l-1 3-1.7.7-2.8-1.3-1.7 1.7 1.4 2.8-.2.5-.5 1.1-1.5.5-1.5.5v2.4l1.9.6 1.1.4.7 1.7-1 2.1-.4.8 1.7 1.7 1.6-.8 1.2-.6 1.7.7 1.1 2.9h2.4l1-2.9 1.7-.7 2.8 1.3 1.7-1.7-1.4-2.7.7-1.7 2.9-1zm-10.7 2.3c-1.9 0-3.4-1.5-3.4-3.4s1.5-3.4 3.4-3.4 3.4 1.5 3.4 3.4-1.5 3.4-3.4 3.4zM111.7 219.1v11.5h15.4V217zM99.4 230.6h11.8v-11.5l-11.8 1.7zM111.7 233.5v9l15.4 2.1V231h-15.4zM99.4 231.3v9.5l11.8 1.6V231H99.4zM149.4 220.6c.3 1 .5 2 .5 3.1 0 5.5-4.2 9.7-9.8 9.7h-11.7v2.5h11.8c7 0 12.3-5.3 12.3-12.2 0-1.1-.2-2.2-.5-3.2l-2.6.1z"/><path d="M130.2 195.6l-.4-.7c-5 .3-9.4 3.1-11.9 7.5-1.9-1.6-4.3-2.5-6.9-2.5-5.9 0-10.6 4.9-10.6 11 0 .6.1 1.3.2 1.9-4.4 2-7 6.1-7 10.9 0 3.9 1.8 7.4 4.6 9.6v-3.5c-1.3-1.6-2.1-3.7-2.1-6.1 0-4.1 2.4-7.5 6.4-9 .6-.2.9-.9.8-1.5-.2-.8-.3-1.6-.3-2.4 0-4.7 3.6-8.4 8.1-8.4 2.5 0 4.8 1 6.2 2.9.3.4.7.5 1.2.5.4-.1.8-.4 1-.8 1.5-3.7 4.6-6.4 8.3-7.3l.2-.8 2-.7.2-.6z"/></g><g><path d="M48.4 312h-1.8l-.9-2.5h-3.9L41 312h-1.8l3.7-9.8h1.8l3.7 9.8zm-3.1-3.9l-1.4-3.9c0-.1-.1-.3-.1-.6 0 .3-.1.5-.1.6l-1.3 3.9h2.9zM56.7 302.9l-5.4 7.7h5.3v1.4H49v-.7l5.4-7.7h-5v-1.4h7.2l.1.7zM65.8 308c0 2.8-1.3 4.1-3.9 4.1-2.5 0-3.7-1.3-3.7-4v-6h1.6v5.7c0 1.9.7 2.9 2.2 2.9 1.4 0 2.2-.9 2.2-2.8v-5.8h1.6v5.9zM75.7 312h-1.9l-1.6-2.6c-.1-.2-.3-.4-.4-.6-.1-.2-.3-.3-.4-.4-.1-.1-.3-.2-.5-.2s-.3-.1-.6-.1h-.7v4H68v-9.8h3.2c.5 0 .9.1 1.3.2s.7.3 1 .5.5.5.7.8.2.7.2 1.2c0 .3-.1.7-.2 1-.1.3-.2.5-.4.8-.2.2-.4.4-.7.6s-.6.3-.9.4c.2.1.3.2.5.3.1.1.3.2.4.4s.2.3.4.4c.1.2.2.3.4.6l1.8 2.5zm-6-8.5v3.2h1.4c.3 0 .5 0 .7-.1l.6-.3c.2-.1.3-.3.4-.5s.1-.4.1-.7c0-.5-.1-.8-.4-1.1s-.7-.4-1.3-.4h-1.5v-.1zM82.3 312h-5.5v-9.8h5.3v1.4h-3.7v2.8h3.4v1.4h-3.4v2.9h3.9v1.3zM98.5 312h-1.6v-6.3c0-.5 0-1.2.1-1.9-.1.4-.2.7-.3.9l-2.9 7.3h-1.2l-2.9-7.3c-.1-.2-.2-.5-.3-1 0 .4.1 1 .1 1.9v6.3H88v-9.8h2.3l2.6 6.5c.2.5.3.9.4 1.1.2-.5.3-.9.4-1.1l2.6-6.5h2.2v9.9zM108.9 312h-1.8l-.9-2.5h-3.9l-.8 2.5h-1.8l3.7-9.8h1.8l3.7 9.8zm-3.1-3.9l-1.4-3.9c0-.1-.1-.3-.1-.6 0 .3-.1.5-.1.6l-1.3 3.9h2.9zM118.6 312h-1.8l-4.7-7.2-.3-.6c0 .2.1.7.1 1.3v6.4h-1.6V302h1.9l4.5 7c.2.3.3.5.4.6 0-.3-.1-.7-.1-1.3V302h1.6v10zM129.1 312h-1.8l-.9-2.5h-3.9l-.8 2.5h-1.8l3.7-9.8h1.8l3.7 9.8zm-3.1-3.9l-1.4-3.9c0-.1-.1-.3-.1-.6 0 .3-.1.5-.1.6l-1.3 3.9h2.9zM137.9 311.3c-1 .6-2.2.8-3.4.8-1.4 0-2.6-.5-3.5-1.4s-1.3-2.1-1.3-3.6.5-2.8 1.5-3.7c1-1 2.2-1.5 3.7-1.5 1.1 0 2 .2 2.7.5v1.7c-.8-.5-1.6-.8-2.7-.8-1 0-1.9.3-2.6 1-.7.7-1 1.6-1 2.7s.3 2 .9 2.7c.6.6 1.4 1 2.3 1 .7 0 1.3-.1 1.8-.4V308h-2.1v-1.4h3.7v4.7zM145.5 312H140v-9.8h5.3v1.4h-3.7v2.8h3.4v1.4h-3.4v2.9h3.9v1.3zM157.8 312h-1.6v-6.3c0-.5 0-1.2.1-1.9-.1.4-.2.7-.3.9l-2.9 7.3H152l-2.9-7.3c-.1-.2-.2-.5-.3-1 0 .4.1 1 .1 1.9v6.3h-1.5v-9.8h2.3l2.6 6.5c.2.5.3.9.4 1.1.2-.5.3-.9.4-1.1l2.6-6.5h2.2v9.9h-.1zM165.7 312h-5.5v-9.8h5.3v1.4h-3.7v2.8h3.4v1.4h-3.4v2.9h3.9v1.3zM175.7 312h-1.8l-4.7-7.2-.3-.6c0 .2.1.7.1 1.3v6.4h-1.6V302h1.9l4.5 7c.2.3.3.5.4.6 0-.3-.1-.7-.1-1.3V302h1.6v10zM184.5 303.6h-2.9v8.4H180v-8.4h-2.8v-1.4h7.3v1.4z"/></g><g><path d="M46.4 320.4h-2.8v8.4H42v-8.4h-2.8V319h7.3l-.1 1.4zM51.3 329c-1.4 0-2.5-.5-3.4-1.4-.8-.9-1.3-2.1-1.3-3.6 0-1.6.4-2.8 1.3-3.8s2-1.4 3.5-1.4c1.4 0 2.5.5 3.3 1.4s1.3 2.1 1.3 3.6c0 1.6-.4 2.9-1.3 3.8-.8.9-1.9 1.4-3.4 1.4zm.1-8.7c-.9 0-1.6.3-2.2 1s-.8 1.6-.8 2.6c0 1.1.3 2 .8 2.6s1.3 1 2.1 1c.9 0 1.7-.3 2.2-1 .5-.6.8-1.5.8-2.7s-.3-2.1-.8-2.7c-.5-.5-1.2-.8-2.1-.8zM61.9 329c-1.4 0-2.5-.5-3.4-1.4-.8-.9-1.3-2.1-1.3-3.6 0-1.6.4-2.8 1.3-3.8s2-1.4 3.5-1.4c1.4 0 2.5.5 3.3 1.4s1.3 2.1 1.3 3.6c0 1.6-.4 2.9-1.3 3.8s-2.1 1.4-3.4 1.4zm.1-8.7c-.9 0-1.6.3-2.2 1-.6.7-.8 1.6-.8 2.6 0 1.1.3 2 .8 2.6s1.3 1 2.1 1c.9 0 1.7-.3 2.2-1 .5-.7.8-1.5.8-2.7s-.3-2.1-.8-2.7c-.6-.5-1.2-.8-2.1-.8zM73.9 328.8h-5.4V319h1.6v8.4h3.8v1.4zM74.8 328.4v-1.7c.2.1.3.3.5.4s.4.2.7.3c.2.1.5.1.7.2s.4.1.6.1c.7 0 1.2-.1 1.5-.3.3-.2.5-.6.5-1 0-.2-.1-.4-.2-.6-.1-.2-.3-.3-.5-.5s-.4-.3-.7-.4-.6-.3-.9-.4c-.3-.2-.6-.4-.9-.5s-.5-.4-.7-.6-.4-.5-.5-.7c-.1-.3-.2-.6-.2-1 0-.5.1-.9.3-1.2.2-.3.5-.6.8-.8.3-.2.7-.4 1.2-.5.4-.1.9-.2 1.3-.2 1 0 1.8.1 2.2.3v1.6c-.6-.4-1.3-.6-2.1-.6-.2 0-.5 0-.7.1-.2 0-.5.1-.6.2-.2.1-.3.2-.5.4s-.2.4-.2.6 0 .4.1.6.2.3.4.4.4.3.6.4c.3.1.5.3.9.4.3.2.7.4 1 .6s.6.4.8.6.4.5.5.8.2.6.2 1c0 .5-.1.9-.3 1.3s-.5.6-.8.8c-.3.2-.7.4-1.2.5s-.9.1-1.4.1h-.6c-.2 0-.5-.1-.7-.1-.3 0-.5-.1-.7-.2s-.2-.3-.4-.4z"/></g><g><path d="M48.4 362.4h-1.8l-.9-2.5h-3.9l-.8 2.5h-1.8l3.7-9.8h1.8l3.7 9.8zm-3.1-3.8l-1.4-3.9c0-.1-.1-.3-.1-.6 0 .3-.1.5-.1.6l-1.3 3.9h2.9zM54.7 356.1l-3.8 5.1h3.8v1.2h-6v-.6l3.9-5.2h-3.5v-1.2h5.6v.7zM62.2 362.4h-1.6v-1.1c-.5.8-1.2 1.3-2.1 1.3-1.7 0-2.5-1-2.5-3v-4.2h1.6v4c0 1.3.5 1.9 1.5 1.9.5 0 .9-.2 1.2-.5s.5-.8.5-1.4v-4h1.6v7h-.2zM68.3 356.9c-.2-.2-.5-.2-.8-.2-.5 0-.9.2-1.2.6s-.5 1-.5 1.7v3.3h-1.6v-7h1.6v1.4c.2-.5.4-.9.7-1.2.3-.3.7-.4 1.1-.4.3 0 .5 0 .7.1v1.7zM75.2 359.3h-4.8c0 .6.2 1.1.6 1.5.4.4.9.5 1.6.5.7 0 1.4-.2 2.1-.7v1.3c-.6.4-1.5.6-2.5.6s-1.8-.3-2.4-1c-.6-.6-.9-1.5-.9-2.7 0-1.1.3-2 1-2.7.6-.7 1.4-1 2.4-1s1.7.3 2.2.9.8 1.5.8 2.6v.7h-.1zm-1.5-1.2c0-.6-.1-1-.4-1.3-.3-.3-.6-.5-1.1-.5s-.8.2-1.2.5c-.3.3-.5.8-.6 1.3h3.3zM91.3 362.4h-1.6v-6.3c0-.5 0-1.2.1-1.9-.1.4-.2.7-.3.9l-2.9 7.3h-1.2l-2.9-7.3c-.1-.2-.2-.5-.3-1 0 .4.1 1 .1 1.9v6.3h-1.5v-9.8h2.3l2.6 6.5c.2.5.3.9.4 1.1.2-.5.3-.9.4-1.1l2.6-6.5h2.2v9.9zM98.9 362.4h-1.5v-1.1c-.5.8-1.2 1.3-2.1 1.3-.7 0-1.2-.2-1.6-.6-.4-.4-.6-.9-.6-1.5 0-1.3.8-2.1 2.3-2.3l2.1-.3c0-1-.5-1.5-1.4-1.5-.8 0-1.6.3-2.3.9v-1.4c.7-.4 1.6-.7 2.6-.7 1.8 0 2.7.9 2.7 2.6v4.6h-.2zm-1.5-3.4l-1.5.2c-.5.1-.8.2-1 .3-.2.2-.3.4-.3.9 0 .3.1.5.3.7s.5.3.9.3c.5 0 .9-.2 1.2-.5s.5-.8.5-1.3l-.1-.6zM107.1 362.4h-1.6v-3.9c0-1.3-.5-2-1.4-2-.5 0-.9.2-1.2.5-.3.4-.5.8-.5 1.4v4h-1.6v-7h1.6v1.2c.5-.9 1.3-1.3 2.3-1.3.8 0 1.3.2 1.7.7s.6 1.2.6 2.1l.1 4.3zM114.4 362.4h-1.5v-1.1c-.5.8-1.2 1.3-2.1 1.3-.7 0-1.2-.2-1.6-.6-.4-.4-.6-.9-.6-1.5 0-1.3.8-2.1 2.3-2.3l2.1-.3c0-1-.5-1.5-1.4-1.5-.8 0-1.6.3-2.3.9v-1.4c.7-.4 1.6-.7 2.6-.7 1.8 0 2.7.9 2.7 2.6v4.6h-.2zm-1.6-3.4l-1.5.2c-.5.1-.8.2-1 .3-.2.2-.3.4-.3.9 0 .3.1.5.3.7s.5.3.9.3c.5 0 .9-.2 1.2-.5s.5-.8.5-1.3l-.1-.6zM122.7 361.8c0 2.6-1.3 3.9-3.9 3.9-.9 0-1.7-.2-2.4-.5v-1.4c.8.4 1.5.7 2.2.7 1.7 0 2.5-.8 2.5-2.5v-.8c-.5.9-1.3 1.3-2.4 1.3-.9 0-1.5-.3-2.1-.9-.5-.6-.8-1.5-.8-2.5 0-1.2.3-2.1.8-2.8s1.3-1.1 2.3-1.1c.9 0 1.6.4 2.1 1.1v-1h1.6l.1 6.5zm-1.6-2.7v-.9c0-.5-.2-.9-.5-1.3-.3-.3-.7-.5-1.2-.5-.6 0-1.1.2-1.4.7-.3.4-.5 1.1-.5 1.9 0 .7.2 1.2.5 1.7.3.4.8.6 1.3.6s1-.2 1.3-.6c.3-.4.5-.9.5-1.6zM130.7 359.3h-4.8c0 .6.2 1.1.6 1.5.4.4.9.5 1.6.5.7 0 1.4-.2 2.1-.7v1.3c-.6.4-1.5.6-2.5.6s-1.8-.3-2.4-1c-.6-.6-.9-1.5-.9-2.7 0-1.1.3-2 1-2.7.6-.7 1.4-1 2.4-1s1.7.3 2.2.9.8 1.5.8 2.6v.7h-.1zm-1.6-1.2c0-.6-.1-1-.4-1.3-.3-.3-.6-.5-1.1-.5s-.8.2-1.2.5c-.3.3-.5.8-.6 1.3h3.3zM142.7 362.4h-1.6v-3.8c0-.7-.1-1.3-.3-1.6-.2-.3-.6-.5-1-.5s-.8.2-1.1.6-.4.9-.4 1.5v3.8h-1.6v-3.9c0-1.3-.5-2-1.4-2-.4 0-.8.2-1.1.6s-.4.9-.4 1.5v3.8h-1.6v-7h1.6v1.1c.5-.8 1.2-1.3 2.2-1.3.5 0 .9.1 1.3.4.4.3.6.6.7 1 .5-1 1.3-1.4 2.3-1.4 1.5 0 2.3 1 2.3 2.9v4.3h.1zM150.5 359.3h-4.8c0 .6.2 1.1.6 1.5.4.4.9.5 1.6.5.7 0 1.4-.2 2.1-.7v1.3c-.6.4-1.5.6-2.5.6s-1.8-.3-2.4-1c-.6-.6-.9-1.5-.9-2.7 0-1.1.3-2 1-2.7.6-.7 1.4-1 2.4-1s1.7.3 2.2.9.8 1.5.8 2.6v.7h-.1zm-1.5-1.2c0-.6-.1-1-.4-1.3-.3-.3-.6-.5-1.1-.5s-.8.2-1.2.5c-.3.3-.5.8-.6 1.3h3.3zM158.3 362.4h-1.6v-3.9c0-1.3-.5-2-1.4-2-.5 0-.9.2-1.2.5-.3.4-.5.8-.5 1.4v4H152v-7h1.6v1.2c.5-.9 1.3-1.3 2.3-1.3.8 0 1.3.2 1.7.7s.6 1.2.6 2.1l.1 4.3zM163.9 362.3c-.3.2-.7.2-1.2.2-1.4 0-2-.7-2-2v-4h-1.2v-1.2h1.2v-1.6l1.6-.5v2.1h1.7v1.2h-1.7v3.5c0 .4.1.7.2.9s.4.3.8.3c.3 0 .5-.1.7-.2v1.3h-.1zM176.1 362c-.7.4-1.7.6-2.8.6-1.4 0-2.6-.4-3.4-1.3s-1.3-2.1-1.3-3.5c0-1.6.5-2.8 1.4-3.8 1-1 2.2-1.4 3.7-1.4.9 0 1.7.1 2.4.4v1.6c-.7-.4-1.4-.6-2.2-.6-1.1 0-1.9.3-2.6 1-.7.7-1 1.6-1 2.7s.3 1.9.9 2.6c.6.6 1.4 1 2.4 1 .9 0 1.7-.2 2.4-.7v1.4h.1zM180.9 362.6c-1.1 0-1.9-.3-2.6-1-.6-.7-1-1.5-1-2.6 0-1.2.3-2.1 1-2.8.7-.7 1.6-1 2.7-1s1.9.3 2.6 1 .9 1.5.9 2.7c0 1.1-.3 2-1 2.7-.6.5-1.5 1-2.6 1zm.1-6.1c-.6 0-1.1.2-1.5.6s-.5 1-.5 1.8c0 .7.2 1.3.5 1.7.4.4.9.6 1.5.6s1.1-.2 1.4-.6c.3-.4.5-1 .5-1.8s-.2-1.4-.5-1.8c-.3-.4-.8-.5-1.4-.5zM192.4 362.4h-1.6v-3.9c0-1.3-.5-2-1.4-2-.5 0-.9.2-1.2.5-.3.4-.5.8-.5 1.4v4H186v-7h1.6v1.2c.5-.9 1.3-1.3 2.3-1.3.8 0 1.3.2 1.7.7.4.5.6 1.2.6 2.1l.2 4.3zM193.9 362.1v-1.5c.6.5 1.2.7 2 .7 1 0 1.4-.3 1.4-.8 0-.2 0-.3-.1-.4l-.3-.3c-.1-.1-.3-.2-.5-.2-.2-.1-.4-.1-.6-.2-.3-.1-.5-.2-.8-.4-.2-.1-.4-.3-.6-.4-.2-.2-.3-.3-.3-.6s-.1-.4-.1-.7c0-.3.1-.6.2-.9.2-.3.4-.5.6-.7.3-.2.6-.3.9-.4s.7-.1 1.1-.1c.6 0 1.2.1 1.7.3v1.4c-.5-.3-1.1-.5-1.7-.5-.2 0-.4 0-.5.1-.2 0-.3.1-.4.2l-.3.3c-.1.1-.1.2-.1.3 0 .2 0 .3.1.4l.3.3c.1.1.3.2.5.2.2.1.4.1.6.2.3.1.6.2.8.4.2.1.4.3.6.4.2.2.3.3.4.6.1.2.1.5.1.8 0 .4-.1.7-.2.9s-.4.5-.7.7-.6.3-.9.4c-.4.1-.7.1-1.1.1-.9-.1-1.6-.3-2.1-.6zM203.5 362.6c-1.1 0-1.9-.3-2.6-1-.6-.7-1-1.5-1-2.6 0-1.2.3-2.1 1-2.8.7-.7 1.6-1 2.7-1s1.9.3 2.6 1 .9 1.5.9 2.7c0 1.1-.3 2-1 2.7-.6.5-1.5 1-2.6 1zm0-6.1c-.6 0-1.1.2-1.5.6s-.5 1-.5 1.8c0 .7.2 1.3.5 1.7.4.4.9.6 1.5.6s1.1-.2 1.4-.6.5-1 .5-1.8-.2-1.4-.5-1.8c-.3-.4-.8-.5-1.4-.5zM210.3 362.4h-1.6V352h1.6v10.4zM218.3 359.3h-4.8c0 .6.2 1.1.6 1.5s.9.5 1.6.5 1.4-.2 2.1-.7v1.3c-.6.4-1.5.6-2.5.6s-1.8-.3-2.4-1c-.6-.6-.9-1.5-.9-2.7 0-1.1.3-2 1-2.7.6-.7 1.4-1 2.4-1s1.7.3 2.2.9.8 1.5.8 2.6v.7h-.1zm-1.5-1.2c0-.6-.1-1-.4-1.3s-.6-.5-1.1-.5-.8.2-1.2.5c-.3.3-.5.8-.6 1.3h3.3zM221.3 360.8l-1.1 3.4H219l.8-3.4h1.5zM48.4 379.1h-1.8l-.9-2.5h-3.9l-.8 2.5h-1.8l3.7-9.8h1.8l3.7 9.8zm-3.1-3.7l-1.4-3.9c0-.1-.1-.3-.1-.6 0 .3-.1.5-.1.6l-1.3 3.9h2.9zM54.7 372.9l-3.8 5.1h3.8v1.2h-6v-.6l3.9-5.2h-3.5v-1.2h5.6v.7zM62.2 379.1h-1.6V378c-.5.8-1.2 1.3-2.1 1.3-1.7 0-2.5-1-2.5-3v-4.2h1.6v4c0 1.3.5 1.9 1.5 1.9.5 0 .9-.2 1.2-.5s.5-.8.5-1.4v-4h1.6v7h-.2zM68.3 373.6c-.2-.2-.5-.2-.8-.2-.5 0-.9.2-1.2.6s-.5 1-.5 1.7v3.3h-1.6v-7h1.6v1.4c.2-.5.4-.9.7-1.2.3-.3.7-.4 1.1-.4.3 0 .5 0 .7.1v1.7zM75.2 376.1h-4.8c0 .6.2 1.1.6 1.5.4.4.9.5 1.6.5.7 0 1.4-.2 2.1-.7v1.3c-.6.4-1.5.6-2.5.6s-1.8-.3-2.4-1c-.6-.6-.9-1.5-.9-2.7 0-1.1.3-2 1-2.7.6-.7 1.4-1 2.4-1s1.7.3 2.2.9.8 1.5.8 2.6v.7h-.1zm-1.5-1.1c0-.6-.1-1-.4-1.3-.3-.3-.6-.5-1.1-.5s-.8.2-1.2.5c-.3.3-.5.8-.6 1.3h3.3zM87.6 378.8c-.7.4-1.7.6-2.8.6-1.4 0-2.6-.4-3.4-1.3s-1.3-2.1-1.3-3.5c0-1.6.5-2.8 1.4-3.8 1-1 2.2-1.4 3.7-1.4.9 0 1.7.1 2.4.4v1.6c-.7-.4-1.4-.6-2.2-.6-1.1 0-1.9.3-2.6 1-.7.7-1 1.6-1 2.7s.3 1.9.9 2.6c.6.6 1.4 1 2.4 1 .9 0 1.7-.2 2.4-.7v1.4h.1zM94.9 379.1h-5.4v-9.8h1.6v8.4h3.8v1.4zM98 379.1h-1.7v-9.8H98v9.8zM101.7 377.6l-1.1 3.4h-1.2l.8-3.4h1.5zM109.2 375.6v3.6h-1.6v-9.8h3c1.1 0 2 .3 2.6.8s.9 1.3.9 2.2-.3 1.7-1 2.3-1.5.9-2.6.9h-1.3zm0-5v3.6h1.1c.7 0 1.2-.2 1.6-.5s.5-.8.5-1.4c0-1.2-.7-1.7-2-1.7h-1.2zM118.2 379.4c-1.1 0-1.9-.3-2.6-1-.6-.7-1-1.5-1-2.6 0-1.2.3-2.1 1-2.8.7-.7 1.6-1 2.7-1s1.9.3 2.6 1 .9 1.5.9 2.7c0 1.1-.3 2-1 2.7-.6.6-1.4 1-2.6 1zm.1-6.1c-.6 0-1.1.2-1.5.6s-.5 1-.5 1.8c0 .7.2 1.3.5 1.7.4.4.9.6 1.5.6s1.1-.2 1.4-.6c.3-.4.5-1 .5-1.8s-.2-1.4-.5-1.8c-.3-.3-.8-.5-1.4-.5zM132.9 372.1l-2.1 7h-1.7l-1.3-4.7c0-.2-.1-.4-.1-.6 0 .2 0 .4-.1.6l-1.4 4.8h-1.6l-2.1-7h1.6l1.3 5c0 .2.1.4.1.6 0-.2 0-.4.1-.6l1.4-5h1.5l1.3 5.1c0 .2.1.4.1.6 0-.2 0-.4.1-.6l1.2-5.1 1.7-.1zM140 376.1h-4.8c0 .6.2 1.1.6 1.5.4.4.9.5 1.6.5.7 0 1.4-.2 2.1-.7v1.3c-.6.4-1.5.6-2.5.6s-1.8-.3-2.4-1c-.6-.6-.9-1.5-.9-2.7 0-1.1.3-2 1-2.7.6-.7 1.4-1 2.4-1s1.7.3 2.2.9.8 1.5.8 2.6v.7h-.1zm-1.6-1.1c0-.6-.1-1-.4-1.3-.3-.3-.6-.5-1.1-.5s-.8.2-1.2.5c-.3.3-.5.8-.6 1.3h3.3zM145.5 373.6c-.2-.2-.5-.2-.8-.2-.5 0-.9.2-1.2.6s-.5 1-.5 1.7v3.3h-1.6v-7h1.6v1.4c.2-.5.4-.9.7-1.2.3-.3.7-.4 1.1-.4.3 0 .5 0 .7.1v1.7zM146.4 378.8V377c.2.1.3.3.5.4s.4.2.7.3c.2.1.5.1.7.2s.4.1.6.1c.7 0 1.2-.1 1.5-.3.3-.2.5-.6.5-1 0-.2-.1-.4-.2-.6-.1-.2-.3-.3-.5-.5s-.4-.3-.7-.4-.6-.3-.9-.4c-.3-.2-.6-.4-.9-.5s-.5-.4-.7-.6-.4-.5-.5-.7c-.1-.3-.2-.6-.2-1 0-.5.1-.9.3-1.2.2-.3.5-.6.8-.8.3-.2.7-.4 1.2-.5.4-.1.9-.2 1.3-.2 1 0 1.8.1 2.2.3v1.6c-.6-.4-1.3-.6-2.1-.6-.2 0-.5 0-.7.1-.2 0-.5.1-.6.2-.2.1-.3.2-.5.4s-.2.4-.2.6 0 .4.1.6.2.3.4.4.4.3.6.4c.3.1.5.3.9.4.3.2.7.4 1 .6s.6.4.8.6.4.5.5.8.2.6.2 1c0 .5-.1.9-.3 1.3s-.5.6-.8.8c-.3.2-.7.4-1.2.5s-.9.1-1.4.1h-.6c-.2 0-.5-.1-.7-.1-.3 0-.5-.1-.7-.2s-.3-.2-.4-.3zM160.5 379.1h-1.6v-3.8c0-1.4-.5-2.1-1.4-2.1-.5 0-.9.2-1.2.6s-.5.9-.5 1.5v3.8h-1.6v-10.4h1.6v4.5c.5-.9 1.3-1.3 2.3-1.3 1.6 0 2.3 1 2.3 2.9l.1 4.3zM168.3 376.1h-4.8c0 .6.2 1.1.6 1.5.4.4.9.5 1.6.5.7 0 1.4-.2 2.1-.7v1.3c-.6.4-1.5.6-2.5.6s-1.8-.3-2.4-1c-.6-.6-.9-1.5-.9-2.7 0-1.1.3-2 1-2.7.6-.7 1.4-1 2.4-1s1.7.3 2.2.9.8 1.5.8 2.6v.7h-.1zm-1.5-1.1c0-.6-.1-1-.4-1.3-.3-.3-.6-.5-1.1-.5s-.8.2-1.2.5c-.3.3-.5.8-.6 1.3h3.3zM171.4 379.1h-1.6v-10.4h1.6v10.4zM175.1 379.1h-1.6v-10.4h1.6v10.4z"/></g></svg>