<svg id="Layer_1" xmlns="http://www.w3.org/2000/svg" width="375" height="154" viewBox="0 0 375 154"><path d="M190.9 105.3c-.1-.2-.3-.3-.5-.4s-.4-.1-.7-.1-.5 0-.7.1-.4.2-.5.4c-.1.1-.2.3-.3.5s-.1.4-.1.6 0 .4.1.7.2.4.3.6.3.3.5.5c.2.1.4.2.7.2.2 0 .5 0 .6-.1.2-.1.3-.2.5-.4.1-.2.2-.3.3-.6s.1-.4.1-.7c0-.3 0-.5-.1-.7 0-.3-.1-.5-.2-.6z"/><path d="M189.5 92.9c-6.4 0-11.6 5.2-11.6 11.6s5.2 11.6 11.6 11.6 11.6-5.2 11.6-11.6-5.1-11.6-11.6-11.6zm3 14.8c-.2.4-.4.7-.6 1-.3.3-.6.5-.9.6s-.8.2-1.2.2c-.5 0-.9-.1-1.3-.3s-.7-.4-1-.8-.5-.8-.6-1.3-.2-1.1-.2-1.8c0-.8.1-1.6.3-2.2s.5-1.2.8-1.6.8-.8 1.2-1c.5-.2 1-.3 1.5-.3.3 0 .7 0 .9.1.3 0 .5.1.7.2v1.3c-.2-.1-.4-.2-.7-.3s-.5-.1-.8-.1c-.4 0-.7.1-1 .2s-.6.4-.8.6-.4.6-.5 1-.2.9-.2 1.4c.2-.3.5-.5.8-.7s.7-.3 1.2-.3c.4 0 .8.1 1.1.2s.6.3.8.6.4.5.5.9c.1.3.2.7.2 1.2 0 .4 0 .8-.2 1.2z"/><g fill="none" stroke="#dfdfde" stroke-width="4" stroke-linecap="round" stroke-linejoin="round" stroke-miterlimit="10"><path d="M189.4 70.5v-80.8"/><circle cx="189.4" cy="76" r="5"/></g><g><path d="M138.3 134.5h-1.6v-6.1c0-.5 0-1.1.1-1.8-.1.4-.2.7-.3.9l-2.8 7.1h-1.1l-2.8-7c-.1-.2-.2-.5-.3-.9 0 .4.1 1 .1 1.9v6.1h-1.5v-9.5h2.2l2.5 6.3c.2.5.3.8.4 1.1.2-.5.3-.9.4-1.1l2.5-6.3h2.1v9.3zM148.4 134.5h-1.7l-.9-2.4h-3.7l-.8 2.4h-1.7l3.5-9.5h1.8l3.5 9.5zm-3-3.7l-1.3-3.8c0-.1-.1-.3-.1-.6 0 .3-.1.4-.1.6l-1.3 3.8h2.8zM157.7 134.5H156l-4.5-6.9c-.1-.2-.2-.4-.3-.5 0 .2.1.6.1 1.3v6.2h-1.5v-9.5h1.8l4.4 6.8c.2.3.3.5.4.6 0-.3-.1-.7-.1-1.3v-6.1h1.5v9.4zM167.8 134.5h-1.7l-.9-2.4h-3.7l-.8 2.4H159l3.5-9.5h1.8l3.5 9.5zm-3-3.7l-1.3-3.8c0-.1-.1-.3-.1-.6 0 .3-.1.4-.1.6l-1.3 3.8h2.8zM176.3 133.9c-1 .5-2.1.8-3.3.8-1.4 0-2.5-.4-3.4-1.3-.9-.9-1.3-2-1.3-3.5s.5-2.7 1.4-3.6c.9-.9 2.1-1.4 3.6-1.4 1.1 0 1.9.2 2.6.5v1.6c-.7-.5-1.6-.7-2.6-.7s-1.8.3-2.5 1c-.6.7-1 1.5-1 2.6s.3 1.9.8 2.6 1.3.9 2.3.9c.7 0 1.2-.1 1.7-.4v-2.2h-2v-1.3h3.6v4.4zM183.7 134.5h-5.3V125h5.1v1.3H180v2.7h3.3v1.3H180v2.8h3.7v1.4zM195.5 134.5H194v-6.1c0-.5 0-1.1.1-1.8-.1.4-.2.7-.3.9l-2.8 7.1h-1.1l-2.8-7c-.1-.2-.2-.5-.3-.9 0 .4.1 1 .1 1.9v6.1h-1.5v-9.5h2.2l2.5 6.3c.2.5.3.8.4 1.1.2-.5.3-.9.4-1.1l2.5-6.3h2.1v9.3zM203.2 134.5h-5.3V125h5.1v1.3h-3.5v2.7h3.3v1.3h-3.3v2.8h3.7v1.4zM212.9 134.5h-1.7l-4.5-6.9c-.1-.2-.2-.4-.3-.5 0 .2.1.6.1 1.3v6.2H205v-9.5h1.8l4.4 6.8c.2.3.3.5.4.6 0-.3-.1-.7-.1-1.3v-6.1h1.5v9.4zM221.3 126.4h-2.7v8.1H217v-8.1h-2.7v-1.3h7v1.3zM232.4 126.4h-2.7v8.1h-1.6v-8.1h-2.7v-1.3h7v1.3zM235.4 134.5h-1.6V125h1.6v9.5zM243 134.5h-5.3V125h5.1v1.3h-3.5v2.7h3.3v1.3h-3.3v2.8h3.7v1.4zM252 134.5h-1.8l-1.5-2.5c-.1-.2-.3-.4-.4-.6s-.3-.3-.4-.4-.3-.2-.4-.2c-.2 0-.3-.1-.5-.1h-.6v3.8h-1.6V125h3.1c.4 0 .9.1 1.2.2.4.1.7.3 1 .5.3.2.5.5.6.8.2.3.2.7.2 1.1 0 .3 0 .6-.1.9-.1.3-.2.5-.4.7s-.4.4-.7.6c-.3.2-.5.3-.9.4.2.1.3.2.4.3l.4.4c.1.1.2.3.3.4s.2.3.4.5l1.7 2.7zm-5.7-8.1v3.1h1.3c.2 0 .5 0 .7-.1.2-.1.4-.2.5-.3.1-.1.3-.3.3-.5.1-.2.1-.4.1-.7 0-.5-.1-.8-.4-1.1-.3-.3-.7-.4-1.2-.4h-1.3z"/></g></svg>