<svg id="Layer_1" xmlns="http://www.w3.org/2000/svg" width="129.2" height="329.2" viewBox="0 0 129.2 329.2"><path fill="none" stroke="#dedede" stroke-width="4" stroke-linecap="round" stroke-linejoin="round" stroke-miterlimit="10" d="M21.5 6l1 266.2"/><path d="M49.9 323.7h-5.5v-9.8h5.3v1.4H46v2.8h3.4v1.4H46v2.9h3.9v1.3zM59.3 313.9l-3.5 9.8H54l-3.4-9.8h1.8l2.4 7.4c.1.2.1.5.2.8 0-.3.1-.5.2-.8l2.5-7.4h1.6zM66 323.7h-5.5v-9.8h5.3v1.4h-3.6v2.8h3.4v1.4h-3.4v2.9H66v1.3zM76 323.7h-1.8l-4.7-7.2-.3-.6c0 .2.1.7.1 1.3v6.4h-1.6v-9.8h1.9l4.5 7c.2.3.3.5.4.6 0-.3-.1-.7-.1-1.3v-6.3H76v9.9zM84.7 315.3h-2.8v8.4h-1.6v-8.4h-2.8v-1.4h7.2v1.4zM97.8 323.7h-1.6v-4.2h-4.6v4.2H90v-9.8h1.6v4.1h4.6v-4.1h1.6v9.8zM107.7 319.7c0 2.7-1.3 4.1-3.9 4.1-2.5 0-3.7-1.3-3.7-4v-6h1.6v5.6c0 1.9.7 2.9 2.2 2.9 1.4 0 2.1-.9 2.1-2.8v-5.7h1.6v5.9zM110 323.7v-9.8h3.1c.9 0 1.7.2 2.2.6.6.4.8.9.8 1.6 0 .6-.2 1-.5 1.4-.3.4-.7.7-1.3.9.7.1 1.2.3 1.6.7s.6 1 .6 1.6c0 .8-.3 1.5-1 2s-1.5.8-2.5.8h-3zm1.6-8.5v2.8h1c.6 0 1-.1 1.3-.4.3-.3.5-.6.5-1.1 0-.8-.6-1.3-1.7-1.3h-1.1zm0 4.1v3.1h1.4c.6 0 1.1-.1 1.4-.4.3-.3.5-.7.5-1.2 0-1-.7-1.5-2.1-1.5h-1.2zM118 323.3v-1.7c.1.1.3.3.5.4.2.1.4.2.7.3.2.1.5.1.7.2s.4.1.6.1c.7 0 1.2-.1 1.5-.3s.5-.6.5-1c0-.2-.1-.4-.2-.6s-.3-.3-.5-.5-.4-.3-.7-.4c-.3-.1-.6-.3-.9-.4-.3-.2-.6-.4-.9-.5-.3-.2-.5-.4-.7-.6-.2-.2-.4-.5-.5-.7-.1-.3-.2-.6-.2-1 0-.5.1-.9.3-1.2s.5-.6.8-.8c.3-.2.7-.4 1.2-.5.4-.1.9-.2 1.3-.2 1 0 1.8.1 2.2.3v1.6c-.6-.4-1.3-.6-2.1-.6-.2 0-.5 0-.7.1-.2 0-.5.1-.6.2-.2.1-.3.2-.5.4-.1.2-.2.4-.2.6 0 .2 0 .4.1.6.1.2.2.3.4.4.2.1.4.3.6.4.3.1.5.3.9.4.3.2.7.4 1 .6.3.2.6.4.8.6.2.2.4.5.5.8.1.3.2.6.2 1 0 .5-.1.9-.3 1.3-.2.3-.5.6-.8.8-.3.2-.7.4-1.2.5s-.9.1-1.4.1h-.6c-.2 0-.5-.1-.7-.1-.2 0-.5-.1-.7-.2-.1-.3-.3-.3-.4-.4z"/><g fill-rule="evenodd" clip-rule="evenodd"><path d="M88 265.2c0-.5-.4-.8-.8-.8h-6.3c-.5 0-.8.4-.8.8v4.6c0 .5.4.8.8.8h6.3c.5 0 .8-.4.8-.8v-4.6zM98.6 269.3h-6.3c-.5 0-.8.4-.8.8v4.6c0 .5.4.8.8.8h6.2c.5 0 .8-.4.8-.8h.1v-4.6c0-.5-.3-.8-.8-.8zM87.1 274.2h-6.3c-.5 0-.8.4-.8.8v4.6c0 .5.4.8.8.8h6.3c.5 0 .8-.4.8-.8V275c.1-.5-.3-.8-.8-.8zM76.7 260.1c0-.5-.4-.8-1-.8h-6.3c-.5 0-.8.4-.8.8v4.9c0 .5.4.8.8.8h6.4c.5 0 .8-.4.8-.8v-4.9z"/><path d="M64.5 259.4c.5 0 .8-.4.8-.8v-4h33.9v4c0 .5.4.8 1 .8h4.6c.5 0 .8-.4.8-.8V249c.1-.5-.2-.8-.7-.8H59.7c-.5 0-.8.4-.8.8v9.6c0 .5.4.8.8.8h4.8zM105 285.3h-4.6c-.5 0-.8.4-.8.8v3.9h-34v-4c0-.5-.4-.8-1-.8H60c-.5 0-.8.4-.8 1v9.5c0 .5.4.8.8.8h45.2c.5 0 .8-.4.8-.8v-9.5c-.2-.5-.5-.9-1-.9zM76.7 270c0-.5-.4-.8-.8-.8h-6.3c-.5 0-.8.4-.8.8v4.6c0 .5.4.8.8.8h6.3c.5 0 .8-.4.8-.8V270zM75.7 278.9h-6.3c-.5 0-.8.4-.8.8v4.6c0 .5.4.8.8.8h6.3c.5 0 .8-.4.8-.8v-4.6c.1-.4-.3-.8-.8-.8z"/></g><g fill="none" stroke="#dedede" stroke-width="4" stroke-linecap="round" stroke-linejoin="round" stroke-miterlimit="10"><path d="M22.5 272.2h11.9"/><circle cx="39.9" cy="272.2" r="5"/></g></svg>