<?xml version="1.0" encoding="utf-8"?>
<!-- Generator: Adobe Illustrator 19.2.0, SVG Export Plug-In . SVG Version: 6.00 Build 0)  -->
<svg version="1.1" id="Layer_1" xmlns="http://www.w3.org/2000/svg" xmlns:xlink="http://www.w3.org/1999/xlink" x="0px" y="0px"
	 width="369px" height="239.3px" viewBox="0 0 369 239.3" style="enable-background:new 0 0 369 239.3;" xml:space="preserve">
<g>
	<path style="fill-rule:evenodd;clip-rule:evenodd;" d="M194.7,152.1v-9h3v-6h-25.4v6h3v9L160.4,182l4.5,7.5h40.3l4.5-7.5
		L194.7,152.1L194.7,152.1L194.7,152.1z M182.7,159.6l-11.9,23.9H168l-1.6-1.5l14.9-28.4v-10.4h7.5v10.4l3,6H182.7L182.7,159.6
		L182.7,159.6z"/>
	<g>
		<path d="M165.2,210.1h-1.6v-6.3c0-0.5,0-1.1,0.1-1.9h0c-0.1,0.4-0.2,0.7-0.3,0.9l-2.9,7.3h-1.1l-2.9-7.2c-0.1-0.2-0.2-0.5-0.3-1h0
			c0,0.4,0.1,1,0.1,1.9v6.3h-1.5v-9.8h2.3l2.6,6.5c0.2,0.5,0.3,0.9,0.4,1.1h0c0.2-0.5,0.3-0.9,0.4-1.1l2.6-6.5h2.2V210.1z"/>
		<path d="M175.6,210.1h-1.8l-0.9-2.5h-3.8l-0.8,2.5h-1.8l3.7-9.8h1.8L175.6,210.1z M172.6,206.3l-1.4-3.9c0-0.1-0.1-0.3-0.1-0.6h0
			c0,0.3-0.1,0.5-0.1,0.6l-1.3,3.9H172.6z"/>
		<path d="M183.6,209.7c-0.7,0.4-1.6,0.6-2.7,0.6c-1.4,0-2.5-0.4-3.4-1.3c-0.9-0.9-1.3-2.1-1.3-3.5c0-1.6,0.5-2.8,1.4-3.8
			s2.2-1.4,3.6-1.4c0.9,0,1.7,0.1,2.3,0.4v1.6c-0.7-0.4-1.4-0.6-2.2-0.6c-1.1,0-1.9,0.3-2.6,1s-1,1.6-1,2.7c0,1.1,0.3,1.9,0.9,2.6
			c0.6,0.6,1.4,1,2.4,1c0.9,0,1.7-0.2,2.4-0.7V209.7z"/>
		<path d="M193.3,210.1h-1.6v-4.2H187v4.2h-1.6v-9.8h1.6v4.1h4.6v-4.1h1.6V210.1z"/>
		<path d="M197.3,210.1h-1.7v-9.8h1.7V210.1z"/>
		<path d="M208,210.1h-1.8l-4.7-7.2c-0.1-0.2-0.2-0.4-0.3-0.6h0c0,0.2,0.1,0.7,0.1,1.3v6.4h-1.6v-9.8h1.9l4.5,7
			c0.2,0.3,0.3,0.5,0.4,0.6h0c0-0.3-0.1-0.7-0.1-1.3v-6.3h1.6V210.1z"/>
		<path d="M215.9,210.1h-5.5v-9.8h5.3v1.4H212v2.8h3.4v1.4H212v2.9h3.9V210.1z"/>
		<path d="M157.9,226.8h-5.4V217h1.6v8.4h3.8V226.8z"/>
		<path d="M164.8,226.8h-5.5V217h5.3v1.4H161v2.8h3.4v1.4H161v2.9h3.9V226.8z"/>
		<path d="M174.7,226.8h-1.8l-0.9-2.5h-3.8l-0.8,2.5h-1.8l3.7-9.8h1.8L174.7,226.8z M171.6,223l-1.4-3.9c0-0.1-0.1-0.3-0.1-0.6h0
			c0,0.3-0.1,0.5-0.1,0.6l-1.3,3.9H171.6z"/>
		<path d="M183.6,226.8h-1.9l-1.6-2.6c-0.1-0.2-0.3-0.4-0.4-0.6c-0.1-0.2-0.3-0.3-0.4-0.4c-0.1-0.1-0.3-0.2-0.5-0.2
			s-0.3-0.1-0.6-0.1h-0.7v4H176V217h3.2c0.5,0,0.9,0.1,1.3,0.2c0.4,0.1,0.7,0.3,1,0.5c0.3,0.2,0.5,0.5,0.7,0.8
			c0.2,0.3,0.2,0.7,0.2,1.2c0,0.3-0.1,0.7-0.2,0.9c-0.1,0.3-0.2,0.5-0.4,0.8c-0.2,0.2-0.4,0.4-0.7,0.6c-0.3,0.2-0.6,0.3-0.9,0.4v0
			c0.2,0.1,0.3,0.2,0.5,0.3c0.1,0.1,0.3,0.2,0.4,0.4c0.1,0.1,0.2,0.3,0.3,0.4c0.1,0.2,0.2,0.3,0.4,0.6L183.6,226.8z M177.6,218.4
			v3.2h1.3c0.2,0,0.5,0,0.7-0.1s0.4-0.2,0.5-0.3c0.2-0.1,0.3-0.3,0.4-0.5c0.1-0.2,0.1-0.4,0.1-0.7c0-0.5-0.1-0.8-0.4-1.1
			s-0.7-0.4-1.3-0.4H177.6z"/>
		<path d="M193,226.8h-1.8l-4.7-7.2c-0.1-0.2-0.2-0.4-0.3-0.6h0c0,0.2,0.1,0.7,0.1,1.3v6.4h-1.6V217h1.9l4.5,7
			c0.2,0.3,0.3,0.5,0.4,0.6h0c0-0.3-0.1-0.7-0.1-1.3V217h1.6V226.8z"/>
		<path d="M197,226.8h-1.7V217h1.7V226.8z"/>
		<path d="M207.7,226.8h-1.8l-4.7-7.2c-0.1-0.2-0.2-0.4-0.3-0.6h0c0,0.2,0.1,0.7,0.1,1.3v6.4h-1.6V217h1.9l4.5,7
			c0.2,0.3,0.3,0.5,0.4,0.6h0c0-0.3-0.1-0.7-0.1-1.3V217h1.6V226.8z"/>
		<path d="M217.7,226.1c-1,0.6-2.1,0.8-3.4,0.8c-1.4,0-2.6-0.4-3.5-1.3c-0.9-0.9-1.3-2.1-1.3-3.6c0-1.5,0.5-2.7,1.5-3.7
			c1-1,2.2-1.5,3.7-1.5c1.1,0,2,0.2,2.7,0.5v1.7c-0.7-0.5-1.6-0.7-2.7-0.7c-1,0-1.9,0.3-2.6,1s-1,1.6-1,2.7c0,1.1,0.3,2,0.9,2.6
			s1.3,1,2.3,1c0.7,0,1.3-0.1,1.7-0.4v-2.3h-2.1v-1.4h3.7V226.1z"/>
	</g>
</g>
<g>
	
		<line style="fill:none;stroke:#DFDFDE;stroke-width:4;stroke-linecap:round;stroke-linejoin:round;stroke-miterlimit:10;" x1="8.9" y1="180" x2="9.9" y2="-86.2"/>
</g>
<g>
	
		<line style="fill:none;stroke:#DFDFDE;stroke-width:4;stroke-linecap:round;stroke-linejoin:round;stroke-miterlimit:10;" x1="123" y1="180" x2="8.9" y2="180"/>
	
		<circle style="fill:none;stroke:#DFDFDE;stroke-width:4;stroke-linecap:round;stroke-linejoin:round;stroke-miterlimit:10;" cx="128.5" cy="180" r="5"/>
</g>
</svg>
