<?xml version="1.0" encoding="utf-8"?>
<!-- Generator: Adobe Illustrator 19.2.0, SVG Export Plug-In . SVG Version: 6.00 Build 0)  -->
<svg version="1.1" id="Layer_1" xmlns="http://www.w3.org/2000/svg" xmlns:xlink="http://www.w3.org/1999/xlink" x="0px" y="0px"
	 width="260px" height="403px" viewBox="0 0 260 403" style="enable-background:new 0 0 260 403;" xml:space="preserve">
<g>
	
		<line style="fill:none;stroke:#DFDFDE;stroke-width:4;stroke-linecap:round;stroke-linejoin:round;stroke-miterlimit:10;" x1="127.7" y1="70.5" x2="127.7" y2="-10.3"/>
	
		<circle style="fill:none;stroke:#DFDFDE;stroke-width:4;stroke-linecap:round;stroke-linejoin:round;stroke-miterlimit:10;" cx="127.7" cy="76" r="5"/>
</g>
<g>
	<path d="M128.8,101.8c-0.1-0.2-0.3-0.3-0.5-0.4s-0.4-0.1-0.6-0.1c-0.2,0-0.4,0-0.6,0.1c-0.2,0.1-0.3,0.2-0.5,0.4s-0.2,0.3-0.3,0.6
		s-0.1,0.5-0.1,0.7c0,0.3,0,0.5,0.1,0.8c0.1,0.2,0.2,0.4,0.3,0.6s0.3,0.3,0.5,0.3c0.2,0.1,0.4,0.1,0.7,0.1c0.2,0,0.4,0,0.6-0.1
		s0.3-0.2,0.5-0.3c0.1-0.1,0.2-0.3,0.3-0.5s0.1-0.4,0.1-0.6c0-0.3,0-0.6-0.1-0.8C129,102.2,128.9,102,128.8,101.8z"/>
	<path d="M127.7,92.9c-6.4,0-11.6,5.2-11.6,11.6s5.2,11.6,11.6,11.6s11.6-5.2,11.6-11.6S134.1,92.9,127.7,92.9z M130.5,106.6
		c-0.2,0.7-0.5,1.2-0.8,1.6s-0.7,0.7-1.2,0.9c-0.5,0.2-1,0.3-1.5,0.3c-0.2,0-0.3,0-0.5,0s-0.3,0-0.5-0.1c-0.2,0-0.3-0.1-0.4-0.1
		s-0.2-0.1-0.3-0.1v-1.3c0.1,0.1,0.2,0.1,0.3,0.2s0.3,0.1,0.4,0.2c0.2,0,0.3,0.1,0.5,0.1s0.3,0,0.5,0c0.4,0,0.7-0.1,1-0.2
		s0.5-0.3,0.8-0.6c0.2-0.3,0.4-0.6,0.5-1s0.2-0.9,0.2-1.4l0,0c-0.1,0.1-0.2,0.3-0.3,0.4s-0.3,0.2-0.4,0.3s-0.3,0.2-0.5,0.2
		c-0.2,0.1-0.4,0.1-0.6,0.1c-0.4,0-0.7-0.1-1.1-0.2c-0.3-0.1-0.6-0.3-0.9-0.6c-0.2-0.2-0.4-0.5-0.6-0.9s-0.2-0.7-0.2-1.2
		s0.1-0.9,0.2-1.3c0.2-0.4,0.4-0.7,0.6-1c0.3-0.3,0.6-0.5,1-0.6s0.8-0.2,1.2-0.2s0.8,0.1,1.2,0.2s0.7,0.4,1,0.7
		c0.3,0.3,0.5,0.8,0.7,1.3s0.2,1.2,0.2,1.9C130.7,105.2,130.6,105.9,130.5,106.6z"/>
	<path style="fill:#FFFFFF;" d="M129.8,101c-0.3-0.3-0.6-0.6-1-0.7s-0.8-0.2-1.2-0.2s-0.8,0.1-1.2,0.2s-0.7,0.4-1,0.6
		c-0.3,0.3-0.5,0.6-0.6,1c-0.2,0.4-0.2,0.8-0.2,1.3c0,0.4,0.1,0.8,0.2,1.2s0.3,0.6,0.6,0.9c0.2,0.2,0.5,0.4,0.9,0.6
		c0.3,0.1,0.7,0.2,1.1,0.2c0.2,0,0.4,0,0.6-0.1c0.2-0.1,0.4-0.1,0.5-0.2s0.3-0.2,0.4-0.3c0.1-0.1,0.2-0.2,0.3-0.4l0,0
		c0,0.5-0.1,1-0.2,1.4s-0.3,0.8-0.5,1c-0.2,0.3-0.5,0.5-0.8,0.6s-0.6,0.2-1,0.2c-0.2,0-0.3,0-0.5,0s-0.3-0.1-0.5-0.1
		s-0.3-0.1-0.4-0.2c-0.1-0.1-0.2-0.1-0.3-0.2v1.3c0.1,0,0.2,0.1,0.3,0.1s0.3,0.1,0.4,0.1c0.2,0,0.3,0.1,0.5,0.1s0.3,0,0.5,0
		c0.5,0,1-0.1,1.5-0.3c0.5-0.2,0.9-0.5,1.2-0.9s0.6-1,0.8-1.6c0.2-0.7,0.3-1.4,0.3-2.3c0-0.8-0.1-1.4-0.2-1.9S130.1,101.4,129.8,101
		z M129.1,103.9c-0.1,0.2-0.2,0.3-0.3,0.5c-0.1,0.1-0.3,0.2-0.5,0.3s-0.4,0.1-0.6,0.1c-0.2,0-0.5,0-0.7-0.1s-0.4-0.2-0.5-0.3
		c-0.1-0.2-0.2-0.3-0.3-0.6c-0.1-0.2-0.1-0.5-0.1-0.8s0-0.5,0.1-0.7s0.2-0.4,0.3-0.6s0.3-0.3,0.5-0.4s0.4-0.1,0.6-0.1
		c0.2,0,0.4,0,0.6,0.1c0.2,0.1,0.4,0.2,0.5,0.4c0.1,0.2,0.2,0.4,0.3,0.6c0.1,0.3,0.1,0.5,0.1,0.8
		C129.2,103.5,129.2,103.7,129.1,103.9z"/>
</g>
<g>
	<path d="M19.7,134.2c-1.4,0-2.5-0.5-3.4-1.4s-1.3-2.1-1.3-3.6c0-1.6,0.4-2.8,1.3-3.8s2-1.4,3.5-1.4c1.4,0,2.5,0.5,3.3,1.4
		s1.3,2.1,1.3,3.6c0,1.6-0.4,2.9-1.3,3.8S21.1,134.2,19.7,134.2z M19.7,125.5c-0.9,0-1.6,0.3-2.2,1s-0.8,1.6-0.8,2.6
		c0,1.1,0.3,2,0.8,2.6s1.3,1,2.1,1c0.9,0,1.7-0.3,2.2-1s0.8-1.5,0.8-2.7s-0.3-2.1-0.8-2.7S20.7,125.5,19.7,125.5z"/>
	<path d="M27.8,130.5v3.6h-1.6v-9.8h3c1.1,0,2,0.3,2.6,0.8s0.9,1.3,0.9,2.2s-0.3,1.7-1,2.3s-1.5,0.9-2.6,0.9H27.8z M27.8,125.6v3.6
		h1.1c0.7,0,1.2-0.2,1.6-0.5s0.5-0.8,0.5-1.4c0-1.2-0.7-1.7-2-1.7H27.8z"/>
	<path d="M39.9,134.1h-5.5v-9.8h5.3v1.4H36v2.8h3.4v1.4H36v2.9h3.9V134.1z"/>
	<path d="M49.2,134.1h-1.9l-1.6-2.6c-0.1-0.2-0.3-0.4-0.4-0.6c-0.1-0.2-0.3-0.3-0.4-0.4s-0.3-0.2-0.5-0.2s-0.3-0.1-0.6-0.1h-0.7v4
		h-1.6v-9.8h3.2c0.5,0,0.9,0.1,1.3,0.2s0.7,0.3,1,0.5s0.5,0.5,0.7,0.8s0.2,0.7,0.2,1.2c0,0.3-0.1,0.7-0.2,1s-0.2,0.5-0.4,0.8
		c-0.2,0.2-0.4,0.4-0.7,0.6s-0.6,0.3-0.9,0.4l0,0c0.2,0.1,0.3,0.2,0.5,0.3c0.1,0.1,0.3,0.2,0.4,0.4s0.2,0.3,0.4,0.4
		c0.1,0.2,0.2,0.3,0.4,0.6L49.2,134.1z M43.3,125.6v3.2h1.4c0.3,0,0.5,0,0.7-0.1s0.4-0.2,0.6-0.3s0.3-0.3,0.4-0.5s0.1-0.4,0.1-0.7
		c0-0.5-0.1-0.8-0.4-1.1s-0.7-0.4-1.3-0.4L43.3,125.6L43.3,125.6z"/>
	<path d="M58.4,134.1h-1.8l-0.9-2.5h-3.9l-0.8,2.5h-1.8l3.7-9.8h1.8L58.4,134.1z M55.3,130.3l-1.4-3.9c0-0.1-0.1-0.3-0.1-0.6l0,0
		c0,0.3-0.1,0.5-0.1,0.6l-1.3,3.9H55.3z"/>
	<path d="M65,125.7h-2.8v8.4h-1.6v-8.4h-2.8v-1.4h7.3L65,125.7L65,125.7z"/>
	<path d="M68.2,134.1h-1.7v-9.8h1.7V134.1z"/>
	<path d="M74.6,134.2c-1.4,0-2.5-0.5-3.4-1.4s-1.3-2.1-1.3-3.6c0-1.6,0.4-2.8,1.3-3.8s2-1.4,3.5-1.4c1.4,0,2.5,0.5,3.3,1.4
		s1.3,2.1,1.3,3.6c0,1.6-0.4,2.9-1.3,3.8S76,134.2,74.6,134.2z M74.7,125.5c-0.9,0-1.6,0.3-2.2,1s-0.8,1.6-0.8,2.6
		c0,1.1,0.3,2,0.8,2.6s1.3,1,2.1,1c0.9,0,1.7-0.3,2.2-1s0.8-1.5,0.8-2.7s-0.3-2.1-0.8-2.7S75.6,125.5,74.7,125.5z"/>
	<path d="M89.5,134.1h-1.8l-4.7-7.2c-0.1-0.2-0.2-0.4-0.3-0.6l0,0c0,0.2,0.1,0.7,0.1,1.3v6.4h-1.6v-9.8h1.9l4.5,7
		c0.2,0.3,0.3,0.5,0.4,0.6l0,0c0-0.3-0.1-0.7-0.1-1.3v-6.3h1.6L89.5,134.1L89.5,134.1z"/>
	<path d="M99.9,134.1h-1.8l-0.9-2.5h-3.9l-0.8,2.5h-1.8l3.7-9.8h1.8L99.9,134.1z M96.8,130.3l-1.4-3.9c0-0.1-0.1-0.3-0.1-0.6l0,0
		c0,0.3-0.1,0.5-0.1,0.6l-1.3,3.9H96.8z"/>
	<path d="M106.7,134.1h-5.4v-9.8h1.6v8.4h3.8L106.7,134.1L106.7,134.1z"/>
	<path d="M122.5,134.1h-1.6v-6.3c0-0.5,0-1.2,0.1-1.9l0,0c-0.1,0.4-0.2,0.7-0.3,0.9l-2.9,7.3h-1.1l-2.9-7.3c-0.1-0.2-0.2-0.5-0.3-1
		l0,0c0,0.4,0.1,1,0.1,1.9v6.3H112v-9.8h2.3l2.6,6.5c0.2,0.5,0.3,0.9,0.4,1.1l0,0c0.2-0.5,0.3-0.9,0.4-1.1l2.6-6.5h2.2V134.1z"/>
	<path d="M133,134.1h-1.8l-0.9-2.5h-3.9l-0.8,2.5h-1.8l3.7-9.8h1.8L133,134.1z M129.9,130.3l-1.4-3.9c0-0.1-0.1-0.3-0.1-0.6l0,0
		c0,0.3-0.1,0.5-0.1,0.6l-1.3,3.9H129.9z"/>
	<path d="M142.6,134.1h-1.8l-4.7-7.2c-0.1-0.2-0.2-0.4-0.3-0.6l0,0c0,0.2,0.1,0.7,0.1,1.3v6.4h-1.6v-9.8h1.9l4.5,7
		c0.2,0.3,0.3,0.5,0.4,0.6l0,0c0-0.3-0.1-0.7-0.1-1.3v-6.3h1.6L142.6,134.1L142.6,134.1z"/>
	<path d="M153.1,134.1h-1.8l-0.9-2.5h-3.9l-0.8,2.5H144l3.7-9.8h1.8L153.1,134.1z M150,130.3l-1.4-3.9c0-0.1-0.1-0.3-0.1-0.6l0,0
		c0,0.3-0.1,0.5-0.1,0.6l-1.3,3.9H150z"/>
	<path d="M161.9,133.4c-1,0.6-2.2,0.8-3.4,0.8c-1.4,0-2.6-0.5-3.5-1.4s-1.3-2.1-1.3-3.6s0.5-2.8,1.5-3.7c1-1,2.2-1.5,3.7-1.5
		c1.1,0,2,0.2,2.7,0.5v1.7c-0.8-0.5-1.6-0.8-2.7-0.8c-1,0-1.9,0.3-2.6,1c-0.7,0.7-1,1.6-1,2.7c0,1.1,0.3,2,0.9,2.7
		c0.6,0.6,1.4,1,2.3,1c0.7,0,1.3-0.1,1.8-0.4v-2.3h-2.1v-1.4h3.7L161.9,133.4L161.9,133.4z"/>
	<path d="M169.6,134.1h-5.5v-9.8h5.3v1.4h-3.7v2.8h3.4v1.4h-3.4v2.9h3.9V134.1z"/>
	<path d="M181.8,134.1h-1.6v-6.3c0-0.5,0-1.2,0.1-1.9l0,0c-0.1,0.4-0.2,0.7-0.3,0.9l-2.9,7.3H176l-2.9-7.3c-0.1-0.2-0.2-0.5-0.3-1
		l0,0c0,0.4,0.1,1,0.1,1.9v6.3h-1.5v-9.8h2.3l2.6,6.5c0.2,0.5,0.3,0.9,0.4,1.1l0,0c0.2-0.5,0.3-0.9,0.4-1.1l2.6-6.5h2.2v9.9H181.8z"
		/>
	<path d="M189.7,134.1h-5.5v-9.8h5.3v1.4h-3.7v2.8h3.4v1.4h-3.4v2.9h3.9V134.1z"/>
	<path d="M199.8,134.1H198l-4.7-7.2c-0.1-0.2-0.2-0.4-0.3-0.6l0,0c0,0.2,0.1,0.7,0.1,1.3v6.4h-1.6v-9.8h1.9l4.5,7
		c0.2,0.3,0.3,0.5,0.4,0.6l0,0c0-0.3-0.1-0.7-0.1-1.3v-6.3h1.6V134.1z"/>
	<path d="M208.5,125.7h-2.8v8.4h-1.6v-8.4h-2.8v-1.4h7.3v1.4H208.5z"/>
	<path d="M220.1,125.7h-2.8v8.4h-1.6v-8.4h-2.8v-1.4h7.3v1.4H220.1z"/>
	<path d="M223.2,134.1h-1.7v-9.8h1.7V134.1z"/>
	<path d="M231.1,134.1h-5.5v-9.8h5.3v1.4h-3.7v2.8h3.4v1.4h-3.4v2.9h3.9L231.1,134.1L231.1,134.1z"/>
	<path d="M240.4,134.1h-1.9l-1.6-2.6c-0.1-0.2-0.3-0.4-0.4-0.6c-0.1-0.2-0.3-0.3-0.4-0.4c-0.1-0.1-0.3-0.2-0.5-0.2s-0.3-0.1-0.6-0.1
		h-0.7v4h-1.6v-9.8h3.2c0.5,0,0.9,0.1,1.3,0.2s0.7,0.3,1,0.5s0.5,0.5,0.7,0.8s0.2,0.7,0.2,1.2c0,0.3-0.1,0.7-0.2,1s-0.2,0.5-0.4,0.8
		c-0.2,0.2-0.4,0.4-0.7,0.6c-0.3,0.2-0.6,0.3-0.9,0.4l0,0c0.2,0.1,0.3,0.2,0.5,0.3c0.1,0.1,0.3,0.2,0.4,0.4s0.2,0.3,0.4,0.4
		c0.1,0.2,0.2,0.3,0.4,0.6L240.4,134.1z M234.5,125.6v3.2h1.4c0.3,0,0.5,0,0.7-0.1s0.4-0.2,0.6-0.3s0.3-0.3,0.4-0.5s0.1-0.4,0.1-0.7
		c0-0.5-0.1-0.8-0.4-1.1s-0.7-0.4-1.3-0.4L234.5,125.6L234.5,125.6z"/>
</g>
<g>
	<path style="fill:#FFFFFF;stroke:#000000;stroke-width:3;stroke-linecap:round;stroke-linejoin:round;" d="M188.5,227.1
		c-5.3,32.8-36.1,55.1-68.9,49.9s-55.1-36.1-49.9-68.9c1.3-8.4,4.4-16.1,8.7-22.8c7.5-11.7,18.8-20.4,31.9-24.8
		c8.9-2.9,18.5-3.8,28.4-2.3C171.4,163.5,193.8,194.4,188.5,227.1z"/>
	<path style="fill:#FFFFFF;stroke:#000000;stroke-width:3;stroke-linecap:round;stroke-linejoin:round;" d="M177.8,225.4
		c-4.3,26.9-29.6,45.1-56.4,40.8s-45.1-29.6-40.8-56.4c1.1-6.9,3.6-13.2,7.1-18.7c6.1-9.6,15.4-16.7,26.1-20.3
		c7.3-2.4,15.2-3.1,23.2-1.8C163.8,173.3,182.1,198.6,177.8,225.4z"/>
</g>
<g>
	<path d="M150.8,219.9"/>
	<polygon points="99.4,234.3 99.4,231.3 99.4,231.3 	"/>
	<path d="M142.6,200.4l2.2-0.8v-1.8l-2.2-0.7l-0.5-1.3l1-2.1l-1.3-1.3l-2.1,1.1l-1.3-0.6l-0.8-2.2h-1.8l-0.7,2.2l-1.3,0.5l-2.1-1
		l-1.3,1.3l0.7,1.3l0.4,0.8l-0.5,1.3l-1.5,0.5l-0.8,0.3v1.8l2.2,0.7l0.5,1.3l-1,2.1l1.3,1.3l2.1-1.1l1.3,0.5l0.8,2.2h1.8l0.7-2.2
		l1.2-0.5l1.9,0.9l0.2,0.1l1.3-1.3l-1.1-2.1l0.2-0.6L142.6,200.4z M138.5,200.6c-0.5,0.4-1.1,0.7-1.8,0.7c-1.4,0-2.6-1.2-2.6-2.6
		c0-0.2,0-0.4,0.1-0.6c0.3-1,1.1-1.7,2.1-1.9c0.1,0,0.3,0,0.4,0c1.1,0,2,0.7,2.4,1.7c0.1,0.3,0.2,0.6,0.2,0.9
		C139.3,199.4,139,200.1,138.5,200.6z"/>
	<path d="M162.7,210.3v-2.4l-2.9-1l-0.7-1.7l1.4-2.8l-1.7-1.7L156,202l-1.7-0.7l-1.1-3h-2.4l-1,3l-1.7,0.7l-2.8-1.3l-1.7,1.7
		l1.4,2.8l-0.2,0.5l-0.5,1.1l-1.5,0.5l-1.5,0.5v2.4l1.9,0.6l1.1,0.4l0.7,1.7l-1,2.1l-0.4,0.8l1.7,1.7l1.6-0.8l1.2-0.6l1.7,0.7
		l1.1,2.9h0.9h1.5l1-2.9l1.7-0.7l2.8,1.3l1.7-1.7l-1.4-2.7l0.7-1.7L162.7,210.3z M152,212.6c-1.9,0-3.4-1.5-3.4-3.4s1.5-3.4,3.4-3.4
		s3.4,1.5,3.4,3.4S153.9,212.6,152,212.6z"/>
	<polygon points="111.7,219.1 111.7,230.6 127.1,230.6 127.1,217 	"/>
	<polygon points="99.4,230.6 111.2,230.6 111.2,219.1 99.4,220.8 	"/>
	<polygon points="111.7,233.5 111.7,236.1 111.7,242.5 127.1,244.6 127.1,236.1 127.1,233.5 127.1,231 111.7,231 	"/>
	<polygon points="99.4,231.3 99.4,234.3 99.4,240.8 111.2,242.4 111.2,236.1 111.2,233.5 111.2,231 99.4,231 	"/>
	<path d="M149.4,220.6c0.3,1,0.5,2,0.5,3.1c0,5.5-4.2,9.7-9.8,9.7h-11.7v2.5h11.8c7,0,12.3-5.3,12.3-12.2c0-1.1-0.2-2.2-0.5-3.2
		L149.4,220.6z"/>
	<path d="M130.2,195.6l-0.4-0.7c-5,0.3-9.4,3.1-11.9,7.5c-1.9-1.6-4.3-2.5-6.9-2.5c-5.9,0-10.6,4.9-10.6,11c0,0.6,0.1,1.3,0.2,1.9
		c-4.4,2-7,6.1-7,10.9c0,3.9,1.8,7.4,4.6,9.6v-3.5c-1.3-1.6-2.1-3.7-2.1-6.1c0-4.1,2.4-7.5,6.4-9c0.6-0.2,0.9-0.9,0.8-1.5
		c-0.2-0.8-0.3-1.6-0.3-2.4c0-4.7,3.6-8.4,8.1-8.4c2.5,0,4.8,1,6.2,2.9c0.3,0.4,0.7,0.5,1.2,0.5c0.4-0.1,0.8-0.4,1-0.8
		c1.5-3.7,4.6-6.4,8.3-7.3l0.2-0.8l2-0.7L130.2,195.6z"/>
</g>
<g>
	<path d="M48.4,312h-1.8l-0.9-2.5h-3.9l-0.8,2.5h-1.8l3.7-9.8h1.8L48.4,312z M45.3,308.1l-1.4-3.9c0-0.1-0.1-0.3-0.1-0.6l0,0
		c0,0.3-0.1,0.5-0.1,0.6l-1.3,3.9H45.3z"/>
	<path d="M56.7,302.9l-5.4,7.7h5.3v1.4H49v-0.7l5.4-7.7h-5v-1.4h7.2L56.7,302.9L56.7,302.9z"/>
	<path d="M65.8,308c0,2.8-1.3,4.1-3.9,4.1c-2.5,0-3.7-1.3-3.7-4v-6h1.6v5.7c0,1.9,0.7,2.9,2.2,2.9c1.4,0,2.2-0.9,2.2-2.8v-5.8h1.6
		L65.8,308L65.8,308z"/>
	<path d="M75.7,312h-1.9l-1.6-2.6c-0.1-0.2-0.3-0.4-0.4-0.6c-0.1-0.2-0.3-0.3-0.4-0.4c-0.1-0.1-0.3-0.2-0.5-0.2s-0.3-0.1-0.6-0.1
		h-0.7v4H68v-9.8h3.2c0.5,0,0.9,0.1,1.3,0.2s0.7,0.3,1,0.5s0.5,0.5,0.7,0.8s0.2,0.7,0.2,1.2c0,0.3-0.1,0.7-0.2,1
		c-0.1,0.3-0.2,0.5-0.4,0.8c-0.2,0.2-0.4,0.4-0.7,0.6s-0.6,0.3-0.9,0.4l0,0c0.2,0.1,0.3,0.2,0.5,0.3c0.1,0.1,0.3,0.2,0.4,0.4
		s0.2,0.3,0.4,0.4c0.1,0.2,0.2,0.3,0.4,0.6L75.7,312z M69.7,303.5v3.2h1.4c0.3,0,0.5,0,0.7-0.1s0.4-0.2,0.6-0.3s0.3-0.3,0.4-0.5
		s0.1-0.4,0.1-0.7c0-0.5-0.1-0.8-0.4-1.1s-0.7-0.4-1.3-0.4h-1.5V303.5z"/>
	<path d="M82.3,312h-5.5v-9.8h5.3v1.4h-3.7v2.8h3.4v1.4h-3.4v2.9h3.9V312z"/>
	<path d="M98.5,312h-1.6v-6.3c0-0.5,0-1.2,0.1-1.9l0,0c-0.1,0.4-0.2,0.7-0.3,0.9l-2.9,7.3h-1.2l-2.9-7.3c-0.1-0.2-0.2-0.5-0.3-1l0,0
		c0,0.4,0.1,1,0.1,1.9v6.3H88v-9.8h2.3l2.6,6.5c0.2,0.5,0.3,0.9,0.4,1.1l0,0c0.2-0.5,0.3-0.9,0.4-1.1l2.6-6.5h2.2L98.5,312L98.5,312
		z"/>
	<path d="M108.9,312h-1.8l-0.9-2.5h-3.9l-0.8,2.5h-1.8l3.7-9.8h1.8L108.9,312z M105.8,308.1l-1.4-3.9c0-0.1-0.1-0.3-0.1-0.6l0,0
		c0,0.3-0.1,0.5-0.1,0.6l-1.3,3.9H105.8z"/>
	<path d="M118.6,312h-1.8l-4.7-7.2c-0.1-0.2-0.2-0.4-0.3-0.6l0,0c0,0.2,0.1,0.7,0.1,1.3v6.4h-1.6V302h1.9l4.5,7
		c0.2,0.3,0.3,0.5,0.4,0.6l0,0c0-0.3-0.1-0.7-0.1-1.3v-6.3h1.6L118.6,312L118.6,312z"/>
	<path d="M129.1,312h-1.8l-0.9-2.5h-3.9l-0.8,2.5h-1.8l3.7-9.8h1.8L129.1,312z M126,308.1l-1.4-3.9c0-0.1-0.1-0.3-0.1-0.6l0,0
		c0,0.3-0.1,0.5-0.1,0.6l-1.3,3.9H126z"/>
	<path d="M137.9,311.3c-1,0.6-2.2,0.8-3.4,0.8c-1.4,0-2.6-0.5-3.5-1.4s-1.3-2.1-1.3-3.6s0.5-2.8,1.5-3.7c1-1,2.2-1.5,3.7-1.5
		c1.1,0,2,0.2,2.7,0.5v1.7c-0.8-0.5-1.6-0.8-2.7-0.8c-1,0-1.9,0.3-2.6,1c-0.7,0.7-1,1.6-1,2.7s0.3,2,0.9,2.7c0.6,0.6,1.4,1,2.3,1
		c0.7,0,1.3-0.1,1.8-0.4V308h-2.1v-1.4h3.7L137.9,311.3L137.9,311.3z"/>
	<path d="M145.5,312H140v-9.8h5.3v1.4h-3.7v2.8h3.4v1.4h-3.4v2.9h3.9V312z"/>
	<path d="M157.8,312h-1.6v-6.3c0-0.5,0-1.2,0.1-1.9l0,0c-0.1,0.4-0.2,0.7-0.3,0.9l-2.9,7.3h-1.1l-2.9-7.3c-0.1-0.2-0.2-0.5-0.3-1
		l0,0c0,0.4,0.1,1,0.1,1.9v6.3h-1.5v-9.8h2.3l2.6,6.5c0.2,0.5,0.3,0.9,0.4,1.1l0,0c0.2-0.5,0.3-0.9,0.4-1.1l2.6-6.5h2.2v9.9H157.8z"
		/>
	<path d="M165.7,312h-5.5v-9.8h5.3v1.4h-3.7v2.8h3.4v1.4h-3.4v2.9h3.9V312z"/>
	<path d="M175.7,312h-1.8l-4.7-7.2c-0.1-0.2-0.2-0.4-0.3-0.6l0,0c0,0.2,0.1,0.7,0.1,1.3v6.4h-1.6V302h1.9l4.5,7
		c0.2,0.3,0.3,0.5,0.4,0.6l0,0c0-0.3-0.1-0.7-0.1-1.3v-6.3h1.6L175.7,312L175.7,312z"/>
	<path d="M184.5,303.6h-2.9v8.4H180v-8.4h-2.8v-1.4h7.3V303.6z"/>
</g>
<g>
	<path d="M46.4,320.4h-2.8v8.4H42v-8.4h-2.8V319h7.3L46.4,320.4L46.4,320.4z"/>
	<path d="M51.3,329c-1.4,0-2.5-0.5-3.4-1.4c-0.8-0.9-1.3-2.1-1.3-3.6c0-1.6,0.4-2.8,1.3-3.8s2-1.4,3.5-1.4c1.4,0,2.5,0.5,3.3,1.4
		s1.3,2.1,1.3,3.6c0,1.6-0.4,2.9-1.3,3.8C53.9,328.5,52.8,329,51.3,329z M51.4,320.3c-0.9,0-1.6,0.3-2.2,1s-0.8,1.6-0.8,2.6
		c0,1.1,0.3,2,0.8,2.6s1.3,1,2.1,1c0.9,0,1.7-0.3,2.2-1c0.5-0.6,0.8-1.5,0.8-2.7s-0.3-2.1-0.8-2.7C53,320.6,52.3,320.3,51.4,320.3z"
		/>
	<path d="M61.9,329c-1.4,0-2.5-0.5-3.4-1.4c-0.8-0.9-1.3-2.1-1.3-3.6c0-1.6,0.4-2.8,1.3-3.8s2-1.4,3.5-1.4c1.4,0,2.5,0.5,3.3,1.4
		s1.3,2.1,1.3,3.6c0,1.6-0.4,2.9-1.3,3.8S63.2,329,61.9,329z M62,320.3c-0.9,0-1.6,0.3-2.2,1c-0.6,0.7-0.8,1.6-0.8,2.6
		c0,1.1,0.3,2,0.8,2.6s1.3,1,2.1,1c0.9,0,1.7-0.3,2.2-1c0.5-0.7,0.8-1.5,0.8-2.7s-0.3-2.1-0.8-2.7C63.5,320.6,62.9,320.3,62,320.3z"
		/>
	<path d="M73.9,328.8h-5.4V319h1.6v8.4h3.8L73.9,328.8L73.9,328.8z"/>
	<path d="M74.8,328.4v-1.7c0.2,0.1,0.3,0.3,0.5,0.4s0.4,0.2,0.7,0.3c0.2,0.1,0.5,0.1,0.7,0.2s0.4,0.1,0.6,0.1c0.7,0,1.2-0.1,1.5-0.3
		c0.3-0.2,0.5-0.6,0.5-1c0-0.2-0.1-0.4-0.2-0.6c-0.1-0.2-0.3-0.3-0.5-0.5s-0.4-0.3-0.7-0.4s-0.6-0.3-0.9-0.4
		c-0.3-0.2-0.6-0.4-0.9-0.5s-0.5-0.4-0.7-0.6s-0.4-0.5-0.5-0.7c-0.1-0.3-0.2-0.6-0.2-1c0-0.5,0.1-0.9,0.3-1.2
		c0.2-0.3,0.5-0.6,0.8-0.8c0.3-0.2,0.7-0.4,1.2-0.5c0.4-0.1,0.9-0.2,1.3-0.2c1,0,1.8,0.1,2.2,0.3v1.6c-0.6-0.4-1.3-0.6-2.1-0.6
		c-0.2,0-0.5,0-0.7,0.1c-0.2,0-0.5,0.1-0.6,0.2c-0.2,0.1-0.3,0.2-0.5,0.4s-0.2,0.4-0.2,0.6s0,0.4,0.1,0.6s0.2,0.3,0.4,0.4
		s0.4,0.3,0.6,0.4c0.3,0.1,0.5,0.3,0.9,0.4c0.3,0.2,0.7,0.4,1,0.6s0.6,0.4,0.8,0.6s0.4,0.5,0.5,0.8s0.2,0.6,0.2,1
		c0,0.5-0.1,0.9-0.3,1.3s-0.5,0.6-0.8,0.8c-0.3,0.2-0.7,0.4-1.2,0.5s-0.9,0.1-1.4,0.1c-0.2,0-0.4,0-0.6,0c-0.2,0-0.5-0.1-0.7-0.1
		c-0.3,0-0.5-0.1-0.7-0.2S75,328.5,74.8,328.4z"/>
</g>
<g>
	<path d="M48.4,362.4h-1.8l-0.9-2.5h-3.9l-0.8,2.5h-1.8l3.7-9.8h1.8L48.4,362.4z M45.3,358.6l-1.4-3.9c0-0.1-0.1-0.3-0.1-0.6l0,0
		c0,0.3-0.1,0.5-0.1,0.6l-1.3,3.9H45.3z"/>
	<path d="M54.7,356.1l-3.8,5.1h3.8v1.2h-6v-0.6l3.9-5.2h-3.5v-1.2h5.6V356.1z"/>
	<path d="M62.2,362.4h-1.6v-1.1l0,0c-0.5,0.8-1.2,1.3-2.1,1.3c-1.7,0-2.5-1-2.5-3v-4.2h1.6v4c0,1.3,0.5,1.9,1.5,1.9
		c0.5,0,0.9-0.2,1.2-0.5s0.5-0.8,0.5-1.4v-4h1.6v7L62.2,362.4L62.2,362.4z"/>
	<path d="M68.3,356.9c-0.2-0.2-0.5-0.2-0.8-0.2c-0.5,0-0.9,0.2-1.2,0.6s-0.5,1-0.5,1.7v3.3h-1.6v-7h1.6v1.4l0,0
		c0.2-0.5,0.4-0.9,0.7-1.2c0.3-0.3,0.7-0.4,1.1-0.4c0.3,0,0.5,0,0.7,0.1V356.9z"/>
	<path d="M75.2,359.3h-4.8c0,0.6,0.2,1.1,0.6,1.5c0.4,0.4,0.9,0.5,1.6,0.5c0.7,0,1.4-0.2,2.1-0.7v1.3c-0.6,0.4-1.5,0.6-2.5,0.6
		s-1.8-0.3-2.4-1c-0.6-0.6-0.9-1.5-0.9-2.7c0-1.1,0.3-2,1-2.7c0.6-0.7,1.4-1,2.4-1s1.7,0.3,2.2,0.9s0.8,1.5,0.8,2.6v0.7L75.2,359.3
		L75.2,359.3z M73.7,358.1c0-0.6-0.1-1-0.4-1.3c-0.3-0.3-0.6-0.5-1.1-0.5s-0.8,0.2-1.2,0.5c-0.3,0.3-0.5,0.8-0.6,1.3H73.7z"/>
	<path d="M91.3,362.4h-1.6v-6.3c0-0.5,0-1.2,0.1-1.9l0,0c-0.1,0.4-0.2,0.7-0.3,0.9l-2.9,7.3h-1.2l-2.9-7.3c-0.1-0.2-0.2-0.5-0.3-1
		l0,0c0,0.4,0.1,1,0.1,1.9v6.3h-1.5v-9.8h2.3l2.6,6.5c0.2,0.5,0.3,0.9,0.4,1.1l0,0c0.2-0.5,0.3-0.9,0.4-1.1l2.6-6.5h2.2L91.3,362.4
		L91.3,362.4z"/>
	<path d="M98.9,362.4h-1.5v-1.1l0,0c-0.5,0.8-1.2,1.3-2.1,1.3c-0.7,0-1.2-0.2-1.6-0.6c-0.4-0.4-0.6-0.9-0.6-1.5
		c0-1.3,0.8-2.1,2.3-2.3l2.1-0.3c0-1-0.5-1.5-1.4-1.5c-0.8,0-1.6,0.3-2.3,0.9v-1.4c0.7-0.4,1.6-0.7,2.6-0.7c1.8,0,2.7,0.9,2.7,2.6
		v4.6H98.9z M97.4,359l-1.5,0.2c-0.5,0.1-0.8,0.2-1,0.3c-0.2,0.2-0.3,0.4-0.3,0.9c0,0.3,0.1,0.5,0.3,0.7s0.5,0.3,0.9,0.3
		c0.5,0,0.9-0.2,1.2-0.5s0.5-0.8,0.5-1.3L97.4,359L97.4,359z"/>
	<path d="M107.1,362.4h-1.6v-3.9c0-1.3-0.5-2-1.4-2c-0.5,0-0.9,0.2-1.2,0.5c-0.3,0.4-0.5,0.8-0.5,1.4v4h-1.6v-7h1.6v1.2l0,0
		c0.5-0.9,1.3-1.3,2.3-1.3c0.8,0,1.3,0.2,1.7,0.7s0.6,1.2,0.6,2.1L107.1,362.4L107.1,362.4z"/>
	<path d="M114.4,362.4h-1.5v-1.1l0,0c-0.5,0.8-1.2,1.3-2.1,1.3c-0.7,0-1.2-0.2-1.6-0.6c-0.4-0.4-0.6-0.9-0.6-1.5
		c0-1.3,0.8-2.1,2.3-2.3l2.1-0.3c0-1-0.5-1.5-1.4-1.5c-0.8,0-1.6,0.3-2.3,0.9v-1.4c0.7-0.4,1.6-0.7,2.6-0.7c1.8,0,2.7,0.9,2.7,2.6
		v4.6H114.4z M112.8,359l-1.5,0.2c-0.5,0.1-0.8,0.2-1,0.3c-0.2,0.2-0.3,0.4-0.3,0.9c0,0.3,0.1,0.5,0.3,0.7s0.5,0.3,0.9,0.3
		c0.5,0,0.9-0.2,1.2-0.5s0.5-0.8,0.5-1.3L112.8,359L112.8,359z"/>
	<path d="M122.7,361.8c0,2.6-1.3,3.9-3.9,3.9c-0.9,0-1.7-0.2-2.4-0.5v-1.4c0.8,0.4,1.5,0.7,2.2,0.7c1.7,0,2.5-0.8,2.5-2.5v-0.8l0,0
		c-0.5,0.9-1.3,1.3-2.4,1.3c-0.9,0-1.5-0.3-2.1-0.9c-0.5-0.6-0.8-1.5-0.8-2.5c0-1.2,0.3-2.1,0.8-2.8s1.3-1.1,2.3-1.1
		c0.9,0,1.6,0.4,2.1,1.1l0,0v-1h1.6L122.7,361.8L122.7,361.8z M121.1,359.1v-0.9c0-0.5-0.2-0.9-0.5-1.3c-0.3-0.3-0.7-0.5-1.2-0.5
		c-0.6,0-1.1,0.2-1.4,0.7c-0.3,0.4-0.5,1.1-0.5,1.9c0,0.7,0.2,1.2,0.5,1.7c0.3,0.4,0.8,0.6,1.3,0.6s1-0.2,1.3-0.6
		C120.9,360.3,121.1,359.8,121.1,359.1z"/>
	<path d="M130.7,359.3h-4.8c0,0.6,0.2,1.1,0.6,1.5c0.4,0.4,0.9,0.5,1.6,0.5c0.7,0,1.4-0.2,2.1-0.7v1.3c-0.6,0.4-1.5,0.6-2.5,0.6
		s-1.8-0.3-2.4-1c-0.6-0.6-0.9-1.5-0.9-2.7c0-1.1,0.3-2,1-2.7c0.6-0.7,1.4-1,2.4-1s1.7,0.3,2.2,0.9s0.8,1.5,0.8,2.6v0.7L130.7,359.3
		L130.7,359.3z M129.1,358.1c0-0.6-0.1-1-0.4-1.3c-0.3-0.3-0.6-0.5-1.1-0.5s-0.8,0.2-1.2,0.5c-0.3,0.3-0.5,0.8-0.6,1.3H129.1z"/>
	<path d="M142.7,362.4h-1.6v-3.8c0-0.7-0.1-1.3-0.3-1.6c-0.2-0.3-0.6-0.5-1-0.5s-0.8,0.2-1.1,0.6s-0.4,0.9-0.4,1.5v3.8h-1.6v-3.9
		c0-1.3-0.5-2-1.4-2c-0.4,0-0.8,0.2-1.1,0.6s-0.4,0.9-0.4,1.5v3.8h-1.6v-7h1.6v1.1l0,0c0.5-0.8,1.2-1.3,2.2-1.3
		c0.5,0,0.9,0.1,1.3,0.4c0.4,0.3,0.6,0.6,0.7,1c0.5-1,1.3-1.4,2.3-1.4c1.5,0,2.3,1,2.3,2.9v4.3H142.7z"/>
	<path d="M150.5,359.3h-4.8c0,0.6,0.2,1.1,0.6,1.5c0.4,0.4,0.9,0.5,1.6,0.5c0.7,0,1.4-0.2,2.1-0.7v1.3c-0.6,0.4-1.5,0.6-2.5,0.6
		s-1.8-0.3-2.4-1c-0.6-0.6-0.9-1.5-0.9-2.7c0-1.1,0.3-2,1-2.7c0.6-0.7,1.4-1,2.4-1s1.7,0.3,2.2,0.9s0.8,1.5,0.8,2.6v0.7L150.5,359.3
		L150.5,359.3z M149,358.1c0-0.6-0.1-1-0.4-1.3c-0.3-0.3-0.6-0.5-1.1-0.5s-0.8,0.2-1.2,0.5c-0.3,0.3-0.5,0.8-0.6,1.3H149z"/>
	<path d="M158.3,362.4h-1.6v-3.9c0-1.3-0.5-2-1.4-2c-0.5,0-0.9,0.2-1.2,0.5c-0.3,0.4-0.5,0.8-0.5,1.4v4h-1.6v-7h1.6v1.2l0,0
		c0.5-0.9,1.3-1.3,2.3-1.3c0.8,0,1.3,0.2,1.7,0.7s0.6,1.2,0.6,2.1L158.3,362.4L158.3,362.4z"/>
	<path d="M163.9,362.3c-0.3,0.2-0.7,0.2-1.2,0.2c-1.4,0-2-0.7-2-2v-4h-1.2v-1.2h1.2v-1.6l1.6-0.5v2.1h1.7v1.2h-1.7v3.5
		c0,0.4,0.1,0.7,0.2,0.9s0.4,0.3,0.8,0.3c0.3,0,0.5-0.1,0.7-0.2v1.3L163.9,362.3L163.9,362.3z"/>
	<path d="M176.1,362c-0.7,0.4-1.7,0.6-2.8,0.6c-1.4,0-2.6-0.4-3.4-1.3s-1.3-2.1-1.3-3.5c0-1.6,0.5-2.8,1.4-3.8c1-1,2.2-1.4,3.7-1.4
		c0.9,0,1.7,0.1,2.4,0.4v1.6c-0.7-0.4-1.4-0.6-2.2-0.6c-1.1,0-1.9,0.3-2.6,1c-0.7,0.7-1,1.6-1,2.7s0.3,1.9,0.9,2.6
		c0.6,0.6,1.4,1,2.4,1c0.9,0,1.7-0.2,2.4-0.7v1.4L176.1,362L176.1,362z"/>
	<path d="M180.9,362.6c-1.1,0-1.9-0.3-2.6-1c-0.6-0.7-1-1.5-1-2.6c0-1.2,0.3-2.1,1-2.8c0.7-0.7,1.6-1,2.7-1c1.1,0,1.9,0.3,2.6,1
		s0.9,1.5,0.9,2.7c0,1.1-0.3,2-1,2.7C182.9,362.1,182,362.6,180.9,362.6z M181,356.5c-0.6,0-1.1,0.2-1.5,0.6s-0.5,1-0.5,1.8
		c0,0.7,0.2,1.3,0.5,1.7c0.4,0.4,0.9,0.6,1.5,0.6s1.1-0.2,1.4-0.6c0.3-0.4,0.5-1,0.5-1.8s-0.2-1.4-0.5-1.8
		C182.1,356.6,181.6,356.5,181,356.5z"/>
	<path d="M192.4,362.4h-1.6v-3.9c0-1.3-0.5-2-1.4-2c-0.5,0-0.9,0.2-1.2,0.5c-0.3,0.4-0.5,0.8-0.5,1.4v4H186v-7h1.6v1.2l0,0
		c0.5-0.9,1.3-1.3,2.3-1.3c0.8,0,1.3,0.2,1.7,0.7c0.4,0.5,0.6,1.2,0.6,2.1L192.4,362.4L192.4,362.4z"/>
	<path d="M193.9,362.1v-1.5c0.6,0.5,1.2,0.7,2,0.7c1,0,1.4-0.3,1.4-0.8c0-0.2,0-0.3-0.1-0.4s-0.2-0.2-0.3-0.3
		c-0.1-0.1-0.3-0.2-0.5-0.2c-0.2-0.1-0.4-0.1-0.6-0.2c-0.3-0.1-0.5-0.2-0.8-0.4c-0.2-0.1-0.4-0.3-0.6-0.4c-0.2-0.2-0.3-0.3-0.3-0.6
		s-0.1-0.4-0.1-0.7c0-0.3,0.1-0.6,0.2-0.9c0.2-0.3,0.4-0.5,0.6-0.7c0.3-0.2,0.6-0.3,0.9-0.4s0.7-0.1,1.1-0.1c0.6,0,1.2,0.1,1.7,0.3
		v1.4c-0.5-0.3-1.1-0.5-1.7-0.5c-0.2,0-0.4,0-0.5,0.1c-0.2,0-0.3,0.1-0.4,0.2s-0.2,0.2-0.3,0.3c-0.1,0.1-0.1,0.2-0.1,0.3
		c0,0.2,0,0.3,0.1,0.4s0.2,0.2,0.3,0.3c0.1,0.1,0.3,0.2,0.5,0.2c0.2,0.1,0.4,0.1,0.6,0.2c0.3,0.1,0.6,0.2,0.8,0.4
		c0.2,0.1,0.4,0.3,0.6,0.4c0.2,0.2,0.3,0.3,0.4,0.6c0.1,0.2,0.1,0.5,0.1,0.8c0,0.4-0.1,0.7-0.2,0.9s-0.4,0.5-0.7,0.7
		s-0.6,0.3-0.9,0.4c-0.4,0.1-0.7,0.1-1.1,0.1C195.1,362.6,194.4,362.4,193.9,362.1z"/>
	<path d="M203.5,362.6c-1.1,0-1.9-0.3-2.6-1c-0.6-0.7-1-1.5-1-2.6c0-1.2,0.3-2.1,1-2.8c0.7-0.7,1.6-1,2.7-1s1.9,0.3,2.6,1
		s0.9,1.5,0.9,2.7c0,1.1-0.3,2-1,2.7C205.5,362.1,204.6,362.6,203.5,362.6z M203.5,356.5c-0.6,0-1.1,0.2-1.5,0.6s-0.5,1-0.5,1.8
		c0,0.7,0.2,1.3,0.5,1.7c0.4,0.4,0.9,0.6,1.5,0.6s1.1-0.2,1.4-0.6s0.5-1,0.5-1.8s-0.2-1.4-0.5-1.8
		C204.6,356.6,204.1,356.5,203.5,356.5z"/>
	<path d="M210.3,362.4h-1.6V352h1.6V362.4z"/>
	<path d="M218.3,359.3h-4.8c0,0.6,0.2,1.1,0.6,1.5s0.9,0.5,1.6,0.5s1.4-0.2,2.1-0.7v1.3c-0.6,0.4-1.5,0.6-2.5,0.6s-1.8-0.3-2.4-1
		c-0.6-0.6-0.9-1.5-0.9-2.7c0-1.1,0.3-2,1-2.7c0.6-0.7,1.4-1,2.4-1s1.7,0.3,2.2,0.9s0.8,1.5,0.8,2.6v0.7L218.3,359.3L218.3,359.3z
		 M216.8,358.1c0-0.6-0.1-1-0.4-1.3s-0.6-0.5-1.1-0.5s-0.8,0.2-1.2,0.5c-0.3,0.3-0.5,0.8-0.6,1.3H216.8z"/>
	<path d="M221.3,360.8l-1.1,3.4h-1.2l0.8-3.4H221.3z"/>
	<path d="M48.4,379.1h-1.8l-0.9-2.5h-3.9l-0.8,2.5h-1.8l3.7-9.8h1.8L48.4,379.1z M45.3,375.4l-1.4-3.9c0-0.1-0.1-0.3-0.1-0.6l0,0
		c0,0.3-0.1,0.5-0.1,0.6l-1.3,3.9H45.3z"/>
	<path d="M54.7,372.9l-3.8,5.1h3.8v1.2h-6v-0.6l3.9-5.2h-3.5v-1.2h5.6V372.9z"/>
	<path d="M62.2,379.1h-1.6V378l0,0c-0.5,0.8-1.2,1.3-2.1,1.3c-1.7,0-2.5-1-2.5-3v-4.2h1.6v4c0,1.3,0.5,1.9,1.5,1.9
		c0.5,0,0.9-0.2,1.2-0.5s0.5-0.8,0.5-1.4v-4h1.6v7L62.2,379.1L62.2,379.1z"/>
	<path d="M68.3,373.6c-0.2-0.2-0.5-0.2-0.8-0.2c-0.5,0-0.9,0.2-1.2,0.6s-0.5,1-0.5,1.7v3.3h-1.6v-7h1.6v1.4l0,0
		c0.2-0.5,0.4-0.9,0.7-1.2c0.3-0.3,0.7-0.4,1.1-0.4c0.3,0,0.5,0,0.7,0.1V373.6z"/>
	<path d="M75.2,376.1h-4.8c0,0.6,0.2,1.1,0.6,1.5c0.4,0.4,0.9,0.5,1.6,0.5c0.7,0,1.4-0.2,2.1-0.7v1.3c-0.6,0.4-1.5,0.6-2.5,0.6
		s-1.8-0.3-2.4-1c-0.6-0.6-0.9-1.5-0.9-2.7c0-1.1,0.3-2,1-2.7c0.6-0.7,1.4-1,2.4-1s1.7,0.3,2.2,0.9s0.8,1.5,0.8,2.6v0.7L75.2,376.1
		L75.2,376.1z M73.7,375c0-0.6-0.1-1-0.4-1.3c-0.3-0.3-0.6-0.5-1.1-0.5s-0.8,0.2-1.2,0.5c-0.3,0.3-0.5,0.8-0.6,1.3H73.7z"/>
	<path d="M87.6,378.8c-0.7,0.4-1.7,0.6-2.8,0.6c-1.4,0-2.6-0.4-3.4-1.3s-1.3-2.1-1.3-3.5c0-1.6,0.5-2.8,1.4-3.8c1-1,2.2-1.4,3.7-1.4
		c0.9,0,1.7,0.1,2.4,0.4v1.6c-0.7-0.4-1.4-0.6-2.2-0.6c-1.1,0-1.9,0.3-2.6,1c-0.7,0.7-1,1.6-1,2.7s0.3,1.9,0.9,2.6
		c0.6,0.6,1.4,1,2.4,1c0.9,0,1.7-0.2,2.4-0.7v1.4L87.6,378.8L87.6,378.8z"/>
	<path d="M94.9,379.1h-5.4v-9.8h1.6v8.4h3.8L94.9,379.1L94.9,379.1z"/>
	<path d="M98,379.1h-1.7v-9.8H98V379.1z"/>
	<path d="M101.7,377.6l-1.1,3.4h-1.2l0.8-3.4H101.7z"/>
	<path d="M109.2,375.6v3.6h-1.6v-9.8h3c1.1,0,2,0.3,2.6,0.8s0.9,1.3,0.9,2.2s-0.3,1.7-1,2.3s-1.5,0.9-2.6,0.9H109.2z M109.2,370.6
		v3.6h1.1c0.7,0,1.2-0.2,1.6-0.5s0.5-0.8,0.5-1.4c0-1.2-0.7-1.7-2-1.7H109.2z"/>
	<path d="M118.2,379.4c-1.1,0-1.9-0.3-2.6-1c-0.6-0.7-1-1.5-1-2.6c0-1.2,0.3-2.1,1-2.8c0.7-0.7,1.6-1,2.7-1c1.1,0,1.9,0.3,2.6,1
		s0.9,1.5,0.9,2.7c0,1.1-0.3,2-1,2.7C120.2,379,119.4,379.4,118.2,379.4z M118.3,373.3c-0.6,0-1.1,0.2-1.5,0.6s-0.5,1-0.5,1.8
		c0,0.7,0.2,1.3,0.5,1.7c0.4,0.4,0.9,0.6,1.5,0.6s1.1-0.2,1.4-0.6c0.3-0.4,0.5-1,0.5-1.8s-0.2-1.4-0.5-1.8
		C119.4,373.5,118.9,373.3,118.3,373.3z"/>
	<path d="M132.9,372.1l-2.1,7h-1.7l-1.3-4.7c0-0.2-0.1-0.4-0.1-0.6l0,0c0,0.2,0,0.4-0.1,0.6l-1.4,4.8h-1.6l-2.1-7h1.6l1.3,5
		c0,0.2,0.1,0.4,0.1,0.6l0,0c0-0.2,0-0.4,0.1-0.6l1.4-5h1.5l1.3,5.1c0,0.2,0.1,0.4,0.1,0.6l0,0c0-0.2,0-0.4,0.1-0.6l1.2-5.1
		L132.9,372.1L132.9,372.1z"/>
	<path d="M140,376.1h-4.8c0,0.6,0.2,1.1,0.6,1.5c0.4,0.4,0.9,0.5,1.6,0.5c0.7,0,1.4-0.2,2.1-0.7v1.3c-0.6,0.4-1.5,0.6-2.5,0.6
		s-1.8-0.3-2.4-1c-0.6-0.6-0.9-1.5-0.9-2.7c0-1.1,0.3-2,1-2.7c0.6-0.7,1.4-1,2.4-1s1.7,0.3,2.2,0.9s0.8,1.5,0.8,2.6v0.7L140,376.1
		L140,376.1z M138.4,375c0-0.6-0.1-1-0.4-1.3c-0.3-0.3-0.6-0.5-1.1-0.5s-0.8,0.2-1.2,0.5c-0.3,0.3-0.5,0.8-0.6,1.3H138.4z"/>
	<path d="M145.5,373.6c-0.2-0.2-0.5-0.2-0.8-0.2c-0.5,0-0.9,0.2-1.2,0.6s-0.5,1-0.5,1.7v3.3h-1.6v-7h1.6v1.4l0,0
		c0.2-0.5,0.4-0.9,0.7-1.2c0.3-0.3,0.7-0.4,1.1-0.4c0.3,0,0.5,0,0.7,0.1V373.6z"/>
	<path d="M146.4,378.8V377c0.2,0.1,0.3,0.3,0.5,0.4s0.4,0.2,0.7,0.3c0.2,0.1,0.5,0.1,0.7,0.2s0.4,0.1,0.6,0.1c0.7,0,1.2-0.1,1.5-0.3
		c0.3-0.2,0.5-0.6,0.5-1c0-0.2-0.1-0.4-0.2-0.6c-0.1-0.2-0.3-0.3-0.5-0.5s-0.4-0.3-0.7-0.4s-0.6-0.3-0.9-0.4
		c-0.3-0.2-0.6-0.4-0.9-0.5s-0.5-0.4-0.7-0.6s-0.4-0.5-0.5-0.7c-0.1-0.3-0.2-0.6-0.2-1c0-0.5,0.1-0.9,0.3-1.2
		c0.2-0.3,0.5-0.6,0.8-0.8c0.3-0.2,0.7-0.4,1.2-0.5c0.4-0.1,0.9-0.2,1.3-0.2c1,0,1.8,0.1,2.2,0.3v1.6c-0.6-0.4-1.3-0.6-2.1-0.6
		c-0.2,0-0.5,0-0.7,0.1c-0.2,0-0.5,0.1-0.6,0.2c-0.2,0.1-0.3,0.2-0.5,0.4s-0.2,0.4-0.2,0.6s0,0.4,0.1,0.6s0.2,0.3,0.4,0.4
		s0.4,0.3,0.6,0.4c0.3,0.1,0.5,0.3,0.9,0.4c0.3,0.2,0.7,0.4,1,0.6s0.6,0.4,0.8,0.6s0.4,0.5,0.5,0.8s0.2,0.6,0.2,1
		c0,0.5-0.1,0.9-0.3,1.3s-0.5,0.6-0.8,0.8c-0.3,0.2-0.7,0.4-1.2,0.5s-0.9,0.1-1.4,0.1c-0.2,0-0.4,0-0.6,0c-0.2,0-0.5-0.1-0.7-0.1
		c-0.3,0-0.5-0.1-0.7-0.2S146.5,378.9,146.4,378.8z"/>
	<path d="M160.5,379.1h-1.6v-3.8c0-1.4-0.5-2.1-1.4-2.1c-0.5,0-0.9,0.2-1.2,0.6s-0.5,0.9-0.5,1.5v3.8h-1.6v-10.4h1.6v4.5l0,0
		c0.5-0.9,1.3-1.3,2.3-1.3c1.6,0,2.3,1,2.3,2.9L160.5,379.1L160.5,379.1z"/>
	<path d="M168.3,376.1h-4.8c0,0.6,0.2,1.1,0.6,1.5c0.4,0.4,0.9,0.5,1.6,0.5c0.7,0,1.4-0.2,2.1-0.7v1.3c-0.6,0.4-1.5,0.6-2.5,0.6
		s-1.8-0.3-2.4-1c-0.6-0.6-0.9-1.5-0.9-2.7c0-1.1,0.3-2,1-2.7c0.6-0.7,1.4-1,2.4-1s1.7,0.3,2.2,0.9s0.8,1.5,0.8,2.6v0.7L168.3,376.1
		L168.3,376.1z M166.8,375c0-0.6-0.1-1-0.4-1.3c-0.3-0.3-0.6-0.5-1.1-0.5s-0.8,0.2-1.2,0.5c-0.3,0.3-0.5,0.8-0.6,1.3H166.8z"/>
	<path d="M171.4,379.1h-1.6v-10.4h1.6V379.1z"/>
	<path d="M175.1,379.1h-1.6v-10.4h1.6V379.1z"/>
</g>
</svg>
