<?xml version="1.0" encoding="utf-8"?>
<!-- Generator: Adobe Illustrator 19.2.0, SVG Export Plug-In . SVG Version: 6.00 Build 0)  -->
<svg version="1.1" id="Layer_1" xmlns="http://www.w3.org/2000/svg" xmlns:xlink="http://www.w3.org/1999/xlink" x="0px" y="0px"
	 width="109.5px" height="463.3px" viewBox="0 0 109.5 463.3" style="enable-background:new 0 0 109.5 463.3;" xml:space="preserve"
	>
<g>
	
		<line style="fill:none;stroke:#DFDFDE;stroke-width:4;stroke-linecap:round;stroke-linejoin:round;stroke-miterlimit:10;" x1="7.4" y1="421" x2="7.4" y2="44"/>
</g>
<g>
	
		<line style="fill:none;stroke:#DFDFDE;stroke-width:4;stroke-linecap:round;stroke-linejoin:round;stroke-miterlimit:10;" x1="27" y1="421" x2="7.4" y2="421"/>
	
		<circle style="fill:none;stroke:#DFDFDE;stroke-width:4;stroke-linecap:round;stroke-linejoin:round;stroke-miterlimit:10;" cx="32.5" cy="421" r="5"/>
</g>
<g>
	<path style="fill:#231F20;" d="M55.4,443c0,0.8-0.3,1.5-0.8,2c-0.6,0.5-1.3,0.8-2.2,0.8h-1.1v3.2h-1v-8.5h2.3
		c0.9,0,1.6,0.2,2.1,0.7S55.4,442.2,55.4,443z M54.4,443c0-1.1-0.7-1.7-2-1.7h-1.2v3.5h1c0.7,0,1.2-0.2,1.6-0.5
		C54.2,444,54.4,443.6,54.4,443z"/>
	<path style="fill:#231F20;" d="M62,445.9c0,1-0.3,1.7-0.8,2.3c-0.5,0.6-1.3,0.9-2.2,0.9c-0.9,0-1.6-0.3-2.1-0.9S56,446.9,56,446
		c0-1,0.3-1.8,0.8-2.4s1.3-0.9,2.3-0.9c0.9,0,1.6,0.3,2.1,0.8C61.7,444.1,62,444.9,62,445.9z M61,445.9c0-0.8-0.2-1.3-0.5-1.8
		c-0.3-0.4-0.8-0.6-1.4-0.6c-0.6,0-1.1,0.2-1.5,0.6c-0.4,0.4-0.5,1-0.5,1.8c0,0.7,0.2,1.3,0.5,1.7c0.4,0.4,0.9,0.6,1.5,0.6
		c0.6,0,1.1-0.2,1.4-0.6C60.8,447.2,61,446.7,61,445.9z"/>
	<path style="fill:#231F20;" d="M71.1,442.9l-1.8,6.1h-1l-1.2-4.3c0-0.1-0.1-0.3-0.1-0.6h0c0,0.1-0.1,0.3-0.1,0.5l-1.4,4.3h-1
		l-1.8-6.1h1l1.2,4.6c0,0.2,0.1,0.3,0.1,0.5h0c0-0.1,0-0.3,0.1-0.6l1.4-4.5h0.9l1.3,4.6c0,0.2,0.1,0.3,0.1,0.5h0
		c0-0.2,0-0.4,0.1-0.5l1.2-4.6H71.1z"/>
	<path style="fill:#231F20;" d="M77,446.1h-4.3c0,0.7,0.2,1.2,0.5,1.6c0.3,0.4,0.8,0.5,1.4,0.5c0.7,0,1.3-0.2,1.9-0.7v0.9
		c-0.5,0.4-1.2,0.6-2.1,0.6c-0.9,0-1.5-0.3-2-0.8c-0.5-0.6-0.7-1.3-0.7-2.3c0-0.6,0.1-1.1,0.4-1.6c0.2-0.5,0.6-0.9,1-1.2
		c0.4-0.3,0.9-0.4,1.4-0.4c0.8,0,1.4,0.3,1.8,0.8s0.7,1.2,0.7,2.1V446.1z M76,445.3c0-0.6-0.1-1-0.4-1.3s-0.6-0.5-1.1-0.5
		c-0.4,0-0.8,0.2-1.2,0.5s-0.5,0.8-0.6,1.3H76z"/>
	<path style="fill:#231F20;" d="M81.6,443.8c-0.2-0.1-0.4-0.2-0.7-0.2c-0.4,0-0.8,0.2-1,0.6c-0.3,0.4-0.4,0.9-0.4,1.6v3.1h-1v-6.1h1
		v1.2h0c0.1-0.4,0.3-0.7,0.6-1c0.3-0.2,0.6-0.4,1-0.4c0.3,0,0.4,0,0.6,0.1V443.8z"/>
	<path style="fill:#231F20;" d="M90.8,446.5c0,0.7-0.3,1.3-0.8,1.7c-0.5,0.5-1.2,0.7-2,0.7h-2.5v-8.5H88c0.7,0,1.3,0.2,1.7,0.5
		c0.4,0.4,0.7,0.8,0.7,1.4c0,0.5-0.1,0.9-0.4,1.2s-0.6,0.6-1.1,0.8v0c0.6,0.1,1,0.3,1.4,0.7C90.7,445.4,90.8,445.9,90.8,446.5z
		 M89.4,442.6c0-0.8-0.5-1.2-1.6-1.2h-1.1v2.7h1c0.5,0,1-0.1,1.3-0.4C89.2,443.4,89.4,443.1,89.4,442.6z M89.8,446.5
		c0-1-0.7-1.5-2-1.5h-1.1v3.1H88c0.6,0,1-0.1,1.4-0.4C89.6,447.3,89.8,447,89.8,446.5z"/>
	<path style="fill:#231F20;" d="M93.6,448.9h-1v-8.5h1V448.9z"/>
</g>
<g>
	<g>
		<path d="M88.6,419.4c0,2.9-0.1,5.7,0,8.6c0.1,3-2.6,5-5.3,3.9c-0.8-0.3-1.5-0.5-2.3-0.8c-0.6-0.2-0.9-0.5-0.7-1.1
			c0.2-0.6,0.7-0.8,1.3-0.6c0.9,0.3,1.7,0.6,2.6,0.8c1.5,0.4,2.6-0.4,2.7-1.9c0-6,0-11.9,0-17.9c0-1.2-0.5-1.7-1.8-2.1
			c-7.3-2.2-14.6-4.4-22-6.7c-1.3-0.4-2.6-0.8-3.9-1.2c-1.7-0.5-2.8,0.3-2.8,2.1c0,3.8,0,7.7,0,11.5c0,0.3,0.1,0.6-0.1,0.9
			c-0.2,0.3-0.5,0.7-0.8,0.7c-0.3,0-0.6-0.4-0.8-0.6c-0.1-0.2-0.1-0.5-0.1-0.8c0-3.8,0-7.7,0-11.5c0-3.1,2.2-4.8,5.2-3.9
			c7.6,2.3,15.2,4.6,22.9,6.9c1.1,0.3,2.2,0.7,3.3,1c1.7,0.5,2.7,1.8,2.7,3.6C88.6,413.4,88.6,416.4,88.6,419.4z"/>
		<path d="M73.1,423.3c0-3.2,0-6.5,0-9.7c0-1.9,1.8-3,3.3-2.2c0.9,0.5,1.2,1.3,1.2,2.3c0,3.3,0,6.6,0,9.9c0,3.2,0,6.3,0,9.5
			c0,1.1-0.5,1.9-1.5,2.3c-0.9,0.3-1.8,0.2-2.4-0.6c-0.4-0.5-0.6-1.3-0.6-1.9C73.1,429.7,73.1,426.5,73.1,423.3z"/>
		<path d="M66.6,423.4c0-2.4,0-4.8,0-7.2c0-1.6,0.9-2.6,2.3-2.6c1.3,0,2.3,1,2.3,2.6c0,4.8,0,9.7,0,14.5c0,1.2-0.6,2-1.6,2.3
			c-1,0.3-2,0-2.5-0.8c-0.3-0.4-0.4-1-0.4-1.6C66.5,428.2,66.6,425.8,66.6,423.4z"/>
		<path d="M60,423.3c0-1.6,0-3.2,0-4.7c0-1.4,0.9-2.3,2.2-2.4c1.3,0,2.3,0.9,2.3,2.4c0,3.2,0,6.4,0,9.5c0,1.4-1,2.4-2.3,2.4
			c-1.3,0-2.2-1-2.2-2.4C60,426.5,60,424.9,60,423.3z"/>
		<path d="M57.9,423.4c0,0.8,0,1.7,0,2.5c0,1.3-1,2.3-2.2,2.4c-1.3,0-2.3-1-2.3-2.3c0-1.7,0-3.5,0-5.2c0-1.3,1-2.3,2.3-2.3
			c1.3,0,2.2,1,2.2,2.3C57.9,421.7,57.9,422.5,57.9,423.4z"/>
	</g>
</g>
</svg>
