<?xml version="1.0" encoding="utf-8"?>
<!-- Generator: Adobe Illustrator 19.2.0, SVG Export Plug-In . SVG Version: 6.00 Build 0)  -->
<svg version="1.1" id="Layer_1" xmlns="http://www.w3.org/2000/svg" xmlns:xlink="http://www.w3.org/1999/xlink" x="0px" y="0px"
	 width="160px" height="475px" viewBox="0 0 160 475" style="enable-background:new 0 0 160 475;" xml:space="preserve">
<g>
	
		<line style="fill:none;stroke:#DFDFDE;stroke-width:4;stroke-linecap:round;stroke-linejoin:round;stroke-miterlimit:10;" x1="79.4" y1="-83" x2="79.4" y2="177.9"/>
	
		<circle style="fill:none;stroke:#DFDFDE;stroke-width:4;stroke-linecap:round;stroke-linejoin:round;stroke-miterlimit:10;" cx="79.4" cy="183.4" r="5"/>
</g>
<g>
	<path style="fill:#686969;" d="M31.8,364.7c-1.4,0-2.5-0.5-3.4-1.4c-0.8-0.9-1.3-2.1-1.3-3.6c0-1.6,0.4-2.8,1.3-3.8s2-1.4,3.5-1.4
		c1.4,0,2.5,0.5,3.3,1.4s1.3,2.1,1.3,3.6c0,1.6-0.4,2.9-1.3,3.8S33.3,364.7,31.8,364.7z M31.9,356c-0.9,0-1.6,0.3-2.2,1
		s-0.8,1.6-0.8,2.6c0,1.1,0.3,2,0.8,2.6s1.3,1,2.1,1c0.9,0,1.7-0.3,2.2-1s0.8-1.5,0.8-2.7s-0.3-2.1-0.8-2.7
		C33.6,356.3,32.8,356,31.9,356z"/>
	<path style="fill:#686969;" d="M48.9,364.5h-1.6v-6.3c0-0.5,0-1.2,0.1-1.9l0,0c-0.1,0.4-0.2,0.7-0.3,0.9l-2.9,7.3H43l-2.9-7.3
		c-0.1-0.2-0.2-0.5-0.3-1l0,0c0,0.4,0.1,1,0.1,1.9v6.3h-1.5v-9.8h2.3l2.6,6.5c0.2,0.5,0.3,0.9,0.4,1.1l0,0c0.2-0.5,0.3-0.9,0.4-1.1
		l2.6-6.5h2.2C48.9,354.6,48.9,364.5,48.9,364.5z"/>
	<path style="fill:#686969;" d="M50.9,364.1v-1.7c0.2,0.1,0.3,0.3,0.5,0.4s0.4,0.2,0.7,0.3c0.2,0.1,0.5,0.1,0.7,0.2s0.4,0.1,0.6,0.1
		c0.7,0,1.2-0.1,1.5-0.3c0.3-0.2,0.5-0.6,0.5-1c0-0.2-0.1-0.4-0.2-0.6s-0.3-0.3-0.5-0.5s-0.4-0.3-0.7-0.4s-0.6-0.3-0.9-0.4
		c-0.3-0.2-0.6-0.4-0.9-0.5s-0.5-0.4-0.7-0.6s-0.4-0.5-0.5-0.7c-0.1-0.3-0.2-0.6-0.2-1c0-0.5,0.1-0.9,0.3-1.2
		c0.2-0.3,0.5-0.6,0.8-0.8c0.3-0.2,0.7-0.4,1.2-0.5c0.4-0.1,0.9-0.2,1.3-0.2c1,0,1.8,0.1,2.2,0.3v1.6c-0.6-0.4-1.3-0.6-2.1-0.6
		c-0.2,0-0.5,0-0.7,0.1c-0.2,0-0.5,0.1-0.6,0.2c-0.2,0.1-0.3,0.2-0.5,0.4s-0.2,0.4-0.2,0.6s0,0.4,0.1,0.6s0.2,0.3,0.4,0.4
		c0.2,0.1,0.4,0.3,0.6,0.4c0.3,0.1,0.5,0.3,0.9,0.4c0.3,0.2,0.7,0.4,1,0.6s0.6,0.4,0.8,0.6s0.4,0.5,0.5,0.8s0.2,0.6,0.2,1
		c0,0.5-0.1,0.9-0.3,1.3s-0.5,0.6-0.8,0.8c-0.3,0.2-0.7,0.4-1.2,0.5s-0.9,0.1-1.4,0.1c-0.2,0-0.4,0-0.6,0s-0.5-0.1-0.7-0.1
		c-0.3,0-0.5-0.1-0.7-0.2S51,364.2,50.9,364.1z"/>
	<path style="fill:#686969;" d="M68.1,356.1h-3.7v2.9h3.4v1.4h-3.4v4.1h-1.6v-9.8h5.3C68.1,354.7,68.1,356.1,68.1,356.1z"/>
	<path style="fill:#686969;" d="M73.9,364.7c-1.4,0-2.5-0.5-3.4-1.4c-0.8-0.9-1.3-2.1-1.3-3.6c0-1.6,0.4-2.8,1.3-3.8
		c0.9-1,2-1.4,3.5-1.4c1.4,0,2.5,0.5,3.3,1.4s1.3,2.1,1.3,3.6c0,1.6-0.4,2.9-1.3,3.8S75.3,364.7,73.9,364.7z M73.9,356
		c-0.9,0-1.6,0.3-2.2,1c-0.6,0.7-0.8,1.6-0.8,2.6c0,1.1,0.3,2,0.8,2.6s1.3,1,2.1,1c0.9,0,1.7-0.3,2.2-1s0.8-1.5,0.8-2.7
		s-0.3-2.1-0.8-2.7C75.6,356.3,74.9,356,73.9,356z"/>
	<path style="fill:#686969;" d="M88,364.5h-1.9l-1.6-2.6c-0.1-0.2-0.3-0.4-0.4-0.6c-0.1-0.2-0.3-0.3-0.4-0.4s-0.3-0.2-0.5-0.2
		s-0.3-0.1-0.6-0.1H82v4h-1.6v-9.8h3.2c0.5,0,0.9,0.1,1.3,0.2c0.4,0.1,0.7,0.3,1,0.5s0.5,0.5,0.7,0.8s0.2,0.7,0.2,1.2
		c0,0.3-0.1,0.7-0.2,1c-0.1,0.3-0.3,0.5-0.4,0.8c-0.2,0.2-0.4,0.4-0.7,0.6s-0.6,0.3-0.9,0.4l0,0c0.2,0.1,0.3,0.2,0.5,0.3
		c0.1,0.1,0.3,0.2,0.4,0.4c0.1,0.1,0.2,0.3,0.4,0.4c0.1,0.2,0.2,0.3,0.4,0.6L88,364.5z M82,356.1v3.2h1.4c0.3,0,0.5,0,0.7-0.1
		s0.4-0.2,0.6-0.3c0.2-0.1,0.3-0.3,0.4-0.5c0.1-0.2,0.1-0.4,0.1-0.7c0-0.5-0.1-0.8-0.4-1.1c-0.3-0.3-0.7-0.4-1.3-0.4H82V356.1z"/>
	<path style="fill:#686969;" d="M98.4,364.5H93v-9.8h1.6v8.4h3.8L98.4,364.5L98.4,364.5z"/>
	<path style="fill:#686969;" d="M101.5,364.5h-1.7v-9.8h1.7V364.5z"/>
	<path style="fill:#686969;" d="M112.2,364.5h-1.8l-4.7-7.2c-0.1-0.2-0.2-0.4-0.3-0.6l0,0c0,0.2,0.1,0.7,0.1,1.3v6.4h-1.6v-9.8h1.9
		l4.5,7c0.2,0.3,0.3,0.5,0.4,0.6l0,0c0-0.3-0.1-0.7-0.1-1.3v-6.3h1.6L112.2,364.5L112.2,364.5z"/>
	<path style="fill:#686969;" d="M122.2,360.6c0,2.8-1.3,4.1-3.9,4.1c-2.5,0-3.7-1.3-3.7-4v-6h1.6v5.7c0,1.9,0.7,2.9,2.2,2.9
		c1.4,0,2.2-0.9,2.2-2.8v-5.8h1.6C122.2,354.7,122.2,360.6,122.2,360.6z"/>
	<path style="fill:#686969;" d="M131.8,364.5h-1.9l-2-3.6c-0.1-0.1-0.1-0.3-0.2-0.5l0,0c0,0.1-0.1,0.3-0.2,0.5l-2.1,3.6h-2l3.2-4.9
		l-3-4.9h2l1.8,3.3c0.1,0.2,0.2,0.4,0.3,0.7l0,0c0.1-0.3,0.2-0.5,0.3-0.7l1.8-3.3h1.8l-3,4.9L131.8,364.5z"/>
</g>
<g>
	<g>
		<path style="fill:#FFFFFF;stroke:#000000;stroke-width:3;stroke-linecap:round;stroke-linejoin:round;" d="M138.9,279.2
			c-5.3,32.8-36.1,55.1-68.9,49.9s-55.2-36.2-49.9-69c1.3-8.4,4.4-16.1,8.7-22.8c7.5-11.7,18.8-20.4,31.9-24.8
			c8.9-2.9,18.5-3.8,28.4-2.3C121.8,215.5,144.1,246.4,138.9,279.2z"/>
		<path style="fill:#FFFFFF;stroke:#000000;stroke-width:3;stroke-linecap:round;stroke-linejoin:round;" d="M128.1,277.4
			c-4.3,26.9-29.6,45.1-56.4,40.8c-26.9-4.3-45.1-29.6-40.8-56.4c1.1-6.9,3.6-13.2,7.1-18.7c6.1-9.6,15.4-16.7,26.1-20.3
			c7.3-2.4,15.2-3.1,23.2-1.8C114.1,225.3,132.4,250.6,128.1,277.4z"/>
	</g>
	<g>
		<g>
			<path d="M70.6,287.3c0-0.3,0-0.5,0-0.8l2.7-1.5c-0.1-0.9-0.4-1.8-0.7-2.6l-3.1,0.1c-0.2-0.5-0.5-1-0.8-1.4l1.6-2.7
				c-0.6-0.7-1.2-1.3-1.9-1.9l-1.6,0.9l-0.7,1l-1.4,2.1c2,1.6,3.3,4.1,3.3,6.8c0,4.8-3.9,8.6-8.6,8.6c-4.8,0-8.6-3.9-8.6-8.6
				c0-4.3,3.1-7.8,7.2-8.5l0.7-2.7l-1.5-2.7c-0.9,0.1-1.8,0.4-2.6,0.7v3.1c-0.5,0.2-1,0.5-1.4,0.8l-2.7-1.6
				c-0.7,0.6-1.3,1.2-1.9,1.9l1.6,2.7c-0.3,0.4-0.5,0.9-0.8,1.4l-3.1-0.1c-0.3,0.8-0.5,1.7-0.7,2.6l2.7,1.5c0,0.3,0,0.5,0,0.8
				s0,0.5,0,0.8l-2.7,1.5c0.2,0.9,0.4,1.8,0.7,2.6l3.1-0.1c0.2,0.5,0.5,1,0.8,1.4l-1.6,2.7c0.6,0.7,1.2,1.3,1.9,1.9l2.7-1.6
				c0.4,0.3,0.9,0.6,1.4,0.8v3.1c0.8,0.3,1.7,0.5,2.6,0.7l1.5-2.7c0.3,0,0.5,0,0.8,0s0.5,0,0.8,0l1.5,2.7c0.9-0.1,1.8-0.4,2.6-0.7
				v-3.1c0.5-0.2,1-0.5,1.4-0.8l2.7,1.6c0.7-0.6,1.3-1.2,1.9-1.9l-1.6-2.7c0.3-0.4,0.6-0.9,0.8-1.4l3.1,0.1c0.3-0.8,0.5-1.7,0.7-2.6
				l-2.7-1.5C70.6,287.8,70.6,287.5,70.6,287.3z"/>
			<path d="M56.6,287.2H59c0.1,0,0.1,0,0.2,0.1s0.1,0.1,0,0.2l-2.5,6c-0.1,0.2,0,0.2,0.1,0.1l7.9-8.9c0.1-0.1,0.1-0.2-0.1-0.2H62
				h-0.5c-0.2,0-0.3-0.1-0.2-0.3l2.4-4.4l2.7-4.8l0.8-1.5c-1.8-1.1-3.9-1.8-6.1-2l-0.5,1.6l-1.7,5.4l-2.6,8.3
				C56.3,287.1,56.4,287.2,56.6,287.2z"/>
		</g>
		<g>
			<polygon points="96.2,292.1 90.5,280 87.3,286.4 84,282.9 82.6,285.7 80.6,285.7 80.6,284.2 81.7,284.2 83.6,280.3 86.9,283.8 
				90.6,276.6 96.5,289.1 103.3,279.2 105.9,287.2 106.8,287.2 106.8,288.7 104.8,288.7 102.8,282.6 			"/>
			<path d="M107.9,275v18.7H79.5V275H107.9L107.9,275L107.9,275z M109.8,272H77.6c-0.6,0-1.1,0.5-1.1,1.1v22.4
				c0,0.6,0.5,1.1,1.1,1.1h32.2c0.6,0,1.1-0.5,1.1-1.1v-22.4C110.9,272.5,110.4,272,109.8,272L109.8,272z"/>
		</g>
		<path d="M109.6,251.5h-1.4V249c0-5.4-3.4-8.1-7.4-8.1h-0.7c-4.1,0-7.4,2.7-7.4,8.1v2.5h-1.4c-0.6,0-1.4,0.8-1.4,1.4v13.6
			c0,0.6,0.8,1.4,1.4,1.4h18.2c0.6,0,1.4-0.8,1.4-1.4v-13.6C110.9,252.3,110.1,251.5,109.6,251.5L109.6,251.5z M101.5,259.6v5.6h-2
			v-5.6c-0.8-0.4-1.4-1.2-1.4-2.1c0-1.3,1.1-2.4,2.4-2.4s2.4,1.1,2.4,2.4C102.8,258.3,102.3,259.1,101.5,259.6L101.5,259.6z
			 M105.7,251.5H95.3V249c0-3.4,1.8-5.7,4.8-5.7h0.7c3.1,0,4.8,2.3,4.8,5.7L105.7,251.5L105.7,251.5L105.7,251.5z"/>
		<polygon points="72.2,238.9 72.2,239.6 74.4,239.6 74.4,238.9 74.4,237.5 72.2,237.5 		"/>
		<path d="M83.9,238.9h-1.4v24.8H64.2v-24.8h-1.4c-1.2,0-2.2,1-2.2,2.2v24.8c0,1.2,1,2.2,2.2,2.2h21.1c1.2,0,2.2-1,2.2-2.2v-24.8
			C86.1,239.9,85.1,238.9,83.9,238.9z"/>
		<path d="M81,239.7c0-0.3-0.1-0.5-0.1-0.8c-0.3-0.8-1.1-1.4-2-1.4h-2.6v-0.9c0-1.2-1-2.1-2.1-2.1h-1.7c-1.2,0-2.1,1-2.1,2.1v0.9
			h-2.6c-0.9,0-1.7,0.6-2,1.4c-0.1,0.2-0.1,0.5-0.1,0.8v2.1H81V239.7z M74.4,238.9v0.7h-2.2v-0.7v-1.5h2.2V238.9z"/>
		<path d="M71.4,261.5l9.6-12.3c0.2-0.2,0.1-0.5-0.1-0.6l-1.6-1.3c-0.2-0.2-0.5-0.1-0.6,0.1l-7.2,9.6l-3.7-4
			c-0.2-0.2-0.4-0.2-0.6-0.1l-1.6,1.4c-0.2,0.2-0.2,0.4,0,0.6L71.4,261.5z"/>
	</g>
</g>
</svg>
