<?xml version="1.0" encoding="utf-8"?>
<!-- Generator: Adobe Illustrator 19.2.0, SVG Export Plug-In . SVG Version: 6.00 Build 0)  -->
<svg version="1.1" id="Layer_1" xmlns="http://www.w3.org/2000/svg" xmlns:xlink="http://www.w3.org/1999/xlink" x="0px" y="0px"
	 width="129.2px" height="329.2px" viewBox="0 0 129.2 329.2" style="enable-background:new 0 0 129.2 329.2;" xml:space="preserve"
	>
<g id="Layer_2">
</g>
<g>
	
		<line style="fill:none;stroke:#DEDEDE;stroke-width:4;stroke-linecap:round;stroke-linejoin:round;stroke-miterlimit:10;" x1="21.5" y1="6" x2="22.5" y2="272.2"/>
</g>
<g>
	<path d="M49.9,323.7h-5.5v-9.8h5.3v1.4H46v2.8h3.4v1.4H46v2.9h3.9V323.7z"/>
	<path d="M59.3,313.9l-3.5,9.8h-1.8l-3.4-9.8h1.8l2.4,7.4c0.1,0.2,0.1,0.5,0.2,0.8h0c0-0.3,0.1-0.5,0.2-0.8l2.5-7.4H59.3z"/>
	<path d="M66,323.7h-5.5v-9.8h5.3v1.4h-3.6v2.8h3.4v1.4h-3.4v2.9H66V323.7z"/>
	<path d="M76,323.7h-1.8l-4.7-7.2c-0.1-0.2-0.2-0.4-0.3-0.6h0c0,0.2,0.1,0.7,0.1,1.3v6.4h-1.6v-9.8h1.9l4.5,7
		c0.2,0.3,0.3,0.5,0.4,0.6h0c0-0.3-0.1-0.7-0.1-1.3v-6.3H76V323.7z"/>
	<path d="M84.7,315.3h-2.8v8.4h-1.6v-8.4h-2.8v-1.4h7.2V315.3z"/>
	<path d="M97.8,323.7h-1.6v-4.2h-4.6v4.2H90v-9.8h1.6v4.1h4.6v-4.1h1.6V323.7z"/>
	<path d="M107.7,319.7c0,2.7-1.3,4.1-3.9,4.1c-2.5,0-3.7-1.3-3.7-4v-6h1.6v5.6c0,1.9,0.7,2.9,2.2,2.9c1.4,0,2.1-0.9,2.1-2.8v-5.7
		h1.6V319.7z"/>
	<path d="M110,323.7v-9.8h3.1c0.9,0,1.7,0.2,2.2,0.6c0.6,0.4,0.8,0.9,0.8,1.6c0,0.6-0.2,1-0.5,1.4c-0.3,0.4-0.7,0.7-1.3,0.9v0
		c0.7,0.1,1.2,0.3,1.6,0.7s0.6,1,0.6,1.6c0,0.8-0.3,1.5-1,2c-0.7,0.5-1.5,0.8-2.5,0.8H110z M111.6,315.2v2.8h1c0.6,0,1-0.1,1.3-0.4
		c0.3-0.3,0.5-0.6,0.5-1.1c0-0.8-0.6-1.3-1.7-1.3H111.6z M111.6,319.3v3.1h1.4c0.6,0,1.1-0.1,1.4-0.4c0.3-0.3,0.5-0.7,0.5-1.2
		c0-1-0.7-1.5-2.1-1.5H111.6z"/>
	<path d="M118,323.3v-1.7c0.1,0.1,0.3,0.3,0.5,0.4c0.2,0.1,0.4,0.2,0.7,0.3c0.2,0.1,0.5,0.1,0.7,0.2s0.4,0.1,0.6,0.1
		c0.7,0,1.2-0.1,1.5-0.3s0.5-0.6,0.5-1c0-0.2-0.1-0.4-0.2-0.6s-0.3-0.3-0.5-0.5s-0.4-0.3-0.7-0.4c-0.3-0.1-0.6-0.3-0.9-0.4
		c-0.3-0.2-0.6-0.4-0.9-0.5c-0.3-0.2-0.5-0.4-0.7-0.6c-0.2-0.2-0.4-0.5-0.5-0.7c-0.1-0.3-0.2-0.6-0.2-1c0-0.5,0.1-0.9,0.3-1.2
		s0.5-0.6,0.8-0.8c0.3-0.2,0.7-0.4,1.2-0.5c0.4-0.1,0.9-0.2,1.3-0.2c1,0,1.8,0.1,2.2,0.3v1.6c-0.6-0.4-1.3-0.6-2.1-0.6
		c-0.2,0-0.5,0-0.7,0.1c-0.2,0-0.5,0.1-0.6,0.2c-0.2,0.1-0.3,0.2-0.5,0.4c-0.1,0.2-0.2,0.4-0.2,0.6c0,0.2,0,0.4,0.1,0.6
		c0.1,0.2,0.2,0.3,0.4,0.4c0.2,0.1,0.4,0.3,0.6,0.4c0.3,0.1,0.5,0.3,0.9,0.4c0.3,0.2,0.7,0.4,1,0.6c0.3,0.2,0.6,0.4,0.8,0.6
		c0.2,0.2,0.4,0.5,0.5,0.8c0.1,0.3,0.2,0.6,0.2,1c0,0.5-0.1,0.9-0.3,1.3c-0.2,0.3-0.5,0.6-0.8,0.8c-0.3,0.2-0.7,0.4-1.2,0.5
		s-0.9,0.1-1.4,0.1c-0.2,0-0.4,0-0.6,0s-0.5-0.1-0.7-0.1c-0.2,0-0.5-0.1-0.7-0.2C118.3,323.4,118.1,323.4,118,323.3z"/>
</g>
<g>
	<path style="fill-rule:evenodd;clip-rule:evenodd;" d="M88,265.2c0-0.5-0.4-0.8-0.8-0.8h-6.3c-0.5,0-0.8,0.4-0.8,0.8v4.6
		c0,0.5,0.4,0.8,0.8,0.8h6.3c0.5,0,0.8-0.4,0.8-0.8V265.2z"/>
	<path style="fill-rule:evenodd;clip-rule:evenodd;" d="M98.6,269.3h-6.3c-0.5,0-0.8,0.4-0.8,0.8v4.6c0,0.5,0.4,0.8,0.8,0.8h6.2
		c0.5,0,0.8-0.4,0.8-0.8h0.1v-4.6C99.4,269.6,99.1,269.3,98.6,269.3z"/>
	<path style="fill-rule:evenodd;clip-rule:evenodd;" d="M87.1,274.2h-6.3c-0.5,0-0.8,0.4-0.8,0.8v4.6c0,0.5,0.4,0.8,0.8,0.8h6.3
		c0.5,0,0.8-0.4,0.8-0.8V275C88,274.5,87.6,274.2,87.1,274.2z"/>
	<path style="fill-rule:evenodd;clip-rule:evenodd;" d="M76.7,260.1c0-0.5-0.4-0.8-1-0.8h-6.3c-0.5,0-0.8,0.4-0.8,0.8v4.9
		c0,0.5,0.4,0.8,0.8,0.8h6.4c0.5,0,0.8-0.4,0.8-0.8V260.1z"/>
	<path style="fill-rule:evenodd;clip-rule:evenodd;" d="M64.5,259.4c0.5,0,0.8-0.4,0.8-0.8v-4h33.9v4c0,0.5,0.4,0.8,1,0.8h4.6
		c0.5,0,0.8-0.4,0.8-0.8v-9.6c0.1-0.5-0.2-0.8-0.7-0.8H59.7c-0.5,0-0.8,0.4-0.8,0.8v9.6c0,0.5,0.4,0.8,0.8,0.8H64.5z"/>
	<path style="fill-rule:evenodd;clip-rule:evenodd;" d="M105,285.3h-4.6c-0.5,0-0.8,0.4-0.8,0.8v3.9h-34v-4c0-0.5-0.4-0.8-1-0.8
		h-4.6c-0.5,0-0.8,0.4-0.8,1v9.5c0,0.5,0.4,0.8,0.8,0.8h45.2c0.5,0,0.8-0.4,0.8-0.8v-9.5C105.8,285.7,105.5,285.3,105,285.3z"/>
	<path style="fill-rule:evenodd;clip-rule:evenodd;" d="M76.7,270c0-0.5-0.4-0.8-0.8-0.8h-6.3c-0.5,0-0.8,0.4-0.8,0.8v4.6
		c0,0.5,0.4,0.8,0.8,0.8h6.3c0.5,0,0.8-0.4,0.8-0.8V270z"/>
	<path style="fill-rule:evenodd;clip-rule:evenodd;" d="M75.7,278.9h-6.3c-0.5,0-0.8,0.4-0.8,0.8v4.6c0,0.5,0.4,0.8,0.8,0.8h6.3
		c0.5,0,0.8-0.4,0.8-0.8v-4.6C76.6,279.3,76.2,278.9,75.7,278.9z"/>
</g>
<g>
	
		<line style="fill:none;stroke:#DEDEDE;stroke-width:4;stroke-linecap:round;stroke-linejoin:round;stroke-miterlimit:10;" x1="22.5" y1="272.2" x2="34.4" y2="272.2"/>
	
		<circle style="fill:none;stroke:#DEDEDE;stroke-width:4;stroke-linecap:round;stroke-linejoin:round;stroke-miterlimit:10;" cx="39.9" cy="272.2" r="5"/>
</g>
</svg>
