<?xml version="1.0" encoding="utf-8"?>
<!-- Generator: Adobe Illustrator 19.2.0, SVG Export Plug-In . SVG Version: 6.00 Build 0)  -->
<svg version="1.1" id="Layer_2_1_" xmlns="http://www.w3.org/2000/svg" xmlns:xlink="http://www.w3.org/1999/xlink" x="0px" y="0px"
	 width="94px" height="329.2px" viewBox="0 0 94 329.2" style="enable-background:new 0 0 94 329.2;" xml:space="preserve">
<g>
	
		<line style="fill:none;stroke:#DEDEDE;stroke-width:4;stroke-linecap:round;stroke-linejoin:round;stroke-miterlimit:10;" x1="48.3" y1="-68.2" x2="48.3" y2="202.9"/>
	
		<circle style="fill:none;stroke:#DEDEDE;stroke-width:4;stroke-linecap:round;stroke-linejoin:round;stroke-miterlimit:10;" cx="48.3" cy="208.4" r="5"/>
</g>
<g>
	<g>
		<path d="M9.4,306v-9.8h2.8c3.6,0,5.4,1.6,5.4,4.8c0,1.5-0.5,2.7-1.5,3.6s-2.3,1.4-4,1.4H9.4z M11,297.6v7h1.3c1.1,0,2-0.3,2.7-0.9
			c0.6-0.6,0.9-1.5,0.9-2.7c0-2.3-1.2-3.4-3.5-3.4H11z"/>
		<path d="M23.4,306.1c-1.4,0-2.5-0.5-3.4-1.4c-0.8-0.9-1.3-2.1-1.3-3.6c0-1.6,0.4-2.8,1.3-3.8c0.9-0.9,2-1.4,3.5-1.4
			c1.4,0,2.5,0.5,3.3,1.4s1.3,2.1,1.3,3.6c0,1.6-0.4,2.8-1.3,3.8C26,305.7,24.8,306.1,23.4,306.1z M23.5,297.5c-0.9,0-1.6,0.3-2.2,1
			s-0.8,1.5-0.8,2.6s0.3,2,0.8,2.6c0.5,0.7,1.3,1,2.1,1c0.9,0,1.7-0.3,2.2-0.9s0.8-1.5,0.8-2.6c0-1.2-0.3-2.1-0.8-2.7
			S24.4,297.5,23.5,297.5z"/>
		<path d="M36.7,305.6c-0.7,0.4-1.6,0.6-2.7,0.6c-1.4,0-2.5-0.4-3.4-1.3s-1.3-2.1-1.3-3.5c0-1.6,0.5-2.8,1.4-3.8s2.2-1.4,3.6-1.4
			c0.9,0,1.7,0.1,2.3,0.4v1.6c-0.7-0.4-1.4-0.6-2.2-0.6c-1.1,0-1.9,0.3-2.6,1c-0.7,0.7-1,1.6-1,2.7s0.3,1.9,0.9,2.6
			c0.6,0.6,1.4,1,2.4,1c0.9,0,1.7-0.2,2.4-0.7v1.4H36.7z"/>
		<path d="M46,302c0,2.7-1.3,4.1-3.9,4.1c-2.5,0-3.7-1.3-3.7-4v-6H40v5.6c0,1.9,0.7,2.9,2.2,2.9c1.4,0,2.1-0.9,2.1-2.8v-5.7H46V302z
			"/>
		<path d="M58.8,306h-1.6v-6.3c0-0.5,0-1.1,0.1-1.9l0,0c-0.1,0.4-0.2,0.7-0.3,0.9l-2.9,7.3H53l-2.9-7.2c-0.1-0.2-0.2-0.5-0.3-1l0,0
			c0,0.4,0.1,1,0.1,1.9v6.3h-1.5v-9.8h2.3l2.6,6.5c0.2,0.5,0.3,0.9,0.4,1.1l0,0c0.2-0.5,0.3-0.9,0.4-1.1l2.6-6.5h2.2L58.8,306
			L58.8,306z"/>
		<path d="M66.7,306h-5.5v-9.8h5.3v1.4h-3.6v2.8h3.4v1.4h-3.4v2.9h3.9v1.3H66.7z"/>
		<path d="M76.7,306h-1.8l-4.7-7.2c-0.1-0.2-0.2-0.4-0.3-0.6l0,0c0,0.2,0.1,0.7,0.1,1.3v6.4h-1.6v-9.8h1.9l4.5,7
			c0.2,0.3,0.3,0.5,0.4,0.6l0,0c0-0.3-0.1-0.7-0.1-1.3v-6.3h1.6V306z"/>
		<path d="M85.4,297.6h-2.8v8.4H81v-8.4h-2.8v-1.4h7.2C85.4,296.2,85.4,297.6,85.4,297.6z"/>
		<path d="M40.8,322.7v-9.8h2.8c3.6,0,5.4,1.6,5.4,4.8c0,1.5-0.5,2.7-1.5,3.6s-2.3,1.4-4,1.4H40.8z M42.4,314.3v7h1.3
			c1.1,0,2-0.3,2.7-0.9c0.6-0.6,0.9-1.5,0.9-2.7c0-2.3-1.2-3.4-3.5-3.4H42.4z"/>
		<path d="M50.8,322.7v-9.8h3.1c0.9,0,1.7,0.2,2.2,0.6c0.6,0.4,0.8,0.9,0.8,1.6c0,0.6-0.2,1-0.5,1.4s-0.7,0.7-1.3,0.9l0,0
			c0.7,0.1,1.2,0.3,1.6,0.7c0.4,0.4,0.6,1,0.6,1.6c0,0.8-0.3,1.5-1,2s-1.5,0.8-2.5,0.8h-3V322.7z M52.4,314.2v2.8h1
			c0.6,0,1-0.1,1.3-0.4s0.5-0.6,0.5-1.1c0-0.8-0.6-1.3-1.7-1.3H52.4z M52.4,318.3v3.1h1.4c0.6,0,1.1-0.1,1.4-0.4
			c0.3-0.3,0.5-0.7,0.5-1.2c0-1-0.7-1.5-2.1-1.5H52.4z"/>
	</g>
	<path d="M48.8,238.4c-10.2,0-18.4,3.4-18.4,7.1V279c0,3.7,8.3,7.2,18.4,7.2c10.2,0,18.4-3.3,18.4-7.1v-33.5
		C67.2,242,58.9,238.4,48.8,238.4z M43.5,259.7c-1.2,0-1.8-0.4-1.8,1v2.6c0,1.9-0.3,3.1-1.6,3.5v0.1c1.4,0.5,1.6,2,1.6,4.4v3
		c0,1,0.1,1,0.4,1.4s0.7,0.4,1.4,0.4v2.6c-1.9,0-3.3-0.4-4.1-1.1s-1.2-2-1.2-3.9v-3.3c0-1.8-0.7-1.8-1.8-1.8v-3.4
		c1.2,0,1.8,0,1.8-1.5V261c0-1.6,0.4-2.7,1.2-3.3c0.8-0.7,2.2-1,4.1-1C43.5,256.7,43.5,259.7,43.5,259.7z M61.6,265.9v2.7
		c-1.2,0-1.8,0-1.8,1.8v3.1c0,1.9-0.4,3.3-1.2,4.1c-0.8,0.7-2.2,1.1-4.2,1.1v-2.6c0.5,0,1.1-0.1,1.4-0.4c0.3-0.4,0.4-0.4,0.4-1.4v-3
		c0-2.3,0.4-3.7,1.8-4.4v-0.1c-1.4-0.4-1.8-1.6-1.8-3.7v-2.5c0-1.4-0.7-1-1.8-1v-2.9c1.9,0,3.3,0.4,4.1,1c0.8,0.7,1.4,1.8,1.4,3.3
		v2.6c0,1.5,0.5,1.4,1.8,1.4v0.9H61.6z M48.8,248.8c-7.2,0-13.1-1.8-13.1-3.9s5.9-3.9,13.1-3.9s13.1,1.8,13.1,3.9
		C61.9,247.1,56,248.8,48.8,248.8z"/>
</g>
</svg>
