<?xml version="1.0" encoding="utf-8"?>
<!-- Generator: Adobe Illustrator 19.2.0, SVG Export Plug-In . SVG Version: 6.00 Build 0)  -->
<svg version="1.1" id="Layer_1" xmlns="http://www.w3.org/2000/svg" xmlns:xlink="http://www.w3.org/1999/xlink" x="0px" y="0px"
	 width="960px" height="428px" viewBox="0 0 960 428" style="enable-background:new 0 0 960 428;" xml:space="preserve">
<polyline style="fill:none;stroke:#686868;stroke-width:3;stroke-linecap:round;stroke-linejoin:round;stroke-miterlimit:10;" points="
	656.4,393.7 656.4,407.9 281.9,407.9 281.9,393.7 "/>
<line style="fill:none;stroke:#686868;stroke-width:3;stroke-linecap:round;stroke-linejoin:round;stroke-miterlimit:10;" x1="469.2" y1="407.9" x2="469.2" y2="424.7"/>
<path style="fill:#FFFFFF;stroke:#686868;stroke-width:3;stroke-linecap:round;stroke-linejoin:round;" d="M331,291.6l-47.9,4.4
	c-2.5,0.2-4.8-1.7-5-4.2l-7.9-86.9c-0.2-2.5,1.7-4.8,4.2-5l47.9-4.4c2.5-0.2,4.8,1.7,5,4.2l7.9,86.9
	C335.4,289.1,333.6,291.4,331,291.6z"/>
<ellipse transform="matrix(0.9959 -9.085941e-002 9.085941e-002 0.9959 -24.3849 28.9721)" style="fill:#FFFFFF;stroke:#686868;stroke-width:2;stroke-linecap:round;stroke-linejoin:round;" cx="306" cy="282.3" rx="4.6" ry="4.6"/>
<g>
	<path style="fill:#686868;" d="M314.8,236c-1.4-1.2-3.1-2.4-5.6-2.1c-1.7,0.2-3,1.9-5.5,2.2c-1.9,0.2-2.9-1.2-5-1
		c-4.3,0.5-8.3,4.4-7.8,9c0.3,2.4,1.5,6,3.8,9.1c1.7,2.2,3.6,3.6,5.5,3.4c1.4-0.1,3-1.6,5-1.8c1.7-0.2,3.5,0.9,5.1,0.7
		c3.8-0.4,6.8-5.2,6.5-8.2c0-0.1-0.1-0.3-0.1-0.4v-0.2c-2.6-1-4.1-2.6-4.4-5.1C312.2,239.3,313,237.4,314.8,236L314.8,236L314.8,236
		L314.8,236z"/>
	<path style="fill:#686868;" d="M303.7,234.4c2.8-1.1,5.1-3.3,4.7-6.6c0-0.3-0.1-0.6-0.2-1l-0.1-0.1c-2.8,1-5.2,3.3-4.8,6.5
		c0,0.3,0.2,0.7,0.3,1.1L303.7,234.4L303.7,234.4L303.7,234.4z"/>
</g>
<path style="fill:#FFFFFF;stroke:#686868;stroke-width:3;stroke-linecap:round;stroke-linejoin:round;" d="M399.6,269.9l-46.3-13
	c-2.4-0.7-3.9-3.3-3.2-5.7l23.5-84.1c0.7-2.4,3.3-3.9,5.7-3.2l46.3,13c2.4,0.7,3.9,3.3,3.2,5.7l-23.5,84.1
	C404.6,269.2,402.1,270.6,399.6,269.9z"/>
<ellipse transform="matrix(0.2697 -0.9629 0.9629 0.2697 34.2925 549.7559)" style="fill:#FFFFFF;stroke:#686868;stroke-width:2;stroke-linecap:round;stroke-linejoin:round;" cx="379.6" cy="252.3" rx="4.6" ry="4.6"/>
<g>
	<path style="fill:#686868;" d="M377.8,216.5c-0.3,1-1.4,1.6-2.5,1.3s-1.7-1.4-1.5-2.4l2.5-9.1c0.3-1,1.4-1.6,2.5-1.3
		s1.7,1.4,1.5,2.4L377.8,216.5L377.8,216.5L377.8,216.5z"/>
	<path style="fill:#686868;" d="M405.3,224.1c-0.3,1-1.4,1.6-2.5,1.3s-1.7-1.4-1.5-2.4l2.5-9.1c0.3-1,1.4-1.6,2.5-1.3
		s1.7,1.4,1.5,2.4L405.3,224.1L405.3,224.1L405.3,224.1z"/>
	<path style="fill:#686868;" d="M382.8,206.1l-3.7,13.5c-0.4,1.5,0.5,3.1,2.1,3.5l1.3,0.4l-1.3,4.6c-0.3,1,0.3,2,1.4,2.3
		c1,0.3,2.1-0.3,2.4-1.3l1.3-4.6l3.9,1.1l-1.3,4.6c-0.3,1,0.3,2,1.4,2.3c1,0.3,2.1-0.3,2.4-1.3l1.3-4.6l1.8,0.5
		c1.6,0.4,2.6-0.6,3-2.1l3.7-13.5L382.8,206.1L382.8,206.1L382.8,206.1z"/>
	<path style="fill:#686868;" d="M403.8,209.8c0,0,0.1-0.1,0.1-0.3c1.3-4.8-2.4-9.9-8.3-11.6c-5.9-1.6-11.7,0.9-13,5.7
		c0,0.2-0.1,0.3,0,0.3L403.8,209.8L403.8,209.8L403.8,209.8z"/>
	<path style="fill:#686868;" d="M391.1,200.1c0.1,0.3-0.1,0.5-0.4,0.6s-0.6-0.1-0.6-0.4l-1.7-5.6c-0.1-0.3,0.1-0.5,0.4-0.6
		s0.6,0.1,0.6,0.4L391.1,200.1L391.1,200.1L391.1,200.1z"/>
	<path style="fill:#686868;" d="M398.5,202.1c-0.2,0.2-0.2,0.5,0,0.7s0.5,0.2,0.7,0l4.3-3.9c0.2-0.2,0.2-0.5,0-0.7s-0.5-0.2-0.7,0
		L398.5,202.1L398.5,202.1L398.5,202.1z"/>
	<path style="fill:#686868;" d="M390.5,201.4c-0.1,0.5-0.7,0.8-1.2,0.6s-0.9-0.7-0.7-1.1c0.1-0.5,0.7-0.8,1.2-0.6
		C390.3,200.4,390.7,200.9,390.5,201.4L390.5,201.4z"/>
	<path style="fill:#686868;" d="M400.3,204.1c0.1-0.5-0.2-1-0.7-1.1s-1.1,0.1-1.2,0.6s0.2,1,0.7,1.1S400.2,204.6,400.3,204.1
		L400.3,204.1z"/>
</g>
<path style="fill:#FFFFFF;stroke:#686868;stroke-width:3;stroke-linecap:round;stroke-linejoin:round;" d="M660,277.8H522.2
	c-2.6,0-4.8-2.2-4.8-4.8v-87.1c0-2.6,2.2-4.8,4.8-4.8H660c2.6,0,4.8,2.2,4.8,4.8V273C664.8,275.7,662.6,277.8,660,277.8z"/>
<path style="fill:#FFFFFF;stroke:#686868;stroke-width:3;stroke-linecap:round;stroke-linejoin:round;" d="M677.8,308.8H504.3
	c-2.8,0-4.3-3.2-2.5-5.3l14.6-17.6c0.6-0.8,1.5-1.2,2.5-1.2h144.3c1,0,1.9,0.4,2.5,1.2l14.6,17.6
	C682.1,305.6,680.6,308.8,677.8,308.8z"/>
<g>
	
		<circle style="fill:#FFFFFF;stroke:#686868;stroke-width:2;stroke-linecap:round;stroke-linejoin:round;" cx="591.9" cy="229.5" r="27.5"/>
	
		<line style="fill:none;stroke:#686868;stroke-width:2;stroke-linecap:round;stroke-linejoin:round;" x1="591.9" y1="202" x2="591.9" y2="256.5"/>
	<path style="fill:#FFFFFF;stroke:#686868;stroke-width:2;stroke-linecap:round;stroke-linejoin:round;" d="M578.9,205.6
		c-6.6,7.1-6.3,41.1,0,47.9"/>
	<path style="fill:#FFFFFF;stroke:#686868;stroke-width:2;stroke-linecap:round;stroke-linejoin:round;" d="M604.7,253.5
		c6.6-7.1,6.3-41.1,0-47.9"/>
	<path style="fill:none;stroke:#686868;stroke-width:2;stroke-linecap:round;stroke-linejoin:round;" d="M615.8,216.7
		c-7.1-6.6-41.1-6.3-47.9,0"/>
	<path style="fill:none;stroke:#686868;stroke-width:2;stroke-linecap:round;stroke-linejoin:round;" d="M567.9,242.5
		c7.1,6.6,41.1,6.3,47.9,0"/>
	
		<line style="fill:none;stroke:#686868;stroke-width:2;stroke-linecap:round;stroke-linejoin:round;" x1="619.1" y1="229.3" x2="564.5" y2="229.3"/>
</g>
<path style="fill:#FFFFFF;stroke:#686868;stroke-width:3;stroke-linecap:round;stroke-linejoin:round;" d="M372.3,322.2h-48.1
	c-2.5,0-4.6-2.1-4.6-4.6v-87.3c0-2.5,2.1-4.6,4.6-4.6h48.1c2.5,0,4.6,2.1,4.6,4.6v87.3C376.9,320.1,374.9,322.2,372.3,322.2z"/>
<circle style="fill:#FFFFFF;stroke:#686868;stroke-width:2;stroke-linecap:round;stroke-linejoin:round;" cx="348.3" cy="310.6" r="4.6"/>
<g>
	<polygon style="fill:#686868;" points="346.7,270.6 362.1,270.6 362.1,256.9 346.7,259.1 346.7,270.6 	"/>
	<polygon style="fill:#686868;" points="346.2,270.6 346.2,259.1 334.4,260.8 334.4,270.6 346.2,270.6 	"/>
	<polygon style="fill:#686868;" points="346.7,271 346.7,282.5 362.1,284.7 362.1,271 346.7,271 	"/>
	<polygon style="fill:#686868;" points="346.2,271 334.4,271 334.4,280.8 346.2,282.4 346.2,271 	"/>
</g>
<g>
	<g>
		<path style="fill:#FFFFFF;stroke:#686868;stroke-width:3;stroke-linecap:round;stroke-linejoin:round;" d="M560.8,68.2
			c-3.2,20.1-22.1,33.7-42.1,30.5S485,76.6,488.2,56.6c0.8-5.1,2.7-9.8,5.3-14C498,35.4,505,30.1,513,27.4
			c5.4-1.8,11.3-2.3,17.3-1.4C550.4,29.3,564,48.1,560.8,68.2z"/>
		<path style="fill:#FFFFFF;stroke:#686868;stroke-width:3;stroke-linecap:round;stroke-linejoin:round;" d="M554.2,67.1
			c-2.6,16.4-18.1,27.6-34.5,25c-16.4-2.6-27.6-18.1-25-34.5c0.7-4.2,2.2-8.1,4.3-11.4c3.7-5.9,9.4-10.2,16-12.4
			c4.4-1.5,9.3-1.9,14.2-1.1C545.7,35.3,556.9,50.7,554.2,67.1z"/>
	</g>
	<g>
		<path style="fill:#686868;" d="M492.4,121.2h-1.8l-0.9-2.5h-3.8l-0.8,2.5h-1.8l3.7-9.8h1.8L492.4,121.2z M489.3,117.4l-1.4-3.9
			c0-0.1-0.1-0.3-0.1-0.6l0,0c0,0.3-0.1,0.5-0.1,0.6l-1.3,3.9H489.3z"/>
		<path style="fill:#686868;" d="M495.4,117.7v3.5h-1.6v-9.8h3c1.1,0,2,0.3,2.6,0.8s0.9,1.3,0.9,2.2s-0.3,1.7-1,2.3
			s-1.5,0.9-2.6,0.9L495.4,117.7L495.4,117.7z M495.4,112.8v3.6h1c0.7,0,1.2-0.2,1.6-0.5s0.5-0.8,0.5-1.4c0-1.1-0.7-1.7-2-1.7H495.4
			z"/>
		<path style="fill:#686868;" d="M503.5,117.7v3.5h-1.6v-9.8h3c1.1,0,2,0.3,2.6,0.8s0.9,1.3,0.9,2.2s-0.3,1.7-1,2.3
			s-1.5,0.9-2.6,0.9L503.5,117.7L503.5,117.7z M503.5,112.8v3.6h1c0.7,0,1.2-0.2,1.6-0.5s0.5-0.8,0.5-1.4c0-1.1-0.7-1.7-2-1.7H503.5
			z"/>
		<path style="fill:#686868;" d="M520.1,112.9h-2.8v8.4h-1.6v-8.4h-2.8v-1.4h7.2L520.1,112.9L520.1,112.9z"/>
		<path style="fill:#686868;" d="M527,121.2h-5.5v-9.8h5.3v1.4h-3.6v2.8h3.4v1.4h-3.4v2.9h3.9v1.3H527z"/>
		<path style="fill:#686868;" d="M528.3,120.8v-1.7c0.1,0.1,0.3,0.3,0.5,0.4s0.4,0.2,0.7,0.3c0.2,0.1,0.5,0.1,0.7,0.2
			c0.2,0,0.4,0.1,0.6,0.1c0.7,0,1.2-0.1,1.5-0.3c0.3-0.2,0.5-0.6,0.5-1c0-0.2-0.1-0.4-0.2-0.6s-0.3-0.3-0.5-0.5s-0.4-0.3-0.7-0.4
			s-0.6-0.3-0.9-0.4c-0.3-0.2-0.6-0.4-0.9-0.5c-0.3-0.2-0.5-0.4-0.7-0.6s-0.4-0.5-0.5-0.7c-0.1-0.3-0.2-0.6-0.2-1
			c0-0.5,0.1-0.9,0.3-1.2c0.2-0.3,0.5-0.6,0.8-0.8c0.3-0.2,0.7-0.4,1.2-0.5s0.9-0.2,1.3-0.2c1,0,1.8,0.1,2.2,0.3v1.6
			c-0.6-0.4-1.3-0.6-2.1-0.6c-0.2,0-0.5,0-0.7,0.1c-0.2,0-0.5,0.1-0.6,0.2s-0.3,0.2-0.5,0.4c-0.1,0.2-0.2,0.4-0.2,0.6s0,0.4,0.1,0.6
			s0.2,0.3,0.4,0.4s0.4,0.3,0.6,0.4c0.3,0.1,0.5,0.3,0.9,0.4c0.3,0.2,0.7,0.4,1,0.6s0.6,0.4,0.8,0.6s0.4,0.5,0.5,0.8s0.2,0.6,0.2,1
			c0,0.5-0.1,0.9-0.3,1.3c-0.2,0.3-0.5,0.6-0.8,0.8s-0.7,0.4-1.2,0.5s-0.9,0.1-1.4,0.1c-0.2,0-0.4,0-0.6,0s-0.5-0.1-0.7-0.1
			s-0.5-0.1-0.7-0.2C528.6,121,528.4,120.9,528.3,120.8z"/>
		<path style="fill:#686868;" d="M542.6,112.9h-2.8v8.4h-1.6v-8.4h-2.8v-1.4h7.2L542.6,112.9L542.6,112.9z"/>
		<path style="fill:#686868;" d="M549.5,121.2H544v-9.8h5.3v1.4h-3.6v2.8h3.4v1.4h-3.4v2.9h3.9v1.3H549.5z"/>
		<path style="fill:#686868;" d="M558.8,121.2h-1.9l-1.6-2.6c-0.1-0.2-0.3-0.4-0.4-0.6c-0.1-0.2-0.3-0.3-0.4-0.4
			c-0.1-0.1-0.3-0.2-0.5-0.2s-0.3-0.1-0.6-0.1h-0.7v4h-1.6v-9.8h3.2c0.5,0,0.9,0.1,1.3,0.2c0.4,0.1,0.7,0.3,1,0.5s0.5,0.5,0.7,0.8
			s0.2,0.7,0.2,1.2c0,0.3-0.1,0.7-0.2,0.9c-0.1,0.3-0.2,0.5-0.4,0.8c-0.2,0.2-0.4,0.4-0.7,0.6s-0.6,0.3-0.9,0.4l0,0
			c0.2,0.1,0.3,0.2,0.5,0.3c0.1,0.1,0.3,0.2,0.4,0.4c0.1,0.1,0.2,0.3,0.3,0.4c0.1,0.2,0.2,0.3,0.4,0.6L558.8,121.2z M552.8,112.8
			v3.2h1.3c0.2,0,0.5,0,0.7-0.1s0.4-0.2,0.5-0.3s0.3-0.3,0.4-0.5c0.1-0.2,0.1-0.4,0.1-0.7c0-0.5-0.1-0.8-0.4-1.1
			c-0.3-0.3-0.7-0.4-1.3-0.4L552.8,112.8L552.8,112.8z"/>
		<path style="fill:#686868;" d="M559.4,120.8v-1.7c0.1,0.1,0.3,0.3,0.5,0.4s0.4,0.2,0.7,0.3c0.2,0.1,0.5,0.1,0.7,0.2
			c0.2,0,0.4,0.1,0.6,0.1c0.7,0,1.2-0.1,1.5-0.3c0.3-0.2,0.5-0.6,0.5-1c0-0.2-0.1-0.4-0.2-0.6s-0.3-0.3-0.5-0.5s-0.4-0.3-0.7-0.4
			s-0.6-0.3-0.9-0.4c-0.3-0.2-0.6-0.4-0.9-0.5c-0.3-0.2-0.5-0.4-0.7-0.6s-0.4-0.5-0.5-0.7c-0.1-0.3-0.2-0.6-0.2-1
			c0-0.5,0.1-0.9,0.3-1.2c0.2-0.3,0.5-0.6,0.8-0.8c0.3-0.2,0.7-0.4,1.2-0.5s0.9-0.2,1.3-0.2c1,0,1.8,0.1,2.2,0.3v1.6
			c-0.6-0.4-1.3-0.6-2.1-0.6c-0.2,0-0.5,0-0.7,0.1c-0.2,0-0.5,0.1-0.6,0.2s-0.3,0.2-0.5,0.4c-0.1,0.2-0.2,0.4-0.2,0.6s0,0.4,0.1,0.6
			s0.2,0.3,0.4,0.4s0.4,0.3,0.6,0.4c0.3,0.1,0.5,0.3,0.9,0.4c0.3,0.2,0.7,0.4,1,0.6s0.6,0.4,0.8,0.6s0.4,0.5,0.5,0.8s0.2,0.6,0.2,1
			c0,0.5-0.1,0.9-0.3,1.3c-0.2,0.3-0.5,0.6-0.8,0.8s-0.7,0.4-1.2,0.5s-0.9,0.1-1.4,0.1c-0.2,0-0.4,0-0.6,0s-0.5-0.1-0.7-0.1
			s-0.5-0.1-0.7-0.2C559.8,121,559.6,120.9,559.4,120.8z"/>
	</g>
	<g>
		<path style="fill:#686868;" d="M513.1,77.2c0-7.6,5.2-13.8,11.6-13.8c6.4,0,11.6,6.2,11.6,13.8H513.1z"/>
		<circle style="fill:#686868;" cx="524.7" cy="54.7" r="7.1"/>
	</g>
</g>
<g>
	<g>
		<path style="fill:#FFFFFF;stroke:#686868;stroke-width:3;stroke-linecap:round;stroke-linejoin:round;" d="M676.3,68.2
			c-3.2,20.1-22.1,33.7-42.1,30.5s-33.7-22.1-30.5-42.1c0.8-5.1,2.7-9.8,5.3-14c4.6-7.1,11.5-12.5,19.5-15.1
			c5.4-1.8,11.3-2.3,17.3-1.4C665.8,29.3,679.5,48.1,676.3,68.2z"/>
		<path style="fill:#FFFFFF;stroke:#686868;stroke-width:3;stroke-linecap:round;stroke-linejoin:round;" d="M669.7,67.1
			c-2.6,16.4-18.1,27.6-34.5,25s-27.6-18.1-25-34.5c0.7-4.2,2.2-8.1,4.3-11.4c3.7-5.9,9.4-10.2,16-12.4c4.4-1.5,9.3-1.9,14.2-1.1
			C661.2,35.3,672.3,50.7,669.7,67.1z"/>
	</g>
	<g>
		<path style="fill:#686868;" d="M593.6,121.2h-1.7v-9.8h1.7V121.2z"/>
		<path style="fill:#686868;" d="M602.2,112.9h-2.8v8.4h-1.6v-8.4H595v-1.4h7.2V112.9z"/>
		<path style="fill:#686868;" d="M611.5,121.4c-1.4,0-2.5-0.5-3.4-1.4c-0.8-0.9-1.3-2.1-1.3-3.6c0-1.6,0.4-2.8,1.3-3.8
			c0.9-0.9,2-1.4,3.5-1.4c1.4,0,2.5,0.5,3.3,1.4s1.3,2.1,1.3,3.6c0,1.6-0.4,2.8-1.3,3.8S612.9,121.4,611.5,121.4z M611.6,112.7
			c-0.9,0-1.6,0.3-2.2,1s-0.8,1.5-0.8,2.6s0.3,2,0.8,2.6c0.5,0.7,1.3,1,2.1,1c0.9,0,1.7-0.3,2.2-0.9s0.8-1.5,0.8-2.6
			c0-1.2-0.3-2.1-0.8-2.7S612.5,112.7,611.6,112.7z"/>
		<path style="fill:#686868;" d="M619.6,117.7v3.5H618v-9.8h3c1.1,0,2,0.3,2.6,0.8s0.9,1.3,0.9,2.2s-0.3,1.7-1,2.3s-1.5,0.9-2.6,0.9
			L619.6,117.7L619.6,117.7z M619.6,112.8v3.6h1c0.7,0,1.2-0.2,1.6-0.5s0.5-0.8,0.5-1.4c0-1.1-0.7-1.7-2-1.7H619.6z"/>
		<path style="fill:#686868;" d="M631.6,121.2h-5.5v-9.8h5.3v1.4h-3.6v2.8h3.4v1.4h-3.4v2.9h3.9v1.3H631.6z"/>
		<path style="fill:#686868;" d="M640.9,121.2H639l-1.6-2.6c-0.1-0.2-0.3-0.4-0.4-0.6c-0.1-0.2-0.3-0.3-0.4-0.4
			c-0.1-0.1-0.3-0.2-0.5-0.2s-0.3-0.1-0.6-0.1H635v4h-1.6v-9.8h3.2c0.5,0,0.9,0.1,1.3,0.2c0.4,0.1,0.7,0.3,1,0.5s0.5,0.5,0.7,0.8
			s0.2,0.7,0.2,1.2c0,0.3-0.1,0.7-0.2,0.9c-0.1,0.3-0.2,0.5-0.4,0.8c-0.2,0.2-0.4,0.4-0.7,0.6s-0.6,0.3-0.9,0.4l0,0
			c0.2,0.1,0.3,0.2,0.5,0.3c0.1,0.1,0.3,0.2,0.4,0.4c0.1,0.1,0.2,0.3,0.3,0.4c0.1,0.2,0.2,0.3,0.4,0.6L640.9,121.2z M635,112.8v3.2
			h1.3c0.2,0,0.5,0,0.7-0.1s0.4-0.2,0.5-0.3s0.3-0.3,0.4-0.5c0.1-0.2,0.1-0.4,0.1-0.7c0-0.5-0.1-0.8-0.4-1.1
			c-0.3-0.3-0.7-0.4-1.3-0.4L635,112.8L635,112.8z"/>
		<path style="fill:#686868;" d="M650,121.2h-1.8l-0.9-2.5h-3.8l-0.8,2.5h-1.8l3.7-9.8h1.8L650,121.2z M646.9,117.4l-1.4-3.9
			c0-0.1-0.1-0.3-0.1-0.6l0,0c0,0.3-0.1,0.5-0.1,0.6l-1.3,3.9H646.9z"/>
		<path style="fill:#686868;" d="M656.6,112.9h-2.8v8.4h-1.6v-8.4h-2.8v-1.4h7.2L656.6,112.9L656.6,112.9z"/>
		<path style="fill:#686868;" d="M659.7,121.2H658v-9.8h1.7V121.2z"/>
		<path style="fill:#686868;" d="M666.1,121.4c-1.4,0-2.5-0.5-3.4-1.4c-0.8-0.9-1.3-2.1-1.3-3.6c0-1.6,0.4-2.8,1.3-3.8
			c0.9-0.9,2-1.4,3.5-1.4c1.4,0,2.5,0.5,3.3,1.4s1.3,2.1,1.3,3.6c0,1.6-0.4,2.8-1.3,3.8S667.6,121.4,666.1,121.4z M666.2,112.7
			c-0.9,0-1.6,0.3-2.2,1s-0.8,1.5-0.8,2.6s0.3,2,0.8,2.6c0.5,0.7,1.3,1,2.1,1c0.9,0,1.7-0.3,2.2-0.9s0.8-1.5,0.8-2.6
			c0-1.2-0.3-2.1-0.8-2.7S667.1,112.7,666.2,112.7z"/>
		<path style="fill:#686868;" d="M680.9,121.2h-1.8l-4.7-7.2c-0.1-0.2-0.2-0.4-0.3-0.6l0,0c0,0.2,0.1,0.7,0.1,1.3v6.4h-1.6v-9.8h1.9
			l4.5,7c0.2,0.3,0.3,0.5,0.4,0.6l0,0c0-0.3-0.1-0.7-0.1-1.3v-6.3h1.6L680.9,121.2L680.9,121.2z"/>
		<path style="fill:#686868;" d="M682.9,120.8v-1.7c0.1,0.1,0.3,0.3,0.5,0.4s0.4,0.2,0.7,0.3c0.2,0.1,0.5,0.1,0.7,0.2
			c0.2,0,0.4,0.1,0.6,0.1c0.7,0,1.2-0.1,1.5-0.3c0.3-0.2,0.5-0.6,0.5-1c0-0.2-0.1-0.4-0.2-0.6s-0.3-0.3-0.5-0.5s-0.4-0.3-0.7-0.4
			s-0.6-0.3-0.9-0.4c-0.3-0.2-0.6-0.4-0.9-0.5c-0.3-0.2-0.5-0.4-0.7-0.6s-0.4-0.5-0.5-0.7c-0.1-0.3-0.2-0.6-0.2-1
			c0-0.5,0.1-0.9,0.3-1.2c0.2-0.3,0.5-0.6,0.8-0.8c0.3-0.2,0.7-0.4,1.2-0.5s0.9-0.2,1.3-0.2c1,0,1.8,0.1,2.2,0.3v1.6
			c-0.6-0.4-1.3-0.6-2.1-0.6c-0.2,0-0.5,0-0.7,0.1c-0.2,0-0.5,0.1-0.6,0.2s-0.3,0.2-0.5,0.4c-0.1,0.2-0.2,0.4-0.2,0.6s0,0.4,0.1,0.6
			s0.2,0.3,0.4,0.4s0.4,0.3,0.6,0.4c0.3,0.1,0.5,0.3,0.9,0.4c0.3,0.2,0.7,0.4,1,0.6s0.6,0.4,0.8,0.6s0.4,0.5,0.5,0.8s0.2,0.6,0.2,1
			c0,0.5-0.1,0.9-0.3,1.3c-0.2,0.3-0.5,0.6-0.8,0.8s-0.7,0.4-1.2,0.5s-0.9,0.1-1.4,0.1c-0.2,0-0.4,0-0.6,0s-0.5-0.1-0.7-0.1
			s-0.5-0.1-0.7-0.2C683.2,121,683,120.9,682.9,120.8z"/>
	</g>
	<g>
		<path style="fill:#686868;" d="M628.6,77.2c0-7.6,5.2-13.8,11.6-13.8s11.6,6.2,11.6,13.8H628.6z"/>
		<circle style="fill:#686868;" cx="640.2" cy="54.7" r="7.1"/>
	</g>
</g>
<g>
	<g>
		<path style="fill:#FFFFFF;stroke:#686868;stroke-width:3;stroke-linecap:round;stroke-linejoin:round;" d="M444.5,68.2
			c-3.2,20.1-22.1,33.7-42.1,30.5c-20.1-3.2-33.7-22.1-30.5-42.1c0.8-5.1,2.7-9.8,5.3-14c4.6-7.1,11.5-12.5,19.5-15.1
			c5.4-1.8,11.3-2.3,17.3-1.4C434,29.3,447.7,48.1,444.5,68.2z"/>
		<path style="fill:#FFFFFF;stroke:#686868;stroke-width:3;stroke-linecap:round;stroke-linejoin:round;" d="M437.9,67.1
			c-2.6,16.4-18.1,27.6-34.5,25s-27.6-18.1-25-34.5c0.7-4.2,2.2-8.1,4.3-11.4c3.7-5.9,9.4-10.2,16-12.4c4.4-1.5,9.3-1.9,14.2-1.1
			C429.3,35.3,440.5,50.7,437.9,67.1z"/>
	</g>
	<g>
		<path style="fill:#686868;" d="M368.7,121.2v-9.8h2.8c3.6,0,5.4,1.6,5.4,4.8c0,1.5-0.5,2.7-1.5,3.6s-2.3,1.4-4,1.4H368.7z
			 M370.3,112.9v7h1.3c1.1,0,2-0.3,2.7-0.9c0.6-0.6,0.9-1.5,0.9-2.7c0-2.3-1.2-3.4-3.5-3.4H370.3z"/>
		<path style="fill:#686868;" d="M384.1,121.2h-5.5v-9.8h5.3v1.4h-3.6v2.8h3.4v1.4h-3.4v2.9h3.9L384.1,121.2L384.1,121.2z"/>
		<path style="fill:#686868;" d="M393.5,111.5l-3.5,9.8h-1.8l-3.4-9.8h1.8l2.4,7.4c0.1,0.2,0.1,0.5,0.2,0.8l0,0
			c0-0.3,0.1-0.5,0.2-0.8l2.5-7.4H393.5z"/>
		<path style="fill:#686868;" d="M400.3,121.2h-5.5v-9.8h5.3v1.4h-3.6v2.8h3.4v1.4h-3.4v2.9h3.9L400.3,121.2L400.3,121.2z"/>
		<path style="fill:#686868;" d="M407.4,121.2H402v-9.8h1.6v8.4h3.8V121.2z"/>
		<path style="fill:#686868;" d="M412.4,121.4c-1.4,0-2.5-0.5-3.4-1.4c-0.8-0.9-1.3-2.1-1.3-3.6c0-1.6,0.4-2.8,1.3-3.8
			c0.9-0.9,2-1.4,3.5-1.4c1.4,0,2.5,0.5,3.3,1.4s1.3,2.1,1.3,3.6c0,1.6-0.4,2.8-1.3,3.8S413.8,121.4,412.4,121.4z M412.5,112.7
			c-0.9,0-1.6,0.3-2.2,1s-0.8,1.5-0.8,2.6s0.3,2,0.8,2.6c0.5,0.7,1.3,1,2.1,1c0.9,0,1.7-0.3,2.2-0.9s0.8-1.5,0.8-2.6
			c0-1.2-0.3-2.1-0.8-2.7S413.4,112.7,412.5,112.7z"/>
		<path style="fill:#686868;" d="M420.5,117.7v3.5h-1.6v-9.8h3c1.1,0,2,0.3,2.6,0.8s0.9,1.3,0.9,2.2s-0.3,1.7-1,2.3
			s-1.5,0.9-2.6,0.9L420.5,117.7L420.5,117.7z M420.5,112.8v3.6h1c0.7,0,1.2-0.2,1.6-0.5s0.5-0.8,0.5-1.4c0-1.1-0.7-1.7-2-1.7H420.5
			z"/>
		<path style="fill:#686868;" d="M432.5,121.2H427v-9.8h5.3v1.4h-3.6v2.8h3.4v1.4h-3.4v2.9h3.9L432.5,121.2L432.5,121.2z"/>
		<path style="fill:#686868;" d="M441.8,121.2h-1.9l-1.6-2.6c-0.1-0.2-0.3-0.4-0.4-0.6s-0.3-0.3-0.4-0.4s-0.3-0.2-0.5-0.2
			s-0.3-0.1-0.6-0.1h-0.7v4h-1.6v-9.8h3.2c0.5,0,0.9,0.1,1.3,0.2s0.7,0.3,1,0.5s0.5,0.5,0.7,0.8s0.2,0.7,0.2,1.2
			c0,0.3-0.1,0.7-0.2,0.9c-0.1,0.3-0.2,0.5-0.4,0.8c-0.2,0.2-0.4,0.4-0.7,0.6c-0.3,0.2-0.6,0.3-0.9,0.4l0,0c0.2,0.1,0.3,0.2,0.5,0.3
			c0.1,0.1,0.3,0.2,0.4,0.4c0.1,0.1,0.2,0.3,0.3,0.4c0.1,0.2,0.2,0.3,0.4,0.6L441.8,121.2z M435.9,112.8v3.2h1.3
			c0.2,0,0.5,0,0.7-0.1s0.4-0.2,0.5-0.3s0.3-0.3,0.4-0.5s0.1-0.4,0.1-0.7c0-0.5-0.1-0.8-0.4-1.1c-0.3-0.3-0.7-0.4-1.3-0.4
			L435.9,112.8L435.9,112.8z"/>
		<path style="fill:#686868;" d="M442.5,120.8v-1.7c0.1,0.1,0.3,0.3,0.5,0.4s0.4,0.2,0.7,0.3c0.2,0.1,0.5,0.1,0.7,0.2
			c0.2,0,0.4,0.1,0.6,0.1c0.7,0,1.2-0.1,1.5-0.3c0.3-0.2,0.5-0.6,0.5-1c0-0.2-0.1-0.4-0.2-0.6s-0.3-0.3-0.5-0.5s-0.4-0.3-0.7-0.4
			c-0.3-0.1-0.6-0.3-0.9-0.4c-0.3-0.2-0.6-0.4-0.9-0.5c-0.3-0.2-0.5-0.4-0.7-0.6s-0.4-0.5-0.5-0.7c-0.1-0.3-0.2-0.6-0.2-1
			c0-0.5,0.1-0.9,0.3-1.2c0.2-0.3,0.5-0.6,0.8-0.8c0.3-0.2,0.7-0.4,1.2-0.5s0.9-0.2,1.3-0.2c1,0,1.8,0.1,2.2,0.3v1.6
			c-0.6-0.4-1.3-0.6-2.1-0.6c-0.2,0-0.5,0-0.7,0.1c-0.2,0-0.5,0.1-0.6,0.2s-0.3,0.2-0.5,0.4c-0.1,0.2-0.2,0.4-0.2,0.6s0,0.4,0.1,0.6
			s0.2,0.3,0.4,0.4c0.2,0.1,0.4,0.3,0.6,0.4c0.3,0.1,0.5,0.3,0.9,0.4c0.3,0.2,0.7,0.4,1,0.6s0.6,0.4,0.8,0.6
			c0.2,0.2,0.4,0.5,0.5,0.8s0.2,0.6,0.2,1c0,0.5-0.1,0.9-0.3,1.3c-0.2,0.3-0.5,0.6-0.8,0.8s-0.7,0.4-1.2,0.5s-0.9,0.1-1.4,0.1
			c-0.2,0-0.4,0-0.6,0s-0.5-0.1-0.7-0.1s-0.5-0.1-0.7-0.2C442.8,121,442.6,120.9,442.5,120.8z"/>
	</g>
	<g>
		<path style="fill:#686868;" d="M396.8,77.2c0-7.6,5.2-13.8,11.6-13.8S420,69.6,420,77.2H396.8z"/>
		<circle style="fill:#686868;" cx="408.4" cy="54.7" r="7.1"/>
	</g>
</g>
<g>
	<g>
		<path style="fill:#FFFFFF;stroke:#686868;stroke-width:3;stroke-linecap:round;stroke-linejoin:round;" d="M327.5,68.2
			c-3.2,20.1-22.1,33.7-42.1,30.5s-33.7-22.1-30.5-42.1c0.8-5.1,2.7-9.8,5.3-14c4.6-7.1,11.5-12.5,19.5-15.1
			c5.4-1.8,11.3-2.3,17.3-1.4C317.1,29.3,330.7,48.1,327.5,68.2z"/>
		<path style="fill:#FFFFFF;stroke:#686868;stroke-width:3;stroke-linecap:round;stroke-linejoin:round;" d="M320.9,67.1
			c-2.6,16.4-18.1,27.6-34.5,25s-27.6-18.1-25-34.5c0.7-4.2,2.2-8.1,4.3-11.4c3.7-5.9,9.4-10.2,16-12.4c4.4-1.5,9.3-1.9,14.2-1.1
			C312.4,35.3,323.6,50.7,320.9,67.1z"/>
	</g>
	<g>
		<path style="fill:#686868;" d="M265,117.3c0,2.7-1.3,4.1-3.9,4.1c-2.5,0-3.7-1.3-3.7-4v-6h1.6v5.6c0,1.9,0.7,2.9,2.2,2.9
			c1.4,0,2.1-0.9,2.1-2.8v-5.7h1.6L265,117.3L265,117.3z"/>
		<path style="fill:#686868;" d="M275,121.2h-1.8l-0.9-2.5h-3.8l-0.8,2.5h-1.8l3.7-9.8h1.8L275,121.2z M272,117.4l-1.4-3.9
			c0-0.1-0.1-0.3-0.1-0.6l0,0c0,0.3-0.1,0.5-0.1,0.6l-1.3,3.9H272z"/>
		<path style="fill:#686868;" d="M281.6,112.9h-2.8v8.4h-1.6v-8.4h-2.8v-1.4h7.2L281.6,112.9L281.6,112.9z"/>
		<path style="fill:#686868;" d="M294.4,117.3c0,2.7-1.3,4.1-3.9,4.1c-2.5,0-3.7-1.3-3.7-4v-6h1.6v5.6c0,1.9,0.7,2.9,2.2,2.9
			c1.4,0,2.1-0.9,2.1-2.8v-5.7h1.6L294.4,117.3L294.4,117.3z"/>
		<path style="fill:#686868;" d="M296.2,120.8v-1.7c0.1,0.1,0.3,0.3,0.5,0.4s0.4,0.2,0.7,0.3c0.2,0.1,0.5,0.1,0.7,0.2
			c0.2,0,0.4,0.1,0.6,0.1c0.7,0,1.2-0.1,1.5-0.3c0.3-0.2,0.5-0.6,0.5-1c0-0.2-0.1-0.4-0.2-0.6s-0.3-0.3-0.5-0.5s-0.4-0.3-0.7-0.4
			c-0.3-0.1-0.6-0.3-0.9-0.4c-0.3-0.2-0.6-0.4-0.9-0.5c-0.3-0.2-0.5-0.4-0.7-0.6s-0.4-0.5-0.5-0.7c-0.1-0.3-0.2-0.6-0.2-1
			c0-0.5,0.1-0.9,0.3-1.2c0.2-0.3,0.5-0.6,0.8-0.8c0.3-0.2,0.7-0.4,1.2-0.5s0.9-0.2,1.3-0.2c1,0,1.8,0.1,2.2,0.3v1.6
			c-0.6-0.4-1.3-0.6-2.1-0.6c-0.2,0-0.5,0-0.7,0.1c-0.2,0-0.5,0.1-0.6,0.2s-0.3,0.2-0.5,0.4c-0.1,0.2-0.2,0.4-0.2,0.6s0,0.4,0.1,0.6
			s0.2,0.3,0.4,0.4c0.2,0.1,0.4,0.3,0.6,0.4c0.3,0.1,0.5,0.3,0.9,0.4c0.3,0.2,0.7,0.4,1,0.6s0.6,0.4,0.8,0.6
			c0.2,0.2,0.4,0.5,0.5,0.8s0.2,0.6,0.2,1c0,0.5-0.1,0.9-0.3,1.3c-0.2,0.3-0.5,0.6-0.8,0.8s-0.7,0.4-1.2,0.5s-0.9,0.1-1.4,0.1
			c-0.2,0-0.4,0-0.6,0s-0.5-0.1-0.7-0.1s-0.5-0.1-0.7-0.2C296.6,121,296.4,120.9,296.2,120.8z"/>
		<path style="fill:#686868;" d="M309.8,121.2h-5.5v-9.8h5.3v1.4H306v2.8h3.4v1.4H306v2.9h3.9L309.8,121.2L309.8,121.2z"/>
		<path style="fill:#686868;" d="M319,121.2h-1.9l-1.6-2.6c-0.1-0.2-0.3-0.4-0.4-0.6s-0.3-0.3-0.4-0.4s-0.3-0.2-0.5-0.2
			s-0.3-0.1-0.6-0.1h-0.7v4h-1.6v-9.8h3.2c0.5,0,0.9,0.1,1.3,0.2s0.7,0.3,1,0.5s0.5,0.5,0.7,0.8s0.2,0.7,0.2,1.2
			c0,0.3-0.1,0.7-0.2,0.9c-0.1,0.3-0.2,0.5-0.4,0.8c-0.2,0.2-0.4,0.4-0.7,0.6c-0.3,0.2-0.6,0.3-0.9,0.4l0,0c0.2,0.1,0.3,0.2,0.5,0.3
			c0.1,0.1,0.3,0.2,0.4,0.4c0.1,0.1,0.2,0.3,0.3,0.4c0.1,0.2,0.2,0.3,0.4,0.6L319,121.2z M313.1,112.8v3.2h1.3c0.2,0,0.5,0,0.7-0.1
			s0.4-0.2,0.5-0.3s0.3-0.3,0.4-0.5s0.1-0.4,0.1-0.7c0-0.5-0.1-0.8-0.4-1.1c-0.3-0.3-0.7-0.4-1.3-0.4L313.1,112.8L313.1,112.8z"/>
		<path style="fill:#686868;" d="M319.7,120.8v-1.7c0.1,0.1,0.3,0.3,0.5,0.4s0.4,0.2,0.7,0.3c0.2,0.1,0.5,0.1,0.7,0.2
			c0.2,0,0.4,0.1,0.6,0.1c0.7,0,1.2-0.1,1.5-0.3c0.3-0.2,0.5-0.6,0.5-1c0-0.2-0.1-0.4-0.2-0.6s-0.3-0.3-0.5-0.5s-0.4-0.3-0.7-0.4
			c-0.3-0.1-0.6-0.3-0.9-0.4c-0.3-0.2-0.6-0.4-0.9-0.5c-0.3-0.2-0.5-0.4-0.7-0.6s-0.4-0.5-0.5-0.7c-0.1-0.3-0.2-0.6-0.2-1
			c0-0.5,0.1-0.9,0.3-1.2c0.2-0.3,0.5-0.6,0.8-0.8c0.3-0.2,0.7-0.4,1.2-0.5s0.9-0.2,1.3-0.2c1,0,1.8,0.1,2.2,0.3v1.6
			c-0.6-0.4-1.3-0.6-2.1-0.6c-0.2,0-0.5,0-0.7,0.1c-0.2,0-0.5,0.1-0.6,0.2s-0.3,0.2-0.5,0.4c-0.1,0.2-0.2,0.4-0.2,0.6s0,0.4,0.1,0.6
			s0.2,0.3,0.4,0.4c0.2,0.1,0.4,0.3,0.6,0.4c0.3,0.1,0.5,0.3,0.9,0.4c0.3,0.2,0.7,0.4,1,0.6s0.6,0.4,0.8,0.6
			c0.2,0.2,0.4,0.5,0.5,0.8s0.2,0.6,0.2,1c0,0.5-0.1,0.9-0.3,1.3c-0.2,0.3-0.5,0.6-0.8,0.8s-0.7,0.4-1.2,0.5s-0.9,0.1-1.4,0.1
			c-0.2,0-0.4,0-0.6,0s-0.5-0.1-0.7-0.1s-0.5-0.1-0.7-0.2C320,121,319.8,120.9,319.7,120.8z"/>
	</g>
	<g>
		<path style="fill:#686868;" d="M279.8,77.2c0-7.6,5.2-13.8,11.6-13.8S303,69.6,303,77.2H279.8z"/>
		<circle style="fill:#686868;" cx="291.4" cy="54.7" r="7.1"/>
	</g>
</g>
<g>
	<g>
		<path d="M439.9,391.6h-5.5v-9.8h5.3v1.4h-3.6v2.8h3.4v1.4h-3.4v2.9h3.9L439.9,391.6L439.9,391.6z"/>
		<path d="M449.9,391.6h-1.8l-4.7-7.2c-0.1-0.2-0.2-0.4-0.3-0.6l0,0c0,0.2,0.1,0.7,0.1,1.3v6.4h-1.6v-9.8h1.9l4.5,7
			c0.2,0.3,0.3,0.5,0.4,0.6l0,0c0-0.3-0.1-0.7-0.1-1.3v-6.3h1.6C449.9,381.7,449.9,391.6,449.9,391.6z"/>
		<path d="M452.3,391.6v-9.8h2.8c3.6,0,5.4,1.6,5.4,4.8c0,1.5-0.5,2.7-1.5,3.6s-2.3,1.4-4,1.4H452.3z M453.9,383.4v7h1.3
			c1.1,0,2-0.3,2.7-0.9c0.6-0.6,0.9-1.5,0.9-2.7c0-2.3-1.2-3.4-3.5-3.4H453.9L453.9,383.4z"/>
		<path d="M473.6,387.8c0,2.7-1.3,4.1-3.9,4.1c-2.5,0-3.7-1.3-3.7-4v-6h1.6v5.6c0,1.9,0.7,2.9,2.2,2.9c1.4,0,2.1-0.9,2.1-2.8v-5.7
			h1.6L473.6,387.8L473.6,387.8z"/>
		<path d="M475.5,391.4v-1.7c0.1,0.1,0.3,0.3,0.5,0.4s0.4,0.2,0.7,0.3c0.2,0.1,0.5,0.1,0.7,0.2c0.2,0,0.4,0.1,0.6,0.1
			c0.7,0,1.2-0.1,1.5-0.3c0.3-0.2,0.5-0.6,0.5-1c0-0.2-0.1-0.4-0.2-0.6c-0.1-0.2-0.3-0.3-0.5-0.5c-0.2-0.2-0.4-0.3-0.7-0.4
			c-0.3-0.1-0.6-0.3-0.9-0.4c-0.3-0.2-0.6-0.4-0.9-0.5c-0.3-0.2-0.5-0.4-0.7-0.6c-0.2-0.2-0.4-0.5-0.5-0.7c-0.1-0.2-0.2-0.6-0.2-1
			c0-0.5,0.1-0.9,0.3-1.2c0.2-0.3,0.5-0.6,0.8-0.8c0.3-0.2,0.7-0.4,1.2-0.5s0.9-0.2,1.3-0.2c1,0,1.8,0.1,2.2,0.3v1.6
			c-0.6-0.4-1.3-0.6-2.1-0.6c-0.2,0-0.5,0-0.7,0.1c-0.2,0-0.5,0.1-0.6,0.2c-0.1,0.1-0.3,0.2-0.5,0.4c-0.2,0.2-0.2,0.4-0.2,0.6
			s0,0.4,0.1,0.6c0.1,0.2,0.2,0.3,0.4,0.4c0.2,0.1,0.4,0.3,0.6,0.4c0.3,0.1,0.5,0.3,0.9,0.4c0.3,0.2,0.7,0.4,1,0.6
			c0.3,0.2,0.6,0.4,0.8,0.6s0.4,0.5,0.5,0.8s0.2,0.6,0.2,1c0,0.5-0.1,0.9-0.3,1.3c-0.2,0.3-0.5,0.6-0.8,0.8
			c-0.3,0.2-0.7,0.4-1.2,0.5c-0.4,0.1-0.9,0.1-1.4,0.1c-0.2,0-0.4,0-0.6,0c-0.2,0-0.5-0.1-0.7-0.1c-0.2,0-0.5-0.1-0.7-0.2
			C475.8,391.5,475.6,391.4,475.5,391.4z"/>
		<path d="M489,391.6h-5.5v-9.8h5.3v1.4h-3.6v2.8h3.4v1.4h-3.4v2.9h3.9L489,391.6L489,391.6z"/>
		<path d="M498.2,391.6h-1.9l-1.6-2.6c-0.1-0.2-0.3-0.4-0.4-0.6c-0.1-0.2-0.3-0.3-0.4-0.4s-0.3-0.2-0.5-0.2s-0.3-0.1-0.6-0.1h-0.7v4
			h-1.6V382h3.2c0.5,0,0.9,0.1,1.3,0.2s0.7,0.3,1,0.5s0.5,0.5,0.7,0.8c0.2,0.3,0.2,0.7,0.2,1.2c0,0.3-0.1,0.7-0.2,0.9
			c-0.1,0.3-0.2,0.5-0.4,0.8c-0.2,0.2-0.4,0.4-0.7,0.6c-0.3,0.2-0.6,0.3-0.9,0.4l0,0c0.2,0.1,0.3,0.2,0.5,0.3
			c0.1,0.1,0.3,0.2,0.4,0.4c0.1,0.1,0.2,0.3,0.3,0.4c0.1,0.2,0.2,0.3,0.4,0.6L498.2,391.6z M492.3,383.3v3.2h1.3
			c0.2,0,0.5,0,0.7-0.1c0.2-0.1,0.4-0.2,0.5-0.3c0.2-0.1,0.3-0.3,0.4-0.5c0.1-0.2,0.1-0.4,0.1-0.7c0-0.5-0.1-0.8-0.4-1.1
			c-0.3-0.3-0.7-0.4-1.3-0.4L492.3,383.3L492.3,383.3z"/>
		<path d="M498.9,391.4v-1.7c0.1,0.1,0.3,0.3,0.5,0.4c0.2,0.1,0.4,0.2,0.7,0.3c0.2,0.1,0.5,0.1,0.7,0.2c0.2,0,0.4,0.1,0.6,0.1
			c0.7,0,1.2-0.1,1.5-0.3c0.3-0.2,0.5-0.6,0.5-1c0-0.2-0.1-0.4-0.2-0.6c-0.1-0.2-0.3-0.3-0.5-0.5c-0.2-0.2-0.4-0.3-0.7-0.4
			s-0.6-0.3-0.9-0.4c-0.3-0.2-0.6-0.4-0.9-0.5c-0.3-0.2-0.5-0.4-0.7-0.6s-0.4-0.5-0.5-0.7s-0.2-0.6-0.2-1c0-0.5,0.1-0.9,0.3-1.2
			c0.2-0.3,0.5-0.6,0.8-0.8c0.3-0.2,0.7-0.4,1.2-0.5s0.9-0.2,1.3-0.2c1,0,1.8,0.1,2.2,0.3v1.6c-0.6-0.4-1.3-0.6-2.1-0.6
			c-0.2,0-0.5,0-0.7,0.1c-0.2,0-0.5,0.1-0.6,0.2s-0.3,0.2-0.5,0.4c-0.2,0.2-0.2,0.4-0.2,0.6s0,0.4,0.1,0.6s0.2,0.3,0.4,0.4
			c0.2,0.1,0.4,0.3,0.6,0.4c0.3,0.1,0.5,0.3,0.9,0.4c0.3,0.2,0.7,0.4,1,0.6c0.3,0.2,0.6,0.4,0.8,0.6c0.2,0.2,0.4,0.5,0.5,0.8
			s0.2,0.6,0.2,1c0,0.5-0.1,0.9-0.3,1.3c-0.2,0.3-0.5,0.6-0.8,0.8c-0.3,0.2-0.7,0.4-1.2,0.5c-0.4,0.1-0.9,0.1-1.4,0.1
			c-0.2,0-0.4,0-0.6,0s-0.5-0.1-0.7-0.1s-0.5-0.1-0.7-0.2C499.2,391.5,499.1,391.4,498.9,391.4z"/>
	</g>
	<path d="M469.1,348.4c-6.4,0-11.6,5.2-11.6,11.6s5.2,11.6,11.6,11.6s11.6-5.2,11.6-11.6C480.7,353.5,475.5,348.4,469.1,348.4z
		 M469.9,364.8h-1.5v-7.5c-0.3,0.2-0.6,0.4-0.9,0.5s-0.7,0.3-1.1,0.4v-1.3c0.2-0.1,0.5-0.2,0.7-0.3c0.2-0.1,0.5-0.2,0.7-0.3
		c0.2-0.1,0.4-0.2,0.7-0.4c0.2-0.1,0.5-0.3,0.7-0.5h0.6L469.9,364.8L469.9,364.8z"/>
</g>
</svg>
