<?xml version="1.0" encoding="utf-8"?>
<!-- Generator: Adobe Illustrator 19.2.0, SVG Export Plug-In . SVG Version: 6.00 Build 0)  -->
<svg version="1.1" id="Layer_1" xmlns="http://www.w3.org/2000/svg" xmlns:xlink="http://www.w3.org/1999/xlink" x="0px" y="0px"
	 width="160px" height="475px" viewBox="0 0 160 475" style="enable-background:new 0 0 160 475;" xml:space="preserve">
<g>
	
		<line style="fill:none;stroke:#DFDFDE;stroke-width:4;stroke-linecap:round;stroke-linejoin:round;stroke-miterlimit:10;" x1="79.4" y1="-83" x2="79.4" y2="177.9"/>
	
		<circle style="fill:none;stroke:#DFDFDE;stroke-width:4;stroke-linecap:round;stroke-linejoin:round;stroke-miterlimit:10;" cx="79.4" cy="183.4" r="5"/>
</g>
<g>
	<g>
		<path style="fill:#FFFFFF;stroke:#000000;stroke-width:3;stroke-linecap:round;stroke-linejoin:round;" d="M136.1,279.1
			c-5.3,32.8-36.1,55.1-68.9,49.9S12,292.8,17.3,260c1.3-8.4,4.4-16.1,8.7-22.8c7.5-11.7,18.8-20.4,31.9-24.8
			c8.9-2.9,18.5-3.8,28.4-2.3C119,215.4,141.3,246.3,136.1,279.1z"/>
		<path style="fill:#FFFFFF;stroke:#000000;stroke-width:3;stroke-linecap:round;stroke-linejoin:round;" d="M125.3,277.4
			c-4.3,26.9-29.6,45.1-56.4,40.8S23.7,288.6,28,261.8c1.1-6.9,3.6-13.2,7.1-18.7c6.1-9.6,15.4-16.7,26.1-20.3
			c7.3-2.4,15.2-3.1,23.2-1.8C111.4,225.2,129.6,250.5,125.3,277.4z"/>
	</g>
	<g>
		<path style="fill:#686868;" d="M6.3,364.2c-1.4,0-2.5-0.5-3.4-1.4c-0.8-0.9-1.3-2.1-1.3-3.6c0-1.6,0.4-2.8,1.3-3.8s2-1.4,3.5-1.4
			c1.4,0,2.5,0.5,3.3,1.4c0.8,0.9,1.3,2.1,1.3,3.6c0,1.6-0.4,2.9-1.3,3.8S7.7,364.2,6.3,364.2z M6.3,355.5c-0.9,0-1.6,0.3-2.2,1
			c-0.6,0.7-0.8,1.6-0.8,2.6c0,1.1,0.3,2,0.8,2.6s1.3,1,2.1,1c0.9,0,1.7-0.3,2.2-1s0.8-1.5,0.8-2.7c0-1.2-0.3-2.1-0.8-2.7
			C8,355.8,7.3,355.5,6.3,355.5z"/>
		<path style="fill:#686868;" d="M14.4,360.4v3.6h-1.6v-9.8h3c1.1,0,2,0.3,2.6,0.8s0.9,1.3,0.9,2.2s-0.3,1.7-1,2.3s-1.5,0.9-2.6,0.9
			H14.4z M14.4,355.5v3.6h1.1c0.7,0,1.2-0.2,1.6-0.5s0.5-0.8,0.5-1.4c0-1.2-0.7-1.7-2-1.7H14.4z"/>
		<path style="fill:#686868;" d="M26.5,364H21v-9.8h5.3v1.4h-3.7v2.8H26v1.4h-3.4v2.9h3.9V364z"/>
		<path style="fill:#686868;" d="M35.8,364h-1.9l-1.6-2.6c-0.1-0.2-0.3-0.4-0.4-0.6c-0.1-0.2-0.3-0.3-0.4-0.4
			c-0.1-0.1-0.3-0.2-0.5-0.2s-0.3-0.1-0.6-0.1h-0.7v4h-1.6v-9.8h3.2c0.5,0,0.9,0.1,1.3,0.2s0.7,0.3,1,0.5c0.3,0.2,0.5,0.5,0.7,0.8
			c0.2,0.3,0.2,0.7,0.2,1.2c0,0.3-0.1,0.7-0.2,1c-0.1,0.3-0.2,0.5-0.4,0.8c-0.2,0.2-0.4,0.4-0.7,0.6c-0.3,0.2-0.6,0.3-0.9,0.4v0
			c0.2,0.1,0.3,0.2,0.5,0.3c0.1,0.1,0.3,0.2,0.4,0.4s0.2,0.3,0.4,0.4c0.1,0.2,0.2,0.3,0.4,0.6L35.8,364z M29.8,355.5v3.2h1.4
			c0.3,0,0.5,0,0.7-0.1c0.2-0.1,0.4-0.2,0.6-0.3s0.3-0.3,0.4-0.5s0.1-0.4,0.1-0.7c0-0.5-0.1-0.8-0.4-1.1s-0.7-0.4-1.3-0.4H29.8z"/>
		<path style="fill:#686868;" d="M45,364h-1.8l-0.9-2.5h-3.9l-0.8,2.5h-1.8l3.7-9.8h1.8L45,364z M41.9,360.2l-1.4-3.9
			c0-0.1-0.1-0.3-0.1-0.6h0c0,0.3-0.1,0.5-0.1,0.6l-1.3,3.9H41.9z"/>
		<path style="fill:#686868;" d="M51.6,355.6h-2.8v8.4h-1.6v-8.4h-2.8v-1.4h7.3V355.6z"/>
		<path style="fill:#686868;" d="M54.7,364h-1.7v-9.8h1.7V364z"/>
		<path style="fill:#686868;" d="M61.2,364.2c-1.4,0-2.5-0.5-3.4-1.4c-0.8-0.9-1.3-2.1-1.3-3.6c0-1.6,0.4-2.8,1.3-3.8s2-1.4,3.5-1.4
			c1.4,0,2.5,0.5,3.3,1.4c0.8,0.9,1.3,2.1,1.3,3.6c0,1.6-0.4,2.9-1.3,3.8S62.6,364.2,61.2,364.2z M61.3,355.5c-0.9,0-1.6,0.3-2.2,1
			c-0.6,0.7-0.8,1.6-0.8,2.6c0,1.1,0.3,2,0.8,2.6s1.3,1,2.1,1c0.9,0,1.7-0.3,2.2-1s0.8-1.5,0.8-2.7c0-1.2-0.3-2.1-0.8-2.7
			C62.9,355.8,62.2,355.5,61.3,355.5z"/>
		<path style="fill:#686868;" d="M76,364h-1.8l-4.7-7.2c-0.1-0.2-0.2-0.4-0.3-0.6h0c0,0.2,0.1,0.7,0.1,1.3v6.4h-1.6v-9.8h1.9l4.5,7
			c0.2,0.3,0.3,0.5,0.4,0.6h0c0-0.3-0.1-0.7-0.1-1.3v-6.3H76V364z"/>
		<path style="fill:#686868;" d="M86.5,364h-1.8l-0.9-2.5H80l-0.8,2.5h-1.8l3.7-9.8h1.8L86.5,364z M83.4,360.2l-1.4-3.9
			c0-0.1-0.1-0.3-0.1-0.6h0c0,0.3-0.1,0.5-0.1,0.6l-1.3,3.9H83.4z"/>
		<path style="fill:#686868;" d="M93.3,364h-5.4v-9.8h1.6v8.4h3.8V364z"/>
		<path style="fill:#686868;" d="M100.2,364h-1.7v-9.8h1.7V364z"/>
		<path style="fill:#686868;" d="M111,364h-1.8l-4.7-7.2c-0.1-0.2-0.2-0.4-0.3-0.6h0c0,0.2,0.1,0.7,0.1,1.3v6.4h-1.6v-9.8h1.9l4.5,7
			c0.2,0.3,0.3,0.5,0.4,0.6h0c0-0.3-0.1-0.7-0.1-1.3v-6.3h1.6V364z"/>
		<path style="fill:#686868;" d="M112.9,363.6v-1.7c0.2,0.1,0.3,0.3,0.5,0.4c0.2,0.1,0.4,0.2,0.7,0.3c0.2,0.1,0.5,0.1,0.7,0.2
			s0.4,0.1,0.6,0.1c0.7,0,1.2-0.1,1.5-0.3c0.3-0.2,0.5-0.6,0.5-1c0-0.2-0.1-0.4-0.2-0.6c-0.1-0.2-0.3-0.3-0.5-0.5s-0.4-0.3-0.7-0.4
			c-0.3-0.1-0.6-0.3-0.9-0.4c-0.3-0.2-0.6-0.4-0.9-0.5s-0.5-0.4-0.7-0.6c-0.2-0.2-0.4-0.5-0.5-0.7c-0.1-0.3-0.2-0.6-0.2-1
			c0-0.5,0.1-0.9,0.3-1.2c0.2-0.3,0.5-0.6,0.8-0.8c0.3-0.2,0.7-0.4,1.2-0.5c0.4-0.1,0.9-0.2,1.3-0.2c1,0,1.8,0.1,2.2,0.3v1.6
			c-0.6-0.4-1.3-0.6-2.1-0.6c-0.2,0-0.5,0-0.7,0.1c-0.2,0-0.5,0.1-0.6,0.2c-0.2,0.1-0.3,0.2-0.5,0.4s-0.2,0.4-0.2,0.6
			c0,0.2,0,0.4,0.1,0.6s0.2,0.3,0.4,0.4c0.2,0.1,0.4,0.3,0.6,0.4c0.3,0.1,0.5,0.3,0.9,0.4c0.3,0.2,0.7,0.4,1,0.6
			c0.3,0.2,0.6,0.4,0.8,0.6c0.2,0.2,0.4,0.5,0.5,0.8c0.1,0.3,0.2,0.6,0.2,1c0,0.5-0.1,0.9-0.3,1.3s-0.5,0.6-0.8,0.8
			c-0.3,0.2-0.7,0.4-1.2,0.5s-0.9,0.1-1.4,0.1c-0.2,0-0.4,0-0.6,0c-0.2,0-0.5-0.1-0.7-0.1c-0.3,0-0.5-0.1-0.7-0.2
			S113.1,363.7,112.9,363.6z"/>
		<path style="fill:#686868;" d="M122.7,364H121v-9.8h1.7V364z"/>
		<path style="fill:#686868;" d="M132.7,363.3c-1,0.6-2.2,0.8-3.4,0.8c-1.4,0-2.6-0.5-3.5-1.4s-1.3-2.1-1.3-3.6
			c0-1.5,0.5-2.8,1.5-3.7c1-1,2.2-1.5,3.7-1.5c1.1,0,2,0.2,2.7,0.5v1.7c-0.8-0.5-1.6-0.8-2.7-0.8c-1,0-1.9,0.3-2.6,1
			c-0.7,0.7-1,1.6-1,2.7c0,1.1,0.3,2,0.9,2.7c0.6,0.6,1.4,1,2.3,1c0.7,0,1.3-0.1,1.8-0.4V360h-2.1v-1.4h3.7V363.3z"/>
		<path style="fill:#686868;" d="M142.7,364h-1.6v-4.3h-4.6v4.3h-1.6v-9.8h1.6v4.1h4.6v-4.1h1.6V364z"/>
		<path style="fill:#686868;" d="M151.4,355.6h-2.8v8.4H147v-8.4h-2.8v-1.4h7.3V355.6z"/>
		<path style="fill:#686868;" d="M152.4,363.6v-1.7c0.2,0.1,0.3,0.3,0.5,0.4c0.2,0.1,0.4,0.2,0.7,0.3c0.2,0.1,0.5,0.1,0.7,0.2
			s0.4,0.1,0.6,0.1c0.7,0,1.2-0.1,1.5-0.3c0.3-0.2,0.5-0.6,0.5-1c0-0.2-0.1-0.4-0.2-0.6c-0.1-0.2-0.3-0.3-0.5-0.5s-0.4-0.3-0.7-0.4
			c-0.3-0.1-0.6-0.3-0.9-0.4c-0.3-0.2-0.6-0.4-0.9-0.5s-0.5-0.4-0.7-0.6c-0.2-0.2-0.4-0.5-0.5-0.7c-0.1-0.3-0.2-0.6-0.2-1
			c0-0.5,0.1-0.9,0.3-1.2c0.2-0.3,0.5-0.6,0.8-0.8c0.3-0.2,0.7-0.4,1.2-0.5c0.4-0.1,0.9-0.2,1.3-0.2c1,0,1.8,0.1,2.2,0.3v1.6
			c-0.6-0.4-1.3-0.6-2.1-0.6c-0.2,0-0.5,0-0.7,0.1c-0.2,0-0.5,0.1-0.6,0.2c-0.2,0.1-0.3,0.2-0.5,0.4s-0.2,0.4-0.2,0.6
			c0,0.2,0,0.4,0.1,0.6s0.2,0.3,0.4,0.4c0.2,0.1,0.4,0.3,0.6,0.4c0.3,0.1,0.5,0.3,0.9,0.4c0.3,0.2,0.7,0.4,1,0.6
			c0.3,0.2,0.6,0.4,0.8,0.6c0.2,0.2,0.4,0.5,0.5,0.8c0.1,0.3,0.2,0.6,0.2,1c0,0.5-0.1,0.9-0.3,1.3s-0.5,0.6-0.8,0.8
			c-0.3,0.2-0.7,0.4-1.2,0.5s-0.9,0.1-1.4,0.1c-0.2,0-0.4,0-0.6,0c-0.2,0-0.5-0.1-0.7-0.1c-0.3,0-0.5-0.1-0.7-0.2
			S152.6,363.7,152.4,363.6z"/>
	</g>
	<g>
		<path d="M57.1,275.5h3.5V272h-3.5V275.5L57.1,275.5L57.1,275.5z M57.1,264.9h3.5v-3.2c-1.2,0.7-2.5,1.4-3.5,2.3V264.9L57.1,264.9
			L57.1,264.9z M62.4,286.1H66v-3.5h-3.5V286.1L62.4,286.1L62.4,286.1z M62.4,296.7H66v-3.5h-3.5V296.7L62.4,296.7L62.4,296.7z
			 M62.4,280.8H66v-3.5h-3.5V280.8L62.4,280.8L62.4,280.8z M62.4,291.4H66v-3.5h-3.5V291.4L62.4,291.4L62.4,291.4z M57.1,286.1h3.5
			v-3.5h-3.5V286.1L57.1,286.1L57.1,286.1z M57.1,291.4h3.5v-3.5h-3.5V291.4L57.1,291.4L57.1,291.4z M51.8,280.8h3.5v-3.5h-3.5
			V280.8L51.8,280.8L51.8,280.8z M51.8,286.1h3.5v-3.5h-3.5V286.1L51.8,286.1L51.8,286.1z M51.8,275.5h3.5V272h-3.5V275.5
			L51.8,275.5L51.8,275.5z M52.2,270.2h3.2v-3.5h-0.9C53.6,267.7,52.9,268.9,52.2,270.2L52.2,270.2z M57.1,294.1
			c1.1,0.9,2.3,1.6,3.5,2.3v-3.2h-3.5V294.1L57.1,294.1L57.1,294.1z M57.1,270.2h3.5v-3.5h-3.5V270.2L57.1,270.2L57.1,270.2z
			 M83.7,291.4h0.9c0.9-1.1,1.6-2.3,2.3-3.5h-3.2V291.4L83.7,291.4L83.7,291.4z M78.4,286.1h3.5v-3.5h-3.5V286.1L78.4,286.1
			L78.4,286.1z M78.4,296.4c1.2-0.7,2.5-1.4,3.5-2.3v-0.9h-3.5V296.4L78.4,296.4L78.4,296.4z M78.4,291.4h3.5v-3.5h-3.5V291.4
			L78.4,291.4L78.4,291.4z M62.4,275.5H66V272h-3.5V275.5L62.4,275.5L62.4,275.5z M86.3,243.7c-10.3,0-18.6,8.3-18.6,18.6
			c0,5.5,0,18.6,0,18.6s13.8,0,18.6,0c10.3,0,18.6-8.3,18.6-18.6C104.9,252,96.6,243.7,86.3,243.7L86.3,243.7z M80.1,270.2h-3.5
			v-10.6h3.5V270.2L80.1,270.2L80.1,270.2z M87.2,270.2h-3.5v-7.1h3.5V270.2L87.2,270.2L87.2,270.2z M94.3,270.2h-3.5V256h3.5V270.2
			L94.3,270.2L94.3,270.2z M83.7,286.1h3.5v-3.5h-3.5V286.1L83.7,286.1L83.7,286.1z M62.4,264.9H66v-3.5h-3.5V264.9L62.4,264.9
			L62.4,264.9z M73,291.4h3.5v-3.5H73V291.4L73,291.4L73,291.4z M67.7,291.4h3.5v-3.5h-3.5V291.4L67.7,291.4L67.7,291.4z
			 M67.7,286.1h3.5v-3.5h-3.5V286.1L67.7,286.1L67.7,286.1z M73,296.7h3.5v-3.5H73V296.7L73,296.7L73,296.7z"/>
	</g>
</g>
</svg>
