<?xml version="1.0" encoding="utf-8"?>
<!-- Generator: Adobe Illustrator 19.2.0, SVG Export Plug-In . SVG Version: 6.00 Build 0)  -->
<svg version="1.1" id="Layer_1" xmlns="http://www.w3.org/2000/svg" xmlns:xlink="http://www.w3.org/1999/xlink" x="0px" y="0px"
	 width="960px" height="693.2px" viewBox="0 0 960 693.2" style="enable-background:new 0 0 960 693.2;" xml:space="preserve">
<g>
	<defs>
		<rect id="SVGID_1_" x="112.9" y="10" width="683.2" height="683.2"/>
	</defs>
	<clipPath id="SVGID_2_">
		<use xlink:href="#SVGID_1_"  style="overflow:visible;"/>
	</clipPath>
	<g style="clip-path:url(#SVGID_2_);">
		<g>
			<path style="fill:#686969;" d="M413.9,404.8h-1.8l-0.9-2.5h-3.8l-0.8,2.5h-1.8l3.7-9.8h1.8L413.9,404.8z M410.8,401l-1.4-3.9
				c0-0.1-0.1-0.3-0.1-0.6h0c0,0.3-0.1,0.5-0.1,0.6l-1.3,3.9H410.8z"/>
			<path style="fill:#686969;" d="M416.9,401.3v3.5h-1.6v-9.8h3c1.1,0,2,0.3,2.6,0.8s0.9,1.3,0.9,2.2s-0.3,1.7-1,2.3
				c-0.6,0.6-1.5,0.9-2.6,0.9H416.9z M416.9,396.4v3.6h1c0.7,0,1.2-0.2,1.6-0.5c0.4-0.3,0.5-0.8,0.5-1.4c0-1.1-0.7-1.7-2-1.7H416.9z
				"/>
			<path style="fill:#686969;" d="M425,401.3v3.5h-1.6v-9.8h3c1.1,0,2,0.3,2.6,0.8s0.9,1.3,0.9,2.2s-0.3,1.7-1,2.3
				c-0.6,0.6-1.5,0.9-2.6,0.9H425z M425,396.4v3.6h1c0.7,0,1.2-0.2,1.6-0.5c0.4-0.3,0.5-0.8,0.5-1.4c0-1.1-0.7-1.7-2-1.7H425z"/>
			<path style="fill:#686969;" d="M436.9,404.8h-5.4v-9.8h1.6v8.4h3.8V404.8z"/>
			<path style="fill:#686969;" d="M440,404.8h-1.7v-9.8h1.7V404.8z"/>
			<path style="fill:#686969;" d="M449.2,404.4c-0.7,0.4-1.6,0.6-2.7,0.6c-1.4,0-2.5-0.4-3.4-1.3c-0.9-0.9-1.3-2.1-1.3-3.5
				c0-1.6,0.5-2.8,1.4-3.8s2.2-1.4,3.6-1.4c0.9,0,1.7,0.1,2.3,0.4v1.6c-0.7-0.4-1.4-0.6-2.2-0.6c-1.1,0-1.9,0.3-2.6,1s-1,1.6-1,2.7
				c0,1.1,0.3,1.9,0.9,2.6c0.6,0.6,1.4,1,2.4,1c0.9,0,1.7-0.2,2.4-0.7V404.4z"/>
			<path style="fill:#686969;" d="M459.1,404.8h-1.8l-0.9-2.5h-3.8l-0.8,2.5H450l3.7-9.8h1.8L459.1,404.8z M456,401l-1.4-3.9
				c0-0.1-0.1-0.3-0.1-0.6h0c0,0.3-0.1,0.5-0.1,0.6L453,401H456z"/>
			<path style="fill:#686969;" d="M465.7,396.5h-2.8v8.4h-1.6v-8.4h-2.8v-1.4h7.2V396.5z"/>
			<path style="fill:#686969;" d="M468.8,404.8h-1.7v-9.8h1.7V404.8z"/>
			<path style="fill:#686969;" d="M475.2,405c-1.4,0-2.5-0.5-3.4-1.4c-0.8-0.9-1.3-2.1-1.3-3.6c0-1.6,0.4-2.8,1.3-3.8
				c0.9-0.9,2-1.4,3.5-1.4c1.4,0,2.5,0.5,3.3,1.4c0.8,0.9,1.3,2.1,1.3,3.6c0,1.6-0.4,2.8-1.3,3.8C477.8,404.5,476.6,405,475.2,405z
				 M475.3,396.3c-0.9,0-1.6,0.3-2.2,1c-0.6,0.7-0.8,1.5-0.8,2.6c0,1.1,0.3,2,0.8,2.6c0.5,0.7,1.3,1,2.1,1c0.9,0,1.7-0.3,2.2-0.9
				c0.5-0.6,0.8-1.5,0.8-2.6c0-1.2-0.3-2.1-0.8-2.7S476.2,396.3,475.3,396.3z"/>
			<path style="fill:#686969;" d="M490,404.8h-1.8l-4.7-7.2c-0.1-0.2-0.2-0.4-0.3-0.6h0c0,0.2,0.1,0.7,0.1,1.3v6.4h-1.6v-9.8h1.9
				l4.5,7c0.2,0.3,0.3,0.5,0.4,0.6h0c0-0.3-0.1-0.7-0.1-1.3v-6.3h1.6V404.8z"/>
			<path style="fill:#686969;" d="M500.2,405c-1.4,0-2.5-0.5-3.4-1.4c-0.8-0.9-1.3-2.1-1.3-3.6c0-1.6,0.4-2.8,1.3-3.8
				c0.9-0.9,2-1.4,3.5-1.4c1.4,0,2.5,0.5,3.3,1.4c0.8,0.9,1.3,2.1,1.3,3.6c0,1.6-0.4,2.8-1.3,3.8C502.8,404.5,501.7,405,500.2,405z
				 M500.3,396.3c-0.9,0-1.6,0.3-2.2,1c-0.6,0.7-0.8,1.5-0.8,2.6c0,1.1,0.3,2,0.8,2.6c0.5,0.7,1.3,1,2.1,1c0.9,0,1.7-0.3,2.2-0.9
				c0.5-0.6,0.8-1.5,0.8-2.6c0-1.2-0.3-2.1-0.8-2.7S501.2,396.3,500.3,396.3z"/>
			<path style="fill:#686969;" d="M515,404.8h-1.8l-4.7-7.2c-0.1-0.2-0.2-0.4-0.3-0.6h0c0,0.2,0.1,0.7,0.1,1.3v6.4h-1.6v-9.8h1.9
				l4.5,7c0.2,0.3,0.3,0.5,0.4,0.6h0c0-0.3-0.1-0.7-0.1-1.3v-6.3h1.6V404.8z"/>
			<path style="fill:#686969;" d="M528,404.4c-0.7,0.4-1.6,0.6-2.7,0.6c-1.4,0-2.5-0.4-3.4-1.3c-0.9-0.9-1.3-2.1-1.3-3.5
				c0-1.6,0.5-2.8,1.4-3.8s2.2-1.4,3.6-1.4c0.9,0,1.7,0.1,2.3,0.4v1.6c-0.7-0.4-1.4-0.6-2.2-0.6c-1.1,0-1.9,0.3-2.6,1s-1,1.6-1,2.7
				c0,1.1,0.3,1.9,0.9,2.6c0.6,0.6,1.4,1,2.4,1c0.9,0,1.7-0.2,2.4-0.7V404.4z"/>
			<path style="fill:#686969;" d="M535.3,404.8h-5.4v-9.8h1.6v8.4h3.8V404.8z"/>
			<path style="fill:#686969;" d="M540.3,405c-1.4,0-2.5-0.5-3.4-1.4c-0.8-0.9-1.3-2.1-1.3-3.6c0-1.6,0.4-2.8,1.3-3.8
				c0.9-0.9,2-1.4,3.5-1.4c1.4,0,2.5,0.5,3.3,1.4c0.8,0.9,1.3,2.1,1.3,3.6c0,1.6-0.4,2.8-1.3,3.8C542.9,404.5,541.7,405,540.3,405z
				 M540.4,396.3c-0.9,0-1.6,0.3-2.2,1c-0.6,0.7-0.8,1.5-0.8,2.6c0,1.1,0.3,2,0.8,2.6c0.5,0.7,1.3,1,2.1,1c0.9,0,1.7-0.3,2.2-0.9
				c0.5-0.6,0.8-1.5,0.8-2.6c0-1.2-0.3-2.1-0.8-2.7S541.3,396.3,540.4,396.3z"/>
			<path style="fill:#686969;" d="M554.3,400.9c0,2.7-1.3,4.1-3.9,4.1c-2.5,0-3.7-1.3-3.7-4v-6h1.6v5.6c0,1.9,0.7,2.9,2.2,2.9
				c1.4,0,2.1-0.9,2.1-2.8v-5.7h1.6V400.9z"/>
			<path style="fill:#686969;" d="M556.6,404.8v-9.8h2.8c3.6,0,5.4,1.6,5.4,4.8c0,1.5-0.5,2.7-1.5,3.6c-1,0.9-2.3,1.4-4,1.4H556.6z
				 M558.2,396.5v7h1.3c1.1,0,2-0.3,2.7-0.9c0.6-0.6,0.9-1.5,0.9-2.7c0-2.3-1.2-3.4-3.5-3.4H558.2z"/>
		</g>
		<g>
			<path style="fill:#686969;" d="M492.1,523.9v-9.8h2.8c3.6,0,5.4,1.6,5.4,4.8c0,1.5-0.5,2.7-1.5,3.6c-1,0.9-2.3,1.4-4,1.4H492.1z
				 M493.7,515.5v7h1.3c1.1,0,2-0.3,2.7-0.9c0.6-0.6,0.9-1.5,0.9-2.7c0-2.3-1.2-3.4-3.5-3.4H493.7z"/>
			<path style="fill:#686969;" d="M509.9,523.9h-1.8l-0.9-2.5h-3.8l-0.8,2.5h-1.8l3.7-9.8h1.8L509.9,523.9z M506.8,520.1l-1.4-3.9
				c0-0.1-0.1-0.3-0.1-0.6h0c0,0.3-0.1,0.5-0.1,0.6l-1.3,3.9H506.8z"/>
			<path style="fill:#686969;" d="M516.5,515.5h-2.8v8.4h-1.6v-8.4h-2.8v-1.4h7.2V515.5z"/>
			<path style="fill:#686969;" d="M525,523.9h-1.8l-0.9-2.5h-3.8l-0.8,2.5h-1.8l3.7-9.8h1.8L525,523.9z M521.9,520.1l-1.4-3.9
				c0-0.1-0.1-0.3-0.1-0.6h0c0,0.3-0.1,0.5-0.1,0.6l-1.3,3.9H521.9z"/>
			<path style="fill:#686969;" d="M526.3,523.9v-9.8h3.1c0.9,0,1.7,0.2,2.2,0.6c0.6,0.4,0.8,0.9,0.8,1.6c0,0.6-0.2,1-0.5,1.4
				c-0.3,0.4-0.7,0.7-1.3,0.9v0c0.7,0.1,1.2,0.3,1.6,0.7c0.4,0.4,0.6,1,0.6,1.6c0,0.8-0.3,1.5-1,2s-1.5,0.8-2.5,0.8H526.3z
				 M527.9,515.4v2.8h1c0.6,0,1-0.1,1.3-0.4c0.3-0.3,0.5-0.6,0.5-1.1c0-0.8-0.6-1.3-1.7-1.3H527.9z M527.9,519.5v3.1h1.4
				c0.6,0,1.1-0.1,1.4-0.4c0.3-0.3,0.5-0.7,0.5-1.2c0-1-0.7-1.5-2.1-1.5H527.9z"/>
			<path style="fill:#686969;" d="M542.7,523.9h-1.8l-0.9-2.5h-3.8l-0.8,2.5h-1.8l3.7-9.8h1.8L542.7,523.9z M539.6,520.1l-1.4-3.9
				c0-0.1-0.1-0.3-0.1-0.6h0c0,0.3-0.1,0.5-0.1,0.6l-1.3,3.9H539.6z"/>
			<path style="fill:#686969;" d="M543.6,523.5v-1.7c0.1,0.1,0.3,0.3,0.5,0.4c0.2,0.1,0.4,0.2,0.7,0.3c0.2,0.1,0.5,0.1,0.7,0.2
				c0.2,0,0.4,0.1,0.6,0.1c0.7,0,1.2-0.1,1.5-0.3s0.5-0.6,0.5-1c0-0.2-0.1-0.4-0.2-0.6s-0.3-0.3-0.5-0.5s-0.4-0.3-0.7-0.4
				c-0.3-0.1-0.6-0.3-0.9-0.4c-0.3-0.2-0.6-0.4-0.9-0.5c-0.3-0.2-0.5-0.4-0.7-0.6s-0.4-0.5-0.5-0.7s-0.2-0.6-0.2-1
				c0-0.5,0.1-0.9,0.3-1.2s0.5-0.6,0.8-0.8c0.3-0.2,0.7-0.4,1.2-0.5s0.9-0.2,1.3-0.2c1,0,1.8,0.1,2.2,0.3v1.6
				c-0.6-0.4-1.3-0.6-2.1-0.6c-0.2,0-0.5,0-0.7,0.1c-0.2,0-0.5,0.1-0.6,0.2s-0.3,0.2-0.5,0.4s-0.2,0.4-0.2,0.6c0,0.2,0,0.4,0.1,0.6
				c0.1,0.2,0.2,0.3,0.4,0.4c0.2,0.1,0.4,0.3,0.6,0.4c0.3,0.1,0.5,0.3,0.9,0.4c0.3,0.2,0.7,0.4,1,0.6c0.3,0.2,0.6,0.4,0.8,0.6
				c0.2,0.2,0.4,0.5,0.5,0.8s0.2,0.6,0.2,1c0,0.5-0.1,0.9-0.3,1.3c-0.2,0.3-0.5,0.6-0.8,0.8c-0.3,0.2-0.7,0.4-1.2,0.5
				c-0.4,0.1-0.9,0.1-1.4,0.1c-0.2,0-0.4,0-0.6,0c-0.2,0-0.5-0.1-0.7-0.1c-0.2,0-0.5-0.1-0.7-0.2
				C543.9,523.6,543.7,523.6,543.6,523.5z"/>
			<path style="fill:#686969;" d="M557.1,523.9h-5.5v-9.8h5.3v1.4h-3.6v2.8h3.4v1.4h-3.4v2.9h3.9V523.9z"/>
			<path style="fill:#686969;" d="M558.4,523.5v-1.7c0.1,0.1,0.3,0.3,0.5,0.4c0.2,0.1,0.4,0.2,0.7,0.3c0.2,0.1,0.5,0.1,0.7,0.2
				c0.2,0,0.4,0.1,0.6,0.1c0.7,0,1.2-0.1,1.5-0.3s0.5-0.6,0.5-1c0-0.2-0.1-0.4-0.2-0.6s-0.3-0.3-0.5-0.5s-0.4-0.3-0.7-0.4
				c-0.3-0.1-0.6-0.3-0.9-0.4c-0.3-0.2-0.6-0.4-0.9-0.5c-0.3-0.2-0.5-0.4-0.7-0.6s-0.4-0.5-0.5-0.7s-0.2-0.6-0.2-1
				c0-0.5,0.1-0.9,0.3-1.2s0.5-0.6,0.8-0.8c0.3-0.2,0.7-0.4,1.2-0.5s0.9-0.2,1.3-0.2c1,0,1.8,0.1,2.2,0.3v1.6
				c-0.6-0.4-1.3-0.6-2.1-0.6c-0.2,0-0.5,0-0.7,0.1c-0.2,0-0.5,0.1-0.6,0.2s-0.3,0.2-0.5,0.4s-0.2,0.4-0.2,0.6c0,0.2,0,0.4,0.1,0.6
				c0.1,0.2,0.2,0.3,0.4,0.4c0.2,0.1,0.4,0.3,0.6,0.4c0.3,0.1,0.5,0.3,0.9,0.4c0.3,0.2,0.7,0.4,1,0.6c0.3,0.2,0.6,0.4,0.8,0.6
				c0.2,0.2,0.4,0.5,0.5,0.8s0.2,0.6,0.2,1c0,0.5-0.1,0.9-0.3,1.3c-0.2,0.3-0.5,0.6-0.8,0.8c-0.3,0.2-0.7,0.4-1.2,0.5
				c-0.4,0.1-0.9,0.1-1.4,0.1c-0.2,0-0.4,0-0.6,0c-0.2,0-0.5-0.1-0.7-0.1c-0.2,0-0.5-0.1-0.7-0.2
				C558.7,523.6,558.5,523.6,558.4,523.5z"/>
		</g>
		<path style="fill-rule:evenodd;clip-rule:evenodd;fill:#686969;" d="M543.2,487.2c0,2-2.1,2.9-4.2,2.9h-7.4v-2.4h7.4
			c0.4,0,0.6-0.9,0.6-0.9l-1.3,0.4l-2.8,0c-2.5,0-4.1-1.1-4.1-2.6v-0.2c0-2.6,0-3.6,0-4l-1.4-0.8v7.7h-3.7v-5.7l-2.1,4.2
			c-0.5,1.1-1.3,1.6-2.7,1.6s-2.2-0.5-2.7-1.6l-2.1-4.2v5.7h-3.4v-8.9c0-1.1,0.2-1.7,1.3-2c0.5-0.2,1.1-0.2,1.5-0.2
			c1.3,0,2.2,0.6,2.7,1.6l2.6,5.6l2.7-5.6c0.5-1.1,1.5-1.6,2.7-1.6c0.5,0,1,0.1,1.5,0.2c1,0.3,1.6,1,1.6,2v1.3h5.4v4.7
			c0,0.1,0.2,0.2,0.6,0.2l1,0h2.6v-4.8h3.7L543.2,487.2L543.2,487.2L543.2,487.2z M528.1,460c7.2,0,13.1,1.7,13.1,3.7
			c0,2-5.9,3.7-13.1,3.7c-7.3,0-13.1-1.7-13.1-3.7C515,461.6,520.8,460,528.1,460L528.1,460z M528.1,457.5
			c-10.2,0-18.4,3.2-18.4,6.7v31.9c0,3.5,8.2,7.6,18.4,7.6c10.1,0,18.4-3.9,18.4-7.4v-31.9C546.5,460.9,538.2,457.5,528.1,457.5
			L528.1,457.5z"/>
		<g>
			<path style="fill:#DFDFDE;" d="M401.6,112.5c0,14.6,3.8,28.3,10.4,40.2h-0.1l72.5,123.2l0.1-0.2c0,0.1,0,0.2,0,0.2s0-0.1,0.1-0.3
				l72.6-122.9h-0.1c6.6-11.9,10.4-25.6,10.4-40.2c0-45.8-37.1-83-83-83C438.7,29.5,401.6,66.7,401.6,112.5z"/>
		</g>
		
			<path style="fill:none;stroke:#898989;stroke-width:4;stroke-linecap:round;stroke-linejoin:round;stroke-miterlimit:10;stroke-dasharray:5,9;" d="
			M483.8,305.2c-148.9,0-269.6,121-269.6,270.3v289.1c0,141.3,120.7,270.3,269.6,270.3c148.9,0,269.6-121,269.6-270.3V575.5
			C753.4,426.2,632.7,305.2,483.8,305.2z"/>
		<g>
			<path style="fill:#898989;" d="M624.2,324.8l-2.4-1.2l0.5-3.9l-5.2-2.6l-2.8,2.8l-2.4-1.2l11.5-10.7l2.5,1.2L624.2,324.8z
				 M622.6,317.6l0.8-6.2c0-0.2,0.1-0.5,0.2-0.9l0,0c-0.2,0.3-0.4,0.6-0.6,0.7l-4.4,4.3L622.6,317.6z"/>
			<path style="fill:#898989;" d="M641.6,319l-12.7,6.1l6.9,3.9l-1,1.8l-9.9-5.6l0.5-1l12.7-6l-6.5-3.7l1-1.8l9.4,5.3L641.6,319z"/>
			<path style="fill:#898989;" d="M649.5,333c-2.2,3.5-5,4.2-8.3,2.1c-3.2-2-3.7-4.7-1.6-8l4.8-7.6l2.1,1.3L642,328
				c-1.5,2.4-1.4,4.3,0.5,5.5c1.8,1.2,3.5,0.6,5-1.8l4.6-7.3l2.1,1.3L649.5,333z"/>
			<path style="fill:#898989;" d="M658.3,346.4l-2.3-1.6l0.3-4.6c0-0.4,0-0.8,0-1.1c0-0.3-0.1-0.6-0.1-0.9s-0.2-0.5-0.4-0.7
				c-0.2-0.2-0.4-0.4-0.6-0.6l-0.8-0.6l-3.4,4.9l-2-1.4l8.5-12l4,2.8c0.6,0.4,1,0.8,1.4,1.3s0.7,1,0.8,1.5c0.2,0.5,0.2,1.1,0.1,1.6
				c-0.1,0.5-0.3,1.1-0.7,1.6c-0.3,0.4-0.6,0.8-1,1c-0.4,0.3-0.8,0.5-1.2,0.6s-0.9,0.2-1.3,0.1c-0.5,0-0.9-0.1-1.4-0.3l0,0
				c0.1,0.3,0.2,0.5,0.3,0.8c0.1,0.3,0.1,0.5,0.1,0.8c0,0.3,0.1,0.5,0.1,0.8s0,0.6,0,1L658.3,346.4z M658.3,330.9l-2.8,3.9l1.7,1.2
				c0.3,0.2,0.6,0.4,1,0.5s0.6,0.1,1,0.1c0.3,0,0.6-0.2,0.9-0.3c0.3-0.2,0.5-0.4,0.8-0.8c0.4-0.6,0.5-1.2,0.4-1.7s-0.5-1.1-1.2-1.6
				L658.3,330.9z"/>
			<path style="fill:#898989;" d="M666,352.4l-6.5-5l9-11.6l6.3,4.8l-1.3,1.6l-4.3-3.4l-2.5,3.3l4,3.1l-1.3,1.6l-4-3.1l-2.7,3.4
				l4.6,3.6L666,352.4z"/>
			<path style="fill:#898989;" d="M690.7,354.2l-13.7,7.5l-2-1.8l5.8-14.5l2,1.8l-4.6,10.8c-0.1,0.3-0.4,0.7-0.6,1.1l0,0
				c0.3-0.3,0.6-0.5,1.1-0.8l10.1-5.9L690.7,354.2z"/>
			<path style="fill:#898989;" d="M684.1,368.3l-1.8-1.7l10.1-10.7l1.8,1.7L684.1,368.3z"/>
			<path style="fill:#898989;" d="M694.6,378.8l-2-2l1.2-4.4c0.1-0.4,0.2-0.8,0.2-1.1c0-0.3,0-0.6,0-0.9s-0.1-0.5-0.2-0.7
				c-0.1-0.2-0.3-0.5-0.5-0.7l-0.7-0.7l-4.2,4.2l-1.7-1.7l10.5-10.3l3.4,3.4c0.5,0.5,0.9,1,1.2,1.5c0.3,0.5,0.5,1.1,0.5,1.6
				c0.1,0.5,0,1.1-0.2,1.6c-0.2,0.5-0.5,1-1,1.5c-0.4,0.4-0.8,0.6-1.2,0.8c-0.4,0.2-0.8,0.3-1.3,0.3c-0.4,0-0.9,0-1.3-0.1
				c-0.5-0.1-0.9-0.3-1.3-0.6l0,0c0.1,0.3,0.1,0.6,0.1,0.8c0,0.3,0,0.5,0,0.8c0,0.3,0,0.5-0.1,0.8c-0.1,0.3-0.1,0.6-0.2,1
				L694.6,378.8z M697.4,363.5l-3.4,3.4l1.4,1.4c0.3,0.3,0.5,0.5,0.9,0.6c0.3,0.1,0.6,0.2,0.9,0.2c0.3,0,0.6,0,1-0.2
				c0.3-0.1,0.6-0.3,0.9-0.6c0.5-0.5,0.7-1,0.7-1.6c0-0.6-0.3-1.2-0.9-1.8L697.4,363.5z"/>
			<path style="fill:#898989;" d="M711,378.1l-2.8-3.1l-9.4,8.5l-1.6-1.8l9.4-8.5l-2.8-3.1l1.5-1.4l7.3,8.1L711,378.1z"/>
			<path style="fill:#898989;" d="M714.7,393c-3.2,2.6-6,2.4-8.5-0.6c-2.4-2.9-2-5.6,1-8.1l6.9-5.7l1.6,1.9l-6.6,5.4
				c-2.2,1.8-2.6,3.6-1.2,5.3c1.4,1.7,3.1,1.6,5.3-0.2l6.7-5.5l1.6,1.9L714.7,393z"/>
			<path style="fill:#898989;" d="M719.1,408.7l-1.6-2.1l2.2-3.3l-3.4-4.6l-3.8,1.2l-1.6-2.1l15.1-4.3l1.6,2.2L719.1,408.7z
				 M720.9,401.6l3.5-5.1c0.1-0.2,0.3-0.4,0.6-0.7l0,0c-0.3,0.2-0.6,0.3-0.9,0.4l-5.9,1.9L720.9,401.6z"/>
			<path style="fill:#898989;" d="M724.6,417l-4.6-6.7l12.2-8.2l1.4,2l-10.5,7.1l3.2,4.7L724.6,417z"/>
			<path style="fill:#898989;" d="M735,434.3l-1.3-2.3l5.8-11.5c0.1-0.3,0.3-0.6,0.5-0.8l0-0.1c-0.2,0.2-0.8,0.6-1.7,1.1l-8.3,4.8
				l-1.2-2l12.7-7.4l1.4,2.5l-5.7,11.2c-0.2,0.5-0.4,0.8-0.5,0.9l0,0c0.3-0.3,0.9-0.6,1.7-1.1l8.2-4.8l1.2,2L735,434.3z"/>
			<path style="fill:#898989;" d="M740.4,444.7l-3.8-7.3l13.1-6.7l3.6,7l-1.8,1l-2.5-4.9l-3.7,1.9l2.3,4.5l-1.8,0.9l-2.3-4.5l-3.9,2
				l2.7,5.2L740.4,444.7z"/>
			<path style="fill:#898989;" d="M756.9,450.2l-1.8-3.8l-11.5,5.3l-1-2.2l11.5-5.3l-1.8-3.8l1.9-0.9l4.6,9.9L756.9,450.2z"/>
			<path style="fill:#898989;" d="M766.9,469.3l-15.2,1.7l-1-2.6l8.5-6.4c0.4-0.3,0.8-0.5,1.3-0.7l0,0c-0.5,0.1-0.9,0.2-1.4,0.3
				l-10.6,1.2l-1-2.6l12.2-9.2l1,2.5l-9,6.4c-0.4,0.3-0.8,0.5-1.2,0.7l0,0c0.3-0.1,0.8-0.2,1.4-0.3l11.1-1.2l0.9,2.3l-9.1,6.6
				c-0.3,0.2-0.7,0.5-1.1,0.7l0,0c0.3-0.1,0.8-0.2,1.3-0.3l11-1.5L766.9,469.3z"/>
			<path style="fill:#898989;" d="M755.3,482.3c-0.6-2-0.5-3.8,0.4-5.5c0.9-1.6,2.4-2.8,4.5-3.5c2.3-0.7,4.2-0.7,6,0.1
				c1.7,0.8,2.9,2.3,3.6,4.4c0.6,2,0.5,3.8-0.4,5.4s-2.4,2.8-4.5,3.4c-2.3,0.7-4.3,0.7-6-0.1S756,484.3,755.3,482.3z M767.8,478.4
				c-0.4-1.3-1.2-2.2-2.4-2.7c-1.2-0.5-2.6-0.5-4.2,0c-1.6,0.5-2.7,1.3-3.4,2.4c-0.7,1.1-0.8,2.3-0.4,3.5c0.4,1.3,1.2,2.3,2.4,2.7
				c1.2,0.5,2.5,0.5,4.2-0.1c1.7-0.5,2.8-1.3,3.5-2.4C768.1,480.9,768.2,479.7,767.8,478.4z"/>
			<path style="fill:#898989;" d="M761.3,502.4l-0.7-2.8l3.2-3.3c0.3-0.3,0.5-0.6,0.7-0.8c0.2-0.3,0.3-0.5,0.5-0.8
				c0.1-0.2,0.2-0.5,0.2-0.8c0-0.3,0-0.5-0.1-0.8l-0.3-1l-5.8,1.5l-0.6-2.4l14.2-3.7l1.2,4.7c0.2,0.7,0.3,1.3,0.2,1.9
				c0,0.6-0.1,1.2-0.3,1.7s-0.5,0.9-0.9,1.3c-0.4,0.4-0.9,0.6-1.6,0.8c-0.5,0.1-1,0.2-1.4,0.1s-0.9-0.2-1.3-0.3s-0.8-0.4-1.1-0.8
				c-0.3-0.3-0.6-0.7-0.9-1.2l0,0c-0.1,0.3-0.2,0.6-0.3,0.8c-0.1,0.2-0.3,0.5-0.4,0.7s-0.3,0.4-0.5,0.7c-0.2,0.2-0.4,0.5-0.7,0.8
				L761.3,502.4z M771.3,490.5l-4.6,1.2l0.5,2c0.1,0.4,0.2,0.7,0.4,1c0.2,0.3,0.4,0.5,0.7,0.7c0.3,0.2,0.6,0.3,0.9,0.3
				c0.3,0,0.7,0,1.1-0.1c0.7-0.2,1.2-0.5,1.4-1.1c0.3-0.5,0.3-1.2,0.1-2L771.3,490.5z"/>
			<path style="fill:#898989;" d="M763.9,514.7l-0.7-3.1l5.5-6.4c0.2-0.2,0.4-0.4,0.4-0.4l0,0l-7.1,1.5l-0.5-2.4l14.4-3.1l0.5,2.4
				l-6.8,1.4l0,0c0.2,0,0.4,0.1,0.6,0.2l7.3,3.5l0.6,2.9l-8.1-4.2L763.9,514.7z"/>
		</g>
		<g>
			<polygon style="fill:#898989;" points="602.1,304.8 597.8,295.6 596.7,296.2 600.4,304.2 592.5,308 593,309.1 602.1,304.8 
				602.1,304.8 			"/>
			<polygon style="fill:#898989;" points="577.2,295.9 586.4,291.5 586.9,292.7 578.9,296.5 582.7,304.5 581.5,305.1 577.2,295.9 
				577.2,295.9 			"/>
			<path style="fill:#898989;" d="M586.7,299.3c-0.3,0.8-1.2,1.3-2.1,1c-0.9-0.3-1.3-1.2-1-2.1c0.3-0.8,1.2-1.3,2.1-1
				C586.5,297.5,587,298.4,586.7,299.3L586.7,299.3z"/>
			<path style="fill:#898989;" d="M591.2,300.9c0.3-0.8-0.1-1.8-1-2.1c-0.8-0.3-1.8,0.1-2.1,1c-0.3,0.8,0.1,1.8,1,2.1
				C590,302.2,590.9,301.7,591.2,300.9L591.2,300.9z"/>
			<path style="fill:#898989;" d="M595.8,302.5c0.3-0.8-0.1-1.8-1-2.1c-0.8-0.3-1.8,0.1-2.1,1s0.1,1.8,1,2.1
				C594.5,303.8,595.5,303.3,595.8,302.5L595.8,302.5z"/>
		</g>
		<g>
			<g>
				<path style="fill:#686969;" d="M349.7,523.9h-1.8l-0.9-2.5h-3.8l-0.8,2.5h-1.8l3.7-9.8h1.8L349.7,523.9z M346.6,520.1l-1.4-3.9
					c0-0.1-0.1-0.3-0.1-0.6h0c0,0.3-0.1,0.5-0.1,0.6l-1.3,3.9H346.6z"/>
				<path style="fill:#686969;" d="M357.6,523.4c-0.7,0.4-1.6,0.6-2.7,0.6c-1.4,0-2.5-0.4-3.4-1.3c-0.9-0.9-1.3-2.1-1.3-3.5
					c0-1.6,0.5-2.8,1.4-3.8s2.2-1.4,3.6-1.4c0.9,0,1.7,0.1,2.3,0.4v1.6c-0.7-0.4-1.4-0.6-2.2-0.6c-1.1,0-1.9,0.3-2.6,1s-1,1.6-1,2.7
					c0,1.1,0.3,1.9,0.9,2.6c0.6,0.6,1.4,1,2.4,1c0.9,0,1.7-0.2,2.4-0.7V523.4z"/>
				<path style="fill:#686969;" d="M365.9,523.4c-0.7,0.4-1.6,0.6-2.7,0.6c-1.4,0-2.5-0.4-3.4-1.3c-0.9-0.9-1.3-2.1-1.3-3.5
					c0-1.6,0.5-2.8,1.4-3.8s2.2-1.4,3.6-1.4c0.9,0,1.7,0.1,2.3,0.4v1.6c-0.7-0.4-1.4-0.6-2.2-0.6c-1.1,0-1.9,0.3-2.6,1s-1,1.6-1,2.7
					c0,1.1,0.3,1.9,0.9,2.6c0.6,0.6,1.4,1,2.4,1c0.9,0,1.7-0.2,2.4-0.7V523.4z"/>
				<path style="fill:#686969;" d="M373.2,523.9h-5.5v-9.8h5.3v1.4h-3.6v2.8h3.4v1.4h-3.4v2.9h3.9V523.9z"/>
				<path style="fill:#686969;" d="M374.5,523.5v-1.7c0.1,0.1,0.3,0.3,0.5,0.4c0.2,0.1,0.4,0.2,0.7,0.3c0.2,0.1,0.5,0.1,0.7,0.2
					c0.2,0,0.4,0.1,0.6,0.1c0.7,0,1.2-0.1,1.5-0.3s0.5-0.6,0.5-1c0-0.2-0.1-0.4-0.2-0.6s-0.3-0.3-0.5-0.5s-0.4-0.3-0.7-0.4
					c-0.3-0.1-0.6-0.3-0.9-0.4c-0.3-0.2-0.6-0.4-0.9-0.5c-0.3-0.2-0.5-0.4-0.7-0.6s-0.4-0.5-0.5-0.7s-0.2-0.6-0.2-1
					c0-0.5,0.1-0.9,0.3-1.2s0.5-0.6,0.8-0.8c0.3-0.2,0.7-0.4,1.2-0.5s0.9-0.2,1.3-0.2c1,0,1.8,0.1,2.2,0.3v1.6
					c-0.6-0.4-1.3-0.6-2.1-0.6c-0.2,0-0.5,0-0.7,0.1c-0.2,0-0.5,0.1-0.6,0.2s-0.3,0.2-0.5,0.4s-0.2,0.4-0.2,0.6c0,0.2,0,0.4,0.1,0.6
					c0.1,0.2,0.2,0.3,0.4,0.4c0.2,0.1,0.4,0.3,0.6,0.4c0.3,0.1,0.5,0.3,0.9,0.4c0.3,0.2,0.7,0.4,1,0.6c0.3,0.2,0.6,0.4,0.8,0.6
					c0.2,0.2,0.4,0.5,0.5,0.8s0.2,0.6,0.2,1c0,0.5-0.1,0.9-0.3,1.3c-0.2,0.3-0.5,0.6-0.8,0.8c-0.3,0.2-0.7,0.4-1.2,0.5
					c-0.4,0.1-0.9,0.1-1.4,0.1c-0.2,0-0.4,0-0.6,0c-0.2,0-0.5-0.1-0.7-0.1c-0.2,0-0.5-0.1-0.7-0.2
					C374.8,523.6,374.6,523.6,374.5,523.5z"/>
				<path style="fill:#686969;" d="M382.1,523.5v-1.7c0.1,0.1,0.3,0.3,0.5,0.4c0.2,0.1,0.4,0.2,0.7,0.3c0.2,0.1,0.5,0.1,0.7,0.2
					c0.2,0,0.4,0.1,0.6,0.1c0.7,0,1.2-0.1,1.5-0.3s0.5-0.6,0.5-1c0-0.2-0.1-0.4-0.2-0.6s-0.3-0.3-0.5-0.5s-0.4-0.3-0.7-0.4
					c-0.3-0.1-0.6-0.3-0.9-0.4c-0.3-0.2-0.6-0.4-0.9-0.5c-0.3-0.2-0.5-0.4-0.7-0.6s-0.4-0.5-0.5-0.7s-0.2-0.6-0.2-1
					c0-0.5,0.1-0.9,0.3-1.2s0.5-0.6,0.8-0.8c0.3-0.2,0.7-0.4,1.2-0.5s0.9-0.2,1.3-0.2c1,0,1.8,0.1,2.2,0.3v1.6
					c-0.6-0.4-1.3-0.6-2.1-0.6c-0.2,0-0.5,0-0.7,0.1c-0.2,0-0.5,0.1-0.6,0.2s-0.3,0.2-0.5,0.4s-0.2,0.4-0.2,0.6c0,0.2,0,0.4,0.1,0.6
					c0.1,0.2,0.2,0.3,0.4,0.4c0.2,0.1,0.4,0.3,0.6,0.4c0.3,0.1,0.5,0.3,0.9,0.4c0.3,0.2,0.7,0.4,1,0.6c0.3,0.2,0.6,0.4,0.8,0.6
					c0.2,0.2,0.4,0.5,0.5,0.8s0.2,0.6,0.2,1c0,0.5-0.1,0.9-0.3,1.3c-0.2,0.3-0.5,0.6-0.8,0.8c-0.3,0.2-0.7,0.4-1.2,0.5
					c-0.4,0.1-0.9,0.1-1.4,0.1c-0.2,0-0.4,0-0.6,0c-0.2,0-0.5-0.1-0.7-0.1c-0.2,0-0.5-0.1-0.7-0.2
					C382.4,523.6,382.2,523.6,382.1,523.5z"/>
				<path style="fill:#686969;" d="M341.1,540.2c-0.7,0.4-1.6,0.6-2.7,0.6c-1.4,0-2.5-0.4-3.4-1.3c-0.9-0.9-1.3-2.1-1.3-3.5
					c0-1.6,0.5-2.8,1.4-3.8s2.2-1.4,3.6-1.4c0.9,0,1.7,0.1,2.3,0.4v1.6c-0.7-0.4-1.4-0.6-2.2-0.6c-1.1,0-1.9,0.3-2.6,1s-1,1.6-1,2.7
					c0,1.1,0.3,1.9,0.9,2.6c0.6,0.6,1.4,1,2.4,1c0.9,0,1.7-0.2,2.4-0.7V540.2z"/>
				<path style="fill:#686969;" d="M346.8,540.7c-1.4,0-2.5-0.5-3.4-1.4c-0.8-0.9-1.3-2.1-1.3-3.6c0-1.6,0.4-2.8,1.3-3.8
					c0.9-0.9,2-1.4,3.5-1.4c1.4,0,2.5,0.5,3.3,1.4c0.8,0.9,1.3,2.1,1.3,3.6c0,1.6-0.4,2.8-1.3,3.8
					C349.4,540.3,348.2,540.7,346.8,540.7z M346.8,532.1c-0.9,0-1.6,0.3-2.2,1c-0.6,0.7-0.8,1.5-0.8,2.6c0,1.1,0.3,2,0.8,2.6
					c0.5,0.7,1.3,1,2.1,1c0.9,0,1.7-0.3,2.2-0.9c0.5-0.6,0.8-1.5,0.8-2.6c0-1.2-0.3-2.1-0.8-2.7S347.8,532.1,346.8,532.1z"/>
				<path style="fill:#686969;" d="M361.6,540.6h-1.8l-4.7-7.2c-0.1-0.2-0.2-0.4-0.3-0.6h0c0,0.2,0.1,0.7,0.1,1.3v6.4h-1.6v-9.8h1.9
					l4.5,7c0.2,0.3,0.3,0.5,0.4,0.6h0c0-0.3-0.1-0.7-0.1-1.3v-6.3h1.6V540.6z"/>
				<path style="fill:#686969;" d="M370.2,532.2h-2.8v8.4h-1.6v-8.4H363v-1.4h7.2V532.2z"/>
				<path style="fill:#686969;" d="M379.2,540.6h-1.9l-1.6-2.6c-0.1-0.2-0.3-0.4-0.4-0.6c-0.1-0.2-0.3-0.3-0.4-0.4
					c-0.1-0.1-0.3-0.2-0.5-0.2s-0.3-0.1-0.6-0.1h-0.7v4h-1.6v-9.8h3.2c0.5,0,0.9,0.1,1.3,0.2c0.4,0.1,0.7,0.3,1,0.5
					c0.3,0.2,0.5,0.5,0.7,0.8c0.2,0.3,0.2,0.7,0.2,1.2c0,0.3-0.1,0.7-0.2,0.9c-0.1,0.3-0.2,0.5-0.4,0.8c-0.2,0.2-0.4,0.4-0.7,0.6
					c-0.3,0.2-0.6,0.3-0.9,0.4v0c0.2,0.1,0.3,0.2,0.5,0.3c0.1,0.1,0.3,0.2,0.4,0.4c0.1,0.1,0.2,0.3,0.3,0.4c0.1,0.2,0.2,0.3,0.4,0.6
					L379.2,540.6z M373.3,532.1v3.2h1.3c0.2,0,0.5,0,0.7-0.1s0.4-0.2,0.5-0.3c0.2-0.1,0.3-0.3,0.4-0.5c0.1-0.2,0.1-0.4,0.1-0.7
					c0-0.5-0.1-0.8-0.4-1.1s-0.7-0.4-1.3-0.4H373.3z"/>
				<path style="fill:#686969;" d="M384.2,540.7c-1.4,0-2.5-0.5-3.4-1.4c-0.8-0.9-1.3-2.1-1.3-3.6c0-1.6,0.4-2.8,1.3-3.8
					c0.9-0.9,2-1.4,3.5-1.4c1.4,0,2.5,0.5,3.3,1.4c0.8,0.9,1.3,2.1,1.3,3.6c0,1.6-0.4,2.8-1.3,3.8
					C386.8,540.3,385.6,540.7,384.2,540.7z M384.3,532.1c-0.9,0-1.6,0.3-2.2,1c-0.6,0.7-0.8,1.5-0.8,2.6c0,1.1,0.3,2,0.8,2.6
					c0.5,0.7,1.3,1,2.1,1c0.9,0,1.7-0.3,2.2-0.9c0.5-0.6,0.8-1.5,0.8-2.6c0-1.2-0.3-2.1-0.8-2.7S385.2,532.1,384.3,532.1z"/>
				<path style="fill:#686969;" d="M396.1,540.6h-5.4v-9.8h1.6v8.4h3.8V540.6z"/>
			</g>
			<g>
				<path style="fill-rule:evenodd;clip-rule:evenodd;fill:#686969;" d="M393.1,478.5l-28.2-33.7v-0.5l-0.2,0.2l-0.3-0.4v0.7
					l-28.2,33.4l28.4,23.1v0.3L393.1,478.5L393.1,478.5L393.1,478.5z M361.2,490.3l0-14.4c-2.6-1.4-4.4-4.2-4.4-7.5
					c0-4.7,3.6-8.4,8-8.4c4.4,0,8,3.8,8,8.5c0,3.3-1.8,6.1-4.4,7.5l0,2.8l-0.1,0.2l-2.7,2.8l2.8,3l0,0.2l-2.6,2.8l2.5,2.6l-3.5,3.7
					L361.2,490.3L361.2,490.3L361.2,490.3z"/>
				<path style="fill-rule:evenodd;clip-rule:evenodd;fill:#686969;" d="M367.7,466c0-1.4-1.6-2.5-3-2.5c-1.3,0-2.8,1-2.8,2.4
					c0,1.4,1.4,2.9,2.8,2.9C366,468.9,367.7,467.5,367.7,466L367.7,466z"/>
			</g>
		</g>
		<g>
			<g>
				<path style="fill:#686969;" d="M585,523.5v-1.7c0.1,0.1,0.3,0.3,0.5,0.4c0.2,0.1,0.4,0.2,0.7,0.3c0.2,0.1,0.5,0.1,0.7,0.2
					c0.2,0,0.4,0.1,0.6,0.1c0.7,0,1.2-0.1,1.5-0.3s0.5-0.6,0.5-1c0-0.2-0.1-0.4-0.2-0.6s-0.3-0.3-0.5-0.5s-0.4-0.3-0.7-0.4
					c-0.3-0.1-0.6-0.3-0.9-0.4c-0.3-0.2-0.6-0.4-0.9-0.5c-0.3-0.2-0.5-0.4-0.7-0.6s-0.4-0.5-0.5-0.7s-0.2-0.6-0.2-1
					c0-0.5,0.1-0.9,0.3-1.2s0.5-0.6,0.8-0.8c0.3-0.2,0.7-0.4,1.2-0.5s0.9-0.2,1.3-0.2c1,0,1.8,0.1,2.2,0.3v1.6
					c-0.6-0.4-1.3-0.6-2.1-0.6c-0.2,0-0.5,0-0.7,0.1c-0.2,0-0.5,0.1-0.6,0.2s-0.3,0.2-0.5,0.4s-0.2,0.4-0.2,0.6c0,0.2,0,0.4,0.1,0.6
					c0.1,0.2,0.2,0.3,0.4,0.4c0.2,0.1,0.4,0.3,0.6,0.4c0.3,0.1,0.5,0.3,0.9,0.4c0.3,0.2,0.7,0.4,1,0.6c0.3,0.2,0.6,0.4,0.8,0.6
					c0.2,0.2,0.4,0.5,0.5,0.8s0.2,0.6,0.2,1c0,0.5-0.1,0.9-0.3,1.3c-0.2,0.3-0.5,0.6-0.8,0.8c-0.3,0.2-0.7,0.4-1.2,0.5
					c-0.4,0.1-0.9,0.1-1.4,0.1c-0.2,0-0.4,0-0.6,0c-0.2,0-0.5-0.1-0.7-0.1c-0.2,0-0.5-0.1-0.7-0.2
					C585.3,523.6,585.1,523.6,585,523.5z"/>
				<path style="fill:#686969;" d="M599.3,515.5h-2.8v8.4h-1.6v-8.4h-2.8v-1.4h7.2V515.5z"/>
				<path style="fill:#686969;" d="M604.2,524c-1.4,0-2.5-0.5-3.4-1.4c-0.8-0.9-1.3-2.1-1.3-3.6c0-1.6,0.4-2.8,1.3-3.8
					c0.9-0.9,2-1.4,3.5-1.4c1.4,0,2.5,0.5,3.3,1.4c0.8,0.9,1.3,2.1,1.3,3.6c0,1.6-0.4,2.8-1.3,3.8C606.7,523.6,605.6,524,604.2,524z
					 M604.2,515.4c-0.9,0-1.6,0.3-2.2,1c-0.6,0.7-0.8,1.5-0.8,2.6c0,1.1,0.3,2,0.8,2.6c0.5,0.7,1.3,1,2.1,1c0.9,0,1.7-0.3,2.2-0.9
					c0.5-0.6,0.8-1.5,0.8-2.6c0-1.2-0.3-2.1-0.8-2.7S605.2,515.4,604.2,515.4z"/>
				<path style="fill:#686969;" d="M618.2,523.9h-1.9l-1.6-2.6c-0.1-0.2-0.3-0.4-0.4-0.6c-0.1-0.2-0.3-0.3-0.4-0.4
					c-0.1-0.1-0.3-0.2-0.5-0.2s-0.3-0.1-0.6-0.1h-0.7v4h-1.6v-9.8h3.2c0.5,0,0.9,0.1,1.3,0.2c0.4,0.1,0.7,0.3,1,0.5
					c0.3,0.2,0.5,0.5,0.7,0.8c0.2,0.3,0.2,0.7,0.2,1.2c0,0.3-0.1,0.7-0.2,0.9c-0.1,0.3-0.2,0.5-0.4,0.8c-0.2,0.2-0.4,0.4-0.7,0.6
					c-0.3,0.2-0.6,0.3-0.9,0.4v0c0.2,0.1,0.3,0.2,0.5,0.3c0.1,0.1,0.3,0.2,0.4,0.4c0.1,0.1,0.2,0.3,0.3,0.4c0.1,0.2,0.2,0.3,0.4,0.6
					L618.2,523.9z M612.3,515.4v3.2h1.3c0.2,0,0.5,0,0.7-0.1s0.4-0.2,0.5-0.3c0.2-0.1,0.3-0.3,0.4-0.5c0.1-0.2,0.1-0.4,0.1-0.7
					c0-0.5-0.1-0.8-0.4-1.1s-0.7-0.4-1.3-0.4H612.3z"/>
				<path style="fill:#686969;" d="M627.3,523.9h-1.8l-0.9-2.5h-3.8l-0.8,2.5h-1.8l3.7-9.8h1.8L627.3,523.9z M624.3,520.1l-1.4-3.9
					c0-0.1-0.1-0.3-0.1-0.6h0c0,0.3-0.1,0.5-0.1,0.6l-1.3,3.9H624.3z"/>
				<path style="fill:#686969;" d="M636.1,523.2c-1,0.6-2.1,0.8-3.4,0.8c-1.4,0-2.6-0.4-3.5-1.3c-0.9-0.9-1.3-2.1-1.3-3.6
					c0-1.5,0.5-2.7,1.5-3.7c1-1,2.2-1.5,3.7-1.5c1.1,0,2,0.2,2.7,0.5v1.7c-0.7-0.5-1.6-0.7-2.7-0.7c-1,0-1.9,0.3-2.6,1s-1,1.6-1,2.7
					c0,1.1,0.3,2,0.9,2.6s1.3,1,2.3,1c0.7,0,1.3-0.1,1.7-0.4v-2.3h-2.1v-1.4h3.7V523.2z"/>
				<path style="fill:#686969;" d="M643.7,523.9h-5.5v-9.8h5.3v1.4h-3.6v2.8h3.4v1.4h-3.4v2.9h3.9V523.9z"/>
			</g>
			<path style="fill-rule:evenodd;clip-rule:evenodd;fill:#686969;" d="M631,479.4h-3.1v-14.6c0-0.8-0.7-1.4-1.4-1.4h-34.7
				c-0.8,0-1.4,0.7-1.4,1.4v29.2c0,0.8,0.7,1.4,1.4,1.4h19.8l5.1,8.9H631l7.1-12.6L631,479.4L631,479.4L631,479.4z M618.2,471.8h6.9
				v4.2h-6.9V471.8L618.2,471.8L618.2,471.8z M625.1,477.3v2.1h-6.9v-2.1H625.1L625.1,477.3L625.1,477.3z M609.9,471.8h6.9v4.2h-6.9
				V471.8L609.9,471.8L609.9,471.8z M609.9,477.3h6.9v2.1h-0.2l-1.2,2.1h-5.6L609.9,477.3L609.9,477.3L609.9,477.3L609.9,477.3z
				 M609.9,483h4.8l-2.4,4.2h-2.4V483L609.9,483L609.9,483z M611.4,488.5l-1.6,2.8v-2.8H611.4L611.4,488.5L611.4,488.5z
				 M600.1,492.7h-6.9v-4.2h6.9V492.7L600.1,492.7L600.1,492.7z M600.1,487.2h-6.9V483h6.9V487.2L600.1,487.2L600.1,487.2z
				 M600.1,481.5h-6.9v-4.2h6.9V481.5L600.1,481.5L600.1,481.5z M600.1,476h-6.9v-4.2h6.9V476L600.1,476L600.1,476z M608.5,492.7
				h-6.9v-4.2h6.9V492.7L608.5,492.7L608.5,492.7z M608.5,487.2h-6.9V483h6.9V487.2L608.5,487.2L608.5,487.2z M608.5,481.5h-6.9
				v-4.2h6.9V481.5L608.5,481.5L608.5,481.5z M608.5,476h-6.9v-4.2h6.9V476L608.5,476L608.5,476z M609.9,492.7L609.9,492.7
				L609.9,492.7L609.9,492.7L609.9,492.7z"/>
		</g>
		<g>
			<g>
				<path style="fill:#686969;" d="M440,523.9h-1.8l-0.9-2.5h-3.8l-0.8,2.5h-1.8l3.7-9.8h1.8L440,523.9z M436.9,520.1l-1.4-3.9
					c0-0.1-0.1-0.3-0.1-0.6h0c0,0.3-0.1,0.5-0.1,0.6l-1.3,3.9H436.9z"/>
				<path style="fill:#686969;" d="M442.9,520.3v3.5h-1.6v-9.8h3c1.1,0,2,0.3,2.6,0.8s0.9,1.3,0.9,2.2s-0.3,1.7-1,2.3
					c-0.6,0.6-1.5,0.9-2.6,0.9H442.9z M442.9,515.4v3.6h1c0.7,0,1.2-0.2,1.6-0.5c0.4-0.3,0.5-0.8,0.5-1.4c0-1.1-0.7-1.7-2-1.7H442.9
					z"/>
				<path style="fill:#686969;" d="M451.1,520.3v3.5h-1.6v-9.8h3c1.1,0,2,0.3,2.6,0.8s0.9,1.3,0.9,2.2s-0.3,1.7-1,2.3
					c-0.6,0.6-1.5,0.9-2.6,0.9H451.1z M451.1,515.4v3.6h1c0.7,0,1.2-0.2,1.6-0.5c0.4-0.3,0.5-0.8,0.5-1.4c0-1.1-0.7-1.7-2-1.7H451.1
					z"/>
				<path style="fill:#686969;" d="M457.1,523.5v-1.7c0.1,0.1,0.3,0.3,0.5,0.4c0.2,0.1,0.4,0.2,0.7,0.3c0.2,0.1,0.5,0.1,0.7,0.2
					c0.2,0,0.4,0.1,0.6,0.1c0.7,0,1.2-0.1,1.5-0.3s0.5-0.6,0.5-1c0-0.2-0.1-0.4-0.2-0.6s-0.3-0.3-0.5-0.5s-0.4-0.3-0.7-0.4
					c-0.3-0.1-0.6-0.3-0.9-0.4c-0.3-0.2-0.6-0.4-0.9-0.5c-0.3-0.2-0.5-0.4-0.7-0.6s-0.4-0.5-0.5-0.7s-0.2-0.6-0.2-1
					c0-0.5,0.1-0.9,0.3-1.2s0.5-0.6,0.8-0.8c0.3-0.2,0.7-0.4,1.2-0.5s0.9-0.2,1.3-0.2c1,0,1.8,0.1,2.2,0.3v1.6
					c-0.6-0.4-1.3-0.6-2.1-0.6c-0.2,0-0.5,0-0.7,0.1c-0.2,0-0.5,0.1-0.6,0.2s-0.3,0.2-0.5,0.4s-0.2,0.4-0.2,0.6c0,0.2,0,0.4,0.1,0.6
					c0.1,0.2,0.2,0.3,0.4,0.4c0.2,0.1,0.4,0.3,0.6,0.4c0.3,0.1,0.5,0.3,0.9,0.4c0.3,0.2,0.7,0.4,1,0.6c0.3,0.2,0.6,0.4,0.8,0.6
					c0.2,0.2,0.4,0.5,0.5,0.8s0.2,0.6,0.2,1c0,0.5-0.1,0.9-0.3,1.3c-0.2,0.3-0.5,0.6-0.8,0.8c-0.3,0.2-0.7,0.4-1.2,0.5
					c-0.4,0.1-0.9,0.1-1.4,0.1c-0.2,0-0.4,0-0.6,0c-0.2,0-0.5-0.1-0.7-0.1c-0.2,0-0.5-0.1-0.7-0.2
					C457.5,523.6,457.3,523.6,457.1,523.5z"/>
			</g>
			<g>
				<path style="fill-rule:evenodd;clip-rule:evenodd;fill:#686969;" d="M439.7,488.4h16.8v-11.3h-16.8V488.4L439.7,488.4
					L439.7,488.4z M451.8,485.1l-3.2,1.8v-3.6l3.2-1.8V485.1L451.8,485.1L451.8,485.1z M448.3,479.1l3.2,1.8l-3.1,1.8l-3.2-1.8
					L448.3,479.1L448.3,479.1L448.3,479.1z M444.9,481.4l3.2,1.8v3.7l-3.2-1.8V481.4L444.9,481.4L444.9,481.4z"/>
				<path style="fill-rule:evenodd;clip-rule:evenodd;fill:#686969;" d="M467.6,468.8h-40.5c-1.1,0-2,0.9-2,2v31.6c0,1.1,0.9,2,2,2
					h40.5c1.1,0,2-0.9,2-2v-31.6C469.6,469.6,468.7,468.8,467.6,468.8L467.6,468.8z M447.2,498.2l-1.2,3.7c0,0,0,0.1,0,0.1
					c0,0,0,0-0.1,0.1c0,0-0.1,0-0.2,0c-0.1,0-0.2,0-0.3,0c-0.1,0-0.2,0-0.2,0c-0.1,0-0.1,0-0.2,0c0,0-0.1,0-0.1,0c0,0,0,0-0.1,0
					c0,0,0,0,0,0c0,0,0,0,0-0.1l-1.2-3.7c0-0.1,0-0.1,0-0.2c0,0,0-0.1,0-0.1c0,0,0.1,0,0.1,0c0.1,0,0.2,0,0.3,0c0.1,0,0.2,0,0.2,0
					c0.1,0,0.1,0,0.1,0c0,0,0.1,0,0.1,0c0,0,0,0,0,0.1l1,3.2h0l1-3.2c0,0,0-0.1,0-0.1c0,0,0,0,0.1-0.1c0,0,0.1,0,0.1,0s0.1,0,0.2,0
					c0.1,0,0.2,0,0.2,0c0.1,0,0.1,0,0.1,0c0,0,0,0.1,0,0.1C447.3,498.1,447.2,498.1,447.2,498.2L447.2,498.2z M452.6,501.9
					C452.6,501.9,452.6,502,452.6,501.9C452.6,502,452.6,502,452.6,501.9c-0.1,0.1-0.2,0.1-0.2,0.1c-0.1,0-0.1,0-0.2,0
					c-0.1,0-0.1,0-0.2,0c-0.1,0-0.1,0-0.1,0c0,0-0.1,0-0.1,0c0,0,0,0,0-0.1v-3.4h0l-1.2,3.4c0,0,0,0.1,0,0.1c0,0,0,0-0.1,0
					c0,0-0.1,0-0.1,0c-0.1,0-0.1,0-0.2,0c-0.1,0-0.1,0-0.2,0c-0.1,0-0.1,0-0.1,0c0,0-0.1,0-0.1,0s0,0,0-0.1l-1.2-3.4h0v3.4
					c0,0,0,0,0,0.1c0,0,0,0-0.1,0c0,0-0.1,0-0.1,0c-0.1,0-0.1,0-0.2,0c-0.1,0-0.1,0-0.2,0c-0.1,0-0.1,0-0.1,0c0,0-0.1,0-0.1,0
					c0,0,0,0,0-0.1v-3.7c0-0.1,0-0.2,0.1-0.2c0.1-0.1,0.1-0.1,0.2-0.1h0.6c0.1,0,0.2,0,0.3,0c0.1,0,0.1,0,0.2,0.1
					c0.1,0,0.1,0.1,0.1,0.1s0.1,0.1,0.1,0.2l0.9,2.5h0l0.9-2.5c0-0.1,0.1-0.2,0.1-0.2c0-0.1,0.1-0.1,0.1-0.2c0,0,0.1-0.1,0.2-0.1
					c0.1,0,0.1,0,0.2,0h0.6c0.1,0,0.1,0,0.1,0c0,0,0.1,0,0.1,0.1c0,0,0,0.1,0.1,0.1c0,0,0,0.1,0,0.1L452.6,501.9L452.6,501.9
					L452.6,501.9L452.6,501.9z M457.9,488.7c0,0.6-0.5,1.1-1.1,1.1h-6.1c-0.6,2.4-0.3,2.7,3.8,2.7v1h-12.8v-1c3.7,0,4.3-0.3,3.7-2.7
					h-6c-0.6,0-1.1-0.5-1.1-1.1v-11.9c0-0.6,0.5-1.1,1.1-1.1h17.4c0.6,0,1.1,0.5,1.1,1.1L457.9,488.7L457.9,488.7L457.9,488.7
					L457.9,488.7z"/>
			</g>
		</g>
		
			<rect x="382" y="381.2" style="fill:none;stroke:#686969;stroke-width:2;stroke-linecap:round;stroke-linejoin:round;stroke-miterlimit:10;" width="207.2" height="38"/>
		<g>
			<g>
				<path style="fill:#DFDFDE;" d="M470.5,716.9h-1.7v-9.8h1.7V716.9z"/>
				<path style="fill:#DFDFDE;" d="M480.9,716.9h-1.8l-0.9-2.5h-3.9l-0.8,2.5h-1.8l3.7-9.8h1.8L480.9,716.9z M477.8,713.1l-1.4-3.9
					c0-0.1-0.1-0.3-0.1-0.6h0c0,0.3-0.1,0.5-0.1,0.6l-1.3,3.9H477.8z"/>
				<path style="fill:#DFDFDE;" d="M490.3,716.9h-1.8l-0.9-2.5h-3.9l-0.8,2.5h-1.8l3.7-9.8h1.8L490.3,716.9z M487.2,713.1l-1.4-3.9
					c0-0.1-0.1-0.3-0.1-0.6h0c0,0.3-0.1,0.5-0.1,0.6l-1.3,3.9H487.2z"/>
				<path style="fill:#DFDFDE;" d="M491.2,716.5v-1.7c0.2,0.1,0.3,0.3,0.5,0.4c0.2,0.1,0.4,0.2,0.7,0.3c0.2,0.1,0.5,0.1,0.7,0.2
					s0.4,0.1,0.6,0.1c0.7,0,1.2-0.1,1.5-0.3s0.5-0.6,0.5-1c0-0.2-0.1-0.4-0.2-0.6c-0.1-0.2-0.3-0.3-0.5-0.5
					c-0.2-0.1-0.4-0.3-0.7-0.4c-0.3-0.1-0.6-0.3-0.9-0.4c-0.3-0.2-0.6-0.4-0.9-0.5s-0.5-0.4-0.7-0.6c-0.2-0.2-0.4-0.5-0.5-0.7
					c-0.1-0.3-0.2-0.6-0.2-1c0-0.5,0.1-0.9,0.3-1.2c0.2-0.3,0.5-0.6,0.8-0.8c0.3-0.2,0.7-0.4,1.2-0.5c0.4-0.1,0.9-0.2,1.3-0.2
					c1,0,1.8,0.1,2.2,0.3v1.6c-0.6-0.4-1.3-0.6-2.1-0.6c-0.2,0-0.5,0-0.7,0.1s-0.5,0.1-0.6,0.2c-0.2,0.1-0.3,0.2-0.5,0.4
					c-0.1,0.2-0.2,0.4-0.2,0.6c0,0.2,0,0.4,0.1,0.6c0.1,0.2,0.2,0.3,0.4,0.4c0.2,0.1,0.4,0.3,0.6,0.4c0.3,0.1,0.5,0.3,0.9,0.4
					c0.3,0.2,0.7,0.4,1,0.6c0.3,0.2,0.6,0.4,0.8,0.6c0.2,0.2,0.4,0.5,0.5,0.8c0.1,0.3,0.2,0.6,0.2,1c0,0.5-0.1,0.9-0.3,1.3
					c-0.2,0.3-0.5,0.6-0.8,0.8c-0.3,0.2-0.7,0.4-1.2,0.5c-0.4,0.1-0.9,0.1-1.4,0.1c-0.2,0-0.4,0-0.6,0c-0.2,0-0.5-0.1-0.7-0.1
					c-0.3,0-0.5-0.1-0.7-0.2C491.5,716.7,491.4,716.6,491.2,716.5z"/>
			</g>
			<g>
				
					<rect x="336.5" y="814.1" style="fill:none;stroke:#686969;stroke-width:3;stroke-linecap:round;stroke-linejoin:round;stroke-miterlimit:10;" width="296.5" height="34.3"/>
				<g>
					<path style="fill:#686969;" d="M359.3,767.8h-2.8v8.4h-1.6v-8.4h-2.8v-1.4h7.2V767.8z"/>
					<path style="fill:#686969;" d="M367.7,776.1h-1.8l-0.9-2.5h-3.8l-0.8,2.5h-1.8l3.7-9.8h1.8L367.7,776.1z M364.6,772.3l-1.4-3.9
						c0-0.1-0.1-0.3-0.1-0.6h0c0,0.3-0.1,0.5-0.1,0.6l-1.3,3.9H364.6z"/>
					<path style="fill:#686969;" d="M368.6,775.8v-1.7c0.1,0.1,0.3,0.3,0.5,0.4c0.2,0.1,0.4,0.2,0.7,0.3c0.2,0.1,0.5,0.1,0.7,0.2
						c0.2,0,0.4,0.1,0.6,0.1c0.7,0,1.2-0.1,1.5-0.3s0.5-0.6,0.5-1c0-0.2-0.1-0.4-0.2-0.6s-0.3-0.3-0.5-0.5s-0.4-0.3-0.7-0.4
						c-0.3-0.1-0.6-0.3-0.9-0.4c-0.3-0.2-0.6-0.4-0.9-0.5c-0.3-0.2-0.5-0.4-0.7-0.6s-0.4-0.5-0.5-0.7s-0.2-0.6-0.2-1
						c0-0.5,0.1-0.9,0.3-1.2s0.5-0.6,0.8-0.8c0.3-0.2,0.7-0.4,1.2-0.5s0.9-0.2,1.3-0.2c1,0,1.8,0.1,2.2,0.3v1.6
						c-0.6-0.4-1.3-0.6-2.1-0.6c-0.2,0-0.5,0-0.7,0.1c-0.2,0-0.5,0.1-0.6,0.2s-0.3,0.2-0.5,0.4s-0.2,0.4-0.2,0.6
						c0,0.2,0,0.4,0.1,0.6c0.1,0.2,0.2,0.3,0.4,0.4c0.2,0.1,0.4,0.3,0.6,0.4c0.3,0.1,0.5,0.3,0.9,0.4c0.3,0.2,0.7,0.4,1,0.6
						c0.3,0.2,0.6,0.4,0.8,0.6c0.2,0.2,0.4,0.5,0.5,0.8s0.2,0.6,0.2,1c0,0.5-0.1,0.9-0.3,1.3c-0.2,0.3-0.5,0.6-0.8,0.8
						c-0.3,0.2-0.7,0.4-1.2,0.5c-0.4,0.1-0.9,0.1-1.4,0.1c-0.2,0-0.4,0-0.6,0c-0.2,0-0.5-0.1-0.7-0.1c-0.2,0-0.5-0.1-0.7-0.2
						C368.9,775.9,368.7,775.8,368.6,775.8z"/>
					<path style="fill:#686969;" d="M384,776.1h-2.1l-3.4-4.5c-0.1-0.2-0.2-0.3-0.2-0.3h0v4.8h-1.6v-9.8h1.6v4.6h0
						c0.1-0.1,0.1-0.2,0.2-0.3l3.3-4.3h1.9l-3.8,4.7L384,776.1z"/>
					<path style="fill:#686969;" d="M348,784.5h-2.8v8.4h-1.6v-8.4h-2.8v-1.4h7.2V784.5z"/>
					<path style="fill:#686969;" d="M356.9,792.9H355l-1.6-2.6c-0.1-0.2-0.3-0.4-0.4-0.6c-0.1-0.2-0.3-0.3-0.4-0.4
						c-0.1-0.1-0.3-0.2-0.5-0.2s-0.3-0.1-0.6-0.1H351v4h-1.6v-9.8h3.2c0.5,0,0.9,0.1,1.3,0.2c0.4,0.1,0.7,0.3,1,0.5
						c0.3,0.2,0.5,0.5,0.7,0.8c0.2,0.3,0.2,0.7,0.2,1.2c0,0.3-0.1,0.7-0.2,0.9c-0.1,0.3-0.2,0.5-0.4,0.8c-0.2,0.2-0.4,0.4-0.7,0.6
						c-0.3,0.2-0.6,0.3-0.9,0.4v0c0.2,0.1,0.3,0.2,0.5,0.3c0.1,0.1,0.3,0.2,0.4,0.4c0.1,0.1,0.2,0.3,0.3,0.4
						c0.1,0.2,0.2,0.3,0.4,0.6L356.9,792.9z M351,784.4v3.2h1.3c0.2,0,0.5,0,0.7-0.1s0.4-0.2,0.5-0.3c0.2-0.1,0.3-0.3,0.4-0.5
						c0.1-0.2,0.1-0.4,0.1-0.7c0-0.5-0.1-0.8-0.4-1.1s-0.7-0.4-1.3-0.4H351z"/>
					<path style="fill:#686969;" d="M366.1,792.9h-1.8l-0.9-2.5h-3.8l-0.8,2.5H357l3.7-9.8h1.8L366.1,792.9z M363,789.1l-1.4-3.9
						c0-0.1-0.1-0.3-0.1-0.6h0c0,0.3-0.1,0.5-0.1,0.6l-1.3,3.9H363z"/>
					<path style="fill:#686969;" d="M374,792.5c-0.7,0.4-1.6,0.6-2.7,0.6c-1.4,0-2.5-0.4-3.4-1.3c-0.9-0.9-1.3-2.1-1.3-3.5
						c0-1.6,0.5-2.8,1.4-3.8s2.2-1.4,3.6-1.4c0.9,0,1.7,0.1,2.3,0.4v1.6c-0.7-0.4-1.4-0.6-2.2-0.6c-1.1,0-1.9,0.3-2.6,1
						s-1,1.6-1,2.7c0,1.1,0.3,1.9,0.9,2.6c0.6,0.6,1.4,1,2.4,1c0.9,0,1.7-0.2,2.4-0.7V792.5z"/>
					<path style="fill:#686969;" d="M383.3,792.9h-2.1l-3.4-4.5c-0.1-0.2-0.2-0.3-0.2-0.3h0v4.8h-1.6v-9.8h1.6v4.6h0
						c0.1-0.1,0.1-0.2,0.2-0.3l3.3-4.3h1.9l-3.8,4.7L383.3,792.9z"/>
					<path style="fill:#686969;" d="M389.9,792.9h-5.5v-9.8h5.3v1.4H386v2.8h3.4v1.4H386v2.9h3.9V792.9z"/>
					<path style="fill:#686969;" d="M399.1,792.9h-1.9l-1.6-2.6c-0.1-0.2-0.3-0.4-0.4-0.6c-0.1-0.2-0.3-0.3-0.4-0.4
						c-0.1-0.1-0.3-0.2-0.5-0.2s-0.3-0.1-0.6-0.1h-0.7v4h-1.6v-9.8h3.2c0.5,0,0.9,0.1,1.3,0.2c0.4,0.1,0.7,0.3,1,0.5
						c0.3,0.2,0.5,0.5,0.7,0.8c0.2,0.3,0.2,0.7,0.2,1.2c0,0.3-0.1,0.7-0.2,0.9c-0.1,0.3-0.2,0.5-0.4,0.8c-0.2,0.2-0.4,0.4-0.7,0.6
						c-0.3,0.2-0.6,0.3-0.9,0.4v0c0.2,0.1,0.3,0.2,0.5,0.3c0.1,0.1,0.3,0.2,0.4,0.4c0.1,0.1,0.2,0.3,0.3,0.4
						c0.1,0.2,0.2,0.3,0.4,0.6L399.1,792.9z M393.2,784.4v3.2h1.3c0.2,0,0.5,0,0.7-0.1s0.4-0.2,0.5-0.3c0.2-0.1,0.3-0.3,0.4-0.5
						c0.1-0.2,0.1-0.4,0.1-0.7c0-0.5-0.1-0.8-0.4-1.1s-0.7-0.4-1.3-0.4H393.2z"/>
				</g>
				<path style="fill:none;stroke:#686969;stroke-width:3;stroke-linecap:round;stroke-linejoin:round;stroke-miterlimit:10;" d="
					M479.7,778.4c0-18.4-14.9-33.3-33.3-33.3s-33.3,14.9-33.3,33.3c0,0,0,0.1,0,0.1h0v25.7h66.6L479.7,778.4L479.7,778.4
					C479.7,778.4,479.7,778.4,479.7,778.4z"/>
				<path style="fill:none;stroke:#686969;stroke-width:3;stroke-linecap:round;stroke-linejoin:round;stroke-miterlimit:10;" d="
					M403.1,778.4c0-18.4-14.9-33.3-33.3-33.3s-33.3,14.9-33.3,33.3c0,0,0,0.1,0,0.1h0v25.7h66.6L403.1,778.4L403.1,778.4
					C403.1,778.4,403.1,778.4,403.1,778.4z"/>
				<g>
					<path style="fill:#686969;" d="M438.6,772.7c0,1.2-0.3,2.1-0.9,2.7s-1.3,1-2.3,1c-0.4,0-0.8-0.1-1.1-0.2v-1.5
						c0.3,0.2,0.6,0.3,1,0.3c1.1,0,1.6-0.8,1.6-2.5v-6h1.6V772.7z"/>
					<path style="fill:#686969;" d="M444.9,776.3c-1.4,0-2.5-0.5-3.4-1.4c-0.8-0.9-1.3-2.1-1.3-3.6c0-1.6,0.4-2.8,1.3-3.8
						c0.9-0.9,2-1.4,3.5-1.4c1.4,0,2.5,0.5,3.3,1.4c0.8,0.9,1.3,2.1,1.3,3.6c0,1.6-0.4,2.8-1.3,3.8
						C447.5,775.8,446.3,776.3,444.9,776.3z M445,767.7c-0.9,0-1.6,0.3-2.2,1c-0.6,0.7-0.8,1.5-0.8,2.6c0,1.1,0.3,2,0.8,2.6
						c0.5,0.7,1.3,1,2.1,1c0.9,0,1.7-0.3,2.2-0.9c0.5-0.6,0.8-1.5,0.8-2.6c0-1.2-0.3-2.1-0.8-2.7S445.9,767.7,445,767.7z"/>
					<path style="fill:#686969;" d="M451.4,776.1v-9.8h3.1c0.9,0,1.7,0.2,2.2,0.6c0.6,0.4,0.8,0.9,0.8,1.6c0,0.6-0.2,1-0.5,1.4
						c-0.3,0.4-0.7,0.7-1.3,0.9v0c0.7,0.1,1.2,0.3,1.6,0.7c0.4,0.4,0.6,1,0.6,1.6c0,0.8-0.3,1.5-1,2s-1.5,0.8-2.5,0.8H451.4z
						 M453,767.7v2.8h1c0.6,0,1-0.1,1.3-0.4c0.3-0.3,0.5-0.6,0.5-1.1c0-0.8-0.6-1.3-1.7-1.3H453z M453,771.8v3.1h1.4
						c0.6,0,1.1-0.1,1.4-0.4c0.3-0.3,0.5-0.7,0.5-1.2c0-1-0.7-1.5-2.1-1.5H453z"/>
					<path style="fill:#686969;" d="M424.6,784.5h-2.8v8.4h-1.6v-8.4h-2.8v-1.4h7.2V784.5z"/>
					<path style="fill:#686969;" d="M433.6,792.9h-1.9l-1.6-2.6c-0.1-0.2-0.3-0.4-0.4-0.6c-0.1-0.2-0.3-0.3-0.4-0.4
						c-0.1-0.1-0.3-0.2-0.5-0.2s-0.3-0.1-0.6-0.1h-0.7v4H426v-9.8h3.2c0.5,0,0.9,0.1,1.3,0.2c0.4,0.1,0.7,0.3,1,0.5
						c0.3,0.2,0.5,0.5,0.7,0.8c0.2,0.3,0.2,0.7,0.2,1.2c0,0.3-0.1,0.7-0.2,0.9c-0.1,0.3-0.2,0.5-0.4,0.8c-0.2,0.2-0.4,0.4-0.7,0.6
						c-0.3,0.2-0.6,0.3-0.9,0.4v0c0.2,0.1,0.3,0.2,0.5,0.3c0.1,0.1,0.3,0.2,0.4,0.4c0.1,0.1,0.2,0.3,0.3,0.4
						c0.1,0.2,0.2,0.3,0.4,0.6L433.6,792.9z M427.6,784.4v3.2h1.3c0.2,0,0.5,0,0.7-0.1s0.4-0.2,0.5-0.3c0.2-0.1,0.3-0.3,0.4-0.5
						c0.1-0.2,0.1-0.4,0.1-0.7c0-0.5-0.1-0.8-0.4-1.1s-0.7-0.4-1.3-0.4H427.6z"/>
					<path style="fill:#686969;" d="M442.7,792.9h-1.8l-0.9-2.5h-3.8l-0.8,2.5h-1.8l3.7-9.8h1.8L442.7,792.9z M439.6,789.1l-1.4-3.9
						c0-0.1-0.1-0.3-0.1-0.6h0c0,0.3-0.1,0.5-0.1,0.6l-1.3,3.9H439.6z"/>
					<path style="fill:#686969;" d="M450.6,792.5c-0.7,0.4-1.6,0.6-2.7,0.6c-1.4,0-2.5-0.4-3.4-1.3c-0.9-0.9-1.3-2.1-1.3-3.5
						c0-1.6,0.5-2.8,1.4-3.8s2.2-1.4,3.6-1.4c0.9,0,1.7,0.1,2.3,0.4v1.6c-0.7-0.4-1.4-0.6-2.2-0.6c-1.1,0-1.9,0.3-2.6,1
						s-1,1.6-1,2.7c0,1.1,0.3,1.9,0.9,2.6c0.6,0.6,1.4,1,2.4,1c0.9,0,1.7-0.2,2.4-0.7V792.5z"/>
					<path style="fill:#686969;" d="M459.9,792.9h-2.1l-3.4-4.5c-0.1-0.2-0.2-0.3-0.2-0.3h0v4.8h-1.6v-9.8h1.6v4.6h0
						c0.1-0.1,0.1-0.2,0.2-0.3l3.3-4.3h1.9l-3.8,4.7L459.9,792.9z"/>
					<path style="fill:#686969;" d="M466.5,792.9H461v-9.8h5.3v1.4h-3.6v2.8h3.4v1.4h-3.4v2.9h3.9V792.9z"/>
					<path style="fill:#686969;" d="M475.7,792.9h-1.9l-1.6-2.6c-0.1-0.2-0.3-0.4-0.4-0.6c-0.1-0.2-0.3-0.3-0.4-0.4
						c-0.1-0.1-0.3-0.2-0.5-0.2s-0.3-0.1-0.6-0.1h-0.7v4h-1.6v-9.8h3.2c0.5,0,0.9,0.1,1.3,0.2c0.4,0.1,0.7,0.3,1,0.5
						c0.3,0.2,0.5,0.5,0.7,0.8c0.2,0.3,0.2,0.7,0.2,1.2c0,0.3-0.1,0.7-0.2,0.9c-0.1,0.3-0.2,0.5-0.4,0.8c-0.2,0.2-0.4,0.4-0.7,0.6
						c-0.3,0.2-0.6,0.3-0.9,0.4v0c0.2,0.1,0.3,0.2,0.5,0.3c0.1,0.1,0.3,0.2,0.4,0.4c0.1,0.1,0.2,0.3,0.3,0.4
						c0.1,0.2,0.2,0.3,0.4,0.6L475.7,792.9z M469.8,784.4v3.2h1.3c0.2,0,0.5,0,0.7-0.1s0.4-0.2,0.5-0.3c0.2-0.1,0.3-0.3,0.4-0.5
						c0.1-0.2,0.1-0.4,0.1-0.7c0-0.5-0.1-0.8-0.4-1.1s-0.7-0.4-1.3-0.4H469.8z"/>
				</g>
				<path style="fill:none;stroke:#686969;stroke-width:3;stroke-linecap:round;stroke-linejoin:round;stroke-miterlimit:10;" d="
					M556.4,778.4c0-18.4-14.9-33.3-33.3-33.3c-18.4,0-33.3,14.9-33.3,33.3c0,0,0,0.1,0,0.1h0v25.7h66.6L556.4,778.4L556.4,778.4
					C556.4,778.4,556.4,778.4,556.4,778.4z"/>
				<g>
					<path style="fill:#686969;" d="M512.5,776.1h-1.8L506,769c-0.1-0.2-0.2-0.4-0.3-0.6h0c0,0.2,0.1,0.7,0.1,1.3v6.4h-1.6v-9.8h1.9
						l4.5,7c0.2,0.3,0.3,0.5,0.4,0.6h0c0-0.3-0.1-0.7-0.1-1.3v-6.3h1.6V776.1z"/>
					<path style="fill:#686969;" d="M522.9,776.1h-1.8l-0.9-2.5h-3.8l-0.8,2.5h-1.8l3.7-9.8h1.8L522.9,776.1z M519.8,772.3l-1.4-3.9
						c0-0.1-0.1-0.3-0.1-0.6h0c0,0.3-0.1,0.5-0.1,0.6l-1.3,3.9H519.8z"/>
					<path style="fill:#686969;" d="M534.7,776.1h-1.6v-6.3c0-0.5,0-1.1,0.1-1.9h0c-0.1,0.4-0.2,0.7-0.3,0.9l-2.9,7.3h-1.1l-2.9-7.2
						c-0.1-0.2-0.2-0.5-0.3-1h0c0,0.4,0.1,1,0.1,1.9v6.3h-1.5v-9.8h2.3l2.6,6.5c0.2,0.5,0.3,0.9,0.4,1.1h0c0.2-0.5,0.3-0.9,0.4-1.1
						l2.6-6.5h2.2V776.1z"/>
					<path style="fill:#686969;" d="M542.6,776.1h-5.5v-9.8h5.3v1.4h-3.6v2.8h3.4v1.4h-3.4v2.9h3.9V776.1z"/>
					<path style="fill:#686969;" d="M513.3,792.9h-1.8l-4.7-7.2c-0.1-0.2-0.2-0.4-0.3-0.6h0c0,0.2,0.1,0.7,0.1,1.3v6.4h-1.6v-9.8
						h1.9l4.5,7c0.2,0.3,0.3,0.5,0.4,0.6h0c0-0.3-0.1-0.7-0.1-1.3v-6.3h1.6V792.9z"/>
					<path style="fill:#686969;" d="M519.8,793c-1.4,0-2.5-0.5-3.4-1.4c-0.8-0.9-1.3-2.1-1.3-3.6c0-1.6,0.4-2.8,1.3-3.8
						c0.9-0.9,2-1.4,3.5-1.4c1.4,0,2.5,0.5,3.3,1.4c0.8,0.9,1.3,2.1,1.3,3.6c0,1.6-0.4,2.8-1.3,3.8C522.3,792.6,521.2,793,519.8,793
						z M519.8,784.4c-0.9,0-1.6,0.3-2.2,1c-0.6,0.7-0.8,1.5-0.8,2.6c0,1.1,0.3,2,0.8,2.6c0.5,0.7,1.3,1,2.1,1c0.9,0,1.7-0.3,2.2-0.9
						c0.5-0.6,0.8-1.5,0.8-2.6c0-1.2-0.3-2.1-0.8-2.7S520.8,784.4,519.8,784.4z"/>
					<path style="fill:#686969;" d="M526.3,792.9v-9.8h2.8c3.6,0,5.4,1.6,5.4,4.8c0,1.5-0.5,2.7-1.5,3.6c-1,0.9-2.3,1.4-4,1.4H526.3
						z M527.9,784.5v7h1.3c1.1,0,2-0.3,2.7-0.9c0.6-0.6,0.9-1.5,0.9-2.7c0-2.3-1.2-3.4-3.5-3.4H527.9z"/>
					<path style="fill:#686969;" d="M541.7,792.9h-5.5v-9.8h5.3v1.4h-3.6v2.8h3.4v1.4h-3.4v2.9h3.9V792.9z"/>
				</g>
				<path style="fill:none;stroke:#686969;stroke-width:3;stroke-linecap:round;stroke-linejoin:round;stroke-miterlimit:10;" d="
					M633,778.4c0-18.4-14.9-33.3-33.3-33.3c-18.4,0-33.3,14.9-33.3,33.3c0,0,0,0.1,0,0.1h0v25.7H633L633,778.4L633,778.4
					C633,778.4,633,778.4,633,778.4z"/>
				<g>
					<path style="fill:#686969;" d="M581.9,776.1v-9.8h2.8c3.6,0,5.4,1.6,5.4,4.8c0,1.5-0.5,2.7-1.5,3.6c-1,0.9-2.3,1.4-4,1.4H581.9
						z M583.5,767.8v7h1.3c1.1,0,2-0.3,2.7-0.9c0.6-0.6,0.9-1.5,0.9-2.7c0-2.3-1.2-3.4-3.5-3.4H583.5z"/>
					<path style="fill:#686969;" d="M599.7,776.1h-1.8l-0.9-2.5h-3.8l-0.8,2.5h-1.8l3.7-9.8h1.8L599.7,776.1z M596.6,772.3l-1.4-3.9
						c0-0.1-0.1-0.3-0.1-0.6h0c0,0.3-0.1,0.5-0.1,0.6l-1.3,3.9H596.6z"/>
					<path style="fill:#686969;" d="M606.3,767.8h-2.8v8.4h-1.6v-8.4h-2.8v-1.4h7.2V767.8z"/>
					<path style="fill:#686969;" d="M614.7,776.1h-1.8l-0.9-2.5h-3.8l-0.8,2.5h-1.8l3.7-9.8h1.8L614.7,776.1z M611.6,772.3l-1.4-3.9
						c0-0.1-0.1-0.3-0.1-0.6h0c0,0.3-0.1,0.5-0.1,0.6l-1.3,3.9H611.6z"/>
					<path style="fill:#686969;" d="M589.9,792.9h-1.8l-4.7-7.2c-0.1-0.2-0.2-0.4-0.3-0.6h0c0,0.2,0.1,0.7,0.1,1.3v6.4h-1.6v-9.8
						h1.9l4.5,7c0.2,0.3,0.3,0.5,0.4,0.6h0c0-0.3-0.1-0.7-0.1-1.3v-6.3h1.6V792.9z"/>
					<path style="fill:#686969;" d="M596.4,793c-1.4,0-2.5-0.5-3.4-1.4c-0.8-0.9-1.3-2.1-1.3-3.6c0-1.6,0.4-2.8,1.3-3.8
						c0.9-0.9,2-1.4,3.5-1.4c1.4,0,2.5,0.5,3.3,1.4c0.8,0.9,1.3,2.1,1.3,3.6c0,1.6-0.4,2.8-1.3,3.8C599,792.6,597.8,793,596.4,793z
						 M596.5,784.4c-0.9,0-1.6,0.3-2.2,1c-0.6,0.7-0.8,1.5-0.8,2.6c0,1.1,0.3,2,0.8,2.6c0.5,0.7,1.3,1,2.1,1c0.9,0,1.7-0.3,2.2-0.9
						c0.5-0.6,0.8-1.5,0.8-2.6c0-1.2-0.3-2.1-0.8-2.7S597.4,784.4,596.5,784.4z"/>
					<path style="fill:#686969;" d="M602.9,792.9v-9.8h2.8c3.6,0,5.4,1.6,5.4,4.8c0,1.5-0.5,2.7-1.5,3.6c-1,0.9-2.3,1.4-4,1.4H602.9
						z M604.5,784.5v7h1.3c1.1,0,2-0.3,2.7-0.9c0.6-0.6,0.9-1.5,0.9-2.7c0-2.3-1.2-3.4-3.5-3.4H604.5z"/>
					<path style="fill:#686969;" d="M618.3,792.9h-5.5v-9.8h5.3v1.4h-3.6v2.8h3.4v1.4h-3.4v2.9h3.9V792.9z"/>
				</g>
				<g>
					<path style="fill:#686969;" d="M454.2,835.9h-1.6v-4.2H448v4.2h-1.6v-9.8h1.6v4.1h4.6v-4.1h1.6V835.9z"/>
					<path style="fill:#686969;" d="M462.1,835.9h-5.5v-9.8h5.3v1.4h-3.6v2.8h3.4v1.4h-3.4v2.9h3.9V835.9z"/>
					<path style="fill:#686969;" d="M472,835.9h-1.8l-0.9-2.5h-3.8l-0.8,2.5h-1.8l3.7-9.8h1.8L472,835.9z M468.9,832.1l-1.4-3.9
						c0-0.1-0.1-0.3-0.1-0.6h0c0,0.3-0.1,0.5-0.1,0.6l-1.3,3.9H468.9z"/>
					<path style="fill:#686969;" d="M473.3,835.9v-9.8h2.8c3.6,0,5.4,1.6,5.4,4.8c0,1.5-0.5,2.7-1.5,3.6c-1,0.9-2.3,1.4-4,1.4H473.3
						z M474.9,827.5v7h1.3c1.1,0,2-0.3,2.7-0.9c0.6-0.6,0.9-1.5,0.9-2.7c0-2.3-1.2-3.4-3.5-3.4H474.9z"/>
					<path style="fill:#686969;" d="M495.4,835.9h-1.8l-4.7-7.2c-0.1-0.2-0.2-0.4-0.3-0.6h0c0,0.2,0.1,0.7,0.1,1.3v6.4h-1.6v-9.8
						h1.9l4.5,7c0.2,0.3,0.3,0.5,0.4,0.6h0c0-0.3-0.1-0.7-0.1-1.3v-6.3h1.6V835.9z"/>
					<path style="fill:#686969;" d="M501.8,836.1c-1.4,0-2.5-0.5-3.4-1.4c-0.8-0.9-1.3-2.1-1.3-3.6c0-1.6,0.4-2.8,1.3-3.8
						c0.9-0.9,2-1.4,3.5-1.4c1.4,0,2.5,0.5,3.3,1.4c0.8,0.9,1.3,2.1,1.3,3.6c0,1.6-0.4,2.8-1.3,3.8
						C504.4,835.6,503.3,836.1,501.8,836.1z M501.9,827.4c-0.9,0-1.6,0.3-2.2,1c-0.6,0.7-0.8,1.5-0.8,2.6c0,1.1,0.3,2,0.8,2.6
						c0.5,0.7,1.3,1,2.1,1c0.9,0,1.7-0.3,2.2-0.9c0.5-0.6,0.8-1.5,0.8-2.6c0-1.2-0.3-2.1-0.8-2.7S502.8,827.4,501.9,827.4z"/>
					<path style="fill:#686969;" d="M508.3,835.9v-9.8h2.8c3.6,0,5.4,1.6,5.4,4.8c0,1.5-0.5,2.7-1.5,3.6c-1,0.9-2.3,1.4-4,1.4H508.3
						z M509.9,827.5v7h1.3c1.1,0,2-0.3,2.7-0.9c0.6-0.6,0.9-1.5,0.9-2.7c0-2.3-1.2-3.4-3.5-3.4H509.9z"/>
					<path style="fill:#686969;" d="M523.8,835.9h-5.5v-9.8h5.3v1.4h-3.6v2.8h3.4v1.4h-3.4v2.9h3.9V835.9z"/>
				</g>
				<g>
					<g>
						<path style="fill:#686969;" d="M358.9,881.5h-2.8v8.4h-1.6v-8.4h-2.8v-1.4h7.2V881.5z"/>
						<path style="fill:#686969;" d="M367.3,889.9h-1.8l-0.9-2.5h-3.8l-0.8,2.5h-1.8l3.7-9.8h1.8L367.3,889.9z M364.2,886.1
							l-1.4-3.9c0-0.1-0.1-0.3-0.1-0.6h0c0,0.3-0.1,0.5-0.1,0.6l-1.3,3.9H364.2z"/>
						<path style="fill:#686969;" d="M368.2,889.5v-1.7c0.1,0.1,0.3,0.3,0.5,0.4c0.2,0.1,0.4,0.2,0.7,0.3c0.2,0.1,0.5,0.1,0.7,0.2
							c0.2,0,0.4,0.1,0.6,0.1c0.7,0,1.2-0.1,1.5-0.3s0.5-0.6,0.5-1c0-0.2-0.1-0.4-0.2-0.6s-0.3-0.3-0.5-0.5s-0.4-0.3-0.7-0.4
							c-0.3-0.1-0.6-0.3-0.9-0.4c-0.3-0.2-0.6-0.4-0.9-0.5c-0.3-0.2-0.5-0.4-0.7-0.6s-0.4-0.5-0.5-0.7s-0.2-0.6-0.2-1
							c0-0.5,0.1-0.9,0.3-1.2s0.5-0.6,0.8-0.8c0.3-0.2,0.7-0.4,1.2-0.5s0.9-0.2,1.3-0.2c1,0,1.8,0.1,2.2,0.3v1.6
							c-0.6-0.4-1.3-0.6-2.1-0.6c-0.2,0-0.5,0-0.7,0.1c-0.2,0-0.5,0.1-0.6,0.2s-0.3,0.2-0.5,0.4s-0.2,0.4-0.2,0.6
							c0,0.2,0,0.4,0.1,0.6c0.1,0.2,0.2,0.3,0.4,0.4c0.2,0.1,0.4,0.3,0.6,0.4c0.3,0.1,0.5,0.3,0.9,0.4c0.3,0.2,0.7,0.4,1,0.6
							c0.3,0.2,0.6,0.4,0.8,0.6c0.2,0.2,0.4,0.5,0.5,0.8s0.2,0.6,0.2,1c0,0.5-0.1,0.9-0.3,1.3c-0.2,0.3-0.5,0.6-0.8,0.8
							c-0.3,0.2-0.7,0.4-1.2,0.5c-0.4,0.1-0.9,0.1-1.4,0.1c-0.2,0-0.4,0-0.6,0c-0.2,0-0.5-0.1-0.7-0.1c-0.2,0-0.5-0.1-0.7-0.2
							C368.5,889.7,368.3,889.6,368.2,889.5z"/>
						<path style="fill:#686969;" d="M383.6,889.9h-2.1l-3.4-4.5c-0.1-0.2-0.2-0.3-0.2-0.3h0v4.8h-1.6v-9.8h1.6v4.6h0
							c0.1-0.1,0.1-0.2,0.2-0.3l3.3-4.3h1.9l-3.8,4.7L383.6,889.9z"/>
						<path style="fill:#686969;" d="M347.6,898.2h-2.8v8.4h-1.6v-8.4h-2.8v-1.4h7.2V898.2z"/>
						<path style="fill:#686969;" d="M356.6,906.6h-1.9l-1.6-2.6c-0.1-0.2-0.3-0.4-0.4-0.6c-0.1-0.2-0.3-0.3-0.4-0.4
							c-0.1-0.1-0.3-0.2-0.5-0.2s-0.3-0.1-0.6-0.1h-0.7v4H349v-9.8h3.2c0.5,0,0.9,0.1,1.3,0.2c0.4,0.1,0.7,0.3,1,0.5
							c0.3,0.2,0.5,0.5,0.7,0.8c0.2,0.3,0.2,0.7,0.2,1.2c0,0.3-0.1,0.7-0.2,0.9c-0.1,0.3-0.2,0.5-0.4,0.8c-0.2,0.2-0.4,0.4-0.7,0.6
							c-0.3,0.2-0.6,0.3-0.9,0.4v0c0.2,0.1,0.3,0.2,0.5,0.3c0.1,0.1,0.3,0.2,0.4,0.4c0.1,0.1,0.2,0.3,0.3,0.4
							c0.1,0.2,0.2,0.3,0.4,0.6L356.6,906.6z M350.6,898.2v3.2h1.3c0.2,0,0.5,0,0.7-0.1s0.4-0.2,0.5-0.3c0.2-0.1,0.3-0.3,0.4-0.5
							c0.1-0.2,0.1-0.4,0.1-0.7c0-0.5-0.1-0.8-0.4-1.1s-0.7-0.4-1.3-0.4H350.6z"/>
						<path style="fill:#686969;" d="M365.7,906.6h-1.8l-0.9-2.5h-3.8l-0.8,2.5h-1.8l3.7-9.8h1.8L365.7,906.6z M362.6,902.8
							l-1.4-3.9c0-0.1-0.1-0.3-0.1-0.6h0c0,0.3-0.1,0.5-0.1,0.6l-1.3,3.9H362.6z"/>
						<path style="fill:#686969;" d="M373.6,906.2c-0.7,0.4-1.6,0.6-2.7,0.6c-1.4,0-2.5-0.4-3.4-1.3c-0.9-0.9-1.3-2.1-1.3-3.5
							c0-1.6,0.5-2.8,1.4-3.8s2.2-1.4,3.6-1.4c0.9,0,1.7,0.1,2.3,0.4v1.6c-0.7-0.4-1.4-0.6-2.2-0.6c-1.1,0-1.9,0.3-2.6,1
							s-1,1.6-1,2.7c0,1.1,0.3,1.9,0.9,2.6c0.6,0.6,1.4,1,2.4,1c0.9,0,1.7-0.2,2.4-0.7V906.2z"/>
						<path style="fill:#686969;" d="M382.9,906.6h-2.1l-3.4-4.5c-0.1-0.2-0.2-0.3-0.2-0.3h0v4.8h-1.6v-9.8h1.6v4.6h0
							c0.1-0.1,0.1-0.2,0.2-0.3l3.3-4.3h1.9l-3.8,4.7L382.9,906.6z"/>
						<path style="fill:#686969;" d="M389.5,906.6H384v-9.8h5.3v1.4h-3.6v2.8h3.4v1.4h-3.4v2.9h3.9V906.6z"/>
						<path style="fill:#686969;" d="M398.7,906.6h-1.9l-1.6-2.6c-0.1-0.2-0.3-0.4-0.4-0.6c-0.1-0.2-0.3-0.3-0.4-0.4
							c-0.1-0.1-0.3-0.2-0.5-0.2s-0.3-0.1-0.6-0.1h-0.7v4h-1.6v-9.8h3.2c0.5,0,0.9,0.1,1.3,0.2c0.4,0.1,0.7,0.3,1,0.5
							c0.3,0.2,0.5,0.5,0.7,0.8c0.2,0.3,0.2,0.7,0.2,1.2c0,0.3-0.1,0.7-0.2,0.9c-0.1,0.3-0.2,0.5-0.4,0.8c-0.2,0.2-0.4,0.4-0.7,0.6
							c-0.3,0.2-0.6,0.3-0.9,0.4v0c0.2,0.1,0.3,0.2,0.5,0.3c0.1,0.1,0.3,0.2,0.4,0.4c0.1,0.1,0.2,0.3,0.3,0.4
							c0.1,0.2,0.2,0.3,0.4,0.6L398.7,906.6z M392.8,898.2v3.2h1.3c0.2,0,0.5,0,0.7-0.1s0.4-0.2,0.5-0.3c0.2-0.1,0.3-0.3,0.4-0.5
							c0.1-0.2,0.1-0.4,0.1-0.7c0-0.5-0.1-0.8-0.4-1.1s-0.7-0.4-1.3-0.4H392.8z"/>
					</g>
					<path style="fill:none;stroke:#686969;stroke-width:3;stroke-linecap:round;stroke-linejoin:round;stroke-miterlimit:10;" d="
						M479.4,892.1c0-18.4-14.9-33.3-33.3-33.3c-18.4,0-33.3,14.9-33.3,33.3c0,0,0,0.1,0,0.1h0v25.7h66.6L479.4,892.1L479.4,892.1
						C479.4,892.2,479.4,892.2,479.4,892.1z"/>
					<path style="fill:none;stroke:#686969;stroke-width:3;stroke-linecap:round;stroke-linejoin:round;stroke-miterlimit:10;" d="
						M403.1,891.7c0-18.4-14.9-33.3-33.3-33.3c-18.4,0-33.3,14.9-33.3,33.3c0,0,0,0.1,0,0.1h0v25.7h66.6L403.1,891.7L403.1,891.7
						C403.1,891.8,403.1,891.8,403.1,891.7z"/>
					<g>
						<path style="fill:#686969;" d="M438.2,886.4c0,1.2-0.3,2.1-0.9,2.7s-1.3,1-2.3,1c-0.4,0-0.8-0.1-1.1-0.2v-1.5
							c0.3,0.2,0.6,0.3,1,0.3c1.1,0,1.6-0.8,1.6-2.5v-6h1.6V886.4z"/>
						<path style="fill:#686969;" d="M444.5,890.1c-1.4,0-2.5-0.5-3.4-1.4c-0.8-0.9-1.3-2.1-1.3-3.6c0-1.6,0.4-2.8,1.3-3.8
							c0.9-0.9,2-1.4,3.5-1.4c1.4,0,2.5,0.5,3.3,1.4c0.8,0.9,1.3,2.1,1.3,3.6c0,1.6-0.4,2.8-1.3,3.8
							C447.1,889.6,446,890.1,444.5,890.1z M444.6,881.4c-0.9,0-1.6,0.3-2.2,1c-0.6,0.7-0.8,1.5-0.8,2.6c0,1.1,0.3,2,0.8,2.6
							c0.5,0.7,1.3,1,2.1,1c0.9,0,1.7-0.3,2.2-0.9c0.5-0.6,0.8-1.5,0.8-2.6c0-1.2-0.3-2.1-0.8-2.7S445.5,881.4,444.6,881.4z"/>
						<path style="fill:#686969;" d="M451,889.9v-9.8h3.1c0.9,0,1.7,0.2,2.2,0.6c0.6,0.4,0.8,0.9,0.8,1.6c0,0.6-0.2,1-0.5,1.4
							c-0.3,0.4-0.7,0.7-1.3,0.9v0c0.7,0.1,1.2,0.3,1.6,0.7c0.4,0.4,0.6,1,0.6,1.6c0,0.8-0.3,1.5-1,2s-1.5,0.8-2.5,0.8H451z
							 M452.7,881.5v2.8h1c0.6,0,1-0.1,1.3-0.4c0.3-0.3,0.5-0.6,0.5-1.1c0-0.8-0.6-1.3-1.7-1.3H452.7z M452.7,885.5v3.1h1.4
							c0.6,0,1.1-0.1,1.4-0.4c0.3-0.3,0.5-0.7,0.5-1.2c0-1-0.7-1.5-2.1-1.5H452.7z"/>
						<path style="fill:#686969;" d="M424.2,898.2h-2.8v8.4h-1.6v-8.4H417v-1.4h7.2V898.2z"/>
						<path style="fill:#686969;" d="M433.2,906.6h-1.9l-1.6-2.6c-0.1-0.2-0.3-0.4-0.4-0.6c-0.1-0.2-0.3-0.3-0.4-0.4
							c-0.1-0.1-0.3-0.2-0.5-0.2s-0.3-0.1-0.6-0.1h-0.7v4h-1.6v-9.8h3.2c0.5,0,0.9,0.1,1.3,0.2c0.4,0.1,0.7,0.3,1,0.5
							c0.3,0.2,0.5,0.5,0.7,0.8c0.2,0.3,0.2,0.7,0.2,1.2c0,0.3-0.1,0.7-0.2,0.9c-0.1,0.3-0.2,0.5-0.4,0.8c-0.2,0.2-0.4,0.4-0.7,0.6
							c-0.3,0.2-0.6,0.3-0.9,0.4v0c0.2,0.1,0.3,0.2,0.5,0.3c0.1,0.1,0.3,0.2,0.4,0.4c0.1,0.1,0.2,0.3,0.3,0.4
							c0.1,0.2,0.2,0.3,0.4,0.6L433.2,906.6z M427.3,898.2v3.2h1.3c0.2,0,0.5,0,0.7-0.1s0.4-0.2,0.5-0.3c0.2-0.1,0.3-0.3,0.4-0.5
							c0.1-0.2,0.1-0.4,0.1-0.7c0-0.5-0.1-0.8-0.4-1.1s-0.7-0.4-1.3-0.4H427.3z"/>
						<path style="fill:#686969;" d="M442.3,906.6h-1.8l-0.9-2.5h-3.8l-0.8,2.5h-1.8l3.7-9.8h1.8L442.3,906.6z M439.2,902.8
							l-1.4-3.9c0-0.1-0.1-0.3-0.1-0.6h0c0,0.3-0.1,0.5-0.1,0.6l-1.3,3.9H439.2z"/>
						<path style="fill:#686969;" d="M450.3,906.2c-0.7,0.4-1.6,0.6-2.7,0.6c-1.4,0-2.5-0.4-3.4-1.3c-0.9-0.9-1.3-2.1-1.3-3.5
							c0-1.6,0.5-2.8,1.4-3.8s2.2-1.4,3.6-1.4c0.9,0,1.7,0.1,2.3,0.4v1.6c-0.7-0.4-1.4-0.6-2.2-0.6c-1.1,0-1.9,0.3-2.6,1
							s-1,1.6-1,2.7c0,1.1,0.3,1.9,0.9,2.6c0.6,0.6,1.4,1,2.4,1c0.9,0,1.7-0.2,2.4-0.7V906.2z"/>
						<path style="fill:#686969;" d="M459.5,906.6h-2.1l-3.4-4.5c-0.1-0.2-0.2-0.3-0.2-0.3h0v4.8h-1.6v-9.8h1.6v4.6h0
							c0.1-0.1,0.1-0.2,0.2-0.3l3.3-4.3h1.9l-3.8,4.7L459.5,906.6z"/>
						<path style="fill:#686969;" d="M466.1,906.6h-5.5v-9.8h5.3v1.4h-3.6v2.8h3.4v1.4h-3.4v2.9h3.9V906.6z"/>
						<path style="fill:#686969;" d="M475.4,906.6h-1.9l-1.6-2.6c-0.1-0.2-0.3-0.4-0.4-0.6c-0.1-0.2-0.3-0.3-0.4-0.4
							c-0.1-0.1-0.3-0.2-0.5-0.2s-0.3-0.1-0.6-0.1h-0.7v4h-1.6v-9.8h3.2c0.5,0,0.9,0.1,1.3,0.2c0.4,0.1,0.7,0.3,1,0.5
							c0.3,0.2,0.5,0.5,0.7,0.8c0.2,0.3,0.2,0.7,0.2,1.2c0,0.3-0.1,0.7-0.2,0.9c-0.1,0.3-0.2,0.5-0.4,0.8c-0.2,0.2-0.4,0.4-0.7,0.6
							c-0.3,0.2-0.6,0.3-0.9,0.4v0c0.2,0.1,0.3,0.2,0.5,0.3c0.1,0.1,0.3,0.2,0.4,0.4c0.1,0.1,0.2,0.3,0.3,0.4
							c0.1,0.2,0.2,0.3,0.4,0.6L475.4,906.6z M469.4,898.2v3.2h1.3c0.2,0,0.5,0,0.7-0.1s0.4-0.2,0.5-0.3c0.2-0.1,0.3-0.3,0.4-0.5
							c0.1-0.2,0.1-0.4,0.1-0.7c0-0.5-0.1-0.8-0.4-1.1s-0.7-0.4-1.3-0.4H469.4z"/>
					</g>
					
						<rect x="336.5" y="924.6" style="fill:none;stroke:#686969;stroke-width:3;stroke-linecap:round;stroke-linejoin:round;stroke-miterlimit:10;" width="142.9" height="34.3"/>
					<g>
						<path style="fill:#686969;" d="M363.1,936.6l-2.7,9.8h-1.8l-1.9-6.8c-0.1-0.3-0.1-0.6-0.1-1h0c0,0.3-0.1,0.6-0.2,0.9l-1.9,6.8
							h-1.9l-2.7-9.8h1.8l1.8,7.1c0.1,0.3,0.1,0.6,0.1,0.9h0c0-0.2,0.1-0.5,0.2-0.9l2-7.1h1.7l1.8,7.2c0.1,0.2,0.1,0.5,0.1,0.9h0
							c0-0.2,0.1-0.5,0.2-0.9l1.7-7.2H363.1z"/>
						<path style="fill:#686969;" d="M368.4,946.5c-1.4,0-2.5-0.5-3.4-1.4c-0.8-0.9-1.3-2.1-1.3-3.6c0-1.6,0.4-2.8,1.3-3.8
							c0.9-0.9,2-1.4,3.5-1.4c1.4,0,2.5,0.5,3.3,1.4c0.8,0.9,1.3,2.1,1.3,3.6c0,1.6-0.4,2.8-1.3,3.8
							C371,946.1,369.9,946.5,368.4,946.5z M368.5,937.9c-0.9,0-1.6,0.3-2.2,1c-0.6,0.7-0.8,1.5-0.8,2.6c0,1.1,0.3,2,0.8,2.6
							c0.5,0.7,1.3,1,2.1,1c0.9,0,1.7-0.3,2.2-0.9c0.5-0.6,0.8-1.5,0.8-2.6c0-1.2-0.3-2.1-0.8-2.7S369.4,937.9,368.5,937.9z"/>
						<path style="fill:#686969;" d="M382.5,946.4h-1.9l-1.6-2.6c-0.1-0.2-0.3-0.4-0.4-0.6c-0.1-0.2-0.3-0.3-0.4-0.4
							c-0.1-0.1-0.3-0.2-0.5-0.2s-0.3-0.1-0.6-0.1h-0.7v4h-1.6v-9.8h3.2c0.5,0,0.9,0.1,1.3,0.2c0.4,0.1,0.7,0.3,1,0.5
							c0.3,0.2,0.5,0.5,0.7,0.8c0.2,0.3,0.2,0.7,0.2,1.2c0,0.3-0.1,0.7-0.2,0.9c-0.1,0.3-0.2,0.5-0.4,0.8c-0.2,0.2-0.4,0.4-0.7,0.6
							c-0.3,0.2-0.6,0.3-0.9,0.4v0c0.2,0.1,0.3,0.2,0.5,0.3c0.1,0.1,0.3,0.2,0.4,0.4c0.1,0.1,0.2,0.3,0.3,0.4
							c0.1,0.2,0.2,0.3,0.4,0.6L382.5,946.4z M376.5,937.9v3.2h1.3c0.2,0,0.5,0,0.7-0.1s0.4-0.2,0.5-0.3c0.2-0.1,0.3-0.3,0.4-0.5
							c0.1-0.2,0.1-0.4,0.1-0.7c0-0.5-0.1-0.8-0.4-1.1s-0.7-0.4-1.3-0.4H376.5z"/>
						<path style="fill:#686969;" d="M391,946.4h-2.1l-3.4-4.5c-0.1-0.2-0.2-0.3-0.2-0.3h0v4.8h-1.6v-9.8h1.6v4.6h0
							c0.1-0.1,0.1-0.2,0.2-0.3l3.3-4.3h1.9l-3.8,4.7L391,946.4z"/>
						<path style="fill:#686969;" d="M397.6,946.4h-5.5v-9.8h5.3v1.4h-3.6v2.8h3.4v1.4h-3.4v2.9h3.9V946.4z"/>
						<path style="fill:#686969;" d="M406.9,946.4H405l-1.6-2.6c-0.1-0.2-0.3-0.4-0.4-0.6c-0.1-0.2-0.3-0.3-0.4-0.4
							c-0.1-0.1-0.3-0.2-0.5-0.2s-0.3-0.1-0.6-0.1h-0.7v4h-1.6v-9.8h3.2c0.5,0,0.9,0.1,1.3,0.2c0.4,0.1,0.7,0.3,1,0.5
							c0.3,0.2,0.5,0.5,0.7,0.8c0.2,0.3,0.2,0.7,0.2,1.2c0,0.3-0.1,0.7-0.2,0.9c-0.1,0.3-0.2,0.5-0.4,0.8c-0.2,0.2-0.4,0.4-0.7,0.6
							c-0.3,0.2-0.6,0.3-0.9,0.4v0c0.2,0.1,0.3,0.2,0.5,0.3c0.1,0.1,0.3,0.2,0.4,0.4c0.1,0.1,0.2,0.3,0.3,0.4
							c0.1,0.2,0.2,0.3,0.4,0.6L406.9,946.4z M400.9,937.9v3.2h1.3c0.2,0,0.5,0,0.7-0.1s0.4-0.2,0.5-0.3c0.2-0.1,0.3-0.3,0.4-0.5
							c0.1-0.2,0.1-0.4,0.1-0.7c0-0.5-0.1-0.8-0.4-1.1s-0.7-0.4-1.3-0.4H400.9z"/>
						<path style="fill:#686969;" d="M420.1,946.4h-1.8l-4.7-7.2c-0.1-0.2-0.2-0.4-0.3-0.6h0c0,0.2,0.1,0.7,0.1,1.3v6.4h-1.6v-9.8
							h1.9l4.5,7c0.2,0.3,0.3,0.5,0.4,0.6h0c0-0.3-0.1-0.7-0.1-1.3v-6.3h1.6V946.4z"/>
						<path style="fill:#686969;" d="M426.5,946.5c-1.4,0-2.5-0.5-3.4-1.4c-0.8-0.9-1.3-2.1-1.3-3.6c0-1.6,0.4-2.8,1.3-3.8
							c0.9-0.9,2-1.4,3.5-1.4c1.4,0,2.5,0.5,3.3,1.4c0.8,0.9,1.3,2.1,1.3,3.6c0,1.6-0.4,2.8-1.3,3.8
							C429.1,946.1,428,946.5,426.5,946.5z M426.6,937.9c-0.9,0-1.6,0.3-2.2,1c-0.6,0.7-0.8,1.5-0.8,2.6c0,1.1,0.3,2,0.8,2.6
							c0.5,0.7,1.3,1,2.1,1c0.9,0,1.7-0.3,2.2-0.9c0.5-0.6,0.8-1.5,0.8-2.6c0-1.2-0.3-2.1-0.8-2.7S427.5,937.9,426.6,937.9z"/>
						<path style="fill:#686969;" d="M433,946.4v-9.8h2.8c3.6,0,5.4,1.6,5.4,4.8c0,1.5-0.5,2.7-1.5,3.6c-1,0.9-2.3,1.4-4,1.4H433z
							 M434.6,938v7h1.3c1.1,0,2-0.3,2.7-0.9c0.6-0.6,0.9-1.5,0.9-2.7c0-2.3-1.2-3.4-3.5-3.4H434.6z"/>
						<path style="fill:#686969;" d="M448.5,946.4H443v-9.8h5.3v1.4h-3.6v2.8h3.4v1.4h-3.4v2.9h3.9V946.4z"/>
						<path style="fill:#686969;" d="M457,936.4v10h-1.6v-8c-0.3,0.2-0.6,0.4-0.9,0.5c-0.3,0.1-0.7,0.3-1.1,0.4v-1.3
							c0.3-0.1,0.5-0.2,0.8-0.3c0.2-0.1,0.5-0.2,0.7-0.3c0.2-0.1,0.5-0.2,0.7-0.4c0.2-0.1,0.5-0.3,0.8-0.5H457z"/>
					</g>
				</g>
				<g>
					<g>
						<path style="fill:#686969;" d="M512.1,881.5h-2.8v8.4h-1.6v-8.4h-2.8v-1.4h7.2V881.5z"/>
						<path style="fill:#686969;" d="M520.6,889.9h-1.8l-0.9-2.5h-3.8l-0.8,2.5h-1.8l3.7-9.8h1.8L520.6,889.9z M517.5,886.1
							l-1.4-3.9c0-0.1-0.1-0.3-0.1-0.6h0c0,0.3-0.1,0.5-0.1,0.6l-1.3,3.9H517.5z"/>
						<path style="fill:#686969;" d="M521.5,889.5v-1.7c0.1,0.1,0.3,0.3,0.5,0.4c0.2,0.1,0.4,0.2,0.7,0.3c0.2,0.1,0.5,0.1,0.7,0.2
							c0.2,0,0.4,0.1,0.6,0.1c0.7,0,1.2-0.1,1.5-0.3s0.5-0.6,0.5-1c0-0.2-0.1-0.4-0.2-0.6s-0.3-0.3-0.5-0.5s-0.4-0.3-0.7-0.4
							c-0.3-0.1-0.6-0.3-0.9-0.4c-0.3-0.2-0.6-0.4-0.9-0.5c-0.3-0.2-0.5-0.4-0.7-0.6s-0.4-0.5-0.5-0.7s-0.2-0.6-0.2-1
							c0-0.5,0.1-0.9,0.3-1.2s0.5-0.6,0.8-0.8c0.3-0.2,0.7-0.4,1.2-0.5s0.9-0.2,1.3-0.2c1,0,1.8,0.1,2.2,0.3v1.6
							c-0.6-0.4-1.3-0.6-2.1-0.6c-0.2,0-0.5,0-0.7,0.1c-0.2,0-0.5,0.1-0.6,0.2s-0.3,0.2-0.5,0.4s-0.2,0.4-0.2,0.6
							c0,0.2,0,0.4,0.1,0.6c0.1,0.2,0.2,0.3,0.4,0.4c0.2,0.1,0.4,0.3,0.6,0.4c0.3,0.1,0.5,0.3,0.9,0.4c0.3,0.2,0.7,0.4,1,0.6
							c0.3,0.2,0.6,0.4,0.8,0.6c0.2,0.2,0.4,0.5,0.5,0.8s0.2,0.6,0.2,1c0,0.5-0.1,0.9-0.3,1.3c-0.2,0.3-0.5,0.6-0.8,0.8
							c-0.3,0.2-0.7,0.4-1.2,0.5c-0.4,0.1-0.9,0.1-1.4,0.1c-0.2,0-0.4,0-0.6,0c-0.2,0-0.5-0.1-0.7-0.1c-0.2,0-0.5-0.1-0.7-0.2
							C521.8,889.7,521.6,889.6,521.5,889.5z"/>
						<path style="fill:#686969;" d="M536.9,889.9h-2.1l-3.4-4.5c-0.1-0.2-0.2-0.3-0.2-0.3h0v4.8h-1.6v-9.8h1.6v4.6h0
							c0.1-0.1,0.1-0.2,0.2-0.3l3.3-4.3h1.9l-3.8,4.7L536.9,889.9z"/>
						<path style="fill:#686969;" d="M500.8,898.2H498v8.4h-1.6v-8.4h-2.8v-1.4h7.2V898.2z"/>
						<path style="fill:#686969;" d="M509.8,906.6h-1.9l-1.6-2.6c-0.1-0.2-0.3-0.4-0.4-0.6c-0.1-0.2-0.3-0.3-0.4-0.4
							c-0.1-0.1-0.3-0.2-0.5-0.2s-0.3-0.1-0.6-0.1h-0.7v4h-1.6v-9.8h3.2c0.5,0,0.9,0.1,1.3,0.2c0.4,0.1,0.7,0.3,1,0.5
							c0.3,0.2,0.5,0.5,0.7,0.8c0.2,0.3,0.2,0.7,0.2,1.2c0,0.3-0.1,0.7-0.2,0.9c-0.1,0.3-0.2,0.5-0.4,0.8c-0.2,0.2-0.4,0.4-0.7,0.6
							c-0.3,0.2-0.6,0.3-0.9,0.4v0c0.2,0.1,0.3,0.2,0.5,0.3c0.1,0.1,0.3,0.2,0.4,0.4c0.1,0.1,0.2,0.3,0.3,0.4
							c0.1,0.2,0.2,0.3,0.4,0.6L509.8,906.6z M503.9,898.2v3.2h1.3c0.2,0,0.5,0,0.7-0.1s0.4-0.2,0.5-0.3c0.2-0.1,0.3-0.3,0.4-0.5
							c0.1-0.2,0.1-0.4,0.1-0.7c0-0.5-0.1-0.8-0.4-1.1s-0.7-0.4-1.3-0.4H503.9z"/>
						<path style="fill:#686969;" d="M518.9,906.6h-1.8l-0.9-2.5h-3.8l-0.8,2.5h-1.8l3.7-9.8h1.8L518.9,906.6z M515.9,902.8
							l-1.4-3.9c0-0.1-0.1-0.3-0.1-0.6h0c0,0.3-0.1,0.5-0.1,0.6l-1.3,3.9H515.9z"/>
						<path style="fill:#686969;" d="M526.9,906.2c-0.7,0.4-1.6,0.6-2.7,0.6c-1.4,0-2.5-0.4-3.4-1.3c-0.9-0.9-1.3-2.1-1.3-3.5
							c0-1.6,0.5-2.8,1.4-3.8s2.2-1.4,3.6-1.4c0.9,0,1.7,0.1,2.3,0.4v1.6c-0.7-0.4-1.4-0.6-2.2-0.6c-1.1,0-1.9,0.3-2.6,1
							s-1,1.6-1,2.7c0,1.1,0.3,1.9,0.9,2.6c0.6,0.6,1.4,1,2.4,1c0.9,0,1.7-0.2,2.4-0.7V906.2z"/>
						<path style="fill:#686969;" d="M536.1,906.6H534l-3.4-4.5c-0.1-0.2-0.2-0.3-0.2-0.3h0v4.8h-1.6v-9.8h1.6v4.6h0
							c0.1-0.1,0.1-0.2,0.2-0.3l3.3-4.3h1.9l-3.8,4.7L536.1,906.6z"/>
						<path style="fill:#686969;" d="M542.7,906.6h-5.5v-9.8h5.3v1.4h-3.6v2.8h3.4v1.4h-3.4v2.9h3.9V906.6z"/>
						<path style="fill:#686969;" d="M552,906.6h-1.9l-1.6-2.6c-0.1-0.2-0.3-0.4-0.4-0.6c-0.1-0.2-0.3-0.3-0.4-0.4
							c-0.1-0.1-0.3-0.2-0.5-0.2s-0.3-0.1-0.6-0.1h-0.7v4h-1.6v-9.8h3.2c0.5,0,0.9,0.1,1.3,0.2c0.4,0.1,0.7,0.3,1,0.5
							c0.3,0.2,0.5,0.5,0.7,0.8c0.2,0.3,0.2,0.7,0.2,1.2c0,0.3-0.1,0.7-0.2,0.9c-0.1,0.3-0.2,0.5-0.4,0.8c-0.2,0.2-0.4,0.4-0.7,0.6
							c-0.3,0.2-0.6,0.3-0.9,0.4v0c0.2,0.1,0.3,0.2,0.5,0.3c0.1,0.1,0.3,0.2,0.4,0.4c0.1,0.1,0.2,0.3,0.3,0.4
							c0.1,0.2,0.2,0.3,0.4,0.6L552,906.6z M546.1,898.2v3.2h1.3c0.2,0,0.5,0,0.7-0.1s0.4-0.2,0.5-0.3c0.2-0.1,0.3-0.3,0.4-0.5
							c0.1-0.2,0.1-0.4,0.1-0.7c0-0.5-0.1-0.8-0.4-1.1s-0.7-0.4-1.3-0.4H546.1z"/>
					</g>
					<path style="fill:none;stroke:#686969;stroke-width:3;stroke-linecap:round;stroke-linejoin:round;stroke-miterlimit:10;" d="
						M632.6,892.1c0-18.4-14.9-33.3-33.3-33.3S566,873.8,566,892.1c0,0,0,0.1,0,0.1h0v25.7h66.6L632.6,892.1L632.6,892.1
						C632.6,892.2,632.6,892.2,632.6,892.1z"/>
					<path style="fill:none;stroke:#686969;stroke-width:3;stroke-linecap:round;stroke-linejoin:round;stroke-miterlimit:10;" d="
						M556.4,891.7c0-18.4-14.9-33.3-33.3-33.3c-18.4,0-33.3,14.9-33.3,33.3c0,0,0,0.1,0,0.1h0v25.7h66.6L556.4,891.7L556.4,891.7
						C556.4,891.8,556.4,891.8,556.4,891.7z"/>
					<g>
						<path style="fill:#686969;" d="M591.4,886.4c0,1.2-0.3,2.1-0.9,2.7s-1.3,1-2.3,1c-0.4,0-0.8-0.1-1.1-0.2v-1.5
							c0.3,0.2,0.6,0.3,1,0.3c1.1,0,1.6-0.8,1.6-2.5v-6h1.6V886.4z"/>
						<path style="fill:#686969;" d="M597.8,890.1c-1.4,0-2.5-0.5-3.4-1.4c-0.8-0.9-1.3-2.1-1.3-3.6c0-1.6,0.4-2.8,1.3-3.8
							c0.9-0.9,2-1.4,3.5-1.4c1.4,0,2.5,0.5,3.3,1.4c0.8,0.9,1.3,2.1,1.3,3.6c0,1.6-0.4,2.8-1.3,3.8
							C600.4,889.6,599.2,890.1,597.8,890.1z M597.9,881.4c-0.9,0-1.6,0.3-2.2,1c-0.6,0.7-0.8,1.5-0.8,2.6c0,1.1,0.3,2,0.8,2.6
							c0.5,0.7,1.3,1,2.1,1c0.9,0,1.7-0.3,2.2-0.9c0.5-0.6,0.8-1.5,0.8-2.6c0-1.2-0.3-2.1-0.8-2.7S598.8,881.4,597.9,881.4z"/>
						<path style="fill:#686969;" d="M604.3,889.9v-9.8h3.1c0.9,0,1.7,0.2,2.2,0.6c0.6,0.4,0.8,0.9,0.8,1.6c0,0.6-0.2,1-0.5,1.4
							c-0.3,0.4-0.7,0.7-1.3,0.9v0c0.7,0.1,1.2,0.3,1.6,0.7c0.4,0.4,0.6,1,0.6,1.6c0,0.8-0.3,1.5-1,2s-1.5,0.8-2.5,0.8H604.3z
							 M605.9,881.5v2.8h1c0.6,0,1-0.1,1.3-0.4c0.3-0.3,0.5-0.6,0.5-1.1c0-0.8-0.6-1.3-1.7-1.3H605.9z M605.9,885.5v3.1h1.4
							c0.6,0,1.1-0.1,1.4-0.4c0.3-0.3,0.5-0.7,0.5-1.2c0-1-0.7-1.5-2.1-1.5H605.9z"/>
						<path style="fill:#686969;" d="M577.4,898.2h-2.8v8.4H573v-8.4h-2.8v-1.4h7.2V898.2z"/>
						<path style="fill:#686969;" d="M586.4,906.6h-1.9L583,904c-0.1-0.2-0.3-0.4-0.4-0.6c-0.1-0.2-0.3-0.3-0.4-0.4
							c-0.1-0.1-0.3-0.2-0.5-0.2s-0.3-0.1-0.6-0.1h-0.7v4h-1.6v-9.8h3.2c0.5,0,0.9,0.1,1.3,0.2c0.4,0.1,0.7,0.3,1,0.5
							c0.3,0.2,0.5,0.5,0.7,0.8c0.2,0.3,0.2,0.7,0.2,1.2c0,0.3-0.1,0.7-0.2,0.9c-0.1,0.3-0.2,0.5-0.4,0.8c-0.2,0.2-0.4,0.4-0.7,0.6
							c-0.3,0.2-0.6,0.3-0.9,0.4v0c0.2,0.1,0.3,0.2,0.5,0.3c0.1,0.1,0.3,0.2,0.4,0.4c0.1,0.1,0.2,0.3,0.3,0.4
							c0.1,0.2,0.2,0.3,0.4,0.6L586.4,906.6z M580.5,898.2v3.2h1.3c0.2,0,0.5,0,0.7-0.1s0.4-0.2,0.5-0.3c0.2-0.1,0.3-0.3,0.4-0.5
							c0.1-0.2,0.1-0.4,0.1-0.7c0-0.5-0.1-0.8-0.4-1.1s-0.7-0.4-1.3-0.4H580.5z"/>
						<path style="fill:#686969;" d="M595.6,906.6h-1.8l-0.9-2.5h-3.8l-0.8,2.5h-1.8l3.7-9.8h1.8L595.6,906.6z M592.5,902.8
							l-1.4-3.9c0-0.1-0.1-0.3-0.1-0.6h0c0,0.3-0.1,0.5-0.1,0.6l-1.3,3.9H592.5z"/>
						<path style="fill:#686969;" d="M603.5,906.2c-0.7,0.4-1.6,0.6-2.7,0.6c-1.4,0-2.5-0.4-3.4-1.3c-0.9-0.9-1.3-2.1-1.3-3.5
							c0-1.6,0.5-2.8,1.4-3.8s2.2-1.4,3.6-1.4c0.9,0,1.7,0.1,2.3,0.4v1.6c-0.7-0.4-1.4-0.6-2.2-0.6c-1.1,0-1.9,0.3-2.6,1
							s-1,1.6-1,2.7c0,1.1,0.3,1.9,0.9,2.6c0.6,0.6,1.4,1,2.4,1c0.9,0,1.7-0.2,2.4-0.7V906.2z"/>
						<path style="fill:#686969;" d="M612.7,906.6h-2.1l-3.4-4.5c-0.1-0.2-0.2-0.3-0.2-0.3h0v4.8h-1.6v-9.8h1.6v4.6h0
							c0.1-0.1,0.1-0.2,0.2-0.3l3.3-4.3h1.9l-3.8,4.7L612.7,906.6z"/>
						<path style="fill:#686969;" d="M619.3,906.6h-5.5v-9.8h5.3v1.4h-3.6v2.8h3.4v1.4h-3.4v2.9h3.9V906.6z"/>
						<path style="fill:#686969;" d="M628.6,906.6h-1.9l-1.6-2.6c-0.1-0.2-0.3-0.4-0.4-0.6c-0.1-0.2-0.3-0.3-0.4-0.4
							c-0.1-0.1-0.3-0.2-0.5-0.2s-0.3-0.1-0.6-0.1h-0.7v4h-1.6v-9.8h3.2c0.5,0,0.9,0.1,1.3,0.2c0.4,0.1,0.7,0.3,1,0.5
							c0.3,0.2,0.5,0.5,0.7,0.8c0.2,0.3,0.2,0.7,0.2,1.2c0,0.3-0.1,0.7-0.2,0.9c-0.1,0.3-0.2,0.5-0.4,0.8c-0.2,0.2-0.4,0.4-0.7,0.6
							c-0.3,0.2-0.6,0.3-0.9,0.4v0c0.2,0.1,0.3,0.2,0.5,0.3c0.1,0.1,0.3,0.2,0.4,0.4c0.1,0.1,0.2,0.3,0.3,0.4
							c0.1,0.2,0.2,0.3,0.4,0.6L628.6,906.6z M622.7,898.2v3.2h1.3c0.2,0,0.5,0,0.7-0.1s0.4-0.2,0.5-0.3c0.2-0.1,0.3-0.3,0.4-0.5
							c0.1-0.2,0.1-0.4,0.1-0.7c0-0.5-0.1-0.8-0.4-1.1s-0.7-0.4-1.3-0.4H622.7z"/>
					</g>
					
						<rect x="489.8" y="924.6" style="fill:none;stroke:#686969;stroke-width:3;stroke-linecap:round;stroke-linejoin:round;stroke-miterlimit:10;" width="142.9" height="34.3"/>
					<g>
						<path style="fill:#686969;" d="M515.2,936.6l-2.7,9.8h-1.8l-1.9-6.8c-0.1-0.3-0.1-0.6-0.1-1h0c0,0.3-0.1,0.6-0.2,0.9l-1.9,6.8
							h-1.9l-2.7-9.8h1.8l1.8,7.1c0.1,0.3,0.1,0.6,0.1,0.9h0c0-0.2,0.1-0.5,0.2-0.9l2-7.1h1.7l1.8,7.2c0.1,0.2,0.1,0.5,0.1,0.9h0
							c0-0.2,0.1-0.5,0.2-0.9l1.7-7.2H515.2z"/>
						<path style="fill:#686969;" d="M520.6,946.5c-1.4,0-2.5-0.5-3.4-1.4c-0.8-0.9-1.3-2.1-1.3-3.6c0-1.6,0.4-2.8,1.3-3.8
							c0.9-0.9,2-1.4,3.5-1.4c1.4,0,2.5,0.5,3.3,1.4c0.8,0.9,1.3,2.1,1.3,3.6c0,1.6-0.4,2.8-1.3,3.8
							C523.2,946.1,522,946.5,520.6,946.5z M520.7,937.9c-0.9,0-1.6,0.3-2.2,1c-0.6,0.7-0.8,1.5-0.8,2.6c0,1.1,0.3,2,0.8,2.6
							c0.5,0.7,1.3,1,2.1,1c0.9,0,1.7-0.3,2.2-0.9c0.5-0.6,0.8-1.5,0.8-2.6c0-1.2-0.3-2.1-0.8-2.7S521.6,937.9,520.7,937.9z"/>
						<path style="fill:#686969;" d="M534.6,946.4h-1.9l-1.6-2.6c-0.1-0.2-0.3-0.4-0.4-0.6c-0.1-0.2-0.3-0.3-0.4-0.4
							c-0.1-0.1-0.3-0.2-0.5-0.2s-0.3-0.1-0.6-0.1h-0.7v4h-1.6v-9.8h3.2c0.5,0,0.9,0.1,1.3,0.2c0.4,0.1,0.7,0.3,1,0.5
							c0.3,0.2,0.5,0.5,0.7,0.8c0.2,0.3,0.2,0.7,0.2,1.2c0,0.3-0.1,0.7-0.2,0.9c-0.1,0.3-0.2,0.5-0.4,0.8c-0.2,0.2-0.4,0.4-0.7,0.6
							c-0.3,0.2-0.6,0.3-0.9,0.4v0c0.2,0.1,0.3,0.2,0.5,0.3c0.1,0.1,0.3,0.2,0.4,0.4c0.1,0.1,0.2,0.3,0.3,0.4
							c0.1,0.2,0.2,0.3,0.4,0.6L534.6,946.4z M528.7,937.9v3.2h1.3c0.2,0,0.5,0,0.7-0.1s0.4-0.2,0.5-0.3c0.2-0.1,0.3-0.3,0.4-0.5
							c0.1-0.2,0.1-0.4,0.1-0.7c0-0.5-0.1-0.8-0.4-1.1s-0.7-0.4-1.3-0.4H528.7z"/>
						<path style="fill:#686969;" d="M543.2,946.4h-2.1l-3.4-4.5c-0.1-0.2-0.2-0.3-0.2-0.3h0v4.8h-1.6v-9.8h1.6v4.6h0
							c0.1-0.1,0.1-0.2,0.2-0.3l3.3-4.3h1.9l-3.8,4.7L543.2,946.4z"/>
						<path style="fill:#686969;" d="M549.8,946.4h-5.5v-9.8h5.3v1.4h-3.6v2.8h3.4v1.4h-3.4v2.9h3.9V946.4z"/>
						<path style="fill:#686969;" d="M559,946.4h-1.9l-1.6-2.6c-0.1-0.2-0.3-0.4-0.4-0.6c-0.1-0.2-0.3-0.3-0.4-0.4
							c-0.1-0.1-0.3-0.2-0.5-0.2s-0.3-0.1-0.6-0.1h-0.7v4h-1.6v-9.8h3.2c0.5,0,0.9,0.1,1.3,0.2c0.4,0.1,0.7,0.3,1,0.5
							c0.3,0.2,0.5,0.5,0.7,0.8c0.2,0.3,0.2,0.7,0.2,1.2c0,0.3-0.1,0.7-0.2,0.9c-0.1,0.3-0.2,0.5-0.4,0.8c-0.2,0.2-0.4,0.4-0.7,0.6
							c-0.3,0.2-0.6,0.3-0.9,0.4v0c0.2,0.1,0.3,0.2,0.5,0.3c0.1,0.1,0.3,0.2,0.4,0.4c0.1,0.1,0.2,0.3,0.3,0.4
							c0.1,0.2,0.2,0.3,0.4,0.6L559,946.4z M553.1,937.9v3.2h1.3c0.2,0,0.5,0,0.7-0.1s0.4-0.2,0.5-0.3c0.2-0.1,0.3-0.3,0.4-0.5
							c0.1-0.2,0.1-0.4,0.1-0.7c0-0.5-0.1-0.8-0.4-1.1s-0.7-0.4-1.3-0.4H553.1z"/>
						<path style="fill:#686969;" d="M572.3,946.4h-1.8l-4.7-7.2c-0.1-0.2-0.2-0.4-0.3-0.6h0c0,0.2,0.1,0.7,0.1,1.3v6.4H564v-9.8
							h1.9l4.5,7c0.2,0.3,0.3,0.5,0.4,0.6h0c0-0.3-0.1-0.7-0.1-1.3v-6.3h1.6V946.4z"/>
						<path style="fill:#686969;" d="M578.7,946.5c-1.4,0-2.5-0.5-3.4-1.4c-0.8-0.9-1.3-2.1-1.3-3.6c0-1.6,0.4-2.8,1.3-3.8
							c0.9-0.9,2-1.4,3.5-1.4c1.4,0,2.5,0.5,3.3,1.4c0.8,0.9,1.3,2.1,1.3,3.6c0,1.6-0.4,2.8-1.3,3.8
							C581.3,946.1,580.1,946.5,578.7,946.5z M578.8,937.9c-0.9,0-1.6,0.3-2.2,1c-0.6,0.7-0.8,1.5-0.8,2.6c0,1.1,0.3,2,0.8,2.6
							c0.5,0.7,1.3,1,2.1,1c0.9,0,1.7-0.3,2.2-0.9c0.5-0.6,0.8-1.5,0.8-2.6c0-1.2-0.3-2.1-0.8-2.7S579.7,937.9,578.8,937.9z"/>
						<path style="fill:#686969;" d="M585.2,946.4v-9.8h2.8c3.6,0,5.4,1.6,5.4,4.8c0,1.5-0.5,2.7-1.5,3.6c-1,0.9-2.3,1.4-4,1.4
							H585.2z M586.8,938v7h1.3c1.1,0,2-0.3,2.7-0.9c0.6-0.6,0.9-1.5,0.9-2.7c0-2.3-1.2-3.4-3.5-3.4H586.8z"/>
						<path style="fill:#686969;" d="M600.7,946.4h-5.5v-9.8h5.3v1.4h-3.6v2.8h3.4v1.4h-3.4v2.9h3.9V946.4z"/>
						<path style="fill:#686969;" d="M611.8,946.4h-6.1v-0.8c0-0.3,0-0.6,0.1-0.9s0.2-0.5,0.3-0.8c0.1-0.2,0.3-0.5,0.5-0.7
							c0.2-0.2,0.4-0.4,0.6-0.6c0.2-0.2,0.4-0.4,0.7-0.6c0.2-0.2,0.5-0.4,0.7-0.6c0.2-0.2,0.4-0.3,0.6-0.5c0.2-0.2,0.3-0.3,0.4-0.5
							c0.1-0.2,0.2-0.4,0.3-0.6c0.1-0.2,0.1-0.4,0.1-0.7c0-0.3,0-0.5-0.1-0.7c-0.1-0.2-0.2-0.4-0.3-0.5c-0.1-0.1-0.3-0.2-0.5-0.3
							c-0.2-0.1-0.4-0.1-0.6-0.1c-0.4,0-0.8,0.1-1.2,0.3c-0.4,0.2-0.8,0.5-1.2,0.8v-1.5c0.2-0.1,0.4-0.3,0.6-0.4
							c0.2-0.1,0.4-0.2,0.6-0.3s0.4-0.1,0.7-0.2c0.2,0,0.5-0.1,0.8-0.1c0.4,0,0.8,0.1,1.2,0.2c0.4,0.1,0.7,0.3,0.9,0.5
							c0.3,0.2,0.5,0.5,0.6,0.8c0.1,0.3,0.2,0.7,0.2,1.2c0,0.4,0,0.8-0.1,1.1c-0.1,0.3-0.2,0.6-0.4,0.9c-0.2,0.3-0.4,0.5-0.6,0.8
							s-0.5,0.5-0.8,0.8c-0.3,0.2-0.5,0.4-0.8,0.6c-0.3,0.2-0.5,0.4-0.7,0.6c-0.2,0.2-0.4,0.4-0.5,0.6c-0.1,0.2-0.2,0.4-0.2,0.6v0
							h4.4V946.4z"/>
					</g>
				</g>
				<g>
					<g>
						<path style="fill:#686969;" d="M435.7,991.6h-2.8v8.4h-1.6v-8.4h-2.8v-1.4h7.2V991.6z"/>
						<path style="fill:#686969;" d="M444.1,1000h-1.8l-0.9-2.5h-3.8l-0.8,2.5H435l3.7-9.8h1.8L444.1,1000z M441,996.2l-1.4-3.9
							c0-0.1-0.1-0.3-0.1-0.6h0c0,0.3-0.1,0.5-0.1,0.6l-1.3,3.9H441z"/>
						<path style="fill:#686969;" d="M445,999.6v-1.7c0.1,0.1,0.3,0.3,0.5,0.4c0.2,0.1,0.4,0.2,0.7,0.3c0.2,0.1,0.5,0.1,0.7,0.2
							c0.2,0,0.4,0.1,0.6,0.1c0.7,0,1.2-0.1,1.5-0.3s0.5-0.6,0.5-1c0-0.2-0.1-0.4-0.2-0.6s-0.3-0.3-0.5-0.5s-0.4-0.3-0.7-0.4
							c-0.3-0.1-0.6-0.3-0.9-0.4c-0.3-0.2-0.6-0.4-0.9-0.5c-0.3-0.2-0.5-0.4-0.7-0.6s-0.4-0.5-0.5-0.7s-0.2-0.6-0.2-1
							c0-0.5,0.1-0.9,0.3-1.2s0.5-0.6,0.8-0.8c0.3-0.2,0.7-0.4,1.2-0.5s0.9-0.2,1.3-0.2c1,0,1.8,0.1,2.2,0.3v1.6
							c-0.6-0.4-1.3-0.6-2.1-0.6c-0.2,0-0.5,0-0.7,0.1c-0.2,0-0.5,0.1-0.6,0.2s-0.3,0.2-0.5,0.4s-0.2,0.4-0.2,0.6
							c0,0.2,0,0.4,0.1,0.6c0.1,0.2,0.2,0.3,0.4,0.4c0.2,0.1,0.4,0.3,0.6,0.4c0.3,0.1,0.5,0.3,0.9,0.4c0.3,0.2,0.7,0.4,1,0.6
							c0.3,0.2,0.6,0.4,0.8,0.6c0.2,0.2,0.4,0.5,0.5,0.8s0.2,0.6,0.2,1c0,0.5-0.1,0.9-0.3,1.3c-0.2,0.3-0.5,0.6-0.8,0.8
							c-0.3,0.2-0.7,0.4-1.2,0.5c-0.4,0.1-0.9,0.1-1.4,0.1c-0.2,0-0.4,0-0.6,0c-0.2,0-0.5-0.1-0.7-0.1c-0.2,0-0.5-0.1-0.7-0.2
							C445.3,999.7,445.2,999.7,445,999.6z"/>
						<path style="fill:#686969;" d="M460.4,1000h-2.1l-3.4-4.5c-0.1-0.2-0.2-0.3-0.2-0.3h0v4.8h-1.6v-9.8h1.6v4.6h0
							c0.1-0.1,0.1-0.2,0.2-0.3l3.3-4.3h1.9l-3.8,4.7L460.4,1000z"/>
						<path style="fill:#686969;" d="M424.4,1008.3h-2.8v8.4H420v-8.4h-2.8v-1.4h7.2V1008.3z"/>
						<path style="fill:#686969;" d="M433.4,1016.7h-1.9l-1.6-2.6c-0.1-0.2-0.3-0.4-0.4-0.6c-0.1-0.2-0.3-0.3-0.4-0.4
							c-0.1-0.1-0.3-0.2-0.5-0.2s-0.3-0.1-0.6-0.1h-0.7v4h-1.6v-9.8h3.2c0.5,0,0.9,0.1,1.3,0.2c0.4,0.1,0.7,0.3,1,0.5
							c0.3,0.2,0.5,0.5,0.7,0.8c0.2,0.3,0.2,0.7,0.2,1.2c0,0.3-0.1,0.7-0.2,0.9c-0.1,0.3-0.2,0.5-0.4,0.8c-0.2,0.2-0.4,0.4-0.7,0.6
							c-0.3,0.2-0.6,0.3-0.9,0.4v0c0.2,0.1,0.3,0.2,0.5,0.3c0.1,0.1,0.3,0.2,0.4,0.4c0.1,0.1,0.2,0.3,0.3,0.4
							c0.1,0.2,0.2,0.3,0.4,0.6L433.4,1016.7z M427.4,1008.2v3.2h1.3c0.2,0,0.5,0,0.7-0.1s0.4-0.2,0.5-0.3c0.2-0.1,0.3-0.3,0.4-0.5
							c0.1-0.2,0.1-0.4,0.1-0.7c0-0.5-0.1-0.8-0.4-1.1s-0.7-0.4-1.3-0.4H427.4z"/>
						<path style="fill:#686969;" d="M442.5,1016.7h-1.8l-0.9-2.5H436l-0.8,2.5h-1.8l3.7-9.8h1.8L442.5,1016.7z M439.4,1012.9
							l-1.4-3.9c0-0.1-0.1-0.3-0.1-0.6h0c0,0.3-0.1,0.5-0.1,0.6l-1.3,3.9H439.4z"/>
						<path style="fill:#686969;" d="M450.5,1016.3c-0.7,0.4-1.6,0.6-2.7,0.6c-1.4,0-2.5-0.4-3.4-1.3c-0.9-0.9-1.3-2.1-1.3-3.5
							c0-1.6,0.5-2.8,1.4-3.8s2.2-1.4,3.6-1.4c0.9,0,1.7,0.1,2.3,0.4v1.6c-0.7-0.4-1.4-0.6-2.2-0.6c-1.1,0-1.9,0.3-2.6,1
							s-1,1.6-1,2.7c0,1.1,0.3,1.9,0.9,2.6c0.6,0.6,1.4,1,2.4,1c0.9,0,1.7-0.2,2.4-0.7V1016.3z"/>
						<path style="fill:#686969;" d="M459.7,1016.7h-2.1l-3.4-4.5c-0.1-0.2-0.2-0.3-0.2-0.3h0v4.8h-1.6v-9.8h1.6v4.6h0
							c0.1-0.1,0.1-0.2,0.2-0.3l3.3-4.3h1.9l-3.8,4.7L459.7,1016.7z"/>
						<path style="fill:#686969;" d="M466.3,1016.7h-5.5v-9.8h5.3v1.4h-3.6v2.8h3.4v1.4h-3.4v2.9h3.9V1016.7z"/>
						<path style="fill:#686969;" d="M475.6,1016.7h-1.9l-1.6-2.6c-0.1-0.2-0.3-0.4-0.4-0.6c-0.1-0.2-0.3-0.3-0.4-0.4
							c-0.1-0.1-0.3-0.2-0.5-0.2s-0.3-0.1-0.6-0.1h-0.7v4H468v-9.8h3.2c0.5,0,0.9,0.1,1.3,0.2c0.4,0.1,0.7,0.3,1,0.5
							c0.3,0.2,0.5,0.5,0.7,0.8c0.2,0.3,0.2,0.7,0.2,1.2c0,0.3-0.1,0.7-0.2,0.9c-0.1,0.3-0.2,0.5-0.4,0.8c-0.2,0.2-0.4,0.4-0.7,0.6
							c-0.3,0.2-0.6,0.3-0.9,0.4v0c0.2,0.1,0.3,0.2,0.5,0.3c0.1,0.1,0.3,0.2,0.4,0.4c0.1,0.1,0.2,0.3,0.3,0.4
							c0.1,0.2,0.2,0.3,0.4,0.6L475.6,1016.7z M469.6,1008.2v3.2h1.3c0.2,0,0.5,0,0.7-0.1s0.4-0.2,0.5-0.3c0.2-0.1,0.3-0.3,0.4-0.5
							c0.1-0.2,0.1-0.4,0.1-0.7c0-0.5-0.1-0.8-0.4-1.1s-0.7-0.4-1.3-0.4H469.6z"/>
					</g>
					<path style="fill:none;stroke:#686969;stroke-width:3;stroke-linecap:round;stroke-linejoin:round;stroke-miterlimit:10;" d="
						M556.2,1002.2c0-18.4-14.9-33.3-33.3-33.3c-18.4,0-33.3,14.9-33.3,33.3c0,0,0,0.1,0,0.1h0v25.7h66.6L556.2,1002.2L556.2,1002.2
						C556.2,1002.2,556.2,1002.2,556.2,1002.2z"/>
					<path style="fill:none;stroke:#686969;stroke-width:3;stroke-linecap:round;stroke-linejoin:round;stroke-miterlimit:10;" d="
						M479.9,1001.8c0-18.4-14.9-33.3-33.3-33.3s-33.3,14.9-33.3,33.3c0,0,0,0.1,0,0.1h0v25.7h66.6L479.9,1001.8L479.9,1001.8
						C479.9,1001.8,479.9,1001.8,479.9,1001.8z"/>
					<g>
						<path style="fill:#686969;" d="M515,996.5c0,1.2-0.3,2.1-0.9,2.7s-1.3,1-2.3,1c-0.4,0-0.8-0.1-1.1-0.2v-1.5
							c0.3,0.2,0.6,0.3,1,0.3c1.1,0,1.6-0.8,1.6-2.5v-6h1.6V996.5z"/>
						<path style="fill:#686969;" d="M521.3,1000.1c-1.4,0-2.5-0.5-3.4-1.4c-0.8-0.9-1.3-2.1-1.3-3.6c0-1.6,0.4-2.8,1.3-3.8
							c0.9-0.9,2-1.4,3.5-1.4c1.4,0,2.5,0.5,3.3,1.4c0.8,0.9,1.3,2.1,1.3,3.6c0,1.6-0.4,2.8-1.3,3.8
							C523.9,999.7,522.8,1000.1,521.3,1000.1z M521.4,991.5c-0.9,0-1.6,0.3-2.2,1c-0.6,0.7-0.8,1.5-0.8,2.6c0,1.1,0.3,2,0.8,2.6
							c0.5,0.7,1.3,1,2.1,1c0.9,0,1.7-0.3,2.2-0.9c0.5-0.6,0.8-1.5,0.8-2.6c0-1.2-0.3-2.1-0.8-2.7S522.3,991.5,521.4,991.5z"/>
						<path style="fill:#686969;" d="M527.9,1000v-9.8h3.1c0.9,0,1.7,0.2,2.2,0.6c0.6,0.4,0.8,0.9,0.8,1.6c0,0.6-0.2,1-0.5,1.4
							c-0.3,0.4-0.7,0.7-1.3,0.9v0c0.7,0.1,1.2,0.3,1.6,0.7c0.4,0.4,0.6,1,0.6,1.6c0,0.8-0.3,1.5-1,2s-1.5,0.8-2.5,0.8H527.9z
							 M529.5,991.5v2.8h1c0.6,0,1-0.1,1.3-0.4c0.3-0.3,0.5-0.6,0.5-1.1c0-0.8-0.6-1.3-1.7-1.3H529.5z M529.5,995.6v3.1h1.4
							c0.6,0,1.1-0.1,1.4-0.4c0.3-0.3,0.5-0.7,0.5-1.2c0-1-0.7-1.5-2.1-1.5H529.5z"/>
						<path style="fill:#686969;" d="M501,1008.3h-2.8v8.4h-1.6v-8.4h-2.8v-1.4h7.2V1008.3z"/>
						<path style="fill:#686969;" d="M510,1016.7h-1.9l-1.6-2.6c-0.1-0.2-0.3-0.4-0.4-0.6c-0.1-0.2-0.3-0.3-0.4-0.4
							c-0.1-0.1-0.3-0.2-0.5-0.2s-0.3-0.1-0.6-0.1h-0.7v4h-1.6v-9.8h3.2c0.5,0,0.9,0.1,1.3,0.2c0.4,0.1,0.7,0.3,1,0.5
							c0.3,0.2,0.5,0.5,0.7,0.8c0.2,0.3,0.2,0.7,0.2,1.2c0,0.3-0.1,0.7-0.2,0.9c-0.1,0.3-0.2,0.5-0.4,0.8c-0.2,0.2-0.4,0.4-0.7,0.6
							c-0.3,0.2-0.6,0.3-0.9,0.4v0c0.2,0.1,0.3,0.2,0.5,0.3c0.1,0.1,0.3,0.2,0.4,0.4c0.1,0.1,0.2,0.3,0.3,0.4
							c0.1,0.2,0.2,0.3,0.4,0.6L510,1016.7z M504.1,1008.2v3.2h1.3c0.2,0,0.5,0,0.7-0.1s0.4-0.2,0.5-0.3c0.2-0.1,0.3-0.3,0.4-0.5
							c0.1-0.2,0.1-0.4,0.1-0.7c0-0.5-0.1-0.8-0.4-1.1s-0.7-0.4-1.3-0.4H504.1z"/>
						<path style="fill:#686969;" d="M519.1,1016.7h-1.8l-0.9-2.5h-3.8l-0.8,2.5H510l3.7-9.8h1.8L519.1,1016.7z M516,1012.9
							l-1.4-3.9c0-0.1-0.1-0.3-0.1-0.6h0c0,0.3-0.1,0.5-0.1,0.6l-1.3,3.9H516z"/>
						<path style="fill:#686969;" d="M527.1,1016.3c-0.7,0.4-1.6,0.6-2.7,0.6c-1.4,0-2.5-0.4-3.4-1.3c-0.9-0.9-1.3-2.1-1.3-3.5
							c0-1.6,0.5-2.8,1.4-3.8s2.2-1.4,3.6-1.4c0.9,0,1.7,0.1,2.3,0.4v1.6c-0.7-0.4-1.4-0.6-2.2-0.6c-1.1,0-1.9,0.3-2.6,1
							s-1,1.6-1,2.7c0,1.1,0.3,1.9,0.9,2.6c0.6,0.6,1.4,1,2.4,1c0.9,0,1.7-0.2,2.4-0.7V1016.3z"/>
						<path style="fill:#686969;" d="M536.3,1016.7h-2.1l-3.4-4.5c-0.1-0.2-0.2-0.3-0.2-0.3h0v4.8h-1.6v-9.8h1.6v4.6h0
							c0.1-0.1,0.1-0.2,0.2-0.3l3.3-4.3h1.9l-3.8,4.7L536.3,1016.7z"/>
						<path style="fill:#686969;" d="M542.9,1016.7h-5.5v-9.8h5.3v1.4H539v2.8h3.4v1.4H539v2.9h3.9V1016.7z"/>
						<path style="fill:#686969;" d="M552.2,1016.7h-1.9l-1.6-2.6c-0.1-0.2-0.3-0.4-0.4-0.6c-0.1-0.2-0.3-0.3-0.4-0.4
							c-0.1-0.1-0.3-0.2-0.5-0.2s-0.3-0.1-0.6-0.1h-0.7v4h-1.6v-9.8h3.2c0.5,0,0.9,0.1,1.3,0.2c0.4,0.1,0.7,0.3,1,0.5
							c0.3,0.2,0.5,0.5,0.7,0.8c0.2,0.3,0.2,0.7,0.2,1.2c0,0.3-0.1,0.7-0.2,0.9c-0.1,0.3-0.2,0.5-0.4,0.8c-0.2,0.2-0.4,0.4-0.7,0.6
							c-0.3,0.2-0.6,0.3-0.9,0.4v0c0.2,0.1,0.3,0.2,0.5,0.3c0.1,0.1,0.3,0.2,0.4,0.4c0.1,0.1,0.2,0.3,0.3,0.4
							c0.1,0.2,0.2,0.3,0.4,0.6L552.2,1016.7z M546.3,1008.2v3.2h1.3c0.2,0,0.5,0,0.7-0.1s0.4-0.2,0.5-0.3c0.2-0.1,0.3-0.3,0.4-0.5
							c0.1-0.2,0.1-0.4,0.1-0.7c0-0.5-0.1-0.8-0.4-1.1s-0.7-0.4-1.3-0.4H546.3z"/>
					</g>
					
						<rect x="413.3" y="1034.7" style="fill:none;stroke:#686969;stroke-width:3;stroke-linecap:round;stroke-linejoin:round;stroke-miterlimit:10;" width="142.9" height="34.3"/>
					<g>
						<path style="fill:#686969;" d="M438.8,1046.7l-2.7,9.8h-1.8l-1.9-6.8c-0.1-0.3-0.1-0.6-0.1-1h0c0,0.3-0.1,0.6-0.2,0.9
							l-1.9,6.8h-1.9l-2.7-9.8h1.8l1.8,7.1c0.1,0.3,0.1,0.6,0.1,0.9h0c0-0.2,0.1-0.5,0.2-0.9l2-7.1h1.7l1.8,7.2
							c0.1,0.2,0.1,0.5,0.1,0.9h0c0-0.2,0.1-0.5,0.2-0.9l1.7-7.2H438.8z"/>
						<path style="fill:#686969;" d="M444.2,1056.6c-1.4,0-2.5-0.5-3.4-1.4c-0.8-0.9-1.3-2.1-1.3-3.6c0-1.6,0.4-2.8,1.3-3.8
							c0.9-0.9,2-1.4,3.5-1.4c1.4,0,2.5,0.5,3.3,1.4c0.8,0.9,1.3,2.1,1.3,3.6c0,1.6-0.4,2.8-1.3,3.8
							C446.8,1056.1,445.6,1056.6,444.2,1056.6z M444.2,1047.9c-0.9,0-1.6,0.3-2.2,1c-0.6,0.7-0.8,1.5-0.8,2.6c0,1.1,0.3,2,0.8,2.6
							c0.5,0.7,1.3,1,2.1,1c0.9,0,1.7-0.3,2.2-0.9c0.5-0.6,0.8-1.5,0.8-2.6c0-1.2-0.3-2.1-0.8-2.7S445.2,1047.9,444.2,1047.9z"/>
						<path style="fill:#686969;" d="M458.2,1056.4h-1.9l-1.6-2.6c-0.1-0.2-0.3-0.4-0.4-0.6c-0.1-0.2-0.3-0.3-0.4-0.4
							c-0.1-0.1-0.3-0.2-0.5-0.2s-0.3-0.1-0.6-0.1h-0.7v4h-1.6v-9.8h3.2c0.5,0,0.9,0.1,1.3,0.2c0.4,0.1,0.7,0.3,1,0.5
							c0.3,0.2,0.5,0.5,0.7,0.8c0.2,0.3,0.2,0.7,0.2,1.2c0,0.3-0.1,0.7-0.2,0.9c-0.1,0.3-0.2,0.5-0.4,0.8c-0.2,0.2-0.4,0.4-0.7,0.6
							c-0.3,0.2-0.6,0.3-0.9,0.4v0c0.2,0.1,0.3,0.2,0.5,0.3c0.1,0.1,0.3,0.2,0.4,0.4c0.1,0.1,0.2,0.3,0.3,0.4
							c0.1,0.2,0.2,0.3,0.4,0.6L458.2,1056.4z M452.3,1048v3.2h1.3c0.2,0,0.5,0,0.7-0.1s0.4-0.2,0.5-0.3c0.2-0.1,0.3-0.3,0.4-0.5
							c0.1-0.2,0.1-0.4,0.1-0.7c0-0.5-0.1-0.8-0.4-1.1s-0.7-0.4-1.3-0.4H452.3z"/>
						<path style="fill:#686969;" d="M466.7,1056.4h-2.1l-3.4-4.5c-0.1-0.2-0.2-0.3-0.2-0.3h0v4.8h-1.6v-9.8h1.6v4.6h0
							c0.1-0.1,0.1-0.2,0.2-0.3l3.3-4.3h1.9l-3.8,4.7L466.7,1056.4z"/>
						<path style="fill:#686969;" d="M473.3,1056.4h-5.5v-9.8h5.3v1.4h-3.6v2.8h3.4v1.4h-3.4v2.9h3.9V1056.4z"/>
						<path style="fill:#686969;" d="M482.6,1056.4h-1.9l-1.6-2.6c-0.1-0.2-0.3-0.4-0.4-0.6c-0.1-0.2-0.3-0.3-0.4-0.4
							c-0.1-0.1-0.3-0.2-0.5-0.2s-0.3-0.1-0.6-0.1h-0.7v4h-1.6v-9.8h3.2c0.5,0,0.9,0.1,1.3,0.2c0.4,0.1,0.7,0.3,1,0.5
							c0.3,0.2,0.5,0.5,0.7,0.8c0.2,0.3,0.2,0.7,0.2,1.2c0,0.3-0.1,0.7-0.2,0.9c-0.1,0.3-0.2,0.5-0.4,0.8c-0.2,0.2-0.4,0.4-0.7,0.6
							c-0.3,0.2-0.6,0.3-0.9,0.4v0c0.2,0.1,0.3,0.2,0.5,0.3c0.1,0.1,0.3,0.2,0.4,0.4c0.1,0.1,0.2,0.3,0.3,0.4
							c0.1,0.2,0.2,0.3,0.4,0.6L482.6,1056.4z M476.7,1048v3.2h1.3c0.2,0,0.5,0,0.7-0.1s0.4-0.2,0.5-0.3c0.2-0.1,0.3-0.3,0.4-0.5
							c0.1-0.2,0.1-0.4,0.1-0.7c0-0.5-0.1-0.8-0.4-1.1s-0.7-0.4-1.3-0.4H476.7z"/>
						<path style="fill:#686969;" d="M495.8,1056.4h-1.8l-4.7-7.2c-0.1-0.2-0.2-0.4-0.3-0.6h0c0,0.2,0.1,0.7,0.1,1.3v6.4h-1.6v-9.8
							h1.9l4.5,7c0.2,0.3,0.3,0.5,0.4,0.6h0c0-0.3-0.1-0.7-0.1-1.3v-6.3h1.6V1056.4z"/>
						<path style="fill:#686969;" d="M502.3,1056.6c-1.4,0-2.5-0.5-3.4-1.4c-0.8-0.9-1.3-2.1-1.3-3.6c0-1.6,0.4-2.8,1.3-3.8
							c0.9-0.9,2-1.4,3.5-1.4c1.4,0,2.5,0.5,3.3,1.4c0.8,0.9,1.3,2.1,1.3,3.6c0,1.6-0.4,2.8-1.3,3.8
							C504.8,1056.1,503.7,1056.6,502.3,1056.6z M502.3,1047.9c-0.9,0-1.6,0.3-2.2,1c-0.6,0.7-0.8,1.5-0.8,2.6c0,1.1,0.3,2,0.8,2.6
							c0.5,0.7,1.3,1,2.1,1c0.9,0,1.7-0.3,2.2-0.9c0.5-0.6,0.8-1.5,0.8-2.6c0-1.2-0.3-2.1-0.8-2.7S503.3,1047.9,502.3,1047.9z"/>
						<path style="fill:#686969;" d="M508.8,1056.4v-9.8h2.8c3.6,0,5.4,1.6,5.4,4.8c0,1.5-0.5,2.7-1.5,3.6c-1,0.9-2.3,1.4-4,1.4
							H508.8z M510.4,1048v7h1.3c1.1,0,2-0.3,2.7-0.9c0.6-0.6,0.9-1.5,0.9-2.7c0-2.3-1.2-3.4-3.5-3.4H510.4z"/>
						<path style="fill:#686969;" d="M524.2,1056.4h-5.5v-9.8h5.3v1.4h-3.6v2.8h3.4v1.4h-3.4v2.9h3.9V1056.4z"/>
						<path style="fill:#686969;" d="M529.4,1056.1v-1.5c0.6,0.5,1.4,0.8,2.1,0.8c0.6,0,1.2-0.1,1.6-0.4s0.6-0.7,0.6-1.2
							c0-1.1-0.8-1.7-2.5-1.7h-0.8v-1.3h0.7c1.5,0,2.3-0.5,2.3-1.6c0-1-0.6-1.4-1.8-1.4c-0.7,0-1.3,0.2-1.8,0.7v-1.4
							c0.7-0.4,1.4-0.6,2.3-0.6c0.9,0,1.6,0.2,2.1,0.7c0.5,0.4,0.8,1,0.8,1.7c0,1.3-0.7,2.1-2,2.5v0c0.7,0.1,1.3,0.3,1.7,0.7
							c0.4,0.4,0.6,1,0.6,1.6c0,0.9-0.3,1.6-1,2.1c-0.7,0.5-1.5,0.8-2.6,0.8C530.8,1056.6,530,1056.4,529.4,1056.1z"/>
					</g>
				</g>
			</g>
		</g>
		<g>
			<path style="fill-rule:evenodd;clip-rule:evenodd;fill:#898989;" d="M498.1,100.9c-0.3,0-0.6,0.1-0.8,0.4
				c-0.2,0.3-0.3,0.6-0.4,0.9h2.3C499.2,101.4,498.8,100.9,498.1,100.9L498.1,100.9z"/>
			<path style="fill-rule:evenodd;clip-rule:evenodd;fill:#898989;" d="M471.2,98.8L471.2,98.8c-0.1,0.3-0.1,0.5-0.2,0.8l-1,3h2.3
				l-1-3C471.3,99.3,471.3,99.1,471.2,98.8L471.2,98.8z"/>
			<path style="fill-rule:evenodd;clip-rule:evenodd;fill:#898989;" d="M515.7,110.5c0-4.1-3.3-7.3-7.3-7.3c-0.3,0-0.6,0-0.9,0.1
				c0.5-1.6,0.7-3.4,0.7-5.2c0-10.8-8.8-19.6-19.6-19.6c-8.6,0-16,5.6-18.6,13.3c-1.4-0.5-2.8-0.7-4.4-0.7c-7.4,0-13.4,6-13.4,13.4
				c0,7.4,6,13.4,13.4,13.4c0,0,0,0,0,0l0,0H509l0,0C512.7,117.5,515.7,114.3,515.7,110.5L515.7,110.5z M473.4,106.1l-0.6-2h-3.2
				l-0.6,2h-2.2l3.2-8.9h2.4l3.2,8.9H473.4L473.4,106.1L473.4,106.1z M481.6,106.1h-5.7v-0.8l3.2-4.1h-2.9v-1.4h5.4v1l-3,3.9h3
				V106.1L481.6,106.1L481.6,106.1z M488.6,106.1h-2v-1h0c-0.5,0.7-1.1,1.1-1.9,1.1c-1.5,0-2.2-0.9-2.2-2.7v-3.8h2v3.7
				c0,0.9,0.4,1.3,1.1,1.3c0.3,0,0.6-0.1,0.8-0.4s0.3-0.6,0.3-1v-3.6h2L488.6,106.1L488.6,106.1L488.6,106.1L488.6,106.1z
				 M494.4,101.5c-0.2-0.1-0.5-0.2-0.8-0.2c-0.4,0-0.8,0.2-1,0.5c-0.2,0.3-0.4,0.7-0.4,1.3v3h-2v-6.3h2v1.2h0
				c0.3-0.9,0.9-1.3,1.7-1.3c0.2,0,0.4,0,0.5,0.1V101.5L494.4,101.5L494.4,101.5z M501,103.5h-4.1c0.1,0.9,0.6,1.4,1.7,1.4
				c0.7,0,1.3-0.2,1.8-0.5v1.4c-0.6,0.3-1.3,0.5-2.3,0.5c-1,0-1.8-0.3-2.4-0.9c-0.6-0.6-0.8-1.4-0.8-2.4c0-1.1,0.3-2,1-2.6
				c0.6-0.5,1.3-0.8,2.1-0.8c1,0,1.7,0.3,2.2,0.9c0.5,0.5,0.7,1.3,0.7,2.2L501,103.5L501,103.5L501,103.5L501,103.5z"/>
			<g>
				<path style="fill:#898989;" d="M440,133.8h-1.3v-7.8c0-0.6,0-1.4,0.1-2.2h0c-0.1,0.5-0.2,0.9-0.3,1.1l-3.9,8.9h-0.7l-3.9-8.8
					c-0.1-0.3-0.2-0.7-0.3-1.2h0c0,0.5,0.1,1.2,0.1,2.3v7.7h-1.3v-11.6h1.8l3.5,8.1c0.3,0.6,0.5,1.1,0.5,1.4h0
					c0.2-0.6,0.4-1.1,0.6-1.4l3.6-8h1.7V133.8z"/>
				<path style="fill:#898989;" d="M444,123.5c-0.2,0-0.4-0.1-0.6-0.2s-0.2-0.4-0.2-0.6s0.1-0.5,0.2-0.6s0.4-0.2,0.6-0.2
					c0.2,0,0.4,0.1,0.6,0.2s0.3,0.4,0.3,0.6c0,0.2-0.1,0.4-0.3,0.6C444.4,123.4,444.2,123.5,444,123.5z M444.6,133.8h-1.3v-8.3h1.3
					V133.8z"/>
				<path style="fill:#898989;" d="M452.8,133.5c-0.6,0.4-1.4,0.6-2.3,0.6c-1.2,0-2.1-0.4-2.8-1.1c-0.7-0.8-1.1-1.8-1.1-3
					c0-1.4,0.4-2.5,1.2-3.3s1.8-1.2,3.1-1.2c0.7,0,1.4,0.1,1.9,0.4v1.4c-0.6-0.4-1.3-0.6-2-0.6c-0.8,0-1.5,0.3-2.1,0.9
					s-0.8,1.4-0.8,2.4c0,1,0.3,1.7,0.8,2.3s1.2,0.8,2,0.8c0.7,0,1.4-0.2,2-0.7V133.5z"/>
				<path style="fill:#898989;" d="M459.1,126.9c-0.2-0.2-0.6-0.3-1-0.3c-0.6,0-1,0.3-1.4,0.8c-0.4,0.5-0.6,1.3-0.6,2.2v4.2h-1.3
					v-8.3h1.3v1.7h0c0.2-0.6,0.5-1,0.9-1.4s0.8-0.5,1.3-0.5c0.3,0,0.6,0,0.8,0.1V126.9z"/>
				<path style="fill:#898989;" d="M464.5,134c-1.2,0-2.2-0.4-2.9-1.2c-0.7-0.8-1.1-1.8-1.1-3.1c0-1.4,0.4-2.5,1.1-3.2
					c0.8-0.8,1.8-1.2,3.1-1.2c1.2,0,2.2,0.4,2.9,1.1c0.7,0.8,1,1.8,1,3.1c0,1.3-0.4,2.4-1.1,3.2C466.8,133.6,465.8,134,464.5,134z
					 M464.6,126.5c-0.8,0-1.5,0.3-2,0.9s-0.7,1.4-0.7,2.4c0,1,0.2,1.7,0.7,2.3c0.5,0.6,1.2,0.8,2,0.8c0.9,0,1.5-0.3,2-0.8
					c0.5-0.6,0.7-1.3,0.7-2.4c0-1-0.2-1.8-0.7-2.4C466.1,126.8,465.5,126.5,464.6,126.5z"/>
				<path style="fill:#898989;" d="M470.7,133.6v-1.4c0.7,0.5,1.5,0.8,2.4,0.8c1.2,0,1.7-0.4,1.7-1.2c0-0.2,0-0.4-0.1-0.6
					c-0.1-0.2-0.2-0.3-0.4-0.4c-0.2-0.1-0.4-0.2-0.6-0.3c-0.2-0.1-0.5-0.2-0.7-0.3c-0.4-0.1-0.7-0.3-1-0.4c-0.3-0.1-0.5-0.3-0.7-0.5
					c-0.2-0.2-0.3-0.4-0.4-0.6c-0.1-0.2-0.1-0.5-0.1-0.8c0-0.4,0.1-0.7,0.3-1c0.2-0.3,0.4-0.5,0.7-0.7s0.6-0.4,1-0.5
					c0.4-0.1,0.8-0.2,1.2-0.2c0.7,0,1.4,0.1,1.9,0.4v1.3c-0.6-0.4-1.3-0.6-2.1-0.6c-0.2,0-0.5,0-0.7,0.1c-0.2,0.1-0.4,0.1-0.5,0.2
					c-0.1,0.1-0.3,0.2-0.3,0.4c-0.1,0.1-0.1,0.3-0.1,0.5c0,0.2,0,0.4,0.1,0.5c0.1,0.1,0.2,0.3,0.3,0.4c0.2,0.1,0.3,0.2,0.5,0.3
					c0.2,0.1,0.5,0.2,0.7,0.3c0.4,0.1,0.7,0.3,1,0.4c0.3,0.1,0.5,0.3,0.7,0.5s0.4,0.4,0.5,0.6c0.1,0.2,0.2,0.5,0.2,0.9
					c0,0.4-0.1,0.8-0.3,1.1c-0.2,0.3-0.4,0.5-0.7,0.7c-0.3,0.2-0.6,0.3-1,0.4c-0.4,0.1-0.8,0.1-1.2,0.1
					C472.1,134,471.4,133.9,470.7,133.6z"/>
				<path style="fill:#898989;" d="M481,134c-1.2,0-2.2-0.4-2.9-1.2c-0.7-0.8-1.1-1.8-1.1-3.1c0-1.4,0.4-2.5,1.1-3.2
					c0.8-0.8,1.8-1.2,3.1-1.2c1.2,0,2.2,0.4,2.9,1.1c0.7,0.8,1,1.8,1,3.1c0,1.3-0.4,2.4-1.1,3.2C483.3,133.6,482.3,134,481,134z
					 M481.1,126.5c-0.8,0-1.5,0.3-2,0.9s-0.7,1.4-0.7,2.4c0,1,0.2,1.7,0.7,2.3c0.5,0.6,1.2,0.8,2,0.8c0.9,0,1.5-0.3,2-0.8
					c0.5-0.6,0.7-1.3,0.7-2.4c0-1-0.2-1.8-0.7-2.4C482.6,126.8,482,126.5,481.1,126.5z"/>
				<path style="fill:#898989;" d="M491.8,122.8c-0.3-0.1-0.6-0.2-0.9-0.2c-0.9,0-1.4,0.6-1.4,1.7v1.3h1.9v1.1h-1.9v7.1h-1.3v-7.1
					h-1.4v-1.1h1.4v-1.3c0-0.9,0.2-1.5,0.7-2.1c0.5-0.5,1.1-0.8,1.9-0.8c0.4,0,0.7,0,1,0.1V122.8z"/>
				<path style="fill:#898989;" d="M496.6,133.8c-0.3,0.2-0.7,0.3-1.2,0.3c-1.4,0-2.2-0.8-2.2-2.4v-4.9h-1.4v-1.1h1.4v-2l1.3-0.4
					v2.4h2.1v1.1h-2.1v4.6c0,0.6,0.1,0.9,0.3,1.2s0.5,0.4,0.9,0.4c0.3,0,0.6-0.1,0.9-0.3V133.8z"/>
				<path style="fill:#898989;" d="M513.3,133.8h-1.5l-1.2-3.2h-4.9l-1.2,3.2h-1.5l4.4-11.6h1.4L513.3,133.8z M510.2,129.4l-1.8-4.9
					c-0.1-0.2-0.1-0.4-0.2-0.8h0c-0.1,0.3-0.1,0.6-0.2,0.8l-1.8,4.9H510.2z"/>
				<path style="fill:#898989;" d="M520.1,126l-4.9,6.7h4.8v1.1h-6.8v-0.4l4.9-6.7h-4.4v-1.1h6.4V126z"/>
				<path style="fill:#898989;" d="M528.7,133.8h-1.3v-1.3h0c-0.5,1-1.4,1.5-2.5,1.5c-2,0-2.9-1.2-2.9-3.5v-4.9h1.3v4.7
					c0,1.7,0.7,2.6,2,2.6c0.6,0,1.2-0.2,1.6-0.7c0.4-0.5,0.6-1.1,0.6-1.9v-4.8h1.3V133.8z"/>
				<path style="fill:#898989;" d="M536.4,126.9c-0.2-0.2-0.6-0.3-1-0.3c-0.6,0-1,0.3-1.4,0.8c-0.4,0.5-0.6,1.3-0.6,2.2v4.2h-1.3
					v-8.3h1.3v1.7h0c0.2-0.6,0.5-1,0.9-1.4s0.8-0.5,1.3-0.5c0.3,0,0.6,0,0.8,0.1V126.9z"/>
				<path style="fill:#898989;" d="M543.9,130.1H538c0,0.9,0.3,1.6,0.7,2.1c0.5,0.5,1.1,0.8,1.9,0.8c0.9,0,1.8-0.3,2.6-0.9v1.2
					c-0.7,0.5-1.7,0.8-2.9,0.8c-1.2,0-2.1-0.4-2.7-1.1s-1-1.8-1-3.2c0-1.3,0.4-2.3,1.1-3.1c0.7-0.8,1.6-1.2,2.7-1.2
					c1.1,0,1.9,0.3,2.5,1s0.9,1.7,0.9,2.9V130.1z M542.5,128.9c0-0.8-0.2-1.4-0.6-1.8c-0.4-0.4-0.9-0.6-1.5-0.6
					c-0.6,0-1.2,0.2-1.6,0.7c-0.4,0.4-0.7,1-0.8,1.7H542.5z"/>
			</g>
		</g>
	</g>
</g>
</svg>
