<?xml version="1.0" encoding="utf-8"?>
<!-- Generator: Adobe Illustrator 19.2.0, SVG Export Plug-In . SVG Version: 6.00 Build 0)  -->
<svg version="1.1" id="Layer_1" xmlns="http://www.w3.org/2000/svg" xmlns:xlink="http://www.w3.org/1999/xlink" x="0px" y="0px"
	 width="375px" height="154px" viewBox="0 0 375 154" style="enable-background:new 0 0 375 154;" xml:space="preserve">
<g>
	<path d="M190.9,105.3c-0.1-0.2-0.3-0.3-0.5-0.4s-0.4-0.1-0.7-0.1s-0.5,0-0.7,0.1s-0.4,0.2-0.5,0.4c-0.1,0.1-0.2,0.3-0.3,0.5
		s-0.1,0.4-0.1,0.6s0,0.4,0.1,0.7s0.2,0.4,0.3,0.6s0.3,0.3,0.5,0.5c0.2,0.1,0.4,0.2,0.7,0.2c0.2,0,0.5,0,0.6-0.1
		c0.2-0.1,0.3-0.2,0.5-0.4c0.1-0.2,0.2-0.3,0.3-0.6s0.1-0.4,0.1-0.7c0-0.3,0-0.5-0.1-0.7C191.1,105.6,191,105.4,190.9,105.3z"/>
	<path d="M189.5,92.9c-6.4,0-11.6,5.2-11.6,11.6s5.2,11.6,11.6,11.6s11.6-5.2,11.6-11.6S196,92.9,189.5,92.9z M192.5,107.7
		c-0.2,0.4-0.4,0.7-0.6,1c-0.3,0.3-0.6,0.5-0.9,0.6s-0.8,0.2-1.2,0.2c-0.5,0-0.9-0.1-1.3-0.3s-0.7-0.4-1-0.8s-0.5-0.8-0.6-1.3
		s-0.2-1.1-0.2-1.8c0-0.8,0.1-1.6,0.3-2.2s0.5-1.2,0.8-1.6s0.8-0.8,1.2-1c0.5-0.2,1-0.3,1.5-0.3c0.3,0,0.7,0,0.9,0.1
		c0.3,0,0.5,0.1,0.7,0.2v1.3c-0.2-0.1-0.4-0.2-0.7-0.3s-0.5-0.1-0.8-0.1c-0.4,0-0.7,0.1-1,0.2s-0.6,0.4-0.8,0.6s-0.4,0.6-0.5,1
		s-0.2,0.9-0.2,1.4l0,0c0.2-0.3,0.5-0.5,0.8-0.7s0.7-0.3,1.2-0.3c0.4,0,0.8,0.1,1.1,0.2s0.6,0.3,0.8,0.6s0.4,0.5,0.5,0.9
		c0.1,0.3,0.2,0.7,0.2,1.2C192.7,106.9,192.7,107.3,192.5,107.7z"/>
</g>
<g>
	
		<line style="fill:none;stroke:#DFDFDE;stroke-width:4;stroke-linecap:round;stroke-linejoin:round;stroke-miterlimit:10;" x1="189.4" y1="70.5" x2="189.4" y2="-10.3"/>
	
		<circle style="fill:none;stroke:#DFDFDE;stroke-width:4;stroke-linecap:round;stroke-linejoin:round;stroke-miterlimit:10;" cx="189.4" cy="76" r="5"/>
</g>
<g>
	<path d="M138.3,134.5h-1.6v-6.1c0-0.5,0-1.1,0.1-1.8h0c-0.1,0.4-0.2,0.7-0.3,0.9l-2.8,7.1h-1.1l-2.8-7c-0.1-0.2-0.2-0.5-0.3-0.9h0
		c0,0.4,0.1,1,0.1,1.9v6.1h-1.5v-9.5h2.2l2.5,6.3c0.2,0.5,0.3,0.8,0.4,1.1h0c0.2-0.5,0.3-0.9,0.4-1.1l2.5-6.3h2.1V134.5z"/>
	<path d="M148.4,134.5h-1.7l-0.9-2.4h-3.7l-0.8,2.4h-1.7l3.5-9.5h1.8L148.4,134.5z M145.4,130.8l-1.3-3.8c0-0.1-0.1-0.3-0.1-0.6h0
		c0,0.3-0.1,0.4-0.1,0.6l-1.3,3.8H145.4z"/>
	<path d="M157.7,134.5H156l-4.5-6.9c-0.1-0.2-0.2-0.4-0.3-0.5h0c0,0.2,0.1,0.6,0.1,1.3v6.2h-1.5v-9.5h1.8l4.4,6.8
		c0.2,0.3,0.3,0.5,0.4,0.6h0c0-0.3-0.1-0.7-0.1-1.3v-6.1h1.5V134.5z"/>
	<path d="M167.8,134.5h-1.7l-0.9-2.4h-3.7l-0.8,2.4H159l3.5-9.5h1.8L167.8,134.5z M164.8,130.8l-1.3-3.8c0-0.1-0.1-0.3-0.1-0.6h0
		c0,0.3-0.1,0.4-0.1,0.6l-1.3,3.8H164.8z"/>
	<path d="M176.3,133.9c-1,0.5-2.1,0.8-3.3,0.8c-1.4,0-2.5-0.4-3.4-1.3c-0.9-0.9-1.3-2-1.3-3.5c0-1.5,0.5-2.7,1.4-3.6
		c0.9-0.9,2.1-1.4,3.6-1.4c1.1,0,1.9,0.2,2.6,0.5v1.6c-0.7-0.5-1.6-0.7-2.6-0.7c-1,0-1.8,0.3-2.5,1c-0.6,0.7-1,1.5-1,2.6
		c0,1.1,0.3,1.9,0.8,2.6s1.3,0.9,2.3,0.9c0.7,0,1.2-0.1,1.7-0.4v-2.2h-2v-1.3h3.6V133.9z"/>
	<path d="M183.7,134.5h-5.3v-9.5h5.1v1.3H180v2.7h3.3v1.3H180v2.8h3.7V134.5z"/>
	<path d="M195.5,134.5H194v-6.1c0-0.5,0-1.1,0.1-1.8h0c-0.1,0.4-0.2,0.7-0.3,0.9l-2.8,7.1h-1.1l-2.8-7c-0.1-0.2-0.2-0.5-0.3-0.9h0
		c0,0.4,0.1,1,0.1,1.9v6.1h-1.5v-9.5h2.2l2.5,6.3c0.2,0.5,0.3,0.8,0.4,1.1h0c0.2-0.5,0.3-0.9,0.4-1.1l2.5-6.3h2.1V134.5z"/>
	<path d="M203.2,134.5h-5.3v-9.5h5.1v1.3h-3.5v2.7h3.3v1.3h-3.3v2.8h3.7V134.5z"/>
	<path d="M212.9,134.5h-1.7l-4.5-6.9c-0.1-0.2-0.2-0.4-0.3-0.5h0c0,0.2,0.1,0.6,0.1,1.3v6.2h-1.5v-9.5h1.8l4.4,6.8
		c0.2,0.3,0.3,0.5,0.4,0.6h0c0-0.3-0.1-0.7-0.1-1.3v-6.1h1.5V134.5z"/>
	<path d="M221.3,126.4h-2.7v8.1H217v-8.1h-2.7v-1.3h7V126.4z"/>
	<path d="M232.4,126.4h-2.7v8.1h-1.6v-8.1h-2.7v-1.3h7V126.4z"/>
	<path d="M235.4,134.5h-1.6v-9.5h1.6V134.5z"/>
	<path d="M243,134.5h-5.3v-9.5h5.1v1.3h-3.5v2.7h3.3v1.3h-3.3v2.8h3.7V134.5z"/>
	<path d="M252,134.5h-1.8l-1.5-2.5c-0.1-0.2-0.3-0.4-0.4-0.6s-0.3-0.3-0.4-0.4s-0.3-0.2-0.4-0.2c-0.2,0-0.3-0.1-0.5-0.1h-0.6v3.8
		h-1.6v-9.5h3.1c0.4,0,0.9,0.1,1.2,0.2c0.4,0.1,0.7,0.3,1,0.5c0.3,0.2,0.5,0.5,0.6,0.8c0.2,0.3,0.2,0.7,0.2,1.1c0,0.3,0,0.6-0.1,0.9
		c-0.1,0.3-0.2,0.5-0.4,0.7s-0.4,0.4-0.7,0.6c-0.3,0.2-0.5,0.3-0.9,0.4v0c0.2,0.1,0.3,0.2,0.4,0.3c0.1,0.1,0.2,0.2,0.4,0.4
		c0.1,0.1,0.2,0.3,0.3,0.4s0.2,0.3,0.4,0.5L252,134.5z M246.3,126.4v3.1h1.3c0.2,0,0.5,0,0.7-0.1c0.2-0.1,0.4-0.2,0.5-0.3
		c0.1-0.1,0.3-0.3,0.3-0.5c0.1-0.2,0.1-0.4,0.1-0.7c0-0.5-0.1-0.8-0.4-1.1c-0.3-0.3-0.7-0.4-1.2-0.4H246.3z"/>
</g>
</svg>
