<?xml version="1.0" encoding="utf-8"?>
<!-- Generator: Adobe Illustrator 19.2.0, SVG Export Plug-In . SVG Version: 6.00 Build 0)  -->
<svg version="1.1" id="Layer_1" xmlns="http://www.w3.org/2000/svg" xmlns:xlink="http://www.w3.org/1999/xlink" x="0px" y="0px"
	 width="369px" height="119px" viewBox="0 0 369 119" style="enable-background:new 0 0 369 119;" xml:space="preserve">
<g>
	
		<line style="fill:none;stroke:#DFDFDE;stroke-width:4;stroke-linecap:round;stroke-linejoin:round;stroke-miterlimit:10;" x1="185.8" y1="45.3" x2="185.8" y2="-2.5"/>
	
		<circle style="fill:none;stroke:#DFDFDE;stroke-width:4;stroke-linecap:round;stroke-linejoin:round;stroke-miterlimit:10;" cx="185.8" cy="50.8" r="5"/>
</g>
<g>
	<path d="M46.2,109.6h-1.6v-6.3c0-0.5,0-1.1,0.1-1.9l0,0c-0.1,0.4-0.2,0.7-0.3,0.9l-2.9,7.3h-1.1l-2.9-7.2c-0.1-0.2-0.2-0.5-0.3-1
		l0,0c0,0.4,0.1,1,0.1,1.9v6.3h-1.5v-9.8H38l2.6,6.5c0.2,0.5,0.3,0.9,0.4,1.1l0,0c0.2-0.5,0.3-0.9,0.4-1.1l2.6-6.5h2.2V109.6z"/>
	<path d="M56.6,109.6h-1.8l-0.9-2.5h-3.8l-0.8,2.5h-1.8l3.7-9.8H53L56.6,109.6z M53.5,105.8l-1.4-3.9c0-0.1-0.1-0.3-0.1-0.6l0,0
		c0,0.3-0.1,0.5-0.1,0.6l-1.3,3.9H53.5z"/>
	<path d="M64.5,109.2c-0.7,0.4-1.6,0.6-2.7,0.6c-1.4,0-2.5-0.4-3.4-1.3s-1.3-2.1-1.3-3.5c0-1.6,0.5-2.8,1.4-3.8s2.2-1.4,3.6-1.4
		c0.9,0,1.7,0.1,2.3,0.4v1.6c-0.7-0.4-1.4-0.6-2.2-0.6c-1.1,0-1.9,0.3-2.6,1s-1,1.6-1,2.7s0.3,1.9,0.9,2.6c0.6,0.6,1.4,1,2.4,1
		c0.9,0,1.7-0.2,2.4-0.7v1.4C64.3,109.2,64.5,109.2,64.5,109.2z"/>
	<path d="M74.2,109.6h-1.6v-4.2H68v4.2h-1.6v-9.8H68v4.1h4.6v-4.1h1.6V109.6z"/>
	<path d="M78.3,109.6h-1.7v-9.8h1.7V109.6z"/>
	<path d="M88.9,109.6h-1.8l-4.7-7.2c-0.1-0.2-0.2-0.4-0.3-0.6l0,0c0,0.2,0.1,0.7,0.1,1.3v6.4h-1.6v-9.8h1.9l4.5,7
		c0.2,0.3,0.3,0.5,0.4,0.6l0,0c0-0.3-0.1-0.7-0.1-1.3v-6.3h1.6V109.6z"/>
	<path d="M96.8,109.6h-5.5v-9.8h5.3v1.4H93v2.8h3.4v1.4H93v2.9h3.9L96.8,109.6L96.8,109.6z"/>
	<path d="M107.8,109.6h-5.4v-9.8h1.6v8.4h3.8V109.6z"/>
	<path d="M114.7,109.6h-5.5v-9.8h5.3v1.4h-3.6v2.8h3.4v1.4h-3.4v2.9h3.9v1.3C114.8,109.6,114.7,109.6,114.7,109.6z"/>
	<path d="M124.5,109.6h-1.8l-0.9-2.5H118l-0.8,2.5h-1.8l3.7-9.8h1.8L124.5,109.6z M121.5,105.8l-1.4-3.9c0-0.1-0.1-0.3-0.1-0.6l0,0
		c0,0.3-0.1,0.5-0.1,0.6l-1.3,3.9H121.5z"/>
	<path d="M133.4,109.6h-1.9l-1.6-2.6c-0.1-0.2-0.3-0.4-0.4-0.6c-0.1-0.2-0.3-0.3-0.4-0.4c-0.1-0.1-0.3-0.2-0.5-0.2s-0.3-0.1-0.6-0.1
		h-0.7v4h-1.6v-9.8h3.2c0.5,0,0.9,0.1,1.3,0.2c0.4,0.1,0.7,0.3,1,0.5s0.5,0.5,0.7,0.8s0.2,0.7,0.2,1.2c0,0.3-0.1,0.7-0.2,0.9
		c-0.1,0.3-0.2,0.5-0.4,0.8c-0.2,0.2-0.4,0.4-0.7,0.6s-0.6,0.3-0.9,0.4l0,0c0.2,0.1,0.3,0.2,0.5,0.3c0.1,0.1,0.3,0.2,0.4,0.4
		c0.1,0.1,0.2,0.3,0.3,0.4c0.1,0.2,0.2,0.3,0.4,0.6L133.4,109.6z M127.5,101.1v3.2h1.3c0.2,0,0.5,0,0.7-0.1s0.4-0.2,0.5-0.3
		c0.2-0.1,0.3-0.3,0.4-0.5c0.1-0.2,0.1-0.4,0.1-0.7c0-0.5-0.1-0.8-0.4-1.1s-0.7-0.4-1.3-0.4L127.5,101.1L127.5,101.1z"/>
	<path d="M142.8,109.6H141l-4.7-7.2c-0.1-0.2-0.2-0.4-0.3-0.6l0,0c0,0.2,0.1,0.7,0.1,1.3v6.4h-1.6v-9.8h1.9l4.5,7
		c0.2,0.3,0.3,0.5,0.4,0.6l0,0c0-0.3-0.1-0.7-0.1-1.3v-6.3h1.6L142.8,109.6L142.8,109.6z"/>
	<path d="M146.9,109.6h-1.7v-9.8h1.7V109.6z"/>
	<path d="M157.6,109.6h-1.8l-4.7-7.2c-0.1-0.2-0.2-0.4-0.3-0.6l0,0c0,0.2,0.1,0.7,0.1,1.3v6.4h-1.6v-9.8h1.9l4.5,7
		c0.2,0.3,0.3,0.5,0.4,0.6l0,0c0-0.3-0.1-0.7-0.1-1.3v-6.3h1.6L157.6,109.6L157.6,109.6z"/>
	<path d="M167.6,108.9c-1,0.6-2.1,0.8-3.4,0.8c-1.4,0-2.6-0.4-3.5-1.3s-1.3-2.1-1.3-3.6s0.5-2.7,1.5-3.7s2.2-1.5,3.7-1.5
		c1.1,0,2,0.2,2.7,0.5v1.7c-0.7-0.5-1.6-0.7-2.7-0.7c-1,0-1.9,0.3-2.6,1s-1,1.6-1,2.7s0.3,2,0.9,2.6s1.3,1,2.3,1
		c0.7,0,1.3-0.1,1.7-0.4v-2.3h-2.1v-1.4h3.7v4.6C167.5,108.9,167.6,108.9,167.6,108.9z"/>
	<path d="M181.5,109.6h-1.8l-0.9-2.5H175l-0.8,2.5h-1.8l3.7-9.8h1.8L181.5,109.6z M178.4,105.8l-1.4-3.9c0-0.1-0.1-0.3-0.1-0.6l0,0
		c0,0.3-0.1,0.5-0.1,0.6l-1.3,3.9H178.4z"/>
	<path d="M191.1,109.6h-1.8l-4.7-7.2c-0.1-0.2-0.2-0.4-0.3-0.6l0,0c0,0.2,0.1,0.7,0.1,1.3v6.4h-1.6v-9.8h1.9l4.5,7
		c0.2,0.3,0.3,0.5,0.4,0.6l0,0c0-0.3-0.1-0.7-0.1-1.3v-6.3h1.6L191.1,109.6L191.1,109.6z"/>
	<path d="M193.6,109.6v-9.8h2.8c3.6,0,5.4,1.6,5.4,4.8c0,1.5-0.5,2.7-1.5,3.6s-2.3,1.4-4,1.4H193.6z M195.2,101.2v7h1.3
		c1.1,0,2-0.3,2.7-0.9c0.6-0.6,0.9-1.5,0.9-2.7c0-2.3-1.2-3.4-3.5-3.4H195.2z"/>
	<path d="M215,99.8l-3.5,9.8h-1.8l-3.4-9.8h1.8l2.4,7.4c0.1,0.2,0.1,0.5,0.2,0.8l0,0c0-0.3,0.1-0.5,0.2-0.8l2.5-7.4H215z"/>
	<path d="M218,109.6h-1.7v-9.8h1.7V109.6z"/>
	<path d="M219.9,109.2v-1.7c0.1,0.1,0.3,0.3,0.5,0.4s0.4,0.2,0.7,0.3c0.2,0.1,0.5,0.1,0.7,0.2c0.2,0,0.4,0.1,0.6,0.1
		c0.7,0,1.2-0.1,1.5-0.3s0.5-0.6,0.5-1c0-0.2-0.1-0.4-0.2-0.6s-0.3-0.3-0.5-0.5s-0.4-0.3-0.7-0.4s-0.6-0.3-0.9-0.4
		c-0.3-0.2-0.6-0.4-0.9-0.5c-0.3-0.2-0.5-0.4-0.7-0.6s-0.4-0.5-0.5-0.7s-0.2-0.6-0.2-1c0-0.5,0.1-0.9,0.3-1.2s0.5-0.6,0.8-0.8
		c0.3-0.2,0.7-0.4,1.2-0.5s0.9-0.2,1.3-0.2c1,0,1.8,0.1,2.2,0.3v1.6c-0.6-0.4-1.3-0.6-2.1-0.6c-0.2,0-0.5,0-0.7,0.1
		c-0.2,0-0.5,0.1-0.6,0.2s-0.3,0.2-0.5,0.4s-0.2,0.4-0.2,0.6s0,0.4,0.1,0.6s0.2,0.3,0.4,0.4s0.4,0.3,0.6,0.4
		c0.3,0.1,0.5,0.3,0.9,0.4c0.3,0.2,0.7,0.4,1,0.6s0.6,0.4,0.8,0.6s0.4,0.5,0.5,0.8s0.2,0.6,0.2,1c0,0.5-0.1,0.9-0.3,1.3
		c-0.2,0.3-0.5,0.6-0.8,0.8c-0.3,0.2-0.7,0.4-1.2,0.5c-0.4,0.1-0.9,0.1-1.4,0.1c-0.2,0-0.4,0-0.6,0c-0.2,0-0.5-0.1-0.7-0.1
		s-0.5-0.1-0.7-0.2C220.2,109.3,220.1,109.3,219.9,109.2z"/>
	<path d="M235.5,105.6c0,2.7-1.3,4.1-3.9,4.1c-2.5,0-3.7-1.3-3.7-4v-6h1.6v5.6c0,1.9,0.7,2.9,2.2,2.9c1.4,0,2.1-0.9,2.1-2.8v-5.7
		h1.6L235.5,105.6L235.5,105.6z"/>
	<path d="M245.5,109.6h-1.8l-0.9-2.5H239l-0.8,2.5h-1.8l3.7-9.8h1.8L245.5,109.6z M242.4,105.8l-1.4-3.9c0-0.1-0.1-0.3-0.1-0.6l0,0
		c0,0.3-0.1,0.5-0.1,0.6l-1.3,3.9H242.4z"/>
	<path d="M252.2,109.6h-5.4v-9.8h1.6v8.4h3.8L252.2,109.6L252.2,109.6z"/>
	<path d="M255.3,109.6h-1.7v-9.8h1.7V109.6z"/>
	<path d="M264.3,100.5l-5.3,7.7h5.3v1.4h-7.5v-0.7l5.4-7.6h-5v-1.4h7.2v0.6H264.3z"/>
	<path d="M273.9,109.6h-1.8l-0.9-2.5h-3.8l-0.8,2.5h-1.8l3.7-9.8h1.8L273.9,109.6z M270.8,105.8l-1.4-3.9c0-0.1-0.1-0.3-0.1-0.6l0,0
		c0,0.3-0.1,0.5-0.1,0.6l-1.3,3.9H270.8z"/>
	<path d="M280.5,101.2h-2.8v8.4H276v-8.4h-2.8v-1.4h7.2L280.5,101.2L280.5,101.2z"/>
	<path d="M283.6,109.6h-1.7v-9.8h1.7V109.6z"/>
	<path d="M290,109.7c-1.4,0-2.5-0.5-3.4-1.4c-0.8-0.9-1.3-2.1-1.3-3.6c0-1.6,0.4-2.8,1.3-3.8c0.9-0.9,2-1.4,3.5-1.4
		c1.4,0,2.5,0.5,3.3,1.4s1.3,2.1,1.3,3.6c0,1.6-0.4,2.8-1.3,3.8C292.5,109.3,291.4,109.7,290,109.7z M290,101.1
		c-0.9,0-1.6,0.3-2.2,1s-0.8,1.5-0.8,2.6s0.3,2,0.8,2.6c0.5,0.7,1.3,1,2.1,1c0.9,0,1.7-0.3,2.2-0.9s0.8-1.5,0.8-2.6
		c0-1.2-0.3-2.1-0.8-2.7S291,101.1,290,101.1z"/>
	<path d="M304.7,109.6H303l-4.7-7.2c-0.1-0.2-0.2-0.4-0.3-0.6l0,0c0,0.2,0.1,0.7,0.1,1.3v6.4h-1.6v-9.8h1.9l4.5,7
		c0.2,0.3,0.3,0.5,0.4,0.6l0,0c0-0.3-0.1-0.7-0.1-1.3v-6.3h1.6L304.7,109.6L304.7,109.6z"/>
	<path d="M317.2,101.2h-2.8v8.4h-1.6v-8.4H310v-1.4h7.2V101.2z"/>
	<path d="M320.3,109.6h-1.7v-9.8h1.7V109.6z"/>
	<path d="M328.2,109.6h-5.5v-9.8h5.3v1.4h-3.6v2.8h3.4v1.4h-3.4v2.9h3.9L328.2,109.6L328.2,109.6z"/>
	<path d="M337.5,109.6h-1.9L334,107c-0.1-0.2-0.3-0.4-0.4-0.6s-0.3-0.3-0.4-0.4s-0.3-0.2-0.5-0.2s-0.3-0.1-0.6-0.1h-0.7v4h-1.6v-9.8
		h3.2c0.5,0,0.9,0.1,1.3,0.2s0.7,0.3,1,0.5s0.5,0.5,0.7,0.8s0.2,0.7,0.2,1.2c0,0.3-0.1,0.7-0.2,0.9c-0.1,0.3-0.2,0.5-0.4,0.8
		c-0.2,0.2-0.4,0.4-0.7,0.6c-0.3,0.2-0.6,0.3-0.9,0.4l0,0c0.2,0.1,0.3,0.2,0.5,0.3c0.1,0.1,0.3,0.2,0.4,0.4c0.1,0.1,0.2,0.3,0.3,0.4
		c0.1,0.2,0.2,0.3,0.4,0.6L337.5,109.6z M331.6,101.1v3.2h1.3c0.2,0,0.5,0,0.7-0.1s0.4-0.2,0.5-0.3c0.2-0.1,0.3-0.3,0.4-0.5
		s0.1-0.4,0.1-0.7c0-0.5-0.1-0.8-0.4-1.1s-0.7-0.4-1.3-0.4L331.6,101.1L331.6,101.1z"/>
</g>
<g>
	<path d="M187.8,80c-0.1-0.2-0.3-0.3-0.5-0.4c-0.2-0.1-0.4-0.1-0.7-0.1c-0.2,0-0.4,0-0.6,0.1c-0.2,0.1-0.4,0.2-0.5,0.3
		s-0.3,0.3-0.3,0.5c-0.1,0.2-0.1,0.4-0.1,0.7c0,0.3,0,0.5,0.1,0.7s0.2,0.4,0.3,0.5c0.1,0.1,0.3,0.3,0.5,0.3c0.2,0.1,0.4,0.1,0.7,0.1
		c0.2,0,0.4,0,0.6-0.1s0.4-0.2,0.5-0.3c0.1-0.1,0.3-0.3,0.3-0.5s0.1-0.4,0.1-0.7c0-0.2,0-0.5-0.1-0.7S187.9,80.2,187.8,80z"/>
	<path d="M185.7,78.1c0.1,0.1,0.2,0.2,0.4,0.3c0.2,0.1,0.3,0.1,0.5,0.1s0.3,0,0.5-0.1c0.2-0.1,0.3-0.2,0.4-0.3
		c0.1-0.1,0.2-0.3,0.3-0.4c0.1-0.2,0.1-0.3,0.1-0.5c0-0.2,0-0.4-0.1-0.5s-0.2-0.3-0.3-0.4c-0.1-0.1-0.3-0.2-0.4-0.3
		c-0.2-0.1-0.3-0.1-0.5-0.1c-0.2,0-0.4,0-0.5,0.1c-0.2,0.1-0.3,0.2-0.4,0.3c-0.1,0.1-0.2,0.3-0.3,0.4s-0.1,0.3-0.1,0.5
		c0,0.2,0,0.4,0.1,0.5S185.6,78,185.7,78.1z"/>
	<path d="M186.6,67.5c-6.4,0-11.6,5.2-11.6,11.6c0,6.4,5.2,11.6,11.6,11.6c6.4,0,11.6-5.2,11.6-11.6C198.2,72.7,193,67.5,186.6,67.5
		z M189.4,82.5c-0.1,0.3-0.4,0.6-0.6,0.8c-0.3,0.2-0.6,0.4-1,0.5c-0.4,0.1-0.8,0.2-1.2,0.2c-0.4,0-0.9-0.1-1.2-0.2s-0.7-0.3-1-0.5
		c-0.3-0.2-0.5-0.5-0.6-0.8s-0.2-0.7-0.2-1.1c0-0.3,0-0.5,0.1-0.8s0.2-0.5,0.3-0.7c0.1-0.2,0.3-0.4,0.5-0.6c0.2-0.2,0.4-0.3,0.7-0.4
		c-0.4-0.2-0.7-0.5-0.9-0.8c-0.2-0.3-0.3-0.7-0.3-1.1c0-0.3,0.1-0.6,0.2-0.9s0.3-0.5,0.6-0.7s0.5-0.4,0.9-0.5s0.7-0.2,1.1-0.2
		c0.4,0,0.8,0.1,1.1,0.2s0.6,0.3,0.9,0.5c0.2,0.2,0.4,0.5,0.6,0.7c0.1,0.3,0.2,0.6,0.2,0.9c0,0.4-0.1,0.8-0.3,1.1s-0.5,0.6-0.9,0.8
		c0.3,0.1,0.5,0.2,0.7,0.4s0.4,0.3,0.5,0.6c0.1,0.2,0.2,0.4,0.3,0.7c0.1,0.2,0.1,0.5,0.1,0.8C189.6,81.8,189.6,82.1,189.4,82.5z"/>
	<path style="fill:#FFFFFF;" d="M189.2,79.9c-0.1-0.2-0.3-0.4-0.5-0.6s-0.4-0.3-0.7-0.4c0.4-0.2,0.7-0.5,0.9-0.8s0.3-0.7,0.3-1.1
		c0-0.3-0.1-0.6-0.2-0.9c-0.1-0.3-0.3-0.5-0.6-0.7c-0.2-0.2-0.5-0.4-0.9-0.5s-0.7-0.2-1.1-0.2c-0.4,0-0.7,0.1-1.1,0.2
		s-0.6,0.3-0.9,0.5s-0.4,0.5-0.6,0.7s-0.2,0.6-0.2,0.9c0,0.4,0.1,0.8,0.3,1.1c0.2,0.3,0.5,0.6,0.9,0.8c-0.3,0.1-0.5,0.2-0.7,0.4
		c-0.2,0.2-0.4,0.4-0.5,0.6c-0.1,0.2-0.2,0.4-0.3,0.7s-0.1,0.5-0.1,0.8c0,0.4,0.1,0.8,0.2,1.1s0.4,0.6,0.6,0.8
		c0.3,0.2,0.6,0.4,1,0.5s0.8,0.2,1.2,0.2c0.4,0,0.9-0.1,1.2-0.2c0.4-0.1,0.7-0.3,1-0.5c0.3-0.2,0.5-0.5,0.6-0.8s0.2-0.7,0.2-1.1
		c0-0.3,0-0.5-0.1-0.8C189.5,80.3,189.4,80.1,189.2,79.9z M185.4,76.6c0.1-0.2,0.1-0.3,0.3-0.4c0.1-0.1,0.2-0.2,0.4-0.3
		c0.2-0.1,0.3-0.1,0.5-0.1c0.2,0,0.4,0,0.5,0.1c0.2,0.1,0.3,0.2,0.4,0.3c0.1,0.1,0.2,0.3,0.3,0.4s0.1,0.3,0.1,0.5
		c0,0.2,0,0.4-0.1,0.5c-0.1,0.2-0.2,0.3-0.3,0.4c-0.1,0.1-0.3,0.2-0.4,0.3c-0.2,0.1-0.3,0.1-0.5,0.1s-0.3,0-0.5-0.1
		c-0.2-0.1-0.3-0.2-0.4-0.3c-0.1-0.1-0.2-0.3-0.3-0.4s-0.1-0.3-0.1-0.5C185.3,76.9,185.4,76.8,185.4,76.6z M188.1,81.9
		c-0.1,0.2-0.2,0.4-0.3,0.5c-0.1,0.1-0.3,0.3-0.5,0.3s-0.4,0.1-0.6,0.1c-0.2,0-0.5,0-0.7-0.1c-0.2-0.1-0.4-0.2-0.5-0.3
		c-0.1-0.1-0.2-0.3-0.3-0.5s-0.1-0.4-0.1-0.7c0-0.2,0-0.5,0.1-0.7c0.1-0.2,0.2-0.4,0.3-0.5s0.3-0.3,0.5-0.3c0.2-0.1,0.4-0.1,0.6-0.1
		c0.2,0,0.5,0,0.7,0.1c0.2,0.1,0.4,0.2,0.5,0.4s0.2,0.3,0.3,0.5s0.1,0.4,0.1,0.7C188.2,81.5,188.2,81.7,188.1,81.9z"/>
</g>
</svg>
