<svg id="Layer_1" xmlns="http://www.w3.org/2000/svg" width="369" height="119" viewBox="0 0 369 119"><g fill="none" stroke="#dfdfde" stroke-width="4" stroke-linecap="round" stroke-linejoin="round" stroke-miterlimit="10"><path d="M185.8 45.3V-2.5"/><circle cx="185.8" cy="50.8" r="5"/></g><path d="M46.2 109.6h-1.6v-6.3c0-.5 0-1.1.1-1.9-.1.4-.2.7-.3.9l-2.9 7.3h-1.1l-2.9-7.2c-.1-.2-.2-.5-.3-1 0 .4.1 1 .1 1.9v6.3h-1.5v-9.8H38l2.6 6.5c.2.5.3.9.4 1.1.2-.5.3-.9.4-1.1l2.6-6.5h2.2v9.8zM56.6 109.6h-1.8l-.9-2.5h-3.8l-.8 2.5h-1.8l3.7-9.8H53l3.6 9.8zm-3.1-3.8l-1.4-3.9c0-.1-.1-.3-.1-.6 0 .3-.1.5-.1.6l-1.3 3.9h2.9zM64.5 109.2c-.7.4-1.6.6-2.7.6-1.4 0-2.5-.4-3.4-1.3s-1.3-2.1-1.3-3.5c0-1.6.5-2.8 1.4-3.8s2.2-1.4 3.6-1.4c.9 0 1.7.1 2.3.4v1.6c-.7-.4-1.4-.6-2.2-.6-1.1 0-1.9.3-2.6 1s-1 1.6-1 2.7.3 1.9.9 2.6c.6.6 1.4 1 2.4 1 .9 0 1.7-.2 2.4-.7v1.4h.2zM74.2 109.6h-1.6v-4.2H68v4.2h-1.6v-9.8H68v4.1h4.6v-4.1h1.6v9.8zM78.3 109.6h-1.7v-9.8h1.7v9.8zM88.9 109.6h-1.8l-4.7-7.2-.3-.6c0 .2.1.7.1 1.3v6.4h-1.6v-9.8h1.9l4.5 7c.2.3.3.5.4.6 0-.3-.1-.7-.1-1.3v-6.3h1.6v9.9zM96.8 109.6h-5.5v-9.8h5.3v1.4H93v2.8h3.4v1.4H93v2.9h3.9l-.1 1.3zM107.8 109.6h-5.4v-9.8h1.6v8.4h3.8v1.4zM114.7 109.6h-5.5v-9.8h5.3v1.4h-3.6v2.8h3.4v1.4h-3.4v2.9h3.9v1.3h-.1zM124.5 109.6h-1.8l-.9-2.5H118l-.8 2.5h-1.8l3.7-9.8h1.8l3.6 9.8zm-3-3.8l-1.4-3.9c0-.1-.1-.3-.1-.6 0 .3-.1.5-.1.6l-1.3 3.9h2.9zM133.4 109.6h-1.9l-1.6-2.6c-.1-.2-.3-.4-.4-.6-.1-.2-.3-.3-.4-.4-.1-.1-.3-.2-.5-.2s-.3-.1-.6-.1h-.7v4h-1.6v-9.8h3.2c.5 0 .9.1 1.3.2s.7.3 1 .5.5.5.7.8.2.7.2 1.2c0 .3-.1.7-.2.9-.1.3-.2.5-.4.8-.2.2-.4.4-.7.6s-.6.3-.9.4c.2.1.3.2.5.3.1.1.3.2.4.4.1.1.2.3.3.4.1.2.2.3.4.6l1.9 2.6zm-5.9-8.5v3.2h1.3c.2 0 .5 0 .7-.1s.4-.2.5-.3c.2-.1.3-.3.4-.5.1-.2.1-.4.1-.7 0-.5-.1-.8-.4-1.1s-.7-.4-1.3-.4l-1.3-.1zM142.8 109.6H141l-4.7-7.2-.3-.6c0 .2.1.7.1 1.3v6.4h-1.6v-9.8h1.9l4.5 7c.2.3.3.5.4.6 0-.3-.1-.7-.1-1.3v-6.3h1.6v9.9zM146.9 109.6h-1.7v-9.8h1.7v9.8zM157.6 109.6h-1.8l-4.7-7.2-.3-.6c0 .2.1.7.1 1.3v6.4h-1.6v-9.8h1.9l4.5 7c.2.3.3.5.4.6 0-.3-.1-.7-.1-1.3v-6.3h1.6v9.9zM167.6 108.9c-1 .6-2.1.8-3.4.8-1.4 0-2.6-.4-3.5-1.3s-1.3-2.1-1.3-3.6.5-2.7 1.5-3.7 2.2-1.5 3.7-1.5c1.1 0 2 .2 2.7.5v1.7c-.7-.5-1.6-.7-2.7-.7-1 0-1.9.3-2.6 1s-1 1.6-1 2.7.3 2 .9 2.6 1.3 1 2.3 1c.7 0 1.3-.1 1.7-.4v-2.3h-2.1v-1.4h3.7v4.6h.1zM181.5 109.6h-1.8l-.9-2.5H175l-.8 2.5h-1.8l3.7-9.8h1.8l3.6 9.8zm-3.1-3.8l-1.4-3.9c0-.1-.1-.3-.1-.6 0 .3-.1.5-.1.6l-1.3 3.9h2.9zM191.1 109.6h-1.8l-4.7-7.2-.3-.6c0 .2.1.7.1 1.3v6.4h-1.6v-9.8h1.9l4.5 7c.2.3.3.5.4.6 0-.3-.1-.7-.1-1.3v-6.3h1.6v9.9zM193.6 109.6v-9.8h2.8c3.6 0 5.4 1.6 5.4 4.8 0 1.5-.5 2.7-1.5 3.6s-2.3 1.4-4 1.4h-2.7zm1.6-8.4v7h1.3c1.1 0 2-.3 2.7-.9.6-.6.9-1.5.9-2.7 0-2.3-1.2-3.4-3.5-3.4h-1.4zM215 99.8l-3.5 9.8h-1.8l-3.4-9.8h1.8l2.4 7.4c.1.2.1.5.2.8 0-.3.1-.5.2-.8l2.5-7.4h1.6zM218 109.6h-1.7v-9.8h1.7v9.8zM219.9 109.2v-1.7c.1.1.3.3.5.4s.4.2.7.3c.2.1.5.1.7.2.2 0 .4.1.6.1.7 0 1.2-.1 1.5-.3s.5-.6.5-1c0-.2-.1-.4-.2-.6s-.3-.3-.5-.5-.4-.3-.7-.4-.6-.3-.9-.4c-.3-.2-.6-.4-.9-.5-.3-.2-.5-.4-.7-.6s-.4-.5-.5-.7-.2-.6-.2-1c0-.5.1-.9.3-1.2s.5-.6.8-.8c.3-.2.7-.4 1.2-.5s.9-.2 1.3-.2c1 0 1.8.1 2.2.3v1.6c-.6-.4-1.3-.6-2.1-.6-.2 0-.5 0-.7.1-.2 0-.5.1-.6.2s-.3.2-.5.4-.2.4-.2.6 0 .4.1.6.2.3.4.4.4.3.6.4c.3.1.5.3.9.4.3.2.7.4 1 .6s.6.4.8.6.4.5.5.8.2.6.2 1c0 .5-.1.9-.3 1.3-.2.3-.5.6-.8.8-.3.2-.7.4-1.2.5-.4.1-.9.1-1.4.1h-.6c-.2 0-.5-.1-.7-.1s-.5-.1-.7-.2c-.1-.3-.2-.3-.4-.4zM235.5 105.6c0 2.7-1.3 4.1-3.9 4.1-2.5 0-3.7-1.3-3.7-4v-6h1.6v5.6c0 1.9.7 2.9 2.2 2.9 1.4 0 2.1-.9 2.1-2.8v-5.7h1.6l.1 5.9zM245.5 109.6h-1.8l-.9-2.5H239l-.8 2.5h-1.8l3.7-9.8h1.8l3.6 9.8zm-3.1-3.8l-1.4-3.9c0-.1-.1-.3-.1-.6 0 .3-.1.5-.1.6l-1.3 3.9h2.9zM252.2 109.6h-5.4v-9.8h1.6v8.4h3.8v1.4zM255.3 109.6h-1.7v-9.8h1.7v9.8zM264.3 100.5l-5.3 7.7h5.3v1.4h-7.5v-.7l5.4-7.6h-5v-1.4h7.2v.6h-.1zM273.9 109.6h-1.8l-.9-2.5h-3.8l-.8 2.5h-1.8l3.7-9.8h1.8l3.6 9.8zm-3.1-3.8l-1.4-3.9c0-.1-.1-.3-.1-.6 0 .3-.1.5-.1.6l-1.3 3.9h2.9zM280.5 101.2h-2.8v8.4H276v-8.4h-2.8v-1.4h7.2l.1 1.4zM283.6 109.6h-1.7v-9.8h1.7v9.8zM290 109.7c-1.4 0-2.5-.5-3.4-1.4-.8-.9-1.3-2.1-1.3-3.6 0-1.6.4-2.8 1.3-3.8.9-.9 2-1.4 3.5-1.4 1.4 0 2.5.5 3.3 1.4s1.3 2.1 1.3 3.6c0 1.6-.4 2.8-1.3 3.8s-2 1.4-3.4 1.4zm0-8.6c-.9 0-1.6.3-2.2 1s-.8 1.5-.8 2.6.3 2 .8 2.6c.5.7 1.3 1 2.1 1 .9 0 1.7-.3 2.2-.9s.8-1.5.8-2.6c0-1.2-.3-2.1-.8-2.7s-1.1-1-2.1-1zM304.7 109.6H303l-4.7-7.2-.3-.6c0 .2.1.7.1 1.3v6.4h-1.6v-9.8h1.9l4.5 7c.2.3.3.5.4.6 0-.3-.1-.7-.1-1.3v-6.3h1.6l-.1 9.9zM317.2 101.2h-2.8v8.4h-1.6v-8.4H310v-1.4h7.2v1.4zM320.3 109.6h-1.7v-9.8h1.7v9.8zM328.2 109.6h-5.5v-9.8h5.3v1.4h-3.6v2.8h3.4v1.4h-3.4v2.9h3.9l-.1 1.3zM337.5 109.6h-1.9L334 107c-.1-.2-.3-.4-.4-.6s-.3-.3-.4-.4-.3-.2-.5-.2-.3-.1-.6-.1h-.7v4h-1.6v-9.8h3.2c.5 0 .9.1 1.3.2s.7.3 1 .5.5.5.7.8.2.7.2 1.2c0 .3-.1.7-.2.9-.1.3-.2.5-.4.8-.2.2-.4.4-.7.6-.3.2-.6.3-.9.4.2.1.3.2.5.3.1.1.3.2.4.4.1.1.2.3.3.4.1.2.2.3.4.6l1.9 2.6zm-5.9-8.5v3.2h1.3c.2 0 .5 0 .7-.1s.4-.2.5-.3c.2-.1.3-.3.4-.5s.1-.4.1-.7c0-.5-.1-.8-.4-1.1s-.7-.4-1.3-.4l-1.3-.1z"/><g><path d="M187.8 80c-.1-.2-.3-.3-.5-.4-.2-.1-.4-.1-.7-.1-.2 0-.4 0-.6.1-.2.1-.4.2-.5.3s-.3.3-.3.5c-.1.2-.1.4-.1.7 0 .3 0 .5.1.7s.2.4.3.5c.1.1.3.3.5.3.2.1.4.1.7.1.2 0 .4 0 .6-.1s.4-.2.5-.3c.1-.1.3-.3.3-.5s.1-.4.1-.7c0-.2 0-.5-.1-.7s-.2-.2-.3-.4zM185.7 78.1c.1.1.2.2.4.3.2.1.3.1.5.1s.3 0 .5-.1.3-.2.4-.3c.1-.1.2-.3.3-.4.1-.2.1-.3.1-.5s0-.4-.1-.5-.2-.3-.3-.4c-.1-.1-.3-.2-.4-.3-.2-.1-.3-.1-.5-.1s-.4 0-.5.1c-.2.1-.3.2-.4.3-.1.1-.2.3-.3.4s-.1.3-.1.5 0 .4.1.5.2.3.3.4z"/><path d="M186.6 67.5c-6.4 0-11.6 5.2-11.6 11.6 0 6.4 5.2 11.6 11.6 11.6 6.4 0 11.6-5.2 11.6-11.6 0-6.4-5.2-11.6-11.6-11.6zm2.8 15c-.1.3-.4.6-.6.8-.3.2-.6.4-1 .5-.4.1-.8.2-1.2.2-.4 0-.9-.1-1.2-.2s-.7-.3-1-.5c-.3-.2-.5-.5-.6-.8s-.2-.7-.2-1.1c0-.3 0-.5.1-.8s.2-.5.3-.7c.1-.2.3-.4.5-.6.2-.2.4-.3.7-.4-.4-.2-.7-.5-.9-.8-.2-.3-.3-.7-.3-1.1 0-.3.1-.6.2-.9s.3-.5.6-.7.5-.4.9-.5.7-.2 1.1-.2c.4 0 .8.1 1.1.2s.6.3.9.5c.2.2.4.5.6.7.1.3.2.6.2.9 0 .4-.1.8-.3 1.1s-.5.6-.9.8c.3.1.5.2.7.4s.4.3.5.6c.1.2.2.4.3.7.1.2.1.5.1.8-.4.4-.4.7-.6 1.1z"/><path d="M189.2 79.9c-.1-.2-.3-.4-.5-.6s-.4-.3-.7-.4c.4-.2.7-.5.9-.8s.3-.7.3-1.1c0-.3-.1-.6-.2-.9-.1-.3-.3-.5-.6-.7-.2-.2-.5-.4-.9-.5s-.7-.2-1.1-.2c-.4 0-.7.1-1.1.2s-.6.3-.9.5-.4.5-.6.7-.2.6-.2.9c0 .4.1.8.3 1.1.2.3.5.6.9.8-.3.1-.5.2-.7.4-.2.2-.4.4-.5.6-.1.2-.2.4-.3.7s-.1.5-.1.8c0 .4.1.8.2 1.1s.4.6.6.8c.3.2.6.4 1 .5s.8.2 1.2.2c.4 0 .9-.1 1.2-.2.4-.1.7-.3 1-.5.3-.2.5-.5.6-.8s.2-.7.2-1.1c0-.3 0-.5-.1-.8.4-.3.3-.5.1-.7zm-3.8-3.3c.1-.2.1-.3.3-.4.1-.1.2-.2.4-.3.2-.1.3-.1.5-.1s.4 0 .5.1c.2.1.3.2.4.3.1.1.2.3.3.4s.1.3.1.5 0 .4-.1.5c-.1.2-.2.3-.3.4-.1.1-.3.2-.4.3-.2.1-.3.1-.5.1s-.3 0-.5-.1-.3-.2-.4-.3c-.1-.1-.2-.3-.3-.4s-.1-.3-.1-.5.1-.3.1-.5zm2.7 5.3c-.1.2-.2.4-.3.5-.1.1-.3.3-.5.3s-.4.1-.6.1c-.2 0-.5 0-.7-.1-.2-.1-.4-.2-.5-.3-.1-.1-.2-.3-.3-.5s-.1-.4-.1-.7c0-.2 0-.5.1-.7.1-.2.2-.4.3-.5s.3-.3.5-.3c.2-.1.4-.1.6-.1.2 0 .5 0 .7.1.2.1.4.2.5.4s.2.3.3.5.1.4.1.7c0 .2 0 .4-.1.6z" fill="#FFF"/></g></svg>