<?xml version="1.0" encoding="utf-8"?>
<!-- Generator: Adobe Illustrator 19.2.0, SVG Export Plug-In . SVG Version: 6.00 Build 0)  -->
<svg version="1.1" id="Layer_2_1_" xmlns="http://www.w3.org/2000/svg" xmlns:xlink="http://www.w3.org/1999/xlink" x="0px" y="0px"
	 width="129.2px" height="329.2px" viewBox="0 0 129.2 329.2" style="enable-background:new 0 0 129.2 329.2;" xml:space="preserve"
	>
<g>
	<path d="M6.7,323.3v-1.7c0.1,0.1,0.3,0.3,0.5,0.4c0.2,0.1,0.4,0.2,0.7,0.3c0.2,0.1,0.5,0.1,0.7,0.2c0.2,0,0.4,0.1,0.6,0.1
		c0.7,0,1.2-0.1,1.5-0.3s0.5-0.6,0.5-1c0-0.2-0.1-0.4-0.2-0.6s-0.3-0.3-0.5-0.5s-0.4-0.3-0.7-0.4c-0.3-0.1-0.6-0.3-0.9-0.4
		c-0.3-0.2-0.6-0.4-0.9-0.5c-0.3-0.2-0.5-0.4-0.7-0.6s-0.4-0.5-0.5-0.7s-0.2-0.6-0.2-1c0-0.5,0.1-0.9,0.3-1.2s0.5-0.6,0.8-0.8
		c0.3-0.2,0.7-0.4,1.2-0.5s0.9-0.2,1.3-0.2c1,0,1.8,0.1,2.2,0.3v1.6c-0.6-0.4-1.3-0.6-2.1-0.6c-0.2,0-0.5,0-0.7,0.1
		c-0.2,0-0.5,0.1-0.6,0.2s-0.3,0.2-0.5,0.4s-0.2,0.4-0.2,0.6c0,0.2,0,0.4,0.1,0.6c0.1,0.2,0.2,0.3,0.4,0.4c0.2,0.1,0.4,0.3,0.6,0.4
		c0.3,0.1,0.5,0.3,0.9,0.4c0.3,0.2,0.7,0.4,1,0.6c0.3,0.2,0.6,0.4,0.8,0.6c0.2,0.2,0.4,0.5,0.5,0.8s0.2,0.6,0.2,1
		c0,0.5-0.1,0.9-0.3,1.3c-0.2,0.3-0.5,0.6-0.8,0.8c-0.3,0.2-0.7,0.4-1.2,0.5c-0.4,0.1-0.9,0.1-1.4,0.1c-0.2,0-0.4,0-0.6,0
		c-0.2,0-0.5-0.1-0.7-0.1c-0.2,0-0.5-0.1-0.7-0.2C7,323.4,6.9,323.4,6.7,323.3z"/>
	<path d="M20.2,323.7h-5.5v-9.8H20v1.4h-3.6v2.8h3.4v1.4h-3.4v2.9h3.9V323.7z"/>
	<path d="M29.5,323.7h-1.9L26,321c-0.1-0.2-0.3-0.4-0.4-0.6c-0.1-0.2-0.3-0.3-0.4-0.4c-0.1-0.1-0.3-0.2-0.5-0.2s-0.3-0.1-0.6-0.1
		h-0.7v4H22v-9.8h3.2c0.5,0,0.9,0.1,1.3,0.2c0.4,0.1,0.7,0.3,1,0.5c0.3,0.2,0.5,0.5,0.7,0.8c0.2,0.3,0.2,0.7,0.2,1.2
		c0,0.3-0.1,0.7-0.2,0.9c-0.1,0.3-0.2,0.5-0.4,0.8c-0.2,0.2-0.4,0.4-0.7,0.6c-0.3,0.2-0.6,0.3-0.9,0.4v0c0.2,0.1,0.3,0.2,0.5,0.3
		c0.1,0.1,0.3,0.2,0.4,0.4c0.1,0.1,0.2,0.3,0.3,0.4c0.1,0.2,0.2,0.3,0.4,0.6L29.5,323.7z M23.6,315.2v3.2h1.3c0.2,0,0.5,0,0.7-0.1
		s0.4-0.2,0.5-0.3c0.2-0.1,0.3-0.3,0.4-0.5c0.1-0.2,0.1-0.4,0.1-0.7c0-0.5-0.1-0.8-0.4-1.1s-0.7-0.4-1.3-0.4H23.6z"/>
	<path d="M38.3,313.9l-3.5,9.8H33l-3.4-9.8h1.8l2.4,7.4c0.1,0.2,0.1,0.5,0.2,0.8h0c0-0.3,0.1-0.5,0.2-0.8l2.5-7.4H38.3z"/>
	<path d="M41.2,323.7h-1.7v-9.8h1.7V323.7z"/>
	<path d="M50.4,323.2c-0.7,0.4-1.6,0.6-2.7,0.6c-1.4,0-2.5-0.4-3.4-1.3c-0.9-0.9-1.3-2.1-1.3-3.5c0-1.6,0.5-2.8,1.4-3.8
		s2.2-1.4,3.6-1.4c0.9,0,1.7,0.1,2.3,0.4v1.6c-0.7-0.4-1.4-0.6-2.2-0.6c-1.1,0-1.9,0.3-2.6,1s-1,1.6-1,2.7c0,1.1,0.3,1.9,0.9,2.6
		c0.6,0.6,1.4,1,2.4,1c0.9,0,1.7-0.2,2.4-0.7V323.2z"/>
	<path d="M57.8,323.7h-5.5v-9.8h5.3v1.4h-3.6v2.8h3.4v1.4h-3.4v2.9h3.9V323.7z"/>
	<path d="M63.3,323.7v-9.8h3.1c0.9,0,1.7,0.2,2.2,0.6c0.6,0.4,0.8,0.9,0.8,1.6c0,0.6-0.2,1-0.5,1.4c-0.3,0.4-0.7,0.7-1.3,0.9v0
		c0.7,0.1,1.2,0.3,1.6,0.7c0.4,0.4,0.6,1,0.6,1.6c0,0.8-0.3,1.5-1,2s-1.5,0.8-2.5,0.8H63.3z M64.9,315.2v2.8h1c0.6,0,1-0.1,1.3-0.4
		c0.3-0.3,0.5-0.6,0.5-1.1c0-0.8-0.6-1.3-1.7-1.3H64.9z M64.9,319.3v3.1h1.4c0.6,0,1.1-0.1,1.4-0.4c0.3-0.3,0.5-0.7,0.5-1.2
		c0-1-0.7-1.5-2.1-1.5H64.9z"/>
	<path d="M79.2,319.7c0,2.7-1.3,4.1-3.9,4.1c-2.5,0-3.7-1.3-3.7-4v-6h1.6v5.6c0,1.9,0.7,2.9,2.2,2.9c1.4,0,2.1-0.9,2.1-2.8v-5.7h1.6
		V319.7z"/>
	<path d="M81.1,323.3v-1.7c0.1,0.1,0.3,0.3,0.5,0.4c0.2,0.1,0.4,0.2,0.7,0.3c0.2,0.1,0.5,0.1,0.7,0.2c0.2,0,0.4,0.1,0.6,0.1
		c0.7,0,1.2-0.1,1.5-0.3s0.5-0.6,0.5-1c0-0.2-0.1-0.4-0.2-0.6s-0.3-0.3-0.5-0.5s-0.4-0.3-0.7-0.4c-0.3-0.1-0.6-0.3-0.9-0.4
		c-0.3-0.2-0.6-0.4-0.9-0.5c-0.3-0.2-0.5-0.4-0.7-0.6s-0.4-0.5-0.5-0.7s-0.2-0.6-0.2-1c0-0.5,0.1-0.9,0.3-1.2s0.5-0.6,0.8-0.8
		c0.3-0.2,0.7-0.4,1.2-0.5s0.9-0.2,1.3-0.2c1,0,1.8,0.1,2.2,0.3v1.6c-0.6-0.4-1.3-0.6-2.1-0.6c-0.2,0-0.5,0-0.7,0.1
		c-0.2,0-0.5,0.1-0.6,0.2s-0.3,0.2-0.5,0.4s-0.2,0.4-0.2,0.6c0,0.2,0,0.4,0.1,0.6c0.1,0.2,0.2,0.3,0.4,0.4c0.2,0.1,0.4,0.3,0.6,0.4
		c0.3,0.1,0.5,0.3,0.9,0.4c0.3,0.2,0.7,0.4,1,0.6c0.3,0.2,0.6,0.4,0.8,0.6c0.2,0.2,0.4,0.5,0.5,0.8s0.2,0.6,0.2,1
		c0,0.5-0.1,0.9-0.3,1.3c-0.2,0.3-0.5,0.6-0.8,0.8c-0.3,0.2-0.7,0.4-1.2,0.5c-0.4,0.1-0.9,0.1-1.4,0.1c-0.2,0-0.4,0-0.6,0
		c-0.2,0-0.5-0.1-0.7-0.1c-0.2,0-0.5-0.1-0.7-0.2C81.4,323.4,81.2,323.4,81.1,323.3z"/>
</g>
<g>
	<polygon style="fill-rule:evenodd;clip-rule:evenodd;" points="45.1,277.5 39.6,277.5 39.6,288.8 35.1,288.8 42.4,298.9 
		49.8,288.8 45.1,288.8 	"/>
	<rect x="35.7" y="260.7" style="fill-rule:evenodd;clip-rule:evenodd;" width="13.2" height="3.8"/>
	<rect x="35.7" y="266.3" style="fill-rule:evenodd;clip-rule:evenodd;" width="13.2" height="3.8"/>
	<rect x="35.7" y="271.9" style="fill-rule:evenodd;clip-rule:evenodd;" width="13.2" height="3.8"/>
	<path style="fill-rule:evenodd;clip-rule:evenodd;" d="M37.6,281.2h-5.6l-0.1-9.4h-0.1v-20.4h7.5v7.5h5.6v-11.5
		c0.3-1.6-0.8-1.6-1.3-1.6H28c-0.5,0-1.6,0-1.6,1.9l-0.1,29.5h0.1v7.9c0,0.4,1.6,1.8,2,1.8h9.2V281.2z"/>
	<path style="fill-rule:evenodd;clip-rule:evenodd;" d="M62.4,270h-1.6c-0.9-11.3-6.3-16.7-13.8-18.2v5.3c5.6,1.9,7.7,7.3,7.8,14.5
		l-0.1,3.7l7.5-0.1c2,0,3.5,0.5,3.5,2.5v3.3H46.9v5.6h22.1c0.4,0,2.1-1.5,2.1-1.9v-7.1C71.2,273.1,67.2,270,62.4,270z"/>
</g>
<g>
	
		<line style="fill:none;stroke:#DEDEDE;stroke-width:4;stroke-linecap:round;stroke-linejoin:round;stroke-miterlimit:10;" x1="108.5" y1="6" x2="109.5" y2="272.2"/>
</g>
<g>
	
		<line style="fill:none;stroke:#DEDEDE;stroke-width:4;stroke-linecap:round;stroke-linejoin:round;stroke-miterlimit:10;" x1="108.5" y1="272.2" x2="96.6" y2="272.2"/>
	
		<circle style="fill:none;stroke:#DEDEDE;stroke-width:4;stroke-linecap:round;stroke-linejoin:round;stroke-miterlimit:10;" cx="91.1" cy="272.2" r="5"/>
</g>
</svg>
