<?xml version="1.0" encoding="utf-8"?>
<!-- Generator: Adobe Illustrator 19.2.0, SVG Export Plug-In . SVG Version: 6.00 Build 0)  -->
<svg version="1.1" id="Layer_1" xmlns="http://www.w3.org/2000/svg" xmlns:xlink="http://www.w3.org/1999/xlink" x="0px" y="0px"
	 width="294px" height="452px" viewBox="0 0 294 452" style="enable-background:new 0 0 294 452;" xml:space="preserve">
<g>
	<path style="fill:#FFFFFF;stroke:#000000;stroke-width:3;stroke-linecap:round;stroke-linejoin:round;" d="M259.1,286.3
		c-5.3,32.8-36.1,55.1-68.9,49.9s-55.1-36.1-49.9-68.9c1.3-8.4,4.4-16.1,8.7-22.8c7.5-11.7,18.8-20.4,31.9-24.8
		c8.9-2.9,18.5-3.8,28.4-2.3C242,222.6,264.4,253.5,259.1,286.3z"/>
	<path style="fill:#FFFFFF;stroke:#000000;stroke-width:3;stroke-linecap:round;stroke-linejoin:round;" d="M248.4,284.5
		c-4.3,26.9-29.6,45.1-56.4,40.8s-45.1-29.6-40.8-56.4c1.1-6.9,3.6-13.2,7.1-18.7c6.1-9.6,15.4-16.7,26.1-20.3
		c7.3-2.4,15.2-3.1,23.2-1.8C234.4,232.4,252.7,257.7,248.4,284.5z"/>
</g>
<g>
	<path d="M206.4,279"/>
	<polygon points="155,293.4 155,290.4 155,290.4 	"/>
	<path d="M198.2,259.5l2.2-0.8v-1.8l-2.2-0.7l-0.5-1.3l1-2.1l-1.3-1.3l-2.1,1.1L194,252l-0.8-2.2h-1.8l-0.7,2.2l-1.3,0.5l-2.1-1
		l-1.3,1.3l0.7,1.3l0.4,0.8l-0.5,1.3l-1.5,0.5l-0.8,0.3v1.8l2.2,0.7l0.5,1.3l-1,2.1l1.3,1.3l2.1-1.1l1.3,0.5l0.8,2.2h1.8l0.7-2.2
		l1.2-0.5l1.9,0.9l0.2,0.1l1.3-1.3l-1.1-2.1l0.2-0.6L198.2,259.5z M194.1,259.7c-0.5,0.4-1.1,0.7-1.8,0.7c-1.4,0-2.6-1.2-2.6-2.6
		c0-0.2,0-0.4,0.1-0.6c0.3-1,1.1-1.7,2.1-1.9c0.1,0,0.3,0,0.4,0c1.1,0,2,0.7,2.4,1.7c0.1,0.3,0.2,0.6,0.2,0.9
		C194.9,258.5,194.6,259.2,194.1,259.7z"/>
	<path d="M218.3,269.4V267l-2.9-1l-0.7-1.7l1.4-2.8l-1.7-1.7l-2.8,1.4l-1.7-0.7l-1.1-3h-2.4l-1,3l-1.7,0.7l-2.8-1.3l-1.7,1.7
		l1.4,2.8l-0.2,0.5l-0.5,1.1l-1.5,0.5l-1.5,0.5v2.4l1.9,0.6l1.1,0.4l0.7,1.7l-1,2.1l-0.4,0.8l1.7,1.7l1.6-0.8l1.2-0.6l1.7,0.7
		l1.1,2.9h0.9h1.5l1-2.9l1.7-0.7l2.8,1.3l1.7-1.7l-1.4-2.7l0.7-1.7L218.3,269.4z M207.6,271.7c-1.9,0-3.4-1.5-3.4-3.4
		s1.5-3.4,3.4-3.4s3.4,1.5,3.4,3.4S209.5,271.7,207.6,271.7z"/>
	<polygon points="167.3,278.2 167.3,289.7 182.7,289.7 182.7,276.1 	"/>
	<polygon points="155,289.7 166.8,289.7 166.8,278.3 155,279.9 	"/>
	<polygon points="167.3,292.6 167.3,295.2 167.3,301.6 182.7,303.7 182.7,295.2 182.7,292.6 182.7,290.1 167.3,290.1 	"/>
	<polygon points="155,290.4 155,293.4 155,299.9 166.8,301.5 166.8,295.2 166.8,292.6 166.8,290.1 155,290.1 	"/>
	<path d="M205,279.8c0.3,1,0.5,2,0.5,3.1c0,5.5-4.2,9.7-9.8,9.7H184v2.5h11.8c7,0,12.3-5.3,12.3-12.2c0-1.1-0.2-2.2-0.5-3.2
		L205,279.8z"/>
	<path d="M185.8,254.8l-0.4-0.7c-5,0.3-9.4,3.1-11.9,7.5c-1.9-1.6-4.3-2.5-6.9-2.5c-5.9,0-10.6,4.9-10.6,11c0,0.6,0.1,1.3,0.2,1.9
		c-4.4,2-7,6.1-7,10.9c0,3.9,1.8,7.4,4.6,9.6V289c-1.3-1.6-2.1-3.7-2.1-6.1c0-4.1,2.4-7.5,6.4-9c0.6-0.2,0.9-0.9,0.8-1.5
		c-0.2-0.8-0.3-1.6-0.3-2.4c0-4.7,3.6-8.4,8.1-8.4c2.5,0,4.8,1,6.2,2.9c0.3,0.4,0.7,0.5,1.2,0.5c0.4-0.1,0.8-0.4,1-0.8
		c1.5-3.7,4.6-6.4,8.3-7.3l0.2-0.8l2-0.7L185.8,254.8z"/>
</g>
<g>
	<path d="M119,371.1h-1.8l-0.9-2.5h-3.9l-0.8,2.5h-1.8l3.7-9.8h1.8L119,371.1z M115.9,367.3l-1.4-3.9c0-0.1-0.1-0.3-0.1-0.6l0,0
		c0,0.3-0.1,0.5-0.1,0.6l-1.3,3.9H115.9z"/>
	<path d="M127.3,362l-5.4,7.7h5.3v1.4h-7.6v-0.7l5.4-7.7h-5v-1.4h7.2v0.7H127.3z"/>
	<path d="M136.4,367.1c0,2.8-1.3,4.1-3.9,4.1c-2.5,0-3.7-1.3-3.7-4v-6h1.6v5.7c0,1.9,0.7,2.9,2.2,2.9c1.4,0,2.2-0.9,2.2-2.8v-5.8
		h1.6L136.4,367.1L136.4,367.1z"/>
	<path d="M146.3,371.1h-1.9l-1.6-2.6c-0.1-0.2-0.3-0.4-0.4-0.6c-0.1-0.2-0.3-0.3-0.4-0.4c-0.1-0.1-0.3-0.2-0.5-0.2s-0.3-0.1-0.6-0.1
		h-0.7v4h-1.6v-9.8h3.2c0.5,0,0.9,0.1,1.3,0.2s0.7,0.3,1,0.5s0.5,0.5,0.7,0.8s0.2,0.7,0.2,1.2c0,0.3-0.1,0.7-0.2,1
		c-0.1,0.3-0.2,0.5-0.4,0.8c-0.2,0.2-0.4,0.4-0.7,0.6s-0.6,0.3-0.9,0.4l0,0c0.2,0.1,0.3,0.2,0.5,0.3c0.1,0.1,0.3,0.2,0.4,0.4
		s0.2,0.3,0.4,0.4c0.1,0.2,0.2,0.3,0.4,0.6L146.3,371.1z M140.3,362.6v3.2h1.4c0.3,0,0.5,0,0.7-0.1s0.4-0.2,0.6-0.3s0.3-0.3,0.4-0.5
		s0.1-0.4,0.1-0.7c0-0.5-0.1-0.8-0.4-1.1s-0.7-0.4-1.3-0.4h-1.5V362.6z"/>
	<path d="M152.9,371.1h-5.5v-9.8h5.3v1.4H149v2.8h3.4v1.4H149v2.9h3.9V371.1z"/>
	<path d="M169.1,371.1h-1.6v-6.3c0-0.5,0-1.2,0.1-1.9l0,0c-0.1,0.4-0.2,0.7-0.3,0.9l-2.9,7.3h-1.2l-2.9-7.3c-0.1-0.2-0.2-0.5-0.3-1
		l0,0c0,0.4,0.1,1,0.1,1.9v6.3h-1.5v-9.8h2.3l2.6,6.5c0.2,0.5,0.3,0.9,0.4,1.1l0,0c0.2-0.5,0.3-0.9,0.4-1.1l2.6-6.5h2.2L169.1,371.1
		L169.1,371.1z"/>
	<path d="M179.5,371.1h-1.8l-0.9-2.5h-3.9l-0.8,2.5h-1.8l3.7-9.8h1.8L179.5,371.1z M176.4,367.3l-1.4-3.9c0-0.1-0.1-0.3-0.1-0.6l0,0
		c0,0.3-0.1,0.5-0.1,0.6l-1.3,3.9H176.4z"/>
	<path d="M189.2,371.1h-1.8l-4.7-7.2c-0.1-0.2-0.2-0.4-0.3-0.6l0,0c0,0.2,0.1,0.7,0.1,1.3v6.4h-1.6v-9.8h1.9l4.5,7
		c0.2,0.3,0.3,0.5,0.4,0.6l0,0c0-0.3-0.1-0.7-0.1-1.3v-6.3h1.6L189.2,371.1L189.2,371.1z"/>
	<path d="M199.7,371.1h-1.8l-0.9-2.5h-3.9l-0.8,2.5h-1.8l3.7-9.8h1.8L199.7,371.1z M196.6,367.3l-1.4-3.9c0-0.1-0.1-0.3-0.1-0.6l0,0
		c0,0.3-0.1,0.5-0.1,0.6l-1.3,3.9H196.6z"/>
	<path d="M208.5,370.4c-1,0.6-2.2,0.8-3.4,0.8c-1.4,0-2.6-0.5-3.5-1.4s-1.3-2.1-1.3-3.6s0.5-2.8,1.5-3.7c1-1,2.2-1.5,3.7-1.5
		c1.1,0,2,0.2,2.7,0.5v1.7c-0.8-0.5-1.6-0.8-2.7-0.8c-1,0-1.9,0.3-2.6,1c-0.7,0.7-1,1.6-1,2.7s0.3,2,0.9,2.7c0.6,0.6,1.4,1,2.3,1
		c0.7,0,1.3-0.1,1.8-0.4v-2.3h-2.1v-1.4h3.7L208.5,370.4L208.5,370.4z"/>
	<path d="M216.1,371.1h-5.5v-9.8h5.3v1.4h-3.7v2.8h3.4v1.4h-3.4v2.9h3.9V371.1z"/>
	<path d="M228.4,371.1h-1.6v-6.3c0-0.5,0-1.2,0.1-1.9l0,0c-0.1,0.4-0.2,0.7-0.3,0.9l-2.9,7.3h-1.1l-2.9-7.3c-0.1-0.2-0.2-0.5-0.3-1
		l0,0c0,0.4,0.1,1,0.1,1.9v6.3H218v-9.8h2.3l2.6,6.5c0.2,0.5,0.3,0.9,0.4,1.1l0,0c0.2-0.5,0.3-0.9,0.4-1.1l2.6-6.5h2.2v9.9H228.4z"
		/>
	<path d="M236.3,371.1h-5.5v-9.8h5.3v1.4h-3.7v2.8h3.4v1.4h-3.4v2.9h3.9V371.1z"/>
	<path d="M246.3,371.1h-1.8l-4.7-7.2c-0.1-0.2-0.2-0.4-0.3-0.6l0,0c0,0.2,0.1,0.7,0.1,1.3v6.4H238v-9.8h1.9l4.5,7
		c0.2,0.3,0.3,0.5,0.4,0.6l0,0c0-0.3-0.1-0.7-0.1-1.3v-6.3h1.6L246.3,371.1L246.3,371.1z"/>
	<path d="M255.1,362.7h-2.9v8.4h-1.6v-8.4h-2.8v-1.4h7.3V362.7z"/>
</g>
<g>
	<path d="M117,379.5h-2.8v8.4h-1.6v-8.4h-2.8v-1.4h7.3v1.4H117z"/>
	<path d="M121.9,388.1c-1.4,0-2.5-0.5-3.4-1.4c-0.8-0.9-1.3-2.1-1.3-3.6c0-1.6,0.4-2.8,1.3-3.8s2-1.4,3.5-1.4c1.4,0,2.5,0.5,3.3,1.4
		s1.3,2.1,1.3,3.6c0,1.6-0.4,2.9-1.3,3.8C124.5,387.6,123.4,388.1,121.9,388.1z M122,379.4c-0.9,0-1.6,0.3-2.2,1
		c-0.6,0.7-0.8,1.6-0.8,2.6c0,1.1,0.3,2,0.8,2.6s1.3,1,2.1,1c0.9,0,1.7-0.3,2.2-1c0.5-0.6,0.8-1.5,0.8-2.7s-0.3-2.1-0.8-2.7
		C123.7,379.7,122.9,379.4,122,379.4z"/>
	<path d="M132.5,388.1c-1.4,0-2.5-0.5-3.4-1.4c-0.8-0.9-1.3-2.1-1.3-3.6c0-1.6,0.4-2.8,1.3-3.8s2-1.4,3.5-1.4c1.4,0,2.5,0.5,3.3,1.4
		s1.3,2.1,1.3,3.6c0,1.6-0.4,2.9-1.3,3.8S133.9,388.1,132.5,388.1z M132.6,379.4c-0.9,0-1.6,0.3-2.2,1c-0.6,0.7-0.8,1.6-0.8,2.6
		c0,1.1,0.3,2,0.8,2.6s1.3,1,2.1,1c0.9,0,1.7-0.3,2.2-1s0.8-1.5,0.8-2.7s-0.3-2.1-0.8-2.7C134.2,379.7,133.5,379.4,132.6,379.4z"/>
	<path d="M144.5,387.9h-5.4v-9.8h1.6v8.4h3.8L144.5,387.9L144.5,387.9z"/>
	<path d="M145.4,387.5v-1.7c0.2,0.1,0.3,0.3,0.5,0.4s0.4,0.2,0.7,0.3c0.2,0.1,0.5,0.1,0.7,0.2s0.4,0.1,0.6,0.1
		c0.7,0,1.2-0.1,1.5-0.3c0.3-0.2,0.5-0.6,0.5-1c0-0.2-0.1-0.4-0.2-0.6c-0.1-0.2-0.3-0.3-0.5-0.5s-0.4-0.3-0.7-0.4s-0.6-0.3-0.9-0.4
		c-0.3-0.2-0.6-0.4-0.9-0.5s-0.5-0.4-0.7-0.6s-0.4-0.5-0.5-0.7c-0.1-0.3-0.2-0.6-0.2-1c0-0.5,0.1-0.9,0.3-1.2
		c0.2-0.3,0.5-0.6,0.8-0.8c0.3-0.2,0.7-0.4,1.2-0.5c0.4-0.1,0.9-0.2,1.3-0.2c1,0,1.8,0.1,2.2,0.3v1.6c-0.6-0.4-1.3-0.6-2.1-0.6
		c-0.2,0-0.5,0-0.7,0.1c-0.2,0-0.5,0.1-0.6,0.2c-0.2,0.1-0.3,0.2-0.5,0.4s-0.2,0.4-0.2,0.6s0,0.4,0.1,0.6s0.2,0.3,0.4,0.4
		s0.4,0.3,0.6,0.4c0.3,0.1,0.5,0.3,0.9,0.4c0.3,0.2,0.7,0.4,1,0.6s0.6,0.4,0.8,0.6s0.4,0.5,0.5,0.8s0.2,0.6,0.2,1
		c0,0.5-0.1,0.9-0.3,1.3s-0.5,0.6-0.8,0.8c-0.3,0.2-0.7,0.4-1.2,0.5s-0.9,0.1-1.4,0.1c-0.2,0-0.4,0-0.6,0c-0.2,0-0.5-0.1-0.7-0.1
		c-0.3,0-0.5-0.1-0.7-0.2S145.6,387.6,145.4,387.5z"/>
</g>
<g>
	<path d="M119,421.5h-1.8l-0.9-2.5h-3.9l-0.8,2.5h-1.8l3.7-9.8h1.8L119,421.5z M115.9,417.7l-1.4-3.9c0-0.1-0.1-0.3-0.1-0.6l0,0
		c0,0.3-0.1,0.5-0.1,0.6l-1.3,3.9H115.9z"/>
	<path d="M125.3,415.2l-3.8,5.1h3.8v1.2h-6v-0.6l3.9-5.2h-3.5v-1.2h5.6V415.2z"/>
	<path d="M132.8,421.5h-1.6v-1.1l0,0c-0.5,0.8-1.2,1.3-2.1,1.3c-1.7,0-2.5-1-2.5-3v-4.2h1.6v4c0,1.3,0.5,1.9,1.5,1.9
		c0.5,0,0.9-0.2,1.2-0.5c0.3-0.3,0.5-0.8,0.5-1.4v-4h1.6v7L132.8,421.5L132.8,421.5z"/>
	<path d="M138.9,416c-0.2-0.2-0.5-0.2-0.8-0.2c-0.5,0-0.9,0.2-1.2,0.6s-0.5,1-0.5,1.7v3.3h-1.6v-7h1.6v1.4l0,0
		c0.2-0.5,0.4-0.9,0.7-1.2c0.3-0.3,0.7-0.4,1.1-0.4c0.3,0,0.5,0,0.7,0.1V416z"/>
	<path d="M145.8,418.4H141c0,0.6,0.2,1.1,0.6,1.5c0.4,0.4,0.9,0.5,1.6,0.5c0.7,0,1.4-0.2,2.1-0.7v1.3c-0.6,0.4-1.5,0.6-2.5,0.6
		s-1.8-0.3-2.4-1c-0.6-0.6-0.9-1.5-0.9-2.7c0-1.1,0.3-2,1-2.7c0.6-0.7,1.4-1,2.4-1s1.7,0.3,2.2,0.9s0.8,1.5,0.8,2.6v0.7L145.8,418.4
		L145.8,418.4z M144.3,417.3c0-0.6-0.1-1-0.4-1.3c-0.3-0.3-0.6-0.5-1.1-0.5s-0.8,0.2-1.2,0.5c-0.3,0.3-0.5,0.8-0.6,1.3H144.3z"/>
	<path d="M161.9,421.5h-1.6v-6.3c0-0.5,0-1.2,0.1-1.9l0,0c-0.1,0.4-0.2,0.7-0.3,0.9l-2.9,7.3H156l-2.9-7.3c-0.1-0.2-0.2-0.5-0.3-1
		l0,0c0,0.4,0.1,1,0.1,1.9v6.3h-1.5v-9.8h2.3l2.6,6.5c0.2,0.5,0.3,0.9,0.4,1.1l0,0c0.2-0.5,0.3-0.9,0.4-1.1l2.6-6.5h2.2L161.9,421.5
		L161.9,421.5z"/>
	<path d="M169.5,421.5H168v-1.1l0,0c-0.5,0.8-1.2,1.3-2.1,1.3c-0.7,0-1.2-0.2-1.6-0.6c-0.4-0.4-0.6-0.9-0.6-1.5
		c0-1.3,0.8-2.1,2.3-2.3l2.1-0.3c0-1-0.5-1.5-1.4-1.5c-0.8,0-1.6,0.3-2.3,0.9V415c0.7-0.4,1.6-0.7,2.6-0.7c1.8,0,2.7,0.9,2.7,2.6
		v4.6H169.5z M168,418.1l-1.5,0.2c-0.5,0.1-0.8,0.2-1,0.3c-0.2,0.2-0.3,0.4-0.3,0.9c0,0.3,0.1,0.5,0.3,0.7s0.5,0.3,0.9,0.3
		c0.5,0,0.9-0.2,1.2-0.5s0.5-0.8,0.5-1.3L168,418.1L168,418.1z"/>
	<path d="M177.7,421.5h-1.6v-3.9c0-1.3-0.5-2-1.4-2c-0.5,0-0.9,0.2-1.2,0.5c-0.3,0.4-0.5,0.8-0.5,1.4v4h-1.6v-7h1.6v1.2l0,0
		c0.5-0.9,1.3-1.3,2.3-1.3c0.8,0,1.3,0.2,1.7,0.7s0.6,1.2,0.6,2.1L177.7,421.5L177.7,421.5z"/>
	<path d="M185,421.5h-1.5v-1.1l0,0c-0.5,0.8-1.2,1.3-2.1,1.3c-0.7,0-1.2-0.2-1.6-0.6c-0.4-0.4-0.6-0.9-0.6-1.5
		c0-1.3,0.8-2.1,2.3-2.3l2.1-0.3c0-1-0.5-1.5-1.4-1.5c-0.8,0-1.6,0.3-2.3,0.9V415c0.7-0.4,1.6-0.7,2.6-0.7c1.8,0,2.7,0.9,2.7,2.6
		v4.6H185z M183.4,418.1l-1.5,0.2c-0.5,0.1-0.8,0.2-1,0.3c-0.2,0.2-0.3,0.4-0.3,0.9c0,0.3,0.1,0.5,0.3,0.7s0.5,0.3,0.9,0.3
		c0.5,0,0.9-0.2,1.2-0.5s0.5-0.8,0.5-1.3L183.4,418.1L183.4,418.1z"/>
	<path d="M193.3,420.9c0,2.6-1.3,3.9-3.9,3.9c-0.9,0-1.7-0.2-2.4-0.5v-1.4c0.8,0.4,1.5,0.7,2.2,0.7c1.7,0,2.5-0.8,2.5-2.5v-0.8l0,0
		c-0.5,0.9-1.3,1.3-2.4,1.3c-0.9,0-1.5-0.3-2.1-0.9c-0.5-0.6-0.8-1.5-0.8-2.5c0-1.2,0.3-2.1,0.8-2.8s1.3-1.1,2.3-1.1
		c0.9,0,1.6,0.4,2.1,1.1l0,0v-1h1.6L193.3,420.9L193.3,420.9z M191.7,418.3v-0.9c0-0.5-0.2-0.9-0.5-1.3c-0.3-0.3-0.7-0.5-1.2-0.5
		c-0.6,0-1.1,0.2-1.4,0.7c-0.3,0.4-0.5,1.1-0.5,1.9c0,0.7,0.2,1.2,0.5,1.7c0.3,0.4,0.8,0.6,1.3,0.6s1-0.2,1.3-0.6
		C191.5,419.4,191.7,418.9,191.7,418.3z"/>
	<path d="M201.3,418.4h-4.8c0,0.6,0.2,1.1,0.6,1.5c0.4,0.4,0.9,0.5,1.6,0.5c0.7,0,1.4-0.2,2.1-0.7v1.3c-0.6,0.4-1.5,0.6-2.5,0.6
		s-1.8-0.3-2.4-1c-0.6-0.6-0.9-1.5-0.9-2.7c0-1.1,0.3-2,1-2.7c0.6-0.7,1.4-1,2.4-1s1.7,0.3,2.2,0.9s0.8,1.5,0.8,2.6v0.7L201.3,418.4
		L201.3,418.4z M199.7,417.3c0-0.6-0.1-1-0.4-1.3c-0.3-0.3-0.6-0.5-1.1-0.5s-0.8,0.2-1.2,0.5c-0.3,0.3-0.5,0.8-0.6,1.3H199.7z"/>
	<path d="M213.3,421.5h-1.6v-3.8c0-0.7-0.1-1.3-0.3-1.6c-0.2-0.3-0.6-0.5-1-0.5s-0.8,0.2-1.1,0.6s-0.4,0.9-0.4,1.5v3.8h-1.6v-3.9
		c0-1.3-0.5-2-1.4-2c-0.4,0-0.8,0.2-1.1,0.6s-0.4,0.9-0.4,1.5v3.8h-1.6v-7h1.6v1.1l0,0c0.5-0.8,1.2-1.3,2.2-1.3
		c0.5,0,0.9,0.1,1.3,0.4c0.4,0.3,0.6,0.6,0.7,1c0.5-1,1.3-1.4,2.3-1.4c1.5,0,2.3,1,2.3,2.9v4.3H213.3z"/>
	<path d="M221.1,418.4h-4.8c0,0.6,0.2,1.1,0.6,1.5c0.4,0.4,0.9,0.5,1.6,0.5c0.7,0,1.4-0.2,2.1-0.7v1.3c-0.6,0.4-1.5,0.6-2.5,0.6
		s-1.8-0.3-2.4-1c-0.6-0.6-0.9-1.5-0.9-2.7c0-1.1,0.3-2,1-2.7c0.6-0.7,1.4-1,2.4-1s1.7,0.3,2.2,0.9s0.8,1.5,0.8,2.6v0.7L221.1,418.4
		L221.1,418.4z M219.6,417.3c0-0.6-0.1-1-0.4-1.3c-0.3-0.3-0.6-0.5-1.1-0.5s-0.8,0.2-1.2,0.5c-0.3,0.3-0.5,0.8-0.6,1.3H219.6z"/>
	<path d="M228.9,421.5h-1.6v-3.9c0-1.3-0.5-2-1.4-2c-0.5,0-0.9,0.2-1.2,0.5c-0.3,0.4-0.5,0.8-0.5,1.4v4h-1.6v-7h1.6v1.2l0,0
		c0.5-0.9,1.3-1.3,2.3-1.3c0.8,0,1.3,0.2,1.7,0.7s0.6,1.2,0.6,2.1L228.9,421.5L228.9,421.5z"/>
	<path d="M234.5,421.4c-0.3,0.2-0.7,0.2-1.2,0.2c-1.4,0-2-0.7-2-2v-4h-1.2v-1.2h1.2v-1.6l1.6-0.5v2.1h1.7v1.2h-1.7v3.5
		c0,0.4,0.1,0.7,0.2,0.9s0.4,0.3,0.8,0.3c0.3,0,0.5-0.1,0.7-0.2v1.3L234.5,421.4L234.5,421.4z"/>
	<path d="M246.7,421.1c-0.7,0.4-1.7,0.6-2.8,0.6c-1.4,0-2.6-0.4-3.4-1.3s-1.3-2.1-1.3-3.5c0-1.6,0.5-2.8,1.4-3.8
		c1-1,2.2-1.4,3.7-1.4c0.9,0,1.7,0.1,2.4,0.4v1.6c-0.7-0.4-1.4-0.6-2.2-0.6c-1.1,0-1.9,0.3-2.6,1c-0.7,0.7-1,1.6-1,2.7
		s0.3,1.9,0.9,2.6c0.6,0.6,1.4,1,2.4,1c0.9,0,1.7-0.2,2.4-0.7v1.4L246.7,421.1L246.7,421.1z"/>
	<path d="M251.5,421.7c-1.1,0-1.9-0.3-2.6-1c-0.6-0.7-1-1.5-1-2.6c0-1.2,0.3-2.1,1-2.8c0.7-0.7,1.6-1,2.7-1c1.1,0,1.9,0.3,2.6,1
		s0.9,1.5,0.9,2.7c0,1.1-0.3,2-1,2.7C253.5,421.3,252.6,421.7,251.5,421.7z M251.6,415.6c-0.6,0-1.1,0.2-1.5,0.6s-0.5,1-0.5,1.8
		c0,0.7,0.2,1.3,0.5,1.7c0.4,0.4,0.9,0.6,1.5,0.6s1.1-0.2,1.4-0.6c0.3-0.4,0.5-1,0.5-1.8s-0.2-1.4-0.5-1.8
		C252.7,415.8,252.2,415.6,251.6,415.6z"/>
	<path d="M263,421.5h-1.6v-3.9c0-1.3-0.5-2-1.4-2c-0.5,0-0.9,0.2-1.2,0.5c-0.3,0.4-0.5,0.8-0.5,1.4v4h-1.6v-7h1.6v1.2l0,0
		c0.5-0.9,1.3-1.3,2.3-1.3c0.8,0,1.3,0.2,1.7,0.7c0.4,0.5,0.6,1.2,0.6,2.1L263,421.5L263,421.5z"/>
	<path d="M264.5,421.3v-1.5c0.6,0.5,1.2,0.7,2,0.7c1,0,1.4-0.3,1.4-0.8c0-0.2,0-0.3-0.1-0.4s-0.2-0.2-0.3-0.3
		c-0.1-0.1-0.3-0.2-0.5-0.2c-0.2-0.1-0.4-0.1-0.6-0.2c-0.3-0.1-0.5-0.2-0.8-0.4c-0.2-0.1-0.4-0.3-0.6-0.4c-0.2-0.2-0.3-0.3-0.3-0.6
		s-0.1-0.4-0.1-0.7c0-0.3,0.1-0.6,0.2-0.9c0.2-0.3,0.4-0.5,0.6-0.7c0.3-0.2,0.6-0.3,0.9-0.4s0.7-0.1,1.1-0.1c0.6,0,1.2,0.1,1.7,0.3
		v1.4c-0.5-0.3-1.1-0.5-1.7-0.5c-0.2,0-0.4,0-0.5,0.1c-0.2,0-0.3,0.1-0.4,0.2s-0.2,0.2-0.3,0.3c-0.1,0.1-0.1,0.2-0.1,0.3
		c0,0.2,0,0.3,0.1,0.4s0.2,0.2,0.3,0.3c0.1,0.1,0.3,0.2,0.5,0.2c0.2,0.1,0.4,0.1,0.6,0.2c0.3,0.1,0.6,0.2,0.8,0.4
		c0.2,0.1,0.4,0.3,0.6,0.4c0.2,0.2,0.3,0.3,0.4,0.6c0.1,0.2,0.1,0.5,0.1,0.8c0,0.4-0.1,0.7-0.2,0.9s-0.4,0.5-0.7,0.7
		s-0.6,0.3-0.9,0.4c-0.4,0.1-0.7,0.1-1.1,0.1C265.7,421.7,265,421.5,264.5,421.3z"/>
	<path d="M274.1,421.7c-1.1,0-1.9-0.3-2.6-1c-0.6-0.7-1-1.5-1-2.6c0-1.2,0.3-2.1,1-2.8c0.7-0.7,1.6-1,2.7-1s1.9,0.3,2.6,1
		s0.9,1.5,0.9,2.7c0,1.1-0.3,2-1,2.7C276.1,421.3,275.2,421.7,274.1,421.7z M274.1,415.6c-0.6,0-1.1,0.2-1.5,0.6s-0.5,1-0.5,1.8
		c0,0.7,0.2,1.3,0.5,1.7c0.4,0.4,0.9,0.6,1.5,0.6s1.1-0.2,1.4-0.6s0.5-1,0.5-1.8s-0.2-1.4-0.5-1.8
		C275.2,415.8,274.8,415.6,274.1,415.6z"/>
	<path d="M280.9,421.5h-1.6v-10.4h1.6V421.5z"/>
	<path d="M288.9,418.4h-4.8c0,0.6,0.2,1.1,0.6,1.5s0.9,0.5,1.6,0.5s1.4-0.2,2.1-0.7v1.3c-0.6,0.4-1.5,0.6-2.5,0.6s-1.8-0.3-2.4-1
		c-0.6-0.6-0.9-1.5-0.9-2.7c0-1.1,0.3-2,1-2.7c0.6-0.7,1.4-1,2.4-1s1.7,0.3,2.2,0.9s0.8,1.5,0.8,2.6v0.7L288.9,418.4L288.9,418.4z
		 M287.4,417.3c0-0.6-0.1-1-0.4-1.3s-0.6-0.5-1.1-0.5s-0.8,0.2-1.2,0.5c-0.3,0.3-0.5,0.8-0.6,1.3H287.4z"/>
	<path d="M291.9,419.9l-1.1,3.4h-1.2l0.8-3.4H291.9z"/>
	<path d="M119,438.3h-1.8l-0.9-2.5h-3.9l-0.8,2.5h-1.8l3.7-9.8h1.8L119,438.3z M115.9,434.5l-1.4-3.9c0-0.1-0.1-0.3-0.1-0.6l0,0
		c0,0.3-0.1,0.5-0.1,0.6l-1.3,3.9H115.9z"/>
	<path d="M125.3,432l-3.8,5.1h3.8v1.2h-6v-0.6l3.9-5.2h-3.5v-1.2h5.6V432z"/>
	<path d="M132.8,438.3h-1.6v-1.1l0,0c-0.5,0.8-1.2,1.3-2.1,1.3c-1.7,0-2.5-1-2.5-3v-4.2h1.6v4c0,1.3,0.5,1.9,1.5,1.9
		c0.5,0,0.9-0.2,1.2-0.5c0.3-0.3,0.5-0.8,0.5-1.4v-4h1.6v7L132.8,438.3L132.8,438.3z"/>
	<path d="M138.9,432.8c-0.2-0.2-0.5-0.2-0.8-0.2c-0.5,0-0.9,0.2-1.2,0.6s-0.5,1-0.5,1.7v3.3h-1.6v-7h1.6v1.4l0,0
		c0.2-0.5,0.4-0.9,0.7-1.2c0.3-0.3,0.7-0.4,1.1-0.4c0.3,0,0.5,0,0.7,0.1V432.8z"/>
	<path d="M145.8,435.2H141c0,0.6,0.2,1.1,0.6,1.5c0.4,0.4,0.9,0.5,1.6,0.5c0.7,0,1.4-0.2,2.1-0.7v1.3c-0.6,0.4-1.5,0.6-2.5,0.6
		s-1.8-0.3-2.4-1c-0.6-0.6-0.9-1.5-0.9-2.7c0-1.1,0.3-2,1-2.7c0.6-0.7,1.4-1,2.4-1s1.7,0.3,2.2,0.9s0.8,1.5,0.8,2.6v0.7L145.8,435.2
		L145.8,435.2z M144.3,434.1c0-0.6-0.1-1-0.4-1.3c-0.3-0.3-0.6-0.5-1.1-0.5s-0.8,0.2-1.2,0.5c-0.3,0.3-0.5,0.8-0.6,1.3H144.3z"/>
	<path d="M158.2,437.9c-0.7,0.4-1.7,0.6-2.8,0.6c-1.4,0-2.6-0.4-3.4-1.3s-1.3-2.1-1.3-3.5c0-1.6,0.5-2.8,1.4-3.8
		c1-1,2.2-1.4,3.7-1.4c0.9,0,1.7,0.1,2.4,0.4v1.6c-0.7-0.4-1.4-0.6-2.2-0.6c-1.1,0-1.9,0.3-2.6,1c-0.7,0.7-1,1.6-1,2.7
		s0.3,1.9,0.9,2.6c0.6,0.6,1.4,1,2.4,1c0.9,0,1.7-0.2,2.4-0.7v1.4L158.2,437.9L158.2,437.9z"/>
	<path d="M165.5,438.3h-5.4v-9.8h1.6v8.4h3.8L165.5,438.3L165.5,438.3z"/>
	<path d="M168.6,438.3h-1.7v-9.8h1.7V438.3z"/>
	<path d="M172.3,436.7l-1.1,3.4H170l0.8-3.4H172.3z"/>
	<path d="M179.8,434.7v3.6h-1.6v-9.8h3c1.1,0,2,0.3,2.6,0.8s0.9,1.3,0.9,2.2s-0.3,1.7-1,2.3s-1.5,0.9-2.6,0.9H179.8z M179.8,429.8
		v3.6h1.1c0.7,0,1.2-0.2,1.6-0.5s0.5-0.8,0.5-1.4c0-1.2-0.7-1.7-2-1.7H179.8z"/>
	<path d="M188.8,438.5c-1.1,0-1.9-0.3-2.6-1c-0.6-0.7-1-1.5-1-2.6c0-1.2,0.3-2.1,1-2.8c0.7-0.7,1.6-1,2.7-1c1.1,0,1.9,0.3,2.6,1
		s0.9,1.5,0.9,2.7c0,1.1-0.3,2-1,2.7C190.8,438.1,190,438.5,188.8,438.5z M188.9,432.4c-0.6,0-1.1,0.2-1.5,0.6s-0.5,1-0.5,1.8
		c0,0.7,0.2,1.3,0.5,1.7c0.4,0.4,0.9,0.6,1.5,0.6s1.1-0.2,1.4-0.6c0.3-0.4,0.5-1,0.5-1.8s-0.2-1.4-0.5-1.8
		C190,432.6,189.5,432.4,188.9,432.4z"/>
	<path d="M203.5,431.3l-2.1,7h-1.7l-1.3-4.7c0-0.2-0.1-0.4-0.1-0.6l0,0c0,0.2,0,0.4-0.1,0.6l-1.4,4.8h-1.6l-2.1-7h1.6l1.3,5
		c0,0.2,0.1,0.4,0.1,0.6l0,0c0-0.2,0-0.4,0.1-0.6l1.4-5h1.5l1.3,5.1c0,0.2,0.1,0.4,0.1,0.6l0,0c0-0.2,0-0.4,0.1-0.6l1.2-5.1
		L203.5,431.3L203.5,431.3z"/>
	<path d="M210.6,435.2h-4.8c0,0.6,0.2,1.1,0.6,1.5c0.4,0.4,0.9,0.5,1.6,0.5c0.7,0,1.4-0.2,2.1-0.7v1.3c-0.6,0.4-1.5,0.6-2.5,0.6
		s-1.8-0.3-2.4-1c-0.6-0.6-0.9-1.5-0.9-2.7c0-1.1,0.3-2,1-2.7c0.6-0.7,1.4-1,2.4-1s1.7,0.3,2.2,0.9s0.8,1.5,0.8,2.6v0.7L210.6,435.2
		L210.6,435.2z M209,434.1c0-0.6-0.1-1-0.4-1.3c-0.3-0.3-0.6-0.5-1.1-0.5s-0.8,0.2-1.2,0.5c-0.3,0.3-0.5,0.8-0.6,1.3H209z"/>
	<path d="M216.1,432.8c-0.2-0.2-0.5-0.2-0.8-0.2c-0.5,0-0.9,0.2-1.2,0.6s-0.5,1-0.5,1.7v3.3H212v-7h1.6v1.4l0,0
		c0.2-0.5,0.4-0.9,0.7-1.2c0.3-0.3,0.7-0.4,1.1-0.4c0.3,0,0.5,0,0.7,0.1V432.8z"/>
	<path d="M217,437.9v-1.7c0.2,0.1,0.3,0.3,0.5,0.4s0.4,0.2,0.7,0.3c0.2,0.1,0.5,0.1,0.7,0.2s0.4,0.1,0.6,0.1c0.7,0,1.2-0.1,1.5-0.3
		c0.3-0.2,0.5-0.6,0.5-1c0-0.2-0.1-0.4-0.2-0.6c-0.1-0.2-0.3-0.3-0.5-0.5s-0.4-0.3-0.7-0.4s-0.6-0.3-0.9-0.4
		c-0.3-0.2-0.6-0.4-0.9-0.5s-0.5-0.4-0.7-0.6s-0.4-0.5-0.5-0.7c-0.1-0.3-0.2-0.6-0.2-1c0-0.5,0.1-0.9,0.3-1.2
		c0.2-0.3,0.5-0.6,0.8-0.8c0.3-0.2,0.7-0.4,1.2-0.5c0.4-0.1,0.9-0.2,1.3-0.2c1,0,1.8,0.1,2.2,0.3v1.6c-0.6-0.4-1.3-0.6-2.1-0.6
		c-0.2,0-0.5,0-0.7,0.1c-0.2,0-0.5,0.1-0.6,0.2c-0.2,0.1-0.3,0.2-0.5,0.4s-0.2,0.4-0.2,0.6s0,0.4,0.1,0.6s0.2,0.3,0.4,0.4
		s0.4,0.3,0.6,0.4c0.3,0.1,0.5,0.3,0.9,0.4c0.3,0.2,0.7,0.4,1,0.6s0.6,0.4,0.8,0.6s0.4,0.5,0.5,0.8s0.2,0.6,0.2,1
		c0,0.5-0.1,0.9-0.3,1.3s-0.5,0.6-0.8,0.8c-0.3,0.2-0.7,0.4-1.2,0.5s-0.9,0.1-1.4,0.1c-0.2,0-0.4,0-0.6,0c-0.2,0-0.5-0.1-0.7-0.1
		c-0.3,0-0.5-0.1-0.7-0.2S217.1,438,217,437.9z"/>
	<path d="M231.1,438.3h-1.6v-3.8c0-1.4-0.5-2.1-1.4-2.1c-0.5,0-0.9,0.2-1.2,0.6s-0.5,0.9-0.5,1.5v3.8h-1.6v-10.4h1.6v4.5l0,0
		c0.5-0.9,1.3-1.3,2.3-1.3c1.6,0,2.3,1,2.3,2.9L231.1,438.3L231.1,438.3z"/>
	<path d="M238.9,435.2h-4.8c0,0.6,0.2,1.1,0.6,1.5c0.4,0.4,0.9,0.5,1.6,0.5c0.7,0,1.4-0.2,2.1-0.7v1.3c-0.6,0.4-1.5,0.6-2.5,0.6
		s-1.8-0.3-2.4-1c-0.6-0.6-0.9-1.5-0.9-2.7c0-1.1,0.3-2,1-2.7c0.6-0.7,1.4-1,2.4-1s1.7,0.3,2.2,0.9s0.8,1.5,0.8,2.6v0.7L238.9,435.2
		L238.9,435.2z M237.4,434.1c0-0.6-0.1-1-0.4-1.3c-0.3-0.3-0.6-0.5-1.1-0.5s-0.8,0.2-1.2,0.5c-0.3,0.3-0.5,0.8-0.6,1.3H237.4z"/>
	<path d="M242,438.3h-1.6v-10.4h1.6V438.3z"/>
	<path d="M245.7,438.3h-1.6v-10.4h1.6V438.3z"/>
</g>
<g>
	
		<line style="fill:none;stroke:#DFDFDE;stroke-width:4;stroke-linecap:round;stroke-linejoin:round;stroke-miterlimit:10;" x1="46.4" y1="274" x2="46.4" y2="-103"/>
</g>
<g>
	
		<line style="fill:none;stroke:#DFDFDE;stroke-width:4;stroke-linecap:round;stroke-linejoin:round;stroke-miterlimit:10;" x1="96" y1="274" x2="46.4" y2="274"/>
	
		<circle style="fill:none;stroke:#DFDFDE;stroke-width:4;stroke-linecap:round;stroke-linejoin:round;stroke-miterlimit:10;" cx="101.5" cy="274" r="5"/>
</g>
</svg>
