<?xml version="1.0" encoding="utf-8"?>
<!-- Generator: Adobe Illustrator 19.2.0, SVG Export Plug-In . SVG Version: 6.00 Build 0)  -->
<svg version="1.1" class="Layer_1" xmlns="http://www.w3.org/2000/svg" xmlns:xlink="http://www.w3.org/1999/xlink" x="0px" y="0px"
	 viewBox="0 0 960 381.3" style="enable-background:new 0 0 960 381.3;" xml:space="preserve">
<g class="icons-group">
	<g class="icons icons-A">
		<g class="button">
		<rect x="423" y="110" style="fill:#FFFFFF;" width="105" height="149"/>
		<path class="text" d="M504.2,231.8c-0.7,0.4-1.5,0.7-2.4,0.7c-1,0-1.8-0.3-2.4-1c-0.6-0.6-0.9-1.5-0.9-2.6s0.3-2,1-2.7
			s1.5-1,2.6-1c0.8,0,1.5,0.2,2.2,0.6v-1.6c-0.6-0.3-1.4-0.4-2.3-0.4c-1.5,0-2.7,0.5-3.6,1.4s-1.4,2.2-1.4,3.8
			c0,1.5,0.4,2.6,1.3,3.5s2,1.3,3.4,1.3c1.1,0,2-0.2,2.7-0.6v-1.4L504.2,231.8L504.2,231.8z M495,223.9h-1.7v9.8h1.7V223.9z
			 M491.7,223.9h-5.3v9.8h1.6v-4.1h3.4v-1.4H488v-2.9h3.6v-1.4H491.7z M484.7,223.9h-5.3v9.8h1.6v-4.1h3.4v-1.4H481v-2.9h3.6v-1.4
			H484.7z M472,229.9l1.3-3.9c0-0.1,0.1-0.4,0.1-0.6l0,0c0,0.3,0.1,0.5,0.1,0.6l1.4,3.9H472z M474.4,223.9h-1.8l-3.7,9.8h1.8
			l0.8-2.5h3.8l0.9,2.5h1.8L474.4,223.9z M464.3,225.2c0.6,0,1,0.1,1.3,0.4s0.4,0.6,0.4,1.1c0,0.3,0,0.5-0.1,0.7s-0.2,0.4-0.4,0.5
			c-0.2,0.1-0.3,0.3-0.5,0.3s-0.4,0.1-0.7,0.1H463v-3.2h1.3V225.2z M467.2,230.9c-0.1-0.2-0.3-0.4-0.4-0.6s-0.2-0.3-0.3-0.4
			c-0.1-0.1-0.2-0.3-0.4-0.4c-0.1-0.1-0.3-0.2-0.5-0.3l0,0c0.3-0.1,0.6-0.2,0.9-0.4c0.3-0.2,0.5-0.4,0.7-0.6s0.3-0.5,0.4-0.8
			s0.2-0.6,0.2-0.9c0-0.4-0.1-0.8-0.2-1.2c-0.2-0.3-0.4-0.6-0.7-0.8c-0.3-0.2-0.6-0.4-1-0.5s-0.8-0.2-1.3-0.2h-3.2v9.8h1.6v-4h0.7
			c0.2,0,0.4,0,0.6,0.1s0.3,0.1,0.5,0.2c0.1,0.1,0.3,0.2,0.4,0.4c0.1,0.2,0.3,0.4,0.4,0.6l1.6,2.6h1.9L467.2,230.9z M459.9,223.9
			h-7.2v1.4h2.8v8.4h1.6v-8.4h2.8L459.9,223.9L459.9,223.9z"/>
		<path class="text" d="M508,242c0.6,0,1,0.1,1.3,0.4s0.4,0.6,0.4,1.1c0,0.3,0,0.5-0.1,0.7s-0.2,0.4-0.4,0.5
			c-0.2,0.1-0.3,0.3-0.5,0.3s-0.4,0.1-0.7,0.1h-1.3v-3.2h1.3L508,242L508,242z M510.9,247.7c-0.1-0.2-0.3-0.4-0.4-0.6
			s-0.2-0.3-0.3-0.4c-0.1-0.1-0.2-0.3-0.4-0.4c-0.1-0.1-0.3-0.2-0.5-0.3l0,0c0.3-0.1,0.6-0.2,0.9-0.4c0.3-0.2,0.5-0.4,0.7-0.6
			s0.3-0.5,0.4-0.8s0.2-0.6,0.2-0.9c0-0.4-0.1-0.8-0.2-1.2c-0.2-0.3-0.4-0.6-0.7-0.8c-0.3-0.2-0.6-0.4-1-0.5s-0.8-0.2-1.3-0.2h-3.2
			v9.8h1.6v-4h0.7c0.2,0,0.4,0,0.6,0.1s0.3,0.1,0.5,0.2c0.1,0.1,0.3,0.2,0.4,0.4c0.1,0.2,0.3,0.4,0.4,0.6l1.6,2.6h1.9L510.9,247.7z
			 M503.3,249h-3.9v-2.9h3.4v-1.4h-3.4v-2.8h3.6v-1.4h-5.3v9.8h5.5L503.3,249L503.3,249z M495.8,245.1h-3.7v1.4h2.1v2.3
			c-0.5,0.3-1.1,0.4-1.7,0.4c-1,0-1.8-0.3-2.3-1s-0.9-1.5-0.9-2.6s0.3-2,1-2.7s1.5-1,2.6-1c1,0,1.9,0.3,2.7,0.7v-1.7
			c-0.7-0.3-1.7-0.5-2.7-0.5c-1.5,0-2.7,0.5-3.7,1.5s-1.5,2.2-1.5,3.7s0.4,2.7,1.3,3.6s2.1,1.3,3.5,1.3c1.2,0,2.4-0.3,3.4-0.8
			L495.8,245.1L495.8,245.1z M480.9,246.6l1.3-3.9c0-0.1,0.1-0.4,0.1-0.6l0,0c0,0.3,0.1,0.5,0.1,0.6l1.4,3.9H480.9z M483.3,240.6
			h-1.8l-3.7,9.8h1.8l0.8-2.5h3.8l0.9,2.5h1.8L483.3,240.6z M476.5,240.6H475v6.3c0,0.6,0,1.1,0.1,1.3l0,0c-0.1-0.1-0.2-0.3-0.4-0.6
			l-4.5-7h-1.9v9.8h1.6V244c0-0.7,0-1.1-0.1-1.3l0,0c0.1,0.2,0.2,0.4,0.3,0.6l4.7,7.2h1.8v-9.9H476.5z M460.9,246.6l1.3-3.9
			c0-0.1,0.1-0.4,0.1-0.6l0,0c0,0.3,0.1,0.5,0.1,0.6l1.4,3.9H460.9z M463.3,240.6h-1.8l-3.7,9.8h1.8l0.8-2.5h3.8l0.9,2.5h1.8
			L463.3,240.6z M456.5,240.6h-2.2l-2.6,6.5c-0.1,0.3-0.2,0.6-0.4,1.1l0,0c-0.1-0.2-0.2-0.6-0.4-1.1l-2.6-6.5H446v9.8h1.5v-6.3
			c0-0.9,0-1.5-0.1-1.9l0,0c0.1,0.4,0.2,0.8,0.3,1l2.9,7.2h1.1l2.9-7.3c0.1-0.2,0.2-0.5,0.3-0.9l0,0c-0.1,0.7-0.1,1.4-0.1,1.9v6.3
			h1.6v-9.8L456.5,240.6L456.5,240.6z"/>
		<polygon class="icon" points="495.8,169.8 490.1,175.8 490.1,158.5 507.7,158.5 501.3,164.5 517.4,180.1 517.4,146.6 494.7,123.2 
			462.7,123.2 456.9,129.2 475.1,148.4 483.2,140 483.2,165.6 458.4,165.6 466.2,157.2 448.2,138.8 440,147.3 440,179.9 
			462.7,203.3 490.7,203.3 469.2,181.5 465,186.1 465,172.7 477.7,172.7 474,176.9 497.1,201.2 511.3,186.5 		"/>
		</g>
		<g class="line">
			
				<line style="fill:none;stroke:#DEDEDE;stroke-width:4;stroke-linejoin:round;stroke-miterlimit:10;" x1="478.4" y1="0" x2="478.4" y2="89.7"/>
			
				<circle style="fill:none;stroke:#DEDEDE;stroke-width:4;stroke-linecap:round;stroke-linejoin:round;stroke-miterlimit:10;" cx="478.4" cy="95.2" r="5"/>
		</g>
	</g>
	<g class="icons icons-B">
		<g class="button">
			<rect x="584" y="298" style="fill:#FFFFFF;" width="90" height="79"/>
			<path class="text" d="M665.9,346.7c2.4,0,3.6,1.1,3.6,3.4c0,1.1-0.3,2-1,2.7s-1.5,0.9-2.7,0.9h-1.3v-7H665.9z M665.6,355.1
				c1.7,0,3-0.5,4-1.4s1.5-2.1,1.5-3.6c0-3.2-1.8-4.8-5.4-4.8h-2.8v9.8H665.6z M655.4,351.3l1.3-3.9c0.1-0.2,0.1-0.4,0.1-0.6l0,0
				c0,0.3,0.1,0.5,0.1,0.6l1.4,3.9H655.4z M657.9,345.3H656l-3.7,9.8h1.8l0.8-2.5h3.9l0.9,2.5h1.8L657.9,345.3z M649.4,347.6
				c0.5,0.6,0.8,1.5,0.8,2.7c0,1.1-0.3,2-0.8,2.7s-1.3,1-2.2,1s-1.6-0.3-2.1-1s-0.8-1.5-0.8-2.6s0.3-2,0.8-2.6s1.3-1,2.2-1
				C648.1,346.6,648.9,346.9,649.4,347.6z M650.6,353.9c0.9-0.9,1.3-2.2,1.3-3.8c0-1.5-0.4-2.7-1.3-3.6s-1.9-1.4-3.3-1.4
				c-1.5,0-2.7,0.5-3.5,1.4s-1.3,2.2-1.3,3.8c0,1.5,0.4,2.7,1.3,3.6s2,1.4,3.4,1.4C648.6,355.3,649.7,354.8,650.6,353.9z
				 M642.1,353.8h-3.8v-8.4h-1.6v9.8h5.4L642.1,353.8L642.1,353.8z M631.1,353.8h-3.9v-2.9h3.4v-1.4h-3.4v-2.8h3.7v-1.4h-5.3v9.8
				h5.5V353.8z M619.8,346.7c0.6,0,1,0.1,1.3,0.4s0.4,0.6,0.4,1.1c0,0.3,0,0.5-0.1,0.7s-0.2,0.4-0.4,0.5s-0.3,0.3-0.6,0.3
				s-0.4,0.1-0.7,0.1h-1.4v-3.2h1.5V346.7z M622.7,352.4c-0.1-0.2-0.3-0.4-0.4-0.6c-0.1-0.2-0.2-0.3-0.4-0.4s-0.2-0.3-0.4-0.4
				c-0.1-0.1-0.3-0.2-0.5-0.3l0,0c0.3-0.1,0.6-0.2,0.9-0.4s0.5-0.4,0.7-0.6s0.3-0.5,0.4-0.8c0.1-0.3,0.2-0.6,0.2-1s-0.1-0.8-0.2-1.2
				c-0.2-0.3-0.4-0.6-0.7-0.8c-0.3-0.2-0.6-0.4-1-0.5s-0.8-0.2-1.3-0.2h-3.2v9.8h1.6v-4h0.7c0.2,0,0.4,0,0.6,0.1s0.3,0.1,0.5,0.2
				s0.3,0.3,0.4,0.4c0.1,0.2,0.3,0.4,0.4,0.6l1.6,2.6h1.9L622.7,352.4z M614.5,345.3h-1.6v5.8c0,1.9-0.7,2.8-2.2,2.8s-2.2-1-2.2-2.9
				v-5.7h-1.6v6c0,2.6,1.2,4,3.7,4c2.6,0,3.9-1.4,3.9-4.1L614.5,345.3L614.5,345.3z M605.5,345.3h-7.2v1.4h5l-5.4,7.7v0.7h7.6v-1.4
				h-5.3l5.4-7.7L605.5,345.3L605.5,345.3z M591.1,351.3l1.3-3.9c0.1-0.2,0.1-0.4,0.1-0.6l0,0c0,0.3,0.1,0.5,0.1,0.6l1.4,3.9H591.1z
				 M593.5,345.3h-1.8l-3.7,9.8h1.8l0.8-2.5h3.9l0.9,2.5h1.8L593.5,345.3z"/>
			<path class="text" d="M660.2,363.7c0.6,0,1,0.1,1.3,0.4s0.4,0.6,0.4,1.1c0,0.3,0,0.5-0.1,0.7s-0.2,0.4-0.4,0.5s-0.3,0.3-0.6,0.3
				s-0.4,0.1-0.7,0.1h-1.4v-3.2h1.5V363.7z M663,369.4c-0.1-0.2-0.3-0.4-0.4-0.6c-0.1-0.2-0.2-0.3-0.4-0.4s-0.2-0.3-0.4-0.4
				c-0.1-0.1-0.3-0.2-0.5-0.3l0,0c0.3-0.1,0.6-0.2,0.9-0.4s0.5-0.4,0.7-0.6s0.3-0.5,0.4-0.8c0.1-0.3,0.2-0.6,0.2-1s-0.1-0.8-0.2-1.2
				c-0.2-0.3-0.4-0.6-0.7-0.8c-0.3-0.2-0.6-0.4-1-0.5s-0.8-0.2-1.3-0.2h-3.2v9.8h1.6v-4h0.7c0.2,0,0.4,0,0.6,0.1s0.3,0.1,0.5,0.2
				s0.3,0.3,0.4,0.4c0.1,0.2,0.3,0.4,0.4,0.6l1.6,2.6h1.9L663,369.4z M655.5,370.8h-3.9v-2.9h3.4v-1.4h-3.4v-2.8h3.7v-1.4H650v9.8
				h5.5V370.8z M648.1,370.2c-0.7,0.4-1.5,0.7-2.4,0.7c-1,0-1.8-0.3-2.4-1c-0.6-0.6-0.9-1.5-0.9-2.6s0.3-2,1-2.7s1.5-1,2.6-1
				c0.8,0,1.5,0.2,2.2,0.6v-1.6c-0.6-0.3-1.4-0.4-2.4-0.4c-1.5,0-2.7,0.5-3.7,1.4s-1.4,2.2-1.4,3.8c0,1.5,0.4,2.6,1.3,3.5
				s2,1.3,3.4,1.3c1.1,0,2-0.2,2.8-0.6L648.1,370.2L648.1,370.2z M638.8,362.3h-1.6v6.3c0,0.6,0,1.1,0.1,1.3l0,0
				c-0.1-0.1-0.2-0.3-0.4-0.6l-4.5-7h-1.9v9.8h1.6v-6.4c0-0.7,0-1.1-0.1-1.3l0,0c0.1,0.2,0.2,0.4,0.3,0.6l4.7,7.2h1.8L638.8,362.3
				L638.8,362.3z M623.1,368.3l1.3-3.9c0.1-0.2,0.1-0.4,0.1-0.6l0,0c0,0.3,0.1,0.5,0.1,0.6l1.4,3.9H623.1z M625.5,362.3h-1.8
				l-3.7,9.8h1.8l0.8-2.5h3.9l0.9,2.5h1.8L625.5,362.3z M619.4,370.8h-3.8v-8.4H614v9.8h5.4V370.8L619.4,370.8z M606.5,368.3
				l1.3-3.9c0.1-0.2,0.1-0.4,0.1-0.6l0,0c0,0.3,0.1,0.5,0.1,0.6l1.4,3.9H606.5z M608.9,362.3h-1.8l-3.7,9.8h1.8l0.8-2.5h3.9l0.9,2.5
				h1.8L608.9,362.3z M598.9,367.7c1.4,0,2.1,0.5,2.1,1.5c0,0.5-0.2,0.9-0.5,1.2c-0.3,0.3-0.8,0.4-1.4,0.4h-1.4v-3.1H598.9z
				 M598.9,363.7c1.1,0,1.7,0.4,1.7,1.3c0,0.5-0.2,0.9-0.5,1.1c-0.3,0.3-0.8,0.4-1.3,0.4h-1.1v-2.8H598.9z M599.2,372.1
				c1,0,1.8-0.3,2.5-0.8s1-1.2,1-2c0-0.7-0.2-1.2-0.6-1.6c-0.4-0.4-0.9-0.7-1.6-0.7l0,0c0.6-0.2,1-0.5,1.3-0.9s0.5-0.9,0.5-1.4
				c0-0.7-0.3-1.2-0.8-1.6s-1.3-0.6-2.3-0.6h-3.1v9.8h3.1L599.2,372.1L599.2,372.1z"/>
			<path class="icon" d="M654.9,333.9l-4.5-28c-0.1-1.2-1.1-1.3-1.4-1.3h-36.9c-0.3,0-1.3,0.1-1.4,1.3l-4.9,28l0,0v0.1v0.1l0,0
				c0,0.2,0,0.3,0,0.5c0,2.1,1.7,2.5,2.1,2.5l0,0h44.9c0.4,0,2.1-0.4,2.1-2.5C655,334.4,655,334.2,654.9,333.9z M639.5,326.8h-5.4
				c-0.4,0-0.8-0.3-0.8-0.8c0-0.4,0.4-0.8,0.8-0.8h2.6l-6.1-6.1v12.3l1.9-1.9c0.3-0.3,0.8-0.3,1.1,0s0.3,0.8,0,1.1l-3.8,3.8
				l-3.8-3.8c-0.2-0.2-0.2-0.4-0.2-0.6s0.1-0.4,0.2-0.6c0.3-0.3,0.8-0.3,1.1,0l2,2v-12.3l-6.1,6.1h2.8c0.4,0,0.8,0.4,0.8,0.8
				s-0.4,0.8-0.8,0.8h-5.4v-5.4c0-0.4,0.3-0.8,0.8-0.8c0.4,0,0.8,0.4,0.8,0.8v2.7l7.2-7.2v-3.8c-1-0.3-1.7-1.3-1.7-2.4
				c0-1.4,1.1-2.5,2.5-2.5s2.5,1.1,2.5,2.5c0,1.1-0.7,2-1.7,2.4v3.8l7.4,7.4v-2.9c0-0.4,0.3-0.8,0.8-0.8s0.8,0.4,0.8,0.8
				L639.5,326.8L639.5,326.8z"/>
		</g>
		<g class="line">
			
				<line style="fill:none;stroke:#DEDEDE;stroke-width:4;stroke-linejoin:round;stroke-miterlimit:10;" x1="694.4" y1="0" x2="694.4" y2="319.3"/>
			
				<circle style="fill:none;stroke:#DEDEDE;stroke-width:4;stroke-linecap:round;stroke-linejoin:round;stroke-miterlimit:10;" cx="674.4" cy="318.2" r="5"/>
			
				<line style="fill:none;stroke:#DEDEDE;stroke-width:4;stroke-linejoin:round;stroke-miterlimit:10;" x1="696.4" y1="317.9" x2="679.2" y2="317.9"/>
		</g>
	</g>
</g>
<g class="static">
	<path style="fill:none;stroke:#DEDEDE;stroke-width:3;stroke-linecap:round;stroke-linejoin:round;stroke-miterlimit:10;" d="
		M327.2,628.1c0,9.4-7.6,17-17,17H201"/>
	<path style="fill:none;stroke:#DEDEDE;stroke-width:3;stroke-linecap:round;stroke-linejoin:round;stroke-miterlimit:10;" d="
		M425.2,239.1h-81c-9.4,0-17,7.6-17,17v125.2"/>
	<path style="fill:none;stroke:#DEDEDE;stroke-width:3;stroke-linecap:round;stroke-linejoin:round;stroke-miterlimit:10;" d="
		M531.9,239.9h81c9.4,0,17,7.6,17,17V295"/>
	
		<line style="fill:none;stroke:#686868;stroke-width:3;stroke-linecap:round;stroke-linejoin:round;stroke-miterlimit:10;" x1="406.7" y1="12.8" x2="448.4" y2="96.1"/>
	
		<line style="fill:none;stroke:#686868;stroke-width:3;stroke-linecap:round;stroke-linejoin:round;stroke-miterlimit:10;" x1="449.3" y1="97.9" x2="452.7" y2="87.3"/>
	
		<line style="fill:none;stroke:#686868;stroke-width:3;stroke-linecap:round;stroke-linejoin:round;stroke-miterlimit:10;" x1="449.3" y1="97.9" x2="438.7" y2="94.3"/>
	
		<line style="fill:none;stroke:#686868;stroke-width:3;stroke-linecap:round;stroke-linejoin:round;stroke-miterlimit:10;" x1="550.7" y1="12.8" x2="509" y2="96.1"/>
	
		<line style="fill:none;stroke:#686868;stroke-width:3;stroke-linecap:round;stroke-linejoin:round;stroke-miterlimit:10;" x1="508.1" y1="97.9" x2="504.7" y2="87.3"/>
	
		<line style="fill:none;stroke:#686868;stroke-width:3;stroke-linecap:round;stroke-linejoin:round;stroke-miterlimit:10;" x1="508.1" y1="97.9" x2="518.6" y2="94.3"/>
	<path style="fill:#00BCF2;" d="M721.9,141.2c0,14.6,3.8,28.3,10.4,40.2h-0.1l72.5,123.2l0.1-0.2c0,0.1,0,0.2,0,0.2s0-0.1,0.1-0.3
		l72.6-122.8h-0.1c6.6-11.9,10.4-25.6,10.4-40.2c0-45.8-37.1-83-83-83C759.1,58.3,721.9,95.4,721.9,141.2z"/>
	<path style="fill:#FFFFFF;" d="M818.4,129.6c-0.3,0-0.6,0.1-0.8,0.4c-0.2,0.3-0.3,0.6-0.4,0.9h2.3
		C819.5,130.1,819.1,129.6,818.4,129.6z"/>
	<path style="fill:#FFFFFF;" d="M791.6,127.5L791.6,127.5c-0.1,0.3-0.1,0.5-0.2,0.8l-1,3h2.3l-1-3
		C791.6,128.1,791.6,127.8,791.6,127.5z"/>
	<path style="fill:#FFFFFF;" d="M836,139.2c0-4.1-3.3-7.3-7.3-7.3c-0.3,0-0.6,0-0.9,0.1c0.5-1.6,0.7-3.4,0.7-5.2
		c0-10.8-8.8-19.6-19.6-19.6c-8.6,0-16,5.6-18.6,13.3c-1.4-0.5-2.8-0.7-4.4-0.7c-7.4,0-13.4,6-13.4,13.4s6,13.4,13.4,13.4l0,0l0,0
		h43.3l0,0C833.1,146.2,836,143.1,836,139.2z M793.8,134.8l-0.6-2H790l-0.6,2h-2.2l3.2-8.9h2.4l3.2,8.9H793.8z M801.9,134.8h-5.7
		V134l3.2-4.1h-2.9v-1.4h5.4v1l-3,3.9h3V134.8z M809,134.8h-2v-1l0,0c-0.5,0.7-1.1,1.1-1.9,1.1c-1.5,0-2.2-0.9-2.2-2.7v-3.7h2v3.7
		c0,0.9,0.4,1.3,1.1,1.3c0.3,0,0.6-0.1,0.8-0.4c0.2-0.2,0.3-0.6,0.3-1v-3.6h2L809,134.8L809,134.8z M814.8,130.2
		c-0.2-0.1-0.5-0.2-0.8-0.2c-0.4,0-0.8,0.2-1,0.5s-0.4,0.7-0.4,1.3v3h-2v-6.3h2v1.2l0,0c0.3-0.9,0.9-1.3,1.7-1.3
		c0.2,0,0.4,0,0.5,0.1V130.2z M821.3,132.2h-4.1c0.1,0.9,0.6,1.4,1.7,1.4c0.7,0,1.3-0.2,1.8-0.5v1.4c-0.6,0.3-1.3,0.5-2.3,0.5
		s-1.8-0.3-2.4-0.9c-0.6-0.6-0.8-1.4-0.8-2.4c0-1.1,0.3-2,1-2.6c0.6-0.5,1.3-0.8,2.1-0.8c1,0,1.7,0.3,2.2,0.9
		c0.5,0.5,0.7,1.3,0.7,2.2L821.3,132.2L821.3,132.2z"/>
	<path style="fill:#FFFFFF;" d="M760.4,151h-1.7l-3.6,8c-0.1,0.3-0.3,0.8-0.6,1.4l0,0c-0.1-0.3-0.3-0.8-0.5-1.4l-3.5-8.1h-1.8v11.6
		h1.3v-7.7c0-1,0-1.8-0.1-2.3l0,0c0.1,0.5,0.2,0.9,0.3,1.2l3.9,8.8h0.7l3.9-8.9c0.1-0.2,0.2-0.6,0.3-1.1l0,0
		c-0.1,0.9-0.1,1.6-0.1,2.2v7.8h1.3V151H760.4z"/>
	<path style="fill:#FFFFFF;" d="M765,154.3h-1.3v8.3h1.3V154.3z M764.9,152c0.2-0.2,0.3-0.4,0.3-0.6s-0.1-0.5-0.3-0.6
		s-0.4-0.2-0.6-0.2c-0.2,0-0.4,0.1-0.6,0.2s-0.2,0.4-0.2,0.6s0.1,0.5,0.2,0.6s0.4,0.2,0.6,0.2C764.6,152.2,764.8,152.2,764.9,152z"
		/>
	<path style="fill:#FFFFFF;" d="M773.1,160.9c-0.6,0.5-1.3,0.7-2,0.7c-0.9,0-1.5-0.3-2-0.8s-0.8-1.3-0.8-2.3s0.3-1.8,0.8-2.4
		s1.2-0.9,2.1-0.9c0.7,0,1.4,0.2,2,0.6v-1.3c-0.6-0.3-1.2-0.4-1.9-0.4c-1.3,0-2.3,0.4-3.1,1.2s-1.2,1.9-1.2,3.3c0,1.2,0.4,2.2,1.1,3
		c0.7,0.8,1.7,1.1,2.8,1.1c0.9,0,1.6-0.2,2.3-0.6L773.1,160.9L773.1,160.9z"/>
	<path style="fill:#FFFFFF;" d="M779.4,154.3c-0.2-0.1-0.4-0.1-0.8-0.1c-0.5,0-0.9,0.2-1.3,0.5s-0.7,0.8-0.9,1.4l0,0v-1.7h-1.3v8.3
		h1.3v-4.2c0-0.9,0.2-1.6,0.6-2.2c0.4-0.5,0.9-0.8,1.4-0.8c0.4,0,0.8,0.1,1,0.3V154.3z"/>
	<path style="fill:#FFFFFF;" d="M786.9,156.1c0.5,0.6,0.7,1.4,0.7,2.4s-0.2,1.8-0.7,2.4s-1.1,0.8-2,0.8c-0.8,0-1.5-0.3-2-0.8
		c-0.5-0.6-0.7-1.3-0.7-2.3s0.2-1.8,0.7-2.4s1.2-0.9,2-0.9C785.8,155.3,786.5,155.5,786.9,156.1z M787.9,161.6
		c0.7-0.8,1.1-1.8,1.1-3.2c0-1.3-0.3-2.4-1-3.1c-0.7-0.8-1.7-1.1-2.9-1.1c-1.3,0-2.3,0.4-3.1,1.2c-0.8,0.8-1.1,1.9-1.1,3.2
		c0,1.3,0.4,2.3,1.1,3.1c0.7,0.8,1.7,1.2,2.9,1.2C786.1,162.8,787.1,162.4,787.9,161.6z"/>
	<path style="fill:#FFFFFF;" d="M793.3,162.8c0.4,0,0.8,0,1.2-0.1s0.7-0.2,1-0.4c0.3-0.2,0.5-0.4,0.7-0.7c0.2-0.3,0.3-0.7,0.3-1.1
		c0-0.3-0.1-0.6-0.2-0.9c-0.1-0.2-0.3-0.5-0.5-0.6s-0.5-0.4-0.7-0.5c-0.3-0.1-0.6-0.3-1-0.4c-0.3-0.1-0.5-0.2-0.7-0.3
		c-0.2-0.1-0.4-0.2-0.5-0.3c-0.2-0.1-0.3-0.2-0.3-0.4c-0.1-0.1-0.1-0.3-0.1-0.5s0-0.3,0.1-0.5c0.1-0.1,0.2-0.3,0.3-0.4
		s0.3-0.2,0.5-0.2c0.2-0.1,0.4-0.1,0.7-0.1c0.8,0,1.5,0.2,2.1,0.6v-1.5c-0.6-0.2-1.2-0.4-1.9-0.4c-0.4,0-0.8,0.1-1.2,0.2
		s-0.7,0.3-1,0.5s-0.5,0.5-0.7,0.7c-0.2,0.3-0.3,0.6-0.3,1c0,0.3,0,0.6,0.1,0.8c0.1,0.2,0.2,0.4,0.4,0.6s0.4,0.4,0.7,0.5
		s0.6,0.3,1,0.4c0.3,0.1,0.5,0.2,0.7,0.3c0.2,0.1,0.4,0.2,0.6,0.3c0.2,0.1,0.3,0.3,0.4,0.4c0.1,0.2,0.1,0.3,0.1,0.6
		c0,0.8-0.6,1.2-1.7,1.2c-0.9,0-1.7-0.3-2.4-0.8v1.4C791.7,162.6,792.4,162.8,793.3,162.8z"/>
	<path style="fill:#FFFFFF;" d="M803.4,156.1c0.5,0.6,0.7,1.4,0.7,2.4s-0.2,1.8-0.7,2.4s-1.1,0.8-2,0.8c-0.8,0-1.5-0.3-2-0.8
		c-0.5-0.6-0.7-1.3-0.7-2.3s0.2-1.8,0.7-2.4s1.2-0.9,2-0.9C802.3,155.3,803,155.5,803.4,156.1z M804.4,161.6
		c0.7-0.8,1.1-1.8,1.1-3.2c0-1.3-0.3-2.4-1-3.1c-0.7-0.8-1.7-1.1-2.9-1.1c-1.3,0-2.3,0.4-3.1,1.2c-0.8,0.8-1.1,1.9-1.1,3.2
		c0,1.3,0.4,2.3,1.1,3.1c0.7,0.8,1.7,1.2,2.9,1.2C802.6,162.8,803.6,162.4,804.4,161.6z"/>
	<path style="fill:#FFFFFF;" d="M812.1,150.3c-0.2-0.1-0.6-0.1-1-0.1c-0.7,0-1.4,0.3-1.9,0.8s-0.7,1.2-0.7,2.1v1.3h-1.4v1.1h1.4v7.1
		h1.3v-7.1h1.9v-1.1h-1.9v-1.3c0-1.2,0.5-1.7,1.4-1.7c0.3,0,0.6,0.1,0.9,0.2V150.3z"/>
	<path style="fill:#FFFFFF;" d="M817,161.4c-0.2,0.2-0.5,0.3-0.9,0.3s-0.7-0.1-0.9-0.4s-0.3-0.6-0.3-1.2v-4.6h2.1v-1.1h-2.1V152
		l-1.3,0.4v2h-1.4v1.1h1.4v4.9c0,1.6,0.7,2.4,2.2,2.4c0.5,0,0.9-0.1,1.2-0.3V161.4z"/>
	<path style="fill:#FFFFFF;" d="M826.5,158.1l1.8-4.9c0.1-0.2,0.1-0.4,0.2-0.8l0,0c0.1,0.4,0.1,0.6,0.2,0.8l1.8,4.9H826.5z
		 M829.2,151h-1.4l-4.4,11.6h1.5l1.2-3.2h4.9l1.2,3.2h1.5L829.2,151z"/>
	<polygon style="fill:#FFFFFF;" points="840.5,154.3 834.1,154.3 834.1,155.5 838.5,155.5 833.6,162.2 833.6,162.6 840.4,162.6 
		840.4,161.5 835.6,161.5 840.5,154.7 	"/>
	<path style="fill:#FFFFFF;" d="M849,154.3h-1.3v4.8c0,0.8-0.2,1.4-0.6,1.9c-0.4,0.5-0.9,0.7-1.6,0.7c-1.3,0-2-0.9-2-2.6v-4.7h-1.3
		v4.9c0,2.3,1,3.5,2.9,3.5c1.1,0,2-0.5,2.5-1.5l0,0v1.3h1.3L849,154.3L849,154.3z"/>
	<path style="fill:#FFFFFF;" d="M856.8,154.3c-0.2-0.1-0.4-0.1-0.8-0.1c-0.5,0-0.9,0.2-1.3,0.5s-0.7,0.8-0.9,1.4l0,0v-1.7h-1.3v8.3
		h1.3v-4.2c0-0.9,0.2-1.6,0.6-2.2c0.4-0.5,0.9-0.8,1.4-0.8c0.4,0,0.8,0.1,1,0.3V154.3z"/>
	<path style="fill:#FFFFFF;" d="M858.4,157.7c0.1-0.7,0.4-1.3,0.8-1.7c0.4-0.4,1-0.7,1.6-0.7s1.1,0.2,1.5,0.6s0.5,1,0.6,1.8
		L858.4,157.7L858.4,157.7z M864.2,158.1c0-1.2-0.3-2.2-0.9-2.9s-1.4-1-2.5-1s-2,0.4-2.7,1.2c-0.7,0.8-1.1,1.9-1.1,3.1
		c0,1.4,0.3,2.4,1,3.2s1.6,1.1,2.7,1.1c1.2,0,2.2-0.3,2.9-0.8v-1.2c-0.8,0.6-1.6,0.9-2.6,0.9c-0.8,0-1.5-0.3-1.9-0.8
		c-0.5-0.5-0.7-1.2-0.7-2.1h5.8V158.1z"/>
	<path style="fill:#00BCF2;" d="M71.1,143.8c0,14.6,3.8,28.3,10.4,40.2h-0.1l72.5,123.2l0.1-0.2c0,0.1,0,0.2,0,0.2s0-0.1,0.1-0.3
		L226.7,184h-0.1c6.6-11.9,10.4-25.6,10.4-40.2c0-45.8-37.1-83-83-83C108.2,60.9,71.1,98,71.1,143.8z"/>
	<path style="fill:#FFFFFF;" d="M131.7,173.6H154v-69.2h-22.3V173.6z M150.1,133.6h-6v-6h6V133.6z M135.2,124.7v-6h6v6H135.2z
		 M144.3,124.7v-6h5.9v6H144.3z M144.2,109.8h6v5.9h-6V109.8z M135.3,109.8h5.9v5.9h-5.9V109.8z M135.3,127.6h5.9v6h-5.9V127.6z
		 M150.1,160.5h-6v-5.9h6V160.5z M135.2,151.6v-6h6v6H135.2z M144.3,151.6v-6h5.9v6H144.3z M144.2,136.7h6v6h-6V136.7z M135.3,136.7
		h5.9v6h-5.9V136.7z M135.3,154.6h5.9v6h-5.9V154.6z M172.5,127v-7.1h-3.2V113H167v-6.5h-2v6.5h-2.3v6.9h-3.2v7.1h-2.6v46.6h18.4
		V127H172.5z M165.8,155h-6v-6h6V155z M165.8,136.8h-6v-6h6V136.8z M172.8,145.8h-6v-6h6V145.8z"/>
	<polygon style="fill:#FFFFFF;" points="122.9,193 117.8,193 117.8,188.7 122.3,188.7 122.3,187.4 117.8,187.4 117.8,183.3 
		122.6,183.3 122.6,182 116.4,182 116.4,194.3 122.9,194.3 	"/>
	<path style="fill:#FFFFFF;" d="M132.3,188.9c0-1.2-0.3-2.1-0.8-2.7s-1.2-0.9-2.2-0.9c-1.3,0-2.2,0.6-2.9,1.7l0,0v-1.5H125v8.8h1.4
		v-5c0-0.8,0.2-1.5,0.7-2s1-0.8,1.7-0.8c1.4,0,2,0.9,2,2.8v5h1.4v-5.4H132.3z"/>
	<path style="fill:#FFFFFF;" d="M139.3,193c-0.3,0.2-0.6,0.3-0.9,0.3c-0.5,0-0.8-0.1-1-0.4s-0.3-0.7-0.3-1.3v-4.9h2.2v-1.2h-2.2
		v-2.6l-1.4,0.5v2.1h-1.5v1.2h1.5v5.2c0,1.7,0.8,2.6,2.3,2.6c0.5,0,1-0.1,1.3-0.3L139.3,193L139.3,193z"/>
	<path style="fill:#FFFFFF;" d="M142,189.1c0.1-0.8,0.4-1.4,0.9-1.9s1-0.7,1.7-0.7s1.2,0.2,1.6,0.7c0.4,0.5,0.6,1.1,0.6,1.9H142z
		 M148.1,189.5c0-1.3-0.3-2.4-0.9-3.1c-0.6-0.7-1.5-1.1-2.7-1.1s-2.1,0.4-2.9,1.3s-1.2,2-1.2,3.3c0,1.4,0.4,2.6,1.1,3.4
		c0.7,0.8,1.7,1.2,2.9,1.2c1.3,0,2.3-0.3,3.1-0.8v-1.3c-0.8,0.7-1.7,1-2.7,1c-0.9,0-1.6-0.3-2.1-0.8s-0.8-1.3-0.8-2.3h6.2
		L148.1,189.5L148.1,189.5z"/>
	<path style="fill:#FFFFFF;" d="M154.5,185.5c-0.2-0.1-0.5-0.1-0.8-0.1c-0.5,0-1,0.2-1.4,0.5s-0.7,0.8-0.9,1.4l0,0v-1.8H150v8.8h1.4
		v-4.5c0-1,0.2-1.7,0.6-2.3c0.4-0.6,0.9-0.8,1.5-0.8c0.5,0,0.8,0.1,1.1,0.3v-1.5H154.5z"/>
	<path style="fill:#FFFFFF;" d="M157.9,187.4c0.5-0.6,1.2-0.9,2-0.9s1.4,0.3,1.8,0.8c0.5,0.6,0.7,1.3,0.7,2.3c0,1.2-0.2,2.1-0.7,2.7
		c-0.5,0.7-1.2,1-2,1c-0.7,0-1.3-0.3-1.8-0.8s-0.7-1.1-0.7-1.8v-1.2C157.1,188.6,157.4,187.9,157.9,187.4z M159.8,194.5
		c1.2,0,2.2-0.4,2.9-1.3s1.1-2.1,1.1-3.5c0-1.3-0.3-2.4-1-3.2c-0.6-0.8-1.5-1.2-2.6-1.2c-1.3,0-2.3,0.6-3,1.7l0,0v-1.5h-1.4v12.8
		h1.4V193l0,0C157.8,194,158.7,194.5,159.8,194.5z"/>
	<path style="fill:#FFFFFF;" d="M170.6,185.5c-0.2-0.1-0.5-0.1-0.8-0.1c-0.5,0-1,0.2-1.4,0.5s-0.7,0.8-0.9,1.4l0,0v-1.8H166v8.8h1.4
		v-4.5c0-1,0.2-1.7,0.6-2.3c0.4-0.6,0.9-0.8,1.5-0.8c0.5,0,0.8,0.1,1.1,0.3V185.5z"/>
	<path style="fill:#FFFFFF;" d="M174.7,185.5h-1.4v8.8h1.4V185.5z M174.7,183c0.2-0.2,0.3-0.4,0.3-0.6c0-0.3-0.1-0.5-0.3-0.7
		s-0.4-0.3-0.7-0.3s-0.5,0.1-0.6,0.3c-0.2,0.2-0.3,0.4-0.3,0.7c0,0.3,0.1,0.5,0.3,0.7s0.4,0.3,0.6,0.3
		C174.3,183.3,174.5,183.2,174.7,183z"/>
	<path style="fill:#FFFFFF;" d="M179.5,194.5c0.5,0,0.9-0.1,1.3-0.2c0.4-0.1,0.8-0.3,1.1-0.5s0.6-0.5,0.8-0.8s0.3-0.7,0.3-1.1
		s-0.1-0.7-0.2-0.9s-0.3-0.5-0.5-0.7s-0.5-0.4-0.8-0.5s-0.7-0.3-1-0.5c-0.3-0.1-0.6-0.2-0.8-0.3c-0.2-0.1-0.4-0.2-0.6-0.3
		c-0.2-0.1-0.3-0.3-0.4-0.4c-0.1-0.2-0.1-0.3-0.1-0.6c0-0.2,0-0.4,0.1-0.5c0.1-0.2,0.2-0.3,0.4-0.4s0.3-0.2,0.5-0.3
		c0.2-0.1,0.4-0.1,0.7-0.1c0.8,0,1.6,0.2,2.2,0.6v-1.4c-0.6-0.3-1.3-0.4-2-0.4c-0.4,0-0.8,0.1-1.2,0.2s-0.8,0.3-1.1,0.5
		s-0.6,0.5-0.8,0.8s-0.3,0.7-0.3,1.1c0,0.3,0.1,0.6,0.2,0.9c0.1,0.3,0.2,0.5,0.4,0.7s0.4,0.4,0.7,0.5c0.3,0.2,0.6,0.3,1,0.5
		c0.3,0.1,0.5,0.2,0.8,0.3c0.2,0.1,0.5,0.2,0.6,0.3c0.2,0.1,0.3,0.3,0.4,0.4c0.1,0.2,0.2,0.4,0.2,0.6c0,0.8-0.6,1.2-1.9,1.2
		c-0.9,0-1.8-0.3-2.5-0.8v1.5C177.8,194.3,178.6,194.5,179.5,194.5z"/>
	<path style="fill:#FFFFFF;" d="M185.9,189.1c0.1-0.8,0.4-1.4,0.9-1.9s1-0.7,1.7-0.7s1.2,0.2,1.6,0.7c0.4,0.5,0.6,1.1,0.6,1.9H185.9
		z M192.1,189.5c0-1.3-0.3-2.4-0.9-3.1c-0.6-0.7-1.5-1.1-2.7-1.1s-2.1,0.4-2.9,1.3s-1.2,2-1.2,3.3c0,1.4,0.4,2.6,1.1,3.4
		c0.7,0.8,1.7,1.2,2.9,1.2c1.3,0,2.3-0.3,3.1-0.8v-1.3c-0.8,0.7-1.7,1-2.7,1c-0.9,0-1.6-0.3-2.1-0.8s-0.8-1.3-0.8-2.3h6.2
		L192.1,189.5L192.1,189.5z"/>
	<path style="fill:#DEDEDE;" d="M239.9,376.2c-0.4,0-0.8-0.1-1.2-0.4c-1.3-1-2.6-2-4-2.9c-0.9-0.6-1.1-1.9-0.5-2.8s1.9-1.1,2.8-0.5
		c1.4,1,2.8,2,4.1,3c0.9,0.7,1.1,1.9,0.4,2.8C241.1,375.9,240.5,376.2,239.9,376.2z"/>
	<path style="fill:#DEDEDE;" d="M70.7,374.3c-0.6,0-1.2-0.3-1.6-0.8c-0.6-0.9-0.4-2.1,0.5-2.8c1.4-1,2.8-2,4.2-2.9
		c0.9-0.6,2.2-0.4,2.8,0.6c0.6,0.9,0.4,2.2-0.6,2.8c-1.4,0.9-2.7,1.9-4.1,2.8C71.5,374.2,71.1,374.3,70.7,374.3z"/>
	<path style="fill:#DEDEDE;" d="M228.3,368.3c-0.4,0-0.7-0.1-1-0.3c-1.4-0.8-2.8-1.7-4.2-2.5c-1-0.5-1.3-1.8-0.8-2.7
		c0.5-1,1.8-1.3,2.7-0.8c1.5,0.8,2.9,1.7,4.4,2.6c0.9,0.6,1.2,1.8,0.7,2.7C229.7,368,229,368.3,228.3,368.3z"/>
	<path style="fill:#DEDEDE;" d="M82.4,366.7c-0.7,0-1.4-0.4-1.7-1c-0.6-1-0.2-2.2,0.7-2.7c1.5-0.8,2.9-1.7,4.4-2.5
		c1-0.5,2.2-0.2,2.7,0.8s0.2,2.2-0.8,2.7c-1.4,0.8-2.9,1.6-4.3,2.4C83.1,366.6,82.7,366.7,82.4,366.7z"/>
	<path style="fill:#DEDEDE;" d="M216.1,361.6c-0.3,0-0.6-0.1-0.9-0.2c-1.5-0.7-3-1.4-4.5-2.1c-1-0.4-1.5-1.6-1-2.6
		c0.4-1,1.6-1.5,2.6-1c1.5,0.7,3.1,1.4,4.6,2.1c1,0.5,1.4,1.7,0.9,2.7C217.5,361.2,216.8,361.6,216.1,361.6z"/>
	<path style="fill:#DEDEDE;" d="M94.9,360.3c-0.8,0-1.5-0.4-1.8-1.2c-0.5-1,0-2.2,1-2.6c1.5-0.7,3.1-1.4,4.7-2
		c1-0.4,2.2,0.1,2.6,1.1s-0.1,2.2-1.1,2.6c-1.5,0.6-3,1.3-4.5,2C95.4,360.2,95.1,360.3,94.9,360.3z"/>
	<path style="fill:#DEDEDE;" d="M203.2,356.2c-0.2,0-0.5,0-0.7-0.1c-1.5-0.6-3.1-1.1-4.7-1.6c-1-0.3-1.6-1.5-1.3-2.5
		c0.3-1.1,1.5-1.6,2.5-1.3c1.6,0.5,3.2,1.1,4.8,1.7c1,0.4,1.6,1.5,1.2,2.6C204.8,355.7,204,356.2,203.2,356.2z"/>
	<path style="fill:#DEDEDE;" d="M107.9,355.1c-0.8,0-1.6-0.5-1.9-1.4c-0.4-1,0.2-2.2,1.2-2.5c1.6-0.5,3.2-1.1,4.8-1.6
		c1.1-0.3,2.2,0.3,2.5,1.3c0.3,1.1-0.3,2.2-1.3,2.5c-1.6,0.5-3.1,1-4.7,1.5C108.3,355.1,108.1,355.1,107.9,355.1z"/>
	<path style="fill:#DEDEDE;" d="M189.9,352c-0.2,0-0.3,0-0.5-0.1c-1.6-0.4-3.2-0.8-4.8-1.1c-1.1-0.2-1.8-1.3-1.5-2.4
		c0.2-1.1,1.3-1.8,2.4-1.5c1.6,0.4,3.3,0.8,4.9,1.2c1.1,0.3,1.7,1.4,1.4,2.4C191.6,351.4,190.8,352,189.9,352z"/>
	<path style="fill:#DEDEDE;" d="M121.3,351.2c-0.9,0-1.7-0.6-1.9-1.5c-0.3-1.1,0.4-2.2,1.5-2.4c1.6-0.4,3.3-0.7,5-1.1
		c1.1-0.2,2.1,0.5,2.3,1.6s-0.5,2.1-1.6,2.3c-1.6,0.3-3.2,0.7-4.8,1C121.6,351.2,121.5,351.2,121.3,351.2z"/>
	<path style="fill:#DEDEDE;" d="M176.2,349.2c-0.1,0-0.2,0-0.3,0c-1.6-0.3-3.3-0.5-4.9-0.7c-1.1-0.1-1.9-1.1-1.7-2.2
		c0.1-1.1,1.1-1.9,2.2-1.7c1.7,0.2,3.4,0.4,5,0.7c1.1,0.2,1.8,1.2,1.7,2.3C178,348.5,177.1,349.2,176.2,349.2z"/>
	<path style="fill:#DEDEDE;" d="M135.1,348.7c-1,0-1.8-0.7-2-1.7c-0.1-1.1,0.6-2.1,1.7-2.2c1.7-0.2,3.4-0.4,5-0.6
		c1.1-0.1,2.1,0.7,2.2,1.8c0.1,1.1-0.7,2.1-1.8,2.2c-1.6,0.2-3.3,0.3-4.9,0.6L135.1,348.7z"/>
	<path style="fill:#DEDEDE;" d="M162.3,347.7h-0.1c-1.6-0.1-3.3-0.2-4.9-0.2c-0.7,0-1.2-0.3-1.6-0.8c-0.4,0.5-0.9,0.8-1.6,0.8
		c-1.7,0-3.3,0-4.9,0.1c-1.1,0-2-0.8-2.1-1.9s0.8-2,1.9-2.1c1.7-0.1,3.4-0.1,5.1-0.1c0.7,0,1.3,0.3,1.6,0.8c0.4-0.5,1-0.8,1.6-0.8
		c1.7,0,3.4,0.1,5.1,0.2c1.1,0.1,1.9,1,1.9,2.1C164.2,346.9,163.3,347.7,162.3,347.7z"/>
	<path style="fill:#00BCF2;" d="M711.6,380.5c-0.6,0-1.1-0.2-1.5-0.7c-0.7-0.8-0.6-2.1,0.2-2.8c1.3-1.1,2.6-2.2,3.9-3.3
		c0.9-0.7,2.1-0.6,2.8,0.3s0.6,2.1-0.3,2.8c-1.3,1-2.5,2.1-3.8,3.2C712.5,380.3,712.1,380.5,711.6,380.5z"/>
	<path style="fill:#00BCF2;" d="M894.3,375.5c-0.4,0-0.9-0.1-1.2-0.4c-1.3-1-2.6-2-3.9-3c-0.9-0.7-1.1-1.9-0.4-2.8
		c0.7-0.9,1.9-1.1,2.8-0.4c1.3,1,2.7,2,4,3.1c0.9,0.7,1,1.9,0.3,2.8C895.5,375.3,894.9,375.5,894.3,375.5z"/>
	<path style="fill:#00BCF2;" d="M722.5,371.7c-0.6,0-1.2-0.3-1.6-0.8c-0.6-0.9-0.4-2.1,0.5-2.8c1.4-1,2.8-2,4.2-2.9
		c0.9-0.6,2.2-0.4,2.8,0.6c0.6,0.9,0.4,2.2-0.6,2.8c-1.4,0.9-2.7,1.9-4.1,2.8C723.3,371.6,722.9,371.7,722.5,371.7z"/>
	<path style="fill:#00BCF2;" d="M882.9,367.4c-0.4,0-0.7-0.1-1.1-0.3c-1.4-0.9-2.8-1.8-4.2-2.6c-1-0.6-1.3-1.8-0.7-2.7
		c0.6-1,1.8-1.3,2.7-0.7c1.4,0.9,2.9,1.8,4.3,2.7c0.9,0.6,1.2,1.8,0.6,2.8C884.2,367.1,883.6,367.4,882.9,367.4z"/>
	<path style="fill:#00BCF2;" d="M734.3,364.1c-0.7,0-1.4-0.4-1.7-1c-0.6-1-0.2-2.2,0.7-2.7c1.5-0.8,2.9-1.7,4.4-2.5
		c1-0.5,2.2-0.2,2.7,0.8s0.2,2.2-0.8,2.7c-1.4,0.8-2.9,1.6-4.3,2.4C735,364,734.6,364.1,734.3,364.1z"/>
	<path style="fill:#00BCF2;" d="M870.8,360.4c-0.3,0-0.6-0.1-0.9-0.2c-1.4-0.7-2.9-1.5-4.4-2.2c-1-0.5-1.4-1.7-1-2.7
		c0.5-1,1.7-1.4,2.7-1c1.5,0.7,3.1,1.5,4.5,2.2c1,0.5,1.4,1.7,0.9,2.7C872.3,360.1,871.5,360.4,870.8,360.4z"/>
	<path style="fill:#00BCF2;" d="M746.7,357.7c-0.8,0-1.5-0.4-1.8-1.2c-0.5-1,0-2.2,1-2.6c1.5-0.7,3.1-1.4,4.7-2
		c1-0.4,2.2,0.1,2.6,1.1s-0.1,2.2-1.1,2.6c-1.5,0.6-3,1.3-4.5,2C747.3,357.6,747,357.7,746.7,357.7z"/>
	<path style="fill:#00BCF2;" d="M858.1,354.7c-0.2,0-0.5,0-0.7-0.1c-1.5-0.6-3.1-1.2-4.6-1.7c-1-0.4-1.6-1.5-1.2-2.6
		c0.4-1,1.5-1.6,2.6-1.2c1.6,0.6,3.2,1.2,4.8,1.8c1,0.4,1.5,1.6,1.1,2.6C859.6,354.2,858.9,354.7,858.1,354.7z"/>
	<path style="fill:#00BCF2;" d="M759.7,352.5c-0.8,0-1.6-0.5-1.9-1.4c-0.4-1,0.2-2.2,1.2-2.5c1.6-0.5,3.2-1.1,4.8-1.6
		c1.1-0.3,2.2,0.3,2.5,1.3c0.3,1.1-0.3,2.2-1.3,2.5c-1.6,0.5-3.1,1-4.7,1.5C760.2,352.5,760,352.5,759.7,352.5z"/>
	<path style="fill:#00BCF2;" d="M844.8,350.2c-0.2,0-0.4,0-0.5-0.1c-1.6-0.4-3.2-0.9-4.8-1.3c-1.1-0.3-1.7-1.3-1.5-2.4
		s1.3-1.7,2.4-1.5c1.6,0.4,3.3,0.8,4.9,1.3c1.1,0.3,1.7,1.4,1.4,2.5C846.5,349.7,845.7,350.2,844.8,350.2z"/>
	<path style="fill:#00BCF2;" d="M773.2,348.6c-0.9,0-1.7-0.6-1.9-1.5c-0.3-1.1,0.4-2.2,1.5-2.4c1.6-0.4,3.3-0.7,5-1.1
		c1.1-0.2,2.1,0.5,2.3,1.6s-0.5,2.1-1.6,2.3c-1.6,0.3-3.2,0.7-4.8,1C773.5,348.6,773.4,348.6,773.2,348.6z"/>
	<path style="fill:#00BCF2;" d="M831.2,347.1c-0.1,0-0.2,0-0.4,0c-1.6-0.3-3.3-0.6-4.9-0.8c-1.1-0.2-1.9-1.2-1.7-2.3
		c0.2-1.1,1.2-1.8,2.3-1.7c1.7,0.2,3.3,0.5,5,0.8c1.1,0.2,1.8,1.2,1.6,2.3C833,346.4,832.2,347.1,831.2,347.1z"/>
	<path style="fill:#00BCF2;" d="M787,346.1c-1,0-1.8-0.7-2-1.7c-0.1-1.1,0.6-2.1,1.7-2.2c1.7-0.2,3.4-0.4,5-0.6
		c1.1-0.1,2.1,0.7,2.2,1.8c0.1,1.1-0.7,2.1-1.8,2.2c-1.6,0.2-3.3,0.3-4.9,0.6L787,346.1z"/>
	<path style="fill:#00BCF2;" d="M817.3,345.3h-0.2c-1.6-0.1-3.3-0.2-4.9-0.3c-1.1,0-2-1-1.9-2.1s1-1.9,2.1-1.9
		c1.7,0.1,3.4,0.2,5.1,0.3c1.1,0.1,1.9,1.1,1.8,2.2C819.2,344.5,818.4,345.3,817.3,345.3z"/>
	<path style="fill:#00BCF2;" d="M800.9,345c-1.1,0-2-0.9-2-1.9c0-1.1,0.8-2,1.9-2.1c1.7-0.1,3.4-0.1,5.1-0.1c1.1,0,2,0.9,2,2
		s-0.9,2-2,2C804.3,344.9,802.6,344.9,800.9,345L800.9,345z"/>
	<path style="fill:#DEDEDE;" d="M316.8,356.9c0.4,0.7,0.7,1.5,0.7,2.4c0,1-0.3,1.8-1,2.4c-0.6,0.6-1.5,0.9-2.6,0.9s-2-0.3-2.7-1
		s-1-1.5-1-2.6c0-0.8,0.2-1.5,0.6-2.2h-1.6c-0.3,0.6-0.4,1.4-0.4,2.4c0,1.5,0.5,2.7,1.4,3.7s2.2,1.4,3.8,1.4c1.5,0,2.6-0.4,3.5-1.3
		s1.3-2,1.3-3.4c0-1.1-0.2-2-0.6-2.8h-1.4L316.8,356.9L316.8,356.9z"/>
	<rect x="308.9" y="366.2" style="fill:#DEDEDE;" width="9.8" height="1.7"/>
	<polygon style="fill:#DEDEDE;" points="308.9,369.6 308.9,374.9 318.7,374.9 318.7,373.3 314.6,373.3 314.6,369.9 313.2,369.9 
		313.2,373.3 310.3,373.3 310.3,369.6 308.9,369.6 	"/>
	<polygon style="fill:#00BCF2;" points="818.1,327.6 810.9,320.4 810.1,321.4 816.3,327.6 810.1,333.8 810.9,334.8 	"/>
	<polygon style="fill:#00BCF2;" points="791.6,327.6 798.8,320.4 799.7,321.4 793.4,327.6 799.7,333.8 798.8,334.8 	"/>
	<path style="fill:#00BCF2;" d="M801.7,327.6c0,0.9-0.7,1.6-1.6,1.6c-0.9,0-1.6-0.7-1.6-1.6s0.7-1.6,1.6-1.6
		S801.7,326.7,801.7,327.6z"/>
	<circle style="fill:#00BCF2;" cx="804.9" cy="327.6" r="1.6"/>
	<circle style="fill:#00BCF2;" cx="809.7" cy="327.6" r="1.6"/>
	<text style="font-family:'ArialMT'; font-size:12px;">  </text>
	<text style="font-family:'ArialMT'; font-size:12px;"> </text>
	<text style="font-family:'ArialMT'; font-size:12px;"> </text>
	<path style="fill:#DEDEDE;" d="M245.4,378.5c-0.6,0.7-0.6,1.9,0,2.6h5.9c-1-1-2.1-1.9-3.2-2.8C247.4,377.6,246.1,377.7,245.4,378.5
		z"/>
	<path style="fill:#DEDEDE;" d="M65.1,376.6c-0.7-0.9-1.9-1-2.8-0.3c-1.3,1.1-2.6,2.2-3.9,3.3c-0.4,0.4-0.7,0.9-0.7,1.5h5
		c0.7-0.6,1.4-1.2,2.1-1.7C65.7,378.7,65.8,377.5,65.1,376.6z"/>
	<path style="fill:#00BCF2;" d="M902.5,377.7c-0.8-0.7-2.1-0.6-2.8,0.2s-0.6,2.1,0.2,2.8c0.1,0.1,0.3,0.3,0.4,0.4h5.9
		C905,380,903.8,378.8,902.5,377.7z"/>
	<polygon style="fill:#DEDEDE;" points="314.6,380.3 314.6,376.9 313.2,376.9 313.2,380.3 310.3,380.3 310.3,376.6 308.9,376.6 
		308.9,381.1 318.7,381.1 318.7,380.3 	"/>
</g>
</svg>
