<?xml version="1.0" encoding="utf-8"?>
<!-- Generator: Adobe Illustrator 19.2.0, SVG Export Plug-In . SVG Version: 6.00 Build 0)  -->
<svg version="1.1" class="fullwidth--infographic__3"
	 xmlns="http://www.w3.org/2000/svg" xmlns:xlink="http://www.w3.org/1999/xlink" x="0px" y="0px" viewBox="0 0 960 382.6"
	 style="enable-background:new 0 0 960 382.6;" xml:space="preserve">
<g class="static">
	<path style="fill:none;stroke:#DEDEDE;stroke-width:3;stroke-linecap:round;stroke-linejoin:round;stroke-miterlimit:10;" d="
		M152.5,292.3v27.3c0,9.4,7.6,17,17,17H194h7.9h166.7c9.4,0,17,7.6,17,17v29.1"/>
	<path style="fill:none;stroke:#DEDEDE;stroke-width:3;stroke-linecap:round;stroke-linejoin:round;stroke-miterlimit:10;" d="
		M327.5,0v247.9c0,9.4-7.6,17-17,17H201.3"/>
	<path style="fill:none;stroke:#DEDEDE;stroke-width:3;stroke-linecap:round;stroke-linejoin:round;stroke-miterlimit:10;" d="
		M629.8,0.7v330.1c0,9.4,7.6,17,17,17H756"/>
	<path style="fill:#DEDEDE;" d="M10.9,379.8c-1.1,0-2-0.9-2-2v-5c0-1.1,0.9-2,2-2s2,0.9,2,2v5C12.9,378.9,12,379.8,10.9,379.8z"/>
	<path style="fill:#DEDEDE;" d="M297.1,369c-1.1,0-2-0.9-2-2v-5c0-1.1,0.9-2,2-2s2,0.9,2,2v5C299.1,368.1,298.2,369,297.1,369z"/>
	<path style="fill:#DEDEDE;" d="M10.9,365.8c-1.1,0-2-0.9-2-2v-5c0-1.1,0.9-2,2-2s2,0.9,2,2v5C12.9,364.9,12,365.8,10.9,365.8z"/>
	<path style="fill:#DEDEDE;" d="M297.1,355c-1.1,0-2-0.9-2-2v-5c0-1.1,0.9-2,2-2s2,0.9,2,2v5C299.1,354.1,298.2,355,297.1,355z"/>
	<path style="fill:#DEDEDE;" d="M10.9,351.8c-1.1,0-2-0.9-2-2v-5c0-1.1,0.9-2,2-2s2,0.9,2,2v5C12.9,350.9,12,351.8,10.9,351.8z"/>
	<path style="fill:#DEDEDE;" d="M297.1,341c-1.1,0-2-0.9-2-2v-5c0-1.1,0.9-2,2-2s2,0.9,2,2v5C299.1,340.1,298.2,341,297.1,341z"/>
	<path style="fill:#DEDEDE;" d="M10.9,337.8c-1.1,0-2-0.9-2-2v-5c0-1.1,0.9-2,2-2s2,0.9,2,2v5C12.9,336.9,12,337.8,10.9,337.8z"/>
	<path style="fill:#DEDEDE;" d="M297.1,327c-1.1,0-2-0.9-2-2v-5c0-1.1,0.9-2,2-2s2,0.9,2,2v5C299.1,326.1,298.2,327,297.1,327z"/>
	<path style="fill:#DEDEDE;" d="M10.9,323.8c-1.1,0-2-0.9-2-2v-5c0-1.1,0.9-2,2-2s2,0.9,2,2v5C12.9,322.9,12,323.8,10.9,323.8z"/>
	<path style="fill:#DEDEDE;" d="M297.1,313c-1.1,0-2-0.9-2-2v-5c0-1.1,0.9-2,2-2s2,0.9,2,2v5C299.1,312.1,298.2,313,297.1,313z"/>
	<path style="fill:#DEDEDE;" d="M10.9,309.8c-1.1,0-2-0.9-2-2v-5c0-1.1,0.9-2,2-2s2,0.9,2,2v5C12.9,308.9,12,309.8,10.9,309.8z"/>
	<path style="fill:#DEDEDE;" d="M297.1,299c-1.1,0-2-0.9-2-2v-5c0-1.1,0.9-2,2-2s2,0.9,2,2v5C299.1,298.1,298.2,299,297.1,299z"/>
	<path style="fill:#DEDEDE;" d="M10.9,295.8c-1.1,0-2-0.9-2-2v-5c0-1.1,0.9-2,2-2s2,0.9,2,2v5C12.9,294.9,12,295.8,10.9,295.8z"/>
	<path style="fill:#DEDEDE;" d="M297.1,285c-1.1,0-2-0.9-2-2v-5c0-1.1,0.9-2,2-2s2,0.9,2,2v5C299.1,284.1,298.2,285,297.1,285z"/>
	<path style="fill:#DEDEDE;" d="M10.9,281.8c-1.1,0-2-0.9-2-2v-5c0-1.1,0.9-2,2-2s2,0.9,2,2v5C12.9,280.9,12,281.8,10.9,281.8z"/>
	<path style="fill:#DEDEDE;" d="M297.1,271c-1.1,0-2-0.9-2-2v-5c0-1.1,0.9-2,2-2s2,0.9,2,2v5C299.1,270.1,298.2,271,297.1,271z"/>
	<path style="fill:#DEDEDE;" d="M10.9,267.8c-1.1,0-2-0.9-2-2v-5c0-1.1,0.9-2,2-2s2,0.9,2,2v5C12.9,266.9,12,267.8,10.9,267.8z"/>
	<path style="fill:#DEDEDE;" d="M297.1,257c-1.1,0-2-0.9-2-2v-5c0-1.1,0.9-2,2-2s2,0.9,2,2v5C299.1,256.1,298.2,257,297.1,257z"/>
	<path style="fill:#DEDEDE;" d="M10.9,253.8c-1.1,0-2-0.9-2-2v-5c0-1.1,0.9-2,2-2s2,0.9,2,2v5C12.9,252.9,12,253.8,10.9,253.8z"/>
	<path style="fill:#DEDEDE;" d="M297.1,243c-1.1,0-2-0.9-2-2v-5c0-1.1,0.9-2,2-2s2,0.9,2,2v5C299.1,242.1,298.2,243,297.1,243z"/>
	<path style="fill:#DEDEDE;" d="M10.9,239.8c-1.1,0-2-0.9-2-2v-5c0-1.1,0.9-2,2-2s2,0.9,2,2v5C12.9,238.9,12,239.8,10.9,239.8z"/>
	<path style="fill:#DEDEDE;" d="M297.1,229c-1.1,0-2-0.9-2-2v-5c0-1.1,0.9-2,2-2s2,0.9,2,2v5C299.1,228.1,298.2,229,297.1,229z"/>
	<path style="fill:#DEDEDE;" d="M10.9,225.8c-1.1,0-2-0.9-2-2v-5c0-1.1,0.9-2,2-2s2,0.9,2,2v5C12.9,224.9,12,225.8,10.9,225.8z"/>
	<path style="fill:#DEDEDE;" d="M297.1,215c-1.1,0-2-0.9-2-2v-5c0-1.1,0.9-2,2-2s2,0.9,2,2v5C299.1,214.1,298.2,215,297.1,215z"/>
	<path style="fill:#DEDEDE;" d="M10.9,211.8c-1.1,0-2-0.9-2-2v-5c0-1.1,0.9-2,2-2s2,0.9,2,2v5C12.9,210.9,12,211.8,10.9,211.8z"/>
	<path style="fill:#DEDEDE;" d="M297.1,201c-1.1,0-2-0.9-2-2v-5c0-1.1,0.9-2,2-2s2,0.9,2,2v5C299.1,200.1,298.2,201,297.1,201z"/>
	<path style="fill:#DEDEDE;" d="M10.9,197.8c-1.1,0-2-0.9-2-2v-5c0-1.1,0.9-2,2-2s2,0.9,2,2v5C12.9,196.9,12,197.8,10.9,197.8z"/>
	<path style="fill:#DEDEDE;" d="M297.1,187c-1.1,0-2-0.9-2-2v-5c0-1.1,0.9-2,2-2s2,0.9,2,2v5C299.1,186.1,298.2,187,297.1,187z"/>
	<path style="fill:#DEDEDE;" d="M10.9,183.8c-1.1,0-2-0.9-2-2v-5c0-1.1,0.9-2,2-2s2,0.9,2,2v5C12.9,182.9,12,183.8,10.9,183.8z"/>
	<path style="fill:#DEDEDE;" d="M297.1,173c-1.1,0-2-0.9-2-2v-5c0-1.1,0.9-2,2-2s2,0.9,2,2v5C299.1,172.1,298.2,173,297.1,173z"/>
	<path style="fill:#DEDEDE;" d="M10.9,169.8c-1.1,0-2-0.9-2-2v-5c0-1.1,0.9-2,2-2s2,0.9,2,2v5C12.9,168.9,12,169.8,10.9,169.8z"/>
	<path style="fill:#DEDEDE;" d="M297.1,159c-1.1,0-2-0.9-2-2v-5c0-1.1,0.9-2,2-2s2,0.9,2,2v5C299.1,158.1,298.2,159,297.1,159z"/>
	<path style="fill:#DEDEDE;" d="M10.9,155.8c-1.1,0-2-0.9-2-2v-5c0-1.1,0.9-2,2-2s2,0.9,2,2v5C12.9,154.9,12,155.8,10.9,155.8z"/>
	<path style="fill:#DEDEDE;" d="M297.1,145c-1.1,0-2-0.9-2-2v-5c0-1.1,0.9-2,2-2s2,0.9,2,2v5C299.1,144.1,298.2,145,297.1,145z"/>
	<path style="fill:#DEDEDE;" d="M10.9,141.8c-1.1,0-2-0.9-2-2v-5c0-1.1,0.9-2,2-2s2,0.9,2,2v5C12.9,140.9,12,141.8,10.9,141.8z"/>
	<path style="fill:#DEDEDE;" d="M297.1,131c-1.1,0-2-0.9-2-2v-5c0-1.1,0.9-2,2-2s2,0.9,2,2v5C299.1,130.1,298.2,131,297.1,131z"/>
	<path style="fill:#DEDEDE;" d="M10.9,127.8c-1.1,0-2-0.9-2-2v-5c0-1.1,0.9-2,2-2s2,0.9,2,2v5C12.9,126.9,12,127.8,10.9,127.8z"/>
	<path style="fill:#DEDEDE;" d="M297.1,117c-1.1,0-2-0.9-2-2v-5c0-1.1,0.9-2,2-2s2,0.9,2,2v5C299.1,116.1,298.2,117,297.1,117z"/>
	<path style="fill:#DEDEDE;" d="M10.9,113.8c-1.1,0-2-0.9-2-2v-5c0-1.1,0.9-2,2-2s2,0.9,2,2v5C12.9,112.9,12,113.8,10.9,113.8z"/>
	<path style="fill:#DEDEDE;" d="M297,103c-1.1,0-1.9-0.8-2-1.9c-0.1-1.6-0.2-3.3-0.3-4.9c-0.1-1.1,0.7-2.1,1.8-2.2
		c1.1-0.1,2.1,0.7,2.2,1.8c0.1,1.7,0.2,3.4,0.3,5.1C299,102,298.2,103,297,103L297,103z"/>
	<path style="fill:#DEDEDE;" d="M11.3,99.8h-0.1c-1.1-0.1-1.9-1-1.9-2.1c0.1-1.7,0.3-3.4,0.4-5c0.1-1.1,1.1-1.9,2.2-1.8
		c1.1,0.1,1.9,1.1,1.8,2.2c-0.2,1.6-0.3,3.3-0.4,4.9C13.2,99,12.3,99.8,11.3,99.8z"/>
	<path style="fill:#DEDEDE;" d="M295.6,89.1c-1,0-1.8-0.7-2-1.7c-0.2-1.6-0.5-3.3-0.8-4.9c-0.2-1.1,0.5-2.1,1.6-2.3s2.1,0.5,2.3,1.6
		c0.3,1.7,0.6,3.3,0.8,5c0.2,1.1-0.6,2.1-1.7,2.3C295.8,89.1,295.7,89.1,295.6,89.1z"/>
	<path style="fill:#DEDEDE;" d="M12.9,85.9c-0.1,0-0.2,0-0.3,0c-1.1-0.2-1.8-1.2-1.6-2.3c0.3-1.7,0.6-3.3,0.9-5
		c0.2-1.1,1.3-1.8,2.4-1.6s1.8,1.3,1.6,2.4c-0.3,1.6-0.6,3.2-0.9,4.8C14.7,85.2,13.9,85.9,12.9,85.9z"/>
	<path style="fill:#DEDEDE;" d="M292.9,75.4c-0.9,0-1.7-0.6-1.9-1.5c-0.4-1.6-0.8-3.2-1.3-4.8c-0.3-1.1,0.3-2.2,1.4-2.5
		s2.2,0.3,2.5,1.4c0.5,1.6,0.9,3.3,1.3,4.9c0.3,1.1-0.4,2.2-1.5,2.4C293.3,75.4,293.1,75.4,292.9,75.4z"/>
	<path style="fill:#DEDEDE;" d="M15.9,72.3c-0.2,0-0.3,0-0.5-0.1c-1.1-0.3-1.7-1.4-1.4-2.5c0.4-1.6,0.9-3.3,1.4-4.9
		c0.3-1.1,1.4-1.6,2.5-1.3s1.6,1.4,1.3,2.5c-0.5,1.6-0.9,3.2-1.4,4.7C17.6,71.7,16.8,72.3,15.9,72.3z"/>
	<path style="fill:#DEDEDE;" d="M288.9,62c-0.8,0-1.6-0.5-1.9-1.3c-0.5-1.5-1.1-3.1-1.7-4.6c-0.4-1,0.1-2.2,1.1-2.6
		c1-0.4,2.2,0.1,2.6,1.1c0.6,1.6,1.2,3.2,1.8,4.8c0.4,1-0.2,2.2-1.2,2.6C289.4,61.9,289.2,62,288.9,62z"/>
	<path style="fill:#DEDEDE;" d="M20.2,59c-0.2,0-0.5,0-0.7-0.1c-1-0.4-1.6-1.5-1.2-2.6c0.6-1.6,1.2-3.2,1.9-4.7
		c0.4-1,1.6-1.5,2.6-1.1s1.5,1.6,1.1,2.6c-0.6,1.5-1.2,3-1.8,4.6C21.8,58.5,21,59,20.2,59z"/>
	<path style="fill:#DEDEDE;" d="M283.6,49c-0.8,0-1.5-0.4-1.8-1.2c-0.7-1.5-1.4-3-2.2-4.4c-0.5-1-0.1-2.2,0.9-2.7s2.2-0.1,2.7,0.9
		c0.8,1.5,1.5,3,2.2,4.6c0.5,1,0,2.2-1,2.7C284.2,48.9,283.9,49,283.6,49z"/>
	<path style="fill:#DEDEDE;" d="M25.8,46.1c-0.3,0-0.6-0.1-0.9-0.2c-1-0.5-1.4-1.7-0.9-2.7c0.7-1.5,1.5-3,2.3-4.5
		c0.5-1,1.7-1.3,2.7-0.8s1.3,1.7,0.8,2.7C29,42,28.3,43.5,27.5,45C27.3,45.7,26.6,46.1,25.8,46.1z"/>
	<path style="fill:#DEDEDE;" d="M277.1,36.6c-0.7,0-1.3-0.3-1.7-1c-0.8-1.4-1.7-2.8-2.6-4.2c-0.6-0.9-0.3-2.2,0.6-2.8
		s2.2-0.3,2.8,0.6c0.9,1.4,1.8,2.9,2.7,4.3c0.6,0.9,0.3,2.2-0.7,2.7C277.8,36.5,277.4,36.6,277.1,36.6z"/>
	<path style="fill:#DEDEDE;" d="M32.6,33.9c-0.4,0-0.7-0.1-1.1-0.3c-0.9-0.6-1.2-1.8-0.6-2.8c0.9-1.4,1.8-2.9,2.8-4.2
		c0.6-0.9,1.9-1.2,2.8-0.5c0.9,0.6,1.2,1.9,0.5,2.8c-0.9,1.3-1.8,2.7-2.7,4.1C34,33.6,33.3,33.9,32.6,33.9z"/>
	<path style="fill:#DEDEDE;" d="M269.3,24.9c-0.6,0-1.2-0.3-1.6-0.8c-1-1.3-2-2.6-3-3.9c-0.7-0.9-0.5-2.1,0.3-2.8
		c0.9-0.7,2.1-0.5,2.8,0.3c1,1.3,2.1,2.7,3.1,4c0.7,0.9,0.5,2.1-0.4,2.8C270.1,24.8,269.7,24.9,269.3,24.9z"/>
	<path style="fill:#DEDEDE;" d="M40.6,22.5c-0.4,0-0.9-0.1-1.2-0.4c-0.9-0.7-1-1.9-0.4-2.8c1-1.3,2.1-2.7,3.2-4c0.7-0.9,2-1,2.8-0.3
		c0.9,0.7,1,2,0.3,2.8c-1,1.3-2.1,2.6-3.1,3.9C41.8,22.2,41.2,22.5,40.6,22.5z"/>
	<path style="fill:#DEDEDE;" d="M260.5,14.1c-0.5,0-1.1-0.2-1.5-0.7c-1.1-1.2-2.2-2.4-3.4-3.6c-0.8-0.8-0.7-2.1,0.1-2.8
		c0.8-0.8,2.1-0.7,2.8,0.1c1.2,1.2,2.3,2.5,3.4,3.7c0.7,0.8,0.7,2.1-0.2,2.8C261.4,13.9,261,14.1,260.5,14.1z"/>
	<path style="fill:#DEDEDE;" d="M49.7,11.8c-0.5,0-1-0.2-1.4-0.5c-0.8-0.8-0.8-2-0.1-2.8c1.1-1.2,2.3-2.5,3.5-3.6
		c0.8-0.8,2-0.8,2.8,0s0.8,2,0,2.8c-1.2,1.2-2.3,2.3-3.4,3.5C50.7,11.6,50.2,11.8,49.7,11.8z"/>
	<path style="fill:#00BCF2;" d="M662.8,377.2c-1.1,0-2-0.9-2-2v-5c0-1.1,0.9-2,2-2s2,0.9,2,2v5C664.8,376.3,663.9,377.2,662.8,377.2
		z"/>
	<path style="fill:#00BCF2;" d="M949,369.6c-1.1,0-2-0.9-2-2v-5c0-1.1,0.9-2,2-2s2,0.9,2,2v5C951,368.7,950.1,369.6,949,369.6z"/>
	<path style="fill:#00BCF2;" d="M662.8,363.2c-1.1,0-2-0.9-2-2v-5c0-1.1,0.9-2,2-2s2,0.9,2,2v5C664.8,362.3,663.9,363.2,662.8,363.2
		z"/>
	<path style="fill:#00BCF2;" d="M949,355.6c-1.1,0-2-0.9-2-2v-5c0-1.1,0.9-2,2-2s2,0.9,2,2v5C951,354.7,950.1,355.6,949,355.6z"/>
	<path style="fill:#00BCF2;" d="M662.8,349.2c-1.1,0-2-0.9-2-2v-5c0-1.1,0.9-2,2-2s2,0.9,2,2v5C664.8,348.3,663.9,349.2,662.8,349.2
		z"/>
	<path style="fill:#00BCF2;" d="M949,341.6c-1.1,0-2-0.9-2-2v-5c0-1.1,0.9-2,2-2s2,0.9,2,2v5C951,340.7,950.1,341.6,949,341.6z"/>
	<path style="fill:#00BCF2;" d="M662.8,335.2c-1.1,0-2-0.9-2-2v-5c0-1.1,0.9-2,2-2s2,0.9,2,2v5C664.8,334.3,663.9,335.2,662.8,335.2
		z"/>
	<path style="fill:#00BCF2;" d="M949,327.6c-1.1,0-2-0.9-2-2v-5c0-1.1,0.9-2,2-2s2,0.9,2,2v5C951,326.7,950.1,327.6,949,327.6z"/>
	<path style="fill:#00BCF2;" d="M662.8,321.2c-1.1,0-2-0.9-2-2v-5c0-1.1,0.9-2,2-2s2,0.9,2,2v5C664.8,320.3,663.9,321.2,662.8,321.2
		z"/>
	<path style="fill:#00BCF2;" d="M949,313.6c-1.1,0-2-0.9-2-2v-5c0-1.1,0.9-2,2-2s2,0.9,2,2v5C951,312.7,950.1,313.6,949,313.6z"/>
	<path style="fill:#00BCF2;" d="M662.8,307.2c-1.1,0-2-0.9-2-2v-5c0-1.1,0.9-2,2-2s2,0.9,2,2v5C664.8,306.3,663.9,307.2,662.8,307.2
		z"/>
	<path style="fill:#00BCF2;" d="M949,299.6c-1.1,0-2-0.9-2-2v-5c0-1.1,0.9-2,2-2s2,0.9,2,2v5C951,298.7,950.1,299.6,949,299.6z"/>
	<path style="fill:#00BCF2;" d="M662.8,293.2c-1.1,0-2-0.9-2-2v-5c0-1.1,0.9-2,2-2s2,0.9,2,2v5C664.8,292.3,663.9,293.2,662.8,293.2
		z"/>
	<path style="fill:#00BCF2;" d="M949,285.6c-1.1,0-2-0.9-2-2v-5c0-1.1,0.9-2,2-2s2,0.9,2,2v5C951,284.7,950.1,285.6,949,285.6z"/>
	<path style="fill:#00BCF2;" d="M662.8,279.2c-1.1,0-2-0.9-2-2v-5c0-1.1,0.9-2,2-2s2,0.9,2,2v5C664.8,278.3,663.9,279.2,662.8,279.2
		z"/>
	<path style="fill:#00BCF2;" d="M949,271.6c-1.1,0-2-0.9-2-2v-5c0-1.1,0.9-2,2-2s2,0.9,2,2v5C951,270.7,950.1,271.6,949,271.6z"/>
	<path style="fill:#00BCF2;" d="M662.8,265.2c-1.1,0-2-0.9-2-2v-5c0-1.1,0.9-2,2-2s2,0.9,2,2v5C664.8,264.3,663.9,265.2,662.8,265.2
		z"/>
	<path style="fill:#00BCF2;" d="M949,257.6c-1.1,0-2-0.9-2-2v-5c0-1.1,0.9-2,2-2s2,0.9,2,2v5C951,256.7,950.1,257.6,949,257.6z"/>
	<path style="fill:#00BCF2;" d="M662.8,251.2c-1.1,0-2-0.9-2-2v-5c0-1.1,0.9-2,2-2s2,0.9,2,2v5C664.8,250.3,663.9,251.2,662.8,251.2
		z"/>
	<path style="fill:#00BCF2;" d="M949,243.6c-1.1,0-2-0.9-2-2v-5c0-1.1,0.9-2,2-2s2,0.9,2,2v5C951,242.7,950.1,243.6,949,243.6z"/>
	<path style="fill:#00BCF2;" d="M662.8,237.2c-1.1,0-2-0.9-2-2v-5c0-1.1,0.9-2,2-2s2,0.9,2,2v5C664.8,236.3,663.9,237.2,662.8,237.2
		z"/>
	<path style="fill:#00BCF2;" d="M949,229.6c-1.1,0-2-0.9-2-2v-5c0-1.1,0.9-2,2-2s2,0.9,2,2v5C951,228.7,950.1,229.6,949,229.6z"/>
	<path style="fill:#00BCF2;" d="M662.8,223.2c-1.1,0-2-0.9-2-2v-5c0-1.1,0.9-2,2-2s2,0.9,2,2v5C664.8,222.3,663.9,223.2,662.8,223.2
		z"/>
	<path style="fill:#00BCF2;" d="M949,215.6c-1.1,0-2-0.9-2-2v-5c0-1.1,0.9-2,2-2s2,0.9,2,2v5C951,214.7,950.1,215.6,949,215.6z"/>
	<path style="fill:#00BCF2;" d="M662.8,209.2c-1.1,0-2-0.9-2-2v-5c0-1.1,0.9-2,2-2s2,0.9,2,2v5C664.8,208.3,663.9,209.2,662.8,209.2
		z"/>
	<path style="fill:#00BCF2;" d="M949,201.6c-1.1,0-2-0.9-2-2v-5c0-1.1,0.9-2,2-2s2,0.9,2,2v5C951,200.7,950.1,201.6,949,201.6z"/>
	<path style="fill:#00BCF2;" d="M662.8,195.2c-1.1,0-2-0.9-2-2v-5c0-1.1,0.9-2,2-2s2,0.9,2,2v5C664.8,194.3,663.9,195.2,662.8,195.2
		z"/>
	<path style="fill:#00BCF2;" d="M949,187.6c-1.1,0-2-0.9-2-2v-5c0-1.1,0.9-2,2-2s2,0.9,2,2v5C951,186.7,950.1,187.6,949,187.6z"/>
	<path style="fill:#00BCF2;" d="M662.8,181.2c-1.1,0-2-0.9-2-2v-5c0-1.1,0.9-2,2-2s2,0.9,2,2v5C664.8,180.3,663.9,181.2,662.8,181.2
		z"/>
	<path style="fill:#00BCF2;" d="M949,173.6c-1.1,0-2-0.9-2-2v-5c0-1.1,0.9-2,2-2s2,0.9,2,2v5C951,172.7,950.1,173.6,949,173.6z"/>
	<path style="fill:#00BCF2;" d="M662.8,167.2c-1.1,0-2-0.9-2-2v-5c0-1.1,0.9-2,2-2s2,0.9,2,2v5C664.8,166.3,663.9,167.2,662.8,167.2
		z"/>
	<path style="fill:#00BCF2;" d="M949,159.6c-1.1,0-2-0.9-2-2v-5c0-1.1,0.9-2,2-2s2,0.9,2,2v5C951,158.7,950.1,159.6,949,159.6z"/>
	<path style="fill:#00BCF2;" d="M662.8,153.2c-1.1,0-2-0.9-2-2v-5c0-1.1,0.9-2,2-2s2,0.9,2,2v5C664.8,152.3,663.9,153.2,662.8,153.2
		z"/>
	<path style="fill:#00BCF2;" d="M949,145.6c-1.1,0-2-0.9-2-2v-5c0-1.1,0.9-2,2-2s2,0.9,2,2v5C951,144.7,950.1,145.6,949,145.6z"/>
	<path style="fill:#00BCF2;" d="M662.8,139.2c-1.1,0-2-0.9-2-2v-5c0-1.1,0.9-2,2-2s2,0.9,2,2v5C664.8,138.3,663.9,139.2,662.8,139.2
		z"/>
	<path style="fill:#00BCF2;" d="M949,131.6c-1.1,0-2-0.9-2-2v-5c0-1.1,0.9-2,2-2s2,0.9,2,2v5C951,130.7,950.1,131.6,949,131.6z"/>
	<path style="fill:#00BCF2;" d="M662.8,125.2c-1.1,0-2-0.9-2-2v-5c0-1.1,0.9-2,2-2s2,0.9,2,2v5C664.8,124.3,663.9,125.2,662.8,125.2
		z"/>
	<path style="fill:#00BCF2;" d="M949,117.6c-1.1,0-2-0.9-2-2v-5c0-1.1,0.9-2,2-2s2,0.9,2,2v5C951,116.7,950.1,117.6,949,117.6z"/>
	<path style="fill:#00BCF2;" d="M662.8,111.2c-1.1,0-2-0.9-2-2v-5c0-1.1,0.9-2,2-2s2,0.9,2,2v5C664.8,110.3,663.9,111.2,662.8,111.2
		z"/>
	<path style="fill:#00BCF2;" d="M949,103.6c-1.1,0-2-0.9-2-1.9c0-1.6-0.1-3.3-0.2-4.9c-0.1-1.1,0.8-2,1.9-2.1
		c1.1-0.1,2.1,0.8,2.1,1.9c0.1,1.7,0.2,3.4,0.2,5.1C951,102.7,950.1,103.6,949,103.6L949,103.6z"/>
	<path style="fill:#00BCF2;" d="M663.2,97.2L663.2,97.2c-1.2-0.1-2-1-2-2.1c0.1-1.7,0.3-3.4,0.4-5c0.1-1.1,1.1-1.9,2.2-1.8
		c1.1,0.1,1.9,1.1,1.8,2.2c-0.2,1.6-0.3,3.3-0.4,4.9C665.1,96.4,664.2,97.2,663.2,97.2z"/>
	<path style="fill:#00BCF2;" d="M947.9,89.7c-1,0-1.9-0.7-2-1.8c-0.2-1.6-0.4-3.3-0.7-4.9c-0.2-1.1,0.6-2.1,1.7-2.3
		c1.1-0.2,2.1,0.6,2.3,1.7c0.3,1.7,0.5,3.3,0.7,5c0.1,1.1-0.6,2.1-1.7,2.2L947.9,89.7z"/>
	<path style="fill:#00BCF2;" d="M664.8,83.3c-0.1,0-0.2,0-0.3,0c-1.1-0.2-1.8-1.2-1.6-2.3c0.3-1.7,0.6-3.3,0.9-5
		c0.2-1.1,1.3-1.8,2.4-1.6c1.1,0.2,1.8,1.3,1.6,2.4c-0.3,1.6-0.6,3.2-0.9,4.8C666.6,82.6,665.8,83.3,664.8,83.3z"/>
	<path style="fill:#00BCF2;" d="M945.6,75.9c-0.9,0-1.7-0.6-2-1.6c-0.4-1.6-0.7-3.2-1.2-4.8c-0.3-1.1,0.4-2.2,1.4-2.4
		c1.1-0.3,2.2,0.4,2.4,1.4c0.4,1.6,0.8,3.3,1.2,4.9c0.2,1.1-0.4,2.1-1.5,2.4C945.8,75.9,945.7,75.9,945.6,75.9z"/>
	<path style="fill:#00BCF2;" d="M667.8,69.7c-0.2,0-0.3,0-0.5-0.1c-1.1-0.3-1.7-1.4-1.4-2.5c0.4-1.6,0.9-3.3,1.4-4.9
		c0.3-1.1,1.4-1.6,2.5-1.3s1.6,1.4,1.3,2.5c-0.5,1.6-0.9,3.2-1.4,4.7C669.5,69.1,668.7,69.7,667.8,69.7z"/>
	<path style="fill:#00BCF2;" d="M941.8,62.4c-0.8,0-1.6-0.5-1.9-1.4c-0.5-1.6-1.1-3.1-1.6-4.7c-0.4-1,0.1-2.2,1.2-2.6
		c1-0.4,2.2,0.1,2.6,1.2c0.6,1.6,1.1,3.2,1.7,4.8c0.3,1-0.2,2.2-1.3,2.5C942.3,62.4,942.1,62.4,941.8,62.4z"/>
	<path style="fill:#00BCF2;" d="M672.1,56.3c-0.2,0-0.5,0-0.7-0.1c-1-0.4-1.6-1.5-1.2-2.6c0.6-1.6,1.2-3.2,1.9-4.7
		c0.4-1,1.6-1.5,2.6-1.1s1.5,1.6,1.1,2.6c-0.6,1.5-1.2,3-1.8,4.6C673.7,55.9,672.9,56.3,672.1,56.3z"/>
	<path style="fill:#00BCF2;" d="M936.8,49.3c-0.8,0-1.5-0.4-1.8-1.2c-0.7-1.5-1.4-3-2.1-4.5c-0.5-1-0.1-2.2,0.9-2.7s2.2-0.1,2.7,0.9
		c0.7,1.5,1.5,3.1,2.1,4.6c0.4,1,0,2.2-1,2.6C937.4,49.3,937.1,49.3,936.8,49.3z"/>
	<path style="fill:#00BCF2;" d="M677.7,43.5c-0.3,0-0.6-0.1-0.9-0.2c-1-0.5-1.4-1.7-0.9-2.7c0.7-1.5,1.5-3,2.3-4.5
		c0.5-1,1.7-1.3,2.7-0.8s1.3,1.7,0.8,2.7c-0.8,1.4-1.5,2.9-2.3,4.4C679.1,43.1,678.4,43.5,677.7,43.5z"/>
	<path style="fill:#00BCF2;" d="M930.5,36.8c-0.7,0-1.4-0.4-1.7-1c-0.8-1.4-1.6-2.9-2.5-4.3c-0.6-0.9-0.3-2.2,0.7-2.8
		c0.9-0.6,2.2-0.3,2.7,0.7c0.9,1.4,1.7,2.9,2.6,4.4c0.5,1,0.2,2.2-0.8,2.7C931.2,36.7,930.9,36.8,930.5,36.8z"/>
	<path style="fill:#00BCF2;" d="M684.5,31.3c-0.4,0-0.7-0.1-1.1-0.3c-0.9-0.6-1.2-1.8-0.6-2.8c0.9-1.4,1.8-2.9,2.8-4.2
		c0.6-0.9,1.9-1.2,2.8-0.5c0.9,0.6,1.2,1.9,0.5,2.8c-0.9,1.3-1.8,2.7-2.7,4.1C685.8,31,685.2,31.3,684.5,31.3z"/>
	<path style="fill:#00BCF2;" d="M923.1,24.9c-0.6,0-1.3-0.3-1.6-0.9c-0.9-1.3-1.9-2.7-2.9-4c-0.7-0.9-0.5-2.1,0.4-2.8
		s2.1-0.5,2.8,0.4c1,1.3,2,2.7,3,4.1c0.6,0.9,0.4,2.2-0.5,2.8C923.9,24.8,923.5,24.9,923.1,24.9z"/>
	<path style="fill:#00BCF2;" d="M692.5,19.9c-0.4,0-0.9-0.1-1.2-0.4c-0.9-0.7-1-1.9-0.4-2.8c1-1.3,2.1-2.7,3.2-4
		c0.7-0.9,2-1,2.8-0.3c0.9,0.7,1,2,0.3,2.8c-1,1.3-2.1,2.6-3.1,3.9C693.7,19.6,693.1,19.9,692.5,19.9z"/>
	<path style="fill:#00BCF2;" d="M914.5,13.9c-0.6,0-1.1-0.2-1.5-0.7c-1.1-1.3-2.2-2.5-3.3-3.7c-0.7-0.8-0.7-2.1,0.1-2.8
		c0.8-0.7,2.1-0.7,2.8,0.1c1.1,1.2,2.3,2.5,3.4,3.8c0.7,0.8,0.6,2.1-0.2,2.8C915.4,13.7,914.9,13.9,914.5,13.9z"/>
	<path style="fill:#00BCF2;" d="M701.5,9.2c-0.5,0-1-0.2-1.4-0.5c-0.8-0.8-0.8-2-0.1-2.8c1.1-1.2,2.3-2.5,3.5-3.6
		c0.8-0.8,2-0.8,2.8,0s0.8,2,0,2.8c-1.2,1.2-2.3,2.3-3.4,3.5C702.6,9,702.1,9.2,701.5,9.2z"/>
	<path style="fill:#686868;" d="M814.8,12c0.2,0.1,0.5,0.1,0.7,0.2c0.3,0,0.5,0.1,0.7,0.1s0.4,0,0.6,0c0.5,0,1,0,1.4-0.1
		s0.8-0.3,1.2-0.5s0.6-0.5,0.8-0.8s0.3-0.8,0.3-1.3c0-0.4-0.1-0.7-0.2-1c-0.1-0.3-0.3-0.6-0.5-0.8s-0.5-0.5-0.8-0.6s-0.6-0.4-1-0.6
		c-0.3-0.1-0.6-0.3-0.9-0.4c-0.3-0.1-0.5-0.3-0.6-0.4s-0.3-0.3-0.4-0.4S816,5.1,816,4.8c0-0.2,0.1-0.4,0.2-0.6s0.3-0.3,0.5-0.4
		s0.4-0.2,0.6-0.2s0.5-0.1,0.7-0.1c0.9,0,1.6,0.2,2.1,0.6V2.5c-0.5-0.2-1.2-0.3-2.2-0.3c-0.5,0-0.9,0.1-1.3,0.2
		c-0.4,0.1-0.8,0.3-1.2,0.5c-0.3,0.2-0.6,0.5-0.8,0.8s-0.3,0.7-0.3,1.2c0,0.4,0.1,0.7,0.2,1s0.3,0.5,0.5,0.7s0.5,0.4,0.7,0.6
		s0.6,0.4,0.9,0.5c0.3,0.1,0.6,0.3,0.9,0.4c0.3,0.1,0.5,0.3,0.7,0.4s0.4,0.3,0.5,0.5s0.2,0.4,0.2,0.6c0,0.4-0.2,0.8-0.5,1
		s-0.8,0.3-1.5,0.3c-0.2,0-0.4,0-0.6-0.1s-0.5-0.1-0.7-0.2c-0.2-0.1-0.5-0.2-0.7-0.3s-0.4-0.2-0.5-0.4v1.7
		C814.4,11.8,814.6,11.9,814.8,12z M807.3,8.3l1.3-3.9c0.1-0.2,0.1-0.4,0.1-0.6l0,0c0,0.3,0.1,0.5,0.1,0.6l1.4,3.9H807.3z
		 M809.8,2.3H808l-3.7,9.8h1.8l0.8-2.5h3.9l0.9,2.5h1.8L809.8,2.3z M797.9,8.3l1.3-3.9c0.1-0.2,0.1-0.4,0.1-0.6l0,0
		c0,0.3,0.1,0.5,0.1,0.6l1.4,3.9H797.9z M800.4,2.3h-1.8l-3.7,9.8h1.8l0.8-2.5h3.9l0.9,2.5h1.8L800.4,2.3z M793.5,2.3h-1.7v9.8h1.7
		V2.3z"/>
	<path style="fill:#DEDEDE;" d="M314.9,8.4L311,7.1C310.8,7,310.6,7,310.4,7l0,0c0.3,0,0.5-0.1,0.6-0.1l3.9-1.4V8.4z M308.9,5.9v1.8
		l9.8,3.7V9.6l-2.5-0.8V4.9l2.5-0.9V2.2L308.9,5.9z M310.2,16c0-0.6,0.1-1,0.4-1.3s0.6-0.4,1.1-0.4c0.3,0,0.5,0,0.7,0.1
		s0.4,0.2,0.5,0.4s0.3,0.3,0.3,0.6s0.1,0.4,0.1,0.7v1.4h-3.2V16H310.2z M316,13.2c-0.2,0.1-0.4,0.3-0.6,0.4
		c-0.2,0.1-0.3,0.2-0.4,0.4s-0.3,0.2-0.4,0.4c-0.1,0.1-0.2,0.3-0.3,0.5l0,0c-0.1-0.3-0.2-0.6-0.4-0.9s-0.4-0.5-0.6-0.7
		s-0.5-0.3-0.8-0.4c-0.3-0.1-0.6-0.2-1-0.2s-0.8,0.1-1.2,0.2c-0.3,0.2-0.6,0.4-0.8,0.7c-0.2,0.3-0.4,0.6-0.5,1s-0.2,0.8-0.2,1.3v3.2
		h9.8v-1.6h-4v-0.7c0-0.2,0-0.4,0.1-0.6s0.1-0.3,0.2-0.5s0.3-0.3,0.4-0.4c0.2-0.1,0.4-0.3,0.6-0.4l2.6-1.6v-1.8L316,13.2z
		 M308.9,20.5v7.3h1.4V25h8.4v-1.6h-8.4v-2.9H308.9z M310.2,36.3c0-0.6,0.1-1,0.4-1.3s0.6-0.4,1.1-0.4c0.3,0,0.5,0,0.7,0.1
		s0.4,0.2,0.5,0.4s0.3,0.3,0.3,0.6s0.1,0.4,0.1,0.7v1.4h-3.2v-1.5H310.2z M316,33.5c-0.2,0.1-0.4,0.3-0.6,0.4
		c-0.2,0.1-0.3,0.2-0.4,0.4s-0.3,0.2-0.4,0.4c-0.1,0.1-0.2,0.3-0.3,0.5l0,0c-0.1-0.3-0.2-0.6-0.4-0.9s-0.4-0.5-0.6-0.7
		s-0.5-0.3-0.8-0.4c-0.3-0.1-0.6-0.2-1-0.2s-0.8,0.1-1.2,0.2c-0.3,0.2-0.6,0.4-0.8,0.7c-0.2,0.3-0.4,0.6-0.5,1s-0.2,0.8-0.2,1.3v3.2
		h9.8v-1.6h-4v-0.7c0-0.2,0-0.4,0.1-0.6s0.1-0.3,0.2-0.5s0.3-0.3,0.4-0.4c0.2-0.1,0.4-0.3,0.6-0.4l2.6-1.6v-1.9L316,33.5z
		 M314.9,46.8l-3.9-1.3c-0.2-0.1-0.4-0.1-0.6-0.1l0,0c0.3,0,0.5-0.1,0.6-0.1l3.9-1.4V46.8z M308.9,44.3v1.8l9.8,3.7V48l-2.5-0.8
		v-3.9l2.5-0.9v-1.8L308.9,44.3z M317.3,50.5v3.8h-8.4v1.6h9.8v-5.4H317.3z M308.9,58.2v1.6h5.8c1.9,0,2.8,0.7,2.8,2.2
		s-1,2.2-2.9,2.2h-5.7v1.6h6c2.6,0,4-1.2,4-3.7c0-2.6-1.4-3.9-4.1-3.9L308.9,58.2L308.9,58.2z M313.4,67.9v3.7h1.4v-2.1h2.3
		c0.3,0.5,0.4,1.1,0.4,1.8c0,1-0.3,1.8-1,2.3c-0.6,0.6-1.5,0.9-2.7,0.9c-1.1,0-2-0.3-2.7-1s-1-1.5-1-2.6c0-1,0.3-1.9,0.8-2.7h-1.7
		c-0.3,0.7-0.5,1.7-0.5,2.7c0,1.5,0.5,2.8,1.5,3.7c1,1,2.2,1.5,3.7,1.5s2.7-0.4,3.6-1.3s1.4-2.1,1.4-3.5c0-1.3-0.3-2.4-0.8-3.4
		H313.4z M317.3,77.3v3.9h-2.9v-3.4H313v3.4h-2.8v-3.7h-1.4v5.3h9.8v-5.5H317.3z M310.2,88.5c0-0.6,0.1-1,0.4-1.3s0.6-0.4,1.1-0.4
		c0.3,0,0.5,0,0.7,0.1s0.4,0.2,0.5,0.4s0.3,0.3,0.3,0.6s0.1,0.4,0.1,0.7V90h-3.2v-1.5H310.2z M316,85.7c-0.2,0.1-0.4,0.3-0.6,0.4
		c-0.2,0.1-0.3,0.2-0.4,0.4s-0.3,0.2-0.4,0.4c-0.1,0.1-0.2,0.3-0.3,0.5l0,0c-0.1-0.3-0.2-0.6-0.4-0.9s-0.4-0.5-0.6-0.7
		s-0.5-0.3-0.8-0.4c-0.3-0.1-0.6-0.2-1-0.2s-0.8,0.1-1.2,0.2c-0.3,0.2-0.6,0.4-0.8,0.7c-0.2,0.3-0.4,0.6-0.5,1s-0.2,0.8-0.2,1.3v3.2
		h9.8V90h-4v-0.7c0-0.2,0-0.4,0.1-0.6s0.1-0.3,0.2-0.5s0.3-0.3,0.4-0.4c0.2-0.1,0.4-0.3,0.6-0.4l2.6-1.6v-1.9L316,85.7z"/>
	<path style="fill:#686868;" d="M847,175.2c0.6,0,1,0.1,1.3,0.4s0.4,0.6,0.4,1.1c0,0.3,0,0.5-0.1,0.7s-0.2,0.4-0.4,0.5
		s-0.3,0.3-0.6,0.3s-0.4,0.1-0.7,0.1h-1.4v-3.2h1.5V175.2z M849.9,180.9c-0.1-0.2-0.3-0.4-0.4-0.6c-0.1-0.2-0.2-0.3-0.4-0.4
		s-0.2-0.3-0.4-0.4c-0.1-0.1-0.3-0.2-0.5-0.3l0,0c0.3-0.1,0.6-0.2,0.9-0.4s0.5-0.4,0.7-0.6c0.2-0.2,0.3-0.5,0.4-0.8
		c0.1-0.3,0.2-0.6,0.2-1s-0.1-0.8-0.2-1.2c-0.2-0.3-0.4-0.6-0.7-0.8s-0.6-0.4-1-0.5s-0.8-0.2-1.3-0.2H844v9.8h1.6v-4h0.7
		c0.2,0,0.4,0,0.6,0.1s0.3,0.1,0.5,0.2s0.3,0.3,0.4,0.4c0.1,0.2,0.3,0.4,0.4,0.6l1.6,2.6h1.9L849.9,180.9z M842.3,182.3h-3.9v-2.9
		h3.4V178h-3.4v-2.8h3.7v-1.4h-5.3v9.8h5.5V182.3z M833.8,173.8l-2.5,7.4c-0.1,0.3-0.2,0.6-0.2,0.8l0,0c0-0.3-0.1-0.6-0.2-0.8
		l-2.4-7.4h-1.8l3.5,9.8h1.8l3.5-9.8H833.8z M823.5,176.1c0.5,0.6,0.8,1.5,0.8,2.7c0,1.1-0.3,2-0.8,2.7s-1.3,1-2.2,1s-1.6-0.3-2.1-1
		s-0.8-1.5-0.8-2.6s0.3-2,0.8-2.6s1.3-1,2.2-1C822.3,175.1,823,175.4,823.5,176.1z M824.7,182.4c0.9-0.9,1.3-2.2,1.3-3.8
		c0-1.5-0.4-2.7-1.3-3.6s-1.9-1.4-3.3-1.4c-1.5,0-2.7,0.5-3.5,1.4s-1.3,2.2-1.3,3.8c0,1.5,0.4,2.7,1.3,3.6s2,1.4,3.4,1.4
		C822.7,183.8,823.8,183.3,824.7,182.4z M816.2,182.3h-3.8v-8.4h-1.6v9.8h5.4L816.2,182.3L816.2,182.3z M808.4,173.8h-1.7v9.8h1.7
		V173.8z M799.3,179.8l1.3-3.9c0.1-0.2,0.1-0.4,0.1-0.6l0,0c0,0.3,0.1,0.5,0.1,0.6l1.4,3.9H799.3z M801.7,173.8h-1.8l-3.7,9.8h1.8
		l0.8-2.5h3.9l0.9,2.5h1.8L801.7,173.8z M796.4,173.8h-5.3v9.8h1.6v-4.1h3.4v-1.4h-3.4v-2.9h3.7V173.8z M781.9,175.2
		c1.3,0,2,0.6,2,1.7c0,0.6-0.2,1-0.5,1.4s-0.9,0.5-1.6,0.5h-1.1v-3.6L781.9,175.2L781.9,175.2z M782,180.1c1.1,0,2-0.3,2.6-0.9
		s1-1.4,1-2.3s-0.3-1.7-0.9-2.2s-1.5-0.8-2.6-0.8h-3v9.8h1.6v-3.6H782z M773.7,175.2c1.3,0,2,0.6,2,1.7c0,0.6-0.2,1-0.5,1.4
		s-0.9,0.5-1.6,0.5h-1.1v-3.6L773.7,175.2L773.7,175.2z M773.8,180.1c1.1,0,2-0.3,2.6-0.9s1-1.4,1-2.3s-0.3-1.7-0.9-2.2
		s-1.5-0.8-2.6-0.8h-3v9.8h1.6v-3.6H773.8z M763.5,179.8l1.3-3.9c0.1-0.2,0.1-0.4,0.1-0.6l0,0c0,0.3,0.1,0.5,0.1,0.6l1.4,3.9H763.5z
		 M765.9,173.8h-1.8l-3.7,9.8h1.8l0.8-2.5h3.9l0.9,2.5h1.8L765.9,173.8z"/>
	<rect x="714.6" y="108.3" style="fill:#686868;" width="181.5" height="34.3"/>
	<path style="fill:#686868;" d="M768.4,69.4c0-14.9-12.1-26.9-26.9-26.9s-26.9,12.1-26.9,26.9v0.1l0,0v28.8h53.8L768.4,69.4
		L768.4,69.4L768.4,69.4z"/>
	<path style="fill:#686868;" d="M832.2,69.4c0-14.9-12.1-26.9-26.9-26.9s-26.9,12.1-26.9,26.9v0.1l0,0v28.8h53.8L832.2,69.4
		L832.2,69.4L832.2,69.4z"/>
	<path style="fill:#686868;" d="M896.1,69.4c0-14.9-12.1-26.9-26.9-26.9s-26.9,12.1-26.9,26.9v0.1l0,0v28.8h53.8L896.1,69.4
		L896.1,69.4L896.1,69.4z"/>
	<path style="fill:#FFFFFF;" d="M751.3,65.9c1.4,0,2.1,0.5,2.1,1.5c0,0.5-0.2,0.9-0.5,1.2s-0.8,0.4-1.4,0.4h-1.4v-3.1L751.3,65.9
		L751.3,65.9z M751.4,61.8c1.1,0,1.7,0.4,1.7,1.3c0,0.5-0.2,0.9-0.5,1.1c-0.3,0.3-0.8,0.4-1.3,0.4h-1v-2.8H751.4z M751.7,70.3
		c1,0,1.8-0.3,2.5-0.8s1-1.2,1-2c0-0.7-0.2-1.2-0.6-1.6c-0.4-0.4-0.9-0.7-1.6-0.7l0,0c0.6-0.2,1-0.5,1.3-0.9
		c0.3-0.4,0.5-0.9,0.5-1.4c0-0.7-0.3-1.2-0.8-1.6c-0.6-0.4-1.3-0.6-2.2-0.6h-3.1v9.8h3L751.7,70.3L751.7,70.3z M746.8,68.9H743V66
		h3.4v-1.4H743v-2.8h3.6v-1.3h-5.3v9.8h5.5V68.9z M738.3,60.5l-1.7,7.2c-0.1,0.4-0.1,0.7-0.2,0.9l0,0c0-0.3-0.1-0.6-0.1-0.9
		l-1.8-7.2h-1.7l-2,7.1c-0.1,0.4-0.2,0.7-0.2,0.9l0,0c0-0.3-0.1-0.6-0.1-0.9l-1.8-7.1h-1.8l2.7,9.8h1.9l1.9-6.8
		c0.1-0.3,0.1-0.6,0.2-0.9l0,0c0,0.3,0.1,0.7,0.1,1l1.9,6.8h1.8l2.7-9.8L738.3,60.5L738.3,60.5z"/>
	<path style="fill:#FFFFFF;" d="M756.7,77c-0.3,0.2-0.5,0.4-0.8,0.5c-0.2,0.1-0.5,0.3-0.7,0.4c-0.2,0.1-0.5,0.2-0.7,0.3
		s-0.5,0.2-0.8,0.3v1.3c0.4-0.1,0.8-0.2,1.1-0.4c0.3-0.1,0.6-0.3,0.9-0.5v8h1.6v-10h-0.6V77z M745.2,78.6c1.3,0,2,0.6,2,1.7
		c0,0.6-0.2,1-0.5,1.4c-0.4,0.3-0.9,0.5-1.6,0.5h-1v-3.6L745.2,78.6L745.2,78.6z M745.3,83.5c1.1,0,2-0.3,2.6-0.9
		c0.6-0.6,1-1.4,1-2.3s-0.3-1.7-0.9-2.2s-1.5-0.8-2.6-0.8h-3v9.8h1.6v-3.6H745.3z M737,78.6c1.3,0,2,0.6,2,1.7c0,0.6-0.2,1-0.5,1.4
		c-0.4,0.3-0.9,0.5-1.6,0.5h-1v-3.6L737,78.6L737,78.6z M737.2,83.5c1.1,0,2-0.3,2.6-0.9c0.6-0.6,1-1.4,1-2.3s-0.3-1.7-0.9-2.2
		s-1.5-0.8-2.6-0.8h-3v9.8h1.6v-3.6H737.2z M726.9,83.2l1.3-3.9c0-0.1,0.1-0.4,0.1-0.6l0,0c0,0.3,0.1,0.5,0.1,0.6l1.4,3.9H726.9z
		 M729.3,77.3h-1.8l-3.7,9.8h1.8l0.8-2.5h3.8l0.9,2.5h1.8L729.3,77.3z"/>
	<path style="fill:#FFFFFF;" d="M856.1,129.9c0.2-0.2,0.3-0.4,0.3-0.6c0-0.3-0.1-0.5-0.3-0.7s-0.4-0.3-0.7-0.3s-0.5,0.1-0.7,0.3
		s-0.3,0.4-0.3,0.7c0,0.2,0.1,0.5,0.3,0.6s0.4,0.3,0.7,0.3C855.7,130.2,855.9,130.1,856.1,129.9z M852.8,129.9
		c0.2-0.2,0.3-0.4,0.3-0.6c0-0.3-0.1-0.5-0.3-0.7s-0.4-0.3-0.7-0.3s-0.5,0.1-0.7,0.3s-0.3,0.4-0.3,0.7c0,0.2,0.1,0.5,0.3,0.6
		s0.4,0.3,0.7,0.3C852.3,130.2,852.6,130.1,852.8,129.9z M849.4,129.9c0.2-0.2,0.3-0.4,0.3-0.6c0-0.3-0.1-0.5-0.3-0.7
		s-0.4-0.3-0.7-0.3s-0.5,0.1-0.7,0.3s-0.3,0.4-0.3,0.7c0,0.2,0.1,0.5,0.3,0.6s0.4,0.3,0.7,0.3S849.2,130.1,849.4,129.9z
		 M843.4,125.1l3-4.8h-1.8l-1.8,3.3c-0.1,0.2-0.2,0.4-0.3,0.7l0,0c-0.1-0.2-0.2-0.4-0.3-0.7l-1.8-3.3h-2l2.9,4.8l-3.2,4.9h2l2.1-3.6
		c0.1-0.2,0.2-0.4,0.2-0.5l0,0c0.1,0.2,0.1,0.4,0.2,0.5l2,3.6h1.9L843.4,125.1z M837.1,125.8c0-0.9-0.2-1.6-0.6-2.1
		c-0.4-0.5-1-0.7-1.7-0.7c-1,0-1.7,0.4-2.3,1.3l0,0v-1.2h-1.6v7h1.6v-4c0-0.5,0.2-1,0.5-1.4s0.7-0.5,1.2-0.5c0.9,0,1.4,0.7,1.4,2
		v3.9h1.6v-4.3H837.1z M828.8,123.1h-1.6v7h1.6V123.1z M828.7,121.4c0.2-0.2,0.3-0.4,0.3-0.6c0-0.3-0.1-0.5-0.3-0.6
		c-0.2-0.2-0.4-0.3-0.7-0.3s-0.5,0.1-0.7,0.3s-0.3,0.4-0.3,0.6c0,0.3,0.1,0.5,0.3,0.6s0.4,0.3,0.7,0.3
		C828.3,121.6,828.5,121.5,828.7,121.4z M823.1,128.4c-0.3,0.4-0.8,0.6-1.3,0.6s-1-0.2-1.3-0.6c-0.3-0.4-0.5-1-0.5-1.6
		c0-0.8,0.2-1.4,0.5-1.9s0.8-0.7,1.4-0.7c0.5,0,0.9,0.2,1.2,0.5s0.5,0.8,0.5,1.3v0.9C823.6,127.5,823.5,128,823.1,128.4z
		 M825.2,123.1h-1.6v1l0,0c-0.4-0.8-1.1-1.1-2-1.1c-1,0-1.7,0.3-2.3,1s-0.8,1.6-0.8,2.8c0,1,0.3,1.9,0.8,2.5s1.2,0.9,2.1,0.9
		c1,0,1.8-0.4,2.4-1.3l0,0v0.8c0,1.6-0.8,2.4-2.5,2.4c-0.7,0-1.4-0.2-2.2-0.7v1.4c0.7,0.3,1.5,0.5,2.4,0.5c2.6,0,3.9-1.3,3.9-3.8
		v-6.4L825.2,123.1L825.2,123.1z M816.6,120.3H815v6.3c0,0.6,0,1.1,0.1,1.3l0,0c-0.1-0.1-0.2-0.3-0.4-0.6l-4.5-7h-1.9v9.8h1.6v-6.4
		c0-0.7,0-1.1-0.1-1.3l0,0c0.1,0.2,0.2,0.4,0.3,0.6l4.7,7.2h1.8L816.6,120.3L816.6,120.3z M801,128.4l-0.7,3.4h1.2l1.1-3.4H801z
		 M794.7,125.9c0.1-0.5,0.3-1,0.6-1.3s0.7-0.5,1.2-0.5s0.8,0.2,1.1,0.5s0.4,0.8,0.4,1.3H794.7z M799.5,126.4c0-1.1-0.3-1.9-0.8-2.5
		s-1.3-0.9-2.2-0.9s-1.7,0.3-2.4,1s-1,1.6-1,2.6c0,1.1,0.3,2,0.9,2.7c0.6,0.6,1.4,0.9,2.4,0.9s1.9-0.2,2.5-0.6v-1.3
		c-0.6,0.4-1.3,0.7-2,0.7s-1.2-0.2-1.6-0.5c-0.4-0.3-0.6-0.8-0.6-1.5h4.7L799.5,126.4L799.5,126.4z M791.7,125.8
		c0-1.9-0.8-2.8-2.3-2.8c-1,0-1.7,0.4-2.3,1.3l0,0v-4.5h-1.6v10.3h1.6v-3.7c0-0.6,0.2-1.1,0.5-1.5s0.7-0.6,1.2-0.6
		c0.9,0,1.4,0.7,1.4,2.1v3.8h1.6v-4.4L791.7,125.8L791.7,125.8z M783.9,128.3c-0.5,0.4-1,0.6-1.6,0.6c-0.7,0-1.2-0.2-1.6-0.6
		c-0.4-0.4-0.6-1-0.6-1.7s0.2-1.3,0.6-1.8s1-0.7,1.6-0.7c0.5,0,1.1,0.2,1.6,0.5v-1.5c-0.5-0.2-1-0.3-1.7-0.3c-1.1,0-2.1,0.3-2.7,1
		s-1,1.6-1,2.8c0,1,0.3,1.9,1,2.5c0.6,0.6,1.5,1,2.5,1c0.8,0,1.4-0.2,2-0.5L783.9,128.3L783.9,128.3z M775.5,127.2
		c0,0.5-0.2,0.9-0.5,1.3c-0.3,0.3-0.7,0.5-1.2,0.5c-0.4,0-0.6-0.1-0.8-0.3s-0.3-0.4-0.3-0.7c0-0.4,0.1-0.7,0.3-0.8
		c0.2-0.2,0.6-0.3,1-0.3l1.5-0.2V127.2z M777,125.5c0-1.7-0.9-2.6-2.6-2.6c-1,0-1.8,0.2-2.5,0.7v1.4c0.7-0.6,1.4-0.9,2.2-0.9
		c0.9,0,1.4,0.5,1.4,1.5l-2.1,0.3c-1.5,0.2-2.3,1-2.3,2.3c0,0.6,0.2,1.1,0.6,1.5s0.9,0.6,1.6,0.6c0.9,0,1.6-0.4,2.1-1.3l0,0v1.1h1.5
		L777,125.5L777,125.5z M765.5,124.8c0.3-0.4,0.8-0.6,1.4-0.6c0.5,0,1,0.2,1.3,0.6s0.5,0.9,0.5,1.6c0,0.8-0.2,1.5-0.5,1.9
		c-0.3,0.5-0.8,0.7-1.4,0.7c-0.5,0-0.9-0.2-1.2-0.5c-0.3-0.4-0.5-0.8-0.5-1.3v-0.9C765,125.7,765.2,125.2,765.5,124.8z M767.1,130.2
		c1,0,1.7-0.3,2.3-1s0.8-1.6,0.8-2.8c0-1-0.2-1.9-0.7-2.5s-1.2-0.9-2.1-0.9c-1,0-1.8,0.5-2.4,1.4l0,0v-1.2h-1.6v10.2h1.6v-4.2l0,0
		C765.5,129.8,766.2,130.2,767.1,130.2z M756.2,126.2l1.3-3.9c0-0.1,0.1-0.4,0.1-0.6l0,0c0,0.3,0.1,0.5,0.1,0.6l1.4,3.9H756.2z
		 M758.6,120.3h-1.8l-3.7,9.8h1.8l0.8-2.5h3.8l0.9,2.5h1.8L758.6,120.3z"/>
	<path style="fill:#FFFFFF;" d="M815.2,65.9c1.4,0,2.1,0.5,2.1,1.5c0,0.5-0.2,0.9-0.5,1.2S816,69,815.4,69H814v-3.1L815.2,65.9
		L815.2,65.9z M815.2,61.8c1.1,0,1.7,0.4,1.7,1.3c0,0.5-0.2,0.9-0.5,1.1c-0.3,0.3-0.8,0.4-1.3,0.4h-1v-2.8H815.2z M815.5,70.3
		c1,0,1.8-0.3,2.5-0.8s1-1.2,1-2c0-0.7-0.2-1.2-0.6-1.6c-0.4-0.4-0.9-0.7-1.6-0.7l0,0c0.6-0.2,1-0.5,1.3-0.9
		c0.3-0.4,0.5-0.9,0.5-1.4c0-0.7-0.3-1.2-0.8-1.6c-0.6-0.4-1.3-0.6-2.2-0.6h-3.1v9.8h3L815.5,70.3L815.5,70.3z M810.7,68.9h-3.9V66
		h3.4v-1.4h-3.4v-2.8h3.6v-1.3h-5.3v9.8h5.5v-1.4L810.7,68.9L810.7,68.9z M802.2,60.5l-1.7,7.2c-0.1,0.4-0.1,0.7-0.2,0.9l0,0
		c0-0.3-0.1-0.6-0.1-0.9l-1.8-7.2h-1.7l-2,7.1c-0.1,0.4-0.2,0.7-0.2,0.9l0,0c0-0.3-0.1-0.6-0.1-0.9l-1.8-7.1h-1.8l2.7,9.8h1.9
		l1.9-6.8c0.1-0.3,0.1-0.6,0.2-0.9l0,0c0,0.3,0.1,0.7,0.1,1l1.9,6.8h1.8l2.7-9.8L802.2,60.5L802.2,60.5z"/>
	<path style="fill:#FFFFFF;" d="M822.7,85.7h-4.4l0,0c0-0.2,0.1-0.4,0.2-0.6c0.1-0.2,0.3-0.4,0.5-0.6c0.2-0.2,0.4-0.4,0.7-0.6
		c0.3-0.2,0.5-0.4,0.8-0.6c0.3-0.3,0.6-0.5,0.8-0.8s0.5-0.5,0.6-0.8c0.2-0.3,0.3-0.6,0.4-0.9c0.1-0.3,0.1-0.7,0.1-1.1
		c0-0.4-0.1-0.8-0.2-1.2c-0.1-0.3-0.3-0.6-0.6-0.8s-0.6-0.4-0.9-0.5c-0.4-0.1-0.8-0.2-1.2-0.2c-0.3,0-0.5,0-0.8,0.1
		c-0.2,0-0.5,0.1-0.7,0.2s-0.4,0.2-0.6,0.3c-0.2,0.1-0.4,0.2-0.6,0.4v1.5c0.4-0.4,0.8-0.7,1.2-0.8c0.4-0.2,0.8-0.3,1.2-0.3
		c0.2,0,0.4,0,0.6,0.1c0.2,0.1,0.4,0.2,0.5,0.3s0.3,0.3,0.3,0.5c0.1,0.2,0.1,0.4,0.1,0.7c0,0.2,0,0.5-0.1,0.7s-0.2,0.4-0.3,0.6
		c-0.1,0.2-0.3,0.4-0.4,0.5c-0.2,0.2-0.4,0.3-0.6,0.5c-0.2,0.2-0.4,0.4-0.7,0.6c-0.2,0.2-0.5,0.4-0.7,0.6c-0.2,0.2-0.4,0.4-0.6,0.6
		c-0.2,0.2-0.4,0.4-0.5,0.7c-0.1,0.2-0.3,0.5-0.3,0.8s-0.1,0.6-0.1,0.9v0.8h6.1v-1.6L822.7,85.7L822.7,85.7z M808,78.6
		c1.3,0,2,0.6,2,1.7c0,0.6-0.2,1-0.5,1.4c-0.4,0.3-0.9,0.5-1.6,0.5h-1v-3.6L808,78.6L808,78.6z M808.1,83.5c1.1,0,2-0.3,2.6-0.9
		c0.6-0.6,1-1.4,1-2.3s-0.3-1.7-0.9-2.2s-1.5-0.8-2.6-0.8h-3v9.8h1.6v-3.6H808.1z M799.8,78.6c1.3,0,2,0.6,2,1.7
		c0,0.6-0.2,1-0.5,1.4c-0.4,0.3-0.9,0.5-1.6,0.5h-1v-3.6L799.8,78.6L799.8,78.6z M799.9,83.5c1.1,0,2-0.3,2.6-0.9
		c0.6-0.6,1-1.4,1-2.3s-0.3-1.7-0.9-2.2s-1.5-0.8-2.6-0.8h-3v9.8h1.6v-3.6H799.9z M789.6,83.2l1.3-3.9c0-0.1,0.1-0.4,0.1-0.6l0,0
		c0,0.3,0.1,0.5,0.1,0.6l1.4,3.9H789.6z M792.1,77.3h-1.8l-3.7,9.8h1.8l0.8-2.5h3.8l0.9,2.5h1.8L792.1,77.3z"/>
	<path style="fill:#FFFFFF;" d="M879,65.9c1.4,0,2.1,0.5,2.1,1.5c0,0.5-0.2,0.9-0.5,1.2s-0.8,0.4-1.4,0.4h-1.4v-3.1L879,65.9
		L879,65.9z M879,61.8c1.1,0,1.7,0.4,1.7,1.3c0,0.5-0.2,0.9-0.5,1.1c-0.3,0.3-0.8,0.4-1.3,0.4h-1v-2.8H879z M879.4,70.3
		c1,0,1.8-0.3,2.5-0.8s1-1.2,1-2c0-0.7-0.2-1.2-0.6-1.6c-0.4-0.4-0.9-0.7-1.6-0.7l0,0c0.6-0.2,1-0.5,1.3-0.9
		c0.3-0.4,0.5-0.9,0.5-1.4c0-0.7-0.3-1.2-0.8-1.6c-0.6-0.4-1.3-0.6-2.2-0.6h-3.1v9.8h3L879.4,70.3L879.4,70.3z M874.5,68.9h-3.9V66
		h3.4v-1.4h-3.4v-2.8h3.6v-1.3H869v9.8h5.5V68.9z M866,60.5l-1.7,7.2c-0.1,0.4-0.1,0.7-0.2,0.9l0,0c0-0.3-0.1-0.6-0.1-0.9l-1.8-7.2
		h-1.7l-2,7.1c-0.1,0.4-0.2,0.7-0.2,0.9l0,0c0-0.3-0.1-0.6-0.1-0.9l-1.8-7.1h-1.8l2.7,9.8h1.9l1.9-6.8c0.1-0.3,0.1-0.6,0.2-0.9l0,0
		c0,0.3,0.1,0.7,0.1,1l1.9,6.8h1.8l2.7-9.8L866,60.5L866,60.5z"/>
	<path style="fill:#FFFFFF;" d="M882.9,87.2c1.1,0,1.9-0.3,2.6-0.8c0.7-0.5,1-1.2,1-2.1c0-0.6-0.2-1.2-0.6-1.6
		c-0.4-0.4-1-0.7-1.7-0.7l0,0c1.3-0.4,2-1.2,2-2.5c0-0.7-0.3-1.2-0.8-1.7c-0.5-0.4-1.2-0.7-2.1-0.7c-0.9,0-1.7,0.2-2.3,0.6v1.4
		c0.6-0.5,1.2-0.7,1.8-0.7c1.2,0,1.8,0.5,1.8,1.4c0,1-0.8,1.6-2.3,1.6h-0.7v1.3h0.8c1.7,0,2.5,0.6,2.5,1.7c0,0.5-0.2,0.9-0.6,1.2
		s-0.9,0.4-1.6,0.4c-0.8,0-1.5-0.3-2.1-0.8v1.5C881.2,87,882,87.2,882.9,87.2z M871.8,78.6c1.3,0,2,0.6,2,1.7c0,0.6-0.2,1-0.5,1.4
		c-0.4,0.3-0.9,0.5-1.6,0.5h-1v-3.6L871.8,78.6L871.8,78.6z M871.9,83.5c1.1,0,2-0.3,2.6-0.9c0.6-0.6,1-1.4,1-2.3s-0.3-1.7-0.9-2.2
		s-1.5-0.8-2.6-0.8h-3v9.8h1.6v-3.6H871.9z M863.7,78.6c1.3,0,2,0.6,2,1.7c0,0.6-0.2,1-0.5,1.4c-0.4,0.3-0.9,0.5-1.6,0.5h-1v-3.6
		L863.7,78.6L863.7,78.6z M863.8,83.5c1.1,0,2-0.3,2.6-0.9c0.6-0.6,1-1.4,1-2.3s-0.3-1.7-0.9-2.2s-1.5-0.8-2.6-0.8h-3v9.8h1.6v-3.6
		H863.8z M853.5,83.2l1.3-3.9c0-0.1,0.1-0.4,0.1-0.6l0,0c0,0.3,0.1,0.5,0.1,0.6l1.4,3.9H853.5z M855.9,77.3h-1.8l-3.7,9.8h1.8
		l0.8-2.5h3.8l0.9,2.5h1.8L855.9,77.3z"/>
	<path style="fill:#686868;" d="M914.3,135.3c-0.2-0.3-0.4-0.5-0.5-0.8s-0.3-0.5-0.4-0.7s-0.2-0.5-0.3-0.7s-0.2-0.5-0.3-0.8h-1.4
		c0.1,0.4,0.2,0.8,0.4,1.1c0.1,0.3,0.3,0.6,0.5,0.9h-8.1v1.6h10L914.3,135.3L914.3,135.3z M914.1,126.2l-7.4-2.5
		c-0.3-0.1-0.6-0.2-0.8-0.2l0,0c0.3,0,0.6-0.1,0.8-0.2l7.4-2.4v-1.8l-9.8,3.5v1.8l9.8,3.5V126.2z M912.8,114.5c0,0.6-0.1,1-0.4,1.3
		s-0.6,0.4-1.1,0.4c-0.3,0-0.5,0-0.7-0.1s-0.4-0.2-0.5-0.4s-0.3-0.3-0.3-0.6s-0.1-0.4-0.1-0.7V113h3.2v1.5H912.8z M907,117.3
		c0.2-0.1,0.4-0.3,0.6-0.4c0.2-0.1,0.3-0.2,0.4-0.4s0.3-0.2,0.4-0.4c0.1-0.1,0.2-0.3,0.3-0.5l0,0c0.1,0.3,0.2,0.6,0.4,0.9
		s0.4,0.5,0.6,0.7c0.2,0.2,0.5,0.3,0.8,0.4c0.3,0.1,0.6,0.2,1,0.2s0.8-0.1,1.2-0.2c0.3-0.2,0.6-0.4,0.8-0.7s0.4-0.6,0.5-1
		s0.2-0.8,0.2-1.3v-3.1h-9.8v1.6h4v0.7c0,0.2,0,0.4-0.1,0.6s-0.1,0.3-0.2,0.5s-0.3,0.3-0.4,0.4c-0.2,0.1-0.4,0.3-0.6,0.4l-2.6,1.6
		v1.9L907,117.3z M904.4,103.9c-0.1,0.2-0.1,0.5-0.2,0.7c0,0.3-0.1,0.5-0.1,0.7s0,0.4,0,0.6c0,0.5,0,1,0.1,1.4s0.3,0.8,0.5,1.2
		s0.5,0.6,0.8,0.8s0.8,0.3,1.3,0.3c0.4,0,0.7-0.1,1-0.2c0.3-0.1,0.6-0.3,0.8-0.5s0.5-0.5,0.6-0.8s0.4-0.6,0.6-1
		c0.1-0.3,0.3-0.6,0.4-0.9c0.1-0.3,0.3-0.5,0.4-0.6s0.3-0.3,0.4-0.4s0.3-0.1,0.6-0.1c0.2,0,0.4,0.1,0.6,0.2s0.3,0.3,0.4,0.5
		s0.2,0.4,0.2,0.6s0.1,0.5,0.1,0.7c0,0.9-0.2,1.6-0.6,2.1h1.6c0.2-0.5,0.3-1.2,0.3-2.2c0-0.5-0.1-0.9-0.2-1.3
		c-0.1-0.4-0.3-0.8-0.5-1.2c-0.2-0.3-0.5-0.6-0.8-0.8s-0.7-0.3-1.2-0.3c-0.4,0-0.7,0.1-1,0.2s-0.5,0.3-0.7,0.5s-0.4,0.5-0.6,0.7
		s-0.4,0.6-0.5,0.9c-0.1,0.3-0.3,0.6-0.4,0.9c-0.1,0.3-0.3,0.5-0.4,0.7s-0.3,0.4-0.5,0.5s-0.4,0.2-0.6,0.2c-0.4,0-0.8-0.2-1-0.5
		s-0.3-0.8-0.3-1.5c0-0.2,0-0.4,0.1-0.6s0.1-0.5,0.2-0.7c0.1-0.2,0.2-0.5,0.3-0.7s0.2-0.4,0.4-0.5h-1.7
		C904.6,103.5,904.5,103.7,904.4,103.9z M908.7,94.3c0,1.4-0.5,2.1-1.5,2.1c-0.5,0-0.9-0.2-1.2-0.5s-0.4-0.8-0.4-1.4v-1.4h3.1
		L908.7,94.3L908.7,94.3z M912.8,94.4c0,1.1-0.4,1.7-1.3,1.7c-0.5,0-0.9-0.2-1.1-0.5c-0.3-0.3-0.4-0.8-0.4-1.3v-1.1h2.8V94.4z
		 M904.3,94.7c0,1,0.3,1.8,0.8,2.5s1.2,1,2,1c0.7,0,1.2-0.2,1.6-0.6c0.4-0.4,0.7-0.9,0.7-1.6l0,0c0.2,0.6,0.5,1,0.9,1.3
		s0.9,0.5,1.4,0.5c0.7,0,1.2-0.3,1.6-0.8s0.6-1.3,0.6-2.3v-3.1h-9.8v3.1L904.3,94.7L904.3,94.7z M905.6,89.8v-3.9h2.9v3.4h1.4v-3.4
		h2.8v3.7h1.4v-5.3h-9.8v5.5H905.6z M914.1,81.3l-7.2-1.7c-0.4-0.1-0.7-0.1-0.9-0.2l0,0c0.3,0,0.6-0.1,0.9-0.1l7.2-1.9v-1.7l-7.2-2
		c-0.4-0.1-0.7-0.2-0.9-0.2l0,0c0.3,0,0.6-0.1,0.9-0.1l7.2-1.8v-1.8l-9.8,2.7v1.9l6.9,1.9c0.3,0.1,0.6,0.1,0.9,0.2l0,0
		c-0.3,0-0.7,0.1-1,0.1l-6.9,1.9v1.8L914,83L914.1,81.3L914.1,81.3z"/>
	<rect x="714.6" y="278.1" style="fill:#686868;" width="181.5" height="34.2"/>
	<path style="fill:#686868;" d="M768.4,239.2c0-14.9-12.1-26.9-26.9-26.9s-26.9,12.1-26.9,26.9v0.1l0,0v28.8h53.8L768.4,239.2
		L768.4,239.2L768.4,239.2z"/>
	<path style="fill:#686868;" d="M832.2,239.2c0-14.9-12.1-26.9-26.9-26.9s-26.9,12.1-26.9,26.9v0.1l0,0v28.8h53.8L832.2,239.2
		L832.2,239.2L832.2,239.2z"/>
	<path style="fill:#686868;" d="M896.1,239.2c0-14.9-12.1-26.9-26.9-26.9s-26.9,12.1-26.9,26.9v0.1l0,0v28.8h53.8L896.1,239.2
		L896.1,239.2L896.1,239.2z"/>
	<path style="fill:#FFFFFF;" d="M751.3,235.7c1.4,0,2.1,0.5,2.1,1.5c0,0.5-0.2,0.9-0.5,1.2s-0.8,0.4-1.4,0.4h-1.4v-3.1L751.3,235.7
		L751.3,235.7z M751.4,231.6c1.1,0,1.7,0.4,1.7,1.3c0,0.5-0.2,0.9-0.5,1.1c-0.3,0.3-0.8,0.4-1.3,0.4h-1v-2.8H751.4z M751.7,240.1
		c1,0,1.8-0.3,2.5-0.8s1-1.2,1-2c0-0.7-0.2-1.2-0.6-1.6c-0.4-0.4-0.9-0.7-1.6-0.7l0,0c0.6-0.2,1-0.5,1.3-0.9s0.5-0.9,0.5-1.4
		c0-0.7-0.3-1.2-0.8-1.6c-0.6-0.4-1.3-0.6-2.2-0.6h-3.1v9.8h3L751.7,240.1L751.7,240.1z M746.8,238.7H743v-2.9h3.4v-1.3H743v-2.8
		h3.6v-1.4h-5.3v9.8h5.5V238.7z M738.3,230.3l-1.7,7.2c-0.1,0.4-0.1,0.7-0.2,0.9l0,0c0-0.3-0.1-0.6-0.1-0.9l-1.8-7.2h-1.7l-2,7.1
		c-0.1,0.4-0.2,0.7-0.2,0.9l0,0c0-0.3-0.1-0.6-0.1-0.9l-1.8-7.1h-1.8l2.7,9.8h1.9l1.9-6.8c0.1-0.3,0.1-0.6,0.2-0.9l0,0
		c0,0.3,0.1,0.7,0.1,1l1.9,6.8h1.8l2.7-9.8L738.3,230.3L738.3,230.3z"/>
	<path style="fill:#FFFFFF;" d="M756.7,246.8c-0.3,0.2-0.5,0.4-0.8,0.5c-0.2,0.1-0.5,0.3-0.7,0.4c-0.2,0.1-0.5,0.2-0.7,0.3
		s-0.5,0.2-0.8,0.3v1.3c0.4-0.1,0.8-0.2,1.1-0.4c0.3-0.1,0.6-0.3,0.9-0.5v8h1.6v-10h-0.6V246.8z M745.2,248.4c1.3,0,2,0.6,2,1.7
		c0,0.6-0.2,1-0.5,1.4c-0.4,0.3-0.9,0.5-1.6,0.5h-1v-3.6L745.2,248.4L745.2,248.4z M745.3,253.2c1.1,0,2-0.3,2.6-0.9
		c0.6-0.6,1-1.4,1-2.3s-0.3-1.7-0.9-2.2s-1.5-0.8-2.6-0.8h-3v9.8h1.6v-3.5L745.3,253.2L745.3,253.2z M737,248.4c1.3,0,2,0.6,2,1.7
		c0,0.6-0.2,1-0.5,1.4c-0.4,0.3-0.9,0.5-1.6,0.5h-1v-3.6L737,248.4L737,248.4z M737.2,253.2c1.1,0,2-0.3,2.6-0.9
		c0.6-0.6,1-1.4,1-2.3s-0.3-1.7-0.9-2.2s-1.5-0.8-2.6-0.8h-3v9.8h1.6v-3.5L737.2,253.2L737.2,253.2z M726.9,253l1.3-3.9
		c0-0.1,0.1-0.4,0.1-0.6l0,0c0,0.3,0.1,0.5,0.1,0.6l1.4,3.9H726.9z M729.3,247h-1.8l-3.7,9.8h1.8l0.8-2.5h3.8l0.9,2.5h1.8L729.3,247
		z"/>
	<path style="fill:#FFFFFF;" d="M856.1,299.7c0.2-0.2,0.3-0.4,0.3-0.6c0-0.3-0.1-0.5-0.3-0.7s-0.4-0.3-0.7-0.3s-0.5,0.1-0.7,0.3
		s-0.3,0.4-0.3,0.7c0,0.2,0.1,0.5,0.3,0.6s0.4,0.3,0.7,0.3C855.7,300,855.9,299.9,856.1,299.7z M852.8,299.7
		c0.2-0.2,0.3-0.4,0.3-0.6c0-0.3-0.1-0.5-0.3-0.7s-0.4-0.3-0.7-0.3s-0.5,0.1-0.7,0.3s-0.3,0.4-0.3,0.7c0,0.2,0.1,0.5,0.3,0.6
		s0.4,0.3,0.7,0.3C852.3,300,852.6,299.9,852.8,299.7z M849.4,299.7c0.2-0.2,0.3-0.4,0.3-0.6c0-0.3-0.1-0.5-0.3-0.7
		s-0.4-0.3-0.7-0.3s-0.5,0.1-0.7,0.3s-0.3,0.4-0.3,0.7c0,0.2,0.1,0.5,0.3,0.6s0.4,0.3,0.7,0.3S849.2,299.9,849.4,299.7z
		 M843.4,294.9l3-4.8h-1.8l-1.8,3.3c-0.1,0.2-0.2,0.4-0.3,0.7l0,0c-0.1-0.2-0.2-0.4-0.3-0.7l-1.8-3.3h-2l2.9,4.8l-3.2,4.9h2l2.1-3.6
		c0.1-0.2,0.2-0.4,0.2-0.5l0,0c0.1,0.2,0.1,0.4,0.2,0.5l2,3.6h1.9L843.4,294.9z M837.1,295.6c0-0.9-0.2-1.6-0.6-2.1
		c-0.4-0.5-1-0.7-1.7-0.7c-1,0-1.7,0.4-2.3,1.3l0,0v-1.2h-1.6v7h1.6v-4c0-0.5,0.2-1,0.5-1.4s0.7-0.5,1.2-0.5c0.9,0,1.4,0.7,1.4,2
		v3.9h1.6v-4.3H837.1z M828.8,292.9h-1.6v7h1.6V292.9z M828.7,291.1c0.2-0.2,0.3-0.4,0.3-0.6c0-0.3-0.1-0.5-0.3-0.6
		c-0.2-0.2-0.4-0.3-0.7-0.3s-0.5,0.1-0.7,0.3s-0.3,0.4-0.3,0.6c0,0.3,0.1,0.5,0.3,0.6s0.4,0.3,0.7,0.3
		C828.3,291.4,828.5,291.3,828.7,291.1z M823.1,298.1c-0.3,0.4-0.8,0.6-1.3,0.6s-1-0.2-1.3-0.6c-0.3-0.4-0.5-1-0.5-1.6
		c0-0.8,0.2-1.4,0.5-1.9s0.8-0.7,1.4-0.7c0.5,0,0.9,0.2,1.2,0.5s0.5,0.8,0.5,1.3v0.9C823.6,297.2,823.5,297.7,823.1,298.1z
		 M825.2,292.9h-1.6v1l0,0c-0.4-0.8-1.1-1.1-2-1.1c-1,0-1.7,0.3-2.3,1s-0.8,1.6-0.8,2.8c0,1,0.3,1.9,0.8,2.5s1.2,0.9,2.1,0.9
		c1,0,1.8-0.4,2.4-1.3l0,0v0.8c0,1.6-0.8,2.4-2.5,2.4c-0.7,0-1.4-0.2-2.2-0.7v1.4c0.7,0.3,1.5,0.5,2.4,0.5c2.6,0,3.9-1.3,3.9-3.8
		v-6.4L825.2,292.9L825.2,292.9z M816.6,290.1H815v6.3c0,0.6,0,1.1,0.1,1.3l0,0c-0.1-0.1-0.2-0.3-0.4-0.6l-4.5-7h-1.9v9.8h1.6v-6.4
		c0-0.7,0-1.1-0.1-1.3l0,0c0.1,0.2,0.2,0.4,0.3,0.6l4.7,7.2h1.8L816.6,290.1L816.6,290.1z M801,298.2l-0.7,3.4h1.2l1.1-3.4H801z
		 M794.7,295.7c0.1-0.5,0.3-1,0.6-1.3s0.7-0.5,1.2-0.5s0.8,0.2,1.1,0.5s0.4,0.8,0.4,1.3H794.7z M799.5,296.2c0-1.1-0.3-1.9-0.8-2.5
		s-1.3-0.9-2.2-0.9s-1.7,0.3-2.4,1s-1,1.6-1,2.6c0,1.1,0.3,2,0.9,2.7c0.6,0.6,1.4,0.9,2.4,0.9s1.9-0.2,2.5-0.6v-1.3
		c-0.6,0.4-1.3,0.7-2,0.7s-1.2-0.2-1.6-0.5c-0.4-0.3-0.6-0.8-0.6-1.5h4.7L799.5,296.2L799.5,296.2z M791.7,295.5
		c0-1.9-0.8-2.8-2.3-2.8c-1,0-1.7,0.4-2.3,1.3l0,0v-4.5h-1.6v10.3h1.6v-3.7c0-0.6,0.2-1.1,0.5-1.5s0.7-0.6,1.2-0.6
		c0.9,0,1.4,0.7,1.4,2.1v3.8h1.6v-4.4H791.7z M783.9,298.1c-0.5,0.4-1,0.6-1.6,0.6c-0.7,0-1.2-0.2-1.6-0.6s-0.6-1-0.6-1.7
		s0.2-1.3,0.6-1.8s1-0.7,1.6-0.7c0.5,0,1.1,0.2,1.6,0.5v-1.5c-0.5-0.2-1-0.3-1.7-0.3c-1.1,0-2.1,0.3-2.7,1s-1,1.6-1,2.8
		c0,1,0.3,1.9,1,2.5c0.6,0.6,1.5,1,2.5,1c0.8,0,1.4-0.2,2-0.5L783.9,298.1L783.9,298.1z M775.5,297c0,0.5-0.2,0.9-0.5,1.3
		c-0.3,0.3-0.7,0.5-1.2,0.5c-0.4,0-0.6-0.1-0.8-0.3s-0.3-0.4-0.3-0.7c0-0.4,0.1-0.7,0.3-0.8c0.2-0.2,0.6-0.3,1-0.3l1.5-0.2V297z
		 M777,295.3c0-1.7-0.9-2.6-2.6-2.6c-1,0-1.8,0.2-2.5,0.7v1.4c0.7-0.6,1.4-0.9,2.2-0.9c0.9,0,1.4,0.5,1.4,1.5l-2.1,0.3
		c-1.5,0.2-2.3,1-2.3,2.3c0,0.6,0.2,1.1,0.6,1.5s0.9,0.6,1.6,0.6c0.9,0,1.6-0.4,2.1-1.3l0,0v1.1h1.5L777,295.3L777,295.3z
		 M765.5,294.6c0.3-0.4,0.8-0.6,1.4-0.6c0.5,0,1,0.2,1.3,0.6s0.5,0.9,0.5,1.6c0,0.8-0.2,1.5-0.5,1.9c-0.3,0.5-0.8,0.7-1.4,0.7
		c-0.5,0-0.9-0.2-1.2-0.5c-0.3-0.4-0.5-0.8-0.5-1.3v-0.9C765,295.4,765.2,295,765.5,294.6z M767.1,300c1,0,1.7-0.3,2.3-1
		s0.8-1.6,0.8-2.8c0-1-0.2-1.9-0.7-2.5s-1.2-0.9-2.1-0.9c-1,0-1.8,0.5-2.4,1.4l0,0V293h-1.6v10.2h1.6V299l0,0
		C765.5,299.6,766.2,300,767.1,300z M756.2,296l1.3-3.9c0-0.1,0.1-0.4,0.1-0.6l0,0c0,0.3,0.1,0.5,0.1,0.6l1.4,3.9H756.2z
		 M758.6,290.1h-1.8l-3.7,9.8h1.8l0.8-2.5h3.8l0.9,2.5h1.8L758.6,290.1z"/>
	<path style="fill:#FFFFFF;" d="M815.2,235.7c1.4,0,2.1,0.5,2.1,1.5c0,0.5-0.2,0.9-0.5,1.2s-0.8,0.4-1.4,0.4H814v-3.1L815.2,235.7
		L815.2,235.7z M815.2,231.6c1.1,0,1.7,0.4,1.7,1.3c0,0.5-0.2,0.9-0.5,1.1c-0.3,0.3-0.8,0.4-1.3,0.4h-1v-2.8H815.2z M815.5,240.1
		c1,0,1.8-0.3,2.5-0.8s1-1.2,1-2c0-0.7-0.2-1.2-0.6-1.6c-0.4-0.4-0.9-0.7-1.6-0.7l0,0c0.6-0.2,1-0.5,1.3-0.9s0.5-0.9,0.5-1.4
		c0-0.7-0.3-1.2-0.8-1.6c-0.6-0.4-1.3-0.6-2.2-0.6h-3.1v9.8h3L815.5,240.1L815.5,240.1z M810.7,238.7h-3.9v-2.9h3.4v-1.3h-3.4v-2.8
		h3.6v-1.4h-5.3v9.8h5.5v-1.4L810.7,238.7L810.7,238.7z M802.2,230.3l-1.7,7.2c-0.1,0.4-0.1,0.7-0.2,0.9l0,0c0-0.3-0.1-0.6-0.1-0.9
		l-1.8-7.2h-1.7l-2,7.1c-0.1,0.4-0.2,0.7-0.2,0.9l0,0c0-0.3-0.1-0.6-0.1-0.9l-1.8-7.1h-1.8l2.7,9.8h1.9l1.9-6.8
		c0.1-0.3,0.1-0.6,0.2-0.9l0,0c0,0.3,0.1,0.7,0.1,1l1.9,6.8h1.8l2.7-9.8L802.2,230.3L802.2,230.3z"/>
	<path style="fill:#FFFFFF;" d="M822.7,255.4h-4.4l0,0c0-0.2,0.1-0.4,0.2-0.6c0.1-0.2,0.3-0.4,0.5-0.6c0.2-0.2,0.4-0.4,0.7-0.6
		c0.3-0.2,0.5-0.4,0.8-0.6c0.3-0.3,0.6-0.5,0.8-0.8s0.5-0.5,0.6-0.8c0.2-0.3,0.3-0.6,0.4-0.9c0.1-0.3,0.1-0.7,0.1-1.1
		c0-0.4-0.1-0.8-0.2-1.2c-0.1-0.3-0.3-0.6-0.6-0.8s-0.6-0.4-0.9-0.5c-0.4-0.1-0.8-0.2-1.2-0.2c-0.3,0-0.5,0-0.8,0.1
		c-0.2,0-0.5,0.1-0.7,0.2s-0.4,0.2-0.6,0.3c-0.2,0.1-0.4,0.2-0.6,0.4v1.5c0.4-0.4,0.8-0.7,1.2-0.8c0.4-0.2,0.8-0.3,1.2-0.3
		c0.2,0,0.4,0,0.6,0.1c0.2,0.1,0.4,0.2,0.5,0.3s0.3,0.3,0.3,0.5c0.1,0.2,0.1,0.4,0.1,0.7c0,0.2,0,0.5-0.1,0.7s-0.2,0.4-0.3,0.6
		c-0.1,0.2-0.3,0.4-0.4,0.5c-0.2,0.2-0.4,0.3-0.6,0.5c-0.2,0.2-0.4,0.4-0.7,0.6c-0.2,0.2-0.5,0.4-0.7,0.6c-0.2,0.2-0.4,0.4-0.6,0.6
		c-0.2,0.2-0.4,0.4-0.5,0.7c-0.1,0.2-0.3,0.5-0.3,0.8s-0.1,0.6-0.1,0.9v0.8h6.1v-1.6L822.7,255.4L822.7,255.4z M808,248.4
		c1.3,0,2,0.6,2,1.7c0,0.6-0.2,1-0.5,1.4c-0.4,0.3-0.9,0.5-1.6,0.5h-1v-3.6L808,248.4L808,248.4z M808.1,253.2c1.1,0,2-0.3,2.6-0.9
		c0.6-0.6,1-1.4,1-2.3s-0.3-1.7-0.9-2.2s-1.5-0.8-2.6-0.8h-3v9.8h1.6v-3.5L808.1,253.2L808.1,253.2z M799.8,248.4c1.3,0,2,0.6,2,1.7
		c0,0.6-0.2,1-0.5,1.4c-0.4,0.3-0.9,0.5-1.6,0.5h-1v-3.6L799.8,248.4L799.8,248.4z M799.9,253.2c1.1,0,2-0.3,2.6-0.9
		c0.6-0.6,1-1.4,1-2.3s-0.3-1.7-0.9-2.2s-1.5-0.8-2.6-0.8h-3v9.8h1.6v-3.5L799.9,253.2L799.9,253.2z M789.6,253l1.3-3.9
		c0-0.1,0.1-0.4,0.1-0.6l0,0c0,0.3,0.1,0.5,0.1,0.6l1.4,3.9H789.6z M792.1,247h-1.8l-3.7,9.8h1.8l0.8-2.5h3.8l0.9,2.5h1.8L792.1,247
		z"/>
	<path style="fill:#FFFFFF;" d="M879,235.7c1.4,0,2.1,0.5,2.1,1.5c0,0.5-0.2,0.9-0.5,1.2s-0.8,0.4-1.4,0.4h-1.4v-3.1L879,235.7
		L879,235.7z M879,231.6c1.1,0,1.7,0.4,1.7,1.3c0,0.5-0.2,0.9-0.5,1.1c-0.3,0.3-0.8,0.4-1.3,0.4h-1v-2.8H879z M879.4,240.1
		c1,0,1.8-0.3,2.5-0.8s1-1.2,1-2c0-0.7-0.2-1.2-0.6-1.6c-0.4-0.4-0.9-0.7-1.6-0.7l0,0c0.6-0.2,1-0.5,1.3-0.9s0.5-0.9,0.5-1.4
		c0-0.7-0.3-1.2-0.8-1.6c-0.6-0.4-1.3-0.6-2.2-0.6h-3.1v9.8h3L879.4,240.1L879.4,240.1z M874.5,238.7h-3.9v-2.9h3.4v-1.3h-3.4v-2.8
		h3.6v-1.4H869v9.8h5.5V238.7z M866,230.3l-1.7,7.2c-0.1,0.4-0.1,0.7-0.2,0.9l0,0c0-0.3-0.1-0.6-0.1-0.9l-1.8-7.2h-1.7l-2,7.1
		c-0.1,0.4-0.2,0.7-0.2,0.9l0,0c0-0.3-0.1-0.6-0.1-0.9l-1.8-7.1h-1.8l2.7,9.8h1.9l1.9-6.8c0.1-0.3,0.1-0.6,0.2-0.9l0,0
		c0,0.3,0.1,0.7,0.1,1l1.9,6.8h1.8l2.7-9.8L866,230.3L866,230.3z"/>
	<path style="fill:#FFFFFF;" d="M882.9,256.9c1.1,0,1.9-0.3,2.6-0.8c0.7-0.5,1-1.2,1-2.1c0-0.6-0.2-1.2-0.6-1.6
		c-0.4-0.4-1-0.7-1.7-0.7l0,0c1.3-0.4,2-1.2,2-2.5c0-0.7-0.3-1.2-0.8-1.7c-0.5-0.4-1.2-0.7-2.1-0.7c-0.9,0-1.7,0.2-2.3,0.6v1.4
		c0.6-0.5,1.2-0.7,1.8-0.7c1.2,0,1.8,0.5,1.8,1.4c0,1-0.8,1.6-2.3,1.6h-0.7v1.3h0.8c1.7,0,2.5,0.6,2.5,1.7c0,0.5-0.2,0.9-0.6,1.2
		s-0.9,0.4-1.6,0.4c-0.8,0-1.5-0.3-2.1-0.8v1.5C881.2,256.8,882,256.9,882.9,256.9z M871.8,248.4c1.3,0,2,0.6,2,1.7
		c0,0.6-0.2,1-0.5,1.4c-0.4,0.3-0.9,0.5-1.6,0.5h-1v-3.6L871.8,248.4L871.8,248.4z M871.9,253.2c1.1,0,2-0.3,2.6-0.9
		c0.6-0.6,1-1.4,1-2.3s-0.3-1.7-0.9-2.2s-1.5-0.8-2.6-0.8h-3v9.8h1.6v-3.5L871.9,253.2L871.9,253.2z M863.7,248.4c1.3,0,2,0.6,2,1.7
		c0,0.6-0.2,1-0.5,1.4c-0.4,0.3-0.9,0.5-1.6,0.5h-1v-3.6L863.7,248.4L863.7,248.4z M863.8,253.2c1.1,0,2-0.3,2.6-0.9
		c0.6-0.6,1-1.4,1-2.3s-0.3-1.7-0.9-2.2s-1.5-0.8-2.6-0.8h-3v9.8h1.6v-3.5L863.8,253.2L863.8,253.2z M853.5,253l1.3-3.9
		c0-0.1,0.1-0.4,0.1-0.6l0,0c0,0.3,0.1,0.5,0.1,0.6l1.4,3.9H853.5z M855.9,247h-1.8l-3.7,9.8h1.8l0.8-2.5h3.8l0.9,2.5h1.8L855.9,247
		z"/>
	<path style="fill:#686868;" d="M905.6,308.2v-4.4l0,0c0.2,0,0.4,0.1,0.6,0.2c0.2,0.1,0.4,0.3,0.6,0.5c0.2,0.2,0.4,0.4,0.6,0.7
		c0.2,0.3,0.4,0.5,0.6,0.8c0.3,0.3,0.5,0.6,0.8,0.9s0.5,0.5,0.8,0.7s0.6,0.3,0.9,0.4c0.3,0.1,0.7,0.1,1.1,0.1c0.4,0,0.8-0.1,1.2-0.2
		s0.6-0.3,0.8-0.6s0.4-0.6,0.5-0.9c0.1-0.4,0.2-0.8,0.2-1.2c0-0.3,0-0.5-0.1-0.8s-0.1-0.5-0.2-0.7c-0.1-0.2-0.2-0.4-0.3-0.6
		c-0.1-0.2-0.2-0.4-0.4-0.6h-1.5c0.4,0.4,0.7,0.8,0.8,1.2s0.3,0.8,0.3,1.2c0,0.2,0,0.4-0.1,0.6c-0.1,0.2-0.2,0.4-0.3,0.5
		s-0.3,0.3-0.5,0.3c-0.2,0.1-0.4,0.1-0.7,0.1c-0.2,0-0.5,0-0.7-0.1s-0.4-0.2-0.6-0.3s-0.4-0.3-0.5-0.4c-0.2-0.2-0.3-0.4-0.5-0.6
		c-0.2-0.2-0.4-0.5-0.6-0.7c-0.2-0.2-0.4-0.5-0.6-0.7c-0.2-0.2-0.4-0.4-0.6-0.6c-0.2-0.2-0.4-0.4-0.7-0.5c-0.2-0.1-0.5-0.3-0.8-0.3
		c-0.3-0.1-0.6-0.1-0.9-0.1H904v6.2h1.6V308.2z M914.1,295.8l-7.4-2.5c-0.3-0.1-0.6-0.2-0.8-0.2l0,0c0.3,0,0.6-0.1,0.8-0.2l7.4-2.4
		v-1.8l-9.8,3.5v1.8l9.8,3.5V295.8z M912.8,284.1c0,0.6-0.1,1-0.4,1.3s-0.6,0.4-1.1,0.4c-0.3,0-0.5,0-0.7-0.1s-0.4-0.2-0.5-0.4
		s-0.3-0.3-0.3-0.6s-0.1-0.4-0.1-0.7v-1.4h3.2v1.5H912.8z M907,286.9c0.2-0.1,0.4-0.3,0.6-0.4c0.2-0.1,0.3-0.2,0.4-0.4
		s0.3-0.2,0.4-0.4c0.1-0.1,0.2-0.3,0.3-0.5l0,0c0.1,0.3,0.2,0.6,0.4,0.9s0.4,0.5,0.6,0.7c0.2,0.2,0.5,0.3,0.8,0.4
		c0.3,0.1,0.6,0.2,1,0.2s0.8-0.1,1.2-0.2c0.3-0.2,0.6-0.4,0.8-0.7s0.4-0.6,0.5-1s0.2-0.8,0.2-1.3V281h-9.8v1.6h4v0.7
		c0,0.2,0,0.4-0.1,0.6s-0.1,0.3-0.2,0.5s-0.3,0.3-0.4,0.4c-0.2,0.1-0.4,0.3-0.6,0.4l-2.6,1.6v1.9L907,286.9z M904.4,273.5
		c-0.1,0.2-0.1,0.5-0.2,0.7c0,0.3-0.1,0.5-0.1,0.7s0,0.4,0,0.6c0,0.5,0,1,0.1,1.4s0.3,0.8,0.5,1.2s0.5,0.6,0.8,0.8s0.8,0.3,1.3,0.3
		c0.4,0,0.7-0.1,1-0.2c0.3-0.1,0.6-0.3,0.8-0.5s0.5-0.5,0.6-0.8s0.4-0.6,0.6-1c0.1-0.3,0.3-0.6,0.4-0.9c0.1-0.3,0.3-0.5,0.4-0.6
		s0.3-0.3,0.4-0.4s0.3-0.1,0.6-0.1c0.2,0,0.4,0.1,0.6,0.2s0.3,0.3,0.4,0.5s0.2,0.4,0.2,0.6s0.1,0.5,0.1,0.7c0,0.9-0.2,1.6-0.6,2.1
		h1.6c0.2-0.5,0.3-1.2,0.3-2.2c0-0.5-0.1-0.9-0.2-1.3c-0.1-0.4-0.3-0.8-0.5-1.2c-0.2-0.3-0.5-0.6-0.8-0.8s-0.7-0.3-1.2-0.3
		c-0.4,0-0.7,0.1-1,0.2s-0.5,0.3-0.7,0.5s-0.4,0.5-0.6,0.7s-0.4,0.6-0.5,0.9c-0.1,0.3-0.3,0.6-0.4,0.9c-0.1,0.3-0.3,0.5-0.4,0.7
		s-0.3,0.4-0.5,0.5s-0.4,0.2-0.6,0.2c-0.4,0-0.8-0.2-1-0.5s-0.3-0.8-0.3-1.5c0-0.2,0-0.4,0.1-0.6s0.1-0.5,0.2-0.7
		c0.1-0.2,0.2-0.5,0.3-0.7s0.2-0.4,0.4-0.5h-1.7C904.6,273.1,904.5,273.3,904.4,273.5z M908.7,263.9c0,1.4-0.5,2.1-1.5,2.1
		c-0.5,0-0.9-0.2-1.2-0.5s-0.4-0.8-0.4-1.4v-1.4h3.1L908.7,263.9L908.7,263.9z M912.8,264c0,1.1-0.4,1.7-1.3,1.7
		c-0.5,0-0.9-0.2-1.1-0.5c-0.3-0.3-0.4-0.8-0.4-1.3v-1.1h2.8V264z M904.3,264.3c0,1,0.3,1.8,0.8,2.5s1.2,1,2,1
		c0.7,0,1.2-0.2,1.6-0.6c0.4-0.4,0.7-0.9,0.7-1.6l0,0c0.2,0.6,0.5,1,0.9,1.3s0.9,0.5,1.4,0.5c0.7,0,1.2-0.3,1.6-0.8s0.6-1.3,0.6-2.3
		v-3.1h-9.8v3.1L904.3,264.3L904.3,264.3z M905.6,259.4v-3.9h2.9v3.4h1.4v-3.4h2.8v3.7h1.4v-5.3h-9.8v5.5H905.6z M914.1,250.9
		l-7.2-1.7c-0.4-0.1-0.7-0.1-0.9-0.2l0,0c0.3,0,0.6-0.1,0.9-0.1l7.2-1.9v-1.7l-7.2-2c-0.4-0.1-0.7-0.2-0.9-0.2l0,0
		c0.3,0,0.6-0.1,0.9-0.1l7.2-1.8v-1.8l-9.8,2.7v1.9l6.9,1.9c0.3,0.1,0.6,0.1,0.9,0.2l0,0c-0.3,0-0.7,0.1-1,0.1l-6.9,1.9v1.8l9.8,2.7
		L914.1,250.9L914.1,250.9z"/>
	
		<line style="fill:none;stroke:#686868;stroke-width:3;stroke-linecap:round;stroke-linejoin:round;stroke-miterlimit:10;" x1="805.9" y1="203.1" x2="810.3" y2="198.6"/>
	
		<line style="fill:none;stroke:#686868;stroke-width:3;stroke-linecap:round;stroke-linejoin:round;stroke-miterlimit:10;" x1="805.9" y1="203.1" x2="801.5" y2="198.6"/>
	<line style="fill:none;" x1="805.9" y1="191.6" x2="805.9" y2="203.1"/>
	
		<line style="fill:none;stroke:#686868;stroke-width:3;stroke-linecap:round;stroke-linejoin:round;stroke-miterlimit:10;" x1="805.9" y1="191.6" x2="805.9" y2="203.1"/>
	
		<line style="fill:none;stroke:#686868;stroke-width:3;stroke-linecap:round;stroke-linejoin:round;stroke-miterlimit:10;" x1="805.9" y1="155.9" x2="801.5" y2="160.3"/>
	
		<line style="fill:none;stroke:#686868;stroke-width:3;stroke-linecap:round;stroke-linejoin:round;stroke-miterlimit:10;" x1="805.9" y1="155.9" x2="810.3" y2="160.3"/>
	<line style="fill:none;" x1="805.9" y1="167.3" x2="805.9" y2="155.9"/>
	
		<line style="fill:none;stroke:#686868;stroke-width:3;stroke-linecap:round;stroke-linejoin:round;stroke-miterlimit:10;" x1="805.9" y1="167.3" x2="805.9" y2="155.9"/>
	<path style="fill:#686868;" d="M118,217.1c1.4,0,2.1,0.5,2.1,1.5c0,0.5-0.2,0.9-0.5,1.2s-0.8,0.4-1.4,0.4h-1.4v-3.1L118,217.1
		L118,217.1z M118,213c1.1,0,1.7,0.4,1.7,1.3c0,0.5-0.2,0.9-0.5,1.1c-0.3,0.3-0.8,0.4-1.3,0.4h-1V213H118z M118.4,221.4
		c1,0,1.8-0.3,2.5-0.8s1-1.2,1-2c0-0.7-0.2-1.2-0.6-1.6c-0.4-0.4-0.9-0.7-1.6-0.7l0,0c0.6-0.2,1-0.5,1.3-0.9s0.5-0.9,0.5-1.4
		c0-0.7-0.3-1.2-0.8-1.6c-0.6-0.4-1.3-0.6-2.2-0.6h-3.1v9.8h3L118.4,221.4z M113.5,220.1h-3.9v-2.9h3.4v-1.4h-3.4V213h3.6v-1.4H108
		v9.8h5.5V220.1z M105,211.7l-1.7,7.2c-0.1,0.4-0.1,0.7-0.2,0.9l0,0c0-0.3-0.1-0.6-0.1-0.9l-1.8-7.2h-1.7l-2,7.1
		c-0.1,0.4-0.2,0.7-0.2,0.9l0,0c0-0.3-0.1-0.6-0.1-0.9l-1.8-7.1h-1.8l2.7,9.8h1.9l1.9-6.8c0.1-0.3,0.1-0.6,0.2-0.9l0,0
		c0,0.3,0.1,0.7,0.1,1l1.9,6.8h1.8l2.7-9.8L105,211.7L105,211.7z"/>
	<path style="fill:#686868;" d="M136.6,228.2c-0.3,0.2-0.5,0.4-0.8,0.5c-0.2,0.1-0.5,0.3-0.7,0.4c-0.2,0.1-0.5,0.2-0.7,0.3
		s-0.5,0.2-0.8,0.3v1.3c0.4-0.1,0.8-0.2,1.1-0.4c0.3-0.1,0.6-0.3,0.9-0.5v8h1.6v-10h-0.6V228.2z M124.7,229.7c0.6,0,1,0.1,1.3,0.4
		s0.4,0.6,0.4,1.1c0,0.3,0,0.5-0.1,0.7s-0.2,0.4-0.4,0.5c-0.2,0.1-0.3,0.3-0.5,0.3s-0.4,0.1-0.7,0.1h-1.3v-3.2h1.3L124.7,229.7z
		 M127.6,235.4c-0.1-0.2-0.3-0.4-0.4-0.6c-0.1-0.2-0.2-0.3-0.3-0.4c-0.1-0.1-0.2-0.3-0.4-0.4c-0.1-0.1-0.3-0.2-0.5-0.3l0,0
		c0.3-0.1,0.6-0.2,0.9-0.4s0.5-0.4,0.7-0.6c0.2-0.2,0.3-0.5,0.4-0.8s0.2-0.6,0.2-0.9c0-0.4-0.1-0.8-0.2-1.2
		c-0.2-0.3-0.4-0.6-0.7-0.8c-0.3-0.2-0.6-0.4-1-0.5s-0.8-0.2-1.3-0.2h-3.2v9.8h1.6v-4h0.7c0.2,0,0.4,0,0.6,0.1s0.3,0.1,0.5,0.2
		c0.1,0.1,0.3,0.2,0.4,0.4s0.3,0.4,0.4,0.6l1.6,2.6h1.9L127.6,235.4z M120,236.8h-3.9v-2.9h3.4v-1.4h-3.4v-2.8h3.6v-1.4h-5.3v9.8
		h5.5v-1.3H120z M111.6,228.4l-2.5,7.4c-0.1,0.3-0.2,0.6-0.2,0.8l0,0c0-0.3-0.1-0.6-0.2-0.8l-2.4-7.4h-1.8l3.4,9.8h1.8l3.5-9.8
		H111.6z M99.9,229.7c0.6,0,1,0.1,1.3,0.4s0.4,0.6,0.4,1.1c0,0.3,0,0.5-0.1,0.7s-0.2,0.4-0.4,0.5c-0.2,0.1-0.3,0.3-0.5,0.3
		s-0.4,0.1-0.7,0.1h-1.3v-3.2h1.3L99.9,229.7z M102.8,235.4c-0.1-0.2-0.3-0.4-0.4-0.6c-0.1-0.2-0.2-0.3-0.3-0.4
		c-0.1-0.1-0.2-0.3-0.4-0.4c-0.1-0.1-0.3-0.2-0.5-0.3l0,0c0.3-0.1,0.6-0.2,0.9-0.4s0.5-0.4,0.7-0.6c0.2-0.2,0.3-0.5,0.4-0.8
		s0.2-0.6,0.2-0.9c0-0.4-0.1-0.8-0.2-1.2c-0.2-0.3-0.4-0.6-0.7-0.8c-0.3-0.2-0.6-0.4-1-0.5s-0.8-0.2-1.3-0.2H97v9.8h1.6v-4h0.7
		c0.2,0,0.4,0,0.6,0.1s0.3,0.1,0.5,0.2c0.1,0.1,0.3,0.2,0.4,0.4s0.3,0.4,0.4,0.6l1.6,2.6h1.9L102.8,235.4z M95.2,236.8h-3.9v-2.9
		h3.4v-1.4h-3.4v-2.8H95v-1.4h-5.3v9.8h5.5V236.8z M82.3,238c0.2,0.1,0.5,0.1,0.7,0.2c0.3,0,0.5,0.1,0.7,0.1s0.4,0,0.6,0
		c0.5,0,1,0,1.4-0.1s0.8-0.2,1.2-0.5c0.3-0.2,0.6-0.5,0.8-0.8c0.2-0.3,0.3-0.8,0.3-1.3c0-0.4-0.1-0.7-0.2-1s-0.3-0.5-0.5-0.8
		c-0.2-0.2-0.5-0.5-0.8-0.6c-0.3-0.2-0.6-0.4-1-0.6c-0.3-0.1-0.6-0.3-0.9-0.4c-0.3-0.1-0.5-0.3-0.6-0.4c-0.2-0.1-0.3-0.3-0.4-0.4
		c-0.1-0.2-0.1-0.3-0.1-0.6c0-0.2,0.1-0.4,0.2-0.6s0.3-0.3,0.5-0.4s0.4-0.2,0.6-0.2s0.5-0.1,0.7-0.1c0.9,0,1.6,0.2,2.1,0.6v-1.6
		c-0.5-0.2-1.2-0.3-2.2-0.3c-0.4,0-0.9,0.1-1.3,0.2s-0.8,0.3-1.2,0.5c-0.3,0.2-0.6,0.5-0.8,0.8s-0.3,0.7-0.3,1.2
		c0,0.4,0.1,0.7,0.2,1s0.3,0.5,0.5,0.7s0.5,0.4,0.7,0.6c0.3,0.2,0.6,0.4,0.9,0.5s0.6,0.3,0.9,0.4c0.3,0.1,0.5,0.3,0.7,0.4
		s0.4,0.3,0.5,0.5s0.2,0.4,0.2,0.6c0,0.4-0.2,0.8-0.5,1s-0.8,0.3-1.5,0.3c-0.2,0-0.4,0-0.6-0.1c-0.2,0-0.5-0.1-0.7-0.2
		c-0.2-0.1-0.5-0.2-0.7-0.3s-0.4-0.2-0.5-0.4v1.7C81.9,237.8,82,237.9,82.3,238z"/>
	<path style="fill:#686868;" d="M206.4,217.1c1.4,0,2.1,0.5,2.1,1.5c0,0.5-0.2,0.9-0.5,1.2s-0.8,0.4-1.4,0.4h-1.4v-3.1L206.4,217.1
		L206.4,217.1z M206.5,213c1.1,0,1.7,0.4,1.7,1.3c0,0.5-0.2,0.9-0.5,1.1c-0.3,0.3-0.8,0.4-1.3,0.4h-1V213H206.5z M206.8,221.4
		c1,0,1.8-0.3,2.5-0.8s1-1.2,1-2c0-0.7-0.2-1.2-0.6-1.6c-0.4-0.4-0.9-0.7-1.6-0.7l0,0c0.6-0.2,1-0.5,1.3-0.9s0.5-0.9,0.5-1.4
		c0-0.7-0.3-1.2-0.8-1.6c-0.6-0.4-1.3-0.6-2.2-0.6h-3.1v9.8h3L206.8,221.4L206.8,221.4z M201.9,220.1H198v-2.9h3.4v-1.4H198V213h3.6
		v-1.4h-5.3v9.8h5.5L201.9,220.1L201.9,220.1z M193.4,211.7l-1.7,7.2c-0.1,0.4-0.1,0.7-0.2,0.9l0,0c0-0.3-0.1-0.6-0.1-0.9l-1.8-7.2
		h-1.7l-2,7.1c-0.1,0.4-0.2,0.7-0.2,0.9l0,0c0-0.3-0.1-0.6-0.1-0.9l-1.8-7.1H182l2.7,9.8h1.9l1.9-6.8c0.1-0.3,0.1-0.6,0.2-0.9l0,0
		c0,0.3,0.1,0.7,0.1,1l1.9,6.8h1.8l2.7-9.8L193.4,211.7L193.4,211.7z"/>
	<path style="fill:#686868;" d="M227.2,236.8h-4.4l0,0c0-0.2,0.1-0.4,0.2-0.6c0.1-0.2,0.3-0.4,0.5-0.6c0.2-0.2,0.4-0.4,0.7-0.6
		c0.3-0.2,0.5-0.4,0.8-0.6c0.3-0.3,0.6-0.5,0.8-0.8s0.5-0.5,0.6-0.8c0.2-0.3,0.3-0.6,0.4-0.9c0.1-0.3,0.1-0.7,0.1-1.1
		c0-0.4-0.1-0.8-0.2-1.2c-0.1-0.3-0.3-0.6-0.6-0.8s-0.6-0.4-0.9-0.5c-0.4-0.1-0.8-0.2-1.2-0.2c-0.3,0-0.5,0-0.8,0.1
		c-0.2,0-0.5,0.1-0.7,0.2s-0.4,0.2-0.6,0.3c-0.2,0.1-0.4,0.2-0.6,0.4v1.5c0.4-0.4,0.8-0.7,1.2-0.8c0.4-0.2,0.8-0.3,1.2-0.3
		c0.2,0,0.4,0,0.6,0.1c0.2,0.1,0.4,0.2,0.5,0.3s0.3,0.3,0.3,0.5c0.1,0.2,0.1,0.4,0.1,0.7c0,0.2,0,0.5-0.1,0.7s-0.2,0.4-0.3,0.6
		c-0.1,0.2-0.3,0.4-0.4,0.5c-0.2,0.2-0.4,0.3-0.6,0.5c-0.2,0.2-0.4,0.4-0.7,0.6c-0.2,0.2-0.5,0.4-0.7,0.6c-0.2,0.2-0.4,0.4-0.6,0.6
		c-0.2,0.2-0.4,0.4-0.5,0.7c-0.1,0.2-0.3,0.5-0.3,0.8s-0.1,0.6-0.1,0.9v0.8h6.1v-1.6L227.2,236.8L227.2,236.8z M212.1,229.7
		c0.6,0,1,0.1,1.3,0.4s0.4,0.6,0.4,1.1c0,0.3,0,0.5-0.1,0.7s-0.2,0.4-0.4,0.5s-0.3,0.3-0.5,0.3s-0.4,0.1-0.7,0.1h-1.3v-3.2h1.3
		V229.7z M214.9,235.4c-0.1-0.2-0.3-0.4-0.4-0.6c-0.1-0.2-0.2-0.3-0.3-0.4c-0.1-0.1-0.2-0.3-0.4-0.4c-0.1-0.1-0.3-0.2-0.5-0.3l0,0
		c0.3-0.1,0.6-0.2,0.9-0.4c0.3-0.2,0.5-0.4,0.7-0.6c0.2-0.2,0.3-0.5,0.4-0.8c0.1-0.3,0.2-0.6,0.2-0.9c0-0.4-0.1-0.8-0.2-1.2
		c-0.2-0.3-0.4-0.6-0.7-0.8s-0.6-0.4-1-0.5s-0.8-0.2-1.3-0.2h-3.2v9.8h1.6v-4h0.7c0.2,0,0.4,0,0.6,0.1s0.3,0.1,0.5,0.2
		c0.1,0.1,0.3,0.2,0.4,0.4c0.1,0.2,0.3,0.4,0.4,0.6l1.6,2.6h1.9L214.9,235.4z M207.4,236.8h-3.9v-2.9h3.4v-1.4h-3.4v-2.8h3.6v-1.4
		h-5.3v9.8h5.5L207.4,236.8L207.4,236.8z M198.9,228.4l-2.5,7.4c-0.1,0.3-0.2,0.6-0.2,0.8l0,0c0-0.3-0.1-0.6-0.2-0.8l-2.4-7.4h-1.8
		l3.4,9.8h1.8l3.5-9.8H198.9z M187.3,229.7c0.6,0,1,0.1,1.3,0.4s0.4,0.6,0.4,1.1c0,0.3,0,0.5-0.1,0.7s-0.2,0.4-0.4,0.5
		s-0.3,0.3-0.5,0.3s-0.4,0.1-0.7,0.1H186v-3.2h1.3V229.7z M190.1,235.4c-0.1-0.2-0.3-0.4-0.4-0.6c-0.1-0.2-0.2-0.3-0.3-0.4
		c-0.1-0.1-0.2-0.3-0.4-0.4c-0.1-0.1-0.3-0.2-0.5-0.3l0,0c0.3-0.1,0.6-0.2,0.9-0.4c0.3-0.2,0.5-0.4,0.7-0.6c0.2-0.2,0.3-0.5,0.4-0.8
		c0.1-0.3,0.2-0.6,0.2-0.9c0-0.4-0.1-0.8-0.2-1.2c-0.2-0.3-0.4-0.6-0.7-0.8s-0.6-0.4-1-0.5s-0.8-0.2-1.3-0.2h-3.2v9.8h1.6v-4h0.7
		c0.2,0,0.4,0,0.6,0.1s0.3,0.1,0.5,0.2c0.1,0.1,0.3,0.2,0.4,0.4c0.1,0.2,0.3,0.4,0.4,0.6l1.6,2.6h1.9L190.1,235.4z M182.6,236.8
		h-3.9v-2.9h3.4v-1.4h-3.4v-2.8h3.6v-1.4H177v9.8h5.5L182.6,236.8L182.6,236.8z M169.6,238c0.2,0.1,0.5,0.1,0.7,0.2
		c0.3,0,0.5,0.1,0.7,0.1s0.4,0,0.6,0c0.5,0,1,0,1.4-0.1s0.8-0.2,1.2-0.5c0.3-0.2,0.6-0.5,0.8-0.8s0.3-0.8,0.3-1.3
		c0-0.4-0.1-0.7-0.2-1s-0.3-0.5-0.5-0.8c-0.2-0.2-0.5-0.5-0.8-0.6c-0.3-0.2-0.6-0.4-1-0.6c-0.3-0.1-0.6-0.3-0.9-0.4
		c-0.3-0.1-0.5-0.3-0.6-0.4c-0.2-0.1-0.3-0.3-0.4-0.4c-0.1-0.2-0.1-0.3-0.1-0.6c0-0.2,0.1-0.4,0.2-0.6s0.3-0.3,0.5-0.4
		s0.4-0.2,0.6-0.2c0.2,0,0.5-0.1,0.7-0.1c0.9,0,1.6,0.2,2.1,0.6v-1.6c-0.5-0.2-1.2-0.3-2.2-0.3c-0.4,0-0.9,0.1-1.3,0.2
		s-0.8,0.3-1.2,0.5c-0.3,0.2-0.6,0.5-0.8,0.8s-0.3,0.7-0.3,1.2c0,0.4,0.1,0.7,0.2,1s0.3,0.5,0.5,0.7s0.5,0.4,0.7,0.6
		c0.3,0.2,0.6,0.4,0.9,0.5c0.3,0.1,0.6,0.3,0.9,0.4c0.3,0.1,0.5,0.3,0.7,0.4s0.4,0.3,0.5,0.5s0.2,0.4,0.2,0.6c0,0.4-0.2,0.8-0.5,1
		s-0.8,0.3-1.5,0.3c-0.2,0-0.4,0-0.6-0.1c-0.2,0-0.5-0.1-0.7-0.2c-0.2-0.1-0.5-0.2-0.7-0.3s-0.4-0.2-0.5-0.4v1.7
		C169.2,237.8,169.4,237.9,169.6,238z"/>
	<path style="fill:#686868;" d="M124.9,196.2c-10.3,0-18.7-8.4-18.7-18.7s8.4-18.7,18.7-18.7s18.7,8.4,18.7,18.7
		S135.2,196.2,124.9,196.2z M120.2,186.5c1.3,4.7,3.3,6.8,4.7,6.8s3.4-2.1,4.7-6.8c-1.5-0.2-3.1-0.3-4.7-0.3
		C123.3,186.2,121.7,186.3,120.2,186.5z M113.3,188.2c1.7,1.8,3.8,3.2,6.2,4.1c-0.9-1.5-1.6-3.3-2.2-5.3
		C115.9,187.3,114.5,187.7,113.3,188.2z M132.4,187c-0.5,2.1-1.3,3.9-2.2,5.3c2.4-0.9,4.5-2.3,6.2-4.1
		C135.3,187.7,133.9,187.3,132.4,187z M109.1,179c0.2,2.5,0.9,4.7,2.3,6.9c1.5-0.7,3.3-1.3,5.2-1.7c-0.3-1.7-0.5-3.4-0.5-5.2H109.1z
		 M133,184.2c2,0.4,3.7,1,5.2,1.7c1.4-2.2,2.1-4.4,2.3-6.9h-7.1C133.5,180.8,133.3,182.4,133,184.2z M119.1,179
		c0,1.6,0.2,3.1,0.5,4.7c1.8-0.2,3.5-0.4,5.3-0.4c1.7,0,3.5,0.1,5.3,0.4c0.3-1.6,0.4-3,0.5-4.7H119.1z M140.6,175.9
		c-0.3-2.6-1.2-5.2-2.7-7.4c-1.5,0.7-3.2,1.3-5,1.7c0.3,1.7,0.5,3.7,0.6,5.7H140.6L140.6,175.9z M130.6,175.9
		c-0.1-1.8-0.3-3.6-0.6-5.1c-1.7,0.2-3.4,0.4-5.2,0.4c-1.8,0-3.5-0.1-5.2-0.4c-0.3,1.6-0.5,3.4-0.6,5.1H130.6z M116.2,175.9
		c0.1-2,0.3-3.8,0.6-5.7c-1.8-0.4-3.5-1-5-1.7c-1.5,2.2-2.5,4.8-2.8,7.4H116.2L116.2,175.9z M120.3,168c1.5,0.2,3,0.3,4.5,0.3
		s3-0.1,4.5-0.3c-1.3-4.3-3.2-6.3-4.5-6.3S121.6,163.6,120.3,168z M113.7,166.3c1.1,0.5,2.4,0.9,3.7,1.2c0.5-1.9,1.2-3.5,2-4.8
		C117.3,163.4,115.4,164.7,113.7,166.3z M130.2,162.6c0.8,1.3,1.5,3,2,4.8c1.3-0.3,2.6-0.7,3.7-1.2
		C134.3,164.7,132.4,163.4,130.2,162.6z"/>
	<path style="fill:#686868;" d="M124.9,159.4c-10,0-18.1,8.1-18.1,18.1s8.1,18.1,18.1,18.1s18.1-8.1,18.1-18.1
		S134.9,159.4,124.9,159.4z M124.9,193.8c-2,0-4.2-3-5.4-7.9c1.7-0.3,3.6-0.4,5.4-0.4s3.6,0.1,5.4,0.4
		C129,190.9,126.9,193.8,124.9,193.8z M124.9,183.9c-1.9,0-3.9,0.2-5.8,0.4c-0.4-1.9-0.6-3.6-0.6-5.9h12.7c0,2.2-0.2,4-0.6,5.9
		C128.8,184,126.8,183.9,124.9,183.9z M124.9,161.1c1.9,0,4,2.8,5.3,7.4c-1.7,0.3-3.5,0.4-5.3,0.4s-3.6-0.1-5.3-0.4
		C120.8,163.9,122.9,161.1,124.9,161.1z M124.9,170.6c1.9,0,3.8-0.2,5.7-0.4c0.4,1.9,0.6,4.1,0.7,6.4h-12.7c0.1-2.3,0.3-4.5,0.7-6.4
		C121,170.4,122.9,170.6,124.9,170.6z M116.8,176.5h-8.4c0.2-3.2,1.5-6.2,3.2-8.7c1.7,0.8,3.7,1.5,5.8,2c-0.4,2-0.7,3.9-0.7,6.2
		L116.8,176.5L116.8,176.5z M116.8,178.4c0,2.3,0.2,4.2,0.6,6.2c-2.3,0.5-4.4,1.2-6.1,2c-1.6-2.4-2.6-5.1-2.7-8.2H116.8L116.8,178.4
		L116.8,178.4z M133,178.4h8.2c-0.1,3.1-1.1,5.7-2.7,8.2c-1.7-0.8-3.8-1.5-6.1-2C132.7,182.6,132.9,180.7,133,178.4L133,178.4
		L133,178.4z M133,176.5c-0.1-2.3-0.3-4.7-0.7-6.7c2.2-0.5,4.2-1.1,5.8-2c1.8,2.4,2.9,5.5,3.1,8.7H133v-0.4V176.5z M137,166.5
		c-1.5,0.7-3.2,1.3-5.1,1.7c-0.7-2.7-1.8-5-3-6.5C132,162.4,134.8,164.1,137,166.5z M120.9,161.6c-1.2,1.5-2.3,3.8-3,6.5
		c-1.9-0.4-3.6-1-5.1-1.7C114.9,164.1,117.7,162.4,120.9,161.6z M112.3,188c1.5-0.7,3.4-1.3,5.4-1.7c0.7,3,1.8,5.4,3.1,7
		C117.5,192.5,114.5,190.6,112.3,188z M128.8,193.3c1.3-1.6,2.4-4.1,3.1-7c2,0.4,3.9,1,5.4,1.7C135.2,190.6,132.2,192.5,128.8,193.3
		z"/>
	<path style="fill:#686868;" d="M103,176.5c0.5-10.7,8.6-19.4,19-20.8v-34.6c0-2.1-1.7-3.7-3.8-3.7H87.7c-2.1,0-3.8,1.7-3.8,3.7
		v74.5h28.7c-2.9-2-5.2-4.6-6.9-7.6h-16v-3.8H104c-0.4-1.2-0.7-2.5-0.8-3.8H89.6v-3.9H103z M89.6,128.8h26.7v3.8H89.6V128.8z"/>
	<path style="fill:#686868;" d="M208.3,196.2c-10.3,0-18.7-8.4-18.7-18.7s8.4-18.7,18.7-18.7s18.7,8.4,18.7,18.7
		S218.6,196.2,208.3,196.2z M203.6,186.5c1.3,4.7,3.3,6.8,4.7,6.8s3.4-2.1,4.7-6.8c-1.5-0.2-3.1-0.3-4.7-0.3
		C206.7,186.2,205.2,186.3,203.6,186.5z M196.7,188.2c1.7,1.8,3.8,3.2,6.2,4.1c-0.9-1.5-1.6-3.3-2.2-5.3
		C199.3,187.3,197.9,187.7,196.7,188.2z M215.8,187c-0.5,2.1-1.3,3.9-2.2,5.3c2.4-0.9,4.5-2.3,6.2-4.1
		C218.7,187.7,217.3,187.3,215.8,187z M192.6,179c0.2,2.5,0.9,4.7,2.3,6.9c1.5-0.7,3.3-1.3,5.2-1.7c-0.3-1.7-0.5-3.4-0.5-5.2H192.6z
		 M216.5,184.2c2,0.4,3.7,1,5.2,1.7c1.4-2.2,2.1-4.4,2.3-6.9h-7C216.9,180.8,216.8,182.4,216.5,184.2z M202.5,179
		c0,1.6,0.2,3.1,0.5,4.7c1.8-0.2,3.5-0.4,5.3-0.4c1.7,0,3.5,0.1,5.3,0.4c0.3-1.6,0.4-3,0.5-4.7H202.5z M224,175.9
		c-0.3-2.6-1.2-5.2-2.7-7.4c-1.5,0.7-3.2,1.3-5,1.7c0.3,1.7,0.5,3.7,0.6,5.7H224L224,175.9z M214.1,175.9c-0.1-1.8-0.3-3.6-0.6-5.1
		c-1.7,0.2-3.4,0.4-5.2,0.4s-3.5-0.1-5.2-0.4c-0.3,1.6-0.5,3.4-0.6,5.1H214.1z M199.6,175.9c0.1-2,0.3-3.8,0.6-5.7
		c-1.8-0.4-3.5-1-5-1.7c-1.5,2.2-2.5,4.8-2.8,7.4H199.6L199.6,175.9z M203.8,168c1.5,0.2,3,0.3,4.5,0.3s3-0.1,4.5-0.3
		c-1.3-4.3-3.2-6.3-4.5-6.3S205.1,163.6,203.8,168z M197.2,166.3c1.1,0.5,2.4,0.9,3.7,1.2c0.5-1.9,1.2-3.5,2-4.8
		C200.8,163.4,198.8,164.7,197.2,166.3z M213.7,162.6c0.8,1.3,1.5,3,2,4.8c1.3-0.3,2.6-0.7,3.7-1.2
		C217.8,164.7,215.8,163.4,213.7,162.6z"/>
	<path style="fill:#686868;" d="M208.3,159.4c-10,0-18.1,8.1-18.1,18.1s8.1,18.1,18.1,18.1s18.1-8.1,18.1-18.1
		C226.4,167.5,218.3,159.4,208.3,159.4z M208.3,193.8c-2,0-4.2-3-5.4-7.9c1.7-0.3,3.6-0.4,5.4-0.4c1.8,0,3.6,0.1,5.4,0.4
		C212.5,190.9,210.3,193.8,208.3,193.8z M208.3,183.9c-1.9,0-3.9,0.2-5.8,0.4c-0.4-1.9-0.6-3.6-0.6-5.9h12.7c0,2.2-0.2,4-0.6,5.9
		C212.2,184,210.2,183.9,208.3,183.9z M208.3,161.1c1.9,0,4,2.8,5.3,7.4c-1.7,0.3-3.5,0.4-5.3,0.4s-3.6-0.1-5.3-0.4
		C204.3,163.9,206.4,161.1,208.3,161.1z M208.3,170.6c1.9,0,3.8-0.2,5.7-0.4c0.4,1.9,0.6,4.1,0.7,6.4H202c0.1-2.3,0.3-4.5,0.7-6.4
		C204.5,170.4,206.4,170.6,208.3,170.6z M200.2,176.5h-8.4c0.2-3.2,1.5-6.2,3.2-8.7c1.7,0.8,3.7,1.5,5.8,2c-0.4,2-0.7,3.9-0.7,6.2
		L200.2,176.5L200.2,176.5z M200.2,178.4c0,2.3,0.2,4.2,0.6,6.2c-2.3,0.5-4.4,1.2-6.1,2c-1.6-2.4-2.6-5.1-2.7-8.2H200.2L200.2,178.4
		L200.2,178.4z M216.4,178.4h8.2c-0.1,3.1-1.1,5.7-2.7,8.2c-1.7-0.8-3.8-1.5-6.1-2C216.2,182.6,216.4,180.7,216.4,178.4L216.4,178.4
		L216.4,178.4z M216.4,176.5c-0.1-2.3-0.3-4.7-0.7-6.7c2.2-0.5,4.2-1.1,5.8-2c1.8,2.4,2.9,5.5,3.1,8.7H216.4v-0.4V176.5z
		 M220.4,166.5c-1.5,0.7-3.2,1.3-5.1,1.7c-0.7-2.7-1.8-5-3-6.5C215.4,162.4,218.3,164.1,220.4,166.5z M204.3,161.6
		c-1.2,1.5-2.3,3.8-3,6.5c-1.9-0.4-3.6-1-5.1-1.7C198.3,164.1,201.1,162.4,204.3,161.6z M195.8,188c1.5-0.7,3.4-1.3,5.4-1.7
		c0.7,3,1.8,5.4,3.1,7C200.9,192.5,198,190.6,195.8,188z M212.3,193.3c1.3-1.6,2.4-4.1,3.1-7c2,0.4,3.9,1,5.4,1.7
		C218.6,190.6,215.7,192.5,212.3,193.3z"/>
	<path style="fill:#686868;" d="M186.4,176.5c0.5-10.7,8.6-19.4,19-20.8v-34.6c0-2.1-1.7-3.7-3.8-3.7h-30.5c-2.1,0-3.8,1.7-3.8,3.7
		v74.5H196c-2.9-2-5.2-4.6-6.9-7.6h-16v-3.8h14.4c-0.4-1.2-0.7-2.5-0.8-3.8H173v-3.9H186.4z M173,128.8h26.7v3.8H173V128.8z"/>
	<path style="fill:#DEDEDE;" d="M299.1,381v-5c0-1.1-0.9-2-2-2c-1.1,0-2,0.9-2,2v5c0,0.6,0.3,1.2,0.8,1.6h2.4
		C298.8,382.2,299.1,381.7,299.1,381z"/>
	<path style="fill:#00BCF2;" d="M661.6,382.6h2.3c-0.3-0.2-0.7-0.4-1.2-0.4S662,382.4,661.6,382.6z"/>
	<path style="fill:#00BCF2;" d="M951,381.6v-5c0-1.1-0.9-2-2-2s-2,0.9-2,2v5c0,0.4,0.1,0.7,0.3,1h3.5C950.9,382.3,951,382,951,381.6
		z"/>
	<g>
		<path style="fill:#DEDEDE;" d="M245.6,0.3c1.3,1.1,2.5,2.2,3.7,3.3c0.4,0.3,0.9,0.5,1.4,0.5s1-0.2,1.4-0.6
			c0.8-0.8,0.7-2.1-0.1-2.8c-0.2-0.2-0.4-0.4-0.6-0.6h-5.9C245.5,0.2,245.5,0.3,245.6,0.3z"/>
		<path style="fill:#DEDEDE;" d="M58.2,1.4c0.4,0.5,0.9,0.7,1.5,0.7c0.5,0,1-0.2,1.3-0.5c0.6-0.5,1.2-1,1.7-1.5h-5
			C57.7,0.6,57.9,1.1,58.2,1.4z"/>
		<path style="fill:#00BCF2;" d="M906.2,0.1h-5.9c1.1,1,2.1,2,3.2,3c0.4,0.4,0.9,0.6,1.4,0.6s1-0.2,1.4-0.8
			C907,2.1,907,0.9,906.2,0.1C906.2,0.1,906.2,0.1,906.2,0.1z"/>
		<rect x="308.9" y="0.1" style="fill:#DEDEDE;" width="9.8" height="0.8"/>
	</g>
</g>
<g class="icons icons-B">
	<g class="button">
		<rect x="607" y="7" style="fill:#FFFFFF;" width="16" height="320"/>
		<path class="text" d="M611.7,22.6c0-2.4,1.1-3.6,3.4-3.6c1.1,0,2,0.3,2.7,1s0.9,1.5,0.9,2.7V24h-7L611.7,22.6L611.7,22.6z
			 M620.1,22.9c0-1.7-0.5-3-1.4-4s-2.1-1.5-3.6-1.5c-3.2,0-4.8,1.8-4.8,5.4v2.8h9.8V22.9z M610.3,27.9v1.6h5.8
			c1.9,0,2.8,0.7,2.8,2.2c0,1.5-1,2.2-2.9,2.2h-5.7v1.6h6c2.6,0,4-1.2,4-3.7c0-2.6-1.4-3.9-4.1-3.9L610.3,27.9L610.3,27.9z
			 M612.5,39.7c0.6-0.5,1.5-0.8,2.7-0.8c1.1,0,2,0.3,2.7,0.8s1,1.3,1,2.2s-0.3,1.6-1,2.1s-1.5,0.8-2.6,0.8s-2-0.3-2.6-0.8
			s-1-1.3-1-2.2C611.6,41,611.9,40.3,612.5,39.7z M618.9,38.5c-0.9-0.9-2.2-1.3-3.8-1.3c-1.5,0-2.7,0.4-3.6,1.3s-1.4,1.9-1.4,3.3
			c0,1.5,0.5,2.7,1.4,3.5s2.2,1.3,3.8,1.3c1.5,0,2.7-0.4,3.6-1.3s1.4-2,1.4-3.4C620.3,40.5,619.8,39.4,618.9,38.5z M618.7,47v3.8
			h-8.4v1.6h9.8V47L618.7,47L618.7,47z M618.2,54.3c0.4,0.7,0.7,1.5,0.7,2.4c0,1-0.3,1.8-1,2.4c-0.6,0.6-1.5,0.9-2.6,0.9
			s-2-0.3-2.7-1s-1-1.5-1-2.6c0-0.8,0.2-1.5,0.6-2.2h-1.6c-0.3,0.6-0.4,1.4-0.4,2.4c0,1.5,0.5,2.7,1.4,3.7s2.2,1.4,3.8,1.4
			c1.5,0,2.6-0.4,3.5-1.3s1.3-2,1.3-3.4c0-1.1-0.2-2-0.6-2.8L618.2,54.3L618.2,54.3z M618.7,66.7v3.9h-2.9v-3.4h-1.4v3.4h-2.8v-3.7
			h-1.4v5.3h9.8v-5.5H618.7z M611.6,78c0-0.6,0.1-1,0.4-1.3s0.6-0.4,1.1-0.4c0.3,0,0.5,0,0.7,0.1s0.4,0.2,0.5,0.4s0.3,0.3,0.3,0.6
			s0.1,0.4,0.1,0.7v1.4h-3.2V78H611.6z M617.4,75.1c-0.2,0.1-0.4,0.3-0.6,0.4c-0.2,0.1-0.3,0.2-0.4,0.4s-0.3,0.2-0.4,0.4
			c-0.1,0.1-0.2,0.3-0.3,0.5l0,0c-0.1-0.3-0.2-0.6-0.4-0.9s-0.4-0.5-0.6-0.7c-0.2-0.2-0.5-0.3-0.8-0.4c-0.3-0.1-0.6-0.2-1-0.2
			s-0.8,0.1-1.2,0.2c-0.3,0.2-0.6,0.4-0.8,0.7s-0.4,0.6-0.5,1s-0.2,0.8-0.2,1.3V81h9.8v-1.6h-4v-0.7c0-0.2,0-0.4,0.1-0.6
			s0.1-0.3,0.2-0.5s0.3-0.3,0.4-0.4c0.2-0.1,0.4-0.3,0.6-0.4l2.6-1.6v-1.9L617.4,75.1z M610.3,83.3v1.6h5.8c1.9,0,2.8,0.7,2.8,2.2
			s-1,2.2-2.9,2.2h-5.7v1.6h6c2.6,0,4-1.2,4-3.7c0-2.6-1.4-3.9-4.1-3.9L610.3,83.3L610.3,83.3z M610.3,92.3v7.2h1.4v-5l7.7,5.4h0.7
			v-7.6h-1.4v5.3l-7.7-5.4L610.3,92.3L610.3,92.3z M616.3,106.8l-3.9-1.3c-0.2-0.1-0.4-0.1-0.6-0.1l0,0c0.3,0,0.5-0.1,0.6-0.1
			l3.9-1.4V106.8z M610.3,104.3v1.8l9.8,3.7V108l-2.5-0.8v-3.9l2.5-0.9v-1.8L610.3,104.3z M612.5,116.8c0.6-0.5,1.5-0.8,2.7-0.8
			c1.1,0,2,0.3,2.7,0.8s1,1.3,1,2.2s-0.3,1.6-1,2.1s-1.5,0.8-2.6,0.8s-2-0.3-2.6-0.8s-1-1.3-1-2.2
			C611.6,118.1,611.9,117.4,612.5,116.8z M618.9,115.6c-0.9-0.9-2.2-1.3-3.8-1.3c-1.5,0-2.7,0.4-3.6,1.3s-1.4,1.9-1.4,3.3
			c0,1.5,0.5,2.7,1.4,3.5s2.2,1.3,3.8,1.3c1.5,0,2.7-0.4,3.6-1.3s1.4-2,1.4-3.4C620.3,117.7,619.8,116.5,618.9,115.6z M610.3,124
			v7.3h1.4v-2.8h8.4v-1.6h-8.4v-2.8h-1.4V124z M611.7,141.2c0-2.4,1.1-3.6,3.4-3.6c1.1,0,2,0.3,2.7,1s0.9,1.5,0.9,2.7v1.3h-7
			L611.7,141.2L611.7,141.2z M620.1,141.5c0-1.7-0.5-3-1.4-4s-2.1-1.5-3.6-1.5c-3.2,0-4.8,1.8-4.8,5.4v2.8h9.8V141.5z M618.7,145.9
			v3.9h-2.9v-3.4h-1.4v3.4h-2.8v-3.7h-1.4v5.3h9.8v-5.5H618.7z M610.3,152.9v7.3h1.4v-2.8h8.4v-1.6h-8.4V153h-1.4V152.9z
			 M611.6,164.5c0-0.6,0.1-1,0.4-1.3s0.6-0.4,1.1-0.4c0.3,0,0.5,0,0.7,0.1s0.4,0.2,0.5,0.4s0.3,0.3,0.3,0.6s0.1,0.4,0.1,0.7v1.4
			h-3.2v-1.5H611.6z M617.4,161.7c-0.2,0.1-0.4,0.3-0.6,0.4c-0.2,0.1-0.3,0.2-0.4,0.4s-0.3,0.2-0.4,0.4c-0.1,0.1-0.2,0.3-0.3,0.5
			l0,0c-0.1-0.3-0.2-0.6-0.4-0.9s-0.4-0.5-0.6-0.7c-0.2-0.2-0.5-0.3-0.8-0.4c-0.3-0.1-0.6-0.2-1-0.2s-0.8,0.1-1.2,0.2
			c-0.3,0.2-0.6,0.4-0.8,0.7s-0.4,0.6-0.5,1s-0.2,0.8-0.2,1.3v3.2h9.8V166h-4v-0.7c0-0.2,0-0.4,0.1-0.6s0.1-0.3,0.2-0.5
			s0.3-0.3,0.4-0.4c0.2-0.1,0.4-0.3,0.6-0.4l2.6-1.6v-1.9L617.4,161.7z M618.7,169.3v3.9h-2.9v-3.4h-1.4v3.4h-2.8v-3.7h-1.4v5.3h9.8
			v-5.5H618.7z M610.3,177.8l7.4,2.5c0.3,0.1,0.6,0.2,0.8,0.2l0,0c-0.3,0-0.6,0.1-0.8,0.2l-7.4,2.4v1.8l9.8-3.5v-1.8l-9.8-3.5V177.8
			z M610.3,186.2v1.7h9.8v-1.7H610.3z M611.7,194.9c0-2.4,1.1-3.6,3.4-3.6c1.1,0,2,0.3,2.7,1s0.9,1.5,0.9,2.7v1.3h-7L611.7,194.9
			L611.7,194.9z M620.1,195.2c0-1.7-0.5-3-1.4-4s-2.1-1.5-3.6-1.5c-3.2,0-4.8,1.8-4.8,5.4v2.8h9.8V195.2z M618.2,203.6
			c0.4,0.7,0.7,1.5,0.7,2.4c0,1-0.3,1.8-1,2.4c-0.6,0.6-1.5,0.9-2.6,0.9s-2-0.3-2.7-1s-1-1.5-1-2.6c0-0.8,0.2-1.5,0.6-2.2h-1.6
			c-0.3,0.6-0.4,1.4-0.4,2.4c0,1.5,0.5,2.7,1.4,3.7s2.2,1.4,3.8,1.4c1.5,0,2.6-0.4,3.5-1.3s1.3-2,1.3-3.4c0-1.1-0.2-2-0.6-2.8
			L618.2,203.6L618.2,203.6z M610.3,212.8v1.7h9.8v-1.7H610.3z M610.3,216.3v5.3h9.8V220H616v-3.5h-1.4v3.4h-2.9v-3.7L610.3,216.3
			L610.3,216.3z M610.3,223.3v5.3h9.8V227H616v-3.4h-1.4v3.4h-2.9v-3.7H610.3z M616.3,236l-3.9-1.3c-0.2-0.1-0.4-0.1-0.6-0.1l0,0
			c0.3,0,0.5-0.1,0.6-0.1l3.9-1.4V236z M610.3,233.6v1.8l9.8,3.7v-1.8l-2.5-0.8v-3.9l2.5-0.9v-1.8L610.3,233.6z M611.6,243.7
			c0-0.6,0.1-1,0.4-1.3s0.6-0.4,1.1-0.4c0.3,0,0.5,0,0.7,0.1s0.4,0.2,0.5,0.4s0.3,0.3,0.3,0.6s0.1,0.4,0.1,0.7v1.4h-3.2v-1.5H611.6z
			 M617.4,240.9c-0.2,0.1-0.4,0.3-0.6,0.4c-0.2,0.1-0.3,0.2-0.4,0.4s-0.3,0.2-0.4,0.4c-0.1,0.1-0.2,0.3-0.3,0.5l0,0
			c-0.1-0.3-0.2-0.6-0.4-0.9s-0.4-0.5-0.6-0.7c-0.2-0.2-0.5-0.3-0.8-0.4c-0.3-0.1-0.6-0.2-1-0.2s-0.8,0.1-1.2,0.2
			c-0.3,0.2-0.6,0.4-0.8,0.7s-0.4,0.6-0.5,1s-0.2,0.8-0.2,1.3v3.2h9.8v-1.6h-4v-0.7c0-0.2,0-0.4,0.1-0.6s0.1-0.3,0.2-0.5
			s0.3-0.3,0.4-0.4c0.2-0.1,0.4-0.3,0.6-0.4l2.6-1.6v-1.9L617.4,240.9z M610.3,248.1v7.3h1.4v-2.8h8.4V251h-8.4v-2.8h-1.4V248.1z
			 M620,265.8c0.1-0.2,0.1-0.5,0.2-0.7c0-0.3,0.1-0.5,0.1-0.7s0-0.4,0-0.6c0-0.5,0-1-0.1-1.4s-0.3-0.8-0.5-1.2s-0.5-0.6-0.8-0.8
			s-0.8-0.3-1.3-0.3c-0.4,0-0.7,0.1-1,0.2c-0.3,0.1-0.6,0.3-0.8,0.5s-0.5,0.5-0.6,0.8s-0.4,0.6-0.6,1c-0.1,0.3-0.3,0.6-0.4,0.9
			c-0.1,0.3-0.3,0.5-0.4,0.6s-0.3,0.3-0.4,0.4s-0.3,0.1-0.6,0.1c-0.2,0-0.4-0.1-0.6-0.2s-0.3-0.3-0.4-0.5s-0.2-0.4-0.2-0.6
			s-0.1-0.5-0.1-0.7c0-0.9,0.2-1.6,0.6-2.1h-1.6c-0.2,0.5-0.3,1.2-0.3,2.2c0,0.5,0.1,0.9,0.2,1.3c0.1,0.4,0.3,0.8,0.5,1.2
			c0.2,0.3,0.5,0.6,0.8,0.8s0.7,0.3,1.2,0.3c0.4,0,0.7-0.1,1-0.2s0.5-0.3,0.7-0.5s0.4-0.5,0.6-0.7s0.4-0.6,0.5-0.9
			c0.1-0.3,0.3-0.6,0.4-0.9c0.1-0.3,0.3-0.5,0.4-0.7s0.3-0.4,0.5-0.5s0.4-0.2,0.6-0.2c0.4,0,0.8,0.2,1,0.5s0.3,0.8,0.3,1.5
			c0,0.2,0,0.4-0.1,0.6s-0.1,0.5-0.2,0.7c-0.1,0.2-0.2,0.5-0.3,0.7s-0.2,0.4-0.4,0.5h1.7C619.8,266.2,619.9,266,620,265.8z
			 M610.3,268.2v1.6h5.8c1.9,0,2.8,0.7,2.8,2.2s-1,2.2-2.9,2.2h-5.7v1.6h6c2.6,0,4-1.2,4-3.7c0-2.6-1.4-3.9-4.1-3.9L610.3,268.2
			L610.3,268.2z M618.7,276.9v3.8h-8.4v1.6h9.8v-5.4L618.7,276.9L618.7,276.9z M611.6,287.7c0-1.3,0.6-2,1.7-2c0.6,0,1,0.2,1.4,0.5
			s0.5,0.9,0.5,1.6v1.1h-3.6L611.6,287.7L611.6,287.7z M616.6,287.6c0-1.1-0.3-2-0.9-2.6s-1.4-1-2.3-1s-1.7,0.3-2.2,0.9
			s-0.8,1.5-0.8,2.6v3h9.8v-1.6h-3.6V287.6z M611.6,296.3c0-0.6,0.1-1,0.4-1.3s0.6-0.4,1.1-0.4c0.3,0,0.5,0,0.7,0.1s0.4,0.2,0.5,0.4
			s0.3,0.3,0.3,0.6s0.1,0.4,0.1,0.7v1.4h-3.2v-1.5H611.6z M617.4,293.4c-0.2,0.1-0.4,0.3-0.6,0.4c-0.2,0.1-0.3,0.2-0.4,0.4
			s-0.3,0.2-0.4,0.4c-0.1,0.1-0.2,0.3-0.3,0.5l0,0c-0.1-0.3-0.2-0.6-0.4-0.9s-0.4-0.5-0.6-0.7c-0.2-0.2-0.5-0.3-0.8-0.4
			c-0.3-0.1-0.6-0.2-1-0.2s-0.8,0.1-1.2,0.2c-0.3,0.2-0.6,0.4-0.8,0.7s-0.4,0.6-0.5,1s-0.2,0.8-0.2,1.3v3.2h9.8v-1.6h-4V297
			c0-0.2,0-0.4,0.1-0.6s0.1-0.3,0.2-0.5s0.3-0.3,0.4-0.4c0.2-0.1,0.4-0.3,0.6-0.4l2.6-1.6v-1.9L617.4,293.4z M610.3,301.5v1.6h5.8
			c1.9,0,2.8,0.7,2.8,2.2s-1,2.2-2.9,2.2h-5.7v1.6h6c2.6,0,4-1.2,4-3.7c0-2.6-1.4-3.9-4.1-3.9L610.3,301.5L610.3,301.5z M620,316.6
			c0.1-0.2,0.1-0.5,0.2-0.7c0-0.3,0.1-0.5,0.1-0.7s0-0.4,0-0.6c0-0.5,0-1-0.1-1.4s-0.3-0.8-0.5-1.2s-0.5-0.6-0.8-0.8
			s-0.8-0.3-1.3-0.3c-0.4,0-0.7,0.1-1,0.2c-0.3,0.1-0.6,0.3-0.8,0.5s-0.5,0.5-0.6,0.8s-0.4,0.6-0.6,1c-0.1,0.3-0.3,0.6-0.4,0.9
			c-0.1,0.3-0.3,0.5-0.4,0.6s-0.3,0.3-0.4,0.4s-0.3,0.1-0.6,0.1c-0.2,0-0.4-0.1-0.6-0.2s-0.3-0.3-0.4-0.5s-0.2-0.4-0.2-0.6
			s-0.1-0.5-0.1-0.7c0-0.9,0.2-1.6,0.6-2.1h-1.6c-0.2,0.5-0.3,1.2-0.3,2.2c0,0.5,0.1,0.9,0.2,1.3c0.1,0.4,0.3,0.8,0.5,1.2
			c0.2,0.3,0.5,0.6,0.8,0.8s0.7,0.3,1.2,0.3c0.4,0,0.7-0.1,1-0.2s0.5-0.3,0.7-0.5s0.4-0.5,0.6-0.7s0.4-0.6,0.5-0.9
			c0.1-0.3,0.3-0.6,0.4-0.9c0.1-0.3,0.3-0.5,0.4-0.7s0.3-0.4,0.5-0.5s0.4-0.2,0.6-0.2c0.4,0,0.8,0.2,1,0.5s0.3,0.8,0.3,1.5
			c0,0.2,0,0.4-0.1,0.6s-0.1,0.5-0.2,0.7c-0.1,0.2-0.2,0.5-0.3,0.7s-0.2,0.4-0.4,0.5h1.7C619.8,317,619.9,316.8,620,316.6z"/>
	</g>
	<g class="line">
		
			<line style="fill:none;stroke:#DEDEDE;stroke-width:4;stroke-linejoin:round;stroke-miterlimit:10;" x1="565.4" y1="0" x2="565.4" y2="168.3"/>
		
			<circle style="fill:none;stroke:#DEDEDE;stroke-width:4;stroke-linecap:round;stroke-linejoin:round;stroke-miterlimit:10;" cx="592.4" cy="167.2" r="5"/>
		
			<line style="fill:none;stroke:#DEDEDE;stroke-width:4;stroke-linejoin:round;stroke-miterlimit:10;" x1="563.3" y1="167.2" x2="587.8" y2="167.2"/>
	</g>
</g>
<g class="icons icons-A">
	<g class="button">
		<rect x="758.1" y="329.6" style="fill:#FFFFFF;" width="94" height="36.3"/>
		<path d="M830.8,344.7c0.6,0,1,0.1,1.3,0.4s0.4,0.6,0.4,1.1c0,0.3,0,0.5-0.1,0.7s-0.2,0.4-0.4,0.5s-0.3,0.3-0.5,0.3
			s-0.4,0.1-0.7,0.1h-1.3v-3.2h1.3V344.7z M833.7,350.4c-0.1-0.2-0.3-0.4-0.4-0.6c-0.1-0.2-0.2-0.3-0.3-0.4
			c-0.1-0.1-0.2-0.3-0.4-0.4c-0.1-0.1-0.3-0.2-0.5-0.3l0,0c0.3-0.1,0.6-0.2,0.9-0.4c0.3-0.2,0.5-0.4,0.7-0.6
			c0.2-0.2,0.3-0.5,0.4-0.8c0.1-0.3,0.2-0.6,0.2-0.9c0-0.4-0.1-0.8-0.2-1.2c-0.2-0.3-0.4-0.6-0.7-0.8s-0.6-0.4-1-0.5
			s-0.8-0.2-1.3-0.2h-3.2v9.8h1.6v-4h0.7c0.2,0,0.4,0,0.6,0.1s0.3,0.1,0.5,0.2c0.1,0.1,0.3,0.2,0.4,0.4c0.1,0.2,0.3,0.4,0.4,0.6
			l1.6,2.6h1.9L833.7,350.4z M826.1,351.8h-3.9v-2.9h3.4v-1.4h-3.4v-2.8h3.6v-1.4h-5.3v9.8h5.5v-1.3H826.1z M818.3,343.4h-1.7v9.8
			h1.7V343.4z M815.2,343.4H808v1.4h2.8v8.4h1.6v-8.4h2.8L815.2,343.4L815.2,343.4z M799.5,348.8c1.4,0,2.1,0.5,2.1,1.5
			c0,0.5-0.2,0.9-0.5,1.2s-0.8,0.4-1.4,0.4h-1.4v-3.1L799.5,348.8L799.5,348.8z M799.5,344.7c1.1,0,1.7,0.4,1.7,1.3
			c0,0.5-0.2,0.9-0.5,1.1c-0.3,0.3-0.8,0.4-1.3,0.4h-1v-2.8H799.5z M799.8,353.2c1,0,1.8-0.3,2.5-0.8s1-1.2,1-2
			c0-0.7-0.2-1.2-0.6-1.6c-0.4-0.4-0.9-0.7-1.6-0.7l0,0c0.6-0.2,1-0.5,1.3-0.9s0.5-0.9,0.5-1.4c0-0.7-0.3-1.2-0.8-1.6
			c-0.6-0.4-1.3-0.6-2.2-0.6h-3.1v9.8h3L799.8,353.2L799.8,353.2z M794.9,351.8H791v-2.9h3.4v-1.4H791v-2.8h3.6v-1.4h-5.3v9.8h5.5
			v-1.3H794.9z M786.4,343.4l-1.7,7.2c-0.1,0.4-0.1,0.7-0.2,0.9l0,0c0-0.3-0.1-0.6-0.1-0.9l-1.8-7.2h-1.7l-2,7.1
			c-0.1,0.4-0.2,0.7-0.2,0.9l0,0c0-0.3-0.1-0.6-0.1-0.9l-1.8-7.1H775l2.7,9.8h1.9l1.9-6.8c0.1-0.3,0.1-0.6,0.2-0.9l0,0
			c0,0.3,0.1,0.7,0.1,1l1.9,6.8h1.8l2.7-9.8L786.4,343.4L786.4,343.4z"/>
		
			<rect x="758.1" y="329.6" style="fill:none;stroke:#000000;stroke-width:3;stroke-linecap:round;stroke-linejoin:round;stroke-miterlimit:10;" width="94" height="36.3"/>
	</g>
	<g class="button">
		<rect x="106" y="252" style="fill:#FFFFFF;" width="95" height="39.9"/>
		<path d="M179.8,270.7c0.6,0,1,0.1,1.3,0.4s0.4,0.6,0.4,1.1c0,0.3,0,0.5-0.1,0.7s-0.2,0.4-0.4,0.5s-0.3,0.3-0.5,0.3
			s-0.4,0.1-0.7,0.1h-1.3v-3.2h1.3V270.7z M182.6,276.4c-0.1-0.2-0.3-0.4-0.4-0.6c-0.1-0.2-0.2-0.3-0.3-0.4
			c-0.1-0.1-0.2-0.3-0.4-0.4c-0.1-0.1-0.3-0.2-0.5-0.3l0,0c0.3-0.1,0.6-0.2,0.9-0.4c0.3-0.2,0.5-0.4,0.7-0.6
			c0.2-0.2,0.3-0.5,0.4-0.8c0.1-0.3,0.2-0.6,0.2-0.9c0-0.4-0.1-0.8-0.2-1.2c-0.2-0.3-0.4-0.6-0.7-0.8s-0.6-0.4-1-0.5
			s-0.8-0.2-1.3-0.2h-3.2v9.8h1.6v-4h0.7c0.2,0,0.4,0,0.6,0.1s0.3,0.1,0.5,0.2c0.1,0.1,0.3,0.2,0.4,0.4c0.1,0.2,0.3,0.4,0.4,0.6
			l1.6,2.6h1.9L182.6,276.4z M175.1,277.8h-3.9v-2.9h3.4v-1.4h-3.4v-2.8h3.6v-1.4h-5.3v9.8h5.5L175.1,277.8L175.1,277.8z
			 M167.2,269.4h-1.7v9.8h1.7V269.4z M164.1,269.4h-7.2v1.4h2.8v8.4h1.6v-8.4h2.8L164.1,269.4L164.1,269.4z M148.4,274.8
			c1.4,0,2.1,0.5,2.1,1.5c0,0.5-0.2,0.9-0.5,1.2s-0.8,0.4-1.4,0.4h-1.4v-3.1L148.4,274.8L148.4,274.8z M148.4,270.7
			c1.1,0,1.7,0.4,1.7,1.3c0,0.5-0.2,0.9-0.5,1.1c-0.3,0.3-0.8,0.4-1.3,0.4h-1v-2.8H148.4z M148.8,279.2c1,0,1.8-0.3,2.5-0.8
			s1-1.2,1-2c0-0.7-0.2-1.2-0.6-1.6c-0.4-0.4-0.9-0.7-1.6-0.7l0,0c0.6-0.2,1-0.5,1.3-0.9s0.5-0.9,0.5-1.4c0-0.7-0.3-1.2-0.8-1.6
			c-0.6-0.4-1.3-0.6-2.2-0.6h-3.1v9.8h3L148.8,279.2L148.8,279.2z M143.9,277.8H140v-2.9h3.4v-1.4H140v-2.8h3.6v-1.4h-5.3v9.8h5.5
			L143.9,277.8L143.9,277.8z M135.4,269.4l-1.7,7.2c-0.1,0.4-0.1,0.7-0.2,0.9l0,0c0-0.3-0.1-0.6-0.1-0.9l-1.8-7.2h-1.7l-2,7.1
			c-0.1,0.4-0.2,0.7-0.2,0.9l0,0c0-0.3-0.1-0.6-0.1-0.9l-1.8-7.1H124l2.7,9.8h1.9l1.9-6.8c0.1-0.3,0.1-0.6,0.2-0.9l0,0
			c0,0.3,0.1,0.7,0.1,1l1.9,6.8h1.8l2.7-9.8L135.4,269.4L135.4,269.4z"/>
		
			<rect x="107" y="255.6" style="fill:none;stroke:#000000;stroke-width:3;stroke-linecap:round;stroke-linejoin:round;stroke-miterlimit:10;" width="94" height="36.3"/>
	</g>
	<g class="line">
		
			<line style="fill:none;stroke:#DEDEDE;stroke-width:4;stroke-linejoin:round;stroke-miterlimit:10;" x1="55.4" y1="0" x2="55.4" y2="277.2"/>
		
			<line style="fill:none;stroke:#DEDEDE;stroke-width:4;stroke-linejoin:round;stroke-miterlimit:10;" x1="83.3" y1="275.2" x2="53.7" y2="275.2"/>
		
			<circle style="fill:none;stroke:#DEDEDE;stroke-width:4;stroke-linecap:round;stroke-linejoin:round;stroke-miterlimit:10;" cx="87.4" cy="275.2" r="5"/>
	</g>
	<g class="line">
		
			<line style="fill:none;stroke:#DEDEDE;stroke-width:4;stroke-linejoin:round;stroke-miterlimit:10;" x1="929.6" y1="-1" x2="929.6" y2="350.2"/>
		
			<line style="fill:none;stroke:#DEDEDE;stroke-width:4;stroke-linejoin:round;stroke-miterlimit:10;" x1="874.7" y1="348.2" x2="931.3" y2="348.2"/>
		
			<circle style="fill:none;stroke:#DEDEDE;stroke-width:4;stroke-linecap:round;stroke-linejoin:round;stroke-miterlimit:10;" cx="870.6" cy="348.2" r="5"/>
	</g>
</g>
</svg>
