<?xml version="1.0" encoding="utf-8"?>
<!-- Generator: Adobe Illustrator 19.2.0, SVG Export Plug-In . SVG Version: 6.00 Build 0)  -->
<svg version="1.1" id="Layer_1" xmlns="http://www.w3.org/2000/svg" xmlns:xlink="http://www.w3.org/1999/xlink" x="0px" y="0px"
	 width="960px" height="376.5px" viewBox="0 0 960 376.5" style="enable-background:new 0 0 960 376.5;" xml:space="preserve">
<style type="text/css">
	.st0{fill:none;stroke:#686868;stroke-width:3;stroke-linecap:round;stroke-linejoin:round;stroke-miterlimit:10;}
	.st1{fill:none;stroke:#000000;stroke-width:3;stroke-linecap:round;stroke-linejoin:round;stroke-miterlimit:10;}
</style>
<polyline class="st0" points="468.2,363.2 468.2,315.7 339,315.7 339,245 339,210.1 "/>
<polyline class="st0" points="461.5,359.9 468.1,366.5 474.8,359.8 "/>
<polyline class="st0" points="468.2,336.6 468.2,327.9 253.5,327.9 253.5,181.4 253.5,146.5 "/>
<polyline class="st0" points="689.3,166.5 689.3,201.4 689.3,327.9 468.2,327.9 468.2,334.7 "/>
<polyline class="st0" points="468.2,327.9 468.2,315.7 594.2,315.7 594.3,245 594.3,210.1 "/>
<path class="st1" d="M245.1,144.7c0,0,7.9,4,16.6,0"/>
<path class="st1" d="M680.9,164.7c0,0,7.9,4,16.6,0"/>
<path class="st1" d="M330.7,208.3c0,0,7.9,4,16.6,0"/>
<path class="st1" d="M586,208.3c0,0,7.9,4,16.6,0"/>
<line class="st0" x1="468.2" y1="315.7" x2="468.2" y2="229.7"/>
<path class="st1" d="M459.9,226.4c0,0,7.9,4,16.6,0"/>
</svg>
