<svg class="infographic--4__fullwidth" xmlns="http://www.w3.org/2000/svg" viewBox="0 0 960 382.7"><g class="static"><path fill="#DEDEDE" d="M297.1 378.8c-1.1 0-2-.9-2-2v-5c0-1.1.9-2 2-2s2 .9 2 2v5c0 1.1-.9 2-2 2zM10.9 375.6c-1.1 0-2-.9-2-2v-5c0-1.1.9-2 2-2s2 .9 2 2v5c0 1.1-.9 2-2 2zM297.1 364.8c-1.1 0-2-.9-2-2v-5c0-1.1.9-2 2-2s2 .9 2 2v5c0 1.1-.9 2-2 2zM10.9 361.6c-1.1 0-2-.9-2-2v-5c0-1.1.9-2 2-2s2 .9 2 2v5c0 1.1-.9 2-2 2zM297.1 350.8c-1.1 0-2-.9-2-2v-5c0-1.1.9-2 2-2s2 .9 2 2v5c0 1.1-.9 2-2 2zM10.9 347.6c-1.1 0-2-.9-2-2v-5c0-1.1.9-2 2-2s2 .9 2 2v5c0 1.1-.9 2-2 2zM297.1 336.8c-1.1 0-2-.9-2-2v-5c0-1.1.9-2 2-2s2 .9 2 2v5c0 1.1-.9 2-2 2zM10.9 333.6c-1.1 0-2-.9-2-2v-5c0-1.1.9-2 2-2s2 .9 2 2v5c0 1.1-.9 2-2 2zM297.1 322.8c-1.1 0-2-.9-2-2v-5c0-1.1.9-2 2-2s2 .9 2 2v5c0 1.1-.9 2-2 2zM10.9 319.6c-1.1 0-2-.9-2-2v-5c0-1.1.9-2 2-2s2 .9 2 2v5c0 1.1-.9 2-2 2zM297.1 308.8c-1.1 0-2-.9-2-2v-5c0-1.1.9-2 2-2s2 .9 2 2v5c0 1.1-.9 2-2 2zM10.9 305.6c-1.1 0-2-.9-2-2v-5c0-1.1.9-2 2-2s2 .9 2 2v5c0 1.1-.9 2-2 2zM297.1 294.8c-1.1 0-2-.9-2-2v-5c0-1.1.9-2 2-2s2 .9 2 2v5c0 1.1-.9 2-2 2zM10.9 291.6c-1.1 0-2-.9-2-2v-5c0-1.1.9-2 2-2s2 .9 2 2v5c0 1.1-.9 2-2 2zM297.1 280.8c-1.1 0-2-.9-2-2v-5c0-1.1.9-2 2-2s2 .9 2 2v5c0 1.1-.9 2-2 2zM10.9 277.6c-1.1 0-2-.9-2-2v-5c0-1.1.9-2 2-2s2 .9 2 2v5c0 1.1-.9 2-2 2zM297.1 266.8c-1.1 0-2-.9-2-2v-5c0-1.1.9-2 2-2s2 .9 2 2v5c0 1.1-.9 2-2 2zM10.9 263.6c-1.1 0-2-.9-2-2v-5c0-1.1.9-2 2-2s2 .9 2 2v5c0 1.1-.9 2-2 2zM297.1 252.8c-1.1 0-2-.9-2-2v-5c0-1.1.9-2 2-2s2 .9 2 2v5c0 1.1-.9 2-2 2zM10.9 249.6c-1.1 0-2-.9-2-2v-5c0-1.1.9-2 2-2s2 .9 2 2v5c0 1.1-.9 2-2 2zM297.1 238.8c-1.1 0-2-.9-2-2v-5c0-1.1.9-2 2-2s2 .9 2 2v5c0 1.1-.9 2-2 2zM10.9 235.6c-1.1 0-2-.9-2-2v-5c0-1.1.9-2 2-2s2 .9 2 2v5c0 1.1-.9 2-2 2zM297.1 224.8c-1.1 0-2-.9-2-2v-5c0-1.1.9-2 2-2s2 .9 2 2v5c0 1.1-.9 2-2 2zM10.9 221.6c-1.1 0-2-.9-2-2v-5c0-1.1.9-2 2-2s2 .9 2 2v5c0 1.1-.9 2-2 2zM297.1 210.8c-1.1 0-2-.9-2-2v-5c0-1.1.9-2 2-2s2 .9 2 2v5c0 1.1-.9 2-2 2zM10.9 207.6c-1.1 0-2-.9-2-2v-5c0-1.1.9-2 2-2s2 .9 2 2v5c0 1.1-.9 2-2 2zM297.1 196.8c-1.1 0-2-.9-2-2v-5c0-1.1.9-2 2-2s2 .9 2 2v5c0 1.1-.9 2-2 2zM10.9 193.6c-1.1 0-2-.9-2-2v-5c0-1.1.9-2 2-2s2 .9 2 2v5c0 1.1-.9 2-2 2zM297.1 182.8c-1.1 0-2-.9-2-2v-5c0-1.1.9-2 2-2s2 .9 2 2v5c0 1.1-.9 2-2 2zM10.9 179.6c-1.1 0-2-.9-2-2v-5c0-1.1.9-2 2-2s2 .9 2 2v5c0 1.1-.9 2-2 2zM297.1 168.8c-1.1 0-2-.9-2-2v-5c0-1.1.9-2 2-2s2 .9 2 2v5c0 1.1-.9 2-2 2zM10.9 165.6c-1.1 0-2-.9-2-2v-5c0-1.1.9-2 2-2s2 .9 2 2v5c0 1.1-.9 2-2 2zM297.1 154.8c-1.1 0-2-.9-2-2v-5c0-1.1.9-2 2-2s2 .9 2 2v5c0 1.1-.9 2-2 2zM10.9 151.6c-1.1 0-2-.9-2-2v-5c0-1.1.9-2 2-2s2 .9 2 2v5c0 1.1-.9 2-2 2zM297.1 140.8c-1.1 0-2-.9-2-2v-5c0-1.1.9-2 2-2s2 .9 2 2v5c0 1.1-.9 2-2 2zM10.9 137.6c-1.1 0-2-.9-2-2v-5c0-1.1.9-2 2-2s2 .9 2 2v5c0 1.1-.9 2-2 2zM297.1 126.8c-1.1 0-2-.9-2-2v-5c0-1.1.9-2 2-2s2 .9 2 2v5c0 1.1-.9 2-2 2zM10.9 123.6c-1.1 0-2-.9-2-2v-5c0-1.1.9-2 2-2s2 .9 2 2v5c0 1.1-.9 2-2 2zM297.1 112.8c-1.1 0-2-.9-2-2v-5c0-1.1.9-2 2-2s2 .9 2 2v5c0 1.1-.9 2-2 2zM10.9 109.6c-1.1 0-2-.9-2-2v-5c0-1.1.9-2 2-2s2 .9 2 2v5c0 1.1-.9 2-2 2zM297.1 98.8c-1.1 0-2-.9-2-2v-5c0-1.1.9-2 2-2s2 .9 2 2v5c0 1.1-.9 2-2 2zM10.9 95.6c-1.1 0-2-.9-2-2v-5c0-1.1.9-2 2-2s2 .9 2 2v5c0 1.1-.9 2-2 2zM297.1 84.8c-1.1 0-2-.9-2-2v-5c0-1.1.9-2 2-2s2 .9 2 2v5c0 1.1-.9 2-2 2zM10.9 81.6c-1.1 0-2-.9-2-2v-5c0-1.1.9-2 2-2s2 .9 2 2v5c0 1.1-.9 2-2 2zM297.1 70.8c-1.1 0-2-.9-2-2v-5c0-1.1.9-2 2-2s2 .9 2 2v5c0 1.1-.9 2-2 2zM10.9 67.6c-1.1 0-2-.9-2-2v-5c0-1.1.9-2 2-2s2 .9 2 2v5c0 1.1-.9 2-2 2zM297.1 56.8c-1.1 0-2-.9-2-2v-5c0-1.1.9-2 2-2s2 .9 2 2v5c0 1.1-.9 2-2 2zM10.9 53.6c-1.1 0-2-.9-2-2v-5c0-1.1.9-2 2-2s2 .9 2 2v5c0 1.1-.9 2-2 2zM297.1 42.8c-1.1 0-2-.9-2-2v-5c0-1.1.9-2 2-2s2 .9 2 2v5c0 1.1-.9 2-2 2zM10.9 39.6c-1.1 0-2-.9-2-2v-5c0-1.1.9-2 2-2s2 .9 2 2v5c0 1.1-.9 2-2 2zM297.1 28.8c-1.1 0-2-.9-2-2v-5c0-1.1.9-2 2-2s2 .9 2 2v5c0 1.1-.9 2-2 2zM10.9 25.6c-1.1 0-2-.9-2-2v-5c0-1.1.9-2 2-2s2 .9 2 2v5c0 1.1-.9 2-2 2zM297.1 14.8c-1.1 0-2-.9-2-2v-5c0-1.1.9-2 2-2s2 .9 2 2v5c0 1.1-.9 2-2 2zM10.9 11.6c-1.1 0-2-.9-2-2v-5c0-1.1.9-2 2-2s2 .9 2 2v5c0 1.1-.9 2-2 2z"/><g class="outline"><path fill="none" stroke="#898989" stroke-width="3" stroke-miterlimit="10" d="M714.6 109.3h181.5v34.3H714.6zM768.4 70.4c0-14.9-12.1-26.9-26.9-26.9s-26.9 12.1-26.9 26.9V99.3h53.8V70.4zM832.2 70.4c0-14.9-12.1-26.9-26.9-26.9s-26.9 12.1-26.9 26.9V99.3h53.8V70.4zM896.1 70.4c0-14.9-12.1-26.9-26.9-26.9s-26.9 12.1-26.9 26.9V99.3h53.8V70.4zM714.6 279.1h181.5v34.3H714.6zM768.4 240.2c0-14.9-12.1-26.9-26.9-26.9s-26.9 12.1-26.9 26.9V269.1h53.8v-28.9zM832.2 240.2c0-14.9-12.1-26.9-26.9-26.9s-26.9 12.1-26.9 26.9V269.1h53.8v-28.9zM896.1 240.2c0-14.9-12.1-26.9-26.9-26.9s-26.9 12.1-26.9 26.9V269.1h53.8v-28.9z"/><g class="text" fill="#898989"><path d="M756.7 71.4c-.3.2-.5.4-.8.5-.2.1-.5.3-.7.4-.2.1-.5.2-.7.3s-.5.2-.8.3v1.3c.4-.1.8-.2 1.1-.4.3-.1.6-.3.9-.5v8h1.6v-10h-.6v.1zm-11.5 1.5c1.3 0 2 .6 2 1.7 0 .6-.2 1-.5 1.4-.4.3-.9.5-1.6.5h-1v-3.6h1.1zm.1 4.9c1.1 0 2-.3 2.6-.9.6-.6 1-1.4 1-2.3s-.3-1.7-.9-2.2-1.5-.8-2.6-.8h-3v9.8h1.6v-3.5l1.3-.1zm-8.3-4.9c1.3 0 2 .6 2 1.7 0 .6-.2 1-.5 1.4-.4.3-.9.5-1.6.5h-1v-3.6h1.1zm.2 4.9c1.1 0 2-.3 2.6-.9.6-.6 1-1.4 1-2.3s-.3-1.7-.9-2.2-1.5-.8-2.6-.8h-3v9.8h1.6v-3.5l1.3-.1zm-10.3-.3l1.3-3.9c0-.1.1-.4.1-.6 0 .3.1.5.1.6l1.4 3.9h-2.9zm2.4-5.9h-1.8l-3.7 9.8h1.8l.8-2.5h3.8l.9 2.5h1.8l-3.6-9.8zM852.8 131c.2-.2.3-.4.3-.6 0-.3-.1-.5-.3-.7s-.4-.3-.7-.3-.5.1-.7.3-.3.4-.3.7c0 .2.1.5.3.6s.4.3.7.3c.3-.1.5-.1.7-.3zm-3.4 0c.2-.2.3-.4.3-.6 0-.3-.1-.5-.3-.7s-.4-.3-.7-.3-.5.1-.7.3-.3.4-.3.7c0 .2.1.5.3.6s.4.3.7.3c.3-.1.5-.1.7-.3zm-3.3 0c.2-.2.3-.4.3-.6 0-.3-.1-.5-.3-.7s-.4-.3-.7-.3-.5.1-.7.3-.3.4-.3.7c0 .2.1.5.3.6s.4.3.7.3c.2-.1.5-.1.7-.3zm-5.9.3c.4 0 .8 0 1.1-.1.4-.1.7-.2.9-.4.3-.2.5-.4.7-.7s.2-.6.2-.9c0-.3 0-.5-.1-.8s-.2-.4-.4-.6c-.2-.2-.4-.3-.6-.4-.2-.1-.5-.3-.8-.4-.2-.1-.4-.1-.6-.2-.2-.1-.3-.1-.4-.2l-.3-.3c-.1-.1-.1-.2-.1-.4 0-.1 0-.2.1-.3l.3-.3c.1-.1.3-.1.4-.2.2 0 .3-.1.5-.1.6 0 1.2.2 1.7.5v-1.4c-.5-.2-1.1-.3-1.7-.3-.4 0-.7 0-1.1.1-.3.1-.6.2-.9.4-.3.2-.5.4-.6.6-.2.3-.2.6-.2.9 0 .3 0 .5.1.7s.2.4.3.5c.2.2.3.3.6.4.2.1.5.2.8.4.2.1.4.2.6.2.2.1.4.1.5.2l.3.3c.1.1.1.2.1.4 0 .6-.5.8-1.4.8-.7 0-1.4-.2-2-.7v1.5c.6.6 1.3.8 2 .8zm-6 0c.4 0 .8 0 1.1-.1.4-.1.7-.2.9-.4.3-.2.5-.4.7-.7s.2-.6.2-.9c0-.3 0-.5-.1-.8s-.2-.4-.4-.6c-.2-.2-.4-.3-.6-.4-.2-.1-.5-.3-.8-.4-.2-.1-.4-.1-.6-.2-.2-.1-.3-.1-.4-.2l-.3-.3c-.1-.1-.1-.2-.1-.4 0-.1 0-.2.1-.3l.3-.3c.1-.1.3-.1.4-.2.2 0 .3-.1.5-.1.6 0 1.2.2 1.7.5v-1.4c-.5-.2-1.1-.3-1.7-.3-.4 0-.7 0-1.1.1-.3.1-.6.2-.9.4-.3.2-.5.4-.6.6-.2.3-.2.6-.2.9 0 .3 0 .5.1.7s.2.4.3.5c.2.2.3.3.6.4.2.1.5.2.8.4.2.1.4.2.6.2.2.1.4.1.5.2l.3.3c.1.1.1.2.1.4 0 .6-.5.8-1.4.8-.7 0-1.4-.2-2-.7v1.5c.6.6 1.3.8 2 .8zm-5.2-5.5c.3.4.5 1 .5 1.8s-.2 1.3-.5 1.8c-.3.4-.8.6-1.4.6-.6 0-1.1-.2-1.5-.6-.4-.4-.5-1-.5-1.7 0-.8.2-1.4.5-1.8.4-.4.8-.6 1.5-.6.6-.1 1 .1 1.4.5zm1.1 4.5c.7-.7 1-1.6 1-2.7s-.3-2-.9-2.7c-.6-.6-1.5-1-2.5-1-1.1 0-2 .3-2.7 1s-1 1.6-1 2.7.3 1.9 1 2.6 1.5 1 2.6 1c1 .1 1.9-.3 2.5-.9zm-11.2-3.6c1.4 0 2.1.5 2.1 1.5 0 .5-.2.9-.5 1.2s-.8.4-1.4.4h-1.4v-3.1h1.2zm0-4.1c1.1 0 1.7.4 1.7 1.3 0 .5-.2.9-.5 1.1-.3.3-.8.4-1.3.4h-1v-2.8h1.1zm.4 8.5c1 0 1.8-.3 2.5-.8s1-1.2 1-2c0-.7-.2-1.2-.6-1.6-.4-.4-.9-.7-1.6-.7.6-.2 1-.5 1.3-.9s.5-.9.5-1.4c0-.7-.3-1.2-.8-1.6-.6-.4-1.3-.6-2.2-.6h-3.1v9.8h3v-.2zm-5.5-9.8h-1.6v6c0 1.7-.5 2.5-1.6 2.5-.4 0-.7-.1-1-.3v1.5c.3.1.7.2 1.1.2 1 0 1.7-.3 2.3-1s.9-1.5.9-2.7v-6.2h-.1zm-10.6 8.2l-.7 3.4h1.2l1.1-3.4h-1.6zm-1.3.3c-.2.2-.4.2-.7.2s-.6-.1-.7-.3c-.2-.2-.2-.5-.2-.9v-3.5h1.7v-1.2h-1.7V122l-1.6.4v1.6h-1.2v1.2h1.2v3.9c0 1.3.7 1.9 2 1.9.5 0 .9-.1 1.2-.2v-1zm-7.1-1.5c0 .5-.2.9-.5 1.3-.3.3-.7.5-1.2.5-.4 0-.6-.1-.8-.3s-.3-.4-.3-.7c0-.4.1-.7.3-.8.2-.2.6-.3 1-.3l1.5-.2v.5zm1.5-1.7c0-1.7-.9-2.6-2.6-2.6-1 0-1.8.2-2.5.7v1.4c.7-.6 1.4-.9 2.2-.9.9 0 1.4.5 1.4 1.5l-2.1.3c-1.5.2-2.3 1-2.3 2.3 0 .6.2 1.1.6 1.5s.9.6 1.6.6c.9 0 1.6-.4 2.1-1.3v1.1h1.5l.1-4.6zm-6.9 2.8c-.5.4-1 .6-1.6.6-.7 0-1.2-.2-1.6-.6s-.6-1-.6-1.7.2-1.3.6-1.8 1-.7 1.6-.7c.5 0 1.1.2 1.6.5v-1.5c-.5-.2-1-.3-1.7-.3-1.1 0-2.1.3-2.7 1s-1 1.6-1 2.8c0 1 .3 1.9 1 2.5.6.6 1.5 1 2.5 1 .8 0 1.4-.2 2-.5l-.1-1.3zm-6.9-2.6c0-1.9-.8-2.8-2.3-2.8-1 0-1.8.5-2.3 1.4-.1-.4-.4-.8-.7-1-.4-.3-.8-.4-1.3-.4-1 0-1.7.4-2.2 1.3v-1.1h-1.6v7h1.6v-3.8c0-.6.1-1.1.4-1.5.3-.4.6-.6 1.1-.6.9 0 1.4.6 1.4 1.9v3.9h1.6v-3.8c0-.6.1-1.1.4-1.5.3-.4.6-.6 1.1-.6s.8.2 1 .5.3.9.3 1.6v3.8h1.6l-.1-4.3zm-14.2-1c.3.4.5 1 .5 1.8s-.2 1.3-.5 1.8c-.3.4-.8.6-1.4.6-.6 0-1.1-.2-1.5-.6-.4-.4-.5-1-.5-1.7 0-.8.2-1.4.5-1.8.4-.4.8-.6 1.5-.6.6-.1 1.1.1 1.4.5zm1.2 4.5c.7-.7 1-1.6 1-2.7s-.3-2-.9-2.7c-.6-.6-1.5-1-2.5-1-1.1 0-2 .3-2.7 1s-1 1.6-1 2.7.3 1.9 1 2.6 1.5 1 2.6 1c.9.1 1.8-.3 2.5-.9zm-5.6-9h-7.2v1.4h2.8v8.4h1.6v-8.4h2.8v-1.4zM822.7 80h-4.4c0-.2.1-.4.2-.6.1-.2.3-.4.5-.6.2-.2.4-.4.7-.6.3-.2.5-.4.8-.6.3-.3.6-.5.8-.8s.5-.5.6-.8c.2-.3.3-.6.4-.9.1-.3.1-.7.1-1.1 0-.4-.1-.8-.2-1.2-.1-.3-.3-.6-.6-.8s-.6-.4-.9-.5c-.4-.1-.8-.2-1.2-.2-.3 0-.5 0-.8.1-.2 0-.5.1-.7.2l-.6.3c-.2.1-.4.2-.6.4v1.5c.4-.4.8-.7 1.2-.8.4-.2.8-.3 1.2-.3.2 0 .4 0 .6.1.2.1.4.2.5.3s.3.3.3.5c.1.2.1.4.1.7 0 .2 0 .5-.1.7l-.3.6c-.1.2-.3.4-.4.5-.2.2-.4.3-.6.5-.2.2-.4.4-.7.6-.2.2-.5.4-.7.6l-.6.6c-.2.2-.4.4-.5.7-.1.2-.3.5-.3.8s-.1.6-.1.9v.8h6.1V80h.2zM808 72.9c1.3 0 2 .6 2 1.7 0 .6-.2 1-.5 1.4-.4.3-.9.5-1.6.5h-1v-3.6h1.1zm.1 4.9c1.1 0 2-.3 2.6-.9.6-.6 1-1.4 1-2.3s-.3-1.7-.9-2.2-1.5-.8-2.6-.8h-3v9.8h1.6v-3.5l1.3-.1zm-8.3-4.9c1.3 0 2 .6 2 1.7 0 .6-.2 1-.5 1.4-.4.3-.9.5-1.6.5h-1v-3.6h1.1zm.1 4.9c1.1 0 2-.3 2.6-.9.6-.6 1-1.4 1-2.3s-.3-1.7-.9-2.2-1.5-.8-2.6-.8h-3v9.8h1.6v-3.5l1.3-.1zm-10.3-.3l1.3-3.9c0-.1.1-.4.1-.6 0 .3.1.5.1.6l1.4 3.9h-2.9zm2.5-5.9h-1.8l-3.7 9.8h1.8l.8-2.5h3.8l.9 2.5h1.8l-3.6-9.8zM882.9 81.5c1.1 0 1.9-.3 2.6-.8.7-.5 1-1.2 1-2.1 0-.6-.2-1.2-.6-1.6-.4-.4-1-.7-1.7-.7 1.3-.4 2-1.2 2-2.5 0-.7-.3-1.2-.8-1.7-.5-.4-1.2-.7-2.1-.7-.9 0-1.7.2-2.3.6v1.4c.6-.5 1.2-.7 1.8-.7 1.2 0 1.8.5 1.8 1.4 0 1-.8 1.6-2.3 1.6h-.7V77h.8c1.7 0 2.5.6 2.5 1.7 0 .5-.2.9-.6 1.2s-.9.4-1.6.4c-.8 0-1.5-.3-2.1-.8V81c.6.3 1.4.5 2.3.5zm-11.1-8.6c1.3 0 2 .6 2 1.7 0 .6-.2 1-.5 1.4-.4.3-.9.5-1.6.5h-1v-3.6h1.1zm.1 4.9c1.1 0 2-.3 2.6-.9.6-.6 1-1.4 1-2.3s-.3-1.7-.9-2.2-1.5-.8-2.6-.8h-3v9.8h1.6v-3.5l1.3-.1zm-8.2-4.9c1.3 0 2 .6 2 1.7 0 .6-.2 1-.5 1.4-.4.3-.9.5-1.6.5h-1v-3.6h1.1zm.1 4.9c1.1 0 2-.3 2.6-.9.6-.6 1-1.4 1-2.3s-.3-1.7-.9-2.2-1.5-.8-2.6-.8h-3v9.8h1.6v-3.5l1.3-.1zm-10.3-.3l1.3-3.9c0-.1.1-.4.1-.6 0 .3.1.5.1.6l1.4 3.9h-2.9zm2.4-5.9h-1.8l-3.7 9.8h1.8l.8-2.5h3.8l.9 2.5h1.8l-3.6-9.8zM756.7 241.2c-.3.2-.5.4-.8.5-.2.1-.5.3-.7.4s-.5.2-.7.3c-.2.1-.5.2-.8.3v1.3c.4-.1.8-.2 1.1-.4.3-.1.6-.3.9-.5v8h1.6v-10l-.6.1zm-11.5 1.5c1.3 0 2 .6 2 1.7 0 .6-.2 1-.5 1.4-.4.3-.9.5-1.6.5h-1v-3.6h1.1zm.1 4.9c1.1 0 2-.3 2.6-.9s1-1.4 1-2.3-.3-1.7-.9-2.2-1.5-.8-2.6-.8h-3v9.8h1.6v-3.5l1.3-.1zm-8.3-4.9c1.3 0 2 .6 2 1.7 0 .6-.2 1-.5 1.4-.4.3-.9.5-1.6.5h-1v-3.6h1.1zm.2 4.9c1.1 0 2-.3 2.6-.9s1-1.4 1-2.3-.3-1.7-.9-2.2-1.5-.8-2.6-.8h-3v9.8h1.6v-3.5l1.3-.1zm-10.3-.3l1.3-3.9c0-.1.1-.4.1-.6 0 .3.1.5.1.6l1.4 3.9h-2.9zm2.4-5.9h-1.8l-3.7 9.8h1.8l.8-2.5h3.8l.9 2.5h1.8l-3.6-9.8zM852.8 300.8c.2-.2.3-.4.3-.6 0-.3-.1-.5-.3-.7s-.4-.3-.7-.3-.5.1-.7.3c-.2.2-.3.4-.3.7 0 .2.1.5.3.6s.4.3.7.3c.3-.1.5-.2.7-.3zm-3.4 0c.2-.2.3-.4.3-.6 0-.3-.1-.5-.3-.7s-.4-.3-.7-.3-.5.1-.7.3c-.2.2-.3.4-.3.7 0 .2.1.5.3.6s.4.3.7.3c.3-.1.5-.2.7-.3zm-3.3 0c.2-.2.3-.4.3-.6 0-.3-.1-.5-.3-.7s-.4-.3-.7-.3-.5.1-.7.3c-.2.2-.3.4-.3.7 0 .2.1.5.3.6s.4.3.7.3c.2-.1.5-.2.7-.3zm-5.9.2c.4 0 .8 0 1.1-.1.4-.1.7-.2.9-.4.3-.2.5-.4.7-.7.2-.3.2-.6.2-.9s0-.5-.1-.8-.2-.4-.4-.6-.4-.3-.6-.4c-.2-.1-.5-.3-.8-.4-.2-.1-.4-.1-.6-.2-.2-.1-.3-.1-.4-.2l-.3-.3c-.1-.1-.1-.2-.1-.4 0-.1 0-.2.1-.3l.3-.3c.1-.1.3-.1.4-.2.2 0 .3-.1.5-.1.6 0 1.2.2 1.7.5v-1.4c-.5-.2-1.1-.3-1.7-.3-.4 0-.7 0-1.1.1-.3.1-.6.2-.9.4-.3.2-.5.4-.6.6-.2.3-.2.6-.2.9s0 .5.1.7.2.4.3.5c.2.2.3.3.6.4.2.1.5.2.8.4.2.1.4.2.6.2.2.1.4.1.5.2l.3.3c.1.1.1.2.1.4 0 .6-.5.8-1.4.8-.7 0-1.4-.2-2-.7v1.5c.6.7 1.3.8 2 .8zm-6 0c.4 0 .8 0 1.1-.1.4-.1.7-.2.9-.4.3-.2.5-.4.7-.7.2-.3.2-.6.2-.9s0-.5-.1-.8-.2-.4-.4-.6-.4-.3-.6-.4c-.2-.1-.5-.3-.8-.4-.2-.1-.4-.1-.6-.2-.2-.1-.3-.1-.4-.2l-.3-.3c-.1-.1-.1-.2-.1-.4 0-.1 0-.2.1-.3l.3-.3c.1-.1.3-.1.4-.2.2 0 .3-.1.5-.1.6 0 1.2.2 1.7.5v-1.4c-.5-.2-1.1-.3-1.7-.3-.4 0-.7 0-1.1.1-.3.1-.6.2-.9.4-.3.2-.5.4-.6.6-.2.3-.2.6-.2.9s0 .5.1.7.2.4.3.5c.2.2.3.3.6.4.2.1.5.2.8.4.2.1.4.2.6.2.2.1.4.1.5.2l.3.3c.1.1.1.2.1.4 0 .6-.5.8-1.4.8-.7 0-1.4-.2-2-.7v1.5c.6.7 1.3.8 2 .8zm-5.2-5.4c.3.4.5 1 .5 1.8s-.2 1.3-.5 1.8c-.3.4-.8.6-1.4.6-.6 0-1.1-.2-1.5-.6s-.5-1-.5-1.7c0-.8.2-1.4.5-1.8.4-.4.8-.6 1.5-.6.6-.1 1 .1 1.4.5zm1.1 4.4c.7-.7 1-1.6 1-2.7s-.3-2-.9-2.7c-.6-.6-1.5-1-2.5-1-1.1 0-2 .3-2.7 1s-1 1.6-1 2.7.3 1.9 1 2.6 1.5 1 2.6 1c1 .1 1.9-.2 2.5-.9zm-11.2-3.5c1.4 0 2.1.5 2.1 1.5 0 .5-.2.9-.5 1.2-.3.3-.8.4-1.4.4h-1.4v-3.1h1.2zm0-4.1c1.1 0 1.7.4 1.7 1.3 0 .5-.2.9-.5 1.1-.3.3-.8.4-1.3.4h-1v-2.8h1.1zm.4 8.5c1 0 1.8-.3 2.5-.8s1-1.2 1-2c0-.7-.2-1.2-.6-1.6-.4-.4-.9-.7-1.6-.7.6-.2 1-.5 1.3-.9s.5-.9.5-1.4c0-.7-.3-1.2-.8-1.6-.6-.4-1.3-.6-2.2-.6h-3.1v9.8h3v-.2zm-5.5-9.8h-1.6v6c0 1.7-.5 2.5-1.6 2.5-.4 0-.7-.1-1-.3v1.5c.3.1.7.2 1.1.2 1 0 1.7-.3 2.3-1s.9-1.5.9-2.7v-6.2h-.1zm-10.6 8.1l-.7 3.4h1.2l1.1-3.4h-1.6zm-1.3.3c-.2.2-.4.2-.7.2s-.6-.1-.7-.3c-.2-.2-.2-.5-.2-.9V295h1.7v-1.2h-1.7v-2.1l-1.6.4v1.6h-1.2v1.2h1.2v3.9c0 1.3.7 1.9 2 1.9.5 0 .9-.1 1.2-.2v-1zm-7.1-1.4c0 .5-.2.9-.5 1.3-.3.3-.7.5-1.2.5-.4 0-.6-.1-.8-.3-.2-.2-.3-.4-.3-.7 0-.4.1-.7.3-.8.2-.2.6-.3 1-.3l1.5-.2v.5zm1.5-1.8c0-1.7-.9-2.6-2.6-2.6-1 0-1.8.2-2.5.7v1.4c.7-.6 1.4-.9 2.2-.9.9 0 1.4.5 1.4 1.5l-2.1.3c-1.5.2-2.3 1-2.3 2.3 0 .6.2 1.1.6 1.5s.9.6 1.6.6c.9 0 1.6-.4 2.1-1.3v1.1h1.5l.1-4.6zm-6.9 2.9c-.5.4-1 .6-1.6.6-.7 0-1.2-.2-1.6-.6s-.6-1-.6-1.7.2-1.3.6-1.8 1-.7 1.6-.7c.5 0 1.1.2 1.6.5V294c-.5-.2-1-.3-1.7-.3-1.1 0-2.1.3-2.7 1s-1 1.6-1 2.8c0 1 .3 1.9 1 2.5.6.6 1.5 1 2.5 1 .8 0 1.4-.2 2-.5l-.1-1.3zm-6.9-2.6c0-1.9-.8-2.8-2.3-2.8-1 0-1.8.5-2.3 1.4-.1-.4-.4-.8-.7-1-.4-.3-.8-.4-1.3-.4-1 0-1.7.4-2.2 1.3V294h-1.6v7h1.6v-3.8c0-.6.1-1.1.4-1.5.3-.4.6-.6 1.1-.6.9 0 1.4.6 1.4 1.9v3.9h1.6v-3.8c0-.6.1-1.1.4-1.5.3-.4.6-.6 1.1-.6s.8.2 1 .5.3.9.3 1.6v3.8h1.6l-.1-4.3zm-14.2-1c.3.4.5 1 .5 1.8s-.2 1.3-.5 1.8c-.3.4-.8.6-1.4.6-.6 0-1.1-.2-1.5-.6s-.5-1-.5-1.7c0-.8.2-1.4.5-1.8.4-.4.8-.6 1.5-.6.6-.1 1.1.1 1.4.5zm1.2 4.4c.7-.7 1-1.6 1-2.7s-.3-2-.9-2.7c-.6-.6-1.5-1-2.5-1-1.1 0-2 .3-2.7 1s-1 1.6-1 2.7.3 1.9 1 2.6 1.5 1 2.6 1c.9.1 1.8-.2 2.5-.9zm-5.6-8.9h-7.2v1.4h2.8v8.4h1.6v-8.4h2.8v-1.4zM822.7 249.8h-4.4c0-.2.1-.4.2-.6.1-.2.3-.4.5-.6s.4-.4.7-.6.5-.4.8-.6c.3-.3.6-.5.8-.8s.5-.5.6-.8c.2-.3.3-.6.4-.9.1-.3.1-.7.1-1.1s-.1-.8-.2-1.2c-.1-.3-.3-.6-.6-.8-.3-.2-.6-.4-.9-.5-.4-.1-.8-.2-1.2-.2-.3 0-.5 0-.8.1-.2 0-.5.1-.7.2l-.6.3c-.2.1-.4.2-.6.4v1.5c.4-.4.8-.7 1.2-.8.4-.2.8-.3 1.2-.3.2 0 .4 0 .6.1.2.1.4.2.5.3.1.1.3.3.3.5.1.2.1.4.1.7 0 .2 0 .5-.1.7l-.3.6c-.1.2-.3.4-.4.5-.2.2-.4.3-.6.5-.2.2-.4.4-.7.6-.2.2-.5.4-.7.6l-.6.6c-.2.2-.4.4-.5.7-.1.2-.3.5-.3.8s-.1.6-.1.9v.8h6.1v-1.6h.2zm-14.7-7.1c1.3 0 2 .6 2 1.7 0 .6-.2 1-.5 1.4-.4.3-.9.5-1.6.5h-1v-3.6h1.1zm.1 4.9c1.1 0 2-.3 2.6-.9s1-1.4 1-2.3-.3-1.7-.9-2.2-1.5-.8-2.6-.8h-3v9.8h1.6v-3.5l1.3-.1zm-8.3-4.9c1.3 0 2 .6 2 1.7 0 .6-.2 1-.5 1.4-.4.3-.9.5-1.6.5h-1v-3.6h1.1zm.1 4.9c1.1 0 2-.3 2.6-.9s1-1.4 1-2.3-.3-1.7-.9-2.2-1.5-.8-2.6-.8h-3v9.8h1.6v-3.5l1.3-.1zm-10.3-.3l1.3-3.9c0-.1.1-.4.1-.6 0 .3.1.5.1.6l1.4 3.9h-2.9zm2.5-5.9h-1.8l-3.7 9.8h1.8l.8-2.5h3.8l.9 2.5h1.8l-3.6-9.8zM882.9 251.3c1.1 0 1.9-.3 2.6-.8.7-.5 1-1.2 1-2.1 0-.6-.2-1.2-.6-1.6-.4-.4-1-.7-1.7-.7 1.3-.4 2-1.2 2-2.5 0-.7-.3-1.2-.8-1.7-.5-.4-1.2-.7-2.1-.7-.9 0-1.7.2-2.3.6v1.4c.6-.5 1.2-.7 1.8-.7 1.2 0 1.8.5 1.8 1.4 0 1-.8 1.6-2.3 1.6h-.7v1.3h.8c1.7 0 2.5.6 2.5 1.7 0 .5-.2.9-.6 1.2s-.9.4-1.6.4c-.8 0-1.5-.3-2.1-.8v1.5c.6.3 1.4.5 2.3.5zm-11.1-8.6c1.3 0 2 .6 2 1.7 0 .6-.2 1-.5 1.4-.4.3-.9.5-1.6.5h-1v-3.6h1.1zm.1 4.9c1.1 0 2-.3 2.6-.9s1-1.4 1-2.3-.3-1.7-.9-2.2-1.5-.8-2.6-.8h-3v9.8h1.6v-3.5l1.3-.1zm-8.2-4.9c1.3 0 2 .6 2 1.7 0 .6-.2 1-.5 1.4-.4.3-.9.5-1.6.5h-1v-3.6h1.1zm.1 4.9c1.1 0 2-.3 2.6-.9s1-1.4 1-2.3-.3-1.7-.9-2.2-1.5-.8-2.6-.8h-3v9.8h1.6v-3.5l1.3-.1zm-10.3-.3l1.3-3.9c0-.1.1-.4.1-.6 0 .3.1.5.1.6l1.4 3.9h-2.9zm2.4-5.9h-1.8l-3.7 9.8h1.8l.8-2.5h3.8l.9 2.5h1.8l-3.6-9.8z"/></g></g><path fill="#898989" d="M116.6 212.7c1.3 0 2 .6 2 1.7 0 .6-.2 1-.5 1.4-.4.3-.9.5-1.6.5h-1v-3.6h1.1zm.1 4.9c1.1 0 2-.3 2.6-.9s1-1.4 1-2.3-.3-1.7-.9-2.2-1.5-.8-2.6-.8h-3v9.8h1.6v-3.5l1.3-.1zm-8.3-4.9c1.3 0 2 .6 2 1.7 0 .6-.2 1-.5 1.4-.4.3-.9.5-1.6.5h-1v-3.6h1.1zm.2 4.9c1.1 0 2-.3 2.6-.9s1-1.4 1-2.3-.3-1.7-.9-2.2-1.5-.8-2.6-.8h-3v9.8h1.6v-3.5l1.3-.1zm-10.4-.3l1.3-3.9c0-.1.1-.4.1-.6 0 .3.1.5.1.6l1.4 3.9h-2.9zm2.5-5.9h-1.8l-3.7 9.8H97l.8-2.5h3.8l.9 2.5h1.8l-3.6-9.8zM136.6 227.9c-.3.2-.5.4-.8.5-.2.1-.5.3-.7.4s-.5.2-.7.3c-.2.1-.5.2-.8.3v1.3c.4-.1.8-.2 1.1-.4.3-.1.6-.3.9-.5v8h1.6v-10l-.6.1zm-11.9 1.5c.6 0 1 .1 1.3.4s.4.6.4 1.1c0 .3 0 .5-.1.7s-.2.4-.4.5c-.2.1-.3.3-.5.3s-.4.1-.7.1h-1.3v-3.2l1.3.1zm2.9 5.7c-.1-.2-.3-.4-.4-.6s-.2-.3-.3-.4c-.1-.1-.2-.3-.4-.4-.1-.1-.3-.2-.5-.3.3-.1.6-.2.9-.4.3-.2.5-.4.7-.6s.3-.5.4-.8.2-.6.2-.9c0-.4-.1-.8-.2-1.2-.2-.3-.4-.6-.7-.8-.3-.2-.6-.4-1-.5s-.8-.2-1.3-.2h-3.2v9.8h1.6v-4h.7c.2 0 .4 0 .6.1s.3.1.5.2c.1.1.3.2.4.4.1.2.3.4.4.6l1.6 2.6h1.9l-1.9-2.6zm-7.6 1.4h-3.9v-2.9h3.4v-1.4h-3.4v-2.8h3.6V228h-5.3v9.8h5.5v-1.3h.1zm-8.4-8.4l-2.5 7.4c-.1.3-.2.6-.2.8 0-.3-.1-.6-.2-.8l-2.4-7.4h-1.8l3.4 9.8h1.8l3.5-9.8h-1.6zm-11.7 1.3c.6 0 1 .1 1.3.4s.4.6.4 1.1c0 .3 0 .5-.1.7s-.2.4-.4.5c-.2.1-.3.3-.5.3s-.4.1-.7.1h-1.3v-3.2l1.3.1zm2.9 5.7c-.1-.2-.3-.4-.4-.6s-.2-.3-.3-.4c-.1-.1-.2-.3-.4-.4-.1-.1-.3-.2-.5-.3.3-.1.6-.2.9-.4.3-.2.5-.4.7-.6s.3-.5.4-.8.2-.6.2-.9c0-.4-.1-.8-.2-1.2-.2-.3-.4-.6-.7-.8-.3-.2-.6-.4-1-.5s-.8-.2-1.3-.2H97v9.8h1.6v-4h.7c.2 0 .4 0 .6.1s.3.1.5.2c.1.1.3.2.4.4.1.2.3.4.4.6l1.6 2.6h1.9l-1.9-2.6zm-7.6 1.4h-3.9v-2.9h3.4v-1.4h-3.4v-2.8H95V228h-5.3v9.8h5.5v-1.3zm-12.9 1.2c.2.1.5.1.7.2.3 0 .5.1.7.1h.6c.5 0 1 0 1.4-.1s.8-.2 1.2-.5c.3-.2.6-.5.8-.8.2-.3.3-.8.3-1.3 0-.4-.1-.7-.2-1s-.3-.5-.5-.8c-.2-.2-.5-.5-.8-.6-.3-.2-.6-.4-1-.6-.3-.1-.6-.3-.9-.4s-.5-.3-.6-.4c-.2-.1-.3-.3-.4-.4-.1-.2-.1-.3-.1-.6 0-.2.1-.4.2-.6s.3-.3.5-.4.4-.2.6-.2.5-.1.7-.1c.9 0 1.6.2 2.1.6v-1.6c-.5-.2-1.2-.3-2.2-.3-.4 0-.9.1-1.3.2s-.8.3-1.2.5c-.3.2-.6.5-.8.8s-.3.7-.3 1.2c0 .4.1.7.2 1s.3.5.5.7.5.4.7.6c.3.2.6.4.9.5s.6.3.9.4.5.3.7.4.4.3.5.5.2.4.2.6c0 .4-.2.8-.5 1s-.8.3-1.5.3c-.2 0-.4 0-.6-.1-.2 0-.5-.1-.7-.2s-.5-.2-.7-.3c-.2-.1-.4-.2-.5-.4v1.7c0 .2.1.3.4.4zM205 212.7c1.3 0 2 .6 2 1.7 0 .6-.2 1-.5 1.4-.4.3-.9.5-1.6.5h-1v-3.6h1.1zm.1 4.9c1.1 0 2-.3 2.6-.9s1-1.4 1-2.3-.3-1.7-.9-2.2-1.5-.8-2.6-.8h-3v9.8h1.6v-3.5l1.3-.1zm-8.2-4.9c1.3 0 2 .6 2 1.7 0 .6-.2 1-.5 1.4-.4.3-.9.5-1.6.5h-1v-3.6h1.1zm.1 4.9c1.1 0 2-.3 2.6-.9s1-1.4 1-2.3-.3-1.7-.9-2.2-1.5-.8-2.6-.8h-3v9.8h1.6v-3.5l1.3-.1zm-10.3-.3l1.3-3.9c0-.1.1-.4.1-.6 0 .3.1.5.1.6l1.4 3.9h-2.9zm2.4-5.9h-1.8l-3.7 9.8h1.8l.8-2.5h3.8l.9 2.5h1.8l-3.6-9.8zM227.2 236.5h-4.4c0-.2.1-.4.2-.6.1-.2.3-.4.5-.6s.4-.4.7-.6.5-.4.8-.6c.3-.3.6-.5.8-.8s.5-.5.6-.8c.2-.3.3-.6.4-.9.1-.3.1-.7.1-1.1s-.1-.8-.2-1.2c-.1-.3-.3-.6-.6-.8-.3-.2-.6-.4-.9-.5-.4-.1-.8-.2-1.2-.2-.3 0-.5 0-.8.1-.2 0-.5.1-.7.2l-.6.3c-.2.1-.4.2-.6.4v1.5c.4-.4.8-.7 1.2-.8.4-.2.8-.3 1.2-.3.2 0 .4 0 .6.1.2.1.4.2.5.3.1.1.3.3.3.5.1.2.1.4.1.7 0 .2 0 .5-.1.7l-.3.6c-.1.2-.3.4-.4.5-.2.2-.4.3-.6.5-.2.2-.4.4-.7.6-.2.2-.5.4-.7.6l-.6.6c-.2.2-.4.4-.5.7-.1.2-.3.5-.3.8s-.1.6-.1.9v.8h6.1v-1.6h.2zm-15.1-7.1c.6 0 1 .1 1.3.4s.4.6.4 1.1c0 .3 0 .5-.1.7s-.2.4-.4.5-.3.3-.5.3-.4.1-.7.1h-1.3v-3.2l1.3.1zm2.8 5.7c-.1-.2-.3-.4-.4-.6-.1-.2-.2-.3-.3-.4s-.2-.3-.4-.4c-.1-.1-.3-.2-.5-.3.3-.1.6-.2.9-.4.3-.2.5-.4.7-.6s.3-.5.4-.8c.1-.3.2-.6.2-.9 0-.4-.1-.8-.2-1.2-.2-.3-.4-.6-.7-.8-.3-.2-.6-.4-1-.5s-.8-.2-1.3-.2h-3.2v9.8h1.6v-4h.7c.2 0 .4 0 .6.1s.3.1.5.2c.1.1.3.2.4.4.1.2.3.4.4.6l1.6 2.6h1.9l-1.9-2.6zm-7.5 1.4h-3.9v-2.9h3.4v-1.4h-3.4v-2.8h3.6V228h-5.3v9.8h5.5l.1-1.3zm-8.5-8.4l-2.5 7.4c-.1.3-.2.6-.2.8 0-.3-.1-.6-.2-.8l-2.4-7.4h-1.8l3.4 9.8h1.8l3.5-9.8h-1.6zm-11.6 1.3c.6 0 1 .1 1.3.4s.4.6.4 1.1c0 .3 0 .5-.1.7s-.2.4-.4.5-.3.3-.5.3-.4.1-.7.1H186v-3.2l1.3.1zm2.8 5.7c-.1-.2-.3-.4-.4-.6-.1-.2-.2-.3-.3-.4s-.2-.3-.4-.4c-.1-.1-.3-.2-.5-.3.3-.1.6-.2.9-.4.3-.2.5-.4.7-.6s.3-.5.4-.8c.1-.3.2-.6.2-.9 0-.4-.1-.8-.2-1.2-.2-.3-.4-.6-.7-.8-.3-.2-.6-.4-1-.5s-.8-.2-1.3-.2h-3.2v9.8h1.6v-4h.7c.2 0 .4 0 .6.1s.3.1.5.2c.1.1.3.2.4.4.1.2.3.4.4.6l1.6 2.6h1.9l-1.9-2.6zm-7.5 1.4h-3.9v-2.9h3.4v-1.4h-3.4v-2.8h3.6V228H177v9.8h5.5l.1-1.3zm-13 1.2c.2.1.5.1.7.2.3 0 .5.1.7.1h.6c.5 0 1 0 1.4-.1s.8-.2 1.2-.5c.3-.2.6-.5.8-.8s.3-.8.3-1.3c0-.4-.1-.7-.2-1s-.3-.5-.5-.8c-.2-.2-.5-.5-.8-.6-.3-.2-.6-.4-1-.6-.3-.1-.6-.3-.9-.4-.3-.1-.5-.3-.6-.4-.2-.1-.3-.3-.4-.4-.1-.2-.1-.3-.1-.6 0-.2.1-.4.2-.6s.3-.3.5-.4.4-.2.6-.2c.2 0 .5-.1.7-.1.9 0 1.6.2 2.1.6v-1.6c-.5-.2-1.2-.3-2.2-.3-.4 0-.9.1-1.3.2s-.8.3-1.2.5c-.3.2-.6.5-.8.8s-.3.7-.3 1.2c0 .4.1.7.2 1s.3.5.5.7.5.4.7.6c.3.2.6.4.9.5.3.1.6.3.9.4.3.1.5.3.7.4s.4.3.5.5.2.4.2.6c0 .4-.2.8-.5 1s-.8.3-1.5.3c-.2 0-.4 0-.6-.1-.2 0-.5-.1-.7-.2s-.5-.2-.7-.3c-.2-.1-.4-.2-.5-.4v1.7c0 .2.2.3.4.4z"/><g fill="#A8A8A8"><path d="M104.8 167.2V196H148v-28.8h-43.2zm12 26.4h-9.6v-18h9.6v18zm28.9 0h-26.4v-18h26.4v18z"/><path d="M126.4 178h13.2v2.4h-13.2zM126.4 181.6h13.2v2.4h-13.2zM126.4 185.2h13.2v2.4h-13.2zM126.4 188.8h13.2v2.4h-13.2zM107.2 169.6h38.4v3.6h-38.4z"/><path d="M115.5 118.2H84.7c-2.1 0-3.8 1.7-3.8 3.8v75H102v-7.7H86.6v-3.8H102v-3.8H86.6v-3.8H102v-11.5l-.1-1.9h17.3v-42.4c.1-2.3-1.6-3.9-3.7-3.9zm-1.9 15.3h-27v-3.8h26.9l.1 3.8z"/></g><g fill="#A8A8A8"><path d="M192.6 167.2V196h43.2v-28.8h-43.2zm12 26.4H195v-18h9.6v18zm28.8 0H207v-18h26.4v18z"/><path d="M214.2 178h13.2v2.4h-13.2zM214.2 181.6h13.2v2.4h-13.2zM214.2 185.2h13.2v2.4h-13.2zM214.2 188.8h13.2v2.4h-13.2zM195 169.6h38.4v3.6H195z"/><path d="M203.3 118.2h-30.8c-2.1 0-3.8 1.7-3.8 3.8v75h21.1v-7.7h-15.4v-3.8h15.4v-3.8h-15.4v-3.8h15.4v-11.5l-.1-1.9H207v-42.4c.1-2.3-1.6-3.9-3.7-3.9zm-2 15.3h-26.9v-3.8h26.9v3.8z"/></g><path fill="#898989" d="M847 176.2c.6 0 1 .1 1.3.4s.4.6.4 1.1c0 .3 0 .5-.1.7s-.2.4-.4.5-.3.3-.6.3-.4.1-.7.1h-1.4v-3.2l1.5.1zm2.9 5.7c-.1-.2-.3-.4-.4-.6-.1-.2-.2-.3-.4-.4s-.2-.3-.4-.4c-.1-.1-.3-.2-.5-.3.3-.1.6-.2.9-.4s.5-.4.7-.6.3-.5.4-.8c.1-.3.2-.6.2-1s-.1-.8-.2-1.2c-.2-.3-.4-.6-.7-.8-.3-.2-.6-.4-1-.5s-.8-.2-1.3-.2H844v9.8h1.6v-4h.7c.2 0 .4 0 .6.1s.3.1.5.2.3.3.4.4c.1.2.3.4.4.6l1.6 2.6h1.9l-1.8-2.5zm-7.6 1.4h-3.9v-2.9h3.4V179h-3.4v-2.8h3.7v-1.4h-5.3v9.8h5.5v-1.3zm-8.5-8.4l-2.5 7.4c-.1.3-.2.6-.2.8 0-.3-.1-.6-.2-.8l-2.4-7.4h-1.8l3.5 9.8h1.8l3.5-9.8h-1.7zm-10.3 2.2c.5.6.8 1.5.8 2.7 0 1.1-.3 2-.8 2.7s-1.3 1-2.2 1-1.6-.3-2.1-1-.8-1.5-.8-2.6.3-2 .8-2.6 1.3-1 2.2-1c.9-.1 1.6.2 2.1.8zm1.2 6.4c.9-.9 1.3-2.2 1.3-3.8 0-1.5-.4-2.7-1.3-3.6s-1.9-1.4-3.3-1.4c-1.5 0-2.7.5-3.5 1.4s-1.3 2.2-1.3 3.8c0 1.5.4 2.7 1.3 3.6s2 1.4 3.4 1.4 2.5-.5 3.4-1.4zm-8.5-.2h-3.8v-8.4h-1.6v9.8h5.4v-1.4zm-7.8-8.4h-1.7v9.8h1.7v-9.8zm-9.1 6l1.3-3.9c.1-.2.1-.4.1-.6 0 .3.1.5.1.6l1.4 3.9h-2.9zm2.4-6h-1.8l-3.7 9.8h1.8l.8-2.5h3.9l.9 2.5h1.8l-3.7-9.8zm-5.3 0h-5.3v9.8h1.6v-4.1h3.4v-1.4h-3.4v-2.9h3.7v-1.4zm-14.5 1.3c1.3 0 2 .6 2 1.7 0 .6-.2 1-.5 1.4s-.9.5-1.6.5h-1.1v-3.6h1.2zm.1 4.9c1.1 0 2-.3 2.6-.9s1-1.4 1-2.3-.3-1.7-.9-2.2-1.5-.8-2.6-.8h-3v9.8h1.6v-3.6h1.3zm-8.3-4.9c1.3 0 2 .6 2 1.7 0 .6-.2 1-.5 1.4s-.9.5-1.6.5h-1.1v-3.6h1.2zm.1 4.9c1.1 0 2-.3 2.6-.9s1-1.4 1-2.3-.3-1.7-.9-2.2-1.5-.8-2.6-.8h-3v9.8h1.6v-3.6h1.3zm-10.3-.2l1.3-3.9c.1-.2.1-.4.1-.6 0 .3.1.5.1.6l1.4 3.9h-2.9zm2.4-6h-1.8l-3.7 9.8h1.8l.8-2.5h3.9l.9 2.5h1.8l-3.7-9.8zM914.3 134.7c-.2-.3-.4-.5-.5-.8s-.3-.5-.4-.7-.2-.5-.3-.7-.2-.5-.3-.8h-1.4c.1.4.2.8.4 1.1.1.3.3.6.5.9h-8.1v1.6h10l.1-.6zm-.2-9.2l-7.4-2.5c-.3-.1-.6-.2-.8-.2.3 0 .6-.1.8-.2l7.4-2.4v-1.8l-9.8 3.5v1.8l9.8 3.5v-1.7zm-1.3-11.7c0 .6-.1 1-.4 1.3s-.6.4-1.1.4c-.3 0-.5 0-.7-.1s-.4-.2-.5-.4-.3-.3-.3-.6-.1-.4-.1-.7v-1.4h3.2v1.5h-.1zm-5.8 2.8c.2-.1.4-.3.6-.4.2-.1.3-.2.4-.4s.3-.2.4-.4c.1-.1.2-.3.3-.5.1.3.2.6.4.9s.4.5.6.7c.2.2.5.3.8.4.3.1.6.2 1 .2s.8-.1 1.2-.2c.3-.2.6-.4.8-.7s.4-.6.5-1 .2-.8.2-1.3v-3.2h-9.8v1.6h4v.7c0 .2 0 .4-.1.6s-.1.3-.2.5-.3.3-.4.4c-.2.1-.4.3-.6.4l-2.6 1.6v1.9l2.5-1.8zm-2.6-13.3c-.1.2-.1.5-.2.7 0 .3-.1.5-.1.7v.6c0 .5 0 1 .1 1.4s.3.8.5 1.2.5.6.8.8.8.3 1.3.3c.4 0 .7-.1 1-.2.3-.1.6-.3.8-.5s.5-.5.6-.8.4-.6.6-1c.1-.3.3-.6.4-.9.1-.3.3-.5.4-.6l.4-.4c.1-.1.3-.1.6-.1.2 0 .4.1.6.2s.3.3.4.5.2.4.2.6.1.5.1.7c0 .9-.2 1.6-.6 2.1h1.6c.2-.5.3-1.2.3-2.2 0-.5-.1-.9-.2-1.3s-.3-.8-.5-1.2c-.2-.3-.5-.6-.8-.8s-.7-.3-1.2-.3c-.4 0-.7.1-1 .2s-.5.3-.7.5-.4.5-.6.7-.4.6-.5.9c-.1.3-.3.6-.4.9-.1.3-.3.5-.4.7s-.3.4-.5.5-.4.2-.6.2c-.4 0-.8-.2-1-.5s-.3-.8-.3-1.5c0-.2 0-.4.1-.6s.1-.5.2-.7c.1-.2.2-.5.3-.7s.2-.4.4-.5h-1.7c-.2 0-.3.1-.4.4zm8.3-9.4c0 1.3-.6 2-1.7 2-.6 0-1-.2-1.4-.5s-.5-.9-.5-1.6v-1.1h3.6v1.2zm-4.9.2c0 1.1.3 2 .9 2.6s1.4 1 2.3 1 1.7-.3 2.2-.9.8-1.5.8-2.6v-3h-9.8v1.6h3.6v1.3zm4.9-8.3c0 1.3-.6 2-1.7 2-.6 0-1-.2-1.4-.5s-.5-.9-.5-1.6v-1.1h3.6v1.2zm-4.9.1c0 1.1.3 2 .9 2.6s1.4 1 2.3 1 1.7-.3 2.2-.9.8-1.5.8-2.6v-3h-9.8v1.6h3.6v1.3zm.3-10.4l3.9 1.3c.2.1.4.1.6.1-.3 0-.5.1-.6.1l-3.9 1.4v-2.9zm6 2.5v-1.8l-9.8-3.7v1.8l2.5.8V79l-2.5.9v1.8l9.8-3.7zM905.6 307.6v-4.4c.2 0 .4.1.6.2.2.1.4.3.6.5.2.2.4.4.6.7.2.3.4.5.6.8.3.3.5.6.8.9s.5.5.8.7.6.3.9.4c.3.1.7.1 1.1.1.4 0 .8-.1 1.2-.2s.6-.3.8-.6c.2-.3.4-.6.5-.9.1-.4.2-.8.2-1.2 0-.3 0-.5-.1-.8s-.1-.5-.2-.7l-.3-.6c-.1-.2-.2-.4-.4-.6h-1.5c.4.4.7.8.8 1.2s.3.8.3 1.2c0 .2 0 .4-.1.6s-.2.4-.3.5-.3.3-.5.3c-.2.1-.4.1-.7.1-.2 0-.5 0-.7-.1l-.6-.3c-.2-.1-.4-.3-.5-.4-.2-.2-.3-.4-.5-.6s-.4-.5-.6-.7c-.2-.2-.4-.5-.6-.7l-.6-.6c-.2-.2-.4-.4-.7-.5-.2-.1-.5-.3-.8-.3-.3-.1-.6-.1-.9-.1h-.8v6.2l1.6-.1zm8.5-12.5l-7.4-2.5c-.3-.1-.6-.2-.8-.2.3 0 .6-.1.8-.2l7.4-2.4V288l-9.8 3.5v1.8l9.8 3.5v-1.7zm-1.3-11.7c0 .6-.1 1-.4 1.3s-.6.4-1.1.4c-.3 0-.5 0-.7-.1s-.4-.2-.5-.4-.3-.3-.3-.6-.1-.4-.1-.7v-1.4h3.2v1.5h-.1zm-5.8 2.8c.2-.1.4-.3.6-.4.2-.1.3-.2.4-.4s.3-.2.4-.4c.1-.1.2-.3.3-.5.1.3.2.6.4.9s.4.5.6.7c.2.2.5.3.8.4s.6.2 1 .2.8-.1 1.2-.2c.3-.2.6-.4.8-.7.2-.3.4-.6.5-1s.2-.8.2-1.3v-3.2h-9.8v1.6h4v.7c0 .2 0 .4-.1.6s-.1.3-.2.5-.3.3-.4.4c-.2.1-.4.3-.6.4l-2.6 1.6v1.9l2.5-1.8zm-2.6-13.3c-.1.2-.1.5-.2.7 0 .3-.1.5-.1.7v.6c0 .5 0 1 .1 1.4s.3.8.5 1.2.5.6.8.8.8.3 1.3.3c.4 0 .7-.1 1-.2s.6-.3.8-.5.5-.5.6-.8.4-.6.6-1c.1-.3.3-.6.4-.9.1-.3.3-.5.4-.6l.4-.4c.1-.1.3-.1.6-.1.2 0 .4.1.6.2s.3.3.4.5.2.4.2.6.1.5.1.7c0 .9-.2 1.6-.6 2.1h1.6c.2-.5.3-1.2.3-2.2 0-.5-.1-.9-.2-1.3s-.3-.8-.5-1.2c-.2-.3-.5-.6-.8-.8-.3-.2-.7-.3-1.2-.3-.4 0-.7.1-1 .2s-.5.3-.7.5-.4.5-.6.7-.4.6-.5.9-.3.6-.4.9c-.1.3-.3.5-.4.7s-.3.4-.5.5-.4.2-.6.2c-.4 0-.8-.2-1-.5s-.3-.8-.3-1.5c0-.2 0-.4.1-.6s.1-.5.2-.7c.1-.2.2-.5.3-.7s.2-.4.4-.5h-1.7c-.2 0-.3.1-.4.4zm8.3-9.4c0 1.3-.6 2-1.7 2-.6 0-1-.2-1.4-.5s-.5-.9-.5-1.6v-1.1h3.6v1.2zm-4.9.2c0 1.1.3 2 .9 2.6s1.4 1 2.3 1 1.7-.3 2.2-.9.8-1.5.8-2.6v-3h-9.8v1.6h3.6v1.3zm4.9-8.3c0 1.3-.6 2-1.7 2-.6 0-1-.2-1.4-.5s-.5-.9-.5-1.6v-1.1h3.6v1.2zm-4.9.1c0 1.1.3 2 .9 2.6s1.4 1 2.3 1 1.7-.3 2.2-.9.8-1.5.8-2.6v-3h-9.8v1.6h3.6v1.3zm.3-10.4l3.9 1.3c.2.1.4.1.6.1-.3 0-.5.1-.6.1l-3.9 1.4v-2.9zm6 2.5v-1.8l-9.8-3.7v1.8l2.5.8v3.9l-2.5.9v1.8l9.8-3.7z"/><path fill="none" stroke="#898989" stroke-width="3" stroke-linecap="round" stroke-linejoin="round" stroke-miterlimit="10" d="M805.9 202.6l4.4-4.4M805.9 202.6l-4.4-4.4"/><path fill="none" stroke="#898989" stroke-miterlimit="10" d="M805.9 191.2v11.4"/><path fill="none" stroke="#898989" stroke-width="3" stroke-linecap="round" stroke-linejoin="round" stroke-miterlimit="10" d="M805.9 191.2v11.4M805.9 155.4l-4.4 4.5M805.9 155.4l4.4 4.5"/><path fill="none" stroke="#898989" stroke-miterlimit="10" d="M805.9 166.9v-11.5"/><path fill="none" stroke="#898989" stroke-width="3" stroke-linecap="round" stroke-linejoin="round" stroke-miterlimit="10" d="M805.9 166.9v-11.5"/><g class="vhd" fill="#898989"><path d="M372.6 124c-.6 0-1-.5-1-1V85.5c0-.6.5-1 1-1h29.5c.6 0 1 .5 1 1v22.8c.8 0 1.5.1 2.2.3v-23c0-1.8-1.5-3.2-3.2-3.2h-29.5c-1.8 0-3.2 1.5-3.2 3.2v37.5c0 1.8 1.5 3.2 3.2 3.2h29.8c-2-.1-3.9-.9-5.3-2.2l-24.5-.1z"/><circle cx="373.8" cy="86.4" r=".9"/><circle cx="400.9" cy="86.4" r=".9"/><path d="M399.8 100.9c0-6.9-5.6-12.5-12.5-12.5s-12.5 5.6-12.5 12.5c0 3.6 1.6 6.9 4 9.2l2.6-2.6c.6-.6 1.3-.9 2.1-.9 1.6 0 3 1.3 3 3 0 .4-.1.8-.2 1.2l-.1.2-1.1 2.3c.7.1 1.5.2 2.2.2 6.9-.1 12.5-5.7 12.5-12.6zm-18.4 0c0-3.2 2.6-5.9 5.9-5.9 3.2 0 5.9 2.6 5.9 5.9 0 3.2-2.6 5.9-5.9 5.9-3.2 0-5.9-2.6-5.9-5.9z"/><path d="M380.3 120.3l5-9.8c.1-.2.2-.5.2-.8 0-1-.8-1.8-1.8-1.8-.5 0-1 .2-1.3.6l-7.6 7.7c-.7.6-1.1 1.6-1.1 2.6 0 2 1.6 3.6 3.6 3.6 1.2-.3 2.3-1 3-2.1zm-3.2-.2c-.9 0-1.6-.7-1.6-1.6 0-.9.7-1.6 1.6-1.6s1.6.7 1.6 1.6-.7 1.6-1.6 1.6zM387.4 96.2c-2.6 0-4.7 2.1-4.7 4.7s2.1 4.7 4.7 4.7 4.7-2.1 4.7-4.7-2.1-4.7-4.7-4.7zm1.8 2c.2-.2.7-.2.9 0 .1.1.2.3.2.5s-.1.3-.2.5c-.1.1-.3.2-.5.2s-.3-.1-.5-.2c-.2-.3-.2-.7.1-1zm-1.8-1.1c.4 0 .7.3.7.7s-.3.7-.7.7c-.4 0-.7-.3-.7-.7 0-.4.3-.7.7-.7zm-2.7 1.1c.2-.2.7-.2.9 0 .1.1.2.3.2.5s-.1.3-.2.5c-.1.1-.3.2-.5.2s-.3-.1-.5-.2c-.2-.3-.2-.7.1-1zm-1.1 2.7c0-.4.3-.7.7-.7.4 0 .7.3.7.7s-.3.7-.7.7c-.5 0-.7-.3-.7-.7zm2 2.7c-.1.1-.3.2-.5.2s-.3-.1-.5-.2c-.3-.3-.3-.7 0-.9.2-.2.7-.2.9 0 .1.1.2.3.2.5.1.2 0 .3-.1.4zm1.8 1.2c-.4 0-.7-.3-.7-.7s.3-.7.7-.7c.4 0 .7.3.7.7s-.4.7-.7.7zm0-2c-1 0-1.8-.8-1.8-1.8s.8-1.8 1.8-1.8 1.8.8 1.8 1.8c0 .9-.8 1.8-1.8 1.8zm2.7.8c-.1.1-.3.2-.5.2s-.3-.1-.5-.2c-.3-.3-.3-.7 0-.9.2-.2.7-.2.9 0 .1.1.2.3.2.5.1.2 0 .3-.1.4zm.5-2c-.4 0-.7-.3-.7-.7s.3-.7.7-.7c.4 0 .7.3.7.7-.1.4-.4.7-.7.7zM405.4 109c-.7-.2-1.5-.3-2.2-.3h-.2c-4.7 0-8.6 3.8-8.6 8.6v.9c.1.9.3 1.8.7 2.5.6 1.3 1.5 2.5 2.6 3.3 1.5 1.1 3.3 1.8 5.3 1.8h.8c4.1-.4 7.4-3.6 7.8-7.7v-.9c0-3.9-2.6-7.2-6.2-8.2zm-8.1 8.9c.1 1.3.4 2.6.8 3.6-.3.2-.5.3-.8.5-1-1.1-1.6-2.6-1.7-4.2h1.7v.1zm1.8-4.5c1 .5 2.1.7 3.3.8v2.4h-4.1c.1-1.1.3-2.2.8-3.2zm8.6 3.3h-4.1v-2.4c.6 0 1.2-.1 1.8-.3.5-.1 1.1-.3 1.6-.5.3.9.6 2 .7 3.2zm-6.1 4.7c.3 0 .5-.1.8-.1v3c-.3-.1-.5-.1-.8-.3-.8-.4-1.5-1.1-2.1-2.1.2-.1.3-.1.5-.2.5-.1 1-.3 1.6-.3zm2-.1c.6 0 1.2.2 1.8.3.4.1.7.2 1.1.4-.3.5-.7 1-1.1 1.4-.5.5-1.1.8-1.8.9v-3zm3.7 1.2c.2.1.4.2.5.3-.5.4-1 .8-1.6 1.1.5-.4.8-.9 1.1-1.4zm-.4-1.4c-.5-.2-1-.4-1.5-.5l-1.8-.3v-2.4h4.1c-.1 1.2-.4 2.3-.8 3.2zm-1.5-8.1c-.6.2-1.2.2-1.8.3v-3c.7.1 1.3.5 1.8.9.4.4.8.8 1.1 1.4-.4.1-.7.3-1.1.4zm-3-2.8v3c-1-.1-2-.3-2.9-.7.7-1.2 1.8-2.1 2.9-2.3zm0 7.7v2.4c-1.2.1-2.3.3-3.4.8-.4-.9-.7-2-.7-3.2h4.1zm-3.8 4.5c.3.6.7 1.1 1.1 1.5-.6-.3-1.2-.7-1.7-1.1.2-.2.4-.3.6-.4zm10-.3c-.2-.2-.5-.4-.8-.5.5-1.1.8-2.4.9-3.7h1.7c-.2 1.6-.8 3-1.8 4.2zm.1-5.4c-.1-1.3-.4-2.6-.8-3.6.3-.2.5-.3.8-.5 1 1.1 1.6 2.6 1.7 4.2h-1.7v-.1zm-.8-4.9c-.2.1-.4.2-.5.3-.3-.6-.7-1.1-1.1-1.5.6.3 1.1.7 1.6 1.2zm-8.2-1.2c-.4.4-.8.9-1.1 1.4-.2-.1-.4-.2-.5-.3.5-.4 1-.8 1.6-1.1zm-2.3 1.8c.2.2.5.4.8.5-.5 1.1-.8 2.4-.9 3.7h-1.7c.2-1.6.8-3 1.8-4.2zM439.5 139.1c2.4 0 3.6 1.1 3.6 3.4 0 1.1-.3 2-1 2.7s-1.5.9-2.7.9h-1.3v-7h1.4zm-.3 8.4c1.7 0 3-.5 4-1.4s1.5-2.1 1.5-3.6c0-3.2-1.8-4.8-5.4-4.8h-2.8v9.8h2.7zm-5.1-9.8h-1.6v4.1h-4.6v-4.1h-1.6v9.8h1.6v-4.3h4.6v4.3h1.6v-9.8zm-10.9 0l-2.5 7.4c-.1.3-.2.6-.2.8 0-.3-.1-.6-.2-.8l-2.4-7.4h-1.8l3.5 9.8h1.8l3.5-9.8h-1.7zm-15.6 1.3c.6 0 1 .1 1.3.4.3.3.4.6.4 1.1 0 .3 0 .5-.1.7s-.2.4-.4.5-.3.3-.6.3-.4.1-.7.1h-1.4v-3.2h1.5v.1zm2.9 5.8c-.1-.2-.3-.4-.4-.6s-.2-.3-.4-.4-.2-.3-.4-.4c-.1-.1-.3-.2-.5-.3.3-.1.6-.2.9-.4s.5-.4.7-.6.3-.5.4-.8.2-.6.2-1-.1-.8-.2-1.2c-.2-.3-.4-.6-.7-.8-.3-.2-.6-.4-1-.5s-.8-.2-1.3-.2h-3.2v9.8h1.6v-4h.7c.2 0 .4 0 .6.1s.3.1.5.2.3.3.4.4c.1.2.3.4.4.6l1.6 2.6h1.9l-1.8-2.5zm-7.6 1.4H399v-2.9h3.4v-1.4H399v-2.8h3.7v-1.4h-5.3v9.8h5.5v-1.3zm-8.5-8.5l-2.5 7.4c-.1.3-.2.6-.2.8 0-.3-.1-.6-.2-.8l-2.4-7.4h-1.8l3.5 9.8h1.8l3.5-9.8h-1.7zm-11.7 1.3c.6 0 1 .1 1.3.4.3.3.4.6.4 1.1 0 .3 0 .5-.1.7s-.2.4-.4.5-.3.3-.6.3-.4.1-.7.1h-1.4v-3.2h1.5v.1zm2.8 5.8c-.1-.2-.3-.4-.4-.6s-.2-.3-.4-.4-.2-.3-.4-.4c-.1-.1-.3-.2-.5-.3.3-.1.6-.2.9-.4s.5-.4.7-.6.3-.5.4-.8.2-.6.2-1-.1-.8-.2-1.2c-.2-.3-.4-.6-.7-.8-.3-.2-.6-.4-1-.5s-.8-.2-1.3-.2h-3.2v9.8h1.6v-4h.7c.2 0 .4 0 .6.1s.3.1.5.2.3.3.4.4c.1.2.3.4.4.6l1.6 2.6h1.9l-1.8-2.5zm-7.5 1.4h-3.9v-2.9h3.4v-1.4h-3.4v-2.8h3.7v-1.4h-5.3v9.8h5.5v-1.3zm-13.1 1.2c.2.1.5.1.7.2.3 0 .5.1.7.1h.6c.5 0 1 0 1.4-.1s.8-.3 1.2-.5.6-.5.8-.8.3-.8.3-1.3c0-.4-.1-.7-.2-1s-.3-.6-.5-.8-.5-.5-.8-.6-.6-.4-1-.6c-.3-.1-.6-.3-.9-.4s-.5-.3-.6-.4l-.4-.4c-.1-.1-.1-.3-.1-.6 0-.2.1-.4.2-.6s.3-.3.5-.4.4-.2.6-.2.5-.1.7-.1c.9 0 1.6.2 2.1.6v-1.6c-.5-.2-1.2-.3-2.2-.3-.5 0-.9.1-1.3.2s-.8.3-1.2.5c-.3.2-.6.5-.8.8-.2.3-.3.7-.3 1.2 0 .4.1.7.2 1s.3.5.5.7.5.4.7.6.6.4.9.5.6.3.9.4.5.3.7.4.4.3.5.5.2.4.2.6c0 .4-.2.8-.5 1s-.8.3-1.5.3c-.2 0-.4 0-.6-.1s-.5-.1-.7-.2-.5-.2-.7-.3-.4-.2-.5-.4v1.7c0 .2.2.3.4.4zm-9.6-4.3c1.4 0 2.1.5 2.1 1.5 0 .5-.2.9-.5 1.2-.3.3-.8.4-1.4.4h-1.4v-3.1h1.2zm0-4.1c1.1 0 1.7.4 1.7 1.3 0 .5-.2.9-.5 1.1-.3.3-.8.4-1.3.4h-1.1V139h1.2zm.4 8.5c1 0 1.8-.3 2.5-.8s1-1.2 1-2c0-.7-.2-1.2-.6-1.6s-.9-.7-1.6-.7c.6-.2 1-.5 1.3-.9s.5-.9.5-1.4c0-.7-.3-1.2-.8-1.6s-1.3-.6-2.3-.6h-3.1v9.8h3.1v-.2zm-4.9-1.3h-3.9v-2.9h3.4v-1.4h-3.4v-2.8h3.7v-1.4h-5.3v9.8h5.5v-1.3zm-8.6-8.5l-1.7 7.2c-.1.4-.1.7-.2.9 0-.3-.1-.6-.1-.9l-1.9-7.2h-1.7l-2 7.2c-.1.4-.2.7-.2.9 0-.3-.1-.6-.1-.9l-1.8-7.2h-1.8l2.7 9.8h1.9l1.9-6.9c.1-.3.1-.6.2-.9 0 .3.1.7.1 1l1.9 6.9h1.8l2.7-9.8-1.7-.1z"/></g><g class="vhd" fill="#898989"><path d="M438.6 224.4c2.4 0 3.6 1.1 3.6 3.4 0 1.1-.3 2-1 2.7s-1.5.9-2.7.9h-1.3v-7h1.4zm-.3 8.4c1.7 0 3-.5 4-1.4s1.5-2.1 1.5-3.6c0-3.2-1.8-4.8-5.4-4.8h-2.8v9.8h2.7zm-5.1-9.8h-1.6v4.1H427V223h-1.6v9.8h1.6v-4.3h4.6v4.3h1.6V223zm-10.9 0l-2.5 7.4c-.1.3-.2.6-.2.8 0-.3-.1-.6-.2-.8L417 223h-1.8l3.5 9.8h1.8l3.5-9.8h-1.7zm-15.5 1.3c.6 0 1 .1 1.3.4s.4.6.4 1.1c0 .3 0 .5-.1.7s-.2.4-.4.5-.3.3-.6.3-.4.1-.7.1h-1.4v-3.2l1.5.1zm2.8 5.7c-.1-.2-.3-.4-.4-.6s-.2-.3-.4-.4-.2-.3-.4-.4c-.1-.1-.3-.2-.5-.3.3-.1.6-.2.9-.4s.5-.4.7-.6.3-.5.4-.8.2-.6.2-1-.1-.8-.2-1.2c-.2-.3-.4-.6-.7-.8-.3-.2-.6-.4-1-.5s-.8-.2-1.3-.2h-3.2v9.8h1.6v-4h.7c.2 0 .4 0 .6.1s.3.1.5.2.3.3.4.4c.1.2.3.4.4.6l1.6 2.6h1.9l-1.8-2.5zm-7.6 1.4h-3.9v-2.9h3.4v-1.4h-3.4v-2.8h3.7v-1.4h-5.3v9.8h5.5v-1.3zm-8.5-8.4l-2.5 7.4c-.1.3-.2.6-.2.8 0-.3-.1-.6-.2-.8l-2.4-7.4h-1.8l3.5 9.8h1.8l3.5-9.8h-1.7zm-11.7 1.3c.6 0 1 .1 1.3.4s.4.6.4 1.1c0 .3 0 .5-.1.7s-.2.4-.4.5-.3.3-.6.3-.4.1-.7.1h-1.4v-3.2l1.5.1zm2.9 5.7c-.1-.2-.3-.4-.4-.6s-.2-.3-.4-.4-.2-.3-.4-.4c-.1-.1-.3-.2-.5-.3.3-.1.6-.2.9-.4s.5-.4.7-.6.3-.5.4-.8.2-.6.2-1-.1-.8-.2-1.2c-.2-.3-.4-.6-.7-.8-.3-.2-.6-.4-1-.5s-.8-.2-1.3-.2h-3.2v9.8h1.6v-4h.7c.2 0 .4 0 .6.1s.3.1.5.2.3.3.4.4c.1.2.3.4.4.6l1.6 2.6h1.9l-1.8-2.5zm-7.6 1.4h-3.9v-2.9h3.4v-1.4h-3.4v-2.8h3.7v-1.4h-5.3v9.8h5.5v-1.3zm-13 1.2c.2.1.5.1.7.2.3 0 .5.1.7.1h.6c.5 0 1 0 1.4-.1s.8-.3 1.2-.5.6-.5.8-.8.3-.8.3-1.3c0-.4-.1-.7-.2-1s-.3-.6-.5-.8-.5-.5-.8-.6-.6-.4-1-.6c-.3-.1-.6-.3-.9-.4s-.5-.3-.6-.4l-.4-.4c-.1-.1-.1-.3-.1-.6 0-.2.1-.4.2-.6s.3-.3.5-.4.4-.2.6-.2.5-.1.7-.1c.9 0 1.6.2 2.1.6v-1.6c-.5-.2-1.2-.3-2.2-.3-.5 0-.9.1-1.3.2s-.8.3-1.2.5c-.3.2-.6.5-.8.8-.2.3-.3.7-.3 1.2 0 .4.1.7.2 1s.3.5.5.7.5.4.7.6.6.4.9.5.6.3.9.4.5.3.7.4.4.3.5.5.2.4.2.6c0 .4-.2.8-.5 1s-.8.3-1.5.3c-.2 0-.4 0-.6-.1s-.5-.1-.7-.2-.5-.2-.7-.3-.4-.2-.5-.4v1.7c0 .3.1.4.4.4zm-9.4-8.3c1.3 0 2 .6 2 1.7 0 .6-.2 1-.5 1.4s-.9.5-1.6.5h-1.1v-3.6h1.2zm.2 4.9c1.1 0 2-.3 2.6-.9s1-1.4 1-2.3-.3-1.7-.9-2.2-1.5-.8-2.6-.8h-3v9.8h1.6v-3.6h1.3zm-8.3-4.9c1.3 0 2 .6 2 1.7 0 .6-.2 1-.5 1.4s-.9.5-1.6.5h-1.1v-3.6h1.2zm.1 4.9c1.1 0 2-.3 2.6-.9s1-1.4 1-2.3-.3-1.7-.9-2.2-1.5-.8-2.6-.8h-3v9.8h1.6v-3.6h1.3zm-10.4-.2l1.3-3.9c.1-.2.1-.4.1-.6 0 .3.1.5.1.6l1.4 3.9h-2.9zm2.5-6H337l-3.7 9.8h1.8l.8-2.5h3.9l.9 2.5h1.8l-3.7-9.8z"/><circle cx="371.7" cy="173" r=".9"/><circle cx="398.8" cy="173" r=".9"/><path d="M383.1 197c.1-.2.2-.5.2-.8 0-1-.8-1.8-1.8-1.8-.5 0-1 .2-1.3.6l-7.6 7.7c-.7.6-1.1 1.6-1.1 2.6 0 2 1.6 3.6 3.6 3.6 1.3 0 2.5-.7 3.1-1.8v-.1l4.9-10zm-8.1 9.7c-.9 0-1.6-.7-1.6-1.6s.7-1.6 1.6-1.6 1.6.7 1.6 1.6-.7 1.6-1.6 1.6zM385.3 182.8c-2.6 0-4.7 2.1-4.7 4.7s2.1 4.7 4.7 4.7 4.7-2.1 4.7-4.7-2.1-4.7-4.7-4.7zm1.8 2c.2-.2.7-.2.9 0 .1.1.2.3.2.5s-.1.3-.2.5c-.1.1-.3.2-.5.2s-.3-.1-.5-.2c-.2-.3-.2-.7.1-1zm-1.8-1.1c.4 0 .7.3.7.7 0 .4-.3.7-.7.7-.4 0-.7-.3-.7-.7 0-.4.3-.7.7-.7zm-2.7 1.1c.2-.2.7-.2.9 0 .1.1.2.3.2.5s-.1.3-.2.5c-.1.1-.3.2-.5.2s-.3-.1-.5-.2c-.2-.3-.2-.7.1-1zm-1.1 2.7c0-.4.3-.7.7-.7.4 0 .7.3.7.7 0 .4-.3.7-.7.7-.4 0-.7-.3-.7-.7zm2 2.7c-.1.1-.3.2-.5.2s-.3-.1-.5-.2c-.3-.3-.3-.7 0-.9.2-.2.7-.2.9 0 .1.1.2.3.2.5.1.1 0 .3-.1.4zm1.8 1.2c-.4 0-.7-.3-.7-.7 0-.4.3-.7.7-.7.4 0 .7.3.7.7-.1.4-.3.7-.7.7zm0-2c-1 0-1.8-.8-1.8-1.8s.8-1.8 1.8-1.8 1.8.8 1.8 1.8c0 .9-.8 1.8-1.8 1.8zm2.7.8c-.1.1-.3.2-.5.2s-.3-.1-.5-.2c-.3-.3-.3-.7 0-.9.2-.2.7-.2.9 0 .1.1.2.3.2.5.1.1 0 .3-.1.4zm.5-2c-.4 0-.7-.3-.7-.7 0-.4.3-.7.7-.7.4 0 .7.3.7.7-.1.4-.4.7-.7.7z"/><path d="M403.3 196.1v-23.9c0-1.8-1.5-3.2-3.2-3.2h-29.5c-1.8 0-3.2 1.5-3.2 3.2v37.5c0 1.8 1.5 3.2 3.2 3.2H400c.7 0 1.4-.2 1.9-.6h10.9v-16.2h-9.5zm-14.4 14.5h-18.4c-.6 0-1-.5-1-1v-37.5c0-.6.5-1 1-1H400c.6 0 1 .5 1 1V196h-6.8c2.1-2.2 3.4-5.2 3.4-8.5 0-6.9-5.6-12.5-12.5-12.5s-12.5 5.6-12.5 12.5c0 3.6 1.6 6.9 4 9.2l2.6-2.6c.6-.6 1.3-.9 2.1-.9 1.6 0 3 1.3 3 3 0 .4-.1.8-.2 1.2l-.1.2-1.1 2.3c.7.1 1.5.2 2.2.2 1.3 0 2.5-.2 3.7-.6l.1 11.1zm-3.7-17.2c-3.2 0-5.9-2.6-5.9-5.9 0-3.2 2.6-5.9 5.9-5.9 3.2 0 5.9 2.6 5.9 5.9s-2.6 5.9-5.9 5.9zm26.6 17.8h-21.9v-11.5h21.9v11.5z"/><path d="M401.9 206v1h7.9v-1h-6.5zM401.9 208.1v1h7.9v-1h-6.5zM392 209.1H399.3v-7.3H392zM401.9 201.8v1h7.9v-1h-6.5zM401.9 203.9v1h7.9v-1h-6.5z"/></g><g class="vhd" fill="#898989"><path d="M429.6 311.7c2.4 0 3.6 1.1 3.6 3.4 0 1.1-.3 2-1 2.7s-1.5.9-2.7.9h-1.3v-7h1.4zm-.2 8.5c1.7 0 3-.5 4-1.4s1.5-2.1 1.5-3.6c0-3.2-1.8-4.8-5.4-4.8h-2.8v9.8h2.7zm-5.2-9.8h-1.6v4.1H418v-4.1h-1.6v9.8h1.6v-4.3h4.6v4.3h1.6v-9.8zm-10.9 0l-2.5 7.4c-.1.3-.2.6-.2.8 0-.3-.1-.6-.2-.8l-2.4-7.4h-1.8l3.5 9.8h1.8l3.5-9.8h-1.7zm-17.2 5.9l1.3-3.9c.1-.2.1-.4.1-.6 0 .3.1.5.1.6l1.4 3.9h-2.9zm2.4-5.9h-1.8l-3.7 9.8h1.8l.8-2.5h3.9l.9 2.5h1.8l-3.7-9.8zm-5.8 0h-7.3v1.4h2.8v8.4h1.6v-8.4h2.8v-1.4h.1zm-13.7 5.9l1.3-3.9c.1-.2.1-.4.1-.6 0 .3.1.5.1.6l1.4 3.9H379zm2.4-5.9h-1.8l-3.7 9.8h1.8l.8-2.5h3.9l.9 2.5h1.8l-3.7-9.8zm-11.4 1.3c2.4 0 3.6 1.1 3.6 3.4 0 1.1-.3 2-1 2.7s-1.5.9-2.7.9h-1.3v-7h1.4zm-.3 8.5c1.7 0 3-.5 4-1.4s1.5-2.1 1.5-3.6c0-3.2-1.8-4.8-5.4-4.8H367v9.8h2.7zm-12.2-4.4c1.4 0 2.1.5 2.1 1.5 0 .5-.2.9-.5 1.2-.3.3-.8.4-1.4.4h-1.4v-3.1h1.2zm0-4.1c1.1 0 1.7.4 1.7 1.3 0 .5-.2.9-.5 1.1-.3.3-.8.4-1.3.4h-1.1v-2.8h1.2zm.3 8.5c1 0 1.8-.3 2.5-.8s1-1.2 1-2c0-.7-.2-1.2-.6-1.6s-.9-.7-1.6-.7c.6-.2 1-.5 1.3-.9s.5-.9.5-1.4c0-.7-.3-1.2-.8-1.6s-1.3-.6-2.3-.6h-3.1v9.8h3.1v-.2zm-10.2-8.5c2.4 0 3.6 1.1 3.6 3.4 0 1.1-.3 2-1 2.7s-1.5.9-2.7.9h-1.3v-7h1.4zm-.3 8.5c1.7 0 3-.5 4-1.4s1.5-2.1 1.5-3.6c0-3.2-1.8-4.8-5.4-4.8h-2.8v9.8h2.7z"/><circle cx="372" cy="258.2" r=".9"/><circle cx="399.1" cy="258.2" r=".9"/><path d="M398 272.7c0-6.9-5.6-12.5-12.5-12.5s-12.5 5.6-12.5 12.5c0 3.6 1.6 6.9 4 9.2l2.6-2.6c.6-.6 1.3-.9 2.1-.9 1.6 0 3 1.3 3 3 0 .4-.1.8-.2 1.2l-.1.2-1.1 2.3c.7.1 1.5.2 2.2.2 6.9-.1 12.5-5.7 12.5-12.6zm-18.4 0c0-3.2 2.6-5.9 5.9-5.9 3.2 0 5.9 2.6 5.9 5.9 0 3.2-2.6 5.9-5.9 5.9s-5.9-2.7-5.9-5.9z"/><path d="M378.5 292l5-9.8c.1-.2.2-.5.2-.8 0-1-.8-1.8-1.8-1.8-.5 0-1 .2-1.3.6l-7.6 7.7c-.7.6-1.1 1.6-1.1 2.6 0 2 1.6 3.6 3.6 3.6 1.2-.2 2.3-1 3-2.1zm-3.2-.1c-.9 0-1.6-.7-1.6-1.6s.7-1.6 1.6-1.6 1.6.7 1.6 1.6-.7 1.6-1.6 1.6zM385.6 268c-2.6 0-4.7 2.1-4.7 4.7s2.1 4.7 4.7 4.7 4.7-2.1 4.7-4.7-2.1-4.7-4.7-4.7zm1.8 2c.2-.2.7-.2.9 0 .1.1.2.3.2.5s-.1.3-.2.5c-.1.1-.3.2-.5.2s-.3-.1-.5-.2c-.2-.3-.2-.7.1-1zm-1.8-1.1c.4 0 .7.3.7.7 0 .4-.3.7-.7.7-.4 0-.7-.3-.7-.7s.3-.7.7-.7zm-2.7 1.1c.2-.2.7-.2.9 0 .1.1.2.3.2.5s-.1.3-.2.5c-.1.1-.3.2-.5.2s-.3-.1-.5-.2c-.2-.3-.2-.7.1-1zm-1.1 2.7c0-.4.3-.7.7-.7.4 0 .7.3.7.7 0 .4-.3.7-.7.7-.5 0-.7-.3-.7-.7zm2 2.7c-.1.1-.3.2-.5.2s-.3-.1-.5-.2c-.3-.3-.3-.7 0-.9.2-.2.7-.2.9 0 .1.1.2.3.2.5.1.1 0 .3-.1.4zm1.8 1.1c-.4 0-.7-.3-.7-.7 0-.4.3-.7.7-.7.4 0 .7.3.7.7s-.4.7-.7.7zm0-2c-1 0-1.8-.8-1.8-1.8s.8-1.8 1.8-1.8 1.8.8 1.8 1.8-.8 1.8-1.8 1.8zm2.7.9c-.1.1-.3.2-.5.2s-.3-.1-.5-.2c-.3-.3-.3-.7 0-.9.2-.2.7-.2.9 0 .1.1.2.3.2.5.1.1 0 .3-.1.4zm.5-2c-.4 0-.7-.3-.7-.7 0-.4.3-.7.7-.7.4 0 .7.3.7.7-.1.4-.4.7-.7.7z"/><path d="M403.6 283.1c-.8-.1-1.5-.2-2.2-.3-1.2-.3-2.2-.7-2.9-1.2v13.3c0 .3.1.6.3.9h-27.9c-.6 0-1-.5-1-1v-37.5c0-.6.5-1 1-1h29.5c.6 0 1 .5 1 1v20.6c-1.8.4-2.9 1.1-2.9 2s1.2 1.5 2.9 2c.7.2 1.4.3 2.2.3.5 0 1 .1 1.5.1 3.6 0 6.6-1.1 6.6-2.4s-3-2.4-6.6-2.4c-.5 0-1 0-1.5.1v-20.3c0-1.8-1.5-3.2-3.2-3.2h-29.5c-1.8 0-3.2 1.5-3.2 3.2v37.5c0 1.8 1.5 3.2 3.2 3.2h29.5c.6 0 1.2-.2 1.7-.5.9.2 1.9.3 3 .3 3.6 0 6.6-1.3 6.6-3v-13.3c-1.4 1.1-4.1 1.6-6.6 1.6-.5.1-1 .1-1.5 0z"/></g><path fill="#686868" d="M612.1 283.7c-.2-.1-.4-.1-.7-.1-.4 0-.8.1-1.1.4s-.6.7-.7 1.2v-1.4H608v7h1.6v-3.3c0-.7.2-1.3.5-1.7s.7-.6 1.2-.6c.4 0 .6.1.8.2v-1.7zm-7.8 1.7c.3.4.5 1 .5 1.8s-.2 1.4-.5 1.8-.8.6-1.4.6c-.6 0-1.1-.2-1.5-.6s-.5-1-.5-1.7c0-.8.2-1.4.5-1.8s.9-.6 1.5-.6c.6-.1 1.1.1 1.4.5zm1.1 4.4c.7-.7 1-1.6 1-2.7s-.3-2-.9-2.7-1.5-1-2.6-1-2 .3-2.7 1-1 1.6-1 2.8c0 1.1.3 1.9 1 2.6.6.7 1.5 1 2.6 1s2-.3 2.6-1zm-13.7-2.8l2.9-3.4h-1.9l-2.6 3.2v-6.6h-1.6v10.4h1.6v-3.4l2.7 3.4h2l-3.1-3.6zm-7.7 3.8c.4 0 .8 0 1.1-.1.4-.1.7-.2.9-.4s.5-.4.7-.7.2-.6.2-.9 0-.5-.1-.8c-.1-.2-.2-.4-.4-.6s-.4-.3-.6-.4-.5-.3-.8-.4c-.2-.1-.4-.1-.6-.2-.2-.1-.3-.1-.5-.2l-.3-.3c-.1-.1-.1-.2-.1-.4 0-.1 0-.2.1-.3l.3-.3c.1-.1.3-.1.4-.2s.3-.1.5-.1c.6 0 1.2.2 1.7.5v-1.4c-.5-.2-1.1-.3-1.7-.3-.4 0-.7 0-1.1.1-.3.1-.6.2-.9.4-.3.2-.5.4-.6.7-.2.3-.2.6-.2.9s0 .5.1.7l.3.6c.2.2.3.3.6.4s.5.2.8.4c.2.1.4.2.6.2s.4.1.5.2l.3.3c.1.1.1.2.1.4 0 .6-.5.8-1.4.8-.7 0-1.4-.2-2-.7v1.5c.7.5 1.3.6 2.1.6zm-3.6-7.1h-1.6v7h1.6v-7zm-.1-1.8c.2-.2.3-.4.3-.6 0-.3-.1-.5-.3-.6s-.4-.3-.7-.3-.5.1-.7.3-.3.4-.3.6.1.5.3.6.4.3.7.3c.3 0 .5-.1.7-.3zm-8.4.3c2.4 0 3.6 1.1 3.6 3.4 0 1.1-.3 2-1 2.7s-1.5.9-2.7.9h-1.3v-7h1.4zm-.3 8.5c1.7 0 3-.5 4-1.4s1.5-2.1 1.5-3.6c0-3.2-1.8-4.8-5.4-4.8h-2.8v9.8h2.7zm-13-4.2c.1-.5.3-1 .6-1.3s.7-.5 1.2-.5.8.2 1.1.5.4.8.4 1.3h-3.3zm4.8.5c0-1.1-.3-1.9-.8-2.6s-1.3-.9-2.2-.9-1.8.3-2.4 1c-.6.7-1 1.6-1 2.7 0 1.2.3 2 .9 2.7.6.6 1.4 1 2.4 1s1.9-.2 2.5-.6V289c-.6.4-1.3.7-2.1.7-.7 0-1.2-.2-1.6-.5s-.6-.8-.6-1.5h4.8l.1-.7zm-7.3 2.3c-.2.2-.4.2-.7.2-.4 0-.6-.1-.8-.3s-.2-.5-.2-.9v-3.5h1.7v-1.2h-1.7v-2.1l-1.6.5v1.6h-1.2v1.2h1.2v4c0 1.3.7 2 2 2 .5 0 .9-.1 1.2-.2l.1-1.3zm-7.2-1.5c0 .5-.2.9-.5 1.3-.3.3-.7.5-1.2.5-.4 0-.6-.1-.9-.3-.2-.2-.3-.4-.3-.7 0-.4.1-.7.3-.9.2-.2.6-.3 1-.3l1.5-.2v.6h.1zm1.6-1.7c0-1.7-.9-2.6-2.7-2.6-1 0-1.8.2-2.6.7v1.4c.7-.6 1.4-.9 2.3-.9.9 0 1.4.5 1.4 1.5l-2.1.3c-1.5.2-2.3 1-2.3 2.3 0 .6.2 1.1.6 1.5s.9.6 1.6.6c.9 0 1.6-.4 2.1-1.3v1.1h1.5v-4.6h.2zm-11.7.4c.1-.5.3-1 .6-1.3s.7-.5 1.2-.5.8.2 1.1.5.4.8.4 1.3h-3.3zm4.8.5c0-1.1-.3-1.9-.8-2.6s-1.3-.9-2.2-.9-1.8.3-2.4 1c-.6.7-1 1.6-1 2.7 0 1.2.3 2 .9 2.7.6.6 1.4 1 2.4 1s1.9-.2 2.5-.6V289c-.6.4-1.3.7-2.1.7-.7 0-1.2-.2-1.6-.5s-.6-.8-.6-1.5h4.8l.1-.7zm-7.1-3.3c-.2-.1-.4-.1-.7-.1-.4 0-.8.1-1.1.4s-.6.7-.7 1.2v-1.4h-1.6v7h1.6v-3.3c0-.7.2-1.3.5-1.7s.7-.6 1.2-.6c.4 0 .6.1.8.2v-1.7zm-5.7 5.1c-.7.4-1.5.7-2.4.7-1 0-1.8-.3-2.4-1-.6-.6-.9-1.5-.9-2.6s.3-2 1-2.7 1.5-1 2.6-1c.8 0 1.5.2 2.2.6v-1.6c-.6-.3-1.4-.4-2.4-.4-1.5 0-2.7.5-3.7 1.4s-1.4 2.2-1.4 3.8c0 1.5.4 2.6 1.3 3.5s2 1.3 3.4 1.3c1.1 0 2-.2 2.8-.6l-.1-1.4zM641.6 303.2c0-.9-.2-1.6-.6-2.1-.4-.5-1-.7-1.7-.7-1 0-1.7.4-2.3 1.3v-1.2h-1.6v7h1.6v-4c0-.6.2-1 .5-1.4s.7-.5 1.2-.5c.9 0 1.4.7 1.4 2v3.9h1.6v-4.3h-.1zm-10-1c.3.4.5 1 .5 1.8s-.2 1.4-.5 1.8-.8.6-1.4.6c-.6 0-1.1-.2-1.5-.6s-.5-1-.5-1.7c0-.8.2-1.4.5-1.8s.9-.6 1.5-.6c.6-.1 1.1.1 1.4.5zm1.1 4.4c.7-.7 1-1.6 1-2.7s-.3-2-.9-2.7-1.5-1-2.6-1-2 .3-2.7 1-1 1.6-1 2.8c0 1.1.3 1.9 1 2.6.6.7 1.5 1 2.6 1s2-.3 2.6-1zm-7.8-6.1h-1.6v7h1.6v-7zm-.1-1.8c.2-.2.3-.4.3-.6 0-.3-.1-.5-.3-.6s-.4-.3-.7-.3-.5.1-.7.3-.3.4-.3.6.1.5.3.6.4.3.7.3c.3 0 .5-.1.7-.3zm-6 8.9c.4 0 .8 0 1.1-.1.4-.1.7-.2.9-.4s.5-.4.7-.7.2-.6.2-.9 0-.5-.1-.8c-.1-.2-.2-.4-.4-.6s-.4-.3-.6-.4-.5-.3-.8-.4c-.2-.1-.4-.1-.6-.2-.2-.1-.3-.1-.5-.2l-.3-.3c-.1-.1-.1-.2-.1-.4 0-.1 0-.2.1-.3l.3-.3c.1-.1.3-.1.4-.2s.3-.1.5-.1c.6 0 1.2.2 1.7.5v-1.4c-.5-.2-1.1-.3-1.7-.3-.4 0-.7 0-1.1.1-.3.1-.6.2-.9.4-.3.2-.5.4-.6.7-.2.3-.2.6-.2.9s0 .5.1.7l.3.6c.2.2.3.3.6.4s.5.2.8.4c.2.1.4.2.6.2s.4.1.5.2l.3.3c.1.1.1.2.1.4 0 .6-.5.8-1.4.8-.7 0-1.4-.2-2-.7v1.5c.7.5 1.4.6 2.1.6zm-3.6-7.1h-1.6v7h1.6v-7zm-.1-1.8c.2-.2.3-.4.3-.6 0-.3-.1-.5-.3-.6s-.4-.3-.7-.3-.5.1-.7.3-.3.4-.3.6.1.5.3.6.4.3.7.3c.3 0 .5-.1.7-.3zm-4.2 1.8l-1.6 4.9c-.1.3-.2.6-.2.9 0-.3-.1-.6-.2-.9l-1.6-4.9h-1.7l2.6 7h1.7l2.7-7h-1.7zm-8.1 1.7c.3.4.5 1 .5 1.8s-.2 1.4-.5 1.8-.8.6-1.4.6c-.6 0-1.1-.2-1.5-.6s-.5-1-.5-1.7c0-.8.2-1.4.5-1.8s.9-.6 1.5-.6c.6-.1 1.1.1 1.4.5zm1.1 4.4c.7-.7 1-1.6 1-2.7s-.3-2-.9-2.7-1.5-1-2.6-1-2 .3-2.7 1-1 1.6-1 2.8c0 1.1.3 1.9 1 2.6.6.7 1.5 1 2.6 1s2-.3 2.6-1zm-6.8-6.1c-.2-.1-.4-.1-.7-.1-.4 0-.8.1-1.1.4s-.6.7-.7 1.2v-1.4H593v7h1.6v-3.3c0-.7.2-1.3.5-1.7s.7-.6 1.2-.6c.4 0 .6.1.8.2v-1.7zm-10.5 1.7c.3-.4.8-.6 1.4-.6.5 0 1 .2 1.3.6s.5.9.5 1.6c0 .8-.2 1.5-.5 1.9-.3.5-.8.7-1.4.7-.5 0-.9-.2-1.2-.5s-.5-.8-.5-1.3v-.9c-.1-.6.1-1.1.4-1.5zm1.6 5.4c1 0 1.7-.4 2.3-1.1s.8-1.6.8-2.8c0-1.1-.2-1.9-.7-2.5s-1.2-.9-2.1-.9c-1 0-1.8.5-2.4 1.4v-1.2h-1.6v10.2h1.6v-4.3c.6.8 1.2 1.2 2.1 1.2zm-11.2-5.4c.3.4.5 1 .5 1.8s-.2 1.4-.5 1.8-.8.6-1.4.6c-.6 0-1.1-.2-1.5-.6s-.5-1-.5-1.7c0-.8.2-1.4.5-1.8s.9-.6 1.5-.6c.6-.1 1 .1 1.4.5zm1.1 4.4c.7-.7 1-1.6 1-2.7s-.3-2-.9-2.7-1.5-1-2.6-1-2 .3-2.7 1-1 1.6-1 2.8c0 1.1.3 1.9 1 2.6.6.7 1.5 1 2.6 1s1.9-.3 2.6-1zm-7.1-.5c-.2.2-.4.2-.7.2-.4 0-.6-.1-.8-.3s-.2-.5-.2-.9v-3.5h1.7v-1.2h-1.7v-2.1l-1.6.5v1.6h-1.2v1.2h1.2v4c0 1.3.7 2 2 2 .5 0 .9-.1 1.2-.2l.1-1.3zm-13.8-2.8c.1-.5.3-1 .6-1.3s.7-.5 1.2-.5.8.2 1.1.5.4.8.4 1.3h-3.3zm4.7.5c0-1.1-.3-1.9-.8-2.6s-1.3-.9-2.2-.9-1.8.3-2.4 1c-.6.7-1 1.6-1 2.7 0 1.2.3 2 .9 2.7.6.6 1.4 1 2.4 1s1.9-.2 2.5-.6v-1.3c-.6.4-1.3.7-2.1.7-.7 0-1.2-.2-1.6-.5s-.6-.8-.6-1.5h4.8l.1-.7zm-10 2c-.3.4-.8.6-1.3.6s-1-.2-1.3-.6-.5-1-.5-1.7c0-.8.2-1.4.5-1.9.3-.4.8-.7 1.4-.7.5 0 .9.2 1.2.5s.5.8.5 1.3v.9c0 .7-.2 1.2-.5 1.6zm2-5.3h-1.6v1c-.4-.8-1.1-1.1-2.1-1.1s-1.8.4-2.3 1.1-.8 1.6-.8 2.8c0 1 .3 1.9.8 2.5s1.2.9 2.1.9c1.1 0 1.8-.4 2.4-1.3v.8c0 1.6-.8 2.5-2.5 2.5-.7 0-1.4-.2-2.2-.7v1.4c.7.3 1.5.5 2.4.5 2.6 0 3.9-1.3 3.9-3.9v-6.5h-.1zm-9.8 4.1c0 .5-.2.9-.5 1.3-.3.3-.7.5-1.2.5-.4 0-.6-.1-.9-.3-.2-.2-.3-.4-.3-.7 0-.4.1-.7.3-.9.2-.2.6-.3 1-.3l1.5-.2v.6h.1zm1.5-1.7c0-1.7-.9-2.6-2.7-2.6-1 0-1.8.2-2.6.7v1.4c.7-.6 1.4-.9 2.3-.9.9 0 1.4.5 1.4 1.5l-2.1.3c-1.5.2-2.3 1-2.3 2.3 0 .6.2 1.1.6 1.5s.9.6 1.6.6c.9 0 1.6-.4 2.1-1.3v1.1h1.5v-4.6h.2zm-7.3.3c0-1.9-.8-2.9-2.3-2.9-1 0-1.8.5-2.3 1.4-.1-.4-.4-.8-.7-1-.4-.3-.8-.4-1.3-.4-1 0-1.7.4-2.2 1.3v-1.1h-1.6v7h1.6v-3.8c0-.6.1-1.1.4-1.5s.6-.6 1.1-.6c.9 0 1.4.7 1.4 2v3.9h1.6v-3.8c0-.6.1-1.1.4-1.5s.6-.6 1.1-.6.8.2 1 .5.3.9.3 1.6v3.8h1.6l-.1-4.3zm-12.7-5.5H524v9.8h1.7v-9.8h-.1z"/><path fill="none" stroke="#DEDEDE" stroke-width="4" stroke-linecap="round" stroke-linejoin="round" stroke-miterlimit="10" d="M254.6 204.6h61"/><path fill="none" stroke="#DEDEDE" stroke-width="3" stroke-linecap="round" stroke-linejoin="round" stroke-miterlimit="10" d="M317.7 204.4l-7.9-7.8M317.7 204.4l-7.9 7.8"/><path fill="none" stroke="#DEDEDE" stroke-width="4" stroke-linecap="round" stroke-linejoin="round" stroke-miterlimit="10" d="M465.1 204.6h30.5"/><path fill="none" stroke="#DEDEDE" stroke-width="3" stroke-linecap="round" stroke-linejoin="round" stroke-miterlimit="10" d="M497.7 204.4l-7.9-7.8M497.7 204.4l-7.9 7.8M446.8 336.9h8.1c5.4 0 9.8-4.4 9.8-9.8V80.4c0-5.4-4.4-9.8-9.8-9.8h-8.1"/><path fill="#DEDEDE" d="M393.4 347.6c-.4 0-.8-.2-1.1-.5l-7.8-8c-.6-.6-.6-1.5 0-2.1s1.5-.6 2.1 0l7.8 8c.6.6.6 1.5 0 2.1-.2.3-.6.5-1 .5z"/><path fill="#DEDEDE" d="M377.8 347.6c-.4 0-.8-.1-1-.4-.6-.6-.6-1.5 0-2.1l7.8-8c.6-.6 1.5-.6 2.1 0s.6 1.5 0 2.1l-7.8 8c-.3.2-.7.4-1.1.4z"/><path fill="none" stroke="#DEDEDE" stroke-width="3" stroke-linecap="round" stroke-linejoin="round" stroke-miterlimit="10" d="M385.6 56.9l7.8-7.9M385.6 56.9l-7.8-7.9"/><path fill="#DEDEDE" d="M10.9 380.6c-1.1 0-1.9.8-2 1.9h4c0-1.1-.9-1.9-2-1.9zM385.6 339.6c-.8 0-1.5.7-1.5 1.5v41.4h3v-41.4c0-.8-.6-1.5-1.5-1.5zM297.1.8c.5 0 .9-.2 1.2-.4h-2.4c.3.2.7.4 1.2.4z"/><g class="azureBlue" fill="#898989"><path d="M949 379.4c-1.1 0-2-.9-2-2v-5c0-1.1.9-2 2-2s2 .9 2 2v5c0 1.1-.9 2-2 2zM662.8 373c-1.1 0-2-.9-2-2v-5c0-1.1.9-2 2-2s2 .9 2 2v5c0 1.1-.9 2-2 2zM949 365.4c-1.1 0-2-.9-2-2v-5c0-1.1.9-2 2-2s2 .9 2 2v5c0 1.1-.9 2-2 2zM662.8 359c-1.1 0-2-.9-2-2v-5c0-1.1.9-2 2-2s2 .9 2 2v5c0 1.1-.9 2-2 2zM949 351.4c-1.1 0-2-.9-2-2v-5c0-1.1.9-2 2-2s2 .9 2 2v5c0 1.1-.9 2-2 2zM662.8 345c-1.1 0-2-.9-2-2v-5c0-1.1.9-2 2-2s2 .9 2 2v5c0 1.1-.9 2-2 2zM949 337.4c-1.1 0-2-.9-2-2v-5c0-1.1.9-2 2-2s2 .9 2 2v5c0 1.1-.9 2-2 2zM662.8 331c-1.1 0-2-.9-2-2v-5c0-1.1.9-2 2-2s2 .9 2 2v5c0 1.1-.9 2-2 2zM949 323.4c-1.1 0-2-.9-2-2v-5c0-1.1.9-2 2-2s2 .9 2 2v5c0 1.1-.9 2-2 2zM662.8 317c-1.1 0-2-.9-2-2v-5c0-1.1.9-2 2-2s2 .9 2 2v5c0 1.1-.9 2-2 2zM949 309.4c-1.1 0-2-.9-2-2v-5c0-1.1.9-2 2-2s2 .9 2 2v5c0 1.1-.9 2-2 2zM662.8 303c-1.1 0-2-.9-2-2v-5c0-1.1.9-2 2-2s2 .9 2 2v5c0 1.1-.9 2-2 2zM949 295.4c-1.1 0-2-.9-2-2v-5c0-1.1.9-2 2-2s2 .9 2 2v5c0 1.1-.9 2-2 2zM662.8 289c-1.1 0-2-.9-2-2v-5c0-1.1.9-2 2-2s2 .9 2 2v5c0 1.1-.9 2-2 2zM949 281.4c-1.1 0-2-.9-2-2v-5c0-1.1.9-2 2-2s2 .9 2 2v5c0 1.1-.9 2-2 2zM662.8 275c-1.1 0-2-.9-2-2v-5c0-1.1.9-2 2-2s2 .9 2 2v5c0 1.1-.9 2-2 2zM949 267.4c-1.1 0-2-.9-2-2v-5c0-1.1.9-2 2-2s2 .9 2 2v5c0 1.1-.9 2-2 2zM662.8 261c-1.1 0-2-.9-2-2v-5c0-1.1.9-2 2-2s2 .9 2 2v5c0 1.1-.9 2-2 2zM949 253.4c-1.1 0-2-.9-2-2v-5c0-1.1.9-2 2-2s2 .9 2 2v5c0 1.1-.9 2-2 2zM662.8 247c-1.1 0-2-.9-2-2v-5c0-1.1.9-2 2-2s2 .9 2 2v5c0 1.1-.9 2-2 2zM949 239.4c-1.1 0-2-.9-2-2v-5c0-1.1.9-2 2-2s2 .9 2 2v5c0 1.1-.9 2-2 2zM662.8 233c-1.1 0-2-.9-2-2v-5c0-1.1.9-2 2-2s2 .9 2 2v5c0 1.1-.9 2-2 2zM949 225.4c-1.1 0-2-.9-2-2v-5c0-1.1.9-2 2-2s2 .9 2 2v5c0 1.1-.9 2-2 2zM662.8 219c-1.1 0-2-.9-2-2v-5c0-1.1.9-2 2-2s2 .9 2 2v5c0 1.1-.9 2-2 2zM949 211.4c-1.1 0-2-.9-2-2v-5c0-1.1.9-2 2-2s2 .9 2 2v5c0 1.1-.9 2-2 2zM662.8 205c-1.1 0-2-.9-2-2v-5c0-1.1.9-2 2-2s2 .9 2 2v5c0 1.1-.9 2-2 2zM949 197.4c-1.1 0-2-.9-2-2v-5c0-1.1.9-2 2-2s2 .9 2 2v5c0 1.1-.9 2-2 2zM662.8 191c-1.1 0-2-.9-2-2v-5c0-1.1.9-2 2-2s2 .9 2 2v5c0 1.1-.9 2-2 2zM949 183.4c-1.1 0-2-.9-2-2v-5c0-1.1.9-2 2-2s2 .9 2 2v5c0 1.1-.9 2-2 2zM662.8 177c-1.1 0-2-.9-2-2v-5c0-1.1.9-2 2-2s2 .9 2 2v5c0 1.1-.9 2-2 2zM949 169.4c-1.1 0-2-.9-2-2v-5c0-1.1.9-2 2-2s2 .9 2 2v5c0 1.1-.9 2-2 2zM662.8 163c-1.1 0-2-.9-2-2v-5c0-1.1.9-2 2-2s2 .9 2 2v5c0 1.1-.9 2-2 2zM949 155.4c-1.1 0-2-.9-2-2v-5c0-1.1.9-2 2-2s2 .9 2 2v5c0 1.1-.9 2-2 2zM662.8 149c-1.1 0-2-.9-2-2v-5c0-1.1.9-2 2-2s2 .9 2 2v5c0 1.1-.9 2-2 2zM949 141.4c-1.1 0-2-.9-2-2v-5c0-1.1.9-2 2-2s2 .9 2 2v5c0 1.1-.9 2-2 2zM662.8 135c-1.1 0-2-.9-2-2v-5c0-1.1.9-2 2-2s2 .9 2 2v5c0 1.1-.9 2-2 2zM949 127.4c-1.1 0-2-.9-2-2v-5c0-1.1.9-2 2-2s2 .9 2 2v5c0 1.1-.9 2-2 2zM662.8 121c-1.1 0-2-.9-2-2v-5c0-1.1.9-2 2-2s2 .9 2 2v5c0 1.1-.9 2-2 2zM949 113.4c-1.1 0-2-.9-2-2v-5c0-1.1.9-2 2-2s2 .9 2 2v5c0 1.1-.9 2-2 2zM662.8 107c-1.1 0-2-.9-2-2v-5c0-1.1.9-2 2-2s2 .9 2 2v5c0 1.1-.9 2-2 2zM949 99.4c-1.1 0-2-.9-2-2v-5c0-1.1.9-2 2-2s2 .9 2 2v5c0 1.1-.9 2-2 2zM662.8 93c-1.1 0-2-.9-2-2v-5c0-1.1.9-2 2-2s2 .9 2 2v5c0 1.1-.9 2-2 2zM949 85.4c-1.1 0-2-.9-2-2v-5c0-1.1.9-2 2-2s2 .9 2 2v5c0 1.1-.9 2-2 2zM662.8 79c-1.1 0-2-.9-2-2v-5c0-1.1.9-2 2-2s2 .9 2 2v5c0 1.1-.9 2-2 2zM949 71.4c-1.1 0-2-.9-2-2v-5c0-1.1.9-2 2-2s2 .9 2 2v5c0 1.1-.9 2-2 2zM662.8 65c-1.1 0-2-.9-2-2v-5c0-1.1.9-2 2-2s2 .9 2 2v5c0 1.1-.9 2-2 2zM949 57.4c-1.1 0-2-.9-2-2v-5c0-1.1.9-2 2-2s2 .9 2 2v5c0 1.1-.9 2-2 2zM662.8 51c-1.1 0-2-.9-2-2v-5c0-1.1.9-2 2-2s2 .9 2 2v5c0 1.1-.9 2-2 2zM949 43.4c-1.1 0-2-.9-2-2v-5c0-1.1.9-2 2-2s2 .9 2 2v5c0 1.1-.9 2-2 2zM662.8 37c-1.1 0-2-.9-2-2v-5c0-1.1.9-2 2-2s2 .9 2 2v5c0 1.1-.9 2-2 2zM949 29.4c-1.1 0-2-.9-2-2v-5c0-1.1.9-2 2-2s2 .9 2 2v5c0 1.1-.9 2-2 2zM662.8 23c-1.1 0-2-.9-2-2v-5c0-1.1.9-2 2-2s2 .9 2 2v5c0 1.1-.9 2-2 2zM949 15.4c-1.1 0-2-.9-2-2v-5c0-1.1.9-2 2-2s2 .9 2 2v5c0 1.1-.9 2-2 2zM664.8 380c0-1.1-.9-2-2-2s-2 .9-2 2v2.5h4V380zM660.8 2v5c0 1.1.9 2 2 2s2-.9 2-2V2c0-.7-.3-1.3-.8-1.6h-2.3c-.6.3-.9.9-.9 1.6zM947.3.4c.3.6 1 1 1.7 1s1.4-.4 1.7-1h-3.4z"/></g><path fill="#DEDEDE" d="M568 259.8c9.7 0 18.8-2.5 26.8-6.9v.1l82-48.3-.1-.1h-.1l-81.8-48.3v.1c-7.9-4.4-17.1-6.9-26.8-6.9-30.5 0-55.2 24.7-55.2 55.2s24.7 55.1 55.2 55.1z"/><g class="icon" fill="#898989"><path d="M578 167.9h-21.3L546 186.3l10.7 18.4H578l10.7-18.4-10.7-18.4zm0 26.7c0 1.6-1.3 2.9-2.9 2.9h-15.6c-1.6 0-2.9-1.3-2.9-2.9v-16.5c0-1.6 1.3-2.9 2.9-2.9H573.6l4.4 4.4v15z"/><path d="M565.7 189.3c0-.2-.1-.3-.1-.4s-.1-.2-.2-.3l-.2-.1h-.3c-.2 0-.3 0-.5.1-.1.1-.2.2-.3.4-.1.2-.1.4-.2.7v1c0 .4 0 .8.1 1.1 0 .3.1.5.2.7.1.2.2.3.3.4s.3.1.4.1c.1 0 .2 0 .3-.1.1 0 .2-.1.3-.2s.1-.2.2-.3c0-.1.1-.3.1-.4 0-.2.1-.3.1-.5v-.7-.8c-.2-.3-.2-.5-.2-.7zM570.7 180.7c0-.2-.1-.3-.1-.4s-.1-.2-.2-.3c-.1-.1-.2-.1-.2-.1h-.3c-.2 0-.3 0-.5.1s-.2.2-.3.4c-.1.2-.1.4-.2.7v1c0 .4 0 .8.1 1.1 0 .3.1.5.2.7.1.2.2.3.3.4s.3.1.4.1c.1 0 .2 0 .3-.1.1 0 .2-.1.3-.2s.1-.2.2-.3c0-.1.1-.3.1-.4 0-.2.1-.3.1-.5v-.7-.8c-.1-.3-.2-.5-.2-.7z"/><path d="M572.9 176.8h-13.4c-.7 0-1.3.6-1.3 1.3v16.5c0 .7.6 1.3 1.3 1.3h15.7c.7 0 1.3-.6 1.3-1.3v-14.2h-3.6v-3.6zm-9.9 3.3l.1-.2.1-.1 1.3-.9H565.7v5.3h1.1l.1.1v.8l-.1.1h-3.7l-.1-.1v-.2-.2-.4l.1-.1h1.3v-4.1l-1 .6-.2.1h-.1l-.1-.1v-.6zm3.9 11.9c-.1.4-.2.7-.4 1s-.4.5-.7.7-.6.2-1.1.2c-.4 0-.8-.1-1.1-.2s-.5-.4-.7-.6c-.2-.3-.3-.6-.3-1s-.1-.9-.1-1.4 0-.9.1-1.4c.1-.4.2-.8.4-1s.4-.5.7-.7.6-.2 1.1-.2c.4 0 .8.1 1.1.2s.5.4.7.6c.2.3.3.6.3 1 .1.4.1.9.1 1.4.1.5 0 1-.1 1.4zm5 1.5v.2l-.1.1h-3.7l-.1-.1v-.2-.2-.4l.1-.1h1.3v-4.1l-1 .6-.2.1h-.1l-.1-.1v-.6l.1-.1.1-.1 1.3-.9H570.7v5.3h1.1l.1.1v.5zm.1-10.1c-.1.4-.2.7-.4 1s-.4.5-.7.7-.6.2-1.1.2c-.4 0-.8-.1-1.1-.2s-.5-.4-.7-.6c-.2-.3-.3-.6-.3-1-.1-.4-.1-.9-.1-1.4s0-.9.1-1.4c.1-.4.2-.8.4-1 .2-.3.4-.5.7-.7s.6-.2 1.1-.2c.4 0 .8.1 1.1.2s.5.4.7.6c.2.3.3.6.3 1 .1.4.1.9.1 1.4s-.1 1-.1 1.4z"/></g><path fill="none" stroke="#DEDEDE" stroke-width="3" stroke-linecap="round" stroke-linejoin="round" stroke-miterlimit="10" d="M385.6 0v53.9"/><g class="text" fill="#898989"><path d="M552.2 214.6h-2.8v8.4h-1.6v-8.4h-2.9v-1.4h7.3zM557.7 223.2c-1.4 0-2.5-.5-3.4-1.4s-1.3-2.1-1.3-3.6c0-1.6.4-2.8 1.3-3.8s2-1.4 3.5-1.4c1.4 0 2.5.5 3.3 1.4s1.3 2.1 1.3 3.6c0 1.6-.4 2.9-1.3 3.8s-2 1.4-3.4 1.4zm0-8.7c-.9 0-1.6.3-2.2 1s-.8 1.6-.8 2.6c0 1.1.3 2 .8 2.6s1.3 1 2.1 1c.9 0 1.7-.3 2.2-1s.8-1.5.8-2.7-.3-2.1-.8-2.7-1.1-.8-2.1-.8zM571.8 223h-1.9l-1.6-2.6c-.1-.2-.3-.4-.4-.6-.1-.2-.3-.3-.4-.4s-.3-.2-.5-.2-.3-.1-.6-.1h-.7v4h-1.6v-9.8h3.2c.5 0 .9.1 1.3.2s.7.3 1 .5.5.5.7.8.2.7.2 1.2c0 .3-.1.7-.2 1-.1.3-.2.5-.4.8-.2.2-.4.4-.7.6s-.6.3-.9.4c.2.1.3.2.5.3.1.1.3.2.4.4s.2.3.4.4c.1.2.2.3.4.6l1.8 2.5zm-6-8.5v3.2h1.4c.3 0 .5 0 .7-.1l.6-.3c.2-.1.3-.3.4-.5s.1-.4.1-.7c0-.5-.1-.8-.4-1.1s-.7-.4-1.3-.4l-1.5-.1zM581 223h-1.8l-.9-2.5h-3.9l-.8 2.5h-1.8l3.7-9.8h1.8l3.7 9.8zm-3.1-3.8l-1.4-3.9c0-.1-.1-.3-.1-.6 0 .3-.1.5-.1.6l-1.3 3.9h2.9zM590 222.3c-1 .6-2.2.8-3.4.8-1.4 0-2.6-.5-3.5-1.4s-1.3-2.1-1.3-3.6.5-2.8 1.5-3.7c1-1 2.2-1.5 3.7-1.5 1.1 0 2 .2 2.7.5v1.7c-.8-.5-1.6-.8-2.7-.8-1 0-1.9.3-2.6 1s-1 1.6-1 2.7.3 2 .9 2.7c.6.6 1.4 1 2.3 1 .7 0 1.3-.1 1.8-.4V219h-2.1v-1.4h3.7v4.7zM597.6 223h-5.5v-9.8h5.3v1.4h-3.7v2.8h3.4v1.3h-3.4v2.9h3.9zM551.6 239.8V230h3.1c.9 0 1.7.2 2.3.6s.8 1 .8 1.6-.2 1-.5 1.4-.7.7-1.3.9c.7.1 1.2.3 1.6.7.4.4.6 1 .6 1.6 0 .8-.3 1.5-1 2s-1.5.8-2.5.8h-3.1v.2zm1.7-8.5v2.8h1.1c.6 0 1-.1 1.3-.4s.5-.6.5-1.1c0-.8-.6-1.3-1.7-1.3h-1.2zm0 4.1v3.1h1.4c.6 0 1.1-.1 1.4-.4.3-.3.5-.7.5-1.2 0-1-.7-1.5-2.1-1.5h-1.2zM565.5 239.8h-5.4V230h1.6v8.4h3.8zM571 240c-1.4 0-2.5-.5-3.4-1.4s-1.3-2.1-1.3-3.6c0-1.6.4-2.8 1.3-3.8s2-1.4 3.5-1.4c1.4 0 2.5.5 3.3 1.4s1.3 2.1 1.3 3.6c0 1.6-.4 2.9-1.3 3.8s-2 1.4-3.4 1.4zm.1-8.7c-.9 0-1.6.3-2.2 1s-.8 1.6-.8 2.6c0 1.1.3 2 .8 2.6s1.3 1 2.1 1c.9 0 1.7-.3 2.2-1s.8-1.5.8-2.7-.3-2.1-.8-2.7-1.2-.8-2.1-.8zM577.5 239.8V230h3.1c.9 0 1.7.2 2.3.6s.8 1 .8 1.6-.2 1-.5 1.4-.7.7-1.3.9c.7.1 1.2.3 1.6.7.4.4.6 1 .6 1.6 0 .8-.3 1.5-1 2s-1.5.8-2.5.8h-3.1v.2zm1.6-8.5v2.8h1.1c.6 0 1-.1 1.3-.4s.5-.6.5-1.1c0-.8-.6-1.3-1.7-1.3h-1.2zm0 4.1v3.1h1.4c.6 0 1.1-.1 1.4-.4.3-.3.5-.7.5-1.2 0-1-.7-1.5-2.1-1.5h-1.2zM537.8 222.6v-1.7c.2.1.3.3.5.4s.4.2.7.3c.2.1.5.1.7.2s.4.1.6.1c.7 0 1.2-.1 1.5-.3s.5-.6.5-1c0-.2-.1-.4-.2-.6-.1-.2-.3-.3-.5-.5s-.4-.3-.7-.4-.6-.3-.9-.4c-.3-.2-.6-.4-.9-.5s-.5-.4-.7-.6-.4-.5-.5-.7-.2-.6-.2-1c0-.5.1-.9.3-1.2.2-.3.5-.6.8-.8.3-.2.7-.4 1.2-.5.4-.1.9-.2 1.3-.2 1 0 1.8.1 2.2.3v1.6c-.6-.4-1.3-.6-2.1-.6-.2 0-.5 0-.7.1s-.5.1-.6.2-.3.2-.5.4-.2.4-.2.6 0 .4.1.6.2.3.4.4.4.3.6.4c.3.1.5.3.9.4.3.2.7.4 1 .6s.6.4.8.6.4.5.5.8.2.6.2 1c0 .5-.1.9-.3 1.3s-.5.6-.8.8-.7.4-1.2.5-.9.1-1.4.1h-.6c-.2 0-.5-.1-.7-.1-.3 0-.5-.1-.7-.2s-.2-.3-.4-.4z"/></g></g><g class="icons-group icons icons-A"><g class="button"><path fill="#FFF" d="M107 255.3h94v36.3h-94z"/><path stroke="#000" stroke-width="3" stroke-linecap="round" stroke-linejoin="round" stroke-miterlimit="10" d="M107 255.3h94v36.3h-94z"/><path class="text" fill="#FFF" d="M178.1 270.4c.6 0 1 .1 1.3.4s.4.6.4 1.1c0 .3 0 .5-.1.7s-.2.4-.4.5-.3.3-.5.3-.4.1-.7.1h-1.3v-3.2l1.3.1zm2.8 5.7c-.1-.2-.3-.4-.4-.6-.1-.2-.2-.3-.3-.4s-.2-.3-.4-.4c-.1-.1-.3-.2-.5-.3.3-.1.6-.2.9-.4.3-.2.5-.4.7-.6s.3-.5.4-.8c.1-.3.2-.6.2-.9 0-.4-.1-.8-.2-1.2-.2-.3-.4-.6-.7-.8-.3-.2-.6-.4-1-.5s-.8-.2-1.3-.2h-3.2v9.8h1.6v-4h.7c.2 0 .4 0 .6.1s.3.1.5.2c.1.1.3.2.4.4.1.2.3.4.4.6l1.6 2.6h1.9l-1.9-2.6zm-7.5 1.4h-3.9v-2.9h3.4v-1.4h-3.4v-2.8h3.6V269h-5.3v9.8h5.5l.1-1.3zm-7.9-8.4h-1.7v9.8h1.7v-9.8zm-3.1 0h-7.2v1.4h2.8v8.4h1.6v-8.4h2.8v-1.4zm-15.4 1.3c1.3 0 2 .6 2 1.7 0 .6-.2 1-.5 1.4-.4.3-.9.5-1.6.5h-1v-3.6h1.1zm.1 4.9c1.1 0 2-.3 2.6-.9s1-1.4 1-2.3-.3-1.7-.9-2.2-1.5-.8-2.6-.8h-3v9.8h1.6v-3.5l1.3-.1zm-8.3-4.9c1.3 0 2 .6 2 1.7 0 .6-.2 1-.5 1.4-.4.3-.9.5-1.6.5h-1v-3.6h1.1zm.2 4.9c1.1 0 2-.3 2.6-.9s1-1.4 1-2.3-.3-1.7-.9-2.2-1.5-.8-2.6-.8h-3v9.8h1.6v-3.5l1.3-.1zm-10.4-.3l1.3-3.9c0-.1.1-.4.1-.6 0 .3.1.5.1.6l1.4 3.9h-2.9zm2.5-5.9h-1.8l-3.7 9.8h1.8l.8-2.5h3.8l.9 2.5h1.8l-3.6-9.8z"/></g><g class="button"><path fill="#FFF" d="M759 330.3h94v36.3h-94z"/><path stroke="#000" stroke-width="3" stroke-linecap="round" stroke-linejoin="round" stroke-miterlimit="10" d="M758.1 330.7h94V367h-94z"/><path class="text" fill="#FFF" d="M829.1 345.8c.6 0 1 .1 1.3.4s.4.6.4 1.1c0 .3 0 .5-.1.7s-.2.4-.4.5-.3.3-.5.3-.4.1-.7.1h-1.3v-3.2l1.3.1zm2.9 5.7c-.1-.2-.3-.4-.4-.6-.1-.2-.2-.3-.3-.4s-.2-.3-.4-.4c-.1-.1-.3-.2-.5-.3.3-.1.6-.2.9-.4.3-.2.5-.4.7-.6s.3-.5.4-.8c.1-.3.2-.6.2-.9 0-.4-.1-.8-.2-1.2-.2-.3-.4-.6-.7-.8-.3-.2-.6-.4-1-.5s-.8-.2-1.3-.2h-3.2v9.8h1.6v-4h.7c.2 0 .4 0 .6.1s.3.1.5.2c.1.1.3.2.4.4.1.2.3.4.4.6l1.6 2.6h1.9l-1.9-2.6zm-7.6 1.4h-3.9V350h3.4v-1.4h-3.4v-2.8h3.6v-1.4h-5.3v9.8h5.5v-1.3h.1zm-7.9-8.4h-1.7v9.8h1.7v-9.8zm-3 0h-7.2v1.4h2.8v8.4h1.6v-8.4h2.8v-1.4zm-15.5 1.3c1.3 0 2 .6 2 1.7 0 .6-.2 1-.5 1.4-.4.3-.9.5-1.6.5h-1v-3.6h1.1zm.1 4.9c1.1 0 2-.3 2.6-.9s1-1.4 1-2.3-.3-1.7-.9-2.2-1.5-.8-2.6-.8h-3v9.8h1.6v-3.5l1.3-.1zm-8.2-4.9c1.3 0 2 .6 2 1.7 0 .6-.2 1-.5 1.4-.4.3-.9.5-1.6.5h-1v-3.6h1.1zm.1 4.9c1.1 0 2-.3 2.6-.9s1-1.4 1-2.3-.3-1.7-.9-2.2-1.5-.8-2.6-.8h-3v9.8h1.6v-3.5l1.3-.1zm-10.3-.3l1.3-3.9c0-.1.1-.4.1-.6 0 .3.1.5.1.6l1.4 3.9h-2.9zm2.4-5.9h-1.8l-3.7 9.8h1.8l.8-2.5h3.8l.9 2.5h1.8l-3.6-9.8z"/></g><g class="line" fill="none" stroke="#DEDEDE" stroke-width="4" stroke-linejoin="round" stroke-miterlimit="10"><path d="M49.4 0v276"/><circle stroke-linecap="round" cx="87.4" cy="274.2" r="5"/><path d="M84 274.1H47.3"/></g><g class="line" fill="none" stroke="#DEDEDE" stroke-width="4" stroke-linejoin="round" stroke-miterlimit="10"><path d="M929.3 0v351"/><circle stroke-linecap="round" cx="875.3" cy="349.2" r="5"/><path d="M880 349.1h51.3"/></g></g></svg>