<?xml version="1.0" encoding="utf-8"?>
<!-- Generator: Adobe Illustrator 19.2.0, SVG Export Plug-In . SVG Version: 6.00 Build 0)  -->
<svg version="1.1" class="fullwidth--infographic__4"
	 xmlns="http://www.w3.org/2000/svg" xmlns:xlink="http://www.w3.org/1999/xlink" x="0px" y="0px" viewBox="0 0 960 382.7"
	 style="enable-background:new 0 0 960 382.7;" xml:space="preserve">
<g class="static">
	<line style="fill:none;stroke:#DEDEDE;stroke-width:3;stroke-linecap:round;stroke-linejoin:round;stroke-miterlimit:10;" x1="385.6" y1="0" x2="385.6" y2="53.9"/>
	<path style="fill:#DEDEDE;" d="M297.1,378.8c-1.1,0-2-0.9-2-2v-5c0-1.1,0.9-2,2-2s2,0.9,2,2v5C299.1,377.9,298.2,378.8,297.1,378.8
		z"/>
	<path style="fill:#DEDEDE;" d="M10.9,375.6c-1.1,0-2-0.9-2-2v-5c0-1.1,0.9-2,2-2s2,0.9,2,2v5C12.9,374.7,12,375.6,10.9,375.6z"/>
	<path style="fill:#DEDEDE;" d="M297.1,364.8c-1.1,0-2-0.9-2-2v-5c0-1.1,0.9-2,2-2s2,0.9,2,2v5C299.1,363.9,298.2,364.8,297.1,364.8
		z"/>
	<path style="fill:#DEDEDE;" d="M10.9,361.6c-1.1,0-2-0.9-2-2v-5c0-1.1,0.9-2,2-2s2,0.9,2,2v5C12.9,360.7,12,361.6,10.9,361.6z"/>
	<path style="fill:#DEDEDE;" d="M297.1,350.8c-1.1,0-2-0.9-2-2v-5c0-1.1,0.9-2,2-2s2,0.9,2,2v5C299.1,349.9,298.2,350.8,297.1,350.8
		z"/>
	<path style="fill:#DEDEDE;" d="M10.9,347.6c-1.1,0-2-0.9-2-2v-5c0-1.1,0.9-2,2-2s2,0.9,2,2v5C12.9,346.7,12,347.6,10.9,347.6z"/>
	<path style="fill:#DEDEDE;" d="M297.1,336.8c-1.1,0-2-0.9-2-2v-5c0-1.1,0.9-2,2-2s2,0.9,2,2v5C299.1,335.9,298.2,336.8,297.1,336.8
		z"/>
	<path style="fill:#DEDEDE;" d="M10.9,333.6c-1.1,0-2-0.9-2-2v-5c0-1.1,0.9-2,2-2s2,0.9,2,2v5C12.9,332.7,12,333.6,10.9,333.6z"/>
	<path style="fill:#DEDEDE;" d="M297.1,322.8c-1.1,0-2-0.9-2-2v-5c0-1.1,0.9-2,2-2s2,0.9,2,2v5C299.1,321.9,298.2,322.8,297.1,322.8
		z"/>
	<path style="fill:#DEDEDE;" d="M10.9,319.6c-1.1,0-2-0.9-2-2v-5c0-1.1,0.9-2,2-2s2,0.9,2,2v5C12.9,318.7,12,319.6,10.9,319.6z"/>
	<path style="fill:#DEDEDE;" d="M297.1,308.8c-1.1,0-2-0.9-2-2v-5c0-1.1,0.9-2,2-2s2,0.9,2,2v5C299.1,307.9,298.2,308.8,297.1,308.8
		z"/>
	<path style="fill:#DEDEDE;" d="M10.9,305.6c-1.1,0-2-0.9-2-2v-5c0-1.1,0.9-2,2-2s2,0.9,2,2v5C12.9,304.7,12,305.6,10.9,305.6z"/>
	<path style="fill:#DEDEDE;" d="M297.1,294.8c-1.1,0-2-0.9-2-2v-5c0-1.1,0.9-2,2-2s2,0.9,2,2v5C299.1,293.9,298.2,294.8,297.1,294.8
		z"/>
	<path style="fill:#DEDEDE;" d="M10.9,291.6c-1.1,0-2-0.9-2-2v-5c0-1.1,0.9-2,2-2s2,0.9,2,2v5C12.9,290.7,12,291.6,10.9,291.6z"/>
	<path style="fill:#DEDEDE;" d="M297.1,280.8c-1.1,0-2-0.9-2-2v-5c0-1.1,0.9-2,2-2s2,0.9,2,2v5C299.1,279.9,298.2,280.8,297.1,280.8
		z"/>
	<path style="fill:#DEDEDE;" d="M10.9,277.6c-1.1,0-2-0.9-2-2v-5c0-1.1,0.9-2,2-2s2,0.9,2,2v5C12.9,276.7,12,277.6,10.9,277.6z"/>
	<path style="fill:#DEDEDE;" d="M297.1,266.8c-1.1,0-2-0.9-2-2v-5c0-1.1,0.9-2,2-2s2,0.9,2,2v5C299.1,265.9,298.2,266.8,297.1,266.8
		z"/>
	<path style="fill:#DEDEDE;" d="M10.9,263.6c-1.1,0-2-0.9-2-2v-5c0-1.1,0.9-2,2-2s2,0.9,2,2v5C12.9,262.7,12,263.6,10.9,263.6z"/>
	<path style="fill:#DEDEDE;" d="M297.1,252.8c-1.1,0-2-0.9-2-2v-5c0-1.1,0.9-2,2-2s2,0.9,2,2v5C299.1,251.9,298.2,252.8,297.1,252.8
		z"/>
	<path style="fill:#DEDEDE;" d="M10.9,249.6c-1.1,0-2-0.9-2-2v-5c0-1.1,0.9-2,2-2s2,0.9,2,2v5C12.9,248.7,12,249.6,10.9,249.6z"/>
	<path style="fill:#DEDEDE;" d="M297.1,238.8c-1.1,0-2-0.9-2-2v-5c0-1.1,0.9-2,2-2s2,0.9,2,2v5C299.1,237.9,298.2,238.8,297.1,238.8
		z"/>
	<path style="fill:#DEDEDE;" d="M10.9,235.6c-1.1,0-2-0.9-2-2v-5c0-1.1,0.9-2,2-2s2,0.9,2,2v5C12.9,234.7,12,235.6,10.9,235.6z"/>
	<path style="fill:#DEDEDE;" d="M297.1,224.8c-1.1,0-2-0.9-2-2v-5c0-1.1,0.9-2,2-2s2,0.9,2,2v5C299.1,223.9,298.2,224.8,297.1,224.8
		z"/>
	<path style="fill:#DEDEDE;" d="M10.9,221.6c-1.1,0-2-0.9-2-2v-5c0-1.1,0.9-2,2-2s2,0.9,2,2v5C12.9,220.7,12,221.6,10.9,221.6z"/>
	<path style="fill:#DEDEDE;" d="M297.1,210.8c-1.1,0-2-0.9-2-2v-5c0-1.1,0.9-2,2-2s2,0.9,2,2v5C299.1,209.9,298.2,210.8,297.1,210.8
		z"/>
	<path style="fill:#DEDEDE;" d="M10.9,207.6c-1.1,0-2-0.9-2-2v-5c0-1.1,0.9-2,2-2s2,0.9,2,2v5C12.9,206.7,12,207.6,10.9,207.6z"/>
	<path style="fill:#DEDEDE;" d="M297.1,196.8c-1.1,0-2-0.9-2-2v-5c0-1.1,0.9-2,2-2s2,0.9,2,2v5C299.1,195.9,298.2,196.8,297.1,196.8
		z"/>
	<path style="fill:#DEDEDE;" d="M10.9,193.6c-1.1,0-2-0.9-2-2v-5c0-1.1,0.9-2,2-2s2,0.9,2,2v5C12.9,192.7,12,193.6,10.9,193.6z"/>
	<path style="fill:#DEDEDE;" d="M297.1,182.8c-1.1,0-2-0.9-2-2v-5c0-1.1,0.9-2,2-2s2,0.9,2,2v5C299.1,181.9,298.2,182.8,297.1,182.8
		z"/>
	<path style="fill:#DEDEDE;" d="M10.9,179.6c-1.1,0-2-0.9-2-2v-5c0-1.1,0.9-2,2-2s2,0.9,2,2v5C12.9,178.7,12,179.6,10.9,179.6z"/>
	<path style="fill:#DEDEDE;" d="M297.1,168.8c-1.1,0-2-0.9-2-2v-5c0-1.1,0.9-2,2-2s2,0.9,2,2v5C299.1,167.9,298.2,168.8,297.1,168.8
		z"/>
	<path style="fill:#DEDEDE;" d="M10.9,165.6c-1.1,0-2-0.9-2-2v-5c0-1.1,0.9-2,2-2s2,0.9,2,2v5C12.9,164.7,12,165.6,10.9,165.6z"/>
	<path style="fill:#DEDEDE;" d="M297.1,154.8c-1.1,0-2-0.9-2-2v-5c0-1.1,0.9-2,2-2s2,0.9,2,2v5C299.1,153.9,298.2,154.8,297.1,154.8
		z"/>
	<path style="fill:#DEDEDE;" d="M10.9,151.6c-1.1,0-2-0.9-2-2v-5c0-1.1,0.9-2,2-2s2,0.9,2,2v5C12.9,150.7,12,151.6,10.9,151.6z"/>
	<path style="fill:#DEDEDE;" d="M297.1,140.8c-1.1,0-2-0.9-2-2v-5c0-1.1,0.9-2,2-2s2,0.9,2,2v5C299.1,139.9,298.2,140.8,297.1,140.8
		z"/>
	<path style="fill:#DEDEDE;" d="M10.9,137.6c-1.1,0-2-0.9-2-2v-5c0-1.1,0.9-2,2-2s2,0.9,2,2v5C12.9,136.7,12,137.6,10.9,137.6z"/>
	<path style="fill:#DEDEDE;" d="M297.1,126.8c-1.1,0-2-0.9-2-2v-5c0-1.1,0.9-2,2-2s2,0.9,2,2v5C299.1,125.9,298.2,126.8,297.1,126.8
		z"/>
	<path style="fill:#DEDEDE;" d="M10.9,123.6c-1.1,0-2-0.9-2-2v-5c0-1.1,0.9-2,2-2s2,0.9,2,2v5C12.9,122.7,12,123.6,10.9,123.6z"/>
	<path style="fill:#DEDEDE;" d="M297.1,112.8c-1.1,0-2-0.9-2-2v-5c0-1.1,0.9-2,2-2s2,0.9,2,2v5C299.1,111.9,298.2,112.8,297.1,112.8
		z"/>
	<path style="fill:#DEDEDE;" d="M10.9,109.6c-1.1,0-2-0.9-2-2v-5c0-1.1,0.9-2,2-2s2,0.9,2,2v5C12.9,108.7,12,109.6,10.9,109.6z"/>
	<path style="fill:#DEDEDE;" d="M297.1,98.8c-1.1,0-2-0.9-2-2v-5c0-1.1,0.9-2,2-2s2,0.9,2,2v5C299.1,97.9,298.2,98.8,297.1,98.8z"/>
	<path style="fill:#DEDEDE;" d="M10.9,95.6c-1.1,0-2-0.9-2-2v-5c0-1.1,0.9-2,2-2s2,0.9,2,2v5C12.9,94.7,12,95.6,10.9,95.6z"/>
	<path style="fill:#DEDEDE;" d="M297.1,84.8c-1.1,0-2-0.9-2-2v-5c0-1.1,0.9-2,2-2s2,0.9,2,2v5C299.1,83.9,298.2,84.8,297.1,84.8z"/>
	<path style="fill:#DEDEDE;" d="M10.9,81.6c-1.1,0-2-0.9-2-2v-5c0-1.1,0.9-2,2-2s2,0.9,2,2v5C12.9,80.7,12,81.6,10.9,81.6z"/>
	<path style="fill:#DEDEDE;" d="M297.1,70.8c-1.1,0-2-0.9-2-2v-5c0-1.1,0.9-2,2-2s2,0.9,2,2v5C299.1,69.9,298.2,70.8,297.1,70.8z"/>
	<path style="fill:#DEDEDE;" d="M10.9,67.6c-1.1,0-2-0.9-2-2v-5c0-1.1,0.9-2,2-2s2,0.9,2,2v5C12.9,66.7,12,67.6,10.9,67.6z"/>
	<path style="fill:#DEDEDE;" d="M297.1,56.8c-1.1,0-2-0.9-2-2v-5c0-1.1,0.9-2,2-2s2,0.9,2,2v5C299.1,55.9,298.2,56.8,297.1,56.8z"/>
	<path style="fill:#DEDEDE;" d="M10.9,53.6c-1.1,0-2-0.9-2-2v-5c0-1.1,0.9-2,2-2s2,0.9,2,2v5C12.9,52.7,12,53.6,10.9,53.6z"/>
	<path style="fill:#DEDEDE;" d="M297.1,42.8c-1.1,0-2-0.9-2-2v-5c0-1.1,0.9-2,2-2s2,0.9,2,2v5C299.1,41.9,298.2,42.8,297.1,42.8z"/>
	<path style="fill:#DEDEDE;" d="M10.9,39.6c-1.1,0-2-0.9-2-2v-5c0-1.1,0.9-2,2-2s2,0.9,2,2v5C12.9,38.7,12,39.6,10.9,39.6z"/>
	<path style="fill:#DEDEDE;" d="M297.1,28.8c-1.1,0-2-0.9-2-2v-5c0-1.1,0.9-2,2-2s2,0.9,2,2v5C299.1,27.9,298.2,28.8,297.1,28.8z"/>
	<path style="fill:#DEDEDE;" d="M10.9,25.6c-1.1,0-2-0.9-2-2v-5c0-1.1,0.9-2,2-2s2,0.9,2,2v5C12.9,24.7,12,25.6,10.9,25.6z"/>
	<path style="fill:#DEDEDE;" d="M297.1,14.8c-1.1,0-2-0.9-2-2v-5c0-1.1,0.9-2,2-2s2,0.9,2,2v5C299.1,13.9,298.2,14.8,297.1,14.8z"/>
	<path style="fill:#DEDEDE;" d="M10.9,11.6c-1.1,0-2-0.9-2-2v-5c0-1.1,0.9-2,2-2s2,0.9,2,2v5C12.9,10.7,12,11.6,10.9,11.6z"/>
	<path style="fill:#00BCF2;" d="M949,379.4c-1.1,0-2-0.9-2-2v-5c0-1.1,0.9-2,2-2s2,0.9,2,2v5C951,378.5,950.1,379.4,949,379.4z"/>
	<path style="fill:#00BCF2;" d="M662.8,373c-1.1,0-2-0.9-2-2v-5c0-1.1,0.9-2,2-2s2,0.9,2,2v5C664.8,372.1,663.9,373,662.8,373z"/>
	<path style="fill:#00BCF2;" d="M949,365.4c-1.1,0-2-0.9-2-2v-5c0-1.1,0.9-2,2-2s2,0.9,2,2v5C951,364.5,950.1,365.4,949,365.4z"/>
	<path style="fill:#00BCF2;" d="M662.8,359c-1.1,0-2-0.9-2-2v-5c0-1.1,0.9-2,2-2s2,0.9,2,2v5C664.8,358.1,663.9,359,662.8,359z"/>
	<path style="fill:#00BCF2;" d="M949,351.4c-1.1,0-2-0.9-2-2v-5c0-1.1,0.9-2,2-2s2,0.9,2,2v5C951,350.5,950.1,351.4,949,351.4z"/>
	<path style="fill:#00BCF2;" d="M662.8,345c-1.1,0-2-0.9-2-2v-5c0-1.1,0.9-2,2-2s2,0.9,2,2v5C664.8,344.1,663.9,345,662.8,345z"/>
	<path style="fill:#00BCF2;" d="M949,337.4c-1.1,0-2-0.9-2-2v-5c0-1.1,0.9-2,2-2s2,0.9,2,2v5C951,336.5,950.1,337.4,949,337.4z"/>
	<path style="fill:#00BCF2;" d="M662.8,331c-1.1,0-2-0.9-2-2v-5c0-1.1,0.9-2,2-2s2,0.9,2,2v5C664.8,330.1,663.9,331,662.8,331z"/>
	<path style="fill:#00BCF2;" d="M949,323.4c-1.1,0-2-0.9-2-2v-5c0-1.1,0.9-2,2-2s2,0.9,2,2v5C951,322.5,950.1,323.4,949,323.4z"/>
	<path style="fill:#00BCF2;" d="M662.8,317c-1.1,0-2-0.9-2-2v-5c0-1.1,0.9-2,2-2s2,0.9,2,2v5C664.8,316.1,663.9,317,662.8,317z"/>
	<path style="fill:#00BCF2;" d="M949,309.4c-1.1,0-2-0.9-2-2v-5c0-1.1,0.9-2,2-2s2,0.9,2,2v5C951,308.5,950.1,309.4,949,309.4z"/>
	<path style="fill:#00BCF2;" d="M662.8,303c-1.1,0-2-0.9-2-2v-5c0-1.1,0.9-2,2-2s2,0.9,2,2v5C664.8,302.1,663.9,303,662.8,303z"/>
	<path style="fill:#00BCF2;" d="M949,295.4c-1.1,0-2-0.9-2-2v-5c0-1.1,0.9-2,2-2s2,0.9,2,2v5C951,294.5,950.1,295.4,949,295.4z"/>
	<path style="fill:#00BCF2;" d="M662.8,289c-1.1,0-2-0.9-2-2v-5c0-1.1,0.9-2,2-2s2,0.9,2,2v5C664.8,288.1,663.9,289,662.8,289z"/>
	<path style="fill:#00BCF2;" d="M949,281.4c-1.1,0-2-0.9-2-2v-5c0-1.1,0.9-2,2-2s2,0.9,2,2v5C951,280.5,950.1,281.4,949,281.4z"/>
	<path style="fill:#00BCF2;" d="M662.8,275c-1.1,0-2-0.9-2-2v-5c0-1.1,0.9-2,2-2s2,0.9,2,2v5C664.8,274.1,663.9,275,662.8,275z"/>
	<path style="fill:#00BCF2;" d="M949,267.4c-1.1,0-2-0.9-2-2v-5c0-1.1,0.9-2,2-2s2,0.9,2,2v5C951,266.5,950.1,267.4,949,267.4z"/>
	<path style="fill:#00BCF2;" d="M662.8,261c-1.1,0-2-0.9-2-2v-5c0-1.1,0.9-2,2-2s2,0.9,2,2v5C664.8,260.1,663.9,261,662.8,261z"/>
	<path style="fill:#00BCF2;" d="M949,253.4c-1.1,0-2-0.9-2-2v-5c0-1.1,0.9-2,2-2s2,0.9,2,2v5C951,252.5,950.1,253.4,949,253.4z"/>
	<path style="fill:#00BCF2;" d="M662.8,247c-1.1,0-2-0.9-2-2v-5c0-1.1,0.9-2,2-2s2,0.9,2,2v5C664.8,246.1,663.9,247,662.8,247z"/>
	<path style="fill:#00BCF2;" d="M949,239.4c-1.1,0-2-0.9-2-2v-5c0-1.1,0.9-2,2-2s2,0.9,2,2v5C951,238.5,950.1,239.4,949,239.4z"/>
	<path style="fill:#00BCF2;" d="M662.8,233c-1.1,0-2-0.9-2-2v-5c0-1.1,0.9-2,2-2s2,0.9,2,2v5C664.8,232.1,663.9,233,662.8,233z"/>
	<path style="fill:#00BCF2;" d="M949,225.4c-1.1,0-2-0.9-2-2v-5c0-1.1,0.9-2,2-2s2,0.9,2,2v5C951,224.5,950.1,225.4,949,225.4z"/>
	<path style="fill:#00BCF2;" d="M662.8,219c-1.1,0-2-0.9-2-2v-5c0-1.1,0.9-2,2-2s2,0.9,2,2v5C664.8,218.1,663.9,219,662.8,219z"/>
	<path style="fill:#00BCF2;" d="M949,211.4c-1.1,0-2-0.9-2-2v-5c0-1.1,0.9-2,2-2s2,0.9,2,2v5C951,210.5,950.1,211.4,949,211.4z"/>
	<path style="fill:#00BCF2;" d="M662.8,205c-1.1,0-2-0.9-2-2v-5c0-1.1,0.9-2,2-2s2,0.9,2,2v5C664.8,204.1,663.9,205,662.8,205z"/>
	<path style="fill:#00BCF2;" d="M949,197.4c-1.1,0-2-0.9-2-2v-5c0-1.1,0.9-2,2-2s2,0.9,2,2v5C951,196.5,950.1,197.4,949,197.4z"/>
	<path style="fill:#00BCF2;" d="M662.8,191c-1.1,0-2-0.9-2-2v-5c0-1.1,0.9-2,2-2s2,0.9,2,2v5C664.8,190.1,663.9,191,662.8,191z"/>
	<path style="fill:#00BCF2;" d="M949,183.4c-1.1,0-2-0.9-2-2v-5c0-1.1,0.9-2,2-2s2,0.9,2,2v5C951,182.5,950.1,183.4,949,183.4z"/>
	<path style="fill:#00BCF2;" d="M662.8,177c-1.1,0-2-0.9-2-2v-5c0-1.1,0.9-2,2-2s2,0.9,2,2v5C664.8,176.1,663.9,177,662.8,177z"/>
	<path style="fill:#00BCF2;" d="M949,169.4c-1.1,0-2-0.9-2-2v-5c0-1.1,0.9-2,2-2s2,0.9,2,2v5C951,168.5,950.1,169.4,949,169.4z"/>
	<path style="fill:#00BCF2;" d="M662.8,163c-1.1,0-2-0.9-2-2v-5c0-1.1,0.9-2,2-2s2,0.9,2,2v5C664.8,162.1,663.9,163,662.8,163z"/>
	<path style="fill:#00BCF2;" d="M949,155.4c-1.1,0-2-0.9-2-2v-5c0-1.1,0.9-2,2-2s2,0.9,2,2v5C951,154.5,950.1,155.4,949,155.4z"/>
	<path style="fill:#00BCF2;" d="M662.8,149c-1.1,0-2-0.9-2-2v-5c0-1.1,0.9-2,2-2s2,0.9,2,2v5C664.8,148.1,663.9,149,662.8,149z"/>
	<path style="fill:#00BCF2;" d="M949,141.4c-1.1,0-2-0.9-2-2v-5c0-1.1,0.9-2,2-2s2,0.9,2,2v5C951,140.5,950.1,141.4,949,141.4z"/>
	<path style="fill:#00BCF2;" d="M662.8,135c-1.1,0-2-0.9-2-2v-5c0-1.1,0.9-2,2-2s2,0.9,2,2v5C664.8,134.1,663.9,135,662.8,135z"/>
	<path style="fill:#00BCF2;" d="M949,127.4c-1.1,0-2-0.9-2-2v-5c0-1.1,0.9-2,2-2s2,0.9,2,2v5C951,126.5,950.1,127.4,949,127.4z"/>
	<path style="fill:#00BCF2;" d="M662.8,121c-1.1,0-2-0.9-2-2v-5c0-1.1,0.9-2,2-2s2,0.9,2,2v5C664.8,120.1,663.9,121,662.8,121z"/>
	<path style="fill:#00BCF2;" d="M949,113.4c-1.1,0-2-0.9-2-2v-5c0-1.1,0.9-2,2-2s2,0.9,2,2v5C951,112.5,950.1,113.4,949,113.4z"/>
	<path style="fill:#00BCF2;" d="M662.8,107c-1.1,0-2-0.9-2-2v-5c0-1.1,0.9-2,2-2s2,0.9,2,2v5C664.8,106.1,663.9,107,662.8,107z"/>
	<path style="fill:#00BCF2;" d="M949,99.4c-1.1,0-2-0.9-2-2v-5c0-1.1,0.9-2,2-2s2,0.9,2,2v5C951,98.5,950.1,99.4,949,99.4z"/>
	<path style="fill:#00BCF2;" d="M662.8,93c-1.1,0-2-0.9-2-2v-5c0-1.1,0.9-2,2-2s2,0.9,2,2v5C664.8,92.1,663.9,93,662.8,93z"/>
	<path style="fill:#00BCF2;" d="M949,85.4c-1.1,0-2-0.9-2-2v-5c0-1.1,0.9-2,2-2s2,0.9,2,2v5C951,84.5,950.1,85.4,949,85.4z"/>
	<path style="fill:#00BCF2;" d="M662.8,79c-1.1,0-2-0.9-2-2v-5c0-1.1,0.9-2,2-2s2,0.9,2,2v5C664.8,78.1,663.9,79,662.8,79z"/>
	<path style="fill:#00BCF2;" d="M949,71.4c-1.1,0-2-0.9-2-2v-5c0-1.1,0.9-2,2-2s2,0.9,2,2v5C951,70.5,950.1,71.4,949,71.4z"/>
	<path style="fill:#00BCF2;" d="M662.8,65c-1.1,0-2-0.9-2-2v-5c0-1.1,0.9-2,2-2s2,0.9,2,2v5C664.8,64.1,663.9,65,662.8,65z"/>
	<path style="fill:#00BCF2;" d="M949,57.4c-1.1,0-2-0.9-2-2v-5c0-1.1,0.9-2,2-2s2,0.9,2,2v5C951,56.5,950.1,57.4,949,57.4z"/>
	<path style="fill:#00BCF2;" d="M662.8,51c-1.1,0-2-0.9-2-2v-5c0-1.1,0.9-2,2-2s2,0.9,2,2v5C664.8,50.1,663.9,51,662.8,51z"/>
	<path style="fill:#00BCF2;" d="M949,43.4c-1.1,0-2-0.9-2-2v-5c0-1.1,0.9-2,2-2s2,0.9,2,2v5C951,42.5,950.1,43.4,949,43.4z"/>
	<path style="fill:#00BCF2;" d="M662.8,37c-1.1,0-2-0.9-2-2v-5c0-1.1,0.9-2,2-2s2,0.9,2,2v5C664.8,36.1,663.9,37,662.8,37z"/>
	<path style="fill:#00BCF2;" d="M949,29.4c-1.1,0-2-0.9-2-2v-5c0-1.1,0.9-2,2-2s2,0.9,2,2v5C951,28.5,950.1,29.4,949,29.4z"/>
	<path style="fill:#00BCF2;" d="M662.8,23c-1.1,0-2-0.9-2-2v-5c0-1.1,0.9-2,2-2s2,0.9,2,2v5C664.8,22.1,663.9,23,662.8,23z"/>
	<path style="fill:#00BCF2;" d="M949,15.4c-1.1,0-2-0.9-2-2v-5c0-1.1,0.9-2,2-2s2,0.9,2,2v5C951,14.5,950.1,15.4,949,15.4z"/>
	<path style="fill:#686868;" d="M116.6,212.7c1.3,0,2,0.6,2,1.7c0,0.6-0.2,1-0.5,1.4c-0.4,0.3-0.9,0.5-1.6,0.5h-1v-3.6H116.6z
		 M116.7,217.6c1.1,0,2-0.3,2.6-0.9s1-1.4,1-2.3s-0.3-1.7-0.9-2.2s-1.5-0.8-2.6-0.8h-3v9.8h1.6v-3.5L116.7,217.6L116.7,217.6z
		 M108.4,212.7c1.3,0,2,0.6,2,1.7c0,0.6-0.2,1-0.5,1.4c-0.4,0.3-0.9,0.5-1.6,0.5h-1v-3.6H108.4z M108.6,217.6c1.1,0,2-0.3,2.6-0.9
		s1-1.4,1-2.3s-0.3-1.7-0.9-2.2s-1.5-0.8-2.6-0.8h-3v9.8h1.6v-3.5L108.6,217.6L108.6,217.6z M98.2,217.3l1.3-3.9
		c0-0.1,0.1-0.4,0.1-0.6l0,0c0,0.3,0.1,0.5,0.1,0.6l1.4,3.9H98.2z M100.7,211.4h-1.8l-3.7,9.8H97l0.8-2.5h3.8l0.9,2.5h1.8
		L100.7,211.4z"/>
	<path style="fill:#686868;" d="M136.6,227.9c-0.3,0.2-0.5,0.4-0.8,0.5c-0.2,0.1-0.5,0.3-0.7,0.4s-0.5,0.2-0.7,0.3
		c-0.2,0.1-0.5,0.2-0.8,0.3v1.3c0.4-0.1,0.8-0.2,1.1-0.4c0.3-0.1,0.6-0.3,0.9-0.5v8h1.6v-10L136.6,227.9L136.6,227.9z M124.7,229.4
		c0.6,0,1,0.1,1.3,0.4s0.4,0.6,0.4,1.1c0,0.3,0,0.5-0.1,0.7s-0.2,0.4-0.4,0.5c-0.2,0.1-0.3,0.3-0.5,0.3s-0.4,0.1-0.7,0.1h-1.3v-3.2
		L124.7,229.4L124.7,229.4z M127.6,235.1c-0.1-0.2-0.3-0.4-0.4-0.6s-0.2-0.3-0.3-0.4c-0.1-0.1-0.2-0.3-0.4-0.4
		c-0.1-0.1-0.3-0.2-0.5-0.3l0,0c0.3-0.1,0.6-0.2,0.9-0.4c0.3-0.2,0.5-0.4,0.7-0.6s0.3-0.5,0.4-0.8s0.2-0.6,0.2-0.9
		c0-0.4-0.1-0.8-0.2-1.2c-0.2-0.3-0.4-0.6-0.7-0.8c-0.3-0.2-0.6-0.4-1-0.5s-0.8-0.2-1.3-0.2h-3.2v9.8h1.6v-4h0.7
		c0.2,0,0.4,0,0.6,0.1s0.3,0.1,0.5,0.2c0.1,0.1,0.3,0.2,0.4,0.4c0.1,0.2,0.3,0.4,0.4,0.6l1.6,2.6h1.9L127.6,235.1z M120,236.5h-3.9
		v-2.9h3.4v-1.4h-3.4v-2.8h3.6V228h-5.3v9.8h5.5v-1.3L120,236.5L120,236.5z M111.6,228.1l-2.5,7.4c-0.1,0.3-0.2,0.6-0.2,0.8l0,0
		c0-0.3-0.1-0.6-0.2-0.8l-2.4-7.4h-1.8l3.4,9.8h1.8l3.5-9.8H111.6z M99.9,229.4c0.6,0,1,0.1,1.3,0.4s0.4,0.6,0.4,1.1
		c0,0.3,0,0.5-0.1,0.7s-0.2,0.4-0.4,0.5c-0.2,0.1-0.3,0.3-0.5,0.3s-0.4,0.1-0.7,0.1h-1.3v-3.2L99.9,229.4L99.9,229.4z M102.8,235.1
		c-0.1-0.2-0.3-0.4-0.4-0.6s-0.2-0.3-0.3-0.4c-0.1-0.1-0.2-0.3-0.4-0.4c-0.1-0.1-0.3-0.2-0.5-0.3l0,0c0.3-0.1,0.6-0.2,0.9-0.4
		c0.3-0.2,0.5-0.4,0.7-0.6s0.3-0.5,0.4-0.8s0.2-0.6,0.2-0.9c0-0.4-0.1-0.8-0.2-1.2c-0.2-0.3-0.4-0.6-0.7-0.8c-0.3-0.2-0.6-0.4-1-0.5
		s-0.8-0.2-1.3-0.2H97v9.8h1.6v-4h0.7c0.2,0,0.4,0,0.6,0.1s0.3,0.1,0.5,0.2c0.1,0.1,0.3,0.2,0.4,0.4c0.1,0.2,0.3,0.4,0.4,0.6
		l1.6,2.6h1.9L102.8,235.1z M95.2,236.5h-3.9v-2.9h3.4v-1.4h-3.4v-2.8H95V228h-5.3v9.8h5.5V236.5z M82.3,237.7
		c0.2,0.1,0.5,0.1,0.7,0.2c0.3,0,0.5,0.1,0.7,0.1s0.4,0,0.6,0c0.5,0,1,0,1.4-0.1s0.8-0.2,1.2-0.5c0.3-0.2,0.6-0.5,0.8-0.8
		c0.2-0.3,0.3-0.8,0.3-1.3c0-0.4-0.1-0.7-0.2-1s-0.3-0.5-0.5-0.8c-0.2-0.2-0.5-0.5-0.8-0.6c-0.3-0.2-0.6-0.4-1-0.6
		c-0.3-0.1-0.6-0.3-0.9-0.4s-0.5-0.3-0.6-0.4c-0.2-0.1-0.3-0.3-0.4-0.4c-0.1-0.2-0.1-0.3-0.1-0.6c0-0.2,0.1-0.4,0.2-0.6
		s0.3-0.3,0.5-0.4s0.4-0.2,0.6-0.2s0.5-0.1,0.7-0.1c0.9,0,1.6,0.2,2.1,0.6v-1.6c-0.5-0.2-1.2-0.3-2.2-0.3c-0.4,0-0.9,0.1-1.3,0.2
		s-0.8,0.3-1.2,0.5c-0.3,0.2-0.6,0.5-0.8,0.8s-0.3,0.7-0.3,1.2c0,0.4,0.1,0.7,0.2,1s0.3,0.5,0.5,0.7s0.5,0.4,0.7,0.6
		c0.3,0.2,0.6,0.4,0.9,0.5s0.6,0.3,0.9,0.4s0.5,0.3,0.7,0.4s0.4,0.3,0.5,0.5s0.2,0.4,0.2,0.6c0,0.4-0.2,0.8-0.5,1s-0.8,0.3-1.5,0.3
		c-0.2,0-0.4,0-0.6-0.1c-0.2,0-0.5-0.1-0.7-0.2s-0.5-0.2-0.7-0.3c-0.2-0.1-0.4-0.2-0.5-0.4v1.7C81.9,237.5,82,237.6,82.3,237.7z"/>
	<path style="fill:#686868;" d="M205,212.7c1.3,0,2,0.6,2,1.7c0,0.6-0.2,1-0.5,1.4c-0.4,0.3-0.9,0.5-1.6,0.5h-1v-3.6H205z
		 M205.1,217.6c1.1,0,2-0.3,2.6-0.9s1-1.4,1-2.3s-0.3-1.7-0.9-2.2s-1.5-0.8-2.6-0.8h-3v9.8h1.6v-3.5L205.1,217.6L205.1,217.6z
		 M196.9,212.7c1.3,0,2,0.6,2,1.7c0,0.6-0.2,1-0.5,1.4c-0.4,0.3-0.9,0.5-1.6,0.5h-1v-3.6H196.9z M197,217.6c1.1,0,2-0.3,2.6-0.9
		s1-1.4,1-2.3s-0.3-1.7-0.9-2.2s-1.5-0.8-2.6-0.8h-3v9.8h1.6v-3.5L197,217.6L197,217.6z M186.7,217.3l1.3-3.9c0-0.1,0.1-0.4,0.1-0.6
		l0,0c0,0.3,0.1,0.5,0.1,0.6l1.4,3.9H186.7z M189.1,211.4h-1.8l-3.7,9.8h1.8l0.8-2.5h3.8l0.9,2.5h1.8L189.1,211.4z"/>
	<path style="fill:#686868;" d="M227.2,236.5h-4.4l0,0c0-0.2,0.1-0.4,0.2-0.6c0.1-0.2,0.3-0.4,0.5-0.6s0.4-0.4,0.7-0.6
		s0.5-0.4,0.8-0.6c0.3-0.3,0.6-0.5,0.8-0.8s0.5-0.5,0.6-0.8c0.2-0.3,0.3-0.6,0.4-0.9c0.1-0.3,0.1-0.7,0.1-1.1s-0.1-0.8-0.2-1.2
		c-0.1-0.3-0.3-0.6-0.6-0.8c-0.3-0.2-0.6-0.4-0.9-0.5c-0.4-0.1-0.8-0.2-1.2-0.2c-0.3,0-0.5,0-0.8,0.1c-0.2,0-0.5,0.1-0.7,0.2
		s-0.4,0.2-0.6,0.3c-0.2,0.1-0.4,0.2-0.6,0.4v1.5c0.4-0.4,0.8-0.7,1.2-0.8c0.4-0.2,0.8-0.3,1.2-0.3c0.2,0,0.4,0,0.6,0.1
		c0.2,0.1,0.4,0.2,0.5,0.3c0.1,0.1,0.3,0.3,0.3,0.5c0.1,0.2,0.1,0.4,0.1,0.7c0,0.2,0,0.5-0.1,0.7s-0.2,0.4-0.3,0.6s-0.3,0.4-0.4,0.5
		c-0.2,0.2-0.4,0.3-0.6,0.5c-0.2,0.2-0.4,0.4-0.7,0.6c-0.2,0.2-0.5,0.4-0.7,0.6s-0.4,0.4-0.6,0.6c-0.2,0.2-0.4,0.4-0.5,0.7
		c-0.1,0.2-0.3,0.5-0.3,0.8s-0.1,0.6-0.1,0.9v0.8h6.1v-1.6L227.2,236.5L227.2,236.5z M212.1,229.4c0.6,0,1,0.1,1.3,0.4
		s0.4,0.6,0.4,1.1c0,0.3,0,0.5-0.1,0.7s-0.2,0.4-0.4,0.5s-0.3,0.3-0.5,0.3s-0.4,0.1-0.7,0.1h-1.3v-3.2L212.1,229.4L212.1,229.4z
		 M214.9,235.1c-0.1-0.2-0.3-0.4-0.4-0.6c-0.1-0.2-0.2-0.3-0.3-0.4s-0.2-0.3-0.4-0.4c-0.1-0.1-0.3-0.2-0.5-0.3l0,0
		c0.3-0.1,0.6-0.2,0.9-0.4c0.3-0.2,0.5-0.4,0.7-0.6s0.3-0.5,0.4-0.8c0.1-0.3,0.2-0.6,0.2-0.9c0-0.4-0.1-0.8-0.2-1.2
		c-0.2-0.3-0.4-0.6-0.7-0.8c-0.3-0.2-0.6-0.4-1-0.5s-0.8-0.2-1.3-0.2h-3.2v9.8h1.6v-4h0.7c0.2,0,0.4,0,0.6,0.1s0.3,0.1,0.5,0.2
		c0.1,0.1,0.3,0.2,0.4,0.4c0.1,0.2,0.3,0.4,0.4,0.6l1.6,2.6h1.9L214.9,235.1z M207.4,236.5h-3.9v-2.9h3.4v-1.4h-3.4v-2.8h3.6V228
		h-5.3v9.8h5.5L207.4,236.5L207.4,236.5z M198.9,228.1l-2.5,7.4c-0.1,0.3-0.2,0.6-0.2,0.8l0,0c0-0.3-0.1-0.6-0.2-0.8l-2.4-7.4h-1.8
		l3.4,9.8h1.8l3.5-9.8H198.9z M187.3,229.4c0.6,0,1,0.1,1.3,0.4s0.4,0.6,0.4,1.1c0,0.3,0,0.5-0.1,0.7s-0.2,0.4-0.4,0.5
		s-0.3,0.3-0.5,0.3s-0.4,0.1-0.7,0.1H186v-3.2L187.3,229.4L187.3,229.4z M190.1,235.1c-0.1-0.2-0.3-0.4-0.4-0.6
		c-0.1-0.2-0.2-0.3-0.3-0.4s-0.2-0.3-0.4-0.4c-0.1-0.1-0.3-0.2-0.5-0.3l0,0c0.3-0.1,0.6-0.2,0.9-0.4c0.3-0.2,0.5-0.4,0.7-0.6
		s0.3-0.5,0.4-0.8c0.1-0.3,0.2-0.6,0.2-0.9c0-0.4-0.1-0.8-0.2-1.2c-0.2-0.3-0.4-0.6-0.7-0.8c-0.3-0.2-0.6-0.4-1-0.5
		s-0.8-0.2-1.3-0.2h-3.2v9.8h1.6v-4h0.7c0.2,0,0.4,0,0.6,0.1s0.3,0.1,0.5,0.2c0.1,0.1,0.3,0.2,0.4,0.4c0.1,0.2,0.3,0.4,0.4,0.6
		l1.6,2.6h1.9L190.1,235.1z M182.6,236.5h-3.9v-2.9h3.4v-1.4h-3.4v-2.8h3.6V228H177v9.8h5.5L182.6,236.5L182.6,236.5z M169.6,237.7
		c0.2,0.1,0.5,0.1,0.7,0.2c0.3,0,0.5,0.1,0.7,0.1s0.4,0,0.6,0c0.5,0,1,0,1.4-0.1s0.8-0.2,1.2-0.5c0.3-0.2,0.6-0.5,0.8-0.8
		s0.3-0.8,0.3-1.3c0-0.4-0.1-0.7-0.2-1s-0.3-0.5-0.5-0.8c-0.2-0.2-0.5-0.5-0.8-0.6c-0.3-0.2-0.6-0.4-1-0.6c-0.3-0.1-0.6-0.3-0.9-0.4
		c-0.3-0.1-0.5-0.3-0.6-0.4c-0.2-0.1-0.3-0.3-0.4-0.4c-0.1-0.2-0.1-0.3-0.1-0.6c0-0.2,0.1-0.4,0.2-0.6s0.3-0.3,0.5-0.4
		s0.4-0.2,0.6-0.2c0.2,0,0.5-0.1,0.7-0.1c0.9,0,1.6,0.2,2.1,0.6v-1.6c-0.5-0.2-1.2-0.3-2.2-0.3c-0.4,0-0.9,0.1-1.3,0.2
		s-0.8,0.3-1.2,0.5c-0.3,0.2-0.6,0.5-0.8,0.8s-0.3,0.7-0.3,1.2c0,0.4,0.1,0.7,0.2,1s0.3,0.5,0.5,0.7s0.5,0.4,0.7,0.6
		c0.3,0.2,0.6,0.4,0.9,0.5c0.3,0.1,0.6,0.3,0.9,0.4c0.3,0.1,0.5,0.3,0.7,0.4s0.4,0.3,0.5,0.5s0.2,0.4,0.2,0.6c0,0.4-0.2,0.8-0.5,1
		s-0.8,0.3-1.5,0.3c-0.2,0-0.4,0-0.6-0.1c-0.2,0-0.5-0.1-0.7-0.2s-0.5-0.2-0.7-0.3c-0.2-0.1-0.4-0.2-0.5-0.4v1.7
		C169.2,237.5,169.4,237.6,169.6,237.7z"/>
	<path style="fill:#686868;" d="M104.8,167.2V196H148v-28.8H104.8z M116.8,193.6h-9.6v-18h9.6V193.6z M145.7,193.6h-26.4v-18h26.4
		V193.6z"/>
	<rect x="126.4" y="178" style="fill:#686868;" width="13.2" height="2.4"/>
	<rect x="126.4" y="181.6" style="fill:#686868;" width="13.2" height="2.4"/>
	<rect x="126.4" y="185.2" style="fill:#686868;" width="13.2" height="2.4"/>
	<rect x="126.4" y="188.8" style="fill:#686868;" width="13.2" height="2.4"/>
	<rect x="107.2" y="169.6" style="fill:#686868;" width="38.4" height="3.6"/>
	<path style="fill:#686868;" d="M115.5,118.2H84.7c-2.1,0-3.8,1.7-3.8,3.8v75H102v-7.7H86.6v-3.8H102v-3.8H86.6v-3.8H102v-11.5
		l-0.1-1.9h13.5c1.1,0,1.9,0,3.8,0v-42.4C119.3,119.8,117.6,118.2,115.5,118.2z M113.6,133.5h-27v-3.8h26.9L113.6,133.5L113.6,133.5
		z"/>
	<path style="fill:#686868;" d="M192.6,167.2V196h43.2v-28.8H192.6z M204.6,193.6H195v-18h9.6V193.6z M233.4,193.6H207v-18h26.4
		V193.6z"/>
	<rect x="214.2" y="178" style="fill:#686868;" width="13.2" height="2.4"/>
	<rect x="214.2" y="181.6" style="fill:#686868;" width="13.2" height="2.4"/>
	<rect x="214.2" y="185.2" style="fill:#686868;" width="13.2" height="2.4"/>
	<rect x="214.2" y="188.8" style="fill:#686868;" width="13.2" height="2.4"/>
	<rect x="195" y="169.6" style="fill:#686868;" width="38.4" height="3.6"/>
	<path style="fill:#686868;" d="M203.3,118.2h-30.8c-2.1,0-3.8,1.7-3.8,3.8v75h21.1v-7.7h-15.4v-3.8h15.4v-3.8h-15.4v-3.8h15.4
		v-11.5l-0.1-1.9h13.5c1.1,0,1.9,0,3.8,0v-42.4C207.1,119.8,205.4,118.2,203.3,118.2z M201.3,133.5h-26.9v-3.8h26.9V133.5z"/>
	<path style="fill:#686868;" d="M847,176.2c0.6,0,1,0.1,1.3,0.4s0.4,0.6,0.4,1.1c0,0.3,0,0.5-0.1,0.7s-0.2,0.4-0.4,0.5
		s-0.3,0.3-0.6,0.3s-0.4,0.1-0.7,0.1h-1.4v-3.2L847,176.2L847,176.2z M849.9,181.9c-0.1-0.2-0.3-0.4-0.4-0.6
		c-0.1-0.2-0.2-0.3-0.4-0.4s-0.2-0.3-0.4-0.4c-0.1-0.1-0.3-0.2-0.5-0.3l0,0c0.3-0.1,0.6-0.2,0.9-0.4s0.5-0.4,0.7-0.6
		s0.3-0.5,0.4-0.8c0.1-0.3,0.2-0.6,0.2-1s-0.1-0.8-0.2-1.2c-0.2-0.3-0.4-0.6-0.7-0.8c-0.3-0.2-0.6-0.4-1-0.5s-0.8-0.2-1.3-0.2H844
		v9.8h1.6v-4h0.7c0.2,0,0.4,0,0.6,0.1s0.3,0.1,0.5,0.2s0.3,0.3,0.4,0.4c0.1,0.2,0.3,0.4,0.4,0.6l1.6,2.6h1.9L849.9,181.9z
		 M842.3,183.3h-3.9v-2.9h3.4V179h-3.4v-2.8h3.7v-1.4h-5.3v9.8h5.5V183.3z M833.8,174.9l-2.5,7.4c-0.1,0.3-0.2,0.6-0.2,0.8l0,0
		c0-0.3-0.1-0.6-0.2-0.8l-2.4-7.4h-1.8l3.5,9.8h1.8l3.5-9.8H833.8z M823.5,177.1c0.5,0.6,0.8,1.5,0.8,2.7c0,1.1-0.3,2-0.8,2.7
		s-1.3,1-2.2,1s-1.6-0.3-2.1-1s-0.8-1.5-0.8-2.6s0.3-2,0.8-2.6s1.3-1,2.2-1C822.3,176.2,823,176.5,823.5,177.1z M824.7,183.5
		c0.9-0.9,1.3-2.2,1.3-3.8c0-1.5-0.4-2.7-1.3-3.6s-1.9-1.4-3.3-1.4c-1.5,0-2.7,0.5-3.5,1.4s-1.3,2.2-1.3,3.8c0,1.5,0.4,2.7,1.3,3.6
		s2,1.4,3.4,1.4C822.7,184.9,823.8,184.4,824.7,183.5z M816.2,183.3h-3.8v-8.4h-1.6v9.8h5.4L816.2,183.3L816.2,183.3z M808.4,174.9
		h-1.7v9.8h1.7V174.9z M799.3,180.9l1.3-3.9c0.1-0.2,0.1-0.4,0.1-0.6l0,0c0,0.3,0.1,0.5,0.1,0.6l1.4,3.9H799.3z M801.7,174.9h-1.8
		l-3.7,9.8h1.8l0.8-2.5h3.9l0.9,2.5h1.8L801.7,174.9z M796.4,174.9h-5.3v9.8h1.6v-4.1h3.4v-1.4h-3.4v-2.9h3.7V174.9z M781.9,176.2
		c1.3,0,2,0.6,2,1.7c0,0.6-0.2,1-0.5,1.4s-0.9,0.5-1.6,0.5h-1.1v-3.6H781.9z M782,181.1c1.1,0,2-0.3,2.6-0.9s1-1.4,1-2.3
		s-0.3-1.7-0.9-2.2s-1.5-0.8-2.6-0.8h-3v9.8h1.6v-3.6H782z M773.7,176.2c1.3,0,2,0.6,2,1.7c0,0.6-0.2,1-0.5,1.4s-0.9,0.5-1.6,0.5
		h-1.1v-3.6H773.7z M773.8,181.1c1.1,0,2-0.3,2.6-0.9s1-1.4,1-2.3s-0.3-1.7-0.9-2.2s-1.5-0.8-2.6-0.8h-3v9.8h1.6v-3.6H773.8z
		 M763.5,180.9l1.3-3.9c0.1-0.2,0.1-0.4,0.1-0.6l0,0c0,0.3,0.1,0.5,0.1,0.6l1.4,3.9H763.5z M765.9,174.9h-1.8l-3.7,9.8h1.8l0.8-2.5
		h3.9l0.9,2.5h1.8L765.9,174.9z"/>
	<rect x="714.6" y="109.3" style="fill:#686868;" width="181.5" height="34.3"/>
	<path style="fill:#686868;" d="M768.4,70.4c0-14.9-12.1-26.9-26.9-26.9s-26.9,12.1-26.9,26.9v0.1l0,0v28.8h53.8L768.4,70.4
		L768.4,70.4L768.4,70.4z"/>
	<path style="fill:#686868;" d="M832.2,70.4c0-14.9-12.1-26.9-26.9-26.9s-26.9,12.1-26.9,26.9v0.1l0,0v28.8h53.8L832.2,70.4
		L832.2,70.4L832.2,70.4z"/>
	<path style="fill:#686868;" d="M896.1,70.4c0-14.9-12.1-26.9-26.9-26.9s-26.9,12.1-26.9,26.9v0.1l0,0v28.8h53.8L896.1,70.4
		L896.1,70.4L896.1,70.4z"/>
	<path style="fill:#FFFFFF;" d="M756.7,71.4c-0.3,0.2-0.5,0.4-0.8,0.5c-0.2,0.1-0.5,0.3-0.7,0.4c-0.2,0.1-0.5,0.2-0.7,0.3
		s-0.5,0.2-0.8,0.3v1.3c0.4-0.1,0.8-0.2,1.1-0.4c0.3-0.1,0.6-0.3,0.9-0.5v8h1.6v-10h-0.6V71.4z M745.2,72.9c1.3,0,2,0.6,2,1.7
		c0,0.6-0.2,1-0.5,1.4c-0.4,0.3-0.9,0.5-1.6,0.5h-1v-3.6L745.2,72.9L745.2,72.9z M745.3,77.8c1.1,0,2-0.3,2.6-0.9
		c0.6-0.6,1-1.4,1-2.3s-0.3-1.7-0.9-2.2s-1.5-0.8-2.6-0.8h-3v9.8h1.6v-3.5L745.3,77.8L745.3,77.8z M737,72.9c1.3,0,2,0.6,2,1.7
		c0,0.6-0.2,1-0.5,1.4c-0.4,0.3-0.9,0.5-1.6,0.5h-1v-3.6L737,72.9L737,72.9z M737.2,77.8c1.1,0,2-0.3,2.6-0.9c0.6-0.6,1-1.4,1-2.3
		s-0.3-1.7-0.9-2.2s-1.5-0.8-2.6-0.8h-3v9.8h1.6v-3.5L737.2,77.8L737.2,77.8z M726.9,77.5l1.3-3.9c0-0.1,0.1-0.4,0.1-0.6l0,0
		c0,0.3,0.1,0.5,0.1,0.6l1.4,3.9H726.9z M729.3,71.6h-1.8l-3.7,9.8h1.8l0.8-2.5h3.8l0.9,2.5h1.8L729.3,71.6z"/>
	<path style="fill:#FFFFFF;" d="M852.8,131c0.2-0.2,0.3-0.4,0.3-0.6c0-0.3-0.1-0.5-0.3-0.7s-0.4-0.3-0.7-0.3s-0.5,0.1-0.7,0.3
		s-0.3,0.4-0.3,0.7c0,0.2,0.1,0.5,0.3,0.6s0.4,0.3,0.7,0.3C852.4,131.2,852.6,131.2,852.8,131z M849.4,131c0.2-0.2,0.3-0.4,0.3-0.6
		c0-0.3-0.1-0.5-0.3-0.7s-0.4-0.3-0.7-0.3s-0.5,0.1-0.7,0.3s-0.3,0.4-0.3,0.7c0,0.2,0.1,0.5,0.3,0.6s0.4,0.3,0.7,0.3
		C849,131.2,849.2,131.2,849.4,131z M846.1,131c0.2-0.2,0.3-0.4,0.3-0.6c0-0.3-0.1-0.5-0.3-0.7s-0.4-0.3-0.7-0.3s-0.5,0.1-0.7,0.3
		s-0.3,0.4-0.3,0.7c0,0.2,0.1,0.5,0.3,0.6s0.4,0.3,0.7,0.3C845.6,131.2,845.9,131.2,846.1,131z M840.2,131.3c0.4,0,0.8,0,1.1-0.1
		c0.4-0.1,0.7-0.2,0.9-0.4c0.3-0.2,0.5-0.4,0.7-0.7s0.2-0.6,0.2-0.9c0-0.3,0-0.5-0.1-0.8s-0.2-0.4-0.4-0.6c-0.2-0.2-0.4-0.3-0.6-0.4
		c-0.2-0.1-0.5-0.3-0.8-0.4c-0.2-0.1-0.4-0.1-0.6-0.2c-0.2-0.1-0.3-0.1-0.4-0.2c-0.1-0.1-0.2-0.2-0.3-0.3s-0.1-0.2-0.1-0.4
		c0-0.1,0-0.2,0.1-0.3s0.2-0.2,0.3-0.3s0.3-0.1,0.4-0.2c0.2,0,0.3-0.1,0.5-0.1c0.6,0,1.2,0.2,1.7,0.5v-1.4c-0.5-0.2-1.1-0.3-1.7-0.3
		c-0.4,0-0.7,0-1.1,0.1c-0.3,0.1-0.6,0.2-0.9,0.4c-0.3,0.2-0.5,0.4-0.6,0.6c-0.2,0.3-0.2,0.6-0.2,0.9c0,0.3,0,0.5,0.1,0.7
		s0.2,0.4,0.3,0.5c0.2,0.2,0.3,0.3,0.6,0.4c0.2,0.1,0.5,0.2,0.8,0.4c0.2,0.1,0.4,0.2,0.6,0.2c0.2,0.1,0.4,0.1,0.5,0.2
		c0.1,0.1,0.2,0.2,0.3,0.3s0.1,0.2,0.1,0.4c0,0.6-0.5,0.8-1.4,0.8c-0.7,0-1.4-0.2-2-0.7v1.5C838.8,131.1,839.5,131.3,840.2,131.3z
		 M834.2,131.3c0.4,0,0.8,0,1.1-0.1c0.4-0.1,0.7-0.2,0.9-0.4c0.3-0.2,0.5-0.4,0.7-0.7s0.2-0.6,0.2-0.9c0-0.3,0-0.5-0.1-0.8
		s-0.2-0.4-0.4-0.6c-0.2-0.2-0.4-0.3-0.6-0.4c-0.2-0.1-0.5-0.3-0.8-0.4c-0.2-0.1-0.4-0.1-0.6-0.2c-0.2-0.1-0.3-0.1-0.4-0.2
		c-0.1-0.1-0.2-0.2-0.3-0.3s-0.1-0.2-0.1-0.4c0-0.1,0-0.2,0.1-0.3s0.2-0.2,0.3-0.3s0.3-0.1,0.4-0.2c0.2,0,0.3-0.1,0.5-0.1
		c0.6,0,1.2,0.2,1.7,0.5v-1.4c-0.5-0.2-1.1-0.3-1.7-0.3c-0.4,0-0.7,0-1.1,0.1c-0.3,0.1-0.6,0.2-0.9,0.4c-0.3,0.2-0.5,0.4-0.6,0.6
		c-0.2,0.3-0.2,0.6-0.2,0.9c0,0.3,0,0.5,0.1,0.7s0.2,0.4,0.3,0.5c0.2,0.2,0.3,0.3,0.6,0.4c0.2,0.1,0.5,0.2,0.8,0.4
		c0.2,0.1,0.4,0.2,0.6,0.2c0.2,0.1,0.4,0.1,0.5,0.2c0.1,0.1,0.2,0.2,0.3,0.3s0.1,0.2,0.1,0.4c0,0.6-0.5,0.8-1.4,0.8
		c-0.7,0-1.4-0.2-2-0.7v1.5C832.8,131.1,833.5,131.3,834.2,131.3z M829,125.8c0.3,0.4,0.5,1,0.5,1.8c0,0.8-0.2,1.3-0.5,1.8
		c-0.3,0.4-0.8,0.6-1.4,0.6c-0.6,0-1.1-0.2-1.5-0.6c-0.4-0.4-0.5-1-0.5-1.7c0-0.8,0.2-1.4,0.5-1.8c0.4-0.4,0.8-0.6,1.5-0.6
		C828.2,125.2,828.6,125.4,829,125.8z M830.1,130.3c0.7-0.7,1-1.6,1-2.7c0-1.1-0.3-2-0.9-2.7c-0.6-0.6-1.5-1-2.5-1
		c-1.1,0-2,0.3-2.7,1s-1,1.6-1,2.7c0,1.1,0.3,1.9,1,2.6s1.5,1,2.6,1C828.6,131.3,829.5,130.9,830.1,130.3z M818.9,126.7
		c1.4,0,2.1,0.5,2.1,1.5c0,0.5-0.2,0.9-0.5,1.2s-0.8,0.4-1.4,0.4h-1.4v-3.1L818.9,126.7L818.9,126.7z M818.9,122.6
		c1.1,0,1.7,0.4,1.7,1.3c0,0.5-0.2,0.9-0.5,1.1c-0.3,0.3-0.8,0.4-1.3,0.4h-1v-2.8H818.9z M819.3,131.1c1,0,1.8-0.3,2.5-0.8
		s1-1.2,1-2c0-0.7-0.2-1.2-0.6-1.6c-0.4-0.4-0.9-0.7-1.6-0.7l0,0c0.6-0.2,1-0.5,1.3-0.9s0.5-0.9,0.5-1.4c0-0.7-0.3-1.2-0.8-1.6
		c-0.6-0.4-1.3-0.6-2.2-0.6h-3.1v9.8h3L819.3,131.1L819.3,131.1z M813.8,121.3h-1.6v6c0,1.7-0.5,2.5-1.6,2.5c-0.4,0-0.7-0.1-1-0.3
		v1.5c0.3,0.1,0.7,0.2,1.1,0.2c1,0,1.7-0.3,2.3-1s0.9-1.5,0.9-2.7v-6.2H813.8z M803.2,129.5l-0.7,3.4h1.2l1.1-3.4H803.2z
		 M801.9,129.8c-0.2,0.2-0.4,0.2-0.7,0.2s-0.6-0.1-0.7-0.3c-0.2-0.2-0.2-0.5-0.2-0.9v-3.5h1.7v-1.2h-1.7V122l-1.6,0.4v1.6h-1.2v1.2
		h1.2v3.9c0,1.3,0.7,1.9,2,1.9c0.5,0,0.9-0.1,1.2-0.2V129.8z M794.8,128.3c0,0.5-0.2,0.9-0.5,1.3c-0.3,0.3-0.7,0.5-1.2,0.5
		c-0.4,0-0.6-0.1-0.8-0.3s-0.3-0.4-0.3-0.7c0-0.4,0.1-0.7,0.3-0.8c0.2-0.2,0.6-0.3,1-0.3l1.5-0.2V128.3z M796.3,126.6
		c0-1.7-0.9-2.6-2.6-2.6c-1,0-1.8,0.2-2.5,0.7v1.4c0.7-0.6,1.4-0.9,2.2-0.9c0.9,0,1.4,0.5,1.4,1.5l-2.1,0.3c-1.5,0.2-2.3,1-2.3,2.3
		c0,0.6,0.2,1.1,0.6,1.5s0.9,0.6,1.6,0.6c0.9,0,1.6-0.4,2.1-1.3l0,0v1.1h1.5L796.3,126.6L796.3,126.6z M789.4,129.4
		c-0.5,0.4-1,0.6-1.6,0.6c-0.7,0-1.2-0.2-1.6-0.6s-0.6-1-0.6-1.7c0-0.7,0.2-1.3,0.6-1.8s1-0.7,1.6-0.7c0.5,0,1.1,0.2,1.6,0.5v-1.5
		c-0.5-0.2-1-0.3-1.7-0.3c-1.1,0-2.1,0.3-2.7,1s-1,1.6-1,2.8c0,1,0.3,1.9,1,2.5c0.6,0.6,1.5,1,2.5,1c0.8,0,1.4-0.2,2-0.5
		L789.4,129.4L789.4,129.4z M782.5,126.8c0-1.9-0.8-2.8-2.3-2.8c-1,0-1.8,0.5-2.3,1.4c-0.1-0.4-0.4-0.8-0.7-1
		c-0.4-0.3-0.8-0.4-1.3-0.4c-1,0-1.7,0.4-2.2,1.3l0,0v-1.1h-1.6v7h1.6v-3.8c0-0.6,0.1-1.1,0.4-1.5c0.3-0.4,0.6-0.6,1.1-0.6
		c0.9,0,1.4,0.6,1.4,1.9v3.9h1.6v-3.8c0-0.6,0.1-1.1,0.4-1.5c0.3-0.4,0.6-0.6,1.1-0.6s0.8,0.2,1,0.5s0.3,0.9,0.3,1.6v3.8h1.6
		L782.5,126.8L782.5,126.8z M768.3,125.8c0.3,0.4,0.5,1,0.5,1.8c0,0.8-0.2,1.3-0.5,1.8c-0.3,0.4-0.8,0.6-1.4,0.6
		c-0.6,0-1.1-0.2-1.5-0.6c-0.4-0.4-0.5-1-0.5-1.7c0-0.8,0.2-1.4,0.5-1.8c0.4-0.4,0.8-0.6,1.5-0.6C767.5,125.2,768,125.4,768.3,125.8
		z M769.5,130.3c0.7-0.7,1-1.6,1-2.7c0-1.1-0.3-2-0.9-2.7c-0.6-0.6-1.5-1-2.5-1c-1.1,0-2,0.3-2.7,1s-1,1.6-1,2.7
		c0,1.1,0.3,1.9,1,2.6s1.5,1,2.6,1C767.9,131.3,768.8,130.9,769.5,130.3z M763.9,121.3h-7.2v1.4h2.8v8.4h1.6v-8.4h2.8L763.9,121.3
		L763.9,121.3z"/>
	<path style="fill:#FFFFFF;" d="M822.7,80h-4.4l0,0c0-0.2,0.1-0.4,0.2-0.6c0.1-0.2,0.3-0.4,0.5-0.6c0.2-0.2,0.4-0.4,0.7-0.6
		c0.3-0.2,0.5-0.4,0.8-0.6c0.3-0.3,0.6-0.5,0.8-0.8s0.5-0.5,0.6-0.8c0.2-0.3,0.3-0.6,0.4-0.9c0.1-0.3,0.1-0.7,0.1-1.1
		c0-0.4-0.1-0.8-0.2-1.2c-0.1-0.3-0.3-0.6-0.6-0.8s-0.6-0.4-0.9-0.5c-0.4-0.1-0.8-0.2-1.2-0.2c-0.3,0-0.5,0-0.8,0.1
		c-0.2,0-0.5,0.1-0.7,0.2s-0.4,0.2-0.6,0.3c-0.2,0.1-0.4,0.2-0.6,0.4v1.5c0.4-0.4,0.8-0.7,1.2-0.8c0.4-0.2,0.8-0.3,1.2-0.3
		c0.2,0,0.4,0,0.6,0.1c0.2,0.1,0.4,0.2,0.5,0.3s0.3,0.3,0.3,0.5c0.1,0.2,0.1,0.4,0.1,0.7c0,0.2,0,0.5-0.1,0.7s-0.2,0.4-0.3,0.6
		c-0.1,0.2-0.3,0.4-0.4,0.5c-0.2,0.2-0.4,0.3-0.6,0.5c-0.2,0.2-0.4,0.4-0.7,0.6c-0.2,0.2-0.5,0.4-0.7,0.6c-0.2,0.2-0.4,0.4-0.6,0.6
		c-0.2,0.2-0.4,0.4-0.5,0.7c-0.1,0.2-0.3,0.5-0.3,0.8s-0.1,0.6-0.1,0.9v0.8h6.1V80L822.7,80L822.7,80z M808,72.9c1.3,0,2,0.6,2,1.7
		c0,0.6-0.2,1-0.5,1.4c-0.4,0.3-0.9,0.5-1.6,0.5h-1v-3.6L808,72.9L808,72.9z M808.1,77.8c1.1,0,2-0.3,2.6-0.9c0.6-0.6,1-1.4,1-2.3
		s-0.3-1.7-0.9-2.2s-1.5-0.8-2.6-0.8h-3v9.8h1.6v-3.5L808.1,77.8L808.1,77.8z M799.8,72.9c1.3,0,2,0.6,2,1.7c0,0.6-0.2,1-0.5,1.4
		c-0.4,0.3-0.9,0.5-1.6,0.5h-1v-3.6L799.8,72.9L799.8,72.9z M799.9,77.8c1.1,0,2-0.3,2.6-0.9c0.6-0.6,1-1.4,1-2.3s-0.3-1.7-0.9-2.2
		s-1.5-0.8-2.6-0.8h-3v9.8h1.6v-3.5L799.9,77.8L799.9,77.8z M789.6,77.5l1.3-3.9c0-0.1,0.1-0.4,0.1-0.6l0,0c0,0.3,0.1,0.5,0.1,0.6
		l1.4,3.9H789.6z M792.1,71.6h-1.8l-3.7,9.8h1.8l0.8-2.5h3.8l0.9,2.5h1.8L792.1,71.6z"/>
	<path style="fill:#FFFFFF;" d="M882.9,81.5c1.1,0,1.9-0.3,2.6-0.8c0.7-0.5,1-1.2,1-2.1c0-0.6-0.2-1.2-0.6-1.6
		c-0.4-0.4-1-0.7-1.7-0.7l0,0c1.3-0.4,2-1.2,2-2.5c0-0.7-0.3-1.2-0.8-1.7c-0.5-0.4-1.2-0.7-2.1-0.7c-0.9,0-1.7,0.2-2.3,0.6v1.4
		c0.6-0.5,1.2-0.7,1.8-0.7c1.2,0,1.8,0.5,1.8,1.4c0,1-0.8,1.6-2.3,1.6h-0.7V77h0.8c1.7,0,2.5,0.6,2.5,1.7c0,0.5-0.2,0.9-0.6,1.2
		s-0.9,0.4-1.6,0.4c-0.8,0-1.5-0.3-2.1-0.8V81C881.2,81.3,882,81.5,882.9,81.5z M871.8,72.9c1.3,0,2,0.6,2,1.7c0,0.6-0.2,1-0.5,1.4
		c-0.4,0.3-0.9,0.5-1.6,0.5h-1v-3.6L871.8,72.9L871.8,72.9z M871.9,77.8c1.1,0,2-0.3,2.6-0.9c0.6-0.6,1-1.4,1-2.3s-0.3-1.7-0.9-2.2
		s-1.5-0.8-2.6-0.8h-3v9.8h1.6v-3.5L871.9,77.8L871.9,77.8z M863.7,72.9c1.3,0,2,0.6,2,1.7c0,0.6-0.2,1-0.5,1.4
		c-0.4,0.3-0.9,0.5-1.6,0.5h-1v-3.6L863.7,72.9L863.7,72.9z M863.8,77.8c1.1,0,2-0.3,2.6-0.9c0.6-0.6,1-1.4,1-2.3s-0.3-1.7-0.9-2.2
		s-1.5-0.8-2.6-0.8h-3v9.8h1.6v-3.5L863.8,77.8L863.8,77.8z M853.5,77.5l1.3-3.9c0-0.1,0.1-0.4,0.1-0.6l0,0c0,0.3,0.1,0.5,0.1,0.6
		l1.4,3.9H853.5z M855.9,71.6h-1.8l-3.7,9.8h1.8l0.8-2.5h3.8l0.9,2.5h1.8L855.9,71.6z"/>
	<path style="fill:#686868;" d="M914.3,134.7c-0.2-0.3-0.4-0.5-0.5-0.8s-0.3-0.5-0.4-0.7s-0.2-0.5-0.3-0.7s-0.2-0.5-0.3-0.8h-1.4
		c0.1,0.4,0.2,0.8,0.4,1.1c0.1,0.3,0.3,0.6,0.5,0.9h-8.1v1.6h10L914.3,134.7L914.3,134.7z M914.1,125.5l-7.4-2.5
		c-0.3-0.1-0.6-0.2-0.8-0.2l0,0c0.3,0,0.6-0.1,0.8-0.2l7.4-2.4v-1.8l-9.8,3.5v1.8l9.8,3.5V125.5z M912.8,113.8c0,0.6-0.1,1-0.4,1.3
		s-0.6,0.4-1.1,0.4c-0.3,0-0.5,0-0.7-0.1s-0.4-0.2-0.5-0.4s-0.3-0.3-0.3-0.6s-0.1-0.4-0.1-0.7v-1.4h3.2v1.5H912.8z M907,116.6
		c0.2-0.1,0.4-0.3,0.6-0.4c0.2-0.1,0.3-0.2,0.4-0.4s0.3-0.2,0.4-0.4c0.1-0.1,0.2-0.3,0.3-0.5l0,0c0.1,0.3,0.2,0.6,0.4,0.9
		s0.4,0.5,0.6,0.7c0.2,0.2,0.5,0.3,0.8,0.4c0.3,0.1,0.6,0.2,1,0.2s0.8-0.1,1.2-0.2c0.3-0.2,0.6-0.4,0.8-0.7s0.4-0.6,0.5-1
		s0.2-0.8,0.2-1.3v-3.2h-9.8v1.6h4v0.7c0,0.2,0,0.4-0.1,0.6s-0.1,0.3-0.2,0.5s-0.3,0.3-0.4,0.4c-0.2,0.1-0.4,0.3-0.6,0.4l-2.6,1.6
		v1.9L907,116.6z M904.4,103.3c-0.1,0.2-0.1,0.5-0.2,0.7c0,0.3-0.1,0.5-0.1,0.7s0,0.4,0,0.6c0,0.5,0,1,0.1,1.4s0.3,0.8,0.5,1.2
		s0.5,0.6,0.8,0.8s0.8,0.3,1.3,0.3c0.4,0,0.7-0.1,1-0.2c0.3-0.1,0.6-0.3,0.8-0.5s0.5-0.5,0.6-0.8s0.4-0.6,0.6-1
		c0.1-0.3,0.3-0.6,0.4-0.9c0.1-0.3,0.3-0.5,0.4-0.6s0.3-0.3,0.4-0.4s0.3-0.1,0.6-0.1c0.2,0,0.4,0.1,0.6,0.2s0.3,0.3,0.4,0.5
		s0.2,0.4,0.2,0.6s0.1,0.5,0.1,0.7c0,0.9-0.2,1.6-0.6,2.1h1.6c0.2-0.5,0.3-1.2,0.3-2.2c0-0.5-0.1-0.9-0.2-1.3
		c-0.1-0.4-0.3-0.8-0.5-1.2c-0.2-0.3-0.5-0.6-0.8-0.8s-0.7-0.3-1.2-0.3c-0.4,0-0.7,0.1-1,0.2s-0.5,0.3-0.7,0.5s-0.4,0.5-0.6,0.7
		s-0.4,0.6-0.5,0.9c-0.1,0.3-0.3,0.6-0.4,0.9c-0.1,0.3-0.3,0.5-0.4,0.7s-0.3,0.4-0.5,0.5s-0.4,0.2-0.6,0.2c-0.4,0-0.8-0.2-1-0.5
		s-0.3-0.8-0.3-1.5c0-0.2,0-0.4,0.1-0.6s0.1-0.5,0.2-0.7c0.1-0.2,0.2-0.5,0.3-0.7s0.2-0.4,0.4-0.5h-1.7
		C904.6,102.9,904.5,103,904.4,103.3z M912.7,93.9c0,1.3-0.6,2-1.7,2c-0.6,0-1-0.2-1.4-0.5s-0.5-0.9-0.5-1.6v-1.1h3.6L912.7,93.9
		L912.7,93.9z M907.8,94.1c0,1.1,0.3,2,0.9,2.6s1.4,1,2.3,1s1.7-0.3,2.2-0.9s0.8-1.5,0.8-2.6v-3h-9.8v1.6h3.6V94.1z M912.7,85.8
		c0,1.3-0.6,2-1.7,2c-0.6,0-1-0.2-1.4-0.5s-0.5-0.9-0.5-1.6v-1.1h3.6L912.7,85.8L912.7,85.8z M907.8,85.9c0,1.1,0.3,2,0.9,2.6
		s1.4,1,2.3,1s1.7-0.3,2.2-0.9s0.8-1.5,0.8-2.6v-3h-9.8v1.6h3.6V85.9z M908.1,75.5l3.9,1.3c0.2,0.1,0.4,0.1,0.6,0.1l0,0
		c-0.3,0-0.5,0.1-0.6,0.1l-3.9,1.4V75.5z M914.1,78v-1.8l-9.8-3.7v1.8l2.5,0.8V79l-2.5,0.9v1.8L914.1,78z"/>
	<rect x="714.6" y="279.1" style="fill:#686868;" width="181.5" height="34.3"/>
	<path style="fill:#686868;" d="M768.4,240.2c0-14.9-12.1-26.9-26.9-26.9s-26.9,12.1-26.9,26.9v0.1l0,0v28.8h53.8L768.4,240.2
		L768.4,240.2L768.4,240.2z"/>
	<path style="fill:#686868;" d="M832.2,240.2c0-14.9-12.1-26.9-26.9-26.9s-26.9,12.1-26.9,26.9v0.1l0,0v28.8h53.8L832.2,240.2
		L832.2,240.2L832.2,240.2z"/>
	<path style="fill:#686868;" d="M896.1,240.2c0-14.9-12.1-26.9-26.9-26.9s-26.9,12.1-26.9,26.9v0.1l0,0v28.8h53.8L896.1,240.2
		L896.1,240.2L896.1,240.2z"/>
	<path style="fill:#FFFFFF;" d="M756.7,241.2c-0.3,0.2-0.5,0.4-0.8,0.5c-0.2,0.1-0.5,0.3-0.7,0.4s-0.5,0.2-0.7,0.3
		c-0.2,0.1-0.5,0.2-0.8,0.3v1.3c0.4-0.1,0.8-0.2,1.1-0.4c0.3-0.1,0.6-0.3,0.9-0.5v8h1.6v-10L756.7,241.2L756.7,241.2z M745.2,242.7
		c1.3,0,2,0.6,2,1.7c0,0.6-0.2,1-0.5,1.4c-0.4,0.3-0.9,0.5-1.6,0.5h-1v-3.6H745.2z M745.3,247.6c1.1,0,2-0.3,2.6-0.9s1-1.4,1-2.3
		s-0.3-1.7-0.9-2.2s-1.5-0.8-2.6-0.8h-3v9.8h1.6v-3.5L745.3,247.6L745.3,247.6z M737,242.7c1.3,0,2,0.6,2,1.7c0,0.6-0.2,1-0.5,1.4
		c-0.4,0.3-0.9,0.5-1.6,0.5h-1v-3.6H737z M737.2,247.6c1.1,0,2-0.3,2.6-0.9s1-1.4,1-2.3s-0.3-1.7-0.9-2.2s-1.5-0.8-2.6-0.8h-3v9.8
		h1.6v-3.5L737.2,247.6L737.2,247.6z M726.9,247.3l1.3-3.9c0-0.1,0.1-0.4,0.1-0.6l0,0c0,0.3,0.1,0.5,0.1,0.6l1.4,3.9H726.9z
		 M729.3,241.4h-1.8l-3.7,9.8h1.8l0.8-2.5h3.8l0.9,2.5h1.8L729.3,241.4z"/>
	<path style="fill:#FFFFFF;" d="M852.8,300.8c0.2-0.2,0.3-0.4,0.3-0.6c0-0.3-0.1-0.5-0.3-0.7s-0.4-0.3-0.7-0.3s-0.5,0.1-0.7,0.3
		c-0.2,0.2-0.3,0.4-0.3,0.7c0,0.2,0.1,0.5,0.3,0.6s0.4,0.3,0.7,0.3C852.4,301,852.6,300.9,852.8,300.8z M849.4,300.8
		c0.2-0.2,0.3-0.4,0.3-0.6c0-0.3-0.1-0.5-0.3-0.7s-0.4-0.3-0.7-0.3s-0.5,0.1-0.7,0.3c-0.2,0.2-0.3,0.4-0.3,0.7
		c0,0.2,0.1,0.5,0.3,0.6s0.4,0.3,0.7,0.3C849,301,849.2,300.9,849.4,300.8z M846.1,300.8c0.2-0.2,0.3-0.4,0.3-0.6
		c0-0.3-0.1-0.5-0.3-0.7s-0.4-0.3-0.7-0.3s-0.5,0.1-0.7,0.3c-0.2,0.2-0.3,0.4-0.3,0.7c0,0.2,0.1,0.5,0.3,0.6s0.4,0.3,0.7,0.3
		C845.6,301,845.9,300.9,846.1,300.8z M840.2,301c0.4,0,0.8,0,1.1-0.1c0.4-0.1,0.7-0.2,0.9-0.4c0.3-0.2,0.5-0.4,0.7-0.7
		c0.2-0.3,0.2-0.6,0.2-0.9s0-0.5-0.1-0.8s-0.2-0.4-0.4-0.6s-0.4-0.3-0.6-0.4c-0.2-0.1-0.5-0.3-0.8-0.4c-0.2-0.1-0.4-0.1-0.6-0.2
		c-0.2-0.1-0.3-0.1-0.4-0.2c-0.1-0.1-0.2-0.2-0.3-0.3s-0.1-0.2-0.1-0.4c0-0.1,0-0.2,0.1-0.3c0.1-0.1,0.2-0.2,0.3-0.3
		c0.1-0.1,0.3-0.1,0.4-0.2c0.2,0,0.3-0.1,0.5-0.1c0.6,0,1.2,0.2,1.7,0.5v-1.4c-0.5-0.2-1.1-0.3-1.7-0.3c-0.4,0-0.7,0-1.1,0.1
		c-0.3,0.1-0.6,0.2-0.9,0.4c-0.3,0.2-0.5,0.4-0.6,0.6c-0.2,0.3-0.2,0.6-0.2,0.9s0,0.5,0.1,0.7s0.2,0.4,0.3,0.5
		c0.2,0.2,0.3,0.3,0.6,0.4c0.2,0.1,0.5,0.2,0.8,0.4c0.2,0.1,0.4,0.2,0.6,0.2c0.2,0.1,0.4,0.1,0.5,0.2s0.2,0.2,0.3,0.3
		c0.1,0.1,0.1,0.2,0.1,0.4c0,0.6-0.5,0.8-1.4,0.8c-0.7,0-1.4-0.2-2-0.7v1.5C838.8,300.9,839.5,301,840.2,301z M834.2,301
		c0.4,0,0.8,0,1.1-0.1c0.4-0.1,0.7-0.2,0.9-0.4c0.3-0.2,0.5-0.4,0.7-0.7c0.2-0.3,0.2-0.6,0.2-0.9s0-0.5-0.1-0.8s-0.2-0.4-0.4-0.6
		s-0.4-0.3-0.6-0.4c-0.2-0.1-0.5-0.3-0.8-0.4c-0.2-0.1-0.4-0.1-0.6-0.2c-0.2-0.1-0.3-0.1-0.4-0.2c-0.1-0.1-0.2-0.2-0.3-0.3
		s-0.1-0.2-0.1-0.4c0-0.1,0-0.2,0.1-0.3c0.1-0.1,0.2-0.2,0.3-0.3c0.1-0.1,0.3-0.1,0.4-0.2c0.2,0,0.3-0.1,0.5-0.1
		c0.6,0,1.2,0.2,1.7,0.5v-1.4c-0.5-0.2-1.1-0.3-1.7-0.3c-0.4,0-0.7,0-1.1,0.1c-0.3,0.1-0.6,0.2-0.9,0.4c-0.3,0.2-0.5,0.4-0.6,0.6
		c-0.2,0.3-0.2,0.6-0.2,0.9s0,0.5,0.1,0.7s0.2,0.4,0.3,0.5c0.2,0.2,0.3,0.3,0.6,0.4c0.2,0.1,0.5,0.2,0.8,0.4
		c0.2,0.1,0.4,0.2,0.6,0.2c0.2,0.1,0.4,0.1,0.5,0.2s0.2,0.2,0.3,0.3c0.1,0.1,0.1,0.2,0.1,0.4c0,0.6-0.5,0.8-1.4,0.8
		c-0.7,0-1.4-0.2-2-0.7v1.5C832.8,300.9,833.5,301,834.2,301z M829,295.6c0.3,0.4,0.5,1,0.5,1.8s-0.2,1.3-0.5,1.8
		c-0.3,0.4-0.8,0.6-1.4,0.6c-0.6,0-1.1-0.2-1.5-0.6s-0.5-1-0.5-1.7c0-0.8,0.2-1.4,0.5-1.8c0.4-0.4,0.8-0.6,1.5-0.6
		C828.2,295,828.6,295.2,829,295.6z M830.1,300c0.7-0.7,1-1.6,1-2.7s-0.3-2-0.9-2.7c-0.6-0.6-1.5-1-2.5-1c-1.1,0-2,0.3-2.7,1
		s-1,1.6-1,2.7s0.3,1.9,1,2.6s1.5,1,2.6,1C828.6,301,829.5,300.7,830.1,300z M818.9,296.5c1.4,0,2.1,0.5,2.1,1.5
		c0,0.5-0.2,0.9-0.5,1.2c-0.3,0.3-0.8,0.4-1.4,0.4h-1.4v-3.1H818.9z M818.9,292.4c1.1,0,1.7,0.4,1.7,1.3c0,0.5-0.2,0.9-0.5,1.1
		c-0.3,0.3-0.8,0.4-1.3,0.4h-1v-2.8H818.9z M819.3,300.9c1,0,1.8-0.3,2.5-0.8s1-1.2,1-2c0-0.7-0.2-1.2-0.6-1.6
		c-0.4-0.4-0.9-0.7-1.6-0.7l0,0c0.6-0.2,1-0.5,1.3-0.9s0.5-0.9,0.5-1.4c0-0.7-0.3-1.2-0.8-1.6c-0.6-0.4-1.3-0.6-2.2-0.6h-3.1v9.8h3
		L819.3,300.9L819.3,300.9z M813.8,291.1h-1.6v6c0,1.7-0.5,2.5-1.6,2.5c-0.4,0-0.7-0.1-1-0.3v1.5c0.3,0.1,0.7,0.2,1.1,0.2
		c1,0,1.7-0.3,2.3-1s0.9-1.5,0.9-2.7v-6.2H813.8z M803.2,299.2l-0.7,3.4h1.2l1.1-3.4H803.2z M801.9,299.5c-0.2,0.2-0.4,0.2-0.7,0.2
		s-0.6-0.1-0.7-0.3c-0.2-0.2-0.2-0.5-0.2-0.9V295h1.7v-1.2h-1.7v-2.1l-1.6,0.4v1.6h-1.2v1.2h1.2v3.9c0,1.3,0.7,1.9,2,1.9
		c0.5,0,0.9-0.1,1.2-0.2V299.5z M794.8,298.1c0,0.5-0.2,0.9-0.5,1.3c-0.3,0.3-0.7,0.5-1.2,0.5c-0.4,0-0.6-0.1-0.8-0.3
		c-0.2-0.2-0.3-0.4-0.3-0.7c0-0.4,0.1-0.7,0.3-0.8c0.2-0.2,0.6-0.3,1-0.3l1.5-0.2V298.1z M796.3,296.3c0-1.7-0.9-2.6-2.6-2.6
		c-1,0-1.8,0.2-2.5,0.7v1.4c0.7-0.6,1.4-0.9,2.2-0.9c0.9,0,1.4,0.5,1.4,1.5l-2.1,0.3c-1.5,0.2-2.3,1-2.3,2.3c0,0.6,0.2,1.1,0.6,1.5
		s0.9,0.6,1.6,0.6c0.9,0,1.6-0.4,2.1-1.3l0,0v1.1h1.5L796.3,296.3L796.3,296.3z M789.4,299.2c-0.5,0.4-1,0.6-1.6,0.6
		c-0.7,0-1.2-0.2-1.6-0.6s-0.6-1-0.6-1.7s0.2-1.3,0.6-1.8s1-0.7,1.6-0.7c0.5,0,1.1,0.2,1.6,0.5V294c-0.5-0.2-1-0.3-1.7-0.3
		c-1.1,0-2.1,0.3-2.7,1s-1,1.6-1,2.8c0,1,0.3,1.9,1,2.5c0.6,0.6,1.5,1,2.5,1c0.8,0,1.4-0.2,2-0.5L789.4,299.2L789.4,299.2z
		 M782.5,296.6c0-1.9-0.8-2.8-2.3-2.8c-1,0-1.8,0.5-2.3,1.4c-0.1-0.4-0.4-0.8-0.7-1c-0.4-0.3-0.8-0.4-1.3-0.4c-1,0-1.7,0.4-2.2,1.3
		l0,0V294h-1.6v7h1.6v-3.8c0-0.6,0.1-1.1,0.4-1.5c0.3-0.4,0.6-0.6,1.1-0.6c0.9,0,1.4,0.6,1.4,1.9v3.9h1.6v-3.8
		c0-0.6,0.1-1.1,0.4-1.5c0.3-0.4,0.6-0.6,1.1-0.6s0.8,0.2,1,0.5s0.3,0.9,0.3,1.6v3.8h1.6L782.5,296.6L782.5,296.6z M768.3,295.6
		c0.3,0.4,0.5,1,0.5,1.8s-0.2,1.3-0.5,1.8c-0.3,0.4-0.8,0.6-1.4,0.6c-0.6,0-1.1-0.2-1.5-0.6s-0.5-1-0.5-1.7c0-0.8,0.2-1.4,0.5-1.8
		c0.4-0.4,0.8-0.6,1.5-0.6C767.5,295,768,295.2,768.3,295.6z M769.5,300c0.7-0.7,1-1.6,1-2.7s-0.3-2-0.9-2.7c-0.6-0.6-1.5-1-2.5-1
		c-1.1,0-2,0.3-2.7,1s-1,1.6-1,2.7s0.3,1.9,1,2.6s1.5,1,2.6,1C767.9,301,768.8,300.7,769.5,300z M763.9,291.1h-7.2v1.4h2.8v8.4h1.6
		v-8.4h2.8L763.9,291.1L763.9,291.1z"/>
	<path style="fill:#FFFFFF;" d="M822.7,249.8h-4.4l0,0c0-0.2,0.1-0.4,0.2-0.6c0.1-0.2,0.3-0.4,0.5-0.6s0.4-0.4,0.7-0.6
		s0.5-0.4,0.8-0.6c0.3-0.3,0.6-0.5,0.8-0.8s0.5-0.5,0.6-0.8c0.2-0.3,0.3-0.6,0.4-0.9c0.1-0.3,0.1-0.7,0.1-1.1s-0.1-0.8-0.2-1.2
		c-0.1-0.3-0.3-0.6-0.6-0.8c-0.3-0.2-0.6-0.4-0.9-0.5c-0.4-0.1-0.8-0.2-1.2-0.2c-0.3,0-0.5,0-0.8,0.1c-0.2,0-0.5,0.1-0.7,0.2
		s-0.4,0.2-0.6,0.3c-0.2,0.1-0.4,0.2-0.6,0.4v1.5c0.4-0.4,0.8-0.7,1.2-0.8c0.4-0.2,0.8-0.3,1.2-0.3c0.2,0,0.4,0,0.6,0.1
		c0.2,0.1,0.4,0.2,0.5,0.3c0.1,0.1,0.3,0.3,0.3,0.5c0.1,0.2,0.1,0.4,0.1,0.7c0,0.2,0,0.5-0.1,0.7s-0.2,0.4-0.3,0.6s-0.3,0.4-0.4,0.5
		c-0.2,0.2-0.4,0.3-0.6,0.5c-0.2,0.2-0.4,0.4-0.7,0.6c-0.2,0.2-0.5,0.4-0.7,0.6s-0.4,0.4-0.6,0.6c-0.2,0.2-0.4,0.4-0.5,0.7
		c-0.1,0.2-0.3,0.5-0.3,0.8s-0.1,0.6-0.1,0.9v0.8h6.1v-1.6L822.7,249.8L822.7,249.8z M808,242.7c1.3,0,2,0.6,2,1.7
		c0,0.6-0.2,1-0.5,1.4c-0.4,0.3-0.9,0.5-1.6,0.5h-1v-3.6H808z M808.1,247.6c1.1,0,2-0.3,2.6-0.9s1-1.4,1-2.3s-0.3-1.7-0.9-2.2
		s-1.5-0.8-2.6-0.8h-3v9.8h1.6v-3.5L808.1,247.6L808.1,247.6z M799.8,242.7c1.3,0,2,0.6,2,1.7c0,0.6-0.2,1-0.5,1.4
		c-0.4,0.3-0.9,0.5-1.6,0.5h-1v-3.6H799.8z M799.9,247.6c1.1,0,2-0.3,2.6-0.9s1-1.4,1-2.3s-0.3-1.7-0.9-2.2s-1.5-0.8-2.6-0.8h-3v9.8
		h1.6v-3.5L799.9,247.6L799.9,247.6z M789.6,247.3l1.3-3.9c0-0.1,0.1-0.4,0.1-0.6l0,0c0,0.3,0.1,0.5,0.1,0.6l1.4,3.9H789.6z
		 M792.1,241.4h-1.8l-3.7,9.8h1.8l0.8-2.5h3.8l0.9,2.5h1.8L792.1,241.4z"/>
	<path style="fill:#FFFFFF;" d="M882.9,251.3c1.1,0,1.9-0.3,2.6-0.8c0.7-0.5,1-1.2,1-2.1c0-0.6-0.2-1.2-0.6-1.6
		c-0.4-0.4-1-0.7-1.7-0.7l0,0c1.3-0.4,2-1.2,2-2.5c0-0.7-0.3-1.2-0.8-1.7c-0.5-0.4-1.2-0.7-2.1-0.7c-0.9,0-1.7,0.2-2.3,0.6v1.4
		c0.6-0.5,1.2-0.7,1.8-0.7c1.2,0,1.8,0.5,1.8,1.4c0,1-0.8,1.6-2.3,1.6h-0.7v1.3h0.8c1.7,0,2.5,0.6,2.5,1.7c0,0.5-0.2,0.9-0.6,1.2
		s-0.9,0.4-1.6,0.4c-0.8,0-1.5-0.3-2.1-0.8v1.5C881.2,251.1,882,251.3,882.9,251.3z M871.8,242.7c1.3,0,2,0.6,2,1.7
		c0,0.6-0.2,1-0.5,1.4c-0.4,0.3-0.9,0.5-1.6,0.5h-1v-3.6H871.8z M871.9,247.6c1.1,0,2-0.3,2.6-0.9s1-1.4,1-2.3s-0.3-1.7-0.9-2.2
		s-1.5-0.8-2.6-0.8h-3v9.8h1.6v-3.5L871.9,247.6L871.9,247.6z M863.7,242.7c1.3,0,2,0.6,2,1.7c0,0.6-0.2,1-0.5,1.4
		c-0.4,0.3-0.9,0.5-1.6,0.5h-1v-3.6H863.7z M863.8,247.6c1.1,0,2-0.3,2.6-0.9s1-1.4,1-2.3s-0.3-1.7-0.9-2.2s-1.5-0.8-2.6-0.8h-3v9.8
		h1.6v-3.5L863.8,247.6L863.8,247.6z M853.5,247.3l1.3-3.9c0-0.1,0.1-0.4,0.1-0.6l0,0c0,0.3,0.1,0.5,0.1,0.6l1.4,3.9H853.5z
		 M855.9,241.4h-1.8l-3.7,9.8h1.8l0.8-2.5h3.8l0.9,2.5h1.8L855.9,241.4z"/>
	<path style="fill:#686868;" d="M905.6,307.6v-4.4l0,0c0.2,0,0.4,0.1,0.6,0.2c0.2,0.1,0.4,0.3,0.6,0.5c0.2,0.2,0.4,0.4,0.6,0.7
		c0.2,0.3,0.4,0.5,0.6,0.8c0.3,0.3,0.5,0.6,0.8,0.9s0.5,0.5,0.8,0.7s0.6,0.3,0.9,0.4c0.3,0.1,0.7,0.1,1.1,0.1c0.4,0,0.8-0.1,1.2-0.2
		s0.6-0.3,0.8-0.6c0.2-0.3,0.4-0.6,0.5-0.9c0.1-0.4,0.2-0.8,0.2-1.2c0-0.3,0-0.5-0.1-0.8s-0.1-0.5-0.2-0.7c-0.1-0.2-0.2-0.4-0.3-0.6
		s-0.2-0.4-0.4-0.6h-1.5c0.4,0.4,0.7,0.8,0.8,1.2s0.3,0.8,0.3,1.2c0,0.2,0,0.4-0.1,0.6s-0.2,0.4-0.3,0.5s-0.3,0.3-0.5,0.3
		c-0.2,0.1-0.4,0.1-0.7,0.1c-0.2,0-0.5,0-0.7-0.1s-0.4-0.2-0.6-0.3s-0.4-0.3-0.5-0.4c-0.2-0.2-0.3-0.4-0.5-0.6s-0.4-0.5-0.6-0.7
		c-0.2-0.2-0.4-0.5-0.6-0.7c-0.2-0.2-0.4-0.4-0.6-0.6c-0.2-0.2-0.4-0.4-0.7-0.5c-0.2-0.1-0.5-0.3-0.8-0.3c-0.3-0.1-0.6-0.1-0.9-0.1
		H904v6.2L905.6,307.6L905.6,307.6z M914.1,295.1l-7.4-2.5c-0.3-0.1-0.6-0.2-0.8-0.2l0,0c0.3,0,0.6-0.1,0.8-0.2l7.4-2.4V288
		l-9.8,3.5v1.8l9.8,3.5V295.1z M912.8,283.4c0,0.6-0.1,1-0.4,1.3s-0.6,0.4-1.1,0.4c-0.3,0-0.5,0-0.7-0.1s-0.4-0.2-0.5-0.4
		s-0.3-0.3-0.3-0.6s-0.1-0.4-0.1-0.7v-1.4h3.2v1.5L912.8,283.4L912.8,283.4z M907,286.2c0.2-0.1,0.4-0.3,0.6-0.4
		c0.2-0.1,0.3-0.2,0.4-0.4s0.3-0.2,0.4-0.4c0.1-0.1,0.2-0.3,0.3-0.5l0,0c0.1,0.3,0.2,0.6,0.4,0.9s0.4,0.5,0.6,0.7
		c0.2,0.2,0.5,0.3,0.8,0.4s0.6,0.2,1,0.2s0.8-0.1,1.2-0.2c0.3-0.2,0.6-0.4,0.8-0.7c0.2-0.3,0.4-0.6,0.5-1s0.2-0.8,0.2-1.3v-3.2h-9.8
		v1.6h4v0.7c0,0.2,0,0.4-0.1,0.6s-0.1,0.3-0.2,0.5s-0.3,0.3-0.4,0.4c-0.2,0.1-0.4,0.3-0.6,0.4l-2.6,1.6v1.9L907,286.2z M904.4,272.9
		c-0.1,0.2-0.1,0.5-0.2,0.7c0,0.3-0.1,0.5-0.1,0.7s0,0.4,0,0.6c0,0.5,0,1,0.1,1.4s0.3,0.8,0.5,1.2s0.5,0.6,0.8,0.8s0.8,0.3,1.3,0.3
		c0.4,0,0.7-0.1,1-0.2s0.6-0.3,0.8-0.5s0.5-0.5,0.6-0.8s0.4-0.6,0.6-1c0.1-0.3,0.3-0.6,0.4-0.9c0.1-0.3,0.3-0.5,0.4-0.6
		s0.3-0.3,0.4-0.4s0.3-0.1,0.6-0.1c0.2,0,0.4,0.1,0.6,0.2s0.3,0.3,0.4,0.5s0.2,0.4,0.2,0.6s0.1,0.5,0.1,0.7c0,0.9-0.2,1.6-0.6,2.1
		h1.6c0.2-0.5,0.3-1.2,0.3-2.2c0-0.5-0.1-0.9-0.2-1.3c-0.1-0.4-0.3-0.8-0.5-1.2c-0.2-0.3-0.5-0.6-0.8-0.8c-0.3-0.2-0.7-0.3-1.2-0.3
		c-0.4,0-0.7,0.1-1,0.2s-0.5,0.3-0.7,0.5s-0.4,0.5-0.6,0.7s-0.4,0.6-0.5,0.9s-0.3,0.6-0.4,0.9c-0.1,0.3-0.3,0.5-0.4,0.7
		s-0.3,0.4-0.5,0.5s-0.4,0.2-0.6,0.2c-0.4,0-0.8-0.2-1-0.5s-0.3-0.8-0.3-1.5c0-0.2,0-0.4,0.1-0.6s0.1-0.5,0.2-0.7
		c0.1-0.2,0.2-0.5,0.3-0.7s0.2-0.4,0.4-0.5h-1.7C904.6,272.5,904.5,272.6,904.4,272.9z M912.7,263.5c0,1.3-0.6,2-1.7,2
		c-0.6,0-1-0.2-1.4-0.5s-0.5-0.9-0.5-1.6v-1.1h3.6L912.7,263.5L912.7,263.5z M907.8,263.7c0,1.1,0.3,2,0.9,2.6s1.4,1,2.3,1
		s1.7-0.3,2.2-0.9s0.8-1.5,0.8-2.6v-3h-9.8v1.6h3.6V263.7z M912.7,255.4c0,1.3-0.6,2-1.7,2c-0.6,0-1-0.2-1.4-0.5s-0.5-0.9-0.5-1.6
		v-1.1h3.6L912.7,255.4L912.7,255.4z M907.8,255.5c0,1.1,0.3,2,0.9,2.6s1.4,1,2.3,1s1.7-0.3,2.2-0.9s0.8-1.5,0.8-2.6v-3h-9.8v1.6
		h3.6V255.5z M908.1,245.1l3.9,1.3c0.2,0.1,0.4,0.1,0.6,0.1l0,0c-0.3,0-0.5,0.1-0.6,0.1l-3.9,1.4V245.1z M914.1,247.6v-1.8l-9.8-3.7
		v1.8l2.5,0.8v3.9l-2.5,0.9v1.8L914.1,247.6z"/>
	
		<line style="fill:none;stroke:#686868;stroke-width:3;stroke-linecap:round;stroke-linejoin:round;stroke-miterlimit:10;" x1="805.9" y1="202.6" x2="810.3" y2="198.2"/>
	
		<line style="fill:none;stroke:#686868;stroke-width:3;stroke-linecap:round;stroke-linejoin:round;stroke-miterlimit:10;" x1="805.9" y1="202.6" x2="801.5" y2="198.2"/>
	<line style="fill:none;" x1="805.9" y1="191.2" x2="805.9" y2="202.6"/>
	
		<line style="fill:none;stroke:#686868;stroke-width:3;stroke-linecap:round;stroke-linejoin:round;stroke-miterlimit:10;" x1="805.9" y1="191.2" x2="805.9" y2="202.6"/>
	
		<line style="fill:none;stroke:#686868;stroke-width:3;stroke-linecap:round;stroke-linejoin:round;stroke-miterlimit:10;" x1="805.9" y1="155.4" x2="801.5" y2="159.9"/>
	
		<line style="fill:none;stroke:#686868;stroke-width:3;stroke-linecap:round;stroke-linejoin:round;stroke-miterlimit:10;" x1="805.9" y1="155.4" x2="810.3" y2="159.9"/>
	<line style="fill:none;" x1="805.9" y1="166.9" x2="805.9" y2="155.4"/>
	
		<line style="fill:none;stroke:#686868;stroke-width:3;stroke-linecap:round;stroke-linejoin:round;stroke-miterlimit:10;" x1="805.9" y1="166.9" x2="805.9" y2="155.4"/>
	<path style="fill:#686868;" d="M439.5,139.1c2.4,0,3.6,1.1,3.6,3.4c0,1.1-0.3,2-1,2.7s-1.5,0.9-2.7,0.9h-1.3v-7L439.5,139.1
		L439.5,139.1z M439.2,147.5c1.7,0,3-0.5,4-1.4s1.5-2.1,1.5-3.6c0-3.2-1.8-4.8-5.4-4.8h-2.8v9.8H439.2z M434.1,137.7h-1.6v4.1h-4.6
		v-4.1h-1.6v9.8h1.6v-4.3h4.6v4.3h1.6V137.7z M423.2,137.7l-2.5,7.4c-0.1,0.3-0.2,0.6-0.2,0.8l0,0c0-0.3-0.1-0.6-0.2-0.8l-2.4-7.4
		h-1.8l3.5,9.8h1.8l3.5-9.8L423.2,137.7L423.2,137.7z M407.6,139c0.6,0,1,0.1,1.3,0.4c0.3,0.3,0.4,0.6,0.4,1.1c0,0.3,0,0.5-0.1,0.7
		s-0.2,0.4-0.4,0.5s-0.3,0.3-0.6,0.3s-0.4,0.1-0.7,0.1h-1.4v-3.2h1.5L407.6,139L407.6,139z M410.5,144.8c-0.1-0.2-0.3-0.4-0.4-0.6
		s-0.2-0.3-0.4-0.4s-0.2-0.3-0.4-0.4c-0.1-0.1-0.3-0.2-0.5-0.3l0,0c0.3-0.1,0.6-0.2,0.9-0.4s0.5-0.4,0.7-0.6s0.3-0.5,0.4-0.8
		s0.2-0.6,0.2-1s-0.1-0.8-0.2-1.2c-0.2-0.3-0.4-0.6-0.7-0.8c-0.3-0.2-0.6-0.4-1-0.5s-0.8-0.2-1.3-0.2h-3.2v9.8h1.6v-4h0.7
		c0.2,0,0.4,0,0.6,0.1s0.3,0.1,0.5,0.2s0.3,0.3,0.4,0.4c0.1,0.2,0.3,0.4,0.4,0.6l1.6,2.6h1.9L410.5,144.8z M402.9,146.2H399v-2.9
		h3.4v-1.4H399v-2.8h3.7v-1.4h-5.3v9.8h5.5L402.9,146.2L402.9,146.2z M394.4,137.7l-2.5,7.4c-0.1,0.3-0.2,0.6-0.2,0.8l0,0
		c0-0.3-0.1-0.6-0.2-0.8l-2.4-7.4h-1.8l3.5,9.8h1.8l3.5-9.8L394.4,137.7L394.4,137.7z M382.7,139c0.6,0,1,0.1,1.3,0.4
		c0.3,0.3,0.4,0.6,0.4,1.1c0,0.3,0,0.5-0.1,0.7s-0.2,0.4-0.4,0.5s-0.3,0.3-0.6,0.3s-0.4,0.1-0.7,0.1h-1.4v-3.2h1.5L382.7,139
		L382.7,139z M385.5,144.8c-0.1-0.2-0.3-0.4-0.4-0.6s-0.2-0.3-0.4-0.4s-0.2-0.3-0.4-0.4c-0.1-0.1-0.3-0.2-0.5-0.3l0,0
		c0.3-0.1,0.6-0.2,0.9-0.4s0.5-0.4,0.7-0.6s0.3-0.5,0.4-0.8s0.2-0.6,0.2-1s-0.1-0.8-0.2-1.2c-0.2-0.3-0.4-0.6-0.7-0.8
		c-0.3-0.2-0.6-0.4-1-0.5s-0.8-0.2-1.3-0.2h-3.2v9.8h1.6v-4h0.7c0.2,0,0.4,0,0.6,0.1s0.3,0.1,0.5,0.2s0.3,0.3,0.4,0.4
		c0.1,0.2,0.3,0.4,0.4,0.6l1.6,2.6h1.9L385.5,144.8z M378,146.2h-3.9v-2.9h3.4v-1.4h-3.4v-2.8h3.7v-1.4h-5.3v9.8h5.5L378,146.2
		L378,146.2z M364.9,147.4c0.2,0.1,0.5,0.1,0.7,0.2c0.3,0,0.5,0.1,0.7,0.1s0.4,0,0.6,0c0.5,0,1,0,1.4-0.1s0.8-0.3,1.2-0.5
		s0.6-0.5,0.8-0.8s0.3-0.8,0.3-1.3c0-0.4-0.1-0.7-0.2-1s-0.3-0.6-0.5-0.8s-0.5-0.5-0.8-0.6s-0.6-0.4-1-0.6c-0.3-0.1-0.6-0.3-0.9-0.4
		s-0.5-0.3-0.6-0.4s-0.3-0.3-0.4-0.4s-0.1-0.3-0.1-0.6c0-0.2,0.1-0.4,0.2-0.6s0.3-0.3,0.5-0.4s0.4-0.2,0.6-0.2s0.5-0.1,0.7-0.1
		c0.9,0,1.6,0.2,2.1,0.6v-1.6c-0.5-0.2-1.2-0.3-2.2-0.3c-0.5,0-0.9,0.1-1.3,0.2c-0.4,0.1-0.8,0.3-1.2,0.5c-0.3,0.2-0.6,0.5-0.8,0.8
		c-0.2,0.3-0.3,0.7-0.3,1.2c0,0.4,0.1,0.7,0.2,1s0.3,0.5,0.5,0.7s0.5,0.4,0.7,0.6s0.6,0.4,0.9,0.5s0.6,0.3,0.9,0.4s0.5,0.3,0.7,0.4
		s0.4,0.3,0.5,0.5s0.2,0.4,0.2,0.6c0,0.4-0.2,0.8-0.5,1s-0.8,0.3-1.5,0.3c-0.2,0-0.4,0-0.6-0.1s-0.5-0.1-0.7-0.2s-0.5-0.2-0.7-0.3
		s-0.4-0.2-0.5-0.4v1.7C364.5,147.2,364.7,147.3,364.9,147.4z M355.3,143.1c1.4,0,2.1,0.5,2.1,1.5c0,0.5-0.2,0.9-0.5,1.2
		c-0.3,0.3-0.8,0.4-1.4,0.4h-1.4v-3.1H355.3z M355.3,139c1.1,0,1.7,0.4,1.7,1.3c0,0.5-0.2,0.9-0.5,1.1c-0.3,0.3-0.8,0.4-1.3,0.4
		h-1.1V139H355.3z M355.7,147.5c1,0,1.8-0.3,2.5-0.8s1-1.2,1-2c0-0.7-0.2-1.2-0.6-1.6s-0.9-0.7-1.6-0.7l0,0c0.6-0.2,1-0.5,1.3-0.9
		s0.5-0.9,0.5-1.4c0-0.7-0.3-1.2-0.8-1.6s-1.3-0.6-2.3-0.6h-3.1v9.8h3.1V147.5z M350.8,146.2h-3.9v-2.9h3.4v-1.4h-3.4v-2.8h3.7v-1.4
		h-5.3v9.8h5.5L350.8,146.2L350.8,146.2z M342.2,137.7l-1.7,7.2c-0.1,0.4-0.1,0.7-0.2,0.9l0,0c0-0.3-0.1-0.6-0.1-0.9l-1.9-7.2h-1.7
		l-2,7.2c-0.1,0.4-0.2,0.7-0.2,0.9l0,0c0-0.3-0.1-0.6-0.1-0.9l-1.8-7.2h-1.8l2.7,9.8h1.9l1.9-6.9c0.1-0.3,0.1-0.6,0.2-0.9l0,0
		c0,0.3,0.1,0.7,0.1,1l1.9,6.9h1.8l2.7-9.8L342.2,137.7L342.2,137.7z"/>
	<path style="fill:#686868;" d="M372.6,124c-0.6,0-1-0.5-1-1V85.5c0-0.6,0.5-1,1-1h29.5c0.6,0,1,0.5,1,1v22.8c0.8,0,1.5,0.1,2.2,0.3
		v-23c0-1.8-1.5-3.2-3.2-3.2h-29.5c-1.8,0-3.2,1.5-3.2,3.2v37.5c0,1.8,1.5,3.2,3.2,3.2h29.5c0.1,0,0.2,0,0.3,0
		c-2-0.1-3.9-0.9-5.3-2.2L372.6,124L372.6,124z"/>
	<circle style="fill:#686868;" cx="373.8" cy="86.4" r="0.9"/>
	<circle style="fill:#686868;" cx="400.9" cy="86.4" r="0.9"/>
	<path style="fill:#686868;" d="M399.8,100.9c0-6.9-5.6-12.5-12.5-12.5s-12.5,5.6-12.5,12.5c0,3.6,1.6,6.9,4,9.2l2.6-2.6
		c0.6-0.6,1.3-0.9,2.1-0.9c1.6,0,3,1.3,3,3c0,0.4-0.1,0.8-0.2,1.2l-0.1,0.2l-1.1,2.3c0.7,0.1,1.5,0.2,2.2,0.2
		C394.2,113.4,399.8,107.8,399.8,100.9z M381.4,100.9c0-3.2,2.6-5.9,5.9-5.9c3.2,0,5.9,2.6,5.9,5.9c0,3.2-2.6,5.9-5.9,5.9
		C384.1,106.8,381.4,104.2,381.4,100.9z"/>
	<path style="fill:#686868;" d="M380.3,120.3L380.3,120.3l5-9.8l0,0c0.1-0.2,0.2-0.5,0.2-0.8c0-1-0.8-1.8-1.8-1.8
		c-0.5,0-1,0.2-1.3,0.6l-7.6,7.7l0,0c-0.7,0.6-1.1,1.6-1.1,2.6c0,2,1.6,3.6,3.6,3.6C378.5,122.1,379.6,121.4,380.3,120.3
		L380.3,120.3L380.3,120.3z M377.1,120.1c-0.9,0-1.6-0.7-1.6-1.6c0-0.9,0.7-1.6,1.6-1.6s1.6,0.7,1.6,1.6S378,120.1,377.1,120.1z"/>
	<path style="fill:#686868;" d="M387.4,96.2c-2.6,0-4.7,2.1-4.7,4.7c0,2.6,2.1,4.7,4.7,4.7s4.7-2.1,4.7-4.7S390,96.2,387.4,96.2z
		 M389.2,98.2c0.2-0.2,0.7-0.2,0.9,0c0.1,0.1,0.2,0.3,0.2,0.5s-0.1,0.3-0.2,0.5c-0.1,0.1-0.3,0.2-0.5,0.2s-0.3-0.1-0.5-0.2
		C388.9,98.9,388.9,98.5,389.2,98.2z M387.4,97.1c0.4,0,0.7,0.3,0.7,0.7s-0.3,0.7-0.7,0.7c-0.4,0-0.7-0.3-0.7-0.7
		C386.7,97.4,387,97.1,387.4,97.1z M384.7,98.2c0.2-0.2,0.7-0.2,0.9,0c0.1,0.1,0.2,0.3,0.2,0.5s-0.1,0.3-0.2,0.5
		c-0.1,0.1-0.3,0.2-0.5,0.2s-0.3-0.1-0.5-0.2C384.4,98.9,384.4,98.5,384.7,98.2z M383.6,100.9c0-0.4,0.3-0.7,0.7-0.7
		c0.4,0,0.7,0.3,0.7,0.7s-0.3,0.7-0.7,0.7C383.8,101.6,383.6,101.3,383.6,100.9z M385.6,103.6c-0.1,0.1-0.3,0.2-0.5,0.2
		s-0.3-0.1-0.5-0.2c-0.3-0.3-0.3-0.7,0-0.9c0.2-0.2,0.7-0.2,0.9,0c0.1,0.1,0.2,0.3,0.2,0.5C385.8,103.4,385.7,103.5,385.6,103.6z
		 M387.4,104.8c-0.4,0-0.7-0.3-0.7-0.7s0.3-0.7,0.7-0.7c0.4,0,0.7,0.3,0.7,0.7S387.7,104.8,387.4,104.8z M387.4,102.8
		c-1,0-1.8-0.8-1.8-1.8s0.8-1.8,1.8-1.8s1.8,0.8,1.8,1.8C389.2,101.9,388.4,102.8,387.4,102.8z M390.1,103.6
		c-0.1,0.1-0.3,0.2-0.5,0.2s-0.3-0.1-0.5-0.2c-0.3-0.3-0.3-0.7,0-0.9c0.2-0.2,0.7-0.2,0.9,0c0.1,0.1,0.2,0.3,0.2,0.5
		C390.3,103.4,390.2,103.5,390.1,103.6z M390.6,101.6c-0.4,0-0.7-0.3-0.7-0.7s0.3-0.7,0.7-0.7c0.4,0,0.7,0.3,0.7,0.7
		C391.2,101.3,390.9,101.6,390.6,101.6z"/>
	<path style="fill:#686868;" d="M405.4,109c-0.7-0.2-1.5-0.3-2.2-0.3H403c-4.7,0-8.6,3.8-8.6,8.6c0,0.3,0,0.6,0,0.9
		c0.1,0.9,0.3,1.8,0.7,2.5c0.6,1.3,1.5,2.5,2.6,3.3c1.5,1.1,3.3,1.8,5.3,1.8c0.3,0,0.5,0,0.8,0c4.1-0.4,7.4-3.6,7.8-7.7
		c0-0.3,0-0.6,0-0.9C411.6,113.3,409,110,405.4,109z M397.3,117.9c0.1,1.3,0.4,2.6,0.8,3.6c-0.3,0.2-0.5,0.3-0.8,0.5
		c-1-1.1-1.6-2.6-1.7-4.2h1.7V117.9z M399.1,113.4c1,0.5,2.1,0.7,3.3,0.8v2.4h-4.1C398.4,115.5,398.6,114.4,399.1,113.4z
		 M407.7,116.7h-2.3h-1.8v-2.4c0.6,0,1.2-0.1,1.8-0.3c0.5-0.1,1.1-0.3,1.6-0.5C407.3,114.4,407.6,115.5,407.7,116.7z M401.6,121.4
		c0.3,0,0.5-0.1,0.8-0.1v2.7v0.3c-0.3-0.1-0.5-0.1-0.8-0.3c-0.8-0.4-1.5-1.1-2.1-2.1c0.2-0.1,0.3-0.1,0.5-0.2
		C400.5,121.6,401,121.4,401.6,121.4z M403.6,121.3c0.6,0,1.2,0.2,1.8,0.3c0.4,0.1,0.7,0.2,1.1,0.4c-0.3,0.5-0.7,1-1.1,1.4
		c-0.5,0.5-1.1,0.8-1.8,0.9V121.3z M407.3,122.5c0.2,0.1,0.4,0.2,0.5,0.3c-0.5,0.4-1,0.8-1.6,1.1C406.7,123.5,407,123,407.3,122.5z
		 M406.9,121.1c-0.5-0.2-1-0.4-1.5-0.5c-0.6-0.1-1.2-0.2-1.8-0.3v-2.4h1.8h2.3C407.6,119.1,407.3,120.2,406.9,121.1z M405.4,113
		c-0.6,0.2-1.2,0.2-1.8,0.3v-3c0.7,0.1,1.3,0.5,1.8,0.9c0.4,0.4,0.8,0.8,1.1,1.4C406.1,112.7,405.8,112.9,405.4,113z M402.4,110.2v3
		c-1-0.1-2-0.3-2.9-0.7C400.2,111.3,401.3,110.4,402.4,110.2z M402.4,117.9v2.4c-1.2,0.1-2.3,0.3-3.4,0.8c-0.4-0.9-0.7-2-0.7-3.2
		H402.4z M398.6,122.4c0.3,0.6,0.7,1.1,1.1,1.5c-0.6-0.3-1.2-0.7-1.7-1.1C398.2,122.6,398.4,122.5,398.6,122.4z M408.6,122.1
		c-0.2-0.2-0.5-0.4-0.8-0.5c0.5-1.1,0.8-2.4,0.9-3.7h1.7C410.2,119.5,409.6,120.9,408.6,122.1z M408.7,116.7
		c-0.1-1.3-0.4-2.6-0.8-3.6c0.3-0.2,0.5-0.3,0.8-0.5c1,1.1,1.6,2.6,1.7,4.2h-1.7V116.7z M407.9,111.8c-0.2,0.1-0.4,0.2-0.5,0.3
		c-0.3-0.6-0.7-1.1-1.1-1.5C406.9,110.9,407.4,111.3,407.9,111.8z M399.7,110.6c-0.4,0.4-0.8,0.9-1.1,1.4c-0.2-0.1-0.4-0.2-0.5-0.3
		C398.6,111.3,399.1,110.9,399.7,110.6z M397.4,112.4c0.2,0.2,0.5,0.4,0.8,0.5c-0.5,1.1-0.8,2.4-0.9,3.7h-1.7
		C395.8,115,396.4,113.6,397.4,112.4z"/>
	<path style="fill:#686868;" d="M438.6,224.4c2.4,0,3.6,1.1,3.6,3.4c0,1.1-0.3,2-1,2.7s-1.5,0.9-2.7,0.9h-1.3v-7H438.6z
		 M438.3,232.8c1.7,0,3-0.5,4-1.4s1.5-2.1,1.5-3.6c0-3.2-1.8-4.8-5.4-4.8h-2.8v9.8H438.3z M433.2,223h-1.6v4.1H427V223h-1.6v9.8h1.6
		v-4.3h4.6v4.3h1.6V223z M422.3,223l-2.5,7.4c-0.1,0.3-0.2,0.6-0.2,0.8l0,0c0-0.3-0.1-0.6-0.2-0.8L417,223h-1.8l3.5,9.8h1.8l3.5-9.8
		H422.3z M406.8,224.3c0.6,0,1,0.1,1.3,0.4s0.4,0.6,0.4,1.1c0,0.3,0,0.5-0.1,0.7s-0.2,0.4-0.4,0.5s-0.3,0.3-0.6,0.3
		s-0.4,0.1-0.7,0.1h-1.4v-3.2L406.8,224.3L406.8,224.3z M409.6,230c-0.1-0.2-0.3-0.4-0.4-0.6s-0.2-0.3-0.4-0.4s-0.2-0.3-0.4-0.4
		c-0.1-0.1-0.3-0.2-0.5-0.3l0,0c0.3-0.1,0.6-0.2,0.9-0.4s0.5-0.4,0.7-0.6s0.3-0.5,0.4-0.8s0.2-0.6,0.2-1s-0.1-0.8-0.2-1.2
		c-0.2-0.3-0.4-0.6-0.7-0.8c-0.3-0.2-0.6-0.4-1-0.5s-0.8-0.2-1.3-0.2h-3.2v9.8h1.6v-4h0.7c0.2,0,0.4,0,0.6,0.1s0.3,0.1,0.5,0.2
		s0.3,0.3,0.4,0.4c0.1,0.2,0.3,0.4,0.4,0.6l1.6,2.6h1.9L409.6,230z M402,231.4h-3.9v-2.9h3.4v-1.4h-3.4v-2.8h3.7v-1.4h-5.3v9.8h5.5
		L402,231.4L402,231.4z M393.5,223l-2.5,7.4c-0.1,0.3-0.2,0.6-0.2,0.8l0,0c0-0.3-0.1-0.6-0.2-0.8l-2.4-7.4h-1.8l3.5,9.8h1.8l3.5-9.8
		H393.5z M381.8,224.3c0.6,0,1,0.1,1.3,0.4s0.4,0.6,0.4,1.1c0,0.3,0,0.5-0.1,0.7s-0.2,0.4-0.4,0.5s-0.3,0.3-0.6,0.3
		s-0.4,0.1-0.7,0.1h-1.4v-3.2L381.8,224.3L381.8,224.3z M384.7,230c-0.1-0.2-0.3-0.4-0.4-0.6s-0.2-0.3-0.4-0.4s-0.2-0.3-0.4-0.4
		c-0.1-0.1-0.3-0.2-0.5-0.3l0,0c0.3-0.1,0.6-0.2,0.9-0.4s0.5-0.4,0.7-0.6s0.3-0.5,0.4-0.8s0.2-0.6,0.2-1s-0.1-0.8-0.2-1.2
		c-0.2-0.3-0.4-0.6-0.7-0.8c-0.3-0.2-0.6-0.4-1-0.5s-0.8-0.2-1.3-0.2h-3.2v9.8h1.6v-4h0.7c0.2,0,0.4,0,0.6,0.1s0.3,0.1,0.5,0.2
		s0.3,0.3,0.4,0.4c0.1,0.2,0.3,0.4,0.4,0.6l1.6,2.6h1.9L384.7,230z M377.1,231.4h-3.9v-2.9h3.4v-1.4h-3.4v-2.8h3.7v-1.4h-5.3v9.8
		h5.5L377.1,231.4L377.1,231.4z M364.1,232.6c0.2,0.1,0.5,0.1,0.7,0.2c0.3,0,0.5,0.1,0.7,0.1s0.4,0,0.6,0c0.5,0,1,0,1.4-0.1
		s0.8-0.3,1.2-0.5s0.6-0.5,0.8-0.8s0.3-0.8,0.3-1.3c0-0.4-0.1-0.7-0.2-1s-0.3-0.6-0.5-0.8s-0.5-0.5-0.8-0.6s-0.6-0.4-1-0.6
		c-0.3-0.1-0.6-0.3-0.9-0.4s-0.5-0.3-0.6-0.4s-0.3-0.3-0.4-0.4s-0.1-0.3-0.1-0.6c0-0.2,0.1-0.4,0.2-0.6s0.3-0.3,0.5-0.4
		s0.4-0.2,0.6-0.2s0.5-0.1,0.7-0.1c0.9,0,1.6,0.2,2.1,0.6v-1.6c-0.5-0.2-1.2-0.3-2.2-0.3c-0.5,0-0.9,0.1-1.3,0.2s-0.8,0.3-1.2,0.5
		c-0.3,0.2-0.6,0.5-0.8,0.8c-0.2,0.3-0.3,0.7-0.3,1.2c0,0.4,0.1,0.7,0.2,1s0.3,0.5,0.5,0.7s0.5,0.4,0.7,0.6s0.6,0.4,0.9,0.5
		s0.6,0.3,0.9,0.4s0.5,0.3,0.7,0.4s0.4,0.3,0.5,0.5s0.2,0.4,0.2,0.6c0,0.4-0.2,0.8-0.5,1s-0.8,0.3-1.5,0.3c-0.2,0-0.4,0-0.6-0.1
		s-0.5-0.1-0.7-0.2s-0.5-0.2-0.7-0.3s-0.4-0.2-0.5-0.4v1.7C363.7,232.5,363.8,232.6,364.1,232.6z M354.7,224.3c1.3,0,2,0.6,2,1.7
		c0,0.6-0.2,1-0.5,1.4s-0.9,0.5-1.6,0.5h-1.1v-3.6H354.7z M354.9,229.2c1.1,0,2-0.3,2.6-0.9s1-1.4,1-2.3s-0.3-1.7-0.9-2.2
		s-1.5-0.8-2.6-0.8h-3v9.8h1.6v-3.6H354.9z M346.6,224.3c1.3,0,2,0.6,2,1.7c0,0.6-0.2,1-0.5,1.4s-0.9,0.5-1.6,0.5h-1.1v-3.6H346.6z
		 M346.7,229.2c1.1,0,2-0.3,2.6-0.9s1-1.4,1-2.3s-0.3-1.7-0.9-2.2s-1.5-0.8-2.6-0.8h-3v9.8h1.6v-3.6H346.7z M336.3,229l1.3-3.9
		c0.1-0.2,0.1-0.4,0.1-0.6l0,0c0,0.3,0.1,0.5,0.1,0.6l1.4,3.9H336.3z M338.8,223H337l-3.7,9.8h1.8l0.8-2.5h3.9l0.9,2.5h1.8
		L338.8,223z"/>
	<path style="fill:none;stroke:#FFFFFF;stroke-width:1.6;stroke-miterlimit:2;" d="M416.2,196.1v16.2V196.1z"/>
	<circle style="fill:#686868;" cx="371.7" cy="173" r="0.9"/>
	<circle style="fill:#686868;" cx="398.8" cy="173" r="0.9"/>
	<path style="fill:#686868;" d="M383.1,197c0.1-0.2,0.2-0.5,0.2-0.8c0-1-0.8-1.8-1.8-1.8c-0.5,0-1,0.2-1.3,0.6l-7.6,7.7l0,0
		c-0.7,0.6-1.1,1.6-1.1,2.6c0,2,1.6,3.6,3.6,3.6c1.3,0,2.5-0.7,3.1-1.8l0,0l0,0V207L383.1,197L383.1,197z M375,206.7
		c-0.9,0-1.6-0.7-1.6-1.6s0.7-1.6,1.6-1.6s1.6,0.7,1.6,1.6S375.9,206.7,375,206.7z"/>
	<path style="fill:#686868;" d="M385.3,182.8c-2.6,0-4.7,2.1-4.7,4.7s2.1,4.7,4.7,4.7s4.7-2.1,4.7-4.7S387.9,182.8,385.3,182.8z
		 M387.1,184.8c0.2-0.2,0.7-0.2,0.9,0c0.1,0.1,0.2,0.3,0.2,0.5s-0.1,0.3-0.2,0.5c-0.1,0.1-0.3,0.2-0.5,0.2s-0.3-0.1-0.5-0.2
		C386.8,185.5,386.8,185.1,387.1,184.8z M385.3,183.7c0.4,0,0.7,0.3,0.7,0.7c0,0.4-0.3,0.7-0.7,0.7c-0.4,0-0.7-0.3-0.7-0.7
		C384.6,184,384.9,183.7,385.3,183.7z M382.6,184.8c0.2-0.2,0.7-0.2,0.9,0c0.1,0.1,0.2,0.3,0.2,0.5s-0.1,0.3-0.2,0.5
		c-0.1,0.1-0.3,0.2-0.5,0.2s-0.3-0.1-0.5-0.2C382.3,185.5,382.3,185.1,382.6,184.8z M381.5,187.5c0-0.4,0.3-0.7,0.7-0.7
		c0.4,0,0.7,0.3,0.7,0.7c0,0.4-0.3,0.7-0.7,0.7C381.8,188.2,381.5,187.9,381.5,187.5z M383.5,190.2c-0.1,0.1-0.3,0.2-0.5,0.2
		s-0.3-0.1-0.5-0.2c-0.3-0.3-0.3-0.7,0-0.9c0.2-0.2,0.7-0.2,0.9,0c0.1,0.1,0.2,0.3,0.2,0.5C383.7,189.9,383.6,190.1,383.5,190.2z
		 M385.3,191.4c-0.4,0-0.7-0.3-0.7-0.7c0-0.4,0.3-0.7,0.7-0.7c0.4,0,0.7,0.3,0.7,0.7C385.9,191.1,385.7,191.4,385.3,191.4z
		 M385.3,189.4c-1,0-1.8-0.8-1.8-1.8s0.8-1.8,1.8-1.8s1.8,0.8,1.8,1.8C387.1,188.5,386.3,189.4,385.3,189.4z M388,190.2
		c-0.1,0.1-0.3,0.2-0.5,0.2s-0.3-0.1-0.5-0.2c-0.3-0.3-0.3-0.7,0-0.9c0.2-0.2,0.7-0.2,0.9,0c0.1,0.1,0.2,0.3,0.2,0.5
		C388.2,189.9,388.1,190.1,388,190.2z M388.5,188.2c-0.4,0-0.7-0.3-0.7-0.7c0-0.4,0.3-0.7,0.7-0.7c0.4,0,0.7,0.3,0.7,0.7
		C389.1,187.9,388.8,188.2,388.5,188.2z"/>
	<path style="fill:#686868;" d="M403.3,196.1v-23.9c0-1.8-1.5-3.2-3.2-3.2h-29.5c-1.8,0-3.2,1.5-3.2,3.2v37.5c0,1.8,1.5,3.2,3.2,3.2
		H400c0.7,0,1.4-0.2,1.9-0.6h10.9v-16.2H403.3z M388.9,210.6h-18.4c-0.6,0-1-0.5-1-1v-37.5c0-0.6,0.5-1,1-1H400c0.6,0,1,0.5,1,1V196
		h-6.8c2.1-2.2,3.4-5.2,3.4-8.5c0-6.9-5.6-12.5-12.5-12.5s-12.5,5.6-12.5,12.5c0,3.6,1.6,6.9,4,9.2l2.6-2.6c0.6-0.6,1.3-0.9,2.1-0.9
		c1.6,0,3,1.3,3,3c0,0.4-0.1,0.8-0.2,1.2l-0.1,0.2l-1.1,2.3c0.7,0.1,1.5,0.2,2.2,0.2c1.3,0,2.5-0.2,3.7-0.6L388.9,210.6L388.9,210.6
		z M385.2,193.4c-3.2,0-5.9-2.6-5.9-5.9c0-3.2,2.6-5.9,5.9-5.9c3.2,0,5.9,2.6,5.9,5.9S388.5,193.4,385.2,193.4z M411.8,211.2h-9
		h-12.9v-0.6v-10.9H401h2.2h8.6L411.8,211.2L411.8,211.2z"/>
	<polygon style="fill:#686868;" points="401.9,206 401.9,207 403.3,207 409.8,207 409.8,206 403.3,206 	"/>
	<polygon style="fill:#686868;" points="401.9,208.1 401.9,209.1 403.3,209.1 409.8,209.1 409.8,208.1 403.3,208.1 	"/>
	<polygon style="fill:#686868;" points="392,209.1 398.2,209.1 399.3,209.1 399.3,207.8 399.3,201.8 392,201.8 	"/>
	<polygon style="fill:#686868;" points="401.9,201.8 401.9,202.8 403.3,202.8 409.8,202.8 409.8,201.8 403.3,201.8 	"/>
	<polygon style="fill:#686868;" points="401.9,203.9 401.9,204.9 403.3,204.9 409.8,204.9 409.8,203.9 403.3,203.9 	"/>
	<path style="fill:#686868;" d="M429.6,311.7c2.4,0,3.6,1.1,3.6,3.4c0,1.1-0.3,2-1,2.7s-1.5,0.9-2.7,0.9h-1.3v-7H429.6z
		 M429.4,320.2c1.7,0,3-0.5,4-1.4s1.5-2.1,1.5-3.6c0-3.2-1.8-4.8-5.4-4.8h-2.8v9.8H429.4z M424.2,310.4h-1.6v4.1H418v-4.1h-1.6v9.8
		h1.6v-4.3h4.6v4.3h1.6V310.4z M413.3,310.4l-2.5,7.4c-0.1,0.3-0.2,0.6-0.2,0.8l0,0c0-0.3-0.1-0.6-0.2-0.8l-2.4-7.4h-1.8l3.5,9.8
		h1.8l3.5-9.8H413.3z M396.1,316.3l1.3-3.9c0.1-0.2,0.1-0.4,0.1-0.6l0,0c0,0.3,0.1,0.5,0.1,0.6l1.4,3.9H396.1z M398.5,310.4h-1.8
		l-3.7,9.8h1.8l0.8-2.5h3.9l0.9,2.5h1.8L398.5,310.4z M392.7,310.4h-7.3v1.4h2.8v8.4h1.6v-8.4h2.8v-1.4H392.7z M379,316.3l1.3-3.9
		c0.1-0.2,0.1-0.4,0.1-0.6l0,0c0,0.3,0.1,0.5,0.1,0.6l1.4,3.9H379z M381.4,310.4h-1.8l-3.7,9.8h1.8l0.8-2.5h3.9l0.9,2.5h1.8
		L381.4,310.4z M370,311.7c2.4,0,3.6,1.1,3.6,3.4c0,1.1-0.3,2-1,2.7s-1.5,0.9-2.7,0.9h-1.3v-7H370z M369.7,320.2c1.7,0,3-0.5,4-1.4
		s1.5-2.1,1.5-3.6c0-3.2-1.8-4.8-5.4-4.8H367v9.8H369.7z M357.5,315.8c1.4,0,2.1,0.5,2.1,1.5c0,0.5-0.2,0.9-0.5,1.2
		c-0.3,0.3-0.8,0.4-1.4,0.4h-1.4v-3.1H357.5z M357.5,311.7c1.1,0,1.7,0.4,1.7,1.3c0,0.5-0.2,0.9-0.5,1.1c-0.3,0.3-0.8,0.4-1.3,0.4
		h-1.1v-2.8H357.5z M357.8,320.2c1,0,1.8-0.3,2.5-0.8s1-1.2,1-2c0-0.7-0.2-1.2-0.6-1.6s-0.9-0.7-1.6-0.7l0,0c0.6-0.2,1-0.5,1.3-0.9
		s0.5-0.9,0.5-1.4c0-0.7-0.3-1.2-0.8-1.6s-1.3-0.6-2.3-0.6h-3.1v9.8h3.1V320.2z M347.6,311.7c2.4,0,3.6,1.1,3.6,3.4
		c0,1.1-0.3,2-1,2.7s-1.5,0.9-2.7,0.9h-1.3v-7H347.6z M347.3,320.2c1.7,0,3-0.5,4-1.4s1.5-2.1,1.5-3.6c0-3.2-1.8-4.8-5.4-4.8h-2.8
		v9.8H347.3z"/>
	<circle style="fill:#686868;" cx="372" cy="258.2" r="0.9"/>
	<circle style="fill:#686868;" cx="399.1" cy="258.2" r="0.9"/>
	<path style="fill:#686868;" d="M398,272.7c0-6.9-5.6-12.5-12.5-12.5s-12.5,5.6-12.5,12.5c0,3.6,1.6,6.9,4,9.2l2.6-2.6
		c0.6-0.6,1.3-0.9,2.1-0.9c1.6,0,3,1.3,3,3c0,0.4-0.1,0.8-0.2,1.2l-0.1,0.2l-1.1,2.3c0.7,0.1,1.5,0.2,2.2,0.2
		C392.4,285.2,398,279.6,398,272.7z M379.6,272.7c0-3.2,2.6-5.9,5.9-5.9c3.2,0,5.9,2.6,5.9,5.9c0,3.2-2.6,5.9-5.9,5.9
		S379.6,275.9,379.6,272.7z"/>
	<path style="fill:#686868;" d="M378.5,292L378.5,292l5-9.8l0,0c0.1-0.2,0.2-0.5,0.2-0.8c0-1-0.8-1.8-1.8-1.8c-0.5,0-1,0.2-1.3,0.6
		l-7.6,7.7l0,0c-0.7,0.6-1.1,1.6-1.1,2.6c0,2,1.6,3.6,3.6,3.6C376.7,293.9,377.8,293.1,378.5,292L378.5,292L378.5,292z M375.3,291.9
		c-0.9,0-1.6-0.7-1.6-1.6s0.7-1.6,1.6-1.6s1.6,0.7,1.6,1.6S376.2,291.9,375.3,291.9z"/>
	<path style="fill:#686868;" d="M385.6,268c-2.6,0-4.7,2.1-4.7,4.7s2.1,4.7,4.7,4.7s4.7-2.1,4.7-4.7
		C390.3,270.1,388.2,268,385.6,268z M387.4,270c0.2-0.2,0.7-0.2,0.9,0c0.1,0.1,0.2,0.3,0.2,0.5s-0.1,0.3-0.2,0.5
		c-0.1,0.1-0.3,0.2-0.5,0.2s-0.3-0.1-0.5-0.2C387.1,270.7,387.1,270.3,387.4,270z M385.6,268.9c0.4,0,0.7,0.3,0.7,0.7
		c0,0.4-0.3,0.7-0.7,0.7c-0.4,0-0.7-0.3-0.7-0.7S385.2,268.9,385.6,268.9z M382.9,270c0.2-0.2,0.7-0.2,0.9,0
		c0.1,0.1,0.2,0.3,0.2,0.5s-0.1,0.3-0.2,0.5c-0.1,0.1-0.3,0.2-0.5,0.2s-0.3-0.1-0.5-0.2C382.6,270.7,382.6,270.3,382.9,270z
		 M381.8,272.7c0-0.4,0.3-0.7,0.7-0.7c0.4,0,0.7,0.3,0.7,0.7c0,0.4-0.3,0.7-0.7,0.7C382,273.4,381.8,273.1,381.8,272.7z
		 M383.8,275.4c-0.1,0.1-0.3,0.2-0.5,0.2s-0.3-0.1-0.5-0.2c-0.3-0.3-0.3-0.7,0-0.9c0.2-0.2,0.7-0.2,0.9,0c0.1,0.1,0.2,0.3,0.2,0.5
		C384,275.1,383.9,275.3,383.8,275.4z M385.6,276.5c-0.4,0-0.7-0.3-0.7-0.7c0-0.4,0.3-0.7,0.7-0.7c0.4,0,0.7,0.3,0.7,0.7
		S385.9,276.5,385.6,276.5z M385.6,274.5c-1,0-1.8-0.8-1.8-1.8s0.8-1.8,1.8-1.8s1.8,0.8,1.8,1.8
		C387.4,273.7,386.6,274.5,385.6,274.5z M388.3,275.4c-0.1,0.1-0.3,0.2-0.5,0.2s-0.3-0.1-0.5-0.2c-0.3-0.3-0.3-0.7,0-0.9
		c0.2-0.2,0.7-0.2,0.9,0c0.1,0.1,0.2,0.3,0.2,0.5C388.5,275.1,388.4,275.3,388.3,275.4z M388.8,273.4c-0.4,0-0.7-0.3-0.7-0.7
		c0-0.4,0.3-0.7,0.7-0.7c0.4,0,0.7,0.3,0.7,0.7C389.4,273.1,389.1,273.4,388.8,273.4z"/>
	<path style="fill:#686868;" d="M403.6,283.1c-0.8-0.1-1.5-0.2-2.2-0.3c-1.2-0.3-2.2-0.7-2.9-1.2V293v1.3v0.6c0,0.3,0.1,0.6,0.3,0.9
		h-27.9c-0.6,0-1-0.5-1-1v-37.5c0-0.6,0.5-1,1-1h29.5c0.6,0,1,0.5,1,1v20.6c-1.8,0.4-2.9,1.1-2.9,2s1.2,1.5,2.9,2
		c0.7,0.2,1.4,0.3,2.2,0.3c0.5,0,1,0.1,1.5,0.1c3.6,0,6.6-1.1,6.6-2.4s-3-2.4-6.6-2.4c-0.5,0-1,0-1.5,0.1v-20.3
		c0-1.8-1.5-3.2-3.2-3.2h-29.5c-1.8,0-3.2,1.5-3.2,3.2v37.5c0,1.8,1.5,3.2,3.2,3.2h29.5c0.6,0,1.2-0.2,1.7-0.5
		c0.9,0.2,1.9,0.3,3,0.3c3.6,0,6.6-1.3,6.6-3v-13.3c-1.4,1.1-4.1,1.6-6.6,1.6C404.6,283.2,404.1,283.2,403.6,283.1z"/>
	<path style="fill:#686868;" d="M612.1,283.7c-0.2-0.1-0.4-0.1-0.7-0.1c-0.4,0-0.8,0.1-1.1,0.4s-0.6,0.7-0.7,1.2l0,0v-1.4H608v7h1.6
		v-3.3c0-0.7,0.2-1.3,0.5-1.7s0.7-0.6,1.2-0.6c0.4,0,0.6,0.1,0.8,0.2V283.7z M604.3,285.4c0.3,0.4,0.5,1,0.5,1.8s-0.2,1.4-0.5,1.8
		s-0.8,0.6-1.4,0.6c-0.6,0-1.1-0.2-1.5-0.6s-0.5-1-0.5-1.7c0-0.8,0.2-1.4,0.5-1.8s0.9-0.6,1.5-0.6C603.5,284.8,604,285,604.3,285.4z
		 M605.4,289.8c0.7-0.7,1-1.6,1-2.7s-0.3-2-0.9-2.7s-1.5-1-2.6-1s-2,0.3-2.7,1s-1,1.6-1,2.8c0,1.1,0.3,1.9,1,2.6
		c0.6,0.7,1.5,1,2.6,1C603.9,290.8,604.8,290.5,605.4,289.8z M591.7,287l2.9-3.4h-1.9l-2.6,3.2l0,0v-6.6h-1.6v10.4h1.6v-3.4l0,0
		l2.7,3.4h2L591.7,287z M584,290.8c0.4,0,0.8,0,1.1-0.1c0.4-0.1,0.7-0.2,0.9-0.4s0.5-0.4,0.7-0.7s0.2-0.6,0.2-0.9s0-0.5-0.1-0.8
		c-0.1-0.2-0.2-0.4-0.4-0.6s-0.4-0.3-0.6-0.4s-0.5-0.3-0.8-0.4c-0.2-0.1-0.4-0.1-0.6-0.2c-0.2-0.1-0.3-0.1-0.5-0.2
		c-0.1-0.1-0.2-0.2-0.3-0.3s-0.1-0.2-0.1-0.4c0-0.1,0-0.2,0.1-0.3c0.1-0.1,0.2-0.2,0.3-0.3s0.3-0.1,0.4-0.2s0.3-0.1,0.5-0.1
		c0.6,0,1.2,0.2,1.7,0.5v-1.4c-0.5-0.2-1.1-0.3-1.7-0.3c-0.4,0-0.7,0-1.1,0.1c-0.3,0.1-0.6,0.2-0.9,0.4c-0.3,0.2-0.5,0.4-0.6,0.7
		c-0.2,0.3-0.2,0.6-0.2,0.9s0,0.5,0.1,0.7s0.2,0.4,0.3,0.6c0.2,0.2,0.3,0.3,0.6,0.4s0.5,0.2,0.8,0.4c0.2,0.1,0.4,0.2,0.6,0.2
		s0.4,0.1,0.5,0.2s0.2,0.2,0.3,0.3c0.1,0.1,0.1,0.2,0.1,0.4c0,0.6-0.5,0.8-1.4,0.8c-0.7,0-1.4-0.2-2-0.7v1.5
		C582.6,290.7,583.2,290.8,584,290.8z M580.4,283.7h-1.6v7h1.6V283.7z M580.3,281.9c0.2-0.2,0.3-0.4,0.3-0.6c0-0.3-0.1-0.5-0.3-0.6
		s-0.4-0.3-0.7-0.3s-0.5,0.1-0.7,0.3s-0.3,0.4-0.3,0.6s0.1,0.5,0.3,0.6s0.4,0.3,0.7,0.3C579.9,282.2,580.1,282.1,580.3,281.9z
		 M571.9,282.2c2.4,0,3.6,1.1,3.6,3.4c0,1.1-0.3,2-1,2.7s-1.5,0.9-2.7,0.9h-1.3v-7H571.9z M571.6,290.7c1.7,0,3-0.5,4-1.4
		s1.5-2.1,1.5-3.6c0-3.2-1.8-4.8-5.4-4.8h-2.8v9.8H571.6z M558.6,286.5c0.1-0.5,0.3-1,0.6-1.3s0.7-0.5,1.2-0.5s0.8,0.2,1.1,0.5
		s0.4,0.8,0.4,1.3H558.6z M563.4,287c0-1.1-0.3-1.9-0.8-2.6s-1.3-0.9-2.2-0.9s-1.8,0.3-2.4,1c-0.6,0.7-1,1.6-1,2.7
		c0,1.2,0.3,2,0.9,2.7c0.6,0.6,1.4,1,2.4,1s1.9-0.2,2.5-0.6V289c-0.6,0.4-1.3,0.7-2.1,0.7c-0.7,0-1.2-0.2-1.6-0.5s-0.6-0.8-0.6-1.5
		h4.8L563.4,287L563.4,287z M556.1,289.3c-0.2,0.2-0.4,0.2-0.7,0.2c-0.4,0-0.6-0.1-0.8-0.3s-0.2-0.5-0.2-0.9v-3.5h1.7v-1.2h-1.7
		v-2.1l-1.6,0.5v1.6h-1.2v1.2h1.2v4c0,1.3,0.7,2,2,2c0.5,0,0.9-0.1,1.2-0.2L556.1,289.3L556.1,289.3z M548.9,287.8
		c0,0.5-0.2,0.9-0.5,1.3c-0.3,0.3-0.7,0.5-1.2,0.5c-0.4,0-0.6-0.1-0.9-0.3c-0.2-0.2-0.3-0.4-0.3-0.7c0-0.4,0.1-0.7,0.3-0.9
		c0.2-0.2,0.6-0.3,1-0.3l1.5-0.2v0.6H548.9z M550.5,286.1c0-1.7-0.9-2.6-2.7-2.6c-1,0-1.8,0.2-2.6,0.7v1.4c0.7-0.6,1.4-0.9,2.3-0.9
		c0.9,0,1.4,0.5,1.4,1.5l-2.1,0.3c-1.5,0.2-2.3,1-2.3,2.3c0,0.6,0.2,1.1,0.6,1.5s0.9,0.6,1.6,0.6c0.9,0,1.6-0.4,2.1-1.3l0,0v1.1h1.5
		v-4.6H550.5z M538.8,286.5c0.1-0.5,0.3-1,0.6-1.3s0.7-0.5,1.2-0.5s0.8,0.2,1.1,0.5s0.4,0.8,0.4,1.3H538.8z M543.6,287
		c0-1.1-0.3-1.9-0.8-2.6s-1.3-0.9-2.2-0.9s-1.8,0.3-2.4,1c-0.6,0.7-1,1.6-1,2.7c0,1.2,0.3,2,0.9,2.7c0.6,0.6,1.4,1,2.4,1
		s1.9-0.2,2.5-0.6V289c-0.6,0.4-1.3,0.7-2.1,0.7c-0.7,0-1.2-0.2-1.6-0.5s-0.6-0.8-0.6-1.5h4.8L543.6,287L543.6,287z M536.5,283.7
		c-0.2-0.1-0.4-0.1-0.7-0.1c-0.4,0-0.8,0.1-1.1,0.4s-0.6,0.7-0.7,1.2l0,0v-1.4h-1.6v7h1.6v-3.3c0-0.7,0.2-1.3,0.5-1.7
		s0.7-0.6,1.2-0.6c0.4,0,0.6,0.1,0.8,0.2V283.7z M530.8,288.8c-0.7,0.4-1.5,0.7-2.4,0.7c-1,0-1.8-0.3-2.4-1
		c-0.6-0.6-0.9-1.5-0.9-2.6s0.3-2,1-2.7s1.5-1,2.6-1c0.8,0,1.5,0.2,2.2,0.6v-1.6c-0.6-0.3-1.4-0.4-2.4-0.4c-1.5,0-2.7,0.5-3.7,1.4
		s-1.4,2.2-1.4,3.8c0,1.5,0.4,2.6,1.3,3.5s2,1.3,3.4,1.3c1.1,0,2-0.2,2.8-0.6L530.8,288.8L530.8,288.8z"/>
	<path style="fill:#686868;" d="M641.6,303.2c0-0.9-0.2-1.6-0.6-2.1c-0.4-0.5-1-0.7-1.7-0.7c-1,0-1.7,0.4-2.3,1.3l0,0v-1.2h-1.6v7
		h1.6v-4c0-0.6,0.2-1,0.5-1.4s0.7-0.5,1.2-0.5c0.9,0,1.4,0.7,1.4,2v3.9h1.6v-4.3L641.6,303.2L641.6,303.2z M631.6,302.2
		c0.3,0.4,0.5,1,0.5,1.8s-0.2,1.4-0.5,1.8s-0.8,0.6-1.4,0.6c-0.6,0-1.1-0.2-1.5-0.6s-0.5-1-0.5-1.7c0-0.8,0.2-1.4,0.5-1.8
		s0.9-0.6,1.5-0.6C630.8,301.6,631.3,301.8,631.6,302.2z M632.7,306.6c0.7-0.7,1-1.6,1-2.7s-0.3-2-0.9-2.7s-1.5-1-2.6-1
		s-2,0.3-2.7,1s-1,1.6-1,2.8c0,1.1,0.3,1.9,1,2.6c0.6,0.7,1.5,1,2.6,1C631.2,307.6,632.1,307.3,632.7,306.6z M624.9,300.5h-1.6v7
		h1.6V300.5z M624.8,298.7c0.2-0.2,0.3-0.4,0.3-0.6c0-0.3-0.1-0.5-0.3-0.6s-0.4-0.3-0.7-0.3s-0.5,0.1-0.7,0.3s-0.3,0.4-0.3,0.6
		s0.1,0.5,0.3,0.6s0.4,0.3,0.7,0.3C624.4,299,624.6,298.9,624.8,298.7z M618.8,307.6c0.4,0,0.8,0,1.1-0.1c0.4-0.1,0.7-0.2,0.9-0.4
		s0.5-0.4,0.7-0.7s0.2-0.6,0.2-0.9s0-0.5-0.1-0.8c-0.1-0.2-0.2-0.4-0.4-0.6s-0.4-0.3-0.6-0.4s-0.5-0.3-0.8-0.4
		c-0.2-0.1-0.4-0.1-0.6-0.2c-0.2-0.1-0.3-0.1-0.5-0.2c-0.1-0.1-0.2-0.2-0.3-0.3s-0.1-0.2-0.1-0.4c0-0.1,0-0.2,0.1-0.3
		c0.1-0.1,0.2-0.2,0.3-0.3s0.3-0.1,0.4-0.2s0.3-0.1,0.5-0.1c0.6,0,1.2,0.2,1.7,0.5v-1.4c-0.5-0.2-1.1-0.3-1.7-0.3
		c-0.4,0-0.7,0-1.1,0.1c-0.3,0.1-0.6,0.2-0.9,0.4c-0.3,0.2-0.5,0.4-0.6,0.7c-0.2,0.3-0.2,0.6-0.2,0.9s0,0.5,0.1,0.7s0.2,0.4,0.3,0.6
		c0.2,0.2,0.3,0.3,0.6,0.4s0.5,0.2,0.8,0.4c0.2,0.1,0.4,0.2,0.6,0.2s0.4,0.1,0.5,0.2s0.2,0.2,0.3,0.3c0.1,0.1,0.1,0.2,0.1,0.4
		c0,0.6-0.5,0.8-1.4,0.8c-0.7,0-1.4-0.2-2-0.7v1.5C617.4,307.5,618.1,307.6,618.8,307.6z M615.2,300.5h-1.6v7h1.6V300.5z
		 M615.1,298.7c0.2-0.2,0.3-0.4,0.3-0.6c0-0.3-0.1-0.5-0.3-0.6s-0.4-0.3-0.7-0.3s-0.5,0.1-0.7,0.3s-0.3,0.4-0.3,0.6s0.1,0.5,0.3,0.6
		s0.4,0.3,0.7,0.3C614.7,299,614.9,298.9,615.1,298.7z M610.9,300.5l-1.6,4.9c-0.1,0.3-0.2,0.6-0.2,0.9l0,0c0-0.3-0.1-0.6-0.2-0.9
		l-1.6-4.9h-1.7l2.6,7h1.7l2.7-7H610.9z M602.8,302.2c0.3,0.4,0.5,1,0.5,1.8s-0.2,1.4-0.5,1.8s-0.8,0.6-1.4,0.6
		c-0.6,0-1.1-0.2-1.5-0.6s-0.5-1-0.5-1.7c0-0.8,0.2-1.4,0.5-1.8s0.9-0.6,1.5-0.6C602,301.6,602.5,301.8,602.8,302.2z M603.9,306.6
		c0.7-0.7,1-1.6,1-2.7s-0.3-2-0.9-2.7s-1.5-1-2.6-1s-2,0.3-2.7,1s-1,1.6-1,2.8c0,1.1,0.3,1.9,1,2.6c0.6,0.7,1.5,1,2.6,1
		C602.4,307.6,603.3,307.3,603.9,306.6z M597.1,300.5c-0.2-0.1-0.4-0.1-0.7-0.1c-0.4,0-0.8,0.1-1.1,0.4s-0.6,0.7-0.7,1.2l0,0v-1.4
		H593v7h1.6v-3.3c0-0.7,0.2-1.3,0.5-1.7s0.7-0.6,1.2-0.6c0.4,0,0.6,0.1,0.8,0.2V300.5z M586.6,302.2c0.3-0.4,0.8-0.6,1.4-0.6
		c0.5,0,1,0.2,1.3,0.6s0.5,0.9,0.5,1.6c0,0.8-0.2,1.5-0.5,1.9c-0.3,0.5-0.8,0.7-1.4,0.7c-0.5,0-0.9-0.2-1.2-0.5s-0.5-0.8-0.5-1.3
		v-0.9C586.1,303.1,586.3,302.6,586.6,302.2z M588.2,307.6c1,0,1.7-0.4,2.3-1.1s0.8-1.6,0.8-2.8c0-1.1-0.2-1.9-0.7-2.5
		s-1.2-0.9-2.1-0.9c-1,0-1.8,0.5-2.4,1.4l0,0v-1.2h-1.6v10.2h1.6v-4.3l0,0C586.7,307.2,587.3,307.6,588.2,307.6z M577,302.2
		c0.3,0.4,0.5,1,0.5,1.8s-0.2,1.4-0.5,1.8s-0.8,0.6-1.4,0.6c-0.6,0-1.1-0.2-1.5-0.6s-0.5-1-0.5-1.7c0-0.8,0.2-1.4,0.5-1.8
		s0.9-0.6,1.5-0.6C576.2,301.6,576.6,301.8,577,302.2z M578.1,306.6c0.7-0.7,1-1.6,1-2.7s-0.3-2-0.9-2.7s-1.5-1-2.6-1s-2,0.3-2.7,1
		s-1,1.6-1,2.8c0,1.1,0.3,1.9,1,2.6c0.6,0.7,1.5,1,2.6,1C576.6,307.6,577.4,307.3,578.1,306.6z M571,306.1c-0.2,0.2-0.4,0.2-0.7,0.2
		c-0.4,0-0.6-0.1-0.8-0.3s-0.2-0.5-0.2-0.9v-3.5h1.7v-1.2h-1.7v-2.1l-1.6,0.5v1.6h-1.2v1.2h1.2v4c0,1.3,0.7,2,2,2
		c0.5,0,0.9-0.1,1.2-0.2L571,306.1L571,306.1z M557.2,303.3c0.1-0.5,0.3-1,0.6-1.3s0.7-0.5,1.2-0.5s0.8,0.2,1.1,0.5s0.4,0.8,0.4,1.3
		H557.2z M561.9,303.8c0-1.1-0.3-1.9-0.8-2.6s-1.3-0.9-2.2-0.9s-1.8,0.3-2.4,1c-0.6,0.7-1,1.6-1,2.7c0,1.2,0.3,2,0.9,2.7
		c0.6,0.6,1.4,1,2.4,1s1.9-0.2,2.5-0.6v-1.3c-0.6,0.4-1.3,0.7-2.1,0.7c-0.7,0-1.2-0.2-1.6-0.5s-0.6-0.8-0.6-1.5h4.8L561.9,303.8
		L561.9,303.8z M551.9,305.8c-0.3,0.4-0.8,0.6-1.3,0.6s-1-0.2-1.3-0.6s-0.5-1-0.5-1.7c0-0.8,0.2-1.4,0.5-1.9
		c0.3-0.4,0.8-0.7,1.4-0.7c0.5,0,0.9,0.2,1.2,0.5s0.5,0.8,0.5,1.3v0.9C552.4,304.9,552.2,305.4,551.9,305.8z M553.9,300.5h-1.6v1
		l0,0c-0.4-0.8-1.1-1.1-2.1-1.1s-1.8,0.4-2.3,1.1s-0.8,1.6-0.8,2.8c0,1,0.3,1.9,0.8,2.5s1.2,0.9,2.1,0.9c1.1,0,1.8-0.4,2.4-1.3l0,0
		v0.8c0,1.6-0.8,2.5-2.5,2.5c-0.7,0-1.4-0.2-2.2-0.7v1.4c0.7,0.3,1.5,0.5,2.4,0.5c2.6,0,3.9-1.3,3.9-3.9v-6.5L553.9,300.5
		L553.9,300.5z M544.1,304.6c0,0.5-0.2,0.9-0.5,1.3c-0.3,0.3-0.7,0.5-1.2,0.5c-0.4,0-0.6-0.1-0.9-0.3c-0.2-0.2-0.3-0.4-0.3-0.7
		c0-0.4,0.1-0.7,0.3-0.9c0.2-0.2,0.6-0.3,1-0.3l1.5-0.2v0.6H544.1z M545.6,302.9c0-1.7-0.9-2.6-2.7-2.6c-1,0-1.8,0.2-2.6,0.7v1.4
		c0.7-0.6,1.4-0.9,2.3-0.9c0.9,0,1.4,0.5,1.4,1.5l-2.1,0.3c-1.5,0.2-2.3,1-2.3,2.3c0,0.6,0.2,1.1,0.6,1.5s0.9,0.6,1.6,0.6
		c0.9,0,1.6-0.4,2.1-1.3l0,0v1.1h1.5v-4.6H545.6z M538.3,303.2c0-1.9-0.8-2.9-2.3-2.9c-1,0-1.8,0.5-2.3,1.4c-0.1-0.4-0.4-0.8-0.7-1
		c-0.4-0.3-0.8-0.4-1.3-0.4c-1,0-1.7,0.4-2.2,1.3l0,0v-1.1h-1.6v7h1.6v-3.8c0-0.6,0.1-1.1,0.4-1.5s0.6-0.6,1.1-0.6
		c0.9,0,1.4,0.7,1.4,2v3.9h1.6v-3.8c0-0.6,0.1-1.1,0.4-1.5s0.6-0.6,1.1-0.6s0.8,0.2,1,0.5s0.3,0.9,0.3,1.6v3.8h1.6L538.3,303.2
		L538.3,303.2z M525.6,297.7H524v9.8h1.7v-9.8H525.6z"/>
	
		<line style="fill:none;stroke:#DEDEDE;stroke-width:4;stroke-linecap:round;stroke-linejoin:round;stroke-miterlimit:10;" x1="254.6" y1="204.6" x2="315.6" y2="204.6"/>
	
		<line style="fill:none;stroke:#DEDEDE;stroke-width:3;stroke-linecap:round;stroke-linejoin:round;stroke-miterlimit:10;" x1="317.7" y1="204.4" x2="309.8" y2="196.6"/>
	
		<line style="fill:none;stroke:#DEDEDE;stroke-width:3;stroke-linecap:round;stroke-linejoin:round;stroke-miterlimit:10;" x1="317.7" y1="204.4" x2="309.8" y2="212.2"/>
	
		<line style="fill:none;stroke:#DEDEDE;stroke-width:4;stroke-linecap:round;stroke-linejoin:round;stroke-miterlimit:10;" x1="465.1" y1="204.6" x2="495.6" y2="204.6"/>
	
		<line style="fill:none;stroke:#DEDEDE;stroke-width:3;stroke-linecap:round;stroke-linejoin:round;stroke-miterlimit:10;" x1="497.7" y1="204.4" x2="489.8" y2="196.6"/>
	
		<line style="fill:none;stroke:#DEDEDE;stroke-width:3;stroke-linecap:round;stroke-linejoin:round;stroke-miterlimit:10;" x1="497.7" y1="204.4" x2="489.8" y2="212.2"/>
	<path style="fill:none;stroke:#DEDEDE;stroke-width:3;stroke-linecap:round;stroke-linejoin:round;stroke-miterlimit:10;" d="
		M446.8,336.9h8.1c5.4,0,9.8-4.4,9.8-9.8v-86.4v-73.9V80.4c0-5.4-4.4-9.8-9.8-9.8h-8.1"/>
	<path style="fill:#DEDEDE;" d="M393.4,347.6c-0.4,0-0.8-0.2-1.1-0.5l-7.8-8c-0.6-0.6-0.6-1.5,0-2.1s1.5-0.6,2.1,0l7.8,8
		c0.6,0.6,0.6,1.5,0,2.1C394.2,347.4,393.8,347.6,393.4,347.6z"/>
	<path style="fill:#DEDEDE;" d="M377.8,347.6c-0.4,0-0.8-0.1-1-0.4c-0.6-0.6-0.6-1.5,0-2.1l7.8-8c0.6-0.6,1.5-0.6,2.1,0
		s0.6,1.5,0,2.1l-7.8,8C378.6,347.4,378.2,347.6,377.8,347.6z"/>
	
		<line style="fill:none;stroke:#DEDEDE;stroke-width:3;stroke-linecap:round;stroke-linejoin:round;stroke-miterlimit:10;" x1="385.6" y1="56.9" x2="393.4" y2="49"/>
	
		<line style="fill:none;stroke:#DEDEDE;stroke-width:3;stroke-linecap:round;stroke-linejoin:round;stroke-miterlimit:10;" x1="385.6" y1="56.9" x2="377.8" y2="49"/>
	<path style="fill:#DEDEDE;" d="M10.9,380.6c-1.1,0-1.9,0.8-2,1.9h4C12.9,381.4,12,380.6,10.9,380.6z"/>
	<path style="fill:#00BCF2;" d="M664.8,380c0-1.1-0.9-2-2-2s-2,0.9-2,2v2.5h4V380z"/>
	<path style="fill:#DEDEDE;" d="M385.6,339.6c-0.8,0-1.5,0.7-1.5,1.5v41.4h3v-41.4C387.1,340.3,386.5,339.6,385.6,339.6z"/>
	<path style="fill:#DEDEDE;" d="M297.1,0.8c0.5,0,0.9-0.2,1.2-0.4h-2.4C296.2,0.6,296.6,0.8,297.1,0.8z"/>
	<path style="fill:#00BCF2;" d="M660.8,2v5c0,1.1,0.9,2,2,2c1.1,0,2-0.9,2-2V2c0-0.7-0.3-1.3-0.8-1.6h-2.3
		C661.1,0.7,660.8,1.3,660.8,2z"/>
	<path style="fill:#00BCF2;" d="M947.3,0.4c0.3,0.6,1,1,1.7,1s1.4-0.4,1.7-1H947.3z"/>
	<path style="fill:#DEDEDE;" d="M568,259.8c9.7,0,18.8-2.5,26.8-6.9v0.1l82-48.3l-0.1-0.1h0.1c0,0-0.1,0-0.2,0l-81.8-48.3v0.1
				c-7.9-4.4-17.1-6.9-26.8-6.9c-30.5,0-55.2,24.7-55.2,55.2S537.5,259.8,568,259.8z"/>
		<path style="fill:#FFFFFF;" d="M578,167.9h-21.3L546,186.3l10.7,18.4H578l10.7-18.4L578,167.9z M578,194.6
			c0,1.6-1.3,2.9-2.9,2.9h-15.6c-1.6,0-2.9-1.3-2.9-2.9v-16.5c0-1.6,1.3-2.9,2.9-2.9h11.6c1.1,0,2.2,0,2.2,0h0.3l4.4,4.4V194.6z"
			/>
		<path style="fill:#FFFFFF;" d="M565.7,189.3c0-0.2-0.1-0.3-0.1-0.4s-0.1-0.2-0.2-0.3l-0.2-0.1c-0.1,0-0.2,0-0.3,0
			c-0.2,0-0.3,0-0.5,0.1c-0.1,0.1-0.2,0.2-0.3,0.4c-0.1,0.2-0.1,0.4-0.2,0.7c0,0.3,0,0.6,0,1s0,0.8,0.1,1.1c0,0.3,0.1,0.5,0.2,0.7
			c0.1,0.2,0.2,0.3,0.3,0.4s0.3,0.1,0.4,0.1c0.1,0,0.2,0,0.3-0.1c0.1,0,0.2-0.1,0.3-0.2s0.1-0.2,0.2-0.3c0-0.1,0.1-0.3,0.1-0.4
			c0-0.2,0.1-0.3,0.1-0.5s0-0.4,0-0.7c0-0.3,0-0.6,0-0.8C565.7,189.7,565.7,189.5,565.7,189.3z"/>
		<path style="fill:#FFFFFF;" d="M570.7,180.7c0-0.2-0.1-0.3-0.1-0.4s-0.1-0.2-0.2-0.3c-0.1-0.1-0.2-0.1-0.2-0.1
			c-0.1,0-0.2,0-0.3,0c-0.2,0-0.3,0-0.5,0.1s-0.2,0.2-0.3,0.4c-0.1,0.2-0.1,0.4-0.2,0.7c0,0.3,0,0.6,0,1s0,0.8,0.1,1.1
			c0,0.3,0.1,0.5,0.2,0.7c0.1,0.2,0.2,0.3,0.3,0.4s0.3,0.1,0.4,0.1c0.1,0,0.2,0,0.3-0.1c0.1,0,0.2-0.1,0.3-0.2s0.1-0.2,0.2-0.3
			c0-0.1,0.1-0.3,0.1-0.4c0-0.2,0.1-0.3,0.1-0.5s0-0.4,0-0.7c0-0.3,0-0.6,0-0.8C570.8,181.1,570.7,180.9,570.7,180.7z"/>
		<path style="fill:#FFFFFF;" d="M572.9,176.8c-0.4,0-1.1,0-1.8,0h-11.6c-0.7,0-1.3,0.6-1.3,1.3v16.5c0,0.7,0.6,1.3,1.3,1.3h15.7
			c0.7,0,1.3-0.6,1.3-1.3v-14.2h-3.6L572.9,176.8L572.9,176.8z M563,180.1L563,180.1l0.1-0.2l0.1-0.1l1.3-0.9h0.1h0.1h0.2
			c0.1,0,0.1,0,0.2,0c0.1,0,0.2,0,0.3,0h0.2h0.1v0.1v5.2h1h0.1l0.1,0.1v0.2c0,0.1,0,0.1,0,0.2s0,0.2,0,0.2v0.2l-0.1,0.1h-0.1h-3.5
			h-0.1l-0.1-0.1v-0.2c0-0.1,0-0.1,0-0.2s0-0.2,0-0.2v-0.2l0.1-0.1h0.1h1.2v-4.1l-1,0.6l-0.2,0.1h-0.1l-0.1-0.1c0-0.1,0-0.2,0-0.3
			L563,180.1z M566.9,192c-0.1,0.4-0.2,0.7-0.4,1s-0.4,0.5-0.7,0.7s-0.6,0.2-1.1,0.2c-0.4,0-0.8-0.1-1.1-0.2s-0.5-0.4-0.7-0.6
			c-0.2-0.3-0.3-0.6-0.3-1s-0.1-0.9-0.1-1.4s0-0.9,0.1-1.4c0.1-0.4,0.2-0.8,0.4-1s0.4-0.5,0.7-0.7s0.6-0.2,1.1-0.2
			c0.4,0,0.8,0.1,1.1,0.2s0.5,0.4,0.7,0.6c0.2,0.3,0.3,0.6,0.3,1c0.1,0.4,0.1,0.9,0.1,1.4C567.1,191.1,567,191.6,566.9,192z
			 M571.9,193.5v0.2l-0.1,0.1h-0.1h-3.5h-0.1l-0.1-0.1v-0.2c0-0.1,0-0.1,0-0.2s0-0.2,0-0.2v-0.2l0.1-0.1h0.1h1.2v-4.1l-1,0.6
			l-0.2,0.1h-0.1l-0.1-0.1c0-0.1,0-0.2,0-0.3v-0.2v-0.1l0.1-0.1l0.1-0.1l1.3-0.9h0.1h0.1h0.2c0.1,0,0.1,0,0.2,0c0.1,0,0.2,0,0.3,0
			h0.2h0.1v0.1v5.2h1h0.1l0.1,0.1v0.2C571.9,193.3,571.9,193.3,571.9,193.5L571.9,193.5z M572,183.4c-0.1,0.4-0.2,0.7-0.4,1
			s-0.4,0.5-0.7,0.7s-0.6,0.2-1.1,0.2c-0.4,0-0.8-0.1-1.1-0.2s-0.5-0.4-0.7-0.6c-0.2-0.3-0.3-0.6-0.3-1c-0.1-0.4-0.1-0.9-0.1-1.4
			s0-0.9,0.1-1.4c0.1-0.4,0.2-0.8,0.4-1c0.2-0.3,0.4-0.5,0.7-0.7s0.6-0.2,1.1-0.2c0.4,0,0.8,0.1,1.1,0.2s0.5,0.4,0.7,0.6
			c0.2,0.3,0.3,0.6,0.3,1c0.1,0.4,0.1,0.9,0.1,1.4S572,183,572,183.4z"/>

		<polygon style="fill:#FFFFFF;" points="552.2,214.6 549.4,214.6 549.4,223 547.8,223 547.8,214.6 544.9,214.6 544.9,213.2 
			552.2,213.2 				"/>
		<path style="fill:#FFFFFF;" d="M557.7,223.2c-1.4,0-2.5-0.5-3.4-1.4s-1.3-2.1-1.3-3.6c0-1.6,0.4-2.8,1.3-3.8s2-1.4,3.5-1.4
			c1.4,0,2.5,0.5,3.3,1.4s1.3,2.1,1.3,3.6c0,1.6-0.4,2.9-1.3,3.8S559.1,223.2,557.7,223.2z M557.7,214.5c-0.9,0-1.6,0.3-2.2,1
			s-0.8,1.6-0.8,2.6c0,1.1,0.3,2,0.8,2.6s1.3,1,2.1,1c0.9,0,1.7-0.3,2.2-1s0.8-1.5,0.8-2.7s-0.3-2.1-0.8-2.7
			S558.7,214.5,557.7,214.5z"/>
		<path style="fill:#FFFFFF;" d="M571.8,223h-1.9l-1.6-2.6c-0.1-0.2-0.3-0.4-0.4-0.6c-0.1-0.2-0.3-0.3-0.4-0.4s-0.3-0.2-0.5-0.2
			s-0.3-0.1-0.6-0.1h-0.7v4h-1.6v-9.8h3.2c0.5,0,0.9,0.1,1.3,0.2s0.7,0.3,1,0.5s0.5,0.5,0.7,0.8s0.2,0.7,0.2,1.2
			c0,0.3-0.1,0.7-0.2,1c-0.1,0.3-0.2,0.5-0.4,0.8c-0.2,0.2-0.4,0.4-0.7,0.6s-0.6,0.3-0.9,0.4l0,0c0.2,0.1,0.3,0.2,0.5,0.3
			c0.1,0.1,0.3,0.2,0.4,0.4s0.2,0.3,0.4,0.4c0.1,0.2,0.2,0.3,0.4,0.6L571.8,223z M565.8,214.5v3.2h1.4c0.3,0,0.5,0,0.7-0.1
			s0.4-0.2,0.6-0.3s0.3-0.3,0.4-0.5s0.1-0.4,0.1-0.7c0-0.5-0.1-0.8-0.4-1.1s-0.7-0.4-1.3-0.4L565.8,214.5L565.8,214.5z"/>
		<path style="fill:#FFFFFF;" d="M581,223h-1.8l-0.9-2.5h-3.9l-0.8,2.5h-1.8l3.7-9.8h1.8L581,223z M577.9,219.2l-1.4-3.9
			c0-0.1-0.1-0.3-0.1-0.6l0,0c0,0.3-0.1,0.5-0.1,0.6l-1.3,3.9H577.9z"/>
		<path style="fill:#FFFFFF;" d="M590,222.3c-1,0.6-2.2,0.8-3.4,0.8c-1.4,0-2.6-0.5-3.5-1.4s-1.3-2.1-1.3-3.6s0.5-2.8,1.5-3.7
			c1-1,2.2-1.5,3.7-1.5c1.1,0,2,0.2,2.7,0.5v1.7c-0.8-0.5-1.6-0.8-2.7-0.8c-1,0-1.9,0.3-2.6,1s-1,1.6-1,2.7s0.3,2,0.9,2.7
			c0.6,0.6,1.4,1,2.3,1c0.7,0,1.3-0.1,1.8-0.4V219h-2.1v-1.4h3.7L590,222.3L590,222.3z"/>
		<polygon style="fill:#FFFFFF;" points="597.6,223 592.1,223 592.1,213.2 597.4,213.2 597.4,214.6 593.7,214.6 593.7,217.4 
			597.1,217.4 597.1,218.7 593.7,218.7 593.7,221.6 597.6,221.6 				"/>
		<path style="fill:#FFFFFF;" d="M551.6,239.8V230h3.1c0.9,0,1.7,0.2,2.3,0.6s0.8,1,0.8,1.6s-0.2,1-0.5,1.4s-0.7,0.7-1.3,0.9l0,0
			c0.7,0.1,1.2,0.3,1.6,0.7c0.4,0.4,0.6,1,0.6,1.6c0,0.8-0.3,1.5-1,2s-1.5,0.8-2.5,0.8h-3.1L551.6,239.8L551.6,239.8z
			 M553.3,231.3v2.8h1.1c0.6,0,1-0.1,1.3-0.4s0.5-0.6,0.5-1.1c0-0.8-0.6-1.3-1.7-1.3H553.3z M553.3,235.4v3.1h1.4
			c0.6,0,1.1-0.1,1.4-0.4c0.3-0.3,0.5-0.7,0.5-1.2c0-1-0.7-1.5-2.1-1.5H553.3z"/>
		<polygon style="fill:#FFFFFF;" points="565.5,239.8 560.1,239.8 560.1,230 561.7,230 561.7,238.4 565.5,238.4 				"/>
		<path style="fill:#FFFFFF;" d="M571,240c-1.4,0-2.5-0.5-3.4-1.4s-1.3-2.1-1.3-3.6c0-1.6,0.4-2.8,1.3-3.8s2-1.4,3.5-1.4
			c1.4,0,2.5,0.5,3.3,1.4s1.3,2.1,1.3,3.6c0,1.6-0.4,2.9-1.3,3.8S572.4,240,571,240z M571.1,231.3c-0.9,0-1.6,0.3-2.2,1
			s-0.8,1.6-0.8,2.6c0,1.1,0.3,2,0.8,2.6s1.3,1,2.1,1c0.9,0,1.7-0.3,2.2-1s0.8-1.5,0.8-2.7s-0.3-2.1-0.8-2.7
			S572,231.3,571.1,231.3z"/>
		<path style="fill:#FFFFFF;" d="M577.5,239.8V230h3.1c0.9,0,1.7,0.2,2.3,0.6s0.8,1,0.8,1.6s-0.2,1-0.5,1.4s-0.7,0.7-1.3,0.9l0,0
			c0.7,0.1,1.2,0.3,1.6,0.7c0.4,0.4,0.6,1,0.6,1.6c0,0.8-0.3,1.5-1,2s-1.5,0.8-2.5,0.8h-3.1L577.5,239.8L577.5,239.8z
			 M579.1,231.3v2.8h1.1c0.6,0,1-0.1,1.3-0.4s0.5-0.6,0.5-1.1c0-0.8-0.6-1.3-1.7-1.3H579.1z M579.1,235.4v3.1h1.4
			c0.6,0,1.1-0.1,1.4-0.4c0.3-0.3,0.5-0.7,0.5-1.2c0-1-0.7-1.5-2.1-1.5H579.1z"/>
		<path style="fill:#FFFFFF;" d="M537.8,222.6v-1.7c0.2,0.1,0.3,0.3,0.5,0.4s0.4,0.2,0.7,0.3c0.2,0.1,0.5,0.1,0.7,0.2
			s0.4,0.1,0.6,0.1c0.7,0,1.2-0.1,1.5-0.3s0.5-0.6,0.5-1c0-0.2-0.1-0.4-0.2-0.6c-0.1-0.2-0.3-0.3-0.5-0.5s-0.4-0.3-0.7-0.4
			s-0.6-0.3-0.9-0.4c-0.3-0.2-0.6-0.4-0.9-0.5s-0.5-0.4-0.7-0.6s-0.4-0.5-0.5-0.7s-0.2-0.6-0.2-1c0-0.5,0.1-0.9,0.3-1.2
			c0.2-0.3,0.5-0.6,0.8-0.8c0.3-0.2,0.7-0.4,1.2-0.5c0.4-0.1,0.9-0.2,1.3-0.2c1,0,1.8,0.1,2.2,0.3v1.6c-0.6-0.4-1.3-0.6-2.1-0.6
			c-0.2,0-0.5,0-0.7,0.1s-0.5,0.1-0.6,0.2s-0.3,0.2-0.5,0.4s-0.2,0.4-0.2,0.6s0,0.4,0.1,0.6s0.2,0.3,0.4,0.4s0.4,0.3,0.6,0.4
			c0.3,0.1,0.5,0.3,0.9,0.4c0.3,0.2,0.7,0.4,1,0.6s0.6,0.4,0.8,0.6s0.4,0.5,0.5,0.8s0.2,0.6,0.2,1c0,0.5-0.1,0.9-0.3,1.3
			s-0.5,0.6-0.8,0.8s-0.7,0.4-1.2,0.5s-0.9,0.1-1.4,0.1c-0.2,0-0.4,0-0.6,0c-0.2,0-0.5-0.1-0.7-0.1c-0.3,0-0.5-0.1-0.7-0.2
			S538,222.7,537.8,222.6z"/>
</g>
<g class="icons-group">
	<g class="icons icons-A">
		<g class="button">
			<rect x="107" y="255.3" style="fill:#FFFFFF;" width="94" height="36.3"/>
			<path class="text" d="M178.1,270.4c0.6,0,1,0.1,1.3,0.4s0.4,0.6,0.4,1.1c0,0.3,0,0.5-0.1,0.7s-0.2,0.4-0.4,0.5s-0.3,0.3-0.5,0.3
				s-0.4,0.1-0.7,0.1h-1.3v-3.2L178.1,270.4L178.1,270.4z M180.9,276.1c-0.1-0.2-0.3-0.4-0.4-0.6c-0.1-0.2-0.2-0.3-0.3-0.4
				s-0.2-0.3-0.4-0.4c-0.1-0.1-0.3-0.2-0.5-0.3l0,0c0.3-0.1,0.6-0.2,0.9-0.4c0.3-0.2,0.5-0.4,0.7-0.6s0.3-0.5,0.4-0.8
				c0.1-0.3,0.2-0.6,0.2-0.9c0-0.4-0.1-0.8-0.2-1.2c-0.2-0.3-0.4-0.6-0.7-0.8c-0.3-0.2-0.6-0.4-1-0.5s-0.8-0.2-1.3-0.2h-3.2v9.8h1.6
				v-4h0.7c0.2,0,0.4,0,0.6,0.1s0.3,0.1,0.5,0.2c0.1,0.1,0.3,0.2,0.4,0.4c0.1,0.2,0.3,0.4,0.4,0.6l1.6,2.6h1.9L180.9,276.1z
				 M173.4,277.5h-3.9v-2.9h3.4v-1.4h-3.4v-2.8h3.6V269h-5.3v9.8h5.5L173.4,277.5L173.4,277.5z M165.5,269.1h-1.7v9.8h1.7V269.1z
				 M162.4,269.1h-7.2v1.4h2.8v8.4h1.6v-8.4h2.8L162.4,269.1L162.4,269.1z M147,270.4c1.3,0,2,0.6,2,1.7c0,0.6-0.2,1-0.5,1.4
				c-0.4,0.3-0.9,0.5-1.6,0.5h-1v-3.6H147z M147.1,275.3c1.1,0,2-0.3,2.6-0.9s1-1.4,1-2.3s-0.3-1.7-0.9-2.2s-1.5-0.8-2.6-0.8h-3v9.8
				h1.6v-3.5L147.1,275.3L147.1,275.3z M138.8,270.4c1.3,0,2,0.6,2,1.7c0,0.6-0.2,1-0.5,1.4c-0.4,0.3-0.9,0.5-1.6,0.5h-1v-3.6H138.8
				z M139,275.3c1.1,0,2-0.3,2.6-0.9s1-1.4,1-2.3s-0.3-1.7-0.9-2.2s-1.5-0.8-2.6-0.8h-3v9.8h1.6v-3.5L139,275.3L139,275.3z
				 M128.6,275l1.3-3.9c0-0.1,0.1-0.4,0.1-0.6l0,0c0,0.3,0.1,0.5,0.1,0.6l1.4,3.9H128.6z M131.1,269.1h-1.8l-3.7,9.8h1.8l0.8-2.5
				h3.8l0.9,2.5h1.8L131.1,269.1z"/>
			
				<rect x="107" y="255.3" style="fill:none;stroke:#000000;stroke-width:3;stroke-linecap:round;stroke-linejoin:round;stroke-miterlimit:10;" width="94" height="36.3"/>
		</g>
		<g class="button">
			<rect x="759" y="330.3" style="fill:#FFFFFF;" width="94" height="36.3"/>
			<path class="text" d="M829.1,345.8c0.6,0,1,0.1,1.3,0.4s0.4,0.6,0.4,1.1c0,0.3,0,0.5-0.1,0.7s-0.2,0.4-0.4,0.5s-0.3,0.3-0.5,0.3
				s-0.4,0.1-0.7,0.1h-1.3v-3.2L829.1,345.8L829.1,345.8z M832,351.5c-0.1-0.2-0.3-0.4-0.4-0.6c-0.1-0.2-0.2-0.3-0.3-0.4
				s-0.2-0.3-0.4-0.4c-0.1-0.1-0.3-0.2-0.5-0.3l0,0c0.3-0.1,0.6-0.2,0.9-0.4c0.3-0.2,0.5-0.4,0.7-0.6s0.3-0.5,0.4-0.8
				c0.1-0.3,0.2-0.6,0.2-0.9c0-0.4-0.1-0.8-0.2-1.2c-0.2-0.3-0.4-0.6-0.7-0.8c-0.3-0.2-0.6-0.4-1-0.5s-0.8-0.2-1.3-0.2h-3.2v9.8h1.6
				v-4h0.7c0.2,0,0.4,0,0.6,0.1s0.3,0.1,0.5,0.2c0.1,0.1,0.3,0.2,0.4,0.4c0.1,0.2,0.3,0.4,0.4,0.6l1.6,2.6h1.9L832,351.5z
				 M824.4,352.9h-3.9V350h3.4v-1.4h-3.4v-2.8h3.6v-1.4h-5.3v9.8h5.5v-1.3L824.4,352.9L824.4,352.9z M816.5,344.5h-1.7v9.8h1.7
				V344.5z M813.5,344.5h-7.2v1.4h2.8v8.4h1.6v-8.4h2.8L813.5,344.5L813.5,344.5z M798,345.8c1.3,0,2,0.6,2,1.7c0,0.6-0.2,1-0.5,1.4
				c-0.4,0.3-0.9,0.5-1.6,0.5h-1v-3.6H798z M798.1,350.7c1.1,0,2-0.3,2.6-0.9s1-1.4,1-2.3s-0.3-1.7-0.9-2.2s-1.5-0.8-2.6-0.8h-3v9.8
				h1.6v-3.5L798.1,350.7L798.1,350.7z M789.9,345.8c1.3,0,2,0.6,2,1.7c0,0.6-0.2,1-0.5,1.4c-0.4,0.3-0.9,0.5-1.6,0.5h-1v-3.6H789.9
				z M790,350.7c1.1,0,2-0.3,2.6-0.9s1-1.4,1-2.3s-0.3-1.7-0.9-2.2s-1.5-0.8-2.6-0.8h-3v9.8h1.6v-3.5L790,350.7L790,350.7z
				 M779.7,350.4l1.3-3.9c0-0.1,0.1-0.4,0.1-0.6l0,0c0,0.3,0.1,0.5,0.1,0.6l1.4,3.9H779.7z M782.1,344.5h-1.8l-3.7,9.8h1.8l0.8-2.5
				h3.8l0.9,2.5h1.8L782.1,344.5z"/>
			
				<rect x="758.1" y="330.7" style="fill:none;stroke:#000000;stroke-width:3;stroke-linecap:round;stroke-linejoin:round;stroke-miterlimit:10;" width="94" height="36.3"/>
		</g>
		<g class="line">
			
				<line style="fill:none;stroke:#DEDEDE;stroke-width:4;stroke-linejoin:round;stroke-miterlimit:10;" x1="49.4" y1="0" x2="49.4" y2="276"/>
			
				<circle style="fill:none;stroke:#DEDEDE;stroke-width:4;stroke-linecap:round;stroke-linejoin:round;stroke-miterlimit:10;" cx="87.4" cy="274.2" r="5"/>
			
				<line style="fill:none;stroke:#DEDEDE;stroke-width:4;stroke-linejoin:round;stroke-miterlimit:10;" x1="84" y1="274.1" x2="47.3" y2="274.1"/>
		</g>
		<g class="line">
			
				<line style="fill:none;stroke:#DEDEDE;stroke-width:4;stroke-linejoin:round;stroke-miterlimit:10;" x1="929.3" y1="0" x2="929.3" y2="351"/>
			
				<circle style="fill:none;stroke:#DEDEDE;stroke-width:4;stroke-linecap:round;stroke-linejoin:round;stroke-miterlimit:10;" cx="875.3" cy="349.2" r="5"/>
			
				<line style="fill:none;stroke:#DEDEDE;stroke-width:4;stroke-linejoin:round;stroke-miterlimit:10;" x1="880" y1="349.1" x2="931.3" y2="349.1"/>
		</g>
	</g>

</g>
</svg>
