<svg class="infographic--5__fullwidth" xmlns="http://www.w3.org/2000/svg" viewBox="0 0 960 573.1"><g class="static"><path fill="#DEDEDE" d="M284.3 568.5c-.3 0-.6-.1-.8-.2-1-.5-1.5-1.6-1-2.6.7-1.5 1.3-3 2-4.5.4-1 1.6-1.5 2.6-1.1s1.5 1.6 1.1 2.6c-.6 1.6-1.3 3.1-2 4.6-.4.7-1.1 1.2-1.9 1.2zM22.4 565.6c-.8 0-1.5-.5-1.8-1.2-.7-1.6-1.3-3.1-1.9-4.7-.4-1 .1-2.2 1.1-2.6 1-.4 2.2.1 2.6 1.1.6 1.5 1.2 3.1 1.9 4.6.4 1 0 2.2-1.1 2.6-.2.1-.5.2-.8.2zM289.5 555.5c-.2 0-.4 0-.6-.1-1-.4-1.6-1.5-1.2-2.5.5-1.5 1-3.1 1.5-4.7.3-1.1 1.4-1.7 2.5-1.3 1.1.3 1.7 1.4 1.3 2.5-.5 1.6-1 3.2-1.6 4.8-.3.7-1.1 1.3-1.9 1.3zM17.6 552.4c-.8 0-1.6-.5-1.9-1.4-.5-1.6-1-3.2-1.4-4.9-.3-1.1.3-2.2 1.4-2.5s2.2.3 2.5 1.4c.4 1.6.9 3.2 1.4 4.7.3 1.1-.3 2.2-1.3 2.5-.3.2-.5.2-.7.2zM293.3 542c-.2 0-.3 0-.5-.1-1.1-.3-1.7-1.3-1.5-2.4.4-1.6.7-3.2 1-4.8.2-1.1 1.3-1.8 2.4-1.6s1.8 1.3 1.6 2.4c-.3 1.7-.7 3.3-1.1 5-.1.9-1 1.5-1.9 1.5zM14 538.9c-.9 0-1.8-.6-2-1.6-.3-1.6-.7-3.3-1-5-.2-1.1.5-2.1 1.6-2.3s2.1.5 2.3 1.6l.9 4.8c.2 1.1-.5 2.1-1.5 2.4 0 .1-.2.1-.3.1zM295.8 528.3h-.3c-1.1-.1-1.9-1.2-1.7-2.2.2-1.6.4-3.3.6-4.9.1-1.1 1.1-1.9 2.2-1.8 1.1.1 1.9 1.1 1.8 2.2-.2 1.7-.4 3.4-.6 5-.1.9-1 1.7-2 1.7zM11.8 525.1c-1 0-1.9-.8-2-1.8-.2-1.7-.3-3.4-.5-5-.1-1.1.7-2.1 1.8-2.1 1.1-.1 2.1.7 2.1 1.8.1 1.6.3 3.3.5 4.9.1 1.1-.7 2.1-1.8 2.2h-.1zM297 514.3c-1.2 0-2-1-2-2.1.1-1.6.1-3.3.1-4.9 0-1.1.9-2 2-2s2 .9 2 2c0 1.7 0 3.4-.1 5.1 0 1.1-.9 1.9-2 1.9zM10.9 511.1c-1.1 0-2-.9-2-2v-5c0-1.1.9-2 2-2s2 .9 2 2v4.9c0 1.2-.8 2.1-2 2.1zM297.1 500.3c-1.1 0-2-.9-2-2v-5c0-1.1.9-2 2-2s2 .9 2 2v5c0 1.1-.9 2-2 2zM10.9 497.1c-1.1 0-2-.9-2-2v-5c0-1.1.9-2 2-2s2 .9 2 2v5c0 1.1-.9 2-2 2zM297.1 486.3c-1.1 0-2-.9-2-2v-5c0-1.1.9-2 2-2s2 .9 2 2v5c0 1.1-.9 2-2 2zM10.9 483.1c-1.1 0-2-.9-2-2v-5c0-1.1.9-2 2-2s2 .9 2 2v5c0 1.1-.9 2-2 2zM297.1 472.3c-1.1 0-2-.9-2-2v-5c0-1.1.9-2 2-2s2 .9 2 2v5c0 1.1-.9 2-2 2zM10.9 469.1c-1.1 0-2-.9-2-2v-5c0-1.1.9-2 2-2s2 .9 2 2v5c0 1.1-.9 2-2 2zM297.1 458.3c-1.1 0-2-.9-2-2v-5c0-1.1.9-2 2-2s2 .9 2 2v5c0 1.1-.9 2-2 2zM10.9 455.1c-1.1 0-2-.9-2-2v-5c0-1.1.9-2 2-2s2 .9 2 2v5c0 1.1-.9 2-2 2zM297.1 444.3c-1.1 0-2-.9-2-2v-5c0-1.1.9-2 2-2s2 .9 2 2v5c0 1.1-.9 2-2 2zM10.9 441.1c-1.1 0-2-.9-2-2v-5c0-1.1.9-2 2-2s2 .9 2 2v5c0 1.1-.9 2-2 2zM297.1 430.3c-1.1 0-2-.9-2-2v-5c0-1.1.9-2 2-2s2 .9 2 2v5c0 1.1-.9 2-2 2zM10.9 427.1c-1.1 0-2-.9-2-2v-5c0-1.1.9-2 2-2s2 .9 2 2v5c0 1.1-.9 2-2 2zM297.1 416.3c-1.1 0-2-.9-2-2v-5c0-1.1.9-2 2-2s2 .9 2 2v5c0 1.1-.9 2-2 2zM10.9 413.1c-1.1 0-2-.9-2-2v-5c0-1.1.9-2 2-2s2 .9 2 2v5c0 1.1-.9 2-2 2zM297.1 402.3c-1.1 0-2-.9-2-2v-5c0-1.1.9-2 2-2s2 .9 2 2v5c0 1.1-.9 2-2 2zM10.9 399.1c-1.1 0-2-.9-2-2v-5c0-1.1.9-2 2-2s2 .9 2 2v5c0 1.1-.9 2-2 2zM297.1 388.3c-1.1 0-2-.9-2-2v-5c0-1.1.9-2 2-2s2 .9 2 2v5c0 1.1-.9 2-2 2zM10.9 385.1c-1.1 0-2-.9-2-2v-5c0-1.1.9-2 2-2s2 .9 2 2v5c0 1.1-.9 2-2 2zM297.1 374.3c-1.1 0-2-.9-2-2v-5c0-1.1.9-2 2-2s2 .9 2 2v5c0 1.1-.9 2-2 2zM10.9 371.1c-1.1 0-2-.9-2-2v-5c0-1.1.9-2 2-2s2 .9 2 2v5c0 1.1-.9 2-2 2zM297.1 360.3c-1.1 0-2-.9-2-2v-5c0-1.1.9-2 2-2s2 .9 2 2v5c0 1.1-.9 2-2 2zM10.9 357.1c-1.1 0-2-.9-2-2v-5c0-1.1.9-2 2-2s2 .9 2 2v5c0 1.1-.9 2-2 2zM297.1 346.3c-1.1 0-2-.9-2-2v-5c0-1.1.9-2 2-2s2 .9 2 2v5c0 1.1-.9 2-2 2zM10.9 343.1c-1.1 0-2-.9-2-2v-5c0-1.1.9-2 2-2s2 .9 2 2v5c0 1.1-.9 2-2 2zM297.1 332.3c-1.1 0-2-.9-2-2v-5c0-1.1.9-2 2-2s2 .9 2 2v5c0 1.1-.9 2-2 2zM10.9 329.1c-1.1 0-2-.9-2-2v-5c0-1.1.9-2 2-2s2 .9 2 2v5c0 1.1-.9 2-2 2zM297.1 318.3c-1.1 0-2-.9-2-2v-5c0-1.1.9-2 2-2s2 .9 2 2v5c0 1.1-.9 2-2 2zM10.9 315.1c-1.1 0-2-.9-2-2v-5c0-1.1.9-2 2-2s2 .9 2 2v5c0 1.1-.9 2-2 2zM297.1 304.3c-1.1 0-2-.9-2-2v-5c0-1.1.9-2 2-2s2 .9 2 2v5c0 1.1-.9 2-2 2zM10.9 301.1c-1.1 0-2-.9-2-2v-5c0-1.1.9-2 2-2s2 .9 2 2v5c0 1.1-.9 2-2 2zM297.1 290.3c-1.1 0-2-.9-2-2v-5c0-1.1.9-2 2-2s2 .9 2 2v5c0 1.1-.9 2-2 2zM10.9 287.1c-1.1 0-2-.9-2-2v-5c0-1.1.9-2 2-2s2 .9 2 2v5c0 1.1-.9 2-2 2zM297.1 276.3c-1.1 0-2-.9-2-2v-5c0-1.1.9-2 2-2s2 .9 2 2v5c0 1.1-.9 2-2 2zM10.9 273.1c-1.1 0-2-.9-2-2v-5c0-1.1.9-2 2-2s2 .9 2 2v5c0 1.1-.9 2-2 2zM297.1 262.3c-1.1 0-2-.9-2-2v-5c0-1.1.9-2 2-2s2 .9 2 2v5c0 1.1-.9 2-2 2zM10.9 259.1c-1.1 0-2-.9-2-2v-5c0-1.1.9-2 2-2s2 .9 2 2v5c0 1.1-.9 2-2 2zM297.1 248.3c-1.1 0-2-.9-2-2v-5c0-1.1.9-2 2-2s2 .9 2 2v5c0 1.1-.9 2-2 2zM10.9 245.1c-1.1 0-2-.9-2-2v-5c0-1.1.9-2 2-2s2 .9 2 2v5c0 1.1-.9 2-2 2zM297.1 234.3c-1.1 0-2-.9-2-2v-5c0-1.1.9-2 2-2s2 .9 2 2v5c0 1.1-.9 2-2 2zM10.9 231.1c-1.1 0-2-.9-2-2v-5c0-1.1.9-2 2-2s2 .9 2 2v5c0 1.1-.9 2-2 2zM297.1 220.3c-1.1 0-2-.9-2-2v-5c0-1.1.9-2 2-2s2 .9 2 2v5c0 1.1-.9 2-2 2zM10.9 217.1c-1.1 0-2-.9-2-2v-5c0-1.1.9-2 2-2s2 .9 2 2v5c0 1.1-.9 2-2 2zM297.1 206.3c-1.1 0-2-.9-2-2v-5c0-1.1.9-2 2-2s2 .9 2 2v5c0 1.1-.9 2-2 2zM10.9 203.1c-1.1 0-2-.9-2-2v-5c0-1.1.9-2 2-2s2 .9 2 2v5c0 1.1-.9 2-2 2zM297.1 192.3c-1.1 0-2-.9-2-2v-5c0-1.1.9-2 2-2s2 .9 2 2v5c0 1.1-.9 2-2 2zM10.9 189.1c-1.1 0-2-.9-2-2v-5c0-1.1.9-2 2-2s2 .9 2 2v5c0 1.1-.9 2-2 2zM297.1 178.3c-1.1 0-2-.9-2-2v-5c0-1.1.9-2 2-2s2 .9 2 2v5c0 1.1-.9 2-2 2zM10.9 175.1c-1.1 0-2-.9-2-2v-5c0-1.1.9-2 2-2s2 .9 2 2v5c0 1.1-.9 2-2 2zM297.1 164.3c-1.1 0-2-.9-2-2v-5c0-1.1.9-2 2-2s2 .9 2 2v5c0 1.1-.9 2-2 2zM10.9 161.1c-1.1 0-2-.9-2-2v-5c0-1.1.9-2 2-2s2 .9 2 2v5c0 1.1-.9 2-2 2zM297.1 150.3c-1.1 0-2-.9-2-2v-5c0-1.1.9-2 2-2s2 .9 2 2v5c0 1.1-.9 2-2 2zM10.9 147.1c-1.1 0-2-.9-2-2v-5c0-1.1.9-2 2-2s2 .9 2 2v5c0 1.1-.9 2-2 2zM297.1 136.3c-1.1 0-2-.9-2-2v-5c0-1.1.9-2 2-2s2 .9 2 2v5c0 1.1-.9 2-2 2zM10.9 133.1c-1.1 0-2-.9-2-2v-5c0-1.1.9-2 2-2s2 .9 2 2v5c0 1.1-.9 2-2 2zM297.1 122.3c-1.1 0-2-.9-2-2v-5c0-1.1.9-2 2-2s2 .9 2 2v5c0 1.1-.9 2-2 2zM10.9 119.1c-1.1 0-2-.9-2-2v-5c0-1.1.9-2 2-2s2 .9 2 2v5c0 1.1-.9 2-2 2zM297.1 108.3c-1.1 0-2-.9-2-2v-5c0-1.1.9-2 2-2s2 .9 2 2v5c0 1.1-.9 2-2 2zM10.9 105.1c-1.1 0-2-.9-2-2v-5c0-1.1.9-2 2-2s2 .9 2 2v5c0 1.1-.9 2-2 2zM297.1 94.3c-1.1 0-2-.9-2-2v-5c0-1.1.9-2 2-2s2 .9 2 2v5c0 1.1-.9 2-2 2zM10.9 91.1c-1.1 0-2-.9-2-2v-5c0-1.1.9-2 2-2s2 .9 2 2v5c0 1.1-.9 2-2 2zM297.1 80.3c-1.1 0-2-.9-2-2v-5c0-1.1.9-2 2-2s2 .9 2 2v5c0 1.1-.9 2-2 2zM10.9 77.1c-1.1 0-2-.9-2-2v-5c0-1.1.9-2 2-2s2 .9 2 2v5c0 1.1-.9 2-2 2zM297.1 66.3c-1.1 0-2-.9-2-2v-5c0-1.1.9-2 2-2s2 .9 2 2v5c0 1.1-.9 2-2 2zM10.9 63.1c-1.1 0-2-.9-2-2v-5c0-1.1.9-2 2-2s2 .9 2 2v5c0 1.1-.9 2-2 2zM297.1 52.3c-1.1 0-2-.9-2-2v-5c0-1.1.9-2 2-2s2 .9 2 2v5c0 1.1-.9 2-2 2zM10.9 49.1c-1.1 0-2-.9-2-2v-5c0-1.1.9-2 2-2s2 .9 2 2v5c0 1.1-.9 2-2 2zM297.1 38.3c-1.1 0-2-.9-2-2v-5c0-1.1.9-2 2-2s2 .9 2 2v5c0 1.1-.9 2-2 2zM10.9 35.1c-1.1 0-2-.9-2-2v-5c0-1.1.9-2 2-2s2 .9 2 2v5c0 1.1-.9 2-2 2zM297.1 24.3c-1.1 0-2-.9-2-2v-5c0-1.1.9-2 2-2s2 .9 2 2v5c0 1.1-.9 2-2 2zM10.9 21.1c-1.1 0-2-.9-2-2v-5c0-1.1.9-2 2-2s2 .9 2 2v5c0 1.1-.9 2-2 2zM297.1 10.3c-1.1 0-2-.9-2-2v-5c0-1.1.9-2 2-2s2 .9 2 2v5c0 1.1-.9 2-2 2z"/><path fill="none" stroke="#686868" stroke-width="3" stroke-linecap="round" stroke-linejoin="round" stroke-miterlimit="10" d="M695.5 382.1l-7.9-7.8M695.5 382.1l-7.9 7.8M695.5 289.7l-7.9-7.8M695.5 289.7l-7.9 7.7"/><g class="outline"><path fill="none" stroke="#898989" stroke-width="3" stroke-miterlimit="10" d="M714.5 107.4H896v34.3H714.5zM768.4 68.5c0-14.9-12.1-26.9-26.9-26.9s-26.9 12.1-26.9 26.9V97.4h53.8V68.5zM832.2 68.5c0-14.9-12.1-26.9-26.9-26.9s-26.9 12.1-26.9 26.9V97.4h53.8V68.5zM896.1 68.5c0-14.9-12.1-26.9-26.9-26.9s-26.9 12.1-26.9 26.9V97.4h53.8V68.5zM714.5 277.2H896v34.3H714.5zM768.4 238.3c0-14.9-12.1-26.9-26.9-26.9s-26.9 12.1-26.9 26.9V267.2h53.8v-28.9zM832.2 238.3c0-14.9-12.1-26.9-26.9-26.9s-26.9 12.1-26.9 26.9V267.2h53.8v-28.9zM896.1 238.3c0-14.9-12.1-26.9-26.9-26.9s-26.9 12.1-26.9 26.9V267.2h53.8v-28.9z"/><g class="text" fill="#898989"><path d="M753 69.5c-.3.2-.5.4-.8.5-.2.1-.5.3-.7.4s-.5.2-.7.3c-.2.1-.5.2-.8.3v1.3c.4-.1.8-.2 1.1-.4.3-.1.6-.3.9-.5v8h1.6v-10l-.6.1zm-11.7 5.6c1.4 0 2.1.5 2.1 1.5 0 .5-.2.9-.5 1.2-.3.3-.8.4-1.4.4h-1.4v-3.1h1.2zm0-4.1c1.1 0 1.7.4 1.7 1.3 0 .5-.2.9-.5 1.1-.3.3-.8.4-1.3.4h-1V71h1.1zm.3 8.4c1 0 1.8-.3 2.5-.8s1-1.2 1-2c0-.7-.2-1.2-.6-1.6-.4-.4-.9-.7-1.6-.7.6-.2 1-.5 1.3-.9s.5-.9.5-1.4c0-.7-.3-1.2-.8-1.6-.6-.4-1.3-.6-2.2-.6h-3.1v9.8h3v-.2zm-10.1-8.3c2.4 0 3.5 1.1 3.5 3.4 0 1.1-.3 2-.9 2.7-.6.6-1.5.9-2.7.9h-1.3v-7h1.4zm-.3 8.3c1.7 0 3-.5 4-1.4s1.5-2.1 1.5-3.6c0-3.2-1.8-4.8-5.4-4.8h-2.8v9.8h2.7zM827.9 124.8c1.4 0 2.1.5 2.1 1.5 0 .5-.2.9-.5 1.2-.3.3-.8.4-1.4.4h-1.4v-3.1h1.2zm0-4.1c1.1 0 1.7.4 1.7 1.3 0 .5-.2.9-.5 1.1-.3.3-.8.4-1.3.4h-1v-2.8h1.1zm.4 8.5c1 0 1.8-.3 2.5-.8s1-1.2 1-2c0-.7-.2-1.2-.6-1.6-.4-.4-.9-.7-1.6-.7.6-.2 1-.5 1.3-.9s.5-.9.5-1.4c0-.7-.3-1.2-.8-1.6-.6-.4-1.3-.6-2.2-.6h-3.1v9.8h3v-.2zm-10.2-8.4c2.4 0 3.5 1.1 3.5 3.4 0 1.1-.3 2-.9 2.7-.6.6-1.5.9-2.7.9h-1.3v-7h1.4zm-.2 8.4c1.7 0 3-.5 4-1.4s1.5-2.1 1.5-3.6c0-3.2-1.8-4.8-5.4-4.8h-2.8v9.8h2.7zm-6.4-2.8c0 .5-.2.9-.5 1.3-.3.3-.7.5-1.2.5-.4 0-.6-.1-.8-.3s-.3-.4-.3-.7c0-.4.1-.7.3-.8.2-.2.6-.3 1-.3l1.5-.2v.5zm1.6-1.7c0-1.7-.9-2.6-2.6-2.6-1 0-1.8.2-2.5.7v1.4c.7-.6 1.4-.9 2.2-.9.9 0 1.4.5 1.4 1.5l-2.1.3c-1.5.2-2.3 1-2.3 2.3 0 .6.2 1.1.6 1.5s.9.6 1.6.6c.9 0 1.6-.4 2.1-1.3v1.1h1.5l.1-4.6zm-7.5-2.5H804v7h1.6v-7zm-.1-1.7c.2-.2.3-.4.3-.6 0-.3-.1-.5-.3-.6-.2-.2-.4-.3-.7-.3s-.5.1-.7.3-.3.4-.3.6c0 .3.1.5.3.6s.4.3.7.3.6-.1.7-.3zm-2.5 1.7c-.1-.1-.4-.1-.7-.1-.4 0-.8.1-1.1.4s-.6.7-.7 1.1v-1.4h-1.6v7h1.6v-3.3c0-.7.2-1.3.5-1.7.3-.4.7-.6 1.2-.6.4 0 .6.1.8.2v-1.6zm-7.5 4.2c0 .5-.2.9-.5 1.3-.3.3-.7.5-1.2.5-.4 0-.6-.1-.8-.3s-.3-.4-.3-.7c0-.4.1-.7.3-.8.2-.2.6-.3 1-.3l1.5-.2v.5zm1.5-1.7c0-1.7-.9-2.6-2.6-2.6-1 0-1.8.2-2.5.7v1.4c.7-.6 1.4-.9 2.2-.9.9 0 1.4.5 1.4 1.5l-2.1.3c-1.5.2-2.3 1-2.3 2.3 0 .6.2 1.1.6 1.5s.9.6 1.6.6c.9 0 1.6-.4 2.1-1.3v1.1h1.5l.1-4.6zm-7.6-5.3h-2.2l-2.6 6.5c-.1.3-.2.6-.4 1.1-.1-.2-.2-.6-.4-1.1l-2.6-6.5H779v9.8h1.5v-6.3c0-.9 0-1.5-.1-1.9.1.4.2.8.3 1l2.9 7.2h1.1l2.9-7.3c.1-.2.2-.5.3-.9-.1.7-.1 1.4-.1 1.9v6.3h1.6v-9.8zM819.1 78.1h-4.4c0-.2.1-.4.2-.6.1-.2.3-.4.5-.6s.4-.4.7-.6.5-.4.8-.6c.3-.3.6-.5.8-.8s.5-.5.6-.8c.2-.3.3-.6.4-.9.1-.3.1-.7.1-1.1s-.1-.8-.2-1.2c-.1-.3-.3-.6-.6-.8-.3-.2-.6-.4-.9-.5-.4-.1-.8-.2-1.2-.2-.3 0-.5 0-.8.1-.2 0-.5.1-.7.2l-.6.3c-.2.1-.4.2-.6.4v1.5c.4-.4.8-.7 1.2-.8.4-.2.8-.3 1.2-.3.2 0 .4 0 .6.1.2.1.4.2.5.3.1.1.3.3.3.5.1.2.1.4.1.7 0 .2 0 .5-.1.7l-.3.6c-.1.2-.3.4-.4.5-.2.2-.4.3-.6.5-.2.2-.4.4-.7.6-.2.2-.5.4-.7.6l-.6.6c-.2.2-.4.4-.5.7-.1.2-.3.5-.3.8s-.1.6-.1.9v.8h6.1v-1.6h.2zm-15.1-3c1.4 0 2.1.5 2.1 1.5 0 .5-.2.9-.5 1.2-.3.3-.8.4-1.4.4h-1.4v-3.1h1.2zm.1-4.1c1.1 0 1.7.4 1.7 1.3 0 .5-.2.9-.5 1.1-.3.3-.8.4-1.3.4h-1V71h1.1zm.3 8.4c1 0 1.8-.3 2.5-.8s1-1.2 1-2c0-.7-.2-1.2-.6-1.6-.4-.4-.9-.7-1.6-.7.6-.2 1-.5 1.3-.9s.5-.9.5-1.4c0-.7-.3-1.2-.8-1.6-.6-.4-1.3-.6-2.2-.6h-3.1v9.8h3v-.2zm-10.2-8.3c2.4 0 3.5 1.1 3.5 3.4 0 1.1-.3 2-.9 2.7-.6.6-1.5.9-2.7.9h-1.3v-7h1.4zm-.2 8.3c1.7 0 3-.5 4-1.4s1.5-2.1 1.5-3.6c0-3.2-1.8-4.8-5.4-4.8h-2.8v9.8h2.7zM879.3 79.6c1.1 0 1.9-.3 2.6-.8.7-.5 1-1.2 1-2.1 0-.6-.2-1.2-.6-1.6-.4-.4-1-.7-1.7-.7 1.3-.4 2-1.2 2-2.5 0-.7-.3-1.2-.8-1.7-.5-.4-1.2-.7-2.1-.7-.9 0-1.7.2-2.3.6v1.4c.6-.5 1.2-.7 1.8-.7 1.2 0 1.8.5 1.8 1.4 0 1-.8 1.6-2.3 1.6h-.7V75h.8c1.7 0 2.5.6 2.5 1.7 0 .5-.2.9-.6 1.2s-.9.4-1.6.4c-.8 0-1.5-.3-2.1-.8V79c.6.4 1.3.6 2.3.6zm-11.4-4.5c1.4 0 2.1.5 2.1 1.5 0 .5-.2.9-.5 1.2-.3.3-.8.4-1.4.4h-1.4v-3.1h1.2zm0-4.1c1.1 0 1.7.4 1.7 1.3 0 .5-.2.9-.5 1.1-.3.3-.8.4-1.3.4h-1V71h1.1zm.3 8.4c1 0 1.8-.3 2.5-.8s1-1.2 1-2c0-.7-.2-1.2-.6-1.6-.4-.4-.9-.7-1.6-.7.6-.2 1-.5 1.3-.9s.5-.9.5-1.4c0-.7-.3-1.2-.8-1.6-.6-.4-1.3-.6-2.2-.6h-3.1v9.8h3v-.2zm-10.1-8.3c2.4 0 3.5 1.1 3.5 3.4 0 1.1-.3 2-.9 2.7-.6.6-1.5.9-2.7.9h-1.3v-7h1.4zm-.3 8.3c1.7 0 3-.5 4-1.4s1.5-2.1 1.5-3.6c0-3.2-1.8-4.8-5.4-4.8h-2.8v9.8h2.7zM753 239.2c-.3.2-.5.4-.8.5-.2.1-.5.3-.7.4-.2.1-.5.2-.7.3s-.5.2-.8.3v1.3c.4-.1.8-.2 1.1-.4.3-.1.6-.3.9-.5v8h1.6v-10l-.6.1zm-11.7 5.6c1.4 0 2.1.5 2.1 1.5 0 .5-.2.9-.5 1.2s-.8.4-1.4.4h-1.4v-3.1h1.2zm0-4c1.1 0 1.7.4 1.7 1.3 0 .5-.2.9-.5 1.1-.3.3-.8.4-1.3.4h-1v-2.8h1.1zm.3 8.4c1 0 1.8-.3 2.5-.8s1-1.2 1-2c0-.7-.2-1.2-.6-1.6-.4-.4-.9-.7-1.6-.7.6-.2 1-.5 1.3-.9s.5-.9.5-1.4c0-.7-.3-1.2-.8-1.6-.6-.4-1.3-.6-2.2-.6h-3.1v9.8h3v-.2zm-10.1-8.4c2.4 0 3.5 1.1 3.5 3.4 0 1.1-.3 2-.9 2.7-.6.6-1.5.9-2.7.9h-1.3v-7h1.4zm-.3 8.4c1.7 0 3-.5 4-1.4s1.5-2.1 1.5-3.6c0-3.2-1.8-4.8-5.4-4.8h-2.8v9.8h2.7zM827.9 294.6c1.4 0 2.1.5 2.1 1.5 0 .5-.2.9-.5 1.2-.3.3-.8.4-1.4.4h-1.4v-3.1h1.2zm0-4.1c1.1 0 1.7.4 1.7 1.3 0 .5-.2.9-.5 1.1-.3.3-.8.4-1.3.4h-1v-2.8h1.1zm.4 8.5c1 0 1.8-.3 2.5-.8s1-1.2 1-2c0-.7-.2-1.2-.6-1.6-.4-.4-.9-.7-1.6-.7.6-.2 1-.5 1.3-.9s.5-.9.5-1.4c0-.7-.3-1.2-.8-1.6-.6-.4-1.3-.6-2.2-.6h-3.1v9.8h3v-.2zm-10.2-8.4c2.4 0 3.5 1.1 3.5 3.4 0 1.1-.3 2-.9 2.7-.6.6-1.5.9-2.7.9h-1.3v-7h1.4zm-.2 8.4c1.7 0 3-.5 4-1.4s1.5-2.1 1.5-3.6c0-3.2-1.8-4.8-5.4-4.8h-2.8v9.8h2.7zm-6.4-2.9c0 .5-.2.9-.5 1.3-.3.3-.7.5-1.2.5-.4 0-.6-.1-.8-.3-.2-.2-.3-.4-.3-.7 0-.4.1-.7.3-.8.2-.2.6-.3 1-.3l1.5-.2v.5zm1.6-1.7c0-1.7-.9-2.6-2.6-2.6-1 0-1.8.2-2.5.7v1.4c.7-.6 1.4-.9 2.2-.9.9 0 1.4.5 1.4 1.5l-2.1.3c-1.5.2-2.3 1-2.3 2.3 0 .6.2 1.1.6 1.5s.9.6 1.6.6c.9 0 1.6-.4 2.1-1.3v1.1h1.5l.1-4.6zm-7.5-2.4H804v7h1.6v-7zm-.1-1.7c.2-.2.3-.4.3-.6 0-.3-.1-.5-.3-.6-.2-.2-.4-.3-.7-.3s-.5.1-.7.3-.3.4-.3.6c0 .3.1.5.3.6s.4.3.7.3c.3-.1.6-.2.7-.3zM803 292c-.1-.1-.4-.1-.7-.1-.4 0-.8.1-1.1.4s-.6.7-.7 1.1V292h-1.6v7h1.6v-3.3c0-.7.2-1.3.5-1.7.3-.4.7-.6 1.2-.6.4 0 .6.1.8.2V292zm-7.5 4.1c0 .5-.2.9-.5 1.3-.3.3-.7.5-1.2.5-.4 0-.6-.1-.8-.3-.2-.2-.3-.4-.3-.7 0-.4.1-.7.3-.8.2-.2.6-.3 1-.3l1.5-.2v.5zm1.5-1.7c0-1.7-.9-2.6-2.6-2.6-1 0-1.8.2-2.5.7v1.4c.7-.6 1.4-.9 2.2-.9.9 0 1.4.5 1.4 1.5l-2.1.3c-1.5.2-2.3 1-2.3 2.3 0 .6.2 1.1.6 1.5s.9.6 1.6.6c.9 0 1.6-.4 2.1-1.3v1.1h1.5l.1-4.6zm-7.6-5.2h-2.2l-2.6 6.5c-.1.3-.2.6-.4 1.1-.1-.2-.2-.6-.4-1.1l-2.6-6.5H779v9.8h1.5v-6.3c0-.9 0-1.5-.1-1.9.1.4.2.8.3 1l2.9 7.2h1.1l2.9-7.3c.1-.2.2-.5.3-.9-.1.7-.1 1.4-.1 1.9v6.3h1.6v-9.8zM819.1 247.9h-4.4c0-.2.1-.4.2-.6.1-.2.3-.4.5-.6.2-.2.4-.4.7-.6.3-.2.5-.4.8-.6.3-.3.6-.5.8-.8s.5-.5.6-.8c.2-.3.3-.6.4-.9.1-.3.1-.7.1-1.1 0-.4-.1-.8-.2-1.2-.1-.3-.3-.6-.6-.8s-.6-.4-.9-.5c-.4-.1-.8-.2-1.2-.2-.3 0-.5 0-.8.1-.2 0-.5.1-.7.2l-.6.3c-.2.1-.4.2-.6.4v1.5c.4-.4.8-.7 1.2-.8.4-.2.8-.3 1.2-.3.2 0 .4 0 .6.1.2.1.4.2.5.3s.3.3.3.5c.1.2.1.4.1.7 0 .2 0 .5-.1.7l-.3.6c-.1.2-.3.4-.4.5-.2.2-.4.3-.6.5-.2.2-.4.4-.7.6-.2.2-.5.4-.7.6l-.6.6c-.2.2-.4.4-.5.7-.1.2-.3.5-.3.8s-.1.6-.1.9v.8h6.1v-1.6h.2zm-15.1-3.1c1.4 0 2.1.5 2.1 1.5 0 .5-.2.9-.5 1.2s-.8.4-1.4.4h-1.4v-3.1h1.2zm.1-4c1.1 0 1.7.4 1.7 1.3 0 .5-.2.9-.5 1.1-.3.3-.8.4-1.3.4h-1v-2.8h1.1zm.3 8.4c1 0 1.8-.3 2.5-.8s1-1.2 1-2c0-.7-.2-1.2-.6-1.6-.4-.4-.9-.7-1.6-.7.6-.2 1-.5 1.3-.9s.5-.9.5-1.4c0-.7-.3-1.2-.8-1.6-.6-.4-1.3-.6-2.2-.6h-3.1v9.8h3v-.2zm-10.2-8.4c2.4 0 3.5 1.1 3.5 3.4 0 1.1-.3 2-.9 2.7-.6.6-1.5.9-2.7.9h-1.3v-7h1.4zm-.2 8.4c1.7 0 3-.5 4-1.4s1.5-2.1 1.5-3.6c0-3.2-1.8-4.8-5.4-4.8h-2.8v9.8h2.7zM879.3 249.4c1.1 0 1.9-.3 2.6-.8.7-.5 1-1.2 1-2.1 0-.6-.2-1.2-.6-1.6-.4-.4-1-.7-1.7-.7 1.3-.4 2-1.2 2-2.5 0-.7-.3-1.2-.8-1.7-.5-.4-1.2-.7-2.1-.7-.9 0-1.7.2-2.3.6v1.4c.6-.5 1.2-.7 1.8-.7 1.2 0 1.8.5 1.8 1.4 0 1-.8 1.6-2.3 1.6h-.7v1.3h.8c1.7 0 2.5.6 2.5 1.7 0 .5-.2.9-.6 1.2s-.9.4-1.6.4c-.8 0-1.5-.3-2.1-.8v1.5c.6.3 1.3.5 2.3.5zm-11.4-4.6c1.4 0 2.1.5 2.1 1.5 0 .5-.2.9-.5 1.2s-.8.4-1.4.4h-1.4v-3.1h1.2zm0-4c1.1 0 1.7.4 1.7 1.3 0 .5-.2.9-.5 1.1-.3.3-.8.4-1.3.4h-1v-2.8h1.1zm.3 8.4c1 0 1.8-.3 2.5-.8s1-1.2 1-2c0-.7-.2-1.2-.6-1.6-.4-.4-.9-.7-1.6-.7.6-.2 1-.5 1.3-.9s.5-.9.5-1.4c0-.7-.3-1.2-.8-1.6-.6-.4-1.3-.6-2.2-.6h-3.1v9.8h3v-.2zm-10.1-8.4c2.4 0 3.5 1.1 3.5 3.4 0 1.1-.3 2-.9 2.7-.6.6-1.5.9-2.7.9h-1.3v-7h1.4zm-.3 8.4c1.7 0 3-.5 4-1.4s1.5-2.1 1.5-3.6c0-3.2-1.8-4.8-5.4-4.8h-2.8v9.8h2.7z"/></g></g><path fill="#DEDEDE" d="M430.9 449.9h-54.4c-14.6 0-14.7 22.8 0 22.8h54.4c14.6-.1 14.7-22.8 0-22.8zM323.9 297.6h-18.7c-6 0-11.7 5.2-11.4 11.4.3 6.2 5 11.4 11.4 11.4h18.7c6 0 11.7-5.2 11.4-11.4-.3-6.2-5-11.4-11.4-11.4zM671.3 235.9h-70.7c-14.6 0-14.7 22.8 0 22.8h70.7c14.6 0 14.7-22.8 0-22.8z"/><path fill="none" d="M559.4 382.1h136.1M278.2 382.1h120.7M539.4 289.7h156.1M278.2 289.7h140.7"/><path fill="#898989" d="M843.4 174.3c.6 0 1 .1 1.3.4s.4.6.4 1.1c0 .3 0 .5-.1.7s-.2.4-.4.5-.3.3-.6.3-.4.1-.7.1H842v-3.2l1.4.1zm2.8 5.7c-.1-.2-.3-.4-.4-.6-.1-.2-.2-.3-.4-.4s-.2-.3-.4-.4c-.1-.1-.3-.2-.5-.3.3-.1.6-.2.9-.4s.5-.4.7-.6c.2-.2.3-.5.4-.8.1-.3.2-.6.2-1s-.1-.8-.2-1.2c-.2-.3-.4-.6-.7-.8s-.6-.4-1-.5-.8-.2-1.3-.2h-3.2v9.8h1.6v-4h.7c.2 0 .4 0 .6.1s.3.1.5.2.3.3.4.4c.1.2.3.4.4.6l1.6 2.6h1.9l-1.8-2.5zm-7.6 1.4h-3.9v-2.9h3.4v-1.4h-3.4v-2.8h3.7V173h-5.3v9.8h5.5v-1.4zm-8.5-8.4l-2.5 7.4c-.1.3-.2.6-.2.8 0-.3-.1-.6-.2-.8l-2.4-7.4H823l3.5 9.8h1.8l3.5-9.8h-1.7zm-10.3 2.2c.5.6.8 1.5.8 2.7 0 1.1-.3 2-.8 2.7s-1.3 1-2.2 1-1.6-.3-2.1-1-.8-1.5-.8-2.6.3-2 .8-2.6 1.3-1 2.2-1c.9-.2 1.6.2 2.1.8zm1.2 6.4c.9-.9 1.3-2.2 1.3-3.8 0-1.5-.4-2.7-1.3-3.6s-1.9-1.4-3.3-1.4c-1.5 0-2.7.5-3.5 1.4s-1.3 2.2-1.3 3.8c0 1.5.4 2.7 1.3 3.6s2 1.4 3.4 1.4c1.4-.1 2.6-.5 3.4-1.4zm-8.4-.2h-3.8V173h-1.6v9.8h5.4v-1.4zm-7.9-8.4H803v9.8h1.7V173zm-9.1 6l1.3-3.9c.1-.2.1-.4.1-.6 0 .3.1.5.1.6l1.4 3.9h-2.9zm2.5-6h-1.8l-3.7 9.8h1.8l.8-2.5h3.9l.9 2.5h1.8l-3.7-9.8zm-5.4 0h-5.3v9.8h1.6v-4.1h3.4v-1.4H789v-2.9h3.7V173zm-14.8 5.4c1.4 0 2.1.5 2.1 1.5 0 .5-.2.9-.5 1.2s-.8.4-1.4.4h-1.4v-3.1h1.2zm.1-4.1c1.1 0 1.7.4 1.7 1.3 0 .5-.2.9-.5 1.1-.3.3-.8.4-1.3.4h-1.1v-2.8h1.2zm.3 8.5c1 0 1.8-.3 2.5-.8s1-1.2 1-2c0-.7-.2-1.2-.6-1.6-.4-.4-.9-.7-1.6-.7.6-.2 1-.5 1.3-.9s.5-.9.5-1.4c0-.7-.3-1.2-.8-1.6s-1.3-.6-2.3-.6h-3.1v9.8h3.1v-.2zm-10.2-8.4c2.4 0 3.6 1.1 3.6 3.4 0 1.1-.3 2-1 2.7s-1.5.9-2.7.9h-1.3v-7h1.4zm-.3 8.4c1.7 0 3-.5 4-1.4s1.5-2.1 1.5-3.6c0-3.2-1.8-4.8-5.4-4.8h-2.8v9.8h2.7z"/><g fill="#898989"><path d="M908.7 134.2c0 1.4-.5 2.1-1.5 2.1-.5 0-.9-.2-1.2-.5s-.4-.8-.4-1.4V133h3.1v1.2zm4 0c0 1.1-.4 1.7-1.3 1.7-.5 0-.9-.2-1.1-.5-.3-.3-.4-.8-.4-1.3V133h2.8v1.2zm-8.4.3c0 1 .3 1.8.8 2.5s1.2 1 2 1c.7 0 1.2-.2 1.6-.6.4-.4.7-.9.7-1.6.2.6.5 1 .9 1.3s.9.5 1.4.5c.7 0 1.2-.3 1.6-.8s.6-1.3.6-2.3v-3.1h-9.8v3.1h.2zm8.4-10.2c0 2.4-1.1 3.6-3.4 3.6-1.1 0-2-.3-2.7-1s-.9-1.5-.9-2.7v-1.3h7v1.4zm-8.4-.3c0 1.7.5 3 1.4 4s2.1 1.5 3.6 1.5c3.2 0 4.8-1.8 4.8-5.4v-2.8h-9.8v2.7zm7-9.4l-5.1-1.8c-.2-.1-.4-.1-.5-.1.3-.1.4-.1.5-.1l5.1-1.7v-1.8l-7 2.8-1.1-.5c-.6-.3-.9-.7-.9-1.3 0-.2 0-.4.1-.7H901c-.1.2-.1.5-.1.8 0 1.2.7 2.1 2.2 2.8l8.1 3.2.1-1.6zm-.1-6.1c.1-.2.1-.4.1-.7 0-.4-.1-.8-.4-1.1-.3-.3-.7-.6-1.2-.7h1.4v-1.6h-7v1.6h3.3c.7 0 1.3.2 1.7.5s.6.7.6 1.2c0 .4-.1.6-.2.8h1.7zm-4.1-7.5c-.5 0-.9-.2-1.3-.5-.3-.3-.5-.7-.5-1.2 0-.4.1-.6.3-.9.2-.2.4-.3.7-.3.4 0 .7.1.9.3.2.2.3.6.3 1l.2 1.5-.6.1zm1.7 1.5c1.7 0 2.6-.9 2.6-2.7 0-1-.2-1.8-.7-2.6h-1.4c.6.7.9 1.4.9 2.3s-.5 1.4-1.5 1.4l-.3-2.1c-.2-1.5-1-2.3-2.3-2.3-.6 0-1.1.2-1.5.6s-.6.9-.6 1.6c0 .9.4 1.6 1.3 2.1h-1.1v1.5h4.6v.2zm-.2-7.3c1.9 0 2.9-.8 2.9-2.3 0-1-.5-1.8-1.4-2.3.4-.1.8-.4 1-.7.3-.4.4-.8.4-1.3 0-1-.4-1.7-1.3-2.2h1.1v-1.6h-7v1.6h3.8c.6 0 1.1.1 1.5.4s.6.6.6 1.1c0 .9-.7 1.4-2 1.4h-3.9v1.6h3.8c.6 0 1.1.1 1.5.4s.6.6.6 1.1-.2.8-.5 1-.9.3-1.6.3h-3.8v1.6l4.3-.1zm2.7-12.5v-1.6h-7v1.6h7zm1.7-.1c.2.2.4.3.6.3.3 0 .5-.1.6-.3s.3-.4.3-.7c0-.3-.1-.5-.3-.7s-.4-.3-.6-.3-.5.1-.6.3-.3.4-.3.7c0 .2.1.5.3.7zm-1.8-2.6c.1-.2.1-.4.1-.7 0-.4-.1-.8-.4-1.1-.3-.3-.7-.6-1.2-.7h1.4v-1.6h-7v1.6h3.3c.7 0 1.3.2 1.7.5s.6.7.6 1.2c0 .4-.1.6-.2.8h1.7zm1.5-9.3c0 1.3-.6 2-1.7 2-.6 0-1-.2-1.4-.5s-.5-.9-.5-1.6v-1.1h3.6v1.2zm-4.9.1c0 1.1.3 2 .9 2.6s1.4 1 2.3 1 1.7-.3 2.2-.9.8-1.5.8-2.6v-3h-9.8v1.6h3.6v1.3zM908.7 304.8c0 1.4-.5 2.1-1.5 2.1-.5 0-.9-.2-1.2-.5s-.4-.8-.4-1.4v-1.4h3.1v1.2zm4 0c0 1.1-.4 1.7-1.3 1.7-.5 0-.9-.2-1.1-.5-.3-.3-.4-.8-.4-1.3v-1.1h2.8v1.2zm-8.4.4c0 1 .3 1.8.8 2.5s1.2 1 2 1c.7 0 1.2-.2 1.6-.6.4-.4.7-.9.7-1.6.2.6.5 1 .9 1.3s.9.5 1.4.5c.7 0 1.2-.3 1.6-.8s.6-1.3.6-2.3V302h-9.8v3.2h.2zm8.4-10.2c0 2.4-1.1 3.6-3.4 3.6-1.1 0-2-.3-2.7-1s-.9-1.5-.9-2.7v-1.3h7v1.4zm-8.4-.3c0 1.7.5 3 1.4 4s2.1 1.5 3.6 1.5c3.2 0 4.8-1.8 4.8-5.4V292h-9.8v2.7zm7-9.4l-5.1-1.8c-.2-.1-.4-.1-.5-.1.3-.1.4-.1.5-.1l5.1-1.7v-1.8l-7 2.8-1.1-.5c-.6-.3-.9-.7-.9-1.3 0-.2 0-.4.1-.7H901c-.1.2-.1.5-.1.8 0 1.2.7 2.1 2.2 2.8l8.1 3.2.1-1.6zm-.1-6.1c.1-.2.1-.4.1-.7 0-.4-.1-.8-.4-1.1-.3-.3-.7-.6-1.2-.7h1.4v-1.6h-7v1.6h3.3c.7 0 1.3.2 1.7.5s.6.7.6 1.2c0 .4-.1.6-.2.8h1.7zm-4.1-7.6c-.5 0-.9-.2-1.3-.5-.3-.3-.5-.7-.5-1.2 0-.4.1-.6.3-.9.2-.2.4-.3.7-.3.4 0 .7.1.9.3.2.2.3.6.3 1l.2 1.5h-.6v.1zm1.7 1.6c1.7 0 2.6-.9 2.6-2.7 0-1-.2-1.8-.7-2.6h-1.4c.6.7.9 1.4.9 2.3s-.5 1.4-1.5 1.4l-.3-2.1c-.2-1.5-1-2.3-2.3-2.3-.6 0-1.1.2-1.5.6s-.6.9-.6 1.6c0 .9.4 1.6 1.3 2.1h-1.1v1.5h4.6v.2zm-.2-7.3c1.9 0 2.9-.8 2.9-2.3 0-1-.5-1.8-1.4-2.3.4-.1.8-.4 1-.7.3-.4.4-.8.4-1.3 0-1-.4-1.7-1.3-2.2h1.1v-1.6h-7v1.6h3.8c.6 0 1.1.1 1.5.4s.6.6.6 1.1c0 .9-.7 1.4-2 1.4h-3.9v1.6h3.8c.6 0 1.1.1 1.5.4s.6.6.6 1.1-.2.8-.5 1-.9.3-1.6.3h-3.8v1.6h4.3v-.1zm2.7-12.6v-1.6h-7v1.6h7zm1.7-.1c.2.2.4.3.6.3.3 0 .5-.1.6-.3s.3-.4.3-.7-.1-.5-.3-.7-.4-.3-.6-.3-.5.1-.6.3-.3.4-.3.7.1.5.3.7zm-1.8-2.6c.1-.2.1-.4.1-.7 0-.4-.1-.8-.4-1.1-.3-.3-.7-.6-1.2-.7h1.4v-1.6h-7v1.6h3.3c.7 0 1.3.2 1.7.5s.6.7.6 1.2c0 .4-.1.6-.2.8h1.7zm1.5-9.2c0 1.3-.6 2-1.7 2-.6 0-1-.2-1.4-.5s-.5-.9-.5-1.6v-1.1h3.6v1.2zm-4.9.1c0 1.1.3 2 .9 2.6s1.4 1 2.3 1 1.7-.3 2.2-.9.8-1.5.8-2.6v-3h-9.8v1.6h3.6v1.3z"/></g><path fill="none" stroke="#898989" stroke-width="3" stroke-linecap="round" stroke-linejoin="round" stroke-miterlimit="10" d="M805.9 202l4.4-4.4M805.9 202l-4.4-4.4"/><path fill="none" stroke="#898989" stroke-miterlimit="10" d="M805.9 190.6V202"/><path fill="none" stroke="#898989" stroke-width="3" stroke-linecap="round" stroke-linejoin="round" stroke-miterlimit="10" d="M805.9 190.6V202M805.9 154.8l-4.4 4.5M805.9 154.8l4.4 4.5"/><path fill="none" stroke="#898989" stroke-miterlimit="10" d="M805.9 166.3v-11.5"/><path fill="none" stroke="#898989" stroke-width="3" stroke-linecap="round" stroke-linejoin="round" stroke-miterlimit="10" d="M805.9 166.3v-11.5"/><path fill="none" stroke="#DEDEDE" stroke-width="3" stroke-linecap="round" stroke-linejoin="round" stroke-miterlimit="10" d="M559.4 180.7h81M642.6 180.6l-8-7.8M642.6 180.6l-8 7.8M408.3 180.4h-89M317.1 180.6l8 7.8M317.1 180.6l8-7.8"/><path fill="#898989" d="M513.5 176.1h-3.9v-2.9h3.4v-1.4h-3.4V169h3.6v-1.4h-5.3v9.8h5.5l.1-1.3zm-12.9 1.2c.2.1.5.1.7.2.3 0 .5.1.7.1h.6c.5 0 1 0 1.4-.1s.8-.2 1.2-.5c.3-.2.6-.5.8-.8.2-.3.3-.8.3-1.3 0-.4-.1-.7-.2-1s-.3-.5-.5-.8c-.2-.2-.5-.5-.8-.6-.3-.2-.6-.4-1-.6-.3-.1-.6-.3-.9-.4-.3-.1-.5-.3-.6-.4-.2-.1-.3-.3-.4-.4-.1-.2-.1-.3-.1-.6 0-.2.1-.4.2-.6s.3-.3.5-.4.4-.2.6-.2.5-.1.7-.1c.9 0 1.6.2 2.1.6v-1.6c-.5-.2-1.2-.3-2.2-.3-.4 0-.9.1-1.3.2s-.8.3-1.2.5c-.3.2-.6.5-.8.8s-.3.7-.3 1.2c0 .4.1.7.2 1s.3.5.5.7.5.4.7.6c.3.2.6.4.9.5s.6.3.9.4c.3.1.5.3.7.4s.4.3.5.5.2.4.2.6c0 .4-.2.8-.5 1s-.8.3-1.5.3c-.2 0-.4 0-.6-.1-.2 0-.5-.1-.7-.2-.2-.1-.5-.2-.7-.3s-.4-.2-.5-.4v1.7c0 .2.2.3.4.4zm-7.5-3.7l1.3-3.9c0-.1.1-.4.1-.6 0 .3.1.5.1.6l1.4 3.9h-2.9zm2.4-5.9h-1.8l-3.7 9.8h1.8l.8-2.5h3.8l.9 2.5h1.8l-3.6-9.8zm-10 5.4c1.4 0 2.1.5 2.1 1.5 0 .5-.2.9-.5 1.2s-.8.4-1.4.4h-1.4v-3.1h1.2zm0-4.1c1.1 0 1.7.4 1.7 1.3 0 .5-.2.9-.5 1.1-.3.3-.8.4-1.3.4h-1V169h1.1zm.3 8.4c1 0 1.8-.3 2.5-.8s1-1.2 1-2c0-.7-.2-1.2-.6-1.6-.4-.4-.9-.7-1.6-.7.6-.2 1-.5 1.3-.9s.5-.9.5-1.4c0-.7-.3-1.2-.8-1.6-.6-.4-1.3-.6-2.2-.6h-3.1v9.8h3v-.2zm-10.5-3.8l1.3-3.9c0-.1.1-.4.1-.6 0 .3.1.5.1.6l1.4 3.9h-2.9zm2.5-5.9H476l-3.7 9.8h1.8l.8-2.5h3.8l.9 2.5h1.8l-3.6-9.8zm-4.8 0h-7.2v1.4h2.8v8.4h1.6v-8.4h2.8v-1.4zm-12.7 5.9l1.3-3.9c0-.1.1-.4.1-.6 0 .3.1.5.1.6l1.4 3.9h-2.9zm2.4-5.9h-1.8l-3.7 9.8h1.8l.8-2.5h3.8l.9 2.5h1.8l-3.6-9.8zm-11.2 1.4c2.4 0 3.5 1.1 3.5 3.4 0 1.1-.3 2-.9 2.7-.6.6-1.5.9-2.7.9h-1.3v-7h1.4zm-.2 8.3c1.7 0 3-.5 4-1.4s1.5-2.1 1.5-3.6c0-3.2-1.8-4.8-5.4-4.8h-2.8v9.8h2.7zM545.7 184.4h-1.6v6.3c0 .6 0 1.1.1 1.3-.1-.1-.2-.3-.4-.6l-4.5-7h-1.9v9.8h1.6v-6.4c0-.7 0-1.1-.1-1.3l.3.6 4.7 7.2h1.8v-9.9zm-12.6 2.2c.5.6.8 1.5.8 2.7 0 1.1-.3 2-.8 2.6s-1.3.9-2.2.9-1.6-.3-2.1-1-.8-1.5-.8-2.6.3-2 .8-2.6c.6-.7 1.3-1 2.2-1 .9.1 1.6.4 2.1 1zm1.2 6.3c.9-.9 1.3-2.2 1.3-3.8 0-1.5-.4-2.7-1.3-3.6-.8-.9-1.9-1.4-3.3-1.4-1.5 0-2.6.5-3.5 1.4s-1.3 2.2-1.3 3.8c0 1.5.4 2.6 1.3 3.6.8.9 2 1.4 3.4 1.4s2.6-.5 3.4-1.4zm-9.8-8.5h-1.7v9.8h1.7v-9.8zm-3.1 0h-7.2v1.4h2.8v8.4h1.6v-8.4h2.8v-1.4zm-12.7 5.9l1.3-3.9c0-.1.1-.4.1-.6 0 .3.1.5.1.6l1.4 3.9h-2.9zm2.4-5.9h-1.8l-3.7 9.8h1.8l.8-2.5h3.8l.9 2.5h1.8l-3.6-9.8zm-5.9 0H498v1.4h5l-5.4 7.6v.7h7.5v-1.4h-5.3l5.3-7.7v-.6h.1zm-9 0h-1.7v9.8h1.7v-9.8zm-4.1 0h-1.6v6.3c0 .6 0 1.1.1 1.3-.1-.1-.2-.3-.4-.6l-4.5-7h-1.9v9.8h1.6v-6.4c0-.7 0-1.1-.1-1.3l.3.6 4.7 7.2h1.8v-9.9zm-12.5 2.2c.5.6.8 1.5.8 2.7 0 1.1-.3 2-.8 2.6s-1.3.9-2.2.9c-.9 0-1.6-.3-2.1-1s-.8-1.5-.8-2.6.3-2 .8-2.6c.6-.7 1.3-1 2.2-1 .8.1 1.6.4 2.1 1zm1.2 6.3c.9-.9 1.3-2.2 1.3-3.8 0-1.5-.4-2.7-1.3-3.6-.8-.9-1.9-1.4-3.3-1.4-1.5 0-2.6.5-3.5 1.4s-1.3 2.2-1.3 3.8c0 1.5.4 2.6 1.3 3.6.8.9 2 1.4 3.4 1.4s2.5-.5 3.4-1.4zm-13-7.2c.6 0 1 .1 1.3.4s.4.6.4 1.1c0 .3 0 .5-.1.7s-.2.4-.4.5c-.2.1-.3.3-.5.3s-.4.1-.7.1h-1.3v-3.2l1.3.1zm2.8 5.7c-.1-.2-.3-.4-.4-.6-.1-.2-.2-.3-.3-.4-.1-.1-.2-.3-.4-.4-.1-.1-.3-.2-.5-.3.3-.1.6-.2.9-.4s.5-.4.7-.6c.2-.2.3-.5.4-.8s.2-.6.2-.9c0-.4-.1-.8-.2-1.2-.2-.3-.4-.6-.7-.8-.3-.2-.6-.4-1-.5s-.8-.2-1.3-.2h-3.2v9.8h1.6v-4h.7c.2 0 .4 0 .6.1s.3.1.5.2c.1.1.3.2.4.4s.3.4.4.6l1.6 2.6h1.9l-1.9-2.6zm-8.2-7h-1.6v4.1h-4.6v-4.1h-1.6v9.8h1.6V190h4.6v4.2h1.6v-9.8zm-9.7 7.8c-.7.4-1.5.7-2.4.7-1 0-1.8-.3-2.4-1-.6-.6-.9-1.5-.9-2.6s.3-2 1-2.7 1.5-1 2.6-1c.8 0 1.5.2 2.2.6v-1.6c-.6-.3-1.4-.4-2.3-.4-1.5 0-2.7.5-3.6 1.4s-1.4 2.2-1.4 3.8c0 1.5.4 2.6 1.3 3.5s2 1.3 3.4 1.3c1.1 0 2-.2 2.7-.6v-1.4h-.2zm-9.2-7.8h-1.6v6.3c0 .6 0 1.1.1 1.3-.1-.1-.2-.3-.4-.6l-4.5-7h-1.9v9.8h1.6v-6.4c0-.7 0-1.1-.1-1.3l.3.6 4.7 7.2h1.8v-9.9zm-11.3 0l-2 4.2c-.1.2-.2.4-.2.6-.1-.3-.2-.5-.2-.6l-1.9-4.2H426l3.1 6.2v3.5h1.6v-3.5l3.2-6.2h-1.7zm-12.5 9.6c.2.1.5.1.7.2.3 0 .5.1.7.1h.6c.5 0 1 0 1.4-.1s.8-.2 1.2-.5c.3-.2.6-.5.8-.8.2-.3.3-.8.3-1.3 0-.4-.1-.7-.2-1s-.3-.5-.5-.8c-.2-.2-.5-.5-.8-.6-.3-.2-.6-.4-1-.6-.3-.1-.6-.3-.9-.4-.3-.1-.5-.3-.6-.4-.2-.1-.3-.3-.4-.4-.1-.2-.1-.3-.1-.6 0-.2.1-.4.2-.6s.3-.3.5-.4.4-.2.6-.2.5-.1.7-.1c.9 0 1.6.2 2.1.6v-1.6c-.5-.2-1.2-.3-2.2-.3-.4 0-.9.1-1.3.2s-.8.3-1.2.5c-.3.2-.6.5-.8.8s-.3.7-.3 1.2c0 .4.1.7.2 1s.3.5.5.7.5.4.7.6c.3.2.6.4.9.5s.6.3.9.4c.3.1.5.3.7.4s.4.3.5.5.2.4.2.6c0 .4-.2.8-.5 1s-.8.3-1.5.3c-.2 0-.4 0-.6-.1-.2 0-.5-.1-.7-.2-.2-.1-.5-.2-.7-.3s-.4-.2-.5-.4v1.7c0 .2.2.3.4.4z"/><path fill="none" stroke="#DEDEDE" stroke-width="3" stroke-linecap="round" stroke-linejoin="round" stroke-miterlimit="10" d="M559.4 508.8h81M642.6 508.7l-8-7.8M642.6 508.7l-8 7.7M408.3 508.5h-89M317.1 508.7l8 7.7M317.1 508.7l8-7.8"/><path fill="#898989" d="M535.4 503.8h-1.6v6.3c0 .6 0 1.1.1 1.3-.1-.1-.2-.3-.4-.6l-4.5-7h-1.9v9.8h1.6v-6.4c0-.7 0-1.1-.1-1.3l.3.6 4.7 7.2h1.8v-9.9zm-12.5 2.2c.5.6.8 1.5.8 2.7 0 1.1-.3 2-.8 2.6s-1.3.9-2.2.9-1.6-.3-2.1-1-.8-1.5-.8-2.6.3-2 .8-2.6c.6-.7 1.3-1 2.2-1 .8 0 1.6.3 2.1 1zm1.2 6.3c.9-.9 1.3-2.2 1.3-3.8 0-1.5-.4-2.7-1.3-3.6-.8-.9-1.9-1.4-3.3-1.4-1.5 0-2.6.5-3.5 1.4s-1.3 2.2-1.3 3.8c0 1.5.4 2.6 1.3 3.6.8.9 2 1.4 3.4 1.4s2.5-.5 3.4-1.4zm-9.9-8.5h-1.7v9.8h1.7v-9.8zm-3.1 0h-7.2v1.4h2.8v8.4h1.6v-8.4h2.8v-1.4zm-12.6 5.9l1.3-3.9c0-.1.1-.4.1-.6 0 .3.1.5.1.6l1.4 3.9h-2.9zm2.4-5.9h-1.8l-3.7 9.8h1.8l.8-2.5h3.8l.9 2.5h1.8l-3.6-9.8zm-6.2 7.8c-.7.4-1.5.7-2.4.7-1 0-1.8-.3-2.4-1-.6-.6-.9-1.5-.9-2.6s.3-2 1-2.7 1.5-1 2.6-1c.8 0 1.5.2 2.2.6V504c-.6-.3-1.4-.4-2.3-.4-1.5 0-2.7.5-3.6 1.4s-1.4 2.2-1.4 3.8c0 1.5.4 2.6 1.3 3.5.9.9 2 1.3 3.4 1.3 1.1 0 2-.2 2.7-.6v-1.4h-.2zm-9.2-7.8h-1.7v9.8h1.7v-9.8zm-3.1 8.3h-3.8v-8.4H477v9.8h5.4v-1.4zm-10.7-7c1.3 0 2 .6 2 1.7 0 .6-.2 1-.5 1.4-.4.3-.9.5-1.6.5h-1v-3.6h1.1zm.1 4.9c1.1 0 2-.3 2.6-.9s1-1.4 1-2.3-.3-1.7-.9-2.2-1.5-.8-2.6-.8h-3v9.8h1.6V510h1.3zm-4.7 2.1h-3.9v-2.9h3.4v-1.4h-3.4V505h3.6v-1.4h-5.3v9.8h5.5l.1-1.3zm-11.1-7c.6 0 1 .1 1.3.4s.4.6.4 1.1c0 .3 0 .5-.1.7s-.2.4-.4.5c-.2.1-.3.3-.5.3s-.4.1-.7.1h-1.3V505h1.3v.1zm2.8 5.7c-.1-.2-.3-.4-.4-.6s-.2-.3-.3-.4c-.1-.1-.2-.3-.4-.4-.1-.1-.3-.2-.5-.3.3-.1.6-.2.9-.4.3-.2.5-.4.7-.6s.3-.5.4-.8.2-.6.2-.9c0-.4-.1-.8-.2-1.2-.2-.3-.4-.6-.7-.8-.3-.2-.6-.4-1-.5s-.8-.2-1.3-.2H453v9.8h1.6v-4h.7c.2 0 .4 0 .6.1s.3.1.5.2c.1.1.3.2.4.4.1.2.3.4.4.6l1.6 2.6h1.9l-1.9-2.6zm-16.7-5.7c2.4 0 3.5 1.1 3.5 3.4 0 1.1-.3 2-.9 2.7-.6.6-1.5.9-2.7.9h-1.3v-7h1.4zm-.2 8.4c1.7 0 3-.5 4-1.4 1-.9 1.5-2.1 1.5-3.6 0-3.2-1.8-4.8-5.4-4.8h-2.8v9.8h2.7zm-10.1-3.8l1.3-3.9c0-.1.1-.4.1-.6 0 .3.1.5.1.6l1.4 3.9h-2.9zm2.4-5.9h-1.8l-3.7 9.8h1.8l.8-2.5h3.8l.9 2.5h1.8l-3.6-9.8z"/><g class="server"><path fill="#898989" d="M136.5 226.5c1.4 0 2.1.5 2.1 1.5 0 .5-.2.9-.5 1.2s-.8.4-1.4.4h-1.4v-3.1h1.2zm0-4.1c1.1 0 1.7.4 1.7 1.3 0 .5-.2.9-.5 1.1-.3.3-.8.4-1.3.4h-1v-2.8h1.1zm.4 8.5c1 0 1.8-.3 2.5-.8s1-1.2 1-2c0-.7-.2-1.2-.6-1.6-.4-.4-.9-.7-1.6-.7.6-.2 1-.5 1.3-.9s.5-.9.5-1.4c0-.7-.3-1.2-.8-1.6-.6-.4-1.3-.6-2.2-.6h-3.1v9.8h3v-.2zm-10.2-8.4c2.4 0 3.5 1.1 3.5 3.4 0 1.1-.3 2-.9 2.7-.6.6-1.5.9-2.7.9h-1.3v-7h1.4zm-.2 8.4c1.7 0 3-.5 4-1.4s1.5-2.1 1.5-3.6c0-3.2-1.8-4.8-5.4-4.8h-2.8v9.8h2.7zm-9.5-9.8l-2 4.2c-.1.2-.2.4-.2.6-.1-.3-.2-.5-.2-.6l-1.9-4.2h-1.8l3.1 6.2v3.5h1.6v-3.5l3.2-6.2H117zm-10.6 1.3c.6 0 1 .1 1.3.4s.4.6.4 1.1c0 .3 0 .5-.1.7s-.2.4-.4.5c-.2.1-.3.3-.5.3s-.4.1-.7.1H105v-3.2l1.4.1zm2.8 5.7c-.1-.2-.3-.4-.4-.6-.1-.2-.2-.3-.3-.4-.1-.1-.2-.3-.4-.4-.1-.1-.3-.2-.5-.3.3-.1.6-.2.9-.4s.5-.4.7-.6c.2-.2.3-.5.4-.8s.2-.6.2-.9c0-.4-.1-.8-.2-1.2-.2-.3-.4-.6-.7-.8-.3-.2-.6-.4-1-.5s-.8-.2-1.3-.2h-3.2v9.8h1.6v-4h.7c.2 0 .4 0 .6.1s.3.1.5.2c.1.1.3.2.4.4s.3.4.4.6l1.6 2.6h1.9l-1.9-2.6zm-13.2-1l1.3-3.9c0-.1.1-.4.1-.6 0 .3.1.5.1.6l1.4 3.9H96zm2.5-6h-1.8l-3.7 9.8h1.8l.8-2.5h3.8l.9 2.5h1.8l-3.6-9.8zm-11.2 1.4c2.4 0 3.5 1.1 3.5 3.4 0 1.1-.3 2-.9 2.7-.6.6-1.5.9-2.7.9h-1.3v-7h1.4zm-.3 8.4c1.7 0 3-.5 4-1.4s1.5-2.1 1.5-3.6c0-3.2-1.8-4.8-5.4-4.8h-2.8v9.8H87zm-5.1-9.8h-1.6v6.3c0 .6 0 1.1.1 1.3-.1-.1-.2-.3-.4-.6l-4.5-7h-1.9v9.8h1.6v-6.4c0-.7 0-1.1-.1-1.3l.3.6 4.7 7.2h1.8v-9.9zm-12.5 2.2c.5.6.8 1.5.8 2.7 0 1.1-.3 2-.8 2.6s-1.3.9-2.2.9c-.9 0-1.6-.3-2.1-1s-.8-1.5-.8-2.6.3-2 .8-2.6c.6-.7 1.3-1 2.2-1 .8.1 1.5.4 2.1 1zm1.1 6.4c.9-.9 1.3-2.2 1.3-3.8 0-1.5-.4-2.7-1.3-3.6-.8-.9-1.9-1.4-3.3-1.4-1.5 0-2.6.5-3.5 1.4s-1.3 2.2-1.3 3.8c0 1.5.4 2.6 1.3 3.6.8.9 2 1.4 3.4 1.4 1.4-.1 2.6-.5 3.4-1.4zm-9.1-.7c-.7.4-1.5.7-2.4.7-1 0-1.8-.3-2.4-1-.6-.6-.9-1.5-.9-2.6s.3-2 1-2.7 1.5-1 2.6-1c.8 0 1.5.2 2.2.6v-1.6c-.6-.3-1.4-.4-2.3-.4-1.5 0-2.7.5-3.6 1.4s-1.4 2.2-1.4 3.8c0 1.5.4 2.6 1.3 3.5.9.9 2 1.3 3.4 1.3 1.1 0 2-.2 2.7-.6V229h-.2zm-8.5.5H49v-2.9h3.4v-1.4H49v-2.8h3.6V221h-5.3v9.8h5.5v-1.3h.1zm-13 1.2c.2.1.5.1.7.2.3 0 .5.1.7.1h.6c.5 0 1 0 1.4-.1s.8-.2 1.2-.5c.3-.2.6-.5.8-.8s.3-.8.3-1.3c0-.4-.1-.7-.2-1s-.3-.5-.5-.8c-.2-.2-.5-.5-.8-.6-.3-.2-.6-.4-1-.6-.3-.1-.6-.3-.9-.4-.3-.1-.5-.3-.6-.4-.2-.1-.3-.3-.4-.4-.1-.2-.1-.3-.1-.6 0-.2.1-.4.2-.6s.3-.3.5-.4.4-.2.6-.2c.2 0 .5-.1.7-.1.9 0 1.6.2 2.1.6v-1.6c-.5-.2-1.2-.3-2.2-.3-.4 0-.9.1-1.3.2s-.8.3-1.2.5c-.3.2-.6.5-.8.8s-.3.7-.3 1.2c0 .4.1.7.2 1s.3.5.5.7.5.4.7.6c.3.2.6.4.9.5.3.1.6.3.9.4.3.1.5.3.7.4s.4.3.5.5.2.4.2.6c0 .4-.2.8-.5 1s-.8.3-1.5.3c-.2 0-.4 0-.6-.1-.2 0-.5-.1-.7-.2-.2-.1-.5-.2-.7-.3s-.4-.2-.5-.4v1.7c0 .3.2.4.4.4z"/><g fill="#A8A8A8"><path d="M126.3 171.1c-5.9 0-12.1-1.2-15.3-3.7v30.9c0 3.8 6.8 6.9 15.3 6.9 8.4 0 15.3-3.1 15.3-6.9v-30.9c-3.2 2.5-9.4 3.7-15.3 3.7z"/><ellipse cx="126.3" cy="163.4" rx="15.3" ry="5.5"/><path d="M107.2 186.1v-22.7c0-5.1 6.1-8 13.4-8.9v-23.9c0-2.1-1.7-3.7-3.8-3.7H86.2c-2.1 0-3.8 1.7-3.8 3.7v74.6h29c-2.6-1.8-4.2-4.2-4.2-6.9v-.7H88.1v-3.8h19.1V190H88.1v-3.8l19.1-.1zm-19.1-47.8h26.7v3.8H88.1v-3.8z"/></g></g><g class="server"><path fill="#898989" d="M265 226.5c1.4 0 2.1.5 2.1 1.5 0 .5-.2.9-.5 1.2s-.8.4-1.4.4h-1.4v-3.1h1.2zm0-4.1c1.1 0 1.7.4 1.7 1.3 0 .5-.2.9-.5 1.1-.3.3-.8.4-1.3.4h-1v-2.8h1.1zm.3 8.5c1 0 1.8-.3 2.5-.8s1-1.2 1-2c0-.7-.2-1.2-.6-1.6-.4-.4-.9-.7-1.6-.7.6-.2 1-.5 1.3-.9s.5-.9.5-1.4c0-.7-.3-1.2-.8-1.6-.6-.4-1.3-.6-2.2-.6h-3.1v9.8h3v-.2zm-10.1-8.4c2.4 0 3.5 1.1 3.5 3.4 0 1.1-.3 2-.9 2.7-.6.6-1.5.9-2.7.9h-1.3v-7h1.4zm-.3 8.4c1.7 0 3-.5 4-1.4s1.5-2.1 1.5-3.6c0-3.2-1.8-4.8-5.4-4.8h-2.8v9.8h2.7zm-9.5-9.8l-2 4.2c-.1.2-.2.4-.2.6-.1-.3-.2-.5-.2-.6l-1.9-4.2h-1.8l3.1 6.2v3.5h1.6v-3.5l3.2-6.2h-1.8zm-10.6 1.3c.6 0 1 .1 1.3.4s.4.6.4 1.1c0 .3 0 .5-.1.7s-.2.4-.4.5-.3.3-.5.3-.4.1-.7.1h-1.3v-3.2l1.3.1zm2.9 5.7c-.1-.2-.3-.4-.4-.6-.1-.2-.2-.3-.3-.4-.1-.1-.2-.3-.4-.4-.1-.1-.3-.2-.5-.3.3-.1.6-.2.9-.4.3-.2.5-.4.7-.6.2-.2.3-.5.4-.8.1-.3.2-.6.2-.9 0-.4-.1-.8-.2-1.2-.2-.3-.4-.6-.7-.8s-.6-.4-1-.5-.8-.2-1.3-.2h-3.2v9.8h1.6v-4h.7c.2 0 .4 0 .6.1s.3.1.5.2c.1.1.3.2.4.4.1.2.3.4.4.6l1.6 2.6h1.9l-1.9-2.6zm-13.2-1l1.3-3.9c0-.1.1-.4.1-.6 0 .3.1.5.1.6l1.4 3.9h-2.9zm2.4-6h-1.8l-3.7 9.8h1.8l.8-2.5h3.8l.9 2.5h1.8l-3.6-9.8zm-11.2 1.4c2.4 0 3.5 1.1 3.5 3.4 0 1.1-.3 2-.9 2.7-.6.6-1.5.9-2.7.9h-1.3v-7h1.4zm-.3 8.4c1.7 0 3-.5 4-1.4s1.5-2.1 1.5-3.6c0-3.2-1.8-4.8-5.4-4.8h-2.8v9.8h2.7zm-5.1-9.8h-1.6v6.3c0 .6 0 1.1.1 1.3-.1-.1-.2-.3-.4-.6l-4.5-7H202v9.8h1.6v-6.4c0-.7 0-1.1-.1-1.3l.3.6 4.7 7.2h1.8v-9.9zm-12.5 2.2c.5.6.8 1.5.8 2.7 0 1.1-.3 2-.8 2.6s-1.3.9-2.2.9-1.6-.3-2.1-1-.8-1.5-.8-2.6.3-2 .8-2.6c.6-.7 1.3-1 2.2-1 .8.1 1.6.4 2.1 1zm1.2 6.4c.9-.9 1.3-2.2 1.3-3.8 0-1.5-.4-2.7-1.3-3.6-.8-.9-1.9-1.4-3.3-1.4-1.5 0-2.6.5-3.5 1.4s-1.3 2.2-1.3 3.8c0 1.5.4 2.6 1.3 3.6.8.9 2 1.4 3.4 1.4 1.4-.1 2.5-.5 3.4-1.4zm-9.1-.7c-.7.4-1.5.7-2.4.7-1 0-1.8-.3-2.4-1-.6-.6-.9-1.5-.9-2.6s.3-2 1-2.7 1.5-1 2.6-1c.8 0 1.5.2 2.2.6v-1.6c-.6-.3-1.4-.4-2.3-.4-1.5 0-2.7.5-3.6 1.4s-1.4 2.2-1.4 3.8c0 1.5.4 2.6 1.3 3.5.9.9 2 1.3 3.4 1.3 1.1 0 2-.2 2.7-.6V229h-.2zm-8.6.5h-3.9v-2.9h3.4v-1.4h-3.4v-2.8h3.6V221h-5.3v9.8h5.5l.1-1.3zm-12.9 1.2c.2.1.5.1.7.2.3 0 .5.1.7.1h.6c.5 0 1 0 1.4-.1s.8-.2 1.2-.5c.3-.2.6-.5.8-.8s.3-.8.3-1.3c0-.4-.1-.7-.2-1s-.3-.5-.5-.8c-.2-.2-.5-.5-.8-.6-.3-.2-.6-.4-1-.6-.3-.1-.6-.3-.9-.4-.3-.1-.5-.3-.6-.4-.2-.1-.3-.3-.4-.4-.1-.2-.1-.3-.1-.6 0-.2.1-.4.2-.6s.3-.3.5-.4.4-.2.6-.2c.2 0 .5-.1.7-.1.9 0 1.6.2 2.1.6v-1.6c-.5-.2-1.2-.3-2.2-.3-.4 0-.9.1-1.3.2s-.8.3-1.2.5c-.3.2-.6.5-.8.8s-.3.7-.3 1.2c0 .4.1.7.2 1s.3.5.5.7.5.4.7.6c.3.2.6.4.9.5.3.1.6.3.9.4.3.1.5.3.7.4s.4.3.5.5.2.4.2.6c0 .4-.2.8-.5 1s-.8.3-1.5.3c-.2 0-.4 0-.6-.1-.2 0-.5-.1-.7-.2-.2-.1-.5-.2-.7-.3s-.4-.2-.5-.4v1.7c0 .3.1.4.4.4z"/><path fill="#A8A8A8" d="M212.6 171.1c-5.9 0-12.1-1.2-15.3-3.7v30.9c0 3.8 6.8 6.9 15.3 6.9 8.4 0 15.3-3.1 15.3-6.9v-30.9c-3.2 2.5-9.4 3.7-15.3 3.7z"/><ellipse fill="#A8A8A8" cx="212.6" cy="163.4" rx="15.3" ry="5.5"/><path fill="#A8A8A8" d="M193.5 186.1v-22.7c0-5.1 6.1-8 13.4-8.9v-23.9c0-2.1-1.7-3.7-3.8-3.7h-30.6c-2.1 0-3.8 1.7-3.8 3.7v74.6h29c-2.6-1.8-4.2-4.2-4.2-6.9v-.7h-19.1v-3.8h19.1V190h-19.1v-3.8l19.1-.1zm-19.2-47.8H201v3.8h-26.7v-3.8z"/></g><path fill="#DEDEDE" d="M8.9.1v5c0 1.1.9 2 2 2s2-.9 2-2V0h-4v.1zM384.1 41.6c0 8.5-6.9 15.5-15.5 15.5H169.5c-10.2 0-18.5 8.3-18.5 18.5v27.3c0 .8.7 1.5 1.5 1.5s1.5-.7 1.5-1.5V75.5c0-8.5 6.9-15.5 15.5-15.5h199.2c10.2 0 18.5-8.3 18.5-18.5V0h-3v41.6h-.1zM281.3 572.7c-.8-.4-1.7-.2-2.3.3h2.8c-.2 0-.3-.2-.5-.3zM25.3 569.9c-1 .5-1.4 1.7-.9 2.7.1.2.2.3.2.5h4.5c-.4-.8-.8-1.5-1.2-2.3-.4-1-1.6-1.4-2.6-.9z"/><g class="azureBlue" fill="#898989"><path d="M935.5 568.9c-.3 0-.6-.1-.8-.2-1-.5-1.4-1.7-1-2.7.7-1.5 1.4-3 2-4.5.4-1 1.6-1.5 2.6-1.1s1.5 1.6 1.1 2.6c-.7 1.5-1.4 3.1-2.1 4.6-.3.9-1 1.3-1.8 1.3zM673.7 563.1c-.8 0-1.5-.5-1.8-1.2-.6-1.6-1.3-3.1-1.9-4.7-.4-1 .1-2.2 1.2-2.6 1-.4 2.2.1 2.6 1.2.6 1.5 1.2 3.1 1.8 4.6.4 1-.1 2.2-1.1 2.6-.3 0-.6.1-.8.1zM940.8 556c-.2 0-.4 0-.7-.1-1-.4-1.6-1.5-1.2-2.6.5-1.5 1.1-3.1 1.6-4.7.3-1.1 1.5-1.6 2.5-1.3 1.1.3 1.6 1.5 1.3 2.5-.5 1.6-1 3.2-1.6 4.8-.3.9-1.1 1.4-1.9 1.4zM669 549.9c-.9 0-1.7-.6-1.9-1.4-.5-1.6-1-3.2-1.4-4.9-.3-1.1.4-2.2 1.4-2.4 1.1-.3 2.2.4 2.4 1.4.4 1.6.9 3.2 1.3 4.7.3 1.1-.3 2.2-1.3 2.5-.2.1-.3.1-.5.1zM944.8 542.6c-.2 0-.3 0-.5-.1-1.1-.3-1.7-1.3-1.5-2.4.4-1.6.8-3.2 1.1-4.8.2-1.1 1.3-1.8 2.4-1.5 1.1.2 1.8 1.3 1.5 2.4-.3 1.7-.7 3.3-1.1 4.9-.2.9-1 1.5-1.9 1.5zM665.6 536.3c-.9 0-1.8-.7-2-1.6-.3-1.6-.6-3.3-.9-5-.2-1.1.6-2.1 1.7-2.3 1.1-.2 2.1.6 2.3 1.7l.9 4.8c.2 1.1-.5 2.1-1.6 2.4h-.4zM947.5 528.9h-.3c-1.1-.2-1.9-1.2-1.7-2.3.2-1.6.4-3.3.6-4.9.1-1.1 1.1-1.9 2.2-1.8 1.1.1 1.9 1.1 1.8 2.2-.2 1.7-.4 3.4-.6 5-.2 1-1 1.8-2 1.8zM663.5 522.5c-1 0-1.9-.8-2-1.8-.2-1.7-.3-3.4-.4-5-.1-1.1.8-2.1 1.9-2.1 1.1-.1 2.1.8 2.1 1.9.1 1.6.2 3.3.4 4.9.1 1.1-.7 2.1-1.8 2.2l-.2-.1zM948.8 514.9c-1.2-.1-2.1-1-2-2.1.1-1.6.1-3.3.1-4.9 0-1.1.9-2 2-2s2 .9 2 2c0 1.7-.1 3.4-.2 5.1.1 1.1-.8 1.9-1.9 1.9zM662.8 508.5c-1.1 0-2-.9-2-2v-5c0-1.1.9-2 2-2s2 .9 2 2v5c0 1.1-.9 2-2 2zM949 500.9c-1.1 0-2-.9-2-2v-5c0-1.1.9-2 2-2s2 .9 2 2v5c0 1.1-.9 2-2 2zM662.8 494.5c-1.1 0-2-.9-2-2v-5c0-1.1.9-2 2-2s2 .9 2 2v5c0 1.1-.9 2-2 2zM949 486.9c-1.1 0-2-.9-2-2v-5c0-1.1.9-2 2-2s2 .9 2 2v5c0 1.1-.9 2-2 2zM662.8 480.5c-1.1 0-2-.9-2-2v-5c0-1.1.9-2 2-2s2 .9 2 2v5c0 1.1-.9 2-2 2zM949 472.9c-1.1 0-2-.9-2-2v-5c0-1.1.9-2 2-2s2 .9 2 2v5c0 1.1-.9 2-2 2zM662.8 466.5c-1.1 0-2-.9-2-2v-5c0-1.1.9-2 2-2s2 .9 2 2v5c0 1.1-.9 2-2 2zM949 458.9c-1.1 0-2-.9-2-2v-5c0-1.1.9-2 2-2s2 .9 2 2v5c0 1.1-.9 2-2 2zM662.8 452.5c-1.1 0-2-.9-2-2v-5c0-1.1.9-2 2-2s2 .9 2 2v5c0 1.1-.9 2-2 2zM949 444.9c-1.1 0-2-.9-2-2v-5c0-1.1.9-2 2-2s2 .9 2 2v5c0 1.1-.9 2-2 2zM662.8 438.5c-1.1 0-2-.9-2-2v-5c0-1.1.9-2 2-2s2 .9 2 2v5c0 1.1-.9 2-2 2zM949 430.9c-1.1 0-2-.9-2-2v-5c0-1.1.9-2 2-2s2 .9 2 2v5c0 1.1-.9 2-2 2zM662.8 424.5c-1.1 0-2-.9-2-2v-5c0-1.1.9-2 2-2s2 .9 2 2v5c0 1.1-.9 2-2 2zM949 416.9c-1.1 0-2-.9-2-2v-5c0-1.1.9-2 2-2s2 .9 2 2v5c0 1.1-.9 2-2 2zM662.8 410.5c-1.1 0-2-.9-2-2v-5c0-1.1.9-2 2-2s2 .9 2 2v5c0 1.1-.9 2-2 2zM949 402.9c-1.1 0-2-.9-2-2v-5c0-1.1.9-2 2-2s2 .9 2 2v5c0 1.1-.9 2-2 2zM662.8 396.5c-1.1 0-2-.9-2-2v-5c0-1.1.9-2 2-2s2 .9 2 2v5c0 1.1-.9 2-2 2zM949 388.9c-1.1 0-2-.9-2-2v-5c0-1.1.9-2 2-2s2 .9 2 2v5c0 1.1-.9 2-2 2zM662.8 382.5c-1.1 0-2-.9-2-2v-5c0-1.1.9-2 2-2s2 .9 2 2v5c0 1.1-.9 2-2 2zM949 374.9c-1.1 0-2-.9-2-2v-5c0-1.1.9-2 2-2s2 .9 2 2v5c0 1.1-.9 2-2 2zM662.8 368.5c-1.1 0-2-.9-2-2v-5c0-1.1.9-2 2-2s2 .9 2 2v5c0 1.1-.9 2-2 2zM949 360.9c-1.1 0-2-.9-2-2v-5c0-1.1.9-2 2-2s2 .9 2 2v5c0 1.1-.9 2-2 2zM662.8 354.5c-1.1 0-2-.9-2-2v-5c0-1.1.9-2 2-2s2 .9 2 2v5c0 1.1-.9 2-2 2zM949 346.9c-1.1 0-2-.9-2-2v-5c0-1.1.9-2 2-2s2 .9 2 2v5c0 1.1-.9 2-2 2zM662.8 340.5c-1.1 0-2-.9-2-2v-5c0-1.1.9-2 2-2s2 .9 2 2v5c0 1.1-.9 2-2 2zM949 332.9c-1.1 0-2-.9-2-2v-5c0-1.1.9-2 2-2s2 .9 2 2v5c0 1.1-.9 2-2 2zM662.8 326.5c-1.1 0-2-.9-2-2v-5c0-1.1.9-2 2-2s2 .9 2 2v5c0 1.1-.9 2-2 2zM949 318.9c-1.1 0-2-.9-2-2v-5c0-1.1.9-2 2-2s2 .9 2 2v5c0 1.1-.9 2-2 2zM662.8 312.5c-1.1 0-2-.9-2-2v-5c0-1.1.9-2 2-2s2 .9 2 2v5c0 1.1-.9 2-2 2zM949 304.9c-1.1 0-2-.9-2-2v-5c0-1.1.9-2 2-2s2 .9 2 2v5c0 1.1-.9 2-2 2zM662.8 298.5c-1.1 0-2-.9-2-2v-5c0-1.1.9-2 2-2s2 .9 2 2v5c0 1.1-.9 2-2 2zM949 290.9c-1.1 0-2-.9-2-2v-5c0-1.1.9-2 2-2s2 .9 2 2v5c0 1.1-.9 2-2 2zM662.8 284.5c-1.1 0-2-.9-2-2v-5c0-1.1.9-2 2-2s2 .9 2 2v5c0 1.1-.9 2-2 2zM949 276.9c-1.1 0-2-.9-2-2v-5c0-1.1.9-2 2-2s2 .9 2 2v5c0 1.1-.9 2-2 2zM662.8 270.5c-1.1 0-2-.9-2-2v-5c0-1.1.9-2 2-2s2 .9 2 2v5c0 1.1-.9 2-2 2zM949 262.9c-1.1 0-2-.9-2-2v-5c0-1.1.9-2 2-2s2 .9 2 2v5c0 1.1-.9 2-2 2zM662.8 256.5c-1.1 0-2-.9-2-2v-5c0-1.1.9-2 2-2s2 .9 2 2v5c0 1.1-.9 2-2 2zM949 248.9c-1.1 0-2-.9-2-2v-5c0-1.1.9-2 2-2s2 .9 2 2v5c0 1.1-.9 2-2 2zM662.8 242.5c-1.1 0-2-.9-2-2v-5c0-1.1.9-2 2-2s2 .9 2 2v5c0 1.1-.9 2-2 2zM949 234.9c-1.1 0-2-.9-2-2v-5c0-1.1.9-2 2-2s2 .9 2 2v5c0 1.1-.9 2-2 2zM662.8 228.5c-1.1 0-2-.9-2-2v-5c0-1.1.9-2 2-2s2 .9 2 2v5c0 1.1-.9 2-2 2zM949 220.9c-1.1 0-2-.9-2-2v-5c0-1.1.9-2 2-2s2 .9 2 2v5c0 1.1-.9 2-2 2zM662.8 214.5c-1.1 0-2-.9-2-2v-5c0-1.1.9-2 2-2s2 .9 2 2v5c0 1.1-.9 2-2 2zM949 206.9c-1.1 0-2-.9-2-2v-5c0-1.1.9-2 2-2s2 .9 2 2v5c0 1.1-.9 2-2 2zM662.8 200.5c-1.1 0-2-.9-2-2v-5c0-1.1.9-2 2-2s2 .9 2 2v5c0 1.1-.9 2-2 2zM949 192.9c-1.1 0-2-.9-2-2v-5c0-1.1.9-2 2-2s2 .9 2 2v5c0 1.1-.9 2-2 2zM662.8 186.5c-1.1 0-2-.9-2-2v-5c0-1.1.9-2 2-2s2 .9 2 2v5c0 1.1-.9 2-2 2zM949 178.9c-1.1 0-2-.9-2-2v-5c0-1.1.9-2 2-2s2 .9 2 2v5c0 1.1-.9 2-2 2zM662.8 172.5c-1.1 0-2-.9-2-2v-5c0-1.1.9-2 2-2s2 .9 2 2v5c0 1.1-.9 2-2 2zM949 164.9c-1.1 0-2-.9-2-2v-5c0-1.1.9-2 2-2s2 .9 2 2v5c0 1.1-.9 2-2 2zM662.8 158.5c-1.1 0-2-.9-2-2v-5c0-1.1.9-2 2-2s2 .9 2 2v5c0 1.1-.9 2-2 2zM949 150.9c-1.1 0-2-.9-2-2v-5c0-1.1.9-2 2-2s2 .9 2 2v5c0 1.1-.9 2-2 2zM662.8 144.5c-1.1 0-2-.9-2-2v-5c0-1.1.9-2 2-2s2 .9 2 2v5c0 1.1-.9 2-2 2zM949 136.9c-1.1 0-2-.9-2-2v-5c0-1.1.9-2 2-2s2 .9 2 2v5c0 1.1-.9 2-2 2zM662.8 130.5c-1.1 0-2-.9-2-2v-5c0-1.1.9-2 2-2s2 .9 2 2v5c0 1.1-.9 2-2 2zM949 122.9c-1.1 0-2-.9-2-2v-5c0-1.1.9-2 2-2s2 .9 2 2v5c0 1.1-.9 2-2 2zM662.8 116.5c-1.1 0-2-.9-2-2v-5c0-1.1.9-2 2-2s2 .9 2 2v5c0 1.1-.9 2-2 2zM949 108.9c-1.1 0-2-.9-2-2v-5c0-1.1.9-2 2-2s2 .9 2 2v5c0 1.1-.9 2-2 2zM662.8 102.5c-1.1 0-2-.9-2-2v-5c0-1.1.9-2 2-2s2 .9 2 2v5c0 1.1-.9 2-2 2zM949 94.9c-1.1 0-2-.9-2-2v-5c0-1.1.9-2 2-2s2 .9 2 2v5c0 1.1-.9 2-2 2zM662.8 88.5c-1.1 0-2-.9-2-2v-5c0-1.1.9-2 2-2s2 .9 2 2v5c0 1.1-.9 2-2 2zM949 80.9c-1.1 0-2-.9-2-2v-5c0-1.1.9-2 2-2s2 .9 2 2v5c0 1.1-.9 2-2 2zM662.8 74.5c-1.1 0-2-.9-2-2v-5c0-1.1.9-2 2-2s2 .9 2 2v5c0 1.1-.9 2-2 2zM949 66.9c-1.1 0-2-.9-2-2v-5c0-1.1.9-2 2-2s2 .9 2 2v5c0 1.1-.9 2-2 2zM662.8 60.5c-1.1 0-2-.9-2-2v-5c0-1.1.9-2 2-2s2 .9 2 2v5c0 1.1-.9 2-2 2zM949 52.9c-1.1 0-2-.9-2-2v-5c0-1.1.9-2 2-2s2 .9 2 2v5c0 1.1-.9 2-2 2zM662.8 46.5c-1.1 0-2-.9-2-2v-5c0-1.1.9-2 2-2s2 .9 2 2v5c0 1.1-.9 2-2 2zM949 38.9c-1.1 0-2-.9-2-2v-5c0-1.1.9-2 2-2s2 .9 2 2v5c0 1.1-.9 2-2 2zM662.8 32.5c-1.1 0-2-.9-2-2v-5c0-1.1.9-2 2-2s2 .9 2 2v5c0 1.1-.9 2-2 2zM949 24.9c-1.1 0-2-.9-2-2v-5c0-1.1.9-2 2-2s2 .9 2 2v5c0 1.1-.9 2-2 2zM662.8 18.5c-1.1 0-2-.9-2-2v-5c0-1.1.9-2 2-2s2 .9 2 2v5c0 1.1-.9 2-2 2zM949 10.9c-1.1 0-2-.9-2-2v-5c0-1.1.9-2 2-2s2 .9 2 2v5c0 1.1-.9 2-2 2zM660.8 0v2.5c0 1.1.9 2 2 2s2-.9 2-2V0h-4zM679.2 568.4c-.5-1-1.7-1.4-2.7-.9s-1.4 1.7-.9 2.7 1 2 1.5 2.9h4.5c0-.1-.1-.2-.1-.3-.8-1.5-1.6-2.9-2.3-4.4zM930.7 573.1h1.6c-.6-.2-1.2-.2-1.6 0z"/></g></g><g class="icons-group"><g class="icons icons-A"><g class="button"><path fill="#FFF" d="M105.5 244h97v38.5h-97z"/><path stroke="#000" stroke-width="3" stroke-linecap="round" stroke-linejoin="round" stroke-miterlimit="10" d="M107 245h94v36.3h-94z"/><path class="text" fill="#FFF" d="M174.4 260.2c.6 0 1 .1 1.3.4s.4.6.4 1.1c0 .3 0 .5-.1.7s-.2.4-.4.5-.3.3-.5.3-.4.1-.7.1h-1.3v-3.2h1.3v.1zm2.9 5.7c-.1-.2-.3-.4-.4-.6-.1-.2-.2-.3-.3-.4s-.2-.3-.4-.4c-.1-.1-.3-.2-.5-.3.3-.1.6-.2.9-.4.3-.2.5-.4.7-.6s.3-.5.4-.8c.1-.3.2-.6.2-.9 0-.4-.1-.8-.2-1.2-.2-.3-.4-.6-.7-.8-.3-.2-.6-.4-1-.5s-.8-.2-1.3-.2h-3.2v9.8h1.6v-4h.7c.2 0 .4 0 .6.1s.3.1.5.2c.1.1.3.2.4.4.1.2.3.4.4.6l1.6 2.6h1.9l-1.9-2.6zm-7.6 1.4h-3.9v-2.9h3.4V263h-3.4v-2.8h3.6v-1.4h-5.3v9.8h5.5l.1-1.3zm-7.8-8.4h-1.7v9.8h1.7v-9.8zm-3.1 0h-7.2v1.4h2.8v8.4h1.6v-8.4h2.8v-1.4zm-15.7 5.3c1.4 0 2.1.5 2.1 1.5 0 .5-.2.9-.5 1.2-.3.3-.8.4-1.4.4h-1.4v-3.1h1.2zm0-4c1.1 0 1.7.4 1.7 1.3 0 .5-.2.9-.5 1.1-.3.3-.8.4-1.3.4h-1v-2.8h1.1zm.3 8.4c1 0 1.8-.3 2.5-.8s1-1.2 1-2c0-.7-.2-1.2-.6-1.6-.4-.4-.9-.7-1.6-.7.6-.2 1-.5 1.3-.9s.5-.9.5-1.4c0-.7-.3-1.2-.8-1.6-.6-.4-1.3-.6-2.2-.6h-3.1v9.8h3v-.2zm-10.1-8.4c2.4 0 3.5 1.1 3.5 3.4 0 1.1-.3 2-.9 2.7-.6.6-1.5.9-2.7.9h-1.3v-7h1.4zm-.3 8.4c1.7 0 3-.5 4-1.4s1.5-2.1 1.5-3.6c0-3.2-1.8-4.8-5.4-4.8h-2.8v9.8h2.7z"/></g><g class="button"><path fill="#FFF" d="M756 327.5h97V366h-97z"/><path stroke="#000" stroke-width="3" stroke-linecap="round" stroke-linejoin="round" stroke-miterlimit="10" d="M758.1 328.7h94V365h-94z"/><path class="text" fill="#FFF" d="M825.5 343.9c.6 0 1 .1 1.3.4s.4.6.4 1.1c0 .3 0 .5-.1.7s-.2.4-.4.5-.3.3-.5.3-.4.1-.7.1h-1.3v-3.2h1.3v.1zm2.8 5.7c-.1-.2-.3-.4-.4-.6-.1-.2-.2-.3-.3-.4s-.2-.3-.4-.4c-.1-.1-.3-.2-.5-.3.3-.1.6-.2.9-.4.3-.2.5-.4.7-.6s.3-.5.4-.8c.1-.3.2-.6.2-.9 0-.4-.1-.8-.2-1.2-.2-.3-.4-.6-.7-.8-.3-.2-.6-.4-1-.5s-.8-.2-1.3-.2h-3.2v9.8h1.6v-4h.7c.2 0 .4 0 .6.1s.3.1.5.2c.1.1.3.2.4.4.1.2.3.4.4.6l1.6 2.6h1.9l-1.9-2.6zm-7.5 1.4h-3.9v-2.9h3.4v-1.4h-3.4v-2.8h3.6v-1.4h-5.3v9.8h5.5V351h.1zm-7.9-8.4h-1.7v9.8h1.7v-9.8zm-3.1 0h-7.2v1.4h2.8v8.4h1.6V344h2.8v-1.4zm-15.7 5.3c1.4 0 2.1.5 2.1 1.5 0 .5-.2.9-.5 1.2-.3.3-.8.4-1.4.4h-1.4v-3.1h1.2zm0-4c1.1 0 1.7.4 1.7 1.3 0 .5-.2.9-.5 1.1-.3.3-.8.4-1.3.4h-1v-2.8h1.1zm.3 8.4c1 0 1.8-.3 2.5-.8s1-1.2 1-2c0-.7-.2-1.2-.6-1.6-.4-.4-.9-.7-1.6-.7.6-.2 1-.5 1.3-.9s.5-.9.5-1.4c0-.7-.3-1.2-.8-1.6-.6-.4-1.3-.6-2.2-.6h-3.1v9.8h3v-.2zm-10.1-8.4c2.4 0 3.5 1.1 3.5 3.4 0 1.1-.3 2-.9 2.7-.6.6-1.5.9-2.7.9h-1.3v-7h1.4zm-.3 8.4c1.7 0 3-.5 4-1.4s1.5-2.1 1.5-3.6c0-3.2-1.8-4.8-5.4-4.8h-2.8v9.8h2.7z"/></g><g class="line" fill="none" stroke="#DEDEDE" stroke-width="4" stroke-linejoin="round" stroke-miterlimit="10"><path d="M28.4 0v265"/><circle stroke-linecap="round" cx="92.4" cy="263.2" r="5"/><path d="M88.1 263.1H26.6"/></g><g class="line" fill="none" stroke="#DEDEDE" stroke-width="4" stroke-linejoin="round" stroke-miterlimit="10"><path d="M930.6 0v347"/><circle stroke-linecap="round" cx="866.6" cy="345.2" r="5"/><path d="M870.9 345.1h61.4"/></g></g><g class="icons icons-B"><g class="button bubble"><path d="M567.9 127.8c9.7 0 18.8-2.5 26.8-6.9v.1l82-48.3-.1-.1h-.1l-81.8-48.3v.1c-7.9-4.4-17.1-6.9-26.8-6.9-30.5 0-55.2 24.7-55.2 55.2 0 30.4 24.8 55.1 55.2 55.1z"/><path class="icon" fill="#FFF" d="M566.4 60.4c-1.8 0-3.3 1.5-3.3 3.3s1.5 3.3 3.3 3.3 3.2-1.5 3.2-3.3c0-1.8-1.4-3.3-3.2-3.3z"/><path class="icon" fill="#FFF" d="M566.4 50.4c-11.2 0-21.3-1.9-28.4-4.8v36.1c7-3 17.1-4.8 28.4-4.8 11.2 0 21.3 1.9 28.4 4.8V45.6c-7.1 2.9-17.2 4.8-28.4 4.8zm10.2 14.4l-2.8 1-.7 1.6 1.2 2.3.2.3-1.6 1.6-2.7-1.3-1.6.7-.8 2.5-.1.3h-2.3l-1-2.8-1.6-.7-2.3 1.2-.3.2-1.7-1.7 1.3-2.7-.7-1.6-2.5-.8-.3-.1v-2.3l2.8-1 .7-1.6-1.2-2.3-.2-.3 1.6-1.6 2.7 1.3 1.6-.7.8-2.5.1-.3h2.3l1 2.8 1.6.7 2.3-1.2.3-.2.9.9c.2.3.4.7.6 1l-1.1 2.4.7 1.6 2.5.8.3.1v2.4z"/><path class="text" fill="#FFF" d="M593.7 94.4H590v1.4h2.1v2.3c-.5.3-1.1.4-1.7.4-1 0-1.8-.3-2.3-1s-.9-1.5-.9-2.6.3-2 1-2.7 1.5-1 2.6-1c1 0 1.9.3 2.7.7v-1.7c-.7-.3-1.7-.5-2.7-.5-1.5 0-2.7.5-3.7 1.5s-1.5 2.2-1.5 3.7.4 2.7 1.3 3.6c.9.9 2.1 1.3 3.5 1.3 1.2 0 2.4-.3 3.4-.8l-.1-4.6zm-10.1-4.5H582v6.3c0 .6 0 1.1.1 1.3-.1-.1-.2-.3-.4-.6l-4.5-7h-1.9v9.8h1.6v-6.4c0-.7 0-1.1-.1-1.3l.3.6 4.7 7.2h1.8v-9.9zm-10.6 0h-1.7v9.8h1.7v-9.8zm-3.1 8.4h-3.8v-8.4h-1.6v9.8h5.4v-1.4zm-12.8-2.4l1.3-3.9c0-.1.1-.4.1-.6 0 .3.1.5.1.6l1.4 3.9h-2.9zm2.4-6h-1.8l-3.7 9.8h1.8l.8-2.5h3.8l.9 2.5h1.8l-3.6-9.8zm-6.2 7.9c-.7.4-1.5.7-2.4.7-1 0-1.8-.3-2.4-1-.6-.6-.9-1.5-.9-2.6s.3-2 1-2.7 1.5-1 2.6-1c.8 0 1.5.2 2.2.6v-1.6c-.6-.3-1.4-.4-2.3-.4-1.5 0-2.7.5-3.6 1.4s-1.4 2.2-1.4 3.8c0 1.5.4 2.6 1.3 3.5.9.9 2 1.3 3.4 1.3 1.1 0 2-.2 2.7-.6v-1.4h-.2zM539 99.5c.2.1.5.1.7.2.3 0 .5.1.7.1h.6c.5 0 1 0 1.4-.1s.8-.2 1.2-.5c.3-.2.6-.5.8-.8s.3-.8.3-1.3c0-.4-.1-.7-.2-1s-.3-.5-.5-.8c-.2-.2-.5-.5-.8-.6-.3-.2-.6-.4-1-.6-.3-.1-.6-.3-.9-.4-.3-.1-.5-.3-.6-.4-.2-.1-.3-.3-.4-.4-.1-.2-.1-.3-.1-.6 0-.2.1-.4.2-.6s.3-.3.5-.4.4-.2.6-.2c.2 0 .5-.1.7-.1.9 0 1.6.2 2.1.6V90c-.5-.2-1.2-.3-2.2-.3-.4 0-.9.1-1.3.2s-.8.3-1.2.5c-.3.2-.6.5-.8.8s-.3.7-.3 1.2c0 .4.1.7.2 1s.3.5.5.7.5.4.7.6c.3.2.6.4.9.5.3.1.6.3.9.4.3.1.5.3.7.4s.4.3.5.5.2.4.2.6c0 .4-.2.8-.5 1s-.8.3-1.5.3c-.2 0-.4 0-.6-.1-.2 0-.5-.1-.7-.2s-.5-.2-.7-.3c-.2-.1-.4-.2-.5-.4v1.7c0 .3.2.4.4.4z"/></g><g class="line" fill="none" stroke="#DEDEDE" stroke-width="4" stroke-linejoin="round" stroke-miterlimit="10"><path d="M688.4 0v65.7"/><circle stroke-linecap="round" cx="688.4" cy="71.2" r="5"/></g></g><g class="icons icons-C"><g class="button"><path fill="#DEDEDE" d="M678.1 386.8c0-28.3-22.9-51.2-51.2-51.2-1 0-2.1 0-3.1.1.1-.7.1-1.3.1-2 0-14-11.3-25.4-25.2-25.6-5.3-51.8-46.8-92.3-109.2-92.3-62.5 0-105.9 46.1-105.9 102.8 0 1.2 0 2.3.1 3.5 0 0-2.1-8-17.2-8-32.3 0-43.9 24.4-43.1 36.5-20.1 3.9-36.3 22.8-36.3 44 0 22.8 17.5 41.6 39.9 43.5h-26.7c1.2.1 29.2.2 30.5.2s2.5-.1 3.7-.2H348c2 .1 4.1.2 6.3.2h224.2c1.1 0 2.2-.1 3.3-.2h37.5c1.3.1 2.6.2 4 .2 2.5 0 4.9-.2 7.3-.5 26.6-1.9 47.5-24 47.5-51z"/><path class="text" fill="#FFF" d="M509.6 335.6h-7.2v1.4h2.8v8.4h1.6V337h2.8v-1.4zm-8.1 8.4h-3.9v-2.9h3.4v-1.4h-3.4V337h3.6v-1.4h-5.3v9.8h5.5l.1-1.4zm-7.8-8.4h-1.6v6.3c0 .6 0 1.1.1 1.3-.1-.1-.2-.3-.4-.6l-4.5-7h-1.9v9.8h1.6V339c0-.7 0-1.1-.1-1.3l.3.6 4.7 7.2h1.8v-9.9zm-14 1.3c.6 0 1 .1 1.3.4s.4.6.4 1.1c0 .3 0 .5-.1.7s-.2.4-.4.5c-.2.1-.3.3-.5.3s-.4.1-.7.1h-1.3v-3.2h1.3v.1zm2.8 5.7c-.1-.2-.3-.4-.4-.6s-.2-.3-.3-.4c-.1-.1-.2-.3-.4-.4-.1-.1-.3-.2-.5-.3.3-.1.6-.2.9-.4.3-.2.5-.4.7-.6s.3-.5.4-.8.2-.6.2-.9c0-.4-.1-.8-.2-1.2-.2-.3-.4-.6-.7-.8-.3-.2-.6-.4-1-.5s-.8-.2-1.3-.2h-3.2v9.8h1.6v-4h.7c.2 0 .4 0 .6.1s.3.1.5.2c.1.1.3.2.4.4.1.2.3.4.4.6l1.6 2.6h1.9l-1.9-2.6zM475 344h-3.9v-2.9h3.4v-1.4h-3.4V337h3.6v-1.4h-5.3v9.8h5.5l.1-1.4zm-6.9-8.4h-7.2v1.4h2.8v8.4h1.6V337h2.8v-1.4zm-8.7 0h-1.6v6.3c0 .6 0 1.1.1 1.3-.1-.1-.2-.3-.4-.6l-4.5-7h-1.9v9.8h1.6V339c0-.7 0-1.1-.1-1.3l.3.6 4.7 7.2h1.8v-9.9zm-10.7 0H447v9.8h1.7v-9.8z"/></g><path fill="none" stroke="#686868" stroke-width="3" stroke-linecap="round" stroke-linejoin="round" stroke-miterlimit="10" d="M559.4 382.1h136.1M278.2 382.1h120.7M539.4 289.7h156.1M278.2 289.7h140.7"/><path fill="none" stroke="#FFF" stroke-width="3" stroke-linecap="round" stroke-linejoin="round" stroke-miterlimit="10" d="M557.7 390.5s4-7.9 0-16.6M401.4 373.8s-4 7.9 0 16.6M537.7 298s4-7.9 0-16.6M421.4 281.3s-4 7.9 0 16.6"/><g class="line" fill="none" stroke="#DEDEDE" stroke-width="4" stroke-linejoin="round" stroke-miterlimit="10"><path d="M308.4 0v274"/><circle stroke-linecap="round" cx="372.4" cy="272.2" r="5"/><path d="M369 272.1h-62.4"/></g></g><g class="icons icons-D"><g class="button"><path fill="#DEDEDE" d="M445.5 244.5h66V324h-66z"/><path class="text" d="M499.2 299.8c.2.1.5.1.7.2.3 0 .5.1.7.1h.6c.5 0 1 0 1.4-.1s.8-.2 1.2-.5c.3-.2.6-.5.8-.8.2-.3.3-.8.3-1.3 0-.4-.1-.7-.2-1s-.3-.5-.5-.8c-.2-.2-.5-.5-.8-.6-.3-.2-.6-.4-1-.6-.3-.1-.6-.3-.9-.4s-.5-.3-.6-.4c-.2-.1-.3-.3-.4-.4-.1-.2-.1-.3-.1-.6 0-.2.1-.4.2-.6s.3-.3.5-.4.4-.2.6-.2.5-.1.7-.1c.9 0 1.6.2 2.1.6v-1.6c-.5-.2-1.2-.3-2.2-.3-.4 0-.9.1-1.3.2s-.8.3-1.2.5c-.3.2-.6.5-.8.8s-.3.7-.3 1.2c0 .4.1.7.2 1s.3.5.5.7.5.4.7.6c.3.2.6.4.9.5s.6.3.9.4.5.3.7.4.4.3.5.5.2.4.2.6c0 .4-.2.8-.5 1s-.8.3-1.5.3c-.2 0-.4 0-.6-.1-.2 0-.5-.1-.7-.2s-.5-.2-.7-.3c-.2-.1-.4-.2-.5-.4v1.7c0 .3.1.3.4.4zm-7.6 0c.2.1.5.1.7.2.3 0 .5.1.7.1h.6c.5 0 1 0 1.4-.1s.8-.2 1.2-.5c.3-.2.6-.5.8-.8.2-.3.3-.8.3-1.3 0-.4-.1-.7-.2-1s-.3-.5-.5-.8c-.2-.2-.5-.5-.8-.6-.3-.2-.6-.4-1-.6-.3-.1-.6-.3-.9-.4s-.5-.3-.6-.4c-.2-.1-.3-.3-.4-.4-.1-.2-.1-.3-.1-.6 0-.2.1-.4.2-.6s.3-.3.5-.4.4-.2.6-.2.5-.1.7-.1c.9 0 1.6.2 2.1.6v-1.6c-.5-.2-1.2-.3-2.2-.3-.4 0-.9.1-1.3.2s-.8.3-1.2.5c-.3.2-.6.5-.8.8s-.3.7-.3 1.2c0 .4.1.7.2 1s.3.5.5.7.5.4.7.6c.3.2.6.4.9.5s.6.3.9.4.5.3.7.4.4.3.5.5.2.4.2.6c0 .4-.2.8-.5 1s-.8.3-1.5.3c-.2 0-.4 0-.6-.1-.2 0-.5-.1-.7-.2s-.5-.2-.7-.3c-.2-.1-.4-.2-.5-.4v1.7c0 .3.1.3.4.4zm-1.9-1.2h-3.9v-2.9h3.4v-1.4h-3.4v-2.8h3.6v-1.4h-5.3v9.8h5.5l.1-1.3zm-11.1-7.1c.6 0 1 .1 1.3.4s.4.6.4 1.1c0 .3 0 .5-.1.7s-.2.4-.4.5c-.2.1-.3.3-.5.3s-.4.1-.7.1h-1.3v-3.2h1.3v.1zm2.8 5.7c-.1-.2-.3-.4-.4-.6s-.2-.3-.3-.4c-.1-.1-.2-.3-.4-.4-.1-.1-.3-.2-.5-.3.3-.1.6-.2.9-.4.3-.2.5-.4.7-.6s.3-.5.4-.8.2-.6.2-.9c0-.4-.1-.8-.2-1.2-.2-.3-.4-.6-.7-.8-.3-.2-.6-.4-1-.5s-.8-.2-1.3-.2h-3.2v9.8h1.6v-4h.7c.2 0 .4 0 .6.1s.3.1.5.2c.1.1.3.2.4.4.1.2.3.4.4.6l1.6 2.6h1.9l-1.9-2.6zm-11.2-5.6c1.3 0 2 .6 2 1.7 0 .6-.2 1-.5 1.4-.4.3-.9.5-1.6.5h-1v-3.6h1.1zm.2 4.8c1.1 0 2-.3 2.6-.9s1-1.4 1-2.3-.3-1.7-.9-2.2-1.5-.8-2.6-.8h-3v9.8h1.6v-3.5h1.3v-.1zm-7.3-1.3l3-4.8h-1.8l-1.8 3.3c-.1.2-.2.4-.3.7-.1-.2-.2-.4-.3-.7l-1.8-3.3h-2l2.9 4.8-3.2 4.9h2l2.1-3.6c.1-.2.2-.4.2-.5.1.2.1.4.2.5l2 3.6h1.9l-3.1-4.9zm-6.2 3.5H453v-2.9h3.4v-1.4H453v-2.8h3.6v-1.4h-5.3v9.8h5.5l.1-1.3zM499.2 315.3h-3.9v-2.9h3.4V311h-3.4v-2.8h3.6v-1.4h-5.3v9.8h5.5l.1-1.3zm-6.9-8.4h-7.2v1.4h2.8v8.4h1.6v-8.4h2.8v-1.4zm-8.6 0h-1.6v5.7c0 1.8-.7 2.8-2.1 2.8-1.5 0-2.2-1-2.2-2.9v-5.6h-1.6v6c0 2.6 1.2 4 3.7 4 2.6 0 3.9-1.4 3.9-4.1l-.1-5.9zm-11.7 2.2c.5.6.8 1.5.8 2.7 0 1.1-.3 2-.8 2.6s-1.3.9-2.2.9c-.9 0-1.6-.3-2.1-1s-.8-1.5-.8-2.6.3-2 .8-2.6c.6-.7 1.3-1 2.2-1 .8.1 1.6.4 2.1 1zm1.2 6.4c.9-.9 1.3-2.2 1.3-3.8 0-1.5-.4-2.7-1.3-3.6-.8-.9-1.9-1.4-3.3-1.4-1.5 0-2.6.5-3.5 1.4s-1.3 2.2-1.3 3.8c0 1.5.4 2.6 1.3 3.6.8.9 2 1.4 3.4 1.4 1.4-.1 2.5-.5 3.4-1.4zm-13-7.3c.6 0 1 .1 1.3.4s.4.6.4 1.1c0 .3 0 .5-.1.7s-.2.4-.4.5c-.2.1-.3.3-.5.3s-.4.1-.7.1h-1.3v-3.2h1.3v.1zm2.8 5.7c-.1-.2-.3-.4-.4-.6s-.2-.3-.3-.4c-.1-.1-.2-.3-.4-.4-.1-.1-.3-.2-.5-.3.3-.1.6-.2.9-.4.3-.2.5-.4.7-.6s.3-.5.4-.8.2-.6.2-.9c0-.4-.1-.8-.2-1.2-.2-.3-.4-.6-.7-.8-.3-.2-.6-.4-1-.5s-.8-.2-1.3-.2h-3.2v9.8h1.6v-4h.7c.2 0 .4 0 .6.1s.3.1.5.2c.1.1.3.2.4.4.1.2.3.4.4.6l1.6 2.6h1.9l-1.9-2.6z"/><path class="icon" d="M497.5 266.9c-.9 0-1.7.2-2.4.5l-12.1-12c.3-.7.5-1.5.5-2.4 0-3.1-2.5-5.7-5.7-5.7-3.1 0-5.7 2.5-5.7 5.7 0 .9.2 1.7.5 2.4l-12.1 12.1c-.7-.3-1.5-.5-2.4-.5-3.1 0-5.7 2.5-5.7 5.7 0 3.1 2.5 5.7 5.7 5.7 2.4 0 4.5-1.5 5.3-3.7H492c.8 2.1 2.9 3.6 5.3 3.6 3.1 0 5.7-2.5 5.7-5.7.1-3.2-2.4-5.7-5.5-5.7zm-39.3 7.6c-1 0-1.9-.8-1.9-1.9 0-1 .8-1.9 1.9-1.9 1 0 1.9.8 1.9 1.9s-.8 1.9-1.9 1.9zm19.7-23.4c1 0 1.9.8 1.9 1.9 0 1-.8 1.9-1.9 1.9-1 0-1.9-.8-1.9-1.9 0-1 .9-1.9 1.9-1.9zm14.2 19.6h-28.6c-.1-.2-.1-.3-.2-.4l12.1-12.1c.7.3 1.5.5 2.4.5s1.7-.2 2.4-.5l12.1 12.1c0 .1-.1.2-.2.4zm5.4 3.7c-1 0-1.9-.8-1.9-1.9 0-1 .8-1.9 1.9-1.9 1 0 1.9.8 1.9 1.9-.1 1.1-.9 1.9-1.9 1.9z"/></g><g class="line" fill="none" stroke="#DEDEDE" stroke-width="4" stroke-linejoin="round" stroke-miterlimit="10"><path d="M308.4 0v274"/><circle stroke-linecap="round" cx="372.4" cy="272.2" r="5"/><path d="M369 272.1h-62.4"/></g></g><g class="icons icons-E"><g class="button"><path fill="#DEDEDE" d="M427 358h106v49H427z"/><path class="text" d="M525.8 386.5h-3.9v-2.9h3.4v-1.4h-3.4v-2.8h3.7V378h-5.3v9.8h5.5v-1.3zm-7-8.5h-7.3v1.4h2.8v8.4h1.6v-8.4h2.8V378h.1zm-8.7 0h-1.7v9.8h1.7V378zm-9.2 9.7c.2.1.5.1.7.2.3 0 .5.1.7.1h.6c.5 0 1 0 1.4-.1s.8-.3 1.2-.5c.3-.2.6-.5.8-.8s.3-.8.3-1.3c0-.4-.1-.7-.2-1s-.3-.6-.5-.8c-.2-.2-.5-.5-.8-.6-.3-.2-.6-.4-1-.6-.3-.1-.6-.3-.9-.4s-.5-.3-.6-.4c-.2-.1-.3-.3-.4-.4s-.1-.3-.1-.6c0-.2.1-.4.2-.6s.3-.3.5-.4.4-.2.6-.2.5-.1.7-.1c.9 0 1.6.2 2.1.6v-1.6c-.5-.2-1.2-.3-2.2-.3-.5 0-.9.1-1.3.2s-.8.3-1.2.5c-.3.2-.6.5-.8.8-.2.3-.3.7-.3 1.2 0 .4.1.7.2 1s.3.5.5.7.5.4.7.6.6.4.9.5.6.3.9.4.5.3.7.4.4.3.5.5.2.4.2.6c0 .4-.2.8-.5 1s-.8.3-1.5.3c-.2 0-.4 0-.6-.1s-.5-.1-.7-.2-.5-.2-.7-.3c-.2-.1-.4-.2-.5-.4v1.7c0 .2.2.3.4.4zm-2.2-4.3H495v1.2h3.7v-1.2zm-7.8-3.1c.5.6.8 1.5.8 2.7 0 1.1-.3 2-.8 2.7s-1.3 1-2.2 1c-.9 0-1.6-.3-2.1-1s-.8-1.5-.8-2.6.3-2 .8-2.6c.6-.7 1.3-1 2.2-1 .9-.2 1.6.1 2.1.8zm1.2 6.3c.9-.9 1.3-2.2 1.3-3.8 0-1.5-.4-2.7-1.3-3.6-.8-.9-1.9-1.4-3.3-1.4-1.5 0-2.7.5-3.5 1.4s-1.3 2.2-1.3 3.8c0 1.5.4 2.7 1.3 3.6s2 1.4 3.4 1.4 2.6-.5 3.4-1.4zm-8.3-8.6h-7.3v1.4h2.8v8.4h1.6v-8.4h2.8V378h.1zm-8.4 5.4h-3.7v1.2h3.7v-1.2zm-5-5.4h-7.3v1.4h2.8v8.4h1.6v-8.4h2.8V378h.1zm-8.7 0h-1.6v6.3c0 .6 0 1.1.1 1.3-.1-.1-.2-.3-.4-.6l-4.5-7h-1.9v9.8h1.6v-6.4c0-.7 0-1.1-.1-1.3l.3.6 4.7 7.2h1.8V378zm-10.7 0h-1.7v9.8h1.7V378zm-6 2.3c.5.6.8 1.5.8 2.7 0 1.1-.3 2-.8 2.7s-1.3 1-2.2 1c-.9 0-1.6-.3-2.1-1s-.8-1.5-.8-2.6.3-2 .8-2.6c.6-.7 1.3-1 2.2-1 .9-.2 1.6.1 2.1.8zm1.2 6.3c.9-.9 1.3-2.2 1.3-3.8 0-1.5-.4-2.7-1.3-3.6-.8-.9-1.9-1.4-3.3-1.4-1.5 0-2.7.5-3.5 1.4s-1.3 2.2-1.3 3.8c0 1.5.4 2.7 1.3 3.6s2 1.4 3.4 1.4 2.6-.5 3.4-1.4zm-12.9-7.2c1.3 0 2 .6 2 1.7 0 .6-.2 1-.5 1.4s-.9.5-1.6.5h-1.1v-3.6h1.2zm.2 4.9c1.1 0 2-.3 2.6-.9s1-1.4 1-2.3-.3-1.7-.9-2.2-1.5-.8-2.6-.8h-3v9.8h1.6v-3.6h1.3zM531.9 403.3H528v-2.9h3.4V399H528v-2.8h3.7v-1.4h-5.3v9.8h5.5v-1.3zm-6.9-8.5h-7.3v1.4h2.8v8.4h1.6v-8.4h2.8v-1.4h.1zm-8.7 0h-1.7v9.8h1.7v-9.8zm-9.2 9.7c.2.1.5.1.7.2.3 0 .5.1.7.1h.6c.5 0 1 0 1.4-.1s.8-.3 1.2-.5c.3-.2.6-.5.8-.8s.3-.8.3-1.3c0-.4-.1-.7-.2-1-.1-.3-.3-.6-.5-.8-.2-.2-.5-.5-.8-.6-.3-.2-.6-.4-1-.6-.3-.1-.6-.3-.9-.4s-.5-.3-.6-.4c-.2-.1-.3-.3-.4-.4s-.1-.3-.1-.6c0-.2.1-.4.2-.6s.3-.3.5-.4.4-.2.6-.2.5-.1.7-.1c.9 0 1.6.2 2.1.6V395c-.5-.2-1.2-.3-2.2-.3-.5 0-.9.1-1.3.2s-.8.3-1.2.5c-.3.2-.6.5-.8.8-.2.3-.3.7-.3 1.2 0 .4.1.7.2 1s.3.5.5.7.5.4.7.6.6.4.9.5.6.3.9.4.5.3.7.4.4.3.5.5.2.4.2.6c0 .4-.2.8-.5 1s-.8.3-1.5.3c-.2 0-.4 0-.6-.1s-.5-.1-.7-.2-.5-.2-.7-.3c-.2-.1-.4-.2-.5-.4v1.7c0 .2.2.3.4.4zm-2.2-4.3h-3.7v1.2h3.7v-1.2zm-7.8-3.1c.5.6.8 1.5.8 2.7 0 1.1-.3 2-.8 2.7s-1.3 1-2.2 1c-.9 0-1.6-.3-2.1-1s-.8-1.5-.8-2.6.3-2 .8-2.6c.6-.7 1.3-1 2.2-1 .8-.2 1.6.1 2.1.8zm1.2 6.3c.9-.9 1.3-2.2 1.3-3.8 0-1.5-.4-2.7-1.3-3.6-.8-.9-1.9-1.4-3.3-1.4-1.5 0-2.7.5-3.5 1.4s-1.3 2.2-1.3 3.8c0 1.5.4 2.7 1.3 3.6s2 1.4 3.4 1.4 2.5-.5 3.4-1.4zm-8.4-8.6h-7.3v1.4h2.8v8.4h1.6v-8.4h2.8v-1.4h.1zm-8.4 5.4h-3.7v1.2h3.7v-1.2zm-5.2 3.1h-3.9v-2.9h3.4V399h-3.4v-2.8h3.7v-1.4h-5.3v9.8h5.5v-1.3zm-6.9-8.5h-7.3v1.4h2.8v8.4h1.6v-8.4h2.8v-1.4h.1zm-8.7 0H459v9.8h1.7v-9.8zm-9.3 9.7c.2.1.5.1.7.2.3 0 .5.1.7.1h.6c.5 0 1 0 1.4-.1s.8-.3 1.2-.5c.3-.2.6-.5.8-.8s.3-.8.3-1.3c0-.4-.1-.7-.2-1s-.3-.6-.5-.8c-.2-.2-.5-.5-.8-.6-.3-.2-.6-.4-1-.6-.3-.1-.6-.3-.9-.4s-.5-.3-.6-.4c-.2-.1-.3-.3-.4-.4s-.1-.3-.1-.6c0-.2.1-.4.2-.6s.3-.3.5-.4.4-.2.6-.2.5-.1.7-.1c.9 0 1.6.2 2.1.6V395c-.5-.2-1.2-.3-2.2-.3-.5 0-.9.1-1.3.2s-.8.3-1.2.5c-.3.2-.6.5-.8.8-.2.3-.3.7-.3 1.2 0 .4.1.7.2 1s.3.5.5.7.5.4.7.6.6.4.9.5.6.3.9.4.5.3.7.4.4.3.5.5.2.4.2.6c0 .4-.2.8-.5 1s-.8.3-1.5.3c-.2 0-.4 0-.6-.1s-.5-.1-.7-.2-.5-.2-.7-.3c-.2-.1-.4-.2-.5-.4v1.7c0 .2.2.3.4.4zm-9.6-8.4c.6 0 1 .1 1.3.4s.4.6.4 1.1c0 .3 0 .5-.1.7s-.2.4-.4.5-.3.3-.6.3c-.2.1-.4.1-.7.1h-1.4V396h1.5v.1zm2.8 5.8c-.1-.2-.3-.4-.4-.6s-.2-.3-.4-.4-.2-.3-.4-.4c-.1-.1-.3-.2-.5-.3.3-.1.6-.2.9-.4.3-.2.5-.4.7-.6s.3-.5.4-.8.2-.6.2-1-.1-.8-.2-1.2c-.2-.3-.4-.6-.7-.8-.3-.2-.6-.4-1-.5s-.8-.2-1.3-.2h-3.2v9.8h1.6v-4h.7c.2 0 .4 0 .6.1s.3.1.5.2l.4.4c.1.2.3.4.4.6l1.6 2.6h1.9l-1.8-2.5zm-10.1-4.8c.5.6.8 1.5.8 2.7 0 1.1-.3 2-.8 2.7s-1.3 1-2.2 1c-.9 0-1.6-.3-2.1-1s-.8-1.5-.8-2.6.3-2 .8-2.6c.6-.7 1.3-1 2.2-1 .9-.2 1.6.1 2.1.8zm1.2 6.3c.9-.9 1.3-2.2 1.3-3.8 0-1.5-.4-2.7-1.3-3.6-.8-.9-1.9-1.4-3.3-1.4-1.5 0-2.7.5-3.5 1.4s-1.3 2.2-1.3 3.8c0 1.5.4 2.7 1.3 3.6s2 1.4 3.4 1.4 2.5-.5 3.4-1.4zM492.5 361.2h-1.6v6.3c0 .6 0 1.1.1 1.3-.1-.1-.2-.3-.4-.6l-4.5-7h-1.9v9.8h1.6v-6.4c0-.7 0-1.1-.1-1.3l.3.6 4.7 7.2h1.8v-9.9zm-13.7 1.4c1.3 0 2 .6 2 1.7 0 .6-.2 1-.5 1.4s-.9.5-1.6.5h-1.1v-3.6h1.2zm.1 4.9c1.1 0 2-.3 2.6-.9s1-1.4 1-2.3-.3-1.7-.9-2.2-1.5-.8-2.6-.8h-3v9.8h1.6v-3.6h1.3zm-5.9-6.3l-2.5 7.4c-.1.3-.2.6-.2.8 0-.3-.1-.6-.2-.8l-2.4-7.4h-1.8l3.5 9.8h1.8l3.5-9.8H473z"/></g><g class="line" fill="none" stroke="#DEDEDE" stroke-width="4" stroke-linejoin="round" stroke-miterlimit="10"><path d="M308.4 0v274"/><circle stroke-linecap="round" cx="372.4" cy="272.2" r="5"/><path d="M369 272.1h-62.4"/></g></g><g class="icons icons-F"><g class="button"><path fill="#FFF" d="M87.5 505h132v51h-132z"/><path stroke="#000" stroke-width="3" stroke-linecap="round" stroke-linejoin="round" stroke-miterlimit="10" d="M87.6 505.1h132.9v51.4H87.6z"/><path class="text" fill="#FFF" d="M201.2 521.7l-1.7 5.1c-.1.2-.1.4-.1.5-.1-.3-.1-.4-.1-.5l-1.7-5.1h-1.7l2.8 7-.5 1.1c-.3.6-.7.9-1.3.9-.2 0-.4 0-.7-.1v1.3c.2.1.5.1.8.1 1.2 0 2.1-.7 2.7-2.2l3.1-8.1h-1.6zm-6.1 0c-.1-.1-.4-.1-.7-.1-.4 0-.8.1-1.1.4-.3.3-.6.7-.7 1.1v-1.4H191v7h1.6v-3.3c0-.7.2-1.3.5-1.7s.7-.6 1.2-.6c.4 0 .6.1.8.2v-1.6zm-7.8 1.7c.3.4.5 1 .5 1.8s-.2 1.3-.5 1.8c-.3.4-.8.6-1.4.6-.6 0-1.1-.2-1.5-.6-.4-.4-.5-1-.5-1.7 0-.8.2-1.4.5-1.8.4-.4.8-.6 1.5-.6.6-.1 1.1.1 1.4.5zm1.2 4.4c.7-.7 1-1.6 1-2.7s-.3-2-.9-2.7c-.6-.6-1.5-1-2.5-1-1.1 0-2 .3-2.7 1s-1 1.6-1 2.7.3 1.9 1 2.6 1.5 1 2.6 1c.9.1 1.8-.2 2.5-.9zm-7-.5c-.2.2-.4.2-.7.2s-.6-.1-.7-.3c-.2-.2-.2-.5-.2-.9v-3.5h1.7v-1.2h-1.7v-2.1l-1.6.4v1.6H177v1.2h1.2v3.9c0 1.3.7 1.9 2 1.9.5 0 .9-.1 1.2-.2v-1h.1zm-5.3-.3c-.5.4-1 .6-1.6.6-.7 0-1.2-.2-1.6-.6s-.6-1-.6-1.7.2-1.3.6-1.8 1-.7 1.6-.7c.5 0 1.1.2 1.6.5v-1.5c-.5-.2-1-.3-1.7-.3-1.1 0-2.1.3-2.7 1s-1 1.6-1 2.8c0 1 .3 1.9 1 2.5.6.6 1.5 1 2.5 1 .8 0 1.4-.2 2-.5V527h-.1zm-11.2-2.5c.1-.5.3-1 .6-1.3s.7-.5 1.2-.5.8.2 1.1.5.4.8.4 1.3H165zm4.7.5c0-1.1-.3-1.9-.8-2.5s-1.3-.9-2.2-.9-1.7.3-2.4 1-1 1.6-1 2.6c0 1.1.3 2 .9 2.7.6.6 1.4.9 2.4.9s1.9-.2 2.5-.6V527c-.6.4-1.3.7-2 .7s-1.2-.2-1.6-.5c-.4-.3-.6-.8-.6-1.5h4.7v-.7h.1zm-6.9-3.3c-.1-.1-.4-.1-.7-.1-.4 0-.8.1-1.1.4-.3.3-.6.7-.7 1.1v-1.4h-1.6v7h1.6v-3.3c0-.7.2-1.3.5-1.7s.7-.6 1.2-.6c.4 0 .6.1.8.2v-1.6zm-6.1 0h-1.6v7h1.6v-7zm-.1-1.7c.2-.2.3-.4.3-.6 0-.3-.1-.5-.3-.6-.2-.2-.4-.3-.7-.3s-.5.1-.7.3-.3.4-.3.6c0 .3.1.5.3.6s.4.3.7.3c.3-.1.5-.2.7-.3zm-8.3.3c2.4 0 3.5 1.1 3.5 3.4 0 1.1-.3 2-.9 2.7-.6.6-1.5.9-2.7.9H147v-7h1.3zm-.3 8.4c1.7 0 3-.5 4-1.4s1.5-2.1 1.5-3.6c0-3.2-1.8-4.8-5.4-4.8h-2.8v9.8h2.7zm-12.9-4.2c.1-.5.3-1 .6-1.3s.7-.5 1.2-.5.8.2 1.1.5.4.8.4 1.3h-3.3zm4.7.5c0-1.1-.3-1.9-.8-2.5s-1.3-.9-2.2-.9-1.7.3-2.4 1-1 1.6-1 2.6c0 1.1.3 2 .9 2.7.6.6 1.4.9 2.4.9s1.9-.2 2.5-.6V527c-.6.4-1.3.7-2 .7s-1.2-.2-1.6-.5c-.4-.3-.6-.8-.6-1.5h4.7v-.7h.1zm-8.5-3.3l-1.6 4.9c-.1.3-.1.6-.2.9 0-.3-.1-.6-.2-.9l-1.5-4.9H126l2.6 7h1.7l2.7-7h-1.7zm-6.4 0h-1.6v7h1.6v-7zm-.1-1.7c.2-.2.3-.4.3-.6 0-.3-.1-.5-.3-.6-.2-.2-.4-.3-.7-.3-.3 0-.5.1-.7.3s-.3.4-.3.6c0 .3.1.5.3.6s.4.3.7.3c.3-.1.5-.2.7-.3zm-2.8 7.3c-.2.2-.4.2-.7.2-.3 0-.6-.1-.7-.3-.2-.2-.2-.5-.2-.9v-3.5h1.7v-1.2h-1.7v-2.1l-1.6.4v1.6h-1.2v1.2h1.2v3.9c0 1.3.7 1.9 2 1.9.5 0 .9-.1 1.2-.2v-1zm-5.3-.3c-.5.4-1 .6-1.6.6-.7 0-1.2-.2-1.6-.6s-.6-1-.6-1.7.2-1.3.6-1.8 1-.7 1.6-.7c.5 0 1.1.2 1.6.5v-1.5c-.5-.2-1-.3-1.7-.3-1.1 0-2.1.3-2.7 1s-1 1.6-1 2.8c0 1 .3 1.9 1 2.5.6.6 1.5 1 2.5 1 .8 0 1.4-.2 2-.5V527h-.1zm-12.2-2.1l1.3-3.9c0-.1.1-.4.1-.6 0 .3.1.5.1.6l1.4 3.9h-2.9zm2.5-6h-1.8l-3.7 9.8h1.8l.8-2.5h3.8l.9 2.5h1.8l-3.6-9.8zM166.9 537c1.3 0 2 .6 2 1.7 0 .6-.2 1-.5 1.4-.4.3-.9.5-1.6.5h-1V537h1.1zm.1 4.8c1.1 0 2-.3 2.6-.9.6-.6 1-1.4 1-2.3s-.3-1.7-.9-2.2-1.5-.8-2.6-.8h-3v9.8h1.6v-3.5l1.3-.1zm-10.3-.2l1.3-3.9c0-.1.1-.4.1-.6 0 .3.1.5.1.6l1.4 3.9h-2.9zm2.4-6h-1.8l-3.7 9.8h1.8l.8-2.5h3.8l.9 2.5h1.8l-3.6-9.8zM148 537c2.4 0 3.5 1.1 3.5 3.4 0 1.1-.3 2-.9 2.7-.6.6-1.5.9-2.7.9h-1.3v-7h1.4zm-.3 8.4c1.7 0 3-.5 4-1.4s1.5-2.1 1.5-3.6c0-3.2-1.8-4.8-5.4-4.8H145v9.8h2.7zm-4.1-1.4h-3.8v-8.4h-1.6v9.8h5.4V544z"/><path class="icon" d="M169 414.5h-30c-2.1 0-3.8 1.6-3.8 3.7v73.3h37.5v-73.3c.1-2.1-1.6-3.7-3.7-3.7zm-1.9 69.4h-26.3v-3.8h26.3v3.8zm0-7.5h-26.3v-3.8h26.3v3.8zm0-46.9h-26.3v-3.8h26.3v3.8z"/></g><g class="button"><path fill="#FFF" d="M739 399.5h134v157H739z"/><path class="text black" d="M853.1 476l-1.7 5.1c-.1.2-.1.4-.1.5-.1-.3-.1-.4-.1-.5l-1.7-5.1h-1.7l2.8 7-.5 1.1c-.3.6-.7.9-1.3.9-.2 0-.4 0-.7-.1v1.3c.2.1.5.1.8.1 1.2 0 2.1-.7 2.7-2.2l3.1-8.1h-1.6zm-6.1 0c-.1-.1-.4-.1-.7-.1-.4 0-.8.1-1.1.4s-.6.7-.7 1.1V476h-1.6v7h1.6v-3.3c0-.7.2-1.3.5-1.7.3-.4.7-.6 1.2-.6.4 0 .6.1.8.2V476zm-7.8 1.7c.3.4.5 1 .5 1.8s-.2 1.3-.5 1.8c-.3.4-.8.6-1.4.6-.6 0-1.1-.2-1.5-.6s-.5-1-.5-1.7c0-.8.2-1.4.5-1.8.4-.4.8-.6 1.5-.6.6-.1 1.1.1 1.4.5zm1.1 4.4c.7-.7 1-1.6 1-2.7s-.3-2-.9-2.7c-.6-.6-1.5-1-2.5-1-1.1 0-2 .3-2.7 1s-1 1.6-1 2.7.3 1.9 1 2.6 1.5 1 2.6 1c1 .1 1.9-.2 2.5-.9zm-7-.5c-.2.2-.4.2-.7.2s-.6-.1-.7-.3c-.2-.2-.2-.5-.2-.9v-3.5h1.7V476h-1.7v-2.1l-1.6.4v1.6h-1.2v1.2h1.2v3.9c0 1.3.7 1.9 2 1.9.5 0 .9-.1 1.2-.2v-1.1zm-5.2-.3c-.5.4-1 .6-1.6.6-.7 0-1.2-.2-1.6-.6s-.6-1-.6-1.7.2-1.3.6-1.8 1-.7 1.6-.7c.5 0 1.1.2 1.6.5v-1.5c-.5-.2-1-.3-1.7-.3-1.1 0-2.1.3-2.7 1s-1 1.6-1 2.8c0 1 .3 1.9 1 2.5.6.6 1.5 1 2.5 1 .8 0 1.4-.2 2-.5l-.1-1.3zm-11.3-2.5c.1-.5.3-1 .6-1.3s.7-.5 1.2-.5.8.2 1.1.5.4.8.4 1.3h-3.3zm4.8.5c0-1.1-.3-1.9-.8-2.5s-1.3-.9-2.2-.9-1.7.3-2.4 1-1 1.6-1 2.6c0 1.1.3 2 .9 2.7.6.6 1.4.9 2.4.9s1.9-.2 2.5-.6v-1.3c-.6.4-1.3.7-2 .7s-1.2-.2-1.6-.5c-.4-.3-.6-.8-.6-1.5h4.7l.1-.6zm-6.9-3.3c-.1-.1-.4-.1-.7-.1-.4 0-.8.1-1.1.4s-.6.7-.7 1.1V476h-1.6v7h1.6v-3.3c0-.7.2-1.3.5-1.7.3-.4.7-.6 1.2-.6.4 0 .6.1.8.2V476zm-6.1 0H807v7h1.6v-7zm-.1-1.7c.2-.2.3-.4.3-.6 0-.3-.1-.5-.3-.6-.2-.2-.4-.3-.7-.3s-.5.1-.7.3-.3.4-.3.6c0 .3.1.5.3.6s.4.3.7.3c.3-.1.5-.2.7-.3zm-8.3.3c2.4 0 3.5 1.1 3.5 3.4 0 1.1-.3 2-.9 2.7-.6.6-1.5.9-2.7.9h-1.3v-7h1.4zm-.3 8.4c1.7 0 3-.5 4-1.4s1.5-2.1 1.5-3.6c0-3.2-1.8-4.8-5.4-4.8h-2.8v9.8h2.7zm-12.9-4.2c.1-.5.3-1 .6-1.3s.7-.5 1.2-.5.8.2 1.1.5.4.8.4 1.3H787zm4.7.5c0-1.1-.3-1.9-.8-2.5s-1.3-.9-2.2-.9-1.7.3-2.4 1-1 1.6-1 2.6c0 1.1.3 2 .9 2.7.6.6 1.4.9 2.4.9s1.9-.2 2.5-.6v-1.3c-.6.4-1.3.7-2 .7s-1.2-.2-1.6-.5c-.4-.3-.6-.8-.6-1.5h4.7l.1-.6zm-8.5-3.3l-1.6 4.9c-.1.3-.1.6-.2.9 0-.3-.1-.6-.2-.9l-1.5-4.9H778l2.6 7h1.7l2.7-7h-1.8zm-6.4 0h-1.6v7h1.6v-7zm-.1-1.7c.2-.2.3-.4.3-.6 0-.3-.1-.5-.3-.6-.2-.2-.4-.3-.7-.3s-.5.1-.7.3-.3.4-.3.6c0 .3.1.5.3.6s.4.3.7.3c.3-.1.5-.2.7-.3zm-2.8 7.3c-.2.2-.4.2-.7.2s-.6-.1-.7-.3c-.2-.2-.2-.5-.2-.9v-3.5h1.7V476h-1.7v-2.1l-1.6.4v1.6h-1.2v1.2h1.2v3.9c0 1.3.7 1.9 2 1.9.5 0 .9-.1 1.2-.2v-1.1zm-5.3-.3c-.5.4-1 .6-1.6.6-.7 0-1.2-.2-1.6-.6s-.6-1-.6-1.7.2-1.3.6-1.8 1-.7 1.6-.7c.5 0 1.1.2 1.6.5v-1.5c-.5-.2-1-.3-1.7-.3-1.1 0-2.1.3-2.7 1s-1 1.6-1 2.8c0 1 .3 1.9 1 2.5.6.6 1.5 1 2.5 1 .8 0 1.4-.2 2-.5l-.1-1.3zm-12.2-2.1l1.3-3.9c0-.1.1-.4.1-.6 0 .3.1.5.1.6l1.4 3.9h-2.9zm2.4-6H757l-3.7 9.8h1.8l.8-2.5h3.8l.9 2.5h1.8l-3.6-9.8zM818.8 491.3c1.3 0 2 .6 2 1.7 0 .6-.2 1-.5 1.4-.4.3-.9.5-1.6.5h-1v-3.6h1.1zm.1 4.8c1.1 0 2-.3 2.6-.9s1-1.4 1-2.3-.3-1.7-.9-2.2-1.5-.8-2.6-.8h-3v9.8h1.6v-3.5h1.3v-.1zm-10.3-.2l1.3-3.9c0-.1.1-.4.1-.6 0 .3.1.5.1.6l1.4 3.9h-2.9zm2.4-6h-1.8l-3.7 9.8h1.8l.8-2.5h3.8l.9 2.5h1.8l-3.6-9.8zm-11.2 1.4c2.4 0 3.5 1.1 3.5 3.4 0 1.1-.3 2-.9 2.7-.6.6-1.5.9-2.7.9h-1.3v-7h1.4zm-.2 8.4c1.7 0 3-.5 4-1.4s1.5-2.1 1.5-3.6c0-3.2-1.8-4.8-5.4-4.8h-2.8v9.8h2.7zm-4.1-1.4h-3.8v-8.4h-1.6v9.8h5.4v-1.4z"/><path stroke="#000" stroke-width="3" stroke-linecap="round" stroke-linejoin="round" stroke-miterlimit="10" d="M739.5 517.2h132.9v38.7H739.5z"/><path class="text" fill="#FFF" d="M859.4 541c.4 0 .8 0 1.1-.1.4-.1.7-.2.9-.4.3-.2.5-.4.7-.7s.2-.6.2-.9c0-.3 0-.5-.1-.8s-.2-.4-.4-.6c-.2-.2-.4-.3-.6-.4-.2-.1-.5-.3-.8-.4-.2-.1-.4-.1-.6-.2-.2-.1-.3-.1-.4-.2l-.3-.3c-.1-.1-.1-.2-.1-.4 0-.1 0-.2.1-.3l.3-.3c.1-.1.3-.1.4-.2.2 0 .3-.1.5-.1.6 0 1.2.2 1.7.5V534c-.5-.2-1.1-.3-1.7-.3-.4 0-.7 0-1.1.1-.3.1-.6.2-.9.4-.3.2-.5.4-.6.6-.2.3-.2.6-.2.9 0 .3 0 .5.1.7s.2.4.3.5c.2.2.3.3.6.4.2.1.5.2.8.4.2.1.4.2.6.2.2.1.4.1.5.2l.3.3c.1.1.1.2.1.4 0 .6-.5.8-1.4.8-.7 0-1.4-.2-2-.7v1.5c.6.5 1.2.6 2 .6zm-7.8-4.4c.1-.5.3-1 .6-1.3s.7-.5 1.2-.5.8.2 1.1.5.4.8.4 1.3h-3.3zm4.7.6c0-1.1-.3-1.9-.8-2.5s-1.3-.9-2.2-.9-1.7.3-2.4 1-1 1.6-1 2.6c0 1.1.3 2 .9 2.7.6.6 1.4.9 2.4.9s1.9-.2 2.5-.6v-1.3c-.6.4-1.3.7-2 .7s-1.2-.2-1.6-.5c-.4-.3-.6-.8-.6-1.5h4.7l.1-.6zm-7.4 1.9c-.5.4-1 .6-1.6.6-.7 0-1.2-.2-1.6-.6s-.6-1-.6-1.7.2-1.3.6-1.8 1-.7 1.6-.7c.5 0 1.1.2 1.6.5V534c-.5-.2-1-.3-1.7-.3-1.1 0-2.1.3-2.7 1s-1 1.6-1 2.8c0 1 .3 1.9 1 2.5.6.6 1.5 1 2.5 1 .8 0 1.4-.2 2-.5l-.1-1.4zm-7.1-5.2h-1.6v7h1.6v-7zm-.1-1.8c.2-.2.3-.4.3-.6 0-.3-.1-.5-.3-.6-.2-.2-.4-.3-.7-.3s-.5.1-.7.3-.3.4-.3.6c0 .3.1.5.3.6s.4.3.7.3c.3 0 .5-.1.7-.3zm-4.2 1.8l-1.6 4.9c-.1.3-.1.6-.2.9 0-.3-.1-.6-.2-.9l-1.5-4.9h-1.7l2.6 7h1.7l2.7-7h-1.8zm-6 0c-.1-.1-.4-.1-.7-.1-.4 0-.8.1-1.1.4-.3.3-.6.7-.7 1.1v-1.4h-1.6v7h1.6v-3.3c0-.7.2-1.3.5-1.7s.7-.6 1.2-.6c.4 0 .6.1.8.2v-1.6zm-10.3 2.7c.1-.5.3-1 .6-1.3s.7-.5 1.2-.5.8.2 1.1.5.4.8.4 1.3h-3.3zm4.8.6c0-1.1-.3-1.9-.8-2.5s-1.3-.9-2.2-.9-1.7.3-2.4 1-1 1.6-1 2.6c0 1.1.3 2 .9 2.7.6.6 1.4.9 2.4.9s1.9-.2 2.5-.6v-1.3c-.6.4-1.3.7-2 .7s-1.2-.2-1.6-.5c-.4-.3-.6-.8-.6-1.5h4.7l.1-.6zm-13.3 3.5c.2.1.5.1.7.2.3 0 .5.1.7.1h.6c.5 0 1 0 1.4-.1s.8-.2 1.2-.5c.3-.2.6-.5.8-.8s.3-.8.3-1.3c0-.4-.1-.7-.2-1s-.3-.5-.5-.8c-.2-.2-.5-.5-.8-.6-.3-.2-.6-.4-1-.6-.3-.1-.6-.3-.9-.4-.3-.1-.5-.3-.6-.4-.2-.1-.3-.3-.4-.4-.1-.2-.1-.3-.1-.6 0-.2.1-.4.2-.6s.3-.3.5-.4.4-.2.6-.2c.2 0 .5-.1.7-.1.9 0 1.6.2 2.1.6v-1.6c-.5-.2-1.2-.3-2.2-.3-.4 0-.9.1-1.3.2s-.8.3-1.2.5c-.3.2-.6.5-.8.8s-.3.7-.3 1.2c0 .4.1.7.2 1s.3.5.5.7.5.4.7.6c.3.2.6.4.9.5.3.1.6.3.9.4.3.1.5.3.7.4s.4.3.5.5.2.4.2.6c0 .4-.2.8-.5 1s-.8.3-1.5.3c-.2 0-.4 0-.6-.1-.2 0-.5-.1-.7-.2-.2-.1-.5-.2-.7-.3s-.4-.2-.5-.4v1.7c0 .2.2.3.4.4zm-6.7-6.8l-1.7 5.1c-.1.2-.1.4-.1.5-.1-.3-.1-.4-.1-.5l-1.7-5.1h-1.7l2.8 7-.5 1.1c-.3.6-.7.9-1.3.9-.2 0-.4 0-.7-.1v1.3c.2.1.5.1.8.1 1.2 0 2.1-.7 2.7-2.2l3.1-8.1H806zm-6.1 0c-.1-.1-.4-.1-.7-.1-.4 0-.8.1-1.1.4-.3.3-.6.7-.7 1.1v-1.4h-1.6v7h1.6v-3.3c0-.7.2-1.3.5-1.7s.7-.6 1.2-.6c.4 0 .6.1.8.2v-1.6zm-7.8 1.7c.3.4.5 1 .5 1.8s-.2 1.3-.5 1.8c-.3.4-.8.6-1.4.6-.6 0-1.1-.2-1.5-.6-.4-.4-.5-1-.5-1.7 0-.8.2-1.4.5-1.8.4-.4.8-.6 1.5-.6.6-.2 1.1.1 1.4.5zm1.2 4.4c.7-.7 1-1.6 1-2.7s-.3-2-.9-2.7c-.6-.6-1.5-1-2.5-1-1.1 0-2 .3-2.7 1s-1 1.6-1 2.7.3 1.9 1 2.6 1.5 1 2.6 1c.9.1 1.8-.3 2.5-.9zm-7-.5c-.2.2-.4.2-.7.2s-.6-.1-.7-.3c-.2-.2-.2-.5-.2-.9V535h1.7v-1.2h-1.7v-2.1l-1.6.4v1.6h-1.2v1.2h1.2v3.9c0 1.3.7 1.9 2 1.9.5 0 .9-.1 1.2-.2v-1zm-5.3-.4c-.5.4-1 .6-1.6.6-.7 0-1.2-.2-1.6-.6s-.6-1-.6-1.7.2-1.3.6-1.8 1-.7 1.6-.7c.5 0 1.1.2 1.6.5V534c-.5-.2-1-.3-1.7-.3-1.1 0-2.1.3-2.7 1s-1 1.6-1 2.8c0 1 .3 1.9 1 2.5.6.6 1.5 1 2.5 1 .8 0 1.4-.2 2-.5l-.1-1.4zm-11.2-2.5c.1-.5.3-1 .6-1.3s.7-.5 1.2-.5.8.2 1.1.5.4.8.4 1.3h-3.3zm4.7.6c0-1.1-.3-1.9-.8-2.5s-1.3-.9-2.2-.9-1.7.3-2.4 1-1 1.6-1 2.6c0 1.1.3 2 .9 2.7.6.6 1.4.9 2.4.9s1.9-.2 2.5-.6v-1.3c-.6.4-1.3.7-2 .7s-1.2-.2-1.6-.5c-.4-.3-.6-.8-.6-1.5h4.7l.1-.6zm-6.8-3.3c-.1-.1-.4-.1-.7-.1-.4 0-.8.1-1.1.4-.3.3-.6.7-.7 1.1v-1.4h-1.6v7h1.6v-3.3c0-.7.2-1.3.5-1.7s.7-.6 1.2-.6c.4 0 .6.1.8.2v-1.6zm-6.1 0H760v7h1.6v-7zm-.1-1.8c.2-.2.3-.4.3-.6 0-.3-.1-.5-.3-.6-.2-.2-.4-.3-.7-.3s-.5.1-.7.3-.3.4-.3.6c0 .3.1.5.3.6s.4.3.7.3c.2 0 .5-.1.7-.3zm-8.4.3c2.4 0 3.5 1.1 3.5 3.4 0 1.1-.3 2-.9 2.7-.6.6-1.5.9-2.7.9h-1.3v-7h1.4zm-.2 8.4c1.7 0 3-.5 4-1.4s1.5-2.1 1.5-3.6c0-3.2-1.8-4.8-5.4-4.8h-2.8v9.8h2.7z"/><path class="icon" d="M794.9 437.4c.4.7.6 1.4.6 2.2 0 .4-.1.8-.2 1.2l9.4 5.7v-16.3c-.1 0-.7-1-.8-1l-9 8.2zM808.5 428.9c-.2.1-1.6 1.2-1.8 1.3v16.2l9.3-6c-.1-.3-.1-.6-.1-.9 0-.5.1-1 .3-1.6l-7.7-9z"/><path class="icon" d="M820.3 443.9c-1.2 0-2.3-.5-3.1-1.3l-7.5 5.3c.5.7.7 1.5.7 2.4 0 2.4-2 4.4-4.4 4.4s-4.3-1.9-4.3-4.4c0-1.1.4-2 1.1-2.8l-8.6-4.6c-.8.8-1.8 1.2-2.9 1.2-2.4 0-4.4-1.9-4.4-4.4 0-2.4 2-4.4 4.4-4.4.7 0 1.4.2 2 .5l9-8.4c-.6-.8-1-1.8-1-2.9 0-2.7 2.2-4.8 4.8-4.8 2.7 0 4.8 2.1 4.8 4.8 0 .9-.3 1.8-.8 2.5l7.6 9c.7-.6 1.7-.9 2.6-.9 2.4 0 4.4 1.9 4.4 4.4-.1 2.4-2 4.4-4.4 4.4zm-14.2-35.4v-.5l-.2.2-.3-.3v.7l-26.9 32 27.1 22.1v.3l27.3-22.2-27-32.3z"/></g><g class="line" fill="none" stroke="#DEDEDE" stroke-width="4" stroke-linejoin="round" stroke-miterlimit="10"><path d="M930.6 0v540"/><circle stroke-linecap="round" cx="889.6" cy="538.2" r="5"/><path d="M894.7 538.1h37.6"/></g><g class="line" fill="none" stroke="#DEDEDE" stroke-width="4" stroke-linejoin="round" stroke-miterlimit="10"><path d="M28.4 0v535"/><circle stroke-linecap="round" cx="69.4" cy="533.2" r="5"/><path d="M66 533.1H26.6"/></g></g></g></svg>