<?xml version="1.0" encoding="utf-8"?>
<!-- Generator: Adobe Illustrator 19.2.0, SVG Export Plug-In . SVG Version: 6.00 Build 0)  -->
<svg version="1.1" id="infographic--3_x5F__x5F_fullwidth"
	 xmlns="http://www.w3.org/2000/svg" xmlns:xlink="http://www.w3.org/1999/xlink" x="0px" y="0px" viewBox="0 0 960 341"
	 style="enable-background:new 0 0 960 341;" xml:space="preserve">
<g id="azure-management">
	<path style="fill:#FFFFFF;" d="M541.2,129.2c-5.3,32.8-36.1,55.1-68.9,49.9c-32.8-5.3-55.1-36.1-49.9-68.9
		c1.3-8.4,4.4-16.1,8.7-22.8c7.5-11.7,18.8-20.4,31.9-24.8c8.9-2.9,18.5-3.8,28.4-2.3C524.1,65.5,546.4,96.4,541.2,129.2z"/>
	<path style="fill:none;stroke:#000000;stroke-width:3;stroke-linecap:round;stroke-linejoin:round;" d="M541.2,129.2
		c-5.3,32.8-36.1,55.1-68.9,49.9c-32.8-5.3-55.1-36.1-49.9-68.9c1.3-8.4,4.4-16.1,8.7-22.8c7.5-11.7,18.8-20.4,31.9-24.8
		c8.9-2.9,18.5-3.8,28.4-2.3C524.1,65.5,546.4,96.4,541.2,129.2z"/>
	<path style="fill:#FFFFFF;" d="M530.4,127.5c-4.3,26.9-29.6,45.1-56.4,40.8c-26.9-4.3-45.1-29.6-40.8-56.4
		c1.1-6.9,3.6-13.2,7.1-18.7c6.1-9.6,15.4-16.7,26.1-20.3c7.3-2.4,15.2-3.1,23.2-1.8C516.5,75.3,534.7,100.6,530.4,127.5z"/>
	<path style="fill:none;stroke:#000000;stroke-width:3;stroke-linecap:round;stroke-linejoin:round;" d="M530.4,127.5
		c-4.3,26.9-29.6,45.1-56.4,40.8c-26.9-4.3-45.1-29.6-40.8-56.4c1.1-6.9,3.6-13.2,7.1-18.7c6.1-9.6,15.4-16.7,26.1-20.3
		c7.3-2.4,15.2-3.1,23.2-1.8C516.5,75.3,534.7,100.6,530.4,127.5z"/>
	<polygon points="453.1,136.3 453.1,133.3 453.1,133.3 453.1,136.3 	"/>
	<path d="M496.2,102.4l2.2-0.8v-1.8l-2.2-0.7l-0.5-1.3l1-2.1l-1.3-1.3l-2.1,1.1l-1.3-0.5l-0.8-2.2h-1.8l-0.7,2.2l-1.3,0.5l-2.1-1
		l-1.3,1.3l0.7,1.3l0.4,0.8l-0.5,1.3l-1.5,0.5l-0.8,0.3v1.8l2.2,0.7l0.5,1.3l-1,2.1l1.3,1.3l2.1-1.1l1.3,0.5l0.8,2.2h1.8l0.7-2.2
		l1.2-0.5l1.9,0.9l0.2,0.1l1.3-1.3l-1.1-2.1l0.2-0.6L496.2,102.4z M492.2,102.6c-0.5,0.4-1.1,0.7-1.8,0.7c-1.4,0-2.6-1.2-2.6-2.6
		c0-0.2,0-0.4,0.1-0.6c0.3-1,1.1-1.7,2.1-1.9c0.1,0,0.3,0,0.4,0c1.1,0,2,0.7,2.4,1.7c0.1,0.3,0.2,0.6,0.2,0.9
		C493,101.5,492.6,102.1,492.2,102.6z"/>
	<path d="M516.4,112.4v-2.4l-2.9-1l-0.7-1.7l1.4-2.8l-1.7-1.7l-2.8,1.4l-1.7-0.7l-1.1-3h-2.4l-1,3l-1.7,0.7l-2.8-1.3l-1.7,1.7
		l1.4,2.8l-0.2,0.5l-0.5,1.1l-1.5,0.5L495,110v2.4l1.9,0.6l1.1,0.4l0.7,1.7l-1,2.1l-0.4,0.8l1.7,1.7l1.6-0.8l1.2-0.6l1.7,0.7
		l1.1,2.9h0.9h1.5l1-2.9l1.7-0.7l2.8,1.3l1.7-1.7l-1.4-2.7l0.7-1.7L516.4,112.4z M505.7,114.6c-1.9,0-3.4-1.5-3.4-3.4
		c0-1.9,1.5-3.4,3.4-3.4c1.9,0,3.4,1.5,3.4,3.4C509.1,113.1,507.6,114.6,505.7,114.6z"/>
	<polygon points="465.4,121.1 465.4,132.6 480.8,132.6 480.8,119 	"/>
	<polygon points="453.1,132.6 464.9,132.6 464.9,121.2 453.1,122.9 	"/>
	<polygon points="465.4,135.6 465.4,138.1 465.4,144.5 480.8,146.7 480.8,138.1 480.8,135.6 480.8,133.1 465.4,133.1 	"/>
	<polygon points="453.1,133.3 453.1,136.3 453.1,142.8 464.9,144.4 464.9,138.1 464.9,135.6 464.9,133.1 453.1,133.1 	"/>
	<path d="M503.1,122.8c0.3,1,0.5,2,0.5,3.1c0,5.5-4.2,9.7-9.8,9.7H482v2.5h11.8c7,0,12.3-5.3,12.3-12.2c0-1.1-0.2-2.2-0.5-3.2
		L503.1,122.8z"/>
	<path d="M483.9,97.7l-0.4-0.7c-5,0.3-9.4,3.1-11.9,7.5c-1.9-1.6-4.3-2.5-6.9-2.5c-5.9,0-10.6,4.9-10.6,11c0,0.6,0.1,1.3,0.2,1.9
		c-4.4,2-7,6.1-7,10.9c0,3.9,1.8,7.4,4.6,9.6V132c-1.3-1.6-2.1-3.7-2.1-6.1c0-4.1,2.4-7.5,6.4-9c0.6-0.2,0.9-0.9,0.8-1.5
		c-0.2-0.8-0.3-1.6-0.3-2.4c0-4.7,3.6-8.4,8.1-8.4c2.5,0,4.8,1,6.2,2.9c0.3,0.4,0.7,0.5,1.2,0.5c0.4-0.1,0.8-0.4,1-0.8
		c1.5-3.7,4.6-6.4,8.3-7.3l0.2-0.8l2-0.7L483.9,97.7z"/>
	<path d="M549.8,204.1h-7.3v1.4h2.8v8.4h1.6v-8.4h2.8V204.1z M541.1,204.1h-1.6v6.3c0,0.6,0,1.1,0.1,1.3h0c-0.1-0.1-0.2-0.3-0.4-0.6
		l-4.5-7h-1.9v9.8h1.6v-6.4c0-0.7,0-1.1-0.1-1.3h0c0.1,0.2,0.2,0.4,0.3,0.6l4.7,7.2h1.8V204.1z M531,212.5h-3.9v-2.9h3.4v-1.4h-3.4
		v-2.8h3.7v-1.4h-5.3v9.8h5.5V212.5z M523.1,204.1h-2.2l-2.6,6.5c-0.1,0.3-0.2,0.6-0.4,1.1h0c-0.1-0.2-0.2-0.6-0.4-1.1l-2.6-6.5
		h-2.3v9.8h1.5v-6.3c0-0.9,0-1.5-0.1-1.9h0c0.1,0.4,0.2,0.8,0.3,1l2.9,7.3h1.1l2.9-7.3c0.1-0.2,0.2-0.5,0.3-0.9h0
		c-0.1,0.8-0.1,1.4-0.1,1.9v6.3h1.6V204.1z M510.9,212.5H507v-2.9h3.4v-1.4H507v-2.8h3.7v-1.4h-5.3v9.8h5.5V212.5z M503.2,208.6
		h-3.7v1.4h2.1v2.3c-0.5,0.3-1.1,0.4-1.8,0.4c-1,0-1.8-0.3-2.3-1c-0.6-0.6-0.9-1.5-0.9-2.7c0-1.1,0.3-2,1-2.7c0.7-0.7,1.5-1,2.6-1
		c1,0,1.9,0.3,2.7,0.8v-1.7c-0.7-0.3-1.7-0.5-2.7-0.5c-1.5,0-2.8,0.5-3.7,1.5c-1,1-1.5,2.2-1.5,3.7c0,1.5,0.4,2.7,1.3,3.6
		s2.1,1.4,3.5,1.4c1.3,0,2.4-0.3,3.4-0.8V208.6z M488.3,210.1l1.3-3.9c0-0.2,0.1-0.4,0.1-0.6h0c0,0.3,0.1,0.5,0.1,0.6l1.4,3.9H488.3
		z M490.8,204.1h-1.8l-3.7,9.8h1.8l0.8-2.5h3.9l0.9,2.5h1.8L490.8,204.1z M483.9,204.1h-1.6v6.3c0,0.6,0,1.1,0.1,1.3h0
		c-0.1-0.1-0.2-0.3-0.4-0.6l-4.5-7h-1.9v9.8h1.6v-6.4c0-0.7,0-1.1-0.1-1.3h0c0.1,0.2,0.2,0.4,0.3,0.6l4.7,7.2h1.8V204.1z
		 M468.2,210.1l1.3-3.9c0-0.2,0.1-0.4,0.1-0.6h0c0,0.3,0.1,0.5,0.1,0.6l1.4,3.9H468.2z M470.6,204.1h-1.8l-3.7,9.8h1.8l0.8-2.5h3.9
		l0.9,2.5h1.8L470.6,204.1z M463.8,204.1h-2.2l-2.6,6.5c-0.1,0.3-0.2,0.6-0.4,1.1h0c-0.1-0.2-0.2-0.6-0.4-1.1l-2.6-6.5h-2.3v9.8h1.5
		v-6.3c0-0.9,0-1.5-0.1-1.9h0c0.1,0.4,0.2,0.8,0.3,1l2.9,7.3h1.1l2.9-7.3c0.1-0.2,0.2-0.5,0.3-0.9h0c-0.1,0.8-0.1,1.4-0.1,1.9v6.3
		h1.6V204.1z M447.7,212.5h-3.9v-2.9h3.4v-1.4h-3.4v-2.8h3.7v-1.4h-5.3v9.8h5.5V212.5z M436.5,205.4c0.6,0,1,0.1,1.3,0.4
		s0.4,0.6,0.4,1.1c0,0.3,0,0.5-0.1,0.7s-0.2,0.4-0.4,0.5s-0.3,0.3-0.6,0.3c-0.2,0.1-0.4,0.1-0.7,0.1h-1.4v-3.2H436.5z M439.3,211.2
		c-0.1-0.2-0.3-0.4-0.4-0.6c-0.1-0.2-0.2-0.3-0.4-0.4s-0.2-0.3-0.4-0.4c-0.1-0.1-0.3-0.2-0.5-0.3v0c0.3-0.1,0.6-0.2,0.9-0.4
		c0.3-0.2,0.5-0.4,0.7-0.6c0.2-0.2,0.3-0.5,0.4-0.8c0.1-0.3,0.2-0.6,0.2-1c0-0.4-0.1-0.8-0.2-1.2c-0.2-0.3-0.4-0.6-0.7-0.8
		c-0.3-0.2-0.6-0.4-1-0.5s-0.8-0.2-1.3-0.2h-3.2v9.8h1.6v-4h0.7c0.2,0,0.4,0,0.6,0.1s0.3,0.1,0.5,0.2c0.1,0.1,0.3,0.3,0.4,0.4
		c0.1,0.2,0.3,0.4,0.4,0.6l1.6,2.6h1.9L439.3,211.2z M431.2,204.1h-1.6v5.8c0,1.9-0.7,2.8-2.2,2.8c-1.5,0-2.2-1-2.2-2.9v-5.7h-1.6v6
		c0,2.6,1.2,4,3.7,4c2.6,0,3.9-1.4,3.9-4.1V204.1z M422.1,204.1h-7.2v1.4h5l-5.4,7.7v0.7h7.6v-1.4h-5.3l5.4-7.7V204.1z M407.7,210.1
		l1.3-3.9c0-0.2,0.1-0.4,0.1-0.6h0c0,0.3,0.1,0.5,0.1,0.6l1.4,3.9H407.7z M410.1,204.1h-1.8l-3.7,9.8h1.8l0.8-2.5h3.9l0.9,2.5h1.8
		L410.1,204.1z"/>
	<path d="M441,230.6c0.2,0.1,0.5,0.1,0.7,0.2c0.3,0,0.5,0.1,0.7,0.1c0.2,0,0.4,0,0.6,0c0.5,0,1,0,1.4-0.1s0.8-0.3,1.2-0.5
		c0.3-0.2,0.6-0.5,0.8-0.8s0.3-0.8,0.3-1.3c0-0.4-0.1-0.7-0.2-1c-0.1-0.3-0.3-0.6-0.5-0.8c-0.2-0.2-0.5-0.5-0.8-0.6
		c-0.3-0.2-0.6-0.4-1-0.6c-0.3-0.1-0.6-0.3-0.9-0.4c-0.3-0.1-0.5-0.3-0.6-0.4c-0.2-0.1-0.3-0.3-0.4-0.4s-0.1-0.3-0.1-0.6
		c0-0.2,0.1-0.4,0.2-0.6s0.3-0.3,0.5-0.4c0.2-0.1,0.4-0.2,0.6-0.2c0.2,0,0.5-0.1,0.7-0.1c0.9,0,1.6,0.2,2.1,0.6v-1.6
		c-0.5-0.2-1.2-0.3-2.2-0.3c-0.5,0-0.9,0.1-1.3,0.2c-0.4,0.1-0.8,0.3-1.2,0.5c-0.3,0.2-0.6,0.5-0.8,0.8c-0.2,0.3-0.3,0.7-0.3,1.2
		c0,0.4,0.1,0.7,0.2,1c0.1,0.3,0.3,0.5,0.5,0.7c0.2,0.2,0.5,0.4,0.7,0.6s0.6,0.4,0.9,0.5c0.3,0.1,0.6,0.3,0.9,0.4
		c0.3,0.1,0.5,0.3,0.7,0.4s0.4,0.3,0.5,0.5c0.1,0.2,0.2,0.4,0.2,0.6c0,0.4-0.2,0.8-0.5,1c-0.3,0.2-0.8,0.3-1.5,0.3
		c-0.2,0-0.4,0-0.6-0.1s-0.5-0.1-0.7-0.2c-0.2-0.1-0.5-0.2-0.7-0.3c-0.2-0.1-0.4-0.2-0.5-0.4v1.7C440.6,230.4,440.7,230.5,441,230.6
		z M439.5,229.3h-3.8v-8.4H434v9.8h5.4V229.3z M429.7,223.1c0.5,0.6,0.8,1.5,0.8,2.7c0,1.1-0.3,2-0.8,2.7s-1.3,1-2.2,1
		c-0.9,0-1.6-0.3-2.1-1s-0.8-1.5-0.8-2.6c0-1.1,0.3-2,0.8-2.6c0.6-0.7,1.3-1,2.2-1C428.5,222.2,429.2,222.5,429.7,223.1z
		 M430.9,229.5c0.9-0.9,1.3-2.2,1.3-3.8c0-1.5-0.4-2.7-1.3-3.6c-0.8-0.9-1.9-1.4-3.3-1.4c-1.5,0-2.7,0.5-3.5,1.4s-1.3,2.2-1.3,3.8
		c0,1.5,0.4,2.7,1.3,3.6c0.9,0.9,2,1.4,3.4,1.4C428.9,230.9,430.1,230.4,430.9,229.5z M419.2,223.1c0.5,0.6,0.8,1.5,0.8,2.7
		c0,1.1-0.3,2-0.8,2.7s-1.3,1-2.2,1c-0.9,0-1.6-0.3-2.1-1s-0.8-1.5-0.8-2.6c0-1.1,0.3-2,0.8-2.6c0.6-0.7,1.3-1,2.2-1
		C417.9,222.2,418.6,222.5,419.2,223.1z M420.4,229.5c0.9-0.9,1.3-2.2,1.3-3.8c0-1.5-0.4-2.7-1.3-3.6c-0.8-0.9-1.9-1.4-3.3-1.4
		c-1.5,0-2.7,0.5-3.5,1.4s-1.3,2.2-1.3,3.8c0,1.5,0.4,2.7,1.3,3.6c0.9,0.9,2,1.4,3.4,1.4C418.3,230.9,419.5,230.4,420.4,229.5z
		 M412,220.9h-7.3v1.4h2.8v8.4h1.6v-8.4h2.8V220.9z"/>
	<path style="fill:#686868;" d="M550.9,262.7l-0.8,3.4h1.2l1.1-3.4H550.9z M548.7,254.5H547v9.8h1.7V254.5z M545.6,262.9h-3.8v-8.4
		h-1.6v9.8h5.4V262.9z M538.3,262.4c-0.7,0.4-1.5,0.7-2.4,0.7c-1,0-1.8-0.3-2.4-1c-0.6-0.6-0.9-1.5-0.9-2.6c0-1.1,0.3-2,1-2.7
		c0.7-0.7,1.5-1,2.6-1c0.8,0,1.5,0.2,2.2,0.6v-1.6c-0.6-0.3-1.4-0.4-2.4-0.4c-1.5,0-2.7,0.5-3.7,1.4c-1,1-1.4,2.2-1.4,3.8
		c0,1.5,0.4,2.6,1.3,3.5s2,1.3,3.4,1.3c1.1,0,2-0.2,2.8-0.6V262.4z M521.1,260.1c0.1-0.5,0.3-1,0.6-1.3c0.3-0.3,0.7-0.5,1.2-0.5
		c0.5,0,0.8,0.2,1.1,0.5c0.3,0.3,0.4,0.8,0.4,1.3H521.1z M525.9,260.6c0-1.1-0.3-1.9-0.8-2.6s-1.3-0.9-2.2-0.9s-1.8,0.3-2.4,1
		c-0.6,0.7-1,1.6-1,2.7c0,1.2,0.3,2,0.9,2.7c0.6,0.6,1.4,1,2.4,1c1,0,1.9-0.2,2.5-0.6v-1.3c-0.6,0.4-1.3,0.7-2.1,0.7
		c-0.7,0-1.2-0.2-1.6-0.5c-0.4-0.4-0.6-0.8-0.6-1.5h4.8V260.6z M519,257.3c-0.2-0.1-0.4-0.1-0.7-0.1c-0.4,0-0.8,0.1-1.1,0.4
		c-0.3,0.3-0.6,0.7-0.7,1.2h0v-1.4h-1.6v7h1.6V261c0-0.7,0.2-1.3,0.5-1.7s0.7-0.6,1.2-0.6c0.4,0,0.6,0.1,0.8,0.2V257.3z
		 M512.9,257.3h-1.6v4c0,0.6-0.2,1-0.5,1.4c-0.3,0.3-0.7,0.5-1.2,0.5c-1,0-1.5-0.6-1.5-1.9v-4h-1.6v4.2c0,2,0.8,3,2.5,3
		c1,0,1.7-0.4,2.1-1.3h0v1.1h1.6V257.3z M505.4,257.3h-5.6v1.2h3.5l-3.9,5.2v0.6h6v-1.2h-3.8l3.8-5.1V257.3z M493,260.5l1.3-3.9
		c0-0.2,0.1-0.4,0.1-0.6h0c0,0.3,0.1,0.5,0.1,0.6l1.4,3.9H493z M495.4,254.5h-1.8l-3.7,9.8h1.8l0.8-2.5h3.9l0.9,2.5h1.8L495.4,254.5
		z M483.6,262.7l-0.8,3.4h1.2l1.1-3.4H483.6z M481.6,254H480v10.4h1.6V254z M476.5,261.5c0,0.5-0.2,0.9-0.5,1.3
		c-0.3,0.3-0.7,0.5-1.2,0.5c-0.4,0-0.6-0.1-0.9-0.3c-0.2-0.2-0.3-0.4-0.3-0.7c0-0.4,0.1-0.7,0.3-0.9c0.2-0.2,0.6-0.3,1-0.3l1.5-0.2
		V261.5z M478,259.8c0-1.7-0.9-2.6-2.7-2.6c-1,0-1.8,0.2-2.6,0.7v1.4c0.7-0.6,1.4-0.9,2.3-0.9c0.9,0,1.4,0.5,1.4,1.5l-2.1,0.3
		c-1.5,0.2-2.3,1-2.3,2.3c0,0.6,0.2,1.1,0.6,1.5c0.4,0.4,0.9,0.6,1.6,0.6c0.9,0,1.6-0.4,2.1-1.3h0v1.1h1.5V259.8z M471.3,263
		c-0.2,0.2-0.4,0.2-0.7,0.2c-0.4,0-0.6-0.1-0.8-0.3s-0.2-0.5-0.2-0.9v-3.5h1.7v-1.2h-1.7v-2.1l-1.6,0.5v1.6h-1.2v1.2h1.2v4
		c0,1.3,0.7,2,2,2c0.5,0,0.9-0.1,1.2-0.2V263z M466.1,257.3c-0.2-0.1-0.4-0.1-0.7-0.1c-0.4,0-0.8,0.1-1.1,0.4
		c-0.3,0.3-0.6,0.7-0.7,1.2h0v-1.4H462v7h1.6V261c0-0.7,0.2-1.3,0.5-1.7s0.7-0.6,1.2-0.6c0.4,0,0.6,0.1,0.8,0.2V257.3z M458.3,259
		c0.3,0.4,0.5,1,0.5,1.8c0,0.8-0.2,1.4-0.5,1.8c-0.3,0.4-0.8,0.6-1.4,0.6c-0.6,0-1.1-0.2-1.5-0.6c-0.4-0.4-0.5-1-0.5-1.7
		c0-0.8,0.2-1.4,0.5-1.8s0.8-0.6,1.5-0.6C457.5,258.4,457.9,258.6,458.3,259z M459.4,263.5c0.7-0.7,1-1.6,1-2.7c0-1.1-0.3-2-0.9-2.7
		s-1.5-1-2.6-1c-1.1,0-2,0.3-2.7,1c-0.7,0.7-1,1.6-1,2.8c0,1.1,0.3,1.9,1,2.6c0.6,0.7,1.5,1,2.6,1
		C457.9,264.5,458.8,264.1,459.4,263.5z M448.9,255.9c1.3,0,2,0.6,2,1.7c0,0.6-0.2,1-0.5,1.4s-0.9,0.5-1.6,0.5h-1.1v-3.6H448.9z
		 M449.1,260.8c1.1,0,2-0.3,2.6-0.9s1-1.4,1-2.3s-0.3-1.7-0.9-2.2s-1.5-0.8-2.6-0.8h-3v9.8h1.6v-3.6H449.1z M435.8,260.1
		c0.1-0.5,0.3-1,0.6-1.3c0.3-0.3,0.7-0.5,1.2-0.5c0.5,0,0.8,0.2,1.1,0.5c0.3,0.3,0.4,0.8,0.4,1.3H435.8z M440.6,260.6
		c0-1.1-0.3-1.9-0.8-2.6s-1.3-0.9-2.2-0.9s-1.8,0.3-2.4,1c-0.6,0.7-1,1.6-1,2.7c0,1.2,0.3,2,0.9,2.7c0.6,0.6,1.4,1,2.4,1
		c1,0,1.9-0.2,2.5-0.6v-1.3c-0.6,0.4-1.3,0.7-2.1,0.7c-0.7,0-1.2-0.2-1.6-0.5c-0.4-0.4-0.6-0.8-0.6-1.5h4.8V260.6z M433.7,257.3
		c-0.2-0.1-0.4-0.1-0.7-0.1c-0.4,0-0.8,0.1-1.1,0.4c-0.3,0.3-0.6,0.7-0.7,1.2h0v-1.4h-1.6v7h1.6V261c0-0.7,0.2-1.3,0.5-1.7
		s0.7-0.6,1.2-0.6c0.4,0,0.6,0.1,0.8,0.2V257.3z M427.5,257.3H426v4c0,0.6-0.2,1-0.5,1.4c-0.3,0.3-0.7,0.5-1.2,0.5
		c-1,0-1.5-0.6-1.5-1.9v-4h-1.6v4.2c0,2,0.8,3,2.5,3c1,0,1.7-0.4,2.1-1.3h0v1.1h1.6V257.3z M420.1,257.3h-5.6v1.2h3.5l-3.9,5.2v0.6
		h6v-1.2h-3.8l3.8-5.1V257.3z M407.7,260.5l1.3-3.9c0-0.2,0.1-0.4,0.1-0.6h0c0,0.3,0.1,0.5,0.1,0.6l1.4,3.9H407.7z M410.1,254.5
		h-1.8l-3.7,9.8h1.8l0.8-2.5h3.9l0.9,2.5h1.8L410.1,254.5z"/>
	<path style="fill:#686868;" d="M562.9,279.5l-0.8,3.4h1.2l1.1-3.4H562.9z M562.9,274.1c-0.2-0.1-0.4-0.1-0.7-0.1
		c-0.4,0-0.8,0.1-1.1,0.4c-0.3,0.3-0.6,0.7-0.7,1.2h0v-1.4h-1.6v7h1.6v-3.3c0-0.7,0.2-1.3,0.5-1.7s0.7-0.6,1.2-0.6
		c0.4,0,0.6,0.1,0.8,0.2V274.1z M552.5,276.9c0.1-0.5,0.3-1,0.6-1.3c0.3-0.3,0.7-0.5,1.2-0.5c0.5,0,0.8,0.2,1.1,0.5
		c0.3,0.3,0.4,0.8,0.4,1.3H552.5z M557.3,277.4c0-1.1-0.3-1.9-0.8-2.6s-1.3-0.9-2.2-0.9s-1.8,0.3-2.4,1c-0.6,0.7-1,1.6-1,2.7
		c0,1.2,0.3,2,0.9,2.7c0.6,0.6,1.4,1,2.4,1c1,0,1.9-0.2,2.5-0.6v-1.3c-0.6,0.4-1.3,0.7-2.1,0.7c-0.7,0-1.2-0.2-1.6-0.5
		c-0.4-0.4-0.6-0.8-0.6-1.5h4.8V277.4z M547.2,279.4c-0.3,0.4-0.8,0.6-1.3,0.6c-0.5,0-1-0.2-1.3-0.6c-0.3-0.4-0.5-1-0.5-1.7
		c0-0.8,0.2-1.4,0.5-1.9c0.3-0.4,0.8-0.7,1.4-0.7c0.5,0,0.9,0.2,1.2,0.5c0.3,0.3,0.5,0.8,0.5,1.3v0.9
		C547.8,278.5,547.6,279,547.2,279.4z M549.3,274.1h-1.6v1h0c-0.4-0.8-1.1-1.1-2.1-1.1c-1,0-1.8,0.4-2.3,1.1s-0.8,1.6-0.8,2.8
		c0,1,0.3,1.9,0.8,2.5c0.5,0.6,1.2,0.9,2.1,0.9c1.1,0,1.8-0.4,2.4-1.3h0v0.8c0,1.6-0.8,2.5-2.5,2.5c-0.7,0-1.4-0.2-2.2-0.7v1.4
		c0.7,0.3,1.5,0.5,2.4,0.5c2.6,0,3.9-1.3,3.9-3.9V274.1z M539.5,278.3c0,0.5-0.2,0.9-0.5,1.3c-0.3,0.3-0.7,0.5-1.2,0.5
		c-0.4,0-0.6-0.1-0.9-0.3c-0.2-0.2-0.3-0.4-0.3-0.7c0-0.4,0.1-0.7,0.3-0.9c0.2-0.2,0.6-0.3,1-0.3l1.5-0.2V278.3z M541,276.6
		c0-1.7-0.9-2.6-2.7-2.6c-1,0-1.8,0.2-2.6,0.7v1.4c0.7-0.6,1.4-0.9,2.3-0.9c0.9,0,1.4,0.5,1.4,1.5l-2.1,0.3c-1.5,0.2-2.3,1-2.3,2.3
		c0,0.6,0.2,1.1,0.6,1.5c0.4,0.4,0.9,0.6,1.6,0.6c0.9,0,1.6-0.4,2.1-1.3h0v1.1h1.5V276.6z M533.7,276.8c0-0.9-0.2-1.6-0.6-2.1
		c-0.4-0.5-1-0.7-1.7-0.7c-1,0-1.7,0.4-2.3,1.3h0v-1.2h-1.6v7h1.6v-4c0-0.6,0.2-1,0.5-1.4c0.3-0.4,0.7-0.5,1.2-0.5
		c0.9,0,1.4,0.7,1.4,2v3.9h1.6V276.8z M524,278.3c0,0.5-0.2,0.9-0.5,1.3c-0.3,0.3-0.7,0.5-1.2,0.5c-0.4,0-0.6-0.1-0.9-0.3
		c-0.2-0.2-0.3-0.4-0.3-0.7c0-0.4,0.1-0.7,0.3-0.9c0.2-0.2,0.6-0.3,1-0.3l1.5-0.2V278.3z M525.5,276.6c0-1.7-0.9-2.6-2.7-2.6
		c-1,0-1.8,0.2-2.6,0.7v1.4c0.7-0.6,1.4-0.9,2.3-0.9c0.9,0,1.4,0.5,1.4,1.5l-2.1,0.3c-1.5,0.2-2.3,1-2.3,2.3c0,0.6,0.2,1.1,0.6,1.5
		c0.4,0.4,0.9,0.6,1.6,0.6c0.9,0,1.6-0.4,2.1-1.3h0v1.1h1.5V276.6z M517.9,271.3h-2.2l-2.6,6.5c-0.1,0.3-0.2,0.6-0.4,1.1h0
		c-0.1-0.2-0.2-0.6-0.4-1.1l-2.6-6.5h-2.3v9.8h1.5v-6.3c0-0.9,0-1.5-0.1-1.9h0c0.1,0.4,0.2,0.8,0.3,1l2.9,7.3h1.1l2.9-7.3
		c0.1-0.2,0.2-0.5,0.3-0.9h0c-0.1,0.8-0.1,1.4-0.1,1.9v6.3h1.6V271.3z M497.1,276.9c0.1-0.5,0.3-1,0.6-1.3c0.3-0.3,0.7-0.5,1.2-0.5
		c0.5,0,0.8,0.2,1.1,0.5c0.3,0.3,0.4,0.8,0.4,1.3H497.1z M501.9,277.4c0-1.1-0.3-1.9-0.8-2.6s-1.3-0.9-2.2-0.9s-1.8,0.3-2.4,1
		c-0.6,0.7-1,1.6-1,2.7c0,1.2,0.3,2,0.9,2.7c0.6,0.6,1.4,1,2.4,1c1,0,1.9-0.2,2.5-0.6v-1.3c-0.6,0.4-1.3,0.7-2.1,0.7
		c-0.7,0-1.2-0.2-1.6-0.5c-0.4-0.4-0.6-0.8-0.6-1.5h4.8V277.4z M494.4,279.4c-0.5,0.4-1,0.6-1.6,0.6c-0.7,0-1.2-0.2-1.6-0.6
		c-0.4-0.4-0.6-1-0.6-1.7c0-0.7,0.2-1.3,0.6-1.8c0.4-0.5,1-0.7,1.6-0.7c0.6,0,1.1,0.2,1.6,0.5v-1.5c-0.5-0.2-1.1-0.3-1.7-0.3
		c-1.1,0-2.1,0.3-2.8,1c-0.7,0.7-1,1.6-1,2.8c0,1,0.3,1.9,1,2.5c0.6,0.7,1.5,1,2.5,1c0.8,0,1.4-0.2,2-0.5V279.4z M488.4,274.1
		c-0.2-0.1-0.4-0.1-0.7-0.1c-0.4,0-0.8,0.1-1.1,0.4c-0.3,0.3-0.6,0.7-0.7,1.2h0v-1.4h-1.6v7h1.6v-3.3c0-0.7,0.2-1.3,0.5-1.7
		s0.7-0.6,1.2-0.6c0.4,0,0.6,0.1,0.8,0.2V274.1z M482.2,274.1h-1.6v4c0,0.6-0.2,1-0.5,1.4c-0.3,0.3-0.7,0.5-1.2,0.5
		c-1,0-1.5-0.6-1.5-1.9v-4H476v4.2c0,2,0.8,3,2.5,3c1,0,1.7-0.4,2.1-1.3h0v1.1h1.6V274.1z M472.4,275.8c0.3,0.4,0.5,1,0.5,1.8
		c0,0.8-0.2,1.4-0.5,1.8c-0.3,0.4-0.8,0.6-1.4,0.6c-0.6,0-1.1-0.2-1.5-0.6c-0.4-0.4-0.5-1-0.5-1.7c0-0.8,0.2-1.4,0.5-1.8
		s0.8-0.6,1.5-0.6C471.6,275.2,472.1,275.4,472.4,275.8z M473.5,280.3c0.7-0.7,1-1.6,1-2.7c0-1.1-0.3-2-0.9-2.7s-1.5-1-2.6-1
		c-1.1,0-2,0.3-2.7,1c-0.7,0.7-1,1.6-1,2.8c0,1.1,0.3,1.9,1,2.6c0.6,0.7,1.5,1,2.6,1C472,281.3,472.9,280.9,473.5,280.3z
		 M463.3,281.3c0.4,0,0.8,0,1.1-0.1c0.4-0.1,0.7-0.2,0.9-0.4s0.5-0.4,0.7-0.7s0.2-0.6,0.2-0.9c0-0.3,0-0.5-0.1-0.8
		c-0.1-0.2-0.2-0.4-0.4-0.6c-0.2-0.2-0.4-0.3-0.6-0.4c-0.2-0.1-0.5-0.3-0.8-0.4c-0.2-0.1-0.4-0.1-0.6-0.2c-0.2-0.1-0.3-0.1-0.5-0.2
		c-0.1-0.1-0.2-0.2-0.3-0.3s-0.1-0.2-0.1-0.4c0-0.1,0-0.2,0.1-0.3c0.1-0.1,0.2-0.2,0.3-0.3s0.3-0.1,0.4-0.2c0.2,0,0.3-0.1,0.5-0.1
		c0.6,0,1.2,0.2,1.7,0.5v-1.4c-0.5-0.2-1.1-0.3-1.7-0.3c-0.4,0-0.7,0-1.1,0.1c-0.3,0.1-0.6,0.2-0.9,0.4c-0.3,0.2-0.5,0.4-0.6,0.7
		c-0.2,0.3-0.2,0.6-0.2,0.9c0,0.3,0,0.5,0.1,0.7s0.2,0.4,0.3,0.6c0.2,0.2,0.3,0.3,0.6,0.4c0.2,0.1,0.5,0.2,0.8,0.4
		c0.2,0.1,0.4,0.2,0.6,0.2c0.2,0.1,0.4,0.1,0.5,0.2c0.1,0.1,0.3,0.2,0.3,0.3c0.1,0.1,0.1,0.2,0.1,0.4c0,0.6-0.5,0.8-1.4,0.8
		c-0.7,0-1.4-0.2-2-0.7v1.5C461.9,281.2,462.5,281.3,463.3,281.3z M455.5,276.9c0.1-0.5,0.3-1,0.6-1.3c0.3-0.3,0.7-0.5,1.2-0.5
		c0.5,0,0.8,0.2,1.1,0.5c0.3,0.3,0.4,0.8,0.4,1.3H455.5z M460.2,277.4c0-1.1-0.3-1.9-0.8-2.6s-1.3-0.9-2.2-0.9s-1.8,0.3-2.4,1
		c-0.6,0.7-1,1.6-1,2.7c0,1.2,0.3,2,0.9,2.7c0.6,0.6,1.4,1,2.4,1c1,0,1.9-0.2,2.5-0.6v-1.3c-0.6,0.4-1.3,0.7-2.1,0.7
		c-0.7,0-1.2-0.2-1.6-0.5c-0.4-0.4-0.6-0.8-0.6-1.5h4.8V277.4z M449.1,272.6c0.6,0,1,0.1,1.3,0.4s0.4,0.6,0.4,1.1
		c0,0.3,0,0.5-0.1,0.7s-0.2,0.4-0.4,0.5s-0.3,0.3-0.6,0.3c-0.2,0.1-0.4,0.1-0.7,0.1h-1.4v-3.2H449.1z M452,278.4
		c-0.1-0.2-0.3-0.4-0.4-0.6c-0.1-0.2-0.2-0.3-0.4-0.4s-0.2-0.3-0.4-0.4c-0.1-0.1-0.3-0.2-0.5-0.3v0c0.3-0.1,0.6-0.2,0.9-0.4
		c0.3-0.2,0.5-0.4,0.7-0.6c0.2-0.2,0.3-0.5,0.4-0.8c0.1-0.3,0.2-0.6,0.2-1c0-0.4-0.1-0.8-0.2-1.2c-0.2-0.3-0.4-0.6-0.7-0.8
		c-0.3-0.2-0.6-0.4-1-0.5s-0.8-0.2-1.3-0.2h-3.2v9.8h1.6v-4h0.7c0.2,0,0.4,0,0.6,0.1s0.3,0.1,0.5,0.2c0.1,0.1,0.3,0.3,0.4,0.4
		c0.1,0.2,0.3,0.4,0.4,0.6l1.6,2.6h1.9L452,278.4z M435.8,276.9c0.1-0.5,0.3-1,0.6-1.3c0.3-0.3,0.7-0.5,1.2-0.5
		c0.5,0,0.8,0.2,1.1,0.5c0.3,0.3,0.4,0.8,0.4,1.3H435.8z M440.6,277.4c0-1.1-0.3-1.9-0.8-2.6s-1.3-0.9-2.2-0.9s-1.8,0.3-2.4,1
		c-0.6,0.7-1,1.6-1,2.7c0,1.2,0.3,2,0.9,2.7c0.6,0.6,1.4,1,2.4,1c1,0,1.9-0.2,2.5-0.6v-1.3c-0.6,0.4-1.3,0.7-2.1,0.7
		c-0.7,0-1.2-0.2-1.6-0.5c-0.4-0.4-0.6-0.8-0.6-1.5h4.8V277.4z M433.7,274.1c-0.2-0.1-0.4-0.1-0.7-0.1c-0.4,0-0.8,0.1-1.1,0.4
		c-0.3,0.3-0.6,0.7-0.7,1.2h0v-1.4h-1.6v7h1.6v-3.3c0-0.7,0.2-1.3,0.5-1.7s0.7-0.6,1.2-0.6c0.4,0,0.6,0.1,0.8,0.2V274.1z
		 M427.5,274.1H426v4c0,0.6-0.2,1-0.5,1.4c-0.3,0.3-0.7,0.5-1.2,0.5c-1,0-1.5-0.6-1.5-1.9v-4h-1.6v4.2c0,2,0.8,3,2.5,3
		c1,0,1.7-0.4,2.1-1.3h0v1.1h1.6V274.1z M420.1,274.1h-5.6v1.2h3.5l-3.9,5.2v0.6h6v-1.2h-3.8l3.8-5.1V274.1z M407.7,277.3l1.3-3.9
		c0-0.2,0.1-0.4,0.1-0.6h0c0,0.3,0.1,0.5,0.1,0.6l1.4,3.9H407.7z M410.1,271.3h-1.8l-3.7,9.8h1.8l0.8-2.5h3.9l0.9,2.5h1.8
		L410.1,271.3z"/>
	<path style="fill:#686868;" d="M560.8,296.3l-0.8,3.4h1.2l1.1-3.4H560.8z M557.3,295.1c0,0.5-0.2,0.9-0.5,1.3
		c-0.3,0.3-0.7,0.5-1.2,0.5c-0.4,0-0.6-0.1-0.9-0.3c-0.2-0.2-0.3-0.4-0.3-0.7c0-0.4,0.1-0.7,0.3-0.9c0.2-0.2,0.6-0.3,1-0.3l1.5-0.2
		V295.1z M558.9,293.4c0-1.7-0.9-2.6-2.7-2.6c-1,0-1.8,0.2-2.6,0.7v1.4c0.7-0.6,1.4-0.9,2.3-0.9c0.9,0,1.4,0.5,1.4,1.5l-2.1,0.3
		c-1.5,0.2-2.3,1-2.3,2.3c0,0.6,0.2,1.1,0.6,1.5c0.4,0.4,0.9,0.6,1.6,0.6c0.9,0,1.6-0.4,2.1-1.3h0v1.1h1.5V293.4z M551,290.9
		l-1.6,4.9c-0.1,0.3-0.2,0.6-0.2,0.9h0c0-0.3-0.1-0.6-0.2-0.9l-1.6-4.9h-1.7l2.6,7h1.7l2.7-7H551z M543.2,295.1
		c0,0.5-0.2,0.9-0.5,1.3c-0.3,0.3-0.7,0.5-1.2,0.5c-0.4,0-0.6-0.1-0.9-0.3c-0.2-0.2-0.3-0.4-0.3-0.7c0-0.4,0.1-0.7,0.3-0.9
		c0.2-0.2,0.6-0.3,1-0.3l1.5-0.2V295.1z M544.7,293.4c0-1.7-0.9-2.6-2.7-2.6c-1,0-1.8,0.2-2.6,0.7v1.4c0.7-0.6,1.4-0.9,2.3-0.9
		c0.9,0,1.4,0.5,1.4,1.5l-2.1,0.3c-1.5,0.2-2.3,1-2.3,2.3c0,0.6,0.2,1.1,0.6,1.5c0.4,0.4,0.9,0.6,1.6,0.6c0.9,0,1.6-0.4,2.1-1.3h0
		v1.1h1.5V293.4z M537.3,288.1h-1.6v6c0,1.7-0.5,2.5-1.6,2.5c-0.4,0-0.7-0.1-1-0.3v1.5c0.3,0.1,0.7,0.2,1.1,0.2c1,0,1.7-0.3,2.3-1
		c0.6-0.6,0.9-1.5,0.9-2.7V288.1z M529,290.9c-0.2-0.1-0.4-0.1-0.7-0.1c-0.4,0-0.8,0.1-1.1,0.4c-0.3,0.3-0.6,0.7-0.7,1.2h0v-1.4
		h-1.6v7h1.6v-3.3c0-0.7,0.2-1.3,0.5-1.7s0.7-0.6,1.2-0.6c0.4,0,0.6,0.1,0.8,0.2V290.9z M521.2,292.6c0.3,0.4,0.5,1,0.5,1.8
		c0,0.8-0.2,1.4-0.5,1.8c-0.3,0.4-0.8,0.6-1.4,0.6c-0.6,0-1.1-0.2-1.5-0.6c-0.4-0.4-0.5-1-0.5-1.7c0-0.8,0.2-1.4,0.5-1.8
		s0.8-0.6,1.5-0.6C520.4,292,520.8,292.2,521.2,292.6z M522.3,297.1c0.7-0.7,1-1.6,1-2.7c0-1.1-0.3-2-0.9-2.7s-1.5-1-2.6-1
		c-1.1,0-2,0.3-2.7,1c-0.7,0.7-1,1.6-1,2.8c0,1.1,0.3,1.9,1,2.6c0.6,0.7,1.5,1,2.6,1C520.8,298.1,521.6,297.7,522.3,297.1z
		 M515.7,287.5c-0.2-0.1-0.5-0.1-0.9-0.1c-0.7,0-1.3,0.2-1.8,0.6c-0.5,0.4-0.7,1-0.7,1.7v1.1H511v1.2h1.2v5.8h1.6v-5.8h1.6v-1.2
		h-1.6v-1c0-0.9,0.4-1.3,1.2-1.3c0.3,0,0.5,0.1,0.7,0.2V287.5z M503.4,298.1c0.4,0,0.8,0,1.1-0.1c0.4-0.1,0.7-0.2,0.9-0.4
		s0.5-0.4,0.7-0.7s0.2-0.6,0.2-0.9c0-0.3,0-0.5-0.1-0.8c-0.1-0.2-0.2-0.4-0.4-0.6c-0.2-0.2-0.4-0.3-0.6-0.4
		c-0.2-0.1-0.5-0.3-0.8-0.4c-0.2-0.1-0.4-0.1-0.6-0.2c-0.2-0.1-0.3-0.1-0.5-0.2c-0.1-0.1-0.2-0.2-0.3-0.3s-0.1-0.2-0.1-0.4
		c0-0.1,0-0.2,0.1-0.3c0.1-0.1,0.2-0.2,0.3-0.3s0.3-0.1,0.4-0.2c0.2,0,0.3-0.1,0.5-0.1c0.6,0,1.2,0.2,1.7,0.5V291
		c-0.5-0.2-1.1-0.3-1.7-0.3c-0.4,0-0.7,0-1.1,0.1c-0.3,0.1-0.6,0.2-0.9,0.4c-0.3,0.2-0.5,0.4-0.6,0.7c-0.2,0.3-0.2,0.6-0.2,0.9
		c0,0.3,0,0.5,0.1,0.7s0.2,0.4,0.3,0.6c0.2,0.2,0.3,0.3,0.6,0.4c0.2,0.1,0.5,0.2,0.8,0.4c0.2,0.1,0.4,0.2,0.6,0.2
		c0.2,0.1,0.4,0.1,0.5,0.2c0.1,0.1,0.3,0.2,0.3,0.3c0.1,0.1,0.1,0.2,0.1,0.4c0,0.6-0.5,0.8-1.4,0.8c-0.7,0-1.4-0.2-2-0.7v1.5
		C502,298,502.6,298.1,503.4,298.1z M496.7,292.8l3.8-4.7h-1.9l-3.3,4.3c-0.1,0.1-0.2,0.2-0.2,0.3h0v-4.6h-1.6v9.8h1.6v-4.8h0
		c0,0.1,0.1,0.2,0.2,0.3l3.4,4.5h2.1L496.7,292.8z M486.4,289.5c2.4,0,3.6,1.1,3.6,3.4c0,1.1-0.3,2-1,2.7c-0.6,0.6-1.5,0.9-2.7,0.9
		H485v-7H486.4z M486.1,297.9c1.7,0,3-0.5,4-1.4c1-0.9,1.5-2.1,1.5-3.6c0-3.2-1.8-4.8-5.4-4.8h-2.8v9.8H486.1z M475.9,297.8
		c0.2,0.1,0.5,0.1,0.7,0.2c0.3,0,0.5,0.1,0.7,0.1c0.2,0,0.4,0,0.6,0c0.5,0,1,0,1.4-0.1s0.8-0.3,1.2-0.5c0.3-0.2,0.6-0.5,0.8-0.8
		s0.3-0.8,0.3-1.3c0-0.4-0.1-0.7-0.2-1c-0.1-0.3-0.3-0.6-0.5-0.8c-0.2-0.2-0.5-0.5-0.8-0.6c-0.3-0.2-0.6-0.4-1-0.6
		c-0.3-0.1-0.6-0.3-0.9-0.4c-0.3-0.1-0.5-0.3-0.6-0.4c-0.2-0.1-0.3-0.3-0.4-0.4s-0.1-0.3-0.1-0.6c0-0.2,0.1-0.4,0.2-0.6
		s0.3-0.3,0.5-0.4c0.2-0.1,0.4-0.2,0.6-0.2c0.2,0,0.5-0.1,0.7-0.1c0.9,0,1.6,0.2,2.1,0.6v-1.6c-0.5-0.2-1.2-0.3-2.2-0.3
		c-0.5,0-0.9,0.1-1.3,0.2c-0.4,0.1-0.8,0.3-1.2,0.5c-0.3,0.2-0.6,0.5-0.8,0.8c-0.2,0.3-0.3,0.7-0.3,1.2c0,0.4,0.1,0.7,0.2,1
		c0.1,0.3,0.3,0.5,0.5,0.7c0.2,0.2,0.5,0.4,0.7,0.6s0.6,0.4,0.9,0.5c0.3,0.1,0.6,0.3,0.9,0.4c0.3,0.1,0.5,0.3,0.7,0.4
		s0.4,0.3,0.5,0.5c0.1,0.2,0.2,0.4,0.2,0.6c0,0.4-0.2,0.8-0.5,1c-0.3,0.2-0.8,0.3-1.5,0.3c-0.2,0-0.4,0-0.6-0.1s-0.5-0.1-0.7-0.2
		c-0.2-0.1-0.5-0.2-0.7-0.3c-0.2-0.1-0.4-0.2-0.5-0.4v1.7C475.5,297.6,475.7,297.7,475.9,297.8z M468.4,296.3l-0.8,3.4h1.2l1.1-3.4
		H468.4z M463.9,298.1c0.4,0,0.8,0,1.1-0.1c0.4-0.1,0.7-0.2,0.9-0.4s0.5-0.4,0.7-0.7s0.2-0.6,0.2-0.9c0-0.3,0-0.5-0.1-0.8
		c-0.1-0.2-0.2-0.4-0.4-0.6c-0.2-0.2-0.4-0.3-0.6-0.4c-0.2-0.1-0.5-0.3-0.8-0.4c-0.2-0.1-0.4-0.1-0.6-0.2c-0.2-0.1-0.3-0.1-0.5-0.2
		c-0.1-0.1-0.2-0.2-0.3-0.3s-0.1-0.2-0.1-0.4c0-0.1,0-0.2,0.1-0.3c0.1-0.1,0.2-0.2,0.3-0.3s0.3-0.1,0.4-0.2c0.2,0,0.3-0.1,0.5-0.1
		c0.6,0,1.2,0.2,1.7,0.5V291c-0.5-0.2-1.1-0.3-1.7-0.3c-0.4,0-0.7,0-1.1,0.1c-0.3,0.1-0.6,0.2-0.9,0.4c-0.3,0.2-0.5,0.4-0.6,0.7
		c-0.2,0.3-0.2,0.6-0.2,0.9c0,0.3,0,0.5,0.1,0.7s0.2,0.4,0.3,0.6c0.2,0.2,0.3,0.3,0.6,0.4c0.2,0.1,0.5,0.2,0.8,0.4
		c0.2,0.1,0.4,0.2,0.6,0.2c0.2,0.1,0.4,0.1,0.5,0.2c0.1,0.1,0.3,0.2,0.3,0.3c0.1,0.1,0.1,0.2,0.1,0.4c0,0.6-0.5,0.8-1.4,0.8
		c-0.7,0-1.4-0.2-2-0.7v1.5C462.5,298,463.1,298.1,463.9,298.1z M460.1,288.1h-1.7v9.8h1.7V288.1z M453.1,289.5c1.3,0,2,0.6,2,1.7
		c0,0.6-0.2,1-0.5,1.4s-0.9,0.5-1.6,0.5h-1.1v-3.6H453.1z M453.2,294.4c1.1,0,2-0.3,2.6-0.9s1-1.4,1-2.3s-0.3-1.7-0.9-2.2
		s-1.5-0.8-2.6-0.8h-3v9.8h1.6v-3.6H453.2z M442.8,294.1l1.3-3.9c0-0.2,0.1-0.4,0.1-0.6h0c0,0.3,0.1,0.5,0.1,0.6l1.4,3.9H442.8z
		 M445.3,288.1h-1.8l-3.7,9.8h1.8l0.8-2.5h3.9l0.9,2.5h1.8L445.3,288.1z M435.6,288.1h-7.3v1.4h2.8v8.4h1.6v-8.4h2.8V288.1z
		 M421.8,297.8c0.2,0.1,0.5,0.1,0.7,0.2c0.3,0,0.5,0.1,0.7,0.1c0.2,0,0.4,0,0.6,0c0.5,0,1,0,1.4-0.1s0.8-0.3,1.2-0.5
		c0.3-0.2,0.6-0.5,0.8-0.8s0.3-0.8,0.3-1.3c0-0.4-0.1-0.7-0.2-1c-0.1-0.3-0.3-0.6-0.5-0.8c-0.2-0.2-0.5-0.5-0.8-0.6
		c-0.3-0.2-0.6-0.4-1-0.6c-0.3-0.1-0.6-0.3-0.9-0.4c-0.3-0.1-0.5-0.3-0.6-0.4c-0.2-0.1-0.3-0.3-0.4-0.4s-0.1-0.3-0.1-0.6
		c0-0.2,0.1-0.4,0.2-0.6s0.3-0.3,0.5-0.4c0.2-0.1,0.4-0.2,0.6-0.2c0.2,0,0.5-0.1,0.7-0.1c0.9,0,1.6,0.2,2.1,0.6v-1.6
		c-0.5-0.2-1.2-0.3-2.2-0.3c-0.5,0-0.9,0.1-1.3,0.2c-0.4,0.1-0.8,0.3-1.2,0.5c-0.3,0.2-0.6,0.5-0.8,0.8c-0.2,0.3-0.3,0.7-0.3,1.2
		c0,0.4,0.1,0.7,0.2,1c0.1,0.3,0.3,0.5,0.5,0.7c0.2,0.2,0.5,0.4,0.7,0.6s0.6,0.4,0.9,0.5c0.3,0.1,0.6,0.3,0.9,0.4
		c0.3,0.1,0.5,0.3,0.7,0.4s0.4,0.3,0.5,0.5c0.1,0.2,0.2,0.4,0.2,0.6c0,0.4-0.2,0.8-0.5,1c-0.3,0.2-0.8,0.3-1.5,0.3
		c-0.2,0-0.4,0-0.6-0.1s-0.5-0.1-0.7-0.2c-0.2-0.1-0.5-0.2-0.7-0.3c-0.2-0.1-0.4-0.2-0.5-0.4v1.7
		C421.4,297.6,421.5,297.7,421.8,297.8z M419.9,296.5h-3.9v-2.9h3.4v-1.4h-3.4v-2.8h3.7v-1.4h-5.3v9.8h5.5V296.5z M408.7,289.4
		c0.6,0,1,0.1,1.3,0.4s0.4,0.6,0.4,1.1c0,0.3,0,0.5-0.1,0.7s-0.2,0.4-0.4,0.5s-0.3,0.3-0.6,0.3c-0.2,0.1-0.4,0.1-0.7,0.1h-1.4v-3.2
		H408.7z M411.5,295.2c-0.1-0.2-0.3-0.4-0.4-0.6c-0.1-0.2-0.2-0.3-0.4-0.4s-0.2-0.3-0.4-0.4c-0.1-0.1-0.3-0.2-0.5-0.3v0
		c0.3-0.1,0.6-0.2,0.9-0.4c0.3-0.2,0.5-0.4,0.7-0.6c0.2-0.2,0.3-0.5,0.4-0.8c0.1-0.3,0.2-0.6,0.2-1c0-0.4-0.1-0.8-0.2-1.2
		c-0.2-0.3-0.4-0.6-0.7-0.8c-0.3-0.2-0.6-0.4-1-0.5s-0.8-0.2-1.3-0.2h-3.2v9.8h1.6v-4h0.7c0.2,0,0.4,0,0.6,0.1s0.3,0.1,0.5,0.2
		c0.1,0.1,0.3,0.3,0.4,0.4c0.1,0.2,0.3,0.4,0.4,0.6l1.6,2.6h1.9L411.5,295.2z"/>
	<path style="fill:#686868;" d="M548.7,314.6c0.2-0.2,0.3-0.4,0.3-0.6c0-0.3-0.1-0.5-0.3-0.7c-0.2-0.2-0.4-0.3-0.7-0.3
		c-0.3,0-0.5,0.1-0.7,0.3s-0.3,0.4-0.3,0.7c0,0.3,0.1,0.5,0.3,0.6c0.2,0.2,0.4,0.3,0.7,0.3C548.2,314.9,548.5,314.8,548.7,314.6z
		 M545.7,313c-0.5,0.4-1,0.6-1.6,0.6c-0.7,0-1.2-0.2-1.6-0.6c-0.4-0.4-0.6-1-0.6-1.7c0-0.7,0.2-1.3,0.6-1.8c0.4-0.5,1-0.7,1.6-0.7
		c0.6,0,1.1,0.2,1.6,0.5v-1.5c-0.5-0.2-1.1-0.3-1.7-0.3c-1.1,0-2.1,0.3-2.8,1c-0.7,0.7-1,1.6-1,2.8c0,1,0.3,1.9,1,2.5
		c0.6,0.7,1.5,1,2.5,1c0.8,0,1.4-0.2,2-0.5V313z M539.5,313.4c-0.2,0.2-0.4,0.2-0.7,0.2c-0.4,0-0.6-0.1-0.8-0.3s-0.2-0.5-0.2-0.9
		V309h1.7v-1.2h-1.7v-2.1l-1.6,0.5v1.6H535v1.2h1.2v4c0,1.3,0.7,2,2,2c0.5,0,0.9-0.1,1.2-0.2V313.4z M529.5,310.5
		c0.1-0.5,0.3-1,0.6-1.3c0.3-0.3,0.7-0.5,1.2-0.5c0.5,0,0.8,0.2,1.1,0.5c0.3,0.3,0.4,0.8,0.4,1.3H529.5z M534.3,311
		c0-1.1-0.3-1.9-0.8-2.6s-1.3-0.9-2.2-0.9s-1.8,0.3-2.4,1c-0.6,0.7-1,1.6-1,2.7c0,1.2,0.3,2,0.9,2.7c0.6,0.6,1.4,1,2.4,1
		c1,0,1.9-0.2,2.5-0.6V313c-0.6,0.4-1.3,0.7-2.1,0.7c-0.7,0-1.2-0.2-1.6-0.5c-0.4-0.4-0.6-0.8-0.6-1.5h4.8V311z M521.1,313.1
		l-0.8,3.4h1.2l1.1-3.4H521.1z M519.2,310.4c0-0.9-0.2-1.6-0.6-2.1c-0.4-0.5-1-0.7-1.7-0.7c-1,0-1.7,0.4-2.3,1.3h0v-1.2H513v7h1.6
		v-4c0-0.6,0.2-1,0.5-1.4c0.3-0.4,0.7-0.5,1.2-0.5c0.9,0,1.4,0.7,1.4,2v3.9h1.6V310.4z M509.2,309.4c0.3,0.4,0.5,1,0.5,1.8
		c0,0.8-0.2,1.4-0.5,1.8c-0.3,0.4-0.8,0.6-1.4,0.6c-0.6,0-1.1-0.2-1.5-0.6c-0.4-0.4-0.5-1-0.5-1.7c0-0.8,0.2-1.4,0.5-1.8
		s0.8-0.6,1.5-0.6C508.4,308.8,508.9,309,509.2,309.4z M510.4,313.9c0.7-0.7,1-1.6,1-2.7c0-1.1-0.3-2-0.9-2.7s-1.5-1-2.6-1
		c-1.1,0-2,0.3-2.7,1c-0.7,0.7-1,1.6-1,2.8c0,1.1,0.3,1.9,1,2.6c0.6,0.7,1.5,1,2.6,1C508.8,314.9,509.7,314.5,510.4,313.9z
		 M502.7,310.4c0-1.9-0.8-2.9-2.3-2.9c-1,0-1.7,0.4-2.3,1.3h0v-4.5h-1.6v10.4h1.6v-3.8c0-0.6,0.2-1.1,0.5-1.5s0.7-0.6,1.2-0.6
		c0.9,0,1.4,0.7,1.4,2.1v3.8h1.6V310.4z M495.1,313.4c-0.2,0.2-0.4,0.2-0.7,0.2c-0.4,0-0.6-0.1-0.8-0.3s-0.2-0.5-0.2-0.9V309h1.7
		v-1.2h-1.7v-2.1l-1.6,0.5v1.6h-1.2v1.2h1.2v4c0,1.3,0.7,2,2,2c0.5,0,0.9-0.1,1.2-0.2V313.4z M488.7,307.7l-1.8,5.1
		c-0.1,0.2-0.1,0.4-0.1,0.5h0c-0.1-0.3-0.1-0.4-0.1-0.5l-1.7-5.1h-1.8l2.8,7l-0.5,1.1c-0.3,0.6-0.7,0.9-1.3,0.9
		c-0.2,0-0.4,0-0.7-0.1v1.3c0.2,0.1,0.5,0.1,0.8,0.1c1.2,0,2.1-0.7,2.8-2.2l3.2-8.1H488.7z M479,306.3c1.3,0,2,0.6,2,1.7
		c0,0.6-0.2,1-0.5,1.4s-0.9,0.5-1.6,0.5h-1.1v-3.6H479z M479.2,311.2c1.1,0,2-0.3,2.6-0.9s1-1.4,1-2.3s-0.3-1.7-0.9-2.2
		s-1.5-0.8-2.6-0.8h-3v9.8h1.6v-3.6H479.2z M468.8,313.1l-0.8,3.4h1.2l1.1-3.4H468.8z M466.9,307.7l-1.8,5.1
		c-0.1,0.2-0.1,0.4-0.1,0.5h0c-0.1-0.3-0.1-0.4-0.1-0.5l-1.7-5.1h-1.8l2.8,7l-0.5,1.1c-0.3,0.6-0.7,0.9-1.3,0.9
		c-0.2,0-0.4,0-0.7-0.1v1.3c0.2,0.1,0.5,0.1,0.8,0.1c1.2,0,2.1-0.7,2.8-2.2l3.2-8.1H466.9z M456.1,309.4c0.3-0.4,0.8-0.6,1.4-0.6
		c0.5,0,1,0.2,1.3,0.6c0.3,0.4,0.5,0.9,0.5,1.6c0,0.8-0.2,1.5-0.5,1.9c-0.3,0.5-0.8,0.7-1.4,0.7c-0.5,0-0.9-0.2-1.2-0.5
		c-0.3-0.4-0.5-0.8-0.5-1.3v-0.9C455.6,310.3,455.8,309.8,456.1,309.4z M457.7,314.9c1,0,1.7-0.4,2.3-1.1c0.6-0.7,0.8-1.6,0.8-2.8
		c0-1.1-0.3-1.9-0.7-2.5c-0.5-0.6-1.2-0.9-2.1-0.9c-1,0-1.8,0.5-2.4,1.4h0v-4.6H454v10.4h1.6v-1h0
		C456.1,314.5,456.8,314.9,457.7,314.9z M451.9,307.7h-1.6v4c0,0.6-0.2,1-0.5,1.4c-0.3,0.3-0.7,0.5-1.2,0.5c-1,0-1.5-0.6-1.5-1.9v-4
		h-1.6v4.2c0,2,0.8,3,2.5,3c1,0,1.7-0.4,2.1-1.3h0v1.1h1.6V307.7z M440.3,306.2c0.6,0,1,0.1,1.3,0.4s0.4,0.6,0.4,1.1
		c0,0.3,0,0.5-0.1,0.7s-0.2,0.4-0.4,0.5s-0.3,0.3-0.6,0.3c-0.2,0.1-0.4,0.1-0.7,0.1h-1.4v-3.2H440.3z M443.1,312
		c-0.1-0.2-0.3-0.4-0.4-0.6c-0.1-0.2-0.2-0.3-0.4-0.4s-0.2-0.3-0.4-0.4c-0.1-0.1-0.3-0.2-0.5-0.3v0c0.3-0.1,0.6-0.2,0.9-0.4
		c0.3-0.2,0.5-0.4,0.7-0.6c0.2-0.2,0.3-0.5,0.4-0.8c0.1-0.3,0.2-0.6,0.2-1c0-0.4-0.1-0.8-0.2-1.2c-0.2-0.3-0.4-0.6-0.7-0.8
		c-0.3-0.2-0.6-0.4-1-0.5s-0.8-0.2-1.3-0.2h-3.2v9.8h1.6v-4h0.7c0.2,0,0.4,0,0.6,0.1s0.3,0.1,0.5,0.2c0.1,0.1,0.3,0.3,0.4,0.4
		c0.1,0.2,0.3,0.4,0.4,0.6l1.6,2.6h1.9L443.1,312z M429.9,313.1l-0.8,3.4h1.2l1.1-3.4H429.9z M427,306.3c1.3,0,2,0.6,2,1.7
		c0,0.6-0.2,1-0.5,1.4s-0.9,0.5-1.6,0.5h-1.1v-3.6H427z M427.1,311.2c1.1,0,2-0.3,2.6-0.9s1-1.4,1-2.3s-0.3-1.7-0.9-2.2
		s-1.5-0.8-2.6-0.8h-3v9.8h1.6v-3.6H427.1z M421.8,304.9h-1.6v4.1h-4.6v-4.1h-1.6v9.8h1.6v-4.3h4.6v4.3h1.6V304.9z M408.5,306.3
		c1.3,0,2,0.6,2,1.7c0,0.6-0.2,1-0.5,1.4s-0.9,0.5-1.6,0.5h-1.1v-3.6H408.5z M408.6,311.2c1.1,0,2-0.3,2.6-0.9s1-1.4,1-2.3
		s-0.3-1.7-0.9-2.2s-1.5-0.8-2.6-0.8h-3v9.8h1.6v-3.6H408.6z"/>
</g>
<g id="identity-tier">
	<path style="fill:#DEDEDE;" d="M888,222.3c0-14.6-3.8-28.3-10.4-40.2h0.1L805.2,58.9l-0.1,0.2c0-0.1,0-0.2,0-0.2s0,0.1-0.1,0.3
		l-72.6,122.9h0.1c-6.6,11.9-10.4,25.6-10.4,40.2c0,45.8,37.1,83,83,83C850.9,305.3,888,268.2,888,222.3"/>
	<path style="fill:#00BCF2;" d="M732.4,280.8l-7.4,2.4c-0.3,0.1-0.6,0.2-0.8,0.3l0,0c0.2-0.2,0.4-0.4,0.6-0.6l4.5-6.3l-1-1.4
		l-5.8,8.5l1.1,1.5l9.9-2.9L732.4,280.8z"/>
	
		<rect x="726.1" y="285.9" transform="matrix(0.765 -0.644 0.644 0.765 -12.8889 538.097)" style="fill:#00BCF2;" width="9.8" height="1.7"/>
	<path style="fill:#00BCF2;" d="M733.7,291.4l3.7-1.7c0.1-0.1,0.3-0.2,0.5-0.3l0,0c-0.2,0.2-0.3,0.4-0.4,0.5l-1.9,3.7L733.7,291.4z
		 M739.7,289l-1.3-1.3l-9.5,4.2l1.2,1.3l2.4-1.1l2.7,2.8l-1.2,2.4l1.2,1.3L739.7,289z"/>
	<path style="fill:#00BCF2;" d="M743.6,300.6l3.5-2.2c0.1-0.1,0.3-0.2,0.5-0.4l0,0c-0.1,0.2-0.2,0.4-0.3,0.6l-1.3,3.9L743.6,300.6z
		 M749.2,297.4l-1.4-1.1l-8.9,5.4l1.4,1.1l2.2-1.4l3,2.4l-0.8,2.5l1.4,1.1L749.2,297.4z"/>
	<polygon style="fill:#00BCF2;" points="758.7,303.9 752.7,300 751.9,301.2 756.1,303.9 747.5,307.4 747.1,308 753.4,312.1 
		754.1,310.9 749.7,308.1 758.3,304.5 	"/>
	<path style="fill:#00BCF2;" d="M766.4,307.9l-1.4-0.7l-2.6,5.1c-0.8,1.6-1.9,2.1-3.2,1.5c-1.3-0.7-1.5-1.9-0.7-3.6l2.6-5l-1.4-0.7
		l-2.7,5.3c-1.2,2.3-0.7,4.1,1.5,5.2c2.3,1.2,4.1,0.6,5.3-1.9L766.4,307.9z"/>
	<path style="fill:#00BCF2;" d="M770.5,311c0.5,0.2,0.9,0.5,1,0.8c0.2,0.4,0.2,0.7,0,1.2c-0.1,0.2-0.2,0.4-0.4,0.6s-0.3,0.3-0.5,0.4
		c-0.2,0.1-0.4,0.1-0.6,0.1c-0.2,0-0.5-0.1-0.7-0.1l-1.3-0.5l1.2-2.9L770.5,311z M771,317.4c-0.1-0.3-0.1-0.5-0.1-0.7
		s-0.1-0.4-0.2-0.5c-0.1-0.2-0.1-0.3-0.2-0.5s-0.2-0.3-0.3-0.5l0,0c0.3,0,0.7,0,1,0c0.3,0,0.6-0.1,0.8-0.3c0.3-0.1,0.5-0.3,0.7-0.6
		s0.4-0.5,0.5-0.8c0.2-0.4,0.2-0.8,0.2-1.2c0-0.4-0.1-0.7-0.3-1c-0.2-0.3-0.4-0.6-0.8-0.8c-0.3-0.2-0.7-0.4-1.1-0.6l-3-1.2l-3.6,9.1
		l1.5,0.6l1.5-3.7l0.6,0.2c0.2,0.1,0.4,0.2,0.5,0.3s0.2,0.2,0.3,0.4c0.1,0.2,0.2,0.3,0.2,0.5c0.1,0.2,0.1,0.4,0.2,0.7l0.5,3l1.8,0.7
		L771,317.4z"/>
	<polygon style="fill:#00BCF2;" points="778.8,321.3 775.1,320.2 776,317.4 779.2,318.4 779.6,317.1 776.4,316.1 777.2,313.5 
		780.6,314.5 781,313.2 776,311.7 773.2,321 778.4,322.6 	"/>
	<path style="fill:#00BCF2;" d="M787.1,320.7l2-3.6c0.1-0.1,0.2-0.3,0.2-0.6l0,0c0,0.3,0,0.5,0,0.6l0.7,4.1L787.1,320.7z
		 M790.5,315.2l-1.8-0.3l-5.2,9l1.7,0.3l1.2-2.3l3.8,0.6l0.5,2.6l1.8,0.3L790.5,315.2z"/>
	<path style="fill:#00BCF2;" d="M801.1,324.2c-0.7,0.4-1.5,0.5-2.4,0.5c-1-0.1-1.8-0.5-2.3-1.1c-0.6-0.7-0.8-1.6-0.7-2.6
		c0.1-1.1,0.5-2,1.2-2.6c0.7-0.6,1.6-0.9,2.6-0.8c0.8,0.1,1.5,0.3,2.1,0.7l0.1-1.6c-0.6-0.3-1.4-0.5-2.3-0.6
		c-1.5-0.1-2.7,0.3-3.7,1.2s-1.6,2.1-1.7,3.7c-0.1,1.4,0.2,2.6,1,3.6c0.8,1,1.9,1.5,3.3,1.6c1.1,0.1,2,0,2.8-0.4L801.1,324.2z"/>
	<polygon style="fill:#00BCF2;" points="809.5,316.3 802.2,316.4 802.3,317.8 805.1,317.7 805.2,326.1 806.8,326.1 806.7,317.7 
		809.5,317.6 	"/>
	
		<rect x="811" y="316.1" transform="matrix(0.9976 -6.916417e-002 6.916417e-002 0.9976 -20.2558 56.9195)" style="fill:#00BCF2;" width="1.7" height="9.8"/>
	<path style="fill:#00BCF2;" d="M820.4,315.1l-1.4,7.7c-0.1,0.3-0.1,0.6-0.1,0.9l0,0c-0.1-0.3-0.2-0.6-0.3-0.8l-3.4-7l-1.8,0.2
		l4.7,9.2l1.8-0.2l2.1-10.1L820.4,315.1z"/>
	<polygon style="fill:#00BCF2;" points="830.2,321.6 826.4,322.4 825.8,319.6 829.1,318.9 828.8,317.6 825.5,318.3 824.9,315.6 
		828.5,314.8 828.2,313.5 823,314.6 825.2,324.1 830.5,322.9 	"/>
	<path style="fill:#00BCF2;" d="M836.5,312.3c2.2-0.8,3.7-0.2,4.5,2c0.4,1.1,0.4,2,0,2.8c-0.4,0.8-1.1,1.4-2.2,1.8l-1.2,0.4
		l-2.4-6.6L836.5,312.3z M839.2,320.2c1.6-0.6,2.7-1.5,3.3-2.7c0.6-1.2,0.7-2.5,0.1-3.9c-1.1-3-3.3-3.8-6.7-2.6l-2.6,1l3.4,9.2
		L839.2,320.2z"/>
	
		<rect x="844.2" y="307.7" transform="matrix(0.9101 -0.4143 0.4143 0.9101 -53.5571 378.2361)" style="fill:#00BCF2;" width="1.7" height="9.8"/>
	<path style="fill:#00BCF2;" d="M849,306.6c0.5-0.3,0.9-0.3,1.3-0.3s0.7,0.3,0.9,0.8c0.1,0.2,0.2,0.5,0.2,0.7s0,0.4-0.1,0.6
		c-0.1,0.2-0.2,0.4-0.3,0.6c-0.1,0.2-0.3,0.3-0.6,0.4l-1.2,0.6l-1.5-2.8L849,306.6z M854.2,310.3c-0.2-0.1-0.4-0.2-0.6-0.3
		c-0.2-0.1-0.3-0.2-0.5-0.2c-0.2-0.1-0.3-0.1-0.5-0.1c-0.2,0-0.4-0.1-0.6-0.1l0,0c0.3-0.2,0.5-0.5,0.6-0.7s0.3-0.5,0.3-0.8
		c0.1-0.3,0.1-0.6,0-0.9c0-0.3-0.2-0.6-0.3-0.9c-0.2-0.4-0.5-0.7-0.8-0.9c-0.3-0.2-0.6-0.3-1-0.4s-0.7,0-1.1,0
		c-0.4,0.1-0.8,0.2-1.2,0.5l-2.8,1.5l4.6,8.6l1.4-0.8l-1.9-3.5l0.6-0.3c0.2-0.1,0.4-0.2,0.5-0.2s0.3,0,0.5,0s0.4,0.1,0.6,0.2
		c0.2,0.1,0.4,0.2,0.7,0.3l2.6,1.6l1.7-0.9L854.2,310.3z"/>
	<polygon style="fill:#00BCF2;" points="862.3,306.9 859,309 857.5,306.6 860.3,304.7 859.5,303.6 856.7,305.4 855.2,303.1 
		858.2,301.1 857.5,300 853.1,302.8 858.4,311 863,308 	"/>
	<path style="fill:#00BCF2;" d="M869,301c-0.3,0.8-0.8,1.4-1.5,2c-0.8,0.6-1.6,0.9-2.5,0.7c-0.9-0.1-1.6-0.6-2.3-1.5
		c-0.7-0.9-1-1.8-0.9-2.7c0.1-0.9,0.6-1.7,1.4-2.4c0.6-0.5,1.3-0.8,2.1-0.9l-1-1.3c-0.7,0.2-1.4,0.5-2.1,1.1c-1.2,0.9-1.8,2-2,3.4
		c-0.2,1.3,0.2,2.6,1.2,3.9c0.9,1.1,1.9,1.8,3.2,2c1.2,0.2,2.4-0.2,3.5-1c0.9-0.7,1.5-1.4,1.8-2.1L869,301z"/>
	<polygon style="fill:#00BCF2;" points="870,289.6 864.7,294.5 865.6,295.5 867.7,293.6 873.3,299.7 874.5,298.6 868.9,292.5 
		870.9,290.6 	"/>
	<path style="fill:#00BCF2;" d="M876.2,286.1c0.8,0,1.7,0.5,2.5,1.2c0.8,0.8,1.3,1.6,1.4,2.4c0.1,0.8-0.2,1.6-0.8,2.3
		c-0.6,0.7-1.3,1-2.2,0.9c-0.9,0-1.7-0.4-2.5-1.2c-0.8-0.7-1.3-1.5-1.4-2.4c-0.1-0.9,0.1-1.6,0.7-2.3
		C874.7,286.3,875.4,286,876.2,286.1z M881.7,289.4c-0.1-1.3-0.8-2.4-1.9-3.5c-1.1-1-2.2-1.5-3.5-1.5c-1.2,0-2.3,0.5-3.2,1.5
		c-1,1.1-1.4,2.3-1.3,3.5c0.1,1.3,0.7,2.4,1.9,3.5c1.1,1,2.2,1.5,3.5,1.5c1.2,0,2.3-0.5,3.3-1.6
		C881.4,291.8,881.8,290.7,881.7,289.4z"/>
	<path style="fill:#00BCF2;" d="M879.9,280c0.3-0.4,0.7-0.7,1.1-0.8s0.8,0,1.1,0.3c0.2,0.2,0.4,0.3,0.5,0.5s0.2,0.4,0.2,0.6
		s0,0.4-0.1,0.6c-0.1,0.2-0.2,0.4-0.3,0.6l-0.8,1.1l-2.5-1.9L879.9,280z M886.2,281.1c-0.3,0-0.5,0-0.7,0c-0.2,0-0.4,0-0.6,0
		c-0.2,0-0.3,0-0.5,0.1s-0.4,0.1-0.5,0.2l0,0c0.1-0.3,0.2-0.6,0.2-0.9c0-0.3,0-0.6-0.1-0.9c-0.1-0.3-0.2-0.6-0.4-0.8
		c-0.2-0.3-0.4-0.5-0.7-0.7c-0.4-0.3-0.7-0.4-1.1-0.5s-0.7,0-1.1,0c-0.3,0.1-0.7,0.3-1,0.5c-0.3,0.2-0.6,0.6-0.9,0.9l-1.9,2.6
		l7.8,5.8l1-1.3l-3.2-2.4l0.4-0.5c0.1-0.2,0.3-0.3,0.4-0.4s0.3-0.2,0.5-0.2c0.2,0,0.4-0.1,0.6-0.1c0.2,0,0.5,0,0.7,0l3,0.3l1.1-1.5
		L886.2,281.1z"/>
	<path style="fill:#00BCF2;" d="M884.5,270.6l2.5,3.9c0.1,0.2,0.3,0.4,0.4,0.5l0,0c-0.3-0.1-0.5-0.1-0.6-0.1l-4.6-0.6l-1,1.6
		l6.9,0.6l3,1.8l0.8-1.4l-3-1.9l-3.6-6L884.5,270.6z"/>
	<path d="M861.9,190.6h-1.6v6.3c0,0.6,0,1.1,0.1,1.3h0c-0.1-0.1-0.2-0.3-0.4-0.6l-4.5-7h-1.9v9.8h1.6v-6.4c0-0.7,0-1.1-0.1-1.3h0
		c0.1,0.2,0.2,0.4,0.3,0.6l4.7,7.2h1.8V190.6z M849.4,192.8c0.5,0.6,0.8,1.5,0.8,2.7c0,1.1-0.3,2-0.8,2.6c-0.5,0.6-1.3,0.9-2.2,0.9
		c-0.9,0-1.6-0.3-2.1-1c-0.5-0.7-0.8-1.5-0.8-2.6c0-1.1,0.3-2,0.8-2.6c0.6-0.7,1.3-1,2.2-1C848.2,191.8,848.9,192.2,849.4,192.8z
		 M850.6,199.1c0.9-0.9,1.3-2.2,1.3-3.8c0-1.5-0.4-2.7-1.3-3.6c-0.8-0.9-1.9-1.4-3.3-1.4c-1.5,0-2.6,0.5-3.5,1.4
		c-0.9,0.9-1.3,2.2-1.3,3.8c0,1.5,0.4,2.6,1.3,3.6c0.8,0.9,2,1.4,3.4,1.4C848.6,200.5,849.7,200,850.6,199.1z M840.7,190.6h-1.7v9.8
		h1.7V190.6z M837.7,190.6h-7.2v1.4h2.8v8.4h1.6V192h2.8V190.6z M825,196.5l1.3-3.9c0-0.1,0.1-0.4,0.1-0.6h0c0,0.3,0.1,0.5,0.1,0.6
		l1.4,3.9H825z M827.4,190.6h-1.8l-3.7,9.8h1.8l0.8-2.5h3.8l0.9,2.5h1.8L827.4,190.6z M821.2,198.4c-0.7,0.4-1.5,0.7-2.4,0.7
		c-1,0-1.8-0.3-2.4-1c-0.6-0.6-0.9-1.5-0.9-2.6c0-1.1,0.3-2,1-2.7s1.5-1,2.6-1c0.8,0,1.5,0.2,2.2,0.6v-1.6c-0.6-0.3-1.4-0.4-2.3-0.4
		c-1.5,0-2.7,0.5-3.6,1.4s-1.4,2.2-1.4,3.8c0,1.5,0.4,2.6,1.3,3.5c0.9,0.9,2,1.3,3.4,1.3c1.1,0,2-0.2,2.7-0.6V198.4z M812,190.6
		h-1.7v9.8h1.7V190.6z M808.9,190.6h-7.2v1.4h2.8v8.4h1.6V192h2.8V190.6z M800.2,190.6h-1.6v6.3c0,0.6,0,1.1,0.1,1.3h0
		c-0.1-0.1-0.2-0.3-0.4-0.6l-4.5-7H792v9.8h1.6v-6.4c0-0.7,0-1.1-0.1-1.3h0c0.1,0.2,0.2,0.4,0.3,0.6l4.7,7.2h1.8V190.6z M790.2,199
		h-3.9v-2.9h3.4v-1.4h-3.4V192h3.6v-1.4h-5.3v9.8h5.5V199z M782.3,190.6h-1.6v4.1h-4.6v-4.1h-1.6v9.8h1.6v-4.2h4.6v4.2h1.6V190.6z
		 M773.1,190.6h-7.2v1.4h2.8v8.4h1.6V192h2.8V190.6z M764.5,190.6h-1.6v5.7c0,1.8-0.7,2.8-2.1,2.8c-1.5,0-2.2-1-2.2-2.9v-5.6h-1.6v6
		c0,2.6,1.2,4,3.7,4c2.6,0,3.9-1.4,3.9-4.1V190.6z M749.8,196.5l1.3-3.9c0-0.1,0.1-0.4,0.1-0.6h0c0,0.3,0.1,0.5,0.1,0.6l1.4,3.9
		H749.8z M752.3,190.6h-1.8l-3.7,9.8h1.8l0.8-2.5h3.8l0.9,2.5h1.8L752.3,190.6z"/>
	<rect x="771.8" y="214.5" style="fill-rule:evenodd;clip-rule:evenodd;fill:#F26522;" width="12.7" height="12.7"/>
	<rect x="785.8" y="214.5" style="fill-rule:evenodd;clip-rule:evenodd;fill:#8DC63F;" width="12.7" height="12.7"/>
	<rect x="771.8" y="228.5" style="fill-rule:evenodd;clip-rule:evenodd;fill:#00AEEF;" width="12.7" height="12.7"/>
	<rect x="785.8" y="228.5" style="fill-rule:evenodd;clip-rule:evenodd;fill:#FFC20E;" width="12.7" height="12.7"/>
	<g>
		<defs>
			<polyline id="SVGID_1_" points="837.9,251.1 809.4,251.1 809.4,279.6 837.9,279.6 837.9,251.1 			"/>
		</defs>
		<clipPath id="SVGID_2_">
			<use xlink:href="#SVGID_1_"  style="overflow:visible;"/>
		</clipPath>
		<g style="clip-path:url(#SVGID_2_);">
			
				<image style="overflow:visible;" width="402" height="402" xlink:href="6F5CAF96.jpg"  transform="matrix(7.125101e-002 0 0 7.125101e-002 809.3276 251.0238)">
			</image>
		</g>
	</g>
	<g>
		<defs>
			<polyline id="SVGID_3_" points="803.1,249.9 844.2,249.9 844.2,207.1 803.1,207.1 803.1,249.9 			"/>
		</defs>
		<clipPath id="SVGID_4_">
			<use xlink:href="#SVGID_3_"  style="overflow:visible;"/>
		</clipPath>
		<g style="clip-path:url(#SVGID_4_);">
			<defs>
				<polyline id="SVGID_5_" points="838.9,211.2 807.2,211.2 807.2,246 838.9,246 838.9,211.2 				"/>
			</defs>
			<clipPath id="SVGID_6_">
				<use xlink:href="#SVGID_5_"  style="overflow:visible;"/>
			</clipPath>
			<g transform="matrix(1 0 0 1 0 0)" style="clip-path:url(#SVGID_6_);">
				
					<image style="overflow:visible;" width="283" height="283" xlink:href="6F5CAF95.jpg"  transform="matrix(0.1128 0 0 -0.1237 807.0522 246.1262)">
				</image>
			</g>
		</g>
	</g>
	<path style="fill:#FFFFFF;" d="M799.8,256.1c-1,0.5-2.1,0.8-3.2,1c1.1-0.8,2-2,2.4-3.4c-1.1,0.7-2.3,1.2-3.5,1.5
		c-1-1.2-2.5-1.9-4-1.9c-3.1,0-5.5,2.7-5.5,6.1c0,0.5,0,0.9,0.1,1.4c-4.6-0.3-8.7-2.7-11.4-6.4c-0.5,0.9-0.8,2-0.8,3.1
		c0,2.1,1,4,2.5,5.1c-0.9,0-1.8-0.3-2.5-0.8l0,0.1c0,3,1.9,5.4,4.5,6c-0.5,0.1-1,0.2-1.5,0.2c-0.4,0-0.7,0-1-0.1
		c0.7,2.4,2.8,4.2,5.2,4.2c-1.9,1.6-4.3,2.6-6.9,2.6c-0.4,0-0.9,0-1.3-0.1c2.5,1.7,5.4,2.7,8.5,2.7c10.2,0,15.8-9.3,15.8-17.4
		c0-0.3,0-0.5,0-0.8C798.1,258.4,799.1,257.3,799.8,256.1z"/>
	<path d="M846.1,166.6c0.6,0,1,0.1,1.3,0.4s0.4,0.6,0.4,1.1c0,0.3,0,0.5-0.1,0.7c-0.1,0.2-0.2,0.4-0.4,0.5c-0.2,0.1-0.3,0.3-0.5,0.3
		s-0.4,0.1-0.7,0.1h-1.3v-3.2H846.1z M848.9,172.3c-0.1-0.2-0.3-0.4-0.4-0.6c-0.1-0.2-0.2-0.3-0.3-0.4c-0.1-0.1-0.2-0.3-0.4-0.4
		c-0.1-0.1-0.3-0.2-0.5-0.3v0c0.3-0.1,0.6-0.2,0.9-0.4c0.3-0.2,0.5-0.4,0.7-0.6c0.2-0.2,0.3-0.5,0.4-0.8c0.1-0.3,0.2-0.6,0.2-0.9
		c0-0.4-0.1-0.8-0.2-1.2c-0.2-0.3-0.4-0.6-0.7-0.8c-0.3-0.2-0.6-0.4-1-0.5c-0.4-0.1-0.8-0.2-1.3-0.2h-3.2v9.8h1.6v-4h0.7
		c0.2,0,0.4,0,0.6,0.1s0.3,0.1,0.5,0.2c0.1,0.1,0.3,0.2,0.4,0.4c0.1,0.2,0.3,0.4,0.4,0.6l1.6,2.6h1.9L848.9,172.3z M841.4,173.7
		h-3.9v-2.9h3.4v-1.4h-3.4v-2.8h3.6v-1.4h-5.3v9.8h5.5V173.7z M833.5,165.3h-1.7v9.8h1.7V165.3z M830.4,165.3h-7.2v1.4h2.8v8.4h1.6
		v-8.4h2.8V165.3z M817.4,165.3l-2,4.2c-0.1,0.2-0.2,0.4-0.2,0.6h0c-0.1-0.3-0.2-0.5-0.2-0.6l-1.9-4.2h-1.8l3.1,6.2v3.5h1.6v-3.5
		l3.2-6.2H817.4z M810.6,165.3h-7.2v1.4h2.8v8.4h1.6v-8.4h2.8V165.3z M802,165.3h-1.7v9.8h1.7V165.3z M798.9,165.3h-7.2v1.4h2.8v8.4
		h1.6v-8.4h2.8V165.3z M790.2,165.3h-1.6v6.3c0,0.6,0,1.1,0.1,1.3h0c-0.1-0.1-0.2-0.3-0.4-0.6l-4.5-7H782v9.8h1.6v-6.4
		c0-0.7,0-1.1-0.1-1.3h0c0.1,0.2,0.2,0.4,0.3,0.6l4.7,7.2h1.8V165.3z M780.2,173.7h-3.9v-2.9h3.4v-1.4h-3.4v-2.8h3.6v-1.4h-5.3v9.8
		h5.5V173.7z M767.7,166.7c2.4,0,3.5,1.1,3.5,3.4c0,1.1-0.3,2-0.9,2.7c-0.6,0.6-1.5,0.9-2.7,0.9h-1.3v-7H767.7z M767.5,175.1
		c1.7,0,3-0.5,4-1.4c1-0.9,1.5-2.1,1.5-3.6c0-3.2-1.8-4.8-5.4-4.8h-2.8v9.8H767.5z M762.4,165.3h-1.7v9.8h1.7V165.3z"/>
</g>
<g>
	<path style="fill:#DEDEDE;" d="M154,81.5c-1.4,0-2.8,0-4.2-0.1c-1.1,0-2-1-1.9-2.1c0-1.1,1-2,2.1-1.9c1.3,0,2.7,0.1,4,0.1l0.9,0h0
		c1.1,0,2,0.9,2,2c0,1.1-0.9,2-2,2L154,81.5z"/>
	<path style="fill:#DEDEDE;" d="M163.9,81.2c-1,0-1.9-0.8-2-1.9c-0.1-1.1,0.8-2.1,1.9-2.1c1.6-0.1,3.3-0.3,4.9-0.4
		c1.1-0.1,2.1,0.7,2.2,1.8s-0.7,2.1-1.8,2.2c-1.7,0.2-3.4,0.3-5.1,0.4L163.9,81.2z"/>
	<path style="fill:#DEDEDE;" d="M140.9,80.9l-0.2,0c-1.7-0.2-3.4-0.3-5-0.5c-1.1-0.1-1.9-1.1-1.7-2.2c0.1-1.1,1.1-1.9,2.2-1.7
		c1.6,0.2,3.3,0.4,4.9,0.5c1.1,0.1,1.9,1.1,1.8,2.2C142.8,80.2,142,80.9,140.9,80.9z"/>
	<path style="fill:#DEDEDE;" d="M177.8,79.6c-1,0-1.8-0.7-2-1.7c-0.2-1.1,0.6-2.1,1.6-2.3c1.6-0.3,3.2-0.6,4.8-0.9
		c1.1-0.2,2.1,0.5,2.4,1.6c0.2,1.1-0.5,2.1-1.6,2.4c-1.7,0.3-3.3,0.6-5,0.9C178,79.6,177.9,79.6,177.8,79.6z"/>
	<path style="fill:#DEDEDE;" d="M127.1,79c-0.1,0-0.3,0-0.4,0c-1.6-0.3-3.3-0.7-5-1c-1.1-0.2-1.8-1.3-1.5-2.4
		c0.2-1.1,1.3-1.8,2.4-1.5c1.6,0.4,3.2,0.7,4.8,1c1.1,0.2,1.8,1.3,1.6,2.3C128.9,78.3,128,79,127.1,79z"/>
	<path style="fill:#DEDEDE;" d="M191.5,76.6c-0.9,0-1.7-0.6-1.9-1.5c-0.3-1.1,0.3-2.2,1.4-2.5c1.6-0.4,3.2-0.9,4.7-1.4
		c1.1-0.3,2.2,0.3,2.5,1.3c0.3,1.1-0.3,2.2-1.3,2.5c-1.6,0.5-3.3,1-4.9,1.4C191.8,76.5,191.6,76.6,191.5,76.6z"/>
	<path style="fill:#DEDEDE;" d="M113.5,75.7c-0.2,0-0.4,0-0.6-0.1c-1.6-0.5-3.2-1-4.8-1.5c-1-0.3-1.6-1.5-1.3-2.5
		c0.4-1,1.5-1.6,2.5-1.3c1.6,0.5,3.1,1,4.7,1.5c1.1,0.3,1.7,1.4,1.4,2.5C115.1,75.1,114.4,75.7,113.5,75.7z"/>
	<path style="fill:#DEDEDE;" d="M204.8,72.2c-0.8,0-1.6-0.5-1.9-1.3c-0.4-1,0.1-2.2,1.2-2.6c1.5-0.6,3.1-1.2,4.6-1.8
		c1-0.4,2.2,0,2.6,1.1c0.4,1,0,2.2-1.1,2.6c-1.6,0.7-3.1,1.3-4.7,1.9C205.3,72.2,205,72.2,204.8,72.2z"/>
	<path style="fill:#DEDEDE;" d="M100.3,71.1c-0.3,0-0.5,0-0.8-0.1c-1.6-0.6-3.1-1.3-4.6-2c-1-0.5-1.5-1.6-1-2.6c0.5-1,1.6-1.5,2.6-1
		c1.5,0.7,3,1.3,4.5,1.9c1,0.4,1.5,1.6,1.1,2.6C101.8,70.6,101.1,71.1,100.3,71.1z"/>
	<path style="fill:#DEDEDE;" d="M217.6,66.6c-0.7,0-1.4-0.4-1.8-1.1c-0.5-1-0.1-2.2,0.9-2.7c1.5-0.7,2.9-1.5,4.4-2.3
		c1-0.5,2.2-0.2,2.7,0.8c0.5,1,0.2,2.2-0.8,2.7c-1.5,0.8-3,1.6-4.5,2.3C218.2,66.5,217.9,66.6,217.6,66.6z"/>
	<path style="fill:#DEDEDE;" d="M87.6,65.2c-0.3,0-0.6-0.1-0.9-0.2c-1.5-0.8-3-1.6-4.4-2.4c-1-0.5-1.3-1.8-0.7-2.7s1.8-1.3,2.7-0.7
		c1.4,0.8,2.9,1.6,4.3,2.4c1,0.5,1.4,1.7,0.8,2.7C89,64.8,88.3,65.2,87.6,65.2z"/>
	<path style="fill:#DEDEDE;" d="M229.8,59.8c-0.7,0-1.3-0.3-1.7-0.9c-0.6-0.9-0.3-2.2,0.6-2.8c1.4-0.9,2.8-1.8,4.1-2.7
		c0.9-0.6,2.2-0.4,2.8,0.5c0.6,0.9,0.4,2.2-0.5,2.8c-1.4,0.9-2.8,1.9-4.2,2.8C230.6,59.7,230.2,59.8,229.8,59.8z"/>
	<path style="fill:#DEDEDE;" d="M75.6,58.1c-0.4,0-0.8-0.1-1.1-0.3c-1.4-0.9-2.8-1.9-4.2-2.9c-0.9-0.6-1.1-1.9-0.5-2.8
		c0.6-0.9,1.9-1.1,2.8-0.5c1.3,1,2.7,1.9,4.1,2.8c0.9,0.6,1.2,1.8,0.6,2.8C76.9,57.8,76.2,58.1,75.6,58.1z"/>
	<path style="fill:#DEDEDE;" d="M241.3,51.7c-0.6,0-1.2-0.3-1.6-0.8c-0.7-0.9-0.5-2.1,0.4-2.8c1.3-1,2.6-2,3.8-3.1
		c0.8-0.7,2.1-0.6,2.8,0.3c0.7,0.8,0.6,2.1-0.3,2.8c-1.3,1.1-2.6,2.2-4,3.2C242.2,51.6,241.7,51.7,241.3,51.7z"/>
	<path style="fill:#DEDEDE;" d="M64.3,49.8c-0.4,0-0.9-0.1-1.3-0.4c-1.3-1.1-2.6-2.1-3.9-3.3c-0.8-0.7-0.9-2-0.2-2.8
		c0.7-0.8,2-0.9,2.8-0.2c1.2,1.1,2.5,2.1,3.8,3.2c0.9,0.7,1,2,0.3,2.8C65.5,49.6,64.9,49.8,64.3,49.8z"/>
	<path style="fill:#DEDEDE;" d="M252,42.7c-0.5,0-1.1-0.2-1.5-0.6c-0.8-0.8-0.7-2.1,0.1-2.8c1.2-1.1,2.4-2.3,3.5-3.4
		c0.8-0.8,2-0.8,2.8,0c0.8,0.8,0.8,2,0,2.8c-1.2,1.2-2.4,2.4-3.6,3.5C252.9,42.5,252.4,42.7,252,42.7z"/>
	<path style="fill:#DEDEDE;" d="M53.9,40.5c-0.5,0-1-0.2-1.4-0.6c-1.2-1.2-2.4-2.4-3.6-3.6c-0.8-0.8-0.7-2.1,0.1-2.8
		c0.8-0.8,2.1-0.7,2.8,0.1c1.1,1.2,2.3,2.4,3.5,3.5c0.8,0.8,0.8,2,0,2.8C54.9,40.3,54.4,40.5,53.9,40.5z"/>
	<path style="fill:#DEDEDE;" d="M261.7,32.6c-0.5,0-0.9-0.2-1.3-0.5c-0.8-0.7-0.9-2-0.2-2.8c1.1-1.2,2.1-2.5,3.2-3.8
		c0.7-0.9,2-1,2.8-0.3c0.9,0.7,1,2,0.3,2.8c-1.1,1.3-2.2,2.6-3.3,3.9C262.8,32.4,262.2,32.6,261.7,32.6z"/>
	<path style="fill:#DEDEDE;" d="M44.4,30.2c-0.6,0-1.1-0.2-1.5-0.7c-1.1-1.3-2.2-2.6-3.2-3.9c-0.7-0.9-0.5-2.1,0.3-2.8
		c0.9-0.7,2.1-0.5,2.8,0.3c1,1.3,2,2.6,3.1,3.8c0.7,0.8,0.6,2.1-0.2,2.8C45.3,30.1,44.8,30.2,44.4,30.2z"/>
	<path style="fill:#DEDEDE;" d="M270.3,21.6c-0.4,0-0.8-0.1-1.2-0.4c-0.9-0.6-1.1-1.9-0.5-2.8c0.9-1.3,1.9-2.7,2.8-4.1
		c0.6-0.9,1.9-1.2,2.8-0.6c0.9,0.6,1.2,1.9,0.6,2.8c-0.9,1.4-1.9,2.8-2.9,4.2C271.6,21.3,271,21.6,270.3,21.6z"/>
	<path style="fill:#DEDEDE;" d="M35.9,19.1c-0.6,0-1.3-0.3-1.7-0.9c-0.9-1.4-1.9-2.8-2.8-4.2c-0.6-0.9-0.3-2.2,0.6-2.8
		c0.9-0.6,2.2-0.3,2.8,0.6c0.9,1.4,1.8,2.8,2.7,4.1c0.6,0.9,0.4,2.2-0.5,2.8C36.7,19,36.3,19.1,35.9,19.1z"/>
	<path style="fill:#DEDEDE;" d="M278.6,2.6c-0.8,1.4-1.6,2.9-2.4,4.3c-0.6,1-0.2,2.2,0.7,2.7c0.3,0.2,0.7,0.3,1,0.3
		c0.7,0,1.4-0.4,1.7-1c0.8-1.5,1.7-2.9,2.5-4.4c0.4-0.8,0.2-1.8-0.4-2.4h-2.8C278.8,2.2,278.7,2.4,278.6,2.6z"/>
	<path style="fill:#DEDEDE;" d="M26.8,6.1c0.4,0.7,1,1,1.8,1c0.3,0,0.7-0.1,1-0.2c1-0.5,1.3-1.7,0.8-2.7c-0.4-0.7-0.8-1.4-1.1-2.1
		h-4.5C25.4,3.5,26.1,4.8,26.8,6.1z"/>
</g>
<g>
	<path style="fill:#00BCF2;" d="M805.2,80.5L805.2,80.5c-1.7,0-3.4,0-5.1-0.1c-1.1,0-2-1-1.9-2.1c0-1.1,1-2,2.1-1.9
		c1.6,0.1,3.3,0.1,4.9,0.1c1.1,0,2,0.9,2,2C807.2,79.6,806.3,80.5,805.2,80.5z"/>
	<path style="fill:#00BCF2;" d="M814.2,80.3c-1.1,0-1.9-0.8-2-1.9c-0.1-1.1,0.8-2,1.9-2.1c1.6-0.1,3.3-0.2,4.9-0.4
		c1.1-0.1,2.1,0.7,2.2,1.8c0.1,1.1-0.7,2.1-1.8,2.2c-1.7,0.2-3.4,0.3-5.1,0.4L814.2,80.3z"/>
	<path style="fill:#00BCF2;" d="M791.2,79.8l-0.2,0c-1.7-0.2-3.4-0.4-5-0.6c-1.1-0.2-1.9-1.2-1.7-2.3c0.2-1.1,1.2-1.9,2.3-1.7
		c1.6,0.2,3.3,0.4,4.9,0.6c1.1,0.1,1.9,1.1,1.8,2.2C793.1,79,792.2,79.8,791.2,79.8z"/>
	<path style="fill:#00BCF2;" d="M828.1,78.8c-1,0-1.8-0.7-2-1.7c-0.2-1.1,0.6-2.1,1.7-2.3c1.6-0.3,3.2-0.5,4.9-0.8
		c1.1-0.2,2.1,0.5,2.3,1.6c0.2,1.1-0.5,2.1-1.6,2.3c-1.7,0.3-3.3,0.6-5,0.9C828.3,78.8,828.2,78.8,828.1,78.8z"/>
	<path style="fill:#00BCF2;" d="M777.4,77.7c-0.1,0-0.3,0-0.4,0c-1.6-0.3-3.3-0.7-5-1.1c-1.1-0.3-1.7-1.3-1.5-2.4
		c0.3-1.1,1.3-1.7,2.4-1.5c1.6,0.4,3.2,0.7,4.8,1.1c1.1,0.2,1.8,1.3,1.6,2.4C779.1,77,778.3,77.7,777.4,77.7z"/>
	<path style="fill:#00BCF2;" d="M841.8,76c-0.9,0-1.7-0.6-1.9-1.5c-0.3-1.1,0.4-2.2,1.4-2.4c1.6-0.4,3.2-0.9,4.8-1.3
		c1.1-0.3,2.2,0.3,2.5,1.3s-0.3,2.2-1.3,2.5c-1.6,0.5-3.3,0.9-4.9,1.4C842.1,76,841.9,76,841.8,76z"/>
	<path style="fill:#00BCF2;" d="M763.8,74.2c-0.2,0-0.4,0-0.6-0.1c-1.6-0.5-3.2-1-4.8-1.6c-1-0.4-1.6-1.5-1.2-2.5
		c0.4-1,1.5-1.6,2.5-1.2c1.6,0.5,3.1,1.1,4.7,1.5c1.1,0.3,1.6,1.4,1.3,2.5C765.5,73.7,764.7,74.2,763.8,74.2z"/>
	<path style="fill:#00BCF2;" d="M855.1,71.8c-0.8,0-1.6-0.5-1.9-1.3c-0.4-1,0.2-2.2,1.2-2.6c1.5-0.6,3.1-1.2,4.6-1.8
		c1-0.4,2.2,0.1,2.6,1.1c0.4,1-0.1,2.2-1.1,2.6c-1.6,0.6-3.2,1.3-4.7,1.8C855.6,71.8,855.4,71.8,855.1,71.8z"/>
	<path style="fill:#00BCF2;" d="M750.7,69.5c-0.3,0-0.5,0-0.8-0.2c-1.6-0.7-3.1-1.3-4.6-2c-1-0.5-1.4-1.7-1-2.7c0.5-1,1.6-1.4,2.7-1
		c1.5,0.7,3,1.3,4.5,2c1,0.4,1.5,1.6,1.1,2.6C752.2,69,751.5,69.5,750.7,69.5z"/>
	<path style="fill:#00BCF2;" d="M868,66.3c-0.7,0-1.5-0.4-1.8-1.1c-0.5-1-0.1-2.2,0.9-2.7c1.5-0.7,3-1.5,4.4-2.2
		c1-0.5,2.2-0.1,2.7,0.8c0.5,1,0.1,2.2-0.8,2.7c-1.5,0.8-3,1.6-4.5,2.3C868.6,66.3,868.3,66.3,868,66.3z"/>
	<path style="fill:#00BCF2;" d="M738.1,63.4c-0.3,0-0.6-0.1-0.9-0.2c-1.5-0.8-3-1.6-4.4-2.5c-1-0.6-1.3-1.8-0.7-2.7
		c0.6-1,1.8-1.3,2.7-0.7c1.4,0.8,2.9,1.6,4.3,2.4c1,0.5,1.3,1.7,0.8,2.7C739.5,63,738.8,63.4,738.1,63.4z"/>
	<path style="fill:#00BCF2;" d="M880.3,59.6c-0.7,0-1.3-0.3-1.7-1c-0.6-0.9-0.3-2.2,0.7-2.8c1.4-0.9,2.8-1.7,4.2-2.6
		c0.9-0.6,2.2-0.4,2.8,0.6c0.6,0.9,0.4,2.2-0.6,2.8c-1.4,0.9-2.8,1.8-4.3,2.7C881,59.5,880.7,59.6,880.3,59.6z"/>
	<path style="fill:#00BCF2;" d="M726.1,56.2c-0.4,0-0.8-0.1-1.1-0.3c-1.4-0.9-2.8-1.9-4.1-2.9c-0.9-0.6-1.1-1.9-0.4-2.8
		c0.6-0.9,1.9-1.1,2.8-0.4c1.3,1,2.7,1.9,4,2.8c0.9,0.6,1.2,1.9,0.5,2.8C727.4,55.9,726.8,56.2,726.1,56.2z"/>
	<path style="fill:#00BCF2;" d="M891.9,51.7c-0.6,0-1.2-0.3-1.6-0.8c-0.7-0.9-0.5-2.1,0.4-2.8c1.3-1,2.6-2,3.9-3
		c0.9-0.7,2.1-0.6,2.8,0.3c0.7,0.9,0.6,2.1-0.3,2.8c-1.3,1.1-2.7,2.1-4,3.1C892.7,51.6,892.3,51.7,891.9,51.7z"/>
	<path style="fill:#00BCF2;" d="M714.9,47.8c-0.4,0-0.9-0.2-1.3-0.5c-1.3-1.1-2.6-2.2-3.8-3.3c-0.8-0.7-0.9-2-0.2-2.8
		c0.7-0.8,2-0.9,2.8-0.2c1.2,1.1,2.5,2.2,3.7,3.2c0.9,0.7,1,2,0.3,2.8C716.1,47.6,715.5,47.8,714.9,47.8z"/>
	<path style="fill:#00BCF2;" d="M902.6,42.7c-0.5,0-1.1-0.2-1.5-0.6c-0.7-0.8-0.7-2.1,0.1-2.8c1.2-1.1,2.4-2.3,3.6-3.4
		c0.8-0.8,2.1-0.8,2.8,0c0.8,0.8,0.8,2.1,0,2.8c-1.2,1.2-2.4,2.4-3.7,3.5C903.6,42.6,903.1,42.7,902.6,42.7z"/>
	<path style="fill:#00BCF2;" d="M704.6,38.4c-0.5,0-1-0.2-1.4-0.6c-1.2-1.2-2.4-2.4-3.5-3.7c-0.8-0.8-0.7-2.1,0.1-2.8
		c0.8-0.8,2.1-0.7,2.8,0.1c1.1,1.2,2.3,2.4,3.4,3.6c0.8,0.8,0.8,2,0,2.8C705.6,38.2,705.1,38.4,704.6,38.4z"/>
	<path style="fill:#00BCF2;" d="M912.5,32.8c-0.5,0-1-0.2-1.3-0.5c-0.8-0.7-0.9-2-0.2-2.8c1.1-1.2,2.2-2.5,3.2-3.7
		c0.7-0.8,2-1,2.8-0.3c0.8,0.7,1,2,0.3,2.8c-1.1,1.3-2.2,2.6-3.3,3.8C913.6,32.6,913,32.8,912.5,32.8z"/>
	<path style="fill:#00BCF2;" d="M695.2,28c-0.6,0-1.2-0.3-1.5-0.7c-1.1-1.3-2.1-2.6-3.1-4c-0.7-0.9-0.5-2.1,0.4-2.8
		c0.9-0.7,2.1-0.5,2.8,0.4c1,1.3,2,2.6,3.1,3.9c0.7,0.9,0.6,2.1-0.3,2.8C696.1,27.8,695.7,28,695.2,28z"/>
	<path style="fill:#00BCF2;" d="M921.3,21.9c-0.4,0-0.8-0.1-1.2-0.4c-0.9-0.7-1.1-1.9-0.4-2.8c1-1.3,1.9-2.7,2.8-4
		c0.6-0.9,1.9-1.2,2.8-0.5c0.9,0.6,1.1,1.9,0.5,2.8c-0.9,1.4-1.9,2.8-2.9,4.1C922.5,21.6,921.9,21.9,921.3,21.9z"/>
	<path style="fill:#00BCF2;" d="M686.9,16.7c-0.6,0-1.3-0.3-1.7-0.9c-0.9-1.4-1.9-2.8-2.7-4.3c-0.6-0.9-0.3-2.2,0.6-2.8
		c0.9-0.6,2.2-0.3,2.8,0.6c0.9,1.4,1.8,2.8,2.7,4.2c0.6,0.9,0.4,2.2-0.6,2.8C687.6,16.6,687.3,16.7,686.9,16.7z"/>
	<path style="fill:#00BCF2;" d="M932.4,2.2c-0.1,0-0.1,0-0.2-0.1h-1.6c-0.4,0.2-0.7,0.5-1,0.9c-0.8,1.4-1.6,2.9-2.4,4.3
		c-0.6,1-0.3,2.2,0.7,2.7c0.3,0.2,0.7,0.3,1,0.3c0.7,0,1.3-0.3,1.7-1c0.9-1.4,1.7-2.9,2.5-4.4C933.7,3.9,933.4,2.7,932.4,2.2z"/>
	<path style="fill:#00BCF2;" d="M677.9,3.7c0.4,0.7,1.1,1.1,1.8,1.1c0.3,0,0.6-0.1,0.9-0.2c0.9-0.5,1.3-1.5,0.9-2.4h-4.5
		C677.4,2.6,677.6,3.2,677.9,3.7z"/>
</g>
</svg>
