<svg class="infographic--2__fullwidth" xmlns="http://www.w3.org/2000/svg" viewBox="0 0 960 381.3"><g class="icons-group"><g class="icons icons-A"><g class="button"><path fill="#FFF" d="M423 110h105v149H423z"/><path class="text" d="M504.2 231.8c-.7.4-1.5.7-2.4.7-1 0-1.8-.3-2.4-1-.6-.6-.9-1.5-.9-2.6s.3-2 1-2.7 1.5-1 2.6-1c.8 0 1.5.2 2.2.6v-1.6c-.6-.3-1.4-.4-2.3-.4-1.5 0-2.7.5-3.6 1.4s-1.4 2.2-1.4 3.8c0 1.5.4 2.6 1.3 3.5s2 1.3 3.4 1.3c1.1 0 2-.2 2.7-.6v-1.4h-.2zm-9.2-7.9h-1.7v9.8h1.7v-9.8zm-3.3 0h-5.3v9.8h1.6v-4.1h3.4v-1.4H488v-2.9h3.6v-1.4h.1zm-7 0h-5.3v9.8h1.6v-4.1h3.4v-1.4H481v-2.9h3.6v-1.4h.1zm-12.7 6l1.3-3.9c0-.1.1-.4.1-.6 0 .3.1.5.1.6l1.4 3.9H472zm2.4-6h-1.8l-3.7 9.8h1.8l.8-2.5h3.8l.9 2.5h1.8l-3.6-9.8zm-10.1 1.3c.6 0 1 .1 1.3.4s.4.6.4 1.1c0 .3 0 .5-.1.7s-.2.4-.4.5c-.2.1-.3.3-.5.3s-.4.1-.7.1H463v-3.2l1.3.1zm2.9 5.7c-.1-.2-.3-.4-.4-.6s-.2-.3-.3-.4c-.1-.1-.2-.3-.4-.4-.1-.1-.3-.2-.5-.3.3-.1.6-.2.9-.4s.5-.4.7-.6.3-.5.4-.8.2-.6.2-.9c0-.4-.1-.8-.2-1.2-.2-.3-.4-.6-.7-.8-.3-.2-.6-.4-1-.5s-.8-.2-1.3-.2h-3.2v9.8h1.6v-4h.7c.2 0 .4 0 .6.1s.3.1.5.2c.1.1.3.2.4.4s.3.4.4.6l1.6 2.6h1.9l-1.9-2.6zm-7.3-7h-7.2v1.4h2.8v8.4h1.6v-8.4h2.8v-1.4zM508 242c.6 0 1 .1 1.3.4s.4.6.4 1.1c0 .3 0 .5-.1.7s-.2.4-.4.5c-.2.1-.3.3-.5.3s-.4.1-.7.1h-1.3v-3.2l1.3.1zm2.9 5.7c-.1-.2-.3-.4-.4-.6s-.2-.3-.3-.4c-.1-.1-.2-.3-.4-.4-.1-.1-.3-.2-.5-.3.3-.1.6-.2.9-.4s.5-.4.7-.6.3-.5.4-.8.2-.6.2-.9c0-.4-.1-.8-.2-1.2-.2-.3-.4-.6-.7-.8-.3-.2-.6-.4-1-.5s-.8-.2-1.3-.2h-3.2v9.8h1.6v-4h.7c.2 0 .4 0 .6.1s.3.1.5.2c.1.1.3.2.4.4s.3.4.4.6l1.6 2.6h1.9l-1.9-2.6zm-7.6 1.3h-3.9v-2.9h3.4v-1.4h-3.4v-2.8h3.6v-1.4h-5.3v9.8h5.5l.1-1.3zm-7.5-3.9h-3.7v1.4h2.1v2.3c-.5.3-1.1.4-1.7.4-1 0-1.8-.3-2.3-1s-.9-1.5-.9-2.6.3-2 1-2.7 1.5-1 2.6-1c1 0 1.9.3 2.7.7v-1.7c-.7-.3-1.7-.5-2.7-.5-1.5 0-2.7.5-3.7 1.5s-1.5 2.2-1.5 3.7.4 2.7 1.3 3.6 2.1 1.3 3.5 1.3c1.2 0 2.4-.3 3.4-.8l-.1-4.6zm-14.9 1.5l1.3-3.9c0-.1.1-.4.1-.6 0 .3.1.5.1.6l1.4 3.9h-2.9zm2.4-6h-1.8l-3.7 9.8h1.8l.8-2.5h3.8l.9 2.5h1.8l-3.6-9.8zm-6.8 0H475v6.3c0 .6 0 1.1.1 1.3-.1-.1-.2-.3-.4-.6l-4.5-7h-1.9v9.8h1.6V244c0-.7 0-1.1-.1-1.3l.3.6 4.7 7.2h1.8v-9.9h-.1zm-15.6 6l1.3-3.9c0-.1.1-.4.1-.6 0 .3.1.5.1.6l1.4 3.9h-2.9zm2.4-6h-1.8l-3.7 9.8h1.8l.8-2.5h3.8l.9 2.5h1.8l-3.6-9.8zm-6.8 0h-2.2l-2.6 6.5c-.1.3-.2.6-.4 1.1-.1-.2-.2-.6-.4-1.1l-2.6-6.5H446v9.8h1.5v-6.3c0-.9 0-1.5-.1-1.9.1.4.2.8.3 1l2.9 7.2h1.1l2.9-7.3c.1-.2.2-.5.3-.9-.1.7-.1 1.4-.1 1.9v6.3h1.6v-9.8h.1z"/><path class="icon" d="M495.8 169.8l-5.7 6v-17.3h17.6l-6.4 6 16.1 15.6v-33.5l-22.7-23.4h-32l-5.8 6 18.2 19.2 8.1-8.4v25.6h-24.8l7.8-8.4-18-18.4-8.2 8.5v32.6l22.7 23.4h28l-21.5-21.8-4.2 4.6v-13.4h12.7l-3.7 4.2 23.1 24.3 14.2-14.7z"/></g><g class="line" fill="none" stroke="#DEDEDE" stroke-width="4" stroke-linejoin="round" stroke-miterlimit="10"><path d="M478.4 0v89.7"/><circle stroke-linecap="round" cx="478.4" cy="95.2" r="5"/></g></g><g class="icons icons-B"><g class="button"><path fill="#FFF" d="M584 298h90v79h-90z"/><path class="text" d="M665.9 346.7c2.4 0 3.6 1.1 3.6 3.4 0 1.1-.3 2-1 2.7s-1.5.9-2.7.9h-1.3v-7h1.4zm-.3 8.4c1.7 0 3-.5 4-1.4s1.5-2.1 1.5-3.6c0-3.2-1.8-4.8-5.4-4.8h-2.8v9.8h2.7zm-10.2-3.8l1.3-3.9c.1-.2.1-.4.1-.6 0 .3.1.5.1.6l1.4 3.9h-2.9zm2.5-6H656l-3.7 9.8h1.8l.8-2.5h3.9l.9 2.5h1.8l-3.6-9.8zm-8.5 2.3c.5.6.8 1.5.8 2.7 0 1.1-.3 2-.8 2.7s-1.3 1-2.2 1-1.6-.3-2.1-1-.8-1.5-.8-2.6.3-2 .8-2.6 1.3-1 2.2-1c.8-.2 1.6.1 2.1.8zm1.2 6.3c.9-.9 1.3-2.2 1.3-3.8 0-1.5-.4-2.7-1.3-3.6s-1.9-1.4-3.3-1.4c-1.5 0-2.7.5-3.5 1.4s-1.3 2.2-1.3 3.8c0 1.5.4 2.7 1.3 3.6s2 1.4 3.4 1.4 2.5-.5 3.4-1.4zm-8.5-.1h-3.8v-8.4h-1.6v9.8h5.4v-1.4zm-11 0h-3.9v-2.9h3.4v-1.4h-3.4v-2.8h3.7v-1.4h-5.3v9.8h5.5v-1.3zm-11.3-7.1c.6 0 1 .1 1.3.4s.4.6.4 1.1c0 .3 0 .5-.1.7s-.2.4-.4.5-.3.3-.6.3-.4.1-.7.1h-1.4v-3.2h1.5v.1zm2.9 5.7c-.1-.2-.3-.4-.4-.6-.1-.2-.2-.3-.4-.4s-.2-.3-.4-.4c-.1-.1-.3-.2-.5-.3.3-.1.6-.2.9-.4s.5-.4.7-.6.3-.5.4-.8c.1-.3.2-.6.2-1s-.1-.8-.2-1.2c-.2-.3-.4-.6-.7-.8-.3-.2-.6-.4-1-.5s-.8-.2-1.3-.2h-3.2v9.8h1.6v-4h.7c.2 0 .4 0 .6.1s.3.1.5.2.3.3.4.4c.1.2.3.4.4.6l1.6 2.6h1.9l-1.8-2.5zm-8.2-7.1h-1.6v5.8c0 1.9-.7 2.8-2.2 2.8s-2.2-1-2.2-2.9v-5.7h-1.6v6c0 2.6 1.2 4 3.7 4 2.6 0 3.9-1.4 3.9-4.1v-5.9zm-9 0h-7.2v1.4h5l-5.4 7.7v.7h7.6v-1.4h-5.3l5.4-7.7-.1-.7zm-14.4 6l1.3-3.9c.1-.2.1-.4.1-.6 0 .3.1.5.1.6l1.4 3.9h-2.9zm2.4-6h-1.8l-3.7 9.8h1.8l.8-2.5h3.9l.9 2.5h1.8l-3.7-9.8zM660.2 363.7c.6 0 1 .1 1.3.4s.4.6.4 1.1c0 .3 0 .5-.1.7s-.2.4-.4.5-.3.3-.6.3-.4.1-.7.1h-1.4v-3.2h1.5v.1zm2.8 5.7c-.1-.2-.3-.4-.4-.6-.1-.2-.2-.3-.4-.4s-.2-.3-.4-.4c-.1-.1-.3-.2-.5-.3.3-.1.6-.2.9-.4s.5-.4.7-.6.3-.5.4-.8c.1-.3.2-.6.2-1s-.1-.8-.2-1.2c-.2-.3-.4-.6-.7-.8-.3-.2-.6-.4-1-.5s-.8-.2-1.3-.2h-3.2v9.8h1.6v-4h.7c.2 0 .4 0 .6.1s.3.1.5.2.3.3.4.4c.1.2.3.4.4.6l1.6 2.6h1.9l-1.8-2.5zm-7.5 1.4h-3.9v-2.9h3.4v-1.4h-3.4v-2.8h3.7v-1.4H650v9.8h5.5v-1.3zm-7.4-.6c-.7.4-1.5.7-2.4.7-1 0-1.8-.3-2.4-1-.6-.6-.9-1.5-.9-2.6s.3-2 1-2.7 1.5-1 2.6-1c.8 0 1.5.2 2.2.6v-1.6c-.6-.3-1.4-.4-2.4-.4-1.5 0-2.7.5-3.7 1.4s-1.4 2.2-1.4 3.8c0 1.5.4 2.6 1.3 3.5s2 1.3 3.4 1.3c1.1 0 2-.2 2.8-.6l-.1-1.4zm-9.3-7.9h-1.6v6.3c0 .6 0 1.1.1 1.3-.1-.1-.2-.3-.4-.6l-4.5-7h-1.9v9.8h1.6v-6.4c0-.7 0-1.1-.1-1.3l.3.6 4.7 7.2h1.8v-9.9zm-15.7 6l1.3-3.9c.1-.2.1-.4.1-.6 0 .3.1.5.1.6l1.4 3.9h-2.9zm2.4-6h-1.8l-3.7 9.8h1.8l.8-2.5h3.9l.9 2.5h1.8l-3.7-9.8zm-6.1 8.5h-3.8v-8.4H614v9.8h5.4v-1.4zm-12.9-2.5l1.3-3.9c.1-.2.1-.4.1-.6 0 .3.1.5.1.6l1.4 3.9h-2.9zm2.4-6h-1.8l-3.7 9.8h1.8l.8-2.5h3.9l.9 2.5h1.8l-3.7-9.8zm-10 5.4c1.4 0 2.1.5 2.1 1.5 0 .5-.2.9-.5 1.2-.3.3-.8.4-1.4.4h-1.4v-3.1h1.2zm0-4c1.1 0 1.7.4 1.7 1.3 0 .5-.2.9-.5 1.1-.3.3-.8.4-1.3.4h-1.1v-2.8h1.2zm.3 8.4c1 0 1.8-.3 2.5-.8s1-1.2 1-2c0-.7-.2-1.2-.6-1.6-.4-.4-.9-.7-1.6-.7.6-.2 1-.5 1.3-.9s.5-.9.5-1.4c0-.7-.3-1.2-.8-1.6s-1.3-.6-2.3-.6h-3.1v9.8h3.1v-.2z"/><path class="icon" d="M654.9 333.9l-4.5-28c-.1-1.2-1.1-1.3-1.4-1.3h-36.9c-.3 0-1.3.1-1.4 1.3l-4.9 28v.7c0 2.1 1.7 2.5 2.1 2.5h44.9c.4 0 2.1-.4 2.1-2.5.1-.2.1-.4 0-.7zm-15.4-7.1h-5.4c-.4 0-.8-.3-.8-.8 0-.4.4-.8.8-.8h2.6l-6.1-6.1v12.3l1.9-1.9c.3-.3.8-.3 1.1 0s.3.8 0 1.1l-3.8 3.8-3.8-3.8c-.2-.2-.2-.4-.2-.6s.1-.4.2-.6c.3-.3.8-.3 1.1 0l2 2v-12.3l-6.1 6.1h2.8c.4 0 .8.4.8.8s-.4.8-.8.8h-5.4v-5.4c0-.4.3-.8.8-.8.4 0 .8.4.8.8v2.7l7.2-7.2v-3.8c-1-.3-1.7-1.3-1.7-2.4 0-1.4 1.1-2.5 2.5-2.5s2.5 1.1 2.5 2.5c0 1.1-.7 2-1.7 2.4v3.8l7.4 7.4v-2.9c0-.4.3-.8.8-.8s.8.4.8.8l-.3 5.4z"/></g><g class="line" fill="none" stroke="#DEDEDE" stroke-width="4" stroke-linejoin="round" stroke-miterlimit="10"><path d="M694.4 0v319.3"/><circle stroke-linecap="round" cx="674.4" cy="318.2" r="5"/><path d="M696.4 317.9h-17.2"/></g></g></g><g class="static"><path fill="none" stroke="#DEDEDE" stroke-width="3" stroke-linecap="round" stroke-linejoin="round" stroke-miterlimit="10" d="M425.2 239.1h-81c-9.4 0-17 7.6-17 17v125.2M531.9 239.9h81c9.4 0 17 7.6 17 17V295"/><g fill="none" stroke="#686868" stroke-width="3" stroke-linecap="round" stroke-linejoin="round" stroke-miterlimit="10"><path d="M406.7 12.8l41.7 83.3M449.3 97.9l3.4-10.6M449.3 97.9l-10.6-3.6"/></g><g fill="none" stroke="#686868" stroke-width="3" stroke-linecap="round" stroke-linejoin="round" stroke-miterlimit="10"><path d="M550.7 12.8L509 96.1M508.1 97.9l-3.4-10.6M508.1 97.9l10.5-3.6"/></g><g class="bubble"><path fill="#DEDEDE" d="M721.9 141.2c0 14.6 3.8 28.3 10.4 40.2h-.1l72.5 123.2.1-.2v.2s0-.1.1-.3l72.6-122.8h-.1a82.64 82.64 0 0 0 10.4-40.2c0-45.8-37.1-83-83-83-45.7 0-82.9 37.1-82.9 82.9z"/><g class="icon" fill="#898989"><path d="M818.4 129.6c-.3 0-.6.1-.8.4-.2.3-.3.6-.4.9h2.3c0-.8-.4-1.3-1.1-1.3zM791.6 127.5c-.1.3-.1.5-.2.8l-1 3h2.3l-1-3c-.1-.2-.1-.5-.1-.8z"/><path d="M836 139.2c0-4.1-3.3-7.3-7.3-7.3-.3 0-.6 0-.9.1.5-1.6.7-3.4.7-5.2 0-10.8-8.8-19.6-19.6-19.6-8.6 0-16 5.6-18.6 13.3-1.4-.5-2.8-.7-4.4-.7-7.4 0-13.4 6-13.4 13.4s6 13.4 13.4 13.4h43.3c3.9-.4 6.8-3.5 6.8-7.4zm-42.2-4.4l-.6-2H790l-.6 2h-2.2l3.2-8.9h2.4l3.2 8.9h-2.2zm8.1 0h-5.7v-.8l3.2-4.1h-2.9v-1.4h5.4v1l-3 3.9h3v1.4zm7.1 0h-2v-1c-.5.7-1.1 1.1-1.9 1.1-1.5 0-2.2-.9-2.2-2.7v-3.7h2v3.7c0 .9.4 1.3 1.1 1.3.3 0 .6-.1.8-.4.2-.2.3-.6.3-1v-3.6h2l-.1 6.3zm5.8-4.6c-.2-.1-.5-.2-.8-.2-.4 0-.8.2-1 .5s-.4.7-.4 1.3v3h-2v-6.3h2v1.2c.3-.9.9-1.3 1.7-1.3.2 0 .4 0 .5.1v1.7zm6.5 2h-4.1c.1.9.6 1.4 1.7 1.4.7 0 1.3-.2 1.8-.5v1.4c-.6.3-1.3.5-2.3.5s-1.8-.3-2.4-.9c-.6-.6-.8-1.4-.8-2.4 0-1.1.3-2 1-2.6.6-.5 1.3-.8 2.1-.8 1 0 1.7.3 2.2.9.5.5.7 1.3.7 2.2l.1.8zM760.4 151h-1.7l-3.6 8c-.1.3-.3.8-.6 1.4-.1-.3-.3-.8-.5-1.4l-3.5-8.1h-1.8v11.6h1.3v-7.7c0-1 0-1.8-.1-2.3.1.5.2.9.3 1.2l3.9 8.8h.7l3.9-8.9c.1-.2.2-.6.3-1.1-.1.9-.1 1.6-.1 2.2v7.8h1.3V151h.2zM765 154.3h-1.3v8.3h1.3v-8.3zm-.1-2.3c.2-.2.3-.4.3-.6s-.1-.5-.3-.6-.4-.2-.6-.2c-.2 0-.4.1-.6.2s-.2.4-.2.6.1.5.2.6.4.2.6.2c.3 0 .5 0 .6-.2zM773.1 160.9c-.6.5-1.3.7-2 .7-.9 0-1.5-.3-2-.8s-.8-1.3-.8-2.3.3-1.8.8-2.4 1.2-.9 2.1-.9c.7 0 1.4.2 2 .6v-1.3c-.6-.3-1.2-.4-1.9-.4-1.3 0-2.3.4-3.1 1.2s-1.2 1.9-1.2 3.3c0 1.2.4 2.2 1.1 3 .7.8 1.7 1.1 2.8 1.1.9 0 1.6-.2 2.3-.6l-.1-1.2zM779.4 154.3c-.2-.1-.4-.1-.8-.1-.5 0-.9.2-1.3.5s-.7.8-.9 1.4v-1.7h-1.3v8.3h1.3v-4.2c0-.9.2-1.6.6-2.2.4-.5.9-.8 1.4-.8.4 0 .8.1 1 .3v-1.5zM786.9 156.1c.5.6.7 1.4.7 2.4s-.2 1.8-.7 2.4-1.1.8-2 .8c-.8 0-1.5-.3-2-.8-.5-.6-.7-1.3-.7-2.3s.2-1.8.7-2.4 1.2-.9 2-.9c.9 0 1.6.2 2 .8zm1 5.5c.7-.8 1.1-1.8 1.1-3.2 0-1.3-.3-2.4-1-3.1-.7-.8-1.7-1.1-2.9-1.1-1.3 0-2.3.4-3.1 1.2s-1.1 1.9-1.1 3.2.4 2.3 1.1 3.1c.7.8 1.7 1.2 2.9 1.2 1.2-.1 2.2-.5 3-1.3zM793.3 162.8c.4 0 .8 0 1.2-.1s.7-.2 1-.4.5-.4.7-.7.3-.7.3-1.1c0-.3-.1-.6-.2-.9-.1-.2-.3-.5-.5-.6s-.5-.4-.7-.5c-.3-.1-.6-.3-1-.4-.3-.1-.5-.2-.7-.3s-.4-.2-.5-.3c-.2-.1-.3-.2-.3-.4-.1-.1-.1-.3-.1-.5s0-.3.1-.5c.1-.1.2-.3.3-.4s.3-.2.5-.2c.2-.1.4-.1.7-.1.8 0 1.5.2 2.1.6v-1.5c-.6-.2-1.2-.4-1.9-.4-.4 0-.8.1-1.2.2s-.7.3-1 .5-.5.5-.7.7c-.2.3-.3.6-.3 1 0 .3 0 .6.1.8s.2.4.4.6.4.4.7.5.6.3 1 .4c.3.1.5.2.7.3l.6.3c.2.1.3.3.4.4.1.2.1.3.1.6 0 .8-.6 1.2-1.7 1.2-.9 0-1.7-.3-2.4-.8v1.4c.7.4 1.4.6 2.3.6zM803.4 156.1c.5.6.7 1.4.7 2.4s-.2 1.8-.7 2.4-1.1.8-2 .8c-.8 0-1.5-.3-2-.8-.5-.6-.7-1.3-.7-2.3s.2-1.8.7-2.4 1.2-.9 2-.9c.9 0 1.6.2 2 .8zm1 5.5c.7-.8 1.1-1.8 1.1-3.2 0-1.3-.3-2.4-1-3.1-.7-.8-1.7-1.1-2.9-1.1-1.3 0-2.3.4-3.1 1.2s-1.1 1.9-1.1 3.2.4 2.3 1.1 3.1c.7.8 1.7 1.2 2.9 1.2 1.2-.1 2.2-.5 3-1.3zM812.1 150.3c-.2-.1-.6-.1-1-.1-.7 0-1.4.3-1.9.8s-.7 1.2-.7 2.1v1.3h-1.4v1.1h1.4v7.1h1.3v-7.1h1.9v-1.1h-1.9v-1.3c0-1.2.5-1.7 1.4-1.7.3 0 .6.1.9.2v-1.3zM817 161.4c-.2.2-.5.3-.9.3s-.7-.1-.9-.4-.3-.6-.3-1.2v-4.6h2.1v-1.1h-2.1V152l-1.3.4v2h-1.4v1.1h1.4v4.9c0 1.6.7 2.4 2.2 2.4.5 0 .9-.1 1.2-.3v-1.1zM826.5 158.1l1.8-4.9c.1-.2.1-.4.2-.8.1.4.1.6.2.8l1.8 4.9h-4zm2.7-7.1h-1.4l-4.4 11.6h1.5l1.2-3.2h4.9l1.2 3.2h1.5l-4.5-11.6z"/><path d="M840.5 154.3h-6.4v1.2h4.4l-4.9 6.7v.4h6.8v-1.1h-4.8l4.9-6.8zM849 154.3h-1.3v4.8c0 .8-.2 1.4-.6 1.9-.4.5-.9.7-1.6.7-1.3 0-2-.9-2-2.6v-4.7h-1.3v4.9c0 2.3 1 3.5 2.9 3.5 1.1 0 2-.5 2.5-1.5v1.3h1.3l.1-8.3zM856.8 154.3c-.2-.1-.4-.1-.8-.1-.5 0-.9.2-1.3.5s-.7.8-.9 1.4v-1.7h-1.3v8.3h1.3v-4.2c0-.9.2-1.6.6-2.2.4-.5.9-.8 1.4-.8.4 0 .8.1 1 .3v-1.5zM858.4 157.7c.1-.7.4-1.3.8-1.7.4-.4 1-.7 1.6-.7s1.1.2 1.5.6.5 1 .6 1.8h-4.5zm5.8.4c0-1.2-.3-2.2-.9-2.9s-1.4-1-2.5-1-2 .4-2.7 1.2-1.1 1.9-1.1 3.1c0 1.4.3 2.4 1 3.2s1.6 1.1 2.7 1.1c1.2 0 2.2-.3 2.9-.8v-1.2c-.8.6-1.6.9-2.6.9-.8 0-1.5-.3-1.9-.8-.5-.5-.7-1.2-.7-2.1h5.8v-.7z"/></g></g><g class="bubble"><path fill="#DEDEDE" d="M71.1 143.8c0 14.6 3.8 28.3 10.4 40.2h-.1l72.5 123.2.1-.2v.2s0-.1.1-.3L226.7 184h-.1a82.64 82.64 0 0 0 10.4-40.2c0-45.8-37.1-83-83-83-45.8.1-82.9 37.2-82.9 83z"/><g class="icon" fill="#898989"><path d="M131.7 173.6H154v-69.2h-22.3v69.2zm18.4-40h-6v-6h6v6zm-14.9-8.9v-6h6v6h-6zm9.1 0v-6h5.9v6h-5.9zm-.1-14.9h6v5.9h-6v-5.9zm-8.9 0h5.9v5.9h-5.9v-5.9zm0 17.8h5.9v6h-5.9v-6zm14.8 32.9h-6v-5.9h6v5.9zm-14.9-8.9v-6h6v6h-6zm9.1 0v-6h5.9v6h-5.9zm-.1-14.9h6v6h-6v-6zm-8.9 0h5.9v6h-5.9v-6zm0 17.9h5.9v6h-5.9v-6zm37.2-27.6v-7.1h-3.2V113H167v-6.5h-2v6.5h-2.3v6.9h-3.2v7.1h-2.6v46.6h18.4V127h-2.8zm-6.7 28h-6v-6h6v6zm0-18.2h-6v-6h6v6zm7 9h-6v-6h6v6zM122.9 193h-5.1v-4.3h4.5v-1.3h-4.5v-4.1h4.8V182h-6.2v12.3h6.5zM132.3 188.9c0-1.2-.3-2.1-.8-2.7s-1.2-.9-2.2-.9c-1.3 0-2.2.6-2.9 1.7v-1.5H125v8.8h1.4v-5c0-.8.2-1.5.7-2s1-.8 1.7-.8c1.4 0 2 .9 2 2.8v5h1.4v-5.4h.1zM139.3 193c-.3.2-.6.3-.9.3-.5 0-.8-.1-1-.4s-.3-.7-.3-1.3v-4.9h2.2v-1.2h-2.2v-2.6l-1.4.5v2.1h-1.5v1.2h1.5v5.2c0 1.7.8 2.6 2.3 2.6.5 0 1-.1 1.3-.3V193zM142 189.1c.1-.8.4-1.4.9-1.9s1-.7 1.7-.7 1.2.2 1.6.7c.4.5.6 1.1.6 1.9H142zm6.1.4c0-1.3-.3-2.4-.9-3.1-.6-.7-1.5-1.1-2.7-1.1s-2.1.4-2.9 1.3-1.2 2-1.2 3.3c0 1.4.4 2.6 1.1 3.4.7.8 1.7 1.2 2.9 1.2 1.3 0 2.3-.3 3.1-.8v-1.3c-.8.7-1.7 1-2.7 1-.9 0-1.6-.3-2.1-.8s-.8-1.3-.8-2.3h6.2v-.8zM154.5 185.5c-.2-.1-.5-.1-.8-.1-.5 0-1 .2-1.4.5s-.7.8-.9 1.4v-1.8H150v8.8h1.4v-4.5c0-1 .2-1.7.6-2.3.4-.6.9-.8 1.5-.8.5 0 .8.1 1.1.3v-1.5h-.1zM157.9 187.4c.5-.6 1.2-.9 2-.9s1.4.3 1.8.8c.5.6.7 1.3.7 2.3 0 1.2-.2 2.1-.7 2.7-.5.7-1.2 1-2 1-.7 0-1.3-.3-1.8-.8s-.7-1.1-.7-1.8v-1.2c-.1-.9.2-1.6.7-2.1zm1.9 7.1c1.2 0 2.2-.4 2.9-1.3s1.1-2.1 1.1-3.5c0-1.3-.3-2.4-1-3.2-.6-.8-1.5-1.2-2.6-1.2-1.3 0-2.3.6-3 1.7v-1.5h-1.4v12.8h1.4V193c.6 1 1.5 1.5 2.6 1.5zM170.6 185.5c-.2-.1-.5-.1-.8-.1-.5 0-1 .2-1.4.5s-.7.8-.9 1.4v-1.8H166v8.8h1.4v-4.5c0-1 .2-1.7.6-2.3.4-.6.9-.8 1.5-.8.5 0 .8.1 1.1.3v-1.5zM174.7 185.5h-1.4v8.8h1.4v-8.8zm0-2.5c.2-.2.3-.4.3-.6 0-.3-.1-.5-.3-.7s-.4-.3-.7-.3-.5.1-.6.3c-.2.2-.3.4-.3.7s.1.5.3.7.4.3.6.3c.3-.1.5-.2.7-.4zM179.5 194.5c.5 0 .9-.1 1.3-.2s.8-.3 1.1-.5.6-.5.8-.8.3-.7.3-1.1-.1-.7-.2-.9-.3-.5-.5-.7-.5-.4-.8-.5-.7-.3-1-.5c-.3-.1-.6-.2-.8-.3l-.6-.3c-.2-.1-.3-.3-.4-.4-.1-.2-.1-.3-.1-.6 0-.2 0-.4.1-.5.1-.2.2-.3.4-.4s.3-.2.5-.3.4-.1.7-.1c.8 0 1.6.2 2.2.6v-1.4c-.6-.3-1.3-.4-2-.4-.4 0-.8.1-1.2.2s-.8.3-1.1.5-.6.5-.8.8-.3.7-.3 1.1c0 .3.1.6.2.9.1.3.2.5.4.7s.4.4.7.5c.3.2.6.3 1 .5.3.1.5.2.8.3.2.1.5.2.6.3.2.1.3.3.4.4.1.2.2.4.2.6 0 .8-.6 1.2-1.9 1.2-.9 0-1.8-.3-2.5-.8v1.5c.8.4 1.6.6 2.5.6zM185.9 189.1c.1-.8.4-1.4.9-1.9s1-.7 1.7-.7 1.2.2 1.6.7c.4.5.6 1.1.6 1.9h-4.8zm6.2.4c0-1.3-.3-2.4-.9-3.1-.6-.7-1.5-1.1-2.7-1.1s-2.1.4-2.9 1.3-1.2 2-1.2 3.3c0 1.4.4 2.6 1.1 3.4.7.8 1.7 1.2 2.9 1.2 1.3 0 2.3-.3 3.1-.8v-1.3c-.8.7-1.7 1-2.7 1-.9 0-1.6-.3-2.1-.8s-.8-1.3-.8-2.3h6.2v-.8z"/></g></g><path fill="#DEDEDE" d="M239.9 376.2c-.4 0-.8-.1-1.2-.4-1.3-1-2.6-2-4-2.9-.9-.6-1.1-1.9-.5-2.8s1.9-1.1 2.8-.5c1.4 1 2.8 2 4.1 3 .9.7 1.1 1.9.4 2.8-.4.5-1 .8-1.6.8zM70.7 374.3c-.6 0-1.2-.3-1.6-.8-.6-.9-.4-2.1.5-2.8 1.4-1 2.8-2 4.2-2.9.9-.6 2.2-.4 2.8.6.6.9.4 2.2-.6 2.8-1.4.9-2.7 1.9-4.1 2.8-.4.2-.8.3-1.2.3zM228.3 368.3c-.4 0-.7-.1-1-.3-1.4-.8-2.8-1.7-4.2-2.5-1-.5-1.3-1.8-.8-2.7.5-1 1.8-1.3 2.7-.8 1.5.8 2.9 1.7 4.4 2.6.9.6 1.2 1.8.7 2.7-.4.7-1.1 1-1.8 1zM82.4 366.7c-.7 0-1.4-.4-1.7-1-.6-1-.2-2.2.7-2.7 1.5-.8 2.9-1.7 4.4-2.5 1-.5 2.2-.2 2.7.8s.2 2.2-.8 2.7c-1.4.8-2.9 1.6-4.3 2.4-.3.2-.7.3-1 .3zM216.1 361.6c-.3 0-.6-.1-.9-.2l-4.5-2.1c-1-.4-1.5-1.6-1-2.6.4-1 1.6-1.5 2.6-1 1.5.7 3.1 1.4 4.6 2.1 1 .5 1.4 1.7.9 2.7-.3.7-1 1.1-1.7 1.1zM94.9 360.3c-.8 0-1.5-.4-1.8-1.2-.5-1 0-2.2 1-2.6 1.5-.7 3.1-1.4 4.7-2 1-.4 2.2.1 2.6 1.1s-.1 2.2-1.1 2.6c-1.5.6-3 1.3-4.5 2-.4 0-.7.1-.9.1zM203.2 356.2c-.2 0-.5 0-.7-.1-1.5-.6-3.1-1.1-4.7-1.6-1-.3-1.6-1.5-1.3-2.5.3-1.1 1.5-1.6 2.5-1.3 1.6.5 3.2 1.1 4.8 1.7 1 .4 1.6 1.5 1.2 2.6-.2.7-1 1.2-1.8 1.2zM107.9 355.1c-.8 0-1.6-.5-1.9-1.4-.4-1 .2-2.2 1.2-2.5 1.6-.5 3.2-1.1 4.8-1.6 1.1-.3 2.2.3 2.5 1.3.3 1.1-.3 2.2-1.3 2.5-1.6.5-3.1 1-4.7 1.5-.2.2-.4.2-.6.2zM189.9 352c-.2 0-.3 0-.5-.1-1.6-.4-3.2-.8-4.8-1.1-1.1-.2-1.8-1.3-1.5-2.4.2-1.1 1.3-1.8 2.4-1.5 1.6.4 3.3.8 4.9 1.2 1.1.3 1.7 1.4 1.4 2.4-.2.9-1 1.5-1.9 1.5zM121.3 351.2c-.9 0-1.7-.6-1.9-1.5-.3-1.1.4-2.2 1.5-2.4 1.6-.4 3.3-.7 5-1.1 1.1-.2 2.1.5 2.3 1.6s-.5 2.1-1.6 2.3c-1.6.3-3.2.7-4.8 1-.2.1-.3.1-.5.1zM176.2 349.2h-.3c-1.6-.3-3.3-.5-4.9-.7-1.1-.1-1.9-1.1-1.7-2.2.1-1.1 1.1-1.9 2.2-1.7 1.7.2 3.4.4 5 .7 1.1.2 1.8 1.2 1.7 2.3-.2.9-1.1 1.6-2 1.6zM135.1 348.7c-1 0-1.8-.7-2-1.7-.1-1.1.6-2.1 1.7-2.2 1.7-.2 3.4-.4 5-.6 1.1-.1 2.1.7 2.2 1.8.1 1.1-.7 2.1-1.8 2.2-1.6.2-3.3.3-4.9.6l-.2-.1zM162.3 347.7h-.1c-1.6-.1-3.3-.2-4.9-.2-.7 0-1.2-.3-1.6-.8-.4.5-.9.8-1.6.8-1.7 0-3.3 0-4.9.1-1.1 0-2-.8-2.1-1.9s.8-2 1.9-2.1c1.7-.1 3.4-.1 5.1-.1.7 0 1.3.3 1.6.8.4-.5 1-.8 1.6-.8 1.7 0 3.4.1 5.1.2 1.1.1 1.9 1 1.9 2.1-.1 1.1-1 1.9-2 1.9zM316.8 356.9c.4.7.7 1.5.7 2.4 0 1-.3 1.8-1 2.4-.6.6-1.5.9-2.6.9s-2-.3-2.7-1-1-1.5-1-2.6c0-.8.2-1.5.6-2.2h-1.6c-.3.6-.4 1.4-.4 2.4 0 1.5.5 2.7 1.4 3.7s2.2 1.4 3.8 1.4c1.5 0 2.6-.4 3.5-1.3s1.3-2 1.3-3.4c0-1.1-.2-2-.6-2.8h-1.4v.1zM308.9 366.2h9.8v1.7h-9.8zM308.9 369.6v5.3h9.8v-1.6h-4.1v-3.4h-1.4v3.4h-2.9v-3.7zM245.4 378.5c-.6.7-.6 1.9 0 2.6h5.9c-1-1-2.1-1.9-3.2-2.8-.7-.7-2-.6-2.7.2zM65.1 376.6c-.7-.9-1.9-1-2.8-.3l-3.9 3.3c-.4.4-.7.9-.7 1.5h5c.7-.6 1.4-1.2 2.1-1.7.9-.7 1-1.9.3-2.8z"/><g class="azureBlue" fill="#898989"><path d="M711.6 380.5c-.6 0-1.1-.2-1.5-.7-.7-.8-.6-2.1.2-2.8l3.9-3.3c.9-.7 2.1-.6 2.8.3s.6 2.1-.3 2.8c-1.3 1-2.5 2.1-3.8 3.2-.4.3-.8.5-1.3.5zM894.3 375.5c-.4 0-.9-.1-1.2-.4l-3.9-3c-.9-.7-1.1-1.9-.4-2.8.7-.9 1.9-1.1 2.8-.4 1.3 1 2.7 2 4 3.1.9.7 1 1.9.3 2.8-.4.5-1 .7-1.6.7zM722.5 371.7c-.6 0-1.2-.3-1.6-.8-.6-.9-.4-2.1.5-2.8 1.4-1 2.8-2 4.2-2.9.9-.6 2.2-.4 2.8.6.6.9.4 2.2-.6 2.8-1.4.9-2.7 1.9-4.1 2.8-.4.2-.8.3-1.2.3zM882.9 367.4c-.4 0-.7-.1-1.1-.3-1.4-.9-2.8-1.8-4.2-2.6-1-.6-1.3-1.8-.7-2.7.6-1 1.8-1.3 2.7-.7 1.4.9 2.9 1.8 4.3 2.7.9.6 1.2 1.8.6 2.8-.3.5-.9.8-1.6.8zM734.3 364.1c-.7 0-1.4-.4-1.7-1-.6-1-.2-2.2.7-2.7 1.5-.8 2.9-1.7 4.4-2.5 1-.5 2.2-.2 2.7.8s.2 2.2-.8 2.7c-1.4.8-2.9 1.6-4.3 2.4-.3.2-.7.3-1 .3zM870.8 360.4c-.3 0-.6-.1-.9-.2-1.4-.7-2.9-1.5-4.4-2.2-1-.5-1.4-1.7-1-2.7.5-1 1.7-1.4 2.7-1 1.5.7 3.1 1.5 4.5 2.2 1 .5 1.4 1.7.9 2.7-.3.9-1.1 1.2-1.8 1.2zM746.7 357.7c-.8 0-1.5-.4-1.8-1.2-.5-1 0-2.2 1-2.6 1.5-.7 3.1-1.4 4.7-2 1-.4 2.2.1 2.6 1.1s-.1 2.2-1.1 2.6c-1.5.6-3 1.3-4.5 2-.3 0-.6.1-.9.1zM858.1 354.7c-.2 0-.5 0-.7-.1-1.5-.6-3.1-1.2-4.6-1.7-1-.4-1.6-1.5-1.2-2.6.4-1 1.5-1.6 2.6-1.2l4.8 1.8c1 .4 1.5 1.6 1.1 2.6-.5.7-1.2 1.2-2 1.2zM759.7 352.5c-.8 0-1.6-.5-1.9-1.4-.4-1 .2-2.2 1.2-2.5 1.6-.5 3.2-1.1 4.8-1.6 1.1-.3 2.2.3 2.5 1.3.3 1.1-.3 2.2-1.3 2.5-1.6.5-3.1 1-4.7 1.5-.1.2-.3.2-.6.2zM844.8 350.2c-.2 0-.4 0-.5-.1-1.6-.4-3.2-.9-4.8-1.3-1.1-.3-1.7-1.3-1.5-2.4s1.3-1.7 2.4-1.5c1.6.4 3.3.8 4.9 1.3 1.1.3 1.7 1.4 1.4 2.5-.2 1-1 1.5-1.9 1.5zM773.2 348.6c-.9 0-1.7-.6-1.9-1.5-.3-1.1.4-2.2 1.5-2.4 1.6-.4 3.3-.7 5-1.1 1.1-.2 2.1.5 2.3 1.6s-.5 2.1-1.6 2.3c-1.6.3-3.2.7-4.8 1-.2.1-.3.1-.5.1zM831.2 347.1h-.4c-1.6-.3-3.3-.6-4.9-.8-1.1-.2-1.9-1.2-1.7-2.3.2-1.1 1.2-1.8 2.3-1.7 1.7.2 3.3.5 5 .8 1.1.2 1.8 1.2 1.6 2.3-.1 1-.9 1.7-1.9 1.7zM787 346.1c-1 0-1.8-.7-2-1.7-.1-1.1.6-2.1 1.7-2.2 1.7-.2 3.4-.4 5-.6 1.1-.1 2.1.7 2.2 1.8.1 1.1-.7 2.1-1.8 2.2-1.6.2-3.3.3-4.9.6l-.2-.1zM817.3 345.3h-.2c-1.6-.1-3.3-.2-4.9-.3-1.1 0-2-1-1.9-2.1s1-1.9 2.1-1.9l5.1.3c1.1.1 1.9 1.1 1.8 2.2-.1 1-.9 1.8-2 1.8zM800.9 345c-1.1 0-2-.9-2-1.9 0-1.1.8-2 1.9-2.1 1.7-.1 3.4-.1 5.1-.1 1.1 0 2 .9 2 2s-.9 2-2 2c-1.6 0-3.3 0-5 .1zM818.1 327.6l-7.2-7.2-.8 1 6.2 6.2-6.2 6.2.8 1zM791.6 327.6l7.2-7.2.9 1-6.3 6.2 6.3 6.2-.9 1z"/><path d="M801.7 327.6c0 .9-.7 1.6-1.6 1.6-.9 0-1.6-.7-1.6-1.6s.7-1.6 1.6-1.6 1.6.7 1.6 1.6z"/><circle cx="804.9" cy="327.6" r="1.6"/><circle cx="809.7" cy="327.6" r="1.6"/><path d="M902.5 377.7c-.8-.7-2.1-.6-2.8.2s-.6 2.1.2 2.8l.4.4h5.9c-1.2-1.1-2.4-2.3-3.7-3.4z"/></g><path fill="#DEDEDE" d="M314.6 380.3v-3.4h-1.4v3.4h-2.9v-3.7h-1.4v4.5h9.8v-.8z"/></g></svg>