<svg class="infographic--3__fullwidth" xmlns="http://www.w3.org/2000/svg" viewBox="0 0 960 382.6"><g class="static"><g class="outline"><path fill="none" stroke="#898989" stroke-width="2" stroke-miterlimit="10" d="M714.6 108.3h181.5v34.3H714.6zM768.4 69.4c0-14.9-12.1-26.9-26.9-26.9s-26.9 12.1-26.9 26.9V98.3h53.8V69.4zM832.2 69.4c0-14.9-12.1-26.9-26.9-26.9s-26.9 12.1-26.9 26.9V98.3h53.8V69.4zM896.1 69.4c0-14.9-12.1-26.9-26.9-26.9s-26.9 12.1-26.9 26.9V98.3h53.8V69.4zM714.6 278.1h181.5v34.2H714.6zM768.4 239.2c0-14.9-12.1-26.9-26.9-26.9s-26.9 12.1-26.9 26.9V268.1h53.8v-28.9zM832.2 239.2c0-14.9-12.1-26.9-26.9-26.9s-26.9 12.1-26.9 26.9V268.1h53.8v-28.9zM896.1 239.2c0-14.9-12.1-26.9-26.9-26.9s-26.9 12.1-26.9 26.9V268.1h53.8v-28.9z"/><g class="text" fill="#898989"><path d="M751.3 65.9c1.4 0 2.1.5 2.1 1.5 0 .5-.2.9-.5 1.2s-.8.4-1.4.4h-1.4v-3.1h1.2zm.1-4.1c1.1 0 1.7.4 1.7 1.3 0 .5-.2.9-.5 1.1-.3.3-.8.4-1.3.4h-1v-2.8h1.1zm.3 8.5c1 0 1.8-.3 2.5-.8s1-1.2 1-2c0-.7-.2-1.2-.6-1.6-.4-.4-.9-.7-1.6-.7.6-.2 1-.5 1.3-.9s.5-.9.5-1.4c0-.7-.3-1.2-.8-1.6-.6-.4-1.3-.6-2.2-.6h-3.1v9.8h3v-.2zm-4.9-1.4H743V66h3.4v-1.4H743v-2.8h3.6v-1.3h-5.3v9.8h5.5v-1.4zm-8.5-8.4l-1.7 7.2c-.1.4-.1.7-.2.9 0-.3-.1-.6-.1-.9l-1.8-7.2h-1.7l-2 7.1c-.1.4-.2.7-.2.9 0-.3-.1-.6-.1-.9l-1.8-7.1h-1.8l2.7 9.8h1.9l1.9-6.8c.1-.3.1-.6.2-.9 0 .3.1.7.1 1l1.9 6.8h1.8l2.7-9.8-1.8-.1zM756.7 77c-.3.2-.5.4-.8.5-.2.1-.5.3-.7.4s-.5.2-.7.3-.5.2-.8.3v1.3c.4-.1.8-.2 1.1-.4.3-.1.6-.3.9-.5v8h1.6v-10l-.6.1zm-11.5 1.6c1.3 0 2 .6 2 1.7 0 .6-.2 1-.5 1.4-.4.3-.9.5-1.6.5h-1v-3.6h1.1zm.1 4.9c1.1 0 2-.3 2.6-.9s1-1.4 1-2.3-.3-1.7-.9-2.2-1.5-.8-2.6-.8h-3v9.8h1.6v-3.6h1.3zm-8.3-4.9c1.3 0 2 .6 2 1.7 0 .6-.2 1-.5 1.4-.4.3-.9.5-1.6.5h-1v-3.6h1.1zm.2 4.9c1.1 0 2-.3 2.6-.9s1-1.4 1-2.3-.3-1.7-.9-2.2-1.5-.8-2.6-.8h-3v9.8h1.6v-3.6h1.3zm-10.3-.3l1.3-3.9c0-.1.1-.4.1-.6 0 .3.1.5.1.6l1.4 3.9h-2.9zm2.4-5.9h-1.8l-3.7 9.8h1.8l.8-2.5h3.8l.9 2.5h1.8l-3.6-9.8zM856.1 129.9c.2-.2.3-.4.3-.6 0-.3-.1-.5-.3-.7s-.4-.3-.7-.3-.5.1-.7.3-.3.4-.3.7c0 .2.1.5.3.6s.4.3.7.3c.3 0 .5-.1.7-.3zm-3.3 0c.2-.2.3-.4.3-.6 0-.3-.1-.5-.3-.7s-.4-.3-.7-.3-.5.1-.7.3-.3.4-.3.7c0 .2.1.5.3.6s.4.3.7.3c.2 0 .5-.1.7-.3zm-3.4 0c.2-.2.3-.4.3-.6 0-.3-.1-.5-.3-.7s-.4-.3-.7-.3-.5.1-.7.3-.3.4-.3.7c0 .2.1.5.3.6s.4.3.7.3.5-.1.7-.3zm-6-4.8l3-4.8h-1.8l-1.8 3.3c-.1.2-.2.4-.3.7-.1-.2-.2-.4-.3-.7l-1.8-3.3h-2l2.9 4.8-3.2 4.9h2l2.1-3.6c.1-.2.2-.4.2-.5.1.2.1.4.2.5l2 3.6h1.9l-3.1-4.9zm-6.3.7c0-.9-.2-1.6-.6-2.1-.4-.5-1-.7-1.7-.7-1 0-1.7.4-2.3 1.3v-1.2h-1.6v7h1.6v-4c0-.5.2-1 .5-1.4s.7-.5 1.2-.5c.9 0 1.4.7 1.4 2v3.9h1.6v-4.3h-.1zm-8.3-2.7h-1.6v7h1.6v-7zm-.1-1.7c.2-.2.3-.4.3-.6 0-.3-.1-.5-.3-.6-.2-.2-.4-.3-.7-.3s-.5.1-.7.3-.3.4-.3.6c0 .3.1.5.3.6s.4.3.7.3c.3-.1.5-.2.7-.3zm-5.6 7c-.3.4-.8.6-1.3.6s-1-.2-1.3-.6c-.3-.4-.5-1-.5-1.6 0-.8.2-1.4.5-1.9s.8-.7 1.4-.7c.5 0 .9.2 1.2.5s.5.8.5 1.3v.9c0 .6-.1 1.1-.5 1.5zm2.1-5.3h-1.6v1c-.4-.8-1.1-1.1-2-1.1-1 0-1.7.3-2.3 1s-.8 1.6-.8 2.8c0 1 .3 1.9.8 2.5s1.2.9 2.1.9c1 0 1.8-.4 2.4-1.3v.8c0 1.6-.8 2.4-2.5 2.4-.7 0-1.4-.2-2.2-.7v1.4c.7.3 1.5.5 2.4.5 2.6 0 3.9-1.3 3.9-3.8v-6.4h-.2zm-8.6-2.8H815v6.3c0 .6 0 1.1.1 1.3-.1-.1-.2-.3-.4-.6l-4.5-7h-1.9v9.8h1.6v-6.4c0-.7 0-1.1-.1-1.3l.3.6 4.7 7.2h1.8v-9.9zm-15.6 8.1l-.7 3.4h1.2l1.1-3.4H801zm-6.3-2.5c.1-.5.3-1 .6-1.3s.7-.5 1.2-.5.8.2 1.1.5.4.8.4 1.3h-3.3zm4.8.5c0-1.1-.3-1.9-.8-2.5s-1.3-.9-2.2-.9-1.7.3-2.4 1-1 1.6-1 2.6c0 1.1.3 2 .9 2.7.6.6 1.4.9 2.4.9s1.9-.2 2.5-.6v-1.3c-.6.4-1.3.7-2 .7s-1.2-.2-1.6-.5c-.4-.3-.6-.8-.6-1.5h4.7l.1-.6zm-7.8-.6c0-1.9-.8-2.8-2.3-2.8-1 0-1.7.4-2.3 1.3v-4.5h-1.6v10.3h1.6v-3.7c0-.6.2-1.1.5-1.5s.7-.6 1.2-.6c.9 0 1.4.7 1.4 2.1v3.8h1.6v-4.4h-.1zm-7.8 2.5c-.5.4-1 .6-1.6.6-.7 0-1.2-.2-1.6-.6-.4-.4-.6-1-.6-1.7s.2-1.3.6-1.8 1-.7 1.6-.7c.5 0 1.1.2 1.6.5v-1.5c-.5-.2-1-.3-1.7-.3-1.1 0-2.1.3-2.7 1s-1 1.6-1 2.8c0 1 .3 1.9 1 2.5.6.6 1.5 1 2.5 1 .8 0 1.4-.2 2-.5l-.1-1.3zm-8.4-1.1c0 .5-.2.9-.5 1.3-.3.3-.7.5-1.2.5-.4 0-.6-.1-.8-.3s-.3-.4-.3-.7c0-.4.1-.7.3-.8.2-.2.6-.3 1-.3l1.5-.2v.5zm1.5-1.7c0-1.7-.9-2.6-2.6-2.6-1 0-1.8.2-2.5.7v1.4c.7-.6 1.4-.9 2.2-.9.9 0 1.4.5 1.4 1.5l-2.1.3c-1.5.2-2.3 1-2.3 2.3 0 .6.2 1.1.6 1.5s.9.6 1.6.6c.9 0 1.6-.4 2.1-1.3v1.1h1.5l.1-4.6zm-11.5-.7c.3-.4.8-.6 1.4-.6.5 0 1 .2 1.3.6s.5.9.5 1.6c0 .8-.2 1.5-.5 1.9-.3.5-.8.7-1.4.7-.5 0-.9-.2-1.2-.5-.3-.4-.5-.8-.5-1.3v-.9c-.1-.6.1-1.1.4-1.5zm1.6 5.4c1 0 1.7-.3 2.3-1s.8-1.6.8-2.8c0-1-.2-1.9-.7-2.5s-1.2-.9-2.1-.9c-1 0-1.8.5-2.4 1.4v-1.2h-1.6v10.2h1.6v-4.2c.5.6 1.2 1 2.1 1zm-10.9-4l1.3-3.9c0-.1.1-.4.1-.6 0 .3.1.5.1.6l1.4 3.9h-2.9zm2.4-5.9h-1.8l-3.7 9.8h1.8l.8-2.5h3.8l.9 2.5h1.8l-3.6-9.8zM815.2 65.9c1.4 0 2.1.5 2.1 1.5 0 .5-.2.9-.5 1.2s-.8.4-1.4.4H814v-3.1h1.2zm0-4.1c1.1 0 1.7.4 1.7 1.3 0 .5-.2.9-.5 1.1-.3.3-.8.4-1.3.4h-1v-2.8h1.1zm.3 8.5c1 0 1.8-.3 2.5-.8s1-1.2 1-2c0-.7-.2-1.2-.6-1.6-.4-.4-.9-.7-1.6-.7.6-.2 1-.5 1.3-.9s.5-.9.5-1.4c0-.7-.3-1.2-.8-1.6-.6-.4-1.3-.6-2.2-.6h-3.1v9.8h3v-.2zm-4.8-1.4h-3.9V66h3.4v-1.4h-3.4v-2.8h3.6v-1.3h-5.3v9.8h5.5v-1.4h.1zm-8.5-8.4l-1.7 7.2c-.1.4-.1.7-.2.9 0-.3-.1-.6-.1-.9l-1.8-7.2h-1.7l-2 7.1c-.1.4-.2.7-.2.9 0-.3-.1-.6-.1-.9l-1.8-7.1h-1.8l2.7 9.8h1.9l1.9-6.8c.1-.3.1-.6.2-.9 0 .3.1.7.1 1l1.9 6.8h1.8l2.7-9.8-1.8-.1zM822.7 85.7h-4.4c0-.2.1-.4.2-.6.1-.2.3-.4.5-.6s.4-.4.7-.6.5-.4.8-.6c.3-.3.6-.5.8-.8s.5-.5.6-.8c.2-.3.3-.6.4-.9.1-.3.1-.7.1-1.1s-.1-.8-.2-1.2c-.1-.3-.3-.6-.6-.8s-.6-.4-.9-.5c-.4-.1-.8-.2-1.2-.2-.3 0-.5 0-.8.1-.2 0-.5.1-.7.2l-.6.3c-.2.1-.4.2-.6.4v1.5c.4-.4.8-.7 1.2-.8.4-.2.8-.3 1.2-.3.2 0 .4 0 .6.1.2.1.4.2.5.3s.3.3.3.5c.1.2.1.4.1.7 0 .2 0 .5-.1.7l-.3.6c-.1.2-.3.4-.4.5-.2.2-.4.3-.6.5-.2.2-.4.4-.7.6-.2.2-.5.4-.7.6l-.6.6c-.2.2-.4.4-.5.7-.1.2-.3.5-.3.8s-.1.6-.1.9v.8h6.1v-1.6h.2zM808 78.6c1.3 0 2 .6 2 1.7 0 .6-.2 1-.5 1.4-.4.3-.9.5-1.6.5h-1v-3.6h1.1zm.1 4.9c1.1 0 2-.3 2.6-.9s1-1.4 1-2.3-.3-1.7-.9-2.2-1.5-.8-2.6-.8h-3v9.8h1.6v-3.6h1.3zm-8.3-4.9c1.3 0 2 .6 2 1.7 0 .6-.2 1-.5 1.4-.4.3-.9.5-1.6.5h-1v-3.6h1.1zm.1 4.9c1.1 0 2-.3 2.6-.9s1-1.4 1-2.3-.3-1.7-.9-2.2-1.5-.8-2.6-.8h-3v9.8h1.6v-3.6h1.3zm-10.3-.3l1.3-3.9c0-.1.1-.4.1-.6 0 .3.1.5.1.6l1.4 3.9h-2.9zm2.5-5.9h-1.8l-3.7 9.8h1.8l.8-2.5h3.8l.9 2.5h1.8l-3.6-9.8zM879 65.9c1.4 0 2.1.5 2.1 1.5 0 .5-.2.9-.5 1.2s-.8.4-1.4.4h-1.4v-3.1h1.2zm0-4.1c1.1 0 1.7.4 1.7 1.3 0 .5-.2.9-.5 1.1-.3.3-.8.4-1.3.4h-1v-2.8h1.1zm.4 8.5c1 0 1.8-.3 2.5-.8s1-1.2 1-2c0-.7-.2-1.2-.6-1.6-.4-.4-.9-.7-1.6-.7.6-.2 1-.5 1.3-.9s.5-.9.5-1.4c0-.7-.3-1.2-.8-1.6-.6-.4-1.3-.6-2.2-.6h-3.1v9.8h3v-.2zm-4.9-1.4h-3.9V66h3.4v-1.4h-3.4v-2.8h3.6v-1.3H869v9.8h5.5v-1.4zm-8.5-8.4l-1.7 7.2c-.1.4-.1.7-.2.9 0-.3-.1-.6-.1-.9l-1.8-7.2h-1.7l-2 7.1c-.1.4-.2.7-.2.9 0-.3-.1-.6-.1-.9l-1.8-7.1h-1.8l2.7 9.8h1.9l1.9-6.8c.1-.3.1-.6.2-.9 0 .3.1.7.1 1l1.9 6.8h1.8l2.7-9.8-1.8-.1zM882.9 87.2c1.1 0 1.9-.3 2.6-.8.7-.5 1-1.2 1-2.1 0-.6-.2-1.2-.6-1.6-.4-.4-1-.7-1.7-.7 1.3-.4 2-1.2 2-2.5 0-.7-.3-1.2-.8-1.7-.5-.4-1.2-.7-2.1-.7-.9 0-1.7.2-2.3.6v1.4c.6-.5 1.2-.7 1.8-.7 1.2 0 1.8.5 1.8 1.4 0 1-.8 1.6-2.3 1.6h-.7v1.3h.8c1.7 0 2.5.6 2.5 1.7 0 .5-.2.9-.6 1.2s-.9.4-1.6.4c-.8 0-1.5-.3-2.1-.8v1.5c.6.3 1.4.5 2.3.5zm-11.1-8.6c1.3 0 2 .6 2 1.7 0 .6-.2 1-.5 1.4-.4.3-.9.5-1.6.5h-1v-3.6h1.1zm.1 4.9c1.1 0 2-.3 2.6-.9s1-1.4 1-2.3-.3-1.7-.9-2.2-1.5-.8-2.6-.8h-3v9.8h1.6v-3.6h1.3zm-8.2-4.9c1.3 0 2 .6 2 1.7 0 .6-.2 1-.5 1.4-.4.3-.9.5-1.6.5h-1v-3.6h1.1zm.1 4.9c1.1 0 2-.3 2.6-.9s1-1.4 1-2.3-.3-1.7-.9-2.2-1.5-.8-2.6-.8h-3v9.8h1.6v-3.6h1.3zm-10.3-.3l1.3-3.9c0-.1.1-.4.1-.6 0 .3.1.5.1.6l1.4 3.9h-2.9zm2.4-5.9h-1.8l-3.7 9.8h1.8l.8-2.5h3.8l.9 2.5h1.8l-3.6-9.8zM751.3 235.7c1.4 0 2.1.5 2.1 1.5 0 .5-.2.9-.5 1.2s-.8.4-1.4.4h-1.4v-3.1h1.2zm.1-4.1c1.1 0 1.7.4 1.7 1.3 0 .5-.2.9-.5 1.1-.3.3-.8.4-1.3.4h-1v-2.8h1.1zm.3 8.5c1 0 1.8-.3 2.5-.8s1-1.2 1-2c0-.7-.2-1.2-.6-1.6-.4-.4-.9-.7-1.6-.7.6-.2 1-.5 1.3-.9s.5-.9.5-1.4c0-.7-.3-1.2-.8-1.6-.6-.4-1.3-.6-2.2-.6h-3.1v9.8h3v-.2zm-4.9-1.4H743v-2.9h3.4v-1.3H743v-2.8h3.6v-1.4h-5.3v9.8h5.5v-1.4zm-8.5-8.4l-1.7 7.2c-.1.4-.1.7-.2.9 0-.3-.1-.6-.1-.9l-1.8-7.2h-1.7l-2 7.1c-.1.4-.2.7-.2.9 0-.3-.1-.6-.1-.9l-1.8-7.1h-1.8l2.7 9.8h1.9l1.9-6.8c.1-.3.1-.6.2-.9 0 .3.1.7.1 1l1.9 6.8h1.8l2.7-9.8-1.8-.1zM756.7 246.8c-.3.2-.5.4-.8.5-.2.1-.5.3-.7.4-.2.1-.5.2-.7.3s-.5.2-.8.3v1.3c.4-.1.8-.2 1.1-.4.3-.1.6-.3.9-.5v8h1.6v-10l-.6.1zm-11.5 1.6c1.3 0 2 .6 2 1.7 0 .6-.2 1-.5 1.4-.4.3-.9.5-1.6.5h-1v-3.6h1.1zm.1 4.8c1.1 0 2-.3 2.6-.9.6-.6 1-1.4 1-2.3s-.3-1.7-.9-2.2-1.5-.8-2.6-.8h-3v9.8h1.6v-3.5l1.3-.1zm-8.3-4.8c1.3 0 2 .6 2 1.7 0 .6-.2 1-.5 1.4-.4.3-.9.5-1.6.5h-1v-3.6h1.1zm.2 4.8c1.1 0 2-.3 2.6-.9.6-.6 1-1.4 1-2.3s-.3-1.7-.9-2.2-1.5-.8-2.6-.8h-3v9.8h1.6v-3.5l1.3-.1zm-10.3-.2l1.3-3.9c0-.1.1-.4.1-.6 0 .3.1.5.1.6l1.4 3.9h-2.9zm2.4-6h-1.8l-3.7 9.8h1.8l.8-2.5h3.8l.9 2.5h1.8l-3.6-9.8zM856.1 299.7c.2-.2.3-.4.3-.6 0-.3-.1-.5-.3-.7s-.4-.3-.7-.3-.5.1-.7.3-.3.4-.3.7c0 .2.1.5.3.6s.4.3.7.3c.3 0 .5-.1.7-.3zm-3.3 0c.2-.2.3-.4.3-.6 0-.3-.1-.5-.3-.7s-.4-.3-.7-.3-.5.1-.7.3-.3.4-.3.7c0 .2.1.5.3.6s.4.3.7.3c.2 0 .5-.1.7-.3zm-3.4 0c.2-.2.3-.4.3-.6 0-.3-.1-.5-.3-.7s-.4-.3-.7-.3-.5.1-.7.3-.3.4-.3.7c0 .2.1.5.3.6s.4.3.7.3.5-.1.7-.3zm-6-4.8l3-4.8h-1.8l-1.8 3.3c-.1.2-.2.4-.3.7-.1-.2-.2-.4-.3-.7l-1.8-3.3h-2l2.9 4.8-3.2 4.9h2l2.1-3.6c.1-.2.2-.4.2-.5.1.2.1.4.2.5l2 3.6h1.9l-3.1-4.9zm-6.3.7c0-.9-.2-1.6-.6-2.1-.4-.5-1-.7-1.7-.7-1 0-1.7.4-2.3 1.3v-1.2h-1.6v7h1.6v-4c0-.5.2-1 .5-1.4s.7-.5 1.2-.5c.9 0 1.4.7 1.4 2v3.9h1.6v-4.3h-.1zm-8.3-2.7h-1.6v7h1.6v-7zm-.1-1.8c.2-.2.3-.4.3-.6 0-.3-.1-.5-.3-.6-.2-.2-.4-.3-.7-.3s-.5.1-.7.3-.3.4-.3.6c0 .3.1.5.3.6s.4.3.7.3.5-.1.7-.3zm-5.6 7c-.3.4-.8.6-1.3.6s-1-.2-1.3-.6-.5-1-.5-1.6c0-.8.2-1.4.5-1.9s.8-.7 1.4-.7c.5 0 .9.2 1.2.5s.5.8.5 1.3v.9c0 .6-.1 1.1-.5 1.5zm2.1-5.2h-1.6v1c-.4-.8-1.1-1.1-2-1.1-1 0-1.7.3-2.3 1s-.8 1.6-.8 2.8c0 1 .3 1.9.8 2.5s1.2.9 2.1.9c1 0 1.8-.4 2.4-1.3v.8c0 1.6-.8 2.4-2.5 2.4-.7 0-1.4-.2-2.2-.7v1.4c.7.3 1.5.5 2.4.5 2.6 0 3.9-1.3 3.9-3.8v-6.4h-.2zm-8.6-2.8H815v6.3c0 .6 0 1.1.1 1.3-.1-.1-.2-.3-.4-.6l-4.5-7h-1.9v9.8h1.6v-6.4c0-.7 0-1.1-.1-1.3l.3.6 4.7 7.2h1.8v-9.9zm-15.6 8.1l-.7 3.4h1.2l1.1-3.4H801zm-6.3-2.5c.1-.5.3-1 .6-1.3s.7-.5 1.2-.5.8.2 1.1.5.4.8.4 1.3h-3.3zm4.8.5c0-1.1-.3-1.9-.8-2.5s-1.3-.9-2.2-.9-1.7.3-2.4 1-1 1.6-1 2.6c0 1.1.3 2 .9 2.7.6.6 1.4.9 2.4.9s1.9-.2 2.5-.6v-1.3c-.6.4-1.3.7-2 .7s-1.2-.2-1.6-.5c-.4-.3-.6-.8-.6-1.5h4.7l.1-.6zm-7.8-.7c0-1.9-.8-2.8-2.3-2.8-1 0-1.7.4-2.3 1.3v-4.5h-1.6v10.3h1.6v-3.7c0-.6.2-1.1.5-1.5s.7-.6 1.2-.6c.9 0 1.4.7 1.4 2.1v3.8h1.6v-4.4h-.1zm-7.8 2.6c-.5.4-1 .6-1.6.6-.7 0-1.2-.2-1.6-.6s-.6-1-.6-1.7.2-1.3.6-1.8 1-.7 1.6-.7c.5 0 1.1.2 1.6.5v-1.5c-.5-.2-1-.3-1.7-.3-1.1 0-2.1.3-2.7 1s-1 1.6-1 2.8c0 1 .3 1.9 1 2.5.6.6 1.5 1 2.5 1 .8 0 1.4-.2 2-.5l-.1-1.3zm-8.4-1.1c0 .5-.2.9-.5 1.3-.3.3-.7.5-1.2.5-.4 0-.6-.1-.8-.3s-.3-.4-.3-.7c0-.4.1-.7.3-.8.2-.2.6-.3 1-.3l1.5-.2v.5zm1.5-1.7c0-1.7-.9-2.6-2.6-2.6-1 0-1.8.2-2.5.7v1.4c.7-.6 1.4-.9 2.2-.9.9 0 1.4.5 1.4 1.5l-2.1.3c-1.5.2-2.3 1-2.3 2.3 0 .6.2 1.1.6 1.5s.9.6 1.6.6c.9 0 1.6-.4 2.1-1.3v1.1h1.5l.1-4.6zm-11.5-.7c.3-.4.8-.6 1.4-.6.5 0 1 .2 1.3.6s.5.9.5 1.6c0 .8-.2 1.5-.5 1.9-.3.5-.8.7-1.4.7-.5 0-.9-.2-1.2-.5-.3-.4-.5-.8-.5-1.3v-.9c-.1-.7.1-1.1.4-1.5zm1.6 5.4c1 0 1.7-.3 2.3-1s.8-1.6.8-2.8c0-1-.2-1.9-.7-2.5s-1.2-.9-2.1-.9c-1 0-1.8.5-2.4 1.4V293h-1.6v10.2h1.6V299c.5.6 1.2 1 2.1 1zm-10.9-4l1.3-3.9c0-.1.1-.4.1-.6 0 .3.1.5.1.6l1.4 3.9h-2.9zm2.4-5.9h-1.8l-3.7 9.8h1.8l.8-2.5h3.8l.9 2.5h1.8l-3.6-9.8zM815.2 235.7c1.4 0 2.1.5 2.1 1.5 0 .5-.2.9-.5 1.2s-.8.4-1.4.4H814v-3.1h1.2zm0-4.1c1.1 0 1.7.4 1.7 1.3 0 .5-.2.9-.5 1.1-.3.3-.8.4-1.3.4h-1v-2.8h1.1zm.3 8.5c1 0 1.8-.3 2.5-.8s1-1.2 1-2c0-.7-.2-1.2-.6-1.6-.4-.4-.9-.7-1.6-.7.6-.2 1-.5 1.3-.9s.5-.9.5-1.4c0-.7-.3-1.2-.8-1.6-.6-.4-1.3-.6-2.2-.6h-3.1v9.8h3v-.2zm-4.8-1.4h-3.9v-2.9h3.4v-1.3h-3.4v-2.8h3.6v-1.4h-5.3v9.8h5.5v-1.4h.1zm-8.5-8.4l-1.7 7.2c-.1.4-.1.7-.2.9 0-.3-.1-.6-.1-.9l-1.8-7.2h-1.7l-2 7.1c-.1.4-.2.7-.2.9 0-.3-.1-.6-.1-.9l-1.8-7.1h-1.8l2.7 9.8h1.9l1.9-6.8c.1-.3.1-.6.2-.9 0 .3.1.7.1 1l1.9 6.8h1.8l2.7-9.8-1.8-.1zM822.7 255.4h-4.4c0-.2.1-.4.2-.6.1-.2.3-.4.5-.6.2-.2.4-.4.7-.6.3-.2.5-.4.8-.6.3-.3.6-.5.8-.8s.5-.5.6-.8c.2-.3.3-.6.4-.9.1-.3.1-.7.1-1.1 0-.4-.1-.8-.2-1.2-.1-.3-.3-.6-.6-.8s-.6-.4-.9-.5c-.4-.1-.8-.2-1.2-.2-.3 0-.5 0-.8.1-.2 0-.5.1-.7.2l-.6.3c-.2.1-.4.2-.6.4v1.5c.4-.4.8-.7 1.2-.8.4-.2.8-.3 1.2-.3.2 0 .4 0 .6.1.2.1.4.2.5.3s.3.3.3.5c.1.2.1.4.1.7 0 .2 0 .5-.1.7l-.3.6c-.1.2-.3.4-.4.5-.2.2-.4.3-.6.5-.2.2-.4.4-.7.6-.2.2-.5.4-.7.6l-.6.6c-.2.2-.4.4-.5.7-.1.2-.3.5-.3.8s-.1.6-.1.9v.8h6.1v-1.6h.2zm-14.7-7c1.3 0 2 .6 2 1.7 0 .6-.2 1-.5 1.4-.4.3-.9.5-1.6.5h-1v-3.6h1.1zm.1 4.8c1.1 0 2-.3 2.6-.9.6-.6 1-1.4 1-2.3s-.3-1.7-.9-2.2-1.5-.8-2.6-.8h-3v9.8h1.6v-3.5l1.3-.1zm-8.3-4.8c1.3 0 2 .6 2 1.7 0 .6-.2 1-.5 1.4-.4.3-.9.5-1.6.5h-1v-3.6h1.1zm.1 4.8c1.1 0 2-.3 2.6-.9.6-.6 1-1.4 1-2.3s-.3-1.7-.9-2.2-1.5-.8-2.6-.8h-3v9.8h1.6v-3.5l1.3-.1zm-10.3-.2l1.3-3.9c0-.1.1-.4.1-.6 0 .3.1.5.1.6l1.4 3.9h-2.9zm2.5-6h-1.8l-3.7 9.8h1.8l.8-2.5h3.8l.9 2.5h1.8l-3.6-9.8zM879 235.7c1.4 0 2.1.5 2.1 1.5 0 .5-.2.9-.5 1.2s-.8.4-1.4.4h-1.4v-3.1h1.2zm0-4.1c1.1 0 1.7.4 1.7 1.3 0 .5-.2.9-.5 1.1-.3.3-.8.4-1.3.4h-1v-2.8h1.1zm.4 8.5c1 0 1.8-.3 2.5-.8s1-1.2 1-2c0-.7-.2-1.2-.6-1.6-.4-.4-.9-.7-1.6-.7.6-.2 1-.5 1.3-.9s.5-.9.5-1.4c0-.7-.3-1.2-.8-1.6-.6-.4-1.3-.6-2.2-.6h-3.1v9.8h3v-.2zm-4.9-1.4h-3.9v-2.9h3.4v-1.3h-3.4v-2.8h3.6v-1.4H869v9.8h5.5v-1.4zm-8.5-8.4l-1.7 7.2c-.1.4-.1.7-.2.9 0-.3-.1-.6-.1-.9l-1.8-7.2h-1.7l-2 7.1c-.1.4-.2.7-.2.9 0-.3-.1-.6-.1-.9l-1.8-7.1h-1.8l2.7 9.8h1.9l1.9-6.8c.1-.3.1-.6.2-.9 0 .3.1.7.1 1l1.9 6.8h1.8l2.7-9.8-1.8-.1zM882.9 256.9c1.1 0 1.9-.3 2.6-.8.7-.5 1-1.2 1-2.1 0-.6-.2-1.2-.6-1.6-.4-.4-1-.7-1.7-.7 1.3-.4 2-1.2 2-2.5 0-.7-.3-1.2-.8-1.7-.5-.4-1.2-.7-2.1-.7-.9 0-1.7.2-2.3.6v1.4c.6-.5 1.2-.7 1.8-.7 1.2 0 1.8.5 1.8 1.4 0 1-.8 1.6-2.3 1.6h-.7v1.3h.8c1.7 0 2.5.6 2.5 1.7 0 .5-.2.9-.6 1.2s-.9.4-1.6.4c-.8 0-1.5-.3-2.1-.8v1.5c.6.4 1.4.5 2.3.5zm-11.1-8.5c1.3 0 2 .6 2 1.7 0 .6-.2 1-.5 1.4-.4.3-.9.5-1.6.5h-1v-3.6h1.1zm.1 4.8c1.1 0 2-.3 2.6-.9.6-.6 1-1.4 1-2.3s-.3-1.7-.9-2.2-1.5-.8-2.6-.8h-3v9.8h1.6v-3.5l1.3-.1zm-8.2-4.8c1.3 0 2 .6 2 1.7 0 .6-.2 1-.5 1.4-.4.3-.9.5-1.6.5h-1v-3.6h1.1zm.1 4.8c1.1 0 2-.3 2.6-.9.6-.6 1-1.4 1-2.3s-.3-1.7-.9-2.2-1.5-.8-2.6-.8h-3v9.8h1.6v-3.5l1.3-.1zm-10.3-.2l1.3-3.9c0-.1.1-.4.1-.6 0 .3.1.5.1.6l1.4 3.9h-2.9zm2.4-6h-1.8l-3.7 9.8h1.8l.8-2.5h3.8l.9 2.5h1.8l-3.6-9.8z"/></g></g><path fill="none" stroke="#DEDEDE" stroke-width="3" stroke-linecap="round" stroke-linejoin="round" stroke-miterlimit="10" d="M152.5 292.3v27.3c0 9.4 7.6 17 17 17h199.1c9.4 0 17 7.6 17 17v29.1M327.5 0v247.9c0 9.4-7.6 17-17 17H201.3M629.8.7v330.1c0 9.4 7.6 17 17 17H756"/><path fill="#DEDEDE" d="M10.9 379.8c-1.1 0-2-.9-2-2v-5c0-1.1.9-2 2-2s2 .9 2 2v5c0 1.1-.9 2-2 2zM297.1 369c-1.1 0-2-.9-2-2v-5c0-1.1.9-2 2-2s2 .9 2 2v5c0 1.1-.9 2-2 2zM10.9 365.8c-1.1 0-2-.9-2-2v-5c0-1.1.9-2 2-2s2 .9 2 2v5c0 1.1-.9 2-2 2zM297.1 355c-1.1 0-2-.9-2-2v-5c0-1.1.9-2 2-2s2 .9 2 2v5c0 1.1-.9 2-2 2zM10.9 351.8c-1.1 0-2-.9-2-2v-5c0-1.1.9-2 2-2s2 .9 2 2v5c0 1.1-.9 2-2 2zM297.1 341c-1.1 0-2-.9-2-2v-5c0-1.1.9-2 2-2s2 .9 2 2v5c0 1.1-.9 2-2 2zM10.9 337.8c-1.1 0-2-.9-2-2v-5c0-1.1.9-2 2-2s2 .9 2 2v5c0 1.1-.9 2-2 2zM297.1 327c-1.1 0-2-.9-2-2v-5c0-1.1.9-2 2-2s2 .9 2 2v5c0 1.1-.9 2-2 2zM10.9 323.8c-1.1 0-2-.9-2-2v-5c0-1.1.9-2 2-2s2 .9 2 2v5c0 1.1-.9 2-2 2zM297.1 313c-1.1 0-2-.9-2-2v-5c0-1.1.9-2 2-2s2 .9 2 2v5c0 1.1-.9 2-2 2zM10.9 309.8c-1.1 0-2-.9-2-2v-5c0-1.1.9-2 2-2s2 .9 2 2v5c0 1.1-.9 2-2 2zM297.1 299c-1.1 0-2-.9-2-2v-5c0-1.1.9-2 2-2s2 .9 2 2v5c0 1.1-.9 2-2 2zM10.9 295.8c-1.1 0-2-.9-2-2v-5c0-1.1.9-2 2-2s2 .9 2 2v5c0 1.1-.9 2-2 2zM297.1 285c-1.1 0-2-.9-2-2v-5c0-1.1.9-2 2-2s2 .9 2 2v5c0 1.1-.9 2-2 2zM10.9 281.8c-1.1 0-2-.9-2-2v-5c0-1.1.9-2 2-2s2 .9 2 2v5c0 1.1-.9 2-2 2zM297.1 271c-1.1 0-2-.9-2-2v-5c0-1.1.9-2 2-2s2 .9 2 2v5c0 1.1-.9 2-2 2zM10.9 267.8c-1.1 0-2-.9-2-2v-5c0-1.1.9-2 2-2s2 .9 2 2v5c0 1.1-.9 2-2 2zM297.1 257c-1.1 0-2-.9-2-2v-5c0-1.1.9-2 2-2s2 .9 2 2v5c0 1.1-.9 2-2 2zM10.9 253.8c-1.1 0-2-.9-2-2v-5c0-1.1.9-2 2-2s2 .9 2 2v5c0 1.1-.9 2-2 2zM297.1 243c-1.1 0-2-.9-2-2v-5c0-1.1.9-2 2-2s2 .9 2 2v5c0 1.1-.9 2-2 2zM10.9 239.8c-1.1 0-2-.9-2-2v-5c0-1.1.9-2 2-2s2 .9 2 2v5c0 1.1-.9 2-2 2zM297.1 229c-1.1 0-2-.9-2-2v-5c0-1.1.9-2 2-2s2 .9 2 2v5c0 1.1-.9 2-2 2zM10.9 225.8c-1.1 0-2-.9-2-2v-5c0-1.1.9-2 2-2s2 .9 2 2v5c0 1.1-.9 2-2 2zM297.1 215c-1.1 0-2-.9-2-2v-5c0-1.1.9-2 2-2s2 .9 2 2v5c0 1.1-.9 2-2 2zM10.9 211.8c-1.1 0-2-.9-2-2v-5c0-1.1.9-2 2-2s2 .9 2 2v5c0 1.1-.9 2-2 2zM297.1 201c-1.1 0-2-.9-2-2v-5c0-1.1.9-2 2-2s2 .9 2 2v5c0 1.1-.9 2-2 2zM10.9 197.8c-1.1 0-2-.9-2-2v-5c0-1.1.9-2 2-2s2 .9 2 2v5c0 1.1-.9 2-2 2zM297.1 187c-1.1 0-2-.9-2-2v-5c0-1.1.9-2 2-2s2 .9 2 2v5c0 1.1-.9 2-2 2zM10.9 183.8c-1.1 0-2-.9-2-2v-5c0-1.1.9-2 2-2s2 .9 2 2v5c0 1.1-.9 2-2 2zM297.1 173c-1.1 0-2-.9-2-2v-5c0-1.1.9-2 2-2s2 .9 2 2v5c0 1.1-.9 2-2 2zM10.9 169.8c-1.1 0-2-.9-2-2v-5c0-1.1.9-2 2-2s2 .9 2 2v5c0 1.1-.9 2-2 2zM297.1 159c-1.1 0-2-.9-2-2v-5c0-1.1.9-2 2-2s2 .9 2 2v5c0 1.1-.9 2-2 2zM10.9 155.8c-1.1 0-2-.9-2-2v-5c0-1.1.9-2 2-2s2 .9 2 2v5c0 1.1-.9 2-2 2zM297.1 145c-1.1 0-2-.9-2-2v-5c0-1.1.9-2 2-2s2 .9 2 2v5c0 1.1-.9 2-2 2zM10.9 141.8c-1.1 0-2-.9-2-2v-5c0-1.1.9-2 2-2s2 .9 2 2v5c0 1.1-.9 2-2 2zM297.1 131c-1.1 0-2-.9-2-2v-5c0-1.1.9-2 2-2s2 .9 2 2v5c0 1.1-.9 2-2 2zM10.9 127.8c-1.1 0-2-.9-2-2v-5c0-1.1.9-2 2-2s2 .9 2 2v5c0 1.1-.9 2-2 2zM297.1 117c-1.1 0-2-.9-2-2v-5c0-1.1.9-2 2-2s2 .9 2 2v5c0 1.1-.9 2-2 2zM10.9 113.8c-1.1 0-2-.9-2-2v-5c0-1.1.9-2 2-2s2 .9 2 2v5c0 1.1-.9 2-2 2zM297 103c-1.1 0-1.9-.8-2-1.9-.1-1.6-.2-3.3-.3-4.9-.1-1.1.7-2.1 1.8-2.2 1.1-.1 2.1.7 2.2 1.8l.3 5.1c0 1.1-.8 2.1-2 2.1zM11.3 99.8h-.1c-1.1-.1-1.9-1-1.9-2.1.1-1.7.3-3.4.4-5 .1-1.1 1.1-1.9 2.2-1.8s1.9 1.1 1.8 2.2c-.2 1.6-.3 3.3-.4 4.9-.1 1-1 1.8-2 1.8zM295.6 89.1c-1 0-1.8-.7-2-1.7-.2-1.6-.5-3.3-.8-4.9-.2-1.1.5-2.1 1.6-2.3s2.1.5 2.3 1.6c.3 1.7.6 3.3.8 5 .2 1.1-.6 2.1-1.7 2.3h-.2zM12.9 85.9h-.3c-1.1-.2-1.8-1.2-1.6-2.3.3-1.7.6-3.3.9-5 .2-1.1 1.3-1.8 2.4-1.6s1.8 1.3 1.6 2.4l-.9 4.8c-.3 1-1.1 1.7-2.1 1.7zM292.9 75.4c-.9 0-1.7-.6-1.9-1.5-.4-1.6-.8-3.2-1.3-4.8-.3-1.1.3-2.2 1.4-2.5s2.2.3 2.5 1.4c.5 1.6.9 3.3 1.3 4.9.3 1.1-.4 2.2-1.5 2.4-.1.1-.3.1-.5.1zM15.9 72.3c-.2 0-.3 0-.5-.1-1.1-.3-1.7-1.4-1.4-2.5.4-1.6.9-3.3 1.4-4.9.3-1.1 1.4-1.6 2.5-1.3s1.6 1.4 1.3 2.5c-.5 1.6-.9 3.2-1.4 4.7-.2 1-1 1.6-1.9 1.6zM288.9 62c-.8 0-1.6-.5-1.9-1.3-.5-1.5-1.1-3.1-1.7-4.6-.4-1 .1-2.2 1.1-2.6 1-.4 2.2.1 2.6 1.1l1.8 4.8c.4 1-.2 2.2-1.2 2.6-.2-.1-.4 0-.7 0zM20.2 59c-.2 0-.5 0-.7-.1-1-.4-1.6-1.5-1.2-2.6.6-1.6 1.2-3.2 1.9-4.7.4-1 1.6-1.5 2.6-1.1s1.5 1.6 1.1 2.6c-.6 1.5-1.2 3-1.8 4.6-.3.8-1.1 1.3-1.9 1.3zM283.6 49c-.8 0-1.5-.4-1.8-1.2-.7-1.5-1.4-3-2.2-4.4-.5-1-.1-2.2.9-2.7s2.2-.1 2.7.9c.8 1.5 1.5 3 2.2 4.6.5 1 0 2.2-1 2.7-.2 0-.5.1-.8.1zM25.8 46.1c-.3 0-.6-.1-.9-.2-1-.5-1.4-1.7-.9-2.7.7-1.5 1.5-3 2.3-4.5.5-1 1.7-1.3 2.7-.8s1.3 1.7.8 2.7c-.8 1.4-1.5 2.9-2.3 4.4-.2.7-.9 1.1-1.7 1.1zM277.1 36.6c-.7 0-1.3-.3-1.7-1-.8-1.4-1.7-2.8-2.6-4.2-.6-.9-.3-2.2.6-2.8s2.2-.3 2.8.6c.9 1.4 1.8 2.9 2.7 4.3.6.9.3 2.2-.7 2.7-.4.3-.8.4-1.1.4zM32.6 33.9c-.4 0-.7-.1-1.1-.3-.9-.6-1.2-1.8-.6-2.8.9-1.4 1.8-2.9 2.8-4.2.6-.9 1.9-1.2 2.8-.5.9.6 1.2 1.9.5 2.8-.9 1.3-1.8 2.7-2.7 4.1-.3.6-1 .9-1.7.9zM269.3 24.9c-.6 0-1.2-.3-1.6-.8l-3-3.9c-.7-.9-.5-2.1.3-2.8.9-.7 2.1-.5 2.8.3 1 1.3 2.1 2.7 3.1 4 .7.9.5 2.1-.4 2.8-.4.3-.8.4-1.2.4zM40.6 22.5c-.4 0-.9-.1-1.2-.4-.9-.7-1-1.9-.4-2.8 1-1.3 2.1-2.7 3.2-4 .7-.9 2-1 2.8-.3.9.7 1 2 .3 2.8-1 1.3-2.1 2.6-3.1 3.9-.4.5-1 .8-1.6.8zM260.5 14.1c-.5 0-1.1-.2-1.5-.7-1.1-1.2-2.2-2.4-3.4-3.6-.8-.8-.7-2.1.1-2.8.8-.8 2.1-.7 2.8.1 1.2 1.2 2.3 2.5 3.4 3.7.7.8.7 2.1-.2 2.8-.3.3-.7.5-1.2.5zM49.7 11.8c-.5 0-1-.2-1.4-.5-.8-.8-.8-2-.1-2.8 1.1-1.2 2.3-2.5 3.5-3.6.8-.8 2-.8 2.8 0s.8 2 0 2.8c-1.2 1.2-2.3 2.3-3.4 3.5-.4.4-.9.6-1.4.6z"/><path fill="#A8A8A8" d="M814.8 12c.2.1.5.1.7.2.3 0 .5.1.7.1h.6c.5 0 1 0 1.4-.1s.8-.3 1.2-.5.6-.5.8-.8.3-.8.3-1.3c0-.4-.1-.7-.2-1-.1-.3-.3-.6-.5-.8s-.5-.5-.8-.6-.6-.4-1-.6c-.3-.1-.6-.3-.9-.4-.3-.1-.5-.3-.6-.4l-.4-.4c-.1-.1-.1-.3-.1-.6 0-.2.1-.4.2-.6s.3-.3.5-.4.4-.2.6-.2.5-.1.7-.1c.9 0 1.6.2 2.1.6V2.5c-.5-.2-1.2-.3-2.2-.3-.5 0-.9.1-1.3.2s-.8.3-1.2.5c-.3.2-.6.5-.8.8s-.3.7-.3 1.2c0 .4.1.7.2 1s.3.5.5.7.5.4.7.6.6.4.9.5c.3.1.6.3.9.4.3.1.5.3.7.4s.4.3.5.5.2.4.2.6c0 .4-.2.8-.5 1s-.8.3-1.5.3c-.2 0-.4 0-.6-.1s-.5-.1-.7-.2c-.2-.1-.5-.2-.7-.3s-.4-.2-.5-.4v1.7c0 .2.2.3.4.4zm-7.5-3.7l1.3-3.9c.1-.2.1-.4.1-.6 0 .3.1.5.1.6l1.4 3.9h-2.9zm2.5-6H808l-3.7 9.8h1.8l.8-2.5h3.9l.9 2.5h1.8l-3.7-9.8zm-11.9 6l1.3-3.9c.1-.2.1-.4.1-.6 0 .3.1.5.1.6l1.4 3.9h-2.9zm2.5-6h-1.8l-3.7 9.8h1.8l.8-2.5h3.9l.9 2.5h1.8l-3.7-9.8zm-6.9 0h-1.7v9.8h1.7V2.3z"/><path fill="#DEDEDE" d="M314.9 8.4L311 7.1c-.2-.1-.4-.1-.6-.1.3 0 .5-.1.6-.1l3.9-1.4v2.9zm-6-2.5v1.8l9.8 3.7V9.6l-2.5-.8V4.9l2.5-.9V2.2l-9.8 3.7zm1.3 10.1c0-.6.1-1 .4-1.3s.6-.4 1.1-.4c.3 0 .5 0 .7.1s.4.2.5.4.3.3.3.6.1.4.1.7v1.4h-3.2V16h.1zm5.8-2.8c-.2.1-.4.3-.6.4-.2.1-.3.2-.4.4s-.3.2-.4.4c-.1.1-.2.3-.3.5-.1-.3-.2-.6-.4-.9s-.4-.5-.6-.7-.5-.3-.8-.4c-.3-.1-.6-.2-1-.2s-.8.1-1.2.2c-.3.2-.6.4-.8.7-.2.3-.4.6-.5 1s-.2.8-.2 1.3v3.2h9.8v-1.6h-4v-.7c0-.2 0-.4.1-.6s.1-.3.2-.5.3-.3.4-.4c.2-.1.4-.3.6-.4l2.6-1.6v-1.8l-2.5 1.7zm-7.1 7.3v7.3h1.4V25h8.4v-1.6h-8.4v-2.9h-1.4zm1.3 15.8c0-.6.1-1 .4-1.3s.6-.4 1.1-.4c.3 0 .5 0 .7.1s.4.2.5.4.3.3.3.6.1.4.1.7v1.4h-3.2v-1.5h.1zm5.8-2.8c-.2.1-.4.3-.6.4-.2.1-.3.2-.4.4s-.3.2-.4.4c-.1.1-.2.3-.3.5-.1-.3-.2-.6-.4-.9s-.4-.5-.6-.7-.5-.3-.8-.4c-.3-.1-.6-.2-1-.2s-.8.1-1.2.2c-.3.2-.6.4-.8.7-.2.3-.4.6-.5 1s-.2.8-.2 1.3v3.2h9.8v-1.6h-4v-.7c0-.2 0-.4.1-.6s.1-.3.2-.5.3-.3.4-.4c.2-.1.4-.3.6-.4l2.6-1.6v-1.9l-2.5 1.8zm-1.1 13.3l-3.9-1.3c-.2-.1-.4-.1-.6-.1.3 0 .5-.1.6-.1l3.9-1.4v2.9zm-6-2.5v1.8l9.8 3.7V48l-2.5-.8v-3.9l2.5-.9v-1.8l-9.8 3.7zm8.4 6.2v3.8h-8.4v1.6h9.8v-5.4h-1.4zm-8.4 7.7v1.6h5.8c1.9 0 2.8.7 2.8 2.2s-1 2.2-2.9 2.2h-5.7v1.6h6c2.6 0 4-1.2 4-3.7 0-2.6-1.4-3.9-4.1-3.9h-5.9zm4.5 9.7v3.7h1.4v-2.1h2.3c.3.5.4 1.1.4 1.8 0 1-.3 1.8-1 2.3-.6.6-1.5.9-2.7.9-1.1 0-2-.3-2.7-1s-1-1.5-1-2.6c0-1 .3-1.9.8-2.7h-1.7c-.3.7-.5 1.7-.5 2.7 0 1.5.5 2.8 1.5 3.7 1 1 2.2 1.5 3.7 1.5s2.7-.4 3.6-1.3 1.4-2.1 1.4-3.5c0-1.3-.3-2.4-.8-3.4h-4.7zm3.9 9.4v3.9h-2.9v-3.4H313v3.4h-2.8v-3.7h-1.4v5.3h9.8v-5.5h-1.3zm-7.1 11.2c0-.6.1-1 .4-1.3s.6-.4 1.1-.4c.3 0 .5 0 .7.1s.4.2.5.4.3.3.3.6.1.4.1.7V90h-3.2v-1.5h.1zm5.8-2.8c-.2.1-.4.3-.6.4s-.3.2-.4.4-.3.2-.4.4c-.1.1-.2.3-.3.5-.1-.3-.2-.6-.4-.9s-.4-.5-.6-.7-.5-.3-.8-.4-.6-.2-1-.2-.8.1-1.2.2c-.3.2-.6.4-.8.7-.2.3-.4.6-.5 1s-.2.8-.2 1.3v3.2h9.8V90h-4v-.7c0-.2 0-.4.1-.6s.1-.3.2-.5.3-.3.4-.4c.2-.1.4-.3.6-.4l2.6-1.6v-1.9l-2.5 1.8z"/><path fill="#898989" d="M847 175.2c.6 0 1 .1 1.3.4s.4.6.4 1.1c0 .3 0 .5-.1.7s-.2.4-.4.5-.3.3-.6.3-.4.1-.7.1h-1.4v-3.2l1.5.1zm2.9 5.7c-.1-.2-.3-.4-.4-.6-.1-.2-.2-.3-.4-.4s-.2-.3-.4-.4c-.1-.1-.3-.2-.5-.3.3-.1.6-.2.9-.4s.5-.4.7-.6c.2-.2.3-.5.4-.8.1-.3.2-.6.2-1s-.1-.8-.2-1.2c-.2-.3-.4-.6-.7-.8s-.6-.4-1-.5-.8-.2-1.3-.2H844v9.8h1.6v-4h.7c.2 0 .4 0 .6.1s.3.1.5.2.3.3.4.4c.1.2.3.4.4.6l1.6 2.6h1.9l-1.8-2.5zm-7.6 1.4h-3.9v-2.9h3.4V178h-3.4v-2.8h3.7v-1.4h-5.3v9.8h5.5v-1.3zm-8.5-8.5l-2.5 7.4c-.1.3-.2.6-.2.8 0-.3-.1-.6-.2-.8l-2.4-7.4h-1.8l3.5 9.8h1.8l3.5-9.8h-1.7zm-10.3 2.3c.5.6.8 1.5.8 2.7 0 1.1-.3 2-.8 2.7s-1.3 1-2.2 1-1.6-.3-2.1-1-.8-1.5-.8-2.6.3-2 .8-2.6 1.3-1 2.2-1c.9-.2 1.6.1 2.1.8zm1.2 6.3c.9-.9 1.3-2.2 1.3-3.8 0-1.5-.4-2.7-1.3-3.6s-1.9-1.4-3.3-1.4c-1.5 0-2.7.5-3.5 1.4s-1.3 2.2-1.3 3.8c0 1.5.4 2.7 1.3 3.6s2 1.4 3.4 1.4 2.5-.5 3.4-1.4zm-8.5-.1h-3.8v-8.4h-1.6v9.8h5.4v-1.4zm-7.8-8.5h-1.7v9.8h1.7v-9.8zm-9.1 6l1.3-3.9c.1-.2.1-.4.1-.6 0 .3.1.5.1.6l1.4 3.9h-2.9zm2.4-6h-1.8l-3.7 9.8h1.8l.8-2.5h3.9l.9 2.5h1.8l-3.7-9.8zm-5.3 0h-5.3v9.8h1.6v-4.1h3.4v-1.4h-3.4v-2.9h3.7v-1.4zm-14.5 1.4c1.3 0 2 .6 2 1.7 0 .6-.2 1-.5 1.4s-.9.5-1.6.5h-1.1v-3.6h1.2zm.1 4.9c1.1 0 2-.3 2.6-.9s1-1.4 1-2.3-.3-1.7-.9-2.2-1.5-.8-2.6-.8h-3v9.8h1.6v-3.6h1.3zm-8.3-4.9c1.3 0 2 .6 2 1.7 0 .6-.2 1-.5 1.4s-.9.5-1.6.5h-1.1v-3.6h1.2zm.1 4.9c1.1 0 2-.3 2.6-.9s1-1.4 1-2.3-.3-1.7-.9-2.2-1.5-.8-2.6-.8h-3v9.8h1.6v-3.6h1.3zm-10.3-.3l1.3-3.9c.1-.2.1-.4.1-.6 0 .3.1.5.1.6l1.4 3.9h-2.9zm2.4-6h-1.8l-3.7 9.8h1.8l.8-2.5h3.9l.9 2.5h1.8l-3.7-9.8zM914.3 135.3c-.2-.3-.4-.5-.5-.8s-.3-.5-.4-.7-.2-.5-.3-.7-.2-.5-.3-.8h-1.4c.1.4.2.8.4 1.1.1.3.3.6.5.9h-8.1v1.6h10l.1-.6zm-.2-9.1l-7.4-2.5c-.3-.1-.6-.2-.8-.2.3 0 .6-.1.8-.2l7.4-2.4v-1.8l-9.8 3.5v1.8l9.8 3.5v-1.7zm-1.3-11.7c0 .6-.1 1-.4 1.3s-.6.4-1.1.4c-.3 0-.5 0-.7-.1s-.4-.2-.5-.4-.3-.3-.3-.6-.1-.4-.1-.7V113h3.2v1.5h-.1zm-5.8 2.8c.2-.1.4-.3.6-.4.2-.1.3-.2.4-.4s.3-.2.4-.4c.1-.1.2-.3.3-.5.1.3.2.6.4.9s.4.5.6.7c.2.2.5.3.8.4s.6.2 1 .2.8-.1 1.2-.2c.3-.2.6-.4.8-.7s.4-.6.5-1 .2-.8.2-1.3v-3.1h-9.8v1.6h4v.7c0 .2 0 .4-.1.6s-.1.3-.2.5-.3.3-.4.4c-.2.1-.4.3-.6.4l-2.6 1.6v1.9l2.5-1.9zm-2.6-13.4c-.1.2-.1.5-.2.7 0 .3-.1.5-.1.7v.6c0 .5 0 1 .1 1.4s.3.8.5 1.2.5.6.8.8.8.3 1.3.3c.4 0 .7-.1 1-.2s.6-.3.8-.5.5-.5.6-.8.4-.6.6-1c.1-.3.3-.6.4-.9.1-.3.3-.5.4-.6l.4-.4c.1-.1.3-.1.6-.1.2 0 .4.1.6.2s.3.3.4.5.2.4.2.6.1.5.1.7c0 .9-.2 1.6-.6 2.1h1.6c.2-.5.3-1.2.3-2.2 0-.5-.1-.9-.2-1.3s-.3-.8-.5-1.2c-.2-.3-.5-.6-.8-.8s-.7-.3-1.2-.3c-.4 0-.7.1-1 .2s-.5.3-.7.5-.4.5-.6.7-.4.6-.5.9-.3.6-.4.9c-.1.3-.3.5-.4.7s-.3.4-.5.5-.4.2-.6.2c-.4 0-.8-.2-1-.5s-.3-.8-.3-1.5c0-.2 0-.4.1-.6s.1-.5.2-.7c.1-.2.2-.5.3-.7s.2-.4.4-.5h-1.7c-.2 0-.3.2-.4.4zm4.3-9.6c0 1.4-.5 2.1-1.5 2.1-.5 0-.9-.2-1.2-.5s-.4-.8-.4-1.4v-1.4h3.1v1.2zm4.1.1c0 1.1-.4 1.7-1.3 1.7-.5 0-.9-.2-1.1-.5-.3-.3-.4-.8-.4-1.3v-1.1h2.8v1.2zm-8.5.3c0 1 .3 1.8.8 2.5s1.2 1 2 1c.7 0 1.2-.2 1.6-.6.4-.4.7-.9.7-1.6.2.6.5 1 .9 1.3s.9.5 1.4.5c.7 0 1.2-.3 1.6-.8s.6-1.3.6-2.3v-3.1h-9.8v3.1h.2zm1.3-4.9v-3.9h2.9v3.4h1.4v-3.4h2.8v3.7h1.4v-5.3h-9.8v5.5h1.3zm8.5-8.5l-7.2-1.7c-.4-.1-.7-.1-.9-.2.3 0 .6-.1.9-.1l7.2-1.9v-1.7l-7.2-2c-.4-.1-.7-.2-.9-.2.3 0 .6-.1.9-.1l7.2-1.8v-1.8l-9.8 2.7v1.9l6.9 1.9c.3.1.6.1.9.2-.3 0-.7.1-1 .1l-6.9 1.9v1.8L914 83l.1-1.7zM905.6 308.2v-4.4c.2 0 .4.1.6.2.2.1.4.3.6.5.2.2.4.4.6.7.2.3.4.5.6.8.3.3.5.6.8.9s.5.5.8.7.6.3.9.4c.3.1.7.1 1.1.1.4 0 .8-.1 1.2-.2s.6-.3.8-.6.4-.6.5-.9c.1-.4.2-.8.2-1.2 0-.3 0-.5-.1-.8s-.1-.5-.2-.7l-.3-.6c-.1-.2-.2-.4-.4-.6h-1.5c.4.4.7.8.8 1.2s.3.8.3 1.2c0 .2 0 .4-.1.6s-.2.4-.3.5-.3.3-.5.3c-.2.1-.4.1-.7.1-.2 0-.5 0-.7-.1l-.6-.3c-.2-.1-.4-.3-.5-.4-.2-.2-.3-.4-.5-.6s-.4-.5-.6-.7c-.2-.2-.4-.5-.6-.7l-.6-.6c-.2-.2-.4-.4-.7-.5-.2-.1-.5-.3-.8-.3-.3-.1-.6-.1-.9-.1h-.8v6.2h1.6v-.1zm8.5-12.4l-7.4-2.5c-.3-.1-.6-.2-.8-.2.3 0 .6-.1.8-.2l7.4-2.4v-1.8l-9.8 3.5v1.8l9.8 3.5v-1.7zm-1.3-11.7c0 .6-.1 1-.4 1.3s-.6.4-1.1.4c-.3 0-.5 0-.7-.1s-.4-.2-.5-.4-.3-.3-.3-.6-.1-.4-.1-.7v-1.4h3.2v1.5h-.1zm-5.8 2.8c.2-.1.4-.3.6-.4.2-.1.3-.2.4-.4s.3-.2.4-.4c.1-.1.2-.3.3-.5.1.3.2.6.4.9s.4.5.6.7c.2.2.5.3.8.4s.6.2 1 .2.8-.1 1.2-.2c.3-.2.6-.4.8-.7s.4-.6.5-1 .2-.8.2-1.3V281h-9.8v1.6h4v.7c0 .2 0 .4-.1.6s-.1.3-.2.5-.3.3-.4.4c-.2.1-.4.3-.6.4l-2.6 1.6v1.9l2.5-1.8zm-2.6-13.4c-.1.2-.1.5-.2.7 0 .3-.1.5-.1.7v.6c0 .5 0 1 .1 1.4s.3.8.5 1.2.5.6.8.8.8.3 1.3.3c.4 0 .7-.1 1-.2s.6-.3.8-.5.5-.5.6-.8.4-.6.6-1c.1-.3.3-.6.4-.9.1-.3.3-.5.4-.6l.4-.4c.1-.1.3-.1.6-.1.2 0 .4.1.6.2s.3.3.4.5.2.4.2.6.1.5.1.7c0 .9-.2 1.6-.6 2.1h1.6c.2-.5.3-1.2.3-2.2 0-.5-.1-.9-.2-1.3s-.3-.8-.5-1.2c-.2-.3-.5-.6-.8-.8s-.7-.3-1.2-.3c-.4 0-.7.1-1 .2s-.5.3-.7.5-.4.5-.6.7-.4.6-.5.9-.3.6-.4.9c-.1.3-.3.5-.4.7s-.3.4-.5.5-.4.2-.6.2c-.4 0-.8-.2-1-.5s-.3-.8-.3-1.5c0-.2 0-.4.1-.6s.1-.5.2-.7c.1-.2.2-.5.3-.7s.2-.4.4-.5h-1.7c-.2 0-.3.2-.4.4zm4.3-9.6c0 1.4-.5 2.1-1.5 2.1-.5 0-.9-.2-1.2-.5s-.4-.8-.4-1.4v-1.4h3.1v1.2zm4.1.1c0 1.1-.4 1.7-1.3 1.7-.5 0-.9-.2-1.1-.5-.3-.3-.4-.8-.4-1.3v-1.1h2.8v1.2zm-8.5.3c0 1 .3 1.8.8 2.5s1.2 1 2 1c.7 0 1.2-.2 1.6-.6.4-.4.7-.9.7-1.6.2.6.5 1 .9 1.3s.9.5 1.4.5c.7 0 1.2-.3 1.6-.8s.6-1.3.6-2.3v-3.1h-9.8v3.1h.2zm1.3-4.9v-3.9h2.9v3.4h1.4v-3.4h2.8v3.7h1.4v-5.3h-9.8v5.5h1.3zm8.5-8.5l-7.2-1.7c-.4-.1-.7-.1-.9-.2.3 0 .6-.1.9-.1l7.2-1.9v-1.7l-7.2-2c-.4-.1-.7-.2-.9-.2.3 0 .6-.1.9-.1l7.2-1.8v-1.8l-9.8 2.7v1.9l6.9 1.9c.3.1.6.1.9.2-.3 0-.7.1-1 .1l-6.9 1.9v1.8l9.8 2.7.1-1.7z"/><path fill="none" stroke="#898989" stroke-width="3" stroke-linecap="round" stroke-linejoin="round" stroke-miterlimit="10" d="M805.9 203.1l4.4-4.5M805.9 203.1l-4.4-4.5"/><path fill="none" d="M805.9 191.6v11.5"/><path fill="none" stroke="#898989" stroke-width="3" stroke-linecap="round" stroke-linejoin="round" stroke-miterlimit="10" d="M805.9 191.6v11.5M805.9 155.9l-4.4 4.4M805.9 155.9l4.4 4.4"/><path fill="none" d="M805.9 167.3v-11.4"/><path fill="none" stroke="#898989" stroke-width="3" stroke-linecap="round" stroke-linejoin="round" stroke-miterlimit="10" d="M805.9 167.3v-11.4"/><path fill="#898989" d="M118 217.1c1.4 0 2.1.5 2.1 1.5 0 .5-.2.9-.5 1.2s-.8.4-1.4.4h-1.4v-3.1h1.2zm0-4.1c1.1 0 1.7.4 1.7 1.3 0 .5-.2.9-.5 1.1-.3.3-.8.4-1.3.4h-1V213h1.1zm.4 8.4c1 0 1.8-.3 2.5-.8s1-1.2 1-2c0-.7-.2-1.2-.6-1.6-.4-.4-.9-.7-1.6-.7.6-.2 1-.5 1.3-.9s.5-.9.5-1.4c0-.7-.3-1.2-.8-1.6-.6-.4-1.3-.6-2.2-.6h-3.1v9.8h3v-.2zm-4.9-1.3h-3.9v-2.9h3.4v-1.4h-3.4V213h3.6v-1.4H108v9.8h5.5v-1.3zm-8.5-8.4l-1.7 7.2c-.1.4-.1.7-.2.9 0-.3-.1-.6-.1-.9l-1.8-7.2h-1.7l-2 7.1c-.1.4-.2.7-.2.9 0-.3-.1-.6-.1-.9l-1.8-7.1h-1.8l2.7 9.8h1.9l1.9-6.8c.1-.3.1-.6.2-.9 0 .3.1.7.1 1l1.9 6.8h1.8l2.7-9.8-1.8-.1zM136.6 228.2c-.3.2-.5.4-.8.5-.2.1-.5.3-.7.4-.2.1-.5.2-.7.3s-.5.2-.8.3v1.3c.4-.1.8-.2 1.1-.4.3-.1.6-.3.9-.5v8h1.6v-10l-.6.1zm-11.9 1.5c.6 0 1 .1 1.3.4s.4.6.4 1.1c0 .3 0 .5-.1.7s-.2.4-.4.5c-.2.1-.3.3-.5.3s-.4.1-.7.1h-1.3v-3.2l1.3.1zm2.9 5.7c-.1-.2-.3-.4-.4-.6-.1-.2-.2-.3-.3-.4-.1-.1-.2-.3-.4-.4-.1-.1-.3-.2-.5-.3.3-.1.6-.2.9-.4s.5-.4.7-.6c.2-.2.3-.5.4-.8s.2-.6.2-.9c0-.4-.1-.8-.2-1.2-.2-.3-.4-.6-.7-.8-.3-.2-.6-.4-1-.5s-.8-.2-1.3-.2h-3.2v9.8h1.6v-4h.7c.2 0 .4 0 .6.1s.3.1.5.2c.1.1.3.2.4.4s.3.4.4.6l1.6 2.6h1.9l-1.9-2.6zm-7.6 1.4h-3.9v-2.9h3.4v-1.4h-3.4v-2.8h3.6v-1.4h-5.3v9.8h5.5v-1.3h.1zm-8.4-8.4l-2.5 7.4c-.1.3-.2.6-.2.8 0-.3-.1-.6-.2-.8l-2.4-7.4h-1.8l3.4 9.8h1.8l3.5-9.8h-1.6zm-11.7 1.3c.6 0 1 .1 1.3.4s.4.6.4 1.1c0 .3 0 .5-.1.7s-.2.4-.4.5c-.2.1-.3.3-.5.3s-.4.1-.7.1h-1.3v-3.2l1.3.1zm2.9 5.7c-.1-.2-.3-.4-.4-.6-.1-.2-.2-.3-.3-.4-.1-.1-.2-.3-.4-.4-.1-.1-.3-.2-.5-.3.3-.1.6-.2.9-.4s.5-.4.7-.6c.2-.2.3-.5.4-.8s.2-.6.2-.9c0-.4-.1-.8-.2-1.2-.2-.3-.4-.6-.7-.8-.3-.2-.6-.4-1-.5s-.8-.2-1.3-.2H97v9.8h1.6v-4h.7c.2 0 .4 0 .6.1s.3.1.5.2c.1.1.3.2.4.4s.3.4.4.6l1.6 2.6h1.9l-1.9-2.6zm-7.6 1.4h-3.9v-2.9h3.4v-1.4h-3.4v-2.8H95v-1.4h-5.3v9.8h5.5v-1.3zM82.3 238c.2.1.5.1.7.2.3 0 .5.1.7.1h.6c.5 0 1 0 1.4-.1s.8-.2 1.2-.5c.3-.2.6-.5.8-.8.2-.3.3-.8.3-1.3 0-.4-.1-.7-.2-1s-.3-.5-.5-.8c-.2-.2-.5-.5-.8-.6-.3-.2-.6-.4-1-.6-.3-.1-.6-.3-.9-.4-.3-.1-.5-.3-.6-.4-.2-.1-.3-.3-.4-.4-.1-.2-.1-.3-.1-.6 0-.2.1-.4.2-.6s.3-.3.5-.4.4-.2.6-.2.5-.1.7-.1c.9 0 1.6.2 2.1.6v-1.6c-.5-.2-1.2-.3-2.2-.3-.4 0-.9.1-1.3.2s-.8.3-1.2.5c-.3.2-.6.5-.8.8s-.3.7-.3 1.2c0 .4.1.7.2 1s.3.5.5.7.5.4.7.6c.3.2.6.4.9.5s.6.3.9.4c.3.1.5.3.7.4s.4.3.5.5.2.4.2.6c0 .4-.2.8-.5 1s-.8.3-1.5.3c-.2 0-.4 0-.6-.1-.2 0-.5-.1-.7-.2-.2-.1-.5-.2-.7-.3s-.4-.2-.5-.4v1.7c0 .2.1.3.4.4zM206.4 217.1c1.4 0 2.1.5 2.1 1.5 0 .5-.2.9-.5 1.2s-.8.4-1.4.4h-1.4v-3.1h1.2zm.1-4.1c1.1 0 1.7.4 1.7 1.3 0 .5-.2.9-.5 1.1-.3.3-.8.4-1.3.4h-1V213h1.1zm.3 8.4c1 0 1.8-.3 2.5-.8s1-1.2 1-2c0-.7-.2-1.2-.6-1.6-.4-.4-.9-.7-1.6-.7.6-.2 1-.5 1.3-.9s.5-.9.5-1.4c0-.7-.3-1.2-.8-1.6-.6-.4-1.3-.6-2.2-.6h-3.1v9.8h3v-.2zm-4.9-1.3H198v-2.9h3.4v-1.4H198V213h3.6v-1.4h-5.3v9.8h5.5l.1-1.3zm-8.5-8.4l-1.7 7.2c-.1.4-.1.7-.2.9 0-.3-.1-.6-.1-.9l-1.8-7.2h-1.7l-2 7.1c-.1.4-.2.7-.2.9 0-.3-.1-.6-.1-.9l-1.8-7.1H182l2.7 9.8h1.9l1.9-6.8c.1-.3.1-.6.2-.9 0 .3.1.7.1 1l1.9 6.8h1.8l2.7-9.8-1.8-.1zM227.2 236.8h-4.4c0-.2.1-.4.2-.6.1-.2.3-.4.5-.6.2-.2.4-.4.7-.6.3-.2.5-.4.8-.6.3-.3.6-.5.8-.8s.5-.5.6-.8c.2-.3.3-.6.4-.9.1-.3.1-.7.1-1.1 0-.4-.1-.8-.2-1.2-.1-.3-.3-.6-.6-.8s-.6-.4-.9-.5c-.4-.1-.8-.2-1.2-.2-.3 0-.5 0-.8.1-.2 0-.5.1-.7.2l-.6.3c-.2.1-.4.2-.6.4v1.5c.4-.4.8-.7 1.2-.8.4-.2.8-.3 1.2-.3.2 0 .4 0 .6.1.2.1.4.2.5.3s.3.3.3.5c.1.2.1.4.1.7 0 .2 0 .5-.1.7l-.3.6c-.1.2-.3.4-.4.5-.2.2-.4.3-.6.5-.2.2-.4.4-.7.6-.2.2-.5.4-.7.6l-.6.6c-.2.2-.4.4-.5.7-.1.2-.3.5-.3.8s-.1.6-.1.9v.8h6.1v-1.6h.2zm-15.1-7.1c.6 0 1 .1 1.3.4s.4.6.4 1.1c0 .3 0 .5-.1.7s-.2.4-.4.5-.3.3-.5.3-.4.1-.7.1h-1.3v-3.2l1.3.1zm2.8 5.7c-.1-.2-.3-.4-.4-.6-.1-.2-.2-.3-.3-.4-.1-.1-.2-.3-.4-.4-.1-.1-.3-.2-.5-.3.3-.1.6-.2.9-.4.3-.2.5-.4.7-.6.2-.2.3-.5.4-.8.1-.3.2-.6.2-.9 0-.4-.1-.8-.2-1.2-.2-.3-.4-.6-.7-.8s-.6-.4-1-.5-.8-.2-1.3-.2h-3.2v9.8h1.6v-4h.7c.2 0 .4 0 .6.1s.3.1.5.2c.1.1.3.2.4.4.1.2.3.4.4.6l1.6 2.6h1.9l-1.9-2.6zm-7.5 1.4h-3.9v-2.9h3.4v-1.4h-3.4v-2.8h3.6v-1.4h-5.3v9.8h5.5l.1-1.3zm-8.5-8.4l-2.5 7.4c-.1.3-.2.6-.2.8 0-.3-.1-.6-.2-.8l-2.4-7.4h-1.8l3.4 9.8h1.8l3.5-9.8h-1.6zm-11.6 1.3c.6 0 1 .1 1.3.4s.4.6.4 1.1c0 .3 0 .5-.1.7s-.2.4-.4.5-.3.3-.5.3-.4.1-.7.1H186v-3.2l1.3.1zm2.8 5.7c-.1-.2-.3-.4-.4-.6-.1-.2-.2-.3-.3-.4-.1-.1-.2-.3-.4-.4-.1-.1-.3-.2-.5-.3.3-.1.6-.2.9-.4.3-.2.5-.4.7-.6.2-.2.3-.5.4-.8.1-.3.2-.6.2-.9 0-.4-.1-.8-.2-1.2-.2-.3-.4-.6-.7-.8s-.6-.4-1-.5-.8-.2-1.3-.2h-3.2v9.8h1.6v-4h.7c.2 0 .4 0 .6.1s.3.1.5.2c.1.1.3.2.4.4.1.2.3.4.4.6l1.6 2.6h1.9l-1.9-2.6zm-7.5 1.4h-3.9v-2.9h3.4v-1.4h-3.4v-2.8h3.6v-1.4H177v9.8h5.5l.1-1.3zm-13 1.2c.2.1.5.1.7.2.3 0 .5.1.7.1h.6c.5 0 1 0 1.4-.1s.8-.2 1.2-.5c.3-.2.6-.5.8-.8s.3-.8.3-1.3c0-.4-.1-.7-.2-1s-.3-.5-.5-.8c-.2-.2-.5-.5-.8-.6-.3-.2-.6-.4-1-.6-.3-.1-.6-.3-.9-.4-.3-.1-.5-.3-.6-.4-.2-.1-.3-.3-.4-.4-.1-.2-.1-.3-.1-.6 0-.2.1-.4.2-.6s.3-.3.5-.4.4-.2.6-.2c.2 0 .5-.1.7-.1.9 0 1.6.2 2.1.6v-1.6c-.5-.2-1.2-.3-2.2-.3-.4 0-.9.1-1.3.2s-.8.3-1.2.5c-.3.2-.6.5-.8.8s-.3.7-.3 1.2c0 .4.1.7.2 1s.3.5.5.7.5.4.7.6c.3.2.6.4.9.5.3.1.6.3.9.4.3.1.5.3.7.4s.4.3.5.5.2.4.2.6c0 .4-.2.8-.5 1s-.8.3-1.5.3c-.2 0-.4 0-.6-.1-.2 0-.5-.1-.7-.2-.2-.1-.5-.2-.7-.3s-.4-.2-.5-.4v1.7c0 .2.2.3.4.4z"/><g class="server" fill="#A8A8A8"><path d="M124.9 196.2c-10.3 0-18.7-8.4-18.7-18.7s8.4-18.7 18.7-18.7 18.7 8.4 18.7 18.7-8.4 18.7-18.7 18.7zm-4.7-9.7c1.3 4.7 3.3 6.8 4.7 6.8s3.4-2.1 4.7-6.8c-1.5-.2-3.1-.3-4.7-.3s-3.2.1-4.7.3zm-6.9 1.7c1.7 1.8 3.8 3.2 6.2 4.1-.9-1.5-1.6-3.3-2.2-5.3-1.4.3-2.8.7-4 1.2zm19.1-1.2c-.5 2.1-1.3 3.9-2.2 5.3 2.4-.9 4.5-2.3 6.2-4.1-1.1-.5-2.5-.9-4-1.2zm-23.3-8c.2 2.5.9 4.7 2.3 6.9 1.5-.7 3.3-1.3 5.2-1.7-.3-1.7-.5-3.4-.5-5.2h-7zm23.9 5.2c2 .4 3.7 1 5.2 1.7 1.4-2.2 2.1-4.4 2.3-6.9h-7.1c.1 1.8-.1 3.4-.4 5.2zm-13.9-5.2c0 1.6.2 3.1.5 4.7 1.8-.2 3.5-.4 5.3-.4 1.7 0 3.5.1 5.3.4.3-1.6.4-3 .5-4.7h-11.6zm21.5-3.1c-.3-2.6-1.2-5.2-2.7-7.4-1.5.7-3.2 1.3-5 1.7.3 1.7.5 3.7.6 5.7h7.1zm-10 0c-.1-1.8-.3-3.6-.6-5.1-1.7.2-3.4.4-5.2.4-1.8 0-3.5-.1-5.2-.4-.3 1.6-.5 3.4-.6 5.1h11.6zm-14.4 0c.1-2 .3-3.8.6-5.7-1.8-.4-3.5-1-5-1.7-1.5 2.2-2.5 4.8-2.8 7.4h7.2zm4.1-7.9a34.013 34.013 0 0 0 9 0c-1.3-4.3-3.2-6.3-4.5-6.3s-3.2 1.9-4.5 6.3zm-6.6-1.7c1.1.5 2.4.9 3.7 1.2.5-1.9 1.2-3.5 2-4.8-2.1.7-4 2-5.7 3.6zm16.5-3.7c.8 1.3 1.5 3 2 4.8 1.3-.3 2.6-.7 3.7-1.2-1.6-1.5-3.5-2.8-5.7-3.6z"/><path d="M124.9 159.4c-10 0-18.1 8.1-18.1 18.1s8.1 18.1 18.1 18.1 18.1-8.1 18.1-18.1-8.1-18.1-18.1-18.1zm0 34.4c-2 0-4.2-3-5.4-7.9 1.7-.3 3.6-.4 5.4-.4s3.6.1 5.4.4c-1.3 5-3.4 7.9-5.4 7.9zm0-9.9c-1.9 0-3.9.2-5.8.4-.4-1.9-.6-3.6-.6-5.9h12.7c0 2.2-.2 4-.6 5.9-1.8-.3-3.8-.4-5.7-.4zm0-22.8c1.9 0 4 2.8 5.3 7.4-1.7.3-3.5.4-5.3.4s-3.6-.1-5.3-.4c1.2-4.6 3.3-7.4 5.3-7.4zm0 9.5c1.9 0 3.8-.2 5.7-.4.4 1.9.6 4.1.7 6.4h-12.7c.1-2.3.3-4.5.7-6.4 1.7.2 3.6.4 5.6.4zm-8.1 5.9h-8.4c.2-3.2 1.5-6.2 3.2-8.7 1.7.8 3.7 1.5 5.8 2-.4 2-.7 3.9-.7 6.2l.1.5zm0 1.9c0 2.3.2 4.2.6 6.2-2.3.5-4.4 1.2-6.1 2-1.6-2.4-2.6-5.1-2.7-8.2h8.2zm16.2 0h8.2c-.1 3.1-1.1 5.7-2.7 8.2-1.7-.8-3.8-1.5-6.1-2 .3-2 .5-3.9.6-6.2zm0-1.9c-.1-2.3-.3-4.7-.7-6.7 2.2-.5 4.2-1.1 5.8-2 1.8 2.4 2.9 5.5 3.1 8.7H133v-.4.4zm4-10c-1.5.7-3.2 1.3-5.1 1.7-.7-2.7-1.8-5-3-6.5 3.1.7 5.9 2.4 8.1 4.8zm-16.1-4.9c-1.2 1.5-2.3 3.8-3 6.5-1.9-.4-3.6-1-5.1-1.7 2.1-2.3 4.9-4 8.1-4.8zm-8.6 26.4c1.5-.7 3.4-1.3 5.4-1.7.7 3 1.8 5.4 3.1 7-3.3-.8-6.3-2.7-8.5-5.3zm16.5 5.3c1.3-1.6 2.4-4.1 3.1-7 2 .4 3.9 1 5.4 1.7-2.1 2.6-5.1 4.5-8.5 5.3z"/><path d="M103 176.5c.5-10.7 8.6-19.4 19-20.8v-34.6c0-2.1-1.7-3.7-3.8-3.7H87.7c-2.1 0-3.8 1.7-3.8 3.7v74.5h28.7c-2.9-2-5.2-4.6-6.9-7.6h-16v-3.8H104c-.4-1.2-.7-2.5-.8-3.8H89.6v-3.9H103zm-13.4-47.7h26.7v3.8H89.6v-3.8z"/></g><g class="server" fill="#A8A8A8"><path d="M208.3 196.2c-10.3 0-18.7-8.4-18.7-18.7s8.4-18.7 18.7-18.7 18.7 8.4 18.7 18.7-8.4 18.7-18.7 18.7zm-4.7-9.7c1.3 4.7 3.3 6.8 4.7 6.8s3.4-2.1 4.7-6.8a37.08 37.08 0 0 0-9.4 0zm-6.9 1.7c1.7 1.8 3.8 3.2 6.2 4.1-.9-1.5-1.6-3.3-2.2-5.3-1.4.3-2.8.7-4 1.2zm19.1-1.2c-.5 2.1-1.3 3.9-2.2 5.3 2.4-.9 4.5-2.3 6.2-4.1-1.1-.5-2.5-.9-4-1.2zm-23.2-8c.2 2.5.9 4.7 2.3 6.9 1.5-.7 3.3-1.3 5.2-1.7-.3-1.7-.5-3.4-.5-5.2h-7zm23.9 5.2c2 .4 3.7 1 5.2 1.7 1.4-2.2 2.1-4.4 2.3-6.9h-7c-.1 1.8-.2 3.4-.5 5.2zm-14-5.2c0 1.6.2 3.1.5 4.7 1.8-.2 3.5-.4 5.3-.4 1.7 0 3.5.1 5.3.4.3-1.6.4-3 .5-4.7h-11.6zm21.5-3.1c-.3-2.6-1.2-5.2-2.7-7.4-1.5.7-3.2 1.3-5 1.7.3 1.7.5 3.7.6 5.7h7.1zm-9.9 0c-.1-1.8-.3-3.6-.6-5.1-1.7.2-3.4.4-5.2.4s-3.5-.1-5.2-.4c-.3 1.6-.5 3.4-.6 5.1h11.6zm-14.5 0c.1-2 .3-3.8.6-5.7-1.8-.4-3.5-1-5-1.7-1.5 2.2-2.5 4.8-2.8 7.4h7.2zm4.2-7.9a34.013 34.013 0 0 0 9 0c-1.3-4.3-3.2-6.3-4.5-6.3s-3.2 1.9-4.5 6.3zm-6.6-1.7c1.1.5 2.4.9 3.7 1.2.5-1.9 1.2-3.5 2-4.8-2.1.7-4.1 2-5.7 3.6zm16.5-3.7c.8 1.3 1.5 3 2 4.8 1.3-.3 2.6-.7 3.7-1.2-1.6-1.5-3.6-2.8-5.7-3.6z"/><path d="M208.3 159.4c-10 0-18.1 8.1-18.1 18.1s8.1 18.1 18.1 18.1 18.1-8.1 18.1-18.1c0-10-8.1-18.1-18.1-18.1zm0 34.4c-2 0-4.2-3-5.4-7.9 1.7-.3 3.6-.4 5.4-.4 1.8 0 3.6.1 5.4.4-1.2 5-3.4 7.9-5.4 7.9zm0-9.9c-1.9 0-3.9.2-5.8.4-.4-1.9-.6-3.6-.6-5.9h12.7c0 2.2-.2 4-.6 5.9-1.8-.3-3.8-.4-5.7-.4zm0-22.8c1.9 0 4 2.8 5.3 7.4-1.7.3-3.5.4-5.3.4s-3.6-.1-5.3-.4c1.3-4.6 3.4-7.4 5.3-7.4zm0 9.5c1.9 0 3.8-.2 5.7-.4.4 1.9.6 4.1.7 6.4H202c.1-2.3.3-4.5.7-6.4 1.8.2 3.7.4 5.6.4zm-8.1 5.9h-8.4c.2-3.2 1.5-6.2 3.2-8.7 1.7.8 3.7 1.5 5.8 2-.4 2-.7 3.9-.7 6.2l.1.5zm0 1.9c0 2.3.2 4.2.6 6.2-2.3.5-4.4 1.2-6.1 2-1.6-2.4-2.6-5.1-2.7-8.2h8.2zm16.2 0h8.2c-.1 3.1-1.1 5.7-2.7 8.2-1.7-.8-3.8-1.5-6.1-2 .4-2 .6-3.9.6-6.2zm0-1.9c-.1-2.3-.3-4.7-.7-6.7 2.2-.5 4.2-1.1 5.8-2 1.8 2.4 2.9 5.5 3.1 8.7h-8.2v-.4.4zm4-10c-1.5.7-3.2 1.3-5.1 1.7-.7-2.7-1.8-5-3-6.5 3.1.7 6 2.4 8.1 4.8zm-16.1-4.9c-1.2 1.5-2.3 3.8-3 6.5-1.9-.4-3.6-1-5.1-1.7 2.1-2.3 4.9-4 8.1-4.8zm-8.5 26.4c1.5-.7 3.4-1.3 5.4-1.7.7 3 1.8 5.4 3.1 7-3.4-.8-6.3-2.7-8.5-5.3zm16.5 5.3c1.3-1.6 2.4-4.1 3.1-7 2 .4 3.9 1 5.4 1.7-2.2 2.6-5.1 4.5-8.5 5.3z"/><path d="M186.4 176.5c.5-10.7 8.6-19.4 19-20.8v-34.6c0-2.1-1.7-3.7-3.8-3.7h-30.5c-2.1 0-3.8 1.7-3.8 3.7v74.5H196c-2.9-2-5.2-4.6-6.9-7.6h-16v-3.8h14.4c-.4-1.2-.7-2.5-.8-3.8H173v-3.9h13.4zM173 128.8h26.7v3.8H173v-3.8z"/></g><path fill="#DEDEDE" d="M299.1 381v-5c0-1.1-.9-2-2-2s-2 .9-2 2v5c0 .6.3 1.2.8 1.6h2.4c.5-.4.8-.9.8-1.6z"/><g class="azureBlue" fill="#898989"><path d="M662.8 377.2c-1.1 0-2-.9-2-2v-5c0-1.1.9-2 2-2s2 .9 2 2v5c0 1.1-.9 2-2 2zM949 369.6c-1.1 0-2-.9-2-2v-5c0-1.1.9-2 2-2s2 .9 2 2v5c0 1.1-.9 2-2 2zM662.8 363.2c-1.1 0-2-.9-2-2v-5c0-1.1.9-2 2-2s2 .9 2 2v5c0 1.1-.9 2-2 2zM949 355.6c-1.1 0-2-.9-2-2v-5c0-1.1.9-2 2-2s2 .9 2 2v5c0 1.1-.9 2-2 2zM662.8 349.2c-1.1 0-2-.9-2-2v-5c0-1.1.9-2 2-2s2 .9 2 2v5c0 1.1-.9 2-2 2zM949 341.6c-1.1 0-2-.9-2-2v-5c0-1.1.9-2 2-2s2 .9 2 2v5c0 1.1-.9 2-2 2zM662.8 335.2c-1.1 0-2-.9-2-2v-5c0-1.1.9-2 2-2s2 .9 2 2v5c0 1.1-.9 2-2 2zM949 327.6c-1.1 0-2-.9-2-2v-5c0-1.1.9-2 2-2s2 .9 2 2v5c0 1.1-.9 2-2 2zM662.8 321.2c-1.1 0-2-.9-2-2v-5c0-1.1.9-2 2-2s2 .9 2 2v5c0 1.1-.9 2-2 2zM949 313.6c-1.1 0-2-.9-2-2v-5c0-1.1.9-2 2-2s2 .9 2 2v5c0 1.1-.9 2-2 2zM662.8 307.2c-1.1 0-2-.9-2-2v-5c0-1.1.9-2 2-2s2 .9 2 2v5c0 1.1-.9 2-2 2zM949 299.6c-1.1 0-2-.9-2-2v-5c0-1.1.9-2 2-2s2 .9 2 2v5c0 1.1-.9 2-2 2zM662.8 293.2c-1.1 0-2-.9-2-2v-5c0-1.1.9-2 2-2s2 .9 2 2v5c0 1.1-.9 2-2 2zM949 285.6c-1.1 0-2-.9-2-2v-5c0-1.1.9-2 2-2s2 .9 2 2v5c0 1.1-.9 2-2 2zM662.8 279.2c-1.1 0-2-.9-2-2v-5c0-1.1.9-2 2-2s2 .9 2 2v5c0 1.1-.9 2-2 2zM949 271.6c-1.1 0-2-.9-2-2v-5c0-1.1.9-2 2-2s2 .9 2 2v5c0 1.1-.9 2-2 2zM662.8 265.2c-1.1 0-2-.9-2-2v-5c0-1.1.9-2 2-2s2 .9 2 2v5c0 1.1-.9 2-2 2zM949 257.6c-1.1 0-2-.9-2-2v-5c0-1.1.9-2 2-2s2 .9 2 2v5c0 1.1-.9 2-2 2zM662.8 251.2c-1.1 0-2-.9-2-2v-5c0-1.1.9-2 2-2s2 .9 2 2v5c0 1.1-.9 2-2 2zM949 243.6c-1.1 0-2-.9-2-2v-5c0-1.1.9-2 2-2s2 .9 2 2v5c0 1.1-.9 2-2 2zM662.8 237.2c-1.1 0-2-.9-2-2v-5c0-1.1.9-2 2-2s2 .9 2 2v5c0 1.1-.9 2-2 2zM949 229.6c-1.1 0-2-.9-2-2v-5c0-1.1.9-2 2-2s2 .9 2 2v5c0 1.1-.9 2-2 2zM662.8 223.2c-1.1 0-2-.9-2-2v-5c0-1.1.9-2 2-2s2 .9 2 2v5c0 1.1-.9 2-2 2zM949 215.6c-1.1 0-2-.9-2-2v-5c0-1.1.9-2 2-2s2 .9 2 2v5c0 1.1-.9 2-2 2zM662.8 209.2c-1.1 0-2-.9-2-2v-5c0-1.1.9-2 2-2s2 .9 2 2v5c0 1.1-.9 2-2 2zM949 201.6c-1.1 0-2-.9-2-2v-5c0-1.1.9-2 2-2s2 .9 2 2v5c0 1.1-.9 2-2 2zM662.8 195.2c-1.1 0-2-.9-2-2v-5c0-1.1.9-2 2-2s2 .9 2 2v5c0 1.1-.9 2-2 2zM949 187.6c-1.1 0-2-.9-2-2v-5c0-1.1.9-2 2-2s2 .9 2 2v5c0 1.1-.9 2-2 2zM662.8 181.2c-1.1 0-2-.9-2-2v-5c0-1.1.9-2 2-2s2 .9 2 2v5c0 1.1-.9 2-2 2zM949 173.6c-1.1 0-2-.9-2-2v-5c0-1.1.9-2 2-2s2 .9 2 2v5c0 1.1-.9 2-2 2zM662.8 167.2c-1.1 0-2-.9-2-2v-5c0-1.1.9-2 2-2s2 .9 2 2v5c0 1.1-.9 2-2 2zM949 159.6c-1.1 0-2-.9-2-2v-5c0-1.1.9-2 2-2s2 .9 2 2v5c0 1.1-.9 2-2 2zM662.8 153.2c-1.1 0-2-.9-2-2v-5c0-1.1.9-2 2-2s2 .9 2 2v5c0 1.1-.9 2-2 2zM949 145.6c-1.1 0-2-.9-2-2v-5c0-1.1.9-2 2-2s2 .9 2 2v5c0 1.1-.9 2-2 2zM662.8 139.2c-1.1 0-2-.9-2-2v-5c0-1.1.9-2 2-2s2 .9 2 2v5c0 1.1-.9 2-2 2zM949 131.6c-1.1 0-2-.9-2-2v-5c0-1.1.9-2 2-2s2 .9 2 2v5c0 1.1-.9 2-2 2zM662.8 125.2c-1.1 0-2-.9-2-2v-5c0-1.1.9-2 2-2s2 .9 2 2v5c0 1.1-.9 2-2 2zM949 117.6c-1.1 0-2-.9-2-2v-5c0-1.1.9-2 2-2s2 .9 2 2v5c0 1.1-.9 2-2 2zM662.8 111.2c-1.1 0-2-.9-2-2v-5c0-1.1.9-2 2-2s2 .9 2 2v5c0 1.1-.9 2-2 2zM949 103.6c-1.1 0-2-.9-2-1.9 0-1.6-.1-3.3-.2-4.9-.1-1.1.8-2 1.9-2.1 1.1-.1 2.1.8 2.1 1.9.1 1.7.2 3.4.2 5.1 0 1-.9 1.9-2 1.9zM663.2 97.2c-1.2-.1-2-1-2-2.1.1-1.7.3-3.4.4-5 .1-1.1 1.1-1.9 2.2-1.8 1.1.1 1.9 1.1 1.8 2.2-.2 1.6-.3 3.3-.4 4.9-.1 1-1 1.8-2 1.8zM947.9 89.7c-1 0-1.9-.7-2-1.8-.2-1.6-.4-3.3-.7-4.9-.2-1.1.6-2.1 1.7-2.3 1.1-.2 2.1.6 2.3 1.7.3 1.7.5 3.3.7 5 .1 1.1-.6 2.1-1.7 2.2l-.3.1zM664.8 83.3h-.3c-1.1-.2-1.8-1.2-1.6-2.3.3-1.7.6-3.3.9-5 .2-1.1 1.3-1.8 2.4-1.6 1.1.2 1.8 1.3 1.6 2.4l-.9 4.8c-.3 1-1.1 1.7-2.1 1.7zM945.6 75.9c-.9 0-1.7-.6-2-1.6-.4-1.6-.7-3.2-1.2-4.8-.3-1.1.4-2.2 1.4-2.4 1.1-.3 2.2.4 2.4 1.4.4 1.6.8 3.3 1.2 4.9.2 1.1-.4 2.1-1.5 2.4-.1.1-.2.1-.3.1zM667.8 69.7c-.2 0-.3 0-.5-.1-1.1-.3-1.7-1.4-1.4-2.5.4-1.6.9-3.3 1.4-4.9.3-1.1 1.4-1.6 2.5-1.3s1.6 1.4 1.3 2.5c-.5 1.6-.9 3.2-1.4 4.7-.2 1-1 1.6-1.9 1.6zM941.8 62.4c-.8 0-1.6-.5-1.9-1.4-.5-1.6-1.1-3.1-1.6-4.7-.4-1 .1-2.2 1.2-2.6 1-.4 2.2.1 2.6 1.2.6 1.6 1.1 3.2 1.7 4.8.3 1-.2 2.2-1.3 2.5-.2.2-.4.2-.7.2zM672.1 56.3c-.2 0-.5 0-.7-.1-1-.4-1.6-1.5-1.2-2.6.6-1.6 1.2-3.2 1.9-4.7.4-1 1.6-1.5 2.6-1.1s1.5 1.6 1.1 2.6c-.6 1.5-1.2 3-1.8 4.6-.3.9-1.1 1.3-1.9 1.3zM936.8 49.3c-.8 0-1.5-.4-1.8-1.2l-2.1-4.5c-.5-1-.1-2.2.9-2.7s2.2-.1 2.7.9c.7 1.5 1.5 3.1 2.1 4.6.4 1 0 2.2-1 2.6-.2.3-.5.3-.8.3zM677.7 43.5c-.3 0-.6-.1-.9-.2-1-.5-1.4-1.7-.9-2.7.7-1.5 1.5-3 2.3-4.5.5-1 1.7-1.3 2.7-.8s1.3 1.7.8 2.7c-.8 1.4-1.5 2.9-2.3 4.4-.3.7-1 1.1-1.7 1.1zM930.5 36.8c-.7 0-1.4-.4-1.7-1-.8-1.4-1.6-2.9-2.5-4.3-.6-.9-.3-2.2.7-2.8.9-.6 2.2-.3 2.7.7.9 1.4 1.7 2.9 2.6 4.4.5 1 .2 2.2-.8 2.7-.3.2-.6.3-1 .3zM684.5 31.3c-.4 0-.7-.1-1.1-.3-.9-.6-1.2-1.8-.6-2.8.9-1.4 1.8-2.9 2.8-4.2.6-.9 1.9-1.2 2.8-.5.9.6 1.2 1.9.5 2.8-.9 1.3-1.8 2.7-2.7 4.1-.4.6-1 .9-1.7.9zM923.1 24.9c-.6 0-1.3-.3-1.6-.9-.9-1.3-1.9-2.7-2.9-4-.7-.9-.5-2.1.4-2.8s2.1-.5 2.8.4c1 1.3 2 2.7 3 4.1.6.9.4 2.2-.5 2.8-.4.3-.8.4-1.2.4zM692.5 19.9c-.4 0-.9-.1-1.2-.4-.9-.7-1-1.9-.4-2.8 1-1.3 2.1-2.7 3.2-4 .7-.9 2-1 2.8-.3.9.7 1 2 .3 2.8-1 1.3-2.1 2.6-3.1 3.9-.4.5-1 .8-1.6.8zM914.5 13.9c-.6 0-1.1-.2-1.5-.7-1.1-1.3-2.2-2.5-3.3-3.7-.7-.8-.7-2.1.1-2.8s2.1-.7 2.8.1c1.1 1.2 2.3 2.5 3.4 3.8.7.8.6 2.1-.2 2.8-.4.3-.9.5-1.3.5zM701.5 9.2c-.5 0-1-.2-1.4-.5-.8-.8-.8-2-.1-2.8 1.1-1.2 2.3-2.5 3.5-3.6.8-.8 2-.8 2.8 0s.8 2 0 2.8c-1.2 1.2-2.3 2.3-3.4 3.5-.3.4-.8.6-1.4.6zM661.6 382.6h2.3c-.3-.2-.7-.4-1.2-.4s-.7.2-1.1.4zM951 381.6v-5c0-1.1-.9-2-2-2s-2 .9-2 2v5c0 .4.1.7.3 1h3.5c.1-.3.2-.6.2-1z"/></g><path fill="#DEDEDE" d="M245.6.3c1.3 1.1 2.5 2.2 3.7 3.3.4.3.9.5 1.4.5s1-.2 1.4-.6c.8-.8.7-2.1-.1-2.8l-.6-.6h-5.9c0 .1 0 .2.1.2zM58.2 1.4c.4.5.9.7 1.5.7.5 0 1-.2 1.3-.5.6-.5 1.2-1 1.7-1.5h-5c0 .5.2 1 .5 1.3z"/><path fill="#898989" d="M906.2.1h-5.9c1.1 1 2.1 2 3.2 3 .4.4.9.6 1.4.6s1-.2 1.4-.8c.7-.8.7-2-.1-2.8z"/><path fill="#DEDEDE" d="M308.9.1h9.8v.8h-9.8z"/></g><g class="icons-group"><g class="icons icons-B"><g class="button"><path fill="#FFF" d="M607 7h16v320h-16z"/><path class="text" d="M611.7 22.6c0-2.4 1.1-3.6 3.4-3.6 1.1 0 2 .3 2.7 1s.9 1.5.9 2.7V24h-7v-1.4zm8.4.3c0-1.7-.5-3-1.4-4s-2.1-1.5-3.6-1.5c-3.2 0-4.8 1.8-4.8 5.4v2.8h9.8v-2.7zm-9.8 5v1.6h5.8c1.9 0 2.8.7 2.8 2.2s-1 2.2-2.9 2.2h-5.7v1.6h6c2.6 0 4-1.2 4-3.7 0-2.6-1.4-3.9-4.1-3.9h-5.9zm2.2 11.8c.6-.5 1.5-.8 2.7-.8 1.1 0 2 .3 2.7.8s1 1.3 1 2.2-.3 1.6-1 2.1-1.5.8-2.6.8-2-.3-2.6-.8-1-1.3-1-2.2c-.1-.8.2-1.5.8-2.1zm6.4-1.2c-.9-.9-2.2-1.3-3.8-1.3-1.5 0-2.7.4-3.6 1.3s-1.4 1.9-1.4 3.3c0 1.5.5 2.7 1.4 3.5s2.2 1.3 3.8 1.3c1.5 0 2.7-.4 3.6-1.3s1.4-2 1.4-3.4-.5-2.5-1.4-3.4zm-.2 8.5v3.8h-8.4v1.6h9.8V47h-1.4zm-.5 7.3c.4.7.7 1.5.7 2.4 0 1-.3 1.8-1 2.4-.6.6-1.5.9-2.6.9s-2-.3-2.7-1-1-1.5-1-2.6c0-.8.2-1.5.6-2.2h-1.6c-.3.6-.4 1.4-.4 2.4 0 1.5.5 2.7 1.4 3.7s2.2 1.4 3.8 1.4c1.5 0 2.6-.4 3.5-1.3s1.3-2 1.3-3.4c0-1.1-.2-2-.6-2.8l-1.4.1zm.5 12.4v3.9h-2.9v-3.4h-1.4v3.4h-2.8v-3.7h-1.4v5.3h9.8v-5.5h-1.3zM611.6 78c0-.6.1-1 .4-1.3s.6-.4 1.1-.4c.3 0 .5 0 .7.1s.4.2.5.4.3.3.3.6.1.4.1.7v1.4h-3.2V78h.1zm5.8-2.9c-.2.1-.4.3-.6.4-.2.1-.3.2-.4.4s-.3.2-.4.4c-.1.1-.2.3-.3.5-.1-.3-.2-.6-.4-.9s-.4-.5-.6-.7c-.2-.2-.5-.3-.8-.4s-.6-.2-1-.2-.8.1-1.2.2c-.3.2-.6.4-.8.7s-.4.6-.5 1-.2.8-.2 1.3V81h9.8v-1.6h-4v-.7c0-.2 0-.4.1-.6s.1-.3.2-.5.3-.3.4-.4c.2-.1.4-.3.6-.4l2.6-1.6v-1.9l-2.5 1.8zm-7.1 8.2v1.6h5.8c1.9 0 2.8.7 2.8 2.2s-1 2.2-2.9 2.2h-5.7v1.6h6c2.6 0 4-1.2 4-3.7 0-2.6-1.4-3.9-4.1-3.9h-5.9zm0 9v7.2h1.4v-5l7.7 5.4h.7v-7.6h-1.4v5.3l-7.7-5.4-.7.1zm6 14.5l-3.9-1.3c-.2-.1-.4-.1-.6-.1.3 0 .5-.1.6-.1l3.9-1.4v2.9zm-6-2.5v1.8l9.8 3.7V108l-2.5-.8v-3.9l2.5-.9v-1.8l-9.8 3.7zm2.2 12.5c.6-.5 1.5-.8 2.7-.8 1.1 0 2 .3 2.7.8s1 1.3 1 2.2-.3 1.6-1 2.1-1.5.8-2.6.8-2-.3-2.6-.8-1-1.3-1-2.2c-.1-.8.2-1.5.8-2.1zm6.4-1.2c-.9-.9-2.2-1.3-3.8-1.3-1.5 0-2.7.4-3.6 1.3s-1.4 1.9-1.4 3.3c0 1.5.5 2.7 1.4 3.5s2.2 1.3 3.8 1.3c1.5 0 2.7-.4 3.6-1.3s1.4-2 1.4-3.4c0-1.3-.5-2.5-1.4-3.4zm-8.6 8.4v7.3h1.4v-2.8h8.4v-1.6h-8.4v-2.8l-1.4-.1zm1.4 17.2c0-2.4 1.1-3.6 3.4-3.6 1.1 0 2 .3 2.7 1s.9 1.5.9 2.7v1.3h-7v-1.4zm8.4.3c0-1.7-.5-3-1.4-4s-2.1-1.5-3.6-1.5c-3.2 0-4.8 1.8-4.8 5.4v2.8h9.8v-2.7zm-1.4 4.4v3.9h-2.9v-3.4h-1.4v3.4h-2.8v-3.7h-1.4v5.3h9.8v-5.5h-1.3zm-8.4 7v7.3h1.4v-2.8h8.4v-1.6h-8.4V153h-1.4v-.1zm1.3 11.6c0-.6.1-1 .4-1.3s.6-.4 1.1-.4c.3 0 .5 0 .7.1s.4.2.5.4.3.3.3.6.1.4.1.7v1.4h-3.2v-1.5h.1zm5.8-2.8c-.2.1-.4.3-.6.4-.2.1-.3.2-.4.4s-.3.2-.4.4c-.1.1-.2.3-.3.5-.1-.3-.2-.6-.4-.9s-.4-.5-.6-.7c-.2-.2-.5-.3-.8-.4-.3-.1-.6-.2-1-.2s-.8.1-1.2.2c-.3.2-.6.4-.8.7s-.4.6-.5 1-.2.8-.2 1.3v3.2h9.8V166h-4v-.7c0-.2 0-.4.1-.6s.1-.3.2-.5.3-.3.4-.4c.2-.1.4-.3.6-.4l2.6-1.6v-1.9l-2.5 1.8zm1.3 7.6v3.9h-2.9v-3.4h-1.4v3.4h-2.8v-3.7h-1.4v5.3h9.8v-5.5h-1.3zm-8.4 8.5l7.4 2.5c.3.1.6.2.8.2-.3 0-.6.1-.8.2l-7.4 2.4v1.8l9.8-3.5v-1.8l-9.8-3.5v1.7zm0 8.4v1.7h9.8v-1.7h-9.8zm1.4 8.7c0-2.4 1.1-3.6 3.4-3.6 1.1 0 2 .3 2.7 1s.9 1.5.9 2.7v1.3h-7v-1.4zm8.4.3c0-1.7-.5-3-1.4-4s-2.1-1.5-3.6-1.5c-3.2 0-4.8 1.8-4.8 5.4v2.8h9.8v-2.7zm-1.9 8.4c.4.7.7 1.5.7 2.4 0 1-.3 1.8-1 2.4-.6.6-1.5.9-2.6.9s-2-.3-2.7-1-1-1.5-1-2.6c0-.8.2-1.5.6-2.2h-1.6c-.3.6-.4 1.4-.4 2.4 0 1.5.5 2.7 1.4 3.7s2.2 1.4 3.8 1.4c1.5 0 2.6-.4 3.5-1.3s1.3-2 1.3-3.4c0-1.1-.2-2-.6-2.8l-1.4.1zm-7.9 9.2v1.7h9.8v-1.7h-9.8zm0 3.5v5.3h9.8V220H616v-3.5h-1.4v3.4h-2.9v-3.7l-1.4.1zm0 7v5.3h9.8V227H616v-3.4h-1.4v3.4h-2.9v-3.7h-1.4zm6 12.7l-3.9-1.3c-.2-.1-.4-.1-.6-.1.3 0 .5-.1.6-.1l3.9-1.4v2.9zm-6-2.4v1.8l9.8 3.7v-1.8l-2.5-.8v-3.9l2.5-.9v-1.8l-9.8 3.7zm1.3 10.1c0-.6.1-1 .4-1.3s.6-.4 1.1-.4c.3 0 .5 0 .7.1s.4.2.5.4.3.3.3.6.1.4.1.7v1.4h-3.2v-1.5h.1zm5.8-2.8c-.2.1-.4.3-.6.4-.2.1-.3.2-.4.4s-.3.2-.4.4c-.1.1-.2.3-.3.5-.1-.3-.2-.6-.4-.9s-.4-.5-.6-.7c-.2-.2-.5-.3-.8-.4-.3-.1-.6-.2-1-.2s-.8.1-1.2.2c-.3.2-.6.4-.8.7s-.4.6-.5 1-.2.8-.2 1.3v3.2h9.8v-1.6h-4v-.7c0-.2 0-.4.1-.6s.1-.3.2-.5.3-.3.4-.4c.2-.1.4-.3.6-.4l2.6-1.6v-1.9l-2.5 1.8zm-7.1 7.2v7.3h1.4v-2.8h8.4V251h-8.4v-2.8l-1.4-.1zm9.7 17.7c.1-.2.1-.5.2-.7 0-.3.1-.5.1-.7v-.6c0-.5 0-1-.1-1.4s-.3-.8-.5-1.2-.5-.6-.8-.8-.8-.3-1.3-.3c-.4 0-.7.1-1 .2s-.6.3-.8.5-.5.5-.6.8-.4.6-.6 1c-.1.3-.3.6-.4.9-.1.3-.3.5-.4.6l-.4.4c-.1.1-.3.1-.6.1-.2 0-.4-.1-.6-.2s-.3-.3-.4-.5-.2-.4-.2-.6-.1-.5-.1-.7c0-.9.2-1.6.6-2.1h-1.6c-.2.5-.3 1.2-.3 2.2 0 .5.1.9.2 1.3s.3.8.5 1.2c.2.3.5.6.8.8s.7.3 1.2.3c.4 0 .7-.1 1-.2s.5-.3.7-.5.4-.5.6-.7.4-.6.5-.9.3-.6.4-.9c.1-.3.3-.5.4-.7s.3-.4.5-.5.4-.2.6-.2c.4 0 .8.2 1 .5s.3.8.3 1.5c0 .2 0 .4-.1.6s-.1.5-.2.7c-.1.2-.2.5-.3.7s-.2.4-.4.5h1.7c.2 0 .3-.2.4-.4zm-9.7 2.4v1.6h5.8c1.9 0 2.8.7 2.8 2.2s-1 2.2-2.9 2.2h-5.7v1.6h6c2.6 0 4-1.2 4-3.7 0-2.6-1.4-3.9-4.1-3.9h-5.9zm8.4 8.7v3.8h-8.4v1.6h9.8v-5.4h-1.4zm-7.1 10.8c0-1.3.6-2 1.7-2 .6 0 1 .2 1.4.5s.5.9.5 1.6v1.1h-3.6v-1.2zm5-.1c0-1.1-.3-2-.9-2.6s-1.4-1-2.3-1-1.7.3-2.2.9-.8 1.5-.8 2.6v3h9.8v-1.6h-3.6v-1.3zm-5 8.7c0-.6.1-1 .4-1.3s.6-.4 1.1-.4c.3 0 .5 0 .7.1s.4.2.5.4.3.3.3.6.1.4.1.7v1.4h-3.2v-1.5h.1zm5.8-2.9c-.2.1-.4.3-.6.4-.2.1-.3.2-.4.4s-.3.2-.4.4c-.1.1-.2.3-.3.5-.1-.3-.2-.6-.4-.9s-.4-.5-.6-.7c-.2-.2-.5-.3-.8-.4s-.6-.2-1-.2-.8.1-1.2.2c-.3.2-.6.4-.8.7s-.4.6-.5 1-.2.8-.2 1.3v3.2h9.8v-1.6h-4v-.7c0-.2 0-.4.1-.6s.1-.3.2-.5.3-.3.4-.4c.2-.1.4-.3.6-.4l2.6-1.6v-1.9l-2.5 1.8zm-7.1 8.1v1.6h5.8c1.9 0 2.8.7 2.8 2.2s-1 2.2-2.9 2.2h-5.7v1.6h6c2.6 0 4-1.2 4-3.7 0-2.6-1.4-3.9-4.1-3.9h-5.9zm9.7 15.1c.1-.2.1-.5.2-.7 0-.3.1-.5.1-.7v-.6c0-.5 0-1-.1-1.4s-.3-.8-.5-1.2-.5-.6-.8-.8-.8-.3-1.3-.3c-.4 0-.7.1-1 .2s-.6.3-.8.5-.5.5-.6.8-.4.6-.6 1c-.1.3-.3.6-.4.9-.1.3-.3.5-.4.6l-.4.4c-.1.1-.3.1-.6.1-.2 0-.4-.1-.6-.2s-.3-.3-.4-.5-.2-.4-.2-.6-.1-.5-.1-.7c0-.9.2-1.6.6-2.1h-1.6c-.2.5-.3 1.2-.3 2.2 0 .5.1.9.2 1.3s.3.8.5 1.2c.2.3.5.6.8.8s.7.3 1.2.3c.4 0 .7-.1 1-.2s.5-.3.7-.5.4-.5.6-.7.4-.6.5-.9.3-.6.4-.9c.1-.3.3-.5.4-.7s.3-.4.5-.5.4-.2.6-.2c.4 0 .8.2 1 .5s.3.8.3 1.5c0 .2 0 .4-.1.6s-.1.5-.2.7c-.1.2-.2.5-.3.7s-.2.4-.4.5h1.7c.2 0 .3-.2.4-.4z"/></g><g class="line" fill="none" stroke="#DEDEDE" stroke-width="4" stroke-linejoin="round" stroke-miterlimit="10"><path d="M565.4 0v168.3"/><circle stroke-linecap="round" cx="592.4" cy="167.2" r="5"/><path d="M563.3 167.2h24.5"/></g></g><g class="icons icons-A"><g class="button"><path fill="#FFF" d="M758.1 329.6h94v36.3h-94z"/><path stroke="#000" stroke-width="3" stroke-linecap="round" stroke-linejoin="round" stroke-miterlimit="10" d="M758.1 329.6h94v36.3h-94z"/><path class="text" fill="#FFF" d="M830.8 344.7c.6 0 1 .1 1.3.4s.4.6.4 1.1c0 .3 0 .5-.1.7s-.2.4-.4.5-.3.3-.5.3-.4.1-.7.1h-1.3v-3.2h1.3v.1zm2.9 5.7c-.1-.2-.3-.4-.4-.6-.1-.2-.2-.3-.3-.4s-.2-.3-.4-.4c-.1-.1-.3-.2-.5-.3.3-.1.6-.2.9-.4.3-.2.5-.4.7-.6s.3-.5.4-.8c.1-.3.2-.6.2-.9 0-.4-.1-.8-.2-1.2-.2-.3-.4-.6-.7-.8s-.6-.4-1-.5-.8-.2-1.3-.2h-3.2v9.8h1.6v-4h.7c.2 0 .4 0 .6.1s.3.1.5.2c.1.1.3.2.4.4.1.2.3.4.4.6l1.6 2.6h1.9l-1.9-2.6zm-7.6 1.4h-3.9v-2.9h3.4v-1.4h-3.4v-2.8h3.6v-1.4h-5.3v9.8h5.5v-1.3h.1zm-7.8-8.4h-1.7v9.8h1.7v-9.8zm-3.1 0H808v1.4h2.8v8.4h1.6v-8.4h2.8v-1.4zm-15.7 5.4c1.4 0 2.1.5 2.1 1.5 0 .5-.2.9-.5 1.2s-.8.4-1.4.4h-1.4v-3.1h1.2zm0-4.1c1.1 0 1.7.4 1.7 1.3 0 .5-.2.9-.5 1.1-.3.3-.8.4-1.3.4h-1v-2.8h1.1zm.3 8.5c1 0 1.8-.3 2.5-.8s1-1.2 1-2c0-.7-.2-1.2-.6-1.6-.4-.4-.9-.7-1.6-.7.6-.2 1-.5 1.3-.9s.5-.9.5-1.4c0-.7-.3-1.2-.8-1.6-.6-.4-1.3-.6-2.2-.6h-3.1v9.8h3v-.2zm-4.9-1.4H791v-2.9h3.4v-1.4H791v-2.8h3.6v-1.4h-5.3v9.8h5.5v-1.3h.1zm-8.5-8.4l-1.7 7.2c-.1.4-.1.7-.2.9 0-.3-.1-.6-.1-.9l-1.8-7.2h-1.7l-2 7.1c-.1.4-.2.7-.2.9 0-.3-.1-.6-.1-.9l-1.8-7.1H775l2.7 9.8h1.9l1.9-6.8c.1-.3.1-.6.2-.9 0 .3.1.7.1 1l1.9 6.8h1.8l2.7-9.8-1.8-.1z"/></g><g class="button"><path fill="#FFF" d="M106 252h95v39.9h-95z"/><path stroke="#000" stroke-width="3" stroke-linecap="round" stroke-linejoin="round" stroke-miterlimit="10" d="M107 255.6h94v36.3h-94z"/><path class="text" fill="#FFF" d="M179.8 270.7c.6 0 1 .1 1.3.4s.4.6.4 1.1c0 .3 0 .5-.1.7s-.2.4-.4.5-.3.3-.5.3-.4.1-.7.1h-1.3v-3.2h1.3v.1zm2.8 5.7c-.1-.2-.3-.4-.4-.6-.1-.2-.2-.3-.3-.4s-.2-.3-.4-.4c-.1-.1-.3-.2-.5-.3.3-.1.6-.2.9-.4.3-.2.5-.4.7-.6s.3-.5.4-.8c.1-.3.2-.6.2-.9 0-.4-.1-.8-.2-1.2-.2-.3-.4-.6-.7-.8s-.6-.4-1-.5-.8-.2-1.3-.2h-3.2v9.8h1.6v-4h.7c.2 0 .4 0 .6.1s.3.1.5.2c.1.1.3.2.4.4.1.2.3.4.4.6l1.6 2.6h1.9l-1.9-2.6zm-7.5 1.4h-3.9v-2.9h3.4v-1.4h-3.4v-2.8h3.6v-1.4h-5.3v9.8h5.5l.1-1.3zm-7.9-8.4h-1.7v9.8h1.7v-9.8zm-3.1 0h-7.2v1.4h2.8v8.4h1.6v-8.4h2.8v-1.4zm-15.7 5.4c1.4 0 2.1.5 2.1 1.5 0 .5-.2.9-.5 1.2s-.8.4-1.4.4h-1.4v-3.1h1.2zm0-4.1c1.1 0 1.7.4 1.7 1.3 0 .5-.2.9-.5 1.1-.3.3-.8.4-1.3.4h-1v-2.8h1.1zm.4 8.5c1 0 1.8-.3 2.5-.8s1-1.2 1-2c0-.7-.2-1.2-.6-1.6-.4-.4-.9-.7-1.6-.7.6-.2 1-.5 1.3-.9s.5-.9.5-1.4c0-.7-.3-1.2-.8-1.6-.6-.4-1.3-.6-2.2-.6h-3.1v9.8h3v-.2zm-4.9-1.4H140v-2.9h3.4v-1.4H140v-2.8h3.6v-1.4h-5.3v9.8h5.5l.1-1.3zm-8.5-8.4l-1.7 7.2c-.1.4-.1.7-.2.9 0-.3-.1-.6-.1-.9l-1.8-7.2h-1.7l-2 7.1c-.1.4-.2.7-.2.9 0-.3-.1-.6-.1-.9l-1.8-7.1H124l2.7 9.8h1.9l1.9-6.8c.1-.3.1-.6.2-.9 0 .3.1.7.1 1l1.9 6.8h1.8l2.7-9.8-1.8-.1z"/></g><g class="line" fill="none" stroke="#DEDEDE" stroke-width="4" stroke-linejoin="round" stroke-miterlimit="10"><path d="M55.4 0v277.2M83.3 275.2H53.7"/><circle stroke-linecap="round" cx="87.4" cy="275.2" r="5"/></g><g class="line" fill="none" stroke="#DEDEDE" stroke-width="4" stroke-linejoin="round" stroke-miterlimit="10"><path d="M929.6-1v351.2M874.7 348.2h56.6"/><circle stroke-linecap="round" cx="870.6" cy="348.2" r="5"/></g></g></g></svg>