<?xml version="1.0" encoding="utf-8"?>
<!-- Generator: Adobe Illustrator 19.2.0, SVG Export Plug-In . SVG Version: 6.00 Build 0)  -->
<svg version="1.1" id="Layer_1" xmlns="http://www.w3.org/2000/svg" xmlns:xlink="http://www.w3.org/1999/xlink" x="0px" y="0px"
	 viewBox="0 0 960 123.1" style="enable-background:new 0 0 960 123.1;" xml:space="preserve">
<g id="Layer_1_1_">
</g>
<path style="fill:#FFFFFF;" d="M433,49.6c-3.2,20.1-22.1,33.7-42.1,30.5C370.8,76.9,357.2,58,360.4,38c0.8-5.1,2.7-9.8,5.3-14
	c4.6-7.1,11.5-12.5,19.5-15.1c5.4-1.8,11.3-2.3,17.3-1.4C422.6,10.7,436.2,29.6,433,49.6z"/>
<path style="fill:none;stroke:#686868;stroke-width:3;stroke-linecap:round;stroke-linejoin:round;" d="M433,49.6
	c-3.2,20.1-22.1,33.7-42.1,30.5C370.8,76.9,357.2,58,360.4,38c0.8-5.1,2.7-9.8,5.3-14c4.6-7.1,11.5-12.5,19.5-15.1
	c5.4-1.8,11.3-2.3,17.3-1.4C422.6,10.7,436.2,29.6,433,49.6z"/>
<path style="fill:#FFFFFF;" d="M426.5,48.6c-2.6,16.4-18.1,27.6-34.5,25s-27.6-18.1-25-34.5c0.7-4.2,2.2-8.1,4.3-11.4
	c3.7-5.9,9.4-10.2,16-12.4c4.4-1.5,9.3-1.9,14.2-1.1C417.9,16.7,429.1,32.2,426.5,48.6z"/>
<path style="fill:none;stroke:#686868;stroke-width:3;stroke-linecap:round;stroke-linejoin:round;" d="M426.5,48.6
	c-2.6,16.4-18.1,27.6-34.5,25s-27.6-18.1-25-34.5c0.7-4.2,2.2-8.1,4.3-11.4c3.7-5.9,9.4-10.2,16-12.4c4.4-1.5,9.3-1.9,14.2-1.1
	C417.9,16.7,429.1,32.2,426.5,48.6z"/>
<path style="fill:#686868;" d="M385.3,58.7c0-7.6,5.2-13.8,11.6-13.8s11.6,6.2,11.6,13.8H385.3z"/>
<circle style="fill:#686868;" cx="396.9" cy="36.1" r="7.1"/>
<path style="fill:#686868;" d="M445.3,111.8c0.2,0.1,0.5,0.1,0.7,0.2c0.3,0,0.5,0.1,0.7,0.1s0.4,0,0.6,0c0.5,0,1,0,1.4-0.1
	s0.8-0.2,1.2-0.5c0.3-0.2,0.6-0.5,0.8-0.8c0.2-0.3,0.3-0.8,0.3-1.3c0-0.4-0.1-0.7-0.2-1s-0.3-0.5-0.5-0.8c-0.2-0.2-0.5-0.5-0.8-0.6
	c-0.3-0.2-0.6-0.4-1-0.6c-0.3-0.1-0.6-0.3-0.9-0.4s-0.5-0.3-0.6-0.4c-0.2-0.1-0.3-0.3-0.4-0.4s-0.1-0.3-0.1-0.6
	c0-0.2,0.1-0.4,0.2-0.6s0.3-0.3,0.5-0.4s0.4-0.2,0.6-0.2s0.5-0.1,0.7-0.1c0.9,0,1.6,0.2,2.1,0.6v-1.6c-0.5-0.2-1.2-0.3-2.2-0.3
	c-0.4,0-0.9,0.1-1.3,0.2s-0.8,0.3-1.2,0.5c-0.3,0.2-0.6,0.5-0.8,0.8c-0.2,0.3-0.3,0.7-0.3,1.2c0,0.4,0.1,0.7,0.2,1s0.3,0.5,0.5,0.7
	s0.5,0.4,0.7,0.6c0.3,0.2,0.6,0.4,0.9,0.5s0.6,0.3,0.9,0.4s0.5,0.3,0.7,0.4s0.4,0.3,0.5,0.5s0.2,0.4,0.2,0.6c0,0.4-0.2,0.8-0.5,1
	s-0.8,0.3-1.5,0.3c-0.2,0-0.4,0-0.6-0.1c-0.2,0-0.5-0.1-0.7-0.2s-0.5-0.2-0.7-0.3c-0.2-0.1-0.4-0.2-0.5-0.4v1.7
	C444.9,111.6,445.1,111.7,445.3,111.8z M439.5,103.5c0.6,0,1,0.1,1.3,0.4s0.4,0.6,0.4,1.1c0,0.3,0,0.5-0.1,0.7s-0.2,0.4-0.4,0.5
	s-0.3,0.3-0.5,0.3s-0.4,0.1-0.7,0.1h-1.3v-3.2L439.5,103.5L439.5,103.5z M442.4,109.2c-0.1-0.2-0.3-0.4-0.4-0.6s-0.2-0.3-0.3-0.4
	c-0.1-0.1-0.2-0.3-0.4-0.4c-0.1-0.1-0.3-0.2-0.5-0.3l0,0c0.3-0.1,0.6-0.2,0.9-0.4c0.3-0.2,0.5-0.4,0.7-0.6s0.3-0.5,0.4-0.8
	s0.2-0.6,0.2-0.9c0-0.4-0.1-0.8-0.2-1.2c-0.2-0.3-0.4-0.6-0.7-0.8c-0.3-0.2-0.6-0.4-1-0.5s-0.8-0.2-1.3-0.2h-3.2v9.8h1.6v-4h0.7
	c0.2,0,0.4,0,0.6,0.1s0.3,0.1,0.5,0.2c0.1,0.1,0.3,0.2,0.4,0.4c0.1,0.2,0.3,0.4,0.4,0.6l1.6,2.6h1.9L442.4,109.2z M434.8,110.6H431
	v-2.9h3.4v-1.4H431v-2.8h3.6v-1.4h-5.3v9.8h5.5L434.8,110.6L434.8,110.6z M421.9,111.8c0.2,0.1,0.5,0.1,0.7,0.2
	c0.3,0,0.5,0.1,0.7,0.1s0.4,0,0.6,0c0.5,0,1,0,1.4-0.1s0.8-0.2,1.2-0.5c0.3-0.2,0.6-0.5,0.8-0.8c0.2-0.3,0.3-0.8,0.3-1.3
	c0-0.4-0.1-0.7-0.2-1s-0.3-0.5-0.5-0.8c-0.2-0.2-0.5-0.5-0.8-0.6c-0.3-0.2-0.6-0.4-1-0.6c-0.3-0.1-0.6-0.3-0.9-0.4s-0.5-0.3-0.6-0.4
	c-0.2-0.1-0.3-0.3-0.4-0.4s-0.1-0.3-0.1-0.6c0-0.2,0.1-0.4,0.2-0.6s0.3-0.3,0.5-0.4s0.4-0.2,0.6-0.2s0.5-0.1,0.7-0.1
	c0.9,0,1.6,0.2,2.1,0.6v-1.6c-0.5-0.2-1.2-0.3-2.2-0.3c-0.4,0-0.9,0.1-1.3,0.2s-0.8,0.3-1.2,0.5c-0.3,0.2-0.6,0.5-0.8,0.8
	c-0.2,0.3-0.3,0.7-0.3,1.2c0,0.4,0.1,0.7,0.2,1s0.3,0.5,0.5,0.7s0.5,0.4,0.7,0.6c0.3,0.2,0.6,0.4,0.9,0.5s0.6,0.3,0.9,0.4
	s0.5,0.3,0.7,0.4s0.4,0.3,0.5,0.5s0.2,0.4,0.2,0.6c0,0.4-0.2,0.8-0.5,1s-0.8,0.3-1.5,0.3c-0.2,0-0.4,0-0.6-0.1
	c-0.2,0-0.5-0.1-0.7-0.2s-0.5-0.2-0.7-0.3c-0.2-0.1-0.4-0.2-0.5-0.4v1.7C421.5,111.6,421.6,111.7,421.9,111.8z M419.5,102.2h-1.6
	v5.7c0,1.8-0.7,2.8-2.1,2.8c-1.5,0-2.2-1-2.2-2.9v-5.6H412v6c0,2.6,1.2,4,3.7,4c2.6,0,3.9-1.4,3.9-4.1L419.5,102.2L419.5,102.2z
	 M406.7,110.6H403v-8.4h-1.6v9.8h5.4L406.7,110.6L406.7,110.6z M393.9,108.1l1.3-3.9c0-0.1,0.1-0.4,0.1-0.6l0,0
	c0,0.3,0.1,0.5,0.1,0.6l1.4,3.9H393.9z M396.4,102.2h-1.8l-3.7,9.8h1.8l0.8-2.5h3.8l0.9,2.5h1.8L396.4,102.2z M389.6,102.2H388v6.3
	c0,0.6,0,1.1,0.1,1.3l0,0c-0.1-0.1-0.2-0.3-0.4-0.6l-4.5-7h-1.9v9.8h1.6v-6.4c0-0.7,0-1.1-0.1-1.3l0,0c0.1,0.2,0.2,0.4,0.3,0.6
	l4.7,7.2h1.8V102.2z M375.6,103.5c0.6,0,1,0.1,1.3,0.4s0.4,0.6,0.4,1.1c0,0.3,0,0.5-0.1,0.7s-0.2,0.4-0.4,0.5s-0.3,0.3-0.5,0.3
	s-0.4,0.1-0.7,0.1h-1.3v-3.2L375.6,103.5L375.6,103.5z M378.4,109.2c-0.1-0.2-0.3-0.4-0.4-0.6s-0.2-0.3-0.3-0.4
	c-0.1-0.1-0.2-0.3-0.4-0.4c-0.1-0.1-0.3-0.2-0.5-0.3l0,0c0.3-0.1,0.6-0.2,0.9-0.4c0.3-0.2,0.5-0.4,0.7-0.6s0.3-0.5,0.4-0.8
	s0.2-0.6,0.2-0.9c0-0.4-0.1-0.8-0.2-1.2c-0.2-0.3-0.4-0.6-0.7-0.8c-0.3-0.2-0.6-0.4-1-0.5s-0.8-0.2-1.3-0.2h-3.2v9.8h1.6v-4h0.7
	c0.2,0,0.4,0,0.6,0.1s0.3,0.1,0.5,0.2c0.1,0.1,0.3,0.2,0.4,0.4c0.1,0.2,0.3,0.4,0.4,0.6l1.6,2.6h1.9L378.4,109.2z M370.9,110.6H367
	v-2.9h3.4v-1.4H367v-2.8h3.6v-1.4h-5.3v9.8h5.5L370.9,110.6L370.9,110.6z M364,102.2h-7.2v1.4h2.8v8.4h1.6v-8.4h2.8L364,102.2
	L364,102.2z M355.3,102.2h-1.6v6.3c0,0.6,0,1.1,0.1,1.3l0,0c-0.1-0.1-0.2-0.3-0.4-0.6l-4.5-7H347v9.8h1.6v-6.4c0-0.7,0-1.1-0.1-1.3
	l0,0c0.1,0.2,0.2,0.4,0.3,0.6l4.7,7.2h1.8V102.2z M344.7,102.2H343v9.8h1.7V102.2z"/>
<path style="fill:#FFFFFF;" d="M597,49.6c-3.2,20.1-22.1,33.7-42.1,30.5S521.1,58,524.4,38c0.8-5.1,2.7-9.8,5.3-14
	c4.6-7.1,11.5-12.5,19.5-15.1c5.4-1.8,11.3-2.3,17.3-1.4C586.6,10.7,600.2,29.6,597,49.6z"/>
<path style="fill:none;stroke:#686868;stroke-width:3;stroke-linecap:round;stroke-linejoin:round;" d="M597,49.6
	c-3.2,20.1-22.1,33.7-42.1,30.5S521.1,58,524.4,38c0.8-5.1,2.7-9.8,5.3-14c4.6-7.1,11.5-12.5,19.5-15.1c5.4-1.8,11.3-2.3,17.3-1.4
	C586.6,10.7,600.2,29.6,597,49.6z"/>
<path style="fill:#FFFFFF;" d="M590.4,48.6c-2.6,16.4-18.1,27.6-34.5,25s-27.6-18.1-25-34.5c0.7-4.2,2.2-8.1,4.3-11.4
	c3.7-5.9,9.4-10.2,16-12.4c4.4-1.5,9.3-1.9,14.2-1.1C581.9,16.7,593.1,32.2,590.4,48.6z"/>
<path style="fill:none;stroke:#686868;stroke-width:3;stroke-linecap:round;stroke-linejoin:round;" d="M590.4,48.6
	c-2.6,16.4-18.1,27.6-34.5,25s-27.6-18.1-25-34.5c0.7-4.2,2.2-8.1,4.3-11.4c3.7-5.9,9.4-10.2,16-12.4c4.4-1.5,9.3-1.9,14.2-1.1
	C581.9,16.7,593.1,32.2,590.4,48.6z"/>
<path style="fill:#686868;" d="M549.3,58.7c0-7.6,5.2-13.8,11.6-13.8c6.4,0,11.6,6.2,11.6,13.8H549.3z"/>
<circle style="fill:#686868;" cx="560.9" cy="36.1" r="7.1"/>
<path style="fill:#686868;" d="M610,111.8c0.2,0.1,0.5,0.1,0.7,0.2c0.3,0,0.5,0.1,0.7,0.1s0.4,0,0.6,0c0.5,0,1,0,1.4-0.1
	s0.8-0.2,1.2-0.5c0.3-0.2,0.6-0.5,0.8-0.8s0.3-0.8,0.3-1.3c0-0.4-0.1-0.7-0.2-1c-0.1-0.3-0.3-0.5-0.5-0.8c-0.2-0.2-0.5-0.5-0.8-0.6
	c-0.3-0.2-0.6-0.4-1-0.6c-0.3-0.1-0.6-0.3-0.9-0.4c-0.3-0.1-0.5-0.3-0.6-0.4c-0.2-0.1-0.3-0.3-0.4-0.4s-0.1-0.3-0.1-0.6
	c0-0.2,0.1-0.4,0.2-0.6c0.1-0.2,0.3-0.3,0.5-0.4s0.4-0.2,0.6-0.2c0.2,0,0.5-0.1,0.7-0.1c0.9,0,1.6,0.2,2.1,0.6v-1.6
	c-0.5-0.2-1.2-0.3-2.2-0.3c-0.4,0-0.9,0.1-1.3,0.2s-0.8,0.3-1.2,0.5c-0.3,0.2-0.6,0.5-0.8,0.8s-0.3,0.7-0.3,1.2c0,0.4,0.1,0.7,0.2,1
	c0.1,0.3,0.3,0.5,0.5,0.7s0.5,0.4,0.7,0.6c0.3,0.2,0.6,0.4,0.9,0.5c0.3,0.1,0.6,0.3,0.9,0.4c0.3,0.1,0.5,0.3,0.7,0.4
	s0.4,0.3,0.5,0.5s0.2,0.4,0.2,0.6c0,0.4-0.2,0.8-0.5,1s-0.8,0.3-1.5,0.3c-0.2,0-0.4,0-0.6-0.1c-0.2,0-0.5-0.1-0.7-0.2
	s-0.5-0.2-0.7-0.3c-0.2-0.1-0.4-0.2-0.5-0.4v1.7C609.6,111.6,609.8,111.7,610,111.8z M604.3,103.5c0.6,0,1,0.1,1.3,0.4
	s0.4,0.6,0.4,1.1c0,0.3,0,0.5-0.1,0.7s-0.2,0.4-0.4,0.5s-0.3,0.3-0.5,0.3s-0.4,0.1-0.7,0.1H603v-3.2L604.3,103.5L604.3,103.5z
	 M607.1,109.2c-0.1-0.2-0.3-0.4-0.4-0.6c-0.1-0.2-0.2-0.3-0.3-0.4s-0.2-0.3-0.4-0.4c-0.1-0.1-0.3-0.2-0.5-0.3l0,0
	c0.3-0.1,0.6-0.2,0.9-0.4c0.3-0.2,0.5-0.4,0.7-0.6s0.3-0.5,0.4-0.8c0.1-0.3,0.2-0.6,0.2-0.9c0-0.4-0.1-0.8-0.2-1.2
	c-0.2-0.3-0.4-0.6-0.7-0.8c-0.3-0.2-0.6-0.4-1-0.5s-0.8-0.2-1.3-0.2h-3.2v9.8h1.6v-4h0.7c0.2,0,0.4,0,0.6,0.1
	c0.2,0.1,0.3,0.1,0.5,0.2c0.1,0.1,0.3,0.2,0.4,0.4c0.1,0.2,0.3,0.4,0.4,0.6l1.6,2.6h1.9L607.1,109.2z M599.5,110.6h-3.9v-2.9h3.4
	v-1.4h-3.4v-2.8h3.6v-1.4h-5.3v9.8h5.5v-1.3L599.5,110.6z M586.6,111.8c0.2,0.1,0.5,0.1,0.7,0.2c0.3,0,0.5,0.1,0.7,0.1s0.4,0,0.6,0
	c0.5,0,1,0,1.4-0.1s0.8-0.2,1.2-0.5c0.3-0.2,0.6-0.5,0.8-0.8s0.3-0.8,0.3-1.3c0-0.4-0.1-0.7-0.2-1c-0.1-0.3-0.3-0.5-0.5-0.8
	c-0.2-0.2-0.5-0.5-0.8-0.6c-0.3-0.2-0.6-0.4-1-0.6c-0.3-0.1-0.6-0.3-0.9-0.4c-0.3-0.1-0.5-0.3-0.6-0.4c-0.2-0.1-0.3-0.3-0.4-0.4
	s-0.1-0.3-0.1-0.6c0-0.2,0.1-0.4,0.2-0.6c0.1-0.2,0.3-0.3,0.5-0.4s0.4-0.2,0.6-0.2c0.2,0,0.5-0.1,0.7-0.1c0.9,0,1.6,0.2,2.1,0.6
	v-1.6c-0.5-0.2-1.2-0.3-2.2-0.3c-0.4,0-0.9,0.1-1.3,0.2s-0.8,0.3-1.2,0.5c-0.3,0.2-0.6,0.5-0.8,0.8s-0.3,0.7-0.3,1.2
	c0,0.4,0.1,0.7,0.2,1c0.1,0.3,0.3,0.5,0.5,0.7s0.5,0.4,0.7,0.6c0.3,0.2,0.6,0.4,0.9,0.5c0.3,0.1,0.6,0.3,0.9,0.4
	c0.3,0.1,0.5,0.3,0.7,0.4s0.4,0.3,0.5,0.5s0.2,0.4,0.2,0.6c0,0.4-0.2,0.8-0.5,1s-0.8,0.3-1.5,0.3c-0.2,0-0.4,0-0.6-0.1
	c-0.2,0-0.5-0.1-0.7-0.2s-0.5-0.2-0.7-0.3c-0.2-0.1-0.4-0.2-0.5-0.4v1.7C586.2,111.6,586.4,111.7,586.6,111.8z M584.2,102.2h-1.6
	v5.7c0,1.8-0.7,2.8-2.1,2.8c-1.5,0-2.2-1-2.2-2.9v-5.6h-1.6v6c0,2.6,1.2,4,3.7,4c2.6,0,3.9-1.4,3.9-4.1v-5.9H584.2z M571.5,110.6
	h-3.8v-8.4h-1.6v9.8h5.4L571.5,110.6L571.5,110.6z M558.7,108.1l1.3-3.9c0-0.1,0.1-0.4,0.1-0.6l0,0c0,0.3,0.1,0.5,0.1,0.6l1.4,3.9
	H558.7z M561.1,102.2h-1.8l-3.7,9.8h1.8l0.8-2.5h3.8l0.9,2.5h1.8L561.1,102.2z M554.3,102.2h-1.6v6.3c0,0.6,0,1.1,0.1,1.3l0,0
	c-0.1-0.1-0.2-0.3-0.4-0.6l-4.5-7H546v9.8h1.6v-6.4c0-0.7,0-1.1-0.1-1.3l0,0c0.1,0.2,0.2,0.4,0.3,0.6l4.7,7.2h1.8V102.2z
	 M540.3,103.5c0.6,0,1,0.1,1.3,0.4s0.4,0.6,0.4,1.1c0,0.3,0,0.5-0.1,0.7s-0.2,0.4-0.4,0.5s-0.3,0.3-0.5,0.3s-0.4,0.1-0.7,0.1H539
	v-3.2L540.3,103.5L540.3,103.5z M543.2,109.2c-0.1-0.2-0.3-0.4-0.4-0.6c-0.1-0.2-0.2-0.3-0.3-0.4s-0.2-0.3-0.4-0.4
	c-0.1-0.1-0.3-0.2-0.5-0.3l0,0c0.3-0.1,0.6-0.2,0.9-0.4c0.3-0.2,0.5-0.4,0.7-0.6s0.3-0.5,0.4-0.8c0.1-0.3,0.2-0.6,0.2-0.9
	c0-0.4-0.1-0.8-0.2-1.2c-0.2-0.3-0.4-0.6-0.7-0.8c-0.3-0.2-0.6-0.4-1-0.5s-0.8-0.2-1.3-0.2h-3.2v9.8h1.6v-4h0.7c0.2,0,0.4,0,0.6,0.1
	c0.2,0.1,0.3,0.1,0.5,0.2c0.1,0.1,0.3,0.2,0.4,0.4c0.1,0.2,0.3,0.4,0.4,0.6l1.6,2.6h1.9L543.2,109.2z M535.6,110.6h-3.9v-2.9h3.4
	v-1.4h-3.4v-2.8h3.6v-1.4H530v9.8h5.5L535.6,110.6L535.6,110.6z M528.7,102.2h-7.2v1.4h2.8v8.4h1.6v-8.4h2.8L528.7,102.2
	L528.7,102.2z M517.8,107l3-4.8H519l-1.8,3.3c-0.1,0.2-0.2,0.4-0.3,0.7l0,0c-0.1-0.2-0.2-0.4-0.3-0.7l-1.8-3.3h-2l2.9,4.8l-3.2,4.9
	h2l2.1-3.6c0.1-0.2,0.2-0.4,0.2-0.5l0,0c0.1,0.2,0.1,0.4,0.2,0.5l2,3.6h1.9L517.8,107z M511.7,110.6h-3.9v-2.9h3.4v-1.4h-3.4v-2.8
	h3.6v-1.4h-5.3v9.8h5.5L511.7,110.6L511.7,110.6z"/>
<text style="font-family:'ArialMT'; font-size:12px;">  </text>
<text style="font-family:'ArialMT'; font-size:12px;"> </text>
<text style="font-family:'ArialMT'; font-size:12px;"> </text>
</svg>
