<?xml version="1.0" encoding="utf-8"?>
<!-- Generator: Adobe Illustrator 19.2.0, SVG Export Plug-In . SVG Version: 6.00 Build 0)  -->
<svg version="1.1" id="Layer_1" xmlns="http://www.w3.org/2000/svg" xmlns:xlink="http://www.w3.org/1999/xlink" x="0px" y="0px"
	 width="129.2px" height="329.2px" viewBox="0 0 129.2 329.2" style="enable-background:new 0 0 129.2 329.2;" xml:space="preserve"
	>
<style type="text/css">
	.st0{fill:none;stroke:#DEDEDE;stroke-width:4;stroke-linecap:round;stroke-linejoin:round;stroke-miterlimit:10;}
	.st1{fill:#00BCF2;}
</style>
<g id="Layer_2">
</g>
<g>
	<line class="st0" x1="64" y1="-42" x2="65" y2="216.9"/>
	<circle class="st0" cx="65" cy="222.4" r="5"/>
</g>
<g>
	<g>
		<path class="st1" d="M86.6,262.4l-19.3-19.3c-0.9-0.9-2.3-0.9-3.2,0l-19.3,19.3c-0.9,0.9-0.9,2.3,0,3.2l19.3,19.3
			c0.9,0.9,2.3,0.9,3.2,0l19.3-19.3C87.5,264.7,87.5,263.3,86.6,262.4z M65.6,248.2l3.2,6.5h-1.6v5.6H64v-5.6h-1.6L65.6,248.2z
			 M50.3,265.6v-3.2h5.6v-1.6l6.5,3.2l-6.5,3.2v-1.6H50.3z M65.6,279.8l-3.2-6.5H64v-5.6h3.2v5.6h1.6L65.6,279.8z M80.9,265.6h-5.6
			v1.6l-6.5-3.2l6.5-3.2v1.6h5.6V265.6z"/>
	</g>
	<g>
		<path class="st1" d="M31.6,308.2h-1.8l-0.9-2.5h-3.8l-0.8,2.5h-1.8l3.7-9.8H28L31.6,308.2z M28.5,304.4l-1.4-3.9
			c0-0.1-0.1-0.3-0.1-0.6h0c0,0.3-0.1,0.5-0.1,0.6l-1.3,3.9H28.5z"/>
		<path class="st1" d="M34.5,304.7v3.5h-1.6v-9.8h3c1.1,0,2,0.3,2.6,0.8s0.9,1.3,0.9,2.2s-0.3,1.7-1,2.3c-0.6,0.6-1.5,0.9-2.6,0.9
			H34.5z M34.5,299.8v3.6h1c0.7,0,1.2-0.2,1.6-0.5c0.4-0.3,0.5-0.8,0.5-1.4c0-1.1-0.7-1.7-2-1.7H34.5z"/>
		<path class="st1" d="M42.7,304.7v3.5h-1.6v-9.8h3c1.1,0,2,0.3,2.6,0.8s0.9,1.3,0.9,2.2s-0.3,1.7-1,2.3c-0.6,0.6-1.5,0.9-2.6,0.9
			H42.7z M42.7,299.8v3.6h1c0.7,0,1.2-0.2,1.6-0.5c0.4-0.3,0.5-0.8,0.5-1.4c0-1.1-0.7-1.7-2-1.7H42.7z"/>
		<path class="st1" d="M54.6,308.2h-5.4v-9.8h1.6v8.4h3.8V308.2z"/>
		<path class="st1" d="M57.7,308.2H56v-9.8h1.7V308.2z"/>
		<path class="st1" d="M66.9,307.8c-0.7,0.4-1.6,0.6-2.7,0.6c-1.4,0-2.5-0.4-3.4-1.3c-0.9-0.9-1.3-2.1-1.3-3.5
			c0-1.6,0.5-2.8,1.4-3.8s2.2-1.4,3.6-1.4c0.9,0,1.7,0.1,2.3,0.4v1.6c-0.7-0.4-1.4-0.6-2.2-0.6c-1.1,0-1.9,0.3-2.6,1s-1,1.6-1,2.7
			c0,1.1,0.3,1.9,0.9,2.6c0.6,0.6,1.4,1,2.4,1c0.9,0,1.7-0.2,2.4-0.7V307.8z"/>
		<path class="st1" d="M76.7,308.2H75l-0.9-2.5h-3.8l-0.8,2.5h-1.8l3.7-9.8h1.8L76.7,308.2z M73.6,304.4l-1.4-3.9
			c0-0.1-0.1-0.3-0.1-0.6h0c0,0.3-0.1,0.5-0.1,0.6l-1.3,3.9H73.6z"/>
		<path class="st1" d="M83.3,299.8h-2.8v8.4h-1.6v-8.4h-2.8v-1.4h7.2V299.8z"/>
		<path class="st1" d="M86.4,308.2h-1.7v-9.8h1.7V308.2z"/>
		<path class="st1" d="M92.8,308.4c-1.4,0-2.5-0.5-3.4-1.4c-0.8-0.9-1.3-2.1-1.3-3.6c0-1.6,0.4-2.8,1.3-3.8c0.9-0.9,2-1.4,3.5-1.4
			c1.4,0,2.5,0.5,3.3,1.4c0.8,0.9,1.3,2.1,1.3,3.6c0,1.6-0.4,2.8-1.3,3.8C95.4,307.9,94.3,308.4,92.8,308.4z M92.9,299.7
			c-0.9,0-1.6,0.3-2.2,1c-0.6,0.7-0.8,1.5-0.8,2.6c0,1.1,0.3,2,0.8,2.6c0.5,0.7,1.3,1,2.1,1c0.9,0,1.7-0.3,2.2-0.9
			c0.5-0.6,0.8-1.5,0.8-2.6c0-1.2-0.3-2.1-0.8-2.7S93.8,299.7,92.9,299.7z"/>
		<path class="st1" d="M107.6,308.2h-1.8l-4.7-7.2c-0.1-0.2-0.2-0.4-0.3-0.6h0c0,0.2,0.1,0.7,0.1,1.3v6.4h-1.6v-9.8h1.9l4.5,7
			c0.2,0.3,0.3,0.5,0.4,0.6h0c0-0.3-0.1-0.7-0.1-1.3v-6.3h1.6V308.2z"/>
		<path class="st1" d="M43.2,324.3c-1,0.6-2.1,0.8-3.4,0.8c-1.4,0-2.6-0.4-3.5-1.3c-0.9-0.9-1.3-2.1-1.3-3.6c0-1.5,0.5-2.7,1.5-3.7
			c1-1,2.2-1.5,3.7-1.5c1.1,0,2,0.2,2.7,0.5v1.7c-0.7-0.5-1.6-0.7-2.7-0.7c-1,0-1.9,0.3-2.6,1s-1,1.6-1,2.7c0,1.1,0.3,2,0.9,2.6
			s1.3,1,2.3,1c0.7,0,1.3-0.1,1.7-0.4V321h-2.1v-1.4h3.7V324.3z"/>
		<path class="st1" d="M53.3,324.9h-1.8l-0.9-2.5h-3.8l-0.8,2.5h-1.8l3.7-9.8h1.8L53.3,324.9z M50.2,321.1l-1.4-3.9
			c0-0.1-0.1-0.3-0.1-0.6h0c0,0.3-0.1,0.5-0.1,0.6l-1.3,3.9H50.2z"/>
		<path class="st1" d="M59.9,316.6h-2.8v8.4h-1.6v-8.4h-2.8v-1.4h7.2V316.6z"/>
		<path class="st1" d="M66.8,324.9h-5.5v-9.8h5.3v1.4h-3.6v2.8h3.4v1.4h-3.4v2.9h3.9V324.9z"/>
		<path class="st1" d="M80.9,315.2l-2.7,9.8h-1.8l-1.9-6.8c-0.1-0.3-0.1-0.6-0.1-1h0c0,0.3-0.1,0.6-0.2,0.9l-1.9,6.8h-1.9l-2.7-9.8
			h1.8l1.8,7.1c0.1,0.3,0.1,0.6,0.1,0.9h0c0-0.2,0.1-0.5,0.2-0.9l2-7.1h1.7l1.8,7.2c0.1,0.2,0.1,0.5,0.1,0.9h0
			c0-0.2,0.1-0.5,0.2-0.9l1.7-7.2H80.9z"/>
		<path class="st1" d="M89.7,324.9h-1.8l-0.9-2.5h-3.8l-0.8,2.5h-1.8l3.7-9.8h1.8L89.7,324.9z M86.6,321.1l-1.4-3.9
			c0-0.1-0.1-0.3-0.1-0.6h0c0,0.3-0.1,0.5-0.1,0.6l-1.3,3.9H86.6z"/>
		<path class="st1" d="M96.8,315.2l-3.2,6.2v3.5H92v-3.5l-3.1-6.2h1.8l1.9,4.2c0,0,0.1,0.2,0.2,0.6h0c0-0.1,0.1-0.3,0.2-0.6l2-4.2
			H96.8z"/>
	</g>
</g>
</svg>
