<?xml version="1.0" encoding="utf-8"?>
<!-- Generator: Adobe Illustrator 18.0.0, SVG Export Plug-In . SVG Version: 6.00 Build 0)  -->
<!DOCTYPE svg PUBLIC "-//W3C//DTD SVG 1.1//EN" "http://www.w3.org/Graphics/SVG/1.1/DTD/svg11.dtd">
<svg version="1.1" id="Layer_1" xmlns="http://www.w3.org/2000/svg" xmlns:xlink="http://www.w3.org/1999/xlink" x="0px" y="0px"
	 width="129.2px" height="329.2px" viewBox="0 0 129.2 329.2" enable-background="new 0 0 129.2 329.2" xml:space="preserve">
<rect x="18" y="225" fill-opacity="0" width="94.8" height="104.2"/>
<g id="Layer_2">
</g>
<g>
	<g>
		<path d="M9.1,305.8c-0.7,0.4-1.6,0.6-2.7,0.6c-1.4,0-2.5-0.4-3.4-1.3s-1.3-2.1-1.3-3.5c0-1.6,0.5-2.8,1.4-3.8s2.2-1.4,3.6-1.4
			c0.9,0,1.7,0.1,2.3,0.4v1.6c-0.7-0.4-1.4-0.6-2.2-0.6c-1.1,0-1.9,0.3-2.6,1s-1,1.6-1,2.7s0.3,1.9,0.9,2.6c0.6,0.6,1.4,1,2.4,1
			c0.9,0,1.7-0.2,2.4-0.7v1.4L9.1,305.8L9.1,305.8z"/>
		<path d="M14.7,306.3c-1.4,0-2.5-0.5-3.4-1.4c-0.8-0.9-1.3-2.1-1.3-3.6c0-1.6,0.4-2.8,1.3-3.8c0.9-0.9,2-1.4,3.5-1.4
			c1.4,0,2.5,0.5,3.3,1.4s1.3,2.1,1.3,3.6c0,1.6-0.4,2.8-1.3,3.8C17.3,306,16.2,306.3,14.7,306.3z M14.8,297.8c-0.9,0-1.6,0.3-2.2,1
			c-0.6,0.7-0.8,1.5-0.8,2.6s0.3,2,0.8,2.6c0.5,0.7,1.3,1,2.1,1c0.9,0,1.7-0.3,2.2-0.9s0.8-1.5,0.8-2.6c0-1.2-0.3-2.1-0.8-2.7
			C16.4,298.2,15.7,297.8,14.8,297.8z"/>
		<path d="M29.5,306.3h-1.8l-4.7-7.2c-0.1-0.2-0.2-0.4-0.3-0.6l0,0c0,0.2,0.1,0.7,0.1,1.3v6.4h-1.6v-9.8h1.9l4.5,7
			c0.2,0.3,0.3,0.5,0.4,0.6l0,0c0-0.3-0.1-0.7-0.1-1.3v-6.3h1.6V306.3z"/>
		<path d="M38.2,297.8h-2.8v8.4h-1.6v-8.4H31v-1.4h7.2V297.8L38.2,297.8z"/>
		<path d="M45.1,306.3h-5.5v-9.8h5.3v1.4h-3.6v2.8h3.4v1.4h-3.4v2.9h3.9L45.1,306.3L45.1,306.3z"/>
		<path d="M55.1,306.3h-1.8l-4.7-7.2c-0.1-0.2-0.2-0.4-0.3-0.6l0,0c0,0.2,0.1,0.7,0.1,1.3v6.4h-1.6v-9.8h1.9l4.5,7
			c0.2,0.3,0.3,0.5,0.4,0.6l0,0c0-0.3-0.1-0.7-0.1-1.3v-6.3h1.6C55.1,296.4,55.1,306.3,55.1,306.3z"/>
		<path d="M63.8,297.8H61v8.4h-1.6v-8.4h-2.8v-1.4h7.2L63.8,297.8L63.8,297.8z"/>
		<path d="M69,306.3v-9.8h2.8c3.6,0,5.4,1.6,5.4,4.8c0,1.5-0.5,2.7-1.5,3.6s-2.3,1.4-4,1.4H69z M70.6,297.8v7h1.3
			c1.1,0,2-0.3,2.7-0.9c0.6-0.6,0.9-1.5,0.9-2.7c0-2.3-1.2-3.4-3.5-3.4H70.6z"/>
		<path d="M84.5,306.3H79v-9.8h5.3v1.4h-3.6v2.8h3.4v1.4h-3.4v2.9h3.9L84.5,306.3L84.5,306.3z"/>
		<path d="M91.6,306.3h-5.4v-9.8h1.6v8.4h3.8V306.3z"/>
		<path d="M94.7,306.3H93v-9.8h1.7V306.3z"/>
		<path d="M104.7,296.5l-3.5,9.8h-1.8l-3.4-9.8h1.8l2.4,7.4c0.1,0.2,0.1,0.5,0.2,0.8l0,0c0-0.3,0.1-0.5,0.2-0.8l2.5-7.4
			C103.1,296.5,104.7,296.5,104.7,296.5z"/>
		<path d="M111.5,306.3H106v-9.8h5.3v1.4h-3.6v2.8h3.4v1.4h-3.4v2.9h3.9L111.5,306.3L111.5,306.3z"/>
		<path d="M120.8,306.3h-1.9l-1.6-2.6c-0.1-0.2-0.3-0.4-0.4-0.6s-0.3-0.3-0.4-0.4s-0.3-0.2-0.5-0.2s-0.3-0.1-0.6-0.1h-0.7v4h-1.6
			v-9.8h3.2c0.5,0,0.9,0.1,1.3,0.2s0.7,0.3,1,0.5s0.5,0.5,0.7,0.8s0.2,0.7,0.2,1.2c0,0.3-0.1,0.7-0.2,0.9c-0.1,0.3-0.2,0.5-0.4,0.8
			c-0.2,0.2-0.4,0.4-0.7,0.6c-0.3,0.2-0.6,0.3-0.9,0.4l0,0c0.2,0.1,0.3,0.2,0.5,0.3c0.1,0.1,0.3,0.2,0.4,0.4
			c0.1,0.1,0.2,0.3,0.3,0.4c0.1,0.2,0.2,0.3,0.4,0.6L120.8,306.3z M114.8,297.8v3.2h1.3c0.2,0,0.5,0,0.7-0.1s0.4-0.2,0.5-0.3
			c0.2-0.1,0.3-0.3,0.4-0.5s0.1-0.4,0.1-0.7c0-0.5-0.1-0.8-0.4-1.1s-0.7-0.4-1.3-0.4L114.8,297.8L114.8,297.8z"/>
		<path d="M128.5,296.5l-3.2,6.2v3.5h-1.6v-3.5l-3.1-6.2h1.8l1.9,4.2c0,0,0.1,0.2,0.2,0.6l0,0c0-0.1,0.1-0.3,0.2-0.6l2-4.2H128.5z"
			/>
		<path d="M21.4,323h-1.7l-4.7-7.2c-0.1-0.2-0.2-0.4-0.3-0.6l0,0c0,0.2,0.1,0.7,0.1,1.3v6.4h-1.6V313h1.9l4.5,7
			c0.2,0.3,0.3,0.5,0.4,0.6l0,0c0-0.3-0.1-0.7-0.1-1.3V313h1.6L21.4,323L21.4,323z"/>
		<path d="M29.3,323h-5.5v-9.8h5.3v1.4h-3.6v2.8h3.4v1.4h-3.4v2.9h3.9L29.3,323L29.3,323z"/>
		<path d="M37.4,314.6h-2.8v8.4H33v-8.4h-2.8v-1.4h7.2V314.6L37.4,314.6z"/>
		<path d="M51.2,313.1l-2.7,9.8h-1.8l-1.9-6.8c-0.1-0.3-0.1-0.6-0.1-1l0,0c0,0.3-0.1,0.6-0.2,0.9l-1.9,6.8h-1.9L38,313h1.8l1.8,7.1
			c0.1,0.3,0.1,0.6,0.1,0.9l0,0c0-0.2,0.1-0.5,0.2-0.9l2-7.1h1.7l1.8,7.2c0.1,0.2,0.1,0.5,0.1,0.9l0,0c0-0.2,0.1-0.5,0.2-0.9
			l1.7-7.2L51.2,313.1L51.2,313.1z"/>
		<path d="M56.6,323.1c-1.4,0-2.5-0.5-3.4-1.4c-0.8-0.9-1.3-2.1-1.3-3.6c0-1.6,0.4-2.8,1.3-3.8c0.9-0.9,2-1.4,3.5-1.4
			c1.4,0,2.5,0.5,3.3,1.4s1.3,2.1,1.3,3.6c0,1.6-0.4,2.8-1.3,3.8C59.1,322.6,58,323.1,56.6,323.1z M56.6,314.5c-0.9,0-1.6,0.3-2.2,1
			c-0.6,0.7-0.8,1.5-0.8,2.6s0.3,2,0.8,2.6c0.5,0.7,1.3,1,2.1,1c0.9,0,1.7-0.3,2.2-0.9s0.8-1.5,0.8-2.6c0-1.2-0.3-2.1-0.8-2.7
			C58.2,314.9,57.6,314.5,56.6,314.5z"/>
		<path d="M70.6,323h-1.9l-1.6-2.6c-0.1-0.2-0.3-0.4-0.4-0.6s-0.3-0.3-0.4-0.4s-0.3-0.2-0.5-0.2s-0.3-0.1-0.6-0.1h-0.5v4h-1.6v-9.8
			h3.2c0.5,0,0.9,0.1,1.3,0.2s0.7,0.3,1,0.5s0.5,0.5,0.7,0.8s0.2,0.7,0.2,1.2c0,0.3-0.1,0.7-0.2,0.9c-0.1,0.3-0.2,0.5-0.4,0.8
			c-0.2,0.2-0.4,0.4-0.7,0.6c-0.3,0.2-0.6,0.3-0.9,0.4l0,0c0.2,0.1,0.3,0.2,0.5,0.3c0.1,0.1,0.3,0.2,0.4,0.4
			c0.1,0.1,0.2,0.3,0.3,0.4c0.1,0.2,0.2,0.3,0.4,0.6L70.6,323z M64.7,314.6v3.2H66c0.2,0,0.5,0,0.7-0.1s0.4-0.2,0.5-0.3
			c0.2-0.1,0.3-0.3,0.4-0.5s0.1-0.4,0.1-0.7c0-0.5-0.1-0.8-0.4-1.1c-0.3-0.3-0.7-0.4-1.3-0.4L64.7,314.6L64.7,314.6z"/>
		<path d="M79.1,323H77l-3.4-4.5c-0.1-0.2-0.2-0.3-0.2-0.3l0,0v4.8h-1.7v-9.8h1.6v4.6l0,0c0.1-0.1,0.1-0.2,0.2-0.3l3.3-4.3h1.9
			l-3.8,4.7L79.1,323z"/>
		<path d="M87.4,325.1h-1.3c-1.4-1.6-2.1-3.6-2.1-5.9c0-2.4,0.7-4.4,2.1-6h1.3c-1.4,1.7-2.1,3.7-2.1,6S86,323.5,87.4,325.1z"/>
		<path d="M95.5,322.6c-0.7,0.4-1.6,0.6-2.7,0.6c-1.4,0-2.5-0.4-3.4-1.3s-1.3-2.1-1.3-3.5c0-1.6,0.5-2.8,1.4-3.8s2.2-1.4,3.6-1.4
			c0.9,0,1.7,0.1,2.3,0.4v1.6c-0.7-0.4-1.4-0.6-2.2-0.6c-1.1,0-1.9,0.3-2.6,1s-1,1.6-1,2.7s0.3,1.9,0.9,2.6c0.6,0.6,1.4,1,2.4,1
			c0.9,0,1.7-0.2,2.4-0.7v1.4L95.5,322.6L95.5,322.6z"/>
		<path d="M97.4,323v-9.8h2.8c3.6,0,5.4,1.6,5.4,4.8c0,1.5-0.5,2.7-1.5,3.6s-2.3,1.4-4,1.4H97.4z M99,314.6v7h1.3
			c1.1,0,2-0.3,2.7-0.9c0.6-0.6,0.9-1.5,0.9-2.7c0-2.3-1.2-3.4-3.5-3.4H99L99,314.6z"/>
		<path d="M115.6,323h-1.8l-4.7-7.2c-0.1-0.2-0.2-0.4-0.3-0.6l0,0c0,0.2,0.1,0.7,0.1,1.3v6.4h-1.6V313h1.9l4.5,7
			c0.2,0.3,0.3,0.5,0.4,0.6l0,0c0-0.3-0.1-0.7-0.1-1.3V313h1.6V323z"/>
		<path d="M118.3,325.1H117c1.4-1.7,2.1-3.7,2.1-6s-0.7-4.3-2.1-6h1.3c1.4,1.7,2.2,3.7,2.2,6C120.5,321.6,119.7,323.6,118.3,325.1z"
			/>
	</g>
	<path d="M85.4,266.7c0.3-1,0.4-2,0.4-3.1c0-4.2-2-7.8-5.2-10l-4.9,8.3c-0.2,0.3,0,0.6,0.3,0.6h6.3c0.4,0,0.5,0.2,0.2,0.5
		l-16.3,18.6c-0.2,0.3-0.3,0.2-0.2-0.1l5.2-12.5c0.1-0.3-0.1-0.6-0.4-0.6h-5c-0.4,0-0.5-0.2-0.4-0.6l6-16c-4,0.8-7.4,3.5-8.9,7.3
		c-1.6-1.9-3.9-3.1-6.5-3.1c-4.7,0-8.6,3.9-8.6,8.6c0,0.8,0.1,1.6,0.3,2.4c-3.9,1.4-6.6,5.2-6.6,9.6c0,5.6,4.5,10.2,10.1,10.2h31.2
		c5.6,0,10.1-4.6,10.1-10.2C92.4,271.8,89.5,268,85.4,266.7L85.4,266.7z"/>
</g>
</svg>
