<?xml version="1.0" encoding="utf-8"?>
<!-- Generator: Adobe Illustrator 19.2.0, SVG Export Plug-In . SVG Version: 6.00 Build 0)  -->
<svg version="1.1" id="Layer_1" xmlns="http://www.w3.org/2000/svg" xmlns:xlink="http://www.w3.org/1999/xlink" x="0px" y="0px"
	 width="165.9px" height="246.4px" viewBox="0 0 165.9 246.4" style="enable-background:new 0 0 165.9 246.4;" xml:space="preserve"
	>
<path style="fill:#21BBEE;" d="M10.8,123.8c0.4,0.7,0.8,1.4,1.3,2.2L83,246.4l72.8-123.2h-0.3c6.6-11.9,10.4-25.6,10.4-40.2
	c0-45.8-37.1-83-83-83C37.1,0,0,37.1,0,83c0,14.6,3.8,28.3,10.4,40.2h0L10.8,123.8z"/>
<g>
	<path style="fill:#FFFFFF;" d="M26,53.3h-3.8v3.4h3.5v1h-3.5v4.3H21v-9.8h5V53.3z"/>
	<path style="fill:#FFFFFF;" d="M30.6,62.3c-1,0-1.9-0.3-2.5-1c-0.6-0.7-0.9-1.5-0.9-2.6c0-1.2,0.3-2.1,1-2.8s1.5-1,2.6-1
		c1,0,1.9,0.3,2.4,1c0.6,0.6,0.9,1.5,0.9,2.7c0,1.1-0.3,2-0.9,2.7C32.5,61.9,31.7,62.3,30.6,62.3z M30.7,55.9
		c-0.7,0-1.3,0.2-1.7,0.7c-0.4,0.5-0.6,1.2-0.6,2c0,0.8,0.2,1.5,0.6,2s1,0.7,1.7,0.7c0.7,0,1.3-0.2,1.7-0.7s0.6-1.1,0.6-2
		c0-0.9-0.2-1.5-0.6-2S31.4,55.9,30.7,55.9z"/>
	<path style="fill:#FFFFFF;" d="M39.5,56.2c-0.2-0.2-0.5-0.2-0.8-0.2c-0.5,0-0.9,0.2-1.2,0.7S37,57.8,37,58.5v3.6h-1.1v-7H37v1.4h0
		c0.2-0.5,0.4-0.9,0.7-1.2c0.3-0.3,0.7-0.4,1.1-0.4c0.3,0,0.5,0,0.7,0.1V56.2z"/>
	<path style="fill:#FFFFFF;" d="M47.8,62c-0.3,0.1-0.6,0.2-1,0.2c-1.2,0-1.8-0.7-1.8-2.1v-4.1h-1.2v-1H45v-1.7l1.1-0.4v2.1h1.8v1
		h-1.8V60c0,0.5,0.1,0.8,0.2,1c0.2,0.2,0.4,0.3,0.8,0.3c0.3,0,0.5-0.1,0.7-0.2V62z"/>
	<path style="fill:#FFFFFF;" d="M55.1,62.1H54v-4c0-1.5-0.5-2.2-1.6-2.2c-0.5,0-1,0.2-1.4,0.6c-0.4,0.4-0.6,1-0.6,1.6v4h-1.1V51.7
		h1.1v4.5h0c0.5-0.9,1.3-1.3,2.3-1.3c1.6,0,2.4,1,2.4,2.9V62.1z"/>
	<path style="fill:#FFFFFF;" d="M62.9,58.9h-4.9c0,0.8,0.2,1.4,0.6,1.8c0.4,0.4,1,0.6,1.7,0.6c0.8,0,1.5-0.3,2.2-0.8v1.1
		C61.8,62,61,62.3,60,62.3c-1,0-1.8-0.3-2.3-1c-0.6-0.6-0.8-1.5-0.8-2.7c0-1.1,0.3-2,0.9-2.7c0.6-0.7,1.4-1,2.3-1s1.6,0.3,2.1,0.9
		c0.5,0.6,0.8,1.4,0.8,2.5V58.9z M61.7,57.9c0-0.6-0.2-1.2-0.5-1.5s-0.7-0.5-1.3-0.5c-0.5,0-1,0.2-1.3,0.6S58,57.3,58,57.9H61.7z"/>
	<path style="fill:#FFFFFF;" d="M71.9,52.7c-0.2-0.1-0.5-0.2-0.7-0.2C70.3,52.5,70,53,70,54v1.1h1.6v1H70v6h-1.1v-6h-1.2v-1h1.2V54
		c0-0.7,0.2-1.3,0.6-1.7c0.4-0.4,1-0.6,1.6-0.6c0.3,0,0.6,0,0.8,0.1V52.7z"/>
	<path style="fill:#FFFFFF;" d="M78.5,62.1h-1.1V61h0c-0.5,0.8-1.2,1.3-2.2,1.3c-1.7,0-2.5-1-2.5-3v-4.2h1.1v4
		c0,1.5,0.6,2.2,1.7,2.2c0.5,0,1-0.2,1.4-0.6c0.4-0.4,0.5-0.9,0.5-1.6v-4h1.1V62.1z"/>
	<path style="fill:#FFFFFF;" d="M81.8,62.1h-1.1V51.7h1.1V62.1z"/>
	<path style="fill:#FFFFFF;" d="M85.2,62.1h-1.1V51.7h1.1V62.1z"/>
	<path style="fill:#FFFFFF;" d="M90.9,61.9v-1.2c0.6,0.5,1.3,0.7,2,0.7c1,0,1.5-0.3,1.5-1c0-0.2,0-0.3-0.1-0.5
		c-0.1-0.1-0.2-0.2-0.3-0.3s-0.3-0.2-0.5-0.3c-0.2-0.1-0.4-0.2-0.6-0.3c-0.3-0.1-0.6-0.2-0.8-0.4c-0.2-0.1-0.4-0.3-0.6-0.4
		c-0.2-0.2-0.3-0.3-0.4-0.5c-0.1-0.2-0.1-0.4-0.1-0.7c0-0.3,0.1-0.6,0.2-0.9c0.2-0.3,0.4-0.5,0.6-0.6c0.3-0.2,0.5-0.3,0.9-0.4
		s0.7-0.1,1-0.1c0.6,0,1.1,0.1,1.6,0.3v1.1c-0.5-0.3-1.1-0.5-1.8-0.5c-0.2,0-0.4,0-0.6,0.1c-0.2,0-0.3,0.1-0.4,0.2
		c-0.1,0.1-0.2,0.2-0.3,0.3c-0.1,0.1-0.1,0.3-0.1,0.4c0,0.2,0,0.3,0.1,0.5c0.1,0.1,0.2,0.2,0.3,0.3s0.3,0.2,0.5,0.3s0.4,0.2,0.6,0.3
		c0.3,0.1,0.6,0.2,0.8,0.4c0.2,0.1,0.5,0.3,0.6,0.4c0.2,0.2,0.3,0.3,0.4,0.5c0.1,0.2,0.1,0.4,0.1,0.7c0,0.3-0.1,0.6-0.2,0.9
		c-0.2,0.3-0.4,0.5-0.6,0.6c-0.3,0.2-0.5,0.3-0.9,0.4s-0.7,0.1-1,0.1C92.1,62.3,91.4,62.1,90.9,61.9z"/>
	<path style="fill:#FFFFFF;" d="M100.2,62.3c-1,0-1.9-0.3-2.5-1c-0.6-0.7-0.9-1.5-0.9-2.6c0-1.2,0.3-2.1,1-2.8s1.5-1,2.6-1
		c1,0,1.9,0.3,2.4,1c0.6,0.6,0.9,1.5,0.9,2.7c0,1.1-0.3,2-0.9,2.7C102.1,61.9,101.3,62.3,100.2,62.3z M100.3,55.9
		c-0.7,0-1.3,0.2-1.7,0.7c-0.4,0.5-0.6,1.2-0.6,2c0,0.8,0.2,1.5,0.6,2s1,0.7,1.7,0.7c0.7,0,1.3-0.2,1.7-0.7s0.6-1.1,0.6-2
		c0-0.9-0.2-1.5-0.6-2S101,55.9,100.3,55.9z"/>
	<path style="fill:#FFFFFF;" d="M106.6,62.1h-1.1V51.7h1.1V62.1z"/>
	<path style="fill:#FFFFFF;" d="M114.5,62.1h-1.1V61h0c-0.5,0.8-1.2,1.3-2.2,1.3c-1.7,0-2.5-1-2.5-3v-4.2h1.1v4
		c0,1.5,0.6,2.2,1.7,2.2c0.5,0,1-0.2,1.4-0.6c0.4-0.4,0.5-0.9,0.5-1.6v-4h1.1V62.1z"/>
	<path style="fill:#FFFFFF;" d="M120,62c-0.3,0.1-0.6,0.2-1,0.2c-1.2,0-1.8-0.7-1.8-2.1v-4.1H116v-1h1.2v-1.7l1.1-0.4v2.1h1.8v1
		h-1.8V60c0,0.5,0.1,0.8,0.2,1c0.2,0.2,0.4,0.3,0.8,0.3c0.3,0,0.5-0.1,0.7-0.2V62z"/>
	<path style="fill:#FFFFFF;" d="M122.1,53.3c-0.2,0-0.4-0.1-0.5-0.2s-0.2-0.3-0.2-0.5s0.1-0.4,0.2-0.5c0.1-0.1,0.3-0.2,0.5-0.2
		c0.2,0,0.4,0.1,0.5,0.2c0.1,0.1,0.2,0.3,0.2,0.5c0,0.2-0.1,0.4-0.2,0.5S122.3,53.3,122.1,53.3z M122.7,62.1h-1.1v-7h1.1V62.1z"/>
	<path style="fill:#FFFFFF;" d="M127.9,62.3c-1,0-1.9-0.3-2.5-1c-0.6-0.7-0.9-1.5-0.9-2.6c0-1.2,0.3-2.1,1-2.8s1.5-1,2.6-1
		c1,0,1.9,0.3,2.4,1c0.6,0.6,0.9,1.5,0.9,2.7c0,1.1-0.3,2-0.9,2.7C129.8,61.9,128.9,62.3,127.9,62.3z M127.9,55.9
		c-0.7,0-1.3,0.2-1.7,0.7c-0.4,0.5-0.6,1.2-0.6,2c0,0.8,0.2,1.5,0.6,2s1,0.7,1.7,0.7c0.7,0,1.3-0.2,1.7-0.7s0.6-1.1,0.6-2
		c0-0.9-0.2-1.5-0.6-2S128.7,55.9,127.9,55.9z"/>
	<path style="fill:#FFFFFF;" d="M138.9,62.1h-1.1v-4c0-1.5-0.5-2.2-1.6-2.2c-0.6,0-1,0.2-1.4,0.6c-0.4,0.4-0.6,1-0.6,1.6v4h-1.1v-7
		h1.1v1.2h0c0.5-0.9,1.3-1.3,2.3-1.3c0.8,0,1.4,0.2,1.8,0.7c0.4,0.5,0.6,1.2,0.6,2.1V62.1z"/>
	<path style="fill:#FFFFFF;" d="M140.6,61.9v-1.2c0.6,0.5,1.3,0.7,2,0.7c1,0,1.5-0.3,1.5-1c0-0.2,0-0.3-0.1-0.5
		c-0.1-0.1-0.2-0.2-0.3-0.3s-0.3-0.2-0.5-0.3c-0.2-0.1-0.4-0.2-0.6-0.3c-0.3-0.1-0.6-0.2-0.8-0.4c-0.2-0.1-0.4-0.3-0.6-0.4
		c-0.2-0.2-0.3-0.3-0.4-0.5c-0.1-0.2-0.1-0.4-0.1-0.7c0-0.3,0.1-0.6,0.2-0.9c0.2-0.3,0.4-0.5,0.6-0.6c0.3-0.2,0.5-0.3,0.9-0.4
		s0.7-0.1,1-0.1c0.6,0,1.1,0.1,1.6,0.3v1.1c-0.5-0.3-1.1-0.5-1.8-0.5c-0.2,0-0.4,0-0.6,0.1c-0.2,0-0.3,0.1-0.4,0.2
		c-0.1,0.1-0.2,0.2-0.3,0.3c-0.1,0.1-0.1,0.3-0.1,0.4c0,0.2,0,0.3,0.1,0.5c0.1,0.1,0.2,0.2,0.3,0.3c0.1,0.1,0.3,0.2,0.5,0.3
		c0.2,0.1,0.4,0.2,0.6,0.3c0.3,0.1,0.6,0.2,0.8,0.4c0.2,0.1,0.5,0.3,0.6,0.4c0.2,0.2,0.3,0.3,0.4,0.5c0.1,0.2,0.1,0.4,0.1,0.7
		c0,0.3-0.1,0.6-0.2,0.9c-0.2,0.3-0.4,0.5-0.6,0.6s-0.5,0.3-0.9,0.4c-0.3,0.1-0.7,0.1-1,0.1C141.8,62.3,141.2,62.1,140.6,61.9z"/>
	<path style="fill:#FFFFFF;" d="M52.6,81.1h-1.1V80h0c-0.5,0.8-1.2,1.3-2.2,1.3c-0.7,0-1.2-0.2-1.6-0.6c-0.4-0.4-0.6-0.9-0.6-1.5
		c0-1.3,0.8-2.1,2.3-2.3l2.1-0.3c0-1.2-0.5-1.8-1.4-1.8c-0.8,0-1.6,0.3-2.3,0.9v-1.1c0.7-0.4,1.5-0.7,2.4-0.7c1.6,0,2.5,0.9,2.5,2.6
		V81.1z M51.5,77.6l-1.7,0.2c-0.5,0.1-0.9,0.2-1.2,0.4c-0.3,0.2-0.4,0.5-0.4,1c0,0.3,0.1,0.6,0.4,0.8c0.2,0.2,0.6,0.3,1,0.3
		c0.6,0,1-0.2,1.4-0.6c0.4-0.4,0.5-0.9,0.5-1.5V77.6z"/>
	<path style="fill:#FFFFFF;" d="M58.4,75.2c-0.2-0.2-0.5-0.2-0.8-0.2c-0.5,0-0.9,0.2-1.2,0.7s-0.5,1.1-0.5,1.8v3.6h-1.1v-7h1.1v1.4
		h0c0.2-0.5,0.4-0.9,0.7-1.2c0.3-0.3,0.7-0.4,1.1-0.4c0.3,0,0.5,0,0.7,0.1V75.2z"/>
	<path style="fill:#FFFFFF;" d="M64.2,80.8c-0.5,0.3-1.2,0.5-1.9,0.5c-1,0-1.8-0.3-2.4-1c-0.6-0.6-0.9-1.5-0.9-2.5
		c0-1.2,0.3-2.1,1-2.8c0.7-0.7,1.5-1,2.6-1c0.6,0,1.2,0.1,1.6,0.3v1.1c-0.5-0.4-1.1-0.5-1.7-0.5c-0.7,0-1.3,0.3-1.8,0.8
		c-0.5,0.5-0.7,1.2-0.7,2c0,0.8,0.2,1.5,0.6,1.9s1,0.7,1.7,0.7c0.6,0,1.2-0.2,1.7-0.6V80.8z"/>
	<path style="fill:#FFFFFF;" d="M71.7,81.1h-1.1v-4c0-1.5-0.5-2.2-1.6-2.2c-0.5,0-1,0.2-1.4,0.6c-0.4,0.4-0.6,1-0.6,1.6v4h-1.1V70.7
		H67v4.5h0c0.5-0.9,1.3-1.3,2.3-1.3c1.6,0,2.4,1,2.4,2.9V81.1z"/>
	<path style="fill:#FFFFFF;" d="M74.4,72.3c-0.2,0-0.4-0.1-0.5-0.2c-0.1-0.1-0.2-0.3-0.2-0.5s0.1-0.4,0.2-0.5
		c0.1-0.1,0.3-0.2,0.5-0.2c0.2,0,0.4,0.1,0.5,0.2c0.1,0.1,0.2,0.3,0.2,0.5c0,0.2-0.1,0.4-0.2,0.5S74.6,72.3,74.4,72.3z M74.9,81.1
		h-1.1v-7h1.1V81.1z"/>
	<path style="fill:#FFFFFF;" d="M80.4,81c-0.3,0.1-0.6,0.2-1,0.2c-1.2,0-1.8-0.7-1.8-2.1v-4.1h-1.2v-1h1.2v-1.7l1.1-0.4v2.1h1.8v1
		h-1.8V79c0,0.5,0.1,0.8,0.2,1c0.2,0.2,0.4,0.3,0.8,0.3c0.3,0,0.5-0.1,0.7-0.2V81z"/>
	<path style="fill:#FFFFFF;" d="M87.4,77.9h-4.9c0,0.8,0.2,1.4,0.6,1.8c0.4,0.4,1,0.6,1.7,0.6c0.8,0,1.5-0.3,2.2-0.8v1.1
		c-0.6,0.4-1.4,0.7-2.4,0.7c-1,0-1.8-0.3-2.3-1c-0.6-0.6-0.8-1.5-0.8-2.7c0-1.1,0.3-2,0.9-2.7c0.6-0.7,1.4-1,2.3-1s1.6,0.3,2.1,0.9
		c0.5,0.6,0.8,1.4,0.8,2.5V77.9z M86.3,76.9c0-0.6-0.2-1.2-0.5-1.5s-0.7-0.5-1.3-0.5c-0.5,0-1,0.2-1.3,0.6s-0.6,0.9-0.7,1.5H86.3z"
		/>
	<path style="fill:#FFFFFF;" d="M93.9,80.8c-0.5,0.3-1.2,0.5-1.9,0.5c-1,0-1.8-0.3-2.4-1c-0.6-0.6-0.9-1.5-0.9-2.5
		c0-1.2,0.3-2.1,1-2.8c0.7-0.7,1.5-1,2.6-1c0.6,0,1.2,0.1,1.6,0.3v1.1c-0.5-0.4-1.1-0.5-1.7-0.5c-0.7,0-1.3,0.3-1.8,0.8
		c-0.5,0.5-0.7,1.2-0.7,2c0,0.8,0.2,1.5,0.6,1.9s1,0.7,1.7,0.7c0.6,0,1.2-0.2,1.7-0.6V80.8z"/>
	<path style="fill:#FFFFFF;" d="M98.8,81c-0.3,0.1-0.6,0.2-1,0.2c-1.2,0-1.8-0.7-1.8-2.1v-4.1h-1.2v-1H96v-1.7l1.1-0.4v2.1h1.8v1
		h-1.8V79c0,0.5,0.1,0.8,0.2,1c0.2,0.2,0.4,0.3,0.8,0.3c0.3,0,0.5-0.1,0.7-0.2V81z"/>
	<path style="fill:#FFFFFF;" d="M106,81.1h-1.1V80h0c-0.5,0.8-1.2,1.3-2.2,1.3c-1.7,0-2.5-1-2.5-3v-4.2h1.1v4c0,1.5,0.6,2.2,1.7,2.2
		c0.5,0,1-0.2,1.3-0.6c0.4-0.4,0.5-0.9,0.5-1.6v-4h1.1V81.1z"/>
	<path style="fill:#FFFFFF;" d="M111.9,75.2c-0.2-0.2-0.5-0.2-0.8-0.2c-0.5,0-0.9,0.2-1.2,0.7s-0.5,1.1-0.5,1.8v3.6h-1.1v-7h1.1v1.4
		h0c0.2-0.5,0.4-0.9,0.7-1.2c0.3-0.3,0.7-0.4,1.1-0.4c0.3,0,0.5,0,0.7,0.1V75.2z"/>
	<path style="fill:#FFFFFF;" d="M118.6,77.9h-4.9c0,0.8,0.2,1.4,0.6,1.8c0.4,0.4,1,0.6,1.7,0.6c0.8,0,1.5-0.3,2.2-0.8v1.1
		c-0.6,0.4-1.4,0.7-2.4,0.7c-1,0-1.8-0.3-2.3-1c-0.6-0.6-0.8-1.5-0.8-2.7c0-1.1,0.3-2,0.9-2.7c0.6-0.7,1.4-1,2.3-1s1.6,0.3,2.1,0.9
		c0.5,0.6,0.8,1.4,0.8,2.5V77.9z M117.4,76.9c0-0.6-0.2-1.2-0.5-1.5s-0.7-0.5-1.3-0.5c-0.5,0-1,0.2-1.3,0.6s-0.6,0.9-0.7,1.5H117.4z
		"/>
	<path style="fill:#FFFFFF;" d="M23.6,99.1L23.6,99.1l0,1h-1.1V89.7h1.1v4.6h0c0.6-0.9,1.4-1.4,2.4-1.4c0.9,0,1.6,0.3,2.1,0.9
		c0.5,0.6,0.8,1.5,0.8,2.5c0,1.2-0.3,2.1-0.9,2.8c-0.6,0.7-1.3,1.1-2.3,1.1C24.8,100.3,24.1,99.9,23.6,99.1z M23.5,96.3v1
		c0,0.6,0.2,1.1,0.6,1.5c0.4,0.4,0.9,0.6,1.4,0.6c0.7,0,1.2-0.3,1.6-0.8c0.4-0.5,0.6-1.2,0.6-2.2c0-0.8-0.2-1.4-0.5-1.8
		c-0.4-0.4-0.8-0.7-1.5-0.7c-0.7,0-1.2,0.2-1.6,0.7C23.7,95,23.5,95.6,23.5,96.3z"/>
	<path style="fill:#FFFFFF;" d="M34.3,94.2c-0.2-0.2-0.5-0.2-0.8-0.2c-0.5,0-0.9,0.2-1.2,0.7s-0.5,1.1-0.5,1.8v3.6h-1.1v-7h1.1v1.4
		h0c0.2-0.5,0.4-0.9,0.7-1.2c0.3-0.3,0.7-0.4,1.1-0.4c0.3,0,0.5,0,0.7,0.1V94.2z"/>
	<path style="fill:#FFFFFF;" d="M41,96.9H36c0,0.8,0.2,1.4,0.6,1.8c0.4,0.4,1,0.6,1.7,0.6c0.8,0,1.5-0.3,2.2-0.8v1.1
		c-0.6,0.4-1.4,0.7-2.4,0.7c-1,0-1.8-0.3-2.3-1c-0.6-0.6-0.8-1.5-0.8-2.7c0-1.1,0.3-2,0.9-2.7c0.6-0.7,1.4-1,2.3-1s1.6,0.3,2.1,0.9
		c0.5,0.6,0.8,1.4,0.8,2.5V96.9z M39.8,95.9c0-0.6-0.2-1.2-0.5-1.5s-0.7-0.5-1.3-0.5c-0.5,0-1,0.2-1.3,0.6s-0.6,0.9-0.7,1.5H39.8z"
		/>
	<path style="fill:#FFFFFF;" d="M47.7,100.1h-1.1V99h0c-0.5,0.8-1.2,1.3-2.2,1.3c-0.7,0-1.2-0.2-1.6-0.6c-0.4-0.4-0.6-0.9-0.6-1.5
		c0-1.3,0.8-2.1,2.3-2.3l2.1-0.3c0-1.2-0.5-1.8-1.4-1.8c-0.8,0-1.6,0.3-2.3,0.9v-1.1c0.7-0.4,1.5-0.7,2.4-0.7c1.6,0,2.5,0.9,2.5,2.6
		V100.1z M46.6,96.6l-1.7,0.2c-0.5,0.1-0.9,0.2-1.2,0.4c-0.3,0.2-0.4,0.5-0.4,1c0,0.3,0.1,0.6,0.4,0.8c0.2,0.2,0.6,0.3,1,0.3
		c0.6,0,1-0.2,1.4-0.6c0.4-0.4,0.5-0.9,0.5-1.5V96.6z"/>
	<path style="fill:#FFFFFF;" d="M55.6,100.1H54l-3.1-3.4h0v3.4h-1.1V89.7h1.1v6.6h0l2.9-3.2h1.5l-3.2,3.4L55.6,100.1z"/>
	<path style="fill:#FFFFFF;" d="M62.5,100.1h-1.1v-1.2h0c-0.5,0.9-1.3,1.4-2.4,1.4c-0.9,0-1.6-0.3-2.1-0.9c-0.5-0.6-0.8-1.5-0.8-2.6
		c0-1.2,0.3-2.1,0.9-2.8c0.6-0.7,1.4-1,2.3-1c1,0,1.7,0.4,2.1,1.1h0v-4.3h1.1V100.1z M61.4,96.9v-1c0-0.6-0.2-1-0.6-1.4
		c-0.4-0.4-0.8-0.6-1.4-0.6c-0.7,0-1.2,0.3-1.6,0.8c-0.4,0.5-0.6,1.2-0.6,2.1c0,0.8,0.2,1.4,0.6,1.9c0.4,0.5,0.9,0.7,1.5,0.7
		c0.6,0,1.1-0.2,1.5-0.7S61.4,97.6,61.4,96.9z"/>
	<path style="fill:#FFFFFF;" d="M67.7,100.3c-1,0-1.9-0.3-2.5-1c-0.6-0.7-0.9-1.5-0.9-2.6c0-1.2,0.3-2.1,1-2.8s1.5-1,2.6-1
		c1,0,1.9,0.3,2.4,1c0.6,0.6,0.9,1.5,0.9,2.7c0,1.1-0.3,2-0.9,2.7C69.6,99.9,68.8,100.3,67.7,100.3z M67.8,93.9
		c-0.7,0-1.3,0.2-1.7,0.7c-0.4,0.5-0.6,1.2-0.6,2c0,0.8,0.2,1.5,0.6,2s1,0.7,1.7,0.7c0.7,0,1.3-0.2,1.7-0.7s0.6-1.1,0.6-2
		c0-0.9-0.2-1.5-0.6-2S68.5,93.9,67.8,93.9z"/>
	<path style="fill:#FFFFFF;" d="M81.8,93.1l-2.1,7h-1.2l-1.4-5c-0.1-0.2-0.1-0.4-0.1-0.6h0c0,0.2-0.1,0.4-0.1,0.6l-1.6,5h-1.1
		l-2.1-7h1.2l1.4,5.3c0,0.2,0.1,0.4,0.1,0.6h0.1c0-0.2,0.1-0.4,0.1-0.6l1.6-5.3h1l1.4,5.3c0,0.2,0.1,0.4,0.1,0.6h0.1
		c0-0.2,0-0.4,0.1-0.6l1.4-5.3H81.8z"/>
	<path style="fill:#FFFFFF;" d="M88.9,100.1h-1.1v-4c0-1.5-0.5-2.2-1.6-2.2c-0.6,0-1,0.2-1.4,0.6c-0.4,0.4-0.6,1-0.6,1.6v4h-1.1v-7
		h1.1v1.2h0c0.5-0.9,1.3-1.3,2.3-1.3c0.8,0,1.4,0.2,1.8,0.7c0.4,0.5,0.6,1.2,0.6,2.1V100.1z"/>
	<path style="fill:#FFFFFF;" d="M92.1,98.5l-1.1,3.4h-0.8l0.8-3.4H92.1z"/>
	<path style="fill:#FFFFFF;" d="M103.4,93.1l-2.8,7h-1.1l-2.7-7h1.2l1.8,5.1c0.1,0.4,0.2,0.7,0.2,1h0c0-0.4,0.1-0.7,0.2-1l1.9-5.1
		H103.4z"/>
	<path style="fill:#FFFFFF;" d="M105.2,91.3c-0.2,0-0.4-0.1-0.5-0.2s-0.2-0.3-0.2-0.5s0.1-0.4,0.2-0.5c0.1-0.1,0.3-0.2,0.5-0.2
		c0.2,0,0.4,0.1,0.5,0.2c0.1,0.1,0.2,0.3,0.2,0.5c0,0.2-0.1,0.4-0.2,0.5S105.4,91.3,105.2,91.3z M105.7,100.1h-1.1v-7h1.1V100.1z"/>
	<path style="fill:#FFFFFF;" d="M113.6,96.9h-4.9c0,0.8,0.2,1.4,0.6,1.8c0.4,0.4,1,0.6,1.7,0.6c0.8,0,1.5-0.3,2.2-0.8v1.1
		c-0.6,0.4-1.4,0.7-2.4,0.7c-1,0-1.8-0.3-2.3-1c-0.6-0.6-0.8-1.5-0.8-2.7c0-1.1,0.3-2,0.9-2.7c0.6-0.7,1.4-1,2.3-1s1.6,0.3,2.1,0.9
		s0.8,1.4,0.8,2.5V96.9z M112.5,95.9c0-0.6-0.2-1.2-0.5-1.5s-0.7-0.5-1.3-0.5c-0.5,0-1,0.2-1.3,0.6s-0.6,0.9-0.7,1.5H112.5z"/>
	<path style="fill:#FFFFFF;" d="M124.2,93.1l-2.1,7h-1.2l-1.4-5c-0.1-0.2-0.1-0.4-0.1-0.6h0c0,0.2-0.1,0.4-0.1,0.6l-1.6,5h-1.1
		l-2.1-7h1.2l1.4,5.3c0,0.2,0.1,0.4,0.1,0.6h0.1c0-0.2,0.1-0.4,0.1-0.6l1.6-5.3h1l1.4,5.3c0,0.2,0.1,0.4,0.1,0.6h0.1
		c0-0.2,0-0.4,0.1-0.6l1.4-5.3H124.2z"/>
	<path style="fill:#FFFFFF;" d="M132.2,100.3c-1,0-1.9-0.3-2.5-1c-0.6-0.7-0.9-1.5-0.9-2.6c0-1.2,0.3-2.1,1-2.8s1.5-1,2.6-1
		c1,0,1.9,0.3,2.4,1c0.6,0.6,0.9,1.5,0.9,2.7c0,1.1-0.3,2-0.9,2.7C134.1,99.9,133.3,100.3,132.2,100.3z M132.3,93.9
		c-0.7,0-1.3,0.2-1.7,0.7c-0.4,0.5-0.6,1.2-0.6,2c0,0.8,0.2,1.5,0.6,2s1,0.7,1.7,0.7c0.7,0,1.3-0.2,1.7-0.7s0.6-1.1,0.6-2
		c0-0.9-0.2-1.5-0.6-2S133,93.9,132.3,93.9z"/>
	<path style="fill:#FFFFFF;" d="M143.3,100.1h-1.1v-4c0-1.5-0.5-2.2-1.6-2.2c-0.6,0-1,0.2-1.4,0.6c-0.4,0.4-0.6,1-0.6,1.6v4h-1.1v-7
		h1.1v1.2h0c0.5-0.9,1.3-1.3,2.3-1.3c0.8,0,1.4,0.2,1.8,0.7c0.4,0.5,0.6,1.2,0.6,2.1V100.1z"/>
	<path style="fill:#FFFFFF;" d="M43.4,119.1h-1.1v-1.2h0c-0.5,0.9-1.3,1.4-2.4,1.4c-0.9,0-1.6-0.3-2.1-0.9c-0.5-0.6-0.8-1.5-0.8-2.6
		c0-1.2,0.3-2.1,0.9-2.8c0.6-0.7,1.4-1,2.3-1c1,0,1.7,0.4,2.1,1.1h0v-4.3h1.1V119.1z M42.3,115.9v-1c0-0.6-0.2-1-0.6-1.4
		c-0.4-0.4-0.8-0.6-1.4-0.6c-0.7,0-1.2,0.3-1.6,0.8c-0.4,0.5-0.6,1.2-0.6,2.1c0,0.8,0.2,1.4,0.6,1.9c0.4,0.5,0.9,0.7,1.5,0.7
		c0.6,0,1.1-0.2,1.5-0.7S42.3,116.6,42.3,115.9z"/>
	<path style="fill:#FFFFFF;" d="M51.3,115.9h-4.9c0,0.8,0.2,1.4,0.6,1.8c0.4,0.4,1,0.6,1.7,0.6c0.8,0,1.5-0.3,2.2-0.8v1.1
		c-0.6,0.4-1.4,0.7-2.4,0.7c-1,0-1.8-0.3-2.3-1c-0.6-0.6-0.8-1.5-0.8-2.7c0-1.1,0.3-2,0.9-2.7c0.6-0.7,1.4-1,2.3-1s1.6,0.3,2.1,0.9
		c0.5,0.6,0.8,1.4,0.8,2.5V115.9z M50.2,114.9c0-0.6-0.2-1.2-0.5-1.5s-0.7-0.5-1.3-0.5c-0.5,0-1,0.2-1.3,0.6s-0.6,0.9-0.7,1.5H50.2z
		"/>
	<path style="fill:#FFFFFF;" d="M52.6,118.9v-1.2c0.6,0.5,1.3,0.7,2,0.7c1,0,1.5-0.3,1.5-1c0-0.2,0-0.3-0.1-0.5
		c-0.1-0.1-0.2-0.2-0.3-0.3s-0.3-0.2-0.5-0.3c-0.2-0.1-0.4-0.2-0.6-0.3c-0.3-0.1-0.6-0.2-0.8-0.4c-0.2-0.1-0.4-0.3-0.6-0.4
		c-0.2-0.2-0.3-0.3-0.4-0.5c-0.1-0.2-0.1-0.4-0.1-0.7c0-0.3,0.1-0.6,0.2-0.9c0.2-0.3,0.4-0.5,0.6-0.6c0.3-0.2,0.5-0.3,0.9-0.4
		s0.7-0.1,1-0.1c0.6,0,1.1,0.1,1.6,0.3v1.1c-0.5-0.3-1.1-0.5-1.8-0.5c-0.2,0-0.4,0-0.6,0.1c-0.2,0-0.3,0.1-0.4,0.2
		c-0.1,0.1-0.2,0.2-0.3,0.3c-0.1,0.1-0.1,0.3-0.1,0.4c0,0.2,0,0.3,0.1,0.5c0.1,0.1,0.2,0.2,0.3,0.3c0.1,0.1,0.3,0.2,0.5,0.3
		c0.2,0.1,0.4,0.2,0.6,0.3c0.3,0.1,0.6,0.2,0.8,0.4c0.2,0.1,0.5,0.3,0.6,0.4c0.2,0.2,0.3,0.3,0.4,0.5c0.1,0.2,0.1,0.4,0.1,0.7
		c0,0.3-0.1,0.6-0.2,0.9c-0.2,0.3-0.4,0.5-0.6,0.6c-0.3,0.2-0.5,0.3-0.9,0.4c-0.3,0.1-0.7,0.1-1,0.1
		C53.8,119.3,53.1,119.1,52.6,118.9z"/>
	<path style="fill:#FFFFFF;" d="M64.8,119.1h-1.6l-3.1-3.4h0v3.4H59v-10.4h1.1v6.6h0l2.9-3.2h1.5l-3.2,3.4L64.8,119.1z"/>
	<path style="fill:#FFFFFF;" d="M69.1,119c-0.3,0.1-0.6,0.2-1,0.2c-1.2,0-1.8-0.7-1.8-2.1v-4.1H65v-1h1.2v-1.7l1.1-0.4v2.1h1.8v1
		h-1.8v3.9c0,0.5,0.1,0.8,0.2,1c0.2,0.2,0.4,0.3,0.8,0.3c0.3,0,0.5-0.1,0.7-0.2V119z"/>
	<path style="fill:#FFFFFF;" d="M73.4,119.3c-1,0-1.9-0.3-2.5-1c-0.6-0.7-0.9-1.5-0.9-2.6c0-1.2,0.3-2.1,1-2.8s1.5-1,2.6-1
		c1,0,1.9,0.3,2.4,1c0.6,0.6,0.9,1.5,0.9,2.7c0,1.1-0.3,2-0.9,2.7C75.3,118.9,74.4,119.3,73.4,119.3z M73.5,112.9
		c-0.7,0-1.3,0.2-1.7,0.7c-0.4,0.5-0.6,1.2-0.6,2c0,0.8,0.2,1.5,0.6,2s1,0.7,1.7,0.7c0.7,0,1.3-0.2,1.7-0.7s0.6-1.1,0.6-2
		c0-0.9-0.2-1.5-0.6-2S74.2,112.9,73.5,112.9z"/>
	<path style="fill:#FFFFFF;" d="M79.8,118.1L79.8,118.1l0,4.2h-1.1v-10.2h1.1v1.2h0c0.6-0.9,1.4-1.4,2.4-1.4c0.9,0,1.6,0.3,2.1,0.9
		c0.5,0.6,0.8,1.5,0.8,2.5c0,1.2-0.3,2.1-0.9,2.8c-0.6,0.7-1.3,1.1-2.3,1.1C81,119.3,80.3,118.9,79.8,118.1z M79.8,115.3v1
		c0,0.6,0.2,1.1,0.6,1.5c0.4,0.4,0.9,0.6,1.4,0.6c0.7,0,1.2-0.3,1.6-0.8c0.4-0.5,0.6-1.2,0.6-2.2c0-0.8-0.2-1.4-0.5-1.8
		c-0.4-0.4-0.8-0.7-1.5-0.7c-0.7,0-1.2,0.2-1.6,0.7C80,114,79.8,114.6,79.8,115.3z"/>
	<path style="fill:#FFFFFF;" d="M90.3,118.9v-1.2c0.6,0.5,1.3,0.7,2,0.7c1,0,1.5-0.3,1.5-1c0-0.2,0-0.3-0.1-0.5
		c-0.1-0.1-0.2-0.2-0.3-0.3s-0.3-0.2-0.5-0.3c-0.2-0.1-0.4-0.2-0.6-0.3c-0.3-0.1-0.6-0.2-0.8-0.4c-0.2-0.1-0.4-0.3-0.6-0.4
		c-0.2-0.2-0.3-0.3-0.4-0.5s-0.1-0.4-0.1-0.7c0-0.3,0.1-0.6,0.2-0.9c0.2-0.3,0.4-0.5,0.6-0.6c0.3-0.2,0.5-0.3,0.9-0.4s0.7-0.1,1-0.1
		c0.6,0,1.1,0.1,1.6,0.3v1.1c-0.5-0.3-1.1-0.5-1.8-0.5c-0.2,0-0.4,0-0.6,0.1c-0.2,0-0.3,0.1-0.4,0.2s-0.2,0.2-0.3,0.3
		c-0.1,0.1-0.1,0.3-0.1,0.4c0,0.2,0,0.3,0.1,0.5c0.1,0.1,0.2,0.2,0.3,0.3c0.1,0.1,0.3,0.2,0.5,0.3c0.2,0.1,0.4,0.2,0.6,0.3
		c0.3,0.1,0.6,0.2,0.8,0.4c0.2,0.1,0.5,0.3,0.6,0.4c0.2,0.2,0.3,0.3,0.4,0.5c0.1,0.2,0.1,0.4,0.1,0.7c0,0.3-0.1,0.6-0.2,0.9
		s-0.4,0.5-0.6,0.6c-0.3,0.2-0.5,0.3-0.9,0.4c-0.3,0.1-0.7,0.1-1,0.1C91.5,119.3,90.8,119.1,90.3,118.9z"/>
	<path style="fill:#FFFFFF;" d="M101.4,118.8c-0.5,0.3-1.2,0.5-1.9,0.5c-1,0-1.8-0.3-2.4-1c-0.6-0.6-0.9-1.5-0.9-2.5
		c0-1.2,0.3-2.1,1-2.8c0.7-0.7,1.5-1,2.6-1c0.6,0,1.2,0.1,1.6,0.3v1.1c-0.5-0.4-1.1-0.5-1.7-0.5c-0.7,0-1.3,0.3-1.8,0.8
		c-0.5,0.5-0.7,1.2-0.7,2c0,0.8,0.2,1.5,0.6,1.9s1,0.7,1.7,0.7c0.6,0,1.2-0.2,1.7-0.6V118.8z"/>
	<path style="fill:#FFFFFF;" d="M106.8,113.2c-0.2-0.2-0.5-0.2-0.8-0.2c-0.5,0-0.9,0.2-1.2,0.7s-0.5,1.1-0.5,1.8v3.6h-1.1v-7h1.1
		v1.4h0c0.2-0.5,0.4-0.9,0.7-1.2c0.3-0.3,0.7-0.4,1.1-0.4c0.3,0,0.5,0,0.7,0.1V113.2z"/>
	<path style="fill:#FFFFFF;" d="M113.4,115.9h-4.9c0,0.8,0.2,1.4,0.6,1.8c0.4,0.4,1,0.6,1.7,0.6c0.8,0,1.5-0.3,2.2-0.8v1.1
		c-0.6,0.4-1.4,0.7-2.4,0.7c-1,0-1.8-0.3-2.3-1c-0.6-0.6-0.8-1.5-0.8-2.7c0-1.1,0.3-2,0.9-2.7c0.6-0.7,1.4-1,2.3-1s1.6,0.3,2.1,0.9
		c0.5,0.6,0.8,1.4,0.8,2.5V115.9z M112.3,114.9c0-0.6-0.2-1.2-0.5-1.5s-0.7-0.5-1.3-0.5c-0.5,0-1,0.2-1.3,0.6s-0.6,0.9-0.7,1.5
		H112.3z"/>
	<path style="fill:#FFFFFF;" d="M120.8,115.9h-4.9c0,0.8,0.2,1.4,0.6,1.8c0.4,0.4,1,0.6,1.7,0.6c0.8,0,1.5-0.3,2.2-0.8v1.1
		c-0.6,0.4-1.4,0.7-2.4,0.7c-1,0-1.8-0.3-2.3-1c-0.6-0.6-0.8-1.5-0.8-2.7c0-1.1,0.3-2,0.9-2.7c0.6-0.7,1.4-1,2.3-1s1.6,0.3,2.1,0.9
		c0.5,0.6,0.8,1.4,0.8,2.5V115.9z M119.6,114.9c0-0.6-0.2-1.2-0.5-1.5s-0.7-0.5-1.3-0.5c-0.5,0-1,0.2-1.3,0.6s-0.6,0.9-0.7,1.5
		H119.6z"/>
	<path style="fill:#FFFFFF;" d="M128.3,119.1h-1.1v-4c0-1.5-0.5-2.2-1.6-2.2c-0.6,0-1,0.2-1.4,0.6c-0.4,0.4-0.5,1-0.5,1.6v4h-1.1v-7
		h1.1v1.2h0c0.5-0.9,1.3-1.3,2.3-1.3c0.8,0,1.4,0.2,1.8,0.7c0.4,0.5,0.6,1.2,0.6,2.1V119.1z"/>
	<path style="fill:#FFFFFF;" d="M64.7,128.7c-0.2-0.1-0.5-0.2-0.7-0.2c-0.8,0-1.2,0.5-1.2,1.5v1.1h1.6v1h-1.6v6h-1.1v-6h-1.2v-1h1.2
		V130c0-0.7,0.2-1.3,0.6-1.7c0.4-0.4,1-0.6,1.6-0.6c0.3,0,0.6,0,0.8,0.1V128.7z"/>
	<path style="fill:#FFFFFF;" d="M68.6,138.3c-1,0-1.9-0.3-2.5-1c-0.6-0.7-0.9-1.5-0.9-2.6c0-1.2,0.3-2.1,1-2.8s1.5-1,2.6-1
		c1,0,1.9,0.3,2.4,1c0.6,0.6,0.9,1.5,0.9,2.7c0,1.1-0.3,2-0.9,2.7C70.5,137.9,69.6,138.3,68.6,138.3z M68.6,131.9
		c-0.7,0-1.3,0.2-1.7,0.7c-0.4,0.5-0.6,1.2-0.6,2c0,0.8,0.2,1.5,0.6,2s1,0.7,1.7,0.7c0.7,0,1.3-0.2,1.7-0.7s0.6-1.1,0.6-2
		c0-0.9-0.2-1.5-0.6-2S69.4,131.9,68.6,131.9z"/>
	<path style="fill:#FFFFFF;" d="M77.5,132.2c-0.2-0.2-0.5-0.2-0.8-0.2c-0.5,0-0.9,0.2-1.2,0.7s-0.5,1.1-0.5,1.8v3.6h-1.1v-7H75v1.4
		h0c0.2-0.5,0.4-0.9,0.7-1.2c0.3-0.3,0.7-0.4,1.1-0.4c0.3,0,0.5,0,0.7,0.1V132.2z"/>
	<path style="fill:#FFFFFF;" d="M88.6,138.1h-1.1v-4c0-0.8-0.1-1.3-0.4-1.7s-0.6-0.5-1.2-0.5c-0.5,0-0.9,0.2-1.2,0.7s-0.5,1-0.5,1.6
		v4h-1.1v-4.2c0-1.4-0.5-2.1-1.6-2.1c-0.5,0-0.9,0.2-1.2,0.6c-0.3,0.4-0.5,0.9-0.5,1.6v4h-1.1v-7h1.1v1.1h0c0.5-0.8,1.2-1.3,2.2-1.3
		c0.5,0,0.9,0.1,1.3,0.4c0.4,0.3,0.6,0.6,0.7,1c0.5-1,1.3-1.4,2.3-1.4c1.5,0,2.3,1,2.3,2.9V138.1z"/>
	<path style="fill:#FFFFFF;" d="M95.8,138.1h-1.1V137h0c-0.5,0.8-1.2,1.3-2.2,1.3c-0.7,0-1.2-0.2-1.6-0.6c-0.4-0.4-0.6-0.9-0.6-1.5
		c0-1.3,0.8-2.1,2.3-2.3l2.1-0.3c0-1.2-0.5-1.8-1.4-1.8c-0.8,0-1.6,0.3-2.3,0.9v-1.1c0.7-0.4,1.5-0.7,2.4-0.7c1.6,0,2.5,0.9,2.5,2.6
		V138.1z M94.6,134.6l-1.7,0.2c-0.5,0.1-0.9,0.2-1.2,0.4c-0.3,0.2-0.4,0.5-0.4,1c0,0.3,0.1,0.6,0.4,0.8c0.2,0.2,0.6,0.3,1,0.3
		c0.6,0,1-0.2,1.4-0.6c0.4-0.4,0.5-0.9,0.5-1.5V134.6z"/>
	<path style="fill:#FFFFFF;" d="M101.1,138c-0.3,0.1-0.6,0.2-1,0.2c-1.2,0-1.8-0.7-1.8-2.1v-4.1H97v-1h1.2v-1.7l1.1-0.4v2.1h1.8v1
		h-1.8v3.9c0,0.5,0.1,0.8,0.2,1s0.4,0.3,0.8,0.3c0.3,0,0.5-0.1,0.7-0.2V138z"/>
	<path style="fill:#FFFFFF;" d="M103.5,138.2c-0.2,0-0.4-0.1-0.5-0.2c-0.1-0.1-0.2-0.3-0.2-0.5s0.1-0.4,0.2-0.5
		c0.1-0.1,0.3-0.2,0.5-0.2c0.2,0,0.4,0.1,0.5,0.2c0.2,0.1,0.2,0.3,0.2,0.5s-0.1,0.4-0.2,0.5S103.7,138.2,103.5,138.2z M104,128.3
		l-0.1,7H103l-0.1-7H104z"/>
</g>
</svg>
