<?xml version="1.0" encoding="utf-8"?>
<!-- Generator: Adobe Illustrator 18.0.0, SVG Export Plug-In . SVG Version: 6.00 Build 0)  -->
<!DOCTYPE svg PUBLIC "-//W3C//DTD SVG 1.1//EN" "http://www.w3.org/Graphics/SVG/1.1/DTD/svg11.dtd">
<svg version="1.1" id="Layer_1" xmlns="http://www.w3.org/2000/svg" xmlns:xlink="http://www.w3.org/1999/xlink" x="0px" y="0px"
	 width="960px" height="428px" viewBox="0 0 960 428" enable-background="new 0 0 960 428" xml:space="preserve">
<g>
	
		<polyline fill="none" stroke="#686868" stroke-width="3" stroke-linecap="round" stroke-linejoin="round" stroke-miterlimit="10" points="
		655.4,386.4 655.4,400.7 280.9,400.7 280.9,386.4 	"/>
	
		<line fill="none" stroke="#686868" stroke-width="3" stroke-linecap="round" stroke-linejoin="round" stroke-miterlimit="10" x1="468.2" y1="400.7" x2="468.2" y2="417.4"/>
	<g>
		<path fill="#FFFFFF" stroke="#686868" stroke-width="3" stroke-linecap="round" stroke-linejoin="round" d="M441.8,60.5
			c-3.2,20.1-22.1,33.7-42.1,30.5S366,68.9,369.2,48.9c0.8-5.1,2.7-9.8,5.3-14c4.6-7.1,11.5-12.5,19.5-15.1
			c5.4-1.8,11.3-2.3,17.3-1.4C431.4,21.6,445,40.5,441.8,60.5z"/>
		<path fill="#FFFFFF" stroke="#686868" stroke-width="3" stroke-linecap="round" stroke-linejoin="round" d="M435.2,59.5
			c-2.6,16.4-18.1,27.6-34.5,25s-27.6-18.1-25-34.5c0.7-4.2,2.2-8.1,4.3-11.4c3.7-5.9,9.4-10.2,16-12.4c4.4-1.5,9.3-1.9,14.2-1.1
			C426.7,27.6,437.9,43,435.2,59.5z"/>
	</g>
	<g>
		<path fill="#686868" d="M394.1,69.5c0-7.6,5.2-13.8,11.6-13.8s11.6,6.2,11.6,13.8H394.1z"/>
		<circle fill="#686868" cx="405.7" cy="47" r="7.1"/>
	</g>
	<g>
		<path fill="#FFFFFF" stroke="#686868" stroke-width="3" stroke-linecap="round" stroke-linejoin="round" d="M557.1,60.5
			C553.9,80.6,535,94.2,515,91c-20.1-3.2-33.7-22.1-30.5-42.1c0.8-5.1,2.7-9.8,5.3-14c4.6-7.1,11.5-12.5,19.5-15.1
			c5.4-1.8,11.3-2.3,17.3-1.4C546.6,21.6,560.3,40.5,557.1,60.5z"/>
		<path fill="#FFFFFF" stroke="#686868" stroke-width="3" stroke-linecap="round" stroke-linejoin="round" d="M550.5,59.5
			c-2.6,16.4-18.1,27.6-34.5,25c-16.4-2.6-27.6-18.1-25-34.5c0.7-4.2,2.2-8.1,4.3-11.4c3.7-5.9,9.4-10.2,16-12.4
			c4.4-1.5,9.3-1.9,14.2-1.1C541.9,27.6,553.1,43,550.5,59.5z"/>
	</g>
	<g>
		<path fill="#686868" d="M509.4,69.5c0-7.6,5.2-13.8,11.6-13.8s11.6,6.2,11.6,13.8H509.4z"/>
		<circle fill="#686868" cx="521" cy="47" r="7.1"/>
	</g>
	<g>
		<path fill="#FFFFFF" stroke="#686868" stroke-width="3" stroke-linecap="round" stroke-linejoin="round" d="M499.5,83.7
			c-3.2,20.1-22.1,33.7-42.1,30.5c-20.1-3.2-33.7-22.1-30.5-42.1c0.8-5.1,2.7-9.8,5.3-14c4.6-7.1,11.5-12.5,19.5-15.1
			c5.4-1.8,11.3-2.3,17.3-1.4C489,44.8,502.7,63.7,499.5,83.7z"/>
		<path fill="#FFFFFF" stroke="#686868" stroke-width="3" stroke-linecap="round" stroke-linejoin="round" d="M492.9,82.7
			c-2.6,16.4-18.1,27.6-34.5,25s-27.6-18.1-25-34.5c0.7-4.2,2.2-8.1,4.3-11.4c3.7-5.9,9.4-10.2,16-12.4c4.4-1.5,9.3-1.9,14.2-1.1
			C484.3,50.8,495.5,66.2,492.9,82.7z"/>
	</g>
	<g>
		<path fill="#686868" d="M451.8,92.7c0-7.6,5.2-13.8,11.6-13.8S475,85.1,475,92.7H451.8z"/>
		<circle fill="#686868" cx="463.4" cy="70.2" r="7.1"/>
	</g>
	<g>
		<path fill="#686868" d="M343.2,109c0,2.7-1.3,4.1-3.9,4.1c-2.5,0-3.7-1.3-3.7-4v-6h1.6v5.6c0,1.9,0.7,2.9,2.2,2.9
			c1.4,0,2.1-0.9,2.1-2.8v-5.7h1.6L343.2,109L343.2,109z"/>
		<path fill="#686868" d="M353.3,113h-1.8l-0.9-2.5h-3.8L346,113h-1.8l3.7-9.8h1.8L353.3,113z M350.2,109.2l-1.4-3.9
			c0-0.1-0.1-0.3-0.1-0.6l0,0c0,0.3-0.1,0.5-0.1,0.6l-1.3,3.9H350.2z"/>
		<path fill="#686868" d="M359.9,104.6h-2.8v8.4h-1.6v-8.4h-2.8v-1.4h7.2L359.9,104.6L359.9,104.6z"/>
		<path fill="#686868" d="M372.6,109c0,2.7-1.3,4.1-3.9,4.1c-2.5,0-3.7-1.3-3.7-4v-6h1.6v5.6c0,1.9,0.7,2.9,2.2,2.9
			c1.4,0,2.1-0.9,2.1-2.8v-5.7h1.6L372.6,109L372.6,109z"/>
		<path fill="#686868" d="M374.5,112.6v-1.7c0.1,0.1,0.3,0.3,0.5,0.4s0.4,0.2,0.7,0.3c0.2,0.1,0.5,0.1,0.7,0.2
			c0.2,0,0.4,0.1,0.6,0.1c0.7,0,1.2-0.1,1.5-0.3s0.5-0.6,0.5-1c0-0.2-0.1-0.4-0.2-0.6s-0.3-0.3-0.5-0.5s-0.4-0.3-0.7-0.4
			c-0.3-0.1-0.6-0.3-0.9-0.4c-0.3-0.2-0.6-0.4-0.9-0.5c-0.3-0.2-0.5-0.4-0.7-0.6c-0.2-0.2-0.4-0.5-0.5-0.7c-0.1-0.3-0.2-0.6-0.2-1
			c0-0.5,0.1-0.9,0.3-1.2c0.2-0.3,0.5-0.6,0.8-0.8s0.7-0.4,1.2-0.5s0.9-0.2,1.3-0.2c1,0,1.8,0.1,2.2,0.3v1.6
			c-0.6-0.4-1.3-0.6-2.1-0.6c-0.2,0-0.5,0-0.7,0.1c-0.2,0-0.5,0.1-0.6,0.2s-0.3,0.2-0.5,0.4c-0.1,0.2-0.2,0.4-0.2,0.6s0,0.4,0.1,0.6
			c0.1,0.2,0.2,0.3,0.4,0.4c0.2,0.1,0.4,0.3,0.6,0.4c0.3,0.1,0.5,0.3,0.9,0.4c0.3,0.2,0.7,0.4,1,0.6c0.3,0.2,0.6,0.4,0.8,0.6
			c0.2,0.2,0.4,0.5,0.5,0.8s0.2,0.6,0.2,1c0,0.5-0.1,0.9-0.3,1.3c-0.2,0.3-0.5,0.6-0.8,0.8s-0.7,0.4-1.2,0.5s-0.9,0.1-1.4,0.1
			c-0.2,0-0.4,0-0.6,0s-0.5-0.1-0.7-0.1s-0.5-0.1-0.7-0.2C374.8,112.7,374.6,112.7,374.5,112.6z"/>
		<path fill="#686868" d="M388,113h-5.5v-9.8h5.3v1.4h-3.6v2.8h3.4v1.4h-3.4v2.9h3.9L388,113L388,113z"/>
		<path fill="#686868" d="M397.2,113h-1.9l-1.6-2.6c-0.1-0.2-0.3-0.4-0.4-0.6s-0.3-0.3-0.4-0.4c-0.1-0.1-0.3-0.2-0.5-0.2
			s-0.3-0.1-0.6-0.1h-0.7v4h-1.6v-9.8h3.2c0.5,0,0.9,0.1,1.3,0.2s0.7,0.3,1,0.5s0.5,0.5,0.7,0.8s0.2,0.7,0.2,1.2
			c0,0.3-0.1,0.7-0.2,0.9c-0.1,0.3-0.2,0.5-0.4,0.8c-0.2,0.2-0.4,0.4-0.7,0.6c-0.3,0.2-0.6,0.3-0.9,0.4l0,0c0.2,0.1,0.3,0.2,0.5,0.3
			c0.1,0.1,0.3,0.2,0.4,0.4c0.1,0.1,0.2,0.3,0.3,0.4c0.1,0.2,0.2,0.3,0.4,0.6L397.2,113z M391.3,104.5v3.2h1.3c0.2,0,0.5,0,0.7-0.1
			s0.4-0.2,0.5-0.3s0.3-0.3,0.4-0.5s0.1-0.4,0.1-0.7c0-0.5-0.1-0.8-0.4-1.1s-0.7-0.4-1.3-0.4h-1.3L391.3,104.5L391.3,104.5z"/>
		<path fill="#686868" d="M397.9,112.6v-1.7c0.1,0.1,0.3,0.3,0.5,0.4s0.4,0.2,0.7,0.3c0.2,0.1,0.5,0.1,0.7,0.2
			c0.2,0,0.4,0.1,0.6,0.1c0.7,0,1.2-0.1,1.5-0.3s0.5-0.6,0.5-1c0-0.2-0.1-0.4-0.2-0.6s-0.3-0.3-0.5-0.5s-0.4-0.3-0.7-0.4
			c-0.3-0.1-0.6-0.3-0.9-0.4c-0.3-0.2-0.6-0.4-0.9-0.5c-0.3-0.2-0.5-0.4-0.7-0.6c-0.2-0.2-0.4-0.5-0.5-0.7c-0.1-0.3-0.2-0.6-0.2-1
			c0-0.5,0.1-0.9,0.3-1.2c0.2-0.3,0.5-0.6,0.8-0.8s0.7-0.4,1.2-0.5s0.9-0.2,1.3-0.2c1,0,1.8,0.1,2.2,0.3v1.6
			c-0.6-0.4-1.3-0.6-2.1-0.6c-0.2,0-0.5,0-0.7,0.1c-0.2,0-0.5,0.1-0.6,0.2s-0.3,0.2-0.5,0.4c-0.1,0.2-0.2,0.4-0.2,0.6s0,0.4,0.1,0.6
			c0.1,0.2,0.2,0.3,0.4,0.4c0.2,0.1,0.4,0.3,0.6,0.4c0.3,0.1,0.5,0.3,0.9,0.4c0.3,0.2,0.7,0.4,1,0.6c0.3,0.2,0.6,0.4,0.8,0.6
			c0.2,0.2,0.4,0.5,0.5,0.8s0.2,0.6,0.2,1c0,0.5-0.1,0.9-0.3,1.3c-0.2,0.3-0.5,0.6-0.8,0.8s-0.7,0.4-1.2,0.5s-0.9,0.1-1.4,0.1
			c-0.2,0-0.4,0-0.6,0s-0.5-0.1-0.7-0.1s-0.5-0.1-0.7-0.2C398.2,112.7,398.1,112.7,397.9,112.6z"/>
	</g>
	<g>
		<path fill="#686868" d="M423.7,136.8V127h2.8c3.6,0,5.4,1.6,5.4,4.8c0,1.5-0.5,2.7-1.5,3.6c-1,0.9-2.3,1.4-4,1.4H423.7z
			 M425.3,128.3v7h1.3c1.1,0,2-0.3,2.7-0.9c0.6-0.6,0.9-1.5,0.9-2.7c0-2.3-1.2-3.4-3.5-3.4L425.3,128.3L425.3,128.3z"/>
		<path fill="#686868" d="M439.1,136.8h-5.5V127h5.3v1.4h-3.6v2.8h3.4v1.4h-3.4v2.9h3.9L439.1,136.8L439.1,136.8z"/>
		<path fill="#686868" d="M448.5,127l-3.5,9.8h-1.8l-3.4-9.8h1.8l2.4,7.4c0.1,0.2,0.1,0.5,0.2,0.8l0,0c0-0.3,0.1-0.5,0.2-0.8
			l2.5-7.4H448.5z"/>
		<path fill="#686868" d="M455.3,136.8h-5.5V127h5.3v1.4h-3.6v2.8h3.4v1.4h-3.4v2.9h3.9L455.3,136.8L455.3,136.8z"/>
		<path fill="#686868" d="M462.4,136.8H457V127h1.6v8.4h3.8V136.8z"/>
		<path fill="#686868" d="M467.4,136.8c-1.4,0-2.5-0.5-3.4-1.4c-0.8-0.9-1.3-2.1-1.3-3.6c0-1.6,0.4-2.8,1.3-3.8
			c0.9-0.9,2-1.4,3.5-1.4c1.4,0,2.5,0.5,3.3,1.4s1.3,2.1,1.3,3.6c0,1.6-0.4,2.8-1.3,3.8S468.9,136.8,467.4,136.8z M467.5,128.3
			c-0.9,0-1.6,0.3-2.2,1s-0.8,1.5-0.8,2.6s0.3,2,0.8,2.6c0.5,0.7,1.3,1,2.1,1c0.9,0,1.7-0.3,2.2-0.9c0.5-0.6,0.8-1.5,0.8-2.6
			c0-1.2-0.3-2.1-0.8-2.7S468.4,128.3,467.5,128.3z"/>
		<path fill="#686868" d="M475.5,133.2v3.5h-1.6v-9.8h3c1.1,0,2,0.3,2.6,0.8s0.9,1.3,0.9,2.2s-0.3,1.7-1,2.3s-1.5,0.9-2.6,0.9
			L475.5,133.2L475.5,133.2z M475.5,128.3v3.6h1c0.7,0,1.2-0.2,1.6-0.5s0.5-0.8,0.5-1.4c0-1.1-0.7-1.7-2-1.7L475.5,128.3
			L475.5,128.3z"/>
		<path fill="#686868" d="M487.5,136.8H482V127h5.3v1.4h-3.6v2.8h3.4v1.4h-3.4v2.9h3.9L487.5,136.8L487.5,136.8z"/>
		<path fill="#686868" d="M496.8,136.8h-1.9l-1.6-2.6c-0.1-0.2-0.3-0.4-0.4-0.6s-0.3-0.3-0.4-0.4c-0.1-0.1-0.3-0.2-0.5-0.2
			s-0.3-0.1-0.6-0.1h-0.7v4h-1.6v-9.8h3.2c0.5,0,0.9,0.1,1.3,0.2s0.7,0.3,1,0.5s0.5,0.5,0.7,0.8s0.2,0.7,0.2,1.2
			c0,0.3-0.1,0.7-0.2,0.9c-0.1,0.3-0.2,0.5-0.4,0.8c-0.2,0.2-0.4,0.4-0.7,0.6c-0.3,0.2-0.6,0.3-0.9,0.4l0,0c0.2,0.1,0.3,0.2,0.5,0.3
			c0.1,0.1,0.3,0.2,0.4,0.4c0.1,0.1,0.2,0.3,0.3,0.4c0.1,0.2,0.2,0.3,0.4,0.6L496.8,136.8z M490.9,128.3v3.2h1.3
			c0.2,0,0.5,0,0.7-0.1s0.4-0.2,0.5-0.3s0.3-0.3,0.4-0.5s0.1-0.4,0.1-0.7c0-0.5-0.1-0.8-0.4-1.1s-0.7-0.4-1.3-0.4L490.9,128.3
			L490.9,128.3z"/>
		<path fill="#686868" d="M497.5,136.3v-1.7c0.1,0.1,0.3,0.3,0.5,0.4s0.4,0.2,0.7,0.3c0.2,0.1,0.5,0.1,0.7,0.2
			c0.2,0,0.4,0.1,0.6,0.1c0.7,0,1.2-0.1,1.5-0.3s0.5-0.6,0.5-1c0-0.2-0.1-0.4-0.2-0.6s-0.3-0.3-0.5-0.5s-0.4-0.3-0.7-0.4
			c-0.3-0.1-0.6-0.3-0.9-0.4c-0.3-0.2-0.6-0.4-0.9-0.5c-0.3-0.2-0.5-0.4-0.7-0.6c-0.2-0.2-0.4-0.5-0.5-0.7c-0.1-0.3-0.2-0.6-0.2-1
			c0-0.5,0.1-0.9,0.3-1.2c0.2-0.3,0.5-0.6,0.8-0.8s0.7-0.4,1.2-0.5s0.9-0.2,1.3-0.2c1,0,1.8,0.1,2.2,0.3v1.6
			c-0.6-0.4-1.3-0.6-2.1-0.6c-0.2,0-0.5,0-0.7,0.1c-0.2,0-0.5,0.1-0.6,0.2s-0.3,0.2-0.5,0.4c-0.1,0.2-0.2,0.4-0.2,0.6s0,0.4,0.1,0.6
			c0.1,0.2,0.2,0.3,0.4,0.4c0.2,0.1,0.4,0.3,0.6,0.4c0.3,0.1,0.5,0.3,0.9,0.4c0.3,0.2,0.7,0.4,1,0.6c0.3,0.2,0.6,0.4,0.8,0.6
			c0.2,0.2,0.4,0.5,0.5,0.8s0.2,0.6,0.2,1c0,0.5-0.1,0.9-0.3,1.3c-0.2,0.3-0.5,0.6-0.8,0.8s-0.7,0.4-1.2,0.5s-0.9,0.1-1.4,0.1
			c-0.2,0-0.4,0-0.6,0s-0.5-0.1-0.7-0.1s-0.5-0.1-0.7-0.2C497.8,136.5,497.6,136.5,497.5,136.3z"/>
	</g>
	<g>
		<path fill="#686868" d="M523,113h-1.7v-9.8h1.7V113z"/>
		<path fill="#686868" d="M531.7,104.6h-2.8v8.4h-1.6v-8.4h-2.8v-1.4h7.2L531.7,104.6L531.7,104.6z"/>
		<path fill="#686868" d="M540.9,113.2c-1.4,0-2.5-0.5-3.4-1.4c-0.8-0.9-1.3-2.1-1.3-3.6c0-1.6,0.4-2.8,1.3-3.8
			c0.9-0.9,2-1.4,3.5-1.4c1.4,0,2.5,0.5,3.3,1.4s1.3,2.1,1.3,3.6c0,1.6-0.4,2.8-1.3,3.8S542.4,113.2,540.9,113.2z M541,104.5
			c-0.9,0-1.6,0.3-2.2,1s-0.8,1.5-0.8,2.6s0.3,2,0.8,2.6c0.5,0.7,1.3,1,2.1,1c0.9,0,1.7-0.3,2.2-0.9c0.5-0.6,0.8-1.5,0.8-2.6
			c0-1.2-0.3-2.1-0.8-2.7S541.9,104.5,541,104.5z"/>
		<path fill="#686868" d="M549.1,109.5v3.5h-1.6v-9.8h3c1.1,0,2,0.3,2.6,0.8s0.9,1.3,0.9,2.2s-0.3,1.7-1,2.3s-1.5,0.9-2.6,0.9
			L549.1,109.5L549.1,109.5L549.1,109.5z M549.1,104.6v3.6h1c0.7,0,1.2-0.2,1.6-0.5s0.5-0.8,0.5-1.4c0-1.1-0.7-1.7-2-1.7
			L549.1,104.6L549.1,104.6z"/>
		<path fill="#686868" d="M561.1,113h-5.5v-9.8h5.3v1.4h-3.6v2.8h3.4v1.4h-3.4v2.9h3.9v1.3L561.1,113L561.1,113z"/>
		<path fill="#686868" d="M570.3,113h-1.9l-1.6-2.6c-0.1-0.2-0.3-0.4-0.4-0.6c-0.1-0.2-0.3-0.3-0.4-0.4c-0.1-0.1-0.3-0.2-0.5-0.2
			s-0.3-0.1-0.6-0.1h-0.7v4h-1.6v-9.8h3.2c0.5,0,0.9,0.1,1.3,0.2c0.4,0.1,0.7,0.3,1,0.5s0.5,0.5,0.7,0.8s0.2,0.7,0.2,1.2
			c0,0.3-0.1,0.7-0.2,0.9c-0.1,0.3-0.2,0.5-0.4,0.8c-0.2,0.2-0.4,0.4-0.7,0.6s-0.6,0.3-0.9,0.4l0,0c0.2,0.1,0.3,0.2,0.5,0.3
			c0.1,0.1,0.3,0.2,0.4,0.4c0.1,0.1,0.2,0.3,0.3,0.4c0.1,0.2,0.2,0.3,0.4,0.6L570.3,113z M564.4,104.6v3.2h1.3c0.2,0,0.5,0,0.7-0.1
			s0.4-0.2,0.5-0.3s0.3-0.3,0.4-0.5c0.1-0.2,0.1-0.4,0.1-0.7c0-0.5-0.1-0.8-0.4-1.1c-0.3-0.3-0.7-0.4-1.3-0.4L564.4,104.6
			L564.4,104.6z"/>
		<path fill="#686868" d="M579.5,113h-1.8l-0.9-2.5H573l-0.8,2.5h-1.8l3.7-9.8h1.8L579.5,113z M576.4,109.2l-1.4-3.9
			c0-0.1-0.1-0.3-0.1-0.6l0,0c0,0.3-0.1,0.5-0.1,0.6l-1.3,3.9H576.4z"/>
		<path fill="#686868" d="M586.1,104.6h-2.8v8.4h-1.6v-8.4h-2.8v-1.4h7.2L586.1,104.6L586.1,104.6z"/>
		<path fill="#686868" d="M589.2,113h-1.7v-9.8h1.7V113z"/>
		<path fill="#686868" d="M595.6,113.2c-1.4,0-2.5-0.5-3.4-1.4c-0.8-0.9-1.3-2.1-1.3-3.6c0-1.6,0.4-2.8,1.3-3.8
			c0.9-0.9,2-1.4,3.5-1.4c1.4,0,2.5,0.5,3.3,1.4s1.3,2.1,1.3,3.6c0,1.6-0.4,2.8-1.3,3.8S597,113.2,595.6,113.2z M595.7,104.5
			c-0.9,0-1.6,0.3-2.2,1s-0.8,1.5-0.8,2.6s0.3,2,0.8,2.6c0.5,0.7,1.3,1,2.1,1c0.9,0,1.7-0.3,2.2-0.9c0.5-0.6,0.8-1.5,0.8-2.6
			c0-1.2-0.3-2.1-0.8-2.7S596.6,104.5,595.7,104.5z"/>
		<path fill="#686868" d="M610.4,113h-1.8l-4.7-7.2c-0.1-0.2-0.2-0.4-0.3-0.6l0,0c0,0.2,0.1,0.7,0.1,1.3v6.4h-1.6v-9.8h1.9l4.5,7
			c0.2,0.3,0.3,0.5,0.4,0.6l0,0c0-0.3-0.1-0.7-0.1-1.3v-6.3h1.6L610.4,113L610.4,113z"/>
		<path fill="#686868" d="M612.3,112.6v-1.7c0.1,0.1,0.3,0.3,0.5,0.4s0.4,0.2,0.7,0.3c0.2,0.1,0.5,0.1,0.7,0.2
			c0.2,0,0.4,0.1,0.6,0.1c0.7,0,1.2-0.1,1.5-0.3s0.5-0.6,0.5-1c0-0.2-0.1-0.4-0.2-0.6s-0.3-0.3-0.5-0.5s-0.4-0.3-0.7-0.4
			c-0.3-0.1-0.6-0.3-0.9-0.4c-0.3-0.2-0.6-0.4-0.9-0.5c-0.3-0.2-0.5-0.4-0.7-0.6c-0.2-0.2-0.4-0.5-0.5-0.7c-0.1-0.3-0.2-0.6-0.2-1
			c0-0.5,0.1-0.9,0.3-1.2s0.5-0.6,0.8-0.8s0.7-0.4,1.2-0.5s0.9-0.2,1.3-0.2c1,0,1.8,0.1,2.2,0.3v1.6c-0.6-0.4-1.3-0.6-2.1-0.6
			c-0.2,0-0.5,0-0.7,0.1c-0.2,0-0.5,0.1-0.6,0.2s-0.3,0.2-0.5,0.4c-0.1,0.2-0.2,0.4-0.2,0.6s0,0.4,0.1,0.6c0.1,0.2,0.2,0.3,0.4,0.4
			s0.4,0.3,0.6,0.4c0.3,0.1,0.5,0.3,0.9,0.4c0.3,0.2,0.7,0.4,1,0.6c0.3,0.2,0.6,0.4,0.8,0.6s0.4,0.5,0.5,0.8s0.2,0.6,0.2,1
			c0,0.5-0.1,0.9-0.3,1.3c-0.2,0.3-0.5,0.6-0.8,0.8s-0.7,0.4-1.2,0.5s-0.9,0.1-1.4,0.1c-0.2,0-0.4,0-0.6,0s-0.5-0.1-0.7-0.1
			s-0.5-0.1-0.7-0.2C612.7,112.8,612.5,112.7,612.3,112.6z"/>
	</g>
	<path fill="#FFFFFF" stroke="#686868" stroke-width="3" stroke-linecap="round" stroke-linejoin="round" d="M330,310.3l-47.9,4.4
		c-2.5,0.2-4.8-1.7-5-4.2l-7.9-86.9c-0.2-2.5,1.7-4.8,4.2-5l47.9-4.4c2.5-0.2,4.8,1.7,5,4.2l7.9,86.9
		C334.4,307.8,332.6,310.2,330,310.3z"/>
	
		<circle fill="#FFFFFF" stroke="#686868" stroke-width="2" stroke-linecap="round" stroke-linejoin="round" cx="305" cy="300.9" r="4.6"/>
	<g>
		<path fill="#686868" d="M313.8,254.8c-1.4-1.2-3.1-2.4-5.6-2.1c-1.7,0.2-3,1.9-5.5,2.2c-1.9,0.2-2.9-1.2-5-1
			c-4.3,0.5-8.3,4.4-7.8,9c0.3,2.4,1.5,6,3.8,9.1c1.7,2.2,3.6,3.6,5.5,3.4c1.4-0.1,3-1.6,5-1.8c1.7-0.2,3.5,0.9,5.1,0.7
			c3.8-0.4,6.8-5.2,6.5-8.2c0-0.1-0.1-0.3-0.1-0.4v-0.2c-2.6-1-4.1-2.6-4.4-5.1C311.2,258.1,312,256.2,313.8,254.8L313.8,254.8
			L313.8,254.8L313.8,254.8z"/>
		<path fill="#686868" d="M302.7,253.2c2.8-1.1,5.1-3.3,4.7-6.6c0-0.3-0.1-0.6-0.2-1l-0.1-0.1c-2.8,1-5.2,3.3-4.8,6.5
			c0,0.3,0.2,0.7,0.3,1.1L302.7,253.2L302.7,253.2L302.7,253.2z"/>
	</g>
	<path fill="#FFFFFF" stroke="#686868" stroke-width="3" stroke-linecap="round" stroke-linejoin="round" d="M398.6,288.7l-46.3-13
		c-2.4-0.7-3.9-3.3-3.2-5.7l23.5-84.1c0.7-2.4,3.3-3.9,5.7-3.2l46.3,13c2.4,0.7,3.9,3.3,3.2,5.7l-23.5,84.1
		C403.6,287.9,401.1,289.3,398.6,288.7z"/>
	
		<circle fill="#FFFFFF" stroke="#686868" stroke-width="2" stroke-linecap="round" stroke-linejoin="round" cx="378.6" cy="271.1" r="4.6"/>
	<g>
		<path fill="#686868" d="M376.8,235.3c-0.3,1-1.4,1.6-2.5,1.3s-1.7-1.4-1.5-2.4l2.5-9.1c0.3-1,1.4-1.6,2.5-1.3s1.7,1.4,1.5,2.4
			L376.8,235.3L376.8,235.3L376.8,235.3z"/>
		<path fill="#686868" d="M404.3,242.8c-0.3,1-1.4,1.6-2.5,1.3s-1.7-1.4-1.5-2.4l2.5-9.1c0.3-1,1.4-1.6,2.5-1.3s1.7,1.4,1.5,2.4
			L404.3,242.8L404.3,242.8L404.3,242.8z"/>
		<path fill="#686868" d="M381.8,224.8l-3.7,13.5c-0.4,1.5,0.5,3.1,2.1,3.5l1.3,0.4l-1.3,4.6c-0.3,1,0.3,2,1.4,2.3
			c1,0.3,2.1-0.3,2.4-1.3l1.3-4.6l3.9,1.1l-1.3,4.6c-0.3,1,0.3,2,1.4,2.3s2.1-0.3,2.4-1.3l1.3-4.6l1.8,0.5c1.6,0.4,2.6-0.6,3-2.1
			l3.7-13.5L381.8,224.8L381.8,224.8L381.8,224.8z"/>
		<path fill="#686868" d="M402.8,228.6c0,0,0.1-0.1,0.1-0.3c1.3-4.8-2.4-9.9-8.3-11.6c-5.9-1.6-11.7,0.9-13,5.7c0,0.2-0.1,0.3,0,0.3
			L402.8,228.6L402.8,228.6L402.8,228.6z"/>
		<path fill="#686868" d="M390.1,218.8c0.1,0.3-0.1,0.5-0.4,0.6s-0.6-0.1-0.6-0.4l-1.7-5.6c-0.1-0.3,0.1-0.5,0.4-0.6
			s0.6,0.1,0.6,0.4L390.1,218.8L390.1,218.8L390.1,218.8z"/>
		<path fill="#686868" d="M397.5,220.8c-0.2,0.2-0.2,0.5,0,0.7s0.5,0.2,0.7,0l4.3-3.9c0.2-0.2,0.2-0.5,0-0.7s-0.5-0.2-0.7,0
			L397.5,220.8L397.5,220.8L397.5,220.8z"/>
		<path fill="#686868" d="M389.5,220.2c-0.1,0.5-0.7,0.8-1.2,0.6s-0.9-0.7-0.7-1.1c0.1-0.5,0.7-0.8,1.2-0.6
			C389.3,219.2,389.7,219.7,389.5,220.2L389.5,220.2z"/>
		<path fill="#686868" d="M399.3,222.8c0.1-0.5-0.2-1-0.7-1.1s-1.1,0.1-1.2,0.6s0.2,1,0.7,1.1S399.2,223.3,399.3,222.8L399.3,222.8z
			"/>
	</g>
	<path fill="#FFFFFF" stroke="#686868" stroke-width="3" stroke-linecap="round" stroke-linejoin="round" d="M659,296.6H521.2
		c-2.6,0-4.8-2.2-4.8-4.8v-87.1c0-2.6,2.2-4.8,4.8-4.8H659c2.6,0,4.8,2.2,4.8,4.8v87.1C663.8,294.4,661.6,296.6,659,296.6z"/>
	<path fill="#FFFFFF" stroke="#686868" stroke-width="3" stroke-linecap="round" stroke-linejoin="round" d="M676.8,327.6H503.3
		c-2.8,0-4.3-3.2-2.5-5.3l14.6-17.6c0.6-0.8,1.5-1.2,2.5-1.2h144.3c1,0,1.9,0.4,2.5,1.2l14.6,17.6
		C681.1,324.3,679.6,327.6,676.8,327.6z"/>
	<g>
		
			<circle fill="#FFFFFF" stroke="#686868" stroke-width="2" stroke-linecap="round" stroke-linejoin="round" cx="590.9" cy="248.3" r="27.5"/>
		
			<line fill="none" stroke="#686868" stroke-width="2" stroke-linecap="round" stroke-linejoin="round" x1="590.9" y1="220.8" x2="590.9" y2="275.3"/>
		<path fill="#FFFFFF" stroke="#686868" stroke-width="2" stroke-linecap="round" stroke-linejoin="round" d="M577.9,224.3
			c-6.6,7.1-6.3,41.1,0,47.9"/>
		<path fill="#FFFFFF" stroke="#686868" stroke-width="2" stroke-linecap="round" stroke-linejoin="round" d="M603.7,272.3
			c6.6-7.1,6.3-41.1,0-47.9"/>
		<path fill="none" stroke="#686868" stroke-width="2" stroke-linecap="round" stroke-linejoin="round" d="M614.8,235.4
			c-7.1-6.6-41.1-6.3-47.9,0"/>
		<path fill="none" stroke="#686868" stroke-width="2" stroke-linecap="round" stroke-linejoin="round" d="M566.9,261.3
			c7.1,6.6,41.1,6.3,47.9,0"/>
		
			<line fill="none" stroke="#686868" stroke-width="2" stroke-linecap="round" stroke-linejoin="round" x1="618.1" y1="248.1" x2="563.5" y2="248.1"/>
	</g>
	<path fill="#FFFFFF" stroke="#686868" stroke-width="3" stroke-linecap="round" stroke-linejoin="round" d="M371.3,340.8h-48.1
		c-2.5,0-4.6-2.1-4.6-4.6v-87.3c0-2.5,2.1-4.6,4.6-4.6h48.1c2.5,0,4.6,2.1,4.6,4.6v87.3C375.9,338.8,373.9,340.8,371.3,340.8z"/>
	
		<circle fill="#FFFFFF" stroke="#686868" stroke-width="2" stroke-linecap="round" stroke-linejoin="round" cx="347.3" cy="329.3" r="4.6"/>
	<g>
		<polygon fill="#686868" points="345.7,289.3 361.1,289.3 361.1,275.7 345.7,277.8 		"/>
		<polygon fill="#686868" points="345.2,289.3 345.2,277.8 333.4,279.6 333.4,289.3 		"/>
		<polygon fill="#686868" points="345.7,289.8 345.7,301.3 361.1,303.3 361.1,289.8 		"/>
		<polygon fill="#686868" points="345.2,289.8 333.4,289.8 333.4,299.6 345.2,301.2 		"/>
	</g>
</g>
</svg>
