<?xml version="1.0" encoding="utf-8"?>
<!-- Generator: Adobe Illustrator 19.2.0, SVG Export Plug-In . SVG Version: 6.00 Build 0)  -->
<svg version="1.1" id="Layer_1" xmlns="http://www.w3.org/2000/svg" xmlns:xlink="http://www.w3.org/1999/xlink" x="0px" y="0px"
	 width="960px" height="193.2px" viewBox="0 0 960 193.2" enable-background="new 0 0 960 193.2" xml:space="preserve">
<g>
	<path fill="#DFDFDE" d="M677.2,0c-14.6,0-28.3,3.8-40.2,10.4v-0.1L513.8,82.8l0.2,0.1c-0.1,0-0.2,0-0.2,0s0.1,0,0.3,0.1L637,155.6
		v-0.1c11.9,6.6,25.6,10.4,40.2,10.4c45.8,0,83-37.1,83-83C760.2,37.1,723.1,0,677.2,0z"/>
	<g>
		<polygon fill="#F26724" points="642.2,74.4 654.9,74.4 654.9,87.1 642.2,87.1 		"/>
		<polygon fill="#8EC641" points="656.3,74.4 669,74.4 669,87.1 656.3,87.1 		"/>
		<polygon fill="#2BACE2" points="642.2,88.5 654.9,88.5 654.9,101.2 642.2,101.2 		"/>
		<polygon fill="#FFC316" points="656.3,88.5 669,88.5 669,101.2 656.3,101.2 		"/>
	</g>
	<g>
		<path fill="#5FA9DD" d="M669.8,116c-1,0.5-2.1,0.8-3.2,1c1.1-0.8,2-2,2.4-3.4c-1.1,0.7-2.3,1.2-3.5,1.5c-1-1.2-2.5-1.9-4-1.9
			c-3.1,0-5.5,2.7-5.5,6.1c0,0.5,0,0.9,0.1,1.4c-4.6-0.3-8.7-2.7-11.4-6.4c-0.5,0.9-0.8,2-0.8,3.1c0,2.1,1,4,2.5,5.1
			c-0.9,0-1.8-0.3-2.5-0.8v0.1c0,3,1.9,5.4,4.5,6c-0.5,0.1-1,0.2-1.5,0.2c-0.4,0-0.7,0-1-0.1c0.7,2.4,2.8,4.2,5.2,4.2
			c-1.9,1.6-4.3,2.6-6.9,2.6c-0.4,0-0.9,0-1.3-0.1c2.5,1.7,5.4,2.7,8.5,2.7c10.2,0,15.8-9.3,15.8-17.4c0-0.3,0-0.5,0-0.8
			C668.1,118.3,669,117.3,669.8,116L669.8,116z"/>
	</g>
	<g>
		<path fill="#010101" d="M699.5,170.8l-1,10.3l-1.8,0.4l-5.7-8.6l1.7-0.4l4.1,6.6c0.1,0.2,0.3,0.5,0.4,0.8l0,0c0-0.3,0-0.5,0-0.9
			l0.6-7.8L699.5,170.8z"/>
		<path fill="#010101" d="M704.9,179.3l-1.6,0.5l-2.9-9.3l1.6-0.5L704.9,179.3z"/>
		<path fill="#010101" d="M715.1,175.7l-1.7,0.6l-1.7-2l-3.6,1.3l0.1,2.6l-1.7,0.6l0.1-10.4l1.7-0.6L715.1,175.7z M710.8,173.2
			l-2.6-3.2c-0.1-0.1-0.2-0.3-0.3-0.5l0,0c0.1,0.3,0.1,0.5,0.1,0.6l0.1,4.1L710.8,173.2z"/>
		<path fill="#010101" d="M727.6,169.9l-1.6,0.8l-1.9-1.8l-3.4,1.7l0.3,2.6l-1.6,0.8l-1-10.4l1.6-0.8L727.6,169.9z M723.1,167.8
			l-2.9-2.9c-0.1-0.1-0.2-0.3-0.4-0.5l0,0c0.1,0.3,0.1,0.5,0.1,0.6l0.5,4.1L723.1,167.8z"/>
		<path fill="#010101" d="M730.6,157.7l-0.8,9.3l4.6-2.6l0.7,1.2l-6.5,3.8l-0.4-0.6l0.8-9.3l-4.3,2.5l-0.7-1.2l6.2-3.6L730.6,157.7z
			"/>
		<path fill="#010101" d="M740.8,157c1.5,2.3,1.2,4.1-0.9,5.6c-2.1,1.4-3.8,1-5.3-1.2l-3.3-4.9l1.3-0.9l3.2,4.7
			c1.1,1.6,2.2,2,3.5,1.1c1.2-0.8,1.3-2,0.2-3.5l-3.2-4.7l1.3-0.9L740.8,157z"/>
		<path fill="#010101" d="M751.1,153.9l-1.5,1.2l-2.8-1.1c-0.3-0.1-0.5-0.2-0.7-0.2s-0.4-0.1-0.6-0.1s-0.3,0-0.5,0.1
			s-0.3,0.2-0.5,0.3l-0.5,0.4l2.5,3.1l-1.3,1l-6.1-7.6l2.5-2c0.4-0.3,0.7-0.5,1.1-0.7c0.4-0.2,0.7-0.2,1.1-0.2c0.4,0,0.7,0.1,1,0.2
			c0.3,0.2,0.6,0.4,0.9,0.7c0.2,0.3,0.4,0.5,0.5,0.8s0.2,0.6,0.1,0.9c0,0.3-0.1,0.6-0.2,0.9c-0.1,0.3-0.3,0.6-0.5,0.8l0,0
			c0.2,0,0.4,0,0.6,0s0.4,0,0.5,0.1c0.2,0,0.4,0.1,0.5,0.1c0.2,0.1,0.4,0.1,0.7,0.2L751.1,153.9z M741.2,151l2,2.5l1-0.8
			c0.2-0.2,0.3-0.3,0.5-0.5s0.2-0.4,0.2-0.6c0-0.2,0-0.4-0.1-0.6c-0.1-0.2-0.2-0.4-0.3-0.6c-0.3-0.4-0.6-0.6-1-0.6s-0.8,0.1-1.2,0.5
			L741.2,151z"/>
		<path fill="#010101" d="M756.3,149l-4,3.8l-6.7-7.1l3.8-3.6l0.9,1l-2.6,2.5l1.9,2l2.4-2.3l0.9,1l-2.4,2.3l2,2.1l2.8-2.6L756.3,149
			z"/>
		<path fill="#010101" d="M765.7,138.1l-1.1,1.4l-2.5-0.9l-2.4,3l1.4,2.2l-1.1,1.4l-5.3-9l1.1-1.4L765.7,138.1z M760.8,138.1
			l-3.9-1.4c-0.1,0-0.3-0.1-0.6-0.3l0,0c0.2,0.2,0.3,0.4,0.4,0.5l2.2,3.5L760.8,138.1z"/>
		<path fill="#010101" d="M770,130.7c-0.1,0.8-0.4,1.7-1,2.6c-0.8,1.2-1.8,1.9-3,2.1c-1.2,0.2-2.4,0-3.6-0.8
			c-1.3-0.8-2.1-1.9-2.4-3.3c-0.3-1.3,0-2.6,0.8-3.8c0.5-0.8,1-1.4,1.6-1.8l1.3,0.9c-0.7,0.3-1.2,0.8-1.7,1.5
			c-0.6,0.9-0.8,1.8-0.5,2.7c0.2,0.9,0.8,1.7,1.7,2.3s1.8,0.8,2.7,0.6s1.6-0.7,2.1-1.5s0.8-1.6,0.8-2.4L770,130.7z"/>
		<path fill="#010101" d="M766.9,119.3l-1.3,2.5l7.5,3.8l-0.7,1.4l-7.5-3.8l-1.3,2.5l-1.2-0.6l3.2-6.4L766.9,119.3z"/>
		<path fill="#010101" d="M775.7,119.8l-0.6,1.5l-9-3.7l0.6-1.5L775.7,119.8z"/>
		<path fill="#010101" d="M769.6,106.9l8.3,6.2l-0.5,1.7l-10.3,0.5l0.5-1.7l7.8-0.2c0.2,0,0.5,0,0.8,0.1l0,0
			c-0.2-0.1-0.5-0.3-0.7-0.4l-6.4-4.5L769.6,106.9z"/>
		<path fill="#010101" d="M780.3,102.4l-1,5.4l-9.6-1.8l1-5.2l1.4,0.3l-0.7,3.6l2.7,0.5l0.6-3.3l1.3,0.3l-0.6,3.3l2.8,0.5l0.7-3.8
			L780.3,102.4z"/>
		<path fill="#010101" d="M781,95.9l-9.8-0.2l0.1-2.8c0.1-3.6,1.7-5.4,4.9-5.3c1.5,0,2.7,0.6,3.6,1.6c0.9,1,1.3,2.4,1.3,4L781,95.9z
			 M772.7,94.1l7,0.2V93c0-1.1-0.3-2-0.9-2.7c-0.6-0.6-1.5-1-2.6-1c-2.3,0-3.4,1.1-3.5,3.5V94.1z"/>
		<path fill="#010101" d="M780.9,83.7l0.1,1.7l-9.7,0.6l-0.1-1.7L780.9,83.7z"/>
		<path fill="#010101" d="M779.7,73.4l0.2,1.9l-2.4,1.9c-0.2,0.2-0.4,0.3-0.6,0.5c-0.1,0.2-0.3,0.3-0.4,0.5
			c-0.1,0.2-0.2,0.3-0.2,0.5s0,0.4,0,0.6l0.1,0.6l3.9-0.5l0.2,1.6l-9.7,1.3l-0.4-3.2c-0.1-0.5-0.1-0.9,0-1.3s0.2-0.8,0.4-1.1
			c0.2-0.3,0.4-0.6,0.7-0.8c0.3-0.2,0.7-0.3,1.1-0.4c0.3,0,0.7,0,1,0s0.6,0.2,0.8,0.3c0.2,0.2,0.5,0.4,0.7,0.6s0.4,0.5,0.5,0.8l0,0
			c0.1-0.2,0.2-0.4,0.3-0.5s0.2-0.3,0.3-0.4s0.2-0.3,0.4-0.4s0.3-0.3,0.5-0.5L779.7,73.4z M772.1,80.4l3.1-0.4l-0.2-1.3
			c0-0.2-0.1-0.5-0.2-0.7c-0.1-0.2-0.2-0.4-0.4-0.5s-0.4-0.2-0.6-0.3c-0.2-0.1-0.5-0.1-0.7,0c-0.5,0.1-0.8,0.3-1,0.6
			c-0.2,0.3-0.3,0.8-0.2,1.3L772.1,80.4z"/>
		<path fill="#010101" d="M778.2,66.5l1.1,5.4l-9.5,2l-1.1-5.1l1.3-0.3l0.8,3.5l2.7-0.6l-0.7-3.3l1.3-0.3l0.7,3.3l2.8-0.6l-0.8-3.8
			L778.2,66.5z"/>
		<path fill="#010101" d="M775.4,58c0.6,0.6,1,1.4,1.3,2.5c0.4,1.4,0.3,2.6-0.3,3.6c-0.6,1.1-1.6,1.8-3,2.2c-1.5,0.4-2.8,0.3-4-0.3
			c-1.2-0.7-2-1.7-2.4-3.1c-0.3-0.9-0.3-1.7-0.3-2.4l1.5-0.4c-0.2,0.7-0.2,1.5,0,2.3c0.3,1,0.9,1.7,1.7,2.2c0.8,0.4,1.8,0.5,2.9,0.2
			c1-0.3,1.8-0.8,2.2-1.6s0.5-1.6,0.3-2.6c-0.3-0.9-0.7-1.6-1.3-2.1L775.4,58z"/>
		<path fill="#010101" d="M765.1,52.7l0.9,2.6l7.9-2.8l0.5,1.5l-7.9,2.8l0.9,2.6l-1.3,0.5l-2.4-6.8L765.1,52.7z"/>
		<path fill="#010101" d="M771.2,45c0.6,1.3,0.6,2.5,0.1,3.6s-1.4,2-2.8,2.6s-2.8,0.7-4,0.3s-2.1-1.3-2.7-2.7
			c-0.5-1.3-0.5-2.5,0-3.6s1.4-2,2.8-2.5c1.5-0.6,2.8-0.7,4-0.3C769.7,42.8,770.6,43.6,771.2,45z M763.2,48.3
			c0.3,0.8,0.9,1.4,1.8,1.6c0.8,0.3,1.8,0.2,2.8-0.3c1-0.4,1.7-1,2.1-1.8c0.4-0.8,0.4-1.5,0.1-2.4c-0.4-0.9-0.9-1.4-1.7-1.7
			c-0.8-0.2-1.7-0.2-2.8,0.3s-1.8,1-2.2,1.8C762.8,46.6,762.8,47.4,763.2,48.3z"/>
		<path fill="#010101" d="M764.9,32l0.8,1.7l-1.7,2.6c-0.2,0.2-0.3,0.4-0.4,0.6c-0.1,0.2-0.2,0.4-0.2,0.6c0,0.2,0,0.3,0,0.5
			s0.1,0.3,0.2,0.5l0.3,0.6l3.5-1.8l0.7,1.4l-8.7,4.3l-1.4-2.9c-0.2-0.4-0.3-0.8-0.4-1.2c-0.1-0.4-0.1-0.8,0-1.1
			c0.1-0.4,0.2-0.7,0.4-1s0.5-0.5,0.9-0.7c0.3-0.2,0.6-0.2,0.9-0.3c0.3,0,0.6,0,0.9,0c0.3,0.1,0.6,0.2,0.8,0.4
			c0.3,0.2,0.5,0.4,0.7,0.6l0,0c0-0.2,0-0.4,0.1-0.6c0-0.2,0.1-0.3,0.2-0.5s0.1-0.3,0.2-0.5c0.1-0.2,0.2-0.4,0.3-0.6L764.9,32z
			 M759.9,41l2.8-1.4l-0.6-1.2c-0.1-0.2-0.2-0.4-0.4-0.6c-0.2-0.2-0.3-0.3-0.5-0.3c-0.2-0.1-0.4-0.1-0.6-0.1c-0.2,0-0.5,0.1-0.7,0.2
			c-0.4,0.2-0.7,0.5-0.8,0.9s0,0.8,0.2,1.3L759.9,41z"/>
		<path fill="#010101" d="M752.5,29.7l7-0.2l3.1-1.7l0.8,1.4l-3.1,1.7l-4,5.7l-0.9-1.6l2.7-3.7c0,0,0.2-0.2,0.4-0.5l0,0
			c-0.1,0-0.3,0.1-0.6,0.1l-4.6,0.3L752.5,29.7z"/>
	</g>
	<g>
		<path fill="#3E5B99" d="M705.2,100.8c0.8,0,1.4-0.6,1.4-1.4V76.5c0-0.8-0.6-1.4-1.4-1.4h-22.9c-0.8,0-1.4,0.6-1.4,1.4v22.9
			c0,0.8,0.6,1.4,1.4,1.4H705.2z"/>
		<path fill="#FFFFFF" d="M698.6,100.8v-10h3.3l0.5-3.9h-3.8v-2.5c0-1.1,0.3-1.9,1.9-1.9h2.1V79c-0.4,0-1.6-0.2-3-0.2
			c-3,0-5,1.8-5,5.1V87h-3.4v3.9h3.4v10L698.6,100.8L698.6,100.8z"/>
	</g>
	<g>
		<path fill="#FFFFFF" d="M689.5,113c-3.2,1.1-5.9,3.5-7.4,6.5c-0.5,1-0.9,2.2-1.1,3.3c-0.6,2.8-0.2,5.9,1.1,8.5
			c0.9,1.7,2.1,3.2,3.6,4.4c1.4,1.1,3,1.9,4.8,2.4c2.2,0.6,4.5,0.6,6.7,0.1c2-0.5,3.9-1.4,5.4-2.8c1.6-1.5,2.7-3.4,3.3-5.4
			c0.7-2.2,0.7-4.7,0.3-7c-4.1,0-8.2,0-12.3,0c0,1.7,0,3.4,0,5.1c2.4,0,4.8,0,7.1,0c-0.3,1.6-1.2,3.1-2.6,4c-0.9,0.6-1.9,1-2.9,1.1
			c-1,0.2-2.1,0.2-3.1,0s-2-0.6-2.9-1.3c-1.4-1-2.5-2.4-3-4c-0.6-1.6-0.6-3.5,0-5.1c0.4-1.2,1-2.2,1.9-3.1c1.1-1.1,2.4-1.9,3.9-2.2
			c1.3-0.3,2.6-0.2,3.8,0.2c1.1,0.3,2,0.9,2.8,1.7c0.8-0.8,1.6-1.6,2.4-2.4c0.4-0.4,0.9-0.8,1.3-1.3c-1.2-1.1-2.7-2-4.2-2.6
			C695.5,112,692.3,112,689.5,113z"/>
		<g>
			<path fill="#EA4535" d="M689.5,113c2.8-1,6-1,8.8,0.1c1.6,0.6,3,1.5,4.2,2.6c-0.4,0.4-0.9,0.9-1.3,1.3c-0.8,0.8-1.6,1.6-2.4,2.4
				c-0.8-0.8-1.8-1.3-2.8-1.7c-1.2-0.4-2.6-0.4-3.8-0.2c-1.5,0.3-2.9,1.1-3.9,2.2c-0.9,0.9-1.5,1.9-1.9,3.1
				c-1.4-1.1-2.9-2.2-4.3-3.3C683.6,116.5,686.3,114.1,689.5,113z"/>
		</g>
		<g>
			<path fill="#F9BC15" d="M680.9,122.8c0.2-1.1,0.6-2.3,1.1-3.3c1.4,1.1,2.9,2.2,4.3,3.3c-0.6,1.6-0.6,3.5,0,5.1
				c-1.4,1.1-2.9,2.2-4.3,3.3C680.8,128.7,680.4,125.6,680.9,122.8z"/>
		</g>
		<g>
			<path fill="#557EBF" d="M693.8,122.9c4.1,0,8.2,0,12.3,0c0.4,2.3,0.3,4.7-0.3,7c-0.6,2.1-1.7,4-3.3,5.4c-1.4-1.1-2.8-2.2-4.2-3.2
				c1.4-0.9,2.3-2.4,2.6-4c-2.4,0-4.8,0-7.1,0C693.8,126.3,693.8,124.6,693.8,122.9z"/>
		</g>
		<g>
			<path fill="#36A852" d="M682.1,131.3c1.4-1.1,2.9-2.2,4.3-3.3c0.5,1.6,1.6,3,3,4c0.9,0.6,1.9,1.1,2.9,1.3s2.1,0.2,3.1,0
				s2-0.6,2.9-1.1c1.4,1.1,2.8,2.2,4.2,3.2c-1.5,1.4-3.4,2.3-5.4,2.8c-2.2,0.5-4.5,0.5-6.7-0.1c-1.7-0.5-3.4-1.3-4.8-2.4
				C684.2,134.5,682.9,132.9,682.1,131.3z"/>
		</g>
	</g>
</g>
</svg>
