<?xml version="1.0" encoding="utf-8"?>
<!-- Generator: Adobe Illustrator 19.2.0, SVG Export Plug-In . SVG Version: 6.00 Build 0)  -->
<svg version="1.1" id="Layer_1" xmlns="http://www.w3.org/2000/svg" xmlns:xlink="http://www.w3.org/1999/xlink" x="0px" y="0px"
	 width="260px" height="500px" viewBox="0 0 260 500" style="enable-background:new 0 0 260 500;" xml:space="preserve">
<g id="Layer_2">
</g>
<g>
	<g>
		<path d="M226.3,422L207,402.7c-0.9-0.9-2.3-0.9-3.2,0L184.5,422c-0.9,0.9-0.9,2.3,0,3.2l19.3,19.3c0.9,0.9,2.3,0.9,3.2,0
			l19.3-19.3C227.2,424.3,227.2,422.9,226.3,422z M205.3,407.8l3.2,6.5h-1.6v5.6h-3.2v-5.6h-1.6L205.3,407.8z M190.1,425.2V422h5.6
			v-1.6l6.5,3.2l-6.5,3.2v-1.6H190.1z M205.3,439.4l-3.2-6.5h1.6v-5.6h3.2v5.6h1.6L205.3,439.4z M220.6,425.2H215v1.6l-6.5-3.2
			l6.5-3.2v1.6h5.6V425.2z"/>
	</g>
	<g>
		<path d="M171.3,467.8h-1.8l-0.9-2.5h-3.8l-0.8,2.5h-1.8l3.7-9.8h1.8L171.3,467.8z M168.2,464l-1.4-3.9c0-0.1-0.1-0.3-0.1-0.6l0,0
			c0,0.3-0.1,0.5-0.1,0.6l-1.3,3.9H168.2z"/>
		<path d="M174.3,464.3v3.5h-1.6V458h3c1.1,0,2,0.3,2.6,0.8c0.6,0.5,0.9,1.3,0.9,2.2s-0.3,1.7-1,2.3c-0.6,0.6-1.5,0.9-2.6,0.9h-1.3
			C174.3,464.2,174.3,464.3,174.3,464.3z M174.3,459.4v3.6h1c0.7,0,1.2-0.2,1.6-0.5c0.4-0.3,0.5-0.8,0.5-1.4c0-1.1-0.7-1.7-2-1.7
			H174.3z"/>
		<path d="M182.4,464.3v3.5h-1.6V458h3c1.1,0,2,0.3,2.6,0.8c0.6,0.5,0.9,1.3,0.9,2.2s-0.3,1.7-1,2.3c-0.6,0.6-1.5,0.9-2.6,0.9h-1.3
			C182.4,464.2,182.4,464.3,182.4,464.3z M182.4,459.4v3.6h1c0.7,0,1.2-0.2,1.6-0.5s0.5-0.8,0.5-1.4c0-1.1-0.7-1.7-2-1.7H182.4z"/>
		<path d="M194.3,467.8h-5.4V458h1.6v8.4h3.8C194.3,466.4,194.3,467.8,194.3,467.8z"/>
		<path d="M197.4,467.8h-1.7V458h1.7V467.8z"/>
		<path d="M206.6,467.4c-0.7,0.4-1.6,0.6-2.7,0.6c-1.4,0-2.5-0.4-3.4-1.3c-0.9-0.9-1.3-2.1-1.3-3.5c0-1.6,0.5-2.8,1.4-3.8
			s2.2-1.4,3.6-1.4c0.9,0,1.7,0.1,2.3,0.4v1.6c-0.7-0.4-1.4-0.6-2.2-0.6c-1.1,0-1.9,0.3-2.6,1s-1,1.6-1,2.7s0.3,1.9,0.9,2.6
			c0.6,0.6,1.4,1,2.4,1c0.9,0,1.7-0.2,2.4-0.7v1.4L206.6,467.4L206.6,467.4z"/>
		<path d="M216.5,467.8h-1.8l-0.9-2.5H210l-0.8,2.5h-1.8l3.7-9.8h1.8L216.5,467.8z M213.4,464l-1.4-3.9c0-0.1-0.1-0.3-0.1-0.6l0,0
			c0,0.3-0.1,0.5-0.1,0.6l-1.3,3.9H213.4z"/>
		<path d="M223.1,459.4h-2.8v8.4h-1.6v-8.4h-2.8V458h7.2C223.1,458,223.1,459.4,223.1,459.4z"/>
		<path d="M226.2,467.8h-1.7V458h1.7V467.8z"/>
		<path d="M232.6,468c-1.4,0-2.5-0.5-3.4-1.4c-0.8-0.9-1.3-2.1-1.3-3.6c0-1.6,0.4-2.8,1.3-3.8c0.9-0.9,2-1.4,3.5-1.4
			c1.4,0,2.5,0.5,3.3,1.4s1.3,2.1,1.3,3.6c0,1.6-0.4,2.8-1.3,3.8C235.2,467.5,234,468,232.6,468z M232.7,459.3c-0.9,0-1.6,0.3-2.2,1
			c-0.6,0.7-0.8,1.5-0.8,2.6s0.3,2,0.8,2.6c0.5,0.7,1.3,1,2.1,1c0.9,0,1.7-0.3,2.2-0.9s0.8-1.5,0.8-2.6c0-1.2-0.3-2.1-0.8-2.7
			S233.6,459.3,232.7,459.3z"/>
		<path d="M247.4,467.8h-1.8l-4.7-7.2c-0.1-0.2-0.2-0.4-0.3-0.6l0,0c0,0.2,0.1,0.7,0.1,1.3v6.4h-1.6V458h1.9l4.5,7
			c0.2,0.3,0.3,0.5,0.4,0.6l0,0c0-0.3-0.1-0.7-0.1-1.3V458h1.6V467.8z"/>
		<path d="M182.9,483.8c-1,0.6-2.1,0.8-3.4,0.8c-1.4,0-2.6-0.4-3.5-1.3s-1.3-2.1-1.3-3.6s0.5-2.7,1.5-3.7s2.2-1.5,3.7-1.5
			c1.1,0,2,0.2,2.7,0.5v1.7c-0.7-0.5-1.6-0.7-2.7-0.7c-1,0-1.9,0.3-2.6,1s-1,1.6-1,2.7s0.3,2,0.9,2.6c0.6,0.6,1.3,1,2.3,1
			c0.7,0,1.3-0.1,1.7-0.4v-2.3h-2v-1.4h3.7C182.9,479.2,182.9,483.8,182.9,483.8z"/>
		<path d="M193,484.5h-1.8l-0.9-2.5h-3.8l-0.8,2.5h-1.8l3.7-9.8h1.8L193,484.5z M189.9,480.7l-1.4-3.9c0-0.1-0.1-0.3-0.1-0.6l0,0
			c0,0.3-0.1,0.5-0.1,0.6l-1.3,3.9H189.9z"/>
		<path d="M199.6,476.1h-2.8v8.4h-1.6v-8.4h-2.8v-1.4h7.2V476.1z"/>
		<path d="M206.5,484.5H201v-9.8h5.3v1.4h-3.6v2.8h3.4v1.4h-3.4v2.9h3.9v1.3L206.5,484.5L206.5,484.5z"/>
		<path d="M220.6,474.8l-2.7,9.8h-1.8l-1.9-6.8c-0.1-0.3-0.1-0.6-0.1-1l0,0c0,0.3-0.1,0.6-0.2,0.9l-1.9,6.8h-1.8l-2.7-9.8h1.7
			l1.8,7.1c0.1,0.3,0.1,0.6,0.1,0.9l0,0c0-0.2,0.1-0.5,0.2-0.9l2-7.1h1.7l1.8,7.2c0.1,0.2,0.1,0.5,0.1,0.9l0,0
			c0-0.2,0.1-0.5,0.2-0.9l1.7-7.2h1.8C220.6,474.7,220.6,474.8,220.6,474.8z"/>
		<path d="M229.5,484.5h-1.8l-0.9-2.5H223l-0.8,2.5h-1.8l3.7-9.8h1.8L229.5,484.5z M226.4,480.7l-1.4-3.9c0-0.1-0.1-0.3-0.1-0.6l0,0
			c0,0.3-0.1,0.5-0.1,0.6l-1.3,3.9H226.4z"/>
		<path d="M236.5,474.8l-3.2,6.2v3.5h-1.6V481l-3.1-6.2h1.8l1.9,4.2c0,0,0.1,0.2,0.2,0.6l0,0c0-0.1,0.1-0.3,0.2-0.6l2-4.2H236.5z"/>
	</g>
</g>
<line style="fill:none;stroke:#DEDEDE;stroke-width:4;stroke-linecap:round;stroke-linejoin:round;stroke-miterlimit:10;" x1="13.4" y1="-167" x2="13.4" y2="462.9"/>
<g>
	
		<line style="fill:none;stroke:#DEDEDE;stroke-width:4;stroke-linecap:round;stroke-linejoin:round;stroke-miterlimit:10;" x1="126.6" y1="462.9" x2="136.8" y2="462.9"/>
	
		<circle style="fill:none;stroke:#DEDEDE;stroke-width:4;stroke-linecap:round;stroke-linejoin:round;stroke-miterlimit:10;" cx="143.8" cy="462.9" r="5"/>
</g>
<line style="fill:none;stroke:#DEDEDE;stroke-width:4;stroke-linecap:round;stroke-linejoin:round;stroke-miterlimit:10;" x1="13.4" y1="462.9" x2="109.6" y2="462.9"/>
</svg>
