<svg id="Layer_1" xmlns="http://www.w3.org/2000/svg" width="160.8" height="329" viewBox="0 0 160.8 329"><path fill="none" stroke="#dedede" stroke-width="4" stroke-linecap="round" stroke-linejoin="round" stroke-miterlimit="10" d="M102.4-27.1l1 258.9"/><circle cx="103.4" cy="237.3" r="5" fill="none" stroke="#dedede" stroke-width="4" stroke-linecap="round" stroke-linejoin="round" stroke-miterlimit="10"/><path d="M60.3 292.8c-.3 0-.5-.1-.7-.3s-.3-.4-.3-.6c0-.3.1-.5.3-.7.2-.2.4-.3.7-.3.3 0 .5.1.7.3.2.2.3.4.3.7 0 .2-.1.5-.3.6-.2.2-.4.3-.7.3zM71.5 292.6h-1.8l-4.7-7.2-.3-.6c0 .2.1.7.1 1.3v6.4h-1.6v-9.8h1.9l4.5 7c.2.3.3.5.4.6 0-.3-.1-.7-.1-1.3v-6.3h1.6v9.9zM79.3 292.6h-5.5v-9.8h5.3v1.4h-3.6v2.8h3.4v1.4h-3.4v2.9h3.9v1.3zM87.4 284.3h-2.8v8.4H83v-8.4h-2.8v-1.4h7.2v1.4zM89.2 291l-1.1 3.4H87l.7-3.4h1.5zM101.9 292.2c-.7.4-1.6.6-2.7.6-1.4 0-2.5-.4-3.4-1.3-.9-.9-1.3-2.1-1.3-3.5 0-1.6.5-2.8 1.4-3.8s2.2-1.4 3.6-1.4c.9 0 1.7.1 2.3.4v1.6c-.7-.4-1.4-.6-2.2-.6-1.1 0-1.9.3-2.6 1s-1 1.6-1 2.7.3 1.9.9 2.6c.6.6 1.4 1 2.4 1 .9 0 1.7-.2 2.4-.7v1.4zM110.6 289.2H108v2.7h-1.1v-2.7h-2.7V288h2.7v-2.7h1.1v2.7h2.7v1.2zM120.3 289.2h-2.7v2.7h-1.1v-2.7h-2.7V288h2.7v-2.7h1.1v2.7h2.7v1.2zM124.4 291l-1.1 3.4h-1.2l.7-3.4h1.6zM131.9 289.1v3.5h-1.6v-9.8h3c1.1 0 2 .3 2.6.8s.9 1.3.9 2.2-.3 1.7-1 2.3c-.6.6-1.5.9-2.6.9h-1.3zm0-4.9v3.6h1c.7 0 1.2-.2 1.6-.5.4-.3.5-.8.5-1.4 0-1.1-.7-1.7-2-1.7h-1.1zM146.3 292.6h-1.6v-4.2H140v4.2h-1.6v-9.8h1.6v4.1h4.6v-4.1h1.6v9.8zM150.3 289.1v3.5h-1.6v-9.8h3c1.1 0 2 .3 2.6.8s.9 1.3.9 2.2-.3 1.7-1 2.3c-.6.6-1.5.9-2.6.9h-1.3zm0-4.9v3.6h1c.7 0 1.2-.2 1.6-.5.4-.3.5-.8.5-1.4 0-1.1-.7-1.7-2-1.7h-1.1zM155.8 291l-1.1 3.4h-1.2l.7-3.4h1.6zM67.4 309.3h-1.9l-1.6-2.6c-.1-.2-.3-.4-.4-.6-.1-.2-.3-.3-.4-.4-.1-.1-.3-.2-.5-.2s-.3-.1-.6-.1h-.7v4h-1.6v-9.8H63c.5 0 .9.1 1.3.2s.7.3 1 .5c.3.2.5.5.7.8.2.3.2.7.2 1.2 0 .3-.1.7-.2.9-.1.3-.2.5-.4.8-.2.2-.4.4-.7.6-.3.2-.6.3-.9.4.2.1.3.2.5.3.1.1.3.2.4.4.1.1.2.3.3.4.1.2.2.3.4.6l1.8 2.6zm-6-8.4v3.2h1.3c.2 0 .5 0 .7-.1s.4-.2.5-.3c.2-.1.3-.3.4-.5.1-.2.1-.4.1-.7 0-.5-.1-.8-.4-1.1s-.7-.4-1.3-.4h-1.3zM74.4 309.3h-1.6v-1.1c-.5.8-1.2 1.3-2.1 1.3-1.6 0-2.5-1-2.5-3v-4.2h1.6v4c0 1.3.5 1.9 1.4 1.9.5 0 .9-.2 1.2-.5.3-.3.5-.8.5-1.4v-4h1.6v7zM78.1 308.3v1h-1.6V299H78v4.6c.5-.9 1.3-1.4 2.4-1.4.9 0 1.6.3 2.1.9.5.6.7 1.5.7 2.5 0 1.2-.3 2.1-.8 2.8s-1.3 1.1-2.3 1.1c-.9 0-1.6-.4-2-1.2zm-.1-2.7v.9c0 .5.2.9.5 1.3s.7.5 1.2.5c.6 0 1-.2 1.4-.7.3-.5.5-1.1.5-1.9 0-.7-.2-1.2-.5-1.6s-.7-.6-1.3-.6c-.6 0-1 .2-1.4.6-.2.4-.4.9-.4 1.5zM90.9 302.4l-3.1 8.1c-.7 1.4-1.6 2.2-2.7 2.2-.3 0-.6 0-.8-.1v-1.3c.2.1.5.1.7.1.6 0 1-.3 1.3-.9l.5-1.1-2.8-7h1.7l1.7 5.1c0 .1.1.2.1.5 0-.1.1-.3.1-.5l1.7-5.1h1.6zM92.7 307.7l-1.1 3.4h-1.2l.7-3.4h1.6zM100.2 305.8v3.5h-1.6v-9.8h3c1.1 0 2 .3 2.6.8s.9 1.3.9 2.2-.3 1.7-1 2.3c-.6.6-1.5.9-2.6.9h-1.3zm0-4.9v3.6h1c.7 0 1.2-.2 1.6-.5.4-.3.5-.8.5-1.4 0-1.1-.7-1.7-2-1.7h-1.1zM112.6 302.4l-3.1 8.1c-.7 1.4-1.6 2.2-2.7 2.2-.3 0-.6 0-.8-.1v-1.3c.2.1.5.1.7.1.6 0 1-.3 1.3-.9l.5-1.1-2.8-7h1.7l1.7 5.1c0 .1.1.2.1.5 0-.1.1-.3.1-.5l1.7-5.1h1.6zM117.3 309.3c-.3.2-.7.2-1.2.2-1.4 0-2-.6-2-1.9v-3.9h-1.2v-1.2h1.2v-1.6l1.6-.4v2.1h1.7v1.2h-1.7v3.5c0 .4.1.7.2.9.1.2.4.3.7.3.3 0 .5-.1.7-.2v1zM124.9 309.3h-1.6v-3.8c0-1.4-.5-2.1-1.4-2.1-.5 0-.9.2-1.2.6-.3.4-.5.9-.5 1.5v3.7h-1.6V299h1.6v4.5c.5-.9 1.3-1.3 2.3-1.3 1.5 0 2.3.9 2.3 2.8v4.3zM129.9 309.5c-1.1 0-1.9-.3-2.6-1s-1-1.5-1-2.6c0-1.2.3-2.1 1-2.7s1.6-1 2.7-1 1.9.3 2.5 1c.6.6.9 1.5.9 2.7 0 1.1-.3 2-1 2.7-.6.6-1.4.9-2.5.9zm0-6c-.6 0-1.1.2-1.5.6-.4.4-.5 1-.5 1.8 0 .7.2 1.3.5 1.7.4.4.8.6 1.5.6.6 0 1.1-.2 1.4-.6.3-.4.5-1 .5-1.8s-.2-1.4-.5-1.8c-.3-.3-.7-.5-1.4-.5zM141.3 309.3h-1.6v-3.9c0-1.3-.5-2-1.4-2-.5 0-.9.2-1.2.5-.3.4-.5.8-.5 1.4v4H135v-7h1.6v1.2c.5-.9 1.3-1.3 2.3-1.3.8 0 1.3.2 1.7.7.4.5.6 1.2.6 2.1v4.3zM150.1 309.5c-1.1 0-1.9-.3-2.6-1s-1-1.5-1-2.6c0-1.2.3-2.1 1-2.7s1.6-1 2.7-1 1.9.3 2.5 1c.6.6.9 1.5.9 2.7 0 1.1-.3 2-1 2.7-.5.6-1.4.9-2.5.9zm.1-6c-.6 0-1.1.2-1.5.6-.4.4-.5 1-.5 1.8 0 .7.2 1.3.5 1.7.4.4.8.6 1.5.6.6 0 1.1-.2 1.4-.6.3-.4.5-1 .5-1.8s-.2-1.4-.5-1.8c-.3-.3-.8-.5-1.4-.5zM159.4 303.9c-.2-.1-.5-.2-.8-.2-.5 0-.9.2-1.2.6-.3.4-.5 1-.5 1.7v3.3h-1.6v-7h1.6v1.4c.2-.5.4-.9.7-1.1.3-.3.7-.4 1.1-.4.3 0 .5 0 .7.1v1.6zM63 322.6c0 1.2-.3 2.1-.9 2.7s-1.3 1-2.3 1c-.4 0-.8-.1-1.1-.2v-1.5c.3.2.6.3 1 .3 1.1 0 1.6-.8 1.6-2.5v-6H63v6.2zM70.4 326.1h-1.5V325c-.5.8-1.2 1.3-2.1 1.3-.7 0-1.2-.2-1.6-.6s-.6-.9-.6-1.5c0-1.3.8-2.1 2.3-2.3l2.1-.3c0-1-.5-1.5-1.4-1.5-.8 0-1.6.3-2.2.9v-1.4c.7-.4 1.6-.7 2.5-.7 1.8 0 2.6.9 2.6 2.6v4.6zm-1.6-3.5l-1.5.2c-.5.1-.8.2-1 .3-.2.2-.3.4-.3.8 0 .3.1.5.3.7.2.2.5.3.8.3.5 0 .9-.2 1.2-.5.3-.3.5-.8.5-1.3v-.5zM78.3 319.1l-2.7 7h-1.7l-2.6-7H73l1.5 4.9c.1.4.2.7.2.9 0-.3.1-.6.2-.9l1.6-4.9h1.8zM84.5 326.1H83V325c-.5.8-1.2 1.3-2.1 1.3-.7 0-1.2-.2-1.6-.6s-.6-.9-.6-1.5c0-1.3.8-2.1 2.3-2.3l2.1-.3c0-1-.5-1.5-1.4-1.5-.8 0-1.6.3-2.2.9v-1.4c.7-.4 1.6-.7 2.5-.7 1.8 0 2.6.9 2.6 2.6v4.6zm-1.6-3.5l-1.5.2c-.5.1-.8.2-1 .3-.2.2-.3.4-.3.8 0 .3.1.5.3.7.2.2.5.3.8.3.5 0 .9-.2 1.2-.5.3-.3.5-.8.5-1.3v-.5z"/><g><path d="M71.9 266.3l-2.7 9.8h-1.8l-1.9-6.8c-.1-.3-.1-.6-.1-1 0 .3-.1.6-.2.9l-1.9 6.8h-1.9l-2.7-9.8h1.8l1.8 7.1c.1.3.1.6.1.9 0-.2.1-.5.2-.9l2-7.1h1.7l1.8 7.2c.1.2.1.5.1.9 0-.2.1-.5.2-.9l1.7-7.2h1.8zM78.8 276h-5.5v-9.8h5.3v1.4H75v2.8h3.4v1.4H75v2.9h3.9v1.3zM80.5 276v-9.8h3.1c.9 0 1.7.2 2.2.6.6.4.8.9.8 1.6 0 .6-.2 1-.5 1.4-.3.4-.7.7-1.3.9.7.1 1.2.3 1.6.7.4.4.6 1 .6 1.6 0 .8-.3 1.5-1 2s-1.5.8-2.5.8h-3zm1.6-8.4v2.8h1c.6 0 1-.1 1.3-.4.3-.3.5-.6.5-1.1 0-.8-.6-1.3-1.7-1.3h-1.1zm0 4v3.1h1.4c.6 0 1.1-.1 1.4-.4.3-.3.5-.7.5-1.2 0-1-.7-1.5-2.1-1.5h-1.2zM100.7 276H99l-.9-2.5h-3.8l-.8 2.5h-1.8l3.7-9.8h1.8l3.5 9.8zm-3-3.8l-1.4-3.9c0-.1-.1-.3-.1-.6 0 .3-.1.5-.1.6l-1.3 3.9h2.9zM103.7 272.5v3.5h-1.6v-9.8h3c1.1 0 2 .3 2.6.8s.9 1.3.9 2.2-.3 1.7-1 2.3c-.6.6-1.5.9-2.6.9h-1.3zm0-4.9v3.6h1c.7 0 1.2-.2 1.6-.5.4-.3.5-.8.5-1.4 0-1.1-.7-1.7-2-1.7h-1.1zM111.8 272.5v3.5h-1.6v-9.8h3c1.1 0 2 .3 2.6.8s.9 1.3.9 2.2-.3 1.7-1 2.3c-.6.6-1.5.9-2.6.9h-1.3zm0-4.9v3.6h1c.7 0 1.2-.2 1.6-.5.4-.3.5-.8.5-1.4 0-1.1-.7-1.7-2-1.7h-1.1z"/></g><g><path d="M37 308.8c-3.7 2.8-8.1 4.2-12.4 4.2-6.2 0-12.3-2.8-16.3-8-6.9-9-5.2-21.8 3.8-28.7 3.7-2.8 8.1-4.2 12.4-4.2 6.2 0 12.3 2.8 16.3 8 6.9 9 5.2 21.8-3.8 28.7zm6.3-30.6c-4.6-6.1-11.6-9.2-18.7-9.2-5 0-10 1.6-14.3 4.9-10.3 7.9-12.3 22.7-4.4 33 4.6 6.1 11.6 9.2 18.7 9.2 5 0 10-1.6 14.3-4.9 10.3-7.9 12.3-22.7 4.4-33z"/><path d="M13.9 296.8c-1.4-1.3-2.5-2.6-3.3-3.9-2 4-2.7 8.1-2.8 11.4.2.3.2.5.4.7 1 1.3 2.2 2.4 3.4 3.4-.2-2.6 0-7 2.3-11.6zM21 281.1c-1.8 1.3-3.8 2.9-5.7 4.9-1.1 1.1-2 2.3-2.8 3.4.8 1.3 1.9 2.7 3.2 4.1 1-1.4 2.3-2.9 3.8-4.3 1.9-1.8 3.7-3.2 5.3-4.3l-3.8-3.8zM40.6 279.8c-.9-1.1-1.9-2.1-2.9-3-3.2-.5-8.1-.4-13.7 2.6 1.3 1.4 2.6 2.7 3.8 3.9 7.5-4.1 12.8-3.5 12.8-3.5z"/><path d="M10.6 292.9c.6-1.1 1.3-2.3 2-3.4-3.2-5.1-3.1-9.3-2.7-11.3-.8.8-1.6 1.7-2.2 2.7-.7 2.6-.7 6.9 2.9 12zM19.7 297.1c-1.5-1.2-2.8-2.4-3.9-3.5-.8 1.1-1.4 2.2-1.9 3.2 1 1 2.2 2.1 3.6 3.2 8.4 6.7 16.8 7.3 21.4 7.3.3 0 1.8-2 2.6-3.2-2.1.4-11 1.5-21.8-7z"/><path d="M10.6 292.9c.9 1.3 2 2.6 3.3 3.9.5-1.1 1.2-2.2 1.9-3.2-1.3-1.4-2.4-2.8-3.2-4.1-.8 1.1-1.5 2.3-2 3.4zM24.9 285c7.7 7.1 16.7 13.1 19 14.7l.6-1.8c-2.5-1.8-9-6.9-16.8-14.7-.8.5-1.8 1.1-2.8 1.8zM23.9 279.3c-1.9-2-3.8-4.1-5.7-6.3-.9.3-1.8.7-2.7 1.1 1.4 2.3 3.4 4.7 5.5 7 1-.7 2-1.3 2.9-1.8z"/><path d="M24.1 279.3c-1 .5-2.2 1.3-3.2 2 1.2 1.3 2.5 2.7 3.8 3.9 1-.7 2.3-1.5 3.2-2-1.3-1.2-2.5-2.6-3.8-3.9z"/><path d="M23.7 279.1c-1 .5-1.9 1.2-2.8 1.9 1.2 1.3 3 3 4.3 4.3 1-.7 1.8-1.3 2.7-1.8-1.3-1.3-2.9-3-4.2-4.4zM34.1 290c-1.9 1.5-2.3 4.2-.8 6.2 1.5 1.9 4.3 2.3 6.2.8 1.9-1.5 2.3-4.2.8-6.2-1.5-1.9-4.3-2.3-6.2-.8zM25 301c-1.8 1.4-2.1 3.9-.8 5.7 1.4 1.8 3.9 2.1 5.7.8 1.8-1.4 2.1-3.9.8-5.7-1.4-1.9-3.9-2.2-5.7-.8zM9.6 288c-2.7 2.1-3.2 5.9-1.2 8.7 2.1 2.7 6 3.2 8.7 1.2 2.7-2.1 3.2-5.9 1.2-8.7-2.1-2.8-6-3.3-8.7-1.2z"/></g></svg>