<svg id="Layer_1" xmlns="http://www.w3.org/2000/svg" width="55" height="284" viewBox="0 0 55 284"><g fill="none" stroke="#dfdfde" stroke-width="4" stroke-linecap="round" stroke-linejoin="round" stroke-miterlimit="10"><path d="M40.7-41l1 258.9"/><circle cx="41.7" cy="223.4" r="5"/></g><path d="M40.6 240.5c-8.1-7.3-20.5-6.6-27.8 1.5-2.1 2.3-3.5 5-4.3 7.8v.1c-.2.8-.4 1.7-.5 2.5L1.6 284l30.7-9.8c.8-.2 1.6-.4 2.4-.7l.2-.1c2.7-1.1 5.2-2.8 7.3-5.1 7.2-8.1 6.5-20.5-1.6-27.8z"/><path d="M19.6 258.5h1.2v-1.2h-1.2v1.2zm0-3.6h1.2v-1.1c-.4.2-.8.5-1.2.8v.3zm1.8 7.2h1.2v-1.2h-1.2v1.2zm0 3.6h1.2v-1.2h-1.2v1.2zm0-5.4h1.2v-1.2h-1.2v1.2zm0 3.6h1.2v-1.2h-1.2v1.2zm-1.8-1.8h1.2v-1.2h-1.2v1.2zm0 1.8h1.2v-1.2h-1.2v1.2zm-1.8-3.6H19v-1.2h-1.2v1.2zm0 1.8H19v-1.2h-1.2v1.2zm0-3.6H19v-1.2h-1.2v1.2zm.1-1.8H19v-1.2h-.3c-.3.4-.5.8-.8 1.2zm1.7 8.1c.4.3.8.5 1.2.8v-1.1h-1.2v.3zm0-8.1h1.2v-1.2h-1.2v1.2zm8.9 7.2h.3c.3-.4.5-.8.8-1.2h-1.1v1.2zm-1.8-1.8h1.2v-1.2h-1.2v1.2zm0 3.5c.4-.2.8-.5 1.2-.8v-.3h-1.2v1.1zm0-1.7h1.2v-1.2h-1.2v1.2zm-5.3-5.4h1.2v-1.2h-1.2v1.2zm8-10.7c-3.5 0-6.3 2.8-6.3 6.3v6.3h6.3c3.5 0 6.3-2.8 6.3-6.3s-2.8-6.3-6.3-6.3zm-2.1 8.9h-1.2v-3.6h1.2v3.6zm2.4 0h-1.2v-2.4h1.2v2.4zm2.4 0h-1.2V252h1.2v4.7zm-3.6 5.4h1.2v-1.2h-1.2v1.2zm-7.1-7.2h1.2v-1.2h-1.2v1.2zm3.6 9h1.2v-1.2H25v1.2zm-1.8 0h1.2v-1.2h-1.2v1.2zm0-1.8h1.2v-1.2h-1.2v1.2zm1.8 3.6h1.2v-1.2H25v1.2z" fill="#FFF"/></svg>