<svg id="Layer_1" xmlns="http://www.w3.org/2000/svg" width="56" height="284" viewBox="0 0 56 284"><g fill="#FFF"><path d="M30.7 255.7c.1-.4.2-.9.2-1.3 0-2.9-2.3-5.2-5.1-5.2-2.1 0-3.9 1.3-4.7 3.2-.6-.8-1.6-1.3-2.7-1.3-2 0-3.6 1.7-3.6 3.7 0 .3 0 .7.1 1-1.6.6-2.7 2-2.7 3.9 0 2.4 1.9 4.2 4.2 4.2h13c2.4 0 4.2-1.8 4.2-4.2 0-2-1.2-3.5-2.9-4zm-2.9 1.8c-.4 1.5-1.7 2.6-3.3 2.6-.3 0-.6 0-.8-.1-.3-.1-.6-.2-.8-.3l-2.3 2.4c-.2.2-.4.3-.7.3s-.5-.1-.7-.3c-.2-.2-.3-.4-.3-.7s.1-.5.3-.7l2.3-2.4c-.4-.7-.5-1.6-.3-2.4.4-1.5 1.7-2.6 3.3-2.6.3 0 .6 0 .8.1.9.2 1.6.8 2.1 1.5.5.8.7 1.7.4 2.6z"/><path d="M25.1 254.6h-.5c-.9 0-1.8.6-2 1.6-.1.6 0 1.2.3 1.7.1.2.3.4.6.6.2.1.4.3.7.3h.5c.9 0 1.8-.6 2-1.6.1-.6 0-1.1-.3-1.6s-.8-.8-1.3-1z"/></g><g fill="none" stroke="#dfdfde" stroke-width="4" stroke-linecap="round" stroke-linejoin="round" stroke-miterlimit="10"><path d="M19.2-49l1 258.9"/><circle cx="20.2" cy="215.4" r="5"/></g><path d="M23.9 266.7c.7.3 1.3.6 2 .8L56 279.3l-4.5-33.1c-.5-3.4-1.8-6.7-4-9.5-6.7-8.5-19.1-10-27.6-3.3s-10 19.1-3.3 27.6c1.9 2.5 4.4 4.3 7 5.6l.3.1z"/><g fill="#FFF"><path d="M28.4 255.4h2.7v2.7h-2.7v-2.7zM31.8 253.4h2.7v4.6h-2.7v-4.6zM35.1 251.4h2.7v6.7h-2.7v-6.7zM35.9 239.8v-.3-.3h3.3c.3 0 .5.3.5.5l-3.8.1zm-9.4 0c0-.3.2-.5.5-.5h1.9v.6l-2.4-.1zm.5 22.3c-.3 0-.5-.4-.5-.8v-1.2H31c-.4.2-.5.6-.5 1.1 0 .3.1.9.3.9H27zm7.7 0c.1 0 .3-.5.3-.9 0-.5-.1-.9-.4-1.1l5.2-.1v1.3c0 .3-.3.8-.6.8h-4.5z"/><path d="M31.8 261.5c-.5-.1-.6.1-.6-.3 0-.3.3-.5.6-.5h2.1c.3.1.5.2.5.5s-.1.3-.3.3h-2.3zm-4.8-2.1v-18.8h12.1v18.8H27zm3.8-19.4c-.3 0-.5 0-.5-.3s.2-.3.5-.3h3.9c.3 0 .5 0 .5.3s-.3.3-.5.3h-3.9zm8.4-1.3H26.9c-.6 0-1.2.6-1.2 1.3v21.5c0 .8.5 1.4 1.2 1.4h12.2c.6 0 1.3-.6 1.3-1.4V240c.1-.8-.5-1.3-1.2-1.3z"/><path d="M36.3 242h-6.4c-.8 0-2.1.6-2.1 1.4v5.1c0 .8 1.3 1.4 2.1 1.4h1.2v2l2-2h3.2c.8 0 2.1-.6 2.1-1.4v-5.1c.1-.7-1.3-1.4-2.1-1.4z"/></g></svg>