<svg id="Layer_1" xmlns="http://www.w3.org/2000/svg" width="217" height="475" viewBox="0 0 217 475"><g fill="#FFF" stroke="#000" stroke-width="3" stroke-linecap="round" stroke-linejoin="round"><path d="M196.9 275.1c-5.3 32.8-36.1 55.1-68.9 49.9s-55.2-36.2-49.9-69c1.3-8.4 4.4-16.1 8.7-22.8 7.5-11.7 18.8-20.4 31.9-24.8 8.9-2.9 18.5-3.8 28.4-2.3 32.7 5.3 55 36.2 49.8 69z"/><path d="M186.1 273.3c-4.3 26.9-29.6 45.1-56.4 40.8-26.9-4.3-45.1-29.6-40.8-56.4 1.1-6.9 3.6-13.2 7.1-18.7 6.1-9.6 15.4-16.7 26.1-20.3 7.3-2.4 15.2-3.1 23.2-1.8 26.8 4.3 45.1 29.6 40.8 56.4z"/></g><path d="M128.6 283.2v-.8l2.7-1.5c-.1-.9-.4-1.8-.7-2.6l-3.1.1c-.2-.5-.5-1-.8-1.4l1.6-2.7c-.6-.7-1.2-1.3-1.9-1.9l-1.6.9-.7 1-1.4 2.1c2 1.6 3.3 4.1 3.3 6.8 0 4.8-3.9 8.6-8.6 8.6-4.8 0-8.6-3.9-8.6-8.6 0-4.3 3.1-7.8 7.2-8.5l.7-2.7-1.5-2.7c-.9.1-1.8.4-2.6.7v3.1c-.5.2-1 .5-1.4.8l-2.7-1.6c-.7.6-1.3 1.2-1.9 1.9l1.6 2.7c-.3.4-.5.9-.8 1.4l-3.1-.1c-.3.8-.5 1.7-.7 2.6l2.7 1.5v1.6l-2.7 1.5c.2.9.4 1.8.7 2.6l3.1-.1c.2.5.5 1 .8 1.4l-1.6 2.7c.6.7 1.2 1.3 1.9 1.9l2.7-1.6c.4.3.9.6 1.4.8v3.1c.8.3 1.7.5 2.6.7l1.5-2.7h1.6l1.5 2.7c.9-.1 1.8-.4 2.6-.7v-3.1c.5-.2 1-.5 1.4-.8l2.7 1.6c.7-.6 1.3-1.2 1.9-1.9l-1.6-2.7c.3-.4.6-.9.8-1.4l3.1.1c.3-.8.5-1.7.7-2.6l-2.7-1.5c-.1-.2-.1-.5-.1-.7z"/><path d="M114.6 283.1h2.4c.1 0 .1 0 .2.1s.1.1 0 .2l-2.5 6c-.1.2 0 .2.1.1l7.9-8.9c.1-.1.1-.2-.1-.2h-3.1c-.2 0-.3-.1-.2-.3l2.4-4.4 2.7-4.8.8-1.5a14.2 14.2 0 0 0-6.1-2l-.5 1.6-1.7 5.4-2.6 8.3c0 .3.1.4.3.4zM154.2 288l-5.7-12.1-3.2 6.4-3.3-3.5-1.4 2.8h-2v-1.5h1.1l1.9-3.9 3.3 3.5 3.7-7.2 5.9 12.5 6.8-9.9 2.6 8h.9v1.5h-2l-2-6.1z"/><path d="M165.9 270.9v18.7h-28.4v-18.7h28.4zm1.9-3h-32.2c-.6 0-1.1.5-1.1 1.1v22.4c0 .6.5 1.1 1.1 1.1h32.2c.6 0 1.1-.5 1.1-1.1V269c0-.6-.5-1.1-1.1-1.1zM167.6 247.4h-1.4v-2.5c0-5.4-3.4-8.1-7.4-8.1h-.7c-4.1 0-7.4 2.7-7.4 8.1v2.5h-1.4c-.6 0-1.4.8-1.4 1.4v13.6c0 .6.8 1.4 1.4 1.4h18.2c.6 0 1.4-.8 1.4-1.4v-13.6c0-.6-.8-1.4-1.3-1.4zm-8.1 8.1v5.6h-2v-5.6c-.8-.4-1.4-1.2-1.4-2.1 0-1.3 1.1-2.4 2.4-2.4s2.4 1.1 2.4 2.4c-.1.8-.6 1.6-1.4 2.1zm4.2-8.1h-10.4v-2.5c0-3.4 1.8-5.7 4.8-5.7h.7c3.1 0 4.8 2.3 4.8 5.7l.1 2.5zM130.2 234.8v.7h2.2V233.4h-2.2z"/><path d="M141.9 234.8h-1.4v24.8h-18.3v-24.8h-1.4c-1.2 0-2.2 1-2.2 2.2v24.8c0 1.2 1 2.2 2.2 2.2h21.1c1.2 0 2.2-1 2.2-2.2V237c0-1.2-1-2.2-2.2-2.2z"/><path d="M139 235.6c0-.3-.1-.5-.1-.8-.3-.8-1.1-1.4-2-1.4h-2.6v-.9c0-1.2-1-2.1-2.1-2.1h-1.7c-1.2 0-2.1 1-2.1 2.1v.9h-2.6c-.9 0-1.7.6-2 1.4-.1.2-.1.5-.1.8v2.1H139v-2.1zm-6.6-.8v.7h-2.2v-2.2h2.2v1.5zM129.4 257.4l9.6-12.3c.2-.2.1-.5-.1-.6l-1.6-1.3c-.2-.2-.5-.1-.6.1l-7.2 9.6-3.7-4c-.2-.2-.4-.2-.6-.1l-1.6 1.4c-.2.2-.2.4 0 .6l5.8 6.6z"/><g><path d="M89.8 360.6c-1.4 0-2.5-.5-3.4-1.4-.8-.9-1.3-2.1-1.3-3.6 0-1.6.4-2.8 1.3-3.8s2-1.4 3.5-1.4c1.4 0 2.5.5 3.3 1.4s1.3 2.1 1.3 3.6c0 1.6-.4 2.9-1.3 3.8s-1.9 1.4-3.4 1.4zm.1-8.7c-.9 0-1.6.3-2.2 1s-.8 1.6-.8 2.6c0 1.1.3 2 .8 2.6s1.3 1 2.1 1c.9 0 1.7-.3 2.2-1s.8-1.5.8-2.7-.3-2.1-.8-2.7c-.4-.5-1.2-.8-2.1-.8zM106.9 360.4h-1.6v-6.3c0-.5 0-1.2.1-1.9-.1.4-.2.7-.3.9l-2.9 7.3H101l-2.9-7.3c-.1-.2-.2-.5-.3-1 0 .4.1 1 .1 1.9v6.3h-1.5v-9.8h2.3l2.6 6.5c.2.5.3.9.4 1.1.2-.5.3-.9.4-1.1l2.6-6.5h2.2v9.9zM108.9 360v-1.7c.2.1.3.3.5.4s.4.2.7.3c.2.1.5.1.7.2s.4.1.6.1c.7 0 1.2-.1 1.5-.3.3-.2.5-.6.5-1 0-.2-.1-.4-.2-.6s-.3-.3-.5-.5-.4-.3-.7-.4-.6-.3-.9-.4c-.3-.2-.6-.4-.9-.5s-.5-.4-.7-.6-.4-.5-.5-.7c-.1-.3-.2-.6-.2-1 0-.5.1-.9.3-1.2.2-.3.5-.6.8-.8.3-.2.7-.4 1.2-.5.4-.1.9-.2 1.3-.2 1 0 1.8.1 2.2.3v1.6c-.6-.4-1.3-.6-2.1-.6-.2 0-.5 0-.7.1-.2 0-.5.1-.6.2-.2.1-.3.2-.5.4s-.2.4-.2.6 0 .4.1.6.2.3.4.4c.2.1.4.3.6.4.3.1.5.3.9.4.3.2.7.4 1 .6s.6.4.8.6.4.5.5.8.2.6.2 1c0 .5-.1.9-.3 1.3s-.5.6-.8.8c-.3.2-.7.4-1.2.5s-.9.1-1.4.1h-.6c-.2 0-.5-.1-.7-.1-.3 0-.5-.1-.7-.2s-.3-.3-.4-.4zM126.1 352h-3.7v2.9h3.4v1.4h-3.4v4.1h-1.6v-9.8h5.3v1.4zM131.9 360.6c-1.4 0-2.5-.5-3.4-1.4-.8-.9-1.3-2.1-1.3-3.6 0-1.6.4-2.8 1.3-3.8s2-1.4 3.5-1.4c1.4 0 2.5.5 3.3 1.4s1.3 2.1 1.3 3.6c0 1.6-.4 2.9-1.3 3.8s-2 1.4-3.4 1.4zm0-8.7c-.9 0-1.6.3-2.2 1-.6.7-.8 1.6-.8 2.6 0 1.1.3 2 .8 2.6s1.3 1 2.1 1c.9 0 1.7-.3 2.2-1s.8-1.5.8-2.7-.3-2.1-.8-2.7c-.4-.5-1.1-.8-2.1-.8zM146 360.4h-1.9l-1.6-2.6c-.1-.2-.3-.4-.4-.6-.1-.2-.3-.3-.4-.4s-.3-.2-.5-.2-.3-.1-.6-.1h-.6v4h-1.6v-9.8h3.2c.5 0 .9.1 1.3.2s.7.3 1 .5.5.5.7.8.2.7.2 1.2c0 .3-.1.7-.2 1-.1.3-.3.5-.4.8-.2.2-.4.4-.7.6s-.6.3-.9.4c.2.1.3.2.5.3.1.1.3.2.4.4.1.1.2.3.4.4.1.2.2.3.4.6l1.7 2.5zm-6-8.4v3.2h1.4c.3 0 .5 0 .7-.1l.6-.3c.2-.1.3-.3.4-.5.1-.2.1-.4.1-.7 0-.5-.1-.8-.4-1.1-.3-.3-.7-.4-1.3-.4H140v-.1zM156.4 360.4H151v-9.8h1.6v8.4h3.8v1.4zM159.5 360.4h-1.7v-9.8h1.7v9.8zM170.2 360.4h-1.8l-4.7-7.2-.3-.6c0 .2.1.7.1 1.3v6.4h-1.6v-9.8h1.9l4.5 7c.2.3.3.5.4.6 0-.3-.1-.7-.1-1.3v-6.3h1.6v9.9zM180.2 356.5c0 2.8-1.3 4.1-3.9 4.1-2.5 0-3.7-1.3-3.7-4v-6h1.6v5.7c0 1.9.7 2.9 2.2 2.9 1.4 0 2.2-.9 2.2-2.8v-5.8h1.6v5.9zM189.8 360.4h-1.9l-2-3.6c-.1-.1-.1-.3-.2-.5 0 .1-.1.3-.2.5l-2.1 3.6h-2l3.2-4.9-3-4.9h2l1.8 3.3c.1.2.2.4.3.7.1-.3.2-.5.3-.7l1.8-3.3h1.8l-3 4.9 3.2 4.9z"/></g><g><path fill="none" stroke="#dfdfde" stroke-width="4" stroke-linecap="round" stroke-linejoin="round" stroke-miterlimit="10" d="M14.6 1v266.4"/></g><g fill="none" stroke="#dfdfde" stroke-width="4" stroke-linecap="round" stroke-linejoin="round" stroke-miterlimit="10"><path d="M14.6 267.4h38.3"/><circle cx="58.4" cy="267.4" r="5"/></g></svg>