<svg id="Layer_1" xmlns="http://www.w3.org/2000/svg" width="55" height="325" viewBox="0 0 55 325"><path d="M53.1 296.1c-4.5-9.9-16.2-14.2-26.1-9.7-3.1 1.4-5.7 3.6-7.6 6.2l-.1.2c-.1.2-.2.3-.3.5L.1 320.5l33 3.4h.5l.8.1c3 .1 6.1-.4 9.1-1.8 9.8-4.5 14.1-16.2 9.6-26.1z"/><g fill="#FFF"><path d="M26.1 302.8h20l-5.2-4.8v2.4H26.5v-1.9c0-.9.4-1.7 1.4-1.7h14.8c.9 0 1.8.8 1.8 1.7v.9l1.8 1.5v-2.4c0-1.9-1.7-3.5-3.6-3.5H27.9c-1.9 0-3.2 1.6-3.2 3.5v4.3h1.4zM44.2 304H24.3l5.1 4.7v-2.9h15v2.4c0 .9-.9 1.8-1.8 1.8H27.8c-.9 0-1.4-.9-1.4-1.8v-.9l-1.8-1.5v2.4c0 1.9 1.3 3 3.2 3h3.3l7.3 5.2-.6-5.2h4.8c1.9 0 3.6-1.1 3.6-3V304h-2z"/></g><g fill="none" stroke="#dfdfde" stroke-width="4" stroke-linecap="round" stroke-linejoin="round" stroke-miterlimit="10"><path d="M46.7 0l1 258.9"/><circle cx="47.7" cy="264.4" r="5"/></g></svg>