<svg id="Layer_1" xmlns="http://www.w3.org/2000/svg" width="129.2" height="329.2" viewBox="0 0 129.2 329.2"><path fill="none" stroke="#dedede" stroke-width="4" stroke-linecap="round" stroke-linejoin="round" stroke-miterlimit="10" d="M64.5-47l1 258.9"/><circle cx="65.5" cy="217.4" r="5" fill="none" stroke="#dedede" stroke-width="4" stroke-linecap="round" stroke-linejoin="round" stroke-miterlimit="10"/><path d="M87.1 262l-19.3-19.3c-.9-.9-2.3-.9-3.2 0L45.3 262c-.9.9-.9 2.3 0 3.2l19.3 19.3c.9.9 2.3.9 3.2 0l19.3-19.3c.9-.9.9-2.3 0-3.2zm-21-14.2l3.2 6.5h-1.6v5.6h-3.2v-5.6h-1.6l3.2-6.5zm-15.2 17.4V262h5.6v-1.6l6.5 3.2-6.5 3.2v-1.6h-5.6zm15.2 14.2l-3.2-6.5h1.6v-5.6h3.2v5.6h1.6l-3.2 6.5zm15.3-14.2h-5.6v1.6l-6.5-3.2 6.5-3.2v1.6h5.6v3.2zM32.1 307.8h-1.8l-.9-2.5h-3.8l-.8 2.5H23l3.7-9.8h1.8l3.6 9.8zM29 304l-1.4-3.9c0-.1-.1-.3-.1-.6 0 .3-.1.5-.1.6l-1.3 3.9H29zM35.1 304.3v3.5h-1.6V298h3c1.1 0 2 .3 2.6.8s.9 1.3.9 2.2-.3 1.7-1 2.3c-.6.6-1.5.9-2.6.9h-1.3v.1zm0-4.9v3.6h1c.7 0 1.2-.2 1.6-.5.4-.3.5-.8.5-1.4 0-1.1-.7-1.7-2-1.7h-1.1zM43.2 304.3v3.5h-1.6V298h3c1.1 0 2 .3 2.6.8s.9 1.3.9 2.2-.3 1.7-1 2.3c-.6.6-1.5.9-2.6.9h-1.3v.1zm0-4.9v3.6h1c.7 0 1.2-.2 1.6-.5.4-.3.5-.8.5-1.4 0-1.1-.7-1.7-2-1.7h-1.1zM55.1 307.8h-5.4V298h1.6v8.4h3.8v1.4zM58.2 307.8h-1.7V298h1.7v9.8zM67.4 307.4c-.7.4-1.6.6-2.7.6-1.4 0-2.5-.4-3.4-1.3s-1.3-2.1-1.3-3.5c0-1.6.5-2.8 1.4-3.8s2.2-1.4 3.6-1.4c.9 0 1.7.1 2.3.4v1.6c-.7-.4-1.4-.6-2.2-.6-1.1 0-1.9.3-2.6 1s-1 1.6-1 2.7.3 1.9.9 2.6c.6.6 1.4 1 2.4 1 .9 0 1.7-.2 2.4-.7v1.4h.2zM77.3 307.8h-1.8l-.9-2.5h-3.8l-.8 2.5h-1.8l3.7-9.8h1.8l3.6 9.8zm-3.1-3.8l-1.4-3.9c0-.1-.1-.3-.1-.6 0 .3-.1.5-.1.6l-1.3 3.9h2.9zM83.9 299.4h-2.8v8.4h-1.6v-8.4h-2.8V298h7.2v1.4zM87 307.8h-1.7V298H87v9.8zM93.4 308c-1.4 0-2.5-.5-3.4-1.4-.8-.9-1.3-2.1-1.3-3.6 0-1.6.4-2.8 1.3-3.8.9-.9 2-1.4 3.5-1.4 1.4 0 2.5.5 3.3 1.4s1.3 2.1 1.3 3.6c0 1.6-.4 2.8-1.3 3.8-.8.9-2 1.4-3.4 1.4zm.1-8.7c-.9 0-1.6.3-2.2 1s-.8 1.5-.8 2.6.3 2 .8 2.6c.5.7 1.3 1 2.1 1 .9 0 1.7-.3 2.2-.9s.8-1.5.8-2.6c0-1.2-.3-2.1-.8-2.7s-1.2-1-2.1-1zM108.2 307.8h-1.8l-4.7-7.2-.3-.6c0 .2.1.7.1 1.3v6.4h-1.6V298h1.9l4.5 7c.2.3.3.5.4.6 0-.3-.1-.7-.1-1.3V298h1.6v9.8zM43.7 323.8c-1 .6-2.1.8-3.4.8-1.4 0-2.6-.4-3.5-1.3s-1.3-2.1-1.3-3.6.5-2.7 1.5-3.7 2.2-1.5 3.7-1.5c1.1 0 2 .2 2.7.5v1.7c-.7-.5-1.6-.7-2.7-.7-1 0-1.9.3-2.6 1s-1 1.6-1 2.7.3 2 .9 2.6 1.3 1 2.3 1c.7 0 1.3-.1 1.7-.4v-2.3h-2v-1.4h3.7v4.6zM53.8 324.5H52l-.9-2.5h-3.8l-.8 2.5h-1.8l3.7-9.8h1.8l3.6 9.8zm-3.1-3.8l-1.4-3.9c0-.1-.1-.3-.1-.6 0 .3-.1.5-.1.6l-1.3 3.9h2.9zM60.4 316.1h-2.8v8.4H56v-8.4h-2.8v-1.4h7.2v1.4zM67.3 324.5h-5.5v-9.8h5.3v1.4h-3.6v2.8h3.4v1.4h-3.4v2.9h3.9v1.3h-.1zM81.4 314.8l-2.7 9.8h-1.8l-1.9-6.8c-.1-.3-.1-.6-.1-1 0 .3-.1.6-.2.9l-1.9 6.8H71l-2.7-9.8H70l1.8 7.1c.1.3.1.6.1.9 0-.2.1-.5.2-.9l2-7.1h1.7l1.8 7.2c.1.2.1.5.1.9 0-.2.1-.5.2-.9l1.7-7.2h1.8v.1zM90.3 324.5h-1.8l-.9-2.5h-3.8l-.8 2.5h-1.8l3.7-9.8h1.8l3.6 9.8zm-3.1-3.8l-1.4-3.9c0-.1-.1-.3-.1-.6 0 .3-.1.5-.1.6l-1.3 3.9h2.9zM97.3 314.8l-3.2 6.2v3.5h-1.6V321l-3.1-6.2h1.8l1.9 4.2s.1.2.2.6c0-.1.1-.3.2-.6l2-4.2h1.8z"/></svg>