<svg id="Layer_1" xmlns="http://www.w3.org/2000/svg" width="230" height="250" viewBox="0 0 230 250"><g fill="none" stroke="#dfdfde" stroke-width="4" stroke-linecap="round" stroke-linejoin="round" stroke-miterlimit="10"><path d="M113.9-90l1 258.9"/><circle cx="114.9" cy="174.4" r="5"/></g><path d="M6.8 240.5c-1.4 0-2.5-.5-3.4-1.4s-1.3-2.1-1.3-3.6c0-1.6.4-2.8 1.3-3.8s2-1.4 3.5-1.4c1.4 0 2.5.5 3.3 1.4s1.3 2.1 1.3 3.6c0 1.6-.4 2.9-1.3 3.8s-1.9 1.4-3.4 1.4zm.1-8.7c-.9 0-1.6.3-2.2 1s-.8 1.6-.8 2.6c0 1.1.3 2 .8 2.6s1.3 1 2.1 1c.9 0 1.7-.3 2.2-1s.8-1.5.8-2.7c0-1.2-.3-2.1-.8-2.7s-1.2-.8-2.1-.8zM15 236.8v3.6h-1.6v-9.8h3c1.1 0 2 .3 2.6.8s.9 1.3.9 2.2-.3 1.7-1 2.3-1.5.9-2.6.9H15zm0-4.9v3.6h1c.7 0 1.2-.2 1.6-.5s.5-.8.5-1.4c0-1.2-.7-1.7-2-1.7H15zM27 240.3h-5.5v-9.8h5.3v1.4h-3.7v2.8h3.4v1.4h-3.4v2.9H27v1.3zM36.4 240.3h-1.9l-1.6-2.6c-.1-.2-.3-.4-.4-.6-.1-.2-.3-.3-.4-.4s-.3-.2-.5-.2-.3-.1-.6-.1h-.7v4h-1.6v-9.8H32c.5 0 .9.1 1.3.2s.7.3 1 .5c.3.2.5.5.7.8.2.3.2.7.2 1.2 0 .3-.1.7-.2 1-.1.3-.2.5-.4.8-.2.2-.4.4-.7.6s-.6.3-.9.4c.2.1.3.2.5.3.1.1.3.2.4.4s.2.3.4.4c.1.2.2.3.4.6l1.7 2.5zm-6-8.5v3.2h1.4c.3 0 .5 0 .7-.1l.6-.3c.2-.1.3-.3.4-.5s.1-.4.1-.7c0-.5-.1-.8-.4-1.1s-.7-.4-1.3-.4h-1.5zM45.5 240.3h-1.8l-.9-2.5H39l-.8 2.5h-1.8l3.7-9.8h1.8l3.6 9.8zm-3-3.8l-1.4-3.9c0-.1-.1-.3-.1-.6 0 .3-.1.5-.1.6l-1.3 3.9h2.9zM52.2 231.9h-2.8v8.4h-1.6v-8.4H45v-1.4h7.3v1.4zM55.3 240.3h-1.7v-9.8h1.7v9.8zM61.8 240.5c-1.4 0-2.5-.5-3.4-1.4s-1.3-2.1-1.3-3.6c0-1.6.4-2.8 1.3-3.8s2-1.4 3.5-1.4c1.4 0 2.5.5 3.3 1.4s1.3 2.1 1.3 3.6c0 1.6-.4 2.9-1.3 3.8s-2 1.4-3.4 1.4zm0-8.7c-.9 0-1.6.3-2.2 1s-.8 1.6-.8 2.6c0 1.1.3 2 .8 2.6s1.3 1 2.1 1c.9 0 1.7-.3 2.2-1s.8-1.5.8-2.7c0-1.2-.3-2.1-.8-2.7s-1.1-.8-2.1-.8zM76.6 240.3h-1.8l-4.7-7.2-.3-.6c0 .2.1.7.1 1.3v6.4h-1.6v-9.8h1.9l4.5 7c.2.3.3.5.4.6 0-.3-.1-.7-.1-1.3v-6.3h1.6v9.9zM87.1 240.3h-1.8l-.9-2.5h-3.9l-.8 2.5h-1.8l3.7-9.8h1.8l3.7 9.8zm-3.1-3.8l-1.4-3.9c0-.1-.1-.3-.1-.6 0 .3-.1.5-.1.6l-1.3 3.9H84zM93.9 240.3h-5.4v-9.8h1.6v8.4h3.8v1.4zM109.6 240.3H108V234c0-.5 0-1.2.1-1.9-.1.4-.2.7-.3.9l-2.9 7.3h-1.1l-2.9-7.3c-.1-.2-.2-.5-.3-1 0 .4.1 1 .1 1.9v6.3h-1.5v-9.8h2.3l2.6 6.5c.2.5.3.9.4 1.1.2-.5.3-.9.4-1.1l2.6-6.5h2.2v9.9zM120.1 240.3h-1.8l-.9-2.5h-3.9l-.8 2.5H111l3.7-9.8h1.8l3.6 9.8zm-3.1-3.8l-1.4-3.9c0-.1-.1-.3-.1-.6 0 .3-.1.5-.1.6l-1.3 3.9h2.9zM129.8 240.3H128l-4.7-7.2-.3-.6c0 .2.1.7.1 1.3v6.4h-1.6v-9.8h1.9l4.5 7c.2.3.3.5.4.6 0-.3-.1-.7-.1-1.3v-6.3h1.6v9.9zM140.3 240.3h-1.8l-.9-2.5h-3.9l-.8 2.5h-1.8l3.7-9.8h1.8l3.7 9.8zm-3.1-3.8l-1.4-3.9c0-.1-.1-.3-.1-.6 0 .3-.1.5-.1.6l-1.3 3.9h2.9zM149.1 239.6c-1 .6-2.2.8-3.4.8-1.4 0-2.6-.5-3.5-1.4s-1.3-2.1-1.3-3.6.5-2.8 1.5-3.7c1-1 2.2-1.5 3.7-1.5 1.1 0 2 .2 2.7.5v1.7c-.8-.5-1.6-.8-2.7-.8-1 0-1.9.3-2.6 1-.7.7-1 1.6-1 2.7s.3 2 .9 2.7c.6.6 1.4 1 2.3 1 .7 0 1.3-.1 1.8-.4v-2.3h-2.1V235h3.7v4.6zM156.7 240.3h-5.5v-9.8h5.3v1.4h-3.7v2.8h3.4v1.4h-3.4v2.9h3.9v1.3zM169 240.3h-1.6V234c0-.5 0-1.2.1-1.9-.1.4-.2.7-.3.9l-2.9 7.3h-1.1l-2.9-7.3c-.1-.2-.2-.5-.3-1 0 .4.1 1 .1 1.9v6.3h-1.5v-9.8h2.3l2.6 6.5c.2.5.3.9.4 1.1.2-.5.3-.9.4-1.1l2.6-6.5h2.2v9.9zM176.9 240.3h-5.5v-9.8h5.3v1.4H173v2.8h3.4v1.4H173v2.9h3.9v1.3zM186.9 240.3h-1.8l-4.7-7.2-.3-.6c0 .2.1.7.1 1.3v6.4h-1.6v-9.8h1.9l4.5 7c.2.3.3.5.4.6 0-.3-.1-.7-.1-1.3v-6.3h1.6v9.9zM195.7 231.9h-2.8v8.4h-1.6v-8.4h-2.8v-1.4h7.3v1.4zM207.2 231.9h-2.8v8.4h-1.6v-8.4H200v-1.4h7.3v1.4zM210.3 240.3h-1.7v-9.8h1.7v9.8zM218.3 240.3h-5.5v-9.8h5.3v1.4h-3.7v2.8h3.4v1.4h-3.4v2.9h3.9v1.3zM227.6 240.3h-1.9l-1.6-2.6c-.1-.2-.3-.4-.4-.6-.1-.2-.3-.3-.4-.4-.1-.1-.3-.2-.5-.2s-.3-.1-.6-.1h-.7v4H220v-9.8h3.2c.5 0 .9.1 1.3.2s.7.3 1 .5c.3.2.5.5.7.8.2.3.2.7.2 1.2 0 .3-.1.7-.2 1-.1.3-.2.5-.4.8-.2.2-.4.4-.7.6-.3.2-.6.3-.9.4.2.1.3.2.5.3.1.1.3.2.4.4s.2.3.4.4c.1.2.2.3.4.6l1.7 2.5zm-6-8.5v3.2h1.4c.3 0 .5 0 .7-.1l.6-.3c.2-.1.3-.3.4-.5s.1-.4.1-.7c0-.5-.1-.8-.4-1.1s-.7-.4-1.3-.4h-1.5z"/><circle cx="114.9" cy="210.6" r="11"/><g><path d="M111.8 213c0-.3 0-.5.1-.8s.2-.5.3-.7c.1-.2.3-.4.5-.6.2-.2.4-.3.7-.4-.4-.2-.7-.5-.9-.8-.2-.3-.3-.7-.3-1.1 0-.3.1-.6.2-.9s.3-.5.6-.7.5-.4.9-.5.7-.2 1.1-.2c.4 0 .8.1 1.1.2s.6.3.9.5c.2.2.4.5.6.7.1.3.2.6.2.9 0 .4-.1.8-.3 1.1s-.5.6-.9.8c.3.1.5.2.7.4s.4.3.5.6c.1.2.2.4.3.7.1.2.1.5.1.8 0 .4-.1.8-.2 1.1s-.4.6-.6.8c-.3.2-.6.4-1 .5-.4.1-.8.2-1.2.2-.4 0-.9-.1-1.2-.2s-.7-.3-1-.5c-.3-.2-.5-.5-.6-.8s-.6-.7-.6-1.1zm1.5-.1c0 .3 0 .5.1.7s.2.4.3.5c.1.1.3.3.5.3.2.1.4.1.7.1.2 0 .4 0 .6-.1s.4-.2.5-.3c.1-.1.3-.3.3-.5s.1-.4.1-.7c0-.2 0-.5-.1-.7s-.2-.4-.3-.5-.3-.3-.5-.4c-.2-.1-.4-.1-.7-.1-.2 0-.4 0-.6.1-.2.1-.4.2-.5.3s-.3.3-.3.5c-.1.3-.1.5-.1.8zm.3-4.1c0 .2 0 .4.1.5s.2.3.3.4c.1.1.2.2.4.3.2.1.3.1.5.1s.3 0 .5-.1.3-.2.4-.3c.1-.1.2-.3.3-.4.1-.2.1-.3.1-.5s0-.4-.1-.5-.2-.3-.3-.4c-.1-.1-.3-.2-.4-.3-.2-.1-.3-.1-.5-.1s-.4 0-.5.1c-.2.1-.3.2-.4.3-.1.1-.2.3-.3.4s-.1.3-.1.5z" fill="#FFF"/></g></svg>