<?xml version="1.0" encoding="utf-8"?>
<!-- Generator: Adobe Illustrator 19.2.0, SVG Export Plug-In . SVG Version: 6.00 Build 0)  -->
<svg version="1.1" id="Layer_1" xmlns="http://www.w3.org/2000/svg" xmlns:xlink="http://www.w3.org/1999/xlink" x="0px" y="0px"
	 width="129.2px" height="640px" viewBox="0 0 129.2 640" style="enable-background:new 0 0 129.2 640;" xml:space="preserve">
<g id="Layer_2">
</g>
<g>
	<g>
		<path d="M285.8,615.8v-9.9h2.8c3.6,0,5.4,1.6,5.4,4.8c0,1.5-0.5,2.7-1.5,3.6s-2.3,1.4-4,1.4L285.8,615.8L285.8,615.8L285.8,615.8z
			 M287.4,607.4v7h1.3c1.1,0,2-0.3,2.7-0.9c0.6-0.6,0.9-1.5,0.9-2.7c0-2.3-1.2-3.4-3.5-3.4H287.4L287.4,607.4z"/>
		<path d="M304.1,615.8h-1.8l-4.7-7.2c-0.1-0.2-0.2-0.4-0.3-0.6l0,0c0,0.2,0.1,0.7,0.1,1.3v6.4h-1.6v-9.8h1.9l4.5,7
			c0.2,0.3,0.3,0.5,0.4,0.6l0,0c0-0.3-0.1-0.7-0.1-1.3v-6.3h1.6V615.8z"/>
		<path d="M306.1,615.4v-1.7c0.1,0.1,0.3,0.3,0.5,0.4c0.2,0.1,0.4,0.2,0.7,0.3c0.2,0.1,0.5,0.1,0.7,0.2c0.2,0,0.4,0.1,0.6,0.1
			c0.7,0,1.2-0.1,1.5-0.3c0.3-0.2,0.5-0.6,0.5-1c0-0.2-0.1-0.4-0.2-0.6c-0.1-0.2-0.3-0.3-0.5-0.5c-0.2-0.2-0.4-0.3-0.7-0.4
			c-0.3-0.1-0.6-0.3-0.9-0.4c-0.3-0.2-0.6-0.4-0.9-0.5c-0.3-0.2-0.5-0.4-0.7-0.6c-0.2-0.2-0.4-0.5-0.5-0.7c-0.1-0.2-0.2-0.6-0.2-1
			c0-0.5,0.1-0.9,0.3-1.2c0.2-0.3,0.5-0.6,0.8-0.8c0.3-0.2,0.7-0.4,1.2-0.5c0.5-0.1,0.9-0.2,1.3-0.2c1,0,1.8,0.1,2.2,0.3v1.6
			c-0.6-0.4-1.3-0.6-2.1-0.6c-0.2,0-0.5,0-0.7,0.1c-0.2,0-0.5,0.1-0.6,0.2s-0.3,0.2-0.5,0.4c-0.2,0.2-0.2,0.4-0.2,0.6s0,0.4,0.1,0.6
			c0.1,0.2,0.2,0.3,0.4,0.4c0.2,0.1,0.4,0.3,0.6,0.4c0.3,0.1,0.5,0.3,0.9,0.4c0.3,0.2,0.7,0.4,1,0.6c0.3,0.2,0.6,0.4,0.8,0.6
			c0.2,0.2,0.4,0.5,0.5,0.8s0.2,0.6,0.2,1c0,0.5-0.1,0.9-0.3,1.3c-0.2,0.3-0.5,0.6-0.8,0.8c-0.3,0.2-0.7,0.4-1.2,0.5
			c-0.4,0.1-0.9,0.1-1.4,0.1c-0.2,0-0.4,0-0.6,0c-0.2,0-0.5-0.1-0.7-0.1c-0.2,0-0.5-0.1-0.7-0.2
			C306.4,615.5,306.2,615.4,306.1,615.4z"/>
	</g>
	<g>
		<path d="M302,578.5c-1.3,0-2.5,0.8-3,2h-19.1c-3.2,0-5.9-2.6-5.9-5.9c0-3.2,2.6-5.9,5.9-5.9h2.7c0.1-0.7,0.3-1.3,0.6-1.9
			c0.1-0.2,0.2-0.4,0.4-0.7c1.3-2.3,3.8-3.9,6.8-3.9c2.6,0,4.8,1.3,6.3,3.2c0.8-0.4,1.7-0.7,2.6-0.9c-1.8-3-5.1-4.9-8.8-4.9
			c-4.3,0-8.1,2.7-9.6,6.5l0,0l0,0h-0.8c-4.7,0-8.5,3.8-8.5,8.5s3.8,8.5,8.5,8.5h19.1c0.5,1.2,1.7,2,3,2c1.8,0,3.3-1.4,3.3-3.3
			S303.8,578.5,302,578.5L302,578.5z"/>
		<path d="M312.5,572c-1.9-3.8-5.9-6.5-10.5-6.5c-5.6,0-10.3,3.9-11.4,9.1c-2.7,0.3-5.1,1.7-6.6,3.8h13.9c0.9-1.2,2.4-2,4.1-2
			c2.9,0,5.2,2.3,5.2,5.2s-2.3,5.2-5.2,5.2c-1.7,0-3.1-0.8-4.1-2h-15.5c0.6,4.4,4.4,7.8,9,7.8l0,0h20.9l0,0
			c5.7,0,10.4-4.7,10.4-10.4C322.8,576.6,318.2,572,312.5,572L312.5,572z"/>
	</g>
</g>
<g>
	
		<line style="fill:none;stroke:#DEDEDE;stroke-width:4;stroke-linecap:round;stroke-linejoin:round;stroke-miterlimit:10;" x1="122" y1="609.9" x2="122" y2="-33.5"/>
	<g>
		
			<line style="fill:none;stroke:#DEDEDE;stroke-width:4;stroke-linecap:round;stroke-linejoin:round;stroke-miterlimit:10;" x1="98.6" y1="609.9" x2="122" y2="609.9"/>
		
			<circle style="fill:none;stroke:#DEDEDE;stroke-width:4;stroke-linecap:round;stroke-linejoin:round;stroke-miterlimit:10;" cx="91.6" cy="609.9" r="5"/>
	</g>
</g>
<g>
	<g>
		<path d="M15.4,607.1h-2.8v8.4H11v-8.4H8.2v-1.4h7.2L15.4,607.1L15.4,607.1z"/>
		<path d="M24.4,615.5h-1.9l-1.6-2.6c-0.1-0.2-0.3-0.4-0.4-0.6c-0.1-0.2-0.3-0.3-0.4-0.4c-0.1-0.1-0.3-0.2-0.5-0.2s-0.3-0.1-0.6-0.1
			h-0.7v4h-1.6v-9.8h3.2c0.5,0,0.9,0.1,1.3,0.2c0.4,0.1,0.7,0.3,1,0.5s0.5,0.5,0.7,0.8s0.2,0.7,0.2,1.2c0,0.3-0.1,0.7-0.2,0.9
			c-0.1,0.3-0.2,0.5-0.4,0.8c-0.2,0.2-0.4,0.4-0.7,0.6s-0.6,0.3-0.9,0.4l0,0c0.2,0.1,0.3,0.2,0.5,0.3c0.1,0.1,0.3,0.2,0.4,0.4
			c0.1,0.1,0.2,0.3,0.3,0.4c0.1,0.2,0.2,0.3,0.4,0.6L24.4,615.5z M18.4,607v3.2h1.3c0.2,0,0.5,0,0.7-0.1c0.2-0.1,0.4-0.2,0.5-0.3
			c0.2-0.1,0.3-0.3,0.4-0.5c0.1-0.2,0.1-0.4,0.1-0.7c0-0.5-0.1-0.8-0.4-1.1s-0.7-0.4-1.3-0.4L18.4,607L18.4,607z"/>
		<path d="M33.5,615.5h-1.8l-0.9-2.5H27l-0.8,2.5h-1.8l3.7-9.8h1.8L33.5,615.5z M30.4,611.7l-1.4-3.9c0-0.1-0.1-0.3-0.1-0.6l0,0
			c0,0.3-0.1,0.5-0.1,0.6l-1.3,3.9H30.4z"/>
		<path d="M40.1,607.1h-3.6v2.9h3.4v1.4h-3.4v4.1h-1.6v-9.8h5.3L40.1,607.1L40.1,607.1z"/>
		<path d="M47.1,607.1h-3.6v2.9h3.4v1.4h-3.4v4.1h-1.6v-9.8h5.3L47.1,607.1L47.1,607.1z"/>
		<path d="M50.5,615.5h-1.7v-9.8h1.7V615.5z"/>
		<path d="M59.7,615.1c-0.7,0.4-1.6,0.6-2.7,0.6c-1.4,0-2.5-0.4-3.4-1.3s-1.3-2.1-1.3-3.5c0-1.6,0.5-2.8,1.4-3.8s2.2-1.4,3.6-1.4
			c0.9,0,1.7,0.1,2.3,0.4v1.5c-0.7-0.4-1.4-0.6-2.2-0.6c-1.1,0-1.9,0.3-2.6,1c-0.7,0.7-1,1.6-1,2.7c0,1.1,0.3,1.9,0.9,2.6
			c0.6,0.6,1.4,1,2.4,1c0.9,0,1.7-0.2,2.4-0.7v1.5L59.7,615.1L59.7,615.1z"/>
		<path d="M12,632.2h-1.6v-6.3c0-0.5,0-1.1,0.1-1.9l0,0c-0.1,0.4-0.2,0.7-0.3,0.9l-2.9,7.3H6.2L3.3,625c-0.1-0.2-0.2-0.5-0.3-1l0,0
			c0,0.4,0.1,1,0.1,1.9v6.3H1.6v-9.8h2.3l2.6,6.5c0.2,0.5,0.3,0.9,0.4,1.1l0,0c0.2-0.5,0.3-0.9,0.4-1.1l2.6-6.5h2.2L12,632.2
			L12,632.2z"/>
		<path d="M22.4,632.2h-1.8l-0.9-2.5h-3.8l-0.8,2.5h-1.8l3.7-9.8h1.8L22.4,632.2z M19.3,628.3l-1.4-3.9c0-0.1-0.1-0.3-0.1-0.6l0,0
			c0,0.3-0.1,0.5-0.1,0.6l-1.3,3.9H19.3z"/>
		<path d="M32,632.2h-1.8l-4.7-7.2c-0.1-0.2-0.2-0.4-0.3-0.6l0,0c0,0.2,0.1,0.7,0.1,1.3v6.4h-1.6v-9.8h1.9l4.5,7
			c0.2,0.3,0.3,0.5,0.4,0.6l0,0c0-0.3-0.1-0.7-0.1-1.3v-6.4H32L32,632.2L32,632.2z"/>
		<path d="M42.4,632.2h-1.8l-0.9-2.5h-3.8l-0.8,2.5h-1.8l3.7-9.8h1.8L42.4,632.2z M39.3,628.3l-1.4-3.9c0-0.1-0.1-0.3-0.1-0.6l0,0
			c0,0.3-0.1,0.5-0.1,0.6l-1.3,3.9H39.3z"/>
		<path d="M51.2,631.5c-1,0.6-2.1,0.8-3.4,0.8c-1.4,0-2.6-0.4-3.5-1.3s-1.3-2.1-1.3-3.6s0.5-2.7,1.5-3.7s2.2-1.5,3.7-1.5
			c1.1,0,2,0.2,2.7,0.5v1.7c-0.7-0.5-1.6-0.7-2.7-0.7c-1,0-1.9,0.3-2.6,1c-0.7,0.7-1,1.6-1,2.7c0,1.1,0.3,2,0.9,2.6s1.3,1,2.3,1
			c0.7,0,1.3-0.1,1.7-0.4v-2.4h-2.1v-1.4h3.7L51.2,631.5L51.2,631.5z"/>
		<path d="M58.8,632.2h-5.5v-9.8h5.3v1.4h-3.7v2.8h3.4v1.4h-3.4v2.9h3.9C58.8,630.9,58.8,632.2,58.8,632.2z"/>
		<path d="M68.1,632.2h-1.9l-1.6-2.6c-0.1-0.2-0.3-0.4-0.4-0.6s-0.3-0.3-0.4-0.4c-0.1-0.1-0.3-0.2-0.5-0.2s-0.3-0.1-0.6-0.1H62v4
			h-1.6v-9.8h3.2c0.5,0,0.9,0.1,1.3,0.2s0.7,0.3,1,0.5s0.5,0.5,0.7,0.8s0.2,0.7,0.2,1.2c0,0.3-0.1,0.7-0.2,0.9
			c-0.1,0.3-0.2,0.5-0.4,0.8c-0.2,0.2-0.4,0.4-0.7,0.6c-0.3,0.2-0.6,0.3-0.9,0.4l0,0c0.2,0.1,0.3,0.2,0.5,0.3
			c0.1,0.1,0.3,0.2,0.4,0.4c0.1,0.1,0.2,0.3,0.3,0.4c0.1,0.2,0.2,0.3,0.4,0.6L68.1,632.2z M62.1,623.7v3.2h1.3c0.2,0,0.5,0,0.7-0.1
			c0.2-0.1,0.4-0.2,0.5-0.3c0.2-0.1,0.3-0.3,0.4-0.5c0.1-0.2,0.1-0.4,0.1-0.7c0-0.5-0.1-0.8-0.4-1.1s-0.7-0.4-1.3-0.4L62.1,623.7
			L62.1,623.7z"/>
	</g>
	<polygon points="41.7,582.2 39.2,585 39.2,577.2 46.9,577.2 44.1,580 51.2,586.7 51.2,572.1 41.2,561.8 27.1,561.8 24.6,564.5 
		32.6,572.7 36.2,569.2 36.2,580.5 25.2,580.5 28.6,576.7 20.7,568.7 17.1,572.2 17.1,586.7 27.1,597.1 39.4,597.1 30,587.5 
		28.2,589.5 28.2,583.6 33.7,583.6 32.1,585.5 42.3,596.1 48.5,589.7 	"/>
</g>
</svg>
