<?xml version="1.0" encoding="utf-8"?>
<!-- Generator: Adobe Illustrator 19.2.0, SVG Export Plug-In . SVG Version: 6.00 Build 0)  -->
<svg version="1.1" id="Layer_1" xmlns="http://www.w3.org/2000/svg" xmlns:xlink="http://www.w3.org/1999/xlink" x="0px" y="0px"
	 width="55px" height="284px" viewBox="0 0 55 284" style="enable-background:new 0 0 55 284;" xml:space="preserve">
<g>
	<path d="M21.6,275c0.7,0.2,1.4,0.4,2.1,0.6l31.3,8.1l-8.4-32.3c-0.8-3.3-2.6-6.4-5.1-9c-7.7-7.7-20.1-7.7-27.8,0s-7.7,20.1,0,27.8
		c2.2,2.2,4.9,3.8,7.7,4.7l0,0L21.6,275z"/>
	<g>
		<polygon style="fill:#FFFFFF;" points="28.2,259.9 25.8,259.9 25.8,264.8 23.8,264.8 27,269.1 30.2,264.8 28.2,264.8 28.2,259.9 
					"/>
		<polygon style="fill:#FFFFFF;" points="24.1,252.6 29.8,252.6 29.8,254.3 24.1,254.3 		"/>
		<polygon style="fill:#FFFFFF;" points="24.1,255.1 29.8,255.1 29.8,256.7 24.1,256.7 		"/>
		<polygon style="fill:#FFFFFF;" points="24.1,257.5 29.8,257.5 29.8,259.1 24.1,259.1 		"/>
		<path style="fill:#FFFFFF;" d="M27.5,246.2h-6.7c-0.2,0-0.7,0-0.7,0.8L20,259.7h2.4v-11.1h3.2v3.2H28v-5
			C28.2,246.2,27.7,246.2,27.5,246.2L27.5,246.2z"/>
		<path style="fill:#FFFFFF;" d="M22.5,257.4h-2.4v5.7c0,0.2,0.7,0.8,0.9,0.8h4v-2.4h-2.4L22.5,257.4L22.5,257.4L22.5,257.4z"/>
		<path style="fill:#FFFFFF;" d="M35.6,256.7h-0.7c-0.4-4.9-2.7-7.2-6-7.9v2.3c2.4,0.8,3.3,3.2,3.4,6.3l-0.1,1.6l3.2-0.1
			c0.9,0,1.5,0.2,1.5,1.1v1.4H29v2.4h9.6c0.2,0,0.9-0.7,0.9-0.8v-3C39.4,258,37.7,256.7,35.6,256.7L35.6,256.7z"/>
	</g>
</g>
<g>
	
		<line style="fill:none;stroke:#DFDFDE;stroke-width:4;stroke-linecap:round;stroke-linejoin:round;stroke-miterlimit:10;" x1="16.9" y1="-41" x2="17.9" y2="217.9"/>
	
		<circle style="fill:none;stroke:#DFDFDE;stroke-width:4;stroke-linecap:round;stroke-linejoin:round;stroke-miterlimit:10;" cx="17.9" cy="223.4" r="5"/>
</g>
</svg>
