<?xml version="1.0" encoding="utf-8"?>
<!-- Generator: Adobe Illustrator 19.2.0, SVG Export Plug-In . SVG Version: 6.00 Build 0)  -->
<svg version="1.1" id="Layer_1" xmlns="http://www.w3.org/2000/svg" xmlns:xlink="http://www.w3.org/1999/xlink" x="0px" y="0px"
	 width="960px" height="236.6px" viewBox="0 0 960 236.6" style="enable-background:new 0 0 960 236.6;" xml:space="preserve">
<g>
	
		<line style="fill:none;stroke:#686969;stroke-width:3;stroke-linecap:round;stroke-linejoin:round;stroke-miterlimit:10;" x1="484.3" y1="202.4" x2="484.3" y2="231.8"/>
	
		<polyline style="fill:none;stroke:#686969;stroke-width:3;stroke-linecap:round;stroke-linejoin:round;stroke-miterlimit:10;" points="
		477.8,228.5 484.3,235.1 491,228.4 	"/>
	
		<polyline style="fill:none;stroke:#686969;stroke-width:3;stroke-linecap:round;stroke-linejoin:round;stroke-miterlimit:10;" points="
		450.4,157.1 450.4,176.1 450.4,196.8 484.3,196.8 484.3,206.5 	"/>
	
		<polyline style="fill:none;stroke:#686969;stroke-width:3;stroke-linecap:round;stroke-linejoin:round;stroke-miterlimit:10;" points="
		520,157.1 520,176.1 520,196.8 484.3,196.8 484.3,203.7 	"/>
</g>
<path style="fill:none;stroke:#010101;stroke-width:3;stroke-linecap:round;stroke-linejoin:round;stroke-miterlimit:10;" d="
	M442,155.4c0,0,7.9,4,16.6,0"/>
<path style="fill:none;stroke:#010101;stroke-width:3;stroke-linecap:round;stroke-linejoin:round;stroke-miterlimit:10;" d="
	M511.6,155.4c0,0,7.9,4,16.6,0"/>
<g>
	<path style="fill:#FFFFFF;" d="M471.8,5.9v5h1.2v1h-1.2v1.7h-1.2V12H467v-1.1c0.3-0.4,0.6-0.7,1-1.2c0.3-0.4,0.7-0.8,1-1.3
		c0.3-0.4,0.6-0.9,0.9-1.3s0.5-0.9,0.7-1.3h1.1L471.8,5.9L471.8,5.9z M470.5,10.9V7.7c-0.4,0.7-0.8,1.3-1.2,1.9
		c-0.4,0.5-0.7,1-1.1,1.4L470.5,10.9L470.5,10.9z"/>
</g>
</svg>
