<svg id="Layer_1" xmlns="http://www.w3.org/2000/svg" width="129.2" height="640" viewBox="0 0 129.2 640"><path d="M285.8 615.8v-9.9h2.8c3.6 0 5.4 1.6 5.4 4.8 0 1.5-.5 2.7-1.5 3.6s-2.3 1.4-4 1.4l-2.7.1zm1.6-8.4v7h1.3c1.1 0 2-.3 2.7-.9.6-.6.9-1.5.9-2.7 0-2.3-1.2-3.4-3.5-3.4h-1.4zM304.1 615.8h-1.8l-4.7-7.2-.3-.6c0 .2.1.7.1 1.3v6.4h-1.6v-9.8h1.9l4.5 7c.2.3.3.5.4.6 0-.3-.1-.7-.1-1.3v-6.3h1.6v9.9zM306.1 615.4v-1.7c.1.1.3.3.5.4.2.1.4.2.7.3.2.1.5.1.7.2.2 0 .4.1.6.1.7 0 1.2-.1 1.5-.3.3-.2.5-.6.5-1 0-.2-.1-.4-.2-.6-.1-.2-.3-.3-.5-.5s-.4-.3-.7-.4c-.3-.1-.6-.3-.9-.4-.3-.2-.6-.4-.9-.5-.3-.2-.5-.4-.7-.6-.2-.2-.4-.5-.5-.7-.1-.2-.2-.6-.2-1 0-.5.1-.9.3-1.2.2-.3.5-.6.8-.8.3-.2.7-.4 1.2-.5.5-.1.9-.2 1.3-.2 1 0 1.8.1 2.2.3v1.6c-.6-.4-1.3-.6-2.1-.6-.2 0-.5 0-.7.1-.2 0-.5.1-.6.2s-.3.2-.5.4-.2.4-.2.6 0 .4.1.6c.1.2.2.3.4.4.2.1.4.3.6.4.3.1.5.3.9.4.3.2.7.4 1 .6.3.2.6.4.8.6.2.2.4.5.5.8s.2.6.2 1c0 .5-.1.9-.3 1.3-.2.3-.5.6-.8.8-.3.2-.7.4-1.2.5-.4.1-.9.1-1.4.1h-.6c-.2 0-.5-.1-.7-.1-.2 0-.5-.1-.7-.2-.1-.3-.3-.4-.4-.4z"/><g><path d="M302 578.5c-1.3 0-2.5.8-3 2h-19.1c-3.2 0-5.9-2.6-5.9-5.9 0-3.2 2.6-5.9 5.9-5.9h2.7c.1-.7.3-1.3.6-1.9.1-.2.2-.4.4-.7 1.3-2.3 3.8-3.9 6.8-3.9 2.6 0 4.8 1.3 6.3 3.2.8-.4 1.7-.7 2.6-.9-1.8-3-5.1-4.9-8.8-4.9-4.3 0-8.1 2.7-9.6 6.5h-.8c-4.7 0-8.5 3.8-8.5 8.5s3.8 8.5 8.5 8.5h19.1c.5 1.2 1.7 2 3 2 1.8 0 3.3-1.4 3.3-3.3s-1.7-3.3-3.5-3.3z"/><path d="M312.5 572c-1.9-3.8-5.9-6.5-10.5-6.5-5.6 0-10.3 3.9-11.4 9.1-2.7.3-5.1 1.7-6.6 3.8h13.9c.9-1.2 2.4-2 4.1-2 2.9 0 5.2 2.3 5.2 5.2s-2.3 5.2-5.2 5.2c-1.7 0-3.1-.8-4.1-2h-15.5c.6 4.4 4.4 7.8 9 7.8h20.9c5.7 0 10.4-4.7 10.4-10.4.1-5.6-4.5-10.2-10.2-10.2z"/></g><g fill="none" stroke="#dedede" stroke-width="4" stroke-linecap="round" stroke-linejoin="round" stroke-miterlimit="10"><path d="M122 609.9V-33.5M98.6 609.9H122"/><circle cx="91.6" cy="609.9" r="5"/></g><g><path d="M15.4 607.1h-2.8v8.4H11v-8.4H8.2v-1.4h7.2v1.4zM24.4 615.5h-1.9l-1.6-2.6c-.1-.2-.3-.4-.4-.6-.1-.2-.3-.3-.4-.4-.1-.1-.3-.2-.5-.2s-.3-.1-.6-.1h-.7v4h-1.6v-9.8h3.2c.5 0 .9.1 1.3.2s.7.3 1 .5.5.5.7.8.2.7.2 1.2c0 .3-.1.7-.2.9-.1.3-.2.5-.4.8-.2.2-.4.4-.7.6s-.6.3-.9.4c.2.1.3.2.5.3.1.1.3.2.4.4.1.1.2.3.3.4.1.2.2.3.4.6l1.9 2.6zm-6-8.5v3.2h1.3c.2 0 .5 0 .7-.1.2-.1.4-.2.5-.3.2-.1.3-.3.4-.5.1-.2.1-.4.1-.7 0-.5-.1-.8-.4-1.1s-.7-.4-1.3-.4l-1.3-.1zM33.5 615.5h-1.8l-.9-2.5H27l-.8 2.5h-1.8l3.7-9.8h1.8l3.6 9.8zm-3.1-3.8l-1.4-3.9c0-.1-.1-.3-.1-.6 0 .3-.1.5-.1.6l-1.3 3.9h2.9zM40.1 607.1h-3.6v2.9h3.4v1.4h-3.4v4.1h-1.6v-9.8h5.3l-.1 1.4zM47.1 607.1h-3.6v2.9h3.4v1.4h-3.4v4.1h-1.6v-9.8h5.3l-.1 1.4zM50.5 615.5h-1.7v-9.8h1.7v9.8zM59.7 615.1c-.7.4-1.6.6-2.7.6-1.4 0-2.5-.4-3.4-1.3s-1.3-2.1-1.3-3.5c0-1.6.5-2.8 1.4-3.8s2.2-1.4 3.6-1.4c.9 0 1.7.1 2.3.4v1.5c-.7-.4-1.4-.6-2.2-.6-1.1 0-1.9.3-2.6 1-.7.7-1 1.6-1 2.7s.3 1.9.9 2.6c.6.6 1.4 1 2.4 1 .9 0 1.7-.2 2.4-.7v1.5h.2zM12 632.2h-1.6v-6.3c0-.5 0-1.1.1-1.9-.1.4-.2.7-.3.9l-2.9 7.3H6.2L3.3 625c-.1-.2-.2-.5-.3-1 0 .4.1 1 .1 1.9v6.3H1.6v-9.8h2.3l2.6 6.5c.2.5.3.9.4 1.1.2-.5.3-.9.4-1.1l2.6-6.5h2.2l-.1 9.8zM22.4 632.2h-1.8l-.9-2.5h-3.8l-.8 2.5h-1.8l3.7-9.8h1.8l3.6 9.8zm-3.1-3.9l-1.4-3.9c0-.1-.1-.3-.1-.6 0 .3-.1.5-.1.6l-1.3 3.9h2.9zM32 632.2h-1.8l-4.7-7.2-.3-.6c0 .2.1.7.1 1.3v6.4h-1.6v-9.8h1.9l4.5 7c.2.3.3.5.4.6 0-.3-.1-.7-.1-1.3v-6.4H32v10zM42.4 632.2h-1.8l-.9-2.5h-3.8l-.8 2.5h-1.8l3.7-9.8h1.8l3.6 9.8zm-3.1-3.9l-1.4-3.9c0-.1-.1-.3-.1-.6 0 .3-.1.5-.1.6l-1.3 3.9h2.9zM51.2 631.5c-1 .6-2.1.8-3.4.8-1.4 0-2.6-.4-3.5-1.3s-1.3-2.1-1.3-3.6.5-2.7 1.5-3.7 2.2-1.5 3.7-1.5c1.1 0 2 .2 2.7.5v1.7c-.7-.5-1.6-.7-2.7-.7-1 0-1.9.3-2.6 1-.7.7-1 1.6-1 2.7s.3 2 .9 2.6 1.3 1 2.3 1c.7 0 1.3-.1 1.7-.4v-2.4h-2.1v-1.4h3.7l.1 4.7zM58.8 632.2h-5.5v-9.8h5.3v1.4h-3.7v2.8h3.4v1.4h-3.4v2.9h3.9v1.3zM68.1 632.2h-1.9l-1.6-2.6c-.1-.2-.3-.4-.4-.6s-.3-.3-.4-.4c-.1-.1-.3-.2-.5-.2s-.3-.1-.6-.1H62v4h-1.6v-9.8h3.2c.5 0 .9.1 1.3.2s.7.3 1 .5.5.5.7.8.2.7.2 1.2c0 .3-.1.7-.2.9-.1.3-.2.5-.4.8-.2.2-.4.4-.7.6-.3.2-.6.3-.9.4.2.1.3.2.5.3.1.1.3.2.4.4.1.1.2.3.3.4.1.2.2.3.4.6l1.9 2.6zm-6-8.5v3.2h1.3c.2 0 .5 0 .7-.1.2-.1.4-.2.5-.3.2-.1.3-.3.4-.5.1-.2.1-.4.1-.7 0-.5-.1-.8-.4-1.1s-.7-.4-1.3-.4l-1.3-.1zM41.7 582.2l-2.5 2.8v-7.8h7.7l-2.8 2.8 7.1 6.7v-14.6l-10-10.3H27.1l-2.5 2.7 8 8.2 3.6-3.5v11.3h-11l3.4-3.8-7.9-8-3.6 3.5v14.5l10 10.4h12.3l-9.4-9.6-1.8 2v-5.9h5.5l-1.6 1.9 10.2 10.6 6.2-6.4z"/></g></svg>