<?xml version="1.0" encoding="utf-8"?>
<!-- Generator: Adobe Illustrator 19.2.0, SVG Export Plug-In . SVG Version: 6.00 Build 0)  -->
<svg version="1.1" id="Layer_1" xmlns="http://www.w3.org/2000/svg" xmlns:xlink="http://www.w3.org/1999/xlink" x="0px" y="0px"
	 width="260px" height="500px" viewBox="0 0 260 500" style="enable-background:new 0 0 260 500;" xml:space="preserve">
<g id="Layer_2">
</g>
<line style="fill:none;stroke:#DEDEDE;stroke-width:4;stroke-linecap:round;stroke-linejoin:round;stroke-miterlimit:10;" x1="251.8" y1="479.9" x2="251.8" y2="-150"/>
<g>
	
		<line style="fill:none;stroke:#DEDEDE;stroke-width:4;stroke-linecap:round;stroke-linejoin:round;stroke-miterlimit:10;" x1="118.4" y1="479.9" x2="139.9" y2="479.9"/>
	
		<circle style="fill:none;stroke:#DEDEDE;stroke-width:4;stroke-linecap:round;stroke-linejoin:round;stroke-miterlimit:10;" cx="111.4" cy="479.9" r="5"/>
</g>
<line style="fill:none;stroke:#DEDEDE;stroke-width:4;stroke-linecap:round;stroke-linejoin:round;stroke-miterlimit:10;" x1="155.6" y1="479.9" x2="251.8" y2="479.9"/>
<g id="Layer_1_1_">
	<g>
		<g>
			<path d="M19.6,468.1h-1.8l-0.9-2.5h-3.8l-0.8,2.5h-1.8l3.7-9.8H16L19.6,468.1z M16.5,464.4l-1.4-3.9c0-0.1-0.1-0.3-0.1-0.6l0,0
				c0,0.3-0.1,0.5-0.1,0.6l-1.3,3.9H16.5z"/>
			<path d="M27.8,459.1l-5.3,7.7h5.3v1.4h-7.5v-0.7l5.4-7.6h-5v-1.4h7.2L27.8,459.1L27.8,459.1z"/>
			<path d="M36.9,464.1c0,2.7-1.3,4.1-3.9,4.1c-2.5,0-3.7-1.3-3.7-4v-6h1.6v5.6c0,1.9,0.7,2.9,2.2,2.9c1.4,0,2.1-0.9,2.1-2.8v-5.7
				h1.6L36.9,464.1L36.9,464.1z"/>
			<path d="M46.7,468.1h-1.9l-1.6-2.6c-0.1-0.2-0.3-0.4-0.4-0.6c-0.1-0.2-0.3-0.3-0.4-0.4c-0.1-0.1-0.3-0.2-0.5-0.2
				s-0.3-0.1-0.6-0.1h-0.7v4H39v-9.8h3.2c0.5,0,0.9,0.1,1.3,0.2c0.4,0.1,0.7,0.3,1,0.5s0.5,0.5,0.7,0.8s0.2,0.7,0.2,1.2
				c0,0.3-0.1,0.7-0.2,0.9c-0.1,0.3-0.2,0.5-0.4,0.8c-0.2,0.2-0.4,0.4-0.7,0.6s-0.6,0.3-0.9,0.4l0,0c0.2,0.1,0.3,0.2,0.5,0.3
				c0.1,0.1,0.3,0.2,0.4,0.4c0.1,0.1,0.2,0.3,0.3,0.4c0.1,0.2,0.2,0.3,0.4,0.6L46.7,468.1z M40.8,459.6v3.2h1.3c0.2,0,0.5,0,0.7-0.1
				s0.4-0.2,0.5-0.3c0.2-0.1,0.3-0.3,0.4-0.5c0.1-0.2,0.1-0.4,0.1-0.7c0-0.5-0.1-0.8-0.4-1.1s-0.7-0.4-1.3-0.4h-1.3V459.6z"/>
			<path d="M53.3,468.1h-5.5v-9.8h5.3v1.4h-3.6v2.8h3.4v1.4h-3.4v2.9h3.9L53.3,468.1L53.3,468.1L53.3,468.1z"/>
			<path d="M64.3,468.1h-5.4v-9.8h1.6v8.4h3.8V468.1L64.3,468.1z"/>
			<path d="M69.3,468.4c-1.4,0-2.5-0.5-3.4-1.4c-0.8-0.9-1.3-2.1-1.3-3.6c0-1.6,0.4-2.8,1.3-3.8c0.9-0.9,2-1.4,3.5-1.4
				c1.4,0,2.5,0.5,3.3,1.4s1.3,2.1,1.3,3.6c0,1.6-0.4,2.8-1.3,3.8C71.8,467.9,70.7,468.4,69.3,468.4z M69.3,459.6
				c-0.9,0-1.6,0.3-2.2,1s-0.8,1.5-0.8,2.6s0.3,2,0.8,2.6c0.5,0.7,1.3,1,2.1,1c0.9,0,1.7-0.3,2.2-0.9s0.8-1.5,0.8-2.6
				c0-1.2-0.3-2.1-0.8-2.7S70.3,459.6,69.3,459.6z"/>
			<path d="M83.6,468.1h-1.8l-0.9-2.5h-3.8l-0.8,2.5h-1.8l3.7-9.8H80L83.6,468.1z M80.5,464.4l-1.4-3.9c0-0.1-0.1-0.3-0.1-0.6l0,0
				c0,0.3-0.1,0.5-0.1,0.6l-1.3,3.9H80.5z"/>
			<path d="M84.9,468.1v-9.8h2.8c3.6,0,5.4,1.6,5.4,4.8c0,1.5-0.5,2.7-1.5,3.6s-2.3,1.4-4,1.4H84.9z M86.5,459.6v7h1.3
				c1.1,0,2-0.3,2.7-0.9c0.6-0.6,0.9-1.5,0.9-2.7c0-2.3-1.2-3.4-3.5-3.4H86.5z"/>
			<path d="M18.5,484.9V475h3.1c0.9,0,1.7,0.2,2.2,0.6c0.6,0.4,0.8,0.9,0.8,1.6c0,0.6-0.2,1-0.5,1.4s-0.7,0.7-1.3,0.9l0,0
				c0.7,0.1,1.2,0.3,1.6,0.7s0.6,1,0.6,1.6c0,0.8-0.3,1.5-1,2s-1.5,0.8-2.5,0.8h-3L18.5,484.9L18.5,484.9z M20.1,476.5v2.8h1
				c0.6,0,1-0.1,1.3-0.4s0.5-0.6,0.5-1.1c0-0.8-0.6-1.3-1.7-1.3H20.1z M20.1,480.5v3.1h1.4c0.6,0,1.1-0.1,1.4-0.4
				c0.3-0.3,0.5-0.7,0.5-1.2c0-1-0.7-1.5-2.1-1.5H20.1L20.1,480.5z"/>
			<path d="M34.9,484.9h-1.8l-0.9-2.5h-3.8l-0.8,2.5h-1.8l3.7-9.8h1.8L34.9,484.9z M31.8,481l-1.4-3.9c0-0.1-0.1-0.3-0.1-0.6l0,0
				c0,0.3-0.1,0.5-0.1,0.6l-1.3,3.9H31.8z"/>
			<path d="M41.6,484.9h-5.4V475h1.6v8.4h3.8L41.6,484.9L41.6,484.9z"/>
			<path d="M51.4,484.9h-1.8l-0.9-2.5h-3.8l-0.8,2.5h-1.8L46,475h1.8L51.4,484.9z M48.3,481l-1.4-3.9c0-0.1-0.1-0.3-0.1-0.6l0,0
				c0,0.3-0.1,0.5-0.1,0.6l-1.3,3.9H48.3z"/>
			<path d="M61,484.9h-1.8l-4.7-7.2c-0.1-0.2-0.2-0.4-0.3-0.6l0,0c0,0.2,0.1,0.7,0.1,1.3v6.4h-1.6V475h1.9l4.5,7
				c0.2,0.3,0.3,0.5,0.4,0.6l0,0c0-0.3-0.1-0.7-0.1-1.3V475H61V484.9L61,484.9z"/>
			<path d="M70.2,484.5c-0.7,0.4-1.6,0.6-2.7,0.6c-1.4,0-2.5-0.4-3.4-1.3s-1.3-2.1-1.3-3.5c0-1.6,0.5-2.8,1.4-3.8s2.2-1.4,3.6-1.4
				c0.9,0,1.7,0.1,2.3,0.4v1.6c-0.7-0.4-1.4-0.6-2.2-0.6c-1.1,0-1.9,0.3-2.6,1s-1,1.6-1,2.7s0.3,1.9,0.9,2.6c0.6,0.6,1.4,1,2.4,1
				c0.9,0,1.7-0.2,2.4-0.7v1.4L70.2,484.5L70.2,484.5z"/>
			<path d="M77.6,484.9h-5.5V475h5.3v1.4h-3.7v2.8h3.4v1.4h-3.4v2.9h3.9C77.6,483.5,77.6,484.9,77.6,484.9z"/>
			<path d="M86.8,484.9h-1.9l-1.6-2.6c-0.1-0.2-0.3-0.4-0.4-0.6s-0.3-0.3-0.4-0.4s-0.3-0.2-0.5-0.2s-0.3-0.1-0.6-0.1h-0.7v4h-1.6
				v-9.8h3.2c0.5,0,0.9,0.1,1.3,0.2s0.7,0.3,1,0.5s0.5,0.5,0.7,0.8s0.2,0.7,0.2,1.2c0,0.3-0.1,0.7-0.2,0.9c-0.1,0.3-0.2,0.5-0.4,0.8
				c-0.2,0.2-0.4,0.4-0.7,0.6s-0.6,0.3-0.9,0.4l0,0c0.2,0.1,0.3,0.2,0.5,0.3c0.1,0.1,0.3,0.2,0.4,0.4c0.1,0.1,0.2,0.3,0.3,0.4
				c0.1,0.2,0.2,0.3,0.4,0.6L86.8,484.9z M80.9,476.5v3.2h1.3c0.2,0,0.5,0,0.7-0.1s0.4-0.2,0.5-0.3c0.2-0.1,0.3-0.3,0.4-0.5
				s0.1-0.4,0.1-0.7c0-0.5-0.1-0.8-0.4-1.1c-0.3-0.3-0.7-0.4-1.3-0.4L80.9,476.5L80.9,476.5z"/>
		</g>
		<path d="M76.8,445.5l-4.5-28.4c-0.1-1.2-1.1-1.3-1.4-1.3H33.4c-0.3,0-1.3,0.1-1.4,1.3l-5,28.4l0,0c0,0,0,0,0,0.1v0.2l0,0
			c0,0.2,0,0.3,0,0.5c0,2.1,1.7,2.6,2.1,2.6l0,0h45.6c0.4,0,2.1-0.5,2.1-2.6C76.8,446,76.8,445.6,76.8,445.5L76.8,445.5z
			 M61.9,438.1h-5.5c-0.4,0-0.8-0.4-0.8-0.8s0.4-0.8,0.8-0.8H59l-6.2-6.2v12.4l1.9-1.9c0.3-0.3,0.8-0.3,1.1,0c0.3,0.3,0.3,0.8,0,1.1
			l-3.9,3.9L48,442c-0.2-0.2-0.2-0.4-0.2-0.6s0.1-0.4,0.2-0.6c0.3-0.3,0.8-0.3,1.1,0l2,2v-12.4l-6.2,6.2h2.8c0.4,0,0.8,0.4,0.8,0.8
			s-0.4,0.8-0.8,0.8h-5.5v-5.5c0-0.4,0.4-0.8,0.8-0.8s0.8,0.4,0.8,0.8v2.8l7.3-7.3v-3.9c-1-0.3-1.7-1.3-1.7-2.4
			c0-1.4,1.1-2.5,2.5-2.5s2.5,1.1,2.5,2.5c0,1.1-0.7,2.1-1.7,2.4v3.9l7.5,7.5v-3c0-0.4,0.4-0.8,0.8-0.8s0.8,0.4,0.8,0.8L61.9,438.1
			L61.9,438.1L61.9,438.1L61.9,438.1z"/>
	</g>
</g>
</svg>
