<?xml version="1.0" encoding="utf-8"?>
<!-- Generator: Adobe Illustrator 19.2.0, SVG Export Plug-In . SVG Version: 6.00 Build 0)  -->
<svg version="1.1" id="Layer_1" xmlns="http://www.w3.org/2000/svg" xmlns:xlink="http://www.w3.org/1999/xlink" x="0px" y="0px"
	 width="960px" height="370px" viewBox="0 0 960 370" style="enable-background:new 0 0 960 370;" xml:space="preserve">
<g>
	
		<polyline style="fill:none;stroke:#686868;stroke-width:3;stroke-linecap:round;stroke-linejoin:round;stroke-miterlimit:10;" points="
		469.2,356.7 469.2,309.2 340,309.2 340,238.5 340,203.6 	"/>
	
		<polyline style="fill:none;stroke:#686868;stroke-width:3;stroke-linecap:round;stroke-linejoin:round;stroke-miterlimit:10;" points="
		462.5,353.4 469.1,360 475.8,353.3 	"/>
	
		<polyline style="fill:none;stroke:#686868;stroke-width:3;stroke-linecap:round;stroke-linejoin:round;stroke-miterlimit:10;" points="
		469.2,330.1 469.2,321.4 254.5,321.4 254.5,174.9 254.5,140 	"/>
	
		<polyline style="fill:none;stroke:#686868;stroke-width:3;stroke-linecap:round;stroke-linejoin:round;stroke-miterlimit:10;" points="
		690.3,160 690.3,194.9 690.3,321.4 469.2,321.4 469.2,328.2 	"/>
	
		<polyline style="fill:none;stroke:#686868;stroke-width:3;stroke-linecap:round;stroke-linejoin:round;stroke-miterlimit:10;" points="
		469.2,321.4 469.2,309.2 595.2,309.2 595.3,238.5 595.3,203.6 	"/>
	<path style="fill:none;stroke:#000000;stroke-width:3;stroke-linecap:round;stroke-linejoin:round;stroke-miterlimit:10;" d="
		M246.1,138.2c0,0,7.9,4,16.6,0"/>
	<path style="fill:none;stroke:#000000;stroke-width:3;stroke-linecap:round;stroke-linejoin:round;stroke-miterlimit:10;" d="
		M681.9,158.2c0,0,7.9,4,16.6,0"/>
	<path style="fill:none;stroke:#000000;stroke-width:3;stroke-linecap:round;stroke-linejoin:round;stroke-miterlimit:10;" d="
		M331.7,201.8c0,0,7.9,4,16.6,0"/>
	<path style="fill:none;stroke:#000000;stroke-width:3;stroke-linecap:round;stroke-linejoin:round;stroke-miterlimit:10;" d="
		M587,201.8c0,0,7.9,4,16.6,0"/>
	
		<line style="fill:none;stroke:#686868;stroke-width:3;stroke-linecap:round;stroke-linejoin:round;stroke-miterlimit:10;" x1="469.2" y1="309.2" x2="469.2" y2="223.2"/>
	<path style="fill:none;stroke:#000000;stroke-width:3;stroke-linecap:round;stroke-linejoin:round;stroke-miterlimit:10;" d="
		M460.9,219.9c0,0,7.9,4,16.6,0"/>
</g>
</svg>
