<?xml version="1.0" encoding="utf-8"?>
<!-- Generator: Adobe Illustrator 19.2.0, SVG Export Plug-In . SVG Version: 6.00 Build 0)  -->
<svg version="1.1" id="Layer_1" xmlns="http://www.w3.org/2000/svg" xmlns:xlink="http://www.w3.org/1999/xlink" x="0px" y="0px"
	 width="160.8px" height="329px" viewBox="0 0 160.8 329" style="enable-background:new 0 0 160.8 329;" xml:space="preserve">
<g id="Layer_2">
</g>
<line style="fill:none;stroke:#DEDEDE;stroke-width:4;stroke-linecap:round;stroke-linejoin:round;stroke-miterlimit:10;" x1="102.4" y1="-27.1" x2="103.4" y2="231.8"/>
<circle style="fill:none;stroke:#DEDEDE;stroke-width:4;stroke-linecap:round;stroke-linejoin:round;stroke-miterlimit:10;" cx="103.4" cy="237.3" r="5"/>
<g>
	<path d="M60.3,292.8c-0.3,0-0.5-0.1-0.7-0.3s-0.3-0.4-0.3-0.6c0-0.3,0.1-0.5,0.3-0.7s0.4-0.3,0.7-0.3s0.5,0.1,0.7,0.3
		c0.2,0.2,0.3,0.4,0.3,0.7c0,0.2-0.1,0.5-0.3,0.6C60.8,292.7,60.6,292.8,60.3,292.8z"/>
	<path d="M71.5,292.6h-1.8l-4.7-7.2c-0.1-0.2-0.2-0.4-0.3-0.6l0,0c0,0.2,0.1,0.7,0.1,1.3v6.4h-1.6v-9.8h1.9l4.5,7
		c0.2,0.3,0.3,0.5,0.4,0.6l0,0c0-0.3-0.1-0.7-0.1-1.3v-6.3h1.6V292.6z"/>
	<path d="M79.3,292.6h-5.5v-9.8h5.3v1.4h-3.6v2.8h3.4v1.4h-3.4v2.9h3.9v1.3H79.3z"/>
	<path d="M87.4,284.3h-2.8v8.4H83v-8.4h-2.8v-1.4h7.2C87.4,282.9,87.4,284.3,87.4,284.3z"/>
	<path d="M89.2,291l-1.1,3.4H87l0.7-3.4H89.2z"/>
	<path d="M101.9,292.2c-0.7,0.4-1.6,0.6-2.7,0.6c-1.4,0-2.5-0.4-3.4-1.3s-1.3-2.1-1.3-3.5c0-1.6,0.5-2.8,1.4-3.8s2.2-1.4,3.6-1.4
		c0.9,0,1.7,0.1,2.3,0.4v1.6c-0.7-0.4-1.4-0.6-2.2-0.6c-1.1,0-1.9,0.3-2.6,1s-1,1.6-1,2.7s0.3,1.9,0.9,2.6c0.6,0.6,1.4,1,2.4,1
		c0.9,0,1.7-0.2,2.4-0.7v1.4H101.9z"/>
	<path d="M110.6,289.2H108v2.7h-1.1v-2.7h-2.7V288h2.7v-2.7h1.1v2.7h2.7L110.6,289.2L110.6,289.2z"/>
	<path d="M120.3,289.2h-2.7v2.7h-1.1v-2.7h-2.7V288h2.7v-2.7h1.1v2.7h2.7V289.2z"/>
	<path d="M124.4,291l-1.1,3.4h-1.2l0.7-3.4H124.4z"/>
	<path d="M131.9,289.1v3.5h-1.6v-9.8h3c1.1,0,2,0.3,2.6,0.8s0.9,1.3,0.9,2.2s-0.3,1.7-1,2.3c-0.6,0.6-1.5,0.9-2.6,0.9h-1.3V289.1z
		 M131.9,284.2v3.6h1c0.7,0,1.2-0.2,1.6-0.5c0.4-0.3,0.5-0.8,0.5-1.4c0-1.1-0.7-1.7-2-1.7H131.9z"/>
	<path d="M146.3,292.6h-1.6v-4.2H140v4.2h-1.6v-9.8h1.6v4.1h4.6v-4.1h1.6L146.3,292.6L146.3,292.6z"/>
	<path d="M150.3,289.1v3.5h-1.6v-9.8h3c1.1,0,2,0.3,2.6,0.8s0.9,1.3,0.9,2.2s-0.3,1.7-1,2.3c-0.6,0.6-1.5,0.9-2.6,0.9h-1.3V289.1z
		 M150.3,284.2v3.6h1c0.7,0,1.2-0.2,1.6-0.5c0.4-0.3,0.5-0.8,0.5-1.4c0-1.1-0.7-1.7-2-1.7H150.3z"/>
	<path d="M155.8,291l-1.1,3.4h-1.2l0.7-3.4H155.8z"/>
	<path d="M67.4,309.3h-1.9l-1.6-2.6c-0.1-0.2-0.3-0.4-0.4-0.6c-0.1-0.2-0.3-0.3-0.4-0.4c-0.1-0.1-0.3-0.2-0.5-0.2s-0.3-0.1-0.6-0.1
		h-0.7v4h-1.6v-9.8H63c0.5,0,0.9,0.1,1.3,0.2s0.7,0.3,1,0.5s0.5,0.5,0.7,0.8s0.2,0.7,0.2,1.2c0,0.3-0.1,0.7-0.2,0.9
		c-0.1,0.3-0.2,0.5-0.4,0.8c-0.2,0.2-0.4,0.4-0.7,0.6c-0.3,0.2-0.6,0.3-0.9,0.4l0,0c0.2,0.1,0.3,0.2,0.5,0.3
		c0.1,0.1,0.3,0.2,0.4,0.4c0.1,0.1,0.2,0.3,0.3,0.4c0.1,0.2,0.2,0.3,0.4,0.6L67.4,309.3z M61.4,300.9v3.2h1.3c0.2,0,0.5,0,0.7-0.1
		s0.4-0.2,0.5-0.3c0.2-0.1,0.3-0.3,0.4-0.5s0.1-0.4,0.1-0.7c0-0.5-0.1-0.8-0.4-1.1s-0.7-0.4-1.3-0.4h-1.3V300.9z"/>
	<path d="M74.4,309.3h-1.6v-1.1l0,0c-0.5,0.8-1.2,1.3-2.1,1.3c-1.6,0-2.5-1-2.5-3v-4.2h1.6v4c0,1.3,0.5,1.9,1.4,1.9
		c0.5,0,0.9-0.2,1.2-0.5c0.3-0.3,0.5-0.8,0.5-1.4v-4h1.6L74.4,309.3L74.4,309.3z"/>
	<path d="M78.1,308.3L78.1,308.3v1h-1.6V299H78v4.6l0,0c0.5-0.9,1.3-1.4,2.4-1.4c0.9,0,1.6,0.3,2.1,0.9s0.7,1.5,0.7,2.5
		c0,1.2-0.3,2.1-0.8,2.8s-1.3,1.1-2.3,1.1C79.2,309.5,78.5,309.1,78.1,308.3z M78,305.6v0.9c0,0.5,0.2,0.9,0.5,1.3s0.7,0.5,1.2,0.5
		c0.6,0,1-0.2,1.4-0.7c0.3-0.5,0.5-1.1,0.5-1.9c0-0.7-0.2-1.2-0.5-1.6s-0.7-0.6-1.3-0.6c-0.6,0-1,0.2-1.4,0.6
		C78.2,304.5,78,305,78,305.6z"/>
	<path d="M90.9,302.4l-3.1,8.1c-0.7,1.4-1.6,2.2-2.7,2.2c-0.3,0-0.6,0-0.8-0.1v-1.3c0.2,0.1,0.5,0.1,0.7,0.1c0.6,0,1-0.3,1.3-0.9
		l0.5-1.1l-2.8-7h1.7l1.7,5.1c0,0.1,0.1,0.2,0.1,0.5l0,0c0-0.1,0.1-0.3,0.1-0.5l1.7-5.1L90.9,302.4L90.9,302.4z"/>
	<path d="M92.7,307.7l-1.1,3.4h-1.2l0.7-3.4H92.7z"/>
	<path d="M100.2,305.8v3.5h-1.6v-9.8h3c1.1,0,2,0.3,2.6,0.8s0.9,1.3,0.9,2.2s-0.3,1.7-1,2.3c-0.6,0.6-1.5,0.9-2.6,0.9h-1.3V305.8z
		 M100.2,300.9v3.6h1c0.7,0,1.2-0.2,1.6-0.5s0.5-0.8,0.5-1.4c0-1.1-0.7-1.7-2-1.7H100.2z"/>
	<path d="M112.6,302.4l-3.1,8.1c-0.7,1.4-1.6,2.2-2.7,2.2c-0.3,0-0.6,0-0.8-0.1v-1.3c0.2,0.1,0.5,0.1,0.7,0.1c0.6,0,1-0.3,1.3-0.9
		l0.5-1.1l-2.8-7h1.7l1.7,5.1c0,0.1,0.1,0.2,0.1,0.5l0,0c0-0.1,0.1-0.3,0.1-0.5l1.7-5.1L112.6,302.4L112.6,302.4z"/>
	<path d="M117.3,309.3c-0.3,0.2-0.7,0.2-1.2,0.2c-1.4,0-2-0.6-2-1.9v-3.9h-1.2v-1.2h1.2v-1.6l1.6-0.4v2.1h1.7v1.2h-1.7v3.5
		c0,0.4,0.1,0.7,0.2,0.9c0.1,0.2,0.4,0.3,0.7,0.3c0.3,0,0.5-0.1,0.7-0.2C117.3,308.3,117.3,309.3,117.3,309.3z"/>
	<path d="M124.9,309.3h-1.6v-3.8c0-1.4-0.5-2.1-1.4-2.1c-0.5,0-0.9,0.2-1.2,0.6c-0.3,0.4-0.5,0.9-0.5,1.5v3.7h-1.6V299h1.6v4.5l0,0
		c0.5-0.9,1.3-1.3,2.3-1.3c1.5,0,2.3,0.9,2.3,2.8L124.9,309.3L124.9,309.3z"/>
	<path d="M129.9,309.5c-1.1,0-1.9-0.3-2.6-1s-1-1.5-1-2.6c0-1.2,0.3-2.1,1-2.7s1.6-1,2.7-1s1.9,0.3,2.5,1c0.6,0.6,0.9,1.5,0.9,2.7
		c0,1.1-0.3,2-1,2.7C131.8,309.2,131,309.5,129.9,309.5z M129.9,303.5c-0.6,0-1.1,0.2-1.5,0.6c-0.4,0.4-0.5,1-0.5,1.8
		c0,0.7,0.2,1.3,0.5,1.7c0.4,0.4,0.8,0.6,1.5,0.6c0.6,0,1.1-0.2,1.4-0.6c0.3-0.4,0.5-1,0.5-1.8s-0.2-1.4-0.5-1.8
		C131,303.7,130.6,303.5,129.9,303.5z"/>
	<path d="M141.3,309.3h-1.6v-3.9c0-1.3-0.5-2-1.4-2c-0.5,0-0.9,0.2-1.2,0.5c-0.3,0.4-0.5,0.8-0.5,1.4v4H135v-7h1.6v1.2l0,0
		c0.5-0.9,1.3-1.3,2.3-1.3c0.8,0,1.3,0.2,1.7,0.7s0.6,1.2,0.6,2.1L141.3,309.3L141.3,309.3z"/>
	<path d="M150.1,309.5c-1.1,0-1.9-0.3-2.6-1s-1-1.5-1-2.6c0-1.2,0.3-2.1,1-2.7s1.6-1,2.7-1c1.1,0,1.9,0.3,2.5,1
		c0.6,0.6,0.9,1.5,0.9,2.7c0,1.1-0.3,2-1,2.7C152.1,309.2,151.2,309.5,150.1,309.5z M150.2,303.5c-0.6,0-1.1,0.2-1.5,0.6
		s-0.5,1-0.5,1.8c0,0.7,0.2,1.3,0.5,1.7c0.4,0.4,0.8,0.6,1.5,0.6c0.6,0,1.1-0.2,1.4-0.6c0.3-0.4,0.5-1,0.5-1.8s-0.2-1.4-0.5-1.8
		C151.3,303.7,150.8,303.5,150.2,303.5z"/>
	<path d="M159.4,303.9c-0.2-0.1-0.5-0.2-0.8-0.2c-0.5,0-0.9,0.2-1.2,0.6s-0.5,1-0.5,1.7v3.3h-1.6v-7h1.6v1.4l0,0
		c0.2-0.5,0.4-0.9,0.7-1.1c0.3-0.3,0.7-0.4,1.1-0.4c0.3,0,0.5,0,0.7,0.1V303.9z"/>
	<path d="M63,322.6c0,1.2-0.3,2.1-0.9,2.7s-1.3,1-2.3,1c-0.4,0-0.8-0.1-1.1-0.2v-1.5c0.3,0.2,0.6,0.3,1,0.3c1.1,0,1.6-0.8,1.6-2.5
		v-6H63V322.6z"/>
	<path d="M70.4,326.1h-1.5V325l0,0c-0.5,0.8-1.2,1.3-2.1,1.3c-0.7,0-1.2-0.2-1.6-0.6s-0.6-0.9-0.6-1.5c0-1.3,0.8-2.1,2.3-2.3
		l2.1-0.3c0-1-0.5-1.5-1.4-1.5c-0.8,0-1.6,0.3-2.2,0.9v-1.4c0.7-0.4,1.6-0.7,2.5-0.7c1.8,0,2.6,0.9,2.6,2.6v4.6H70.4z M68.8,322.6
		l-1.5,0.2c-0.5,0.1-0.8,0.2-1,0.3c-0.2,0.2-0.3,0.4-0.3,0.8c0,0.3,0.1,0.5,0.3,0.7c0.2,0.2,0.5,0.3,0.8,0.3c0.5,0,0.9-0.2,1.2-0.5
		c0.3-0.3,0.5-0.8,0.5-1.3V322.6z"/>
	<path d="M78.3,319.1l-2.7,7h-1.7l-2.6-7H73l1.5,4.9c0.1,0.4,0.2,0.7,0.2,0.9l0,0c0-0.3,0.1-0.6,0.2-0.9l1.6-4.9H78.3z"/>
	<path d="M84.5,326.1H83V325l0,0c-0.5,0.8-1.2,1.3-2.1,1.3c-0.7,0-1.2-0.2-1.6-0.6s-0.6-0.9-0.6-1.5c0-1.3,0.8-2.1,2.3-2.3l2.1-0.3
		c0-1-0.5-1.5-1.4-1.5c-0.8,0-1.6,0.3-2.2,0.9v-1.4c0.7-0.4,1.6-0.7,2.5-0.7c1.8,0,2.6,0.9,2.6,2.6v4.6H84.5z M82.9,322.6l-1.5,0.2
		c-0.5,0.1-0.8,0.2-1,0.3c-0.2,0.2-0.3,0.4-0.3,0.8c0,0.3,0.1,0.5,0.3,0.7c0.2,0.2,0.5,0.3,0.8,0.3c0.5,0,0.9-0.2,1.2-0.5
		c0.3-0.3,0.5-0.8,0.5-1.3V322.6z"/>
</g>
<g>
	<path d="M37,308.8c-3.7,2.8-8.1,4.2-12.4,4.2c-6.2,0-12.3-2.8-16.3-8c-6.9-9-5.2-21.8,3.8-28.7c3.7-2.8,8.1-4.2,12.4-4.2
		c6.2,0,12.3,2.8,16.3,8C47.7,289.1,46,301.9,37,308.8L37,308.8z M43.3,278.2c-4.6-6.1-11.6-9.2-18.7-9.2c-5,0-10,1.6-14.3,4.9
		C0,281.8-2,296.6,5.9,306.9c4.6,6.1,11.6,9.2,18.7,9.2c5,0,10-1.6,14.3-4.9C49.2,303.3,51.2,288.5,43.3,278.2L43.3,278.2z"/>
	<path d="M13.9,296.8c-1.4-1.3-2.5-2.6-3.3-3.9c-2,4-2.7,8.1-2.8,11.4c0.2,0.3,0.2,0.5,0.4,0.7c1,1.3,2.2,2.4,3.4,3.4
		C11.4,305.8,11.6,301.4,13.9,296.8L13.9,296.8z"/>
	<path d="M21,281.1c-1.8,1.3-3.8,2.9-5.7,4.9c-1.1,1.1-2,2.3-2.8,3.4c0.8,1.3,1.9,2.7,3.2,4.1c1-1.4,2.3-2.9,3.8-4.3
		c1.9-1.8,3.7-3.2,5.3-4.3C23.6,283.7,22.3,282.4,21,281.1L21,281.1z"/>
	<path d="M40.6,279.8c-0.9-1.1-1.9-2.1-2.9-3c-3.2-0.5-8.1-0.4-13.7,2.6c1.3,1.4,2.6,2.7,3.8,3.9C35.3,279.2,40.6,279.8,40.6,279.8
		L40.6,279.8z"/>
	<path d="M10.6,292.9c0.6-1.1,1.3-2.3,2-3.4c-3.2-5.1-3.1-9.3-2.7-11.3c-0.8,0.8-1.6,1.7-2.2,2.7C7,283.5,7,287.8,10.6,292.9
		L10.6,292.9z"/>
	<path d="M19.7,297.1c-1.5-1.2-2.8-2.4-3.9-3.5c-0.8,1.1-1.4,2.2-1.9,3.2c1,1,2.2,2.1,3.6,3.2c8.4,6.7,16.8,7.3,21.4,7.3
		c0.3,0,1.8-2,2.6-3.2C39.4,304.5,30.5,305.6,19.7,297.1L19.7,297.1z"/>
	<path d="M10.6,292.9c0.9,1.3,2,2.6,3.3,3.9c0.5-1.1,1.2-2.2,1.9-3.2c-1.3-1.4-2.4-2.8-3.2-4.1C11.8,290.6,11.1,291.8,10.6,292.9
		L10.6,292.9z"/>
	<path d="M24.9,285c7.7,7.1,16.7,13.1,19,14.7c0.2-0.6,0.4-1.2,0.6-1.8c-2.5-1.8-9-6.9-16.8-14.7C26.9,283.7,25.9,284.3,24.9,285
		L24.9,285z"/>
	<path d="M23.9,279.3c-1.9-2-3.8-4.1-5.7-6.3c-0.9,0.3-1.8,0.7-2.7,1.1c1.4,2.3,3.4,4.7,5.5,7C22,280.4,23,279.8,23.9,279.3
		L23.9,279.3z"/>
	<path d="M24.1,279.3c-1,0.5-2.2,1.3-3.2,2c1.2,1.3,2.5,2.7,3.8,3.9c1-0.7,2.3-1.5,3.2-2C26.6,282,25.4,280.6,24.1,279.3L24.1,279.3
		z"/>
	<path d="M23.7,279.1c-1,0.5-1.9,1.2-2.8,1.9c1.2,1.3,3,3,4.3,4.3c1-0.7,1.8-1.3,2.7-1.8C26.6,282.2,25,280.5,23.7,279.1L23.7,279.1
		z"/>
	<path d="M34.1,290c-1.9,1.5-2.3,4.2-0.8,6.2c1.5,1.9,4.3,2.3,6.2,0.8s2.3-4.2,0.8-6.2C38.8,288.9,36,288.5,34.1,290L34.1,290z"/>
	<path d="M25,301c-1.8,1.4-2.1,3.9-0.8,5.7c1.4,1.8,3.9,2.1,5.7,0.8c1.8-1.4,2.1-3.9,0.8-5.7C29.3,299.9,26.8,299.6,25,301L25,301z"
		/>
	<path d="M9.6,288c-2.7,2.1-3.2,5.9-1.2,8.7c2.1,2.7,6,3.2,8.7,1.2c2.7-2.1,3.2-5.9,1.2-8.7C16.2,286.4,12.3,285.9,9.6,288L9.6,288z
		"/>
</g>
<g>
	<path d="M71.7,266.3l-2.7,9.8h-1.8l-1.9-6.9c-0.1-0.3-0.1-0.6-0.1-1l0,0c0,0.3-0.1,0.6-0.2,0.9l-1.9,6.9h-1.9l-2.7-9.8h1.8l1.8,7.2
		c0.1,0.3,0.1,0.6,0.1,0.9l0,0c0-0.2,0.1-0.5,0.2-0.9l2-7.2h1.7l1.9,7.2c0.1,0.2,0.1,0.5,0.1,0.9l0,0c0-0.2,0.1-0.5,0.2-0.9l1.7-7.2
		h1.7V266.3z"/>
	<path d="M78.5,276.1H73v-9.8h5.3v1.4h-3.7v2.8H78v1.4h-3.4v2.9h3.9V276.1z"/>
	<path d="M80.3,276.1v-9.8h3.1c0.9,0,1.7,0.2,2.3,0.6c0.6,0.4,0.8,1,0.8,1.6s-0.2,1-0.5,1.4s-0.8,0.7-1.3,0.9l0,0
		c0.7,0.1,1.2,0.3,1.6,0.7c0.4,0.4,0.6,1,0.6,1.6c0,0.8-0.3,1.5-1,2s-1.5,0.8-2.5,0.8h-3.1V276.1z M81.9,267.6v2.8H83
		c0.6,0,1-0.1,1.3-0.4s0.5-0.6,0.5-1.1c0-0.8-0.6-1.3-1.7-1.3H81.9z M81.9,271.7v3.1h1.4c0.6,0,1.1-0.1,1.4-0.4s0.5-0.7,0.5-1.2
		c0-1-0.7-1.5-2.1-1.5H81.9z"/>
	<path d="M100.6,276.1h-1.8l-0.9-2.5H94l-0.8,2.5h-1.8l3.7-9.8H97L100.6,276.1z M97.5,272.3l-1.4-3.9c0-0.1-0.1-0.3-0.1-0.6l0,0
		c0,0.3-0.1,0.5-0.1,0.6l-1.3,3.9H97.5z"/>
	<path d="M103.6,272.5v3.6H102v-9.8h3c1.1,0,2,0.3,2.6,0.8s0.9,1.3,0.9,2.2s-0.3,1.7-1,2.3s-1.5,0.9-2.6,0.9H103.6z M103.6,267.6
		v3.6h1.1c0.7,0,1.2-0.2,1.6-0.5s0.5-0.8,0.5-1.4c0-1.2-0.7-1.7-2-1.7H103.6z"/>
	<path d="M111.8,272.5v3.6h-1.6v-9.8h3c1.1,0,2,0.3,2.6,0.8s0.9,1.3,0.9,2.2s-0.3,1.7-1,2.3s-1.5,0.9-2.6,0.9H111.8z M111.8,267.6
		v3.6h1.1c0.7,0,1.2-0.2,1.6-0.5s0.5-0.8,0.5-1.4c0-1.2-0.7-1.7-2-1.7H111.8z"/>
	<path d="M117.9,275.7V274c0.2,0.1,0.3,0.3,0.5,0.4s0.4,0.2,0.7,0.3c0.2,0.1,0.5,0.1,0.7,0.2s0.4,0.1,0.6,0.1c0.7,0,1.2-0.1,1.5-0.3
		c0.3-0.2,0.5-0.6,0.5-1c0-0.2-0.1-0.4-0.2-0.6s-0.3-0.3-0.5-0.5s-0.4-0.3-0.7-0.4c-0.3-0.1-0.6-0.3-0.9-0.4
		c-0.3-0.2-0.6-0.4-0.9-0.5s-0.5-0.4-0.7-0.6s-0.4-0.5-0.5-0.7c-0.1-0.3-0.2-0.6-0.2-1c0-0.5,0.1-0.9,0.3-1.2
		c0.2-0.3,0.5-0.6,0.8-0.8c0.3-0.2,0.7-0.4,1.2-0.5c0.4-0.1,0.9-0.2,1.3-0.2c1,0,1.8,0.1,2.2,0.3v1.6c-0.6-0.4-1.3-0.6-2.1-0.6
		c-0.2,0-0.5,0-0.7,0.1c-0.2,0-0.5,0.1-0.6,0.2c-0.2,0.1-0.3,0.2-0.5,0.4s-0.2,0.4-0.2,0.6s0,0.4,0.1,0.6s0.2,0.3,0.4,0.4
		c0.2,0.1,0.4,0.3,0.6,0.4c0.3,0.1,0.5,0.3,0.9,0.4c0.3,0.2,0.7,0.4,1,0.6s0.6,0.4,0.8,0.6c0.2,0.2,0.4,0.5,0.5,0.8s0.2,0.6,0.2,1
		c0,0.5-0.1,0.9-0.3,1.3s-0.5,0.6-0.8,0.8c-0.3,0.2-0.7,0.4-1.2,0.5s-0.9,0.1-1.4,0.1c-0.2,0-0.4,0-0.6,0s-0.5-0.1-0.7-0.1
		c-0.3,0-0.5-0.1-0.7-0.2S118,275.8,117.9,275.7z"/>
</g>
</svg>
