<?xml version="1.0" encoding="utf-8"?>
<!-- Generator: Adobe Illustrator 19.2.0, SVG Export Plug-In . SVG Version: 6.00 Build 0)  -->
<svg version="1.1" id="Layer_1" xmlns="http://www.w3.org/2000/svg" xmlns:xlink="http://www.w3.org/1999/xlink" x="0px" y="0px"
	 width="960px" height="593.8px" viewBox="0 0 960 593.8" style="enable-background:new 0 0 960 593.8;" xml:space="preserve">
<path style="fill:#FFFFFF;" d="M605,288.2c-3.4,0-6.2-0.8-6.2-1.9c0-1,2.8-1.8,6.2-1.8s6.1,0.8,6.1,1.8
	C611.1,287.4,608.4,288.2,605,288.2L605,288.2z M596.3,299v3.4c0,1.6,3.1,3.3,7.3,3.6h2.8c4.1-0.3,7.3-1.7,7.3-3.3v-15.9
	c0-1.8-3.9-3.4-8.7-3.4s-8.6,1.6-8.6,3.4L596.3,299L596.3,299L596.3,299L596.3,299z"/>
<g>
	<path style="fill:#FFFFFF;" d="M457.7,228.4v-1.3c0.1,0.1,0.3,0.2,0.4,0.3c0.2,0.1,0.3,0.2,0.5,0.2c0.2,0.1,0.4,0.1,0.6,0.1
		s0.4,0,0.5,0c0.5,0,0.9-0.1,1.2-0.3c0.3-0.2,0.4-0.4,0.4-0.8c0-0.2,0-0.3-0.1-0.5s-0.2-0.3-0.4-0.4c-0.2-0.1-0.3-0.2-0.6-0.3
		s-0.4-0.2-0.7-0.3c-0.3-0.1-0.5-0.3-0.7-0.4c-0.2-0.1-0.4-0.3-0.6-0.5s-0.3-0.4-0.4-0.6c-0.1-0.2-0.1-0.5-0.1-0.8
		c0-0.4,0.1-0.7,0.2-1c0.2-0.3,0.4-0.5,0.7-0.7c0.3-0.2,0.6-0.3,0.9-0.4c0.3-0.1,0.7-0.1,1.1-0.1c0.8,0,1.4,0.1,1.8,0.3v1.3
		c-0.4-0.3-1-0.5-1.7-0.5c-0.2,0-0.4,0-0.6,0.1s-0.4,0.1-0.5,0.2c-0.2,0.1-0.3,0.2-0.4,0.3s-0.1,0.3-0.1,0.5s0,0.3,0.1,0.5
		s0.2,0.2,0.3,0.3c0.1,0.1,0.3,0.2,0.5,0.3s0.4,0.2,0.7,0.3c0.3,0.1,0.5,0.3,0.8,0.4c0.2,0.2,0.5,0.3,0.6,0.5
		c0.2,0.2,0.3,0.4,0.4,0.6c0.1,0.2,0.2,0.5,0.2,0.8c0,0.4-0.1,0.7-0.2,1c-0.2,0.3-0.4,0.5-0.6,0.7c-0.3,0.2-0.6,0.3-0.9,0.4
		s-0.7,0.1-1.1,0.1c-0.1,0-0.3,0-0.5,0s-0.4,0-0.6-0.1s-0.4-0.1-0.6-0.1C458,228.6,457.8,228.5,457.7,228.4z"/>
	<path style="fill:#FFFFFF;" d="M473.8,220.9l-2.1,7.8h-1.5l-1.5-5.5c-0.1-0.2-0.1-0.5-0.1-0.8l0,0c0,0.3-0.1,0.5-0.1,0.8l-1.5,5.5
		h-1.5l-2.2-7.8h1.4l1.4,5.7c0.1,0.2,0.1,0.5,0.1,0.8l0,0c0-0.2,0.1-0.4,0.2-0.8l1.6-5.7h1.3l1.5,5.8c0.1,0.2,0.1,0.4,0.1,0.7l0,0
		c0-0.2,0.1-0.4,0.1-0.7l1.4-5.7h1.4L473.8,220.9L473.8,220.9z"/>
	<path style="fill:#FFFFFF;" d="M480.9,228.7h-1.4l-0.7-2h-3.1l-0.7,2h-1.4l2.9-7.8h1.5L480.9,228.7z M478.4,225.7l-1.1-3.1
		c0-0.1-0.1-0.3-0.1-0.5l0,0c0,0.2-0.1,0.4-0.1,0.5l-1.1,3.1H478.4z"/>
	<path style="fill:#FFFFFF;" d="M488,228.7h-1.5l-1.2-2.1c-0.1-0.2-0.2-0.4-0.3-0.5c-0.1-0.1-0.2-0.2-0.3-0.3
		c-0.1-0.1-0.2-0.2-0.4-0.2c-0.1,0-0.3-0.1-0.4-0.1h-0.5v3.2H482v-7.8h2.6c0.4,0,0.7,0,1,0.1s0.6,0.2,0.8,0.4s0.4,0.4,0.5,0.7
		s0.2,0.6,0.2,0.9c0,0.3,0,0.5-0.1,0.8s-0.2,0.4-0.3,0.6s-0.3,0.3-0.5,0.5c-0.2,0.1-0.5,0.2-0.7,0.3l0,0c0.1,0.1,0.3,0.2,0.4,0.3
		s0.2,0.2,0.3,0.3c0.1,0.1,0.2,0.2,0.3,0.3s0.2,0.3,0.3,0.4L488,228.7z M483.3,222v2.5h1.1c0.2,0,0.4,0,0.6-0.1s0.3-0.2,0.4-0.3
		s0.2-0.3,0.3-0.4c0.1-0.2,0.1-0.4,0.1-0.6c0-0.4-0.1-0.7-0.4-0.9c-0.2-0.2-0.6-0.3-1-0.3h-1.1V222z"/>
	<path style="fill:#FFFFFF;" d="M497.3,228.7H496v-5c0-0.4,0-0.9,0.1-1.5l0,0c-0.1,0.3-0.2,0.6-0.2,0.7l-2.3,5.8h-0.9l-2.3-5.8
		c-0.1-0.2-0.1-0.4-0.2-0.8l0,0c0,0.3,0,0.8,0,1.5v5H489v-7.8h1.8l2.1,5.2c0.2,0.4,0.3,0.7,0.3,0.9l0,0c0.1-0.4,0.2-0.7,0.3-0.9
		l2.1-5.2h1.8L497.3,228.7L497.3,228.7z"/>
</g>
<rect x="486.8" y="215.3" style="fill:none;" width="16.1" height="19.2"/>
<path style="fill:none;" d="M505.7,213.9v21.9c0,0.8-0.6,1.4-1.4,1.4h-17.5v15.6h125V79.3h-125v133.2h17.5
	C505.1,212.5,505.7,213.2,505.7,213.9z"/>
<rect x="471.6" y="215.3" style="fill:none;" width="12.5" height="19.2"/>
<path style="fill:none;" d="M449.6,235.9V214c0-0.8,0.6-1.4,1.4-1.4h17.7V79.3h-125v173.5h125v-15.6H451
	C450.3,237.3,449.6,236.6,449.6,235.9z"/>
<rect x="452.4" y="215.3" style="fill:none;" width="16.3" height="19.2"/>
<rect x="486.8" y="175.4" style="fill:none;" width="13.3" height="19.2"/>
<rect x="455.2" y="175.4" style="fill:none;" width="13.6" height="19.2"/>
<path style="fill:none;" d="M484.6,53.7c-4.9,0-9-3.6-9.8-8.3C328,49.6,209.9,170.3,209.9,318c0,150.4,122.4,272.8,272.8,272.8
	S755.4,468.4,755.4,318c0-146.5-116.1-266.3-261-272.5C493.5,50.2,489.5,53.7,484.6,53.7z"/>
<path style="fill:#010101;" d="M677.6,123c-49.3-49.3-114-77.6-183.2-80.5c0.1,0.4,0.1,0.8,0.1,1.2c0,0.6-0.1,1.2-0.2,1.8
	c145,6.2,261,126,261,272.5c0,150.4-122.4,272.8-272.8,272.8S209.9,468.4,209.9,318c0-147.8,118.1-268.5,264.9-272.6
	c-0.1-0.5-0.1-1.1-0.1-1.6s0-0.9,0.1-1.4c-70.7,2-136.9,30.4-187.1,80.6c-52.1,52.1-80.8,121.3-80.8,195s28.7,142.9,80.8,195
	s121.3,80.8,195,80.8s142.9-28.7,195-80.8s80.8-121.3,80.8-195S729.7,175.1,677.6,123z"/>
<g>
	<path style="fill:#686969;" d="M434.4,148.1v3.5h-1.6v-9.8h3c1.1,0,2,0.3,2.6,0.8s0.9,1.3,0.9,2.2s-0.3,1.7-1,2.3
		c-0.6,0.6-1.5,0.9-2.6,0.9h-1.3V148.1z M434.4,143.3v3.6h1c0.7,0,1.2-0.2,1.6-0.5s0.5-0.8,0.5-1.4c0-1.1-0.7-1.7-2-1.7L434.4,143.3
		L434.4,143.3z"/>
	<path style="fill:#686969;" d="M448,151.7h-1.8l-0.9-2.5h-3.8l-0.8,2.5h-1.8l3.7-9.8h1.8L448,151.7z M444.9,147.9l-1.4-3.9
		c0-0.1-0.1-0.3-0.1-0.6l0,0c0,0.3-0.1,0.5-0.1,0.6l-1.3,3.9H444.9z"/>
	<path style="fill:#686969;" d="M457.3,151.7h-1.8l-0.9-2.5h-3.8l-0.8,2.5h-1.8l3.7-9.8h1.8L457.3,151.7z M454.2,147.9l-1.4-3.9
		c0-0.1-0.1-0.3-0.1-0.6l0,0c0,0.3-0.1,0.5-0.1,0.6l-1.3,3.9H454.2z"/>
	<path style="fill:#686969;" d="M458.2,151.3v-1.7c0.1,0.1,0.3,0.3,0.5,0.4c0.2,0.1,0.4,0.2,0.7,0.3c0.2,0.1,0.5,0.1,0.7,0.2
		c0.2,0,0.4,0.1,0.6,0.1c0.7,0,1.2-0.1,1.5-0.3s0.5-0.6,0.5-1c0-0.2-0.1-0.4-0.2-0.6s-0.3-0.3-0.5-0.5s-0.4-0.3-0.7-0.4
		c-0.3-0.1-0.6-0.3-0.9-0.4c-0.3-0.2-0.6-0.4-0.9-0.5c-0.3-0.2-0.5-0.4-0.7-0.6s-0.4-0.5-0.5-0.7s-0.2-0.6-0.2-1
		c0-0.5,0.1-0.9,0.3-1.2s0.5-0.6,0.8-0.8s0.7-0.4,1.2-0.5s0.9-0.2,1.3-0.2c1,0,1.8,0.1,2.2,0.3v1.6c-0.6-0.4-1.3-0.6-2.1-0.6
		c-0.2,0-0.5,0-0.7,0.1c-0.2,0-0.5,0.1-0.6,0.2s-0.3,0.2-0.5,0.4s-0.2,0.4-0.2,0.6c0,0.2,0,0.4,0.1,0.6c0.1,0.2,0.2,0.3,0.4,0.4
		c0.2,0.1,0.4,0.3,0.6,0.4c0.3,0.1,0.5,0.3,0.9,0.4c0.3,0.2,0.7,0.4,1,0.6c0.3,0.2,0.6,0.4,0.8,0.6c0.2,0.2,0.4,0.5,0.5,0.8
		s0.2,0.6,0.2,1c0,0.5-0.1,0.9-0.3,1.3c-0.2,0.3-0.5,0.6-0.8,0.8s-0.7,0.4-1.2,0.5c-0.4,0.1-0.9,0.1-1.4,0.1c-0.2,0-0.4,0-0.6,0
		s-0.5-0.1-0.7-0.1s-0.5-0.1-0.7-0.2C458.5,151.5,458.3,151.4,458.2,151.3z"/>
	<path style="fill:#686969;" d="M474.1,151.8c-1.4,0-2.5-0.5-3.4-1.4c-0.8-0.9-1.3-2.1-1.3-3.6c0-1.6,0.4-2.8,1.3-3.8
		c0.9-0.9,2-1.4,3.5-1.4c1.4,0,2.5,0.5,3.3,1.4s1.3,2.1,1.3,3.6c0,1.6-0.4,2.8-1.3,3.8C476.7,151.4,475.5,151.8,474.1,151.8z
		 M474.2,143.2c-0.9,0-1.6,0.3-2.2,1s-0.8,1.5-0.8,2.6s0.3,2,0.8,2.6c0.5,0.7,1.3,1,2.1,1c0.9,0,1.7-0.3,2.2-0.9
		c0.5-0.6,0.8-1.5,0.8-2.6c0-1.2-0.3-2.1-0.8-2.7S475.1,143.2,474.2,143.2z"/>
	<path style="fill:#686969;" d="M488.2,141.9l-3.5,9.8h-1.8l-3.4-9.8h1.8l2.4,7.4c0.1,0.2,0.1,0.5,0.2,0.8l0,0
		c0-0.3,0.1-0.5,0.2-0.8l2.5-7.4H488.2z"/>
	<path style="fill:#686969;" d="M495,151.7h-5.5v-9.8h5.3v1.4h-3.6v2.8h3.4v1.4h-3.4v2.9h3.9L495,151.7L495,151.7z"/>
	<path style="fill:#686969;" d="M504.3,151.7h-1.9l-1.6-2.6c-0.1-0.2-0.3-0.4-0.4-0.6s-0.3-0.3-0.4-0.4c-0.1-0.1-0.3-0.2-0.5-0.2
		s-0.3-0.1-0.6-0.1h-0.7v4h-1.6V142h3.2c0.5,0,0.9,0.1,1.3,0.2s0.7,0.3,1,0.5s0.5,0.5,0.7,0.8s0.2,0.7,0.2,1.2
		c0,0.3-0.1,0.7-0.2,0.9c-0.1,0.3-0.2,0.5-0.4,0.8s-0.4,0.4-0.7,0.6c-0.3,0.2-0.6,0.3-0.9,0.4l0,0c0.2,0.1,0.3,0.2,0.5,0.3
		c0.1,0.1,0.3,0.2,0.4,0.4s0.2,0.3,0.3,0.4c0.1,0.2,0.2,0.3,0.4,0.6L504.3,151.7z M498.3,143.2v3.2h1.3c0.2,0,0.5,0,0.7-0.1
		s0.4-0.2,0.5-0.3c0.2-0.1,0.3-0.3,0.4-0.5s0.1-0.4,0.1-0.7c0-0.5-0.1-0.8-0.4-1.1s-0.7-0.4-1.3-0.4L498.3,143.2L498.3,143.2z"/>
	<path style="fill:#686969;" d="M510.9,151.7h-1.7v-9.8h1.7V151.7z"/>
	<path style="fill:#686969;" d="M521.3,151.7h-1.8l-0.9-2.5h-3.8l-0.8,2.5h-1.8l3.7-9.8h1.8L521.3,151.7z M518.2,147.9l-1.4-3.9
		c0-0.1-0.1-0.3-0.1-0.6l0,0c0,0.3-0.1,0.5-0.1,0.6l-1.3,3.9H518.2z"/>
	<path style="fill:#686969;" d="M530.7,151.7h-1.8l-0.9-2.5h-3.8l-0.8,2.5h-1.8l3.7-9.8h1.8L530.7,151.7z M527.6,147.9l-1.4-3.9
		c0-0.1-0.1-0.3-0.1-0.6l0,0c0,0.3-0.1,0.5-0.1,0.6l-1.3,3.9H527.6z"/>
	<path style="fill:#686969;" d="M531.5,151.3v-1.7c0.1,0.1,0.3,0.3,0.5,0.4s0.4,0.2,0.7,0.3s0.5,0.1,0.7,0.2c0.2,0,0.4,0.1,0.6,0.1
		c0.7,0,1.2-0.1,1.5-0.3s0.5-0.6,0.5-1c0-0.2-0.1-0.4-0.2-0.6s-0.3-0.3-0.5-0.5s-0.4-0.3-0.7-0.4c-0.3-0.1-0.6-0.3-0.9-0.4
		c-0.3-0.2-0.6-0.4-0.9-0.5s-0.5-0.4-0.7-0.6s-0.4-0.5-0.5-0.7c-0.1-0.3-0.2-0.6-0.2-1c0-0.5,0.1-0.9,0.3-1.2s0.5-0.6,0.8-0.8
		s0.7-0.4,1.2-0.5c0.4-0.1,0.9-0.2,1.3-0.2c1,0,1.8,0.1,2.2,0.3v1.6c-0.6-0.4-1.3-0.6-2.1-0.6c-0.2,0-0.5,0-0.7,0.1
		c-0.2,0-0.5,0.1-0.6,0.2c-0.2,0.1-0.3,0.2-0.5,0.4c-0.1,0.2-0.2,0.4-0.2,0.6c0,0.2,0,0.4,0.1,0.6c0.1,0.2,0.2,0.3,0.4,0.4
		c0.2,0.1,0.4,0.3,0.6,0.4c0.3,0.1,0.5,0.3,0.9,0.4c0.3,0.2,0.7,0.4,1,0.6c0.3,0.2,0.6,0.4,0.8,0.6c0.2,0.2,0.4,0.5,0.5,0.8
		s0.2,0.6,0.2,1c0,0.5-0.1,0.9-0.3,1.3s-0.5,0.6-0.8,0.8s-0.7,0.4-1.2,0.5c-0.4,0.1-0.9,0.1-1.4,0.1c-0.2,0-0.4,0-0.6,0
		c-0.2,0-0.5-0.1-0.7-0.1c-0.3,0-0.5-0.1-0.7-0.2C531.9,151.5,531.7,151.4,531.5,151.3z"/>
</g>
<g>
	<polygon style="fill:#010101;" points="503.3,10.1 493.2,0 492,1.3 500.8,10.1 492,18.9 493.2,20.3 	"/>
	<polygon style="fill:#010101;" points="465.9,10.1 476.1,0 477.3,1.3 468.5,10.1 477.3,18.9 476.1,20.3 	"/>
	<path style="fill:#010101;" d="M480.1,10.1c0,1.2-1,2.3-2.3,2.3s-2.3-1-2.3-2.3s1-2.3,2.3-2.3S480.1,8.8,480.1,10.1L480.1,10.1z"/>
	<path style="fill:#010101;" d="M486.9,10.1c0-1.3-1-2.3-2.3-2.3s-2.3,1-2.3,2.3s1,2.3,2.3,2.3C485.9,12.4,486.9,11.4,486.9,10.1
		L486.9,10.1z"/>
	<path style="fill:#010101;" d="M493.8,10.1c0-1.3-1-2.3-2.3-2.3s-2.3,1-2.3,2.3s1,2.3,2.3,2.3C492.7,12.4,493.8,11.4,493.8,10.1
		L493.8,10.1z"/>
</g>
<g>
	<path style="fill:#686969;" d="M537.4,305.5v-7.8h2.3c2.9,0,4.3,1.3,4.3,3.8c0,1.2-0.4,2.2-1.2,2.9c-0.8,0.7-1.9,1.1-3.2,1.1H537.4
		z M538.7,298.8v5.6h1c0.9,0,1.6-0.3,2.1-0.8s0.8-1.2,0.8-2.1c0-1.8-0.9-2.7-2.8-2.7H538.7z"/>
	<path style="fill:#686969;" d="M548.6,305.6c-1.1,0-2-0.4-2.7-1.1s-1-1.7-1-2.8c0-1.3,0.3-2.3,1-3s1.6-1.1,2.8-1.1
		c1.1,0,2,0.4,2.6,1.1c0.7,0.7,1,1.7,1,2.8c0,1.3-0.3,2.3-1,3C550.7,305.2,549.8,305.6,548.6,305.6z M548.7,298.7
		c-0.7,0-1.3,0.3-1.7,0.8s-0.7,1.2-0.7,2.1s0.2,1.6,0.7,2.1c0.4,0.5,1,0.8,1.7,0.8s1.3-0.3,1.8-0.8c0.4-0.5,0.6-1.2,0.6-2.1
		s-0.2-1.7-0.6-2.2C550,298.9,549.4,298.7,548.7,298.7z"/>
	<path style="fill:#686969;" d="M559.3,305.2c-0.6,0.3-1.3,0.5-2.2,0.5c-1.1,0-2-0.4-2.7-1.1s-1-1.7-1-2.8c0-1.2,0.4-2.3,1.2-3
		c0.8-0.8,1.7-1.2,2.9-1.2c0.8,0,1.4,0.1,1.9,0.3v1.3c-0.5-0.3-1.1-0.5-1.7-0.5c-0.8,0-1.5,0.3-2.1,0.8c-0.5,0.5-0.8,1.3-0.8,2.2
		c0,0.9,0.2,1.5,0.7,2.1s1.1,0.8,1.9,0.8c0.7,0,1.4-0.2,1.9-0.5L559.3,305.2L559.3,305.2z"/>
	<path style="fill:#686969;" d="M566.6,305.5H565l-2.7-3.6c-0.1-0.1-0.2-0.2-0.2-0.3l0,0v3.8h-1.3v-7.8h1.3v3.7l0,0
		c0-0.1,0.1-0.2,0.2-0.3l2.6-3.4h1.6l-3.1,3.7L566.6,305.5z"/>
	<path style="fill:#686969;" d="M571.9,305.5h-4.4v-7.8h4.2v1.1h-2.9v2.2h2.7v1.1h-2.7v2.3h3.1L571.9,305.5L571.9,305.5z"/>
	<path style="fill:#686969;" d="M579.3,305.5h-1.5l-1.2-2.1c-0.1-0.2-0.2-0.4-0.3-0.5s-0.2-0.2-0.3-0.3c-0.1-0.1-0.2-0.2-0.4-0.2
		s-0.3-0.1-0.4-0.1h-0.5v3.2h-1.3v-7.8h2.6c0.4,0,0.7,0,1,0.1s0.6,0.2,0.8,0.4s0.4,0.4,0.5,0.7s0.2,0.6,0.2,0.9s0,0.5-0.1,0.8
		c-0.1,0.2-0.2,0.4-0.3,0.6s-0.3,0.3-0.5,0.5c-0.2,0.1-0.5,0.2-0.7,0.3l0,0c0.1,0.1,0.3,0.2,0.4,0.3c0.1,0.1,0.2,0.2,0.3,0.3
		c0.1,0.1,0.2,0.2,0.3,0.3c0.1,0.1,0.2,0.3,0.3,0.4L579.3,305.5z M574.6,298.7v2.5h1.1c0.2,0,0.4,0,0.6-0.1c0.2-0.1,0.3-0.2,0.4-0.3
		c0.1-0.1,0.2-0.3,0.3-0.4s0.1-0.4,0.1-0.6c0-0.4-0.1-0.7-0.4-0.9c-0.2-0.2-0.6-0.3-1-0.3L574.6,298.7L574.6,298.7z"/>
	<path style="fill:#686969;" d="M589.4,297.7l-2.8,7.8h-1.4l-2.8-7.8h1.4l1.9,5.9c0.1,0.2,0.1,0.4,0.1,0.7l0,0
		c0-0.2,0.1-0.4,0.2-0.7l2-5.9H589.4z"/>
	<path style="fill:#686969;" d="M598.8,305.5h-1.3v-5c0-0.4,0-0.9,0.1-1.5l0,0c-0.1,0.3-0.2,0.6-0.2,0.7l-2.3,5.8h-0.9l-2.3-5.8
		c-0.1-0.2-0.1-0.4-0.2-0.8l0,0c0,0.3,0,0.8,0,1.5v5h-1.2v-7.8h1.8l2.1,5.2c0.2,0.4,0.3,0.7,0.3,0.9l0,0c0.1-0.4,0.2-0.7,0.3-0.9
		l2.1-5.2h1.8L598.8,305.5L598.8,305.5z"/>
	<path style="fill:#686969;" d="M543.6,318.8h-4.4V311h4.2v1.1h-2.9v2.2h2.7v1.1h-2.7v2.3h3.1L543.6,318.8L543.6,318.8z"/>
	<path style="fill:#686969;" d="M550.9,318.8h-1.5l-1.6-2.9c0-0.1-0.1-0.2-0.2-0.4l0,0c0,0.1-0.1,0.2-0.2,0.4l-1.6,2.9h-1.6l2.6-3.9
		l-2.4-3.9h1.6l1.4,2.6c0.1,0.2,0.2,0.3,0.2,0.5l0,0c0.1-0.2,0.2-0.4,0.3-0.5l1.5-2.6h1.5l-2.4,3.9L550.9,318.8z"/>
	<path style="fill:#686969;" d="M557.2,312.1H555v6.7h-1.3v-6.7h-2.2V311h5.8L557.2,312.1L557.2,312.1z"/>
	<path style="fill:#686969;" d="M562.7,318.8h-4.4V311h4.2v1.1h-2.9v2.2h2.7v1.1h-2.7v2.3h3.1L562.7,318.8L562.7,318.8z"/>
	<path style="fill:#686969;" d="M570.7,318.8h-1.4l-3.7-5.7c-0.1-0.1-0.2-0.3-0.2-0.5l0,0c0,0.2,0,0.5,0,1.1v5.1h-1.3V311h1.5
		l3.6,5.6c0.2,0.2,0.3,0.4,0.3,0.5l0,0c0-0.2-0.1-0.6-0.1-1v-5h1.2v7.7L570.7,318.8L570.7,318.8z"/>
	<path style="fill:#686969;" d="M572.3,318.5v-1.3c0.1,0.1,0.3,0.2,0.4,0.3c0.2,0.1,0.3,0.2,0.5,0.2s0.4,0.1,0.6,0.1s0.4,0,0.5,0
		c0.5,0,0.9-0.1,1.2-0.3c0.3-0.2,0.4-0.4,0.4-0.8c0-0.2,0-0.3-0.1-0.5c-0.1-0.1-0.2-0.3-0.4-0.4s-0.3-0.2-0.6-0.3
		c-0.2-0.1-0.4-0.2-0.7-0.3c-0.3-0.1-0.5-0.3-0.7-0.4s-0.4-0.3-0.6-0.5c-0.2-0.2-0.3-0.4-0.4-0.6c-0.1-0.2-0.1-0.5-0.1-0.8
		c0-0.4,0.1-0.7,0.2-1c0.2-0.3,0.4-0.5,0.7-0.7s0.6-0.3,0.9-0.4c0.3-0.1,0.7-0.1,1.1-0.1c0.8,0,1.4,0.1,1.8,0.3v1.3
		c-0.4-0.3-1-0.5-1.7-0.5c-0.2,0-0.4,0-0.6,0.1c-0.2,0-0.4,0.1-0.5,0.2c-0.2,0.1-0.3,0.2-0.4,0.3c-0.1,0.1-0.1,0.3-0.1,0.5
		s0,0.3,0.1,0.5s0.2,0.2,0.3,0.3c0.1,0.1,0.3,0.2,0.5,0.3c0.2,0.1,0.4,0.2,0.7,0.3c0.3,0.1,0.5,0.3,0.8,0.4c0.2,0.2,0.5,0.3,0.6,0.5
		c0.2,0.2,0.3,0.4,0.4,0.6c0.1,0.2,0.2,0.5,0.2,0.8c0,0.4-0.1,0.7-0.2,1c-0.2,0.3-0.4,0.5-0.6,0.7c-0.3,0.2-0.6,0.3-0.9,0.4
		s-0.7,0.1-1.1,0.1c-0.1,0-0.3,0-0.5,0s-0.4,0-0.6-0.1s-0.4-0.1-0.6-0.1C572.6,318.7,572.4,318.6,572.3,318.5z"/>
	<path style="fill:#686969;" d="M580.1,318.8h-1.3V311h1.3V318.8z"/>
	<path style="fill:#686969;" d="M585.2,319c-1.1,0-2-0.4-2.7-1.1s-1-1.7-1-2.8c0-1.3,0.3-2.3,1-3s1.6-1.1,2.8-1.1
		c1.1,0,2,0.4,2.6,1.1c0.7,0.7,1,1.7,1,2.8c0,1.3-0.3,2.3-1,3C587.3,318.6,586.3,319,585.2,319z M585.3,312.1
		c-0.7,0-1.3,0.3-1.7,0.8s-0.7,1.2-0.7,2.1s0.2,1.6,0.7,2.1c0.4,0.5,1,0.8,1.7,0.8s1.3-0.3,1.8-0.8c0.4-0.5,0.6-1.2,0.6-2.1
		s-0.2-1.7-0.6-2.2C586.6,312.3,586,312.1,585.3,312.1z"/>
	<path style="fill:#686969;" d="M597,318.8h-1.4l-3.7-5.7c-0.1-0.1-0.2-0.3-0.2-0.5l0,0c0,0.2,0,0.5,0,1.1v5.1h-1.3V311h1.5l3.6,5.6
		c0.2,0.2,0.3,0.4,0.3,0.5l0,0c0-0.2-0.1-0.6-0.1-1v-5h1.2v7.7L597,318.8L597,318.8z"/>
</g>
<rect x="376.4" y="455.9" style="fill:none;stroke:#686969;stroke-width:3;stroke-linecap:round;stroke-linejoin:round;stroke-miterlimit:10;" width="64.9" height="18.4"/>
<rect x="523.5" y="455.9" style="fill:none;stroke:#686969;stroke-width:3;stroke-linecap:round;stroke-linejoin:round;stroke-miterlimit:10;" width="64.9" height="18.4"/>
<g>
	<path style="fill:#686969;" d="M367.2,305.5v-7.8h2.3c2.9,0,4.3,1.3,4.3,3.8c0,1.2-0.4,2.2-1.2,2.9c-0.8,0.7-1.9,1.1-3.2,1.1H367.2
		z M368.5,298.8v5.6h1c0.9,0,1.6-0.3,2.1-0.8s0.8-1.2,0.8-2.1c0-1.8-0.9-2.7-2.8-2.7H368.5z"/>
	<path style="fill:#686969;" d="M378.4,305.6c-1.1,0-2-0.4-2.7-1.1s-1-1.7-1-2.8c0-1.3,0.3-2.3,1-3s1.6-1.1,2.8-1.1
		c1.1,0,2,0.4,2.6,1.1c0.7,0.7,1,1.7,1,2.8c0,1.3-0.3,2.3-1,3C380.4,305.2,379.5,305.6,378.4,305.6z M378.4,298.7
		c-0.7,0-1.3,0.3-1.7,0.8c-0.4,0.5-0.7,1.2-0.7,2.1s0.2,1.6,0.7,2.1c0.4,0.5,1,0.8,1.7,0.8s1.3-0.3,1.8-0.8c0.4-0.5,0.6-1.2,0.6-2.1
		s-0.2-1.7-0.6-2.2S379.2,298.7,378.4,298.7z"/>
	<path style="fill:#686969;" d="M389,305.2c-0.6,0.3-1.3,0.5-2.2,0.5c-1.1,0-2-0.4-2.7-1.1s-1-1.7-1-2.8c0-1.2,0.4-2.3,1.2-3
		c0.8-0.8,1.7-1.2,2.9-1.2c0.8,0,1.4,0.1,1.9,0.3v1.3c-0.5-0.3-1.1-0.5-1.7-0.5c-0.8,0-1.5,0.3-2.1,0.8c-0.5,0.5-0.8,1.3-0.8,2.2
		c0,0.9,0.2,1.5,0.7,2.1c0.5,0.5,1.1,0.8,1.9,0.8c0.7,0,1.4-0.2,1.9-0.5L389,305.2L389,305.2z"/>
	<path style="fill:#686969;" d="M396.4,305.5h-1.7l-2.7-3.6c-0.1-0.1-0.2-0.2-0.2-0.3l0,0v3.8h-1.3v-7.8h1.3v3.7l0,0
		c0-0.1,0.1-0.2,0.2-0.3l2.6-3.4h1.6l-3.1,3.7L396.4,305.5z"/>
	<path style="fill:#686969;" d="M401.7,305.5h-4.4v-7.8h4.2v1.1h-2.9v2.2h2.7v1.1h-2.7v2.3h3.1L401.7,305.5L401.7,305.5z"/>
	<path style="fill:#686969;" d="M409.1,305.5h-1.5l-1.2-2.1c-0.1-0.2-0.2-0.4-0.3-0.5c-0.1-0.1-0.2-0.2-0.3-0.3s-0.2-0.2-0.4-0.2
		c-0.1,0-0.3-0.1-0.4-0.1h-0.5v3.2h-1.3v-7.8h2.6c0.4,0,0.7,0,1,0.1s0.6,0.2,0.8,0.4s0.4,0.4,0.5,0.7s0.2,0.6,0.2,0.9s0,0.5-0.1,0.8
		c-0.1,0.2-0.2,0.4-0.3,0.6s-0.3,0.3-0.5,0.5s-0.5,0.2-0.7,0.3l0,0c0.1,0.1,0.3,0.2,0.4,0.3c0.1,0.1,0.2,0.2,0.3,0.3
		c0.1,0.1,0.2,0.2,0.3,0.3c0.1,0.1,0.2,0.3,0.3,0.4L409.1,305.5z M404.4,298.7v2.5h1.1c0.2,0,0.4,0,0.6-0.1s0.3-0.2,0.4-0.3
		c0.1-0.1,0.2-0.3,0.3-0.4c0.1-0.2,0.1-0.4,0.1-0.6c0-0.4-0.1-0.7-0.4-0.9c-0.2-0.2-0.6-0.3-1-0.3L404.4,298.7L404.4,298.7z"/>
	<path style="fill:#686969;" d="M419.2,297.7l-2.8,7.8H415l-2.8-7.8h1.4l1.9,5.9c0.1,0.2,0.1,0.4,0.1,0.7l0,0c0-0.2,0.1-0.4,0.2-0.7
		l2-5.9H419.2z"/>
	<path style="fill:#686969;" d="M428.6,305.5h-1.3v-5c0-0.4,0-0.9,0.1-1.5l0,0c-0.1,0.3-0.2,0.6-0.2,0.7l-2.3,5.8H424l-2.3-5.8
		c-0.1-0.2-0.1-0.4-0.2-0.8l0,0c0,0.3,0,0.8,0,1.5v5h-1.2v-7.8h1.8l2.1,5.2c0.2,0.4,0.3,0.7,0.3,0.9l0,0c0.1-0.4,0.2-0.7,0.3-0.9
		l2.1-5.2h1.8L428.6,305.5L428.6,305.5z"/>
	<path style="fill:#686969;" d="M373.4,318.8H369V311h4.2v1.1h-2.9v2.2h2.7v1.1h-2.7v2.3h3.1L373.4,318.8L373.4,318.8z"/>
	<path style="fill:#686969;" d="M380.7,318.8h-1.5l-1.6-2.9c0-0.1-0.1-0.2-0.2-0.4l0,0c0,0.1-0.1,0.2-0.2,0.4l-1.6,2.9H374l2.6-3.9
		l-2.4-3.9h1.6l1.4,2.6c0.1,0.2,0.2,0.3,0.2,0.5l0,0c0.1-0.2,0.2-0.4,0.3-0.5l1.5-2.6h1.5l-2.4,3.9L380.7,318.8z"/>
	<path style="fill:#686969;" d="M387,312.1h-2.2v6.7h-1.3v-6.7h-2.2V311h5.8L387,312.1L387,312.1z"/>
	<path style="fill:#686969;" d="M392.5,318.8h-4.4V311h4.2v1.1h-2.9v2.2h2.7v1.1h-2.7v2.3h3.1L392.5,318.8L392.5,318.8z"/>
	<path style="fill:#686969;" d="M400.5,318.8h-1.4l-3.7-5.7c-0.1-0.1-0.2-0.3-0.2-0.5l0,0c0,0.2,0,0.5,0,1.1v5.1h-1.3V311h1.5
		l3.6,5.6c0.2,0.2,0.3,0.4,0.3,0.5l0,0c0-0.2-0.1-0.6-0.1-1v-5h1.2v7.7L400.5,318.8L400.5,318.8z"/>
	<path style="fill:#686969;" d="M402.1,318.5v-1.3c0.1,0.1,0.3,0.2,0.4,0.3c0.2,0.1,0.3,0.2,0.5,0.2c0.2,0.1,0.4,0.1,0.6,0.1
		s0.4,0,0.5,0c0.5,0,0.9-0.1,1.2-0.3c0.3-0.2,0.4-0.4,0.4-0.8c0-0.2,0-0.3-0.1-0.5s-0.2-0.3-0.4-0.4c-0.2-0.1-0.3-0.2-0.6-0.3
		s-0.4-0.2-0.7-0.3c-0.3-0.1-0.5-0.3-0.7-0.4s-0.4-0.3-0.6-0.5s-0.3-0.4-0.4-0.6s-0.1-0.5-0.1-0.8c0-0.4,0.1-0.7,0.2-1
		c0.2-0.3,0.4-0.5,0.7-0.7c0.3-0.2,0.6-0.3,0.9-0.4s0.7-0.1,1.1-0.1c0.8,0,1.4,0.1,1.8,0.3v1.3c-0.4-0.3-1-0.5-1.7-0.5
		c-0.2,0-0.4,0-0.6,0.1s-0.4,0.1-0.5,0.2c-0.2,0.1-0.3,0.2-0.4,0.3c-0.1,0.1-0.1,0.3-0.1,0.5s0,0.3,0.1,0.5s0.2,0.2,0.3,0.3
		c0.1,0.1,0.3,0.2,0.5,0.3c0.2,0.1,0.4,0.2,0.7,0.3c0.3,0.1,0.5,0.3,0.8,0.4c0.2,0.2,0.5,0.3,0.6,0.5c0.2,0.2,0.3,0.4,0.4,0.6
		s0.2,0.5,0.2,0.8c0,0.4-0.1,0.7-0.2,1c-0.2,0.3-0.4,0.5-0.6,0.7c-0.3,0.2-0.6,0.3-0.9,0.4s-0.7,0.1-1.1,0.1c-0.1,0-0.3,0-0.5,0
		s-0.4,0-0.6-0.1s-0.4-0.1-0.6-0.1C402.3,318.7,402.2,318.6,402.1,318.5z"/>
	<path style="fill:#686969;" d="M409.8,318.8h-1.3V311h1.3V318.8z"/>
	<path style="fill:#686969;" d="M415,319c-1.1,0-2-0.4-2.7-1.1s-1-1.7-1-2.8c0-1.3,0.3-2.3,1-3s1.6-1.1,2.8-1.1c1.1,0,2,0.4,2.6,1.1
		c0.7,0.7,1,1.7,1,2.8c0,1.3-0.3,2.3-1,3C417,318.6,416.1,319,415,319z M415,312.1c-0.7,0-1.3,0.3-1.7,0.8c-0.4,0.5-0.7,1.2-0.7,2.1
		s0.2,1.6,0.7,2.1c0.4,0.5,1,0.8,1.7,0.8s1.3-0.3,1.8-0.8c0.4-0.5,0.6-1.2,0.6-2.1s-0.2-1.7-0.6-2.2S415.8,312.1,415,312.1z"/>
	<path style="fill:#686969;" d="M426.8,318.8h-1.4l-3.7-5.7c-0.1-0.1-0.2-0.3-0.2-0.5l0,0c0,0.2,0,0.5,0,1.1v5.1h-1.3V311h1.5
		l3.6,5.6c0.2,0.2,0.3,0.4,0.3,0.5l0,0c0-0.2-0.1-0.6-0.1-1v-5h1.2v7.7L426.8,318.8L426.8,318.8z"/>
</g>
<g>
	<path style="fill:#686969;" d="M529,353.7h-1.4l-0.7-2h-3.1l-0.7,2h-1.4l2.9-7.8h1.5L529,353.7z M526.6,350.6l-1.1-3.1
		c0-0.1-0.1-0.3-0.1-0.5l0,0c0,0.2-0.1,0.4-0.1,0.5l-1.1,3.1H526.6z"/>
	<path style="fill:#686969;" d="M535.6,346.4l-4.3,6.1h4.2v1.1h-6V353l4.3-6.1h-4v-1.1h5.8V346.4z"/>
	<path style="fill:#686969;" d="M542.9,350.5c0,2.2-1,3.3-3.1,3.3c-2,0-3-1.1-3-3.2v-4.8h1.3v4.5c0,1.5,0.6,2.3,1.8,2.3
		c1.1,0,1.7-0.7,1.7-2.2v-4.6h1.3V350.5z"/>
	<path style="fill:#686969;" d="M550.7,353.7h-1.5l-1.2-2.1c-0.1-0.2-0.2-0.4-0.3-0.5s-0.2-0.2-0.3-0.3c-0.1-0.1-0.2-0.2-0.4-0.2
		s-0.3-0.1-0.4-0.1H546v3.2h-1.3v-7.8h2.6c0.4,0,0.7,0,1,0.1s0.6,0.2,0.8,0.4s0.4,0.4,0.5,0.7s0.2,0.6,0.2,0.9s0,0.5-0.1,0.8
		c-0.1,0.2-0.2,0.4-0.3,0.6s-0.3,0.3-0.5,0.5c-0.2,0.1-0.5,0.2-0.7,0.3l0,0c0.1,0.1,0.3,0.2,0.4,0.3c0.1,0.1,0.2,0.2,0.3,0.3
		c0.1,0.1,0.2,0.2,0.3,0.3c0.1,0.1,0.2,0.3,0.3,0.4L550.7,353.7z M546,346.9v2.5h1.1c0.2,0,0.4,0,0.6-0.1c0.2-0.1,0.3-0.2,0.4-0.3
		c0.1-0.1,0.2-0.3,0.3-0.4s0.1-0.4,0.1-0.6c0-0.4-0.1-0.7-0.4-0.9c-0.2-0.2-0.6-0.3-1-0.3L546,346.9L546,346.9z"/>
	<path style="fill:#686969;" d="M556,353.7h-4.4v-7.8h4.2v1.1h-2.9v2.2h2.7v1.1h-2.7v2.3h3.1L556,353.7L556,353.7z"/>
	<path style="fill:#686969;" d="M566.6,345.9l-2.8,7.8h-1.4l-2.8-7.8h1.4l1.9,5.9c0.1,0.2,0.1,0.4,0.1,0.7l0,0
		c0-0.2,0.1-0.4,0.2-0.7l2-5.9H566.6z"/>
	<path style="fill:#686969;" d="M576,353.7h-1.3v-5c0-0.4,0-0.9,0.1-1.5l0,0c-0.1,0.3-0.2,0.6-0.2,0.7l-2.3,5.8h-0.9l-2.3-5.8
		c-0.1-0.2-0.1-0.4-0.2-0.8l0,0c0,0.3,0,0.8,0,1.5v5h-1.2v-7.8h1.8l2.1,5.2c0.2,0.4,0.3,0.7,0.3,0.9l0,0c0.1-0.4,0.2-0.7,0.3-0.9
		l2.1-5.2h1.8L576,353.7L576,353.7z"/>
	<path style="fill:#686969;" d="M581,353.7v-7.8h2.5c0.8,0,1.4,0.2,1.8,0.5s0.7,0.8,0.7,1.3c0,0.4-0.1,0.8-0.4,1.2
		c-0.3,0.3-0.6,0.6-1,0.7l0,0c0.5,0.1,1,0.3,1.3,0.6c0.3,0.3,0.5,0.8,0.5,1.3c0,0.7-0.3,1.2-0.8,1.6s-1.2,0.6-2,0.6L581,353.7
		L581,353.7z M582.3,346.9v2.2h0.8c0.4,0,0.8-0.1,1.1-0.3s0.4-0.5,0.4-0.9c0-0.7-0.4-1-1.3-1L582.3,346.9L582.3,346.9z M582.3,350.2
		v2.5h1.1c0.5,0,0.9-0.1,1.1-0.3c0.3-0.2,0.4-0.5,0.4-0.9c0-0.8-0.6-1.2-1.7-1.2h-0.9L582.3,350.2L582.3,350.2z"/>
</g>
<g>
	<path style="fill:#686969;" d="M385.6,353.7h-1.4l-0.7-2h-3.1l-0.7,2h-1.4l2.9-7.8h1.5L385.6,353.7z M383.1,350.6l-1.1-3.1
		c0-0.1-0.1-0.3-0.1-0.5l0,0c0,0.2-0.1,0.4-0.1,0.5l-1.1,3.1H383.1z"/>
	<path style="fill:#686969;" d="M392.2,346.4l-4.3,6.1h4.2v1.1h-6V353l4.3-6.1h-4v-1.1h5.8V346.4z"/>
	<path style="fill:#686969;" d="M399.4,350.5c0,2.2-1,3.3-3.1,3.3c-2,0-3-1.1-3-3.2v-4.8h1.3v4.5c0,1.5,0.6,2.3,1.8,2.3
		c1.1,0,1.7-0.7,1.7-2.2v-4.6h1.3L399.4,350.5L399.4,350.5z"/>
	<path style="fill:#686969;" d="M407.3,353.7h-1.5l-1.2-2.1c-0.1-0.2-0.2-0.4-0.3-0.5c-0.1-0.1-0.2-0.2-0.3-0.3s-0.2-0.2-0.4-0.2
		c-0.1,0-0.3-0.1-0.4-0.1h-0.5v3.2h-1.3v-7.8h2.6c0.4,0,0.7,0,1,0.1s0.6,0.2,0.8,0.4s0.4,0.4,0.5,0.7s0.2,0.6,0.2,0.9s0,0.5-0.1,0.8
		c-0.1,0.2-0.2,0.4-0.3,0.6s-0.3,0.3-0.5,0.5s-0.5,0.2-0.7,0.3l0,0c0.1,0.1,0.3,0.2,0.4,0.3c0.1,0.1,0.2,0.2,0.3,0.3
		c0.1,0.1,0.2,0.2,0.3,0.3c0.1,0.1,0.2,0.3,0.3,0.4L407.3,353.7z M402.5,346.9v2.5h1.1c0.2,0,0.4,0,0.6-0.1s0.3-0.2,0.4-0.3
		c0.1-0.1,0.2-0.3,0.3-0.4c0.1-0.2,0.1-0.4,0.1-0.6c0-0.4-0.1-0.7-0.4-0.9c-0.2-0.2-0.6-0.3-1-0.3L402.5,346.9L402.5,346.9z"/>
	<path style="fill:#686969;" d="M412.6,353.7h-4.4v-7.8h4.2v1.1h-2.9v2.2h2.7v1.1h-2.7v2.3h3.1L412.6,353.7L412.6,353.7z"/>
	<path style="fill:#686969;" d="M423.1,345.9l-2.8,7.8h-1.4l-2.8-7.8h1.4l1.9,5.9c0.1,0.2,0.1,0.4,0.1,0.7l0,0
		c0-0.2,0.1-0.4,0.2-0.7l2-5.9H423.1z"/>
	<path style="fill:#686969;" d="M432.5,353.7h-1.3v-5c0-0.4,0-0.9,0.1-1.5l0,0c-0.1,0.3-0.2,0.6-0.2,0.7l-2.3,5.8h-0.9l-2.3-5.8
		c-0.1-0.2-0.1-0.4-0.2-0.8l0,0c0,0.3,0,0.8,0,1.5v5h-1.2v-7.8h1.8l2.1,5.2c0.2,0.4,0.3,0.7,0.3,0.9l0,0c0.1-0.4,0.2-0.7,0.3-0.9
		l2.1-5.2h1.8L432.5,353.7L432.5,353.7z"/>
	<path style="fill:#686969;" d="M443.9,353.7h-1.4l-0.7-2h-3.1l-0.7,2h-1.4l2.9-7.8h1.5L443.9,353.7z M441.5,350.6l-1.1-3.1
		c0-0.1-0.1-0.3-0.1-0.5l0,0c0,0.2-0.1,0.4-0.1,0.5l-1.1,3.1H441.5z"/>
</g>
<g>
	<path style="fill:#686969;" d="M457.3,298.9h16.3v-2.8h-17.7c-0.8,0-1.4,0.6-1.4,1.4v21.9c0,0.8,0.6,1.4,1.4,1.4h17.7V318h-16.3
		V298.9z"/>
	<path style="fill:#686969;" d="M507.8,298.9V318h-16.1v2.8h17.5c0.8,0,1.4-0.6,1.4-1.4v-21.9c0-0.8-0.6-1.4-1.4-1.4h-17.5v2.8
		H507.8z"/>
	<rect x="488.9" y="280.9" style="fill:#686969;" width="2.8" height="15.2"/>
	<path style="fill:#686969;" d="M618.1,160.1H490.3c-0.8,0-1.4,0.6-1.4,1.4v94.7h2.8v-93.3h125v173.5h-125v-15.6h-2.8v16.9
		c0,0.8,0.6,1.4,1.4,1.4h127.8c0.8,0,1.4-0.6,1.4-1.4V161.5C619.5,160.7,618.9,160.1,618.1,160.1z"/>
	<rect x="473.6" y="280.9" style="fill:#686969;" width="2.8" height="15.2"/>
	<path style="fill:#686969;" d="M475,160.1H347.2c-0.8,0-1.4,0.6-1.4,1.4v176.3c0,0.8,0.6,1.4,1.4,1.4H475c0.8,0,1.4-0.6,1.4-1.4
		v-16.9h-2.8v15.6h-125V162.9h125v93.3h2.8v-94.7C476.4,160.7,475.8,160.1,475,160.1z"/>
	<path style="fill:#686969;" d="M460.1,278.1V259h13.6v-2.8h-14.9c-0.8,0-1.4,0.6-1.4,1.4v21.9c0,0.8,0.6,1.4,1.4,1.4h14.9v-2.8
		H460.1z"/>
	<rect x="473.6" y="278.1" style="fill:#686969;" width="2.8" height="2.8"/>
	<rect x="473.6" y="256.2" style="fill:#686969;" width="2.8" height="2.8"/>
	<path style="fill:#686969;" d="M505,259v19.2h-13.3v2.8h14.7c0.8,0,1.4-0.6,1.4-1.4v-21.9c0-0.8-0.6-1.4-1.4-1.4h-14.7v2.8H505V259
		z"/>
	<rect x="488.9" y="256.2" style="fill:#686969;" width="2.8" height="2.8"/>
	<rect x="488.9" y="278.1" style="fill:#686969;" width="2.8" height="2.8"/>
	<rect x="488.9" y="296.1" style="fill:#686969;" width="2.8" height="2.8"/>
	<rect x="488.9" y="318" style="fill:#686969;" width="2.8" height="2.8"/>
	<rect x="473.6" y="318" style="fill:#686969;" width="2.8" height="2.8"/>
	<rect x="473.6" y="296.1" style="fill:#686969;" width="2.8" height="2.8"/>
</g>
<g>
	<path style="fill:#686969;" d="M472.7,273h-1.3v-7.8h1.3V273z"/>
	<path style="fill:#686969;" d="M481,273h-1.4l-0.7-2h-3.1l-0.7,2h-1.4l2.9-7.8h1.5L481,273z M478.6,270l-1.1-3.1
		c0-0.1-0.1-0.3-0.1-0.5l0,0c0,0.2-0.1,0.4-0.1,0.5l-1.1,3.1H478.6z"/>
	<path style="fill:#686969;" d="M488.5,273h-1.4l-0.7-2h-3.1l-0.7,2h-1.4l2.9-7.8h1.5L488.5,273z M486,270l-1.1-3.1
		c0-0.1-0.1-0.3-0.1-0.5l0,0c0,0.2-0.1,0.4-0.1,0.5l-1.1,3.1H486z"/>
	<path style="fill:#686969;" d="M489.2,272.7v-1.3c0.1,0.1,0.3,0.2,0.4,0.3c0.2,0.1,0.3,0.2,0.5,0.2s0.4,0.1,0.6,0.1s0.4,0,0.5,0
		c0.5,0,0.9-0.1,1.2-0.3c0.3-0.2,0.4-0.4,0.4-0.8c0-0.2,0-0.3-0.1-0.5c-0.1-0.1-0.2-0.3-0.4-0.4s-0.3-0.2-0.6-0.3
		c-0.2-0.1-0.4-0.2-0.7-0.3c-0.3-0.1-0.5-0.3-0.7-0.4s-0.4-0.3-0.6-0.5s-0.3-0.4-0.4-0.6s-0.1-0.5-0.1-0.8c0-0.4,0.1-0.7,0.2-1
		c0.2-0.3,0.4-0.5,0.7-0.7c0.3-0.2,0.6-0.3,0.9-0.4s0.7-0.1,1.1-0.1c0.8,0,1.4,0.1,1.8,0.3v1.3c-0.4-0.3-1-0.5-1.7-0.5
		c-0.2,0-0.4,0-0.6,0.1c-0.2,0-0.4,0.1-0.5,0.2c-0.2,0.1-0.3,0.2-0.4,0.3c-0.1,0.1-0.1,0.3-0.1,0.5s0,0.3,0.1,0.5s0.2,0.2,0.3,0.3
		c0.1,0.1,0.3,0.2,0.5,0.3c0.2,0.1,0.4,0.2,0.7,0.3c0.3,0.1,0.5,0.3,0.8,0.4c0.2,0.2,0.5,0.3,0.6,0.5c0.2,0.2,0.3,0.4,0.4,0.6
		s0.2,0.5,0.2,0.8c0,0.4-0.1,0.7-0.2,1c-0.2,0.3-0.4,0.5-0.6,0.7c-0.3,0.2-0.6,0.3-0.9,0.4s-0.7,0.1-1.1,0.1c-0.1,0-0.3,0-0.5,0
		s-0.4,0-0.6-0.1s-0.4-0.1-0.6-0.1C489.5,272.9,489.3,272.8,489.2,272.7z"/>
</g>
<g>
	<path style="fill:#686969;" d="M462.6,311.9v-1.3c0.1,0.1,0.3,0.2,0.4,0.3c0.2,0.1,0.3,0.2,0.5,0.2c0.2,0.1,0.4,0.1,0.6,0.1
		s0.4,0,0.5,0c0.5,0,0.9-0.1,1.2-0.3c0.3-0.2,0.4-0.4,0.4-0.8c0-0.2,0-0.3-0.1-0.5s-0.2-0.3-0.4-0.4c-0.2-0.1-0.3-0.2-0.6-0.3
		s-0.4-0.2-0.7-0.3c-0.3-0.1-0.5-0.3-0.7-0.4s-0.4-0.3-0.6-0.5s-0.3-0.4-0.4-0.6s-0.1-0.5-0.1-0.8c0-0.4,0.1-0.7,0.2-1
		c0.2-0.3,0.4-0.5,0.7-0.7c0.3-0.2,0.6-0.3,0.9-0.4s0.7-0.1,1.1-0.1c0.8,0,1.4,0.1,1.8,0.3v1.3c-0.4-0.3-1-0.5-1.7-0.5
		c-0.2,0-0.4,0-0.6,0.1s-0.4,0.1-0.5,0.2c-0.2,0.1-0.3,0.2-0.4,0.3c-0.1,0.1-0.1,0.3-0.1,0.5s0,0.3,0.1,0.5s0.2,0.2,0.3,0.3
		c0.1,0.1,0.3,0.2,0.5,0.3c0.2,0.1,0.4,0.2,0.7,0.3c0.3,0.1,0.5,0.3,0.8,0.4c0.2,0.2,0.5,0.3,0.6,0.5c0.2,0.2,0.3,0.4,0.4,0.6
		s0.2,0.5,0.2,0.8c0,0.4-0.1,0.7-0.2,1c-0.2,0.3-0.4,0.5-0.6,0.7c-0.3,0.2-0.6,0.3-0.9,0.4s-0.7,0.1-1.1,0.1c-0.1,0-0.3,0-0.5,0
		s-0.4,0-0.6-0.1s-0.4-0.1-0.6-0.1C462.8,312.1,462.7,312,462.6,311.9z"/>
	<path style="fill:#686969;" d="M478.7,304.5l-2.1,7.8h-1.5l-1.5-5.5c-0.1-0.2-0.1-0.5-0.1-0.8l0,0c0,0.3-0.1,0.5-0.1,0.8l-1.5,5.5
		h-1.5l-2.2-7.8h1.4l1.4,5.7c0.1,0.2,0.1,0.5,0.1,0.8l0,0c0-0.2,0.1-0.4,0.2-0.8l1.6-5.7h1.3l1.5,5.8c0.1,0.2,0.1,0.4,0.1,0.7l0,0
		c0-0.2,0.1-0.4,0.1-0.7l1.4-5.7L478.7,304.5L478.7,304.5z"/>
	<path style="fill:#686969;" d="M485.8,312.3h-1.4l-0.7-2h-3.1l-0.7,2h-1.4l2.9-7.8h1.5L485.8,312.3z M483.3,309.2l-1.1-3.1
		c0-0.1-0.1-0.3-0.1-0.5l0,0c0,0.2-0.1,0.4-0.1,0.5l-1.1,3.1H483.3z"/>
	<path style="fill:#686969;" d="M492.9,312.3h-1.5l-1.2-2.1c-0.1-0.2-0.2-0.4-0.3-0.5c-0.1-0.1-0.2-0.2-0.3-0.3
		c-0.1-0.1-0.2-0.2-0.4-0.2c-0.1,0-0.3-0.1-0.4-0.1h-0.5v3.2H487v-7.8h2.6c0.4,0,0.7,0,1,0.1s0.6,0.2,0.8,0.4s0.4,0.4,0.5,0.7
		s0.2,0.6,0.2,0.9s0,0.5-0.1,0.8s-0.2,0.4-0.3,0.6s-0.3,0.3-0.5,0.5c-0.2,0.1-0.5,0.2-0.7,0.3l0,0c0.1,0.1,0.3,0.2,0.4,0.3
		c0.1,0.1,0.2,0.2,0.3,0.3c0.1,0.1,0.2,0.2,0.3,0.3s0.2,0.3,0.3,0.4L492.9,312.3z M488.1,305.5v2.5h1.1c0.2,0,0.4,0,0.6-0.1
		s0.3-0.2,0.4-0.3s0.2-0.3,0.3-0.4c0.1-0.2,0.1-0.4,0.1-0.6c0-0.4-0.1-0.7-0.4-0.9c-0.2-0.2-0.6-0.3-1-0.3L488.1,305.5L488.1,305.5z
		"/>
	<path style="fill:#686969;" d="M502.1,312.3h-1.3v-5c0-0.4,0-0.9,0.1-1.5l0,0c-0.1,0.3-0.2,0.6-0.2,0.7l-2.3,5.8h-0.9l-2.3-5.8
		c-0.1-0.2-0.1-0.4-0.2-0.8l0,0c0,0.3,0,0.8,0,1.5v5h-1.2v-7.8h1.8l2.1,5.2c0.2,0.4,0.3,0.7,0.3,0.9l0,0c0.1-0.4,0.2-0.7,0.3-0.9
		l2.1-5.2h1.8L502.1,312.3L502.1,312.3z"/>
</g>
<path style="fill:none;stroke:#686969;stroke-width:3;stroke-linecap:round;stroke-linejoin:round;stroke-miterlimit:10;" d="
	M471.3,398.9H308.7c-4.5,0-8,3-7.6,6.5c6.1,52.2,102.8,122.2,170.1,123.4c1.8,0,3.2-1.1,3.2-2.5v-125
	C474.5,400,473.1,398.9,471.3,398.9z"/>
<path style="fill:none;stroke:#686969;stroke-width:3;stroke-linecap:round;stroke-linejoin:round;stroke-miterlimit:10;" d="
	M494.9,398.9h162.7c4.5,0,8,3,7.6,6.5c-6.1,52.2-102.8,122.2-170.1,123.4c-1.8,0-3.2-1.1-3.2-2.5v-125
	C491.8,400,493.2,398.9,494.9,398.9z"/>
<g>
	<path style="fill:#686969;" d="M420.3,487v2.8H419V482h2.4c0.9,0,1.6,0.2,2.1,0.6s0.7,1,0.7,1.8s-0.3,1.4-0.8,1.9s-1.2,0.7-2.1,0.7
		H420.3z M420.3,483v2.9h0.8c0.6,0,1-0.1,1.3-0.4s0.4-0.6,0.4-1.1c0-0.9-0.5-1.4-1.6-1.4H420.3z"/>
	<path style="fill:#686969;" d="M428.7,485.4c-0.2-0.1-0.4-0.2-0.7-0.2c-0.4,0-0.7,0.2-0.9,0.5s-0.4,0.8-0.4,1.4v2.7h-1.3v-5.6h1.3
		v1.2l0,0c0.1-0.4,0.3-0.7,0.6-0.9c0.3-0.2,0.5-0.3,0.9-0.3c0.2,0,0.4,0,0.5,0.1V485.4z"/>
	<path style="fill:#686969;" d="M430.3,483c-0.2,0-0.4-0.1-0.5-0.2s-0.2-0.3-0.2-0.5s0.1-0.4,0.2-0.5s0.3-0.2,0.5-0.2
		s0.4,0.1,0.5,0.2s0.2,0.3,0.2,0.5s-0.1,0.4-0.2,0.5C430.6,483,430.5,483,430.3,483z M430.9,489.8h-1.3v-5.6h1.3V489.8z"/>
	<path style="fill:#686969;" d="M440.9,489.8h-1.3v-3.1c0-0.6-0.1-1-0.3-1.3s-0.4-0.4-0.8-0.4c-0.3,0-0.6,0.2-0.8,0.5
		c-0.2,0.3-0.3,0.7-0.3,1.2v3h-1.3v-3.2c0-1-0.4-1.6-1.1-1.6c-0.3,0-0.6,0.2-0.8,0.5c-0.2,0.3-0.3,0.7-0.3,1.2v3h-1.3V484h1.3v0.9
		l0,0c0.4-0.7,1-1,1.8-1c0.4,0,0.7,0.1,1,0.3c0.3,0.2,0.5,0.5,0.6,0.8c0.4-0.8,1-1.2,1.9-1.2c1.2,0,1.9,0.8,1.9,2.3v3.7L440.9,489.8
		L440.9,489.8z"/>
	<path style="fill:#686969;" d="M446.8,489.8h-1.2v-0.9l0,0c-0.4,0.7-1,1-1.7,1c-0.6,0-1-0.2-1.3-0.4c-0.3-0.3-0.5-0.7-0.5-1.2
		c0-1.1,0.6-1.7,1.8-1.9l1.7-0.2c0-0.8-0.4-1.2-1.1-1.2s-1.3,0.2-1.8,0.7v-1.1c0.6-0.4,1.3-0.5,2-0.5c1.4,0,2.1,0.7,2.1,2.1V489.8z
		 M445.6,487.1l-1.2,0.2c-0.4,0-0.6,0.1-0.8,0.3c-0.2,0.1-0.3,0.4-0.3,0.7c0,0.2,0.1,0.4,0.3,0.6c0.2,0.2,0.4,0.2,0.7,0.2
		c0.4,0,0.7-0.1,1-0.4s0.4-0.6,0.4-1v-0.6L445.6,487.1L445.6,487.1z"/>
	<path style="fill:#686969;" d="M451.6,485.4c-0.2-0.1-0.4-0.2-0.7-0.2c-0.4,0-0.7,0.2-0.9,0.5s-0.4,0.8-0.4,1.4v2.7h-1.3v-5.6h1.3
		v1.2l0,0c0.1-0.4,0.3-0.7,0.6-0.9c0.3-0.2,0.5-0.3,0.9-0.3c0.2,0,0.4,0,0.5,0.1V485.4z"/>
	<path style="fill:#686969;" d="M457.8,484.2l-2.5,6.5c-0.5,1.2-1.3,1.7-2.2,1.7c-0.3,0-0.5,0-0.7-0.1v-1.1c0.2,0.1,0.4,0.1,0.5,0.1
		c0.5,0,0.8-0.2,1.1-0.7l0.4-0.9l-2.2-5.6h1.4l1.3,4.1c0,0.1,0,0.2,0.1,0.4l0,0c0-0.1,0.1-0.2,0.1-0.4l1.4-4.1h1.3L457.8,484.2
		L457.8,484.2z"/>
	<path style="fill:#686969;" d="M411.7,503.3v-7.9h2.3c2.9,0,4.3,1.3,4.3,3.8c0,1.2-0.4,2.2-1.2,2.9c-0.8,0.7-1.9,1.1-3.2,1.1h-2.2
		L411.7,503.3L411.7,503.3z M413,496.5v5.6h1c0.9,0,1.6-0.3,2.1-0.8s0.8-1.2,0.8-2.1c0-1.8-1-2.8-2.9-2.8L413,496.5L413,496.5z"/>
	<path style="fill:#686969;" d="M423.9,503.3h-1.2v-0.9l0,0c-0.4,0.7-1,1-1.7,1c-0.6,0-1-0.2-1.3-0.4c-0.3-0.3-0.5-0.7-0.5-1.2
		c0-1.1,0.6-1.7,1.8-1.9l1.7-0.2c0-0.8-0.4-1.2-1.1-1.2s-1.3,0.2-1.8,0.7v-1.1c0.6-0.4,1.3-0.5,2-0.5c1.4,0,2.1,0.7,2.1,2.1V503.3z
		 M422.7,500.5l-1.2,0.2c-0.4,0-0.6,0.1-0.8,0.3c-0.2,0.1-0.3,0.4-0.3,0.7c0,0.2,0.1,0.4,0.3,0.6c0.2,0.2,0.4,0.2,0.7,0.2
		c0.4,0,0.7-0.1,1-0.4s0.4-0.6,0.4-1v-0.6L422.7,500.5L422.7,500.5z"/>
	<path style="fill:#686969;" d="M428.4,503.2c-0.2,0.1-0.6,0.2-1,0.2c-1.1,0-1.6-0.5-1.6-1.6v-3.2h-0.9v-1h0.9v-1.3l1.3-0.4v1.7h1.3
		v1h-1.3v2.8c0,0.3,0.1,0.6,0.2,0.7s0.3,0.2,0.6,0.2c0.2,0,0.4-0.1,0.6-0.2v1.1L428.4,503.2L428.4,503.2z"/>
	<path style="fill:#686969;" d="M433.8,503.3h-1.2v-0.9l0,0c-0.4,0.7-1,1-1.7,1c-0.6,0-1-0.2-1.3-0.4c-0.3-0.3-0.5-0.7-0.5-1.2
		c0-1.1,0.6-1.7,1.8-1.9l1.7-0.2c0-0.8-0.4-1.2-1.1-1.2s-1.3,0.2-1.8,0.7v-1.1c0.6-0.4,1.3-0.5,2-0.5c1.4,0,2.1,0.7,2.1,2.1V503.3z
		 M432.6,500.5l-1.2,0.2c-0.4,0-0.6,0.1-0.8,0.3c-0.2,0.1-0.3,0.4-0.3,0.7c0,0.2,0.1,0.4,0.3,0.6c0.2,0.2,0.4,0.2,0.7,0.2
		c0.4,0,0.7-0.1,1-0.4s0.4-0.6,0.4-1v-0.6L432.6,500.5L432.6,500.5z"/>
	<path style="fill:#686969;" d="M436.7,502.5L436.7,502.5v0.8h-1.3V495h1.3v3.7l0,0c0.4-0.7,1.1-1.1,1.9-1.1c0.7,0,1.3,0.3,1.7,0.8
		c0.4,0.5,0.6,1.2,0.6,2c0,0.9-0.2,1.7-0.7,2.3s-1.1,0.8-1.8,0.8C437.6,503.4,437,503.1,436.7,502.5z M436.6,500.2v0.7
		c0,0.4,0.1,0.8,0.4,1c0.3,0.3,0.6,0.4,1,0.4c0.5,0,0.8-0.2,1.1-0.6s0.4-0.9,0.4-1.5s-0.1-1-0.4-1.3s-0.6-0.5-1-0.5
		c-0.5,0-0.8,0.2-1.1,0.5C436.8,499.4,436.6,499.8,436.6,500.2z"/>
	<path style="fill:#686969;" d="M446.3,503.3h-1.2v-0.9l0,0c-0.4,0.7-1,1-1.7,1c-0.6,0-1-0.2-1.3-0.4c-0.3-0.3-0.5-0.7-0.5-1.2
		c0-1.1,0.6-1.7,1.8-1.9l1.7-0.2c0-0.8-0.4-1.2-1.1-1.2s-1.3,0.2-1.8,0.7v-1.1c0.6-0.4,1.3-0.5,2-0.5c1.4,0,2.1,0.7,2.1,2.1V503.3z
		 M445.1,500.5l-1.2,0.2c-0.4,0-0.6,0.1-0.8,0.3c-0.2,0.1-0.3,0.4-0.3,0.7c0,0.2,0.1,0.4,0.3,0.6c0.2,0.2,0.4,0.2,0.7,0.2
		c0.4,0,0.7-0.1,1-0.4s0.4-0.6,0.4-1v-0.6L445.1,500.5L445.1,500.5z"/>
	<path style="fill:#686969;" d="M447.5,503.1v-1.2c0.5,0.4,1,0.5,1.6,0.5c0.8,0,1.2-0.2,1.2-0.7c0-0.1,0-0.2-0.1-0.3
		c-0.1-0.1-0.2-0.2-0.3-0.2c-0.1-0.1-0.2-0.1-0.4-0.2c-0.2-0.1-0.3-0.1-0.5-0.2s-0.4-0.2-0.6-0.3s-0.3-0.2-0.5-0.3
		c-0.1-0.1-0.2-0.3-0.3-0.4s-0.1-0.4-0.1-0.6c0-0.3,0.1-0.5,0.2-0.7s0.3-0.4,0.5-0.5s0.5-0.2,0.7-0.3c0.3-0.1,0.6-0.1,0.8-0.1
		c0.5,0,1,0.1,1.4,0.2v1.1c-0.4-0.3-0.8-0.4-1.4-0.4c-0.2,0-0.3,0-0.4,0s-0.2,0.1-0.3,0.1c-0.1,0.1-0.2,0.1-0.2,0.2
		c-0.1,0.1-0.1,0.2-0.1,0.3c0,0.1,0,0.2,0.1,0.3c0.1,0.1,0.1,0.2,0.2,0.2s0.2,0.1,0.4,0.2c0.1,0.1,0.3,0.1,0.5,0.2s0.5,0.2,0.6,0.3
		s0.4,0.2,0.5,0.3s0.2,0.3,0.3,0.4s0.1,0.4,0.1,0.6c0,0.3-0.1,0.5-0.2,0.7s-0.3,0.4-0.5,0.5s-0.5,0.2-0.8,0.3
		c-0.3,0.1-0.6,0.1-0.9,0.1C448.5,503.4,447.9,503.3,447.5,503.1z"/>
	<path style="fill:#686969;" d="M457.4,500.8h-3.8c0,0.5,0.2,0.9,0.5,1.2c0.3,0.3,0.7,0.4,1.3,0.4c0.6,0,1.1-0.2,1.6-0.5v1
		c-0.5,0.3-1.2,0.5-2,0.5s-1.5-0.3-1.9-0.8c-0.5-0.5-0.7-1.2-0.7-2.2c0-0.9,0.3-1.6,0.8-2.1s1.2-0.8,1.9-0.8c0.8,0,1.4,0.2,1.8,0.7
		s0.6,1.2,0.6,2.1L457.4,500.8L457.4,500.8z M456.2,499.9c0-0.5-0.1-0.8-0.3-1.1s-0.5-0.4-0.9-0.4s-0.7,0.1-0.9,0.4s-0.4,0.6-0.5,1
		h2.6L456.2,499.9L456.2,499.9z"/>
</g>
<g>
	<path style="fill:#686969;" d="M506.8,489.5v-1.3c0.1,0.1,0.3,0.2,0.4,0.3c0.2,0.1,0.3,0.2,0.5,0.2c0.2,0.1,0.4,0.1,0.6,0.1
		s0.4,0,0.5,0c0.5,0,1-0.1,1.2-0.3c0.3-0.2,0.4-0.4,0.4-0.8c0-0.2,0-0.3-0.1-0.5c-0.1-0.1-0.2-0.3-0.4-0.4c-0.2-0.1-0.3-0.2-0.6-0.3
		c-0.2-0.1-0.4-0.2-0.7-0.3c-0.3-0.1-0.5-0.3-0.7-0.4s-0.4-0.3-0.6-0.5s-0.3-0.4-0.4-0.6s-0.1-0.5-0.1-0.8c0-0.4,0.1-0.7,0.2-1
		c0.2-0.3,0.4-0.5,0.7-0.7c0.3-0.2,0.6-0.3,0.9-0.4s0.7-0.1,1.1-0.1c0.8,0,1.4,0.1,1.8,0.3v1.3c-0.4-0.3-1-0.5-1.7-0.5
		c-0.2,0-0.4,0-0.6,0.1c-0.2,0-0.4,0.1-0.5,0.2c-0.2,0.1-0.3,0.2-0.4,0.3c-0.1,0.1-0.1,0.3-0.1,0.5s0,0.3,0.1,0.5
		c0.1,0.1,0.2,0.2,0.3,0.4c0.1,0.1,0.3,0.2,0.5,0.3s0.4,0.2,0.7,0.3c0.3,0.1,0.5,0.3,0.8,0.4c0.2,0.2,0.5,0.3,0.6,0.5
		c0.2,0.2,0.3,0.4,0.4,0.6s0.2,0.5,0.2,0.8c0,0.4-0.1,0.7-0.2,1c-0.2,0.3-0.4,0.5-0.7,0.7c-0.3,0.2-0.6,0.3-0.9,0.4
		c-0.4,0.1-0.7,0.1-1.1,0.1c-0.1,0-0.3,0-0.5,0s-0.4,0-0.6-0.1s-0.4-0.1-0.6-0.1C507.1,489.6,507,489.6,506.8,489.5z"/>
	<path style="fill:#686969;" d="M517.9,487.4h-3.8c0,0.5,0.2,0.9,0.5,1.2c0.3,0.3,0.7,0.4,1.3,0.4s1.1-0.2,1.7-0.5v1
		c-0.5,0.3-1.2,0.5-2,0.5s-1.5-0.3-1.9-0.8S513,488,513,487c0-0.9,0.3-1.6,0.8-2.1s1.2-0.8,1.9-0.8s1.4,0.2,1.8,0.7
		c0.4,0.5,0.6,1.2,0.6,2.1v0.5L517.9,487.4L517.9,487.4z M516.7,486.5c0-0.5-0.1-0.8-0.3-1.1c-0.2-0.3-0.5-0.4-0.9-0.4
		s-0.7,0.1-0.9,0.4s-0.4,0.6-0.5,1h2.6L516.7,486.5L516.7,486.5z"/>
	<path style="fill:#686969;" d="M523.2,489.6c-0.4,0.3-1,0.4-1.6,0.4c-0.8,0-1.5-0.3-2-0.8s-0.8-1.2-0.8-2c0-0.9,0.3-1.7,0.8-2.2
		c0.5-0.6,1.3-0.8,2.2-0.8c0.5,0,1,0.1,1.4,0.3v1.2c-0.4-0.3-0.8-0.4-1.3-0.4s-1,0.2-1.3,0.5s-0.5,0.8-0.5,1.4s0.2,1,0.5,1.4
		c0.3,0.3,0.8,0.5,1.3,0.5s0.9-0.2,1.3-0.5L523.2,489.6L523.2,489.6z"/>
	<path style="fill:#686969;" d="M526.9,489.9c-0.9,0-1.6-0.3-2.1-0.8s-0.8-1.2-0.8-2.1s0.3-1.7,0.8-2.2s1.3-0.8,2.2-0.8
		s1.6,0.3,2,0.8c0.5,0.5,0.7,1.2,0.7,2.1s-0.3,1.6-0.8,2.2S527.8,489.9,526.9,489.9z M527,485.1c-0.5,0-0.9,0.2-1.2,0.5
		s-0.4,0.8-0.4,1.4s0.1,1.1,0.4,1.4c0.3,0.3,0.7,0.5,1.2,0.5s0.9-0.2,1.2-0.5s0.4-0.8,0.4-1.4s-0.1-1.1-0.4-1.4
		C527.8,485.3,527.5,485.1,527,485.1z"/>
	<path style="fill:#686969;" d="M536.1,489.8h-1.3v-3.2c0-1-0.4-1.6-1.1-1.6c-0.4,0-0.7,0.1-1,0.4s-0.4,0.7-0.4,1.1v3.2H531v-5.6
		h1.3v0.9l0,0c0.4-0.7,1-1.1,1.8-1.1c0.6,0,1.1,0.2,1.4,0.6s0.5,1,0.5,1.7L536.1,489.8L536.1,489.8z"/>
	<path style="fill:#686969;" d="M542.8,489.8h-1.3v-1l0,0c-0.4,0.7-1,1.1-1.9,1.1c-0.7,0-1.2-0.3-1.7-0.8c-0.4-0.5-0.6-1.2-0.6-2.1
		s0.2-1.7,0.7-2.2c0.5-0.6,1.1-0.8,1.8-0.8c0.8,0,1.3,0.3,1.7,0.9l0,0v-3.5h1.3V489.8z M541.5,487.2v-0.7c0-0.4-0.1-0.7-0.4-1
		c-0.3-0.3-0.6-0.4-1-0.4c-0.5,0-0.8,0.2-1.1,0.5c-0.3,0.4-0.4,0.8-0.4,1.5c0,0.6,0.1,1,0.4,1.4c0.3,0.3,0.6,0.5,1.1,0.5
		c0.4,0,0.8-0.2,1.1-0.5C541.4,488.1,541.5,487.7,541.5,487.2z"/>
	<path style="fill:#686969;" d="M548.7,489.8h-1.2v-0.9l0,0c-0.4,0.7-1,1-1.7,1c-0.6,0-1-0.2-1.3-0.4c-0.3-0.3-0.5-0.7-0.5-1.2
		c0-1.1,0.6-1.7,1.8-1.9l1.7-0.2c0-0.8-0.4-1.2-1.1-1.2c-0.7,0-1.3,0.2-1.8,0.7v-1.1c0.6-0.4,1.3-0.5,2-0.5c1.4,0,2.1,0.7,2.1,2.1
		V489.8z M547.5,487.1l-1.2,0.2c-0.4,0-0.6,0.1-0.8,0.3c-0.2,0.1-0.3,0.4-0.3,0.7c0,0.2,0.1,0.4,0.3,0.6s0.4,0.2,0.7,0.2
		c0.4,0,0.7-0.1,1-0.4s0.4-0.6,0.4-1v-0.6L547.5,487.1L547.5,487.1z"/>
	<path style="fill:#686969;" d="M553.5,485.4c-0.2-0.1-0.4-0.2-0.7-0.2c-0.4,0-0.7,0.2-0.9,0.5s-0.4,0.8-0.4,1.4v2.7h-1.3v-5.6h1.3
		v1.2l0,0c0.1-0.4,0.3-0.7,0.6-0.9s0.5-0.3,0.9-0.3c0.2,0,0.4,0,0.5,0.1L553.5,485.4L553.5,485.4z"/>
	<path style="fill:#686969;" d="M559.7,484.2l-2.5,6.5c-0.5,1.2-1.3,1.7-2.2,1.7c-0.3,0-0.5,0-0.7-0.1v-1.1c0.2,0.1,0.4,0.1,0.5,0.1
		c0.5,0,0.8-0.2,1.1-0.7l0.4-0.9l-2.2-5.6h1.4l1.3,4.1c0,0.1,0,0.2,0.1,0.4l0,0c0-0.1,0.1-0.2,0.1-0.4l1.4-4.1h1.3L559.7,484.2
		L559.7,484.2z"/>
	<path style="fill:#686969;" d="M507.2,503.3v-7.9h2.3c2.9,0,4.3,1.3,4.3,3.8c0,1.2-0.4,2.2-1.2,2.9c-0.8,0.7-1.9,1.1-3.2,1.1h-2.2
		L507.2,503.3L507.2,503.3z M508.5,496.5v5.6h1c0.9,0,1.6-0.3,2.1-0.8c0.5-0.5,0.8-1.2,0.8-2.1c0-1.8-1-2.8-2.9-2.8L508.5,496.5
		L508.5,496.5z"/>
	<path style="fill:#686969;" d="M519.4,503.3h-1.2v-0.9l0,0c-0.4,0.7-1,1-1.7,1c-0.6,0-1-0.2-1.3-0.4c-0.3-0.3-0.5-0.7-0.5-1.2
		c0-1.1,0.6-1.7,1.8-1.9l1.7-0.2c0-0.8-0.4-1.2-1.1-1.2c-0.7,0-1.3,0.2-1.8,0.7v-1.1c0.6-0.4,1.3-0.5,2-0.5c1.4,0,2.1,0.7,2.1,2.1
		V503.3z M518.2,500.5l-1.2,0.2c-0.4,0-0.6,0.1-0.8,0.3c-0.2,0.1-0.3,0.4-0.3,0.7c0,0.2,0.1,0.4,0.3,0.6s0.4,0.2,0.7,0.2
		c0.4,0,0.7-0.1,1-0.4s0.4-0.6,0.4-1v-0.6L518.2,500.5L518.2,500.5z"/>
	<path style="fill:#686969;" d="M523.9,503.2c-0.2,0.1-0.6,0.2-1,0.2c-1.1,0-1.6-0.5-1.6-1.6v-3.2h-0.9v-1h0.9v-1.3l1.3-0.4v1.7h1.3
		v1h-1.3v2.8c0,0.3,0.1,0.6,0.2,0.7s0.3,0.2,0.6,0.2c0.2,0,0.4-0.1,0.6-0.2L523.9,503.2L523.9,503.2z"/>
	<path style="fill:#686969;" d="M529.3,503.3h-1.2v-0.9l0,0c-0.4,0.7-1,1-1.7,1c-0.6,0-1-0.2-1.3-0.4c-0.3-0.3-0.5-0.7-0.5-1.2
		c0-1.1,0.6-1.7,1.8-1.9l1.7-0.2c0-0.8-0.4-1.2-1.1-1.2c-0.7,0-1.3,0.2-1.8,0.7v-1.1c0.6-0.4,1.3-0.5,2-0.5c1.4,0,2.1,0.7,2.1,2.1
		V503.3z M528.1,500.5l-1.2,0.2c-0.4,0-0.6,0.1-0.8,0.3c-0.2,0.1-0.3,0.4-0.3,0.7c0,0.2,0.1,0.4,0.3,0.6s0.4,0.2,0.7,0.2
		c0.4,0,0.7-0.1,1-0.4s0.4-0.6,0.4-1v-0.6L528.1,500.5L528.1,500.5z"/>
	<path style="fill:#686969;" d="M532.2,502.5L532.2,502.5v0.8h-1.3V495h1.3v3.7l0,0c0.4-0.7,1.1-1.1,1.9-1.1c0.7,0,1.3,0.3,1.7,0.8
		s0.6,1.2,0.6,2c0,0.9-0.2,1.7-0.7,2.3s-1.1,0.8-1.8,0.8C533.1,503.4,532.6,503.1,532.2,502.5z M532.1,500.2v0.7
		c0,0.4,0.1,0.8,0.4,1c0.3,0.3,0.6,0.4,1,0.4c0.5,0,0.8-0.2,1.1-0.6s0.4-0.9,0.4-1.5s-0.1-1-0.4-1.3c-0.3-0.3-0.6-0.5-1-0.5
		c-0.5,0-0.8,0.2-1.1,0.5S532.1,499.8,532.1,500.2z"/>
	<path style="fill:#686969;" d="M541.8,503.3h-1.2v-0.9l0,0c-0.4,0.7-1,1-1.7,1c-0.6,0-1-0.2-1.3-0.4c-0.3-0.3-0.5-0.7-0.5-1.2
		c0-1.1,0.6-1.7,1.8-1.9l1.7-0.2c0-0.8-0.4-1.2-1.1-1.2c-0.7,0-1.3,0.2-1.8,0.7v-1.1c0.6-0.4,1.3-0.5,2-0.5c1.4,0,2.1,0.7,2.1,2.1
		V503.3z M540.6,500.5l-1.2,0.2c-0.4,0-0.6,0.1-0.8,0.3c-0.2,0.1-0.3,0.4-0.3,0.7c0,0.2,0.1,0.4,0.3,0.6s0.4,0.2,0.7,0.2
		c0.4,0,0.7-0.1,1-0.4s0.4-0.6,0.4-1v-0.6L540.6,500.5L540.6,500.5z"/>
	<path style="fill:#686969;" d="M543,503.1v-1.2c0.5,0.4,1,0.5,1.6,0.5c0.8,0,1.2-0.2,1.2-0.7c0-0.1,0-0.2-0.1-0.3
		c-0.1-0.1-0.2-0.2-0.3-0.2c-0.1-0.1-0.2-0.1-0.4-0.2s-0.3-0.1-0.5-0.2s-0.4-0.2-0.6-0.3c-0.2-0.1-0.3-0.2-0.5-0.3s-0.2-0.3-0.3-0.4
		s-0.1-0.4-0.1-0.6c0-0.3,0.1-0.5,0.2-0.7c0.1-0.2,0.3-0.4,0.5-0.5s0.5-0.2,0.7-0.3c0.3-0.1,0.6-0.1,0.8-0.1c0.5,0,1,0.1,1.4,0.2
		v1.1c-0.4-0.3-0.8-0.4-1.4-0.4c-0.2,0-0.3,0-0.4,0c-0.1,0-0.2,0.1-0.3,0.1c-0.1,0.1-0.2,0.1-0.2,0.2s-0.1,0.2-0.1,0.3
		c0,0.1,0,0.2,0.1,0.3s0.1,0.2,0.2,0.2c0.1,0.1,0.2,0.1,0.4,0.2c0.1,0.1,0.3,0.1,0.5,0.2s0.5,0.2,0.6,0.3s0.4,0.2,0.5,0.3
		s0.2,0.3,0.3,0.4c0.1,0.2,0.1,0.4,0.1,0.6c0,0.3-0.1,0.5-0.2,0.7c-0.1,0.2-0.3,0.4-0.5,0.5s-0.5,0.2-0.8,0.3
		c-0.3,0.1-0.6,0.1-0.9,0.1C544,503.4,543.5,503.3,543,503.1z"/>
	<path style="fill:#686969;" d="M553,500.8h-3.8c0,0.5,0.2,0.9,0.5,1.2s0.7,0.4,1.3,0.4s1.1-0.2,1.6-0.5v1c-0.5,0.3-1.2,0.5-2,0.5
		s-1.5-0.3-1.9-0.8c-0.5-0.5-0.7-1.2-0.7-2.2c0-0.9,0.3-1.6,0.8-2.1s1.2-0.8,1.9-0.8c0.8,0,1.4,0.2,1.8,0.7s0.6,1.2,0.6,2.1
		L553,500.8L553,500.8z M551.7,499.9c0-0.5-0.1-0.8-0.3-1.1c-0.2-0.3-0.5-0.4-0.9-0.4s-0.7,0.1-0.9,0.4s-0.4,0.6-0.5,1h2.6
		L551.7,499.9L551.7,499.9z"/>
</g>
<g>
	<path style="fill:#686969;" d="M391.2,468.2h-1.3v-5.1c0-0.4,0-0.9,0.1-1.5l0,0c-0.1,0.3-0.2,0.6-0.2,0.7l-2.3,5.9h-0.9l-2.4-5.8
		c-0.1-0.2-0.1-0.4-0.2-0.8l0,0c0,0.3,0,0.8,0,1.5v5.1h-1.2v-7.9h1.8l2.1,5.2c0.2,0.4,0.3,0.7,0.3,0.9l0,0c0.1-0.4,0.2-0.7,0.3-0.9
		l2.1-5.2h1.8L391.2,468.2L391.2,468.2z"/>
	<path style="fill:#686969;" d="M399.6,468.2h-1.4l-0.7-2h-3.1l-0.7,2h-1.4l2.9-7.9h1.5L399.6,468.2z M397.1,465.2L396,462
		c0-0.1-0.1-0.3-0.1-0.5l0,0c0,0.2-0.1,0.4-0.1,0.5l-1.1,3.1h2.4L397.1,465.2L397.1,465.2z"/>
	<path style="fill:#686969;" d="M406.7,468.2h-1.5l-1.3-2.1c-0.1-0.2-0.2-0.4-0.3-0.5c-0.1-0.1-0.2-0.3-0.3-0.3
		c-0.1-0.1-0.2-0.2-0.4-0.2s-0.3-0.1-0.4-0.1H402v3.2h-1.3v-7.9h2.6c0.4,0,0.7,0,1,0.1s0.6,0.2,0.8,0.4c0.2,0.2,0.4,0.4,0.5,0.7
		c0.1,0.3,0.2,0.6,0.2,0.9s0,0.5-0.1,0.8c-0.1,0.2-0.2,0.4-0.4,0.6s-0.3,0.3-0.5,0.5s-0.5,0.2-0.7,0.3l0,0c0.1,0.1,0.3,0.2,0.4,0.3
		c0.1,0.1,0.2,0.2,0.3,0.3c0.1,0.1,0.2,0.2,0.3,0.3s0.2,0.3,0.3,0.5L406.7,468.2z M402,461.4v2.6h1.1c0.2,0,0.4,0,0.6-0.1
		s0.3-0.2,0.4-0.3c0.1-0.1,0.2-0.3,0.3-0.4s0.1-0.4,0.1-0.6c0-0.4-0.1-0.7-0.4-0.9c-0.2-0.2-0.6-0.3-1-0.3L402,461.4L402,461.4z"/>
	<path style="fill:#686969;" d="M409,468.2h-1.3v-7.9h1.3V468.2z"/>
	<path style="fill:#686969;" d="M417.4,468.2H416l-0.7-2h-3.1l-0.7,2H410l2.9-7.9h1.5L417.4,468.2z M414.9,465.2l-1.1-3.1
		c0-0.1-0.1-0.3-0.1-0.5l0,0c0,0.2-0.1,0.4-0.1,0.5l-1.1,3.1H414.9z"/>
	<path style="fill:#686969;" d="M421.5,468.2v-7.9h2.3c2.9,0,4.3,1.3,4.3,3.8c0,1.2-0.4,2.2-1.2,2.9c-0.8,0.7-1.9,1.1-3.2,1.1h-2.2
		L421.5,468.2L421.5,468.2z M422.8,461.5v5.6h1c0.9,0,1.6-0.3,2.1-0.8s0.8-1.2,0.8-2.1c0-1.8-1-2.8-2.9-2.8L422.8,461.5L422.8,461.5
		z"/>
	<path style="fill:#686969;" d="M429.6,468.2v-7.9h2.5c0.8,0,1.4,0.2,1.8,0.5s0.7,0.8,0.7,1.3c0,0.4-0.1,0.8-0.4,1.2s-0.6,0.6-1,0.7
		l0,0c0.5,0.1,1,0.3,1.3,0.6s0.5,0.8,0.5,1.3c0,0.7-0.3,1.2-0.8,1.6s-1.2,0.6-2,0.6L429.6,468.2L429.6,468.2z M430.9,461.4v2.2h0.8
		c0.5,0,0.8-0.1,1.1-0.3s0.4-0.5,0.4-0.9c0-0.7-0.4-1-1.3-1L430.9,461.4L430.9,461.4z M430.9,464.7v2.5h1.1c0.5,0,0.9-0.1,1.1-0.3
		s0.4-0.5,0.4-0.9c0-0.8-0.6-1.2-1.7-1.2h-0.9V464.7z"/>
</g>
<g>
	<path style="fill:#686969;" d="M537.9,468.2h-1.3v-5.1c0-0.4,0-0.9,0.1-1.5l0,0c-0.1,0.3-0.2,0.6-0.2,0.7l-2.3,5.9h-0.9l-2.3-5.8
		c-0.1-0.2-0.1-0.4-0.2-0.8l0,0c0,0.3,0,0.8,0,1.5v5.1h-1.2v-7.9h1.8l2.1,5.2c0.2,0.4,0.3,0.7,0.3,0.9l0,0c0.1-0.4,0.2-0.7,0.3-0.9
		l2.1-5.2h1.8L537.9,468.2L537.9,468.2z"/>
	<path style="fill:#686969;" d="M546.2,468.2h-1.4l-0.7-2H541l-0.7,2h-1.4l2.9-7.9h1.5L546.2,468.2z M543.8,465.2l-1.1-3.1
		c0-0.1-0.1-0.3-0.1-0.5l0,0c0,0.2-0.1,0.4-0.1,0.5l-1.1,3.1H543.8z"/>
	<path style="fill:#686969;" d="M553.4,468.2h-1.5l-1.3-2.1c-0.1-0.2-0.2-0.4-0.3-0.5s-0.2-0.3-0.3-0.3c-0.1-0.1-0.2-0.2-0.4-0.2
		c-0.1,0-0.3-0.1-0.4-0.1h-0.5v3.2h-1.3v-7.9h2.6c0.4,0,0.7,0,1,0.1s0.6,0.2,0.8,0.4c0.2,0.2,0.4,0.4,0.5,0.7
		c0.1,0.3,0.2,0.6,0.2,0.9s0,0.5-0.1,0.8c-0.1,0.2-0.2,0.4-0.3,0.6c-0.2,0.2-0.3,0.3-0.5,0.5c-0.2,0.1-0.5,0.2-0.7,0.3l0,0
		c0.1,0.1,0.3,0.2,0.4,0.3s0.2,0.2,0.3,0.3c0.1,0.1,0.2,0.2,0.3,0.3c0.1,0.1,0.2,0.3,0.3,0.5L553.4,468.2z M548.6,461.4v2.6h1.1
		c0.2,0,0.4,0,0.6-0.1c0.2-0.1,0.3-0.2,0.4-0.3c0.1-0.1,0.2-0.3,0.3-0.4c0.1-0.2,0.1-0.4,0.1-0.6c0-0.4-0.1-0.7-0.4-0.9
		c-0.2-0.2-0.6-0.3-1-0.3L548.6,461.4L548.6,461.4z"/>
	<path style="fill:#686969;" d="M555.6,468.2h-1.3v-7.9h1.3V468.2z"/>
	<path style="fill:#686969;" d="M564,468.2h-1.4l-0.7-2h-3.1l-0.7,2h-1.4l2.9-7.9h1.5L564,468.2z M561.6,465.2l-1.1-3.1
		c0-0.1-0.1-0.3-0.1-0.5l0,0c0,0.2-0.1,0.4-0.1,0.5l-1.1,3.1H561.6z"/>
	<path style="fill:#686969;" d="M568.2,468.2v-7.9h2.3c2.9,0,4.3,1.3,4.3,3.8c0,1.2-0.4,2.2-1.2,2.9c-0.8,0.7-1.9,1.1-3.2,1.1h-2.2
		L568.2,468.2L568.2,468.2z M569.5,461.5v5.6h1c0.9,0,1.6-0.3,2.1-0.8s0.8-1.2,0.8-2.1c0-1.8-1-2.8-2.9-2.8L569.5,461.5L569.5,461.5
		z"/>
	<path style="fill:#686969;" d="M576.2,468.2v-7.9h2.5c0.8,0,1.4,0.2,1.8,0.5c0.4,0.3,0.7,0.8,0.7,1.3c0,0.4-0.1,0.8-0.4,1.2
		s-0.6,0.6-1,0.7l0,0c0.5,0.1,1,0.3,1.3,0.6c0.3,0.3,0.5,0.8,0.5,1.3c0,0.7-0.3,1.2-0.8,1.6s-1.2,0.6-2,0.6L576.2,468.2L576.2,468.2
		z M577.5,461.4v2.2h0.8c0.5,0,0.8-0.1,1.1-0.3s0.4-0.5,0.4-0.9c0-0.7-0.4-1-1.3-1L577.5,461.4L577.5,461.4z M577.5,464.7v2.5h1.1
		c0.5,0,0.9-0.1,1.1-0.3c0.3-0.2,0.4-0.5,0.4-0.9c0-0.8-0.6-1.2-1.7-1.2h-0.9L577.5,464.7L577.5,464.7z"/>
</g>
<g>
	<path style="fill:#686969;" d="M342.5,445.7v-9h2.6c3.3,0,5,1.5,5,4.4c0,1.4-0.5,2.5-1.4,3.3s-2.2,1.3-3.7,1.3L342.5,445.7
		L342.5,445.7z M344,437.9v6.5h1.2c1,0,1.9-0.3,2.4-0.9s0.9-1.4,0.9-2.4c0-2.1-1.1-3.1-3.3-3.1H344V437.9z"/>
	<path style="fill:#686969;" d="M351.7,445.7v-9h2.8c0.9,0,1.6,0.2,2.1,0.6s0.8,0.9,0.8,1.5c0,0.5-0.1,1-0.4,1.3
		c-0.3,0.4-0.7,0.6-1.2,0.8l0,0c0.6,0.1,1.1,0.3,1.5,0.7c0.4,0.4,0.6,0.9,0.6,1.5c0,0.8-0.3,1.4-0.9,1.9s-1.4,0.7-2.3,0.7H351.7z
		 M353.2,437.9v2.6h1c0.5,0,0.9-0.1,1.2-0.4c0.3-0.2,0.4-0.6,0.4-1c0-0.8-0.5-1.2-1.5-1.2H353.2z M353.2,441.6v2.8h1.3
		c0.6,0,1-0.1,1.3-0.4s0.5-0.6,0.5-1.1c0-0.9-0.6-1.4-1.9-1.4h-1.2L353.2,441.6L353.2,441.6z"/>
	<path style="fill:#686969;" d="M362.2,436.5v9.2h-1.5v-7.4c-0.3,0.2-0.5,0.3-0.8,0.5c-0.3,0.1-0.6,0.2-1,0.3v-1.2
		c0.2-0.1,0.5-0.2,0.7-0.3s0.4-0.2,0.7-0.3c0.2-0.1,0.4-0.2,0.7-0.4c0.2-0.1,0.5-0.3,0.7-0.5L362.2,436.5L362.2,436.5z"/>
</g>
<g>
	<path style="fill:#686969;" d="M513,445.7v-9h2.6c3.3,0,5,1.5,5,4.4c0,1.4-0.5,2.5-1.4,3.3s-2.2,1.3-3.7,1.3L513,445.7L513,445.7z
		 M514.5,437.9v6.5h1.2c1,0,1.9-0.3,2.4-0.9s0.9-1.4,0.9-2.4c0-2.1-1.1-3.1-3.3-3.1h-1.2L514.5,437.9L514.5,437.9z"/>
	<path style="fill:#686969;" d="M522.2,445.7v-9h2.8c0.9,0,1.6,0.2,2.1,0.6s0.8,0.9,0.8,1.5c0,0.5-0.1,1-0.4,1.3
		c-0.3,0.4-0.7,0.6-1.2,0.8l0,0c0.6,0.1,1.1,0.3,1.5,0.7c0.4,0.4,0.6,0.9,0.6,1.5c0,0.8-0.3,1.4-0.9,1.9c-0.6,0.5-1.4,0.7-2.3,0.7
		H522.2z M523.7,437.9v2.6h1c0.5,0,0.9-0.1,1.2-0.4c0.3-0.2,0.4-0.6,0.4-1c0-0.8-0.5-1.2-1.5-1.2H523.7z M523.7,441.6v2.8h1.3
		c0.6,0,1-0.1,1.3-0.4s0.5-0.6,0.5-1.1c0-0.9-0.6-1.4-1.9-1.4h-1.2L523.7,441.6L523.7,441.6z"/>
	<path style="fill:#686969;" d="M532.7,436.5v9.2h-1.5v-7.4c-0.3,0.2-0.5,0.3-0.8,0.5c-0.3,0.1-0.6,0.2-1,0.3v-1.2
		c0.2-0.1,0.5-0.2,0.7-0.3c0.2-0.1,0.4-0.2,0.7-0.3c0.2-0.1,0.4-0.2,0.7-0.4s0.5-0.3,0.7-0.5L532.7,436.5L532.7,436.5z"/>
</g>
<g>
	<path style="fill:#686969;" d="M386.8,445.7v-9h2.6c3.3,0,5,1.5,5,4.4c0,1.4-0.5,2.5-1.4,3.3s-2.2,1.3-3.7,1.3L386.8,445.7
		L386.8,445.7z M388.3,437.9v6.5h1.2c1,0,1.9-0.3,2.4-0.9s0.9-1.4,0.9-2.4c0-2.1-1.1-3.1-3.3-3.1h-1.2V437.9z"/>
	<path style="fill:#686969;" d="M396,445.7v-9h2.8c0.9,0,1.6,0.2,2.1,0.6s0.8,0.9,0.8,1.5c0,0.5-0.1,1-0.4,1.3
		c-0.3,0.4-0.7,0.6-1.2,0.8l0,0c0.6,0.1,1.1,0.3,1.5,0.7c0.4,0.4,0.6,0.9,0.6,1.5c0,0.8-0.3,1.4-0.9,1.9s-1.4,0.7-2.3,0.7H396z
		 M397.5,437.9v2.6h1c0.5,0,0.9-0.1,1.2-0.4c0.3-0.2,0.4-0.6,0.4-1c0-0.8-0.5-1.2-1.5-1.2H397.5z M397.5,441.6v2.8h1.3
		c0.6,0,1-0.1,1.3-0.4s0.5-0.6,0.5-1.1c0-0.9-0.6-1.4-1.9-1.4h-1.2L397.5,441.6L397.5,441.6z"/>
	<path style="fill:#686969;" d="M408.9,445.7h-5.6V445c0-0.3,0-0.5,0.1-0.8c0.1-0.2,0.2-0.5,0.3-0.7c0.1-0.2,0.3-0.4,0.5-0.6
		s0.4-0.4,0.6-0.6s0.4-0.4,0.6-0.5s0.4-0.3,0.6-0.5s0.4-0.3,0.5-0.5c0.2-0.2,0.3-0.3,0.4-0.5s0.2-0.3,0.3-0.5s0.1-0.4,0.1-0.6
		s0-0.4-0.1-0.6s-0.2-0.3-0.3-0.4s-0.3-0.2-0.5-0.3c-0.2-0.1-0.4-0.1-0.6-0.1c-0.4,0-0.7,0.1-1.1,0.3s-0.7,0.4-1.1,0.8v-1.4
		c0.2-0.1,0.4-0.3,0.6-0.4s0.4-0.2,0.6-0.3c0.2-0.1,0.4-0.1,0.6-0.2c0.2,0,0.5,0,0.7,0c0.4,0,0.8,0.1,1.1,0.2
		c0.3,0.1,0.6,0.3,0.8,0.5c0.2,0.2,0.4,0.5,0.5,0.8s0.2,0.7,0.2,1.1s0,0.7-0.1,1s-0.2,0.6-0.4,0.8c-0.2,0.3-0.4,0.5-0.6,0.7
		s-0.5,0.5-0.8,0.7c-0.2,0.2-0.5,0.4-0.7,0.6s-0.5,0.4-0.6,0.5c-0.2,0.2-0.3,0.4-0.5,0.5c-0.1,0.2-0.2,0.4-0.2,0.5l0,0h4.1V445.7z"
		/>
</g>
<g>
	<path style="fill:#686969;" d="M555.5,445.7v-9h2.6c3.3,0,5,1.5,5,4.4c0,1.4-0.5,2.5-1.4,3.3s-2.2,1.3-3.7,1.3L555.5,445.7
		L555.5,445.7z M557,437.9v6.5h1.2c1,0,1.9-0.3,2.4-0.9s0.9-1.4,0.9-2.4c0-2.1-1.1-3.1-3.3-3.1H557V437.9z"/>
	<path style="fill:#686969;" d="M564.7,445.7v-9h2.8c0.9,0,1.6,0.2,2.1,0.6s0.8,0.9,0.8,1.5c0,0.5-0.1,1-0.4,1.3
		c-0.3,0.4-0.7,0.6-1.2,0.8l0,0c0.6,0.1,1.1,0.3,1.5,0.7c0.4,0.4,0.6,0.9,0.6,1.5c0,0.8-0.3,1.4-0.9,1.9c-0.6,0.5-1.4,0.7-2.3,0.7
		H564.7z M566.2,437.9v2.6h1c0.5,0,0.9-0.1,1.2-0.4c0.3-0.2,0.4-0.6,0.4-1c0-0.8-0.5-1.2-1.5-1.2H566.2z M566.2,441.6v2.8h1.3
		c0.6,0,1-0.1,1.3-0.4s0.5-0.6,0.5-1.1c0-0.9-0.6-1.4-1.9-1.4h-1.2L566.2,441.6L566.2,441.6z"/>
	<path style="fill:#686969;" d="M577.6,445.7H572V445c0-0.3,0-0.5,0.1-0.8c0.1-0.2,0.2-0.5,0.3-0.7s0.3-0.4,0.5-0.6s0.4-0.4,0.6-0.6
		s0.4-0.4,0.6-0.5s0.4-0.3,0.6-0.5c0.2-0.2,0.4-0.3,0.5-0.5c0.2-0.2,0.3-0.3,0.4-0.5c0.1-0.2,0.2-0.3,0.3-0.5s0.1-0.4,0.1-0.6
		s0-0.4-0.1-0.6s-0.2-0.3-0.3-0.4s-0.3-0.2-0.5-0.3c-0.2-0.1-0.4-0.1-0.6-0.1c-0.4,0-0.7,0.1-1.1,0.3c-0.4,0.2-0.7,0.4-1.1,0.8v-1.4
		c0.2-0.1,0.4-0.3,0.6-0.4c0.2-0.1,0.4-0.2,0.6-0.3c0.2-0.1,0.4-0.1,0.6-0.2c0.2,0,0.5,0,0.7,0c0.4,0,0.8,0.1,1.1,0.2
		s0.6,0.3,0.8,0.5s0.4,0.5,0.5,0.8s0.2,0.7,0.2,1.1s0,0.7-0.1,1s-0.2,0.6-0.4,0.8c-0.2,0.3-0.4,0.5-0.6,0.7
		c-0.2,0.2-0.5,0.5-0.8,0.7c-0.2,0.2-0.5,0.4-0.7,0.6s-0.5,0.4-0.6,0.5c-0.2,0.2-0.3,0.4-0.5,0.5c-0.1,0.2-0.2,0.4-0.2,0.5l0,0h4.1
		L577.6,445.7L577.6,445.7z"/>
</g>
<g>
	<path style="fill:#686969;" d="M429.9,445.7v-9h2.6c3.3,0,5,1.5,5,4.4c0,1.4-0.5,2.5-1.4,3.3s-2.2,1.3-3.7,1.3L429.9,445.7
		L429.9,445.7z M431.4,437.9v6.5h1.2c1,0,1.9-0.3,2.4-0.9s0.9-1.4,0.9-2.4c0-2.1-1.1-3.1-3.3-3.1h-1.2V437.9z"/>
	<path style="fill:#686969;" d="M439.1,445.7v-9h2.8c0.9,0,1.6,0.2,2.1,0.6s0.8,0.9,0.8,1.5c0,0.5-0.1,1-0.4,1.3
		c-0.3,0.4-0.7,0.6-1.2,0.8l0,0c0.6,0.1,1.1,0.3,1.5,0.7c0.4,0.4,0.6,0.9,0.6,1.5c0,0.8-0.3,1.4-0.9,1.9s-1.4,0.7-2.3,0.7H439.1z
		 M440.6,437.9v2.6h1c0.5,0,0.9-0.1,1.2-0.4c0.3-0.2,0.4-0.6,0.4-1c0-0.8-0.5-1.2-1.5-1.2H440.6z M440.6,441.6v2.8h1.3
		c0.6,0,1-0.1,1.3-0.4s0.5-0.6,0.5-1.1c0-0.9-0.6-1.4-1.9-1.4h-1.2L440.6,441.6L440.6,441.6z"/>
	<path style="fill:#686969;" d="M446.5,445.3V444c0.6,0.5,1.2,0.7,2,0.7c0.6,0,1.1-0.1,1.4-0.4c0.4-0.3,0.5-0.6,0.5-1.1
		c0-1-0.8-1.5-2.3-1.5h-0.7v-1.2h0.7c1.4,0,2.1-0.5,2.1-1.4s-0.5-1.3-1.6-1.3c-0.6,0-1.2,0.2-1.7,0.6V437c0.6-0.3,1.3-0.5,2.2-0.5
		c0.8,0,1.4,0.2,1.9,0.6s0.7,0.9,0.7,1.5c0,1.2-0.6,1.9-1.8,2.3l0,0c0.6,0.1,1.2,0.3,1.5,0.7c0.4,0.4,0.6,0.9,0.6,1.5
		c0,0.8-0.3,1.5-0.9,2s-1.4,0.7-2.4,0.7C447.8,445.8,447.1,445.7,446.5,445.3z"/>
</g>
<path style="fill:#686969;" d="M352.4,413.6c-3.4,0-6.2-0.8-6.2-1.9c0-1,2.8-1.8,6.2-1.8c3.4,0,6.1,0.8,6.1,1.8
	C358.6,412.8,355.8,413.6,352.4,413.6L352.4,413.6z M343.8,424.3v3.4c0,1.6,3.1,3.3,7.3,3.6h2.8c4.1-0.3,7.3-1.7,7.3-3.3v-15.9
	c0-1.8-3.9-3.4-8.7-3.4c-4.8,0-8.6,1.6-8.6,3.4L343.8,424.3L343.8,424.3L343.8,424.3L343.8,424.3z"/>
<path style="fill:#686969;" d="M397.5,413.6c-3.4,0-6.2-0.8-6.2-1.9c0-1,2.8-1.8,6.2-1.8c3.4,0,6.1,0.8,6.1,1.8
	C403.6,412.8,400.9,413.6,397.5,413.6L397.5,413.6z M388.8,424.3v3.4c0,1.6,3.1,3.3,7.3,3.6h2.8c4.1-0.3,7.3-1.7,7.3-3.3v-15.9
	c0-1.8-3.9-3.4-8.7-3.4c-4.8,0-8.6,1.6-8.6,3.4L388.8,424.3L388.8,424.3L388.8,424.3L388.8,424.3z"/>
<path style="fill:#686969;" d="M440.9,413.6c-3.4,0-6.2-0.8-6.2-1.9c0-1,2.8-1.8,6.2-1.8c3.4,0,6.1,0.8,6.1,1.8
	C447,412.8,444.3,413.6,440.9,413.6L440.9,413.6z M432.2,424.3v3.4c0,1.6,3.1,3.3,7.3,3.6h2.8c4.1-0.3,7.3-1.7,7.3-3.3v-15.9
	c0-1.8-3.9-3.4-8.7-3.4c-4.8,0-8.6,1.6-8.6,3.4L432.2,424.3L432.2,424.3L432.2,424.3L432.2,424.3z"/>
<g>
	<path style="fill:#686969;" d="M598.9,445.7v-9h2.6c3.3,0,5,1.5,5,4.4c0,1.4-0.5,2.5-1.4,3.3s-2.2,1.3-3.7,1.3L598.9,445.7
		L598.9,445.7z M600.4,437.9v6.5h1.2c1,0,1.9-0.3,2.4-0.9s0.9-1.4,0.9-2.4c0-2.1-1.1-3.1-3.3-3.1h-1.2L600.4,437.9L600.4,437.9z"/>
	<path style="fill:#686969;" d="M608.1,445.7v-9h2.8c0.9,0,1.6,0.2,2.1,0.6s0.8,0.9,0.8,1.5c0,0.5-0.1,1-0.4,1.3
		c-0.3,0.4-0.7,0.6-1.2,0.8l0,0c0.6,0.1,1.1,0.3,1.5,0.7c0.4,0.4,0.6,0.9,0.6,1.5c0,0.8-0.3,1.4-0.9,1.9c-0.6,0.5-1.4,0.7-2.3,0.7
		H608.1z M609.6,437.9v2.6h1c0.5,0,0.9-0.1,1.2-0.4c0.3-0.2,0.4-0.6,0.4-1c0-0.8-0.5-1.2-1.5-1.2H609.6z M609.6,441.6v2.8h1.3
		c0.6,0,1-0.1,1.3-0.4s0.5-0.6,0.5-1.1c0-0.9-0.6-1.4-1.9-1.4h-1.2L609.6,441.6L609.6,441.6z"/>
	<path style="fill:#686969;" d="M615.5,445.3V444c0.6,0.5,1.2,0.7,2,0.7c0.6,0,1.1-0.1,1.4-0.4s0.5-0.6,0.5-1.1c0-1-0.8-1.5-2.3-1.5
		h-0.7v-1.2h0.7c1.4,0,2.1-0.5,2.1-1.4s-0.5-1.3-1.6-1.3c-0.6,0-1.2,0.2-1.7,0.6V437c0.6-0.3,1.3-0.5,2.2-0.5c0.8,0,1.4,0.2,1.9,0.6
		s0.7,0.9,0.7,1.5c0,1.2-0.6,1.9-1.8,2.3l0,0c0.6,0.1,1.2,0.3,1.5,0.7c0.4,0.4,0.6,0.9,0.6,1.5c0,0.8-0.3,1.5-0.9,2
		s-1.4,0.7-2.4,0.7C616.7,445.8,616,445.7,615.5,445.3z"/>
</g>
<path style="fill:#686969;" d="M609.8,413.6c-3.4,0-6.2-0.8-6.2-1.9c0-1,2.8-1.8,6.2-1.8s6.1,0.8,6.1,1.8
	C616,412.8,613.2,413.6,609.8,413.6L609.8,413.6z M601.2,424.3v3.4c0,1.6,3.1,3.3,7.3,3.6h2.8c4.1-0.3,7.3-1.7,7.3-3.3v-15.9
	c0-1.8-3.9-3.4-8.7-3.4s-8.6,1.6-8.6,3.4L601.2,424.3L601.2,424.3L601.2,424.3L601.2,424.3z"/>
<path style="fill:#686969;" d="M523,413.6c-3.4,0-6.2-0.8-6.2-1.9c0-1,2.8-1.8,6.2-1.8s6.1,0.8,6.1,1.8
	C529.1,412.8,526.4,413.6,523,413.6L523,413.6z M514.3,424.3v3.4c0,1.6,3.1,3.3,7.3,3.6h2.8c4.1-0.3,7.3-1.7,7.3-3.3v-15.9
	c0-1.8-3.9-3.4-8.7-3.4s-8.6,1.6-8.6,3.4L514.3,424.3L514.3,424.3L514.3,424.3L514.3,424.3z"/>
<path style="fill:#686969;" d="M566.4,413.6c-3.4,0-6.2-0.8-6.2-1.9c0-1,2.8-1.8,6.2-1.8s6.1,0.8,6.1,1.8
	C572.5,412.8,569.8,413.6,566.4,413.6L566.4,413.6z M557.7,424.3v3.4c0,1.6,3.1,3.3,7.3,3.6h2.8c4.1-0.3,7.3-1.7,7.3-3.3v-15.9
	c0-1.8-3.9-3.4-8.7-3.4s-8.6,1.6-8.6,3.4L557.7,424.3L557.7,424.3L557.7,424.3L557.7,424.3z"/>
<circle style="fill:none;stroke:#010101;stroke-width:3;stroke-linecap:round;stroke-linejoin:round;stroke-miterlimit:10;" cx="482.7" cy="320.1" r="234.8"/>
<rect x="528.9" y="290.4" style="fill:none;stroke:#686969;stroke-width:3;stroke-linecap:round;stroke-linejoin:round;stroke-miterlimit:10;" width="77.9" height="36.1"/>
<rect x="358.2" y="290.4" style="fill:none;stroke:#686969;stroke-width:3;stroke-linecap:round;stroke-linejoin:round;stroke-miterlimit:10;" width="79.3" height="36.1"/>
<g>
	<g>
		
			<line style="fill:none;stroke:#010101;stroke-width:4;stroke-linecap:round;stroke-linejoin:round;" x1="456.7" y1="268.2" x2="450.2" y2="268.2"/>
		
			<line style="fill:none;stroke:#010101;stroke-width:4;stroke-linecap:round;stroke-linejoin:round;stroke-dasharray:12.5509,12.5509;" x1="437.6" y1="268.2" x2="268.2" y2="268.2"/>
		
			<line style="fill:none;stroke:#010101;stroke-width:4;stroke-linecap:round;stroke-linejoin:round;" x1="261.9" y1="268.2" x2="255.4" y2="268.2"/>
	</g>
</g>
<g>
	<g>
		
			<line style="fill:none;stroke:#010101;stroke-width:4;stroke-linecap:round;stroke-linejoin:round;" x1="709.7" y1="268.2" x2="703.2" y2="268.2"/>
		
			<line style="fill:none;stroke:#010101;stroke-width:4;stroke-linecap:round;stroke-linejoin:round;stroke-dasharray:12.5469,12.5469;" x1="690.7" y1="268.2" x2="521.3" y2="268.2"/>
		
			<line style="fill:none;stroke:#010101;stroke-width:4;stroke-linecap:round;stroke-linejoin:round;" x1="515" y1="268.2" x2="508.5" y2="268.2"/>
	</g>
</g>
<g>
	
		<line style="fill:none;stroke:#686969;stroke-width:2;stroke-linecap:round;stroke-linejoin:round;stroke-miterlimit:10;" x1="455.9" y1="308.5" x2="448.5" y2="308.5"/>
	
		<polyline style="fill:none;stroke:#686969;stroke-width:2;stroke-linecap:round;stroke-linejoin:round;stroke-miterlimit:10;" points="
		450.4,310.7 448.2,308.5 450.4,306.2 	"/>
</g>
<g>
	
		<line style="fill:none;stroke:#686969;stroke-width:2;stroke-linecap:round;stroke-linejoin:round;stroke-miterlimit:10;" x1="509" y1="308.5" x2="516.4" y2="308.5"/>
	
		<polyline style="fill:none;stroke:#686969;stroke-width:2;stroke-linecap:round;stroke-linejoin:round;stroke-miterlimit:10;" points="
		514.5,306.2 516.7,308.5 514.5,310.7 	"/>
</g>
<g>
	<path style="fill:#686969;" d="M405.9,173.3V248h-48.4v-74.8h48.4 M405.9,171.3h-48.4c-1.1,0-2,0.9-2,2V248c0,1.1,0.9,2,2,2h48.4
		c1.1,0,2-0.9,2-2v-74.8C407.9,172.1,407,171.3,405.9,171.3L405.9,171.3z"/>
</g>
<g>
	<path style="fill:#686969;" d="M464.7,173.3V248h-48.4v-74.8h48.4 M464.7,171.3h-48.4c-1.1,0-2,0.9-2,2V248c0,1.1,0.9,2,2,2h48.4
		c1.1,0,2-0.9,2-2v-74.8C466.7,172.1,465.8,171.3,464.7,171.3L464.7,171.3z"/>
</g>
<g>
	<path style="fill:#686969;" d="M549,173.3V248h-48.4v-74.8H549 M549,171.3h-48.4c-1.1,0-2,0.9-2,2V248c0,1.1,0.9,2,2,2H549
		c1.1,0,2-0.9,2-2v-74.8C551,172.1,550.1,171.3,549,171.3L549,171.3z"/>
</g>
<g>
	<path style="fill:#686969;" d="M607.8,173.3V248h-48.4v-74.8h48.4 M607.8,171.3h-48.4c-1.1,0-2,0.9-2,2V248c0,1.1,0.9,2,2,2h48.4
		c1.1,0,2-0.9,2-2v-74.8C609.8,172.1,608.9,171.3,607.8,171.3L607.8,171.3z"/>
</g>
<polygon style="fill:none;stroke:#686969;stroke-width:2;stroke-linecap:round;stroke-linejoin:round;stroke-miterlimit:10;" points="
	361.4,193.5 369.8,179 378.2,193.5 "/>
<polygon style="fill:none;stroke:#686969;stroke-width:2;stroke-linecap:round;stroke-linejoin:round;stroke-miterlimit:10;" points="
	385.4,193.5 393.7,179 402.1,193.5 "/>
<rect x="361.4" y="214.8" style="fill:none;stroke:#686969;stroke-width:2;stroke-linecap:round;stroke-linejoin:round;stroke-miterlimit:10;" width="40.7" height="16.2"/>
<polygon style="fill:none;stroke:#686969;stroke-width:2;stroke-linecap:round;stroke-linejoin:round;stroke-miterlimit:10;" points="
	420.1,193.5 428.5,179 436.9,193.5 "/>
<polygon style="fill:none;stroke:#686969;stroke-width:2;stroke-linecap:round;stroke-linejoin:round;stroke-miterlimit:10;" points="
	444.1,193.5 452.5,179 460.9,193.5 "/>
<rect x="420.1" y="214.8" style="fill:none;stroke:#686969;stroke-width:2;stroke-linecap:round;stroke-linejoin:round;stroke-miterlimit:10;" width="40.7" height="16.2"/>
<polygon style="fill:none;stroke:#686969;stroke-width:2;stroke-linecap:round;stroke-linejoin:round;stroke-miterlimit:10;" points="
	504.3,193.5 512.7,179 521.1,193.5 "/>
<polygon style="fill:none;stroke:#686969;stroke-width:2;stroke-linecap:round;stroke-linejoin:round;stroke-miterlimit:10;" points="
	528.3,193.5 536.7,179 545.1,193.5 "/>
<rect x="504.3" y="214.8" style="fill:none;stroke:#686969;stroke-width:2;stroke-linecap:round;stroke-linejoin:round;stroke-miterlimit:10;" width="40.7" height="16.2"/>
<polygon style="fill:none;stroke:#686969;stroke-width:2;stroke-linecap:round;stroke-linejoin:round;stroke-miterlimit:10;" points="
	563,193.5 571.4,179 579.8,193.5 "/>
<polygon style="fill:none;stroke:#686969;stroke-width:2;stroke-linecap:round;stroke-linejoin:round;stroke-miterlimit:10;" points="
	587,193.5 595.4,179 603.8,193.5 "/>
<rect x="563" y="214.8" style="fill:none;stroke:#686969;stroke-width:2;stroke-linecap:round;stroke-linejoin:round;stroke-miterlimit:10;" width="40.7" height="16.2"/>
<g>
	<g>
		<path style="fill:#686969;" d="M367.4,205.9h-1.2l-0.6-1.7h-2.7l-0.6,1.7h-1.2l2.5-6.8h1.3L367.4,205.9z M365.2,203.3l-0.9-2.7
			c0-0.1-0.1-0.2-0.1-0.4l0,0c0,0.2-0.1,0.3-0.1,0.4l-0.9,2.7H365.2z"/>
		<path style="fill:#686969;" d="M369.4,203.5v2.5h-1.1v-6.8h2.1c0.8,0,1.4,0.2,1.8,0.5c0.4,0.4,0.6,0.9,0.6,1.5s-0.2,1.2-0.7,1.6
			s-1.1,0.6-1.8,0.6L369.4,203.5L369.4,203.5z M369.4,200.1v2.5h0.7c0.5,0,0.8-0.1,1.1-0.3s0.4-0.5,0.4-0.9c0-0.8-0.5-1.2-1.4-1.2
			h-0.8L369.4,200.1L369.4,200.1z"/>
		<path style="fill:#686969;" d="M375.1,203.5v2.5H374v-6.8h2.1c0.8,0,1.4,0.2,1.8,0.5c0.4,0.4,0.6,0.9,0.6,1.5s-0.2,1.2-0.7,1.6
			s-1.1,0.6-1.8,0.6L375.1,203.5L375.1,203.5z M375.1,200.1v2.5h0.7c0.5,0,0.8-0.1,1.1-0.3c0.3-0.2,0.4-0.5,0.4-0.9
			c0-0.8-0.5-1.2-1.4-1.2h-0.8L375.1,200.1L375.1,200.1z"/>
	</g>
	<g>
		<path style="fill:#686969;" d="M391.4,205.9h-1.2l-0.6-1.7h-2.7l-0.6,1.7H385l2.5-6.8h1.3L391.4,205.9z M389.2,203.3l-0.9-2.7
			c0-0.1-0.1-0.2-0.1-0.4l0,0c0,0.2-0.1,0.3-0.1,0.4l-0.9,2.7H389.2z"/>
		<path style="fill:#686969;" d="M393.4,203.5v2.5h-1.1v-6.8h2.1c0.8,0,1.4,0.2,1.8,0.5c0.4,0.4,0.6,0.9,0.6,1.5s-0.2,1.2-0.7,1.6
			s-1.1,0.6-1.8,0.6L393.4,203.5L393.4,203.5z M393.4,200.1v2.5h0.7c0.5,0,0.8-0.1,1.1-0.3c0.3-0.2,0.4-0.5,0.4-0.9
			c0-0.8-0.5-1.2-1.4-1.2h-0.8L393.4,200.1L393.4,200.1z"/>
		<path style="fill:#686969;" d="M399.1,203.5v2.5H398v-6.8h2.1c0.8,0,1.4,0.2,1.8,0.5c0.4,0.4,0.6,0.9,0.6,1.5s-0.2,1.2-0.7,1.6
			s-1.1,0.6-1.8,0.6L399.1,203.5L399.1,203.5z M399.1,200.1v2.5h0.7c0.5,0,0.8-0.1,1.1-0.3c0.3-0.2,0.4-0.5,0.4-0.9
			c0-0.8-0.5-1.2-1.4-1.2h-0.8L399.1,200.1L399.1,200.1z"/>
	</g>
	<g>
		<path style="fill:#686969;" d="M360.3,243.8V237h2.2c0.7,0,1.2,0.1,1.6,0.4c0.4,0.3,0.6,0.7,0.6,1.1c0,0.4-0.1,0.7-0.3,1
			s-0.5,0.5-0.9,0.6l0,0c0.5,0.1,0.8,0.2,1.1,0.5c0.3,0.3,0.4,0.7,0.4,1.1c0,0.6-0.2,1.1-0.7,1.4c-0.5,0.4-1,0.5-1.7,0.5h-2.3
			L360.3,243.8L360.3,243.8z M361.4,237.9v1.9h0.7c0.4,0,0.7-0.1,0.9-0.3c0.2-0.2,0.3-0.4,0.3-0.8c0-0.6-0.4-0.9-1.2-0.9h-0.7
			L361.4,237.9L361.4,237.9z M361.4,240.7v2.1h1c0.4,0,0.7-0.1,1-0.3c0.2-0.2,0.3-0.5,0.3-0.8c0-0.7-0.5-1.1-1.5-1.1h-0.8V240.7z"/>
		<path style="fill:#686969;" d="M367.3,243.8h-1.2V237h1.2V243.8z"/>
		<path style="fill:#686969;" d="M374.7,243.8h-1.2l-3.2-5c-0.1-0.1-0.1-0.3-0.2-0.4l0,0c0,0.1,0,0.5,0,0.9v4.4H369V237h1.3l3.1,4.9
			c0.1,0.2,0.2,0.3,0.3,0.4l0,0c0-0.2,0-0.5,0-0.9V237h1.1L374.7,243.8L374.7,243.8z"/>
		<path style="fill:#686969;" d="M376.1,243.5v-1.2c0.1,0.1,0.2,0.2,0.4,0.3c0.1,0.1,0.3,0.1,0.5,0.2c0.2,0.1,0.3,0.1,0.5,0.1
			s0.3,0,0.4,0c0.5,0,0.8-0.1,1.1-0.2c0.2-0.2,0.3-0.4,0.3-0.7c0-0.2,0-0.3-0.1-0.4c-0.1-0.1-0.2-0.2-0.3-0.3s-0.3-0.2-0.5-0.3
			s-0.4-0.2-0.6-0.3s-0.4-0.2-0.6-0.4c-0.2-0.1-0.4-0.3-0.5-0.4c-0.1-0.2-0.3-0.3-0.3-0.5c-0.1-0.2-0.1-0.4-0.1-0.7s0.1-0.6,0.2-0.8
			s0.3-0.4,0.6-0.6c0.2-0.2,0.5-0.3,0.8-0.3c0.3-0.1,0.6-0.1,0.9-0.1c0.7,0,1.2,0.1,1.6,0.2v1.1c-0.4-0.3-0.9-0.4-1.5-0.4
			c-0.2,0-0.3,0-0.5,0s-0.3,0.1-0.4,0.2s-0.2,0.2-0.3,0.3c-0.1,0.1-0.1,0.3-0.1,0.4c0,0.2,0,0.3,0.1,0.4s0.2,0.2,0.3,0.3
			s0.3,0.2,0.4,0.3c0.2,0.1,0.4,0.2,0.6,0.3s0.5,0.3,0.7,0.4c0.2,0.1,0.4,0.3,0.6,0.4c0.2,0.2,0.3,0.3,0.4,0.5s0.1,0.4,0.1,0.7
			s-0.1,0.6-0.2,0.9s-0.3,0.4-0.6,0.6c-0.2,0.1-0.5,0.3-0.8,0.3c-0.3,0.1-0.6,0.1-1,0.1c-0.1,0-0.3,0-0.4,0c-0.2,0-0.3,0-0.5-0.1
			c-0.2,0-0.3-0.1-0.5-0.1C376.3,243.6,376.2,243.5,376.1,243.5z"/>
		<path style="fill:#686969;" d="M384.9,237l-3.3,7.9h-1l3.3-7.9H384.9z"/>
		<path style="fill:#686969;" d="M389.4,243.8h-3.8V237h1.1v5.8h2.6L389.4,243.8L389.4,243.8z"/>
		<path style="fill:#686969;" d="M391.6,243.8h-1.2V237h1.2V243.8z"/>
		<path style="fill:#686969;" d="M393.2,243.8V237h2.2c0.7,0,1.2,0.1,1.6,0.4c0.4,0.3,0.6,0.7,0.6,1.1c0,0.4-0.1,0.7-0.3,1
			c-0.2,0.3-0.5,0.5-0.9,0.6l0,0c0.5,0.1,0.8,0.2,1.1,0.5c0.3,0.3,0.4,0.7,0.4,1.1c0,0.6-0.2,1.1-0.7,1.4c-0.5,0.4-1,0.5-1.7,0.5
			h-2.3L393.2,243.8L393.2,243.8z M394.4,237.9v1.9h0.7c0.4,0,0.7-0.1,0.9-0.3c0.2-0.2,0.3-0.4,0.3-0.8c0-0.6-0.4-0.9-1.2-0.9h-0.7
			L394.4,237.9L394.4,237.9z M394.4,240.7v2.1h1c0.4,0,0.7-0.1,1-0.3c0.2-0.2,0.3-0.5,0.3-0.8c0-0.7-0.5-1.1-1.5-1.1h-0.8V240.7z"/>
		<path style="fill:#686969;" d="M398.8,243.5v-1.2c0.1,0.1,0.2,0.2,0.4,0.3c0.1,0.1,0.3,0.1,0.5,0.2c0.2,0.1,0.3,0.1,0.5,0.1
			s0.3,0,0.4,0c0.5,0,0.8-0.1,1.1-0.2c0.2-0.2,0.3-0.4,0.3-0.7c0-0.2,0-0.3-0.1-0.4c-0.1-0.1-0.2-0.2-0.3-0.3s-0.3-0.2-0.5-0.3
			s-0.4-0.2-0.6-0.3s-0.4-0.2-0.6-0.4c-0.2-0.1-0.4-0.3-0.5-0.4c-0.1-0.2-0.3-0.3-0.3-0.5c-0.1-0.2-0.1-0.4-0.1-0.7s0.1-0.6,0.2-0.8
			s0.3-0.4,0.6-0.6c0.2-0.2,0.5-0.3,0.8-0.3c0.3-0.1,0.6-0.1,0.9-0.1c0.7,0,1.2,0.1,1.6,0.2v1.1c-0.4-0.3-0.9-0.4-1.5-0.4
			c-0.2,0-0.3,0-0.5,0s-0.3,0.1-0.4,0.2s-0.2,0.2-0.3,0.3s-0.1,0.3-0.1,0.4c0,0.2,0,0.3,0.1,0.4s0.2,0.2,0.3,0.3
			c0.1,0.1,0.3,0.2,0.4,0.3s0.4,0.2,0.6,0.3s0.5,0.3,0.7,0.4c0.2,0.1,0.4,0.3,0.6,0.4c0.2,0.2,0.3,0.3,0.4,0.5s0.1,0.4,0.1,0.7
			s-0.1,0.6-0.2,0.9c-0.1,0.2-0.3,0.4-0.6,0.6c-0.2,0.1-0.5,0.3-0.8,0.3c-0.3,0.1-0.6,0.1-1,0.1c-0.1,0-0.3,0-0.4,0
			c-0.2,0-0.3,0-0.5-0.1c-0.2,0-0.3-0.1-0.5-0.1C399,243.6,398.9,243.5,398.8,243.5z"/>
	</g>
	<g>
		<path style="fill:#686969;" d="M426.1,205.9h-1.2l-0.6-1.7h-2.7l-0.6,1.7h-1.2l2.5-6.8h1.3L426.1,205.9z M424,203.3l-0.9-2.7
			c0-0.1-0.1-0.2-0.1-0.4l0,0c0,0.2-0.1,0.3-0.1,0.4l-0.9,2.7H424z"/>
		<path style="fill:#686969;" d="M428.2,203.5v2.5H427v-6.8h2.1c0.8,0,1.4,0.2,1.8,0.5c0.4,0.4,0.6,0.9,0.6,1.5s-0.2,1.2-0.7,1.6
			s-1.1,0.6-1.8,0.6L428.2,203.5L428.2,203.5z M428.2,200.1v2.5h0.7c0.5,0,0.8-0.1,1.1-0.3c0.3-0.2,0.4-0.5,0.4-0.9
			c0-0.8-0.5-1.2-1.4-1.2h-0.8L428.2,200.1L428.2,200.1z"/>
		<path style="fill:#686969;" d="M433.8,203.5v2.5h-1.1v-6.8h2.1c0.8,0,1.4,0.2,1.8,0.5c0.4,0.4,0.6,0.9,0.6,1.5s-0.2,1.2-0.7,1.6
			s-1.1,0.6-1.8,0.6L433.8,203.5L433.8,203.5z M433.8,200.1v2.5h0.7c0.5,0,0.8-0.1,1.1-0.3s0.4-0.5,0.4-0.9c0-0.8-0.5-1.2-1.4-1.2
			h-0.8L433.8,200.1L433.8,200.1z"/>
	</g>
	<g>
		<path style="fill:#686969;" d="M450.1,205.9h-1.2l-0.6-1.7h-2.7l-0.6,1.7h-1.2l2.5-6.8h1.3L450.1,205.9z M447.9,203.3l-0.9-2.7
			c0-0.1-0.1-0.2-0.1-0.4l0,0c0,0.2-0.1,0.3-0.1,0.4l-0.9,2.7H447.9z"/>
		<path style="fill:#686969;" d="M452.1,203.5v2.5H451v-6.8h2.1c0.8,0,1.4,0.2,1.8,0.5c0.4,0.4,0.6,0.9,0.6,1.5s-0.2,1.2-0.7,1.6
			s-1.1,0.6-1.8,0.6L452.1,203.5L452.1,203.5z M452.1,200.1v2.5h0.7c0.5,0,0.8-0.1,1.1-0.3c0.3-0.2,0.4-0.5,0.4-0.9
			c0-0.8-0.5-1.2-1.4-1.2h-0.8L452.1,200.1L452.1,200.1z"/>
		<path style="fill:#686969;" d="M457.8,203.5v2.5h-1.1v-6.8h2.1c0.8,0,1.4,0.2,1.8,0.5c0.4,0.4,0.6,0.9,0.6,1.5s-0.2,1.2-0.7,1.6
			s-1.1,0.6-1.8,0.6L457.8,203.5L457.8,203.5z M457.8,200.1v2.5h0.7c0.5,0,0.8-0.1,1.1-0.3c0.3-0.2,0.4-0.5,0.4-0.9
			c0-0.8-0.5-1.2-1.4-1.2h-0.8L457.8,200.1L457.8,200.1z"/>
	</g>
	<g>
		<path style="fill:#686969;" d="M419.1,243.8V237h2.2c0.7,0,1.2,0.1,1.6,0.4c0.4,0.3,0.6,0.7,0.6,1.1c0,0.4-0.1,0.7-0.3,1
			c-0.2,0.3-0.5,0.5-0.9,0.6l0,0c0.5,0.1,0.8,0.2,1.1,0.5c0.3,0.3,0.4,0.7,0.4,1.1c0,0.6-0.2,1.1-0.7,1.4c-0.5,0.4-1,0.5-1.7,0.5
			h-2.3L419.1,243.8L419.1,243.8z M420.2,237.9v1.9h0.7c0.4,0,0.7-0.1,0.9-0.3c0.2-0.2,0.3-0.4,0.3-0.8c0-0.6-0.4-0.9-1.2-0.9h-0.7
			L420.2,237.9L420.2,237.9z M420.2,240.7v2.1h1c0.4,0,0.7-0.1,1-0.3c0.2-0.2,0.3-0.5,0.3-0.8c0-0.7-0.5-1.1-1.5-1.1h-0.8V240.7z"/>
		<path style="fill:#686969;" d="M426.1,243.8h-1.2V237h1.2V243.8z"/>
		<path style="fill:#686969;" d="M433.5,243.8h-1.2l-3.2-5c-0.1-0.1-0.1-0.3-0.2-0.4l0,0c0,0.1,0,0.5,0,0.9v4.4h-1.1V237h1.3
			l3.1,4.9c0.1,0.2,0.2,0.3,0.3,0.4l0,0c0-0.2,0-0.5,0-0.9V237h1.1L433.5,243.8L433.5,243.8z"/>
		<path style="fill:#686969;" d="M434.9,243.5v-1.2c0.1,0.1,0.2,0.2,0.4,0.3c0.1,0.1,0.3,0.1,0.5,0.2c0.2,0.1,0.3,0.1,0.5,0.1
			s0.3,0,0.4,0c0.5,0,0.8-0.1,1.1-0.2c0.2-0.2,0.3-0.4,0.3-0.7c0-0.2,0-0.3-0.1-0.4c-0.1-0.1-0.2-0.2-0.3-0.3s-0.3-0.2-0.5-0.3
			s-0.4-0.2-0.6-0.3s-0.4-0.2-0.6-0.4c-0.2-0.1-0.4-0.3-0.5-0.4c-0.1-0.2-0.3-0.3-0.3-0.5c-0.1-0.2-0.1-0.4-0.1-0.7s0.1-0.6,0.2-0.8
			s0.3-0.4,0.6-0.6c0.2-0.2,0.5-0.3,0.8-0.3c0.3-0.1,0.6-0.1,0.9-0.1c0.7,0,1.2,0.1,1.6,0.2v1.1c-0.4-0.3-0.9-0.4-1.5-0.4
			c-0.2,0-0.3,0-0.5,0s-0.3,0.1-0.4,0.2s-0.2,0.2-0.3,0.3s-0.1,0.3-0.1,0.4c0,0.2,0,0.3,0.1,0.4s0.2,0.2,0.3,0.3
			c0.1,0.1,0.3,0.2,0.4,0.3s0.4,0.2,0.6,0.3s0.5,0.3,0.7,0.4c0.2,0.1,0.4,0.3,0.6,0.4c0.2,0.2,0.3,0.3,0.4,0.5s0.1,0.4,0.1,0.7
			s-0.1,0.6-0.2,0.9c-0.1,0.2-0.3,0.4-0.6,0.6c-0.2,0.1-0.5,0.3-0.8,0.3c-0.3,0.1-0.6,0.1-1,0.1c-0.1,0-0.3,0-0.4,0
			c-0.2,0-0.3,0-0.5-0.1c-0.2,0-0.3-0.1-0.5-0.1C435.1,243.6,435,243.5,434.9,243.5z"/>
		<path style="fill:#686969;" d="M443.7,237l-3.3,7.9h-1l3.3-7.9H443.7z"/>
		<path style="fill:#686969;" d="M448.2,243.8h-3.8V237h1.1v5.8h2.6L448.2,243.8L448.2,243.8z"/>
		<path style="fill:#686969;" d="M450.3,243.8h-1.2V237h1.2V243.8z"/>
		<path style="fill:#686969;" d="M452,243.8V237h2.2c0.7,0,1.2,0.1,1.6,0.4c0.4,0.3,0.6,0.7,0.6,1.1c0,0.4-0.1,0.7-0.3,1
			s-0.5,0.5-0.9,0.6l0,0c0.5,0.1,0.8,0.2,1.1,0.5c0.3,0.3,0.4,0.7,0.4,1.1c0,0.6-0.2,1.1-0.7,1.4c-0.5,0.4-1,0.5-1.7,0.5H452V243.8z
			 M453.1,237.9v1.9h0.7c0.4,0,0.7-0.1,0.9-0.3c0.2-0.2,0.3-0.4,0.3-0.8c0-0.6-0.4-0.9-1.2-0.9h-0.7L453.1,237.9L453.1,237.9z
			 M453.1,240.7v2.1h1c0.4,0,0.7-0.1,1-0.3c0.2-0.2,0.3-0.5,0.3-0.8c0-0.7-0.5-1.1-1.5-1.1h-0.8V240.7z"/>
		<path style="fill:#686969;" d="M457.6,243.5v-1.2c0.1,0.1,0.2,0.2,0.4,0.3c0.1,0.1,0.3,0.1,0.5,0.2c0.2,0.1,0.3,0.1,0.5,0.1
			s0.3,0,0.4,0c0.5,0,0.8-0.1,1.1-0.2c0.2-0.2,0.3-0.4,0.3-0.7c0-0.2,0-0.3-0.1-0.4c-0.1-0.1-0.2-0.2-0.3-0.3s-0.3-0.2-0.5-0.3
			s-0.4-0.2-0.6-0.3s-0.4-0.2-0.6-0.4c-0.2-0.1-0.4-0.3-0.5-0.4c-0.1-0.2-0.3-0.3-0.3-0.5c-0.1-0.2-0.1-0.4-0.1-0.7s0.1-0.6,0.2-0.8
			s0.3-0.4,0.6-0.6c0.2-0.2,0.5-0.3,0.8-0.3c0.3-0.1,0.6-0.1,0.9-0.1c0.7,0,1.2,0.1,1.6,0.2v1.1c-0.4-0.3-0.9-0.4-1.5-0.4
			c-0.2,0-0.3,0-0.5,0s-0.3,0.1-0.4,0.2s-0.2,0.2-0.3,0.3s-0.1,0.3-0.1,0.4c0,0.2,0,0.3,0.1,0.4c0.1,0.1,0.2,0.2,0.3,0.3
			s0.3,0.2,0.4,0.3c0.2,0.1,0.4,0.2,0.6,0.3s0.5,0.3,0.7,0.4c0.2,0.1,0.4,0.3,0.6,0.4c0.2,0.2,0.3,0.3,0.4,0.5s0.1,0.4,0.1,0.7
			s-0.1,0.6-0.2,0.9s-0.3,0.4-0.6,0.6c-0.2,0.1-0.5,0.3-0.8,0.3c-0.3,0.1-0.6,0.1-1,0.1c-0.1,0-0.3,0-0.4,0c-0.2,0-0.3,0-0.5-0.1
			c-0.2,0-0.3-0.1-0.5-0.1C457.8,243.6,457.6,243.5,457.6,243.5z"/>
	</g>
	<g>
		<path style="fill:#686969;" d="M510.3,205.9h-1.2l-0.6-1.7h-2.7l-0.6,1.7H504l2.5-6.8h1.3L510.3,205.9z M508.2,203.3l-0.9-2.7
			c0-0.1-0.1-0.2-0.1-0.4l0,0c0,0.2-0.1,0.3-0.1,0.4l-0.9,2.7H508.2z"/>
		<path style="fill:#686969;" d="M512.4,203.5v2.5h-1.1v-6.8h2.1c0.8,0,1.4,0.2,1.8,0.5c0.4,0.4,0.6,0.9,0.6,1.5s-0.2,1.2-0.7,1.6
			c-0.4,0.4-1.1,0.6-1.8,0.6L512.4,203.5L512.4,203.5z M512.4,200.1v2.5h0.7c0.5,0,0.8-0.1,1.1-0.3s0.4-0.5,0.4-0.9
			c0-0.8-0.5-1.2-1.4-1.2h-0.8V200.1z"/>
		<path style="fill:#686969;" d="M518,203.5v2.5h-1.1v-6.8h2.1c0.8,0,1.4,0.2,1.8,0.5c0.4,0.4,0.6,0.9,0.6,1.5s-0.2,1.2-0.7,1.6
			c-0.4,0.4-1.1,0.6-1.8,0.6L518,203.5L518,203.5z M518,200.1v2.5h0.7c0.5,0,0.8-0.1,1.1-0.3s0.4-0.5,0.4-0.9c0-0.8-0.5-1.2-1.4-1.2
			H518V200.1z"/>
	</g>
	<g>
		<path style="fill:#686969;" d="M534.3,205.9h-1.2l-0.6-1.7h-2.7l-0.6,1.7H528l2.5-6.8h1.3L534.3,205.9z M532.2,203.3l-0.9-2.7
			c0-0.1-0.1-0.2-0.1-0.4l0,0c0,0.2-0.1,0.3-0.1,0.4l-0.9,2.7H532.2z"/>
		<path style="fill:#686969;" d="M536.4,203.5v2.5h-1.1v-6.8h2.1c0.8,0,1.4,0.2,1.8,0.5c0.4,0.4,0.6,0.9,0.6,1.5s-0.2,1.2-0.7,1.6
			c-0.4,0.4-1.1,0.6-1.8,0.6L536.4,203.5L536.4,203.5z M536.4,200.1v2.5h0.7c0.5,0,0.8-0.1,1.1-0.3s0.4-0.5,0.4-0.9
			c0-0.8-0.5-1.2-1.4-1.2h-0.8V200.1z"/>
		<path style="fill:#686969;" d="M542,203.5v2.5h-1.1v-6.8h2.1c0.8,0,1.4,0.2,1.8,0.5c0.4,0.4,0.6,0.9,0.6,1.5s-0.2,1.2-0.7,1.6
			c-0.4,0.4-1.1,0.6-1.8,0.6L542,203.5L542,203.5z M542,200.1v2.5h0.7c0.5,0,0.8-0.1,1.1-0.3s0.4-0.5,0.4-0.9c0-0.8-0.5-1.2-1.4-1.2
			H542V200.1z"/>
	</g>
	<g>
		<path style="fill:#686969;" d="M503.4,243.8V237h2.2c0.7,0,1.2,0.1,1.6,0.4c0.4,0.3,0.6,0.7,0.6,1.1c0,0.4-0.1,0.7-0.3,1
			s-0.5,0.5-0.9,0.6l0,0c0.5,0.1,0.8,0.2,1.1,0.5c0.3,0.3,0.4,0.7,0.4,1.1c0,0.6-0.2,1.1-0.7,1.4c-0.5,0.4-1,0.5-1.7,0.5h-2.3
			L503.4,243.8L503.4,243.8z M504.5,237.9v1.9h0.7c0.4,0,0.7-0.1,0.9-0.3c0.2-0.2,0.3-0.4,0.3-0.8c0-0.6-0.4-0.9-1.2-0.9h-0.7
			L504.5,237.9L504.5,237.9z M504.5,240.7v2.1h1c0.4,0,0.7-0.1,1-0.3c0.2-0.2,0.3-0.5,0.3-0.8c0-0.7-0.5-1.1-1.5-1.1h-0.8V240.7z"/>
		<path style="fill:#686969;" d="M510.4,243.8h-1.2V237h1.2V243.8z"/>
		<path style="fill:#686969;" d="M517.8,243.8h-1.2l-3.2-5c-0.1-0.1-0.1-0.3-0.2-0.4l0,0c0,0.1,0,0.5,0,0.9v4.4h-1.1V237h1.3
			l3.1,4.9c0.1,0.2,0.2,0.3,0.3,0.4l0,0c0-0.2,0-0.5,0-0.9V237h1.1L517.8,243.8L517.8,243.8z"/>
		<path style="fill:#686969;" d="M519.2,243.5v-1.2c0.1,0.1,0.2,0.2,0.4,0.3c0.1,0.1,0.3,0.1,0.5,0.2c0.2,0.1,0.3,0.1,0.5,0.1
			s0.3,0,0.4,0c0.5,0,0.8-0.1,1.1-0.2c0.2-0.2,0.3-0.4,0.3-0.7c0-0.2,0-0.3-0.1-0.4c-0.1-0.1-0.2-0.2-0.3-0.3s-0.3-0.2-0.5-0.3
			s-0.4-0.2-0.6-0.3c-0.2-0.1-0.4-0.2-0.6-0.4c-0.2-0.1-0.4-0.3-0.5-0.4c-0.1-0.2-0.3-0.3-0.3-0.5c-0.1-0.2-0.1-0.4-0.1-0.7
			s0.1-0.6,0.2-0.8c0.1-0.2,0.3-0.4,0.6-0.6c0.2-0.2,0.5-0.3,0.8-0.3c0.3-0.1,0.6-0.1,0.9-0.1c0.7,0,1.2,0.1,1.6,0.2v1.1
			c-0.4-0.3-0.9-0.4-1.5-0.4c-0.2,0-0.3,0-0.5,0s-0.3,0.1-0.4,0.2c-0.1,0.1-0.2,0.2-0.3,0.3s-0.1,0.3-0.1,0.4c0,0.2,0,0.3,0.1,0.4
			s0.2,0.2,0.3,0.3s0.3,0.2,0.4,0.3s0.4,0.2,0.6,0.3c0.2,0.1,0.5,0.3,0.7,0.4c0.2,0.1,0.4,0.3,0.6,0.4c0.2,0.2,0.3,0.3,0.4,0.5
			c0.1,0.2,0.1,0.4,0.1,0.7s-0.1,0.6-0.2,0.9c-0.1,0.2-0.3,0.4-0.6,0.6c-0.2,0.1-0.5,0.3-0.8,0.3c-0.3,0.1-0.6,0.1-1,0.1
			c-0.1,0-0.3,0-0.4,0c-0.2,0-0.3,0-0.5-0.1c-0.2,0-0.3-0.1-0.5-0.1C519.4,243.6,519.3,243.5,519.2,243.5z"/>
		<path style="fill:#686969;" d="M528,237l-3.3,7.9h-1l3.3-7.9H528z"/>
		<path style="fill:#686969;" d="M532.5,243.8h-3.8V237h1.1v5.8h2.6v1H532.5z"/>
		<path style="fill:#686969;" d="M534.7,243.8h-1.2V237h1.2V243.8z"/>
		<path style="fill:#686969;" d="M536.3,243.8V237h2.2c0.7,0,1.2,0.1,1.6,0.4c0.4,0.3,0.6,0.7,0.6,1.1c0,0.4-0.1,0.7-0.3,1
			s-0.5,0.5-0.9,0.6l0,0c0.5,0.1,0.8,0.2,1.1,0.5s0.4,0.7,0.4,1.1c0,0.6-0.2,1.1-0.7,1.4c-0.5,0.4-1,0.5-1.7,0.5h-2.3L536.3,243.8
			L536.3,243.8z M537.5,237.9v1.9h0.7c0.4,0,0.7-0.1,0.9-0.3s0.3-0.4,0.3-0.8c0-0.6-0.4-0.9-1.2-0.9h-0.7V237.9z M537.5,240.7v2.1h1
			c0.4,0,0.7-0.1,1-0.3c0.2-0.2,0.3-0.5,0.3-0.8c0-0.7-0.5-1.1-1.5-1.1h-0.8V240.7z"/>
		<path style="fill:#686969;" d="M541.9,243.5v-1.2c0.1,0.1,0.2,0.2,0.4,0.3c0.1,0.1,0.3,0.1,0.5,0.2c0.2,0.1,0.3,0.1,0.5,0.1
			s0.3,0,0.4,0c0.5,0,0.8-0.1,1.1-0.2c0.2-0.2,0.3-0.4,0.3-0.7c0-0.2,0-0.3-0.1-0.4c-0.1-0.1-0.2-0.2-0.3-0.3s-0.3-0.2-0.5-0.3
			s-0.4-0.2-0.6-0.3c-0.2-0.1-0.4-0.2-0.6-0.4c-0.2-0.1-0.4-0.3-0.5-0.4c-0.1-0.2-0.3-0.3-0.3-0.5s-0.1-0.4-0.1-0.7s0.1-0.6,0.2-0.8
			c0.1-0.2,0.3-0.4,0.6-0.6c0.2-0.2,0.5-0.3,0.8-0.3c0.3-0.1,0.6-0.1,0.9-0.1c0.7,0,1.2,0.1,1.6,0.2v1.1c-0.4-0.3-0.9-0.4-1.5-0.4
			c-0.2,0-0.3,0-0.5,0s-0.3,0.1-0.4,0.2c-0.1,0.1-0.2,0.2-0.3,0.3s-0.1,0.3-0.1,0.4c0,0.2,0,0.3,0.1,0.4c0.1,0.1,0.2,0.2,0.3,0.3
			s0.3,0.2,0.4,0.3s0.4,0.2,0.6,0.3c0.2,0.1,0.5,0.3,0.7,0.4c0.2,0.1,0.4,0.3,0.6,0.4c0.2,0.2,0.3,0.3,0.4,0.5
			c0.1,0.2,0.1,0.4,0.1,0.7s-0.1,0.6-0.2,0.9s-0.3,0.4-0.6,0.6c-0.2,0.1-0.5,0.3-0.8,0.3c-0.3,0.1-0.6,0.1-1,0.1c-0.1,0-0.3,0-0.4,0
			c-0.2,0-0.3,0-0.5-0.1c-0.2,0-0.3-0.1-0.5-0.1C542.1,243.6,542,243.5,541.9,243.5z"/>
	</g>
	<g>
		<path style="fill:#686969;" d="M569,205.9h-1.2l-0.6-1.7h-2.7l-0.6,1.7h-1.2l2.5-6.8h1.3L569,205.9z M566.9,203.3l-0.9-2.7
			c0-0.1-0.1-0.2-0.1-0.4l0,0c0,0.2-0.1,0.3-0.1,0.4l-0.9,2.7H566.9z"/>
		<path style="fill:#686969;" d="M571.1,203.5v2.5H570v-6.8h2.1c0.8,0,1.4,0.2,1.8,0.5c0.4,0.4,0.6,0.9,0.6,1.5s-0.2,1.2-0.7,1.6
			c-0.4,0.4-1.1,0.6-1.8,0.6L571.1,203.5L571.1,203.5z M571.1,200.1v2.5h0.7c0.5,0,0.8-0.1,1.1-0.3s0.4-0.5,0.4-0.9
			c0-0.8-0.5-1.2-1.4-1.2h-0.8V200.1z"/>
		<path style="fill:#686969;" d="M576.8,203.5v2.5h-1.1v-6.8h2.1c0.8,0,1.4,0.2,1.8,0.5c0.4,0.4,0.6,0.9,0.6,1.5s-0.2,1.2-0.7,1.6
			c-0.4,0.4-1.1,0.6-1.8,0.6L576.8,203.5L576.8,203.5z M576.8,200.1v2.5h0.7c0.5,0,0.8-0.1,1.1-0.3s0.4-0.5,0.4-0.9
			c0-0.8-0.5-1.2-1.4-1.2h-0.8V200.1z"/>
	</g>
	<g>
		<path style="fill:#686969;" d="M593,205.9h-1.2l-0.6-1.7h-2.7l-0.6,1.7h-1.2l2.5-6.8h1.3L593,205.9z M590.9,203.3l-0.9-2.7
			c0-0.1-0.1-0.2-0.1-0.4l0,0c0,0.2-0.1,0.3-0.1,0.4l-0.9,2.7H590.9z"/>
		<path style="fill:#686969;" d="M595.1,203.5v2.5H594v-6.8h2.1c0.8,0,1.4,0.2,1.8,0.5c0.4,0.4,0.6,0.9,0.6,1.5s-0.2,1.2-0.7,1.6
			c-0.4,0.4-1.1,0.6-1.8,0.6L595.1,203.5L595.1,203.5z M595.1,200.1v2.5h0.7c0.5,0,0.8-0.1,1.1-0.3s0.4-0.5,0.4-0.9
			c0-0.8-0.5-1.2-1.4-1.2h-0.8V200.1z"/>
		<path style="fill:#686969;" d="M600.7,203.5v2.5h-1.1v-6.8h2.1c0.8,0,1.4,0.2,1.8,0.5c0.4,0.4,0.6,0.9,0.6,1.5s-0.2,1.2-0.7,1.6
			c-0.4,0.4-1.1,0.6-1.8,0.6L600.7,203.5L600.7,203.5z M600.7,200.1v2.5h0.7c0.5,0,0.8-0.1,1.1-0.3s0.4-0.5,0.4-0.9
			c0-0.8-0.5-1.2-1.4-1.2h-0.8V200.1z"/>
	</g>
	<g>
		<path style="fill:#686969;" d="M562.2,243.8V237h2.2c0.7,0,1.2,0.1,1.6,0.4c0.4,0.3,0.6,0.7,0.6,1.1c0,0.4-0.1,0.7-0.3,1
			s-0.5,0.5-0.9,0.6l0,0c0.5,0.1,0.8,0.2,1.1,0.5s0.4,0.7,0.4,1.1c0,0.6-0.2,1.1-0.7,1.4c-0.5,0.4-1,0.5-1.7,0.5h-2.3L562.2,243.8
			L562.2,243.8z M563.3,237.9v1.9h0.7c0.4,0,0.7-0.1,0.9-0.3s0.3-0.4,0.3-0.8c0-0.6-0.4-0.9-1.2-0.9h-0.7V237.9z M563.3,240.7v2.1h1
			c0.4,0,0.7-0.1,1-0.3c0.2-0.2,0.3-0.5,0.3-0.8c0-0.7-0.5-1.1-1.5-1.1h-0.8V240.7z"/>
		<path style="fill:#686969;" d="M569.2,243.8H568V237h1.2V243.8z"/>
		<path style="fill:#686969;" d="M576.6,243.8h-1.2l-3.2-5c-0.1-0.1-0.1-0.3-0.2-0.4l0,0c0,0.1,0,0.5,0,0.9v4.4h-1.1V237h1.3
			l3.1,4.9c0.1,0.2,0.2,0.3,0.3,0.4l0,0c0-0.2,0-0.5,0-0.9V237h1.1L576.6,243.8L576.6,243.8z"/>
		<path style="fill:#686969;" d="M578,243.5v-1.2c0.1,0.1,0.2,0.2,0.4,0.3c0.1,0.1,0.3,0.1,0.5,0.2c0.2,0.1,0.3,0.1,0.5,0.1
			s0.3,0,0.4,0c0.5,0,0.8-0.1,1.1-0.2c0.2-0.2,0.3-0.4,0.3-0.7c0-0.2,0-0.3-0.1-0.4c-0.1-0.1-0.2-0.2-0.3-0.3s-0.3-0.2-0.5-0.3
			s-0.4-0.2-0.6-0.3c-0.2-0.1-0.4-0.2-0.6-0.4c-0.2-0.1-0.4-0.3-0.5-0.4c-0.1-0.2-0.3-0.3-0.3-0.5c-0.1-0.2-0.1-0.4-0.1-0.7
			s0.1-0.6,0.2-0.8c0.1-0.2,0.3-0.4,0.6-0.6c0.2-0.2,0.5-0.3,0.8-0.3c0.3-0.1,0.6-0.1,0.9-0.1c0.7,0,1.2,0.1,1.6,0.2v1.1
			c-0.4-0.3-0.9-0.4-1.5-0.4c-0.2,0-0.3,0-0.5,0s-0.3,0.1-0.4,0.2c-0.1,0.1-0.2,0.2-0.3,0.3s-0.1,0.3-0.1,0.4c0,0.2,0,0.3,0.1,0.4
			s0.2,0.2,0.3,0.3s0.3,0.2,0.4,0.3s0.4,0.2,0.6,0.3c0.2,0.1,0.5,0.3,0.7,0.4c0.2,0.1,0.4,0.3,0.6,0.4c0.2,0.2,0.3,0.3,0.4,0.5
			c0.1,0.2,0.1,0.4,0.1,0.7s-0.1,0.6-0.2,0.9c-0.1,0.2-0.3,0.4-0.6,0.6c-0.2,0.1-0.5,0.3-0.8,0.3c-0.3,0.1-0.6,0.1-1,0.1
			c-0.1,0-0.3,0-0.4,0c-0.2,0-0.3,0-0.5-0.1c-0.2,0-0.3-0.1-0.5-0.1C578.2,243.6,578.1,243.5,578,243.5z"/>
		<path style="fill:#686969;" d="M586.8,237l-3.3,7.9h-1l3.3-7.9H586.8z"/>
		<path style="fill:#686969;" d="M591.3,243.8h-3.8V237h1.1v5.8h2.6v1H591.3z"/>
		<path style="fill:#686969;" d="M593.4,243.8h-1.2V237h1.2V243.8z"/>
		<path style="fill:#686969;" d="M595.1,243.8V237h2.2c0.7,0,1.2,0.1,1.6,0.4c0.4,0.3,0.6,0.7,0.6,1.1c0,0.4-0.1,0.7-0.3,1
			s-0.5,0.5-0.9,0.6l0,0c0.5,0.1,0.8,0.2,1.1,0.5s0.4,0.7,0.4,1.1c0,0.6-0.2,1.1-0.7,1.4c-0.5,0.4-1,0.5-1.7,0.5h-2.3L595.1,243.8
			L595.1,243.8z M596.2,237.9v1.9h0.7c0.4,0,0.7-0.1,0.9-0.3s0.3-0.4,0.3-0.8c0-0.6-0.4-0.9-1.2-0.9h-0.7V237.9z M596.2,240.7v2.1h1
			c0.4,0,0.7-0.1,1-0.3c0.2-0.2,0.3-0.5,0.3-0.8c0-0.7-0.5-1.1-1.5-1.1h-0.8V240.7z"/>
		<path style="fill:#686969;" d="M600.7,243.5v-1.2c0.1,0.1,0.2,0.2,0.4,0.3c0.1,0.1,0.3,0.1,0.5,0.2c0.2,0.1,0.3,0.1,0.5,0.1
			s0.3,0,0.4,0c0.5,0,0.8-0.1,1.1-0.2c0.2-0.2,0.3-0.4,0.3-0.7c0-0.2,0-0.3-0.1-0.4c-0.1-0.1-0.2-0.2-0.3-0.3s-0.3-0.2-0.5-0.3
			s-0.4-0.2-0.6-0.3c-0.2-0.1-0.4-0.2-0.6-0.4c-0.2-0.1-0.4-0.3-0.5-0.4c-0.1-0.2-0.3-0.3-0.3-0.5s-0.1-0.4-0.1-0.7s0.1-0.6,0.2-0.8
			c0.1-0.2,0.3-0.4,0.6-0.6c0.2-0.2,0.5-0.3,0.8-0.3c0.3-0.1,0.6-0.1,0.9-0.1c0.7,0,1.2,0.1,1.6,0.2v1.1c-0.4-0.3-0.9-0.4-1.5-0.4
			c-0.2,0-0.3,0-0.5,0s-0.3,0.1-0.4,0.2c-0.1,0.1-0.2,0.2-0.3,0.3s-0.1,0.3-0.1,0.4c0,0.2,0,0.3,0.1,0.4c0.1,0.1,0.2,0.2,0.3,0.3
			s0.3,0.2,0.4,0.3c0.2,0.1,0.4,0.2,0.6,0.3c0.2,0.1,0.5,0.3,0.7,0.4c0.2,0.1,0.4,0.3,0.6,0.4c0.2,0.2,0.3,0.3,0.4,0.5
			c0.1,0.2,0.1,0.4,0.1,0.7s-0.1,0.6-0.2,0.9s-0.3,0.4-0.6,0.6c-0.2,0.1-0.5,0.3-0.8,0.3c-0.3,0.1-0.6,0.1-1,0.1c-0.1,0-0.3,0-0.4,0
			c-0.2,0-0.3,0-0.5-0.1c-0.2,0-0.3-0.1-0.5-0.1C600.9,243.6,600.7,243.5,600.7,243.5z"/>
	</g>
</g>
<g>
	<polygon style="fill:#FFFFFF;" points="257.5,117.6 255.2,117.6 255.2,122.4 253.2,122.4 256.4,126.8 259.6,122.4 257.5,122.4 	"/>
	<polygon style="fill:#FFFFFF;" points="253.5,110.3 259.2,110.3 259.2,111.9 253.5,111.9 	"/>
	<polygon style="fill:#FFFFFF;" points="253.5,112.7 259.2,112.7 259.2,114.4 253.5,114.4 	"/>
	<polygon style="fill:#FFFFFF;" points="253.5,115.1 259.2,115.1 259.2,116.8 253.5,116.8 	"/>
	<path style="fill:#FFFFFF;" d="M256.9,103.9h-6.7c-0.2,0-0.7,0-0.7,0.8l-0.1,12.7h2.4v-11.1h3.2v3.2h2.4v-5
		C257.5,103.9,257.1,103.9,256.9,103.9L256.9,103.9z"/>
	<path style="fill:#FFFFFF;" d="M251.9,115.1h-2.4v5.7c0,0.2,0.7,0.8,0.9,0.8h4v-2.4H252L251.9,115.1L251.9,115.1L251.9,115.1z"/>
	<path style="fill:#FFFFFF;" d="M265,114.4h-0.7c-0.4-4.9-2.7-7.2-6-7.9v2.3c2.4,0.8,3.3,3.2,3.4,6.3l-0.1,1.6l3.2-0.1
		c0.9,0,1.5,0.2,1.5,1.1v1.4h-8.1v2.4h9.6c0.2,0,0.9-0.7,0.9-0.8v-3.1C268.8,115.7,267.1,114.4,265,114.4L265,114.4z"/>
</g>
</svg>
