<?xml version="1.0" encoding="utf-8"?>
<!-- Generator: Adobe Illustrator 19.2.0, SVG Export Plug-In . SVG Version: 6.00 Build 0)  -->
<svg version="1.1" id="Layer_1" xmlns="http://www.w3.org/2000/svg" xmlns:xlink="http://www.w3.org/1999/xlink" x="0px" y="0px"
	 width="129.2px" height="329.2px" viewBox="0 0 129.2 329.2" style="enable-background:new 0 0 129.2 329.2;" xml:space="preserve"
	>
<g id="Layer_2">
</g>
<line style="fill:none;stroke:#DEDEDE;stroke-width:4;stroke-linecap:round;stroke-linejoin:round;stroke-miterlimit:10;" x1="64.5" y1="-47" x2="65.5" y2="211.9"/>
<circle style="fill:none;stroke:#DEDEDE;stroke-width:4;stroke-linecap:round;stroke-linejoin:round;stroke-miterlimit:10;" cx="65.5" cy="217.4" r="5"/>
<g>
	<g>
		<path d="M87.1,262l-19.3-19.3c-0.9-0.9-2.3-0.9-3.2,0L45.3,262c-0.9,0.9-0.9,2.3,0,3.2l19.3,19.3c0.9,0.9,2.3,0.9,3.2,0l19.3-19.3
			C88,264.3,88,262.9,87.1,262z M66.1,247.8l3.2,6.5h-1.6v5.6h-3.2v-5.6h-1.6L66.1,247.8z M50.9,265.2V262h5.6v-1.6l6.5,3.2
			l-6.5,3.2v-1.6H50.9z M66.1,279.4l-3.2-6.5h1.6v-5.6h3.2v5.6h1.6L66.1,279.4z M81.4,265.2h-5.6v1.6l-6.5-3.2l6.5-3.2v1.6h5.6
			V265.2z"/>
	</g>
	<g>
		<path d="M32.1,307.8h-1.8l-0.9-2.5h-3.8l-0.8,2.5H23l3.7-9.8h1.8L32.1,307.8z M29,304l-1.4-3.9c0-0.1-0.1-0.3-0.1-0.6l0,0
			c0,0.3-0.1,0.5-0.1,0.6l-1.3,3.9H29z"/>
		<path d="M35.1,304.3v3.5h-1.6V298h3c1.1,0,2,0.3,2.6,0.8s0.9,1.3,0.9,2.2s-0.3,1.7-1,2.3c-0.6,0.6-1.5,0.9-2.6,0.9h-1.3V304.3z
			 M35.1,299.4v3.6h1c0.7,0,1.2-0.2,1.6-0.5c0.4-0.3,0.5-0.8,0.5-1.4c0-1.1-0.7-1.7-2-1.7H35.1z"/>
		<path d="M43.2,304.3v3.5h-1.6V298h3c1.1,0,2,0.3,2.6,0.8s0.9,1.3,0.9,2.2s-0.3,1.7-1,2.3c-0.6,0.6-1.5,0.9-2.6,0.9h-1.3V304.3z
			 M43.2,299.4v3.6h1c0.7,0,1.2-0.2,1.6-0.5c0.4-0.3,0.5-0.8,0.5-1.4c0-1.1-0.7-1.7-2-1.7H43.2z"/>
		<path d="M55.1,307.8h-5.4V298h1.6v8.4h3.8C55.1,306.4,55.1,307.8,55.1,307.8z"/>
		<path d="M58.2,307.8h-1.7V298h1.7V307.8z"/>
		<path d="M67.4,307.4c-0.7,0.4-1.6,0.6-2.7,0.6c-1.4,0-2.5-0.4-3.4-1.3s-1.3-2.1-1.3-3.5c0-1.6,0.5-2.8,1.4-3.8s2.2-1.4,3.6-1.4
			c0.9,0,1.7,0.1,2.3,0.4v1.6c-0.7-0.4-1.4-0.6-2.2-0.6c-1.1,0-1.9,0.3-2.6,1s-1,1.6-1,2.7s0.3,1.9,0.9,2.6c0.6,0.6,1.4,1,2.4,1
			c0.9,0,1.7-0.2,2.4-0.7v1.4H67.4z"/>
		<path d="M77.3,307.8h-1.8l-0.9-2.5h-3.8l-0.8,2.5h-1.8l3.7-9.8h1.8L77.3,307.8z M74.2,304l-1.4-3.9c0-0.1-0.1-0.3-0.1-0.6l0,0
			c0,0.3-0.1,0.5-0.1,0.6l-1.3,3.9H74.2z"/>
		<path d="M83.9,299.4h-2.8v8.4h-1.6v-8.4h-2.8V298h7.2C83.9,298,83.9,299.4,83.9,299.4z"/>
		<path d="M87,307.8h-1.7V298H87V307.8z"/>
		<path d="M93.4,308c-1.4,0-2.5-0.5-3.4-1.4c-0.8-0.9-1.3-2.1-1.3-3.6c0-1.6,0.4-2.8,1.3-3.8c0.9-0.9,2-1.4,3.5-1.4
			c1.4,0,2.5,0.5,3.3,1.4s1.3,2.1,1.3,3.6c0,1.6-0.4,2.8-1.3,3.8C96,307.5,94.8,308,93.4,308z M93.5,299.3c-0.9,0-1.6,0.3-2.2,1
			s-0.8,1.5-0.8,2.6s0.3,2,0.8,2.6c0.5,0.7,1.3,1,2.1,1c0.9,0,1.7-0.3,2.2-0.9s0.8-1.5,0.8-2.6c0-1.2-0.3-2.1-0.8-2.7
			S94.4,299.3,93.5,299.3z"/>
		<path d="M108.2,307.8h-1.8l-4.7-7.2c-0.1-0.2-0.2-0.4-0.3-0.6l0,0c0,0.2,0.1,0.7,0.1,1.3v6.4h-1.6V298h1.9l4.5,7
			c0.2,0.3,0.3,0.5,0.4,0.6l0,0c0-0.3-0.1-0.7-0.1-1.3V298h1.6V307.8z"/>
		<path d="M43.7,323.8c-1,0.6-2.1,0.8-3.4,0.8c-1.4,0-2.6-0.4-3.5-1.3s-1.3-2.1-1.3-3.6S36,317,37,316s2.2-1.5,3.7-1.5
			c1.1,0,2,0.2,2.7,0.5v1.7c-0.7-0.5-1.6-0.7-2.7-0.7c-1,0-1.9,0.3-2.6,1s-1,1.6-1,2.7s0.3,2,0.9,2.6s1.3,1,2.3,1
			c0.7,0,1.3-0.1,1.7-0.4v-2.3h-2v-1.4h3.7V323.8z"/>
		<path d="M53.8,324.5H52l-0.9-2.5h-3.8l-0.8,2.5h-1.8l3.7-9.8h1.8L53.8,324.5z M50.7,320.7l-1.4-3.9c0-0.1-0.1-0.3-0.1-0.6l0,0
			c0,0.3-0.1,0.5-0.1,0.6l-1.3,3.9H50.7z"/>
		<path d="M60.4,316.1h-2.8v8.4H56v-8.4h-2.8v-1.4h7.2V316.1z"/>
		<path d="M67.3,324.5h-5.5v-9.8h5.3v1.4h-3.6v2.8h3.4v1.4h-3.4v2.9h3.9v1.3H67.3z"/>
		<path d="M81.4,314.8l-2.7,9.8h-1.8l-1.9-6.8c-0.1-0.3-0.1-0.6-0.1-1l0,0c0,0.3-0.1,0.6-0.2,0.9l-1.9,6.8H71l-2.7-9.8H70l1.8,7.1
			c0.1,0.3,0.1,0.6,0.1,0.9l0,0c0-0.2,0.1-0.5,0.2-0.9l2-7.1h1.7l1.8,7.2c0.1,0.2,0.1,0.5,0.1,0.9l0,0c0-0.2,0.1-0.5,0.2-0.9
			l1.7-7.2h1.8V314.8z"/>
		<path d="M90.3,324.5h-1.8l-0.9-2.5h-3.8l-0.8,2.5h-1.8l3.7-9.8h1.8L90.3,324.5z M87.2,320.7l-1.4-3.9c0-0.1-0.1-0.3-0.1-0.6l0,0
			c0,0.3-0.1,0.5-0.1,0.6l-1.3,3.9H87.2z"/>
		<path d="M97.3,314.8l-3.2,6.2v3.5h-1.6V321l-3.1-6.2h1.8l1.9,4.2c0,0,0.1,0.2,0.2,0.6l0,0c0-0.1,0.1-0.3,0.2-0.6l2-4.2H97.3z"/>
	</g>
</g>
</svg>
