<?xml version="1.0" encoding="utf-8"?>
<!-- Generator: Adobe Illustrator 19.2.0, SVG Export Plug-In . SVG Version: 6.00 Build 0)  -->
<svg version="1.1" id="Layer_1" xmlns="http://www.w3.org/2000/svg" xmlns:xlink="http://www.w3.org/1999/xlink" x="0px" y="0px"
	 width="129.2px" height="600px" viewBox="0 0 129.2 600" style="enable-background:new 0 0 129.2 600;" xml:space="preserve">
<g id="Layer_2">
</g>
<g>
	<g>
		<path d="M9.1,575.7c-0.7,0.4-1.6,0.6-2.7,0.6c-1.4,0-2.5-0.4-3.4-1.3s-1.3-2.1-1.3-3.5c0-1.6,0.5-2.8,1.4-3.8s2.2-1.4,3.6-1.4
			c0.9,0,1.7,0.1,2.3,0.4v1.6c-0.7-0.4-1.4-0.6-2.2-0.6c-1.1,0-1.9,0.3-2.6,1s-1,1.6-1,2.7s0.3,1.9,0.9,2.6c0.6,0.6,1.4,1,2.4,1
			c0.9,0,1.7-0.2,2.4-0.7v1.4L9.1,575.7L9.1,575.7z"/>
		<path d="M14.7,576.2c-1.4,0-2.5-0.5-3.4-1.4c-0.8-0.9-1.3-2.1-1.3-3.6c0-1.6,0.4-2.8,1.3-3.8c0.9-0.9,2-1.4,3.5-1.4
			c1.4,0,2.5,0.5,3.3,1.4c0.8,0.9,1.3,2.1,1.3,3.6c0,1.6-0.4,2.8-1.3,3.8C17.3,575.9,16.2,576.2,14.7,576.2z M14.8,567.7
			c-0.9,0-1.6,0.3-2.2,1c-0.6,0.7-0.8,1.5-0.8,2.6s0.3,2,0.8,2.6c0.5,0.7,1.3,1,2.1,1c0.9,0,1.7-0.3,2.2-0.9s0.8-1.5,0.8-2.6
			c0-1.2-0.3-2.1-0.8-2.7C16.4,568.1,15.7,567.7,14.8,567.7z"/>
		<path d="M29.5,576.2h-1.8L23,569c-0.1-0.2-0.2-0.4-0.3-0.6l0,0c0,0.2,0.1,0.7,0.1,1.3v6.4h-1.6v-9.8h1.9l4.5,7
			c0.2,0.3,0.3,0.5,0.4,0.6l0,0c0-0.3-0.1-0.7-0.1-1.3v-6.3h1.6V576.2z"/>
		<path d="M38.2,567.7h-2.8v8.4h-1.6v-8.4H31v-1.4h7.2V567.7L38.2,567.7z"/>
		<path d="M45.1,576.2h-5.5v-9.8h5.3v1.4h-3.6v2.8h3.4v1.4h-3.4v2.9h3.9L45.1,576.2L45.1,576.2z"/>
		<path d="M55.1,576.2h-1.8l-4.7-7.2c-0.1-0.2-0.2-0.4-0.3-0.6l0,0c0,0.2,0.1,0.7,0.1,1.3v6.4h-1.6v-9.8h1.9l4.5,7
			c0.2,0.3,0.3,0.5,0.4,0.6l0,0c0-0.3-0.1-0.7-0.1-1.3v-6.3h1.6C55.1,566.3,55.1,576.2,55.1,576.2z"/>
		<path d="M63.8,567.7H61v8.4h-1.6v-8.4h-2.8v-1.4h7.2L63.8,567.7L63.8,567.7z"/>
		<path d="M69,576.2v-9.8h2.8c3.6,0,5.4,1.6,5.4,4.8c0,1.5-0.5,2.7-1.5,3.6s-2.3,1.4-4,1.4H69z M70.6,567.7v7h1.3
			c1.1,0,2-0.3,2.7-0.9c0.6-0.6,0.9-1.5,0.9-2.7c0-2.3-1.2-3.4-3.5-3.4H70.6z"/>
		<path d="M84.5,576.2H79v-9.8h5.3v1.4h-3.6v2.8h3.4v1.4h-3.4v2.9h3.9L84.5,576.2L84.5,576.2z"/>
		<path d="M91.6,576.2h-5.4v-9.8h1.6v8.4h3.8V576.2z"/>
		<path d="M94.7,576.2H93v-9.8h1.7V576.2z"/>
		<path d="M104.7,566.4l-3.5,9.8h-1.8l-3.4-9.8h1.8l2.4,7.4c0.1,0.2,0.1,0.5,0.2,0.8l0,0c0-0.3,0.1-0.5,0.2-0.8l2.5-7.4
			C103.1,566.4,104.7,566.4,104.7,566.4z"/>
		<path d="M111.5,576.2H106v-9.8h5.3v1.4h-3.6v2.8h3.4v1.4h-3.4v2.9h3.9L111.5,576.2L111.5,576.2z"/>
		<path d="M120.8,576.2h-1.9l-1.6-2.6c-0.1-0.2-0.3-0.4-0.4-0.6c-0.1-0.2-0.3-0.3-0.4-0.4s-0.3-0.2-0.5-0.2s-0.3-0.1-0.6-0.1h-0.7v4
			h-1.6v-9.8h3.2c0.5,0,0.9,0.1,1.3,0.2c0.4,0.1,0.7,0.3,1,0.5c0.3,0.2,0.5,0.5,0.7,0.8c0.2,0.3,0.2,0.7,0.2,1.2
			c0,0.3-0.1,0.7-0.2,0.9c-0.1,0.3-0.2,0.5-0.4,0.8c-0.2,0.2-0.4,0.4-0.7,0.6c-0.3,0.2-0.6,0.3-0.9,0.4l0,0c0.2,0.1,0.3,0.2,0.5,0.3
			c0.1,0.1,0.3,0.2,0.4,0.4c0.1,0.1,0.2,0.3,0.3,0.4c0.1,0.2,0.2,0.3,0.4,0.6L120.8,576.2z M114.8,567.7v3.2h1.3
			c0.2,0,0.5,0,0.7-0.1s0.4-0.2,0.5-0.3c0.2-0.1,0.3-0.3,0.4-0.5s0.1-0.4,0.1-0.7c0-0.5-0.1-0.8-0.4-1.1c-0.3-0.3-0.7-0.4-1.3-0.4
			L114.8,567.7L114.8,567.7z"/>
		<path d="M128.5,566.4l-3.2,6.2v3.5h-1.6v-3.5l-3.1-6.2h1.8l1.9,4.2c0,0,0.1,0.2,0.2,0.6l0,0c0-0.1,0.1-0.3,0.2-0.6l2-4.2H128.5z"
			/>
		<path d="M21.4,592.9h-1.7l-4.7-7.2c-0.1-0.2-0.2-0.4-0.3-0.6l0,0c0,0.2,0.1,0.7,0.1,1.3v6.4h-1.6v-9.9h1.9l4.5,7
			c0.2,0.3,0.3,0.5,0.4,0.6l0,0c0-0.3-0.1-0.7-0.1-1.3v-6.3h1.6L21.4,592.9L21.4,592.9z"/>
		<path d="M29.3,592.9h-5.5v-9.8h5.3v1.4h-3.6v2.8h3.4v1.4h-3.4v2.9h3.9L29.3,592.9L29.3,592.9z"/>
		<path d="M37.4,584.5h-2.8v8.4H33v-8.4h-2.8v-1.4h7.2V584.5L37.4,584.5z"/>
		<path d="M51.2,583l-2.7,9.8h-1.8l-1.9-6.8c-0.1-0.3-0.1-0.6-0.1-1l0,0c0,0.3-0.1,0.6-0.2,0.9l-1.9,6.8h-1.9l-2.7-9.8h1.8l1.8,7.1
			c0.1,0.3,0.1,0.6,0.1,0.9l0,0c0-0.2,0.1-0.5,0.2-0.9l2-7.1h1.7l1.8,7.2c0.1,0.2,0.1,0.5,0.1,0.9l0,0c0-0.2,0.1-0.5,0.2-0.9
			l1.7-7.2L51.2,583L51.2,583z"/>
		<path d="M56.6,593c-1.4,0-2.5-0.5-3.4-1.4c-0.8-0.9-1.3-2.1-1.3-3.6c0-1.6,0.4-2.8,1.3-3.8c0.9-0.9,2-1.4,3.5-1.4
			c1.4,0,2.5,0.5,3.3,1.4s1.3,2.1,1.3,3.6c0,1.6-0.4,2.8-1.3,3.8C59.1,592.5,58,593,56.6,593z M56.6,584.4c-0.9,0-1.6,0.3-2.2,1
			c-0.6,0.7-0.8,1.5-0.8,2.6s0.3,2,0.8,2.6c0.5,0.7,1.3,1,2.1,1c0.9,0,1.7-0.3,2.2-0.9s0.8-1.5,0.8-2.6c0-1.2-0.3-2.1-0.8-2.7
			C58.2,584.8,57.6,584.4,56.6,584.4z"/>
		<path d="M70.6,592.9h-1.9l-1.6-2.6c-0.1-0.2-0.3-0.4-0.4-0.6c-0.1-0.2-0.3-0.3-0.4-0.4s-0.3-0.2-0.5-0.2s-0.3-0.1-0.6-0.1h-0.5v4
			h-1.6v-9.8h3.2c0.5,0,0.9,0.1,1.3,0.2c0.4,0.1,0.7,0.3,1,0.5c0.3,0.2,0.5,0.5,0.7,0.8c0.2,0.3,0.2,0.7,0.2,1.2
			c0,0.3-0.1,0.7-0.2,0.9c-0.1,0.3-0.2,0.5-0.4,0.8c-0.2,0.2-0.4,0.4-0.7,0.6c-0.3,0.2-0.6,0.3-0.9,0.4l0,0c0.2,0.1,0.3,0.2,0.5,0.3
			c0.1,0.1,0.3,0.2,0.4,0.4c0.1,0.1,0.2,0.3,0.3,0.4c0.1,0.2,0.2,0.3,0.4,0.6L70.6,592.9z M64.7,584.5v3.2H66c0.2,0,0.5,0,0.7-0.1
			c0.2-0.1,0.4-0.2,0.5-0.3c0.2-0.1,0.3-0.3,0.4-0.5c0.1-0.2,0.1-0.4,0.1-0.7c0-0.5-0.1-0.8-0.4-1.1c-0.3-0.3-0.7-0.4-1.3-0.4
			L64.7,584.5L64.7,584.5z"/>
		<path d="M79.1,592.9H77l-3.4-4.5c-0.1-0.2-0.2-0.3-0.2-0.3l0,0v4.8h-1.7v-9.8h1.6v4.6l0,0c0.1-0.1,0.1-0.2,0.2-0.3l3.3-4.3h1.9
			l-3.8,4.7L79.1,592.9z"/>
		<path d="M87.4,595h-1.3c-1.4-1.6-2.1-3.6-2.1-5.9c0-2.4,0.7-4.4,2.1-6h1.3c-1.4,1.7-2.1,3.7-2.1,6C85.3,591.4,86,593.4,87.4,595z"
			/>
		<path d="M95.5,592.5c-0.7,0.4-1.6,0.6-2.7,0.6c-1.4,0-2.5-0.4-3.4-1.3c-0.9-0.9-1.3-2.1-1.3-3.5c0-1.6,0.5-2.8,1.4-3.8
			s2.2-1.4,3.6-1.4c0.9,0,1.7,0.1,2.3,0.4v1.6c-0.7-0.4-1.4-0.6-2.2-0.6c-1.1,0-1.9,0.3-2.6,1c-0.7,0.7-1,1.6-1,2.7
			c0,1.1,0.3,1.9,0.9,2.6c0.6,0.6,1.4,1,2.4,1c0.9,0,1.7-0.2,2.4-0.7v1.4H95.5L95.5,592.5z"/>
		<path d="M97.4,592.9v-9.8h2.8c3.6,0,5.4,1.6,5.4,4.8c0,1.5-0.5,2.7-1.5,3.6s-2.3,1.4-4,1.4H97.4z M99,584.5v7h1.3
			c1.1,0,2-0.3,2.7-0.9c0.6-0.6,0.9-1.5,0.9-2.7c0-2.3-1.2-3.4-3.5-3.4H99L99,584.5z"/>
		<path d="M115.6,592.9h-1.8l-4.7-7.2c-0.1-0.2-0.2-0.4-0.3-0.6l0,0c0,0.2,0.1,0.7,0.1,1.3v6.4h-1.6v-9.9h1.9l4.5,7
			c0.2,0.3,0.3,0.5,0.4,0.6l0,0c0-0.3-0.1-0.7-0.1-1.3v-6.3h1.6V592.9z"/>
		<path d="M118.3,595H117c1.4-1.7,2.1-3.7,2.1-6s-0.7-4.3-2.1-6h1.3c1.4,1.7,2.2,3.7,2.2,6C120.5,591.5,119.7,593.5,118.3,595z"/>
	</g>
	<path d="M85.4,536.6c0.3-1,0.4-2,0.4-3.1c0-4.2-2-7.8-5.2-10l-4.9,8.3c-0.2,0.3,0,0.6,0.3,0.6h6.3c0.4,0,0.5,0.2,0.2,0.5
		l-16.3,18.6c-0.2,0.3-0.3,0.2-0.2-0.1l5.2-12.5c0.1-0.3-0.1-0.6-0.4-0.6h-5c-0.4,0-0.5-0.2-0.4-0.6l6-16c-4,0.8-7.4,3.5-8.9,7.3
		c-1.6-1.9-3.9-3.1-6.5-3.1c-4.7,0-8.6,3.9-8.6,8.6c0,0.8,0.1,1.6,0.3,2.4c-3.9,1.4-6.6,5.2-6.6,9.6c0,5.6,4.5,10.2,10.1,10.2h31.2
		c5.6,0,10.1-4.6,10.1-10.2C92.4,541.7,89.5,537.9,85.4,536.6L85.4,536.6z"/>
</g>
<line style="fill:none;stroke:#DEDEDE;stroke-width:4;stroke-linecap:round;stroke-linejoin:round;stroke-miterlimit:10;" x1="121.5" y1="428.5" x2="121.5" y2="525.8"/>
<line style="fill:none;stroke:#DEDEDE;stroke-width:4;stroke-linecap:round;stroke-linejoin:round;stroke-miterlimit:10;" x1="121.5" y1="-36" x2="121.5" y2="269"/>
<circle style="fill:none;stroke:#DEDEDE;stroke-width:4;stroke-linecap:round;stroke-linejoin:round;stroke-miterlimit:10;" cx="121.5" cy="531.3" r="5"/>
</svg>
