<?xml version="1.0" encoding="utf-8"?>
<!-- Generator: Adobe Illustrator 19.2.0, SVG Export Plug-In . SVG Version: 6.00 Build 0)  -->
<svg version="1.1" id="Layer_1" xmlns="http://www.w3.org/2000/svg" xmlns:xlink="http://www.w3.org/1999/xlink" x="0px" y="0px"
	 width="129.2px" height="640px" viewBox="0 0 129.2 640" style="enable-background:new 0 0 129.2 640;" xml:space="preserve">
<g id="Layer_2">
</g>
<g>
	<g>
		<path d="M88.3,615.8v-9.9h2.8c3.6,0,5.4,1.6,5.4,4.8c0,1.5-0.5,2.7-1.5,3.6s-2.3,1.4-4,1.4L88.3,615.8L88.3,615.8L88.3,615.8z
			 M89.9,607.4v7h1.3c1.1,0,2-0.3,2.7-0.9c0.6-0.6,0.9-1.5,0.9-2.7c0-2.3-1.2-3.4-3.5-3.4H89.9L89.9,607.4z"/>
		<path d="M106.6,615.8h-1.8l-4.7-7.2c-0.1-0.2-0.2-0.4-0.3-0.6l0,0c0,0.2,0.1,0.7,0.1,1.3v6.4h-1.6v-9.8h1.9l4.5,7
			c0.2,0.3,0.3,0.5,0.4,0.6l0,0c0-0.3-0.1-0.7-0.1-1.3v-6.3h1.6V615.8z"/>
		<path d="M108.6,615.4v-1.7c0.1,0.1,0.3,0.3,0.5,0.4s0.4,0.2,0.7,0.3c0.2,0.1,0.5,0.1,0.7,0.2c0.2,0,0.4,0.1,0.6,0.1
			c0.7,0,1.2-0.1,1.5-0.3c0.3-0.2,0.5-0.6,0.5-1c0-0.2-0.1-0.4-0.2-0.6s-0.3-0.3-0.5-0.5s-0.4-0.3-0.7-0.4c-0.3-0.1-0.6-0.3-0.9-0.4
			c-0.3-0.2-0.6-0.4-0.9-0.5c-0.3-0.2-0.5-0.4-0.7-0.6c-0.2-0.2-0.4-0.5-0.5-0.7c-0.1-0.2-0.2-0.6-0.2-1c0-0.5,0.1-0.9,0.3-1.2
			c0.2-0.3,0.5-0.6,0.8-0.8c0.3-0.2,0.7-0.4,1.2-0.5c0.5-0.1,0.9-0.2,1.3-0.2c1,0,1.8,0.1,2.2,0.3v1.6c-0.6-0.4-1.3-0.6-2.1-0.6
			c-0.2,0-0.5,0-0.7,0.1c-0.2,0-0.5,0.1-0.6,0.2s-0.3,0.2-0.5,0.4c-0.2,0.2-0.2,0.4-0.2,0.6s0,0.4,0.1,0.6c0.1,0.2,0.2,0.3,0.4,0.4
			c0.2,0.1,0.4,0.3,0.6,0.4c0.3,0.1,0.5,0.3,0.9,0.4c0.3,0.2,0.7,0.4,1,0.6c0.3,0.2,0.6,0.4,0.8,0.6c0.2,0.2,0.4,0.5,0.5,0.8
			s0.2,0.6,0.2,1c0,0.5-0.1,0.9-0.3,1.3c-0.2,0.3-0.5,0.6-0.8,0.8s-0.7,0.4-1.2,0.5c-0.4,0.1-0.9,0.1-1.4,0.1c-0.2,0-0.4,0-0.6,0
			s-0.5-0.1-0.7-0.1s-0.5-0.1-0.7-0.2C108.9,615.5,108.7,615.4,108.6,615.4z"/>
	</g>
	<g>
		<path d="M104.5,578.5c-1.3,0-2.5,0.8-3,2H82.4c-3.2,0-5.9-2.6-5.9-5.9c0-3.2,2.6-5.9,5.9-5.9h2.7c0.1-0.7,0.3-1.3,0.6-1.9
			c0.1-0.2,0.2-0.4,0.4-0.7c1.3-2.3,3.8-3.9,6.8-3.9c2.6,0,4.8,1.3,6.3,3.2c0.8-0.4,1.7-0.7,2.6-0.9c-1.8-3-5.1-4.9-8.8-4.9
			c-4.3,0-8.1,2.7-9.6,6.5l0,0l0,0h-0.8c-4.7,0-8.5,3.8-8.5,8.5s3.8,8.5,8.5,8.5h19.1c0.5,1.2,1.7,2,3,2c1.8,0,3.3-1.4,3.3-3.3
			S106.3,578.5,104.5,578.5L104.5,578.5z"/>
		<path d="M115,572c-1.9-3.8-5.9-6.5-10.5-6.5c-5.6,0-10.3,3.9-11.4,9.1c-2.7,0.3-5.1,1.7-6.6,3.8h13.9c0.9-1.2,2.4-2,4.1-2
			c2.9,0,5.2,2.3,5.2,5.2s-2.3,5.2-5.2,5.2c-1.7,0-3.1-0.8-4.1-2H84.9c0.6,4.4,4.4,7.8,9,7.8l0,0h20.9l0,0c5.7,0,10.4-4.7,10.4-10.4
			C125.3,576.6,120.7,572,115,572L115,572z"/>
	</g>
</g>
<line style="fill:none;stroke:#DEDEDE;stroke-width:4;stroke-linecap:round;stroke-linejoin:round;stroke-miterlimit:10;" x1="19" y1="-33.5" x2="19" y2="609.9"/>
<line style="fill:none;stroke:#DEDEDE;stroke-width:4;stroke-linecap:round;stroke-linejoin:round;stroke-miterlimit:10;" x1="19" y1="609.9" x2="42.4" y2="609.9"/>
<circle style="fill:none;stroke:#DEDEDE;stroke-width:4;stroke-linecap:round;stroke-linejoin:round;stroke-miterlimit:10;" cx="49.4" cy="609.9" r="5"/>
</svg>
